<svg width="156" height="172" viewBox="0 0 156 172" fill="none" xmlns="http://www.w3.org/2000/svg">
<path d="M20 42H110V142H20V42Z" fill="white"/>
<path d="M26.25 48.25H103.75V135.75H26.25V48.25Z" fill="black"/>
<path d="M88.1232 71.6966C88.8899 74.11 89.2732 76.4333 89.2732 78.6666C89.2732 84.7 86.3832 89.4133 80.6032 92.8066C86.5965 96.7266 89.8399 101.867 90.3332 108.227C90.3599 108.413 90.3732 108.607 90.3732 108.807C90.3732 109.007 90.3732 109.197 90.3732 109.377C90.3732 114.977 88.4632 119.55 84.6432 123.097C78.7965 128.09 72.5532 130.587 65.9132 130.587C63.0065 130.587 60.0699 130.11 57.1032 129.157C47.7965 126.223 42.2865 120.41 40.5732 111.717V110.897C40.5732 102.757 43.8165 96.85 50.3032 93.1766C44.6165 88.95 41.7732 83.93 41.7732 78.1166C41.7732 76.59 41.9865 74.94 42.4132 73.1666C45.6532 64.4466 52.3832 59.4266 62.6032 58.1066C62.9765 58.08 63.3365 58.0666 63.6832 58.0666C64.0365 58.0666 64.3832 58.0666 64.7232 58.0666C75.8899 58.0666 83.6899 62.61 88.1232 71.6966ZM53.7932 79.7266V80.6866C55.7865 86.1066 59.4132 88.8166 64.6732 88.8166C65.1332 88.8166 65.5999 88.7933 66.0732 88.7466C66.5465 88.7 67.0432 88.6466 67.5632 88.5866C73.6565 87.7 76.8999 84.5166 77.2932 79.0366C76.5265 72.2766 72.5199 68.8966 65.2732 68.8966C65.0265 68.8966 64.7732 68.8966 64.5132 68.8966C64.2532 68.8966 63.9865 68.91 63.7132 68.9366C57.0999 70.1633 53.7932 73.76 53.7932 79.7266ZM52.6932 109.887C53.9799 116.553 57.9732 119.887 64.6732 119.887C65.0065 119.887 65.3365 119.88 65.6632 119.867C65.9832 119.853 66.3099 119.83 66.6432 119.797C73.9899 119.31 77.9065 115.7 78.3932 108.967C77.1999 101.867 72.8399 98.3166 65.3132 98.3166H64.4432C56.9765 99.2633 53.0599 103.12 52.6932 109.887Z" fill="white"/>
<path d="M96.5 53H33.5V151H96.5V53Z" stroke="white" stroke-width="2" stroke-dasharray="5 5"/>
<path d="M103.378 71V54" stroke="#46C147" stroke-width="1.11481"/>
<path d="M97.3778 69V54" stroke="#46C147" stroke-width="1.11481"/>
<path d="M97.3778 58.4644H103.378" stroke="#46C147" stroke-width="1.11481"/>
<path d="M97.3778 58.4644L84 61.8088V55.12L97.3778 58.4644Z" fill="#46C147"/>
<path d="M103.378 58.4644L116.756 61.8088V55.12L103.378 58.4644Z" fill="#46C147"/>
<path d="M123.058 65.133C122.343 65.133 121.733 64.9382 121.229 64.5487C120.726 64.156 120.341 63.5875 120.075 62.8432C119.809 62.0958 119.676 61.1932 119.676 60.1354C119.676 59.0839 119.809 58.186 120.075 57.4418C120.344 56.6943 120.731 56.1242 121.234 55.7315C121.741 55.3356 122.349 55.1377 123.058 55.1377C123.768 55.1377 124.374 55.3356 124.878 55.7315C125.385 56.1242 125.771 56.6943 126.037 57.4418C126.306 58.186 126.441 59.0839 126.441 60.1354C126.441 61.1932 126.308 62.0958 126.042 62.8432C125.776 63.5875 125.391 64.156 124.887 64.5487C124.384 64.9382 123.774 65.133 123.058 65.133ZM123.058 64.0879C123.768 64.0879 124.319 63.7458 124.712 63.0617C125.104 62.3777 125.301 61.4022 125.301 60.1354C125.301 59.2929 125.21 58.5756 125.03 57.9833C124.853 57.3911 124.596 56.9398 124.26 56.6294C123.928 56.319 123.527 56.1638 123.058 56.1638C122.355 56.1638 121.806 56.5106 121.41 57.2042C121.014 57.8946 120.816 58.8717 120.816 60.1354C120.816 60.9778 120.905 61.6936 121.082 62.2826C121.259 62.8717 121.514 63.3199 121.847 63.6271C122.183 63.9343 122.586 64.0879 123.058 64.0879ZM128.743 65.076C128.508 65.076 128.307 64.9921 128.139 64.8242C127.971 64.6564 127.887 64.4553 127.887 64.2209C127.887 63.9865 127.971 63.7854 128.139 63.6176C128.307 63.4497 128.508 63.3658 128.743 63.3658C128.977 63.3658 129.178 63.4497 129.346 63.6176C129.514 63.7854 129.598 63.9865 129.598 64.2209C129.598 64.3761 129.558 64.5186 129.479 64.6485C129.403 64.7783 129.3 64.8828 129.17 64.962C129.043 65.038 128.901 65.076 128.743 65.076ZM134.435 65.133C133.878 65.133 133.376 65.0222 132.929 64.8005C132.482 64.5788 132.125 64.2747 131.855 63.8884C131.586 63.502 131.439 63.0617 131.414 62.5677H132.554C132.598 63.0079 132.798 63.3721 133.152 63.6603C133.51 63.9454 133.938 64.0879 134.435 64.0879C134.834 64.0879 135.189 63.9945 135.499 63.8076C135.813 63.6207 136.058 63.3642 136.235 63.038C136.416 62.7086 136.506 62.3365 136.506 61.9216C136.506 61.4972 136.413 61.1187 136.226 60.7862C136.042 60.4505 135.789 60.186 135.466 59.9928C135.143 59.7996 134.774 59.7015 134.359 59.6983C134.061 59.6951 133.756 59.7411 133.442 59.8361C133.129 59.9279 132.87 60.0467 132.668 60.1924L131.566 60.0593L132.155 55.2707H137.209V56.3159H133.143L132.801 59.1852H132.858C133.057 59.0269 133.307 58.8954 133.608 58.7909C133.909 58.6864 134.223 58.6342 134.549 58.6342C135.144 58.6342 135.675 58.7767 136.14 59.0617C136.609 59.3436 136.977 59.73 137.243 60.2209C137.512 60.7118 137.646 61.2723 137.646 61.9026C137.646 62.5233 137.507 63.0776 137.228 63.5653C136.953 64.0499 136.573 64.4331 136.088 64.715C135.604 64.9937 135.053 65.133 134.435 65.133ZM144.721 59.3373L143.714 59.6223C143.651 59.4544 143.557 59.2913 143.434 59.133C143.313 58.9715 143.149 58.8384 142.94 58.7339C142.731 58.6294 142.463 58.5772 142.137 58.5772C141.69 58.5772 141.318 58.6801 141.021 58.8859C140.726 59.0886 140.579 59.3468 140.579 59.6603C140.579 59.939 140.68 60.1591 140.883 60.3206C141.085 60.4822 141.402 60.6168 141.833 60.7244L142.916 60.9905C143.568 61.1488 144.055 61.3911 144.374 61.7173C144.694 62.0404 144.854 62.4568 144.854 62.9667C144.854 63.3848 144.734 63.7585 144.493 64.0879C144.256 64.4173 143.923 64.677 143.496 64.867C143.068 65.057 142.571 65.152 142.004 65.152C141.26 65.152 140.644 64.9905 140.156 64.6675C139.668 64.3444 139.359 63.8725 139.23 63.2518L140.294 62.9857C140.395 63.3785 140.587 63.673 140.868 63.8694C141.154 64.0657 141.526 64.1639 141.985 64.1639C142.507 64.1639 142.922 64.053 143.23 63.8313C143.54 63.6065 143.695 63.3373 143.695 63.0237C143.695 62.7704 143.606 62.5582 143.429 62.3872C143.252 62.213 142.979 62.0831 142.612 61.9976L141.396 61.7126C140.728 61.5542 140.237 61.3088 139.923 60.9762C139.613 60.6405 139.458 60.2209 139.458 59.7173C139.458 59.3056 139.573 58.9414 139.804 58.6247C140.039 58.3079 140.357 58.0593 140.759 57.8788C141.165 57.6983 141.624 57.608 142.137 57.608C142.859 57.608 143.426 57.7664 143.838 58.0831C144.253 58.3998 144.547 58.8179 144.721 59.3373ZM148.195 65L145.972 57.703H147.15L148.727 63.2898H148.803L150.361 57.703H151.559L153.098 63.2708H153.174L154.751 57.703H155.929L153.706 65H152.604L151.008 59.3943H150.894L149.297 65H148.195Z" fill="#46C147"/>
<path d="M26.3778 55.9088V13.5459" stroke="#46C147" stroke-width="1.11481"/>
<path d="M32.3778 53.9088V13.5459" stroke="#46C147" stroke-width="1.11481"/>
<path d="M32.3778 22.4644H26.3778" stroke="#46C147" stroke-width="1.11481"/>
<path d="M32.3778 22.4644L45.7556 25.8088V19.12L32.3778 22.4644Z" fill="#46C147"/>
<path d="M26.3778 22.4644L13 25.8088V19.12L26.3778 22.4644Z" fill="#46C147"/>
<path d="M19.0583 10.133C18.3426 10.133 17.7329 9.93824 17.2293 9.54869C16.7258 9.15597 16.341 8.58748 16.0749 7.84322C15.8089 7.09578 15.6759 6.19316 15.6759 5.13536C15.6759 4.08389 15.8089 3.18602 16.0749 2.44175C16.3441 1.69432 16.7305 1.12424 17.2341 0.731526C17.7408 0.335641 18.3489 0.137698 19.0583 0.137698C19.7678 0.137698 20.3743 0.335641 20.8778 0.731526C21.3846 1.12424 21.7709 1.69432 22.037 2.44175C22.3062 3.18602 22.4408 4.08389 22.4408 5.13536C22.4408 6.19316 22.3078 7.09578 22.0417 7.84322C21.7757 8.58748 21.3909 9.15597 20.8873 9.54869C20.3838 9.93824 19.7741 10.133 19.0583 10.133ZM19.0583 9.08788C19.7678 9.08788 20.3188 8.74583 20.7115 8.06174C21.1043 7.37765 21.3006 6.40219 21.3006 5.13536C21.3006 4.29291 21.2104 3.57557 21.0298 2.98332C20.8525 2.39108 20.5959 1.93977 20.2602 1.62939C19.9277 1.31902 19.5271 1.16383 19.0583 1.16383C18.3552 1.16383 17.8057 1.51063 17.4099 2.20422C17.014 2.89465 16.816 3.87169 16.816 5.13536C16.816 5.9778 16.9047 6.69356 17.0821 7.28264C17.2594 7.87172 17.5144 8.31986 17.8469 8.62707C18.1826 8.93428 18.5864 9.08788 19.0583 9.08788ZM24.7425 10.076C24.5081 10.076 24.307 9.99208 24.1391 9.82423C23.9713 9.65637 23.8873 9.45526 23.8873 9.2209C23.8873 8.98653 23.9713 8.78542 24.1391 8.61757C24.307 8.44971 24.5081 8.36578 24.7425 8.36578C24.9768 8.36578 25.1779 8.44971 25.3458 8.61757C25.5136 8.78542 25.5976 8.98653 25.5976 9.2209C25.5976 9.37608 25.558 9.5186 25.4788 9.64845C25.4028 9.7783 25.2999 9.88282 25.17 9.96199C25.0433 10.038 24.9008 10.076 24.7425 10.076ZM30.4349 10.133C29.8775 10.133 29.3755 10.0222 28.9289 9.80047C28.4824 9.57878 28.1245 9.27474 27.8553 8.88835C27.5861 8.50197 27.4388 8.06174 27.4135 7.56768H28.5536C28.598 8.0079 28.7975 8.37212 29.1522 8.66032C29.5101 8.94536 29.9377 9.08788 30.4349 9.08788C30.8339 9.08788 31.1887 8.99445 31.499 8.80759C31.8126 8.62073 32.058 8.3642 32.2354 8.03799C32.4159 7.70861 32.5062 7.33648 32.5062 6.92159C32.5062 6.4972 32.4127 6.11874 32.2259 5.78619C32.0422 5.45048 31.7888 5.18603 31.4658 4.99284C31.1427 4.79965 30.7738 4.70147 30.3589 4.6983C30.0612 4.69513 29.7556 4.74106 29.442 4.83607C29.1285 4.92791 28.8704 5.04668 28.6677 5.19237L27.5655 5.05935L28.1546 0.270716H33.2093V1.31585H29.1427L28.8007 4.18523H28.8577C29.0572 4.02688 29.3074 3.89544 29.6083 3.79093C29.9092 3.68642 30.2227 3.63416 30.5489 3.63416C31.1443 3.63416 31.6748 3.77668 32.1404 4.06172C32.6091 4.34359 32.9765 4.72997 33.2425 5.22087C33.5117 5.71177 33.6463 6.27234 33.6463 6.90259C33.6463 7.52334 33.507 8.07758 33.2283 8.56531C32.9527 9.04987 32.5727 9.43309 32.0881 9.71496C31.6035 9.99367 31.0525 10.133 30.4349 10.133ZM40.7212 4.33725L39.7141 4.62229C39.6507 4.45443 39.5573 4.29133 39.4338 4.13298C39.3134 3.97145 39.1487 3.83844 38.9397 3.73392C38.7307 3.62941 38.4631 3.57715 38.1368 3.57715C37.6903 3.57715 37.3182 3.68008 37.0205 3.88594C36.7259 4.08864 36.5786 4.34675 36.5786 4.66029C36.5786 4.939 36.68 5.15911 36.8827 5.32063C37.0854 5.48215 37.4021 5.61675 37.8328 5.72444L38.916 5.99047C39.5684 6.14882 40.0545 6.39111 40.3744 6.71732C40.6943 7.04036 40.8542 7.45683 40.8542 7.96673C40.8542 8.38479 40.7339 8.7585 40.4932 9.08788C40.2556 9.41726 39.9231 9.67696 39.4955 9.86698C39.068 10.057 38.5707 10.152 38.0038 10.152C37.2596 10.152 36.6436 9.9905 36.1558 9.66746C35.6681 9.34441 35.3593 8.87252 35.2295 8.25177L36.2936 7.98573C36.395 8.37845 36.5866 8.67299 36.8684 8.86935C37.1535 9.06571 37.5256 9.16389 37.9848 9.16389C38.5074 9.16389 38.9223 9.05304 39.2295 8.83135C39.5399 8.60648 39.6951 8.33728 39.6951 8.02374C39.6951 7.77037 39.6064 7.55818 39.429 7.38716C39.2517 7.21297 38.9793 7.08311 38.6119 6.9976L37.3957 6.71257C36.7275 6.55421 36.2366 6.30876 35.9231 5.97622C35.6127 5.64051 35.4575 5.22087 35.4575 4.7173C35.4575 4.30558 35.5731 3.94137 35.8043 3.62466C36.0387 3.30795 36.3569 3.05933 36.7592 2.87881C37.1646 2.69829 37.6238 2.60802 38.1368 2.60802C38.8589 2.60802 39.4259 2.76638 39.8376 3.08309C40.2525 3.3998 40.547 3.81785 40.7212 4.33725ZM44.1951 10L41.9718 2.70304H43.1499L44.7272 8.28977H44.8032L46.3614 2.70304H47.5585L49.0977 8.27077H49.1737L50.7509 2.70304H51.9291L49.7058 10H48.6037L47.0075 4.39426H46.8934L45.2972 10H44.1951Z" fill="#46C147"/>
<path d="M55 136H77" stroke="#FF0000" stroke-width="1.11481"/>
<path d="M49 142H77" stroke="#FF0000" stroke-width="1.11481"/>
<path d="M68 131V145" stroke="#FF0000" stroke-width="1.11481"/>
<path d="M67.8444 140L64.5 153.378H71.1888L67.8444 140Z" fill="#FF0000"/>
<path d="M67.8444 138.378L64.5 125H71.1888L67.8444 138.378Z" fill="#FF0000"/>
<path d="M54.1806 166.133C53.4648 166.133 52.8551 165.938 52.3516 165.549C51.848 165.156 51.4632 164.587 51.1972 163.843C50.9311 163.096 50.7981 162.193 50.7981 161.135C50.7981 160.084 50.9311 159.186 51.1972 158.442C51.4664 157.694 51.8527 157.124 52.3563 156.732C52.863 156.336 53.4711 156.138 54.1806 156.138C54.89 156.138 55.4965 156.336 56 156.732C56.5068 157.124 56.8932 157.694 57.1592 158.442C57.4284 159.186 57.563 160.084 57.563 161.135C57.563 162.193 57.43 163.096 57.1639 163.843C56.8979 164.587 56.5131 165.156 56.0095 165.549C55.506 165.938 54.8963 166.133 54.1806 166.133ZM54.1806 165.088C54.89 165.088 55.4411 164.746 55.8338 164.062C56.2265 163.378 56.4228 162.402 56.4228 161.135C56.4228 160.293 56.3326 159.576 56.1521 158.983C55.9747 158.391 55.7182 157.94 55.3825 157.629C55.0499 157.319 54.6493 157.164 54.1806 157.164C53.4775 157.164 52.928 157.511 52.5321 158.204C52.1362 158.895 51.9383 159.872 51.9383 161.135C51.9383 161.978 52.0269 162.694 52.2043 163.283C52.3816 163.872 52.6366 164.32 52.9691 164.627C53.3049 164.934 53.7087 165.088 54.1806 165.088ZM59.8647 166.076C59.6303 166.076 59.4292 165.992 59.2613 165.824C59.0935 165.656 59.0096 165.455 59.0096 165.221C59.0096 164.987 59.0935 164.785 59.2613 164.618C59.4292 164.45 59.6303 164.366 59.8647 164.366C60.099 164.366 60.3002 164.45 60.468 164.618C60.6359 164.785 60.7198 164.987 60.7198 165.221C60.7198 165.376 60.6802 165.519 60.601 165.648C60.525 165.778 60.4221 165.883 60.2922 165.962C60.1656 166.038 60.023 166.076 59.8647 166.076ZM65.5571 166.133C64.9997 166.133 64.4977 166.022 64.0512 165.8C63.6046 165.579 63.2467 165.275 62.9775 164.888C62.7083 164.502 62.5611 164.062 62.5357 163.568H63.6759C63.7202 164.008 63.9197 164.372 64.2744 164.66C64.6323 164.945 65.0599 165.088 65.5571 165.088C65.9562 165.088 66.3109 164.994 66.6213 164.808C66.9348 164.621 67.1802 164.364 67.3576 164.038C67.5381 163.709 67.6284 163.336 67.6284 162.922C67.6284 162.497 67.535 162.119 67.3481 161.786C67.1644 161.45 66.911 161.186 66.588 160.993C66.265 160.8 65.896 160.701 65.4811 160.698C65.1834 160.695 64.8778 160.741 64.5642 160.836C64.2507 160.928 63.9926 161.047 63.7899 161.192L62.6877 161.059L63.2768 156.271H68.3315V157.316H64.2649L63.9229 160.185H63.9799C64.1794 160.027 64.4296 159.895 64.7305 159.791C65.0314 159.686 65.3449 159.634 65.6711 159.634C66.2665 159.634 66.797 159.777 67.2626 160.062C67.7313 160.344 68.0987 160.73 68.3647 161.221C68.6339 161.712 68.7685 162.272 68.7685 162.903C68.7685 163.523 68.6292 164.078 68.3505 164.565C68.0749 165.05 67.6949 165.433 67.2103 165.715C66.7258 165.994 66.1747 166.133 65.5571 166.133ZM75.8434 160.337L74.8363 160.622C74.7729 160.454 74.6795 160.291 74.556 160.133C74.4356 159.971 74.271 159.838 74.0619 159.734C73.8529 159.629 73.5853 159.577 73.2591 159.577C72.8125 159.577 72.4404 159.68 72.1427 159.886C71.8481 160.089 71.7009 160.347 71.7009 160.66C71.7009 160.939 71.8022 161.159 72.0049 161.321C72.2076 161.482 72.5243 161.617 72.955 161.724L74.0382 161.99C74.6906 162.149 75.1767 162.391 75.4966 162.717C75.8165 163.04 75.9764 163.457 75.9764 163.967C75.9764 164.385 75.8561 164.759 75.6154 165.088C75.3779 165.417 75.0453 165.677 74.6177 165.867C74.1902 166.057 73.693 166.152 73.1261 166.152C72.3818 166.152 71.7658 165.99 71.2781 165.667C70.7903 165.344 70.4815 164.873 70.3517 164.252L71.4158 163.986C71.5172 164.378 71.7088 164.673 71.9907 164.869C72.2757 165.066 72.6478 165.164 73.1071 165.164C73.6296 165.164 74.0445 165.053 74.3517 164.831C74.6621 164.606 74.8173 164.337 74.8173 164.024C74.8173 163.77 74.7286 163.558 74.5512 163.387C74.3739 163.213 74.1015 163.083 73.7341 162.998L72.518 162.713C71.8497 162.554 71.3588 162.309 71.0453 161.976C70.7349 161.641 70.5797 161.221 70.5797 160.717C70.5797 160.306 70.6953 159.941 70.9265 159.625C71.1609 159.308 71.4792 159.059 71.8814 158.879C72.2868 158.698 72.746 158.608 73.2591 158.608C73.9812 158.608 74.5481 158.766 74.9598 159.083C75.3747 159.4 75.6692 159.818 75.8434 160.337ZM79.3173 166L77.094 158.703H78.2722L79.8494 164.29H79.9254L81.4836 158.703H82.6808L84.22 164.271H84.296L85.8732 158.703H87.0513L84.828 166H83.7259L82.1297 160.394H82.0157L80.4195 166H79.3173Z" fill="#FF0000"/>
<path d="M67 48H89" stroke="#FF0000" stroke-width="1.11481"/>
<path d="M61 52H89" stroke="#FF0000" stroke-width="1.11481"/>
<path d="M79.5 52V54" stroke="#FF0000" stroke-width="1.11481"/>
<path d="M79.8444 50L76.5 63.3778H83.1888L79.8444 50Z" fill="#FF0000"/>
<path d="M79.8444 50.3778L76.5 37H83.1888L79.8444 50.3778Z" fill="#FF0000"/>
<path d="M73.6806 34.133C72.9648 34.133 72.3552 33.9382 71.8516 33.5487C71.348 33.156 70.9632 32.5875 70.6972 31.8432C70.4312 31.0958 70.2981 30.1932 70.2981 29.1354C70.2981 28.0839 70.4312 27.186 70.6972 26.4418C70.9664 25.6943 71.3528 25.1242 71.8563 24.7315C72.3631 24.3356 72.9712 24.1377 73.6806 24.1377C74.39 24.1377 74.9965 24.3356 75.5001 24.7315C76.0068 25.1242 76.3932 25.6943 76.6592 26.4418C76.9284 27.186 77.063 28.0839 77.063 29.1354C77.063 30.1932 76.93 31.0958 76.664 31.8432C76.3979 32.5875 76.0131 33.156 75.5096 33.5487C75.006 33.9382 74.3963 34.133 73.6806 34.133ZM73.6806 33.0879C74.39 33.0879 74.9411 32.7458 75.3338 32.0617C75.7265 31.3777 75.9229 30.4022 75.9229 29.1354C75.9229 28.2929 75.8326 27.5756 75.6521 26.9833C75.4747 26.3911 75.2182 25.9398 74.8825 25.6294C74.5499 25.319 74.1493 25.1638 73.6806 25.1638C72.9775 25.1638 72.428 25.5106 72.0321 26.2042C71.6362 26.8946 71.4383 27.8717 71.4383 29.1354C71.4383 29.9778 71.527 30.6936 71.7043 31.2826C71.8817 31.8717 72.1366 32.3199 72.4692 32.6271C72.8049 32.9343 73.2087 33.0879 73.6806 33.0879ZM79.3647 34.076C79.1303 34.076 78.9292 33.9921 78.7614 33.8242C78.5935 33.6564 78.5096 33.4553 78.5096 33.2209C78.5096 32.9865 78.5935 32.7854 78.7614 32.6176C78.9292 32.4497 79.1303 32.3658 79.3647 32.3658C79.5991 32.3658 79.8002 32.4497 79.968 32.6176C80.1359 32.7854 80.2198 32.9865 80.2198 33.2209C80.2198 33.3761 80.1802 33.5186 80.1011 33.6485C80.025 33.7783 79.9221 33.8828 79.7923 33.962C79.6656 34.038 79.5231 34.076 79.3647 34.076ZM85.1343 34.133C84.5073 34.133 83.9483 34.0253 83.4574 33.81C82.9696 33.5946 82.5817 33.2953 82.2935 32.9121C82.0084 32.5257 81.8532 32.0776 81.8279 31.5677H83.0251C83.0504 31.8812 83.1581 32.152 83.3481 32.38C83.5381 32.6049 83.7867 32.7791 84.094 32.9026C84.4012 33.0261 84.7416 33.0879 85.1153 33.0879C85.5334 33.0879 85.9039 33.015 86.227 32.8694C86.55 32.7237 86.8034 32.521 86.9871 32.2613C87.1708 32.0016 87.2626 31.7007 87.2626 31.3587C87.2626 31.0008 87.1739 30.6856 86.9966 30.4133C86.8192 30.1377 86.5595 29.9224 86.2175 29.7672C85.8754 29.612 85.4574 29.5344 84.9633 29.5344H84.1842V28.4893H84.9633C85.3497 28.4893 85.6886 28.4196 85.98 28.2802C86.2745 28.1409 86.5041 27.9445 86.6688 27.6912C86.8367 27.4378 86.9206 27.1401 86.9206 26.798C86.9206 26.4687 86.8477 26.1821 86.7021 25.9382C86.5564 25.6943 86.3505 25.5043 86.0845 25.3681C85.8216 25.2319 85.5112 25.1638 85.1533 25.1638C84.8176 25.1638 84.5009 25.2256 84.2032 25.3491C83.9087 25.4695 83.668 25.6452 83.4811 25.8764C83.2943 26.1045 83.1929 26.38 83.1771 26.703H82.0369C82.0559 26.1931 82.2095 25.7466 82.4977 25.3634C82.786 24.977 83.1628 24.6761 83.6284 24.4607C84.0971 24.2454 84.6118 24.1377 85.1723 24.1377C85.7741 24.1377 86.2903 24.2596 86.7211 24.5035C87.1518 24.7442 87.4827 25.0625 87.7139 25.4584C87.9451 25.8543 88.0607 26.2818 88.0607 26.741C88.0607 27.2889 87.9166 27.7561 87.6284 28.1425C87.3434 28.5289 86.9554 28.7965 86.4645 28.9453V29.0213C87.0789 29.1227 87.5587 29.384 87.904 29.8052C88.2492 30.2233 88.4218 30.7411 88.4218 31.3587C88.4218 31.8876 88.2777 32.3626 87.9895 32.7838C87.7044 33.2019 87.3149 33.5313 86.8208 33.772C86.3268 34.0127 85.7646 34.133 85.1343 34.133ZM95.5525 28.3373L94.5453 28.6223C94.482 28.4544 94.3886 28.2913 94.265 28.133C94.1447 27.9715 93.98 27.8384 93.771 27.7339C93.562 27.6294 93.2943 27.5772 92.9681 27.5772C92.5216 27.5772 92.1494 27.6801 91.8517 27.8859C91.5572 28.0886 91.4099 28.3468 91.4099 28.6603C91.4099 28.939 91.5113 29.1591 91.714 29.3206C91.9167 29.4822 92.2334 29.6168 92.6641 29.7244L93.7472 29.9905C94.3996 30.1488 94.8858 30.3911 95.2057 30.7173C95.5255 31.0404 95.6855 31.4568 95.6855 31.9667C95.6855 32.3848 95.5651 32.7585 95.3244 33.0879C95.0869 33.4173 94.7544 33.677 94.3268 33.867C93.8993 34.057 93.402 34.152 92.8351 34.152C92.0908 34.152 91.4748 33.9905 90.9871 33.6675C90.4994 33.3444 90.1906 32.8725 90.0607 32.2518L91.1249 31.9857C91.2262 32.3785 91.4178 32.673 91.6997 32.8694C91.9847 33.0657 92.3569 33.1639 92.8161 33.1639C93.3387 33.1639 93.7536 33.053 94.0608 32.8313C94.3711 32.6065 94.5263 32.3373 94.5263 32.0237C94.5263 31.7704 94.4377 31.5582 94.2603 31.3872C94.0829 31.213 93.8106 31.0831 93.4432 30.9976L92.227 30.7126C91.5588 30.5542 91.0679 30.3088 90.7543 29.9762C90.444 29.6405 90.2888 29.2209 90.2888 28.7173C90.2888 28.3056 90.4044 27.9414 90.6356 27.6247C90.8699 27.3079 91.1882 27.0593 91.5904 26.8788C91.9958 26.6983 92.4551 26.608 92.9681 26.608C93.6902 26.608 94.2571 26.7664 94.6689 27.0831C95.0837 27.3998 95.3783 27.8179 95.5525 28.3373ZM99.0264 34L96.8031 26.703H97.9812L99.5584 32.2898H99.6344L101.193 26.703H102.39L103.929 32.2708H104.005L105.582 26.703H106.76L104.537 34H103.435L101.839 28.3943H101.725L100.129 34H99.0264Z" fill="#FF0000"/>
</svg>
