<svg width="244" height="172" viewBox="0 0 244 172" fill="none" xmlns="http://www.w3.org/2000/svg">
<path d="M51 42H197V142H51V42Z" fill="white"/>
<path d="M57.25 48.25H190.75V135.75H57.25V48.25Z" fill="black"/>
<path d="M175.123 71.6966C175.89 74.1099 176.273 76.4332 176.273 78.6666C176.273 84.6999 173.383 89.4132 167.603 92.8066C173.597 96.7266 176.84 101.867 177.333 108.227C177.36 108.413 177.373 108.607 177.373 108.807C177.373 109.007 177.373 109.197 177.373 109.377C177.373 114.977 175.463 119.55 171.643 123.097C165.797 128.09 159.553 130.587 152.913 130.587C150.007 130.587 147.07 130.11 144.103 129.157C134.797 126.223 129.287 120.41 127.573 111.717V110.897C127.573 102.757 130.817 96.8499 137.303 93.1766C131.617 88.9499 128.773 83.9299 128.773 78.1166C128.773 76.5899 128.987 74.9399 129.413 73.1666C132.653 64.4466 139.383 59.4266 149.603 58.1066C149.977 58.0799 150.337 58.0666 150.683 58.0666C151.037 58.0666 151.383 58.0666 151.723 58.0666C162.89 58.0666 170.69 62.6099 175.123 71.6966ZM140.793 79.7266V80.6866C142.787 86.1066 146.413 88.8166 151.673 88.8166C152.133 88.8166 152.6 88.7932 153.073 88.7466C153.547 88.6999 154.043 88.6466 154.563 88.5866C160.657 87.6999 163.9 84.5166 164.293 79.0366C163.527 72.2766 159.52 68.8966 152.273 68.8966C152.027 68.8966 151.773 68.8966 151.513 68.8966C151.253 68.8966 150.987 68.9099 150.713 68.9366C144.1 70.1632 140.793 73.7599 140.793 79.7266ZM139.693 109.887C140.98 116.553 144.973 119.887 151.673 119.887C152.007 119.887 152.337 119.88 152.663 119.867C152.983 119.853 153.31 119.83 153.643 119.797C160.99 119.31 164.907 115.7 165.393 108.967C164.2 101.867 159.84 98.3166 152.313 98.3166H151.443C143.977 99.2632 140.06 103.12 139.693 109.887Z" fill="white"/>
<path d="M183.5 53H120.5V151H183.5V53Z" stroke="white" stroke-width="2" stroke-dasharray="5 5"/>
<path d="M63.5 54H75.1662V58.1663H67.6662V64.4163H73.5V68.5838H67.6662V74.8338H75.1662V79H63.5V54Z" fill="white"/>
<path d="M78.5 54H82.9137L84.75 59.2463L86.585 54H91L86.625 66.5L91 79H86.585L84.75 73.76L82.9137 79H78.5L82.875 66.5L78.5 54Z" fill="white"/>
<path d="M95.2876 54H98.5001V79H95.2876V54Z" fill="white"/>
<path d="M101.834 54H113.5V58.1663H109.75V79H105.584V58.1663H101.834V54Z" fill="white"/>
<path d="M93.5 89V100.666H105.166V94H111.834V107.334H93.5V119H106.834V112.334H113.5V129H106.834V125.666H70.1662V129H63.5V112.334H70.1662V119H83.5V107.334H65.1662V94H71.8337V100.666H83.5V89H93.5Z" fill="white"/>
<path d="M190.5 71V54" stroke="#46C147" stroke-width="1.11481"/>
<path d="M184.5 69V54" stroke="#46C147" stroke-width="1.11481"/>
<path d="M184.5 58.4644H190.5" stroke="#46C147" stroke-width="1.11481"/>
<path d="M184.5 58.4644L171.122 61.8088V55.12L184.5 58.4644Z" fill="#46C147"/>
<path d="M190.5 58.4644L203.878 61.8088V55.12L190.5 58.4644Z" fill="#46C147"/>
<path d="M210.181 65.133C209.465 65.133 208.855 64.9382 208.352 64.5487C207.848 64.156 207.463 63.5875 207.197 62.8432C206.931 62.0958 206.798 61.1932 206.798 60.1354C206.798 59.0839 206.931 58.186 207.197 57.4418C207.466 56.6943 207.853 56.1242 208.356 55.7315C208.863 55.3356 209.471 55.1377 210.181 55.1377C210.89 55.1377 211.496 55.3356 212 55.7315C212.507 56.1242 212.893 56.6943 213.159 57.4418C213.428 58.186 213.563 59.0839 213.563 60.1354C213.563 61.1932 213.43 62.0958 213.164 62.8432C212.898 63.5875 212.513 64.156 212.01 64.5487C211.506 64.9382 210.896 65.133 210.181 65.133ZM210.181 64.0879C210.89 64.0879 211.441 63.7458 211.834 63.0617C212.226 62.3777 212.423 61.4022 212.423 60.1354C212.423 59.2929 212.333 58.5756 212.152 57.9833C211.975 57.3911 211.718 56.9398 211.382 56.6294C211.05 56.319 210.649 56.1638 210.181 56.1638C209.477 56.1638 208.928 56.5106 208.532 57.2042C208.136 57.8946 207.938 58.8717 207.938 60.1354C207.938 60.9778 208.027 61.6936 208.204 62.2826C208.382 62.8717 208.637 63.3199 208.969 63.6271C209.305 63.9343 209.709 64.0879 210.181 64.0879ZM215.865 65.076C215.63 65.076 215.429 64.9921 215.261 64.8242C215.093 64.6564 215.01 64.4553 215.01 64.2209C215.01 63.9865 215.093 63.7854 215.261 63.6176C215.429 63.4497 215.63 63.3658 215.865 63.3658C216.099 63.3658 216.3 63.4497 216.468 63.6176C216.636 63.7854 216.72 63.9865 216.72 64.2209C216.72 64.3761 216.68 64.5186 216.601 64.6485C216.525 64.7783 216.422 64.8828 216.292 64.962C216.166 65.038 216.023 65.076 215.865 65.076ZM221.557 65.133C221 65.133 220.498 65.0222 220.051 64.8005C219.605 64.5788 219.247 64.2747 218.978 63.8884C218.708 63.502 218.561 63.0617 218.536 62.5677H219.676C219.72 63.0079 219.92 63.3721 220.274 63.6603C220.632 63.9454 221.06 64.0879 221.557 64.0879C221.956 64.0879 222.311 63.9945 222.621 63.8076C222.935 63.6207 223.18 63.3642 223.358 63.038C223.538 62.7086 223.628 62.3365 223.628 61.9216C223.628 61.4972 223.535 61.1187 223.348 60.7862C223.164 60.4505 222.911 60.186 222.588 59.9928C222.265 59.7996 221.896 59.7015 221.481 59.6983C221.183 59.6951 220.878 59.7411 220.564 59.8361C220.251 59.9279 219.993 60.0467 219.79 60.1924L218.688 60.0593L219.277 55.2707H224.331V56.3159H220.265L219.923 59.1852H219.98C220.179 59.0269 220.43 58.8954 220.731 58.7909C221.031 58.6864 221.345 58.6342 221.671 58.6342C222.267 58.6342 222.797 58.7767 223.263 59.0617C223.731 59.3436 224.099 59.73 224.365 60.2209C224.634 60.7118 224.769 61.2723 224.769 61.9026C224.769 62.5233 224.629 63.0776 224.35 63.5653C224.075 64.0499 223.695 64.4331 223.21 64.715C222.726 64.9937 222.175 65.133 221.557 65.133ZM231.843 59.3373L230.836 59.6223C230.773 59.4544 230.68 59.2913 230.556 59.133C230.436 58.9715 230.271 58.8384 230.062 58.7339C229.853 58.6294 229.585 58.5772 229.259 58.5772C228.813 58.5772 228.44 58.6801 228.143 58.8859C227.848 59.0886 227.701 59.3468 227.701 59.6603C227.701 59.939 227.802 60.1591 228.005 60.3206C228.208 60.4822 228.524 60.6168 228.955 60.7244L230.038 60.9905C230.691 61.1488 231.177 61.3911 231.497 61.7173C231.816 62.0404 231.976 62.4568 231.976 62.9667C231.976 63.3848 231.856 63.7585 231.615 64.0879C231.378 64.4173 231.045 64.677 230.618 64.867C230.19 65.057 229.693 65.152 229.126 65.152C228.382 65.152 227.766 64.9905 227.278 64.6675C226.79 64.3444 226.482 63.8725 226.352 63.2518L227.416 62.9857C227.517 63.3785 227.709 63.673 227.991 63.8694C228.276 64.0657 228.648 64.1639 229.107 64.1639C229.63 64.1639 230.045 64.053 230.352 63.8313C230.662 63.6065 230.817 63.3373 230.817 63.0237C230.817 62.7704 230.729 62.5582 230.551 62.3872C230.374 62.213 230.102 62.0831 229.734 61.9976L228.518 61.7126C227.85 61.5542 227.359 61.3088 227.045 60.9762C226.735 60.6405 226.58 60.2209 226.58 59.7173C226.58 59.3056 226.695 58.9414 226.927 58.6247C227.161 58.3079 227.479 58.0593 227.881 57.8788C228.287 57.6983 228.746 57.608 229.259 57.608C229.981 57.608 230.548 57.7664 230.96 58.0831C231.375 58.3998 231.669 58.8179 231.843 59.3373ZM235.317 65L233.094 57.703H234.272L235.849 63.2898H235.925L237.484 57.703H238.681L240.22 63.2708H240.296L241.873 57.703H243.051L240.828 65H239.726L238.13 59.3943H238.016L236.419 65H235.317Z" fill="#46C147"/>
<path d="M57.3778 55.9088V13.5459" stroke="#46C147" stroke-width="1.11481"/>
<path d="M63.3778 53.9088V13.5459" stroke="#46C147" stroke-width="1.11481"/>
<path d="M63.3778 22.4644H57.3778" stroke="#46C147" stroke-width="1.11481"/>
<path d="M63.3778 22.4644L76.7556 25.8088V19.12L63.3778 22.4644Z" fill="#46C147"/>
<path d="M57.3778 22.4644L44 25.8088V19.12L57.3778 22.4644Z" fill="#46C147"/>
<path d="M50.0583 10.133C49.3426 10.133 48.7329 9.93824 48.2293 9.54869C47.7258 9.15597 47.341 8.58748 47.0749 7.84322C46.8089 7.09578 46.6759 6.19316 46.6759 5.13536C46.6759 4.08389 46.8089 3.18602 47.0749 2.44175C47.3441 1.69432 47.7305 1.12424 48.2341 0.731526C48.7408 0.335641 49.3489 0.137698 50.0583 0.137698C50.7678 0.137698 51.3743 0.335641 51.8778 0.731526C52.3846 1.12424 52.7709 1.69432 53.037 2.44175C53.3062 3.18602 53.4408 4.08389 53.4408 5.13536C53.4408 6.19316 53.3078 7.09578 53.0417 7.84322C52.7757 8.58748 52.3909 9.15597 51.8873 9.54869C51.3838 9.93824 50.7741 10.133 50.0583 10.133ZM50.0583 9.08788C50.7678 9.08788 51.3188 8.74583 51.7115 8.06174C52.1043 7.37765 52.3006 6.40219 52.3006 5.13536C52.3006 4.29291 52.2104 3.57557 52.0298 2.98332C51.8525 2.39108 51.5959 1.93977 51.2602 1.62939C50.9277 1.31902 50.5271 1.16383 50.0583 1.16383C49.3552 1.16383 48.8057 1.51063 48.4099 2.20422C48.014 2.89465 47.816 3.87169 47.816 5.13536C47.816 5.9778 47.9047 6.69356 48.0821 7.28264C48.2594 7.87172 48.5144 8.31986 48.8469 8.62707C49.1826 8.93428 49.5864 9.08788 50.0583 9.08788ZM55.7425 10.076C55.5081 10.076 55.307 9.99208 55.1391 9.82423C54.9713 9.65637 54.8873 9.45526 54.8873 9.2209C54.8873 8.98653 54.9713 8.78542 55.1391 8.61757C55.307 8.44971 55.5081 8.36578 55.7425 8.36578C55.9768 8.36578 56.1779 8.44971 56.3458 8.61757C56.5136 8.78542 56.5976 8.98653 56.5976 9.2209C56.5976 9.37608 56.558 9.5186 56.4788 9.64845C56.4028 9.7783 56.2999 9.88282 56.17 9.96199C56.0433 10.038 55.9008 10.076 55.7425 10.076ZM61.4349 10.133C60.8775 10.133 60.3755 10.0222 59.9289 9.80047C59.4824 9.57878 59.1245 9.27474 58.8553 8.88835C58.5861 8.50197 58.4388 8.06174 58.4135 7.56768H59.5536C59.598 8.0079 59.7975 8.37212 60.1522 8.66032C60.5101 8.94536 60.9377 9.08788 61.4349 9.08788C61.8339 9.08788 62.1887 8.99445 62.499 8.80759C62.8126 8.62073 63.058 8.3642 63.2354 8.03799C63.4159 7.70861 63.5062 7.33648 63.5062 6.92159C63.5062 6.4972 63.4127 6.11874 63.2259 5.78619C63.0422 5.45048 62.7888 5.18603 62.4658 4.99284C62.1427 4.79965 61.7738 4.70147 61.3589 4.6983C61.0612 4.69513 60.7556 4.74106 60.442 4.83607C60.1285 4.92791 59.8704 5.04668 59.6677 5.19237L58.5655 5.05935L59.1546 0.270716H64.2093V1.31585H60.1427L59.8007 4.18523H59.8577C60.0572 4.02688 60.3074 3.89544 60.6083 3.79093C60.9092 3.68642 61.2227 3.63416 61.5489 3.63416C62.1443 3.63416 62.6748 3.77668 63.1404 4.06172C63.6091 4.34359 63.9765 4.72997 64.2425 5.22087C64.5117 5.71177 64.6463 6.27234 64.6463 6.90259C64.6463 7.52334 64.507 8.07758 64.2283 8.56531C63.9527 9.04987 63.5727 9.43309 63.0881 9.71496C62.6035 9.99367 62.0525 10.133 61.4349 10.133ZM71.7212 4.33725L70.7141 4.62229C70.6507 4.45443 70.5573 4.29133 70.4338 4.13298C70.3134 3.97145 70.1487 3.83844 69.9397 3.73392C69.7307 3.62941 69.4631 3.57715 69.1368 3.57715C68.6903 3.57715 68.3182 3.68008 68.0205 3.88594C67.7259 4.08864 67.5786 4.34675 67.5786 4.66029C67.5786 4.939 67.68 5.15911 67.8827 5.32063C68.0854 5.48215 68.4021 5.61675 68.8328 5.72444L69.916 5.99047C70.5684 6.14882 71.0545 6.39111 71.3744 6.71732C71.6943 7.04036 71.8542 7.45683 71.8542 7.96673C71.8542 8.38479 71.7339 8.7585 71.4932 9.08788C71.2556 9.41726 70.9231 9.67696 70.4955 9.86698C70.068 10.057 69.5707 10.152 69.0038 10.152C68.2596 10.152 67.6436 9.9905 67.1558 9.66746C66.6681 9.34441 66.3593 8.87252 66.2295 8.25177L67.2936 7.98573C67.395 8.37845 67.5866 8.67299 67.8684 8.86935C68.1535 9.06571 68.5256 9.16389 68.9848 9.16389C69.5074 9.16389 69.9223 9.05304 70.2295 8.83135C70.5399 8.60648 70.6951 8.33728 70.6951 8.02374C70.6951 7.77037 70.6064 7.55818 70.429 7.38716C70.2517 7.21297 69.9793 7.08311 69.6119 6.9976L68.3957 6.71257C67.7275 6.55421 67.2366 6.30876 66.9231 5.97622C66.6127 5.64051 66.4575 5.22087 66.4575 4.7173C66.4575 4.30558 66.5731 3.94137 66.8043 3.62466C67.0387 3.30795 67.3569 3.05933 67.7592 2.87881C68.1646 2.69829 68.6238 2.60802 69.1368 2.60802C69.8589 2.60802 70.4259 2.76638 70.8376 3.08309C71.2525 3.3998 71.547 3.81785 71.7212 4.33725ZM75.1951 10L72.9718 2.70304H74.1499L75.7272 8.28977H75.8032L77.3614 2.70304H78.5585L80.0977 8.27077H80.1737L81.7509 2.70304H82.9291L80.7058 10H79.6037L78.0075 4.39426H77.8934L76.2972 10H75.1951Z" fill="#46C147"/>
<path d="M88 48H110" stroke="#FF0000" stroke-width="1.11481"/>
<path d="M82 54H110" stroke="#FF0000" stroke-width="1.11481"/>
<path d="M100.5 46V55" stroke="#FF0000" stroke-width="1.11481"/>
<path d="M100.344 52L97 65.3778H103.689L100.344 52Z" fill="#FF0000"/>
<path d="M100.844 50.3778L97.5 37H104.189L100.844 50.3778Z" fill="#FF0000"/>
<path d="M94.6806 34.133C93.9648 34.133 93.3552 33.9382 92.8516 33.5487C92.348 33.156 91.9632 32.5875 91.6972 31.8432C91.4312 31.0958 91.2981 30.1932 91.2981 29.1354C91.2981 28.0839 91.4312 27.186 91.6972 26.4418C91.9664 25.6943 92.3528 25.1242 92.8563 24.7315C93.3631 24.3356 93.9712 24.1377 94.6806 24.1377C95.39 24.1377 95.9965 24.3356 96.5001 24.7315C97.0068 25.1242 97.3932 25.6943 97.6592 26.4418C97.9284 27.186 98.063 28.0839 98.063 29.1354C98.063 30.1932 97.93 31.0958 97.664 31.8432C97.3979 32.5875 97.0131 33.156 96.5096 33.5487C96.006 33.9382 95.3963 34.133 94.6806 34.133ZM94.6806 33.0879C95.39 33.0879 95.9411 32.7458 96.3338 32.0617C96.7265 31.3777 96.9229 30.4022 96.9229 29.1354C96.9229 28.2929 96.8326 27.5756 96.6521 26.9833C96.4747 26.3911 96.2182 25.9398 95.8825 25.6294C95.5499 25.319 95.1493 25.1638 94.6806 25.1638C93.9775 25.1638 93.428 25.5106 93.0321 26.2042C92.6362 26.8946 92.4383 27.8717 92.4383 29.1354C92.4383 29.9778 92.527 30.6936 92.7043 31.2826C92.8817 31.8717 93.1366 32.3199 93.4692 32.6271C93.8049 32.9343 94.2087 33.0879 94.6806 33.0879ZM100.365 34.076C100.13 34.076 99.9292 33.9921 99.7614 33.8242C99.5935 33.6564 99.5096 33.4553 99.5096 33.2209C99.5096 32.9865 99.5935 32.7854 99.7614 32.6176C99.9292 32.4497 100.13 32.3658 100.365 32.3658C100.599 32.3658 100.8 32.4497 100.968 32.6176C101.136 32.7854 101.22 32.9865 101.22 33.2209C101.22 33.3761 101.18 33.5186 101.101 33.6485C101.025 33.7783 100.922 33.8828 100.792 33.962C100.666 34.038 100.523 34.076 100.365 34.076ZM106.057 34.133C105.5 34.133 104.998 34.0222 104.551 33.8005C104.105 33.5788 103.747 33.2747 103.478 32.8884C103.208 32.502 103.061 32.0617 103.036 31.5677H104.176C104.22 32.0079 104.42 32.3721 104.774 32.6603C105.132 32.9454 105.56 33.0879 106.057 33.0879C106.456 33.0879 106.811 32.9945 107.121 32.8076C107.435 32.6207 107.68 32.3642 107.858 32.038C108.038 31.7086 108.128 31.3365 108.128 30.9216C108.128 30.4972 108.035 30.1187 107.848 29.7862C107.664 29.4505 107.411 29.186 107.088 28.9928C106.765 28.7996 106.396 28.7015 105.981 28.6983C105.683 28.6951 105.378 28.7411 105.064 28.8361C104.751 28.9279 104.493 29.0467 104.29 29.1924L103.188 29.0593L103.777 24.2707H108.832V25.3159H104.765L104.423 28.1852H104.48C104.679 28.0269 104.93 27.8954 105.231 27.7909C105.531 27.6864 105.845 27.6342 106.171 27.6342C106.767 27.6342 107.297 27.7767 107.763 28.0617C108.231 28.3436 108.599 28.73 108.865 29.2209C109.134 29.7118 109.269 30.2723 109.269 30.9026C109.269 31.5233 109.129 32.0776 108.851 32.5653C108.575 33.0499 108.195 33.4331 107.71 33.715C107.226 33.9937 106.675 34.133 106.057 34.133ZM116.343 28.3373L115.336 28.6223C115.273 28.4544 115.18 28.2913 115.056 28.133C114.936 27.9715 114.771 27.8384 114.562 27.7339C114.353 27.6294 114.085 27.5772 113.759 27.5772C113.313 27.5772 112.94 27.6801 112.643 27.8859C112.348 28.0886 112.201 28.3468 112.201 28.6603C112.201 28.939 112.302 29.1591 112.505 29.3206C112.708 29.4822 113.024 29.6168 113.455 29.7244L114.538 29.9905C115.191 30.1488 115.677 30.3911 115.997 30.7173C116.317 31.0404 116.476 31.4568 116.476 31.9667C116.476 32.3848 116.356 32.7585 116.115 33.0879C115.878 33.4173 115.545 33.677 115.118 33.867C114.69 34.057 114.193 34.152 113.626 34.152C112.882 34.152 112.266 33.9905 111.778 33.6675C111.29 33.3444 110.982 32.8725 110.852 32.2518L111.916 31.9857C112.017 32.3785 112.209 32.673 112.491 32.8694C112.776 33.0657 113.148 33.1639 113.607 33.1639C114.13 33.1639 114.545 33.053 114.852 32.8313C115.162 32.6065 115.317 32.3373 115.317 32.0237C115.317 31.7704 115.229 31.5582 115.051 31.3872C114.874 31.213 114.602 31.0831 114.234 30.9976L113.018 30.7126C112.35 30.5542 111.859 30.3088 111.545 29.9762C111.235 29.6405 111.08 29.2209 111.08 28.7173C111.08 28.3056 111.195 27.9414 111.427 27.6247C111.661 27.3079 111.979 27.0593 112.381 26.8788C112.787 26.6983 113.246 26.608 113.759 26.608C114.481 26.608 115.048 26.7664 115.46 27.0831C115.875 27.3998 116.169 27.8179 116.343 28.3373ZM119.817 34L117.594 26.703H118.772L120.349 32.2898H120.425L121.984 26.703H123.181L124.72 32.2708H124.796L126.373 26.703H127.551L125.328 34H124.226L122.63 28.3943H122.516L120.919 34H119.817Z" fill="#FF0000"/>
<path d="M62.5 129.5H40.5" stroke="#FF0000" stroke-width="1.11481"/>
<path d="M68.5 135.5H40.5" stroke="#FF0000" stroke-width="1.11481"/>
<path d="M50 127.5V136.5" stroke="#FF0000" stroke-width="1.11481"/>
<path d="M50.1556 133.5L53.5 146.878H46.8112L50.1556 133.5Z" fill="#FF0000"/>
<path d="M49.6556 131.878L53 118.5H46.3112L49.6556 131.878Z" fill="#FF0000"/>
<path d="M4.18055 137.133C3.46479 137.133 2.85513 136.938 2.35156 136.549C1.84799 136.156 1.46319 135.587 1.19716 134.843C0.931123 134.096 0.798105 133.193 0.798105 132.135C0.798105 131.084 0.931123 130.186 1.19716 129.442C1.46636 128.694 1.85274 128.124 2.35631 127.732C2.86304 127.336 3.47112 127.138 4.18055 127.138C4.88998 127.138 5.49648 127.336 6.00004 127.732C6.50678 128.124 6.89316 128.694 7.15919 129.442C7.4284 130.186 7.563 131.084 7.563 132.135C7.563 133.193 7.42998 134.096 7.16395 134.843C6.89791 135.587 6.51311 136.156 6.00954 136.549C5.50598 136.938 4.89631 137.133 4.18055 137.133ZM4.18055 136.088C4.88998 136.088 5.44105 135.746 5.83377 135.062C6.22649 134.378 6.42285 133.402 6.42285 132.135C6.42285 131.293 6.33259 130.576 6.15206 129.983C5.97471 129.391 5.71817 128.94 5.38246 128.629C5.04992 128.319 4.64928 128.164 4.18055 128.164C3.47746 128.164 2.92797 128.511 2.53208 129.204C2.1362 129.895 1.93826 130.872 1.93826 132.135C1.93826 132.978 2.02693 133.694 2.20429 134.283C2.38165 134.872 2.6366 135.32 2.96914 135.627C3.30485 135.934 3.70866 136.088 4.18055 136.088ZM9.86468 137.076C9.63031 137.076 9.4292 136.992 9.26135 136.824C9.09349 136.656 9.00956 136.455 9.00956 136.221C9.00956 135.987 9.09349 135.785 9.26135 135.618C9.4292 135.45 9.63031 135.366 9.86468 135.366C10.099 135.366 10.3002 135.45 10.468 135.618C10.6359 135.785 10.7198 135.987 10.7198 136.221C10.7198 136.376 10.6802 136.519 10.601 136.648C10.525 136.778 10.4221 136.883 10.2922 136.962C10.1656 137.038 10.023 137.076 9.86468 137.076ZM15.5571 137.133C14.9997 137.133 14.4977 137.022 14.0512 136.8C13.6046 136.579 13.2467 136.275 12.9775 135.888C12.7083 135.502 12.5611 135.062 12.5357 134.568H13.6759C13.7202 135.008 13.9197 135.372 14.2744 135.66C14.6323 135.945 15.0599 136.088 15.5571 136.088C15.9562 136.088 16.3109 135.994 16.6213 135.808C16.9348 135.621 17.1802 135.364 17.3576 135.038C17.5381 134.709 17.6284 134.336 17.6284 133.922C17.6284 133.497 17.535 133.119 17.3481 132.786C17.1644 132.45 16.911 132.186 16.588 131.993C16.265 131.8 15.896 131.701 15.4811 131.698C15.1834 131.695 14.8778 131.741 14.5642 131.836C14.2507 131.928 13.9926 132.047 13.7899 132.192L12.6877 132.059L13.2768 127.271H18.3315V128.316H14.2649L13.9229 131.185H13.9799C14.1794 131.027 14.4296 130.895 14.7305 130.791C15.0314 130.686 15.3449 130.634 15.6711 130.634C16.2665 130.634 16.797 130.777 17.2626 131.062C17.7313 131.344 18.0987 131.73 18.3647 132.221C18.6339 132.712 18.7685 133.272 18.7685 133.903C18.7685 134.523 18.6292 135.078 18.3505 135.565C18.0749 136.05 17.6949 136.433 17.2103 136.715C16.7258 136.994 16.1747 137.133 15.5571 137.133ZM25.8434 131.337L24.8363 131.622C24.7729 131.454 24.6795 131.291 24.556 131.133C24.4356 130.971 24.271 130.838 24.0619 130.734C23.8529 130.629 23.5853 130.577 23.2591 130.577C22.8125 130.577 22.4404 130.68 22.1427 130.886C21.8481 131.089 21.7009 131.347 21.7009 131.66C21.7009 131.939 21.8022 132.159 22.0049 132.321C22.2076 132.482 22.5243 132.617 22.955 132.724L24.0382 132.99C24.6906 133.149 25.1767 133.391 25.4966 133.717C25.8165 134.04 25.9764 134.457 25.9764 134.967C25.9764 135.385 25.8561 135.759 25.6154 136.088C25.3779 136.417 25.0453 136.677 24.6177 136.867C24.1902 137.057 23.693 137.152 23.1261 137.152C22.3818 137.152 21.7658 136.99 21.2781 136.667C20.7903 136.344 20.4815 135.873 20.3517 135.252L21.4158 134.986C21.5172 135.378 21.7088 135.673 21.9907 135.869C22.2757 136.066 22.6478 136.164 23.1071 136.164C23.6296 136.164 24.0445 136.053 24.3517 135.831C24.6621 135.606 24.8173 135.337 24.8173 135.024C24.8173 134.77 24.7286 134.558 24.5512 134.387C24.3739 134.213 24.1015 134.083 23.7341 133.998L22.518 133.713C21.8497 133.554 21.3588 133.309 21.0453 132.976C20.7349 132.641 20.5797 132.221 20.5797 131.717C20.5797 131.306 20.6953 130.941 20.9265 130.625C21.1609 130.308 21.4792 130.059 21.8814 129.879C22.2868 129.698 22.746 129.608 23.2591 129.608C23.9812 129.608 24.5481 129.766 24.9598 130.083C25.3747 130.4 25.6692 130.818 25.8434 131.337ZM29.3173 137L27.094 129.703H28.2722L29.8494 135.29H29.9254L31.4836 129.703H32.6808L34.22 135.271H34.296L35.8732 129.703H37.0513L34.828 137H33.7259L32.1297 131.394H32.0157L30.4195 137H29.3173Z" fill="#FF0000"/>
<path d="M86 136H108" stroke="#FF0000" stroke-width="1.11481"/>
<path d="M80 142H108" stroke="#FF0000" stroke-width="1.11481"/>
<path d="M99 131V145" stroke="#FF0000" stroke-width="1.11481"/>
<path d="M98.8444 140L95.5 153.378H102.189L98.8444 140Z" fill="#FF0000"/>
<path d="M98.8444 138.378L95.5 125H102.189L98.8444 138.378Z" fill="#FF0000"/>
<path d="M85.1806 166.133C84.4648 166.133 83.8551 165.938 83.3516 165.549C82.848 165.156 82.4632 164.587 82.1972 163.843C81.9311 163.096 81.7981 162.193 81.7981 161.135C81.7981 160.084 81.9311 159.186 82.1972 158.442C82.4664 157.694 82.8527 157.124 83.3563 156.732C83.863 156.336 84.4711 156.138 85.1806 156.138C85.89 156.138 86.4965 156.336 87 156.732C87.5068 157.124 87.8932 157.694 88.1592 158.442C88.4284 159.186 88.563 160.084 88.563 161.135C88.563 162.193 88.43 163.096 88.1639 163.843C87.8979 164.587 87.5131 165.156 87.0095 165.549C86.506 165.938 85.8963 166.133 85.1806 166.133ZM85.1806 165.088C85.89 165.088 86.4411 164.746 86.8338 164.062C87.2265 163.378 87.4228 162.402 87.4228 161.135C87.4228 160.293 87.3326 159.576 87.1521 158.983C86.9747 158.391 86.7182 157.94 86.3825 157.629C86.0499 157.319 85.6493 157.164 85.1806 157.164C84.4775 157.164 83.928 157.511 83.5321 158.204C83.1362 158.895 82.9383 159.872 82.9383 161.135C82.9383 161.978 83.0269 162.694 83.2043 163.283C83.3816 163.872 83.6366 164.32 83.9691 164.627C84.3049 164.934 84.7087 165.088 85.1806 165.088ZM90.8647 166.076C90.6303 166.076 90.4292 165.992 90.2613 165.824C90.0935 165.656 90.0096 165.455 90.0096 165.221C90.0096 164.987 90.0935 164.785 90.2613 164.618C90.4292 164.45 90.6303 164.366 90.8647 164.366C91.099 164.366 91.3002 164.45 91.468 164.618C91.6359 164.785 91.7198 164.987 91.7198 165.221C91.7198 165.376 91.6802 165.519 91.601 165.648C91.525 165.778 91.4221 165.883 91.2922 165.962C91.1656 166.038 91.023 166.076 90.8647 166.076ZM96.5571 166.133C95.9997 166.133 95.4977 166.022 95.0512 165.8C94.6046 165.579 94.2467 165.275 93.9775 164.888C93.7083 164.502 93.5611 164.062 93.5357 163.568H94.6759C94.7202 164.008 94.9197 164.372 95.2744 164.66C95.6323 164.945 96.0599 165.088 96.5571 165.088C96.9562 165.088 97.3109 164.994 97.6213 164.808C97.9348 164.621 98.1802 164.364 98.3576 164.038C98.5381 163.709 98.6284 163.336 98.6284 162.922C98.6284 162.497 98.535 162.119 98.3481 161.786C98.1644 161.45 97.911 161.186 97.588 160.993C97.265 160.8 96.896 160.701 96.4811 160.698C96.1834 160.695 95.8778 160.741 95.5642 160.836C95.2507 160.928 94.9926 161.047 94.7899 161.192L93.6877 161.059L94.2768 156.271H99.3315V157.316H95.2649L94.9229 160.185H94.9799C95.1794 160.027 95.4296 159.895 95.7305 159.791C96.0314 159.686 96.3449 159.634 96.6711 159.634C97.2665 159.634 97.797 159.777 98.2626 160.062C98.7313 160.344 99.0987 160.73 99.3647 161.221C99.6339 161.712 99.7685 162.272 99.7685 162.903C99.7685 163.523 99.6292 164.078 99.3505 164.565C99.0749 165.05 98.6949 165.433 98.2103 165.715C97.7258 165.994 97.1747 166.133 96.5571 166.133ZM106.843 160.337L105.836 160.622C105.773 160.454 105.68 160.291 105.556 160.133C105.436 159.971 105.271 159.838 105.062 159.734C104.853 159.629 104.585 159.577 104.259 159.577C103.813 159.577 103.44 159.68 103.143 159.886C102.848 160.089 102.701 160.347 102.701 160.66C102.701 160.939 102.802 161.159 103.005 161.321C103.208 161.482 103.524 161.617 103.955 161.724L105.038 161.99C105.691 162.149 106.177 162.391 106.497 162.717C106.816 163.04 106.976 163.457 106.976 163.967C106.976 164.385 106.856 164.759 106.615 165.088C106.378 165.417 106.045 165.677 105.618 165.867C105.19 166.057 104.693 166.152 104.126 166.152C103.382 166.152 102.766 165.99 102.278 165.667C101.79 165.344 101.482 164.873 101.352 164.252L102.416 163.986C102.517 164.378 102.709 164.673 102.991 164.869C103.276 165.066 103.648 165.164 104.107 165.164C104.63 165.164 105.045 165.053 105.352 164.831C105.662 164.606 105.817 164.337 105.817 164.024C105.817 163.77 105.729 163.558 105.551 163.387C105.374 163.213 105.102 163.083 104.734 162.998L103.518 162.713C102.85 162.554 102.359 162.309 102.045 161.976C101.735 161.641 101.58 161.221 101.58 160.717C101.58 160.306 101.695 159.941 101.927 159.625C102.161 159.308 102.479 159.059 102.881 158.879C103.287 158.698 103.746 158.608 104.259 158.608C104.981 158.608 105.548 158.766 105.96 159.083C106.375 159.4 106.669 159.818 106.843 160.337ZM110.317 166L108.094 158.703H109.272L110.849 164.29H110.925L112.484 158.703H113.681L115.22 164.271H115.296L116.873 158.703H118.051L115.828 166H114.726L113.13 160.394H113.016L111.419 166H110.317Z" fill="#FF0000"/>
<path d="M154 48H176" stroke="#FF0000" stroke-width="1.11481"/>
<path d="M148 52H176" stroke="#FF0000" stroke-width="1.11481"/>
<path d="M166.5 52V54" stroke="#FF0000" stroke-width="1.11481"/>
<path d="M166.844 50L163.5 63.3778H170.189L166.844 50Z" fill="#FF0000"/>
<path d="M166.844 50.3778L163.5 37H170.189L166.844 50.3778Z" fill="#FF0000"/>
<path d="M160.681 34.133C159.965 34.133 159.355 33.9382 158.852 33.5487C158.348 33.156 157.963 32.5875 157.697 31.8432C157.431 31.0958 157.298 30.1932 157.298 29.1354C157.298 28.0839 157.431 27.186 157.697 26.4418C157.966 25.6943 158.353 25.1242 158.856 24.7315C159.363 24.3356 159.971 24.1377 160.681 24.1377C161.39 24.1377 161.997 24.3356 162.5 24.7315C163.007 25.1242 163.393 25.6943 163.659 26.4418C163.928 27.186 164.063 28.0839 164.063 29.1354C164.063 30.1932 163.93 31.0958 163.664 31.8432C163.398 32.5875 163.013 33.156 162.51 33.5487C162.006 33.9382 161.396 34.133 160.681 34.133ZM160.681 33.0879C161.39 33.0879 161.941 32.7458 162.334 32.0617C162.727 31.3777 162.923 30.4022 162.923 29.1354C162.923 28.2929 162.833 27.5756 162.652 26.9833C162.475 26.3911 162.218 25.9398 161.882 25.6294C161.55 25.319 161.149 25.1638 160.681 25.1638C159.977 25.1638 159.428 25.5106 159.032 26.2042C158.636 26.8946 158.438 27.8717 158.438 29.1354C158.438 29.9778 158.527 30.6936 158.704 31.2826C158.882 31.8717 159.137 32.3199 159.469 32.6271C159.805 32.9343 160.209 33.0879 160.681 33.0879ZM166.365 34.076C166.13 34.076 165.929 33.9921 165.761 33.8242C165.594 33.6564 165.51 33.4553 165.51 33.2209C165.51 32.9865 165.594 32.7854 165.761 32.6176C165.929 32.4497 166.13 32.3658 166.365 32.3658C166.599 32.3658 166.8 32.4497 166.968 32.6176C167.136 32.7854 167.22 32.9865 167.22 33.2209C167.22 33.3761 167.18 33.5186 167.101 33.6485C167.025 33.7783 166.922 33.8828 166.792 33.962C166.666 34.038 166.523 34.076 166.365 34.076ZM172.134 34.133C171.507 34.133 170.948 34.0253 170.457 33.81C169.97 33.5946 169.582 33.2953 169.293 32.9121C169.008 32.5257 168.853 32.0776 168.828 31.5677H170.025C170.05 31.8812 170.158 32.152 170.348 32.38C170.538 32.6049 170.787 32.7791 171.094 32.9026C171.401 33.0261 171.742 33.0879 172.115 33.0879C172.533 33.0879 172.904 33.015 173.227 32.8694C173.55 32.7237 173.803 32.521 173.987 32.2613C174.171 32.0016 174.263 31.7007 174.263 31.3587C174.263 31.0008 174.174 30.6856 173.997 30.4133C173.819 30.1377 173.56 29.9224 173.217 29.7672C172.875 29.612 172.457 29.5344 171.963 29.5344H171.184V28.4893H171.963C172.35 28.4893 172.689 28.4196 172.98 28.2802C173.274 28.1409 173.504 27.9445 173.669 27.6912C173.837 27.4378 173.921 27.1401 173.921 26.798C173.921 26.4687 173.848 26.1821 173.702 25.9382C173.556 25.6943 173.351 25.5043 173.084 25.3681C172.822 25.2319 172.511 25.1638 172.153 25.1638C171.818 25.1638 171.501 25.2256 171.203 25.3491C170.909 25.4695 170.668 25.6452 170.481 25.8764C170.294 26.1045 170.193 26.38 170.177 26.703H169.037C169.056 26.1931 169.21 25.7466 169.498 25.3634C169.786 24.977 170.163 24.6761 170.628 24.4607C171.097 24.2454 171.612 24.1377 172.172 24.1377C172.774 24.1377 173.29 24.2596 173.721 24.5035C174.152 24.7442 174.483 25.0625 174.714 25.4584C174.945 25.8543 175.061 26.2818 175.061 26.741C175.061 27.2889 174.917 27.7561 174.628 28.1425C174.343 28.5289 173.955 28.7965 173.465 28.9453V29.0213C174.079 29.1227 174.559 29.384 174.904 29.8052C175.249 30.2233 175.422 30.7411 175.422 31.3587C175.422 31.8876 175.278 32.3626 174.989 32.7838C174.704 33.2019 174.315 33.5313 173.821 33.772C173.327 34.0127 172.765 34.133 172.134 34.133ZM182.552 28.3373L181.545 28.6223C181.482 28.4544 181.389 28.2913 181.265 28.133C181.145 27.9715 180.98 27.8384 180.771 27.7339C180.562 27.6294 180.294 27.5772 179.968 27.5772C179.522 27.5772 179.149 27.6801 178.852 27.8859C178.557 28.0886 178.41 28.3468 178.41 28.6603C178.41 28.939 178.511 29.1591 178.714 29.3206C178.917 29.4822 179.233 29.6168 179.664 29.7244L180.747 29.9905C181.4 30.1488 181.886 30.3911 182.206 30.7173C182.526 31.0404 182.685 31.4568 182.685 31.9667C182.685 32.3848 182.565 32.7585 182.324 33.0879C182.087 33.4173 181.754 33.677 181.327 33.867C180.899 34.057 180.402 34.152 179.835 34.152C179.091 34.152 178.475 33.9905 177.987 33.6675C177.499 33.3444 177.191 32.8725 177.061 32.2518L178.125 31.9857C178.226 32.3785 178.418 32.673 178.7 32.8694C178.985 33.0657 179.357 33.1639 179.816 33.1639C180.339 33.1639 180.754 33.053 181.061 32.8313C181.371 32.6065 181.526 32.3373 181.526 32.0237C181.526 31.7704 181.438 31.5582 181.26 31.3872C181.083 31.213 180.811 31.0831 180.443 30.9976L179.227 30.7126C178.559 30.5542 178.068 30.3088 177.754 29.9762C177.444 29.6405 177.289 29.2209 177.289 28.7173C177.289 28.3056 177.404 27.9414 177.636 27.6247C177.87 27.3079 178.188 27.0593 178.59 26.8788C178.996 26.6983 179.455 26.608 179.968 26.608C180.69 26.608 181.257 26.7664 181.669 27.0831C182.084 27.3998 182.378 27.8179 182.552 28.3373ZM186.026 34L183.803 26.703H184.981L186.558 32.2898H186.634L188.193 26.703H189.39L190.929 32.2708H191.005L192.582 26.703H193.76L191.537 34H190.435L188.839 28.3943H188.725L187.129 34H186.026Z" fill="#FF0000"/>
</svg>
