<svg width="1189" height="484" viewBox="0 0 1189 484" fill="none" xmlns="http://www.w3.org/2000/svg">
<path d="M280.091 99.75C286.791 88.1462 299.173 80.9985 312.571 81H920.29C941.001 81 957.79 97.7893 957.79 118.5V368.5C957.79 389.211 941.001 406 920.29 406H312.571C299.173 406.001 286.791 398.854 280.091 387.25L202.512 252.88C199.163 247.079 199.163 239.931 202.512 234.13L280.091 99.75Z" fill="white"/>
<path d="M296.334 109.13C299.683 103.326 305.874 99.7503 312.574 99.75H923.188C933.544 99.75 941.938 108.145 941.938 118.5V368.5C941.938 378.855 933.544 387.25 923.188 387.25H312.574C305.876 387.252 299.685 383.68 296.334 377.88L218.75 243.5L296.334 109.13Z" fill="#0033A2"/>
<path d="M330.986 118.5H395.938L319.786 243.5L395.938 371H330.986L254.834 243.5L330.986 118.5Z" fill="white"/>
<path d="M458.851 300.165V291.055H511.841V300.165H458.851ZM451.991 318.275V309.385H519.261V318.275H451.991ZM436.571 337.175V327.955H534.451V337.175H436.571ZM450.411 275.075V266.525H489.561V275.075H450.411ZM480.451 272.265V266.525H492.041C494.441 269.599 497.347 272.579 500.761 275.465C504.174 278.359 507.941 281.042 512.061 283.515C516.187 285.989 520.501 288.202 525.001 290.155C529.501 292.102 534.037 293.752 538.611 295.105C537.791 295.705 536.854 296.492 535.801 297.465C534.754 298.439 533.741 299.452 532.761 300.505C531.787 301.552 531.001 302.525 530.401 303.425C524.401 301.252 518.477 298.552 512.631 295.325C506.777 292.099 501.357 288.519 496.371 284.585C491.384 280.645 487.091 276.539 483.491 272.265H480.451ZM477.981 267.655L487.651 271.365C483.977 276.312 479.514 280.885 474.261 285.085C469.014 289.285 463.407 292.999 457.441 296.225C451.481 299.452 445.464 302.265 439.391 304.665C438.864 303.912 438.151 303.012 437.251 301.965C436.351 300.912 435.414 299.879 434.441 298.865C433.467 297.859 432.604 297.055 431.851 296.455C438.004 294.575 444.004 292.212 449.851 289.365C455.704 286.512 461.047 283.249 465.881 279.575C470.721 275.902 474.754 271.929 477.981 267.655ZM479.781 334.365V295.215H490.691V334.365H479.781ZM435.791 254.935V245.155H535.241V254.935H435.791ZM459.751 264.275V236.605H470.331V264.275H459.751ZM500.031 264.835V236.605H510.601V264.835" fill="white"/>
<path d="M622.116 244.368V238.858H641.796V244.368H622.116ZM621.436 262.708V257.308H642.586V262.708H621.436ZM621.436 271.138V265.858H642.586V271.138H621.436ZM605.016 324.468V317.608H662.046V324.468H605.016ZM618.176 253.818V247.858H645.176V253.818H618.176ZM635.836 280.028H627.846V286.438H635.836V280.028ZM621.206 291.618V274.858H642.696V291.618H621.206ZM606.926 312.878V306.468H653.606V301.628H599.946V295.218H663.516V312.878H606.926ZM603.096 293.188V267.658H610.186V293.188H603.096ZM592.866 271.588L592.076 264.728C595.376 264.581 599.069 264.431 603.156 264.278C607.242 264.131 611.572 263.944 616.146 263.718V269.908C611.946 270.281 607.879 270.581 603.946 270.808C600.006 271.028 596.312 271.288 592.866 271.588ZM603.886 306.468H613.786C612.886 310.068 611.912 313.818 610.866 317.718C609.812 321.618 608.836 324.991 607.936 327.838L598.376 326.488C599.422 323.714 600.436 320.508 601.416 316.868C602.389 313.234 603.212 309.768 603.886 306.468ZM658.676 318.728V317.608H668.686C668.686 317.608 668.649 318.111 668.576 319.118C668.502 320.131 668.352 320.978 668.126 321.658C667.072 326.304 665.982 329.958 664.856 332.618C663.736 335.284 662.426 337.218 660.926 338.418C659.652 339.318 658.282 339.934 656.816 340.268C655.356 340.608 653.612 340.814 651.586 340.888C649.859 340.968 647.402 340.988 644.216 340.948C641.029 340.908 637.636 340.814 634.036 340.668C633.962 339.468 633.662 338.118 633.136 336.618C632.609 335.118 631.972 333.768 631.226 332.568C634.752 332.941 638.166 333.164 641.466 333.238C644.766 333.318 647.089 333.358 648.436 333.358C649.636 333.358 650.609 333.318 651.356 333.238C652.109 333.164 652.749 332.941 653.276 332.568C654.322 331.741 655.279 330.258 656.146 328.118C657.006 325.984 657.849 322.854 658.676 318.728ZM611.536 275.638L616.936 274.408C617.536 276.281 618.116 278.341 618.676 280.588C619.242 282.841 619.676 284.791 619.976 286.438L614.126 288.018C613.972 286.291 613.652 284.284 613.166 281.998C612.679 279.711 612.136 277.591 611.536 275.638ZM611.196 260.338L616.036 258.538C617.009 260.418 617.909 262.518 618.736 264.838C619.562 267.164 620.126 269.191 620.426 270.918L615.136 272.938C614.909 271.218 614.422 269.194 613.676 266.868C612.922 264.541 612.096 262.364 611.196 260.338ZM593.196 251.458L596.796 246.058C598.976 247.478 601.112 249.108 603.206 250.948C605.312 252.788 606.889 254.381 607.936 255.728L603.886 261.918C602.759 260.344 601.186 258.581 599.166 256.628C597.139 254.681 595.149 252.958 593.196 251.458ZM603.886 236.268L610.296 239.418C608.796 241.891 607.296 244.404 605.796 246.958C604.296 249.504 602.872 251.641 601.526 253.368L596.576 250.778C597.776 248.831 599.089 246.451 600.516 243.638C601.936 240.824 603.059 238.368 603.886 236.268ZM611.086 245.608L617.386 249.208C614.912 252.581 612.269 256.141 609.456 259.888C606.642 263.641 603.999 266.791 601.526 269.338L596.796 266.418C598.376 264.544 600.066 262.408 601.866 260.008C603.666 257.608 605.369 255.131 606.976 252.578C608.589 250.031 609.959 247.708 611.086 245.608ZM595.676 273.958L602.316 275.418C601.636 278.344 600.809 281.268 599.836 284.188C598.862 287.114 597.812 289.628 596.686 291.728C596.012 291.281 595.036 290.774 593.756 290.208C592.482 289.648 591.436 289.181 590.616 288.808C591.889 286.708 592.936 284.361 593.756 281.768C594.582 279.181 595.222 276.578 595.676 273.958ZM655.076 293.188V267.658H662.276V293.188H655.076ZM644.726 271.588L644.046 264.728C647.499 264.581 651.382 264.431 655.696 264.278C660.009 264.131 664.602 263.981 669.476 263.828L669.356 270.018C664.936 270.318 660.642 270.598 656.476 270.858C652.316 271.124 648.399 271.368 644.726 271.588ZM663.846 275.638L669.586 273.958C670.559 276.204 671.516 278.678 672.456 281.378C673.389 284.078 674.046 286.404 674.426 288.358L668.466 290.268C668.166 288.314 667.566 285.951 666.666 283.178C665.766 280.404 664.826 277.891 663.846 275.638ZM662.946 260.118L668.236 257.758C669.509 259.704 670.689 261.858 671.776 264.218C672.869 266.584 673.639 268.668 674.086 270.468L668.346 273.058C667.972 271.258 667.279 269.138 666.266 266.698C665.252 264.258 664.146 262.064 662.946 260.118ZM644.276 251.228L648.096 246.168C650.049 247.514 651.999 249.071 653.946 250.838C655.899 252.598 657.399 254.191 658.446 255.618L654.066 261.468C653.086 259.968 651.679 258.241 649.846 256.288C648.006 254.341 646.149 252.654 644.276 251.228ZM655.296 236.378L661.716 239.638C660.136 242.118 658.559 244.611 656.986 247.118C655.412 249.631 653.912 251.788 652.486 253.588L647.536 251.008C648.809 249.054 650.196 246.671 651.696 243.858C653.196 241.044 654.396 238.551 655.296 236.378ZM663.286 245.158L669.586 248.758C667.039 252.131 664.266 255.691 661.266 259.438C658.266 263.191 655.416 266.341 652.716 268.888L648.096 265.968C649.822 264.094 651.622 261.958 653.496 259.558C655.376 257.158 657.176 254.681 658.896 252.128C660.622 249.581 662.086 247.258 663.286 245.158ZM647.536 273.958L654.066 275.528C653.539 278.301 652.789 281.131 651.816 284.018C650.836 286.911 649.786 289.368 648.666 291.388C648.066 291.014 647.166 290.508 645.966 289.868C644.766 289.234 643.716 288.731 642.816 288.358C644.009 286.258 644.982 283.968 645.736 281.488C646.482 279.014 647.082 276.504 647.536 273.958ZM571.036 245.038L577.226 238.068C579.099 239.041 581.066 240.221 583.126 241.608C585.192 242.994 587.126 244.381 588.926 245.768C590.726 247.161 592.189 248.494 593.316 249.768L586.896 257.638C585.849 256.364 584.442 254.978 582.676 253.478C580.916 251.978 579.022 250.498 576.996 249.038C574.976 247.571 572.989 246.238 571.036 245.038ZM568.676 275.078L574.526 267.768C576.472 268.668 578.516 269.774 580.656 271.088C582.796 272.401 584.782 273.711 586.616 275.018C588.456 276.331 589.976 277.588 591.176 278.788L584.986 286.888C583.859 285.688 582.379 284.378 580.546 282.958C578.706 281.531 576.736 280.124 574.636 278.738C572.536 277.351 570.549 276.131 568.676 275.078ZM580.486 339.658L570.926 334.258C572.352 331.258 573.869 327.768 575.476 323.788C577.089 319.814 578.739 315.614 580.426 311.188C582.119 306.768 583.676 302.418 585.096 298.138L593.536 303.538C592.336 307.518 590.986 311.608 589.486 315.808C587.986 320.008 586.486 324.131 584.986 328.178C583.486 332.231 581.986 336.058 580.486 339.658Z" fill="white"/>
<path d="M551.188 229.5H415.688V370H551.188V229.5Z" stroke="white" stroke-width="2" stroke-dasharray="5 5"/>
<path d="M688.688 229.5H553.188V370H688.688V229.5Z" stroke="white" stroke-width="2" stroke-dasharray="5 5"/>
<path d="M416.208 146.55V135.53H466.878V146.55H447.598V205.85H435.488V146.55" fill="white"/>
<path d="M509.597 161.777L509.047 162.517L508.497 163.067L507.947 163.437L507.207 164.537L506.847 164.907L506.477 165.087C506.077 165.64 505.71 166.067 505.377 166.367L502.987 169.127C497.907 165.854 493.7 164.217 490.367 164.217C486.94 164.217 484.417 165.914 482.797 169.307C482.857 171.3 483.65 172.77 485.177 173.717C485.85 173.897 486.34 174.08 486.647 174.267C487.84 174.447 488.82 174.69 489.587 174.997C501.18 175.857 507.667 180.51 509.047 188.957C509.107 189.324 509.137 189.68 509.137 190.027C509.137 190.38 509.137 190.727 509.137 191.067C509.137 197.214 506.537 201.834 501.337 204.927C497.604 206.607 493.854 207.447 490.087 207.447C482.927 207.447 475.784 204.404 468.657 198.317L469.027 197.587L469.937 196.667C470.55 195.934 471.104 195.38 471.597 195.007C471.717 194.794 471.837 194.674 471.957 194.647L472.327 194.097C472.447 193.884 472.57 193.76 472.697 193.727L472.877 193.357L473.247 193.177L475.637 190.417C480.164 194.704 484.904 196.847 489.857 196.847C491.937 196.847 494.05 196.48 496.197 195.747C496.744 195.014 497.294 194.464 497.847 194.097C498.034 193.364 498.127 192.674 498.127 192.027C498.127 190.434 497.607 189.104 496.567 188.037L492.337 186.567C479.73 185.8 472.877 180.414 471.777 170.407C472.604 160.34 478.294 154.957 488.847 154.257H489.497C497.604 154.257 504.304 156.764 509.597 161.777Z" fill="white"/>
<path d="M521.975 191.526V155.726H532.995V187.486C533.115 187.639 533.175 187.822 533.175 188.036C533.302 188.129 533.365 188.219 533.365 188.306V188.406C533.579 189.779 533.882 191.002 534.275 192.076C536.389 195.009 539.099 196.476 542.405 196.476H542.545C546.645 195.376 549.519 193.112 551.165 189.686V189.136L551.905 186.936V155.726H563.105V205.846H551.905V201.806C547.499 205.412 543.109 207.216 538.735 207.216C535.335 207.216 531.892 206.146 528.405 204.006C525.559 201.832 523.599 199.262 522.525 196.296L522.345 195.006C522.072 194.119 521.935 193.249 521.935 192.396V191.986C521.935 191.832 521.949 191.679 521.975 191.526Z" fill="white"/>
<path d="M621.524 176.294L621.704 179.044C621.824 179.198 621.884 179.381 621.884 179.594V185.104H588.294C588.994 191.344 592.174 195.018 597.834 196.124C598.754 196.211 599.658 196.254 600.544 196.254C605.164 196.254 609.098 194.741 612.344 191.714C612.738 192.388 613.228 192.938 613.814 193.364L613.994 193.914L614.544 194.464C614.971 194.864 615.338 195.241 615.644 195.594C615.951 195.948 616.198 196.308 616.384 196.674C616.598 196.794 616.718 196.914 616.744 197.034L619.314 199.974C613.501 204.841 607.304 207.274 600.724 207.274C599.598 207.274 598.451 207.198 597.284 207.044C596.124 206.891 594.961 206.678 593.794 206.404C583.208 202.884 577.394 195.294 576.354 183.634C576.354 183.481 576.348 183.174 576.334 182.714C576.321 182.261 576.314 181.971 576.314 181.844C576.314 165.904 583.488 156.831 597.834 154.624C612.094 155.118 619.991 162.341 621.524 176.294ZM588.104 176.474H610.324V175.924C610.198 175.558 610.134 175.191 610.134 174.824V174.454C609.828 173.781 609.644 173.171 609.584 172.624C607.324 167.391 603.591 164.758 598.384 164.724C591.838 166.284 588.411 170.201 588.104 176.474Z" fill="white"/>
<path d="M674.738 164.537V165.087C675.138 165.82 675.385 166.554 675.478 167.287V205.657H664.278V173.167L664.088 172.067C662.562 167.44 659.992 165.127 656.378 165.127C655.278 165.127 654.055 165.357 652.708 165.817C649.648 167.137 647.445 169.22 646.098 172.067L645.368 175.187V205.657H634.348V155.537H645.368V159.757C648.795 156.697 652.528 154.864 656.568 154.257H657.388C665.588 154.257 671.372 157.684 674.738 164.537Z" fill="white"/>
<path d="M713.88 136.084V135.714H726.55L726.73 137.004L726.92 137.554L727.28 138.844L727.65 141.044L728.2 142.874L728.57 145.084L729.12 146.914L729.3 148.384C729.513 148.904 729.636 149.334 729.67 149.674L729.85 150.404L730.22 151.504V152.244C730.34 152.337 730.4 152.427 730.4 152.514V153.164C730.74 153.837 730.926 154.571 730.96 155.364L731.32 156.464L731.69 157.754L732.06 159.954L732.61 161.784L732.79 162.894L733.89 167.484C733.983 167.911 734.07 168.301 734.15 168.654C734.223 169.001 734.26 169.344 734.26 169.684L734.63 170.414V171.154L734.99 172.074V172.804L735.36 173.534V174.274C735.7 175.194 735.883 175.991 735.91 176.664L736.1 177.394C736.313 178.007 736.48 178.574 736.6 179.094C736.72 179.614 736.796 180.087 736.83 180.514L737.2 181.984L737.57 183.264L737.93 182.164L738.67 178.494L739.03 177.574L739.22 176.474L739.77 173.904L740.14 172.624V172.074L740.87 169.134L741.05 168.034L741.42 167.294L741.6 166.564L741.79 165.644V164.914L741.97 164.354L742.71 161.424L743.07 159.214L743.26 158.484L743.62 157.754C743.686 156.774 743.87 155.914 744.17 155.174L744.36 154.264V153.714L744.73 152.244L744.91 151.694L745.46 149.304L745.64 148.204L746.01 147.104L746.19 146.184L746.74 143.794L746.93 142.874L747.11 142.514C747.143 142.174 747.183 141.844 747.23 141.524C747.276 141.204 747.36 140.921 747.48 140.674L747.66 140.124V139.574L747.85 138.844L748.03 138.284L748.58 135.714H762.17V136.264C762.596 137.337 762.84 138.381 762.9 139.394L763.27 140.854L763.45 141.414L764.19 144.714L764.55 146.184C764.796 147.071 764.92 147.804 764.92 148.384C765.133 148.904 765.256 149.334 765.29 149.674L765.65 150.954L765.84 152.244L766.02 152.974L766.21 153.524C766.296 153.924 766.373 154.284 766.44 154.604C766.5 154.924 766.543 155.237 766.57 155.544C766.816 156.124 766.986 156.661 767.08 157.154C767.173 157.641 767.25 158.084 767.31 158.484L767.49 159.584L767.86 160.504L768.04 161.604V162.154C768.346 162.887 768.53 163.561 768.59 164.174L768.78 165.274C769.08 166.007 769.263 166.681 769.33 167.294L769.51 168.214L770.06 170.234V170.964C770.18 171.244 770.24 171.551 770.24 171.884C770.58 172.591 770.766 173.204 770.8 173.724L770.98 174.644L771.16 175.744L771.35 176.474C771.656 177.421 771.84 178.277 771.9 179.044C772.02 179.137 772.08 179.231 772.08 179.324V179.964C772.506 181.037 772.753 182.077 772.82 183.084C773 183.024 773.12 182.901 773.18 182.714C773.333 181.954 773.486 181.291 773.64 180.724C773.793 180.157 773.946 179.661 774.1 179.234V178.494C774.5 177.394 774.743 176.414 774.83 175.554L775.2 174.274L775.94 171.334L776.12 169.864L776.49 168.584L776.67 168.034V167.484C776.883 166.897 777.053 166.367 777.18 165.894C777.3 165.421 777.373 164.971 777.4 164.544L777.77 163.254L779.24 157.194L779.79 154.264L780.16 152.794C780.493 151.907 780.676 151.174 780.71 150.594L780.89 149.674L781.26 148.204C781.533 147.317 781.716 146.584 781.81 146.004L781.99 145.264L782.55 142.694L782.91 141.594V141.044L783.46 139.574V138.844L783.65 138.284L784.2 135.714H796.68L795.95 139.394L795.4 141.594L795.21 142.144L794.66 144.714L794.3 146.184L793.93 147.464L793.19 151.144L792.83 152.424L792.09 155.914L791.73 157.194L791.54 157.754L791.17 159.764L790.99 160.134L790.81 161.424C790.503 162.431 790.32 163.287 790.26 163.994L789.52 166.194L789.34 167.484L789.15 168.214L788.97 168.764L788.79 170.054L788.6 170.604L787.5 175.194L787.32 176.474L786.95 177.764L786.03 181.434L785.85 182.714L784.75 187.304L784.2 189.874C783.86 190.794 783.676 191.591 783.65 192.264L782.91 194.654V195.384C782.576 196.304 782.393 197.101 782.36 197.774C782.053 198.781 781.87 199.637 781.81 200.344L781.44 201.624L781.26 201.994L781.08 203.284C780.773 204.291 780.59 205.147 780.53 205.854H766.94L766.76 204.384C766.546 203.864 766.423 203.434 766.39 203.094L766.02 201.624L765.84 200.344L765.47 199.054C765.376 198.687 765.3 198.337 765.24 198.004C765.18 197.664 765.133 197.341 765.1 197.034L764.92 196.304L764.74 195.384C764.613 195.231 764.55 195.047 764.55 194.834L764.37 193.914L764.19 193.364C764.096 192.971 764.02 192.611 763.96 192.284C763.893 191.964 763.846 191.651 763.82 191.344C763.606 190.764 763.446 190.231 763.34 189.744C763.233 189.251 763.146 188.807 763.08 188.414L762.9 187.674L762.72 186.754C762.593 186.387 762.506 186.037 762.46 185.704C762.42 185.364 762.383 185.041 762.35 184.734C762.136 184.127 761.97 183.547 761.85 182.994C761.723 182.441 761.646 181.921 761.62 181.434C761.493 181.281 761.43 181.097 761.43 180.884L761.25 180.144L761.07 179.594C760.976 178.954 760.853 178.344 760.7 177.764L760.33 176.104L760.15 175.004L759.78 174.094L759.41 171.884L759.23 171.334V170.784C758.923 170.051 758.74 169.377 758.68 168.764L758.31 166.564L757.94 165.644L757.58 164.174V163.444C757.213 162.431 757.03 161.574 757.03 160.874C756.903 160.721 756.84 160.537 756.84 160.324L756.66 159.764V159.214C756.353 158.514 756.17 157.781 756.11 157.014C755.803 156.034 755.62 155.117 755.56 154.264L755.19 154.994L755.01 156.094L754.46 158.484L754.09 160.504L753.9 161.054L753.17 164.174L752.99 164.914L752.62 166.744L752.44 167.484L752.07 169.504L751.89 170.054L751.15 173.534L750.78 174.824L750.6 176.104C750.266 177.024 750.083 177.821 750.05 178.494L749.87 178.864L749.68 179.964L749.5 180.514L748.58 185.104L748.4 185.654L747.66 189.144L747.48 189.874L747.3 190.794L747.11 191.344L746.38 194.834L746.01 196.304L745.64 198.144L745.46 198.504L745.09 200.164L744.91 200.894L744.73 202.174C744.51 202.941 744.386 203.554 744.36 204.014C744.233 204.321 744.15 204.611 744.11 204.884C744.063 205.164 744.023 205.424 743.99 205.664C743.563 205.731 743.173 205.784 742.82 205.824C742.466 205.871 742.123 205.894 741.79 205.894H741.33C741.176 205.894 741.023 205.881 740.87 205.854H730.22V205.114C729.793 204.014 729.55 202.974 729.49 201.994C729.363 201.841 729.3 201.657 729.3 201.444L729.12 200.524C728.446 198.351 728.016 196.514 727.83 195.014L727.65 194.464L726.73 190.984L726.55 189.514L725.08 183.824V183.084C724.773 182.384 724.59 181.651 724.53 180.884L724.16 179.784L723.8 178.494V177.944L722.88 174.274V173.724L722.69 172.984L722.33 172.254L722.14 170.784C721.9 170.051 721.703 169.377 721.55 168.764C721.396 168.151 721.29 167.601 721.23 167.114L721.04 166.564V166.014C720.92 165.861 720.86 165.677 720.86 165.464L720.49 163.994L720.31 163.444C720.183 162.797 720.066 162.214 719.96 161.694C719.853 161.174 719.723 160.717 719.57 160.324L719.39 159.034C719.176 158.421 719.006 157.854 718.88 157.334C718.76 156.814 718.683 156.341 718.65 155.914L718.47 154.994C718.35 154.841 718.29 154.657 718.29 154.444L717.37 150.774L717 149.484L716.82 148.574L716.64 147.834L716.45 146.554C716.203 145.907 716.08 145.354 716.08 144.894V144.714L715.72 143.794L715.53 143.064C715.41 142.177 715.226 141.441 714.98 140.854V140.124C714.86 139.971 714.8 139.787 714.8 139.574" fill="white"/>
<path d="M840.254 160.135L840.814 161.235C842.247 163.015 843.164 164.851 843.564 166.745C843.684 167.538 843.774 168.281 843.834 168.975C843.9 169.661 843.934 170.265 843.934 170.785V195.015C845.06 197.255 846.71 198.601 848.884 199.055L848.524 199.605C848.397 199.825 848.274 199.948 848.154 199.975L847.974 200.525L847.604 200.895C847.297 201.568 846.93 202.118 846.504 202.545C846.07 203.678 845.517 204.535 844.844 205.115C844.57 205.728 844.31 206.258 844.064 206.705C843.824 207.145 843.597 207.535 843.384 207.875C839.804 206.955 836.987 205.301 834.934 202.915H834.384C830.437 205.761 826.367 207.185 822.174 207.185C819.907 207.185 817.674 206.801 815.474 206.035C808.894 203.681 804.917 199.398 803.544 193.185V192.955C803.544 181.115 810.474 175.195 824.334 175.195H824.474C824.747 175.068 825.05 175.005 825.384 175.005L825.934 174.825H827.224L827.774 174.645H828.324L832.914 174.095C832.974 173.755 833.004 173.448 833.004 173.175V172.255C833.004 167.141 830.297 164.585 824.884 164.585C821.117 164.585 815.96 165.855 809.414 168.395L808.684 166.745L808.314 165.645L807.944 165.275L807.764 164.915L807.394 163.805C807.06 163.258 806.817 162.708 806.664 162.155C806.017 161.301 805.587 160.445 805.374 159.585L805.924 159.405L806.294 159.215L806.844 159.035L807.214 158.665H807.764C807.884 158.545 807.99 158.485 808.084 158.485H808.134C809.234 157.905 810.21 157.475 811.064 157.195L811.984 157.015C812.657 156.708 813.27 156.525 813.824 156.465L815.294 156.095C816.36 155.668 817.4 155.425 818.414 155.365L822.454 154.625C823.06 154.565 823.647 154.511 824.214 154.465C824.78 154.418 825.34 154.395 825.894 154.395C831.734 154.395 836.52 156.308 840.254 160.135ZM828.504 183.455H827.404C827.13 183.515 826.864 183.561 826.604 183.595C826.344 183.621 826.09 183.635 825.844 183.635H825.574L824.834 183.825H824.284C824.13 183.945 823.947 184.005 823.734 184.005H823.184L820.244 184.735H819.694C818.84 185.228 818.107 185.535 817.494 185.655C815.507 187.555 814.514 189.391 814.514 191.165C814.514 192.785 815.324 194.375 816.944 195.935C819.297 197.375 821.59 198.095 823.824 198.095C826.67 198.095 829.394 196.948 831.994 194.655C832.24 193.948 832.487 193.458 832.734 193.185L832.914 192.635L832.734 191.895V183.265H829.064C828.91 183.391 828.724 183.455 828.504 183.455Z" fill="white"/>
<path d="M902.738 164.537V165.087C903.138 165.82 903.385 166.554 903.478 167.287V205.657H892.278V173.167L892.088 172.067C890.562 167.44 887.992 165.127 884.378 165.127C883.278 165.127 882.055 165.357 880.708 165.817C877.648 167.137 875.445 169.22 874.098 172.067L873.368 175.187V205.657H862.348V155.537H873.368V159.757C876.795 156.697 880.528 154.864 884.568 154.257H885.388C893.588 154.257 899.372 157.684 902.738 164.537Z" fill="white"/>
<path d="M466.188 129.5H415.688V227.5H466.188V129.5Z" stroke="white" stroke-width="2" stroke-dasharray="5 5"/>
<path d="M513.688 129.5H468.188V227.5H513.688V129.5Z" stroke="white" stroke-width="2" stroke-dasharray="5 5"/>
<path d="M571.188 129.5H515.688V227.5H571.188V129.5Z" stroke="white" stroke-width="2" stroke-dasharray="5 5"/>
<path d="M625.688 129.5H573.188V227.5H625.688V129.5Z" stroke="white" stroke-width="2" stroke-dasharray="5 5"/>
<path d="M681.688 129.5H627.688V227.5H681.688V129.5Z" stroke="white" stroke-width="2" stroke-dasharray="5 5"/>
<path d="M706.688 129.5H683.688V227.5H706.688V129.5Z" stroke="white" stroke-width="2" stroke-dasharray="5 5"/>
<path d="M798.188 129.5H708.688V227.5H798.188V129.5Z" stroke="white" stroke-width="2" stroke-dasharray="5 5"/>
<path d="M853.688 129.5H800.188V227.5H853.688V129.5Z" stroke="white" stroke-width="2" stroke-dasharray="5 5"/>
<path d="M909.688 129.5H855.688V227.5H909.688V129.5Z" stroke="white" stroke-width="2" stroke-dasharray="5 5"/>
<path d="M840.389 98.75H725.177" stroke="#FF0000" stroke-width="3.03189"/>
<path d="M840.389 80H725.177" stroke="#FF0000" stroke-width="3.03189"/>
<path d="M749.432 98.75V80" stroke="#FF0000" stroke-width="3.03189"/>
<path d="M749.432 84.2552L743.368 60H755.496L749.432 84.2552Z" fill="#FF0000"/>
<path d="M749.432 95L743.368 119.255H755.496L749.432 95Z" fill="#FF0000"/>
<path d="M731.041 22.5398V49H727.837V25.899H727.682L721.222 30.1885V26.9326L727.837 22.5398H731.041ZM739.362 49.2067C738.725 49.2067 738.178 48.9785 737.721 48.522C737.265 48.0655 737.036 47.5185 737.036 46.8811C737.036 46.2437 737.265 45.6968 737.721 45.2403C738.178 44.7838 738.725 44.5555 739.362 44.5555C739.999 44.5555 740.546 44.7838 741.003 45.2403C741.459 45.6968 741.688 46.2437 741.688 46.8811C741.688 47.3032 741.58 47.6908 741.365 48.0439C741.158 48.3971 740.878 48.6813 740.525 48.8966C740.18 49.1034 739.793 49.2067 739.362 49.2067ZM754.843 49.3618C753.327 49.3618 751.962 49.0603 750.748 48.4574C749.533 47.8544 748.56 47.0275 747.828 45.9767C747.096 44.9259 746.695 43.7286 746.626 42.385H749.727C749.848 43.5822 750.39 44.5727 751.355 45.3566C752.328 46.1318 753.491 46.5194 754.843 46.5194C755.929 46.5194 756.893 46.2653 757.737 45.7571C758.59 45.2489 759.258 44.5512 759.74 43.664C760.231 42.7683 760.476 41.7562 760.476 40.6278C760.476 39.4736 760.222 38.4444 759.714 37.54C759.215 36.6269 758.526 35.9077 757.647 35.3823C756.768 34.8569 755.765 34.5899 754.637 34.5813C753.827 34.5727 752.996 34.6976 752.143 34.956C751.29 35.2057 750.588 35.5287 750.037 35.925L747.04 35.5632L748.642 22.5398H762.389V25.3822H751.329L750.399 33.1859H750.554C751.097 32.7552 751.777 32.3978 752.595 32.1136C753.414 31.8293 754.266 31.6872 755.153 31.6872C756.773 31.6872 758.215 32.0748 759.482 32.85C760.756 33.6166 761.756 34.6674 762.479 36.0025C763.211 37.3375 763.577 38.8621 763.577 40.5762C763.577 42.2644 763.198 43.7717 762.44 45.0982C761.691 46.416 760.657 47.4582 759.339 48.2248C758.022 48.9828 756.523 49.3618 754.843 49.3618ZM782.818 33.5994L780.079 34.3746C779.907 33.918 779.653 33.4745 779.317 33.0438C778.99 32.6045 778.542 32.2428 777.973 31.9585C777.405 31.6743 776.677 31.5322 775.79 31.5322C774.575 31.5322 773.563 31.8121 772.754 32.372C771.953 32.9232 771.552 33.6252 771.552 34.4779C771.552 35.2359 771.828 35.8345 772.379 36.2738C772.93 36.7131 773.792 37.0791 774.963 37.372L777.909 38.0955C779.683 38.5262 781.005 39.1851 781.875 40.0723C782.745 40.9508 783.18 42.0835 783.18 43.4702C783.18 44.6072 782.853 45.6236 782.198 46.5194C781.552 47.4151 780.648 48.1214 779.485 48.6382C778.322 49.155 776.97 49.4134 775.428 49.4134C773.404 49.4134 771.729 48.9742 770.402 48.0956C769.076 47.217 768.236 45.9337 767.883 44.2454L770.777 43.5219C771.053 44.59 771.574 45.391 772.34 45.925C773.115 46.4591 774.128 46.7261 775.376 46.7261C776.798 46.7261 777.926 46.4246 778.761 45.8217C779.606 45.2101 780.028 44.478 780.028 43.6253C780.028 42.9362 779.786 42.3591 779.304 41.894C778.822 41.4203 778.081 41.0671 777.082 40.8346L773.774 40.0594C771.957 39.6287 770.622 38.9612 769.769 38.0568C768.925 37.1437 768.503 36.0025 768.503 34.633C768.503 33.5132 768.817 32.5227 769.446 31.6614C770.084 30.8 770.949 30.1239 772.043 29.6329C773.146 29.142 774.395 28.8965 775.79 28.8965C777.754 28.8965 779.296 29.3271 780.415 30.1885C781.544 31.0498 782.345 32.1868 782.818 33.5994ZM792.266 49L786.22 29.1549H789.424L793.713 44.3488H793.92L798.158 29.1549H801.413L805.6 44.2971H805.806L810.096 29.1549H813.3L807.253 49H804.256L799.915 33.7544H799.605L795.264 49H792.266Z" fill="#FF0000"/>
<path d="M909.773 226.212V111" stroke="#46C147" stroke-width="3.03189"/>
<path d="M941 226.212V111" stroke="#46C147" stroke-width="3.03189"/>
<path d="M909.773 135.255H938.122" stroke="#46C147" stroke-width="3.03189"/>
<path d="M936 135.255L960.255 129.191V141.319L936 135.255Z" fill="#46C147"/>
<path d="M916.255 135.255L892 129.191V141.319L916.255 135.255Z" fill="#46C147"/>
<path d="M983.739 147.712V145.386L992.473 135.826C993.498 134.706 994.342 133.733 995.005 132.906C995.669 132.07 996.159 131.286 996.478 130.554C996.805 129.814 996.969 129.038 996.969 128.229C996.969 127.298 996.745 126.493 996.297 125.813C995.858 125.132 995.255 124.607 994.488 124.236C993.722 123.866 992.861 123.681 991.904 123.681C990.888 123.681 990.001 123.892 989.243 124.314C988.494 124.727 987.912 125.309 987.499 126.058C987.094 126.807 986.892 127.686 986.892 128.694H983.842C983.842 127.143 984.2 125.782 984.915 124.611C985.63 123.44 986.603 122.527 987.835 121.872C989.075 121.217 990.466 120.89 992.008 120.89C993.558 120.89 994.932 121.217 996.129 121.872C997.327 122.527 998.265 123.41 998.946 124.521C999.626 125.632 999.967 126.868 999.967 128.229C999.967 129.202 999.79 130.154 999.437 131.084C999.092 132.006 998.489 133.035 997.628 134.172C996.775 135.3 995.591 136.678 994.075 138.306L988.132 144.663V144.87H1000.43V147.712H983.739ZM1008.04 147.919C1007.4 147.919 1006.86 147.691 1006.4 147.234C1005.94 146.777 1005.72 146.231 1005.72 145.593C1005.72 144.956 1005.94 144.409 1006.4 143.952C1006.86 143.496 1007.4 143.268 1008.04 143.268C1008.68 143.268 1009.23 143.496 1009.68 143.952C1010.14 144.409 1010.37 144.956 1010.37 145.593C1010.37 146.015 1010.26 146.403 1010.04 146.756C1009.84 147.109 1009.56 147.393 1009.2 147.609C1008.86 147.815 1008.47 147.919 1008.04 147.919ZM1023.52 148.074C1022.01 148.074 1020.64 147.772 1019.43 147.169C1018.21 146.566 1017.24 145.74 1016.51 144.689C1015.78 143.638 1015.37 142.441 1015.31 141.097H1018.41C1018.53 142.294 1019.07 143.285 1020.03 144.069C1021.01 144.844 1022.17 145.231 1023.52 145.231C1024.61 145.231 1025.57 144.977 1026.42 144.469C1027.27 143.961 1027.94 143.263 1028.42 142.376C1028.91 141.48 1029.16 140.468 1029.16 139.34C1029.16 138.186 1028.9 137.156 1028.39 136.252C1027.89 135.339 1027.21 134.62 1026.33 134.094C1025.45 133.569 1024.44 133.302 1023.32 133.293C1022.51 133.285 1021.68 133.41 1020.82 133.668C1019.97 133.918 1019.27 134.241 1018.72 134.637L1015.72 134.275L1017.32 121.252H1031.07V124.094H1020.01L1019.08 131.898H1019.23C1019.78 131.467 1020.46 131.11 1021.27 130.826C1022.09 130.541 1022.95 130.399 1023.83 130.399C1025.45 130.399 1026.9 130.787 1028.16 131.562C1029.44 132.329 1030.44 133.379 1031.16 134.715C1031.89 136.05 1032.26 137.574 1032.26 139.288C1032.26 140.976 1031.88 142.484 1031.12 143.81C1030.37 145.128 1029.34 146.17 1028.02 146.937C1026.7 147.695 1025.2 148.074 1023.52 148.074ZM1051.5 132.311L1048.76 133.087C1048.59 132.63 1048.33 132.186 1048 131.756C1047.67 131.317 1047.22 130.955 1046.65 130.671C1046.08 130.386 1045.36 130.244 1044.47 130.244C1043.26 130.244 1042.24 130.524 1041.43 131.084C1040.63 131.635 1040.23 132.337 1040.23 133.19C1040.23 133.948 1040.51 134.547 1041.06 134.986C1041.61 135.425 1042.47 135.791 1043.64 136.084L1046.59 136.808C1048.36 137.238 1049.68 137.897 1050.55 138.784C1051.42 139.663 1051.86 140.796 1051.86 142.182C1051.86 143.319 1051.53 144.336 1050.88 145.231C1050.23 146.127 1049.33 146.833 1048.16 147.35C1047 147.867 1045.65 148.125 1044.11 148.125C1042.08 148.125 1040.41 147.686 1039.08 146.808C1037.76 145.929 1036.92 144.646 1036.56 142.957L1039.46 142.234C1039.73 143.302 1040.25 144.103 1041.02 144.637C1041.8 145.171 1042.81 145.438 1044.06 145.438C1045.48 145.438 1046.61 145.137 1047.44 144.534C1048.29 143.922 1048.71 143.19 1048.71 142.337C1048.71 141.648 1048.47 141.071 1047.98 140.606C1047.5 140.132 1046.76 139.779 1045.76 139.547L1042.45 138.771C1040.64 138.341 1039.3 137.673 1038.45 136.769C1037.6 135.856 1037.18 134.715 1037.18 133.345C1037.18 132.225 1037.5 131.235 1038.13 130.373C1038.76 129.512 1039.63 128.836 1040.72 128.345C1041.83 127.854 1043.07 127.609 1044.47 127.609C1046.43 127.609 1047.98 128.039 1049.09 128.901C1050.22 129.762 1051.02 130.899 1051.5 132.311ZM1060.95 147.712L1054.9 127.867H1058.1L1062.39 143.061H1062.6L1066.84 127.867H1070.09L1074.28 143.009H1074.49L1078.78 127.867H1081.98L1075.93 147.712H1072.94L1068.59 132.466H1068.28L1063.94 147.712H1060.95ZM984.204 191.712V165.252H987.253V175.019H987.512C987.736 174.675 988.046 174.236 988.442 173.702C988.847 173.159 989.424 172.677 990.173 172.255C990.931 171.824 991.956 171.609 993.248 171.609C994.919 171.609 996.392 172.026 997.667 172.862C998.942 173.697 999.936 174.882 1000.65 176.415C1001.37 177.948 1001.72 179.757 1001.72 181.841C1001.72 183.943 1001.37 185.765 1000.65 187.306C999.936 188.839 998.946 190.028 997.68 190.872C996.414 191.708 994.954 192.125 993.3 192.125C992.025 192.125 991.004 191.914 990.238 191.492C989.471 191.062 988.881 190.575 988.468 190.032C988.054 189.481 987.736 189.025 987.512 188.663H987.15V191.712H984.204ZM987.202 181.789C987.202 183.288 987.421 184.61 987.861 185.756C988.3 186.893 988.941 187.784 989.786 188.43C990.63 189.068 991.663 189.386 992.886 189.386C994.161 189.386 995.225 189.051 996.078 188.379C996.939 187.698 997.585 186.785 998.016 185.64C998.455 184.485 998.675 183.202 998.675 181.789C998.675 180.394 998.459 179.137 998.029 178.017C997.607 176.888 996.965 175.997 996.103 175.342C995.251 174.679 994.178 174.348 992.886 174.348C991.646 174.348 990.604 174.662 989.76 175.291C988.916 175.911 988.278 176.781 987.848 177.901C987.417 179.012 987.202 180.308 987.202 181.789ZM1018.89 183.598V171.867H1021.94V191.712H1018.89V188.353H1018.69C1018.22 189.361 1017.5 190.218 1016.52 190.924C1015.54 191.622 1014.29 191.97 1012.8 191.97C1011.56 191.97 1010.45 191.699 1009.49 191.156C1008.52 190.605 1007.77 189.778 1007.21 188.676C1006.66 187.565 1006.39 186.165 1006.39 184.477V171.867H1009.44V184.27C1009.44 185.717 1009.84 186.871 1010.65 187.733C1011.47 188.594 1012.51 189.025 1013.78 189.025C1014.54 189.025 1015.31 188.831 1016.09 188.443C1016.88 188.056 1017.55 187.461 1018.08 186.66C1018.62 185.859 1018.89 184.839 1018.89 183.598ZM1036.16 171.867V174.451H1025.87V171.867H1036.16ZM1028.87 167.112H1031.92V186.027C1031.92 186.889 1032.05 187.535 1032.3 187.965C1032.55 188.387 1032.88 188.672 1033.28 188.818C1033.68 188.956 1034.11 189.025 1034.56 189.025C1034.89 189.025 1035.17 189.007 1035.38 188.973C1035.6 188.93 1035.77 188.895 1035.9 188.87L1036.52 191.609C1036.31 191.686 1036.03 191.764 1035.65 191.841C1035.28 191.927 1034.82 191.97 1034.25 191.97C1033.39 191.97 1032.54 191.785 1031.71 191.415C1030.9 191.045 1030.22 190.48 1029.67 189.722C1029.14 188.964 1028.87 188.008 1028.87 186.854V167.112ZM1050.98 191.712V171.867H1053.92V174.864H1054.13C1054.49 173.882 1055.15 173.086 1056.09 172.474C1057.04 171.863 1058.11 171.557 1059.3 171.557C1059.52 171.557 1059.8 171.561 1060.14 171.57C1060.47 171.578 1060.73 171.591 1060.9 171.609V174.709C1060.8 174.683 1060.56 174.645 1060.19 174.593C1059.83 174.533 1059.44 174.503 1059.04 174.503C1058.08 174.503 1057.21 174.705 1056.46 175.11C1055.71 175.506 1055.11 176.057 1054.67 176.764C1054.24 177.461 1054.03 178.258 1054.03 179.154V191.712H1050.98ZM1071.97 192.125C1070.18 192.125 1068.61 191.699 1067.26 190.846C1065.91 189.994 1064.86 188.801 1064.1 187.268C1063.36 185.734 1062.98 183.943 1062.98 181.893C1062.98 179.826 1063.36 178.021 1064.1 176.479C1064.86 174.938 1065.91 173.74 1067.26 172.888C1068.61 172.035 1070.18 171.609 1071.97 171.609C1073.76 171.609 1075.33 172.035 1076.68 172.888C1078.03 173.74 1079.08 174.938 1079.83 176.479C1080.59 178.021 1080.97 179.826 1080.97 181.893C1080.97 183.943 1080.59 185.734 1079.83 187.268C1079.08 188.801 1078.03 189.994 1076.68 190.846C1075.33 191.699 1073.76 192.125 1071.97 192.125ZM1071.97 189.386C1073.33 189.386 1074.45 189.038 1075.33 188.34C1076.21 187.642 1076.86 186.725 1077.28 185.588C1077.71 184.451 1077.92 183.219 1077.92 181.893C1077.92 180.566 1077.71 179.33 1077.28 178.185C1076.86 177.039 1076.21 176.113 1075.33 175.407C1074.45 174.701 1073.33 174.348 1071.97 174.348C1070.61 174.348 1069.49 174.701 1068.61 175.407C1067.74 176.113 1067.08 177.039 1066.66 178.185C1066.24 179.33 1066.03 180.566 1066.03 181.893C1066.03 183.219 1066.24 184.451 1066.66 185.588C1067.08 186.725 1067.74 187.642 1068.61 188.34C1069.49 189.038 1070.61 189.386 1071.97 189.386ZM1098.13 183.598V171.867H1101.18V191.712H1098.13V188.353H1097.92C1097.45 189.361 1096.73 190.218 1095.75 190.924C1094.77 191.622 1093.53 191.97 1092.03 191.97C1090.79 191.97 1089.69 191.699 1088.72 191.156C1087.76 190.605 1087 189.778 1086.45 188.676C1085.9 187.565 1085.62 186.165 1085.62 184.477V171.867H1088.67V184.27C1088.67 185.717 1089.07 186.871 1089.88 187.733C1090.7 188.594 1091.74 189.025 1093.01 189.025C1093.77 189.025 1094.54 188.831 1095.32 188.443C1096.12 188.056 1096.78 187.461 1097.31 186.66C1097.85 185.859 1098.13 184.839 1098.13 183.598ZM1109.81 179.774V191.712H1106.76V171.867H1109.71V174.968H1109.96C1110.43 173.96 1111.14 173.15 1112.08 172.539C1113.03 171.919 1114.25 171.609 1115.75 171.609C1117.1 171.609 1118.27 171.884 1119.28 172.435C1120.29 172.978 1121.07 173.805 1121.63 174.916C1122.19 176.019 1122.47 177.414 1122.47 179.102V191.712H1119.42V179.309C1119.42 177.75 1119.02 176.535 1118.21 175.665C1117.4 174.787 1116.29 174.348 1114.87 174.348C1113.9 174.348 1113.03 174.559 1112.26 174.981C1111.51 175.403 1110.91 176.019 1110.47 176.828C1110.03 177.638 1109.81 178.62 1109.81 179.774ZM1135.54 192.125C1133.88 192.125 1132.42 191.708 1131.16 190.872C1129.89 190.028 1128.9 188.839 1128.18 187.306C1127.47 185.765 1127.11 183.943 1127.11 181.841C1127.11 179.757 1127.47 177.948 1128.18 176.415C1128.9 174.882 1129.89 173.697 1131.17 172.862C1132.44 172.026 1133.92 171.609 1135.59 171.609C1136.88 171.609 1137.9 171.824 1138.65 172.255C1139.41 172.677 1139.98 173.159 1140.38 173.702C1140.79 174.236 1141.1 174.675 1141.32 175.019H1141.58V165.252H1144.63V191.712H1141.69V188.663H1141.32C1141.1 189.025 1140.78 189.481 1140.37 190.032C1139.95 190.575 1139.36 191.062 1138.6 191.492C1137.83 191.914 1136.81 192.125 1135.54 192.125ZM1135.95 189.386C1137.17 189.386 1138.21 189.068 1139.05 188.43C1139.89 187.784 1140.54 186.893 1140.98 185.756C1141.41 184.61 1141.63 183.288 1141.63 181.789C1141.63 180.308 1141.42 179.012 1140.99 177.901C1140.56 176.781 1139.92 175.911 1139.08 175.291C1138.23 174.662 1137.19 174.348 1135.95 174.348C1134.66 174.348 1133.58 174.679 1132.72 175.342C1131.87 175.997 1131.23 176.888 1130.79 178.017C1130.37 179.137 1130.16 180.394 1130.16 181.789C1130.16 183.202 1130.38 184.485 1130.81 185.64C1131.25 186.785 1131.89 187.698 1132.75 188.379C1133.61 189.051 1134.67 189.386 1135.95 189.386ZM1158.96 192.125C1157.05 192.125 1155.4 191.703 1154.01 190.859C1152.63 190.007 1151.57 188.818 1150.82 187.293C1150.08 185.76 1149.71 183.977 1149.71 181.945C1149.71 179.912 1150.08 178.12 1150.82 176.57C1151.57 175.011 1152.61 173.796 1153.95 172.926C1155.29 172.048 1156.86 171.609 1158.65 171.609C1159.68 171.609 1160.7 171.781 1161.71 172.125C1162.72 172.47 1163.64 173.03 1164.46 173.805C1165.29 174.571 1165.95 175.588 1166.44 176.854C1166.93 178.12 1167.18 179.679 1167.18 181.531V182.823H1151.88V180.187H1164.08C1164.08 179.068 1163.85 178.069 1163.4 177.19C1162.97 176.311 1162.34 175.618 1161.52 175.11C1160.71 174.602 1159.75 174.348 1158.65 174.348C1157.44 174.348 1156.38 174.649 1155.5 175.252C1154.62 175.846 1153.94 176.621 1153.47 177.578C1153 178.534 1152.76 179.559 1152.76 180.653V182.41C1152.76 183.908 1153.02 185.179 1153.53 186.221C1154.06 187.255 1154.79 188.043 1155.72 188.585C1156.65 189.119 1157.73 189.386 1158.96 189.386C1159.76 189.386 1160.48 189.274 1161.13 189.051C1161.79 188.818 1162.35 188.473 1162.82 188.017C1163.3 187.552 1163.66 186.975 1163.92 186.286L1166.87 187.113C1166.56 188.112 1166.04 188.99 1165.3 189.748C1164.57 190.498 1163.67 191.083 1162.59 191.505C1161.51 191.919 1160.3 192.125 1158.96 192.125ZM1179.31 192.125C1177.66 192.125 1176.2 191.708 1174.93 190.872C1173.66 190.028 1172.67 188.839 1171.96 187.306C1171.24 185.765 1170.89 183.943 1170.89 181.841C1170.89 179.757 1171.24 177.948 1171.96 176.415C1172.67 174.882 1173.67 173.697 1174.94 172.862C1176.22 172.026 1177.69 171.609 1179.36 171.609C1180.65 171.609 1181.67 171.824 1182.42 172.255C1183.18 172.677 1183.76 173.159 1184.15 173.702C1184.56 174.236 1184.87 174.675 1185.1 175.019H1185.36V165.252H1188.4V191.712H1185.46V188.663H1185.1C1184.87 189.025 1184.55 189.481 1184.14 190.032C1183.73 190.575 1183.14 191.062 1182.37 191.492C1181.6 191.914 1180.58 192.125 1179.31 192.125ZM1179.72 189.386C1180.95 189.386 1181.98 189.068 1182.82 188.43C1183.67 187.784 1184.31 186.893 1184.75 185.756C1185.19 184.61 1185.41 183.288 1185.41 181.789C1185.41 180.308 1185.19 179.012 1184.76 177.901C1184.33 176.781 1183.69 175.911 1182.85 175.291C1182.01 174.662 1180.96 174.348 1179.72 174.348C1178.43 174.348 1177.35 174.679 1176.49 175.342C1175.64 175.997 1175 176.888 1174.57 178.017C1174.15 179.137 1173.93 180.394 1173.93 181.789C1173.93 183.202 1174.15 184.485 1174.58 185.64C1175.02 186.785 1175.67 187.698 1176.52 188.379C1177.38 189.051 1178.45 189.386 1179.72 189.386Z" fill="#46C147"/>
<path d="M394 120V12" stroke="#46C147" stroke-width="3.03189"/>
<path d="M415 127.212V12" stroke="#46C147" stroke-width="3.03189"/>
<path d="M383.773 36.2552H412.122" stroke="#46C147" stroke-width="3.03189"/>
<path d="M410 36.2552L434.255 30.1914V42.319L410 36.2552Z" fill="#46C147"/>
<path d="M401.255 36.2552L377 30.1914V42.319L401.255 36.2552Z" fill="#46C147"/>
<path d="M285.041 22.2519V48.712H281.837V25.6111H281.682L275.222 29.9005V26.6447L281.837 22.2519H285.041ZM293.362 48.9188C292.725 48.9188 292.178 48.6905 291.721 48.234C291.265 47.7775 291.036 47.2305 291.036 46.5932C291.036 45.9558 291.265 45.4088 291.721 44.9523C292.178 44.4958 292.725 44.2676 293.362 44.2676C293.999 44.2676 294.546 44.4958 295.003 44.9523C295.459 45.4088 295.688 45.9558 295.688 46.5932C295.688 47.0152 295.58 47.4028 295.365 47.756C295.158 48.1091 294.878 48.3933 294.525 48.6087C294.18 48.8154 293.793 48.9188 293.362 48.9188ZM308.843 49.0738C307.327 49.0738 305.962 48.7723 304.748 48.1694C303.533 47.5665 302.56 46.7396 301.828 45.6888C301.096 44.6379 300.695 43.4407 300.626 42.097H303.727C303.848 43.2942 304.39 44.2848 305.355 45.0686C306.328 45.8438 307.491 46.2314 308.843 46.2314C309.929 46.2314 310.893 45.9773 311.737 45.4691C312.59 44.9609 313.258 44.2632 313.74 43.3761C314.231 42.4803 314.476 41.4682 314.476 40.3399C314.476 39.1857 314.222 38.1564 313.714 37.252C313.215 36.339 312.526 35.6198 311.647 35.0943C310.768 34.5689 309.765 34.3019 308.637 34.2933C307.827 34.2847 306.996 34.4096 306.143 34.668C305.29 34.9178 304.588 35.2408 304.037 35.637L301.04 35.2752L302.642 22.2519H316.389V25.0943H305.329L304.399 32.8979H304.554C305.097 32.4673 305.777 32.1098 306.595 31.8256C307.414 31.5413 308.266 31.3992 309.153 31.3992C310.773 31.3992 312.215 31.7868 313.482 32.562C314.756 33.3286 315.756 34.3794 316.479 35.7145C317.211 37.0496 317.577 38.5741 317.577 40.2882C317.577 41.9764 317.198 43.4837 316.44 44.8102C315.691 46.128 314.657 47.1702 313.339 47.9368C312.022 48.6948 310.523 49.0738 308.843 49.0738ZM336.818 33.3114L334.079 34.0866C333.907 33.6301 333.653 33.1865 333.317 32.7558C332.99 32.3165 332.542 31.9548 331.973 31.6705C331.405 31.3863 330.677 31.2442 329.79 31.2442C328.575 31.2442 327.563 31.5241 326.754 32.084C325.953 32.6352 325.552 33.3372 325.552 34.1899C325.552 34.9479 325.828 35.5465 326.379 35.9858C326.93 36.4251 327.792 36.7912 328.963 37.084L331.909 37.8076C333.683 38.2382 335.005 38.8971 335.875 39.7843C336.745 40.6629 337.18 41.7955 337.18 43.1823C337.18 44.3192 336.853 45.3356 336.198 46.2314C335.552 47.1272 334.648 47.8335 333.485 48.3503C332.322 48.8671 330.97 49.1255 329.428 49.1255C327.404 49.1255 325.729 48.6862 324.402 47.8076C323.076 46.9291 322.236 45.6457 321.883 43.9575L324.777 43.234C325.053 44.302 325.574 45.103 326.34 45.6371C327.115 46.1711 328.128 46.4381 329.376 46.4381C330.798 46.4381 331.926 46.1366 332.761 45.5337C333.606 44.9222 334.028 44.19 334.028 43.3373C334.028 42.6482 333.786 42.0712 333.304 41.606C332.822 41.1323 332.081 40.7792 331.082 40.5466L327.774 39.7714C325.957 39.3407 324.622 38.6732 323.769 37.7688C322.925 36.8558 322.503 35.7145 322.503 34.345C322.503 33.2253 322.817 32.2347 323.446 31.3734C324.084 30.5121 324.949 29.8359 326.043 29.3449C327.146 28.854 328.395 28.6085 329.79 28.6085C331.754 28.6085 333.296 29.0392 334.415 29.9005C335.544 30.7618 336.345 31.8988 336.818 33.3114ZM346.266 48.712L340.22 28.8669H343.424L347.713 44.0608H347.92L352.158 28.8669H355.413L359.6 44.0092H359.806L364.096 28.8669H367.3L361.253 48.712H358.256L353.915 33.4664H353.605L349.264 48.712H346.266Z" fill="#46C147"/>
<path d="M237.389 212.52L274.889 147.568" stroke="#46C147" stroke-width="3.03189"/>
<path d="M264.95 228.432L302.45 163.48" stroke="#46C147" stroke-width="3.03189"/>
<path d="M253.905 163.46L290.581 184.635" stroke="#46C147" stroke-width="3.03189"/>
<path d="M285.992 181.986L310.029 188.862L303.966 199.365L285.992 181.986Z" fill="#46C147"/>
<path d="M269.045 172.202L251.071 154.823L245.007 165.325L269.045 172.202Z" fill="#46C147"/>
<path d="M0.739041 157V154.674L9.47297 145.114C10.498 143.994 11.3421 143.021 12.0053 142.194C12.6685 141.358 13.1595 140.574 13.4782 139.842C13.8055 139.101 13.9691 138.326 13.9691 137.517C13.9691 136.586 13.7452 135.781 13.2973 135.101C12.858 134.42 12.2551 133.895 11.4885 133.524C10.7219 133.154 9.86057 132.969 8.90448 132.969C7.88811 132.969 7.00094 133.18 6.24296 133.602C5.4936 134.015 4.9122 134.597 4.49876 135.346C4.09394 136.095 3.89152 136.974 3.89152 137.982H0.842401C0.842401 136.431 1.19985 135.07 1.91476 133.899C2.62967 132.728 3.60298 131.815 4.83468 131.16C6.075 130.505 7.46606 130.178 9.00784 130.178C10.5582 130.178 11.9321 130.505 13.1293 131.16C14.3266 131.815 15.2654 132.697 15.9459 133.809C16.6263 134.92 16.9666 136.156 16.9666 137.517C16.9666 138.49 16.79 139.442 16.4368 140.372C16.0923 141.294 15.4894 142.323 14.628 143.46C13.7753 144.588 12.591 145.966 11.075 147.594L5.13184 153.951V154.158H17.4317V157H0.739041ZM25.0416 157.207C24.4042 157.207 23.8572 156.978 23.4007 156.522C22.9442 156.065 22.716 155.519 22.716 154.881C22.716 154.244 22.9442 153.697 23.4007 153.24C23.8572 152.784 24.4042 152.556 25.0416 152.556C25.679 152.556 26.2259 152.784 26.6824 153.24C27.1389 153.697 27.3672 154.244 27.3672 154.881C27.3672 155.303 27.2595 155.691 27.0442 156.044C26.8375 156.397 26.5575 156.681 26.2044 156.897C25.8598 157.103 25.4722 157.207 25.0416 157.207ZM40.523 157.362C39.007 157.362 37.6418 157.06 36.4273 156.457C35.2128 155.854 34.2395 155.028 33.5074 153.977C32.7753 152.926 32.3748 151.729 32.3058 150.385H35.4066C35.5272 151.582 36.0699 152.573 37.0346 153.357C38.0079 154.132 39.1707 154.519 40.523 154.519C41.6083 154.519 42.5729 154.265 43.4171 153.757C44.2698 153.249 44.9373 152.551 45.4197 151.664C45.9106 150.768 46.1561 149.756 46.1561 148.628C46.1561 147.474 45.902 146.444 45.3938 145.54C44.8942 144.627 44.2052 143.908 43.3266 143.382C42.4481 142.857 41.4446 142.59 40.3163 142.581C39.5066 142.573 38.6754 142.698 37.8227 142.956C36.97 143.206 36.268 143.529 35.7167 143.925L32.7193 143.563L34.3214 130.54H48.0683V133.382H37.0087L36.0785 141.186H36.2335C36.7762 140.755 37.4566 140.398 38.2749 140.114C39.0932 139.829 39.9459 139.687 40.8331 139.687C42.4524 139.687 43.8951 140.075 45.1613 140.85C46.436 141.617 47.4352 142.667 48.1587 144.002C48.8908 145.338 49.2569 146.862 49.2569 148.576C49.2569 150.264 48.8779 151.772 48.1199 153.098C47.3706 154.416 46.337 155.458 45.0191 156.225C43.7013 156.983 42.2026 157.362 40.523 157.362ZM68.498 141.599L65.759 142.375C65.5867 141.918 65.3326 141.474 64.9967 141.044C64.6694 140.605 64.2215 140.243 63.653 139.959C63.0845 139.674 62.3567 139.532 61.4695 139.532C60.255 139.532 59.243 139.812 58.4333 140.372C57.6323 140.923 57.2318 141.625 57.2318 142.478C57.2318 143.236 57.5074 143.835 58.0586 144.274C58.6099 144.713 59.4712 145.079 60.6426 145.372L63.5884 146.096C65.3628 146.526 66.6849 147.185 67.5549 148.072C68.4248 148.951 68.8598 150.083 68.8598 151.47C68.8598 152.607 68.5325 153.624 67.8779 154.519C67.2319 155.415 66.3275 156.121 65.1647 156.638C64.0019 157.155 62.6496 157.413 61.1078 157.413C59.0836 157.413 57.4083 156.974 56.0819 156.096C54.7554 155.217 53.9156 153.934 53.5625 152.245L56.4566 151.522C56.7322 152.59 57.2533 153.391 58.0199 153.925C58.7951 154.459 59.8072 154.726 61.0561 154.726C62.4773 154.726 63.6056 154.425 64.4411 153.822C65.2852 153.21 65.7073 152.478 65.7073 151.625C65.7073 150.936 65.4661 150.359 64.9838 149.894C64.5014 149.42 63.7607 149.067 62.7615 148.835L59.454 148.059C57.6366 147.629 56.3015 146.961 55.4488 146.057C54.6047 145.144 54.1826 144.002 54.1826 142.633C54.1826 141.513 54.497 140.523 55.1258 139.661C55.7632 138.8 56.6288 138.124 57.7227 137.633C58.8252 137.142 60.0742 136.896 61.4695 136.896C63.4334 136.896 64.9752 137.327 66.0949 138.188C67.2232 139.05 68.0243 140.187 68.498 141.599ZM77.9458 157L71.8992 137.155H75.1034L79.3928 152.349H79.5995L83.8373 137.155H87.0931L91.2792 152.297H91.4859L95.7754 137.155H98.9795L92.933 157H89.9355L85.5944 141.754H85.2843L80.9432 157H77.9458ZM122.597 129.3L114.07 160.979H111.279L119.807 129.3H122.597ZM145.333 157.362C143.628 157.362 142.108 157.069 140.773 156.483C139.446 155.897 138.391 155.084 137.607 154.041C136.832 152.99 136.41 151.772 136.341 150.385H139.597C139.666 151.238 139.959 151.974 140.475 152.594C140.992 153.206 141.668 153.68 142.504 154.015C143.339 154.351 144.265 154.519 145.282 154.519C146.419 154.519 147.426 154.321 148.305 153.925C149.183 153.529 149.873 152.978 150.372 152.271C150.872 151.565 151.121 150.747 151.121 149.816C151.121 148.843 150.88 147.986 150.398 147.245C149.916 146.496 149.209 145.91 148.279 145.488C147.349 145.066 146.212 144.855 144.868 144.855H142.749V142.013H144.868C145.919 142.013 146.841 141.823 147.633 141.444C148.434 141.065 149.059 140.531 149.506 139.842C149.963 139.153 150.191 138.344 150.191 137.413C150.191 136.517 149.993 135.738 149.597 135.075C149.201 134.412 148.641 133.895 147.917 133.524C147.202 133.154 146.358 132.969 145.385 132.969C144.472 132.969 143.611 133.137 142.801 133.473C142 133.8 141.345 134.278 140.837 134.907C140.329 135.527 140.053 136.276 140.01 137.155H136.909C136.961 135.768 137.379 134.554 138.163 133.511C138.946 132.461 139.971 131.642 141.238 131.057C142.512 130.471 143.912 130.178 145.437 130.178C147.073 130.178 148.477 130.51 149.649 131.173C150.82 131.828 151.72 132.693 152.349 133.77C152.978 134.846 153.292 136.009 153.292 137.258C153.292 138.748 152.9 140.019 152.116 141.07C151.341 142.12 150.286 142.848 148.951 143.253V143.46C150.622 143.735 151.927 144.446 152.866 145.592C153.804 146.729 154.274 148.137 154.274 149.816C154.274 151.255 153.882 152.547 153.098 153.692C152.323 154.829 151.264 155.725 149.92 156.38C148.576 157.034 147.047 157.362 145.333 157.362ZM161.015 157.207C160.378 157.207 159.831 156.978 159.374 156.522C158.918 156.065 158.689 155.519 158.689 154.881C158.689 154.244 158.918 153.697 159.374 153.24C159.831 152.784 160.378 152.556 161.015 152.556C161.652 152.556 162.199 152.784 162.656 153.24C163.112 153.697 163.341 154.244 163.341 154.881C163.341 155.303 163.233 155.691 163.018 156.044C162.811 156.397 162.531 156.681 162.178 156.897C161.833 157.103 161.446 157.207 161.015 157.207ZM176.496 157.362C174.98 157.362 173.615 157.06 172.401 156.457C171.186 155.854 170.213 155.028 169.481 153.977C168.749 152.926 168.348 151.729 168.279 150.385H171.38C171.501 151.582 172.043 152.573 173.008 153.357C173.981 154.132 175.144 154.519 176.496 154.519C177.582 154.519 178.546 154.265 179.39 153.757C180.243 153.249 180.911 152.551 181.393 151.664C181.884 150.768 182.129 149.756 182.129 148.628C182.129 147.474 181.875 146.444 181.367 145.54C180.868 144.627 180.179 143.908 179.3 143.382C178.421 142.857 177.418 142.59 176.29 142.581C175.48 142.573 174.649 142.698 173.796 142.956C172.943 143.206 172.241 143.529 171.69 143.925L168.693 143.563L170.295 130.54H184.042V133.382H172.982L172.052 141.186H172.207C172.75 140.755 173.43 140.398 174.248 140.114C175.067 139.829 175.919 139.687 176.806 139.687C178.426 139.687 179.868 140.075 181.135 140.85C182.409 141.617 183.409 142.667 184.132 144.002C184.864 145.338 185.23 146.862 185.23 148.576C185.23 150.264 184.851 151.772 184.093 153.098C183.344 154.416 182.31 155.458 180.993 156.225C179.675 156.983 178.176 157.362 176.496 157.362ZM204.471 141.599L201.732 142.375C201.56 141.918 201.306 141.474 200.97 141.044C200.643 140.605 200.195 140.243 199.626 139.959C199.058 139.674 198.33 139.532 197.443 139.532C196.228 139.532 195.216 139.812 194.407 140.372C193.606 140.923 193.205 141.625 193.205 142.478C193.205 143.236 193.481 143.835 194.032 144.274C194.583 144.713 195.445 145.079 196.616 145.372L199.562 146.096C201.336 146.526 202.658 147.185 203.528 148.072C204.398 148.951 204.833 150.083 204.833 151.47C204.833 152.607 204.506 153.624 203.851 154.519C203.205 155.415 202.301 156.121 201.138 156.638C199.975 157.155 198.623 157.413 197.081 157.413C195.057 157.413 193.382 156.974 192.055 156.096C190.729 155.217 189.889 153.934 189.536 152.245L192.43 151.522C192.706 152.59 193.227 153.391 193.993 153.925C194.768 154.459 195.781 154.726 197.029 154.726C198.451 154.726 199.579 154.425 200.415 153.822C201.259 153.21 201.681 152.478 201.681 151.625C201.681 150.936 201.439 150.359 200.957 149.894C200.475 149.42 199.734 149.067 198.735 148.835L195.427 148.059C193.61 147.629 192.275 146.961 191.422 146.057C190.578 145.144 190.156 144.002 190.156 142.633C190.156 141.513 190.47 140.523 191.099 139.661C191.737 138.8 192.602 138.124 193.696 137.633C194.799 137.142 196.048 136.896 197.443 136.896C199.407 136.896 200.949 137.327 202.068 138.188C203.197 139.05 203.998 140.187 204.471 141.599ZM213.919 157L207.873 137.155H211.077L215.366 152.349H215.573L219.811 137.155H223.066L227.253 152.297H227.459L231.749 137.155H234.953L228.906 157H225.909L221.568 141.754H221.258L216.917 157H213.919Z" fill="#46C147"/>
<path d="M311.889 337.861L274.389 272.909" stroke="#46C147" stroke-width="3.03189"/>
<path d="M357.636 311.449L320.136 246.497" stroke="#46C147" stroke-width="3.03189"/>
<path d="M277.66 299.029L332.522 267.354" stroke="#46C147" stroke-width="3.03189"/>
<path d="M327.934 270.003L345.907 252.624L351.971 263.127L327.934 270.003Z" fill="#46C147"/>
<path d="M292.8 290.287L268.762 297.164L274.826 307.666L292.8 290.287Z" fill="#46C147"/>
<path d="M26.1189 327.574V324.938L37.7469 306.54H39.659V310.623H38.367L29.5814 324.524V324.731H45.2405V327.574H26.1189ZM38.5738 333V326.773V325.545V306.54H41.6229V333H38.5738ZM51.1126 333.207C50.4752 333.207 49.9283 332.978 49.4718 332.522C49.0153 332.065 48.787 331.519 48.787 330.881C48.787 330.244 49.0153 329.697 49.4718 329.24C49.9283 328.784 50.4752 328.556 51.1126 328.556C51.75 328.556 52.297 328.784 52.7535 329.24C53.21 329.697 53.4382 330.244 53.4382 330.881C53.4382 331.303 53.3306 331.691 53.1152 332.044C52.9085 332.397 52.6286 332.681 52.2754 332.897C51.9309 333.103 51.5433 333.207 51.1126 333.207ZM66.594 333.362C65.0781 333.362 63.7129 333.06 62.4984 332.457C61.2839 331.854 60.3106 331.028 59.5785 329.977C58.8463 328.926 58.4458 327.729 58.3769 326.385H61.4777C61.5983 327.582 62.1409 328.573 63.1056 329.357C64.0789 330.132 65.2417 330.519 66.594 330.519C67.6793 330.519 68.644 330.265 69.4881 329.757C70.3408 329.249 71.0084 328.551 71.4907 327.664C71.9817 326.768 72.2272 325.756 72.2272 324.628C72.2272 323.474 71.9731 322.444 71.4649 321.54C70.9653 320.627 70.2762 319.908 69.3977 319.382C68.5191 318.857 67.5157 318.59 66.3873 318.581C65.5777 318.573 64.7465 318.698 63.8937 318.956C63.041 319.206 62.339 319.529 61.7878 319.925L58.7903 319.563L60.3924 306.54H74.1393V309.382H63.0798L62.1495 317.186H62.3046C62.8472 316.755 63.5277 316.398 64.3459 316.114C65.1642 315.829 66.0169 315.687 66.9041 315.687C68.5234 315.687 69.9662 316.075 71.2323 316.85C72.5071 317.617 73.5062 318.667 74.2298 320.002C74.9619 321.338 75.328 322.862 75.328 324.576C75.328 326.264 74.949 327.772 74.191 329.098C73.4416 330.416 72.408 331.458 71.0902 332.225C69.7724 332.983 68.2736 333.362 66.594 333.362ZM94.5691 317.599L91.83 318.375C91.6578 317.918 91.4037 317.474 91.0678 317.044C90.7404 316.605 90.2926 316.243 89.7241 315.959C89.1556 315.674 88.4278 315.532 87.5406 315.532C86.3261 315.532 85.314 315.812 84.5044 316.372C83.7033 316.923 83.3028 317.625 83.3028 318.478C83.3028 319.236 83.5785 319.835 84.1297 320.274C84.681 320.713 85.5423 321.079 86.7137 321.372L89.6595 322.096C91.4338 322.526 92.756 323.185 93.6259 324.072C94.4959 324.951 94.9308 326.083 94.9308 327.47C94.9308 328.607 94.6035 329.624 93.9489 330.519C93.3029 331.415 92.3985 332.121 91.2357 332.638C90.0729 333.155 88.7206 333.413 87.1788 333.413C85.1547 333.413 83.4794 332.974 82.1529 332.096C80.8265 331.217 79.9867 329.934 79.6335 328.245L82.5276 327.522C82.8033 328.59 83.3244 329.391 84.0909 329.925C84.8661 330.459 85.8782 330.726 87.1272 330.726C88.5484 330.726 89.6767 330.425 90.5122 329.822C91.3563 329.21 91.7784 328.478 91.7784 327.625C91.7784 326.936 91.5372 326.359 91.0548 325.894C90.5725 325.42 89.8317 325.067 88.8326 324.835L85.5251 324.059C83.7077 323.629 82.3726 322.961 81.5199 322.057C80.6758 321.144 80.2537 320.002 80.2537 318.633C80.2537 317.513 80.5681 316.523 81.1969 315.661C81.8343 314.8 82.6999 314.124 83.7938 313.633C84.8963 313.142 86.1452 312.896 87.5406 312.896C89.5044 312.896 91.0462 313.327 92.166 314.188C93.2943 315.05 94.0953 316.187 94.5691 317.599ZM104.017 333L97.9703 313.155H101.174L105.464 328.349H105.671L109.908 313.155H113.164L117.35 328.297H117.557L121.846 313.155H125.051L119.004 333H116.007L111.665 317.754H111.355L107.014 333H104.017ZM148.668 305.3L140.141 336.979H137.35L145.878 305.3H148.668ZM171.249 333.362C170.164 333.345 169.079 333.138 167.993 332.742C166.908 332.345 165.918 331.678 165.022 330.739C164.126 329.792 163.407 328.512 162.864 326.902C162.322 325.282 162.05 323.25 162.05 320.804C162.05 318.461 162.27 316.385 162.709 314.576C163.148 312.759 163.786 311.23 164.621 309.989C165.457 308.741 166.465 307.793 167.645 307.147C168.833 306.501 170.173 306.178 171.663 306.178C173.144 306.178 174.462 306.475 175.616 307.07C176.779 307.655 177.727 308.474 178.459 309.524C179.191 310.575 179.665 311.785 179.88 313.155H176.727C176.435 311.966 175.866 310.98 175.022 310.196C174.178 309.412 173.058 309.02 171.663 309.02C169.613 309.02 167.998 309.912 166.818 311.695C165.646 313.478 165.056 315.98 165.048 319.201H165.254C165.737 318.469 166.31 317.845 166.973 317.328C167.645 316.803 168.385 316.398 169.195 316.114C170.005 315.829 170.862 315.687 171.766 315.687C173.282 315.687 174.669 316.066 175.926 316.824C177.184 317.574 178.192 318.611 178.95 319.938C179.708 321.256 180.087 322.767 180.087 324.473C180.087 326.109 179.721 327.608 178.988 328.969C178.256 330.321 177.227 331.398 175.901 332.199C174.583 332.991 173.032 333.379 171.249 333.362ZM171.249 330.519C172.335 330.519 173.308 330.248 174.169 329.705C175.039 329.163 175.724 328.435 176.224 327.522C176.732 326.609 176.986 325.593 176.986 324.473C176.986 323.379 176.74 322.384 176.249 321.488C175.767 320.584 175.099 319.865 174.247 319.331C173.403 318.797 172.438 318.53 171.353 318.53C170.534 318.53 169.772 318.693 169.066 319.021C168.36 319.339 167.739 319.779 167.205 320.338C166.68 320.898 166.267 321.54 165.965 322.263C165.664 322.978 165.513 323.732 165.513 324.524C165.513 325.575 165.758 326.557 166.249 327.47C166.749 328.383 167.429 329.12 168.291 329.68C169.161 330.239 170.147 330.519 171.249 330.519ZM199.276 317.599L196.537 318.375C196.365 317.918 196.111 317.474 195.775 317.044C195.447 316.605 195 316.243 194.431 315.959C193.863 315.674 193.135 315.532 192.248 315.532C191.033 315.532 190.021 315.812 189.211 316.372C188.41 316.923 188.01 317.625 188.01 318.478C188.01 319.236 188.285 319.835 188.837 320.274C189.388 320.713 190.249 321.079 191.421 321.372L194.366 322.096C196.141 322.526 197.463 323.185 198.333 324.072C199.203 324.951 199.638 326.083 199.638 327.47C199.638 328.607 199.31 329.624 198.656 330.519C198.01 331.415 197.105 332.121 195.943 332.638C194.78 333.155 193.428 333.413 191.886 333.413C189.862 333.413 188.186 332.974 186.86 332.096C185.533 331.217 184.694 329.934 184.341 328.245L187.235 327.522C187.51 328.59 188.031 329.391 188.798 329.925C189.573 330.459 190.585 330.726 191.834 330.726C193.255 330.726 194.384 330.425 195.219 329.822C196.063 329.21 196.485 328.478 196.485 327.625C196.485 326.936 196.244 326.359 195.762 325.894C195.279 325.42 194.539 325.067 193.54 324.835L190.232 324.059C188.415 323.629 187.08 322.961 186.227 322.057C185.383 321.144 184.961 320.002 184.961 318.633C184.961 317.513 185.275 316.523 185.904 315.661C186.541 314.8 187.407 314.124 188.501 313.633C189.603 313.142 190.852 312.896 192.248 312.896C194.211 312.896 195.753 313.327 196.873 314.188C198.001 315.05 198.802 316.187 199.276 317.599ZM208.724 333L202.677 313.155H205.881L210.171 328.349H210.378L214.615 313.155H217.871L222.057 328.297H222.264L226.553 313.155H229.758L223.711 333H220.714L216.372 317.754H216.062L211.721 333H208.724Z" fill="#46C147"/>
<path d="M581.212 98.75H466" stroke="#FF0000" stroke-width="3.03189"/>
<path d="M581.212 127.5H466" stroke="#FF0000" stroke-width="3.03189"/>
<path d="M490 98.75V127.5" stroke="#FF0000" stroke-width="3.03189"/>
<path d="M490.064 124L484 148.255H496.128L490.064 124Z" fill="#FF0000"/>
<path d="M490.064 102.255L484 78H496.128L490.064 102.255Z" fill="#FF0000"/>
<path d="M462.739 27V24.6744L471.473 15.1136C472.498 13.9939 473.342 13.0206 474.005 12.1937C474.669 11.3582 475.159 10.5744 475.478 9.84223C475.805 9.10148 475.969 8.32628 475.969 7.51663C475.969 6.58639 475.745 5.78104 475.297 5.10059C474.858 4.42014 474.255 3.89472 473.488 3.52435C472.722 3.15398 471.861 2.96879 470.904 2.96879C469.888 2.96879 469.001 3.17982 468.243 3.60187C467.494 4.01531 466.912 4.59671 466.499 5.34607C466.094 6.09543 465.892 6.97399 465.892 7.98175H462.842C462.842 6.43135 463.2 5.07044 463.915 3.89903C464.63 2.72761 465.603 1.8146 466.835 1.15999C468.075 0.505374 469.466 0.178067 471.008 0.178067C472.558 0.178067 473.932 0.505374 475.129 1.15999C476.327 1.8146 477.265 2.69747 477.946 3.80859C478.626 4.91971 478.967 6.15572 478.967 7.51663C478.967 8.48994 478.79 9.44171 478.437 10.372C478.092 11.2936 477.489 12.3229 476.628 13.4598C475.775 14.5882 474.591 15.9663 473.075 17.5942L467.132 23.9509V24.1576H479.432V27H462.739ZM487.042 27.2067C486.404 27.2067 485.857 26.9785 485.401 26.522C484.944 26.0655 484.716 25.5185 484.716 24.8811C484.716 24.2437 484.944 23.6968 485.401 23.2403C485.857 22.7838 486.404 22.5555 487.042 22.5555C487.679 22.5555 488.226 22.7838 488.682 23.2403C489.139 23.6968 489.367 24.2437 489.367 24.8811C489.367 25.3032 489.26 25.6908 489.044 26.0439C488.837 26.3971 488.558 26.6813 488.204 26.8966C487.86 27.1034 487.472 27.2067 487.042 27.2067ZM502.523 27.3618C501.007 27.3618 499.642 27.0603 498.427 26.4574C497.213 25.8544 496.24 25.0275 495.507 23.9767C494.775 22.9259 494.375 21.7286 494.306 20.385H497.407C497.527 21.5822 498.07 22.5727 499.035 23.3566C500.008 24.1318 501.171 24.5194 502.523 24.5194C503.608 24.5194 504.573 24.2653 505.417 23.7571C506.27 23.2489 506.937 22.5512 507.42 21.664C507.911 20.7683 508.156 19.7562 508.156 18.6278C508.156 17.4736 507.902 16.4444 507.394 15.54C506.894 14.6269 506.205 13.9077 505.327 13.3823C504.448 12.8569 503.445 12.5899 502.316 12.5813C501.507 12.5727 500.675 12.6976 499.823 12.956C498.97 13.2057 498.268 13.5287 497.717 13.925L494.719 13.5632L496.321 0.539827H510.068V3.38223H499.009L498.078 11.1859H498.234C498.776 10.7552 499.457 10.3978 500.275 10.1136C501.093 9.82931 501.946 9.68719 502.833 9.68719C504.452 9.68719 505.895 10.0748 507.161 10.85C508.436 11.6166 509.435 12.6674 510.159 14.0025C510.891 15.3375 511.257 16.8621 511.257 18.5762C511.257 20.2644 510.878 21.7717 510.12 23.0982C509.371 24.416 508.337 25.4582 507.019 26.2248C505.701 26.9828 504.203 27.3618 502.523 27.3618ZM530.498 11.5994L527.759 12.3746C527.587 11.918 527.333 11.4745 526.997 11.0438C526.669 10.6045 526.221 10.2428 525.653 9.95851C525.085 9.67427 524.357 9.53215 523.47 9.53215C522.255 9.53215 521.243 9.81209 520.433 10.372C519.632 10.9232 519.232 11.6252 519.232 12.4779C519.232 13.2359 519.507 13.8345 520.059 14.2738C520.61 14.7131 521.471 15.0791 522.643 15.372L525.588 16.0955C527.363 16.5262 528.685 17.1851 529.555 18.0723C530.425 18.9508 530.86 20.0835 530.86 21.4702C530.86 22.6072 530.532 23.6236 529.878 24.5194C529.232 25.4151 528.327 26.1214 527.165 26.6382C526.002 27.155 524.65 27.4134 523.108 27.4134C521.084 27.4134 519.408 26.9742 518.082 26.0956C516.755 25.217 515.916 23.9337 515.562 22.2454L518.457 21.5219C518.732 22.59 519.253 23.391 520.02 23.925C520.795 24.4591 521.807 24.7261 523.056 24.7261C524.477 24.7261 525.606 24.4246 526.441 23.8217C527.285 23.2101 527.707 22.478 527.707 21.6253C527.707 20.9362 527.466 20.3591 526.984 19.894C526.501 19.4203 525.761 19.0671 524.762 18.8346L521.454 18.0594C519.637 17.6287 518.302 16.9612 517.449 16.0568C516.605 15.1437 516.183 14.0025 516.183 12.633C516.183 11.5132 516.497 10.5227 517.126 9.66135C517.763 8.80002 518.629 8.12387 519.723 7.63291C520.825 7.14195 522.074 6.89647 523.47 6.89647C525.433 6.89647 526.975 7.32714 528.095 8.18847C529.223 9.0498 530.024 10.1868 530.498 11.5994ZM539.946 27L533.899 7.15487H537.103L541.393 22.3488H541.6L545.837 7.15487H549.093L553.279 22.2971H553.486L557.775 7.15487H560.98L554.933 27H551.936L547.594 11.7544H547.284L542.943 27H539.946ZM463.204 71V44.5398H466.253V54.3074H466.512C466.736 53.9628 467.046 53.5235 467.442 52.9895C467.847 52.4469 468.424 51.9645 469.173 51.5425C469.931 51.1118 470.956 50.8965 472.248 50.8965C473.919 50.8965 475.392 51.3142 476.667 52.1497C477.942 52.9852 478.936 54.1695 479.651 55.7027C480.366 57.2359 480.724 59.0447 480.724 61.1291C480.724 63.2308 480.366 65.0525 479.651 66.5943C478.936 68.1275 477.946 69.3161 476.68 70.1602C475.414 70.9957 473.954 71.4134 472.3 71.4134C471.025 71.4134 470.004 71.2024 469.238 70.7804C468.471 70.3497 467.881 69.863 467.468 69.3204C467.054 68.7691 466.736 68.3126 466.512 67.9509H466.15V71H463.204ZM466.202 61.0774C466.202 62.5762 466.421 63.8983 466.861 65.0439C467.3 66.1808 467.941 67.0723 468.786 67.7183C469.63 68.3557 470.663 68.6744 471.886 68.6744C473.161 68.6744 474.225 68.3385 475.078 67.6666C475.939 66.9862 476.585 66.0732 477.016 64.9276C477.455 63.7734 477.675 62.49 477.675 61.0774C477.675 59.6821 477.459 58.4245 477.029 57.3048C476.607 56.1764 475.965 55.285 475.103 54.6304C474.251 53.9671 473.178 53.6355 471.886 53.6355C470.646 53.6355 469.604 53.9499 468.76 54.5787C467.916 55.1988 467.278 56.0688 466.848 57.1885C466.417 58.2996 466.202 59.5959 466.202 61.0774ZM497.894 62.8862V51.1549H500.943V71H497.894V67.6408H497.688C497.223 68.6486 496.499 69.5056 495.517 70.2119C494.535 70.9096 493.295 71.2584 491.796 71.2584C490.556 71.2584 489.453 70.9871 488.489 70.4444C487.524 69.8932 486.766 69.0663 486.215 67.9638C485.663 66.8527 485.388 65.453 485.388 63.7648V51.1549H488.437V63.5581C488.437 65.0051 488.842 66.1593 489.651 67.0206C490.47 67.882 491.512 68.3126 492.778 68.3126C493.536 68.3126 494.307 68.1188 495.091 67.7312C495.883 67.3436 496.546 66.7493 497.08 65.9483C497.623 65.1472 497.894 64.1266 497.894 62.8862ZM515.159 51.1549V53.7389H504.874V51.1549H515.159ZM507.872 46.4003H510.921V65.3152C510.921 66.1765 511.046 66.8225 511.296 67.2532C511.554 67.6753 511.881 67.9595 512.278 68.1059C512.682 68.2437 513.109 68.3126 513.557 68.3126C513.893 68.3126 514.168 68.2954 514.384 68.261C514.599 68.2179 514.771 68.1834 514.9 68.1576L515.52 70.8966C515.314 70.9742 515.025 71.0517 514.655 71.1292C514.284 71.2153 513.815 71.2584 513.247 71.2584C512.385 71.2584 511.541 71.0732 510.714 70.7028C509.896 70.3325 509.216 69.7683 508.673 69.0103C508.139 68.2523 507.872 67.2963 507.872 66.1421V46.4003ZM529.978 71V51.1549H532.924V54.1523H533.13C533.492 53.1704 534.147 52.3737 535.094 51.7621C536.042 51.1506 537.11 50.8448 538.298 50.8448C538.522 50.8448 538.802 50.8491 539.138 50.8577C539.474 50.8663 539.728 50.8792 539.901 50.8965V53.9973C539.797 53.9714 539.56 53.9327 539.19 53.881C538.828 53.8207 538.445 53.7906 538.04 53.7906C537.075 53.7906 536.214 53.993 535.456 54.3978C534.707 54.794 534.112 55.3453 533.673 56.0516C533.242 56.7492 533.027 57.546 533.027 58.4418V71H529.978ZM550.973 71.4134C549.181 71.4134 547.609 70.9871 546.257 70.1344C544.914 69.2816 543.863 68.0887 543.105 66.5555C542.355 65.0223 541.981 63.2308 541.981 61.1808C541.981 59.1136 542.355 57.3091 543.105 55.7673C543.863 54.2255 544.914 53.0283 546.257 52.1756C547.609 51.3228 549.181 50.8965 550.973 50.8965C552.765 50.8965 554.332 51.3228 555.676 52.1756C557.028 53.0283 558.079 54.2255 558.828 55.7673C559.586 57.3091 559.965 59.1136 559.965 61.1808C559.965 63.2308 559.586 65.0223 558.828 66.5555C558.079 68.0887 557.028 69.2816 555.676 70.1344C554.332 70.9871 552.765 71.4134 550.973 71.4134ZM550.973 68.6744C552.334 68.6744 553.454 68.3256 554.332 67.6279C555.211 66.9302 555.861 66.0129 556.283 64.8759C556.705 63.739 556.916 62.5072 556.916 61.1808C556.916 59.8543 556.705 58.6183 556.283 57.4728C555.861 56.3272 555.211 55.4012 554.332 54.695C553.454 53.9887 552.334 53.6355 550.973 53.6355C549.612 53.6355 548.492 53.9887 547.614 54.695C546.735 55.4012 546.085 56.3272 545.663 57.4728C545.241 58.6183 545.03 59.8543 545.03 61.1808C545.03 62.5072 545.241 63.739 545.663 64.8759C546.085 66.0129 546.735 66.9302 547.614 67.6279C548.492 68.3256 549.612 68.6744 550.973 68.6744ZM577.126 62.8862V51.1549H580.175V71H577.126V67.6408H576.92C576.454 68.6486 575.731 69.5056 574.749 70.2119C573.767 70.9096 572.527 71.2584 571.028 71.2584C569.788 71.2584 568.685 70.9871 567.721 70.4444C566.756 69.8932 565.998 69.0663 565.447 67.9638C564.895 66.8527 564.62 65.453 564.62 63.7648V51.1549H567.669V63.5581C567.669 65.0051 568.074 66.1593 568.883 67.0206C569.702 67.882 570.744 68.3126 572.01 68.3126C572.768 68.3126 573.539 68.1188 574.323 67.7312C575.115 67.3436 575.778 66.7493 576.312 65.9483C576.855 65.1472 577.126 64.1266 577.126 62.8862ZM588.809 59.0619V71H585.76V51.1549H588.706V54.2557H588.964C589.429 53.2479 590.136 52.4383 591.083 51.8267C592.031 51.2066 593.254 50.8965 594.752 50.8965C596.096 50.8965 597.272 51.1721 598.28 51.7234C599.287 52.266 600.071 53.0929 600.631 54.204C601.191 55.3065 601.471 56.7019 601.471 58.3901V71H598.422V58.5968C598.422 57.0378 598.017 55.8233 597.207 54.9534C596.398 54.0748 595.286 53.6355 593.874 53.6355C592.901 53.6355 592.031 53.8465 591.264 54.2686C590.506 54.6906 589.907 55.3065 589.468 56.1162C589.029 56.9258 588.809 57.9077 588.809 59.0619ZM614.536 71.4134C612.882 71.4134 611.422 70.9957 610.156 70.1602C608.89 69.3161 607.9 68.1275 607.185 66.5943C606.47 65.0525 606.112 63.2308 606.112 61.1291C606.112 59.0447 606.47 57.2359 607.185 55.7027C607.9 54.1695 608.894 52.9852 610.169 52.1497C611.444 51.3142 612.917 50.8965 614.588 50.8965C615.88 50.8965 616.901 51.1118 617.65 51.5425C618.408 51.9645 618.985 52.4469 619.381 52.9895C619.786 53.5235 620.1 53.9628 620.324 54.3074H620.583V44.5398H623.632V71H620.686V67.9509H620.324C620.1 68.3126 619.782 68.7691 619.368 69.3204C618.955 69.863 618.365 70.3497 617.598 70.7804C616.832 71.2024 615.811 71.4134 614.536 71.4134ZM614.95 68.6744C616.173 68.6744 617.206 68.3557 618.05 67.7183C618.895 67.0723 619.536 66.1808 619.976 65.0439C620.415 63.8983 620.634 62.5762 620.634 61.0774C620.634 59.5959 620.419 58.2996 619.988 57.1885C619.558 56.0688 618.92 55.1988 618.076 54.5787C617.232 53.9499 616.19 53.6355 614.95 53.6355C613.658 53.6355 612.581 53.9671 611.72 54.6304C610.867 55.285 610.225 56.1764 609.795 57.3048C609.372 58.4245 609.161 59.6821 609.161 61.0774C609.161 62.49 609.377 63.7734 609.807 64.9276C610.247 66.0732 610.893 66.9862 611.745 67.6666C612.607 68.3385 613.675 68.6744 614.95 68.6744ZM637.96 71.4134C636.048 71.4134 634.399 70.9914 633.012 70.1473C631.634 69.2946 630.57 68.1059 629.821 66.5814C629.08 65.0482 628.709 63.2652 628.709 61.2325C628.709 59.1997 629.08 57.4082 629.821 55.8578C630.57 54.2987 631.612 53.0843 632.947 52.2143C634.291 51.3358 635.859 50.8965 637.65 50.8965C638.684 50.8965 639.704 51.0687 640.712 51.4133C641.72 51.7578 642.637 52.3177 643.464 53.0929C644.291 53.8595 644.95 54.8758 645.441 56.142C645.932 57.4082 646.177 58.9672 646.177 60.819V62.111H630.88V59.4754H643.076C643.076 58.3556 642.853 57.3565 642.405 56.4779C641.965 55.5994 641.337 54.906 640.518 54.3978C639.709 53.8896 638.753 53.6355 637.65 53.6355C636.436 53.6355 635.385 53.937 634.498 54.5399C633.619 55.1342 632.943 55.9094 632.469 56.8655C631.995 57.8216 631.759 58.8466 631.759 59.9405V61.6976C631.759 63.1963 632.017 64.4668 632.534 65.509C633.059 66.5426 633.787 67.3307 634.717 67.8734C635.647 68.4074 636.728 68.6744 637.96 68.6744C638.761 68.6744 639.485 68.5624 640.131 68.3385C640.785 68.1059 641.35 67.7614 641.823 67.3049C642.297 66.8398 642.663 66.2627 642.921 65.5736L645.867 66.4005C645.557 67.3996 645.036 68.2782 644.304 69.0362C643.572 69.7855 642.667 70.3712 641.591 70.7933C640.514 71.2067 639.304 71.4134 637.96 71.4134ZM658.309 71.4134C656.655 71.4134 655.195 70.9957 653.929 70.1602C652.663 69.3161 651.673 68.1275 650.958 66.5943C650.243 65.0525 649.885 63.2308 649.885 61.1291C649.885 59.0447 650.243 57.2359 650.958 55.7027C651.673 54.1695 652.667 52.9852 653.942 52.1497C655.217 51.3142 656.69 50.8965 658.361 50.8965C659.653 50.8965 660.674 51.1118 661.423 51.5425C662.181 51.9645 662.758 52.4469 663.154 52.9895C663.559 53.5235 663.873 53.9628 664.097 54.3074H664.356V44.5398H667.405V71H664.459V67.9509H664.097C663.873 68.3126 663.555 68.7691 663.141 69.3204C662.728 69.863 662.138 70.3497 661.371 70.7804C660.605 71.2024 659.584 71.4134 658.309 71.4134ZM658.723 68.6744C659.946 68.6744 660.979 68.3557 661.823 67.7183C662.668 67.0723 663.309 66.1808 663.748 65.0439C664.188 63.8983 664.407 62.5762 664.407 61.0774C664.407 59.5959 664.192 58.2996 663.761 57.1885C663.331 56.0688 662.693 55.1988 661.849 54.5787C661.005 53.9499 659.963 53.6355 658.723 53.6355C657.431 53.6355 656.354 53.9671 655.493 54.6304C654.64 55.285 653.998 56.1764 653.568 57.3048C653.145 58.4245 652.934 59.6821 652.934 61.0774C652.934 62.49 653.15 63.7734 653.58 64.9276C654.02 66.0732 654.666 66.9862 655.518 67.6666C656.38 68.3385 657.448 68.6744 658.723 68.6744Z" fill="#FF0000"/>
<path d="M551.273 370H436.061" stroke="#FF0000" stroke-width="3.03189"/>
<path d="M551.273 386.25H436.061" stroke="#FF0000" stroke-width="3.03189"/>
<path d="M460.316 370V386.25" stroke="#FF0000" stroke-width="3.03189"/>
<path d="M460.316 380L454.252 404.255H466.38L460.316 380Z" fill="#FF0000"/>
<path d="M460.316 375.255L454.252 351H466.38L460.316 375.255Z" fill="#FF0000"/>
<path d="M441.041 412.54V439H437.837V415.899H437.682L431.222 420.188V416.933L437.837 412.54H441.041ZM449.362 439.207C448.725 439.207 448.178 438.978 447.721 438.522C447.265 438.065 447.036 437.519 447.036 436.881C447.036 436.244 447.265 435.697 447.721 435.24C448.178 434.784 448.725 434.556 449.362 434.556C449.999 434.556 450.546 434.784 451.003 435.24C451.459 435.697 451.688 436.244 451.688 436.881C451.688 437.303 451.58 437.691 451.365 438.044C451.158 438.397 450.878 438.681 450.525 438.897C450.18 439.103 449.793 439.207 449.362 439.207ZM464.843 439.362C463.327 439.362 461.962 439.06 460.748 438.457C459.533 437.854 458.56 437.028 457.828 435.977C457.096 434.926 456.695 433.729 456.626 432.385H459.727C459.848 433.582 460.39 434.573 461.355 435.357C462.328 436.132 463.491 436.519 464.843 436.519C465.929 436.519 466.893 436.265 467.737 435.757C468.59 435.249 469.258 434.551 469.74 433.664C470.231 432.768 470.476 431.756 470.476 430.628C470.476 429.474 470.222 428.444 469.714 427.54C469.215 426.627 468.526 425.908 467.647 425.382C466.768 424.857 465.765 424.59 464.637 424.581C463.827 424.573 462.996 424.698 462.143 424.956C461.29 425.206 460.588 425.529 460.037 425.925L457.04 425.563L458.642 412.54H472.389V415.382H461.329L460.399 423.186H460.554C461.097 422.755 461.777 422.398 462.595 422.114C463.414 421.829 464.266 421.687 465.153 421.687C466.773 421.687 468.215 422.075 469.482 422.85C470.756 423.617 471.756 424.667 472.479 426.002C473.211 427.338 473.577 428.862 473.577 430.576C473.577 432.264 473.198 433.772 472.44 435.098C471.691 436.416 470.657 437.458 469.339 438.225C468.022 438.983 466.523 439.362 464.843 439.362ZM492.818 423.599L490.079 424.375C489.907 423.918 489.653 423.474 489.317 423.044C488.99 422.605 488.542 422.243 487.973 421.959C487.405 421.674 486.677 421.532 485.79 421.532C484.575 421.532 483.563 421.812 482.754 422.372C481.953 422.923 481.552 423.625 481.552 424.478C481.552 425.236 481.828 425.835 482.379 426.274C482.93 426.713 483.792 427.079 484.963 427.372L487.909 428.096C489.683 428.526 491.005 429.185 491.875 430.072C492.745 430.951 493.18 432.083 493.18 433.47C493.18 434.607 492.853 435.624 492.198 436.519C491.552 437.415 490.648 438.121 489.485 438.638C488.322 439.155 486.97 439.413 485.428 439.413C483.404 439.413 481.729 438.974 480.402 438.096C479.076 437.217 478.236 435.934 477.883 434.245L480.777 433.522C481.053 434.59 481.574 435.391 482.34 435.925C483.115 436.459 484.128 436.726 485.376 436.726C486.798 436.726 487.926 436.425 488.761 435.822C489.606 435.21 490.028 434.478 490.028 433.625C490.028 432.936 489.786 432.359 489.304 431.894C488.822 431.42 488.081 431.067 487.082 430.835L483.774 430.059C481.957 429.629 480.622 428.961 479.769 428.057C478.925 427.144 478.503 426.002 478.503 424.633C478.503 423.513 478.817 422.523 479.446 421.661C480.084 420.8 480.949 420.124 482.043 419.633C483.146 419.142 484.395 418.896 485.79 418.896C487.754 418.896 489.296 419.327 490.415 420.188C491.544 421.05 492.345 422.187 492.818 423.599ZM502.266 439L496.22 419.155H499.424L503.713 434.349H503.92L508.158 419.155H511.413L515.6 434.297H515.806L520.096 419.155H523.3L517.253 439H514.256L509.915 423.754H509.605L505.264 439H502.266ZM432.204 483V456.54H435.253V466.307H435.512C435.736 465.963 436.046 465.524 436.442 464.99C436.847 464.447 437.424 463.965 438.173 463.542C438.931 463.112 439.956 462.896 441.248 462.896C442.919 462.896 444.392 463.314 445.667 464.15C446.942 464.985 447.936 466.17 448.651 467.703C449.366 469.236 449.724 471.045 449.724 473.129C449.724 475.231 449.366 477.052 448.651 478.594C447.936 480.127 446.946 481.316 445.68 482.16C444.414 482.996 442.954 483.413 441.3 483.413C440.025 483.413 439.004 483.202 438.238 482.78C437.471 482.35 436.881 481.863 436.468 481.32C436.054 480.769 435.736 480.313 435.512 479.951H435.15V483H432.204ZM435.202 473.077C435.202 474.576 435.421 475.898 435.861 477.044C436.3 478.181 436.941 479.072 437.786 479.718C438.63 480.356 439.663 480.674 440.886 480.674C442.161 480.674 443.225 480.338 444.078 479.667C444.939 478.986 445.585 478.073 446.016 476.928C446.455 475.773 446.675 474.49 446.675 473.077C446.675 471.682 446.459 470.425 446.029 469.305C445.607 468.176 444.965 467.285 444.103 466.63C443.251 465.967 442.178 465.636 440.886 465.636C439.646 465.636 438.604 465.95 437.76 466.579C436.916 467.199 436.278 468.069 435.848 469.189C435.417 470.3 435.202 471.596 435.202 473.077ZM466.894 474.886V463.155H469.943V483H466.894V479.641H466.688C466.223 480.649 465.499 481.506 464.517 482.212C463.535 482.91 462.295 483.258 460.796 483.258C459.556 483.258 458.453 482.987 457.489 482.444C456.524 481.893 455.766 481.066 455.215 479.964C454.663 478.853 454.388 477.453 454.388 475.765V463.155H457.437V475.558C457.437 477.005 457.842 478.159 458.651 479.021C459.47 479.882 460.512 480.313 461.778 480.313C462.536 480.313 463.307 480.119 464.091 479.731C464.883 479.344 465.546 478.749 466.08 477.948C466.623 477.147 466.894 476.127 466.894 474.886ZM484.159 463.155V465.739H473.874V463.155H484.159ZM476.872 458.4H479.921V477.315C479.921 478.177 480.046 478.823 480.296 479.253C480.554 479.675 480.881 479.959 481.278 480.106C481.682 480.244 482.109 480.313 482.557 480.313C482.893 480.313 483.168 480.295 483.384 480.261C483.599 480.218 483.771 480.183 483.9 480.158L484.52 482.897C484.314 482.974 484.025 483.052 483.655 483.129C483.284 483.215 482.815 483.258 482.247 483.258C481.385 483.258 480.541 483.073 479.714 482.703C478.896 482.332 478.216 481.768 477.673 481.01C477.139 480.252 476.872 479.296 476.872 478.142V458.4ZM498.978 483V463.155H501.924V466.152H502.13C502.492 465.17 503.147 464.374 504.094 463.762C505.042 463.151 506.11 462.845 507.298 462.845C507.522 462.845 507.802 462.849 508.138 462.858C508.474 462.866 508.728 462.879 508.901 462.896V465.997C508.797 465.971 508.56 465.933 508.19 465.881C507.828 465.821 507.445 465.791 507.04 465.791C506.075 465.791 505.214 465.993 504.456 466.398C503.707 466.794 503.112 467.345 502.673 468.052C502.242 468.749 502.027 469.546 502.027 470.442V483H498.978ZM519.973 483.413C518.181 483.413 516.609 482.987 515.257 482.134C513.914 481.282 512.863 480.089 512.105 478.556C511.355 477.022 510.981 475.231 510.981 473.181C510.981 471.114 511.355 469.309 512.105 467.767C512.863 466.226 513.914 465.028 515.257 464.176C516.609 463.323 518.181 462.896 519.973 462.896C521.765 462.896 523.332 463.323 524.676 464.176C526.028 465.028 527.079 466.226 527.828 467.767C528.586 469.309 528.965 471.114 528.965 473.181C528.965 475.231 528.586 477.022 527.828 478.556C527.079 480.089 526.028 481.282 524.676 482.134C523.332 482.987 521.765 483.413 519.973 483.413ZM519.973 480.674C521.334 480.674 522.454 480.326 523.332 479.628C524.211 478.93 524.861 478.013 525.283 476.876C525.705 475.739 525.916 474.507 525.916 473.181C525.916 471.854 525.705 470.618 525.283 469.473C524.861 468.327 524.211 467.401 523.332 466.695C522.454 465.989 521.334 465.636 519.973 465.636C518.612 465.636 517.492 465.989 516.614 466.695C515.735 467.401 515.085 468.327 514.663 469.473C514.241 470.618 514.03 471.854 514.03 473.181C514.03 474.507 514.241 475.739 514.663 476.876C515.085 478.013 515.735 478.93 516.614 479.628C517.492 480.326 518.612 480.674 519.973 480.674ZM546.126 474.886V463.155H549.175V483H546.126V479.641H545.92C545.454 480.649 544.731 481.506 543.749 482.212C542.767 482.91 541.527 483.258 540.028 483.258C538.788 483.258 537.685 482.987 536.721 482.444C535.756 481.893 534.998 481.066 534.447 479.964C533.895 478.853 533.62 477.453 533.62 475.765V463.155H536.669V475.558C536.669 477.005 537.074 478.159 537.883 479.021C538.702 479.882 539.744 480.313 541.01 480.313C541.768 480.313 542.539 480.119 543.323 479.731C544.115 479.344 544.778 478.749 545.312 477.948C545.855 477.147 546.126 476.127 546.126 474.886ZM557.809 471.062V483H554.76V463.155H557.706V466.256H557.964C558.429 465.248 559.136 464.438 560.083 463.827C561.031 463.207 562.254 462.896 563.752 462.896C565.096 462.896 566.272 463.172 567.28 463.723C568.287 464.266 569.071 465.093 569.631 466.204C570.191 467.306 570.471 468.702 570.471 470.39V483H567.422V470.597C567.422 469.038 567.017 467.823 566.207 466.953C565.398 466.075 564.286 465.636 562.874 465.636C561.901 465.636 561.031 465.847 560.264 466.269C559.506 466.691 558.907 467.306 558.468 468.116C558.029 468.926 557.809 469.908 557.809 471.062ZM583.536 483.413C581.882 483.413 580.422 482.996 579.156 482.16C577.89 481.316 576.9 480.127 576.185 478.594C575.47 477.052 575.112 475.231 575.112 473.129C575.112 471.045 575.47 469.236 576.185 467.703C576.9 466.17 577.894 464.985 579.169 464.15C580.444 463.314 581.917 462.896 583.588 462.896C584.88 462.896 585.901 463.112 586.65 463.542C587.408 463.965 587.985 464.447 588.381 464.99C588.786 465.524 589.1 465.963 589.324 466.307H589.583V456.54H592.632V483H589.686V479.951H589.324C589.1 480.313 588.782 480.769 588.368 481.32C587.955 481.863 587.365 482.35 586.598 482.78C585.832 483.202 584.811 483.413 583.536 483.413ZM583.95 480.674C585.173 480.674 586.206 480.356 587.05 479.718C587.895 479.072 588.536 478.181 588.976 477.044C589.415 475.898 589.634 474.576 589.634 473.077C589.634 471.596 589.419 470.3 588.988 469.189C588.558 468.069 587.92 467.199 587.076 466.579C586.232 465.95 585.19 465.636 583.95 465.636C582.658 465.636 581.581 465.967 580.72 466.63C579.867 467.285 579.225 468.176 578.795 469.305C578.372 470.425 578.161 471.682 578.161 473.077C578.161 474.49 578.377 475.773 578.807 476.928C579.247 478.073 579.893 478.986 580.745 479.667C581.607 480.338 582.675 480.674 583.95 480.674ZM606.96 483.413C605.048 483.413 603.399 482.991 602.012 482.147C600.634 481.295 599.57 480.106 598.821 478.581C598.08 477.048 597.709 475.265 597.709 473.232C597.709 471.2 598.08 469.408 598.821 467.858C599.57 466.299 600.612 465.084 601.947 464.214C603.291 463.336 604.859 462.896 606.65 462.896C607.684 462.896 608.704 463.069 609.712 463.413C610.72 463.758 611.637 464.318 612.464 465.093C613.291 465.859 613.95 466.876 614.441 468.142C614.932 469.408 615.177 470.967 615.177 472.819V474.111H599.88V471.475H612.076C612.076 470.356 611.853 469.356 611.405 468.478C610.965 467.599 610.337 466.906 609.518 466.398C608.709 465.89 607.753 465.636 606.65 465.636C605.436 465.636 604.385 465.937 603.498 466.54C602.619 467.134 601.943 467.909 601.469 468.866C600.995 469.822 600.759 470.847 600.759 471.94V473.698C600.759 475.196 601.017 476.467 601.534 477.509C602.059 478.543 602.787 479.331 603.717 479.873C604.647 480.407 605.728 480.674 606.96 480.674C607.761 480.674 608.485 480.562 609.131 480.338C609.785 480.106 610.35 479.761 610.823 479.305C611.297 478.84 611.663 478.263 611.921 477.574L614.867 478.4C614.557 479.4 614.036 480.278 613.304 481.036C612.572 481.786 611.667 482.371 610.591 482.793C609.514 483.207 608.304 483.413 606.96 483.413ZM627.309 483.413C625.655 483.413 624.195 482.996 622.929 482.16C621.663 481.316 620.673 480.127 619.958 478.594C619.243 477.052 618.885 475.231 618.885 473.129C618.885 471.045 619.243 469.236 619.958 467.703C620.673 466.17 621.667 464.985 622.942 464.15C624.217 463.314 625.69 462.896 627.361 462.896C628.653 462.896 629.674 463.112 630.423 463.542C631.181 463.965 631.758 464.447 632.154 464.99C632.559 465.524 632.873 465.963 633.097 466.307H633.356V456.54H636.405V483H633.459V479.951H633.097C632.873 480.313 632.555 480.769 632.141 481.32C631.728 481.863 631.138 482.35 630.371 482.78C629.605 483.202 628.584 483.413 627.309 483.413ZM627.723 480.674C628.946 480.674 629.979 480.356 630.823 479.718C631.668 479.072 632.309 478.181 632.748 477.044C633.188 475.898 633.407 474.576 633.407 473.077C633.407 471.596 633.192 470.3 632.761 469.189C632.331 468.069 631.693 467.199 630.849 466.579C630.005 465.95 628.963 465.636 627.723 465.636C626.431 465.636 625.354 465.967 624.493 466.63C623.64 467.285 622.998 468.176 622.568 469.305C622.145 470.425 621.934 471.682 621.934 473.077C621.934 474.49 622.15 475.773 622.58 476.928C623.02 478.073 623.666 478.986 624.518 479.667C625.38 480.338 626.448 480.674 627.723 480.674Z" fill="#FF0000"/>
<path d="M962.75 428.476L944 396" stroke="#04E3E3" stroke-width="3.03189"/>
<path d="M963.064 423C959.715 423 957 425.715 957 429.064C957 432.413 959.715 435.128 963.064 435.128C966.413 435.128 969.128 432.413 969.128 429.064C969.128 425.715 966.413 423 963.064 423Z" fill="#04E3E3"/>
<path d="M944 396V414.191L959.754 405.096L944 396Z" fill="#04E3E3"/>
<path d="M978.204 447V420.54H987.145C989.212 420.54 990.909 420.893 992.235 421.599C993.562 422.297 994.544 423.257 995.181 424.48C995.818 425.704 996.137 427.095 996.137 428.654C996.137 430.213 995.818 431.595 995.181 432.801C994.544 434.007 993.566 434.954 992.248 435.643C990.93 436.324 989.246 436.664 987.196 436.664H979.961V433.77H987.093C988.506 433.77 989.643 433.563 990.504 433.15C991.374 432.736 992.003 432.151 992.39 431.393C992.787 430.626 992.985 429.713 992.985 428.654C992.985 427.594 992.787 426.668 992.39 425.876C991.994 425.083 991.361 424.472 990.491 424.041C989.621 423.602 988.471 423.382 987.041 423.382H981.408V447H978.204ZM990.659 435.114L997.171 447H993.45L987.041 435.114H990.659ZM1009.95 447.362C1008.25 447.362 1006.73 447.069 1005.39 446.483C1004.06 445.897 1003.01 445.084 1002.23 444.041C1001.45 442.99 1001.03 441.772 1000.96 440.385H1004.22C1004.28 441.238 1004.58 441.974 1005.09 442.594C1005.61 443.206 1006.29 443.68 1007.12 444.015C1007.96 444.351 1008.88 444.519 1009.9 444.519C1011.04 444.519 1012.04 444.321 1012.92 443.925C1013.8 443.529 1014.49 442.978 1014.99 442.271C1015.49 441.565 1015.74 440.747 1015.74 439.816C1015.74 438.843 1015.5 437.986 1015.02 437.245C1014.53 436.496 1013.83 435.91 1012.9 435.488C1011.97 435.066 1010.83 434.855 1009.49 434.855H1007.37V432.013H1009.49C1010.54 432.013 1011.46 431.823 1012.25 431.444C1013.05 431.065 1013.68 430.531 1014.12 429.842C1014.58 429.153 1014.81 428.344 1014.81 427.413C1014.81 426.517 1014.61 425.738 1014.22 425.075C1013.82 424.412 1013.26 423.895 1012.54 423.524C1011.82 423.154 1010.98 422.969 1010 422.969C1009.09 422.969 1008.23 423.137 1007.42 423.473C1006.62 423.8 1005.96 424.278 1005.46 424.907C1004.95 425.527 1004.67 426.276 1004.63 427.155H1001.53C1001.58 425.768 1002 424.554 1002.78 423.511C1003.57 422.461 1004.59 421.642 1005.86 421.057C1007.13 420.471 1008.53 420.178 1010.06 420.178C1011.69 420.178 1013.1 420.51 1014.27 421.173C1015.44 421.828 1016.34 422.693 1016.97 423.77C1017.6 424.846 1017.91 426.009 1017.91 427.258C1017.91 428.748 1017.52 430.019 1016.73 431.07C1015.96 432.12 1014.9 432.848 1013.57 433.253V433.46C1015.24 433.735 1016.55 434.446 1017.48 435.592C1018.42 436.729 1018.89 438.137 1018.89 439.816C1018.89 441.255 1018.5 442.547 1017.72 443.692C1016.94 444.829 1015.88 445.725 1014.54 446.38C1013.19 447.034 1011.67 447.362 1009.95 447.362ZM1038.29 431.599L1035.55 432.375C1035.37 431.918 1035.12 431.474 1034.78 431.044C1034.46 430.605 1034.01 430.243 1033.44 429.959C1032.87 429.674 1032.14 429.532 1031.26 429.532C1030.04 429.532 1029.03 429.812 1028.22 430.372C1027.42 430.923 1027.02 431.625 1027.02 432.478C1027.02 433.236 1027.29 433.835 1027.85 434.274C1028.4 434.713 1029.26 435.079 1030.43 435.372L1033.38 436.096C1035.15 436.526 1036.47 437.185 1037.34 438.072C1038.21 438.951 1038.65 440.083 1038.65 441.47C1038.65 442.607 1038.32 443.624 1037.67 444.519C1037.02 445.415 1036.11 446.121 1034.95 446.638C1033.79 447.155 1032.44 447.413 1030.9 447.413C1028.87 447.413 1027.2 446.974 1025.87 446.096C1024.54 445.217 1023.7 443.934 1023.35 442.245L1026.24 441.522C1026.52 442.59 1027.04 443.391 1027.81 443.925C1028.58 444.459 1029.59 444.726 1030.84 444.726C1032.26 444.726 1033.39 444.425 1034.23 443.822C1035.07 443.21 1035.49 442.478 1035.49 441.625C1035.49 440.936 1035.25 440.359 1034.77 439.894C1034.29 439.42 1033.55 439.067 1032.55 438.835L1029.24 438.059C1027.42 437.629 1026.09 436.961 1025.24 436.057C1024.39 435.144 1023.97 434.002 1023.97 432.633C1023.97 431.513 1024.28 430.523 1024.91 429.661C1025.55 428.8 1026.42 428.124 1027.51 427.633C1028.61 427.142 1029.86 426.896 1031.26 426.896C1033.22 426.896 1034.76 427.327 1035.88 428.188C1037.01 429.05 1037.81 430.187 1038.29 431.599ZM1047.73 447L1041.69 427.155H1044.89L1049.18 442.349H1049.39L1053.62 427.155H1056.88L1061.07 442.297H1061.27L1065.56 427.155H1068.77L1062.72 447H1059.72L1055.38 431.754H1055.07L1050.73 447H1047.73Z" fill="#04E3E3"/>
<path d="M904.5 352.5L923.25 384.976" stroke="#04E3E3" stroke-width="3.03189"/>
<path d="M904.5 358.564C907.849 358.564 910.564 355.849 910.564 352.5C910.564 349.151 907.849 346.436 904.5 346.436C901.151 346.436 898.436 349.151 898.436 352.5C898.436 355.849 901.151 358.564 904.5 358.564Z" fill="#04E3E3"/>
<path d="M923.25 384.976V366.785L907.496 375.88L923.25 384.976Z" fill="#04E3E3"/>
<path d="M801.204 329V302.54H810.145C812.212 302.54 813.909 302.893 815.235 303.599C816.562 304.297 817.544 305.257 818.181 306.48C818.818 307.704 819.137 309.095 819.137 310.654C819.137 312.213 818.818 313.595 818.181 314.801C817.544 316.007 816.566 316.954 815.248 317.643C813.93 318.324 812.246 318.664 810.196 318.664H802.961V315.77H810.093C811.506 315.77 812.643 315.563 813.504 315.15C814.374 314.736 815.003 314.151 815.39 313.393C815.787 312.626 815.985 311.713 815.985 310.654C815.985 309.594 815.787 308.668 815.39 307.876C814.994 307.083 814.361 306.472 813.491 306.041C812.621 305.602 811.471 305.382 810.041 305.382H804.408V329H801.204ZM813.659 317.114L820.171 329H816.45L810.041 317.114H813.659ZM833.314 302.54V329H830.109V305.899H829.954L823.494 310.188V306.933L830.109 302.54H833.314ZM841.634 329.207C840.997 329.207 840.45 328.978 839.993 328.522C839.537 328.065 839.308 327.519 839.308 326.881C839.308 326.244 839.537 325.697 839.993 325.24C840.45 324.784 840.997 324.556 841.634 324.556C842.271 324.556 842.818 324.784 843.275 325.24C843.731 325.697 843.96 326.244 843.96 326.881C843.96 327.303 843.852 327.691 843.637 328.044C843.43 328.397 843.15 328.681 842.797 328.897C842.452 329.103 842.065 329.207 841.634 329.207ZM857.115 329.362C855.6 329.362 854.234 329.06 853.02 328.457C851.805 327.854 850.832 327.028 850.1 325.977C849.368 324.926 848.967 323.729 848.898 322.385H851.999C852.12 323.582 852.662 324.573 853.627 325.357C854.6 326.132 855.763 326.519 857.115 326.519C858.201 326.519 859.165 326.265 860.01 325.757C860.862 325.249 861.53 324.551 862.012 323.664C862.503 322.768 862.749 321.756 862.749 320.628C862.749 319.474 862.494 318.444 861.986 317.54C861.487 316.627 860.798 315.908 859.919 315.382C859.041 314.857 858.037 314.59 856.909 314.581C856.099 314.573 855.268 314.698 854.415 314.956C853.562 315.206 852.86 315.529 852.309 315.925L849.312 315.563L850.914 302.54H864.661V305.382H853.601L852.671 313.186H852.826C853.369 312.755 854.049 312.398 854.867 312.114C855.686 311.829 856.538 311.687 857.426 311.687C859.045 311.687 860.488 312.075 861.754 312.85C863.029 313.617 864.028 314.667 864.751 316.002C865.483 317.338 865.849 318.862 865.849 320.576C865.849 322.264 865.47 323.772 864.712 325.098C863.963 326.416 862.929 327.458 861.612 328.225C860.294 328.983 858.795 329.362 857.115 329.362ZM885.091 313.599L882.351 314.375C882.179 313.918 881.925 313.474 881.589 313.044C881.262 312.605 880.814 312.243 880.245 311.959C879.677 311.674 878.949 311.532 878.062 311.532C876.848 311.532 875.835 311.812 875.026 312.372C874.225 312.923 873.824 313.625 873.824 314.478C873.824 315.236 874.1 315.835 874.651 316.274C875.202 316.713 876.064 317.079 877.235 317.372L880.181 318.096C881.955 318.526 883.277 319.185 884.147 320.072C885.017 320.951 885.452 322.083 885.452 323.47C885.452 324.607 885.125 325.624 884.47 326.519C883.824 327.415 882.92 328.121 881.757 328.638C880.594 329.155 879.242 329.413 877.7 329.413C875.676 329.413 874.001 328.974 872.674 328.096C871.348 327.217 870.508 325.934 870.155 324.245L873.049 323.522C873.325 324.59 873.846 325.391 874.612 325.925C875.388 326.459 876.4 326.726 877.649 326.726C879.07 326.726 880.198 326.425 881.034 325.822C881.878 325.21 882.3 324.478 882.3 323.625C882.3 322.936 882.059 322.359 881.576 321.894C881.094 321.42 880.353 321.067 879.354 320.835L876.046 320.059C874.229 319.629 872.894 318.961 872.041 318.057C871.197 317.144 870.775 316.002 870.775 314.633C870.775 313.513 871.09 312.523 871.718 311.661C872.356 310.8 873.221 310.124 874.315 309.633C875.418 309.142 876.667 308.896 878.062 308.896C880.026 308.896 881.568 309.327 882.687 310.188C883.816 311.05 884.617 312.187 885.091 313.599ZM894.538 329L888.492 309.155H891.696L895.985 324.349H896.192L900.43 309.155H903.686L907.872 324.297H908.078L912.368 309.155H915.572L909.525 329H906.528L902.187 313.754H901.877L897.536 329H894.538Z" fill="#04E3E3"/>
<path d="M161.283 240.27L198.783 240.27" stroke="#04E3E3" stroke-width="3.03189"/>
<path d="M166.535 243.302C168.209 240.402 167.215 236.693 164.315 235.018C161.415 233.344 157.706 234.338 156.032 237.238C154.357 240.138 155.351 243.847 158.251 245.521C161.152 247.196 164.86 246.202 166.535 243.302Z" fill="#04E3E3"/>
<path d="M198.783 240.27L183.029 231.174L183.029 249.366L198.783 240.27Z" fill="#04E3E3"/>
<path d="M33.2042 249V222.54H42.1448C44.212 222.54 45.9088 222.893 47.2353 223.599C48.5617 224.297 49.5437 225.257 50.181 226.48C50.8184 227.704 51.1371 229.095 51.1371 230.654C51.1371 232.213 50.8184 233.595 50.181 234.801C49.5437 236.007 48.566 236.954 47.2482 237.643C45.9304 238.324 44.2465 238.664 42.1965 238.664H34.9613V235.77H42.0931C43.5057 235.77 44.6427 235.563 45.504 235.15C46.374 234.736 47.0027 234.151 47.3903 233.393C47.7865 232.626 47.9846 231.713 47.9846 230.654C47.9846 229.594 47.7865 228.668 47.3903 227.876C46.9941 227.083 46.361 226.472 45.4911 226.041C44.6211 225.602 43.4713 225.382 42.0414 225.382H36.4083V249H33.2042ZM45.659 237.114L52.1707 249H48.4498L42.0414 237.114H45.659ZM65.3136 222.54V249H62.1094V225.899H61.9544L55.4944 230.188V226.933L62.1094 222.54H65.3136ZM73.6341 249.207C72.9967 249.207 72.4498 248.978 71.9932 248.522C71.5367 248.065 71.3085 247.519 71.3085 246.881C71.3085 246.244 71.5367 245.697 71.9932 245.24C72.4498 244.784 72.9967 244.556 73.6341 244.556C74.2715 244.556 74.8184 244.784 75.2749 245.24C75.7314 245.697 75.9597 246.244 75.9597 246.881C75.9597 247.303 75.852 247.691 75.6367 248.044C75.43 248.397 75.15 248.681 74.7969 248.897C74.4524 249.103 74.0648 249.207 73.6341 249.207ZM89.1155 249.362C87.5995 249.362 86.2343 249.06 85.0198 248.457C83.8054 247.854 82.8321 247.028 82.0999 245.977C81.3678 244.926 80.9673 243.729 80.8984 242.385H83.9992C84.1197 243.582 84.6624 244.573 85.6271 245.357C86.6004 246.132 87.7632 246.519 89.1155 246.519C90.2008 246.519 91.1655 246.265 92.0096 245.757C92.8623 245.249 93.5298 244.551 94.0122 243.664C94.5031 242.768 94.7486 241.756 94.7486 240.628C94.7486 239.474 94.4945 238.444 93.9863 237.54C93.4868 236.627 92.7977 235.908 91.9191 235.382C91.0406 234.857 90.0371 234.59 88.9088 234.581C88.0991 234.573 87.2679 234.698 86.4152 234.956C85.5625 235.206 84.8605 235.529 84.3092 235.925L81.3118 235.563L82.9139 222.54H96.6608V225.382H85.6012L84.671 233.186H84.826C85.3687 232.755 86.0491 232.398 86.8674 232.114C87.6857 231.829 88.5384 231.687 89.4256 231.687C91.0449 231.687 92.4876 232.075 93.7538 232.85C95.0285 233.617 96.0277 234.667 96.7512 236.002C97.4833 237.338 97.8494 238.862 97.8494 240.576C97.8494 242.264 97.4704 243.772 96.7124 245.098C95.9631 246.416 94.9295 247.458 93.6116 248.225C92.2938 248.983 90.7951 249.362 89.1155 249.362ZM117.091 233.599L114.351 234.375C114.179 233.918 113.925 233.474 113.589 233.044C113.262 232.605 112.814 232.243 112.246 231.959C111.677 231.674 110.949 231.532 110.062 231.532C108.848 231.532 107.836 231.812 107.026 232.372C106.225 232.923 105.824 233.625 105.824 234.478C105.824 235.236 106.1 235.835 106.651 236.274C107.202 236.713 108.064 237.079 109.235 237.372L112.181 238.096C113.955 238.526 115.277 239.185 116.147 240.072C117.017 240.951 117.452 242.083 117.452 243.47C117.452 244.607 117.125 245.624 116.47 246.519C115.824 247.415 114.92 248.121 113.757 248.638C112.594 249.155 111.242 249.413 109.7 249.413C107.676 249.413 106.001 248.974 104.674 248.096C103.348 247.217 102.508 245.934 102.155 244.245L105.049 243.522C105.325 244.59 105.846 245.391 106.612 245.925C107.388 246.459 108.4 246.726 109.649 246.726C111.07 246.726 112.198 246.425 113.034 245.822C113.878 245.21 114.3 244.478 114.3 243.625C114.3 242.936 114.059 242.359 113.576 241.894C113.094 241.42 112.353 241.067 111.354 240.835L108.047 240.059C106.229 239.629 104.894 238.961 104.041 238.057C103.197 237.144 102.775 236.002 102.775 234.633C102.775 233.513 103.09 232.523 103.718 231.661C104.356 230.8 105.221 230.124 106.315 229.633C107.418 229.142 108.667 228.896 110.062 228.896C112.026 228.896 113.568 229.327 114.687 230.188C115.816 231.05 116.617 232.187 117.091 233.599ZM126.538 249L120.492 229.155H123.696L127.985 244.349H128.192L132.43 229.155H135.686L139.872 244.297H140.078L144.368 229.155H147.572L141.525 249H138.528L134.187 233.754H133.877L129.536 249H126.538Z" fill="#04E3E3"/>
</svg>
