<svg width="1014" height="1015" viewBox="0 0 1014 1015" fill="none" xmlns="http://www.w3.org/2000/svg">
<path d="M126.981 96.25C126.981 85.8947 135.376 77.5 145.731 77.5H816.769C827.124 77.5 835.519 85.8947 835.519 96.25V363.75C835.519 374.105 827.124 382.5 816.769 382.5H145.731C135.376 382.5 126.981 374.105 126.981 363.75V96.25Z" fill="white"/>
<path d="M133.231 96.25C133.231 89.3465 138.827 83.75 145.731 83.75H816.769C823.672 83.75 829.269 89.3465 829.269 96.25V363.75C829.269 370.654 823.672 376.25 816.769 376.25H145.731C138.827 376.25 133.231 370.654 133.231 363.75V96.25Z" fill="#006928"/>
<path d="M208.143 286.665V277.555H261.133V286.665H208.143ZM201.283 304.775V295.885H268.553V304.775H201.283ZM185.863 323.675V314.455H283.743V323.675H185.863ZM199.703 261.575V253.025H238.853V261.575H199.703ZM229.743 258.765V253.025H241.333C243.733 256.099 246.64 259.079 250.053 261.965C253.467 264.859 257.233 267.542 261.353 270.015C265.48 272.489 269.793 274.702 274.293 276.655C278.793 278.602 283.33 280.252 287.903 281.605C287.083 282.205 286.147 282.992 285.093 283.965C284.047 284.939 283.033 285.952 282.053 287.005C281.08 288.052 280.293 289.025 279.693 289.925C273.693 287.752 267.77 285.052 261.923 281.825C256.07 278.599 250.65 275.019 245.663 271.085C240.677 267.145 236.383 263.039 232.783 258.765H229.743ZM227.273 254.155L236.943 257.865C233.27 262.812 228.807 267.385 223.553 271.585C218.307 275.785 212.7 279.499 206.733 282.725C200.773 285.952 194.757 288.765 188.683 291.165C188.157 290.412 187.443 289.512 186.543 288.465C185.643 287.412 184.707 286.379 183.733 285.365C182.76 284.359 181.897 283.555 181.143 282.955C187.297 281.075 193.297 278.712 199.143 275.865C204.997 273.012 210.34 269.749 215.173 266.075C220.013 262.402 224.047 258.429 227.273 254.155ZM229.073 320.865V281.715H239.983V320.865H229.073ZM185.083 241.435V231.655H284.533V241.435H185.083ZM209.043 250.775V223.105H219.623V250.775H209.043ZM249.323 251.335V223.105H259.893V251.335" fill="white"/>
<path d="M371.408 230.868V225.358H391.088V230.868H371.408ZM370.728 249.208V243.808H391.878V249.208H370.728ZM370.728 257.638V252.358H391.878V257.638H370.728ZM354.308 310.968V304.108H411.338V310.968H354.308ZM367.468 240.318V234.358H394.468V240.318H367.468ZM385.128 266.528H377.138V272.938H385.128V266.528ZM370.498 278.118V261.358H391.988V278.118H370.498ZM356.218 299.378V292.968H402.898V288.128H349.238V281.718H412.808V299.378H356.218ZM352.388 279.688V254.158H359.478V279.688H352.388ZM342.158 258.088L341.368 251.228C344.668 251.081 348.362 250.931 352.448 250.778C356.535 250.631 360.865 250.444 365.438 250.218V256.408C361.238 256.781 357.172 257.081 353.238 257.308C349.298 257.528 345.605 257.788 342.158 258.088ZM353.178 292.968H363.078C362.178 296.568 361.205 300.318 360.158 304.218C359.105 308.118 358.128 311.491 357.228 314.338L347.668 312.988C348.715 310.214 349.728 307.008 350.708 303.368C351.682 299.734 352.505 296.268 353.178 292.968ZM407.968 305.228V304.108H417.978C417.978 304.108 417.942 304.611 417.868 305.618C417.795 306.631 417.645 307.478 417.418 308.158C416.365 312.804 415.275 316.458 414.148 319.118C413.028 321.784 411.718 323.718 410.218 324.918C408.945 325.818 407.575 326.434 406.108 326.768C404.648 327.108 402.905 327.314 400.878 327.388C399.152 327.468 396.695 327.488 393.508 327.448C390.322 327.408 386.928 327.314 383.328 327.168C383.255 325.968 382.955 324.618 382.428 323.118C381.902 321.618 381.265 320.268 380.518 319.068C384.045 319.441 387.458 319.664 390.758 319.738C394.058 319.818 396.382 319.858 397.728 319.858C398.928 319.858 399.902 319.818 400.648 319.738C401.402 319.664 402.042 319.441 402.568 319.068C403.615 318.241 404.572 316.758 405.438 314.618C406.298 312.484 407.142 309.354 407.968 305.228ZM360.828 262.138L366.228 260.908C366.828 262.781 367.408 264.841 367.968 267.088C368.535 269.341 368.968 271.291 369.268 272.938L363.418 274.518C363.265 272.791 362.945 270.784 362.458 268.498C361.972 266.211 361.428 264.091 360.828 262.138ZM360.488 246.838L365.328 245.038C366.302 246.918 367.202 249.018 368.028 251.338C368.855 253.664 369.418 255.691 369.718 257.418L364.428 259.438C364.202 257.718 363.715 255.694 362.968 253.368C362.215 251.041 361.388 248.864 360.488 246.838ZM342.488 237.958L346.088 232.558C348.268 233.978 350.405 235.608 352.498 237.448C354.605 239.288 356.182 240.881 357.228 242.228L353.178 248.418C352.052 246.844 350.478 245.081 348.458 243.128C346.432 241.181 344.442 239.458 342.488 237.958ZM353.178 222.768L359.588 225.918C358.088 228.391 356.588 230.904 355.088 233.458C353.588 236.004 352.165 238.141 350.818 239.868L345.868 237.278C347.068 235.331 348.382 232.951 349.808 230.138C351.228 227.324 352.352 224.868 353.178 222.768ZM360.378 232.108L366.678 235.708C364.205 239.081 361.562 242.641 358.748 246.388C355.935 250.141 353.292 253.291 350.818 255.838L346.088 252.918C347.668 251.044 349.358 248.908 351.158 246.508C352.958 244.108 354.662 241.631 356.268 239.078C357.882 236.531 359.252 234.208 360.378 232.108ZM344.968 260.458L351.608 261.918C350.928 264.844 350.102 267.768 349.128 270.688C348.155 273.614 347.105 276.128 345.978 278.228C345.305 277.781 344.328 277.274 343.048 276.708C341.775 276.148 340.728 275.681 339.908 275.308C341.182 273.208 342.228 270.861 343.048 268.268C343.875 265.681 344.515 263.078 344.968 260.458ZM404.368 279.688V254.158H411.568V279.688H404.368ZM394.018 258.088L393.338 251.228C396.792 251.081 400.675 250.931 404.988 250.778C409.302 250.631 413.895 250.481 418.768 250.328L418.648 256.518C414.228 256.818 409.935 257.098 405.768 257.358C401.608 257.624 397.692 257.868 394.018 258.088ZM413.138 262.138L418.878 260.458C419.852 262.704 420.808 265.178 421.748 267.878C422.682 270.578 423.338 272.904 423.718 274.858L417.758 276.768C417.458 274.814 416.858 272.451 415.958 269.678C415.058 266.904 414.118 264.391 413.138 262.138ZM412.238 246.618L417.528 244.258C418.802 246.204 419.982 248.358 421.068 250.718C422.162 253.084 422.932 255.168 423.378 256.968L417.638 259.558C417.265 257.758 416.572 255.638 415.558 253.198C414.545 250.758 413.438 248.564 412.238 246.618ZM393.568 237.728L397.388 232.668C399.342 234.014 401.292 235.571 403.238 237.338C405.192 239.098 406.692 240.691 407.738 242.118L403.358 247.968C402.378 246.468 400.972 244.741 399.138 242.788C397.298 240.841 395.442 239.154 393.568 237.728ZM404.588 222.878L411.008 226.138C409.428 228.618 407.852 231.111 406.278 233.618C404.705 236.131 403.205 238.288 401.778 240.088L396.828 237.508C398.102 235.554 399.488 233.171 400.988 230.358C402.488 227.544 403.688 225.051 404.588 222.878ZM412.578 231.658L418.878 235.258C416.332 238.631 413.558 242.191 410.558 245.938C407.558 249.691 404.708 252.841 402.008 255.388L397.388 252.468C399.115 250.594 400.915 248.458 402.788 246.058C404.668 243.658 406.468 241.181 408.188 238.628C409.915 236.081 411.378 233.758 412.578 231.658ZM396.828 260.458L403.358 262.028C402.832 264.801 402.082 267.631 401.108 270.518C400.128 273.411 399.078 275.868 397.958 277.888C397.358 277.514 396.458 277.008 395.258 276.368C394.058 275.734 393.008 275.231 392.108 274.858C393.302 272.758 394.275 270.468 395.028 267.988C395.775 265.514 396.375 263.004 396.828 260.458ZM320.328 231.538L326.518 224.568C328.392 225.541 330.358 226.721 332.418 228.108C334.485 229.494 336.418 230.881 338.218 232.268C340.018 233.661 341.482 234.994 342.608 236.268L336.188 244.138C335.142 242.864 333.735 241.478 331.968 239.978C330.208 238.478 328.315 236.998 326.288 235.538C324.268 234.071 322.282 232.738 320.328 231.538ZM317.968 261.578L323.818 254.268C325.765 255.168 327.808 256.274 329.948 257.588C332.088 258.901 334.075 260.211 335.908 261.518C337.748 262.831 339.268 264.088 340.468 265.288L334.278 273.388C333.152 272.188 331.672 270.878 329.838 269.458C327.998 268.031 326.028 266.624 323.928 265.238C321.828 263.851 319.842 262.631 317.968 261.578ZM329.778 326.158L320.218 320.758C321.645 317.758 323.162 314.268 324.768 310.288C326.382 306.314 328.032 302.114 329.718 297.688C331.412 293.268 332.968 288.918 334.388 284.638L342.828 290.038C341.628 294.018 340.278 298.108 338.778 302.308C337.278 306.508 335.778 310.631 334.278 314.678C332.778 318.731 331.278 322.558 329.778 326.158Z" fill="white"/>
<path d="M300.481 216H164.981V356.5H300.481V216Z" stroke="white" stroke-width="2" stroke-dasharray="5 5"/>
<path d="M437.981 216H302.481V356.5H437.981V216Z" stroke="white" stroke-width="2" stroke-dasharray="5 5"/>
<path d="M741.23 244.5H797.48V282C798.59 317.083 775.22 348.243 741.23 357C707.24 348.243 683.87 317.083 684.98 282V244.5H741.23Z" fill="#E9B500"/>
<path d="M737.32 260.904C751.977 260.629 761.035 266.871 764.492 279.631L765.043 279.998L765.227 280.916L765.41 281.65L765.594 282.385L765.777 282.752L766.145 284.404V285.322C766.267 285.506 766.328 285.689 766.328 285.873L766.695 287.892L767.063 291.014L767.43 293.951C768.47 316.839 761.004 329.813 745.031 332.873C729.365 335.076 719.757 330.18 716.207 318.185L720.063 316.9C720.185 316.747 720.307 316.686 720.43 316.717L722.082 315.982C722.847 315.768 723.459 315.523 723.918 315.248L724.469 315.064H725.02C725.142 314.911 725.264 314.85 725.387 314.881L725.938 314.697L728.875 313.412H729.609C731.598 318.92 735.576 321.184 741.543 320.205C747.877 318.767 751.61 314.789 752.742 308.271L752.926 305.334C744.725 310.597 736.464 311.76 728.141 308.822C719.848 305.212 715.442 299.214 714.922 290.83C713.178 272.318 720.644 262.342 737.32 260.904ZM738.789 274.123C733.985 275.316 730.864 278.07 729.426 282.385C728.171 291.228 731.537 296.368 739.524 297.807C747.908 296.95 751.947 292.482 751.641 284.404C750.019 277.366 745.735 273.939 738.789 274.123Z" fill="black"/>
<path d="M165.5 133.05V122.03H216.17V133.05H196.89V192.35H184.78V133.05" fill="white"/>
<path d="M258.889 148.277L258.339 149.017L257.789 149.567L257.239 149.937L256.499 151.037L256.139 151.407L255.769 151.587C255.369 152.14 255.003 152.567 254.669 152.867L252.279 155.627C247.199 152.354 242.993 150.717 239.659 150.717C236.233 150.717 233.709 152.414 232.089 155.807C232.149 157.8 232.943 159.27 234.469 160.217C235.143 160.397 235.633 160.58 235.939 160.767C237.133 160.947 238.113 161.19 238.879 161.497C250.473 162.357 256.959 167.01 258.339 175.457C258.399 175.824 258.429 176.18 258.429 176.527C258.429 176.88 258.429 177.227 258.429 177.567C258.429 183.714 255.829 188.334 250.629 191.427C246.896 193.107 243.146 193.947 239.379 193.947C232.219 193.947 225.076 190.904 217.949 184.817L218.319 184.087L219.229 183.167C219.843 182.434 220.396 181.88 220.889 181.507C221.009 181.294 221.129 181.174 221.249 181.147L221.619 180.597C221.739 180.384 221.863 180.26 221.989 180.227L222.169 179.857L222.539 179.677L224.929 176.917C229.456 181.204 234.196 183.347 239.149 183.347C241.229 183.347 243.343 182.98 245.489 182.247C246.036 181.514 246.586 180.964 247.139 180.597C247.326 179.864 247.419 179.174 247.419 178.527C247.419 176.934 246.899 175.604 245.859 174.537L241.629 173.067C229.023 172.3 222.169 166.914 221.069 156.907C221.896 146.84 227.586 141.457 238.139 140.757H238.789C246.896 140.757 253.596 143.264 258.889 148.277Z" fill="white"/>
<path d="M271.268 178.026V142.226H282.288V173.986C282.408 174.139 282.468 174.322 282.468 174.536C282.594 174.629 282.658 174.719 282.658 174.806V174.906C282.871 176.279 283.174 177.502 283.568 178.576C285.681 181.509 288.391 182.976 291.698 182.976H291.838C295.938 181.876 298.811 179.612 300.458 176.186V175.636L301.198 173.436V142.226H312.398V192.346H301.198V188.306C296.791 191.912 292.401 193.716 288.028 193.716C284.628 193.716 281.184 192.646 277.698 190.506C274.851 188.332 272.891 185.762 271.818 182.796L271.638 181.506C271.364 180.619 271.228 179.749 271.228 178.896V178.486C271.228 178.332 271.241 178.179 271.268 178.026Z" fill="white"/>
<path d="M370.817 162.794L370.997 165.544C371.117 165.698 371.177 165.881 371.177 166.094V171.604H337.587C338.287 177.844 341.467 181.518 347.127 182.624C348.047 182.711 348.951 182.754 349.837 182.754C354.457 182.754 358.391 181.241 361.637 178.214C362.031 178.888 362.521 179.438 363.107 179.864L363.287 180.414L363.837 180.964C364.264 181.364 364.631 181.741 364.937 182.094C365.244 182.448 365.491 182.808 365.677 183.174C365.891 183.294 366.011 183.414 366.037 183.534L368.607 186.474C362.794 191.341 356.597 193.774 350.017 193.774C348.891 193.774 347.744 193.698 346.577 193.544C345.417 193.391 344.254 193.178 343.087 192.904C332.501 189.384 326.687 181.794 325.647 170.134C325.647 169.981 325.641 169.674 325.627 169.214C325.614 168.761 325.607 168.471 325.607 168.344C325.607 152.404 332.781 143.331 347.127 141.124C361.387 141.618 369.284 148.841 370.817 162.794ZM337.397 162.974H359.617V162.424C359.491 162.058 359.427 161.691 359.427 161.324V160.954C359.121 160.281 358.937 159.671 358.877 159.124C356.617 153.891 352.884 151.258 347.677 151.224C341.131 152.784 337.704 156.701 337.397 162.974Z" fill="white"/>
<path d="M424.031 151.037V151.587C424.431 152.32 424.677 153.054 424.771 153.787V192.157H413.571V159.667L413.381 158.567C411.854 153.94 409.284 151.627 405.671 151.627C404.571 151.627 403.347 151.857 402.001 152.317C398.941 153.637 396.737 155.72 395.391 158.567L394.661 161.687V192.157H383.641V142.037H394.661V146.257C398.087 143.197 401.821 141.364 405.861 140.757H406.681C414.881 140.757 420.664 144.184 424.031 151.037Z" fill="white"/>
<path d="M463.172 122.584V122.214H475.842L476.022 123.504L476.212 124.054L476.572 125.344L476.942 127.544L477.492 129.374L477.862 131.584L478.412 133.414L478.592 134.884C478.806 135.404 478.929 135.834 478.962 136.174L479.142 136.904L479.512 138.004V138.744C479.632 138.837 479.692 138.927 479.692 139.014V139.664C480.032 140.337 480.219 141.071 480.252 141.864L480.612 142.964L480.982 144.254L481.352 146.454L481.902 148.284L482.082 149.394L483.182 153.984C483.276 154.411 483.362 154.801 483.442 155.154C483.516 155.501 483.552 155.844 483.552 156.184L483.922 156.914V157.654L484.282 158.574V159.304L484.652 160.034V160.774C484.992 161.694 485.176 162.491 485.202 163.164L485.392 163.894C485.606 164.507 485.772 165.074 485.892 165.594C486.012 166.114 486.089 166.587 486.122 167.014L486.492 168.484L486.862 169.764L487.222 168.664L487.962 164.994L488.322 164.074L488.512 162.974L489.062 160.404L489.432 159.124V158.574L490.162 155.634L490.342 154.534L490.712 153.794L490.892 153.064L491.082 152.144V151.414L491.262 150.854L492.002 147.924L492.362 145.714L492.552 144.984L492.912 144.254C492.979 143.274 493.162 142.414 493.462 141.674L493.652 140.764V140.214L494.022 138.744L494.202 138.194L494.752 135.804L494.932 134.704L495.302 133.604L495.482 132.684L496.032 130.294L496.222 129.374L496.402 129.014C496.436 128.674 496.476 128.344 496.522 128.024C496.569 127.704 496.652 127.421 496.772 127.174L496.952 126.624V126.074L497.142 125.344L497.322 124.784L497.872 122.214H511.462V122.764C511.889 123.837 512.132 124.881 512.192 125.894L512.562 127.354L512.742 127.914L513.482 131.214L513.842 132.684C514.089 133.571 514.212 134.304 514.212 134.884C514.426 135.404 514.549 135.834 514.582 136.174L514.942 137.454L515.132 138.744L515.312 139.474L515.502 140.024C515.589 140.424 515.666 140.784 515.732 141.104C515.792 141.424 515.836 141.737 515.862 142.044C516.109 142.624 516.279 143.161 516.372 143.654C516.466 144.141 516.542 144.584 516.602 144.984L516.782 146.084L517.152 147.004L517.332 148.104V148.654C517.639 149.387 517.822 150.061 517.882 150.674L518.072 151.774C518.372 152.507 518.556 153.181 518.622 153.794L518.802 154.714L519.352 156.734V157.464C519.472 157.744 519.532 158.051 519.532 158.384C519.872 159.091 520.059 159.704 520.092 160.224L520.272 161.144L520.452 162.244L520.642 162.974C520.949 163.921 521.132 164.777 521.192 165.544C521.312 165.637 521.372 165.731 521.372 165.824V166.464C521.799 167.537 522.046 168.577 522.112 169.584C522.292 169.524 522.412 169.401 522.472 169.214C522.626 168.454 522.779 167.791 522.932 167.224C523.086 166.657 523.239 166.161 523.392 165.734V164.994C523.792 163.894 524.036 162.914 524.122 162.054L524.492 160.774L525.232 157.834L525.412 156.364L525.782 155.084L525.962 154.534V153.984C526.176 153.397 526.346 152.867 526.472 152.394C526.592 151.921 526.666 151.471 526.692 151.044L527.062 149.754L528.532 143.694L529.082 140.764L529.452 139.294C529.786 138.407 529.969 137.674 530.002 137.094L530.182 136.174L530.552 134.704C530.826 133.817 531.009 133.084 531.102 132.504L531.282 131.764L531.842 129.194L532.202 128.094V127.544L532.752 126.074V125.344L532.942 124.784L533.492 122.214H545.972L545.242 125.894L544.692 128.094L544.502 128.644L543.952 131.214L543.592 132.684L543.222 133.964L542.482 137.644L542.122 138.924L541.382 142.414L541.022 143.694L540.832 144.254L540.462 146.264L540.282 146.634L540.102 147.924C539.796 148.931 539.612 149.787 539.552 150.494L538.812 152.694L538.632 153.984L538.442 154.714L538.262 155.264L538.082 156.554L537.892 157.104L536.792 161.694L536.612 162.974L536.242 164.264L535.322 167.934L535.142 169.214L534.042 173.804L533.492 176.374C533.152 177.294 532.969 178.091 532.942 178.764L532.202 181.154V181.884C531.869 182.804 531.686 183.601 531.652 184.274C531.346 185.281 531.162 186.137 531.102 186.844L530.732 188.124L530.552 188.494L530.372 189.784C530.066 190.791 529.882 191.647 529.822 192.354H516.232L516.052 190.884C515.839 190.364 515.716 189.934 515.682 189.594L515.312 188.124L515.132 186.844L514.762 185.554C514.669 185.187 514.592 184.837 514.532 184.504C514.472 184.164 514.426 183.841 514.392 183.534L514.212 182.804L514.032 181.884C513.906 181.731 513.842 181.547 513.842 181.334L513.662 180.414L513.482 179.864C513.389 179.471 513.312 179.111 513.252 178.784C513.186 178.464 513.139 178.151 513.112 177.844C512.899 177.264 512.739 176.731 512.632 176.244C512.526 175.751 512.439 175.307 512.372 174.914L512.192 174.174L512.012 173.254C511.886 172.887 511.799 172.537 511.752 172.204C511.712 171.864 511.676 171.541 511.642 171.234C511.429 170.627 511.262 170.047 511.142 169.494C511.016 168.941 510.939 168.421 510.912 167.934C510.786 167.781 510.722 167.597 510.722 167.384L510.542 166.644L510.362 166.094C510.269 165.454 510.146 164.844 509.992 164.264L509.622 162.604L509.442 161.504L509.072 160.594L508.702 158.384L508.522 157.834V157.284C508.216 156.551 508.032 155.877 507.972 155.264L507.602 153.064L507.232 152.144L506.872 150.674V149.944C506.506 148.931 506.322 148.074 506.322 147.374C506.196 147.221 506.132 147.037 506.132 146.824L505.952 146.264V145.714C505.646 145.014 505.462 144.281 505.402 143.514C505.096 142.534 504.912 141.617 504.852 140.764L504.482 141.494L504.302 142.594L503.752 144.984L503.382 147.004L503.192 147.554L502.462 150.674L502.282 151.414L501.912 153.244L501.732 153.984L501.362 156.004L501.182 156.554L500.442 160.034L500.072 161.324L499.892 162.604C499.559 163.524 499.376 164.321 499.342 164.994L499.162 165.364L498.972 166.464L498.792 167.014L497.872 171.604L497.692 172.154L496.952 175.644L496.772 176.374L496.592 177.294L496.402 177.844L495.672 181.334L495.302 182.804L494.932 184.644L494.752 185.004L494.382 186.664L494.202 187.394L494.022 188.674C493.802 189.441 493.679 190.054 493.652 190.514C493.526 190.821 493.442 191.111 493.402 191.384C493.356 191.664 493.316 191.924 493.282 192.164C492.856 192.231 492.466 192.284 492.112 192.324C491.759 192.371 491.416 192.394 491.082 192.394H490.622C490.469 192.394 490.316 192.381 490.162 192.354H479.512V191.614C479.086 190.514 478.842 189.474 478.782 188.494C478.656 188.341 478.592 188.157 478.592 187.944L478.412 187.024C477.739 184.851 477.309 183.014 477.122 181.514L476.942 180.964L476.022 177.484L475.842 176.014L474.372 170.324V169.584C474.066 168.884 473.882 168.151 473.822 167.384L473.452 166.284L473.092 164.994V164.444L472.172 160.774V160.224L471.982 159.484L471.622 158.754L471.432 157.284C471.192 156.551 470.996 155.877 470.842 155.264C470.689 154.651 470.582 154.101 470.522 153.614L470.332 153.064V152.514C470.212 152.361 470.152 152.177 470.152 151.964L469.782 150.494L469.602 149.944C469.476 149.297 469.359 148.714 469.252 148.194C469.146 147.674 469.016 147.217 468.862 146.824L468.682 145.534C468.469 144.921 468.299 144.354 468.172 143.834C468.052 143.314 467.976 142.841 467.942 142.414L467.762 141.494C467.642 141.341 467.582 141.157 467.582 140.944L466.662 137.274L466.292 135.984L466.112 135.074L465.932 134.334L465.742 133.054C465.496 132.407 465.372 131.854 465.372 131.394V131.214L465.012 130.294L464.822 129.564C464.702 128.677 464.519 127.941 464.272 127.354V126.624C464.152 126.471 464.092 126.287 464.092 126.074" fill="white"/>
<path d="M589.547 146.635L590.107 147.735C591.54 149.515 592.457 151.351 592.857 153.245C592.977 154.038 593.067 154.781 593.127 155.475C593.193 156.161 593.227 156.765 593.227 157.285V181.515C594.353 183.755 596.003 185.101 598.177 185.555L597.817 186.105C597.69 186.325 597.567 186.448 597.447 186.475L597.267 187.025L596.897 187.395C596.59 188.068 596.223 188.618 595.797 189.045C595.363 190.178 594.81 191.035 594.137 191.615C593.863 192.228 593.603 192.758 593.357 193.205C593.117 193.645 592.89 194.035 592.677 194.375C589.097 193.455 586.28 191.801 584.227 189.415H583.677C579.73 192.261 575.66 193.685 571.467 193.685C569.2 193.685 566.967 193.301 564.767 192.535C558.187 190.181 554.21 185.898 552.837 179.685V179.455C552.837 167.615 559.767 161.695 573.627 161.695H573.767C574.04 161.568 574.343 161.505 574.677 161.505L575.227 161.325H576.517L577.067 161.145H577.617L582.207 160.595C582.267 160.255 582.297 159.948 582.297 159.675V158.755C582.297 153.641 579.59 151.085 574.177 151.085C570.41 151.085 565.253 152.355 558.707 154.895L557.977 153.245L557.607 152.145L557.237 151.775L557.057 151.415L556.687 150.305C556.353 149.758 556.11 149.208 555.957 148.655C555.31 147.801 554.88 146.945 554.667 146.085L555.217 145.905L555.587 145.715L556.137 145.535L556.507 145.165H557.057C557.177 145.045 557.283 144.985 557.377 144.985H557.427C558.527 144.405 559.503 143.975 560.357 143.695L561.277 143.515C561.95 143.208 562.563 143.025 563.117 142.965L564.587 142.595C565.653 142.168 566.693 141.925 567.707 141.865L571.747 141.125C572.353 141.065 572.94 141.011 573.507 140.965C574.073 140.918 574.633 140.895 575.187 140.895C581.027 140.895 585.813 142.808 589.547 146.635ZM577.797 169.955H576.697C576.423 170.015 576.157 170.061 575.897 170.095C575.637 170.121 575.383 170.135 575.137 170.135H574.867L574.127 170.325H573.577C573.423 170.445 573.24 170.505 573.027 170.505H572.477L569.537 171.235H568.987C568.133 171.728 567.4 172.035 566.787 172.155C564.8 174.055 563.807 175.891 563.807 177.665C563.807 179.285 564.617 180.875 566.237 182.435C568.59 183.875 570.883 184.595 573.117 184.595C575.963 184.595 578.687 183.448 581.287 181.155C581.533 180.448 581.78 179.958 582.027 179.685L582.207 179.135L582.027 178.395V169.765H578.357C578.203 169.891 578.017 169.955 577.797 169.955Z" fill="white"/>
<path d="M652.031 151.037V151.587C652.431 152.32 652.677 153.054 652.771 153.787V192.157H641.571V159.667L641.381 158.567C639.854 153.94 637.284 151.627 633.671 151.627C632.571 151.627 631.347 151.857 630.001 152.317C626.941 153.637 624.737 155.72 623.391 158.567L622.661 161.687V192.157H611.641V142.037H622.661V146.257C626.087 143.197 629.821 141.364 633.861 140.757H634.681C642.881 140.757 648.664 144.184 652.031 151.037Z" fill="white"/>
<path d="M215.481 116H164.981V214H215.481V116Z" stroke="white" stroke-width="2" stroke-dasharray="5 5"/>
<path d="M262.981 116H217.481V214H262.981V116Z" stroke="white" stroke-width="2" stroke-dasharray="5 5"/>
<path d="M320.481 116H264.981V214H320.481V116Z" stroke="white" stroke-width="2" stroke-dasharray="5 5"/>
<path d="M374.981 116H322.481V214H374.981V116Z" stroke="white" stroke-width="2" stroke-dasharray="5 5"/>
<path d="M430.981 116H376.981V214H430.981V116Z" stroke="white" stroke-width="2" stroke-dasharray="5 5"/>
<path d="M455.981 116H432.981V214H455.981V116Z" stroke="white" stroke-width="2" stroke-dasharray="5 5"/>
<path d="M547.481 116H457.981V214H547.481V116Z" stroke="white" stroke-width="2" stroke-dasharray="5 5"/>
<path d="M602.981 116H549.481V214H602.981V116Z" stroke="white" stroke-width="2" stroke-dasharray="5 5"/>
<path d="M658.981 116H604.981V214H658.981V116Z" stroke="white" stroke-width="2" stroke-dasharray="5 5"/>
<path d="M741.231 115H788.111C793.285 115.003 797.479 119.196 797.481 124.37V218.13C797.479 223.304 793.285 227.497 788.111 227.5H694.351C689.177 227.497 684.984 223.304 684.981 218.13V124.37C684.984 119.196 689.177 115.003 694.351 115H741.231ZM741.231 118.125H694.356C690.904 118.125 688.106 120.923 688.106 124.375V218.125C688.106 221.577 690.904 224.375 694.356 224.375H788.106C791.558 224.375 794.356 221.577 794.356 218.125V124.015C794.357 120.707 791.779 117.971 788.476 117.775L741.231 118.125Z" fill="white"/>
<path d="M744.356 130.625H750.606L753.381 149.375H744.356V130.625Z" fill="white"/>
<path d="M738.106 130.625V149.375H729.081L731.856 130.625H738.106Z" fill="white"/>
<path d="M741.231 155.625H784.981V161.875H778.726C777.004 161.878 775.609 163.273 775.606 164.995V174.375H769.356L766.821 164.245C766.475 162.853 765.225 161.876 763.791 161.875H718.671C717.237 161.876 715.988 162.853 715.641 164.245L713.106 174.375H706.856V164.995C706.853 163.273 705.458 161.878 703.736 161.875H697.481V155.625H741.231Z" fill="white"/>
<path d="M744.356 168.125H756.156L759.981 215H744.356V168.125Z" fill="white"/>
<path d="M738.106 168.125V215H722.481L726.306 168.125H738.106Z" fill="white"/>
<path d="M797.773 157.212V42" stroke="#46C147" stroke-width="3.03189"/>
<path d="M829 157.212V42" stroke="#46C147" stroke-width="3.03189"/>
<path d="M797.773 66.2552H826.122" stroke="#46C147" stroke-width="3.03189"/>
<path d="M824 66.2552L848.255 60.1914V72.319L824 66.2552Z" fill="#46C147"/>
<path d="M804.255 66.2552L780 60.1914V72.319L804.255 66.2552Z" fill="#46C147"/>
<path d="M871.739 78.712V76.3864L880.473 66.8256C881.498 65.7059 882.342 64.7326 883.005 63.9057C883.669 63.0702 884.159 62.2864 884.478 61.5543C884.805 60.8135 884.969 60.0383 884.969 59.2287C884.969 58.2984 884.745 57.4931 884.297 56.8126C883.858 56.1322 883.255 55.6068 882.488 55.2364C881.722 54.866 880.861 54.6808 879.904 54.6808C878.888 54.6808 878.001 54.8919 877.243 55.3139C876.494 55.7273 875.912 56.3087 875.499 57.0581C875.094 57.8075 874.892 58.686 874.892 59.6938H871.842C871.842 58.1434 872.2 56.7825 872.915 55.6111C873.63 54.4397 874.603 53.5266 875.835 52.872C877.075 52.2174 878.466 51.8901 880.008 51.8901C881.558 51.8901 882.932 52.2174 884.129 52.872C885.327 53.5266 886.265 54.4095 886.946 55.5206C887.626 56.6317 887.967 57.8678 887.967 59.2287C887.967 60.202 887.79 61.1537 887.437 62.084C887.092 63.0056 886.489 64.0349 885.628 65.1719C884.775 66.3002 883.591 67.6784 882.075 69.3063L876.132 75.6629V75.8696H888.432V78.712H871.739ZM896.042 78.9188C895.404 78.9188 894.857 78.6905 894.401 78.234C893.944 77.7775 893.716 77.2305 893.716 76.5932C893.716 75.9558 893.944 75.4088 894.401 74.9523C894.857 74.4958 895.404 74.2676 896.042 74.2676C896.679 74.2676 897.226 74.4958 897.682 74.9523C898.139 75.4088 898.367 75.9558 898.367 76.5932C898.367 77.0152 898.26 77.4028 898.044 77.756C897.837 78.1091 897.558 78.3933 897.204 78.6087C896.86 78.8154 896.472 78.9188 896.042 78.9188ZM911.523 79.0738C910.007 79.0738 908.642 78.7723 907.427 78.1694C906.213 77.5665 905.24 76.7396 904.507 75.6888C903.775 74.6379 903.375 73.4407 903.306 72.097H906.407C906.527 73.2942 907.07 74.2848 908.035 75.0686C909.008 75.8438 910.171 76.2314 911.523 76.2314C912.608 76.2314 913.573 75.9773 914.417 75.4691C915.27 74.9609 915.937 74.2632 916.42 73.3761C916.911 72.4803 917.156 71.4682 917.156 70.3399C917.156 69.1857 916.902 68.1564 916.394 67.252C915.894 66.339 915.205 65.6198 914.327 65.0943C913.448 64.5689 912.445 64.3019 911.316 64.2933C910.507 64.2847 909.675 64.4096 908.823 64.668C907.97 64.9178 907.268 65.2408 906.717 65.637L903.719 65.2752L905.321 52.2519H919.068V55.0943H908.009L907.078 62.8979H907.234C907.776 62.4673 908.457 62.1098 909.275 61.8256C910.093 61.5413 910.946 61.3992 911.833 61.3992C913.452 61.3992 914.895 61.7868 916.161 62.562C917.436 63.3286 918.435 64.3794 919.159 65.7145C919.891 67.0496 920.257 68.5741 920.257 70.2882C920.257 71.9764 919.878 73.4837 919.12 74.8102C918.371 76.128 917.337 77.1702 916.019 77.9368C914.701 78.6948 913.203 79.0738 911.523 79.0738ZM939.498 63.3114L936.759 64.0866C936.587 63.6301 936.333 63.1865 935.997 62.7558C935.669 62.3165 935.221 61.9548 934.653 61.6705C934.085 61.3863 933.357 61.2442 932.47 61.2442C931.255 61.2442 930.243 61.5241 929.433 62.084C928.632 62.6352 928.232 63.3372 928.232 64.1899C928.232 64.9479 928.507 65.5465 929.059 65.9858C929.61 66.4251 930.471 66.7912 931.643 67.084L934.588 67.8076C936.363 68.2382 937.685 68.8971 938.555 69.7843C939.425 70.6629 939.86 71.7955 939.86 73.1823C939.86 74.3192 939.532 75.3356 938.878 76.2314C938.232 77.1272 937.327 77.8335 936.165 78.3503C935.002 78.8671 933.65 79.1255 932.108 79.1255C930.084 79.1255 928.408 78.6862 927.082 77.8076C925.755 76.9291 924.916 75.6457 924.562 73.9575L927.457 73.234C927.732 74.302 928.253 75.103 929.02 75.6371C929.795 76.1711 930.807 76.4381 932.056 76.4381C933.477 76.4381 934.606 76.1366 935.441 75.5337C936.285 74.9222 936.707 74.19 936.707 73.3373C936.707 72.6482 936.466 72.0712 935.984 71.606C935.501 71.1323 934.761 70.7792 933.762 70.5466L930.454 69.7714C928.637 69.3407 927.302 68.6732 926.449 67.7688C925.605 66.8558 925.183 65.7145 925.183 64.345C925.183 63.2253 925.497 62.2347 926.126 61.3734C926.763 60.5121 927.629 59.8359 928.723 59.3449C929.825 58.854 931.074 58.6085 932.47 58.6085C934.433 58.6085 935.975 59.0392 937.095 59.9005C938.223 60.7618 939.024 61.8988 939.498 63.3114ZM948.946 78.712L942.899 58.8669H946.103L950.393 74.0608H950.6L954.837 58.8669H958.093L962.279 74.0092H962.486L966.775 58.8669H969.98L963.933 78.712H960.936L956.594 63.4664H956.284L951.943 78.712H948.946Z" fill="#46C147"/>
<path d="M165.227 157.212V42" stroke="#46C147" stroke-width="3.03189"/>
<path d="M134 157.212V42" stroke="#46C147" stroke-width="3.03189"/>
<path d="M165.227 66.2552H136.878" stroke="#46C147" stroke-width="3.03189"/>
<path d="M139 66.2552L114.745 60.1914V72.319L139 66.2552Z" fill="#46C147"/>
<path d="M158.745 66.2552L183 60.1914V72.319L158.745 66.2552Z" fill="#46C147"/>
<path d="M0.739041 78.712V76.3864L9.47297 66.8256C10.498 65.7059 11.3421 64.7326 12.0053 63.9057C12.6685 63.0702 13.1595 62.2864 13.4782 61.5543C13.8055 60.8135 13.9691 60.0383 13.9691 59.2287C13.9691 58.2984 13.7452 57.4931 13.2973 56.8126C12.858 56.1322 12.2551 55.6068 11.4885 55.2364C10.7219 54.866 9.86057 54.6808 8.90448 54.6808C7.88811 54.6808 7.00094 54.8919 6.24296 55.3139C5.4936 55.7273 4.9122 56.3087 4.49876 57.0581C4.09394 57.8075 3.89152 58.686 3.89152 59.6938H0.842401C0.842401 58.1434 1.19985 56.7825 1.91476 55.6111C2.62967 54.4397 3.60298 53.5266 4.83468 52.872C6.075 52.2174 7.46606 51.8901 9.00784 51.8901C10.5582 51.8901 11.9321 52.2174 13.1293 52.872C14.3266 53.5266 15.2654 54.4095 15.9459 55.5206C16.6263 56.6317 16.9666 57.8678 16.9666 59.2287C16.9666 60.202 16.79 61.1537 16.4368 62.084C16.0923 63.0056 15.4894 64.0349 14.628 65.1719C13.7753 66.3002 12.591 67.6784 11.075 69.3063L5.13184 75.6629V75.8696H17.4317V78.712H0.739041ZM25.0416 78.9188C24.4042 78.9188 23.8572 78.6905 23.4007 78.234C22.9442 77.7775 22.716 77.2305 22.716 76.5932C22.716 75.9558 22.9442 75.4088 23.4007 74.9523C23.8572 74.4958 24.4042 74.2676 25.0416 74.2676C25.679 74.2676 26.2259 74.4958 26.6824 74.9523C27.1389 75.4088 27.3672 75.9558 27.3672 76.5932C27.3672 77.0152 27.2595 77.4028 27.0442 77.756C26.8375 78.1091 26.5575 78.3933 26.2044 78.6087C25.8598 78.8154 25.4722 78.9188 25.0416 78.9188ZM40.523 79.0738C39.007 79.0738 37.6418 78.7723 36.4273 78.1694C35.2128 77.5665 34.2395 76.7396 33.5074 75.6888C32.7753 74.6379 32.3748 73.4407 32.3058 72.097H35.4066C35.5272 73.2942 36.0699 74.2848 37.0346 75.0686C38.0079 75.8438 39.1707 76.2314 40.523 76.2314C41.6083 76.2314 42.5729 75.9773 43.4171 75.4691C44.2698 74.9609 44.9373 74.2632 45.4197 73.3761C45.9106 72.4803 46.1561 71.4682 46.1561 70.3399C46.1561 69.1857 45.902 68.1564 45.3938 67.252C44.8942 66.339 44.2052 65.6198 43.3266 65.0943C42.4481 64.5689 41.4446 64.3019 40.3163 64.2933C39.5066 64.2847 38.6754 64.4096 37.8227 64.668C36.97 64.9178 36.268 65.2408 35.7167 65.637L32.7193 65.2752L34.3214 52.2519H48.0683V55.0943H37.0087L36.0785 62.8979H36.2335C36.7762 62.4673 37.4566 62.1098 38.2749 61.8256C39.0932 61.5413 39.9459 61.3992 40.8331 61.3992C42.4524 61.3992 43.8951 61.7868 45.1613 62.562C46.436 63.3286 47.4352 64.3794 48.1587 65.7145C48.8908 67.0496 49.2569 68.5741 49.2569 70.2882C49.2569 71.9764 48.8779 73.4837 48.1199 74.8102C47.3706 76.128 46.337 77.1702 45.0191 77.9368C43.7013 78.6948 42.2026 79.0738 40.523 79.0738ZM68.498 63.3114L65.759 64.0866C65.5867 63.6301 65.3326 63.1865 64.9967 62.7558C64.6694 62.3165 64.2215 61.9548 63.653 61.6705C63.0845 61.3863 62.3567 61.2442 61.4695 61.2442C60.255 61.2442 59.243 61.5241 58.4333 62.084C57.6323 62.6352 57.2318 63.3372 57.2318 64.1899C57.2318 64.9479 57.5074 65.5465 58.0586 65.9858C58.6099 66.4251 59.4712 66.7912 60.6426 67.084L63.5884 67.8076C65.3628 68.2382 66.6849 68.8971 67.5549 69.7843C68.4248 70.6629 68.8598 71.7955 68.8598 73.1823C68.8598 74.3192 68.5325 75.3356 67.8779 76.2314C67.2319 77.1272 66.3275 77.8335 65.1647 78.3503C64.0019 78.8671 62.6496 79.1255 61.1078 79.1255C59.0836 79.1255 57.4083 78.6862 56.0819 77.8076C54.7554 76.9291 53.9156 75.6457 53.5625 73.9575L56.4566 73.234C56.7322 74.302 57.2533 75.103 58.0199 75.6371C58.7951 76.1711 59.8072 76.4381 61.0561 76.4381C62.4773 76.4381 63.6056 76.1366 64.4411 75.5337C65.2852 74.9222 65.7073 74.19 65.7073 73.3373C65.7073 72.6482 65.4661 72.0712 64.9838 71.606C64.5014 71.1323 63.7607 70.7792 62.7615 70.5466L59.454 69.7714C57.6366 69.3407 56.3015 68.6732 55.4488 67.7688C54.6047 66.8558 54.1826 65.7145 54.1826 64.345C54.1826 63.2253 54.497 62.2347 55.1258 61.3734C55.7632 60.5121 56.6288 59.8359 57.7227 59.3449C58.8252 58.854 60.0742 58.6085 61.4695 58.6085C63.4334 58.6085 64.9752 59.0392 66.0949 59.9005C67.2232 60.7618 68.0243 61.8988 68.498 63.3114ZM77.9458 78.712L71.8992 58.8669H75.1034L79.3928 74.0608H79.5995L83.8373 58.8669H87.0931L91.2792 74.0092H91.4859L95.7754 58.8669H98.9795L92.933 78.712H89.9355L85.5944 63.4664H85.2843L80.9432 78.712H77.9458Z" fill="#46C147"/>
<path d="M348 75H463.212" stroke="#FF0000" stroke-width="3.03189"/>
<path d="M348 83.5H463.212" stroke="#FF0000" stroke-width="3.03189"/>
<path d="M439.212 54.75V83.5" stroke="#FF0000" stroke-width="3.03189"/>
<path d="M439.148 80L445.212 104.255H433.084L439.148 80Z" fill="#FF0000"/>
<path d="M439.148 78.2552L445.212 54H433.084L439.148 78.2552Z" fill="#FF0000"/>
<path d="M377.582 43.3618C375.635 43.3618 373.977 42.832 372.607 41.7726C371.238 40.7045 370.191 39.1585 369.468 37.1343C368.744 35.1016 368.383 32.6468 368.383 29.7699C368.383 26.9103 368.744 24.4684 369.468 22.4443C370.2 20.4115 371.251 18.8611 372.62 17.7931C373.998 16.7164 375.652 16.1781 377.582 16.1781C379.511 16.1781 381.16 16.7164 382.53 17.7931C383.908 18.8611 384.959 20.4115 385.682 22.4443C386.415 24.4684 386.781 26.9103 386.781 29.7699C386.781 32.6468 386.419 35.1016 385.695 37.1343C384.972 39.1585 383.925 40.7045 382.556 41.7726C381.186 42.832 379.528 43.3618 377.582 43.3618ZM377.582 40.5194C379.511 40.5194 381.01 39.5891 382.078 37.7286C383.146 35.8682 383.68 33.2152 383.68 29.7699C383.68 27.4788 383.434 25.5278 382.943 23.9172C382.461 22.3065 381.763 21.0791 380.85 20.2349C379.946 19.3908 378.856 18.9688 377.582 18.9688C375.669 18.9688 374.175 19.9119 373.098 21.7983C372.022 23.676 371.483 26.3332 371.483 29.7699C371.483 32.0611 371.725 34.0077 372.207 35.6098C372.689 37.2118 373.383 38.4306 374.287 39.2661C375.2 40.1016 376.298 40.5194 377.582 40.5194ZM393.04 43.2067C392.403 43.2067 391.856 42.9785 391.4 42.522C390.943 42.0655 390.715 41.5185 390.715 40.8811C390.715 40.2437 390.943 39.6968 391.4 39.2403C391.856 38.7838 392.403 38.5555 393.04 38.5555C393.678 38.5555 394.225 38.7838 394.681 39.2403C395.138 39.6968 395.366 40.2437 395.366 40.8811C395.366 41.3032 395.258 41.6908 395.043 42.0439C394.836 42.3971 394.556 42.6813 394.203 42.8966C393.859 43.1034 393.471 43.2067 393.04 43.2067ZM408.522 43.3618C407.006 43.3618 405.641 43.0603 404.426 42.4574C403.212 41.8544 402.238 41.0275 401.506 39.9767C400.774 38.9259 400.374 37.7286 400.305 36.385H403.406C403.526 37.5822 404.069 38.5727 405.033 39.3566C406.007 40.1318 407.17 40.5194 408.522 40.5194C409.607 40.5194 410.572 40.2653 411.416 39.7571C412.269 39.2489 412.936 38.5512 413.419 37.664C413.909 36.7683 414.155 35.7562 414.155 34.6278C414.155 33.4736 413.901 32.4444 413.393 31.54C412.893 30.6269 412.204 29.9077 411.325 29.3823C410.447 28.8569 409.443 28.5899 408.315 28.5813C407.505 28.5727 406.674 28.6976 405.822 28.956C404.969 29.2057 404.267 29.5287 403.716 29.925L400.718 29.5632L402.32 16.5398H416.067V19.3822H405.008L404.077 27.1859H404.232C404.775 26.7552 405.455 26.3978 406.274 26.1136C407.092 25.8293 407.945 25.6872 408.832 25.6872C410.451 25.6872 411.894 26.0748 413.16 26.85C414.435 27.6166 415.434 28.6674 416.158 30.0025C416.89 31.3375 417.256 32.8621 417.256 34.5762C417.256 36.2644 416.877 37.7717 416.119 39.0982C415.369 40.416 414.336 41.4582 413.018 42.2248C411.7 42.9828 410.201 43.3618 408.522 43.3618ZM436.497 27.5994L433.758 28.3746C433.586 27.918 433.331 27.4745 432.996 27.0438C432.668 26.6045 432.22 26.2428 431.652 25.9585C431.083 25.6743 430.356 25.5322 429.468 25.5322C428.254 25.5322 427.242 25.8121 426.432 26.372C425.631 26.9232 425.231 27.6252 425.231 28.4779C425.231 29.2359 425.506 29.8345 426.058 30.2738C426.609 30.7131 427.47 31.0791 428.642 31.372L431.587 32.0955C433.362 32.5262 434.684 33.1851 435.554 34.0723C436.424 34.9508 436.859 36.0835 436.859 37.4702C436.859 38.6072 436.531 39.6236 435.877 40.5194C435.231 41.4151 434.326 42.1214 433.164 42.6382C432.001 43.155 430.648 43.4134 429.107 43.4134C427.082 43.4134 425.407 42.9742 424.081 42.0956C422.754 41.217 421.914 39.9337 421.561 38.2454L424.455 37.5219C424.731 38.59 425.252 39.391 426.019 39.925C426.794 40.4591 427.806 40.7261 429.055 40.7261C430.476 40.7261 431.604 40.4246 432.44 39.8217C433.284 39.2101 433.706 38.478 433.706 37.6253C433.706 36.9362 433.465 36.3591 432.983 35.894C432.5 35.4203 431.76 35.0671 430.76 34.8346L427.453 34.0594C425.635 33.6287 424.3 32.9612 423.448 32.0568C422.604 31.1437 422.182 30.0025 422.182 28.633C422.182 27.5132 422.496 26.5227 423.125 25.6614C423.762 24.8 424.628 24.1239 425.722 23.6329C426.824 23.142 428.073 22.8965 429.468 22.8965C431.432 22.8965 432.974 23.3271 434.094 24.1885C435.222 25.0498 436.023 26.1868 436.497 27.5994ZM445.945 43L439.898 23.1549H443.102L447.392 38.3488H447.598L451.836 23.1549H455.092L459.278 38.2971H459.485L463.774 23.1549H466.978L460.932 43H457.934L453.593 27.7544H453.283L448.942 43H445.945Z" fill="#FF0000"/>
<path d="M519 88.8827H634.212" stroke="#FF0000" stroke-width="3.03189"/>
<path d="M519 115H634.212" stroke="#FF0000" stroke-width="3.03189"/>
<path d="M609.957 90.3827V112.383" stroke="#FF0000" stroke-width="3.03189"/>
<path d="M609.957 109L600.861 145.383H619.053L609.957 109Z" fill="#FF0000"/>
<path d="M609.957 96.3828L600.861 60H619.053L609.957 96.3828Z" fill="#FF0000"/>
<path d="M640.739 79V76.6744L649.473 67.1136C650.498 65.9939 651.342 65.0206 652.005 64.1937C652.669 63.3582 653.159 62.5744 653.478 61.8422C653.805 61.1015 653.969 60.3263 653.969 59.5166C653.969 58.5864 653.745 57.781 653.297 57.1006C652.858 56.4201 652.255 55.8947 651.488 55.5243C650.722 55.154 649.861 54.9688 648.904 54.9688C647.888 54.9688 647.001 55.1798 646.243 55.6019C645.494 56.0153 644.912 56.5967 644.499 57.3461C644.094 58.0954 643.892 58.974 643.892 59.9818H640.842C640.842 58.4313 641.2 57.0704 641.915 55.899C642.63 54.7276 643.603 53.8146 644.835 53.16C646.075 52.5054 647.466 52.1781 649.008 52.1781C650.558 52.1781 651.932 52.5054 653.129 53.16C654.327 53.8146 655.265 54.6975 655.946 55.8086C656.626 56.9197 656.967 58.1557 656.967 59.5166C656.967 60.4899 656.79 61.4417 656.437 62.372C656.092 63.2936 655.489 64.3229 654.628 65.4598C653.775 66.5882 652.591 67.9663 651.075 69.5942L645.132 75.9509V76.1576H657.432V79H640.739ZM665.042 79.2067C664.404 79.2067 663.857 78.9785 663.401 78.522C662.944 78.0655 662.716 77.5185 662.716 76.8811C662.716 76.2437 662.944 75.6968 663.401 75.2403C663.857 74.7838 664.404 74.5555 665.042 74.5555C665.679 74.5555 666.226 74.7838 666.682 75.2403C667.139 75.6968 667.367 76.2437 667.367 76.8811C667.367 77.3032 667.26 77.6908 667.044 78.0439C666.837 78.3971 666.558 78.6813 666.204 78.8966C665.86 79.1034 665.472 79.2067 665.042 79.2067ZM680.523 79.3618C679.007 79.3618 677.642 79.0603 676.427 78.4574C675.213 77.8544 674.24 77.0275 673.507 75.9767C672.775 74.9259 672.375 73.7286 672.306 72.385H675.407C675.527 73.5822 676.07 74.5727 677.035 75.3566C678.008 76.1318 679.171 76.5194 680.523 76.5194C681.608 76.5194 682.573 76.2653 683.417 75.7571C684.27 75.2489 684.937 74.5512 685.42 73.664C685.911 72.7683 686.156 71.7562 686.156 70.6278C686.156 69.4736 685.902 68.4444 685.394 67.54C684.894 66.6269 684.205 65.9077 683.327 65.3823C682.448 64.8569 681.445 64.5899 680.316 64.5813C679.507 64.5727 678.675 64.6976 677.823 64.956C676.97 65.2057 676.268 65.5287 675.717 65.925L672.719 65.5632L674.321 52.5398H688.068V55.3822H677.009L676.078 63.1859H676.234C676.776 62.7552 677.457 62.3978 678.275 62.1136C679.093 61.8293 679.946 61.6872 680.833 61.6872C682.452 61.6872 683.895 62.0748 685.161 62.85C686.436 63.6166 687.435 64.6674 688.159 66.0025C688.891 67.3375 689.257 68.8621 689.257 70.5762C689.257 72.2644 688.878 73.7717 688.12 75.0982C687.371 76.416 686.337 77.4582 685.019 78.2248C683.701 78.9828 682.203 79.3618 680.523 79.3618ZM708.498 63.5994L705.759 64.3746C705.587 63.918 705.333 63.4745 704.997 63.0438C704.669 62.6045 704.221 62.2428 703.653 61.9585C703.085 61.6743 702.357 61.5322 701.47 61.5322C700.255 61.5322 699.243 61.8121 698.433 62.372C697.632 62.9232 697.232 63.6252 697.232 64.4779C697.232 65.2359 697.507 65.8345 698.059 66.2738C698.61 66.7131 699.471 67.0791 700.643 67.372L703.588 68.0955C705.363 68.5262 706.685 69.1851 707.555 70.0723C708.425 70.9508 708.86 72.0835 708.86 73.4702C708.86 74.6072 708.532 75.6236 707.878 76.5194C707.232 77.4151 706.327 78.1214 705.165 78.6382C704.002 79.155 702.65 79.4134 701.108 79.4134C699.084 79.4134 697.408 78.9742 696.082 78.0956C694.755 77.217 693.916 75.9337 693.562 74.2454L696.457 73.5219C696.732 74.59 697.253 75.391 698.02 75.925C698.795 76.4591 699.807 76.7261 701.056 76.7261C702.477 76.7261 703.606 76.4246 704.441 75.8217C705.285 75.2101 705.707 74.478 705.707 73.6253C705.707 72.9362 705.466 72.3591 704.984 71.894C704.501 71.4203 703.761 71.0671 702.762 70.8346L699.454 70.0594C697.637 69.6287 696.302 68.9612 695.449 68.0568C694.605 67.1437 694.183 66.0025 694.183 64.633C694.183 63.5132 694.497 62.5227 695.126 61.6614C695.763 60.8 696.629 60.1239 697.723 59.6329C698.825 59.142 700.074 58.8965 701.47 58.8965C703.433 58.8965 704.975 59.3271 706.095 60.1885C707.223 61.0498 708.024 62.1868 708.498 63.5994ZM717.946 79L711.899 59.1549H715.103L719.393 74.3488H719.6L723.837 59.1549H727.093L731.279 74.2971H731.486L735.775 59.1549H738.98L732.933 79H729.936L725.594 63.7544H725.284L720.943 79H717.946Z" fill="#FF0000"/>
<path d="M434 357H549.212" stroke="#FF0000" stroke-width="3.03189"/>
<path d="M434 374H549.212" stroke="#FF0000" stroke-width="3.03189"/>
<path d="M524.957 349.383V371.383" stroke="#FF0000" stroke-width="3.03189"/>
<path d="M524.957 368L515.861 404.383H534.053L524.957 368Z" fill="#FF0000"/>
<path d="M524.957 364.383L515.861 328H534.053L524.957 364.383Z" fill="#FF0000"/>
<path d="M496.041 293.54V320H492.837V296.899H492.682L486.222 301.188V297.933L492.837 293.54H496.041ZM504.362 320.207C503.725 320.207 503.178 319.978 502.721 319.522C502.265 319.065 502.036 318.519 502.036 317.881C502.036 317.244 502.265 316.697 502.721 316.24C503.178 315.784 503.725 315.556 504.362 315.556C504.999 315.556 505.546 315.784 506.003 316.24C506.459 316.697 506.688 317.244 506.688 317.881C506.688 318.303 506.58 318.691 506.365 319.044C506.158 319.397 505.878 319.681 505.525 319.897C505.18 320.103 504.793 320.207 504.362 320.207ZM519.843 320.362C518.327 320.362 516.962 320.06 515.748 319.457C514.533 318.854 513.56 318.028 512.828 316.977C512.096 315.926 511.695 314.729 511.626 313.385H514.727C514.848 314.582 515.39 315.573 516.355 316.357C517.328 317.132 518.491 317.519 519.843 317.519C520.929 317.519 521.893 317.265 522.737 316.757C523.59 316.249 524.258 315.551 524.74 314.664C525.231 313.768 525.476 312.756 525.476 311.628C525.476 310.474 525.222 309.444 524.714 308.54C524.215 307.627 523.526 306.908 522.647 306.382C521.768 305.857 520.765 305.59 519.637 305.581C518.827 305.573 517.996 305.698 517.143 305.956C516.29 306.206 515.588 306.529 515.037 306.925L512.04 306.563L513.642 293.54H527.389V296.382H516.329L515.399 304.186H515.554C516.097 303.755 516.777 303.398 517.595 303.114C518.414 302.829 519.266 302.687 520.153 302.687C521.773 302.687 523.215 303.075 524.482 303.85C525.756 304.617 526.756 305.667 527.479 307.002C528.211 308.338 528.577 309.862 528.577 311.576C528.577 313.264 528.198 314.772 527.44 316.098C526.691 317.416 525.657 318.458 524.339 319.225C523.022 319.983 521.523 320.362 519.843 320.362ZM547.818 304.599L545.079 305.375C544.907 304.918 544.653 304.474 544.317 304.044C543.99 303.605 543.542 303.243 542.973 302.959C542.405 302.674 541.677 302.532 540.79 302.532C539.575 302.532 538.563 302.812 537.754 303.372C536.953 303.923 536.552 304.625 536.552 305.478C536.552 306.236 536.828 306.835 537.379 307.274C537.93 307.713 538.792 308.079 539.963 308.372L542.909 309.096C544.683 309.526 546.005 310.185 546.875 311.072C547.745 311.951 548.18 313.083 548.18 314.47C548.18 315.607 547.853 316.624 547.198 317.519C546.552 318.415 545.648 319.121 544.485 319.638C543.322 320.155 541.97 320.413 540.428 320.413C538.404 320.413 536.729 319.974 535.402 319.096C534.076 318.217 533.236 316.934 532.883 315.245L535.777 314.522C536.053 315.59 536.574 316.391 537.34 316.925C538.115 317.459 539.128 317.726 540.376 317.726C541.798 317.726 542.926 317.425 543.761 316.822C544.606 316.21 545.028 315.478 545.028 314.625C545.028 313.936 544.786 313.359 544.304 312.894C543.822 312.42 543.081 312.067 542.082 311.835L538.774 311.059C536.957 310.629 535.622 309.961 534.769 309.057C533.925 308.144 533.503 307.002 533.503 305.633C533.503 304.513 533.817 303.523 534.446 302.661C535.084 301.8 535.949 301.124 537.043 300.633C538.146 300.142 539.395 299.896 540.79 299.896C542.754 299.896 544.296 300.327 545.415 301.188C546.544 302.05 547.345 303.187 547.818 304.599ZM557.266 320L551.22 300.155H554.424L558.713 315.349H558.92L563.158 300.155H566.413L570.6 315.297H570.806L575.096 300.155H578.3L572.253 320H569.256L564.915 304.754H564.605L560.264 320H557.266Z" fill="#FF0000"/>
<path d="M848.75 410.476L830 378" stroke="#04E3E3" stroke-width="3.03189"/>
<path d="M849.064 405C845.715 405 843 407.715 843 411.064C843 414.413 845.715 417.128 849.064 417.128C852.413 417.128 855.128 414.413 855.128 411.064C855.128 407.715 852.413 405 849.064 405Z" fill="#04E3E3"/>
<path d="M830 378V396.191L845.754 387.096L830 378Z" fill="#04E3E3"/>
<path d="M864.204 429V402.54H873.145C875.212 402.54 876.909 402.893 878.235 403.599C879.562 404.297 880.544 405.257 881.181 406.48C881.818 407.704 882.137 409.095 882.137 410.654C882.137 412.213 881.818 413.595 881.181 414.801C880.544 416.007 879.566 416.954 878.248 417.643C876.93 418.324 875.246 418.664 873.196 418.664H865.961V415.77H873.093C874.506 415.77 875.643 415.563 876.504 415.15C877.374 414.736 878.003 414.151 878.39 413.393C878.787 412.626 878.985 411.713 878.985 410.654C878.985 409.594 878.787 408.668 878.39 407.876C877.994 407.083 877.361 406.472 876.491 406.041C875.621 405.602 874.471 405.382 873.041 405.382H867.408V429H864.204ZM876.659 417.114L883.171 429H879.45L873.041 417.114H876.659ZM896.314 402.54V429H893.109V405.899H892.954L886.494 410.188V406.933L893.109 402.54H896.314ZM904.634 429.207C903.997 429.207 903.45 428.978 902.993 428.522C902.537 428.065 902.308 427.519 902.308 426.881C902.308 426.244 902.537 425.697 902.993 425.24C903.45 424.784 903.997 424.556 904.634 424.556C905.271 424.556 905.818 424.784 906.275 425.24C906.731 425.697 906.96 426.244 906.96 426.881C906.96 427.303 906.852 427.691 906.637 428.044C906.43 428.397 906.15 428.681 905.797 428.897C905.452 429.103 905.065 429.207 904.634 429.207ZM920.115 429.362C918.6 429.362 917.234 429.06 916.02 428.457C914.805 427.854 913.832 427.028 913.1 425.977C912.368 424.926 911.967 423.729 911.898 422.385H914.999C915.12 423.582 915.662 424.573 916.627 425.357C917.6 426.132 918.763 426.519 920.115 426.519C921.201 426.519 922.165 426.265 923.01 425.757C923.862 425.249 924.53 424.551 925.012 423.664C925.503 422.768 925.749 421.756 925.749 420.628C925.749 419.474 925.494 418.444 924.986 417.54C924.487 416.627 923.798 415.908 922.919 415.382C922.041 414.857 921.037 414.59 919.909 414.581C919.099 414.573 918.268 414.698 917.415 414.956C916.562 415.206 915.86 415.529 915.309 415.925L912.312 415.563L913.914 402.54H927.661V405.382H916.601L915.671 413.186H915.826C916.369 412.755 917.049 412.398 917.867 412.114C918.686 411.829 919.538 411.687 920.426 411.687C922.045 411.687 923.488 412.075 924.754 412.85C926.029 413.617 927.028 414.667 927.751 416.002C928.483 417.338 928.849 418.862 928.849 420.576C928.849 422.264 928.47 423.772 927.712 425.098C926.963 426.416 925.929 427.458 924.612 428.225C923.294 428.983 921.795 429.362 920.115 429.362ZM948.091 413.599L945.351 414.375C945.179 413.918 944.925 413.474 944.589 413.044C944.262 412.605 943.814 412.243 943.245 411.959C942.677 411.674 941.949 411.532 941.062 411.532C939.848 411.532 938.835 411.812 938.026 412.372C937.225 412.923 936.824 413.625 936.824 414.478C936.824 415.236 937.1 415.835 937.651 416.274C938.202 416.713 939.064 417.079 940.235 417.372L943.181 418.096C944.955 418.526 946.277 419.185 947.147 420.072C948.017 420.951 948.452 422.083 948.452 423.47C948.452 424.607 948.125 425.624 947.47 426.519C946.824 427.415 945.92 428.121 944.757 428.638C943.594 429.155 942.242 429.413 940.7 429.413C938.676 429.413 937.001 428.974 935.674 428.096C934.348 427.217 933.508 425.934 933.155 424.245L936.049 423.522C936.325 424.59 936.846 425.391 937.612 425.925C938.388 426.459 939.4 426.726 940.649 426.726C942.07 426.726 943.198 426.425 944.034 425.822C944.878 425.21 945.3 424.478 945.3 423.625C945.3 422.936 945.059 422.359 944.576 421.894C944.094 421.42 943.353 421.067 942.354 420.835L939.046 420.059C937.229 419.629 935.894 418.961 935.041 418.057C934.197 417.144 933.775 416.002 933.775 414.633C933.775 413.513 934.09 412.523 934.718 411.661C935.356 410.8 936.221 410.124 937.315 409.633C938.418 409.142 939.667 408.896 941.062 408.896C943.026 408.896 944.568 409.327 945.687 410.188C946.816 411.05 947.617 412.187 948.091 413.599ZM957.538 429L951.492 409.155H954.696L958.985 424.349H959.192L963.43 409.155H966.686L970.872 424.297H971.078L975.368 409.155H978.572L972.525 429H969.528L965.187 413.754H964.877L960.536 429H957.538Z" fill="#04E3E3"/>
<path d="M806.5 338.5L825.25 370.976" stroke="#04E3E3" stroke-width="3.03189"/>
<path d="M806.5 344.564C809.849 344.564 812.564 341.849 812.564 338.5C812.564 335.151 809.849 332.436 806.5 332.436C803.151 332.436 800.436 335.151 800.436 338.5C800.436 341.849 803.151 344.564 806.5 344.564Z" fill="#04E3E3"/>
<path d="M825.25 370.976V352.785L809.496 361.88L825.25 370.976Z" fill="#04E3E3"/>
<path d="M847.204 348V321.54H856.145C858.212 321.54 859.909 321.893 861.235 322.599C862.562 323.297 863.544 324.257 864.181 325.48C864.818 326.704 865.137 328.095 865.137 329.654C865.137 331.213 864.818 332.595 864.181 333.801C863.544 335.007 862.566 335.954 861.248 336.643C859.93 337.324 858.246 337.664 856.196 337.664H848.961V334.77H856.093C857.506 334.77 858.643 334.563 859.504 334.15C860.374 333.736 861.003 333.151 861.39 332.393C861.787 331.626 861.985 330.713 861.985 329.654C861.985 328.594 861.787 327.668 861.39 326.876C860.994 326.083 860.361 325.472 859.491 325.041C858.621 324.602 857.471 324.382 856.041 324.382H850.408V348H847.204ZM859.659 336.114L866.171 348H862.45L856.041 336.114H859.659ZM879.314 321.54V348H876.109V324.899H875.954L869.494 329.188V325.933L876.109 321.54H879.314ZM901.032 332.599L898.293 333.375C898.121 332.918 897.867 332.474 897.531 332.044C897.204 331.605 896.756 331.243 896.187 330.959C895.619 330.674 894.891 330.532 894.004 330.532C892.789 330.532 891.777 330.812 890.967 331.372C890.166 331.923 889.766 332.625 889.766 333.478C889.766 334.236 890.042 334.835 890.593 335.274C891.144 335.713 892.005 336.079 893.177 336.372L896.123 337.096C897.897 337.526 899.219 338.185 900.089 339.072C900.959 339.951 901.394 341.083 901.394 342.47C901.394 343.607 901.067 344.624 900.412 345.519C899.766 346.415 898.862 347.121 897.699 347.638C896.536 348.155 895.184 348.413 893.642 348.413C891.618 348.413 889.942 347.974 888.616 347.096C887.29 346.217 886.45 344.934 886.097 343.245L888.991 342.522C889.266 343.59 889.787 344.391 890.554 344.925C891.329 345.459 892.341 345.726 893.59 345.726C895.011 345.726 896.14 345.425 896.975 344.822C897.819 344.21 898.241 343.478 898.241 342.625C898.241 341.936 898 341.359 897.518 340.894C897.036 340.42 896.295 340.067 895.296 339.835L891.988 339.059C890.171 338.629 888.836 337.961 887.983 337.057C887.139 336.144 886.717 335.002 886.717 333.633C886.717 332.513 887.031 331.523 887.66 330.661C888.297 329.8 889.163 329.124 890.257 328.633C891.359 328.142 892.608 327.896 894.004 327.896C895.967 327.896 897.509 328.327 898.629 329.188C899.757 330.05 900.558 331.187 901.032 332.599ZM910.48 348L904.433 328.155H907.637L911.927 343.349H912.134L916.371 328.155H919.627L923.813 343.297H924.02L928.309 328.155H931.514L925.467 348H922.47L918.129 332.754H917.818L913.477 348H910.48Z" fill="#04E3E3"/>
</svg>
