<svg width="981" height="430" viewBox="0 0 981 430" fill="none" xmlns="http://www.w3.org/2000/svg">
<path d="M128.981 88.25C128.981 77.8947 137.376 69.5 147.731 69.5H818.769C829.124 69.5 837.519 77.8947 837.519 88.25V355.75C837.519 366.105 829.124 374.5 818.769 374.5H147.731C137.376 374.5 128.981 366.105 128.981 355.75V88.25Z" fill="white"/>
<path d="M135.231 88.2499C135.231 81.3464 140.827 75.7499 147.731 75.7499H818.769C825.672 75.7499 831.269 81.3464 831.269 88.2499V355.75C831.269 362.653 825.672 368.25 818.769 368.25H147.731C140.827 368.25 135.231 362.653 135.231 355.75V88.2499Z" fill="#006928"/>
<path d="M210.143 278.665V269.555H263.133V278.665H210.143ZM203.283 296.775V287.885H270.553V296.775H203.283ZM187.863 315.675V306.455H285.743V315.675H187.863ZM201.703 253.575V245.025H240.853V253.575H201.703ZM231.743 250.765V245.025H243.333C245.733 248.098 248.64 251.078 252.053 253.965C255.467 256.858 259.233 259.542 263.353 262.015C267.48 264.488 271.793 266.702 276.293 268.655C280.793 270.602 285.33 272.252 289.903 273.605C289.083 274.205 288.147 274.992 287.093 275.965C286.047 276.938 285.033 277.952 284.053 279.005C283.08 280.052 282.293 281.025 281.693 281.925C275.693 279.752 269.77 277.052 263.923 273.825C258.07 270.598 252.65 267.018 247.663 263.085C242.677 259.145 238.383 255.038 234.783 250.765H231.743ZM229.273 246.155L238.943 249.865C235.27 254.812 230.807 259.385 225.553 263.585C220.307 267.785 214.7 271.498 208.733 274.725C202.773 277.952 196.757 280.765 190.683 283.165C190.157 282.412 189.443 281.512 188.543 280.465C187.643 279.412 186.707 278.378 185.733 277.365C184.76 276.358 183.897 275.555 183.143 274.955C189.297 273.075 195.297 270.712 201.143 267.865C206.997 265.012 212.34 261.748 217.173 258.075C222.013 254.402 226.047 250.428 229.273 246.155ZM231.073 312.865V273.715H241.983V312.865H231.073ZM187.083 233.435V223.655H286.533V233.435H187.083ZM211.043 242.775V215.105H221.623V242.775H211.043ZM251.323 243.335V215.105H261.893V243.335" fill="white"/>
<path d="M373.408 222.868V217.358H393.088V222.868H373.408ZM372.728 241.208V235.808H393.878V241.208H372.728ZM372.728 249.638V244.358H393.878V249.638H372.728ZM356.308 302.968V296.108H413.338V302.968H356.308ZM369.468 232.318V226.358H396.468V232.318H369.468ZM387.128 258.528H379.138V264.938H387.128V258.528ZM372.498 270.118V253.358H393.988V270.118H372.498ZM358.218 291.378V284.968H404.898V280.128H351.238V273.718H414.808V291.378H358.218ZM354.388 271.688V246.158H361.478V271.688H354.388ZM344.158 250.088L343.368 243.228C346.668 243.081 350.362 242.931 354.448 242.778C358.535 242.631 362.865 242.444 367.438 242.218V248.408C363.238 248.781 359.172 249.081 355.238 249.308C351.298 249.528 347.605 249.788 344.158 250.088ZM355.178 284.968H365.078C364.178 288.568 363.205 292.318 362.158 296.218C361.105 300.118 360.128 303.491 359.228 306.338L349.668 304.988C350.715 302.214 351.728 299.008 352.708 295.368C353.682 291.734 354.505 288.268 355.178 284.968ZM409.968 297.228V296.108H419.978C419.978 296.108 419.942 296.611 419.868 297.618C419.795 298.631 419.645 299.478 419.418 300.158C418.365 304.804 417.275 308.458 416.148 311.118C415.028 313.784 413.718 315.718 412.218 316.918C410.945 317.818 409.575 318.434 408.108 318.768C406.648 319.108 404.905 319.314 402.878 319.388C401.152 319.468 398.695 319.488 395.508 319.448C392.322 319.408 388.928 319.314 385.328 319.168C385.255 317.968 384.955 316.618 384.428 315.118C383.902 313.618 383.265 312.268 382.518 311.068C386.045 311.441 389.458 311.664 392.758 311.738C396.058 311.818 398.382 311.858 399.728 311.858C400.928 311.858 401.902 311.818 402.648 311.738C403.402 311.664 404.042 311.441 404.568 311.068C405.615 310.241 406.572 308.758 407.438 306.618C408.298 304.484 409.142 301.354 409.968 297.228ZM362.828 254.138L368.228 252.908C368.828 254.781 369.408 256.841 369.968 259.088C370.535 261.341 370.968 263.291 371.268 264.938L365.418 266.518C365.265 264.791 364.945 262.784 364.458 260.498C363.972 258.211 363.428 256.091 362.828 254.138ZM362.488 238.838L367.328 237.038C368.302 238.918 369.202 241.018 370.028 243.338C370.855 245.664 371.418 247.691 371.718 249.418L366.428 251.438C366.202 249.718 365.715 247.694 364.968 245.368C364.215 243.041 363.388 240.864 362.488 238.838ZM344.488 229.958L348.088 224.558C350.268 225.978 352.405 227.608 354.498 229.448C356.605 231.288 358.182 232.881 359.228 234.228L355.178 240.418C354.052 238.844 352.478 237.081 350.458 235.128C348.432 233.181 346.442 231.458 344.488 229.958ZM355.178 214.768L361.588 217.918C360.088 220.391 358.588 222.904 357.088 225.458C355.588 228.004 354.165 230.141 352.818 231.868L347.868 229.278C349.068 227.331 350.382 224.951 351.808 222.138C353.228 219.324 354.352 216.868 355.178 214.768ZM362.378 224.108L368.678 227.708C366.205 231.081 363.562 234.641 360.748 238.388C357.935 242.141 355.292 245.291 352.818 247.838L348.088 244.918C349.668 243.044 351.358 240.908 353.158 238.508C354.958 236.108 356.662 233.631 358.268 231.078C359.882 228.531 361.252 226.208 362.378 224.108ZM346.968 252.458L353.608 253.918C352.928 256.844 352.102 259.768 351.128 262.688C350.155 265.614 349.105 268.128 347.978 270.228C347.305 269.781 346.328 269.274 345.048 268.708C343.775 268.148 342.728 267.681 341.908 267.308C343.182 265.208 344.228 262.861 345.048 260.268C345.875 257.681 346.515 255.078 346.968 252.458ZM406.368 271.688V246.158H413.568V271.688H406.368ZM396.018 250.088L395.338 243.228C398.792 243.081 402.675 242.931 406.988 242.778C411.302 242.631 415.895 242.481 420.768 242.328L420.648 248.518C416.228 248.818 411.935 249.098 407.768 249.358C403.608 249.624 399.692 249.868 396.018 250.088ZM415.138 254.138L420.878 252.458C421.852 254.704 422.808 257.178 423.748 259.878C424.682 262.578 425.338 264.904 425.718 266.858L419.758 268.768C419.458 266.814 418.858 264.451 417.958 261.678C417.058 258.904 416.118 256.391 415.138 254.138ZM414.238 238.618L419.528 236.258C420.802 238.204 421.982 240.358 423.068 242.718C424.162 245.084 424.932 247.168 425.378 248.968L419.638 251.558C419.265 249.758 418.572 247.638 417.558 245.198C416.545 242.758 415.438 240.564 414.238 238.618ZM395.568 229.728L399.388 224.668C401.342 226.014 403.292 227.571 405.238 229.338C407.192 231.098 408.692 232.691 409.738 234.118L405.358 239.968C404.378 238.468 402.972 236.741 401.138 234.788C399.298 232.841 397.442 231.154 395.568 229.728ZM406.588 214.878L413.008 218.138C411.428 220.618 409.852 223.111 408.278 225.618C406.705 228.131 405.205 230.288 403.778 232.088L398.828 229.508C400.102 227.554 401.488 225.171 402.988 222.358C404.488 219.544 405.688 217.051 406.588 214.878ZM414.578 223.658L420.878 227.258C418.332 230.631 415.558 234.191 412.558 237.938C409.558 241.691 406.708 244.841 404.008 247.388L399.388 244.468C401.115 242.594 402.915 240.458 404.788 238.058C406.668 235.658 408.468 233.181 410.188 230.628C411.915 228.081 413.378 225.758 414.578 223.658ZM398.828 252.458L405.358 254.028C404.832 256.801 404.082 259.631 403.108 262.518C402.128 265.411 401.078 267.868 399.958 269.888C399.358 269.514 398.458 269.008 397.258 268.368C396.058 267.734 395.008 267.231 394.108 266.858C395.302 264.758 396.275 262.468 397.028 259.988C397.775 257.514 398.375 255.004 398.828 252.458ZM322.328 223.538L328.518 216.568C330.392 217.541 332.358 218.721 334.418 220.108C336.485 221.494 338.418 222.881 340.218 224.268C342.018 225.661 343.482 226.994 344.608 228.268L338.188 236.138C337.142 234.864 335.735 233.478 333.968 231.978C332.208 230.478 330.315 228.998 328.288 227.538C326.268 226.071 324.282 224.738 322.328 223.538ZM319.968 253.578L325.818 246.268C327.765 247.168 329.808 248.274 331.948 249.588C334.088 250.901 336.075 252.211 337.908 253.518C339.748 254.831 341.268 256.088 342.468 257.288L336.278 265.388C335.152 264.188 333.672 262.878 331.838 261.458C329.998 260.031 328.028 258.624 325.928 257.238C323.828 255.851 321.842 254.631 319.968 253.578ZM331.778 318.158L322.218 312.758C323.645 309.758 325.162 306.268 326.768 302.288C328.382 298.314 330.032 294.114 331.718 289.688C333.412 285.268 334.968 280.918 336.388 276.638L344.828 282.038C343.628 286.018 342.278 290.108 340.778 294.308C339.278 298.508 337.778 302.631 336.278 306.678C334.778 310.731 333.278 314.558 331.778 318.158Z" fill="white"/>
<path d="M302.481 208H166.981V348.5H302.481V208Z" stroke="white" stroke-width="2" stroke-dasharray="5 5"/>
<path d="M439.981 208H304.481V348.5H439.981V208Z" stroke="white" stroke-width="2" stroke-dasharray="5 5"/>
<path d="M743.23 236.5H799.48V274C800.59 309.082 777.22 340.243 743.23 349C709.24 340.243 685.87 309.082 686.98 274V236.5H743.23Z" fill="#E9B500"/>
<path d="M739.32 252.904C753.977 252.629 763.035 258.871 766.492 271.631L767.043 271.998L767.227 272.916L767.41 273.65L767.594 274.385L767.777 274.752L768.145 276.404V277.322C768.267 277.506 768.328 277.689 768.328 277.873L768.695 279.892L769.063 283.014L769.43 285.951C770.47 308.839 763.004 321.813 747.031 324.873C731.365 327.076 721.757 322.18 718.207 310.185L722.063 308.9C722.185 308.747 722.307 308.686 722.43 308.717L724.082 307.982C724.847 307.768 725.459 307.523 725.918 307.248L726.469 307.064H727.02C727.142 306.911 727.264 306.85 727.387 306.881L727.938 306.697L730.875 305.412H731.609C733.598 310.92 737.576 313.184 743.543 312.205C749.877 310.767 753.61 306.789 754.742 300.271L754.926 297.334C746.725 302.597 738.464 303.76 730.141 300.822C721.848 297.211 717.442 291.214 716.922 282.83C715.178 264.318 722.644 254.342 739.32 252.904ZM740.789 266.123C735.985 267.316 732.864 270.07 731.426 274.385C730.171 283.228 733.537 288.368 741.524 289.807C749.908 288.95 753.947 284.482 753.641 276.404C752.019 269.366 747.735 265.939 740.789 266.123Z" fill="black"/>
<path d="M167.5 125.05V114.03H218.17V125.05H198.89V184.35H186.78V125.05" fill="white"/>
<path d="M260.889 140.277L260.339 141.017L259.789 141.567L259.239 141.937L258.499 143.037L258.139 143.407L257.769 143.587C257.369 144.14 257.003 144.567 256.669 144.867L254.279 147.627C249.199 144.354 244.993 142.717 241.659 142.717C238.233 142.717 235.709 144.414 234.089 147.807C234.149 149.8 234.943 151.27 236.469 152.217C237.143 152.397 237.633 152.58 237.939 152.767C239.133 152.947 240.113 153.19 240.879 153.497C252.473 154.357 258.959 159.01 260.339 167.457C260.399 167.824 260.429 168.18 260.429 168.527C260.429 168.88 260.429 169.227 260.429 169.567C260.429 175.714 257.829 180.334 252.629 183.427C248.896 185.107 245.146 185.947 241.379 185.947C234.219 185.947 227.076 182.904 219.949 176.817L220.319 176.087L221.229 175.167C221.843 174.434 222.396 173.88 222.889 173.507C223.009 173.294 223.129 173.174 223.249 173.147L223.619 172.597C223.739 172.384 223.863 172.26 223.989 172.227L224.169 171.857L224.539 171.677L226.929 168.917C231.456 173.204 236.196 175.347 241.149 175.347C243.229 175.347 245.343 174.98 247.489 174.247C248.036 173.514 248.586 172.964 249.139 172.597C249.326 171.864 249.419 171.174 249.419 170.527C249.419 168.934 248.899 167.604 247.859 166.537L243.629 165.067C231.023 164.3 224.169 158.914 223.069 148.907C223.896 138.84 229.586 133.457 240.139 132.757H240.789C248.896 132.757 255.596 135.264 260.889 140.277Z" fill="white"/>
<path d="M273.268 170.026V134.226H284.288V165.986C284.408 166.139 284.468 166.322 284.468 166.536C284.594 166.629 284.658 166.719 284.658 166.806V166.906C284.871 168.279 285.174 169.502 285.568 170.576C287.681 173.509 290.391 174.976 293.698 174.976H293.838C297.938 173.876 300.811 171.612 302.458 168.186V167.636L303.198 165.436V134.226H314.398V184.346H303.198V180.306C298.791 183.912 294.401 185.716 290.028 185.716C286.628 185.716 283.184 184.646 279.698 182.506C276.851 180.332 274.891 177.762 273.818 174.796L273.638 173.506C273.364 172.619 273.228 171.749 273.228 170.896V170.486C273.228 170.332 273.241 170.179 273.268 170.026Z" fill="white"/>
<path d="M372.817 154.794L372.997 157.544C373.117 157.698 373.177 157.881 373.177 158.094V163.604H339.587C340.287 169.844 343.467 173.518 349.127 174.624C350.047 174.711 350.951 174.754 351.837 174.754C356.457 174.754 360.391 173.241 363.637 170.214C364.031 170.888 364.521 171.438 365.107 171.864L365.287 172.414L365.837 172.964C366.264 173.364 366.631 173.741 366.937 174.094C367.244 174.448 367.491 174.808 367.677 175.174C367.891 175.294 368.011 175.414 368.037 175.534L370.607 178.474C364.794 183.341 358.597 185.774 352.017 185.774C350.891 185.774 349.744 185.698 348.577 185.544C347.417 185.391 346.254 185.178 345.087 184.904C334.501 181.384 328.687 173.794 327.647 162.134C327.647 161.981 327.641 161.674 327.627 161.214C327.614 160.761 327.607 160.471 327.607 160.344C327.607 144.404 334.781 135.331 349.127 133.124C363.387 133.618 371.284 140.841 372.817 154.794ZM339.397 154.974H361.617V154.424C361.491 154.058 361.427 153.691 361.427 153.324V152.954C361.121 152.281 360.937 151.671 360.877 151.124C358.617 145.891 354.884 143.258 349.677 143.224C343.131 144.784 339.704 148.701 339.397 154.974Z" fill="white"/>
<path d="M426.031 143.037V143.587C426.431 144.32 426.677 145.054 426.771 145.787V184.157H415.571V151.667L415.381 150.567C413.854 145.94 411.284 143.627 407.671 143.627C406.571 143.627 405.347 143.857 404.001 144.317C400.941 145.637 398.737 147.72 397.391 150.567L396.661 153.687V184.157H385.641V134.037H396.661V138.257C400.087 135.197 403.821 133.364 407.861 132.757H408.681C416.881 132.757 422.664 136.184 426.031 143.037Z" fill="white"/>
<path d="M465.172 114.584V114.214H477.842L478.022 115.504L478.212 116.054L478.572 117.344L478.942 119.544L479.492 121.374L479.862 123.584L480.412 125.414L480.592 126.884C480.806 127.404 480.929 127.834 480.962 128.174L481.142 128.904L481.512 130.004V130.744C481.632 130.837 481.692 130.927 481.692 131.014V131.664C482.032 132.337 482.219 133.071 482.252 133.864L482.612 134.964L482.982 136.254L483.352 138.454L483.902 140.284L484.082 141.394L485.182 145.984C485.276 146.411 485.362 146.801 485.442 147.154C485.516 147.501 485.552 147.844 485.552 148.184L485.922 148.914V149.654L486.282 150.574V151.304L486.652 152.034V152.774C486.992 153.694 487.176 154.491 487.202 155.164L487.392 155.894C487.606 156.507 487.772 157.074 487.892 157.594C488.012 158.114 488.089 158.587 488.122 159.014L488.492 160.484L488.862 161.764L489.222 160.664L489.962 156.994L490.322 156.074L490.512 154.974L491.062 152.404L491.432 151.124V150.574L492.162 147.634L492.342 146.534L492.712 145.794L492.892 145.064L493.082 144.144V143.414L493.262 142.854L494.002 139.924L494.362 137.714L494.552 136.984L494.912 136.254C494.979 135.274 495.162 134.414 495.462 133.674L495.652 132.764V132.214L496.022 130.744L496.202 130.194L496.752 127.804L496.932 126.704L497.302 125.604L497.482 124.684L498.032 122.294L498.222 121.374L498.402 121.014C498.436 120.674 498.476 120.344 498.522 120.024C498.569 119.704 498.652 119.421 498.772 119.174L498.952 118.624V118.074L499.142 117.344L499.322 116.784L499.872 114.214H513.462V114.764C513.889 115.837 514.132 116.881 514.192 117.894L514.562 119.354L514.742 119.914L515.482 123.214L515.842 124.684C516.089 125.571 516.212 126.304 516.212 126.884C516.426 127.404 516.549 127.834 516.582 128.174L516.942 129.454L517.132 130.744L517.312 131.474L517.502 132.024C517.589 132.424 517.666 132.784 517.732 133.104C517.792 133.424 517.836 133.737 517.862 134.044C518.109 134.624 518.279 135.161 518.372 135.654C518.466 136.141 518.542 136.584 518.602 136.984L518.782 138.084L519.152 139.004L519.332 140.104V140.654C519.639 141.387 519.822 142.061 519.882 142.674L520.072 143.774C520.372 144.507 520.556 145.181 520.622 145.794L520.802 146.714L521.352 148.734V149.464C521.472 149.744 521.532 150.051 521.532 150.384C521.872 151.091 522.059 151.704 522.092 152.224L522.272 153.144L522.452 154.244L522.642 154.974C522.949 155.921 523.132 156.777 523.192 157.544C523.312 157.637 523.372 157.731 523.372 157.824V158.464C523.799 159.537 524.046 160.577 524.112 161.584C524.292 161.524 524.412 161.401 524.472 161.214C524.626 160.454 524.779 159.791 524.932 159.224C525.086 158.657 525.239 158.161 525.392 157.734V156.994C525.792 155.894 526.036 154.914 526.122 154.054L526.492 152.774L527.232 149.834L527.412 148.364L527.782 147.084L527.962 146.534V145.984C528.176 145.397 528.346 144.867 528.472 144.394C528.592 143.921 528.666 143.471 528.692 143.044L529.062 141.754L530.532 135.694L531.082 132.764L531.452 131.294C531.786 130.407 531.969 129.674 532.002 129.094L532.182 128.174L532.552 126.704C532.826 125.817 533.009 125.084 533.102 124.504L533.282 123.764L533.842 121.194L534.202 120.094V119.544L534.752 118.074V117.344L534.942 116.784L535.492 114.214H547.972L547.242 117.894L546.692 120.094L546.502 120.644L545.952 123.214L545.592 124.684L545.222 125.964L544.482 129.644L544.122 130.924L543.382 134.414L543.022 135.694L542.832 136.254L542.462 138.264L542.282 138.634L542.102 139.924C541.796 140.931 541.612 141.787 541.552 142.494L540.812 144.694L540.632 145.984L540.442 146.714L540.262 147.264L540.082 148.554L539.892 149.104L538.792 153.694L538.612 154.974L538.242 156.264L537.322 159.934L537.142 161.214L536.042 165.804L535.492 168.374C535.152 169.294 534.969 170.091 534.942 170.764L534.202 173.154V173.884C533.869 174.804 533.686 175.601 533.652 176.274C533.346 177.281 533.162 178.137 533.102 178.844L532.732 180.124L532.552 180.494L532.372 181.784C532.066 182.791 531.882 183.647 531.822 184.354H518.232L518.052 182.884C517.839 182.364 517.716 181.934 517.682 181.594L517.312 180.124L517.132 178.844L516.762 177.554C516.669 177.187 516.592 176.837 516.532 176.504C516.472 176.164 516.426 175.841 516.392 175.534L516.212 174.804L516.032 173.884C515.906 173.731 515.842 173.547 515.842 173.334L515.662 172.414L515.482 171.864C515.389 171.471 515.312 171.111 515.252 170.784C515.186 170.464 515.139 170.151 515.112 169.844C514.899 169.264 514.739 168.731 514.632 168.244C514.526 167.751 514.439 167.307 514.372 166.914L514.192 166.174L514.012 165.254C513.886 164.887 513.799 164.537 513.752 164.204C513.712 163.864 513.676 163.541 513.642 163.234C513.429 162.627 513.262 162.047 513.142 161.494C513.016 160.941 512.939 160.421 512.912 159.934C512.786 159.781 512.722 159.597 512.722 159.384L512.542 158.644L512.362 158.094C512.269 157.454 512.146 156.844 511.992 156.264L511.622 154.604L511.442 153.504L511.072 152.594L510.702 150.384L510.522 149.834V149.284C510.216 148.551 510.032 147.877 509.972 147.264L509.602 145.064L509.232 144.144L508.872 142.674V141.944C508.506 140.931 508.322 140.074 508.322 139.374C508.196 139.221 508.132 139.037 508.132 138.824L507.952 138.264V137.714C507.646 137.014 507.462 136.281 507.402 135.514C507.096 134.534 506.912 133.617 506.852 132.764L506.482 133.494L506.302 134.594L505.752 136.984L505.382 139.004L505.192 139.554L504.462 142.674L504.282 143.414L503.912 145.244L503.732 145.984L503.362 148.004L503.182 148.554L502.442 152.034L502.072 153.324L501.892 154.604C501.559 155.524 501.376 156.321 501.342 156.994L501.162 157.364L500.972 158.464L500.792 159.014L499.872 163.604L499.692 164.154L498.952 167.644L498.772 168.374L498.592 169.294L498.402 169.844L497.672 173.334L497.302 174.804L496.932 176.644L496.752 177.004L496.382 178.664L496.202 179.394L496.022 180.674C495.802 181.441 495.679 182.054 495.652 182.514C495.526 182.821 495.442 183.111 495.402 183.384C495.356 183.664 495.316 183.924 495.282 184.164C494.856 184.231 494.466 184.284 494.112 184.324C493.759 184.371 493.416 184.394 493.082 184.394H492.622C492.469 184.394 492.316 184.381 492.162 184.354H481.512V183.614C481.086 182.514 480.842 181.474 480.782 180.494C480.656 180.341 480.592 180.157 480.592 179.944L480.412 179.024C479.739 176.851 479.309 175.014 479.122 173.514L478.942 172.964L478.022 169.484L477.842 168.014L476.372 162.324V161.584C476.066 160.884 475.882 160.151 475.822 159.384L475.452 158.284L475.092 156.994V156.444L474.172 152.774V152.224L473.982 151.484L473.622 150.754L473.432 149.284C473.192 148.551 472.996 147.877 472.842 147.264C472.689 146.651 472.582 146.101 472.522 145.614L472.332 145.064V144.514C472.212 144.361 472.152 144.177 472.152 143.964L471.782 142.494L471.602 141.944C471.476 141.297 471.359 140.714 471.252 140.194C471.146 139.674 471.016 139.217 470.862 138.824L470.682 137.534C470.469 136.921 470.299 136.354 470.172 135.834C470.052 135.314 469.976 134.841 469.942 134.414L469.762 133.494C469.642 133.341 469.582 133.157 469.582 132.944L468.662 129.274L468.292 127.984L468.112 127.074L467.932 126.334L467.742 125.054C467.496 124.407 467.372 123.854 467.372 123.394V123.214L467.012 122.294L466.822 121.564C466.702 120.677 466.519 119.941 466.272 119.354V118.624C466.152 118.471 466.092 118.287 466.092 118.074" fill="white"/>
<path d="M591.547 138.635L592.107 139.735C593.54 141.515 594.457 143.351 594.857 145.245C594.977 146.038 595.067 146.781 595.127 147.475C595.193 148.161 595.227 148.765 595.227 149.285V173.515C596.353 175.755 598.003 177.101 600.177 177.555L599.817 178.105C599.69 178.325 599.567 178.448 599.447 178.475L599.267 179.025L598.897 179.395C598.59 180.068 598.223 180.618 597.797 181.045C597.363 182.178 596.81 183.035 596.137 183.615C595.863 184.228 595.603 184.758 595.357 185.205C595.117 185.645 594.89 186.035 594.677 186.375C591.097 185.455 588.28 183.801 586.227 181.415H585.677C581.73 184.261 577.66 185.685 573.467 185.685C571.2 185.685 568.967 185.301 566.767 184.535C560.187 182.181 556.21 177.898 554.837 171.685V171.455C554.837 159.615 561.767 153.695 575.627 153.695H575.767C576.04 153.568 576.343 153.505 576.677 153.505L577.227 153.325H578.517L579.067 153.145H579.617L584.207 152.595C584.267 152.255 584.297 151.948 584.297 151.675V150.755C584.297 145.641 581.59 143.085 576.177 143.085C572.41 143.085 567.253 144.355 560.707 146.895L559.977 145.245L559.607 144.145L559.237 143.775L559.057 143.415L558.687 142.305C558.353 141.758 558.11 141.208 557.957 140.655C557.31 139.801 556.88 138.945 556.667 138.085L557.217 137.905L557.587 137.715L558.137 137.535L558.507 137.165H559.057C559.177 137.045 559.283 136.985 559.377 136.985H559.427C560.527 136.405 561.503 135.975 562.357 135.695L563.277 135.515C563.95 135.208 564.563 135.025 565.117 134.965L566.587 134.595C567.653 134.168 568.693 133.925 569.707 133.865L573.747 133.125C574.353 133.065 574.94 133.011 575.507 132.965C576.073 132.918 576.633 132.895 577.187 132.895C583.027 132.895 587.813 134.808 591.547 138.635ZM579.797 161.955H578.697C578.423 162.015 578.157 162.061 577.897 162.095C577.637 162.121 577.383 162.135 577.137 162.135H576.867L576.127 162.325H575.577C575.423 162.445 575.24 162.505 575.027 162.505H574.477L571.537 163.235H570.987C570.133 163.728 569.4 164.035 568.787 164.155C566.8 166.055 565.807 167.891 565.807 169.665C565.807 171.285 566.617 172.875 568.237 174.435C570.59 175.875 572.883 176.595 575.117 176.595C577.963 176.595 580.687 175.448 583.287 173.155C583.533 172.448 583.78 171.958 584.027 171.685L584.207 171.135L584.027 170.395V161.765H580.357C580.203 161.891 580.017 161.955 579.797 161.955Z" fill="white"/>
<path d="M654.031 143.037V143.587C654.431 144.32 654.677 145.054 654.771 145.787V184.157H643.571V151.667L643.381 150.567C641.854 145.94 639.284 143.627 635.671 143.627C634.571 143.627 633.347 143.857 632.001 144.317C628.941 145.637 626.737 147.72 625.391 150.567L624.661 153.687V184.157H613.641V134.037H624.661V138.257C628.087 135.197 631.821 133.364 635.861 132.757H636.681C644.881 132.757 650.664 136.184 654.031 143.037Z" fill="white"/>
<path d="M217.481 108H166.981V206H217.481V108Z" stroke="white" stroke-width="2" stroke-dasharray="5 5"/>
<path d="M264.981 108H219.481V206H264.981V108Z" stroke="white" stroke-width="2" stroke-dasharray="5 5"/>
<path d="M322.481 108H266.981V206H322.481V108Z" stroke="white" stroke-width="2" stroke-dasharray="5 5"/>
<path d="M376.981 108H324.481V206H376.981V108Z" stroke="white" stroke-width="2" stroke-dasharray="5 5"/>
<path d="M432.981 108H378.981V206H432.981V108Z" stroke="white" stroke-width="2" stroke-dasharray="5 5"/>
<path d="M457.981 108H434.981V206H457.981V108Z" stroke="white" stroke-width="2" stroke-dasharray="5 5"/>
<path d="M549.481 108H459.981V206H549.481V108Z" stroke="white" stroke-width="2" stroke-dasharray="5 5"/>
<path d="M604.981 108H551.481V206H604.981V108Z" stroke="white" stroke-width="2" stroke-dasharray="5 5"/>
<path d="M660.981 108H606.981V206H660.981V108Z" stroke="white" stroke-width="2" stroke-dasharray="5 5"/>
<path d="M743.231 107H790.111C795.285 107.003 799.479 111.196 799.481 116.37V210.13C799.479 215.304 795.285 219.497 790.111 219.5H696.351C691.177 219.497 686.984 215.304 686.981 210.13V116.37C686.984 111.196 691.177 107.003 696.351 107H743.231ZM743.231 110.125H696.356C692.904 110.125 690.106 112.923 690.106 116.375V210.125C690.106 213.577 692.904 216.375 696.356 216.375H790.106C793.558 216.375 796.356 213.577 796.356 210.125V116.015C796.357 112.707 793.779 109.971 790.476 109.775L743.231 110.125Z" fill="white"/>
<path d="M746.356 122.625H752.606L755.381 141.375H746.356V122.625Z" fill="white"/>
<path d="M740.106 122.625V141.375H731.081L733.856 122.625H740.106Z" fill="white"/>
<path d="M743.231 147.625H786.981V153.875H780.726C779.004 153.878 777.609 155.273 777.606 156.995V166.375H771.356L768.821 156.245C768.475 154.853 767.225 153.876 765.791 153.875H720.671C719.237 153.876 717.988 154.853 717.641 156.245L715.106 166.375H708.856V156.995C708.853 155.273 707.458 153.878 705.736 153.875H699.481V147.625H743.231Z" fill="white"/>
<path d="M746.356 160.125H758.156L761.981 207H746.356V160.125Z" fill="white"/>
<path d="M740.106 160.125V207H724.481L728.306 160.125H740.106Z" fill="white"/>
<path d="M799.773 149.212V34" stroke="#46C147" stroke-width="3.03189"/>
<path d="M831 149.212V34" stroke="#46C147" stroke-width="3.03189"/>
<path d="M799.773 58.2552H828.122" stroke="#46C147" stroke-width="3.03189"/>
<path d="M826 58.2552L850.255 52.1914V64.319L826 58.2552Z" fill="#46C147"/>
<path d="M806.255 58.2552L782 52.1914V64.319L806.255 58.2552Z" fill="#46C147"/>
<path d="M873.739 70.712V68.3864L882.473 58.8256C883.498 57.7058 884.342 56.7325 885.005 55.9056C885.669 55.0702 886.159 54.2863 886.478 53.5542C886.805 52.8135 886.969 52.0383 886.969 51.2286C886.969 50.2984 886.745 49.493 886.297 48.8126C885.858 48.1321 885.255 47.6067 884.488 47.2363C883.722 46.866 882.861 46.6808 881.904 46.6808C880.888 46.6808 880.001 46.8918 879.243 47.3138C878.494 47.7273 877.912 48.3087 877.499 49.058C877.094 49.8074 876.892 50.686 876.892 51.6937H873.842C873.842 50.1433 874.2 48.7824 874.915 47.611C875.63 46.4396 876.603 45.5266 877.835 44.872C879.075 44.2173 880.466 43.89 882.008 43.89C883.558 43.89 884.932 44.2173 886.129 44.872C887.327 45.5266 888.265 46.4094 888.946 47.5206C889.626 48.6317 889.967 49.8677 889.967 51.2286C889.967 52.2019 889.79 53.1537 889.437 54.0839C889.092 55.0056 888.489 56.0348 887.628 57.1718C886.775 58.3002 885.591 59.6783 884.075 61.3062L878.132 67.6629V67.8696H890.432V70.712H873.739ZM898.042 70.9187C897.404 70.9187 896.857 70.6904 896.401 70.2339C895.944 69.7774 895.716 69.2305 895.716 68.5931C895.716 67.9557 895.944 67.4088 896.401 66.9523C896.857 66.4957 897.404 66.2675 898.042 66.2675C898.679 66.2675 899.226 66.4957 899.682 66.9523C900.139 67.4088 900.367 67.9557 900.367 68.5931C900.367 69.0151 900.26 69.4027 900.044 69.7559C899.837 70.109 899.558 70.3933 899.204 70.6086C898.86 70.8153 898.472 70.9187 898.042 70.9187ZM913.523 71.0737C912.007 71.0737 910.642 70.7723 909.427 70.1693C908.213 69.5664 907.24 68.7395 906.507 67.6887C905.775 66.6379 905.375 65.4406 905.306 64.0969H908.407C908.527 65.2942 909.07 66.2847 910.035 67.0685C911.008 67.8437 912.171 68.2313 913.523 68.2313C914.608 68.2313 915.573 67.9772 916.417 67.4691C917.27 66.9609 917.937 66.2632 918.42 65.376C918.911 64.4802 919.156 63.4682 919.156 62.3398C919.156 61.1856 918.902 60.1563 918.394 59.2519C917.894 58.3389 917.205 57.6197 916.327 57.0943C915.448 56.5689 914.445 56.3019 913.316 56.2932C912.507 56.2846 911.675 56.4095 910.823 56.6679C909.97 56.9177 909.268 57.2407 908.717 57.6369L905.719 57.2752L907.321 44.2518H921.068V47.0942H910.009L909.078 54.8979H909.234C909.776 54.4672 910.457 54.1098 911.275 53.8255C912.093 53.5413 912.946 53.3992 913.833 53.3992C915.452 53.3992 916.895 53.7868 918.161 54.562C919.436 55.3286 920.435 56.3794 921.159 57.7144C921.891 59.0495 922.257 60.5741 922.257 62.2881C922.257 63.9763 921.878 65.4837 921.12 66.8101C920.371 68.128 919.337 69.1702 918.019 69.9368C916.701 70.6947 915.203 71.0737 913.523 71.0737ZM941.498 55.3113L938.759 56.0865C938.587 55.63 938.333 55.1864 937.997 54.7558C937.669 54.3165 937.221 53.9547 936.653 53.6705C936.085 53.3862 935.357 53.2441 934.47 53.2441C933.255 53.2441 932.243 53.5241 931.433 54.0839C930.632 54.6352 930.232 55.3372 930.232 56.1899C930.232 56.9479 930.507 57.5465 931.059 57.9858C931.61 58.425 932.471 58.7911 933.643 59.084L936.588 59.8075C938.363 60.2382 939.685 60.8971 940.555 61.7843C941.425 62.6628 941.86 63.7955 941.86 65.1822C941.86 66.3192 941.532 67.3355 940.878 68.2313C940.232 69.1271 939.327 69.8334 938.165 70.3502C937.002 70.867 935.65 71.1254 934.108 71.1254C932.084 71.1254 930.408 70.6861 929.082 69.8076C927.755 68.929 926.916 67.6456 926.562 65.9574L929.457 65.2339C929.732 66.3019 930.253 67.103 931.02 67.637C931.795 68.171 932.807 68.4381 934.056 68.4381C935.477 68.4381 936.606 68.1366 937.441 67.5337C938.285 66.9221 938.707 66.19 938.707 65.3373C938.707 64.6482 938.466 64.0711 937.984 63.606C937.501 63.1322 936.761 62.7791 935.762 62.5465L932.454 61.7713C930.637 61.3407 929.302 60.6731 928.449 59.7687C927.605 58.8557 927.183 57.7144 927.183 56.3449C927.183 55.2252 927.497 54.2347 928.126 53.3733C928.763 52.512 929.629 51.8358 930.723 51.3449C931.825 50.8539 933.074 50.6084 934.47 50.6084C936.433 50.6084 937.975 51.0391 939.095 51.9004C940.223 52.7618 941.024 53.8987 941.498 55.3113ZM950.946 70.712L944.899 50.8668H948.103L952.393 66.0608H952.6L956.837 50.8668H960.093L964.279 66.0091H964.486L968.775 50.8668H971.98L965.933 70.712H962.936L958.594 55.4664H958.284L953.943 70.712H950.946Z" fill="#46C147"/>
<path d="M167.227 149.212V34" stroke="#46C147" stroke-width="3.03189"/>
<path d="M136 149.212V34" stroke="#46C147" stroke-width="3.03189"/>
<path d="M167.227 58.2552H138.878" stroke="#46C147" stroke-width="3.03189"/>
<path d="M141 58.2552L116.745 52.1914V64.319L141 58.2552Z" fill="#46C147"/>
<path d="M160.745 58.2552L185 52.1914V64.319L160.745 58.2552Z" fill="#46C147"/>
<path d="M2.73904 70.712V68.3864L11.473 58.8256C12.498 57.7058 13.3421 56.7325 14.0053 55.9056C14.6685 55.0702 15.1595 54.2863 15.4782 53.5542C15.8055 52.8135 15.9691 52.0383 15.9691 51.2286C15.9691 50.2984 15.7452 49.493 15.2973 48.8126C14.858 48.1321 14.2551 47.6067 13.4885 47.2363C12.7219 46.866 11.8606 46.6808 10.9045 46.6808C9.88811 46.6808 9.00094 46.8918 8.24296 47.3138C7.4936 47.7273 6.9122 48.3087 6.49876 49.058C6.09394 49.8074 5.89152 50.686 5.89152 51.6937H2.8424C2.8424 50.1433 3.19985 48.7824 3.91476 47.611C4.62967 46.4396 5.60298 45.5266 6.83468 44.872C8.075 44.2173 9.46606 43.89 11.0078 43.89C12.5582 43.89 13.9321 44.2173 15.1293 44.872C16.3266 45.5266 17.2654 46.4094 17.9459 47.5206C18.6263 48.6317 18.9666 49.8677 18.9666 51.2286C18.9666 52.2019 18.79 53.1537 18.4368 54.0839C18.0923 55.0056 17.4894 56.0348 16.628 57.1718C15.7753 58.3002 14.591 59.6783 13.075 61.3062L7.13184 67.6629V67.8696H19.4317V70.712H2.73904ZM27.0416 70.9187C26.4042 70.9187 25.8572 70.6904 25.4007 70.2339C24.9442 69.7774 24.716 69.2305 24.716 68.5931C24.716 67.9557 24.9442 67.4088 25.4007 66.9523C25.8572 66.4957 26.4042 66.2675 27.0416 66.2675C27.679 66.2675 28.2259 66.4957 28.6824 66.9523C29.1389 67.4088 29.3672 67.9557 29.3672 68.5931C29.3672 69.0151 29.2595 69.4027 29.0442 69.7559C28.8375 70.109 28.5575 70.3933 28.2044 70.6086C27.8598 70.8153 27.4722 70.9187 27.0416 70.9187ZM42.523 71.0737C41.007 71.0737 39.6418 70.7723 38.4273 70.1693C37.2128 69.5664 36.2395 68.7395 35.5074 67.6887C34.7753 66.6379 34.3748 65.4406 34.3058 64.0969H37.4066C37.5272 65.2942 38.0699 66.2847 39.0346 67.0685C40.0079 67.8437 41.1707 68.2313 42.523 68.2313C43.6083 68.2313 44.5729 67.9772 45.4171 67.4691C46.2698 66.9609 46.9373 66.2632 47.4197 65.376C47.9106 64.4802 48.1561 63.4682 48.1561 62.3398C48.1561 61.1856 47.902 60.1563 47.3938 59.2519C46.8942 58.3389 46.2052 57.6197 45.3266 57.0943C44.4481 56.5689 43.4446 56.3019 42.3163 56.2932C41.5066 56.2846 40.6754 56.4095 39.8227 56.6679C38.97 56.9177 38.268 57.2407 37.7167 57.6369L34.7193 57.2752L36.3214 44.2518H50.0683V47.0942H39.0087L38.0785 54.8979H38.2335C38.7762 54.4672 39.4566 54.1098 40.2749 53.8255C41.0932 53.5413 41.9459 53.3992 42.8331 53.3992C44.4524 53.3992 45.8951 53.7868 47.1613 54.562C48.436 55.3286 49.4352 56.3794 50.1587 57.7144C50.8908 59.0495 51.2569 60.5741 51.2569 62.2881C51.2569 63.9763 50.8779 65.4837 50.1199 66.8101C49.3706 68.128 48.337 69.1702 47.0191 69.9368C45.7013 70.6947 44.2026 71.0737 42.523 71.0737ZM70.498 55.3113L67.759 56.0865C67.5867 55.63 67.3326 55.1864 66.9967 54.7558C66.6694 54.3165 66.2215 53.9547 65.653 53.6705C65.0845 53.3862 64.3567 53.2441 63.4695 53.2441C62.255 53.2441 61.243 53.5241 60.4333 54.0839C59.6323 54.6352 59.2318 55.3372 59.2318 56.1899C59.2318 56.9479 59.5074 57.5465 60.0586 57.9858C60.6099 58.425 61.4712 58.7911 62.6426 59.084L65.5884 59.8075C67.3628 60.2382 68.6849 60.8971 69.5549 61.7843C70.4248 62.6628 70.8598 63.7955 70.8598 65.1822C70.8598 66.3192 70.5325 67.3355 69.8779 68.2313C69.2319 69.1271 68.3275 69.8334 67.1647 70.3502C66.0019 70.867 64.6496 71.1254 63.1078 71.1254C61.0836 71.1254 59.4083 70.6861 58.0819 69.8076C56.7554 68.929 55.9156 67.6456 55.5625 65.9574L58.4566 65.2339C58.7322 66.3019 59.2533 67.103 60.0199 67.637C60.7951 68.171 61.8072 68.4381 63.0561 68.4381C64.4773 68.4381 65.6056 68.1366 66.4411 67.5337C67.2852 66.9221 67.7073 66.19 67.7073 65.3373C67.7073 64.6482 67.4661 64.0711 66.9838 63.606C66.5014 63.1322 65.7607 62.7791 64.7615 62.5465L61.454 61.7713C59.6366 61.3407 58.3015 60.6731 57.4488 59.7687C56.6047 58.8557 56.1826 57.7144 56.1826 56.3449C56.1826 55.2252 56.497 54.2347 57.1258 53.3733C57.7632 52.512 58.6288 51.8358 59.7227 51.3449C60.8252 50.8539 62.0742 50.6084 63.4695 50.6084C65.4334 50.6084 66.9752 51.0391 68.0949 51.9004C69.2232 52.7618 70.0243 53.8987 70.498 55.3113ZM79.9458 70.712L73.8992 50.8668H77.1034L81.3928 66.0608H81.5995L85.8373 50.8668H89.0931L93.2792 66.0091H93.4859L97.7754 50.8668H100.98L94.933 70.712H91.9355L87.5944 55.4664H87.2843L82.9432 70.712H79.9458Z" fill="#46C147"/>
<path d="M350 66.9999H465.212" stroke="#FF0000" stroke-width="3.03189"/>
<path d="M350 75.5H465.212" stroke="#FF0000" stroke-width="3.03189"/>
<path d="M441.212 46.75V75.5" stroke="#FF0000" stroke-width="3.03189"/>
<path d="M441.148 71.9999L447.212 96.2551H435.084L441.148 71.9999Z" fill="#FF0000"/>
<path d="M441.148 70.2551L447.212 45.9999H435.084L441.148 70.2551Z" fill="#FF0000"/>
<path d="M379.582 35.3618C377.635 35.3618 375.977 34.832 374.607 33.7726C373.238 32.7045 372.191 31.1585 371.468 29.1343C370.744 27.1016 370.383 24.6468 370.383 21.7699C370.383 18.9103 370.744 16.4684 371.468 14.4443C372.2 12.4115 373.251 10.8611 374.62 9.79307C375.998 8.7164 377.652 8.17807 379.582 8.17807C381.511 8.17807 383.16 8.7164 384.53 9.79307C385.908 10.8611 386.959 12.4115 387.682 14.4443C388.415 16.4684 388.781 18.9103 388.781 21.7699C388.781 24.6468 388.419 27.1016 387.695 29.1343C386.972 31.1585 385.925 32.7045 384.556 33.7726C383.186 34.832 381.528 35.3618 379.582 35.3618ZM379.582 32.5194C381.511 32.5194 383.01 31.5891 384.078 29.7286C385.146 27.8682 385.68 25.2152 385.68 21.7699C385.68 19.4788 385.434 17.5278 384.943 15.9172C384.461 14.3065 383.763 13.0791 382.85 12.2349C381.946 11.3908 380.856 10.9688 379.582 10.9688C377.669 10.9688 376.175 11.9119 375.098 13.7983C374.022 15.676 373.483 18.3332 373.483 21.7699C373.483 24.0611 373.725 26.0077 374.207 27.6098C374.689 29.2118 375.383 30.4306 376.287 31.2661C377.2 32.1016 378.298 32.5194 379.582 32.5194ZM395.04 35.2067C394.403 35.2067 393.856 34.9785 393.4 34.522C392.943 34.0655 392.715 33.5185 392.715 32.8811C392.715 32.2437 392.943 31.6968 393.4 31.2403C393.856 30.7838 394.403 30.5555 395.04 30.5555C395.678 30.5555 396.225 30.7838 396.681 31.2403C397.138 31.6968 397.366 32.2437 397.366 32.8811C397.366 33.3032 397.258 33.6908 397.043 34.0439C396.836 34.3971 396.556 34.6813 396.203 34.8966C395.859 35.1034 395.471 35.2067 395.04 35.2067ZM410.522 35.3618C409.006 35.3618 407.641 35.0603 406.426 34.4574C405.212 33.8544 404.238 33.0275 403.506 31.9767C402.774 30.9259 402.374 29.7286 402.305 28.385H405.406C405.526 29.5822 406.069 30.5727 407.033 31.3566C408.007 32.1318 409.17 32.5194 410.522 32.5194C411.607 32.5194 412.572 32.2653 413.416 31.7571C414.269 31.2489 414.936 30.5512 415.419 29.664C415.909 28.7683 416.155 27.7562 416.155 26.6278C416.155 25.4736 415.901 24.4444 415.393 23.54C414.893 22.6269 414.204 21.9077 413.325 21.3823C412.447 20.8569 411.443 20.5899 410.315 20.5813C409.505 20.5727 408.674 20.6976 407.822 20.956C406.969 21.2057 406.267 21.5287 405.716 21.925L402.718 21.5632L404.32 8.53983H418.067V11.3822H407.008L406.077 19.1859H406.232C406.775 18.7552 407.455 18.3978 408.274 18.1136C409.092 17.8293 409.945 17.6872 410.832 17.6872C412.451 17.6872 413.894 18.0748 415.16 18.85C416.435 19.6166 417.434 20.6674 418.158 22.0025C418.89 23.3375 419.256 24.8621 419.256 26.5762C419.256 28.2644 418.877 29.7717 418.119 31.0982C417.369 32.416 416.336 33.4582 415.018 34.2248C413.7 34.9828 412.201 35.3618 410.522 35.3618ZM438.497 19.5994L435.758 20.3746C435.586 19.918 435.331 19.4745 434.996 19.0438C434.668 18.6045 434.22 18.2428 433.652 17.9585C433.083 17.6743 432.356 17.5322 431.468 17.5322C430.254 17.5322 429.242 17.8121 428.432 18.372C427.631 18.9232 427.231 19.6252 427.231 20.4779C427.231 21.2359 427.506 21.8345 428.058 22.2738C428.609 22.7131 429.47 23.0791 430.642 23.372L433.587 24.0955C435.362 24.5262 436.684 25.1851 437.554 26.0723C438.424 26.9508 438.859 28.0835 438.859 29.4702C438.859 30.6072 438.531 31.6236 437.877 32.5194C437.231 33.4151 436.326 34.1214 435.164 34.6382C434.001 35.155 432.648 35.4134 431.107 35.4134C429.082 35.4134 427.407 34.9742 426.081 34.0956C424.754 33.217 423.914 31.9337 423.561 30.2454L426.455 29.5219C426.731 30.59 427.252 31.391 428.019 31.925C428.794 32.4591 429.806 32.7261 431.055 32.7261C432.476 32.7261 433.604 32.4246 434.44 31.8217C435.284 31.2101 435.706 30.478 435.706 29.6253C435.706 28.9362 435.465 28.3591 434.983 27.894C434.5 27.4203 433.76 27.0671 432.76 26.8346L429.453 26.0594C427.635 25.6287 426.3 24.9612 425.448 24.0568C424.604 23.1437 424.182 22.0025 424.182 20.633C424.182 19.5132 424.496 18.5227 425.125 17.6614C425.762 16.8 426.628 16.1239 427.722 15.6329C428.824 15.142 430.073 14.8965 431.468 14.8965C433.432 14.8965 434.974 15.3271 436.094 16.1885C437.222 17.0498 438.023 18.1868 438.497 19.5994ZM447.945 35L441.898 15.1549H445.102L449.392 30.3488H449.598L453.836 15.1549H457.092L461.278 30.2971H461.485L465.774 15.1549H468.978L462.932 35H459.934L455.593 19.7544H455.283L450.942 35H447.945Z" fill="#FF0000"/>
<path d="M521 80.8826H636.212" stroke="#FF0000" stroke-width="3.03189"/>
<path d="M521 107H636.212" stroke="#FF0000" stroke-width="3.03189"/>
<path d="M611.957 82.3827V104.383" stroke="#FF0000" stroke-width="3.03189"/>
<path d="M611.957 101L602.861 137.383H621.053L611.957 101Z" fill="#FF0000"/>
<path d="M611.957 88.3827L602.861 51.9999H621.053L611.957 88.3827Z" fill="#FF0000"/>
<path d="M642.739 70.9999V68.6743L651.473 59.1135C652.498 57.9938 653.342 57.0205 654.005 56.1936C654.669 55.3581 655.159 54.5743 655.478 53.8422C655.805 53.1014 655.969 52.3262 655.969 51.5166C655.969 50.5863 655.745 49.781 655.297 49.1005C654.858 48.4201 654.255 47.8947 653.488 47.5243C652.722 47.1539 651.861 46.9687 650.904 46.9687C649.888 46.9687 649.001 47.1798 648.243 47.6018C647.494 48.0152 646.912 48.5966 646.499 49.346C646.094 50.0954 645.892 50.9739 645.892 51.9817H642.842C642.842 50.4313 643.2 49.0704 643.915 47.899C644.63 46.7276 645.603 45.8145 646.835 45.1599C648.075 44.5053 649.466 44.178 651.008 44.178C652.558 44.178 653.932 44.5053 655.129 45.1599C656.327 45.8145 657.265 46.6974 657.946 47.8085C658.626 48.9196 658.967 50.1557 658.967 51.5166C658.967 52.4899 658.79 53.4417 658.437 54.3719C658.092 55.2935 657.489 56.3228 656.628 57.4598C655.775 58.5881 654.591 59.9663 653.075 61.5942L647.132 67.9508V68.1575H659.432V70.9999H642.739ZM667.042 71.2067C666.404 71.2067 665.857 70.9784 665.401 70.5219C664.944 70.0654 664.716 69.5184 664.716 68.8811C664.716 68.2437 664.944 67.6967 665.401 67.2402C665.857 66.7837 666.404 66.5555 667.042 66.5555C667.679 66.5555 668.226 66.7837 668.682 67.2402C669.139 67.6967 669.367 68.2437 669.367 68.8811C669.367 69.3031 669.26 69.6907 669.044 70.0439C668.837 70.397 668.558 70.6812 668.204 70.8966C667.86 71.1033 667.472 71.2067 667.042 71.2067ZM682.523 71.3617C681.007 71.3617 679.642 71.0602 678.427 70.4573C677.213 69.8544 676.24 69.0275 675.507 67.9767C674.775 66.9258 674.375 65.7286 674.306 64.3849H677.407C677.527 65.5821 678.07 66.5727 679.035 67.3565C680.008 68.1317 681.171 68.5193 682.523 68.5193C683.608 68.5193 684.573 68.2652 685.417 67.757C686.27 67.2488 686.937 66.5512 687.42 65.664C687.911 64.7682 688.156 63.7561 688.156 62.6278C688.156 61.4736 687.902 60.4443 687.394 59.5399C686.894 58.6269 686.205 57.9077 685.327 57.3823C684.448 56.8568 683.445 56.5898 682.316 56.5812C681.507 56.5726 680.675 56.6975 679.823 56.9559C678.97 57.2057 678.268 57.5287 677.717 57.9249L674.719 57.5631L676.321 44.5398H690.068V47.3822H679.009L678.078 55.1859H678.234C678.776 54.7552 679.457 54.3977 680.275 54.1135C681.093 53.8293 681.946 53.6871 682.833 53.6871C684.452 53.6871 685.895 54.0747 687.161 54.8499C688.436 55.6165 689.435 56.6673 690.159 58.0024C690.891 59.3375 691.257 60.862 691.257 62.5761C691.257 64.2643 690.878 65.7716 690.12 67.0981C689.371 68.4159 688.337 69.4582 687.019 70.2247C685.701 70.9827 684.203 71.3617 682.523 71.3617ZM710.498 55.5993L707.759 56.3745C707.587 55.918 707.333 55.4744 706.997 55.0437C706.669 54.6045 706.221 54.2427 705.653 53.9585C705.085 53.6742 704.357 53.5321 703.47 53.5321C702.255 53.5321 701.243 53.812 700.433 54.3719C699.632 54.9231 699.232 55.6251 699.232 56.4779C699.232 57.2358 699.507 57.8345 700.059 58.2737C700.61 58.713 701.471 59.0791 702.643 59.3719L705.588 60.0955C707.363 60.5261 708.685 61.185 709.555 62.0722C710.425 62.9508 710.86 64.0834 710.86 65.4702C710.86 66.6071 710.532 67.6235 709.878 68.5193C709.232 69.4151 708.327 70.1214 707.165 70.6382C706.002 71.155 704.65 71.4134 703.108 71.4134C701.084 71.4134 699.408 70.9741 698.082 70.0955C696.755 69.217 695.916 67.9336 695.562 66.2454L698.457 65.5219C698.732 66.5899 699.253 67.391 700.02 67.925C700.795 68.459 701.807 68.726 703.056 68.726C704.477 68.726 705.606 68.4246 706.441 67.8216C707.285 67.2101 707.707 66.4779 707.707 65.6252C707.707 64.9361 707.466 64.3591 706.984 63.8939C706.501 63.4202 705.761 63.0671 704.762 62.8345L701.454 62.0593C699.637 61.6286 698.302 60.9611 697.449 60.0567C696.605 59.1437 696.183 58.0024 696.183 56.6329C696.183 55.5132 696.497 54.5226 697.126 53.6613C697.763 52.8 698.629 52.1238 699.723 51.6328C700.825 51.1419 702.074 50.8964 703.47 50.8964C705.433 50.8964 706.975 51.3271 708.095 52.1884C709.223 53.0497 710.024 54.1867 710.498 55.5993ZM719.946 70.9999L713.899 51.1548H717.103L721.393 66.3487H721.6L725.837 51.1548H729.093L733.279 66.2971H733.486L737.775 51.1548H740.98L734.933 70.9999H731.936L727.594 55.7543H727.284L722.943 70.9999H719.946Z" fill="#FF0000"/>
<path d="M436 349H551.212" stroke="#FF0000" stroke-width="3.03189"/>
<path d="M436 366H551.212" stroke="#FF0000" stroke-width="3.03189"/>
<path d="M526.957 341.383V363.383" stroke="#FF0000" stroke-width="3.03189"/>
<path d="M526.957 360L517.861 396.383H536.053L526.957 360Z" fill="#FF0000"/>
<path d="M526.957 356.383L517.861 320H536.053L526.957 356.383Z" fill="#FF0000"/>
<path d="M498.041 285.54V312H494.837V288.899H494.682L488.222 293.188V289.933L494.837 285.54H498.041ZM506.362 312.207C505.725 312.207 505.178 311.978 504.721 311.522C504.265 311.065 504.036 310.518 504.036 309.881C504.036 309.244 504.265 308.697 504.721 308.24C505.178 307.784 505.725 307.555 506.362 307.555C506.999 307.555 507.546 307.784 508.003 308.24C508.459 308.697 508.688 309.244 508.688 309.881C508.688 310.303 508.58 310.691 508.365 311.044C508.158 311.397 507.878 311.681 507.525 311.897C507.18 312.103 506.793 312.207 506.362 312.207ZM521.843 312.362C520.327 312.362 518.962 312.06 517.748 311.457C516.533 310.854 515.56 310.027 514.828 308.977C514.096 307.926 513.695 306.729 513.626 305.385H516.727C516.848 306.582 517.39 307.573 518.355 308.356C519.328 309.132 520.491 309.519 521.843 309.519C522.929 309.519 523.893 309.265 524.737 308.757C525.59 308.249 526.258 307.551 526.74 306.664C527.231 305.768 527.476 304.756 527.476 303.628C527.476 302.474 527.222 301.444 526.714 300.54C526.215 299.627 525.526 298.908 524.647 298.382C523.768 297.857 522.765 297.59 521.637 297.581C520.827 297.573 519.996 297.697 519.143 297.956C518.29 298.206 517.588 298.529 517.037 298.925L514.04 298.563L515.642 285.54H529.389V288.382H518.329L517.399 296.186H517.554C518.097 295.755 518.777 295.398 519.595 295.113C520.414 294.829 521.266 294.687 522.153 294.687C523.773 294.687 525.215 295.075 526.482 295.85C527.756 296.616 528.756 297.667 529.479 299.002C530.211 300.337 530.577 301.862 530.577 303.576C530.577 305.264 530.198 306.772 529.44 308.098C528.691 309.416 527.657 310.458 526.339 311.225C525.022 311.983 523.523 312.362 521.843 312.362ZM549.818 296.599L547.079 297.374C546.907 296.918 546.653 296.474 546.317 296.044C545.99 295.604 545.542 295.243 544.973 294.958C544.405 294.674 543.677 294.532 542.79 294.532C541.575 294.532 540.563 294.812 539.754 295.372C538.953 295.923 538.552 296.625 538.552 297.478C538.552 298.236 538.828 298.834 539.379 299.274C539.93 299.713 540.792 300.079 541.963 300.372L544.909 301.095C546.683 301.526 548.005 302.185 548.875 303.072C549.745 303.951 550.18 305.083 550.18 306.47C550.18 307.607 549.853 308.623 549.198 309.519C548.552 310.415 547.648 311.121 546.485 311.638C545.322 312.155 543.97 312.413 542.428 312.413C540.404 312.413 538.729 311.974 537.402 311.095C536.076 310.217 535.236 308.934 534.883 307.245L537.777 306.522C538.053 307.59 538.574 308.391 539.34 308.925C540.115 309.459 541.128 309.726 542.376 309.726C543.798 309.726 544.926 309.424 545.761 308.822C546.606 308.21 547.028 307.478 547.028 306.625C547.028 305.936 546.786 305.359 546.304 304.894C545.822 304.42 545.081 304.067 544.082 303.834L540.774 303.059C538.957 302.629 537.622 301.961 536.769 301.057C535.925 300.144 535.503 299.002 535.503 297.633C535.503 296.513 535.817 295.523 536.446 294.661C537.084 293.8 537.949 293.124 539.043 292.633C540.146 292.142 541.395 291.896 542.79 291.896C544.754 291.896 546.296 292.327 547.415 293.188C548.544 294.05 549.345 295.187 549.818 296.599ZM559.266 312L553.22 292.155H556.424L560.713 307.349H560.92L565.158 292.155H568.413L572.6 307.297H572.806L577.096 292.155H580.3L574.253 312H571.256L566.915 296.754H566.605L562.264 312H559.266Z" fill="#FF0000"/>
<path d="M850.75 402.476L832 370" stroke="#04E3E3" stroke-width="3.03189"/>
<path d="M851.064 397C847.715 397 845 399.715 845 403.064C845 406.413 847.715 409.128 851.064 409.128C854.413 409.128 857.128 406.413 857.128 403.064C857.128 399.715 854.413 397 851.064 397Z" fill="#04E3E3"/>
<path d="M832 370V388.191L847.754 379.096L832 370Z" fill="#04E3E3"/>
<path d="M866.204 421V394.54H875.145C877.212 394.54 878.909 394.893 880.235 395.599C881.562 396.297 882.544 397.257 883.181 398.48C883.818 399.704 884.137 401.095 884.137 402.654C884.137 404.213 883.818 405.595 883.181 406.801C882.544 408.007 881.566 408.954 880.248 409.643C878.93 410.324 877.246 410.664 875.196 410.664H867.961V407.77H875.093C876.506 407.77 877.643 407.563 878.504 407.15C879.374 406.736 880.003 406.151 880.39 405.393C880.787 404.626 880.985 403.713 880.985 402.654C880.985 401.594 880.787 400.668 880.39 399.876C879.994 399.083 879.361 398.472 878.491 398.041C877.621 397.602 876.471 397.382 875.041 397.382H869.408V421H866.204ZM878.659 409.114L885.171 421H881.45L875.041 409.114H878.659ZM898.314 394.54V421H895.109V397.899H894.954L888.494 402.189V398.933L895.109 394.54H898.314ZM906.634 421.207C905.997 421.207 905.45 420.979 904.993 420.522C904.537 420.066 904.308 419.519 904.308 418.881C904.308 418.244 904.537 417.697 904.993 417.24C905.45 416.784 905.997 416.556 906.634 416.556C907.271 416.556 907.818 416.784 908.275 417.24C908.731 417.697 908.96 418.244 908.96 418.881C908.96 419.303 908.852 419.691 908.637 420.044C908.43 420.397 908.15 420.681 907.797 420.897C907.452 421.103 907.065 421.207 906.634 421.207ZM922.115 421.362C920.6 421.362 919.234 421.06 918.02 420.457C916.805 419.854 915.832 419.028 915.1 417.977C914.368 416.926 913.967 415.729 913.898 414.385H916.999C917.12 415.582 917.662 416.573 918.627 417.357C919.6 418.132 920.763 418.519 922.115 418.519C923.201 418.519 924.165 418.265 925.01 417.757C925.862 417.249 926.53 416.551 927.012 415.664C927.503 414.768 927.749 413.756 927.749 412.628C927.749 411.474 927.494 410.444 926.986 409.54C926.487 408.627 925.798 407.908 924.919 407.382C924.041 406.857 923.037 406.59 921.909 406.581C921.099 406.573 920.268 406.698 919.415 406.956C918.562 407.206 917.86 407.529 917.309 407.925L914.312 407.563L915.914 394.54H929.661V397.382H918.601L917.671 405.186H917.826C918.369 404.755 919.049 404.398 919.867 404.114C920.686 403.829 921.538 403.687 922.426 403.687C924.045 403.687 925.488 404.075 926.754 404.85C928.029 405.617 929.028 406.667 929.751 408.003C930.483 409.338 930.849 410.862 930.849 412.576C930.849 414.264 930.47 415.772 929.712 417.098C928.963 418.416 927.929 419.458 926.612 420.225C925.294 420.983 923.795 421.362 922.115 421.362ZM950.091 405.599L947.351 406.375C947.179 405.918 946.925 405.475 946.589 405.044C946.262 404.605 945.814 404.243 945.245 403.959C944.677 403.674 943.949 403.532 943.062 403.532C941.848 403.532 940.835 403.812 940.026 404.372C939.225 404.923 938.824 405.625 938.824 406.478C938.824 407.236 939.1 407.835 939.651 408.274C940.202 408.713 941.064 409.079 942.235 409.372L945.181 410.096C946.955 410.526 948.277 411.185 949.147 412.072C950.017 412.951 950.452 414.084 950.452 415.47C950.452 416.607 950.125 417.624 949.47 418.519C948.824 419.415 947.92 420.122 946.757 420.638C945.594 421.155 944.242 421.414 942.7 421.414C940.676 421.414 939.001 420.974 937.674 420.096C936.348 419.217 935.508 417.934 935.155 416.245L938.049 415.522C938.325 416.59 938.846 417.391 939.612 417.925C940.388 418.459 941.4 418.726 942.649 418.726C944.07 418.726 945.198 418.425 946.034 417.822C946.878 417.21 947.3 416.478 947.3 415.625C947.3 414.936 947.059 414.359 946.576 413.894C946.094 413.42 945.353 413.067 944.354 412.835L941.046 412.059C939.229 411.629 937.894 410.961 937.041 410.057C936.197 409.144 935.775 408.003 935.775 406.633C935.775 405.513 936.09 404.523 936.718 403.661C937.356 402.8 938.221 402.124 939.315 401.633C940.418 401.142 941.667 400.897 943.062 400.897C945.026 400.897 946.568 401.327 947.687 402.189C948.816 403.05 949.617 404.187 950.091 405.599ZM959.538 421L953.492 401.155H956.696L960.985 416.349H961.192L965.43 401.155H968.686L972.872 416.297H973.078L977.368 401.155H980.572L974.525 421H971.528L967.187 405.754H966.877L962.536 421H959.538Z" fill="#04E3E3"/>
<path d="M808.5 330.5L827.25 362.976" stroke="#04E3E3" stroke-width="3.03189"/>
<path d="M808.5 336.564C811.849 336.564 814.564 333.849 814.564 330.5C814.564 327.151 811.849 324.436 808.5 324.436C805.151 324.436 802.436 327.151 802.436 330.5C802.436 333.849 805.151 336.564 808.5 336.564Z" fill="#04E3E3"/>
<path d="M827.25 362.976V344.785L811.496 353.88L827.25 362.976Z" fill="#04E3E3"/>
<path d="M849.204 340V313.54H858.145C860.212 313.54 861.909 313.893 863.235 314.599C864.562 315.297 865.544 316.257 866.181 317.48C866.818 318.703 867.137 320.094 867.137 321.653C867.137 323.213 866.818 324.595 866.181 325.801C865.544 327.007 864.566 327.954 863.248 328.643C861.93 329.324 860.246 329.664 858.196 329.664H850.961V326.77H858.093C859.506 326.77 860.643 326.563 861.504 326.15C862.374 325.736 863.003 325.151 863.39 324.393C863.787 323.626 863.985 322.713 863.985 321.653C863.985 320.594 863.787 319.668 863.39 318.876C862.994 318.083 862.361 317.472 861.491 317.041C860.621 316.602 859.471 316.382 858.041 316.382H852.408V340H849.204ZM861.659 328.114L868.171 340H864.45L858.041 328.114H861.659ZM881.314 313.54V340H878.109V316.899H877.954L871.494 321.188V317.933L878.109 313.54H881.314ZM903.032 324.599L900.293 325.374C900.121 324.918 899.867 324.474 899.531 324.044C899.204 323.604 898.756 323.243 898.187 322.958C897.619 322.674 896.891 322.532 896.004 322.532C894.789 322.532 893.777 322.812 892.967 323.372C892.166 323.923 891.766 324.625 891.766 325.478C891.766 326.236 892.042 326.834 892.593 327.274C893.144 327.713 894.005 328.079 895.177 328.372L898.123 329.095C899.897 329.526 901.219 330.185 902.089 331.072C902.959 331.951 903.394 333.083 903.394 334.47C903.394 335.607 903.067 336.623 902.412 337.519C901.766 338.415 900.862 339.121 899.699 339.638C898.536 340.155 897.184 340.413 895.642 340.413C893.618 340.413 891.942 339.974 890.616 339.096C889.29 338.217 888.45 336.934 888.097 335.245L890.991 334.522C891.266 335.59 891.787 336.391 892.554 336.925C893.329 337.459 894.341 337.726 895.59 337.726C897.011 337.726 898.14 337.425 898.975 336.822C899.819 336.21 900.241 335.478 900.241 334.625C900.241 333.936 900 333.359 899.518 332.894C899.036 332.42 898.295 332.067 897.296 331.834L893.988 331.059C892.171 330.629 890.836 329.961 889.983 329.057C889.139 328.144 888.717 327.002 888.717 325.633C888.717 324.513 889.031 323.523 889.66 322.661C890.297 321.8 891.163 321.124 892.257 320.633C893.359 320.142 894.608 319.896 896.004 319.896C897.967 319.896 899.509 320.327 900.629 321.188C901.757 322.05 902.558 323.187 903.032 324.599ZM912.48 340L906.433 320.155H909.637L913.927 335.349H914.134L918.371 320.155H921.627L925.813 335.297H926.02L930.309 320.155H933.514L927.467 340H924.47L920.129 324.754H919.818L915.477 340H912.48Z" fill="#04E3E3"/>
</svg>
