<svg width="1105" height="1015" viewBox="0 0 1105 1015" fill="none" xmlns="http://www.w3.org/2000/svg">
<path d="M140 339C140 332.096 145.596 326.5 152.5 326.5H952.5C959.403 326.5 965 332.096 965 339V706.5C965 713.404 959.403 719 952.5 719H152.5C145.596 719 140 713.404 140 706.5V339Z" fill="white"/>
<path d="M771.25 385.25C860.996 385.25 933.75 446.811 933.75 522.75C933.75 598.689 860.996 660.25 771.25 660.25C681.504 660.25 608.75 598.689 608.75 522.75C608.75 446.811 681.504 385.25 771.25 385.25Z" fill="#FF0101"/>
<path d="M771.25 435.25H783.75V485.25C803.75 485.283 820.25 464.383 821.25 437.75H848.75C847.581 478.192 818.819 510.273 783.75 510.25V535.25C818.819 535.227 847.581 567.308 848.75 607.75H821.25C820.25 581.117 803.75 560.217 783.75 560.25V610.25H758.75V560.25C738.75 560.217 722.25 581.117 721.25 607.75H693.75C694.919 567.308 723.681 535.227 758.75 535.25V510.25C723.681 510.273 694.919 478.192 693.75 437.75H721.25C722.25 464.383 738.75 485.283 758.75 485.25V435.25H771.25Z" fill="white"/>
<path d="M207.373 460.859C220.006 460.552 230.286 464.409 238.213 472.429L237.843 472.789L236.013 474.259L235.643 474.809L235.093 475.359L234.363 475.729L233.803 476.279L233.253 476.829L232.893 477.379L232.153 477.749C231.726 478.329 231.36 478.759 231.053 479.039L229.953 479.769L229.773 480.139L229.403 480.319C228.756 481.119 228.143 481.732 227.563 482.159C219.856 475.852 211.903 473.832 203.703 476.099C203.243 476.526 202.753 476.832 202.233 477.019C201.56 477.719 200.946 478.269 200.393 478.669L200.213 479.039L199.293 481.239C199.353 483.686 200.15 485.642 201.683 487.109L204.803 488.219L207.733 488.769C208.653 489.076 209.45 489.259 210.123 489.319L210.863 489.499L211.593 489.689L212.323 489.869L213.063 490.049L213.983 490.419H214.533L215.263 490.599L216.183 490.969L216.913 491.149H217.463C218.17 491.429 218.783 491.612 219.303 491.699L220.773 492.069C221.353 492.342 221.843 492.526 222.243 492.619L222.793 492.809L225.183 493.719L225.543 494.089C226.736 494.642 227.716 495.256 228.483 495.929C228.696 496.049 228.82 496.169 228.853 496.289L229.213 496.479C229.766 496.872 230.196 497.239 230.503 497.579C231.27 498.159 231.883 498.709 232.343 499.229C236.81 505.442 237.91 511.869 235.643 518.509C233.223 525.302 228.94 529.769 222.793 531.909C203.666 537.782 188.06 534.049 175.973 520.709L176.523 519.979L177.263 519.609C177.476 519.336 177.72 519.152 177.993 519.059C178.486 518.419 179.036 517.992 179.643 517.779C179.863 517.499 180.11 517.312 180.383 517.219C180.596 516.946 180.84 516.762 181.113 516.669L181.483 516.119L182.033 515.759L182.403 515.389L182.953 515.019L183.503 514.839L183.873 514.289L184.233 514.099L184.603 513.739L184.973 513.549L185.343 513.369L187.913 511.169C196.02 519.122 205.076 521.996 215.083 519.789L215.633 519.429L216.183 519.239L216.363 518.879L219.123 517.039C219.55 515.999 219.976 515.142 220.403 514.469C220.77 511.136 219.73 508.506 217.283 506.579L216.553 506.389L216.003 506.029L215.263 505.839L213.793 505.469H213.243L212.513 505.289L212.143 505.109C211.01 504.922 210.03 504.676 209.203 504.369H208.653L208.103 504.189L206.633 503.819C205.106 503.639 203.823 503.332 202.783 502.899C190.816 501.339 184.206 495.099 182.953 484.179C183.226 470.379 191.366 462.606 207.373 460.859Z" fill="black"/>
<path d="M269.174 462.557C269.421 462.83 269.544 463.134 269.544 463.467V482.197H270.274H272.294H273.214H275.594H276.334H279.454H280.924H282.204V493.767H281.474H279.454H278.534H276.144H275.414H272.294H271.744H269.544V518.737L269.904 519.837C272.264 522.224 275.997 522.467 281.104 520.567L281.294 521.307L282.204 524.237L282.394 524.797L282.574 526.257L283.124 527.547V528.097C283.397 528.864 283.581 529.537 283.674 530.117L284.224 531.957C276.604 534.344 269.384 534.83 262.564 533.417C260.484 532.377 258.831 531.154 257.604 529.747C256.717 528.16 256.107 526.814 255.774 525.707V524.427C255.554 523.754 255.491 523.14 255.584 522.587V521.857V521.117V520.567V517.267V514.877V514.147V511.027V510.467V508.267V505.887V505.147V501.847V501.107V500.377V499.637V496.517V495.967V493.767H254.854H254.114H253.384H250.264H249.714H247.504V492.847V492.117V491.197V488.807V488.077V484.957V484.397V482.197H248.244H248.974H249.714H252.834H254.304H255.584V479.077V478.347V475.217V473.207V472.467V469.347V468.797V466.597L256.324 466.407L256.684 466.227L258.344 465.857C259.044 465.55 259.654 465.367 260.174 465.307L262.564 464.577L263.484 464.387L265.314 463.657C266.874 463.35 268.161 462.984 269.174 462.557Z" fill="black"/>
<path d="M309.882 480.919C318.269 480.365 325.245 482.445 330.812 487.159L331.002 487.529C331.489 488.142 331.855 488.752 332.102 489.359C332.742 490.312 333.169 491.169 333.382 491.929V492.669C333.749 493.862 333.932 494.902 333.932 495.789V513.779C333.812 516.812 333.935 519.322 334.302 521.309C335.802 522.869 337.515 523.849 339.442 524.249L339.072 524.799L338.712 525.719L338.342 526.449L338.162 526.999L337.972 527.549L337.612 528.099L336.872 529.939L336.502 530.489L336.322 531.039L336.142 531.589L335.952 531.959L334.672 534.709C329.225 534.742 325.125 533.029 322.372 529.569C317.139 534.769 310.652 536.055 302.912 533.429C295.779 531.469 291.615 527.122 290.422 520.389C290.482 510.509 295.135 504.755 304.382 503.129C304.869 502.822 305.355 502.639 305.842 502.579H306.392C306.579 502.459 306.765 502.399 306.952 502.399L307.502 502.219L310.802 501.669L312.272 501.479L312.822 501.299L315.942 501.109C317.595 500.869 318.942 500.809 319.982 500.929C320.442 494.109 316.709 491.782 308.782 493.949L308.232 494.139L306.762 494.319L305.482 494.869L304.932 495.059L303.092 495.609C302.145 496.249 301.289 496.675 300.522 496.889C299.482 497.689 298.442 498.239 297.402 498.539L296.112 496.159L295.752 495.969L295.562 495.419L295.202 495.059L295.012 494.509C294.219 493.589 293.669 492.729 293.362 491.929C292.875 491.475 292.569 490.989 292.442 490.469C291.649 489.702 291.159 488.905 290.972 488.079L291.342 487.899L291.892 487.529L292.262 487.339C293.089 486.792 293.822 486.365 294.462 486.059C294.955 485.719 295.445 485.535 295.932 485.509L296.302 485.139C297.435 484.619 298.412 484.252 299.232 484.039L299.602 483.669H300.152C300.732 483.302 301.222 483.059 301.622 482.939H302.172C302.999 482.512 303.795 482.265 304.562 482.199C306.242 481.499 307.832 481.132 309.332 481.099L309.882 480.919ZM319.432 511.029L318.702 511.209H318.142C317.409 511.422 316.799 511.545 316.312 511.579H315.762C315.575 511.699 315.392 511.759 315.212 511.759L314.472 511.949H313.922L313.192 512.129L312.092 512.309C311.905 512.435 311.722 512.499 311.542 512.499L310.802 512.679L310.252 512.859C308.539 513.292 307.192 513.722 306.212 514.149C304.925 515.862 304.559 517.635 305.112 519.469C308.172 523.755 312.579 524.492 318.332 521.679L319.802 519.469L319.982 518.739V518.009V517.449V516.539V515.989V515.249V514.699V511.029" fill="black"/>
<path d="M366.674 462.557C366.921 462.83 367.044 463.134 367.044 463.467V482.197H367.774H369.794H370.714H373.094H373.834H376.954H378.424H379.704V493.767H378.974H376.954H376.034H373.644H372.914H369.794H369.244H367.044V518.737L367.404 519.837C369.764 522.224 373.497 522.467 378.604 520.567L378.794 521.307L379.704 524.237L379.894 524.797L380.074 526.257L380.624 527.547V528.097C380.897 528.864 381.081 529.537 381.174 530.117L381.724 531.957C374.104 534.344 366.884 534.83 360.064 533.417C357.984 532.377 356.331 531.154 355.104 529.747C354.217 528.16 353.607 526.814 353.274 525.707V524.427C353.054 523.754 352.991 523.14 353.084 522.587V521.857V521.117V520.567V517.267V514.877V514.147V511.027V510.467V508.267V505.887V505.147V501.847V501.107V500.377V499.637V496.517V495.967V493.767H352.354H351.614H350.884H347.764H347.214H345.004V492.847V492.117V491.197V488.807V488.077V484.957V484.397V482.197H345.744H346.474H347.214H350.334H351.804H353.084V479.077V478.347V475.217V473.207V472.467V469.347V468.797V466.597L353.824 466.407L354.184 466.227L355.844 465.857C356.544 465.55 357.154 465.367 357.674 465.307L360.064 464.577L360.984 464.387L362.814 463.657C364.374 463.35 365.661 462.984 366.674 462.557Z" fill="black"/>
<path d="M394.802 462.223C399.855 462.129 402.978 464.333 404.172 468.833C404.258 472.293 403.095 474.986 400.682 476.913C395.142 479.113 391.225 477.766 388.932 472.873C387.705 467.366 389.662 463.816 394.802 462.223ZM389.482 482.783H392.602H393.332H394.252H396.642H397.372H400.492H401.962H403.252V532.903H400.682H398.662H397.742H397.192H396.462H395.902H392.232H391.682H389.482V532.353V531.433V530.883V530.153V529.603V525.933V524.643V523.913V522.993V522.253V521.343V518.953V518.223V515.093V514.543V512.343V511.063V509.773V508.673V507.383V506.283V505.003V503.903V500.773V499.673V498.753V497.653V496.923V493.613V491.593V490.863V490.133V489.393V488.663V485.543V484.993" fill="black"/>
<path d="M436.011 480.572C448.071 480.479 456.151 485.496 460.251 495.622C460.678 496.176 460.981 496.729 461.161 497.282C463.794 507.929 462.511 517.292 457.311 525.372C449.998 533.786 441.308 536.539 431.241 533.632C420.654 530.019 414.901 522.492 413.981 511.052C413.061 493.546 420.404 483.386 436.011 480.572ZM436.751 492.872C430.078 495.746 427.138 500.886 427.931 508.292C427.751 516.159 430.994 520.809 437.661 522.242C445.681 521.696 449.294 515.822 448.501 504.622C447.548 496.882 443.631 492.966 436.751 492.872Z" fill="black"/>
<path d="M499.362 481.407C507.749 481.133 514.296 484.56 519.002 491.687L519.192 492.247L519.372 492.797L519.552 493.347C519.859 493.867 520.046 494.357 520.112 494.817L520.842 497.017V497.567C521.269 499.767 521.452 501.54 521.392 502.887V532.817H517.722H516.802H516.252H515.522H514.782H514.052H513.312H510.192H509.642H507.442V532.267V531.347V530.797V530.067V529.517V525.837V523.267V521.247V520.337V519.777V519.047V518.497V514.827V514.087V512.067V510.237V506.927V506.377V505.827V505.097V501.787V501.057C507.136 500.29 506.952 499.617 506.892 499.037C505.419 496.463 503.459 494.81 501.012 494.077C495.932 493.957 492.199 495.917 489.812 499.957L489.452 501.237V532.817H485.772H484.862H484.302H483.572H482.842H482.102H481.372H478.252H477.702H475.492V532.267V531.347V530.797V530.067V529.517V525.837V524.557V523.817V522.907V522.167V521.247V518.867V518.127V515.007V514.457V512.257V510.967V509.687V508.587V507.297V506.197V504.907V503.807V500.687V499.587V498.667V497.567V496.837V493.527V491.507V490.777V490.037V489.307V488.567V485.447V484.897V482.697H479.162H480.082H480.632H481.372H482.102H482.842H483.572H486.692H487.242H489.452C489.386 483.95 489.446 484.99 489.632 485.817C492.692 483.397 495.936 481.927 499.362 481.407Z" fill="black"/>
<path d="M243.25 458.75H172.25V556.75H243.25V458.75Z" stroke="black" stroke-width="2" stroke-dasharray="5 5"/>
<path d="M285.25 458.75H245.25V556.75H285.25V458.75Z" stroke="black" stroke-width="2" stroke-dasharray="5 5"/>
<path d="M340.75 458.75H287.25V556.75H340.75V458.75Z" stroke="black" stroke-width="2" stroke-dasharray="5 5"/>
<path d="M382.75 458.75H342.75V556.75H382.75V458.75Z" stroke="black" stroke-width="2" stroke-dasharray="5 5"/>
<path d="M410.25 458.75H384.75V556.75H410.25V458.75Z" stroke="black" stroke-width="2" stroke-dasharray="5 5"/>
<path d="M467.75 458.75H412.25V556.75H467.75V458.75Z" stroke="black" stroke-width="2" stroke-dasharray="5 5"/>
<path d="M527.25 458.75H469.75V556.75H527.25V458.75Z" stroke="black" stroke-width="2" stroke-dasharray="5 5"/>
<path d="M191 608.265V597.235H290.45V608.265H191ZM236.34 604.215L247.02 601.625C249.427 610.479 252.674 618.729 256.76 626.375C260.847 634.029 265.87 640.722 271.83 646.455C277.797 652.195 284.717 656.715 292.59 660.015C291.69 660.762 290.734 661.735 289.72 662.935C288.707 664.135 287.75 665.355 286.85 666.595C285.95 667.835 285.2 668.942 284.6 669.915C276.274 666.015 269.017 660.859 262.83 654.445C256.644 648.032 251.414 640.589 247.14 632.115C242.867 623.642 239.267 614.342 236.34 604.215ZM234.65 565.855H246.24C246.24 571.175 246.107 576.892 245.84 583.005C245.58 589.119 245 595.402 244.1 601.855C243.2 608.302 241.737 614.752 239.71 621.205C237.69 627.652 234.877 633.875 231.27 639.875C227.677 645.875 223.067 651.445 217.44 656.585C211.814 661.719 204.95 666.199 196.85 670.025C195.95 668.599 194.75 667.042 193.25 665.355C191.75 663.669 190.25 662.262 188.75 661.135C196.55 657.615 203.13 653.509 208.49 648.815C213.857 644.129 218.207 639.029 221.54 633.515C224.88 628.009 227.45 622.292 229.25 616.365C231.05 610.439 232.327 604.512 233.08 598.585C233.827 592.665 234.277 586.929 234.43 581.375C234.577 575.829 234.65 570.655 234.65 565.855Z" fill="black"/>
<path d="M346.393 603.878V597.808H409.733V603.878H346.393ZM346.953 646.408V640.218H409.843V646.408H346.953ZM377.663 653.828V622.668H387.233V653.828H377.663ZM393.193 612.878H362.483V619.068H393.193V612.878ZM353.483 624.128V607.588H402.643V624.128H353.483ZM369.453 580.478L378.343 581.608C377.516 584.681 376.576 587.941 375.523 591.388C374.476 594.841 373.503 597.804 372.603 600.278H363.263C364.316 597.578 365.403 594.391 366.523 590.718C367.649 587.044 368.626 583.631 369.453 580.478ZM352.913 592.288V586.558H400.053V601.068H391.163V592.288H352.913ZM330.413 670.368V570.468H425.593V670.368H415.133V580.138H340.543V670.368H330.413ZM336.833 665.868V656.188H420.753V665.868H336.833ZM354.833 644.608V628.288H405.003V634.368H363.153V644.608" fill="black"/>
<path d="M466.56 597.473V587.573H509.99V597.473H466.56ZM483.55 592.523V567.323H493.56V592.523H483.55ZM536.2 598.143V588.023H568.71V598.143H536.2ZM517.07 664.863V654.843H558.7V664.863H517.07ZM530.91 623.683V565.743H541.82V623.683H530.91ZM512.35 670.143V619.293H564.32V669.693H553.41V629.193H522.7V670.143H512.35ZM466.45 658.783L464.2 648.093C468.1 647.419 472.56 646.559 477.58 645.513C482.607 644.459 487.954 643.313 493.62 642.073C499.28 640.839 504.887 639.623 510.44 638.423L511.56 648.213C506.314 649.486 501.027 650.759 495.7 652.033C490.374 653.306 485.217 654.506 480.23 655.633C475.244 656.759 470.65 657.809 466.45 658.783ZM470.16 603.213L478.82 601.523C479.8 605.649 480.644 610.036 481.35 614.683C482.064 619.336 482.627 623.873 483.04 628.293C483.454 632.719 483.697 636.696 483.77 640.223L474.55 641.913C474.55 638.386 474.36 634.409 473.98 629.983C473.607 625.556 473.104 620.999 472.47 616.313C471.83 611.626 471.06 607.259 470.16 603.213ZM495.92 600.393L506.39 602.193C505.79 606.919 505.077 611.889 504.25 617.103C503.424 622.316 502.56 627.303 501.66 632.063C500.76 636.829 499.897 641.049 499.07 644.723L490.19 642.813C490.784 640.033 491.364 636.883 491.93 633.363C492.49 629.836 493.034 626.139 493.56 622.273C494.087 618.413 494.557 614.609 494.97 610.863C495.384 607.109 495.7 603.619 495.92 600.393Z" fill="black"/>
<path d="M307.75 558.75H172.25V699.25H307.75V558.75Z" stroke="black" stroke-width="2" stroke-dasharray="5 5"/>
<path d="M445.25 558.75H309.75V699.25H445.25V558.75Z" stroke="black" stroke-width="2" stroke-dasharray="5 5"/>
<path d="M582.75 558.75H447.25V699.25H582.75V558.75Z" stroke="black" stroke-width="2" stroke-dasharray="5 5"/>
<path d="M172.703 362.373H173.443H174.173H174.723H175.463H178.763H179.503H182.803H183.903H185.193H188.863H190.333H191.803H193.273H194.733H198.413H198.963H199.513H205.203H206.483H207.593H208.873H209.973H210.893H211.993H212.733H216.033H218.053H218.793H219.523H220.253H220.993H224.113H224.663H226.863V376.333H225.763H225.213H221.543H219.153H218.423H215.113H214.383H213.643H212.913H209.793H209.243H207.043V432.693H204.653H203.913H200.613H199.883H199.143H198.413H195.293H194.733H192.533V431.403V430.853V429.943V429.393V428.653V428.103V424.433V423.693V420.393V419.293V418.003V414.333V412.863V411.393V409.923V408.463V404.783V404.233V403.683V397.993V396.713V395.603V394.323V393.223V392.303V391.203V390.463V387.163V385.143V384.403V383.673V382.943V382.203V379.083V378.533V376.333H191.433H190.883H187.213H184.823H184.093H180.783H180.053H179.313H178.583H175.463H174.913H172.703V372.653V371.743V371.193V370.453V369.723V368.983V368.253V365.133V364.583" fill="black"/>
<path d="M249.632 380.919C258.019 380.365 264.995 382.445 270.562 387.159L270.752 387.529C271.239 388.142 271.605 388.752 271.852 389.359C272.492 390.312 272.919 391.169 273.132 391.929V392.669C273.499 393.862 273.682 394.902 273.682 395.789V413.779C273.562 416.812 273.685 419.322 274.052 421.309C275.552 422.869 277.265 423.849 279.192 424.249L278.822 424.799L278.462 425.719L278.092 426.449L277.912 426.999L277.722 427.549L277.362 428.099L276.622 429.939L276.252 430.489L276.072 431.039L275.892 431.589L275.702 431.959L274.422 434.709C268.975 434.742 264.875 433.029 262.122 429.569C256.889 434.769 250.402 436.055 242.662 433.429C235.529 431.469 231.365 427.122 230.172 420.389C230.232 410.509 234.885 404.755 244.132 403.129C244.619 402.822 245.105 402.639 245.592 402.579H246.142C246.329 402.459 246.515 402.399 246.702 402.399L247.252 402.219L250.552 401.669L252.022 401.479L252.572 401.299L255.692 401.109C257.345 400.869 258.692 400.809 259.732 400.929C260.192 394.109 256.459 391.782 248.532 393.949L247.982 394.139L246.512 394.319L245.232 394.869L244.682 395.059L242.842 395.609C241.895 396.249 241.039 396.675 240.272 396.889C239.232 397.689 238.192 398.239 237.152 398.539L235.862 396.159L235.502 395.969L235.312 395.419L234.952 395.059L234.762 394.509C233.969 393.589 233.419 392.729 233.112 391.929C232.625 391.475 232.319 390.989 232.192 390.469C231.399 389.702 230.909 388.905 230.722 388.079L231.092 387.899L231.642 387.529L232.012 387.339C232.839 386.792 233.572 386.365 234.212 386.059C234.705 385.719 235.195 385.535 235.682 385.509L236.052 385.139C237.185 384.619 238.162 384.252 238.982 384.039L239.352 383.669H239.902C240.482 383.302 240.972 383.059 241.372 382.939H241.922C242.749 382.512 243.545 382.265 244.312 382.199C245.992 381.499 247.582 381.132 249.082 381.099L249.632 380.919ZM259.182 411.029L258.452 411.209H257.892C257.159 411.422 256.549 411.545 256.062 411.579H255.512C255.325 411.699 255.142 411.759 254.962 411.759L254.222 411.949H253.672L252.942 412.129L251.842 412.309C251.655 412.435 251.472 412.499 251.292 412.499L250.552 412.679L250.002 412.859C248.289 413.292 246.942 413.722 245.962 414.149C244.675 415.862 244.309 417.635 244.862 419.469C247.922 423.755 252.329 424.492 258.082 421.679L259.552 419.469L259.732 418.739V418.009V417.449V416.539V415.989V415.249V414.699V411.029" fill="black"/>
<path d="M290.802 362.223C295.855 362.129 298.978 364.333 300.172 368.833C300.258 372.293 299.095 374.986 296.682 376.913C291.142 379.113 287.225 377.766 284.932 372.873C283.705 367.366 285.662 363.816 290.802 362.223ZM285.482 382.783H288.602H289.332H290.252H292.642H293.372H296.492H297.962H299.252V432.903H296.682H294.662H293.742H293.192H292.462H291.902H288.232H287.682H285.482V432.353V431.433V430.883V430.153V429.603V425.933V424.643V423.913V422.993V422.253V421.343V418.953V418.223V415.093V414.543V412.343V411.063V409.773V408.673V407.383V406.283V405.003V403.903V400.773V399.673V398.753V397.653V396.923V393.613V391.593V390.863V390.133V389.393V388.663V385.543V384.993" fill="black"/>
<path d="M337.891 362.83H338.811H339.911H340.831H341.381H342.301H343.031H343.581H344.501H345.421H345.971H348.171H348.721C350.374 362.736 351.784 362.796 352.951 363.01V363.56L353.681 366.69L353.861 367.79C353.987 367.97 354.051 368.153 354.051 368.34L354.231 368.89L354.411 369.26L354.601 370.17L355.151 373.11L355.331 373.48V374.03C355.791 375.13 356.037 376.17 356.071 377.15L356.431 378.25V378.8C356.891 379.906 357.137 380.946 357.171 381.92L357.541 382.84L357.721 383.76L357.901 384.86C358.454 386.513 358.761 387.92 358.821 389.08C359.221 390.033 359.464 390.89 359.551 391.65C359.737 392.416 359.861 393.09 359.921 393.67C360.381 394.803 360.627 395.846 360.661 396.8C360.934 397.5 361.117 398.11 361.211 398.63C361.391 399.396 361.511 400.07 361.571 400.65C361.971 401.81 362.217 402.79 362.311 403.59L362.491 404.51L363.041 406.34L363.231 407.63L363.961 410.2L364.141 409.28L364.331 408.73V408.18L364.511 407.63C364.724 406.31 364.971 405.206 365.251 404.32V403.59L365.431 403.04L365.981 400.65V400.1L366.161 399.37L366.351 398.81L366.531 398.26V397.71L366.901 396.43V395.88C367.081 395.173 367.204 394.56 367.271 394.04C367.484 393.426 367.604 392.876 367.631 392.39C368.031 390.95 368.277 389.726 368.371 388.72L368.551 387.8L368.731 387.25L369.841 381.92L370.021 381.01L370.201 380.46C370.354 379.506 370.537 378.71 370.751 378.07V377.52L371.121 376.05L371.861 372.38L372.041 372.01L372.411 369.81L372.591 369.26V368.71L373.141 366.87C373.261 365.71 373.444 364.73 373.691 363.93L373.881 362.83H374.791H375.891H376.631H379.931H381.951H382.691H383.421H384.161H384.891H388.011H388.561H390.771L390.951 364.12L391.321 365.4V366.14C391.774 367.82 392.077 369.226 392.231 370.36L392.791 372.93L393.341 375.13L393.521 376.05L393.701 377.33L393.891 378.44L394.071 379.54L394.441 380.46L394.621 381.56L394.801 382.48V383.03C394.927 383.21 394.991 383.393 394.991 383.58C395.237 384.313 395.361 384.986 395.361 385.6C395.481 385.78 395.541 385.963 395.541 386.15L395.721 386.51V387.06L396.091 388.53L396.461 390.74L396.821 391.84L397.011 392.94V393.49L397.381 394.96L397.561 396.06C397.927 397.04 398.111 397.956 398.111 398.81L398.291 399.55C398.631 400.47 398.814 401.266 398.841 401.94L399.031 402.49L399.211 403.96L399.581 405.42L399.761 406.53C400.254 407.936 400.501 409.16 400.501 410.2L401.051 409.1V408.36L401.411 406.89L401.601 406.34L401.781 405.79C401.901 404.783 402.084 403.926 402.331 403.22L402.701 401.75L402.881 400.65L403.071 400.28L403.251 399L403.981 396.43L404.171 395.14L404.541 393.86L404.721 392.57L405.091 391.29L405.271 390.55L405.641 389.08L406.741 384.49L406.921 383.39L407.291 381.92L407.661 380.64L407.841 379.54L408.211 378.44L408.391 377.7V376.97L408.571 376.23L408.761 375.68L408.941 375.31L409.311 373.11L409.681 371.64L410.041 370.36V369.81L410.231 369.26L410.411 368.71V368.15L410.781 366.87L410.961 366.32V365.77C411.387 364.636 411.634 363.656 411.701 362.83H412.431H415.731H417.751H418.491H419.221H419.961H420.691H423.811H424.361H426.571V363.38L426.381 364.48L425.831 365.95L425.651 367.24L425.101 369.81L424.911 370.36C424.637 371.766 424.334 372.93 424.001 373.85C423.967 374.55 423.844 375.16 423.631 375.68L422.531 380.46L422.341 381.01V381.56L422.161 382.66L421.791 384.13C421.484 384.983 421.301 385.716 421.241 386.33L421.061 386.7L420.881 387.98C420.574 388.993 420.387 389.85 420.321 390.55C420.047 391.256 419.864 391.87 419.771 392.39L419.591 393.12L419.411 393.67C419.377 394.376 419.254 394.99 419.041 395.51L418.861 396.61L418.671 397.35L418.491 397.71L418.301 399L417.571 401.57L417.021 404.69L416.651 406.16L416.291 407.44L416.101 408.55L415.921 409.28L415.731 409.83L415.551 410.2L415.181 412.4L414.631 414.79L414.451 415.34C414.204 416.78 413.897 417.943 413.531 418.83V419.56C413.224 420.48 413.041 421.276 412.981 421.95L412.801 422.5L412.611 423.05L412.251 424.52L412.061 425.8L411.331 428.37L411.141 429.66L410.411 432.96H409.311H408.761H405.091H404.171H403.621H402.701H401.961H401.411H400.501H399.581H399.031H396.821H396.271C394.617 433.053 393.211 432.993 392.051 432.78V432.23L391.871 431.86V431.31L391.681 430.76L391.321 428.56L390.401 424.33L390.211 423.05C389.724 421.363 389.421 419.956 389.301 418.83L388.931 417.36L388.561 415.89L388.381 414.6L388.201 413.32L387.831 412.22V411.48L387.281 409.28V408.73C386.761 407.043 386.454 405.636 386.361 404.51L385.991 403.4V402.49C385.871 402.303 385.811 402.12 385.811 401.94L385.631 401.57L384.891 397.53L384.711 396.8L384.161 393.86L383.791 392.39L383.611 391.65V390.92L383.421 390.19L383.051 388.9V388.35L382.691 386.88L382.321 385.6L382.141 386.15L381.951 387.25L381.771 387.98L381.591 389.08L380.851 392.57L380.481 393.86V394.41L379.751 397.35L379.571 398.81L379.201 400.28L378.831 401.75L378.651 403.22L378.281 404.69L377.911 406.89C377.484 408.27 377.241 409.433 377.181 410.38L376.811 411.48L376.631 412.4V412.95C376.417 413.656 376.294 414.27 376.261 414.79C376.047 415.403 375.924 415.953 375.891 416.44L375.531 417.36L375.161 419.93L374.981 420.85L374.791 421.58L374.061 424.89L373.511 427.46L373.321 428.56L372.961 430.03L372.411 432.96H371.301H370.751H367.081H366.161H365.611H364.701H363.961H363.411H362.491H361.571H361.021H358.821H358.271C356.617 433.053 355.211 432.993 354.051 432.78L353.861 431.31C353.314 429.656 353.011 428.25 352.951 427.09C352.764 426.63 352.641 426.2 352.581 425.8L352.211 424.33L351.841 422.87L351.481 421.58L351.291 420.11L351.111 419.38C350.744 418.366 350.561 417.51 350.561 416.81L350.381 416.07L349.461 412.95V412.22C349.001 410.993 348.754 409.89 348.721 408.91C348.261 407.81 348.017 406.833 347.991 405.98L347.621 404.87L347.441 403.4C347.314 403.22 347.251 403.036 347.251 402.85L346.341 399.18L345.971 397.71V397.16C345.604 396.273 345.421 395.48 345.421 394.78C345.234 394.32 345.111 393.89 345.051 393.49L344.681 392.21L344.501 390.92C344.167 390 343.984 389.203 343.951 388.53C343.397 386.943 343.091 385.596 343.031 384.49L342.661 383.58L342.481 382.66L342.301 381.56L342.111 380.64C341.991 380.3 341.931 379.993 341.931 379.72L341.561 378.99L341.011 376.05C340.704 375.13 340.521 374.333 340.461 373.66C340.187 372.96 340.064 372.35 340.091 371.83C339.544 370.39 339.241 369.103 339.181 367.97C338.874 367.236 338.691 366.563 338.631 365.95L338.441 365.4V364.85C338.134 364.116 337.951 363.443 337.891 362.83Z" fill="black"/>
<path d="M452.382 380.919C460.769 380.365 467.745 382.445 473.312 387.159L473.502 387.529C473.989 388.142 474.355 388.752 474.602 389.359C475.242 390.312 475.669 391.169 475.882 391.929V392.669C476.249 393.862 476.432 394.902 476.432 395.789V413.779C476.312 416.812 476.435 419.322 476.802 421.309C478.302 422.869 480.015 423.849 481.942 424.249L481.572 424.799L481.212 425.719L480.842 426.449L480.662 426.999L480.472 427.549L480.112 428.099L479.372 429.939L479.002 430.489L478.822 431.039L478.642 431.589L478.452 431.959L477.172 434.709C471.725 434.742 467.625 433.029 464.872 429.569C459.639 434.769 453.152 436.055 445.412 433.429C438.279 431.469 434.115 427.122 432.922 420.389C432.982 410.509 437.635 404.755 446.882 403.129C447.369 402.822 447.855 402.639 448.342 402.579H448.892C449.079 402.459 449.265 402.399 449.452 402.399L450.002 402.219L453.302 401.669L454.772 401.479L455.322 401.299L458.442 401.109C460.095 400.869 461.442 400.809 462.482 400.929C462.942 394.109 459.209 391.782 451.282 393.949L450.732 394.139L449.262 394.319L447.982 394.869L447.432 395.059L445.592 395.609C444.645 396.249 443.789 396.675 443.022 396.889C441.982 397.689 440.942 398.239 439.902 398.539L438.612 396.159L438.252 395.969L438.062 395.419L437.702 395.059L437.512 394.509C436.719 393.589 436.169 392.729 435.862 391.929C435.375 391.475 435.069 390.989 434.942 390.469C434.149 389.702 433.659 388.905 433.472 388.079L433.842 387.899L434.392 387.529L434.762 387.339C435.589 386.792 436.322 386.365 436.962 386.059C437.455 385.719 437.945 385.535 438.432 385.509L438.802 385.139C439.935 384.619 440.912 384.252 441.732 384.039L442.102 383.669H442.652C443.232 383.302 443.722 383.059 444.122 382.939H444.672C445.499 382.512 446.295 382.265 447.062 382.199C448.742 381.499 450.332 381.132 451.832 381.099L452.382 380.919ZM461.932 411.029L461.202 411.209H460.642C459.909 411.422 459.299 411.545 458.812 411.579H458.262C458.075 411.699 457.892 411.759 457.712 411.759L456.972 411.949H456.422L455.692 412.129L454.592 412.309C454.405 412.435 454.222 412.499 454.042 412.499L453.302 412.679L452.752 412.859C451.039 413.292 449.692 413.722 448.712 414.149C447.425 415.862 447.059 417.635 447.612 419.469C450.672 423.755 455.079 424.492 460.832 421.679L462.302 419.469L462.482 418.739V418.009V417.449V416.539V415.989V415.249V414.699V411.029" fill="black"/>
<path d="M495.302 362.223C500.355 362.129 503.478 364.333 504.672 368.833C504.758 372.293 503.595 374.986 501.182 376.913C495.642 379.113 491.725 377.766 489.432 372.873C488.205 367.366 490.162 363.816 495.302 362.223ZM489.982 382.783H493.102H493.832H494.752H497.142H497.872H500.992H502.462H503.752V432.903H501.182H499.162H498.242H497.692H496.962H496.402H492.732H492.182H489.982V432.353V431.433V430.883V430.153V429.603V425.933V424.643V423.913V422.993V422.253V421.343V418.953V418.223V415.093V414.543V412.343V411.063V409.773V408.673V407.383V406.283V405.003V403.903V400.773V399.673V398.753V397.653V396.923V393.613V391.593V390.863V390.133V389.393V388.663V385.543V384.993" fill="black"/>
<path d="M226.75 358.75H172.25V456.75H226.75V358.75Z" stroke="black" stroke-width="2" stroke-dasharray="5 5"/>
<path d="M278.75 358.75H228.75V456.75H278.75V358.75Z" stroke="black" stroke-width="2" stroke-dasharray="5 5"/>
<path d="M306.25 358.75H280.75V456.75H306.25V358.75Z" stroke="black" stroke-width="2" stroke-dasharray="5 5"/>
<path d="M331.25 358.75H308.25V456.75H331.25V358.75Z" stroke="black" stroke-width="2" stroke-dasharray="5 5"/>
<path d="M427.75 358.75H333.25V456.75H427.75V358.75Z" stroke="black" stroke-width="2" stroke-dasharray="5 5"/>
<path d="M483.25 358.75H429.75V456.75H483.25V358.75Z" stroke="black" stroke-width="2" stroke-dasharray="5 5"/>
<path d="M510.75 358.75H485.25V456.75H510.75V358.75Z" stroke="black" stroke-width="2" stroke-dasharray="5 5"/>
<path d="M932.773 504.212V389" stroke="#46C147" stroke-width="3.03189"/>
<path d="M964 504.212V389" stroke="#46C147" stroke-width="3.03189"/>
<path d="M932.773 413.255H961.122" stroke="#46C147" stroke-width="3.03189"/>
<path d="M959 413.255L983.255 407.191V419.319L959 413.255Z" fill="#46C147"/>
<path d="M939.255 413.255L915 407.191V419.319L939.255 413.255Z" fill="#46C147"/>
<path d="M1006.74 425.712V423.386L1015.47 413.826C1016.5 412.706 1017.34 411.733 1018.01 410.906C1018.67 410.07 1019.16 409.286 1019.48 408.554C1019.81 407.814 1019.97 407.038 1019.97 406.229C1019.97 405.298 1019.75 404.493 1019.3 403.813C1018.86 403.132 1018.26 402.607 1017.49 402.236C1016.72 401.866 1015.86 401.681 1014.9 401.681C1013.89 401.681 1013 401.892 1012.24 402.314C1011.49 402.727 1010.91 403.309 1010.5 404.058C1010.09 404.807 1009.89 405.686 1009.89 406.694H1006.84C1006.84 405.143 1007.2 403.782 1007.91 402.611C1008.63 401.44 1009.6 400.527 1010.83 399.872C1012.08 399.217 1013.47 398.89 1015.01 398.89C1016.56 398.89 1017.93 399.217 1019.13 399.872C1020.33 400.527 1021.27 401.41 1021.95 402.521C1022.63 403.632 1022.97 404.868 1022.97 406.229C1022.97 407.202 1022.79 408.154 1022.44 409.084C1022.09 410.006 1021.49 411.035 1020.63 412.172C1019.78 413.3 1018.59 414.678 1017.08 416.306L1011.13 422.663V422.87H1023.43V425.712H1006.74ZM1031.04 425.919C1030.4 425.919 1029.86 425.691 1029.4 425.234C1028.94 424.777 1028.72 424.231 1028.72 423.593C1028.72 422.956 1028.94 422.409 1029.4 421.952C1029.86 421.496 1030.4 421.268 1031.04 421.268C1031.68 421.268 1032.23 421.496 1032.68 421.952C1033.14 422.409 1033.37 422.956 1033.37 423.593C1033.37 424.015 1033.26 424.403 1033.04 424.756C1032.84 425.109 1032.56 425.393 1032.2 425.609C1031.86 425.815 1031.47 425.919 1031.04 425.919ZM1046.52 426.074C1045.01 426.074 1043.64 425.772 1042.43 425.169C1041.21 424.566 1040.24 423.74 1039.51 422.689C1038.78 421.638 1038.37 420.441 1038.31 419.097H1041.41C1041.53 420.294 1042.07 421.285 1043.03 422.069C1044.01 422.844 1045.17 423.231 1046.52 423.231C1047.61 423.231 1048.57 422.977 1049.42 422.469C1050.27 421.961 1050.94 421.263 1051.42 420.376C1051.91 419.48 1052.16 418.468 1052.16 417.34C1052.16 416.186 1051.9 415.156 1051.39 414.252C1050.89 413.339 1050.21 412.62 1049.33 412.094C1048.45 411.569 1047.44 411.302 1046.32 411.293C1045.51 411.285 1044.68 411.41 1043.82 411.668C1042.97 411.918 1042.27 412.241 1041.72 412.637L1038.72 412.275L1040.32 399.252H1054.07V402.094H1043.01L1042.08 409.898H1042.23C1042.78 409.467 1043.46 409.11 1044.27 408.826C1045.09 408.541 1045.95 408.399 1046.83 408.399C1048.45 408.399 1049.9 408.787 1051.16 409.562C1052.44 410.329 1053.44 411.379 1054.16 412.715C1054.89 414.05 1055.26 415.574 1055.26 417.288C1055.26 418.976 1054.88 420.484 1054.12 421.81C1053.37 423.128 1052.34 424.17 1051.02 424.937C1049.7 425.695 1048.2 426.074 1046.52 426.074ZM1074.5 410.311L1071.76 411.087C1071.59 410.63 1071.33 410.186 1071 409.756C1070.67 409.317 1070.22 408.955 1069.65 408.671C1069.08 408.386 1068.36 408.244 1067.47 408.244C1066.26 408.244 1065.24 408.524 1064.43 409.084C1063.63 409.635 1063.23 410.337 1063.23 411.19C1063.23 411.948 1063.51 412.547 1064.06 412.986C1064.61 413.425 1065.47 413.791 1066.64 414.084L1069.59 414.808C1071.36 415.238 1072.68 415.897 1073.55 416.784C1074.42 417.663 1074.86 418.796 1074.86 420.182C1074.86 421.319 1074.53 422.336 1073.88 423.231C1073.23 424.127 1072.33 424.833 1071.16 425.35C1070 425.867 1068.65 426.125 1067.11 426.125C1065.08 426.125 1063.41 425.686 1062.08 424.808C1060.76 423.929 1059.92 422.646 1059.56 420.957L1062.46 420.234C1062.73 421.302 1063.25 422.103 1064.02 422.637C1064.8 423.171 1065.81 423.438 1067.06 423.438C1068.48 423.438 1069.61 423.137 1070.44 422.534C1071.29 421.922 1071.71 421.19 1071.71 420.337C1071.71 419.648 1071.47 419.071 1070.98 418.606C1070.5 418.132 1069.76 417.779 1068.76 417.547L1065.45 416.771C1063.64 416.341 1062.3 415.673 1061.45 414.769C1060.6 413.856 1060.18 412.715 1060.18 411.345C1060.18 410.225 1060.5 409.235 1061.13 408.373C1061.76 407.512 1062.63 406.836 1063.72 406.345C1064.83 405.854 1066.07 405.609 1067.47 405.609C1069.43 405.609 1070.98 406.039 1072.09 406.901C1073.22 407.762 1074.02 408.899 1074.5 410.311ZM1083.95 425.712L1077.9 405.867H1081.1L1085.39 421.061H1085.6L1089.84 405.867H1093.09L1097.28 421.009H1097.49L1101.78 405.867H1104.98L1098.93 425.712H1095.94L1091.59 410.466H1091.28L1086.94 425.712H1083.95Z" fill="#46C147"/>
<path d="M170.227 354.212V239" stroke="#46C147" stroke-width="3.03189"/>
<path d="M139 354.212V239" stroke="#46C147" stroke-width="3.03189"/>
<path d="M170.227 263.255H141.878" stroke="#46C147" stroke-width="3.03189"/>
<path d="M144 263.255L119.745 257.191V269.319L144 263.255Z" fill="#46C147"/>
<path d="M163.745 263.255L188 257.191V269.319L163.745 263.255Z" fill="#46C147"/>
<path d="M5.73904 275.712V273.386L14.473 263.826C15.498 262.706 16.3421 261.733 17.0053 260.906C17.6685 260.07 18.1595 259.286 18.4782 258.554C18.8055 257.814 18.9691 257.038 18.9691 256.229C18.9691 255.298 18.7452 254.493 18.2973 253.813C17.858 253.132 17.2551 252.607 16.4885 252.236C15.7219 251.866 14.8606 251.681 13.9045 251.681C12.8881 251.681 12.0009 251.892 11.243 252.314C10.4936 252.727 9.9122 253.309 9.49876 254.058C9.09394 254.807 8.89152 255.686 8.89152 256.694H5.8424C5.8424 255.143 6.19985 253.782 6.91476 252.611C7.62967 251.44 8.60298 250.527 9.83468 249.872C11.075 249.217 12.4661 248.89 14.0078 248.89C15.5582 248.89 16.9321 249.217 18.1293 249.872C19.3266 250.527 20.2654 251.41 20.9459 252.521C21.6263 253.632 21.9666 254.868 21.9666 256.229C21.9666 257.202 21.79 258.154 21.4368 259.084C21.0923 260.006 20.4894 261.035 19.628 262.172C18.7753 263.3 17.591 264.678 16.075 266.306L10.1318 272.663V272.87H22.4317V275.712H5.73904ZM30.0416 275.919C29.4042 275.919 28.8572 275.691 28.4007 275.234C27.9442 274.777 27.716 274.231 27.716 273.593C27.716 272.956 27.9442 272.409 28.4007 271.952C28.8572 271.496 29.4042 271.268 30.0416 271.268C30.679 271.268 31.2259 271.496 31.6824 271.952C32.1389 272.409 32.3672 272.956 32.3672 273.593C32.3672 274.015 32.2595 274.403 32.0442 274.756C31.8375 275.109 31.5575 275.393 31.2044 275.609C30.8598 275.815 30.4722 275.919 30.0416 275.919ZM45.523 276.074C44.007 276.074 42.6418 275.772 41.4273 275.169C40.2128 274.566 39.2395 273.74 38.5074 272.689C37.7753 271.638 37.3748 270.441 37.3058 269.097H40.4066C40.5272 270.294 41.0699 271.285 42.0346 272.069C43.0079 272.844 44.1707 273.231 45.523 273.231C46.6083 273.231 47.5729 272.977 48.4171 272.469C49.2698 271.961 49.9373 271.263 50.4197 270.376C50.9106 269.48 51.1561 268.468 51.1561 267.34C51.1561 266.186 50.902 265.156 50.3938 264.252C49.8942 263.339 49.2052 262.62 48.3266 262.094C47.4481 261.569 46.4446 261.302 45.3163 261.293C44.5066 261.285 43.6754 261.41 42.8227 261.668C41.97 261.918 41.268 262.241 40.7167 262.637L37.7193 262.275L39.3214 249.252H53.0683V252.094H42.0087L41.0785 259.898H41.2335C41.7762 259.467 42.4566 259.11 43.2749 258.826C44.0932 258.541 44.9459 258.399 45.8331 258.399C47.4524 258.399 48.8951 258.787 50.1613 259.562C51.436 260.329 52.4352 261.379 53.1587 262.715C53.8908 264.05 54.2569 265.574 54.2569 267.288C54.2569 268.976 53.8779 270.484 53.1199 271.81C52.3706 273.128 51.337 274.17 50.0191 274.937C48.7013 275.695 47.2026 276.074 45.523 276.074ZM73.498 260.311L70.759 261.087C70.5867 260.63 70.3326 260.186 69.9967 259.756C69.6694 259.317 69.2215 258.955 68.653 258.671C68.0845 258.386 67.3567 258.244 66.4695 258.244C65.255 258.244 64.243 258.524 63.4333 259.084C62.6323 259.635 62.2318 260.337 62.2318 261.19C62.2318 261.948 62.5074 262.547 63.0586 262.986C63.6099 263.425 64.4712 263.791 65.6426 264.084L68.5884 264.808C70.3628 265.238 71.6849 265.897 72.5549 266.784C73.4248 267.663 73.8598 268.796 73.8598 270.182C73.8598 271.319 73.5325 272.336 72.8779 273.231C72.2319 274.127 71.3275 274.833 70.1647 275.35C69.0019 275.867 67.6496 276.125 66.1078 276.125C64.0836 276.125 62.4083 275.686 61.0819 274.808C59.7554 273.929 58.9156 272.646 58.5625 270.957L61.4566 270.234C61.7322 271.302 62.2533 272.103 63.0199 272.637C63.7951 273.171 64.8072 273.438 66.0561 273.438C67.4773 273.438 68.6056 273.137 69.4411 272.534C70.2852 271.922 70.7073 271.19 70.7073 270.337C70.7073 269.648 70.4661 269.071 69.9838 268.606C69.5014 268.132 68.7607 267.779 67.7615 267.547L64.454 266.771C62.6366 266.341 61.3015 265.673 60.4488 264.769C59.6047 263.856 59.1826 262.715 59.1826 261.345C59.1826 260.225 59.497 259.235 60.1258 258.373C60.7632 257.512 61.6288 256.836 62.7227 256.345C63.8252 255.854 65.0742 255.609 66.4695 255.609C68.4334 255.609 69.9752 256.039 71.0949 256.901C72.2232 257.762 73.0243 258.899 73.498 260.311ZM82.9458 275.712L76.8992 255.867H80.1034L84.3928 271.061H84.5995L88.8373 255.867H92.0931L96.2792 271.009H96.4859L100.775 255.867H103.98L97.933 275.712H94.9355L90.5944 260.466H90.2843L85.9432 275.712H82.9458Z" fill="#46C147"/>
<path d="M511 327.883H626.212" stroke="#FF0000" stroke-width="3.03189"/>
<path d="M511 354H626.212" stroke="#FF0000" stroke-width="3.03189"/>
<path d="M601.957 329.383V351.383" stroke="#FF0000" stroke-width="3.03189"/>
<path d="M601.957 348L592.861 384.383H611.053L601.957 348Z" fill="#FF0000"/>
<path d="M601.957 335.383L592.861 299H611.053L601.957 335.383Z" fill="#FF0000"/>
<path d="M632.739 318V315.674L641.473 306.114C642.498 304.994 643.342 304.021 644.005 303.194C644.669 302.358 645.159 301.574 645.478 300.842C645.805 300.101 645.969 299.326 645.969 298.517C645.969 297.586 645.745 296.781 645.297 296.101C644.858 295.42 644.255 294.895 643.488 294.524C642.722 294.154 641.861 293.969 640.904 293.969C639.888 293.969 639.001 294.18 638.243 294.602C637.494 295.015 636.912 295.597 636.499 296.346C636.094 297.095 635.892 297.974 635.892 298.982H632.842C632.842 297.431 633.2 296.07 633.915 294.899C634.63 293.728 635.603 292.815 636.835 292.16C638.075 291.505 639.466 291.178 641.008 291.178C642.558 291.178 643.932 291.505 645.129 292.16C646.327 292.815 647.265 293.697 647.946 294.809C648.626 295.92 648.967 297.156 648.967 298.517C648.967 299.49 648.79 300.442 648.437 301.372C648.092 302.294 647.489 303.323 646.628 304.46C645.775 305.588 644.591 306.966 643.075 308.594L637.132 314.951V315.158H649.432V318H632.739ZM657.042 318.207C656.404 318.207 655.857 317.978 655.401 317.522C654.944 317.065 654.716 316.519 654.716 315.881C654.716 315.244 654.944 314.697 655.401 314.24C655.857 313.784 656.404 313.556 657.042 313.556C657.679 313.556 658.226 313.784 658.682 314.24C659.139 314.697 659.367 315.244 659.367 315.881C659.367 316.303 659.26 316.691 659.044 317.044C658.837 317.397 658.558 317.681 658.204 317.897C657.86 318.103 657.472 318.207 657.042 318.207ZM672.523 318.362C671.007 318.362 669.642 318.06 668.427 317.457C667.213 316.854 666.24 316.028 665.507 314.977C664.775 313.926 664.375 312.729 664.306 311.385H667.407C667.527 312.582 668.07 313.573 669.035 314.357C670.008 315.132 671.171 315.519 672.523 315.519C673.608 315.519 674.573 315.265 675.417 314.757C676.27 314.249 676.937 313.551 677.42 312.664C677.911 311.768 678.156 310.756 678.156 309.628C678.156 308.474 677.902 307.444 677.394 306.54C676.894 305.627 676.205 304.908 675.327 304.382C674.448 303.857 673.445 303.59 672.316 303.581C671.507 303.573 670.675 303.698 669.823 303.956C668.97 304.206 668.268 304.529 667.717 304.925L664.719 304.563L666.321 291.54H680.068V294.382H669.009L668.078 302.186H668.234C668.776 301.755 669.457 301.398 670.275 301.114C671.093 300.829 671.946 300.687 672.833 300.687C674.452 300.687 675.895 301.075 677.161 301.85C678.436 302.617 679.435 303.667 680.159 305.002C680.891 306.338 681.257 307.862 681.257 309.576C681.257 311.264 680.878 312.772 680.12 314.098C679.371 315.416 678.337 316.458 677.019 317.225C675.701 317.983 674.203 318.362 672.523 318.362ZM700.498 302.599L697.759 303.375C697.587 302.918 697.333 302.474 696.997 302.044C696.669 301.605 696.221 301.243 695.653 300.959C695.085 300.674 694.357 300.532 693.47 300.532C692.255 300.532 691.243 300.812 690.433 301.372C689.632 301.923 689.232 302.625 689.232 303.478C689.232 304.236 689.507 304.835 690.059 305.274C690.61 305.713 691.471 306.079 692.643 306.372L695.588 307.096C697.363 307.526 698.685 308.185 699.555 309.072C700.425 309.951 700.86 311.083 700.86 312.47C700.86 313.607 700.532 314.624 699.878 315.519C699.232 316.415 698.327 317.121 697.165 317.638C696.002 318.155 694.65 318.413 693.108 318.413C691.084 318.413 689.408 317.974 688.082 317.096C686.755 316.217 685.916 314.934 685.562 313.245L688.457 312.522C688.732 313.59 689.253 314.391 690.02 314.925C690.795 315.459 691.807 315.726 693.056 315.726C694.477 315.726 695.606 315.425 696.441 314.822C697.285 314.21 697.707 313.478 697.707 312.625C697.707 311.936 697.466 311.359 696.984 310.894C696.501 310.42 695.761 310.067 694.762 309.835L691.454 309.059C689.637 308.629 688.302 307.961 687.449 307.057C686.605 306.144 686.183 305.002 686.183 303.633C686.183 302.513 686.497 301.523 687.126 300.661C687.763 299.8 688.629 299.124 689.723 298.633C690.825 298.142 692.074 297.896 693.47 297.896C695.433 297.896 696.975 298.327 698.095 299.188C699.223 300.05 700.024 301.187 700.498 302.599ZM709.946 318L703.899 298.155H707.103L711.393 313.349H711.6L715.837 298.155H719.093L723.279 313.297H723.486L727.775 298.155H730.98L724.933 318H721.936L717.594 302.754H717.284L712.943 318H709.946Z" fill="#FF0000"/>
<path d="M579 700H694.212" stroke="#FF0000" stroke-width="3.03189"/>
<path d="M579 717H694.212" stroke="#FF0000" stroke-width="3.03189"/>
<path d="M669.957 692.383V714.383" stroke="#FF0000" stroke-width="3.03189"/>
<path d="M669.957 711L660.861 747.383H679.053L669.957 711Z" fill="#FF0000"/>
<path d="M669.957 707.383L660.861 671H679.053L669.957 707.383Z" fill="#FF0000"/>
<path d="M641.041 764.54V791H637.837V767.899H637.682L631.222 772.188V768.933L637.837 764.54H641.041ZM649.362 791.207C648.725 791.207 648.178 790.978 647.721 790.522C647.265 790.065 647.036 789.519 647.036 788.881C647.036 788.244 647.265 787.697 647.721 787.24C648.178 786.784 648.725 786.556 649.362 786.556C649.999 786.556 650.546 786.784 651.003 787.24C651.459 787.697 651.688 788.244 651.688 788.881C651.688 789.303 651.58 789.691 651.365 790.044C651.158 790.397 650.878 790.681 650.525 790.897C650.18 791.103 649.793 791.207 649.362 791.207ZM664.843 791.362C663.327 791.362 661.962 791.06 660.748 790.457C659.533 789.854 658.56 789.028 657.828 787.977C657.096 786.926 656.695 785.729 656.626 784.385H659.727C659.848 785.582 660.39 786.573 661.355 787.357C662.328 788.132 663.491 788.519 664.843 788.519C665.929 788.519 666.893 788.265 667.737 787.757C668.59 787.249 669.258 786.551 669.74 785.664C670.231 784.768 670.476 783.756 670.476 782.628C670.476 781.474 670.222 780.444 669.714 779.54C669.215 778.627 668.526 777.908 667.647 777.382C666.768 776.857 665.765 776.59 664.637 776.581C663.827 776.573 662.996 776.698 662.143 776.956C661.29 777.206 660.588 777.529 660.037 777.925L657.04 777.563L658.642 764.54H672.389V767.382H661.329L660.399 775.186H660.554C661.097 774.755 661.777 774.398 662.595 774.114C663.414 773.829 664.266 773.687 665.153 773.687C666.773 773.687 668.215 774.075 669.482 774.85C670.756 775.617 671.756 776.667 672.479 778.002C673.211 779.338 673.577 780.862 673.577 782.576C673.577 784.264 673.198 785.772 672.44 787.098C671.691 788.416 670.657 789.458 669.339 790.225C668.022 790.983 666.523 791.362 664.843 791.362ZM692.818 775.599L690.079 776.375C689.907 775.918 689.653 775.474 689.317 775.044C688.99 774.605 688.542 774.243 687.973 773.959C687.405 773.674 686.677 773.532 685.79 773.532C684.575 773.532 683.563 773.812 682.754 774.372C681.953 774.923 681.552 775.625 681.552 776.478C681.552 777.236 681.828 777.835 682.379 778.274C682.93 778.713 683.792 779.079 684.963 779.372L687.909 780.096C689.683 780.526 691.005 781.185 691.875 782.072C692.745 782.951 693.18 784.083 693.18 785.47C693.18 786.607 692.853 787.624 692.198 788.519C691.552 789.415 690.648 790.121 689.485 790.638C688.322 791.155 686.97 791.413 685.428 791.413C683.404 791.413 681.729 790.974 680.402 790.096C679.076 789.217 678.236 787.934 677.883 786.245L680.777 785.522C681.053 786.59 681.574 787.391 682.34 787.925C683.115 788.459 684.128 788.726 685.376 788.726C686.798 788.726 687.926 788.425 688.761 787.822C689.606 787.21 690.028 786.478 690.028 785.625C690.028 784.936 689.786 784.359 689.304 783.894C688.822 783.42 688.081 783.067 687.082 782.835L683.774 782.059C681.957 781.629 680.622 780.961 679.769 780.057C678.925 779.144 678.503 778.002 678.503 776.633C678.503 775.513 678.817 774.523 679.446 773.661C680.084 772.8 680.949 772.124 682.043 771.633C683.146 771.142 684.395 770.896 685.79 770.896C687.754 770.896 689.296 771.327 690.415 772.188C691.544 773.05 692.345 774.187 692.818 775.599ZM702.266 791L696.22 771.155H699.424L703.713 786.349H703.92L708.158 771.155H711.413L715.6 786.297H715.806L720.096 771.155H723.3L717.253 791H714.256L709.915 775.754H709.605L705.264 791H702.266Z" fill="#FF0000"/>
<path d="M942.064 683.5L960.814 715.976" stroke="#04E3E3" stroke-width="3.03189"/>
<path d="M942.064 689.564C945.413 689.564 948.128 686.849 948.128 683.5C948.128 680.151 945.413 677.436 942.064 677.436C938.715 677.436 936 680.151 936 683.5C936 686.849 938.715 689.564 942.064 689.564Z" fill="#04E3E3"/>
<path d="M960.814 715.976V697.785L945.06 706.88L960.814 715.976Z" fill="#04E3E3"/>
<path d="M982.768 693V666.54H991.709C993.776 666.54 995.473 666.893 996.799 667.599C998.126 668.297 999.107 669.257 999.745 670.48C1000.38 671.704 1000.7 673.095 1000.7 674.654C1000.7 676.213 1000.38 677.595 999.745 678.801C999.107 680.007 998.13 680.954 996.812 681.643C995.494 682.324 993.81 682.664 991.76 682.664H984.525V679.77H991.657C993.069 679.77 994.206 679.563 995.068 679.15C995.938 678.736 996.567 678.151 996.954 677.393C997.35 676.626 997.548 675.713 997.548 674.654C997.548 673.594 997.35 672.668 996.954 671.876C996.558 671.083 995.925 670.472 995.055 670.041C994.185 669.602 993.035 669.382 991.605 669.382H985.972V693H982.768ZM995.223 681.114L1001.73 693H998.014L991.605 681.114H995.223ZM1014.88 666.54V693H1011.67V669.899H1011.52L1005.06 674.188V670.933L1011.67 666.54H1014.88ZM1036.6 677.599L1033.86 678.375C1033.68 677.918 1033.43 677.474 1033.09 677.044C1032.77 676.605 1032.32 676.243 1031.75 675.959C1031.18 675.674 1030.45 675.532 1029.57 675.532C1028.35 675.532 1027.34 675.812 1026.53 676.372C1025.73 676.923 1025.33 677.625 1025.33 678.478C1025.33 679.236 1025.61 679.835 1026.16 680.274C1026.71 680.713 1027.57 681.079 1028.74 681.372L1031.69 682.096C1033.46 682.526 1034.78 683.185 1035.65 684.072C1036.52 684.951 1036.96 686.083 1036.96 687.47C1036.96 688.607 1036.63 689.624 1035.98 690.519C1035.33 691.415 1034.43 692.121 1033.26 692.638C1032.1 693.155 1030.75 693.413 1029.21 693.413C1027.18 693.413 1025.51 692.974 1024.18 692.096C1022.85 691.217 1022.01 689.934 1021.66 688.245L1024.55 687.522C1024.83 688.59 1025.35 689.391 1026.12 689.925C1026.89 690.459 1027.91 690.726 1029.15 690.726C1030.58 690.726 1031.7 690.425 1032.54 689.822C1033.38 689.21 1033.81 688.478 1033.81 687.625C1033.81 686.936 1033.56 686.359 1033.08 685.894C1032.6 685.42 1031.86 685.067 1030.86 684.835L1027.55 684.059C1025.73 683.629 1024.4 682.961 1023.55 682.057C1022.7 681.144 1022.28 680.002 1022.28 678.633C1022.28 677.513 1022.59 676.523 1023.22 675.661C1023.86 674.8 1024.73 674.124 1025.82 673.633C1026.92 673.142 1028.17 672.896 1029.57 672.896C1031.53 672.896 1033.07 673.327 1034.19 674.188C1035.32 675.05 1036.12 676.187 1036.6 677.599ZM1046.04 693L1040 673.155H1043.2L1047.49 688.349H1047.7L1051.94 673.155H1055.19L1059.38 688.297H1059.58L1063.87 673.155H1067.08L1061.03 693H1058.03L1053.69 677.754H1053.38L1049.04 693H1046.04Z" fill="#04E3E3"/>
</svg>
