<svg width="1105" height="560" viewBox="0 0 1105 560" fill="none" xmlns="http://www.w3.org/2000/svg">
<path d="M140 100C140 93.0965 145.596 87.5 152.5 87.5H952.5C959.403 87.5 965 93.0965 965 100V467.5C965 474.404 959.403 480 952.5 480H152.5C145.596 480 140 474.404 140 467.5V100Z" fill="white"/>
<path d="M771.25 146.25C860.996 146.25 933.75 207.811 933.75 283.75C933.75 359.689 860.996 421.25 771.25 421.25C681.504 421.25 608.75 359.689 608.75 283.75C608.75 207.811 681.504 146.25 771.25 146.25Z" fill="#FF0101"/>
<path d="M771.25 196.25H783.75V246.25C803.75 246.283 820.25 225.383 821.25 198.75H848.75C847.581 239.192 818.819 271.272 783.75 271.25V296.25C818.819 296.227 847.581 328.308 848.75 368.75H821.25C820.25 342.117 803.75 321.217 783.75 321.25V371.25H758.75V321.25C738.75 321.217 722.25 342.117 721.25 368.75H693.75C694.919 328.308 723.681 296.227 758.75 296.25V271.25C723.681 271.272 694.919 239.192 693.75 198.75H721.25C722.25 225.383 738.75 246.283 758.75 246.25V196.25H771.25Z" fill="white"/>
<path d="M207.373 221.859C220.006 221.553 230.286 225.409 238.213 233.429L237.843 233.789L236.013 235.259L235.643 235.809L235.093 236.359L234.363 236.729L233.803 237.279L233.253 237.829L232.893 238.379L232.153 238.749C231.726 239.329 231.36 239.759 231.053 240.039L229.953 240.769L229.773 241.139L229.403 241.319C228.756 242.119 228.143 242.733 227.563 243.159C219.856 236.853 211.903 234.833 203.703 237.099C203.243 237.526 202.753 237.833 202.233 238.019C201.56 238.719 200.946 239.269 200.393 239.669L200.213 240.039L199.293 242.239C199.353 244.686 200.15 246.643 201.683 248.109L204.803 249.219L207.733 249.769C208.653 250.076 209.45 250.259 210.123 250.319L210.863 250.499L211.593 250.689L212.323 250.869L213.063 251.049L213.983 251.419H214.533L215.263 251.599L216.183 251.969L216.913 252.149H217.463C218.17 252.429 218.783 252.613 219.303 252.699L220.773 253.069C221.353 253.343 221.843 253.526 222.243 253.619L222.793 253.809L225.183 254.719L225.543 255.089C226.736 255.643 227.716 256.256 228.483 256.929C228.696 257.049 228.82 257.169 228.853 257.289L229.213 257.479C229.766 257.873 230.196 258.239 230.503 258.579C231.27 259.159 231.883 259.709 232.343 260.229C236.81 266.443 237.91 272.869 235.643 279.509C233.223 286.303 228.94 290.769 222.793 292.909C203.666 298.783 188.06 295.049 175.973 281.709L176.523 280.979L177.263 280.609C177.476 280.336 177.72 280.153 177.993 280.059C178.486 279.419 179.036 278.993 179.643 278.779C179.863 278.499 180.11 278.313 180.383 278.219C180.596 277.946 180.84 277.763 181.113 277.669L181.483 277.119L182.033 276.759L182.403 276.389L182.953 276.019L183.503 275.839L183.873 275.289L184.233 275.099L184.603 274.739L184.973 274.549L185.343 274.369L187.913 272.169C196.02 280.123 205.076 282.996 215.083 280.789L215.633 280.429L216.183 280.239L216.363 279.879L219.123 278.039C219.55 276.999 219.976 276.143 220.403 275.469C220.77 272.136 219.73 269.506 217.283 267.579L216.553 267.389L216.003 267.029L215.263 266.839L213.793 266.469H213.243L212.513 266.289L212.143 266.109C211.01 265.923 210.03 265.676 209.203 265.369H208.653L208.103 265.189L206.633 264.819C205.106 264.639 203.823 264.333 202.783 263.899C190.816 262.339 184.206 256.099 182.953 245.179C183.226 231.379 191.366 223.606 207.373 221.859Z" fill="black"/>
<path d="M269.174 223.557C269.421 223.83 269.544 224.134 269.544 224.467V243.197H270.274H272.294H273.214H275.594H276.334H279.454H280.924H282.204V254.767H281.474H279.454H278.534H276.144H275.414H272.294H271.744H269.544V279.737L269.904 280.837C272.264 283.224 275.997 283.467 281.104 281.567L281.294 282.307L282.204 285.237L282.394 285.797L282.574 287.257L283.124 288.547V289.097C283.397 289.864 283.581 290.537 283.674 291.117L284.224 292.957C276.604 295.344 269.384 295.83 262.564 294.417C260.484 293.377 258.831 292.154 257.604 290.747C256.717 289.16 256.107 287.814 255.774 286.707V285.427C255.554 284.754 255.491 284.14 255.584 283.587V282.857V282.117V281.567V278.267V275.877V275.147V272.027V271.467V269.267V266.887V266.147V262.847V262.107V261.377V260.637V257.517V256.967V254.767H254.854H254.114H253.384H250.264H249.714H247.504V253.847V253.117V252.197V249.807V249.077V245.957V245.397V243.197H248.244H248.974H249.714H252.834H254.304H255.584V240.077V239.347V236.217V234.207V233.467V230.347V229.797V227.597L256.324 227.407L256.684 227.227L258.344 226.857C259.044 226.55 259.654 226.367 260.174 226.307L262.564 225.577L263.484 225.387L265.314 224.657C266.874 224.35 268.161 223.984 269.174 223.557Z" fill="black"/>
<path d="M309.882 241.919C318.269 241.365 325.245 243.445 330.812 248.159L331.002 248.529C331.489 249.142 331.855 249.752 332.102 250.359C332.742 251.312 333.169 252.169 333.382 252.929V253.669C333.749 254.862 333.932 255.902 333.932 256.789V274.779C333.812 277.812 333.935 280.322 334.302 282.309C335.802 283.869 337.515 284.849 339.442 285.249L339.072 285.799L338.712 286.719L338.342 287.449L338.162 287.999L337.972 288.549L337.612 289.099L336.872 290.939L336.502 291.489L336.322 292.039L336.142 292.589L335.952 292.959L334.672 295.709C329.225 295.742 325.125 294.029 322.372 290.569C317.139 295.769 310.652 297.055 302.912 294.429C295.779 292.469 291.615 288.122 290.422 281.389C290.482 271.509 295.135 265.755 304.382 264.129C304.869 263.822 305.355 263.639 305.842 263.579H306.392C306.579 263.459 306.765 263.399 306.952 263.399L307.502 263.219L310.802 262.669L312.272 262.479L312.822 262.299L315.942 262.109C317.595 261.869 318.942 261.809 319.982 261.929C320.442 255.109 316.709 252.782 308.782 254.949L308.232 255.139L306.762 255.319L305.482 255.869L304.932 256.059L303.092 256.609C302.145 257.249 301.289 257.675 300.522 257.889C299.482 258.689 298.442 259.239 297.402 259.539L296.112 257.159L295.752 256.969L295.562 256.419L295.202 256.059L295.012 255.509C294.219 254.589 293.669 253.729 293.362 252.929C292.875 252.475 292.569 251.989 292.442 251.469C291.649 250.702 291.159 249.905 290.972 249.079L291.342 248.899L291.892 248.529L292.262 248.339C293.089 247.792 293.822 247.365 294.462 247.059C294.955 246.719 295.445 246.535 295.932 246.509L296.302 246.139C297.435 245.619 298.412 245.252 299.232 245.039L299.602 244.669H300.152C300.732 244.302 301.222 244.059 301.622 243.939H302.172C302.999 243.512 303.795 243.265 304.562 243.199C306.242 242.499 307.832 242.132 309.332 242.099L309.882 241.919ZM319.432 272.029L318.702 272.209H318.142C317.409 272.422 316.799 272.545 316.312 272.579H315.762C315.575 272.699 315.392 272.759 315.212 272.759L314.472 272.949H313.922L313.192 273.129L312.092 273.309C311.905 273.435 311.722 273.499 311.542 273.499L310.802 273.679L310.252 273.859C308.539 274.292 307.192 274.722 306.212 275.149C304.925 276.862 304.559 278.635 305.112 280.469C308.172 284.755 312.579 285.492 318.332 282.679L319.802 280.469L319.982 279.739V279.009V278.449V277.539V276.989V276.249V275.699V272.029" fill="black"/>
<path d="M366.674 223.557C366.921 223.83 367.044 224.134 367.044 224.467V243.197H367.774H369.794H370.714H373.094H373.834H376.954H378.424H379.704V254.767H378.974H376.954H376.034H373.644H372.914H369.794H369.244H367.044V279.737L367.404 280.837C369.764 283.224 373.497 283.467 378.604 281.567L378.794 282.307L379.704 285.237L379.894 285.797L380.074 287.257L380.624 288.547V289.097C380.897 289.864 381.081 290.537 381.174 291.117L381.724 292.957C374.104 295.344 366.884 295.83 360.064 294.417C357.984 293.377 356.331 292.154 355.104 290.747C354.217 289.16 353.607 287.814 353.274 286.707V285.427C353.054 284.754 352.991 284.14 353.084 283.587V282.857V282.117V281.567V278.267V275.877V275.147V272.027V271.467V269.267V266.887V266.147V262.847V262.107V261.377V260.637V257.517V256.967V254.767H352.354H351.614H350.884H347.764H347.214H345.004V253.847V253.117V252.197V249.807V249.077V245.957V245.397V243.197H345.744H346.474H347.214H350.334H351.804H353.084V240.077V239.347V236.217V234.207V233.467V230.347V229.797V227.597L353.824 227.407L354.184 227.227L355.844 226.857C356.544 226.55 357.154 226.367 357.674 226.307L360.064 225.577L360.984 225.387L362.814 224.657C364.374 224.35 365.661 223.984 366.674 223.557Z" fill="black"/>
<path d="M394.802 223.223C399.855 223.129 402.978 225.333 404.172 229.833C404.258 233.293 403.095 235.986 400.682 237.913C395.142 240.113 391.225 238.766 388.932 233.873C387.705 228.366 389.662 224.816 394.802 223.223ZM389.482 243.783H392.602H393.332H394.252H396.642H397.372H400.492H401.962H403.252V293.903H400.682H398.662H397.742H397.192H396.462H395.902H392.232H391.682H389.482V293.353V292.433V291.883V291.153V290.603V286.933V285.643V284.913V283.993V283.253V282.343V279.953V279.223V276.093V275.543V273.343V272.063V270.773V269.673V268.383V267.283V266.003V264.903V261.773V260.673V259.753V258.653V257.923V254.613V252.593V251.863V251.133V250.393V249.663V246.543V245.993" fill="black"/>
<path d="M436.011 241.573C448.071 241.479 456.151 246.496 460.251 256.623C460.678 257.176 460.981 257.729 461.161 258.283C463.794 268.929 462.511 278.293 457.311 286.373C449.998 294.786 441.308 297.539 431.241 294.633C420.654 291.019 414.901 283.493 413.981 272.053C413.061 254.546 420.404 244.386 436.011 241.573ZM436.751 253.873C430.078 256.746 427.138 261.886 427.931 269.293C427.751 277.159 430.994 281.809 437.661 283.243C445.681 282.696 449.294 276.823 448.501 265.623C447.548 257.883 443.631 253.966 436.751 253.873Z" fill="black"/>
<path d="M499.362 242.407C507.749 242.133 514.296 245.56 519.002 252.687L519.192 253.247L519.372 253.797L519.552 254.347C519.859 254.867 520.046 255.357 520.112 255.817L520.842 258.017V258.567C521.269 260.767 521.452 262.54 521.392 263.887V293.817H517.722H516.802H516.252H515.522H514.782H514.052H513.312H510.192H509.642H507.442V293.267V292.347V291.797V291.067V290.517V286.837V284.267V282.247V281.337V280.777V280.047V279.497V275.827V275.087V273.067V271.237V267.927V267.377V266.827V266.097V262.787V262.057C507.136 261.29 506.952 260.617 506.892 260.037C505.419 257.463 503.459 255.81 501.012 255.077C495.932 254.957 492.199 256.917 489.812 260.957L489.452 262.237V293.817H485.772H484.862H484.302H483.572H482.842H482.102H481.372H478.252H477.702H475.492V293.267V292.347V291.797V291.067V290.517V286.837V285.557V284.817V283.907V283.167V282.247V279.867V279.127V276.007V275.457V273.257V271.967V270.687V269.587V268.297V267.197V265.907V264.807V261.687V260.587V259.667V258.567V257.837V254.527V252.507V251.777V251.037V250.307V249.567V246.447V245.897V243.697H479.162H480.082H480.632H481.372H482.102H482.842H483.572H486.692H487.242H489.452C489.386 244.95 489.446 245.99 489.632 246.817C492.692 244.397 495.936 242.927 499.362 242.407Z" fill="black"/>
<path d="M243.25 219.75H172.25V317.75H243.25V219.75Z" stroke="black" stroke-width="2" stroke-dasharray="5 5"/>
<path d="M285.25 219.75H245.25V317.75H285.25V219.75Z" stroke="black" stroke-width="2" stroke-dasharray="5 5"/>
<path d="M340.75 219.75H287.25V317.75H340.75V219.75Z" stroke="black" stroke-width="2" stroke-dasharray="5 5"/>
<path d="M382.75 219.75H342.75V317.75H382.75V219.75Z" stroke="black" stroke-width="2" stroke-dasharray="5 5"/>
<path d="M410.25 219.75H384.75V317.75H410.25V219.75Z" stroke="black" stroke-width="2" stroke-dasharray="5 5"/>
<path d="M467.75 219.75H412.25V317.75H467.75V219.75Z" stroke="black" stroke-width="2" stroke-dasharray="5 5"/>
<path d="M527.25 219.75H469.75V317.75H527.25V219.75Z" stroke="black" stroke-width="2" stroke-dasharray="5 5"/>
<path d="M191 369.265V358.235H290.45V369.265H191ZM236.34 365.215L247.02 362.625C249.427 371.479 252.674 379.729 256.76 387.375C260.847 395.029 265.87 401.722 271.83 407.455C277.797 413.195 284.717 417.715 292.59 421.015C291.69 421.762 290.734 422.735 289.72 423.935C288.707 425.135 287.75 426.355 286.85 427.595C285.95 428.835 285.2 429.942 284.6 430.915C276.274 427.015 269.017 421.859 262.83 415.445C256.644 409.032 251.414 401.589 247.14 393.115C242.867 384.642 239.267 375.342 236.34 365.215ZM234.65 326.855H246.24C246.24 332.175 246.107 337.892 245.84 344.005C245.58 350.119 245 356.402 244.1 362.855C243.2 369.302 241.737 375.752 239.71 382.205C237.69 388.652 234.877 394.875 231.27 400.875C227.677 406.875 223.067 412.445 217.44 417.585C211.814 422.719 204.95 427.199 196.85 431.025C195.95 429.599 194.75 428.042 193.25 426.355C191.75 424.669 190.25 423.262 188.75 422.135C196.55 418.615 203.13 414.509 208.49 409.815C213.857 405.129 218.207 400.029 221.54 394.515C224.88 389.009 227.45 383.292 229.25 377.365C231.05 371.439 232.327 365.512 233.08 359.585C233.827 353.665 234.277 347.929 234.43 342.375C234.577 336.829 234.65 331.655 234.65 326.855Z" fill="black"/>
<path d="M346.393 364.878V358.808H409.733V364.878H346.393ZM346.953 407.408V401.218H409.843V407.408H346.953ZM377.663 414.828V383.668H387.233V414.828H377.663ZM393.193 373.878H362.483V380.068H393.193V373.878ZM353.483 385.128V368.588H402.643V385.128H353.483ZM369.453 341.478L378.343 342.608C377.516 345.681 376.576 348.941 375.523 352.388C374.476 355.841 373.503 358.804 372.603 361.278H363.263C364.316 358.578 365.403 355.391 366.523 351.718C367.649 348.044 368.626 344.631 369.453 341.478ZM352.913 353.288V347.558H400.053V362.068H391.163V353.288H352.913ZM330.413 431.368V331.468H425.593V431.368H415.133V341.138H340.543V431.368H330.413ZM336.833 426.868V417.188H420.753V426.868H336.833ZM354.833 405.608V389.288H405.003V395.368H363.153V405.608" fill="black"/>
<path d="M466.56 358.473V348.573H509.99V358.473H466.56ZM483.55 353.523V328.323H493.56V353.523H483.55ZM536.2 359.143V349.023H568.71V359.143H536.2ZM517.07 425.863V415.843H558.7V425.863H517.07ZM530.91 384.683V326.743H541.82V384.683H530.91ZM512.35 431.143V380.293H564.32V430.693H553.41V390.193H522.7V431.143H512.35ZM466.45 419.783L464.2 409.093C468.1 408.419 472.56 407.559 477.58 406.513C482.607 405.459 487.954 404.313 493.62 403.073C499.28 401.839 504.887 400.623 510.44 399.423L511.56 409.213C506.314 410.486 501.027 411.759 495.7 413.033C490.374 414.306 485.217 415.506 480.23 416.633C475.244 417.759 470.65 418.809 466.45 419.783ZM470.16 364.213L478.82 362.523C479.8 366.649 480.644 371.036 481.35 375.683C482.064 380.336 482.627 384.873 483.04 389.293C483.454 393.719 483.697 397.696 483.77 401.223L474.55 402.913C474.55 399.386 474.36 395.409 473.98 390.983C473.607 386.556 473.104 381.999 472.47 377.313C471.83 372.626 471.06 368.259 470.16 364.213ZM495.92 361.393L506.39 363.193C505.79 367.919 505.077 372.889 504.25 378.103C503.424 383.316 502.56 388.303 501.66 393.063C500.76 397.829 499.897 402.049 499.07 405.723L490.19 403.813C490.784 401.033 491.364 397.883 491.93 394.363C492.49 390.836 493.034 387.139 493.56 383.273C494.087 379.413 494.557 375.609 494.97 371.863C495.384 368.109 495.7 364.619 495.92 361.393Z" fill="black"/>
<path d="M307.75 319.75H172.25V460.25H307.75V319.75Z" stroke="black" stroke-width="2" stroke-dasharray="5 5"/>
<path d="M445.25 319.75H309.75V460.25H445.25V319.75Z" stroke="black" stroke-width="2" stroke-dasharray="5 5"/>
<path d="M582.75 319.75H447.25V460.25H582.75V319.75Z" stroke="black" stroke-width="2" stroke-dasharray="5 5"/>
<path d="M172.703 123.373H173.443H174.173H174.723H175.463H178.763H179.503H182.803H183.903H185.193H188.863H190.333H191.803H193.273H194.733H198.413H198.963H199.513H205.203H206.483H207.593H208.873H209.973H210.893H211.993H212.733H216.033H218.053H218.793H219.523H220.253H220.993H224.113H224.663H226.863V137.333H225.763H225.213H221.543H219.153H218.423H215.113H214.383H213.643H212.913H209.793H209.243H207.043V193.693H204.653H203.913H200.613H199.883H199.143H198.413H195.293H194.733H192.533V192.403V191.853V190.943V190.393V189.653V189.103V185.433V184.693V181.393V180.293V179.003V175.333V173.863V172.393V170.923V169.463V165.783V165.233V164.683V158.993V157.713V156.603V155.323V154.223V153.303V152.203V151.463V148.163V146.143V145.403V144.673V143.943V143.203V140.083V139.533V137.333H191.433H190.883H187.213H184.823H184.093H180.783H180.053H179.313H178.583H175.463H174.913H172.703V133.653V132.743V132.193V131.453V130.723V129.983V129.253V126.133V125.583" fill="black"/>
<path d="M249.632 141.919C258.019 141.365 264.995 143.445 270.562 148.159L270.752 148.529C271.239 149.142 271.605 149.752 271.852 150.359C272.492 151.312 272.919 152.169 273.132 152.929V153.669C273.499 154.862 273.682 155.902 273.682 156.789V174.779C273.562 177.812 273.685 180.322 274.052 182.309C275.552 183.869 277.265 184.849 279.192 185.249L278.822 185.799L278.462 186.719L278.092 187.449L277.912 187.999L277.722 188.549L277.362 189.099L276.622 190.939L276.252 191.489L276.072 192.039L275.892 192.589L275.702 192.959L274.422 195.709C268.975 195.742 264.875 194.029 262.122 190.569C256.889 195.769 250.402 197.055 242.662 194.429C235.529 192.469 231.365 188.122 230.172 181.389C230.232 171.509 234.885 165.755 244.132 164.129C244.619 163.822 245.105 163.639 245.592 163.579H246.142C246.329 163.459 246.515 163.399 246.702 163.399L247.252 163.219L250.552 162.669L252.022 162.479L252.572 162.299L255.692 162.109C257.345 161.869 258.692 161.809 259.732 161.929C260.192 155.109 256.459 152.782 248.532 154.949L247.982 155.139L246.512 155.319L245.232 155.869L244.682 156.059L242.842 156.609C241.895 157.249 241.039 157.675 240.272 157.889C239.232 158.689 238.192 159.239 237.152 159.539L235.862 157.159L235.502 156.969L235.312 156.419L234.952 156.059L234.762 155.509C233.969 154.589 233.419 153.729 233.112 152.929C232.625 152.475 232.319 151.989 232.192 151.469C231.399 150.702 230.909 149.905 230.722 149.079L231.092 148.899L231.642 148.529L232.012 148.339C232.839 147.792 233.572 147.365 234.212 147.059C234.705 146.719 235.195 146.535 235.682 146.509L236.052 146.139C237.185 145.619 238.162 145.252 238.982 145.039L239.352 144.669H239.902C240.482 144.302 240.972 144.059 241.372 143.939H241.922C242.749 143.512 243.545 143.265 244.312 143.199C245.992 142.499 247.582 142.132 249.082 142.099L249.632 141.919ZM259.182 172.029L258.452 172.209H257.892C257.159 172.422 256.549 172.545 256.062 172.579H255.512C255.325 172.699 255.142 172.759 254.962 172.759L254.222 172.949H253.672L252.942 173.129L251.842 173.309C251.655 173.435 251.472 173.499 251.292 173.499L250.552 173.679L250.002 173.859C248.289 174.292 246.942 174.722 245.962 175.149C244.675 176.862 244.309 178.635 244.862 180.469C247.922 184.755 252.329 185.492 258.082 182.679L259.552 180.469L259.732 179.739V179.009V178.449V177.539V176.989V176.249V175.699V172.029" fill="black"/>
<path d="M290.802 123.223C295.855 123.129 298.978 125.333 300.172 129.833C300.258 133.293 299.095 135.986 296.682 137.913C291.142 140.113 287.225 138.766 284.932 133.873C283.705 128.366 285.662 124.816 290.802 123.223ZM285.482 143.783H288.602H289.332H290.252H292.642H293.372H296.492H297.962H299.252V193.903H296.682H294.662H293.742H293.192H292.462H291.902H288.232H287.682H285.482V193.353V192.433V191.883V191.153V190.603V186.933V185.643V184.913V183.993V183.253V182.343V179.953V179.223V176.093V175.543V173.343V172.063V170.773V169.673V168.383V167.283V166.003V164.903V161.773V160.673V159.753V158.653V157.923V154.613V152.593V151.863V151.133V150.393V149.663V146.543V145.993" fill="black"/>
<path d="M337.891 123.83H338.811H339.911H340.831H341.381H342.301H343.031H343.581H344.501H345.421H345.971H348.171H348.721C350.374 123.736 351.784 123.796 352.951 124.01V124.56L353.681 127.69L353.861 128.79C353.987 128.97 354.051 129.153 354.051 129.34L354.231 129.89L354.411 130.26L354.601 131.17L355.151 134.11L355.331 134.48V135.03C355.791 136.13 356.037 137.17 356.071 138.15L356.431 139.25V139.8C356.891 140.906 357.137 141.946 357.171 142.92L357.541 143.84L357.721 144.76L357.901 145.86C358.454 147.513 358.761 148.92 358.821 150.08C359.221 151.033 359.464 151.89 359.551 152.65C359.737 153.416 359.861 154.09 359.921 154.67C360.381 155.803 360.627 156.846 360.661 157.8C360.934 158.5 361.117 159.11 361.211 159.63C361.391 160.396 361.511 161.07 361.571 161.65C361.971 162.81 362.217 163.79 362.311 164.59L362.491 165.51L363.041 167.34L363.231 168.63L363.961 171.2L364.141 170.28L364.331 169.73V169.18L364.511 168.63C364.724 167.31 364.971 166.206 365.251 165.32V164.59L365.431 164.04L365.981 161.65V161.1L366.161 160.37L366.351 159.81L366.531 159.26V158.71L366.901 157.43V156.88C367.081 156.173 367.204 155.56 367.271 155.04C367.484 154.426 367.604 153.876 367.631 153.39C368.031 151.95 368.277 150.726 368.371 149.72L368.551 148.8L368.731 148.25L369.841 142.92L370.021 142.01L370.201 141.46C370.354 140.506 370.537 139.71 370.751 139.07V138.52L371.121 137.05L371.861 133.38L372.041 133.01L372.411 130.81L372.591 130.26V129.71L373.141 127.87C373.261 126.71 373.444 125.73 373.691 124.93L373.881 123.83H374.791H375.891H376.631H379.931H381.951H382.691H383.421H384.161H384.891H388.011H388.561H390.771L390.951 125.12L391.321 126.4V127.14C391.774 128.82 392.077 130.226 392.231 131.36L392.791 133.93L393.341 136.13L393.521 137.05L393.701 138.33L393.891 139.44L394.071 140.54L394.441 141.46L394.621 142.56L394.801 143.48V144.03C394.927 144.21 394.991 144.393 394.991 144.58C395.237 145.313 395.361 145.986 395.361 146.6C395.481 146.78 395.541 146.963 395.541 147.15L395.721 147.51V148.06L396.091 149.53L396.461 151.74L396.821 152.84L397.011 153.94V154.49L397.381 155.96L397.561 157.06C397.927 158.04 398.111 158.956 398.111 159.81L398.291 160.55C398.631 161.47 398.814 162.266 398.841 162.94L399.031 163.49L399.211 164.96L399.581 166.42L399.761 167.53C400.254 168.936 400.501 170.16 400.501 171.2L401.051 170.1V169.36L401.411 167.89L401.601 167.34L401.781 166.79C401.901 165.783 402.084 164.926 402.331 164.22L402.701 162.75L402.881 161.65L403.071 161.28L403.251 160L403.981 157.43L404.171 156.14L404.541 154.86L404.721 153.57L405.091 152.29L405.271 151.55L405.641 150.08L406.741 145.49L406.921 144.39L407.291 142.92L407.661 141.64L407.841 140.54L408.211 139.44L408.391 138.7V137.97L408.571 137.23L408.761 136.68L408.941 136.31L409.311 134.11L409.681 132.64L410.041 131.36V130.81L410.231 130.26L410.411 129.71V129.15L410.781 127.87L410.961 127.32V126.77C411.387 125.636 411.634 124.656 411.701 123.83H412.431H415.731H417.751H418.491H419.221H419.961H420.691H423.811H424.361H426.571V124.38L426.381 125.48L425.831 126.95L425.651 128.24L425.101 130.81L424.911 131.36C424.637 132.766 424.334 133.93 424.001 134.85C423.967 135.55 423.844 136.16 423.631 136.68L422.531 141.46L422.341 142.01V142.56L422.161 143.66L421.791 145.13C421.484 145.983 421.301 146.716 421.241 147.33L421.061 147.7L420.881 148.98C420.574 149.993 420.387 150.85 420.321 151.55C420.047 152.256 419.864 152.87 419.771 153.39L419.591 154.12L419.411 154.67C419.377 155.376 419.254 155.99 419.041 156.51L418.861 157.61L418.671 158.35L418.491 158.71L418.301 160L417.571 162.57L417.021 165.69L416.651 167.16L416.291 168.44L416.101 169.55L415.921 170.28L415.731 170.83L415.551 171.2L415.181 173.4L414.631 175.79L414.451 176.34C414.204 177.78 413.897 178.943 413.531 179.83V180.56C413.224 181.48 413.041 182.276 412.981 182.95L412.801 183.5L412.611 184.05L412.251 185.52L412.061 186.8L411.331 189.37L411.141 190.66L410.411 193.96H409.311H408.761H405.091H404.171H403.621H402.701H401.961H401.411H400.501H399.581H399.031H396.821H396.271C394.617 194.053 393.211 193.993 392.051 193.78V193.23L391.871 192.86V192.31L391.681 191.76L391.321 189.56L390.401 185.33L390.211 184.05C389.724 182.363 389.421 180.956 389.301 179.83L388.931 178.36L388.561 176.89L388.381 175.6L388.201 174.32L387.831 173.22V172.48L387.281 170.28V169.73C386.761 168.043 386.454 166.636 386.361 165.51L385.991 164.4V163.49C385.871 163.303 385.811 163.12 385.811 162.94L385.631 162.57L384.891 158.53L384.711 157.8L384.161 154.86L383.791 153.39L383.611 152.65V151.92L383.421 151.19L383.051 149.9V149.35L382.691 147.88L382.321 146.6L382.141 147.15L381.951 148.25L381.771 148.98L381.591 150.08L380.851 153.57L380.481 154.86V155.41L379.751 158.35L379.571 159.81L379.201 161.28L378.831 162.75L378.651 164.22L378.281 165.69L377.911 167.89C377.484 169.27 377.241 170.433 377.181 171.38L376.811 172.48L376.631 173.4V173.95C376.417 174.656 376.294 175.27 376.261 175.79C376.047 176.403 375.924 176.953 375.891 177.44L375.531 178.36L375.161 180.93L374.981 181.85L374.791 182.58L374.061 185.89L373.511 188.46L373.321 189.56L372.961 191.03L372.411 193.96H371.301H370.751H367.081H366.161H365.611H364.701H363.961H363.411H362.491H361.571H361.021H358.821H358.271C356.617 194.053 355.211 193.993 354.051 193.78L353.861 192.31C353.314 190.656 353.011 189.25 352.951 188.09C352.764 187.63 352.641 187.2 352.581 186.8L352.211 185.33L351.841 183.87L351.481 182.58L351.291 181.11L351.111 180.38C350.744 179.366 350.561 178.51 350.561 177.81L350.381 177.07L349.461 173.95V173.22C349.001 171.993 348.754 170.89 348.721 169.91C348.261 168.81 348.017 167.833 347.991 166.98L347.621 165.87L347.441 164.4C347.314 164.22 347.251 164.036 347.251 163.85L346.341 160.18L345.971 158.71V158.16C345.604 157.273 345.421 156.48 345.421 155.78C345.234 155.32 345.111 154.89 345.051 154.49L344.681 153.21L344.501 151.92C344.167 151 343.984 150.203 343.951 149.53C343.397 147.943 343.091 146.596 343.031 145.49L342.661 144.58L342.481 143.66L342.301 142.56L342.111 141.64C341.991 141.3 341.931 140.993 341.931 140.72L341.561 139.99L341.011 137.05C340.704 136.13 340.521 135.333 340.461 134.66C340.187 133.96 340.064 133.35 340.091 132.83C339.544 131.39 339.241 130.103 339.181 128.97C338.874 128.236 338.691 127.563 338.631 126.95L338.441 126.4V125.85C338.134 125.116 337.951 124.443 337.891 123.83Z" fill="black"/>
<path d="M452.382 141.919C460.769 141.365 467.745 143.445 473.312 148.159L473.502 148.529C473.989 149.142 474.355 149.752 474.602 150.359C475.242 151.312 475.669 152.169 475.882 152.929V153.669C476.249 154.862 476.432 155.902 476.432 156.789V174.779C476.312 177.812 476.435 180.322 476.802 182.309C478.302 183.869 480.015 184.849 481.942 185.249L481.572 185.799L481.212 186.719L480.842 187.449L480.662 187.999L480.472 188.549L480.112 189.099L479.372 190.939L479.002 191.489L478.822 192.039L478.642 192.589L478.452 192.959L477.172 195.709C471.725 195.742 467.625 194.029 464.872 190.569C459.639 195.769 453.152 197.055 445.412 194.429C438.279 192.469 434.115 188.122 432.922 181.389C432.982 171.509 437.635 165.755 446.882 164.129C447.369 163.822 447.855 163.639 448.342 163.579H448.892C449.079 163.459 449.265 163.399 449.452 163.399L450.002 163.219L453.302 162.669L454.772 162.479L455.322 162.299L458.442 162.109C460.095 161.869 461.442 161.809 462.482 161.929C462.942 155.109 459.209 152.782 451.282 154.949L450.732 155.139L449.262 155.319L447.982 155.869L447.432 156.059L445.592 156.609C444.645 157.249 443.789 157.675 443.022 157.889C441.982 158.689 440.942 159.239 439.902 159.539L438.612 157.159L438.252 156.969L438.062 156.419L437.702 156.059L437.512 155.509C436.719 154.589 436.169 153.729 435.862 152.929C435.375 152.475 435.069 151.989 434.942 151.469C434.149 150.702 433.659 149.905 433.472 149.079L433.842 148.899L434.392 148.529L434.762 148.339C435.589 147.792 436.322 147.365 436.962 147.059C437.455 146.719 437.945 146.535 438.432 146.509L438.802 146.139C439.935 145.619 440.912 145.252 441.732 145.039L442.102 144.669H442.652C443.232 144.302 443.722 144.059 444.122 143.939H444.672C445.499 143.512 446.295 143.265 447.062 143.199C448.742 142.499 450.332 142.132 451.832 142.099L452.382 141.919ZM461.932 172.029L461.202 172.209H460.642C459.909 172.422 459.299 172.545 458.812 172.579H458.262C458.075 172.699 457.892 172.759 457.712 172.759L456.972 172.949H456.422L455.692 173.129L454.592 173.309C454.405 173.435 454.222 173.499 454.042 173.499L453.302 173.679L452.752 173.859C451.039 174.292 449.692 174.722 448.712 175.149C447.425 176.862 447.059 178.635 447.612 180.469C450.672 184.755 455.079 185.492 460.832 182.679L462.302 180.469L462.482 179.739V179.009V178.449V177.539V176.989V176.249V175.699V172.029" fill="black"/>
<path d="M495.302 123.223C500.355 123.129 503.478 125.333 504.672 129.833C504.758 133.293 503.595 135.986 501.182 137.913C495.642 140.113 491.725 138.766 489.432 133.873C488.205 128.366 490.162 124.816 495.302 123.223ZM489.982 143.783H493.102H493.832H494.752H497.142H497.872H500.992H502.462H503.752V193.903H501.182H499.162H498.242H497.692H496.962H496.402H492.732H492.182H489.982V193.353V192.433V191.883V191.153V190.603V186.933V185.643V184.913V183.993V183.253V182.343V179.953V179.223V176.093V175.543V173.343V172.063V170.773V169.673V168.383V167.283V166.003V164.903V161.773V160.673V159.753V158.653V157.923V154.613V152.593V151.863V151.133V150.393V149.663V146.543V145.993" fill="black"/>
<path d="M226.75 119.75H172.25V217.75H226.75V119.75Z" stroke="black" stroke-width="2" stroke-dasharray="5 5"/>
<path d="M278.75 119.75H228.75V217.75H278.75V119.75Z" stroke="black" stroke-width="2" stroke-dasharray="5 5"/>
<path d="M306.25 119.75H280.75V217.75H306.25V119.75Z" stroke="black" stroke-width="2" stroke-dasharray="5 5"/>
<path d="M331.25 119.75H308.25V217.75H331.25V119.75Z" stroke="black" stroke-width="2" stroke-dasharray="5 5"/>
<path d="M427.75 119.75H333.25V217.75H427.75V119.75Z" stroke="black" stroke-width="2" stroke-dasharray="5 5"/>
<path d="M483.25 119.75H429.75V217.75H483.25V119.75Z" stroke="black" stroke-width="2" stroke-dasharray="5 5"/>
<path d="M510.75 119.75H485.25V217.75H510.75V119.75Z" stroke="black" stroke-width="2" stroke-dasharray="5 5"/>
<path d="M932.773 265.212V150" stroke="#46C147" stroke-width="3.03189"/>
<path d="M964 265.212V150" stroke="#46C147" stroke-width="3.03189"/>
<path d="M932.773 174.255H961.122" stroke="#46C147" stroke-width="3.03189"/>
<path d="M959 174.255L983.255 168.191V180.319L959 174.255Z" fill="#46C147"/>
<path d="M939.255 174.255L915 168.191V180.319L939.255 174.255Z" fill="#46C147"/>
<path d="M1006.74 186.712V184.386L1015.47 174.826C1016.5 173.706 1017.34 172.733 1018.01 171.906C1018.67 171.07 1019.16 170.286 1019.48 169.554C1019.81 168.814 1019.97 168.038 1019.97 167.229C1019.97 166.298 1019.75 165.493 1019.3 164.813C1018.86 164.132 1018.26 163.607 1017.49 163.236C1016.72 162.866 1015.86 162.681 1014.9 162.681C1013.89 162.681 1013 162.892 1012.24 163.314C1011.49 163.727 1010.91 164.309 1010.5 165.058C1010.09 165.807 1009.89 166.686 1009.89 167.694H1006.84C1006.84 166.143 1007.2 164.782 1007.91 163.611C1008.63 162.44 1009.6 161.527 1010.83 160.872C1012.08 160.217 1013.47 159.89 1015.01 159.89C1016.56 159.89 1017.93 160.217 1019.13 160.872C1020.33 161.527 1021.27 162.41 1021.95 163.521C1022.63 164.632 1022.97 165.868 1022.97 167.229C1022.97 168.202 1022.79 169.154 1022.44 170.084C1022.09 171.006 1021.49 172.035 1020.63 173.172C1019.78 174.3 1018.59 175.678 1017.08 177.306L1011.13 183.663V183.87H1023.43V186.712H1006.74ZM1031.04 186.919C1030.4 186.919 1029.86 186.691 1029.4 186.234C1028.94 185.777 1028.72 185.231 1028.72 184.593C1028.72 183.956 1028.94 183.409 1029.4 182.952C1029.86 182.496 1030.4 182.268 1031.04 182.268C1031.68 182.268 1032.23 182.496 1032.68 182.952C1033.14 183.409 1033.37 183.956 1033.37 184.593C1033.37 185.015 1033.26 185.403 1033.04 185.756C1032.84 186.109 1032.56 186.393 1032.2 186.609C1031.86 186.815 1031.47 186.919 1031.04 186.919ZM1046.52 187.074C1045.01 187.074 1043.64 186.772 1042.43 186.169C1041.21 185.566 1040.24 184.74 1039.51 183.689C1038.78 182.638 1038.37 181.441 1038.31 180.097H1041.41C1041.53 181.294 1042.07 182.285 1043.03 183.069C1044.01 183.844 1045.17 184.231 1046.52 184.231C1047.61 184.231 1048.57 183.977 1049.42 183.469C1050.27 182.961 1050.94 182.263 1051.42 181.376C1051.91 180.48 1052.16 179.468 1052.16 178.34C1052.16 177.186 1051.9 176.156 1051.39 175.252C1050.89 174.339 1050.21 173.62 1049.33 173.094C1048.45 172.569 1047.44 172.302 1046.32 172.293C1045.51 172.285 1044.68 172.41 1043.82 172.668C1042.97 172.918 1042.27 173.241 1041.72 173.637L1038.72 173.275L1040.32 160.252H1054.07V163.094H1043.01L1042.08 170.898H1042.23C1042.78 170.467 1043.46 170.11 1044.27 169.826C1045.09 169.541 1045.95 169.399 1046.83 169.399C1048.45 169.399 1049.9 169.787 1051.16 170.562C1052.44 171.329 1053.44 172.379 1054.16 173.715C1054.89 175.05 1055.26 176.574 1055.26 178.288C1055.26 179.976 1054.88 181.484 1054.12 182.81C1053.37 184.128 1052.34 185.17 1051.02 185.937C1049.7 186.695 1048.2 187.074 1046.52 187.074ZM1074.5 171.311L1071.76 172.087C1071.59 171.63 1071.33 171.186 1071 170.756C1070.67 170.317 1070.22 169.955 1069.65 169.671C1069.08 169.386 1068.36 169.244 1067.47 169.244C1066.26 169.244 1065.24 169.524 1064.43 170.084C1063.63 170.635 1063.23 171.337 1063.23 172.19C1063.23 172.948 1063.51 173.547 1064.06 173.986C1064.61 174.425 1065.47 174.791 1066.64 175.084L1069.59 175.808C1071.36 176.238 1072.68 176.897 1073.55 177.784C1074.42 178.663 1074.86 179.796 1074.86 181.182C1074.86 182.319 1074.53 183.336 1073.88 184.231C1073.23 185.127 1072.33 185.833 1071.16 186.35C1070 186.867 1068.65 187.125 1067.11 187.125C1065.08 187.125 1063.41 186.686 1062.08 185.808C1060.76 184.929 1059.92 183.646 1059.56 181.957L1062.46 181.234C1062.73 182.302 1063.25 183.103 1064.02 183.637C1064.8 184.171 1065.81 184.438 1067.06 184.438C1068.48 184.438 1069.61 184.137 1070.44 183.534C1071.29 182.922 1071.71 182.19 1071.71 181.337C1071.71 180.648 1071.47 180.071 1070.98 179.606C1070.5 179.132 1069.76 178.779 1068.76 178.547L1065.45 177.771C1063.64 177.341 1062.3 176.673 1061.45 175.769C1060.6 174.856 1060.18 173.715 1060.18 172.345C1060.18 171.225 1060.5 170.235 1061.13 169.373C1061.76 168.512 1062.63 167.836 1063.72 167.345C1064.83 166.854 1066.07 166.609 1067.47 166.609C1069.43 166.609 1070.98 167.039 1072.09 167.901C1073.22 168.762 1074.02 169.899 1074.5 171.311ZM1083.95 186.712L1077.9 166.867H1081.1L1085.39 182.061H1085.6L1089.84 166.867H1093.09L1097.28 182.009H1097.49L1101.78 166.867H1104.98L1098.93 186.712H1095.94L1091.59 171.466H1091.28L1086.94 186.712H1083.95Z" fill="#46C147"/>
<path d="M170.227 115.212V0" stroke="#46C147" stroke-width="3.03189"/>
<path d="M139 115.212V0" stroke="#46C147" stroke-width="3.03189"/>
<path d="M170.227 24.2552H141.878" stroke="#46C147" stroke-width="3.03189"/>
<path d="M144 24.2553L119.745 18.1915V30.3191L144 24.2553Z" fill="#46C147"/>
<path d="M163.745 24.2553L188 18.1915V30.3191L163.745 24.2553Z" fill="#46C147"/>
<path d="M5.73904 36.712V34.3864L14.473 24.8256C15.498 23.7059 16.3421 22.7326 17.0053 21.9057C17.6685 21.0702 18.1595 20.2864 18.4782 19.5543C18.8055 18.8135 18.9691 18.0383 18.9691 17.2287C18.9691 16.2984 18.7452 15.4931 18.2973 14.8126C17.858 14.1322 17.2551 13.6068 16.4885 13.2364C15.7219 12.866 14.8606 12.6808 13.9045 12.6808C12.8881 12.6808 12.0009 12.8919 11.243 13.3139C10.4936 13.7273 9.9122 14.3087 9.49876 15.0581C9.09394 15.8075 8.89152 16.686 8.89152 17.6938H5.8424C5.8424 16.1434 6.19985 14.7825 6.91476 13.6111C7.62967 12.4397 8.60298 11.5266 9.83468 10.872C11.075 10.2174 12.4661 9.8901 14.0078 9.8901C15.5582 9.8901 16.9321 10.2174 18.1293 10.872C19.3266 11.5266 20.2654 12.4095 20.9459 13.5206C21.6263 14.6317 21.9666 15.8678 21.9666 17.2287C21.9666 18.202 21.79 19.1537 21.4368 20.084C21.0923 21.0056 20.4894 22.0349 19.628 23.1719C18.7753 24.3002 17.591 25.6784 16.075 27.3063L10.1318 33.6629V33.8696H22.4317V36.712H5.73904ZM30.0416 36.9188C29.4042 36.9188 28.8572 36.6905 28.4007 36.234C27.9442 35.7775 27.716 35.2305 27.716 34.5932C27.716 33.9558 27.9442 33.4088 28.4007 32.9523C28.8572 32.4958 29.4042 32.2676 30.0416 32.2676C30.679 32.2676 31.2259 32.4958 31.6824 32.9523C32.1389 33.4088 32.3672 33.9558 32.3672 34.5932C32.3672 35.0152 32.2595 35.4028 32.0442 35.756C31.8375 36.1091 31.5575 36.3933 31.2044 36.6087C30.8598 36.8154 30.4722 36.9188 30.0416 36.9188ZM45.523 37.0738C44.007 37.0738 42.6418 36.7723 41.4273 36.1694C40.2128 35.5665 39.2395 34.7396 38.5074 33.6888C37.7753 32.6379 37.3748 31.4407 37.3058 30.097H40.4066C40.5272 31.2942 41.0699 32.2848 42.0346 33.0686C43.0079 33.8438 44.1707 34.2314 45.523 34.2314C46.6083 34.2314 47.5729 33.9773 48.4171 33.4691C49.2698 32.9609 49.9373 32.2632 50.4197 31.3761C50.9106 30.4803 51.1561 29.4682 51.1561 28.3399C51.1561 27.1857 50.902 26.1564 50.3938 25.252C49.8942 24.339 49.2052 23.6198 48.3266 23.0943C47.4481 22.5689 46.4446 22.3019 45.3163 22.2933C44.5066 22.2847 43.6754 22.4096 42.8227 22.668C41.97 22.9178 41.268 23.2408 40.7167 23.637L37.7193 23.2752L39.3214 10.2519H53.0683V13.0943H42.0087L41.0785 20.8979H41.2335C41.7762 20.4673 42.4566 20.1098 43.2749 19.8256C44.0932 19.5413 44.9459 19.3992 45.8331 19.3992C47.4524 19.3992 48.8951 19.7868 50.1613 20.562C51.436 21.3286 52.4352 22.3794 53.1587 23.7145C53.8908 25.0496 54.2569 26.5741 54.2569 28.2882C54.2569 29.9764 53.8779 31.4837 53.1199 32.8102C52.3706 34.128 51.337 35.1702 50.0191 35.9368C48.7013 36.6948 47.2026 37.0738 45.523 37.0738ZM73.498 21.3114L70.759 22.0866C70.5867 21.6301 70.3326 21.1865 69.9967 20.7558C69.6694 20.3165 69.2215 19.9548 68.653 19.6705C68.0845 19.3863 67.3567 19.2442 66.4695 19.2442C65.255 19.2442 64.243 19.5241 63.4333 20.084C62.6323 20.6352 62.2318 21.3372 62.2318 22.1899C62.2318 22.9479 62.5074 23.5465 63.0586 23.9858C63.6099 24.4251 64.4712 24.7912 65.6426 25.084L68.5884 25.8076C70.3628 26.2382 71.6849 26.8971 72.5549 27.7843C73.4248 28.6629 73.8598 29.7955 73.8598 31.1823C73.8598 32.3192 73.5325 33.3356 72.8779 34.2314C72.2319 35.1272 71.3275 35.8335 70.1647 36.3503C69.0019 36.8671 67.6496 37.1255 66.1078 37.1255C64.0836 37.1255 62.4083 36.6862 61.0819 35.8076C59.7554 34.9291 58.9156 33.6457 58.5625 31.9575L61.4566 31.234C61.7322 32.302 62.2533 33.103 63.0199 33.6371C63.7951 34.1711 64.8072 34.4381 66.0561 34.4381C67.4773 34.4381 68.6056 34.1366 69.4411 33.5337C70.2852 32.9222 70.7073 32.19 70.7073 31.3373C70.7073 30.6482 70.4661 30.0712 69.9838 29.606C69.5014 29.1323 68.7607 28.7792 67.7615 28.5466L64.454 27.7714C62.6366 27.3407 61.3015 26.6732 60.4488 25.7688C59.6047 24.8558 59.1826 23.7145 59.1826 22.345C59.1826 21.2253 59.497 20.2347 60.1258 19.3734C60.7632 18.5121 61.6288 17.8359 62.7227 17.3449C63.8252 16.854 65.0742 16.6085 66.4695 16.6085C68.4334 16.6085 69.9752 17.0392 71.0949 17.9005C72.2232 18.7618 73.0243 19.8988 73.498 21.3114ZM82.9458 36.712L76.8992 16.8669H80.1034L84.3928 32.0608H84.5995L88.8373 16.8669H92.0931L96.2792 32.0092H96.4859L100.775 16.8669H103.98L97.933 36.712H94.9355L90.5944 21.4664H90.2843L85.9432 36.712H82.9458Z" fill="#46C147"/>
<path d="M511 88.8828H626.212" stroke="#FF0000" stroke-width="3.03189"/>
<path d="M511 115H626.212" stroke="#FF0000" stroke-width="3.03189"/>
<path d="M601.957 90.3827V112.383" stroke="#FF0000" stroke-width="3.03189"/>
<path d="M601.957 109L592.861 145.383H611.053L601.957 109Z" fill="#FF0000"/>
<path d="M601.957 96.3828L592.861 60H611.053L601.957 96.3828Z" fill="#FF0000"/>
<path d="M632.739 79V76.6744L641.473 67.1136C642.498 65.9939 643.342 65.0206 644.005 64.1937C644.669 63.3582 645.159 62.5744 645.478 61.8422C645.805 61.1015 645.969 60.3263 645.969 59.5166C645.969 58.5864 645.745 57.781 645.297 57.1006C644.858 56.4201 644.255 55.8947 643.488 55.5243C642.722 55.154 641.861 54.9688 640.904 54.9688C639.888 54.9688 639.001 55.1798 638.243 55.6019C637.494 56.0153 636.912 56.5967 636.499 57.3461C636.094 58.0954 635.892 58.974 635.892 59.9818H632.842C632.842 58.4313 633.2 57.0704 633.915 55.899C634.63 54.7276 635.603 53.8146 636.835 53.16C638.075 52.5054 639.466 52.1781 641.008 52.1781C642.558 52.1781 643.932 52.5054 645.129 53.16C646.327 53.8146 647.265 54.6975 647.946 55.8086C648.626 56.9197 648.967 58.1557 648.967 59.5166C648.967 60.4899 648.79 61.4417 648.437 62.372C648.092 63.2936 647.489 64.3229 646.628 65.4598C645.775 66.5882 644.591 67.9663 643.075 69.5942L637.132 75.9509V76.1576H649.432V79H632.739ZM657.042 79.2067C656.404 79.2067 655.857 78.9785 655.401 78.522C654.944 78.0655 654.716 77.5185 654.716 76.8811C654.716 76.2437 654.944 75.6968 655.401 75.2403C655.857 74.7838 656.404 74.5555 657.042 74.5555C657.679 74.5555 658.226 74.7838 658.682 75.2403C659.139 75.6968 659.367 76.2437 659.367 76.8811C659.367 77.3032 659.26 77.6908 659.044 78.0439C658.837 78.3971 658.558 78.6813 658.204 78.8966C657.86 79.1034 657.472 79.2067 657.042 79.2067ZM672.523 79.3618C671.007 79.3618 669.642 79.0603 668.427 78.4574C667.213 77.8544 666.24 77.0275 665.507 75.9767C664.775 74.9259 664.375 73.7286 664.306 72.385H667.407C667.527 73.5822 668.07 74.5727 669.035 75.3566C670.008 76.1318 671.171 76.5194 672.523 76.5194C673.608 76.5194 674.573 76.2653 675.417 75.7571C676.27 75.2489 676.937 74.5512 677.42 73.664C677.911 72.7683 678.156 71.7562 678.156 70.6278C678.156 69.4736 677.902 68.4444 677.394 67.54C676.894 66.6269 676.205 65.9077 675.327 65.3823C674.448 64.8569 673.445 64.5899 672.316 64.5813C671.507 64.5727 670.675 64.6976 669.823 64.956C668.97 65.2057 668.268 65.5287 667.717 65.925L664.719 65.5632L666.321 52.5398H680.068V55.3822H669.009L668.078 63.1859H668.234C668.776 62.7552 669.457 62.3978 670.275 62.1136C671.093 61.8293 671.946 61.6872 672.833 61.6872C674.452 61.6872 675.895 62.0748 677.161 62.85C678.436 63.6166 679.435 64.6674 680.159 66.0025C680.891 67.3375 681.257 68.8621 681.257 70.5762C681.257 72.2644 680.878 73.7717 680.12 75.0982C679.371 76.416 678.337 77.4582 677.019 78.2248C675.701 78.9828 674.203 79.3618 672.523 79.3618ZM700.498 63.5994L697.759 64.3746C697.587 63.918 697.333 63.4745 696.997 63.0438C696.669 62.6045 696.221 62.2428 695.653 61.9585C695.085 61.6743 694.357 61.5322 693.47 61.5322C692.255 61.5322 691.243 61.8121 690.433 62.372C689.632 62.9232 689.232 63.6252 689.232 64.4779C689.232 65.2359 689.507 65.8345 690.059 66.2738C690.61 66.7131 691.471 67.0791 692.643 67.372L695.588 68.0955C697.363 68.5262 698.685 69.1851 699.555 70.0723C700.425 70.9508 700.86 72.0835 700.86 73.4702C700.86 74.6072 700.532 75.6236 699.878 76.5194C699.232 77.4151 698.327 78.1214 697.165 78.6382C696.002 79.155 694.65 79.4134 693.108 79.4134C691.084 79.4134 689.408 78.9742 688.082 78.0956C686.755 77.217 685.916 75.9337 685.562 74.2454L688.457 73.5219C688.732 74.59 689.253 75.391 690.02 75.925C690.795 76.4591 691.807 76.7261 693.056 76.7261C694.477 76.7261 695.606 76.4246 696.441 75.8217C697.285 75.2101 697.707 74.478 697.707 73.6253C697.707 72.9362 697.466 72.3591 696.984 71.894C696.501 71.4203 695.761 71.0671 694.762 70.8346L691.454 70.0594C689.637 69.6287 688.302 68.9612 687.449 68.0568C686.605 67.1437 686.183 66.0025 686.183 64.633C686.183 63.5132 686.497 62.5227 687.126 61.6614C687.763 60.8 688.629 60.1239 689.723 59.6329C690.825 59.142 692.074 58.8965 693.47 58.8965C695.433 58.8965 696.975 59.3271 698.095 60.1885C699.223 61.0498 700.024 62.1868 700.498 63.5994ZM709.946 79L703.899 59.1549H707.103L711.393 74.3488H711.6L715.837 59.1549H719.093L723.279 74.2971H723.486L727.775 59.1549H730.98L724.933 79H721.936L717.594 63.7544H717.284L712.943 79H709.946Z" fill="#FF0000"/>
<path d="M579 461H694.212" stroke="#FF0000" stroke-width="3.03189"/>
<path d="M579 478H694.212" stroke="#FF0000" stroke-width="3.03189"/>
<path d="M669.957 453.383V475.383" stroke="#FF0000" stroke-width="3.03189"/>
<path d="M669.957 472L660.861 508.383H679.053L669.957 472Z" fill="#FF0000"/>
<path d="M669.957 468.383L660.861 432H679.053L669.957 468.383Z" fill="#FF0000"/>
<path d="M641.041 525.54V552H637.837V528.899H637.682L631.222 533.188V529.933L637.837 525.54H641.041ZM649.362 552.207C648.725 552.207 648.178 551.978 647.721 551.522C647.265 551.065 647.036 550.518 647.036 549.881C647.036 549.244 647.265 548.697 647.721 548.24C648.178 547.784 648.725 547.555 649.362 547.555C649.999 547.555 650.546 547.784 651.003 548.24C651.459 548.697 651.688 549.244 651.688 549.881C651.688 550.303 651.58 550.691 651.365 551.044C651.158 551.397 650.878 551.681 650.525 551.897C650.18 552.103 649.793 552.207 649.362 552.207ZM664.843 552.362C663.327 552.362 661.962 552.06 660.748 551.457C659.533 550.854 658.56 550.028 657.828 548.977C657.096 547.926 656.695 546.729 656.626 545.385H659.727C659.848 546.582 660.39 547.573 661.355 548.357C662.328 549.132 663.491 549.519 664.843 549.519C665.929 549.519 666.893 549.265 667.737 548.757C668.59 548.249 669.258 547.551 669.74 546.664C670.231 545.768 670.476 544.756 670.476 543.628C670.476 542.474 670.222 541.444 669.714 540.54C669.215 539.627 668.526 538.908 667.647 538.382C666.768 537.857 665.765 537.59 664.637 537.581C663.827 537.573 662.996 537.698 662.143 537.956C661.29 538.206 660.588 538.529 660.037 538.925L657.04 538.563L658.642 525.54H672.389V528.382H661.329L660.399 536.186H660.554C661.097 535.755 661.777 535.398 662.595 535.114C663.414 534.829 664.266 534.687 665.153 534.687C666.773 534.687 668.215 535.075 669.482 535.85C670.756 536.617 671.756 537.667 672.479 539.002C673.211 540.338 673.577 541.862 673.577 543.576C673.577 545.264 673.198 546.772 672.44 548.098C671.691 549.416 670.657 550.458 669.339 551.225C668.022 551.983 666.523 552.362 664.843 552.362ZM692.818 536.599L690.079 537.375C689.907 536.918 689.653 536.474 689.317 536.044C688.99 535.604 688.542 535.243 687.973 534.958C687.405 534.674 686.677 534.532 685.79 534.532C684.575 534.532 683.563 534.812 682.754 535.372C681.953 535.923 681.552 536.625 681.552 537.478C681.552 538.236 681.828 538.834 682.379 539.274C682.93 539.713 683.792 540.079 684.963 540.372L687.909 541.095C689.683 541.526 691.005 542.185 691.875 543.072C692.745 543.951 693.18 545.083 693.18 546.47C693.18 547.607 692.853 548.624 692.198 549.519C691.552 550.415 690.648 551.121 689.485 551.638C688.322 552.155 686.97 552.413 685.428 552.413C683.404 552.413 681.729 551.974 680.402 551.096C679.076 550.217 678.236 548.934 677.883 547.245L680.777 546.522C681.053 547.59 681.574 548.391 682.34 548.925C683.115 549.459 684.128 549.726 685.376 549.726C686.798 549.726 687.926 549.425 688.761 548.822C689.606 548.21 690.028 547.478 690.028 546.625C690.028 545.936 689.786 545.359 689.304 544.894C688.822 544.42 688.081 544.067 687.082 543.835L683.774 543.059C681.957 542.629 680.622 541.961 679.769 541.057C678.925 540.144 678.503 539.002 678.503 537.633C678.503 536.513 678.817 535.523 679.446 534.661C680.084 533.8 680.949 533.124 682.043 532.633C683.146 532.142 684.395 531.896 685.79 531.896C687.754 531.896 689.296 532.327 690.415 533.188C691.544 534.05 692.345 535.187 692.818 536.599ZM702.266 552L696.22 532.155H699.424L703.713 547.349H703.92L708.158 532.155H711.413L715.6 547.297H715.806L720.096 532.155H723.3L717.253 552H714.256L709.915 536.754H709.605L705.264 552H702.266Z" fill="#FF0000"/>
<path d="M942.064 444.5L960.814 476.976" stroke="#04E3E3" stroke-width="3.03189"/>
<path d="M942.064 450.564C945.413 450.564 948.128 447.849 948.128 444.5C948.128 441.151 945.413 438.436 942.064 438.436C938.715 438.436 936 441.151 936 444.5C936 447.849 938.715 450.564 942.064 450.564Z" fill="#04E3E3"/>
<path d="M960.814 476.976V458.785L945.06 467.88L960.814 476.976Z" fill="#04E3E3"/>
<path d="M848.204 437.138V410.678H857.145C859.212 410.678 860.909 411.031 862.235 411.737C863.562 412.435 864.544 413.395 865.181 414.618C865.818 415.841 866.137 417.233 866.137 418.792C866.137 420.351 865.818 421.733 865.181 422.939C864.544 424.145 863.566 425.092 862.248 425.781C860.93 426.462 859.246 426.802 857.196 426.802H849.961V423.908H857.093C858.506 423.908 859.643 423.701 860.504 423.288C861.374 422.874 862.003 422.289 862.39 421.531C862.787 420.764 862.985 419.851 862.985 418.792C862.985 417.732 862.787 416.806 862.39 416.014C861.994 415.221 861.361 414.61 860.491 414.179C859.621 413.74 858.471 413.52 857.041 413.52H851.408V437.138H848.204ZM860.659 425.252L867.171 437.138H863.45L857.041 425.252H860.659ZM880.314 410.678V437.138H877.109V414.037H876.954L870.494 418.326V415.071L877.109 410.678H880.314ZM902.032 421.737L899.293 422.512C899.121 422.056 898.867 421.612 898.531 421.182C898.204 420.742 897.756 420.381 897.187 420.096C896.619 419.812 895.891 419.67 895.004 419.67C893.789 419.67 892.777 419.95 891.967 420.51C891.166 421.061 890.766 421.763 890.766 422.616C890.766 423.374 891.042 423.972 891.593 424.412C892.144 424.851 893.005 425.217 894.177 425.51L897.123 426.233C898.897 426.664 900.219 427.323 901.089 428.21C901.959 429.089 902.394 430.221 902.394 431.608C902.394 432.745 902.067 433.762 901.412 434.657C900.766 435.553 899.862 436.259 898.699 436.776C897.536 437.293 896.184 437.551 894.642 437.551C892.618 437.551 890.942 437.112 889.616 436.234C888.29 435.355 887.45 434.072 887.097 432.383L889.991 431.66C890.266 432.728 890.787 433.529 891.554 434.063C892.329 434.597 893.341 434.864 894.59 434.864C896.011 434.864 897.14 434.563 897.975 433.96C898.819 433.348 899.241 432.616 899.241 431.763C899.241 431.074 899 430.497 898.518 430.032C898.036 429.558 897.295 429.205 896.296 428.972L892.988 428.197C891.171 427.767 889.836 427.099 888.983 426.195C888.139 425.282 887.717 424.14 887.717 422.771C887.717 421.651 888.031 420.661 888.66 419.799C889.297 418.938 890.163 418.262 891.257 417.771C892.359 417.28 893.608 417.034 895.004 417.034C896.967 417.034 898.509 417.465 899.629 418.326C900.757 419.188 901.558 420.325 902.032 421.737ZM911.48 437.138L905.433 417.293H908.637L912.927 432.487H913.134L917.371 417.293H920.627L924.813 432.435H925.02L929.309 417.293H932.514L926.467 437.138H923.47L919.129 421.892H918.818L914.477 437.138H911.48Z" fill="#04E3E3"/>
</svg>
