<svg width="1166" height="490" viewBox="0 0 1166 490" fill="none" xmlns="http://www.w3.org/2000/svg">
<path d="M217 123.5C217 102.789 233.789 86 254.5 86H904.5C925.211 86 942 102.789 942 123.5V373.5C942 394.211 925.211 411 904.5 411H254.5C233.789 411 217 394.211 217 373.5V123.5Z" fill="white"/>
<path d="M235.75 123.5C235.75 113.145 244.145 104.75 254.5 104.75H904.5C914.855 104.75 923.25 113.145 923.25 123.5V373.5C923.25 383.855 914.855 392.25 904.5 392.25H254.5C244.145 392.25 235.75 383.855 235.75 373.5V123.5Z" fill="#0033A2"/>
<path d="M438.163 305.165V296.055H491.153V305.165H438.163ZM431.303 323.275V314.385H498.573V323.275H431.303ZM415.883 342.175V332.955H513.763V342.175H415.883ZM429.723 280.075V271.525H468.873V280.075H429.723ZM459.763 277.265V271.525H471.353C473.753 274.599 476.659 277.579 480.073 280.465C483.486 283.359 487.253 286.042 491.373 288.515C495.499 290.989 499.813 293.202 504.313 295.155C508.813 297.102 513.349 298.752 517.923 300.105C517.103 300.705 516.166 301.492 515.113 302.465C514.066 303.439 513.053 304.452 512.073 305.505C511.099 306.552 510.313 307.525 509.713 308.425C503.713 306.252 497.789 303.552 491.943 300.325C486.089 297.099 480.669 293.519 475.683 289.585C470.696 285.645 466.403 281.539 462.803 277.265H459.763ZM457.293 272.655L466.963 276.365C463.289 281.312 458.826 285.885 453.573 290.085C448.326 294.285 442.719 297.999 436.753 301.225C430.793 304.452 424.776 307.265 418.703 309.665C418.176 308.912 417.463 308.012 416.563 306.965C415.663 305.912 414.726 304.879 413.753 303.865C412.779 302.859 411.916 302.055 411.163 301.455C417.316 299.575 423.316 297.212 429.163 294.365C435.016 291.512 440.359 288.249 445.193 284.575C450.033 280.902 454.066 276.929 457.293 272.655ZM459.093 339.365V300.215H470.003V339.365H459.093ZM415.103 259.935V250.155H514.553V259.935H415.103ZM439.063 269.275V241.605H449.643V269.275H439.063ZM479.343 269.835V241.605H489.913V269.835" fill="white"/>
<path d="M601.428 249.368V243.858H621.108V249.368H601.428ZM600.748 267.708V262.308H621.898V267.708H600.748ZM600.748 276.138V270.858H621.898V276.138H600.748ZM584.328 329.468V322.608H641.358V329.468H584.328ZM597.488 258.818V252.858H624.488V258.818H597.488ZM615.148 285.028H607.158V291.438H615.148V285.028ZM600.518 296.618V279.858H622.008V296.618H600.518ZM586.238 317.878V311.468H632.918V306.628H579.258V300.218H642.828V317.878H586.238ZM582.408 298.188V272.658H589.498V298.188H582.408ZM572.178 276.588L571.388 269.728C574.688 269.581 578.381 269.431 582.468 269.278C586.554 269.131 590.884 268.944 595.458 268.718V274.908C591.258 275.281 587.191 275.581 583.257 275.808C579.317 276.028 575.624 276.288 572.178 276.588ZM583.198 311.468H593.097C592.197 315.068 591.224 318.818 590.178 322.718C589.124 326.618 588.148 329.991 587.248 332.838L577.688 331.488C578.734 328.714 579.748 325.508 580.728 321.868C581.701 318.234 582.524 314.768 583.198 311.468ZM637.988 323.728V322.608H647.998C647.998 322.608 647.961 323.111 647.888 324.118C647.814 325.131 647.664 325.978 647.438 326.658C646.384 331.304 645.294 334.958 644.168 337.618C643.048 340.284 641.738 342.218 640.238 343.418C638.964 344.318 637.594 344.934 636.128 345.268C634.668 345.608 632.924 345.814 630.898 345.888C629.171 345.968 626.714 345.988 623.528 345.948C620.341 345.908 616.948 345.814 613.348 345.668C613.274 344.468 612.974 343.118 612.448 341.618C611.921 340.118 611.284 338.768 610.538 337.568C614.064 337.941 617.478 338.164 620.778 338.238C624.078 338.318 626.401 338.358 627.748 338.358C628.948 338.358 629.921 338.318 630.668 338.238C631.421 338.164 632.061 337.941 632.588 337.568C633.634 336.741 634.591 335.258 635.458 333.118C636.318 330.984 637.161 327.854 637.988 323.728ZM590.847 280.638L596.248 279.408C596.848 281.281 597.428 283.341 597.988 285.588C598.554 287.841 598.988 289.791 599.288 291.438L593.438 293.018C593.284 291.291 592.964 289.284 592.478 286.998C591.991 284.711 591.447 282.591 590.847 280.638ZM590.507 265.338L595.347 263.538C596.321 265.418 597.221 267.518 598.048 269.838C598.874 272.164 599.438 274.191 599.738 275.918L594.448 277.938C594.221 276.218 593.734 274.194 592.988 271.868C592.234 269.541 591.407 267.364 590.507 265.338ZM572.508 256.458L576.108 251.058C578.288 252.478 580.424 254.108 582.518 255.948C584.624 257.788 586.201 259.381 587.248 260.728L583.198 266.918C582.071 265.344 580.498 263.581 578.478 261.628C576.451 259.681 574.461 257.958 572.508 256.458ZM583.198 241.268L589.608 244.418C588.108 246.891 586.608 249.404 585.108 251.958C583.608 254.504 582.184 256.641 580.838 258.368L575.888 255.778C577.088 253.831 578.401 251.451 579.828 248.638C581.248 245.824 582.371 243.368 583.198 241.268ZM590.398 250.608L596.698 254.208C594.224 257.581 591.581 261.141 588.768 264.888C585.954 268.641 583.311 271.791 580.838 274.338L576.108 271.418C577.688 269.544 579.378 267.408 581.178 265.008C582.978 262.608 584.681 260.131 586.288 257.578C587.901 255.031 589.271 252.708 590.398 250.608ZM574.988 278.958L581.628 280.418C580.948 283.344 580.121 286.268 579.148 289.188C578.174 292.114 577.124 294.628 575.998 296.728C575.324 296.281 574.348 295.774 573.068 295.208C571.794 294.648 570.748 294.181 569.928 293.808C571.201 291.708 572.248 289.361 573.068 286.768C573.894 284.181 574.534 281.578 574.988 278.958ZM634.388 298.188V272.658H641.588V298.188H634.388ZM624.038 276.588L623.358 269.728C626.811 269.581 630.694 269.431 635.008 269.278C639.321 269.131 643.914 268.981 648.788 268.828L648.668 275.018C644.248 275.318 639.954 275.598 635.788 275.858C631.628 276.124 627.711 276.368 624.038 276.588ZM643.158 280.638L648.898 278.958C649.871 281.204 650.828 283.678 651.768 286.378C652.701 289.078 653.358 291.404 653.738 293.358L647.778 295.268C647.478 293.314 646.878 290.951 645.978 288.178C645.078 285.404 644.138 282.891 643.158 280.638ZM642.258 265.118L647.548 262.758C648.821 264.704 650.001 266.858 651.088 269.218C652.181 271.584 652.951 273.668 653.398 275.468L647.658 278.058C647.284 276.258 646.591 274.138 645.578 271.698C644.564 269.258 643.458 267.064 642.258 265.118ZM623.588 256.228L627.408 251.168C629.361 252.514 631.311 254.071 633.258 255.838C635.211 257.598 636.711 259.191 637.758 260.618L633.378 266.468C632.398 264.968 630.991 263.241 629.158 261.288C627.318 259.341 625.461 257.654 623.588 256.228ZM634.608 241.378L641.028 244.638C639.448 247.118 637.871 249.611 636.298 252.118C634.724 254.631 633.224 256.788 631.798 258.588L626.848 256.008C628.121 254.054 629.508 251.671 631.008 248.858C632.508 246.044 633.708 243.551 634.608 241.378ZM642.598 250.158L648.898 253.758C646.351 257.131 643.578 260.691 640.578 264.438C637.578 268.191 634.728 271.341 632.028 273.888L627.408 270.968C629.134 269.094 630.934 266.958 632.808 264.558C634.688 262.158 636.488 259.681 638.208 257.128C639.934 254.581 641.398 252.258 642.598 250.158ZM626.848 278.958L633.378 280.528C632.851 283.301 632.101 286.131 631.128 289.018C630.148 291.911 629.098 294.368 627.978 296.388C627.378 296.014 626.478 295.508 625.278 294.868C624.078 294.234 623.028 293.731 622.128 293.358C623.321 291.258 624.294 288.968 625.048 286.488C625.794 284.014 626.394 281.504 626.848 278.958ZM550.348 250.038L556.538 243.068C558.411 244.041 560.378 245.221 562.438 246.608C564.504 247.994 566.438 249.381 568.238 250.768C570.038 252.161 571.501 253.494 572.628 254.768L566.208 262.638C565.161 261.364 563.754 259.978 561.988 258.478C560.228 256.978 558.334 255.498 556.308 254.038C554.288 252.571 552.301 251.238 550.348 250.038ZM547.988 280.078L553.838 272.768C555.784 273.668 557.828 274.774 559.968 276.088C562.108 277.401 564.094 278.711 565.928 280.018C567.768 281.331 569.288 282.588 570.488 283.788L564.298 291.888C563.171 290.688 561.691 289.378 559.858 287.958C558.018 286.531 556.048 285.124 553.948 283.738C551.848 282.351 549.861 281.131 547.988 280.078ZM559.798 344.658L550.238 339.258C551.664 336.258 553.181 332.768 554.788 328.788C556.401 324.814 558.051 320.614 559.738 316.188C561.431 311.768 562.988 307.418 564.408 303.138L572.848 308.538C571.648 312.518 570.298 316.608 568.798 320.808C567.298 325.008 565.798 329.131 564.298 333.178C562.798 337.231 561.298 341.058 559.798 344.658Z" fill="white"/>
<path d="M530.5 234.5H395V375H530.5V234.5Z" stroke="white" stroke-width="2" stroke-dasharray="5 5"/>
<path d="M668 234.5H532.5V375H668V234.5Z" stroke="white" stroke-width="2" stroke-dasharray="5 5"/>
<path d="M319 148.5L369 198.5V248.5L335.667 215.167V348.5H302.333V215.167L269 248.5V198.5L319 148.5Z" fill="white"/>
<path d="M395.52 151.55V140.53H446.189V151.55H426.91V210.85H414.799V151.55" fill="white"/>
<path d="M488.909 166.777L488.359 167.517L487.809 168.067L487.259 168.437L486.519 169.537L486.159 169.907L485.789 170.087C485.389 170.64 485.022 171.067 484.689 171.367L482.299 174.127C477.219 170.854 473.012 169.217 469.679 169.217C466.252 169.217 463.729 170.914 462.109 174.307C462.169 176.3 462.962 177.77 464.489 178.717C465.162 178.897 465.652 179.08 465.959 179.267C467.152 179.447 468.132 179.69 468.899 179.997C480.492 180.857 486.979 185.51 488.359 193.957C488.419 194.324 488.449 194.68 488.449 195.027C488.449 195.38 488.449 195.727 488.449 196.067C488.449 202.214 485.849 206.834 480.649 209.927C476.915 211.607 473.165 212.447 469.399 212.447C462.239 212.447 455.095 209.404 447.969 203.317L448.339 202.587L449.249 201.667C449.862 200.934 450.415 200.38 450.909 200.007C451.029 199.794 451.149 199.674 451.269 199.647L451.639 199.097C451.759 198.884 451.882 198.76 452.009 198.727L452.189 198.357L452.559 198.177L454.949 195.417C459.475 199.704 464.215 201.847 469.169 201.847C471.249 201.847 473.362 201.48 475.509 200.747C476.055 200.014 476.605 199.464 477.159 199.097C477.345 198.364 477.439 197.674 477.439 197.027C477.439 195.434 476.919 194.104 475.879 193.037L471.649 191.567C459.042 190.8 452.189 185.414 451.089 175.407C451.915 165.34 457.605 159.957 468.159 159.257H468.809C476.915 159.257 483.615 161.764 488.909 166.777Z" fill="white"/>
<path d="M501.287 196.526V160.726H512.307V192.486C512.427 192.639 512.487 192.822 512.487 193.036C512.614 193.129 512.677 193.219 512.677 193.306V193.406C512.89 194.779 513.194 196.002 513.587 197.076C515.7 200.009 518.41 201.476 521.717 201.476H521.857C525.957 200.376 528.83 198.112 530.477 194.686V194.136L531.217 191.936V160.726H542.417V210.846H531.217V206.806C526.81 210.412 522.42 212.216 518.047 212.216C514.647 212.216 511.204 211.146 507.717 209.006C504.87 206.832 502.91 204.262 501.837 201.296L501.657 200.006C501.384 199.119 501.247 198.249 501.247 197.396V196.986C501.247 196.832 501.26 196.679 501.287 196.526Z" fill="white"/>
<path d="M600.836 181.294L601.016 184.044C601.136 184.198 601.196 184.381 601.196 184.594V190.104H567.606C568.306 196.344 571.486 200.018 577.146 201.124C578.066 201.211 578.969 201.254 579.856 201.254C584.476 201.254 588.409 199.741 591.656 196.714C592.049 197.388 592.539 197.938 593.126 198.364L593.306 198.914L593.856 199.464C594.283 199.864 594.649 200.241 594.956 200.594C595.263 200.948 595.509 201.308 595.696 201.674C595.909 201.794 596.029 201.914 596.056 202.034L598.626 204.974C592.813 209.841 586.616 212.274 580.036 212.274C578.909 212.274 577.763 212.198 576.596 212.044C575.436 211.891 574.273 211.678 573.106 211.404C562.519 207.884 556.706 200.294 555.666 188.634C555.666 188.481 555.659 188.174 555.646 187.714C555.633 187.261 555.626 186.971 555.626 186.844C555.626 170.904 562.799 161.831 577.146 159.624C591.406 160.118 599.303 167.341 600.836 181.294ZM567.416 181.474H589.636V180.924C589.509 180.558 589.446 180.191 589.446 179.824V179.454C589.139 178.781 588.956 178.171 588.896 177.624C586.636 172.391 582.903 169.758 577.696 169.724C571.149 171.284 567.723 175.201 567.416 181.474Z" fill="white"/>
<path d="M654.05 169.537V170.087C654.45 170.82 654.697 171.554 654.79 172.287V210.657H643.59V178.167L643.4 177.067C641.874 172.44 639.304 170.127 635.69 170.127C634.59 170.127 633.367 170.357 632.02 170.817C628.96 172.137 626.757 174.22 625.41 177.067L624.68 180.187V210.657H613.66V160.537H624.68V164.757C628.107 161.697 631.84 159.864 635.88 159.257H636.7C644.9 159.257 650.684 162.684 654.05 169.537Z" fill="white"/>
<path d="M693.191 141.084V140.714H705.861L706.041 142.004L706.231 142.554L706.591 143.844L706.961 146.044L707.511 147.874L707.881 150.084L708.431 151.914L708.611 153.384C708.825 153.904 708.948 154.334 708.981 154.674L709.161 155.404L709.531 156.504V157.244C709.651 157.337 709.711 157.427 709.711 157.514V158.164C710.051 158.837 710.238 159.571 710.271 160.364L710.631 161.464L711.001 162.754L711.371 164.954L711.921 166.784L712.101 167.894L713.201 172.484C713.295 172.911 713.381 173.301 713.461 173.654C713.535 174.001 713.571 174.344 713.571 174.684L713.941 175.414V176.154L714.301 177.074V177.804L714.671 178.534V179.274C715.011 180.194 715.195 180.991 715.221 181.664L715.411 182.394C715.625 183.007 715.791 183.574 715.911 184.094C716.031 184.614 716.108 185.087 716.141 185.514L716.511 186.984L716.881 188.264L717.241 187.164L717.981 183.494L718.341 182.574L718.531 181.474L719.081 178.904L719.451 177.624V177.074L720.181 174.134L720.361 173.034L720.731 172.294L720.911 171.564L721.101 170.644V169.914L721.281 169.354L722.021 166.424L722.381 164.214L722.571 163.484L722.931 162.754C722.998 161.774 723.181 160.914 723.481 160.174L723.671 159.264V158.714L724.041 157.244L724.221 156.694L724.771 154.304L724.951 153.204L725.321 152.104L725.501 151.184L726.051 148.794L726.241 147.874L726.421 147.514C726.455 147.174 726.495 146.844 726.541 146.524C726.588 146.204 726.671 145.921 726.791 145.674L726.971 145.124V144.574L727.161 143.844L727.341 143.284L727.891 140.714H741.481V141.264C741.908 142.337 742.151 143.381 742.211 144.394L742.581 145.854L742.761 146.414L743.501 149.714L743.861 151.184C744.108 152.071 744.231 152.804 744.231 153.384C744.445 153.904 744.568 154.334 744.601 154.674L744.961 155.954L745.151 157.244L745.331 157.974L745.521 158.524C745.608 158.924 745.685 159.284 745.751 159.604C745.811 159.924 745.855 160.237 745.881 160.544C746.128 161.124 746.298 161.661 746.391 162.154C746.485 162.641 746.561 163.084 746.621 163.484L746.801 164.584L747.171 165.504L747.351 166.604V167.154C747.658 167.887 747.841 168.561 747.901 169.174L748.091 170.274C748.391 171.007 748.575 171.681 748.641 172.294L748.821 173.214L749.371 175.234V175.964C749.491 176.244 749.551 176.551 749.551 176.884C749.891 177.591 750.078 178.204 750.111 178.724L750.291 179.644L750.471 180.744L750.661 181.474C750.968 182.421 751.151 183.277 751.211 184.044C751.331 184.137 751.391 184.231 751.391 184.324V184.964C751.818 186.037 752.065 187.077 752.131 188.084C752.311 188.024 752.431 187.901 752.491 187.714C752.645 186.954 752.798 186.291 752.951 185.724C753.105 185.157 753.258 184.661 753.411 184.234V183.494C753.811 182.394 754.055 181.414 754.141 180.554L754.511 179.274L755.251 176.334L755.431 174.864L755.801 173.584L755.981 173.034V172.484C756.195 171.897 756.365 171.367 756.491 170.894C756.611 170.421 756.685 169.971 756.711 169.544L757.081 168.254L758.551 162.194L759.101 159.264L759.471 157.794C759.805 156.907 759.988 156.174 760.021 155.594L760.201 154.674L760.571 153.204C760.845 152.317 761.028 151.584 761.121 151.004L761.301 150.264L761.861 147.694L762.221 146.594V146.044L762.771 144.574V143.844L762.961 143.284L763.511 140.714H775.991L775.261 144.394L774.711 146.594L774.521 147.144L773.971 149.714L773.611 151.184L773.241 152.464L772.501 156.144L772.141 157.424L771.401 160.914L771.041 162.194L770.851 162.754L770.481 164.764L770.301 165.134L770.121 166.424C769.815 167.431 769.631 168.287 769.571 168.994L768.831 171.194L768.651 172.484L768.461 173.214L768.281 173.764L768.101 175.054L767.911 175.604L766.811 180.194L766.631 181.474L766.261 182.764L765.341 186.434L765.161 187.714L764.061 192.304L763.511 194.874C763.171 195.794 762.988 196.591 762.961 197.264L762.221 199.654V200.384C761.888 201.304 761.705 202.101 761.671 202.774C761.365 203.781 761.181 204.637 761.121 205.344L760.751 206.624L760.571 206.994L760.391 208.284C760.085 209.291 759.901 210.147 759.841 210.854H746.251L746.071 209.384C745.858 208.864 745.735 208.434 745.701 208.094L745.331 206.624L745.151 205.344L744.781 204.054C744.688 203.687 744.611 203.337 744.551 203.004C744.491 202.664 744.445 202.341 744.411 202.034L744.231 201.304L744.051 200.384C743.925 200.231 743.861 200.047 743.861 199.834L743.681 198.914L743.501 198.364C743.408 197.971 743.331 197.611 743.271 197.284C743.205 196.964 743.158 196.651 743.131 196.344C742.918 195.764 742.758 195.231 742.651 194.744C742.545 194.251 742.458 193.807 742.391 193.414L742.211 192.674L742.031 191.754C741.905 191.387 741.818 191.037 741.771 190.704C741.731 190.364 741.695 190.041 741.661 189.734C741.448 189.127 741.281 188.547 741.161 187.994C741.035 187.441 740.958 186.921 740.931 186.434C740.805 186.281 740.741 186.097 740.741 185.884L740.561 185.144L740.381 184.594C740.288 183.954 740.165 183.344 740.011 182.764L739.641 181.104L739.461 180.004L739.091 179.094L738.721 176.884L738.541 176.334V175.784C738.235 175.051 738.051 174.377 737.991 173.764L737.621 171.564L737.251 170.644L736.891 169.174V168.444C736.525 167.431 736.341 166.574 736.341 165.874C736.215 165.721 736.151 165.537 736.151 165.324L735.971 164.764V164.214C735.665 163.514 735.481 162.781 735.421 162.014C735.115 161.034 734.931 160.117 734.871 159.264L734.501 159.994L734.321 161.094L733.771 163.484L733.401 165.504L733.211 166.054L732.481 169.174L732.301 169.914L731.931 171.744L731.751 172.484L731.381 174.504L731.201 175.054L730.461 178.534L730.091 179.824L729.911 181.104C729.578 182.024 729.395 182.821 729.361 183.494L729.181 183.864L728.991 184.964L728.811 185.514L727.891 190.104L727.711 190.654L726.971 194.144L726.791 194.874L726.611 195.794L726.421 196.344L725.691 199.834L725.321 201.304L724.951 203.144L724.771 203.504L724.401 205.164L724.221 205.894L724.041 207.174C723.821 207.941 723.698 208.554 723.671 209.014C723.545 209.321 723.461 209.611 723.421 209.884C723.375 210.164 723.335 210.424 723.301 210.664C722.875 210.731 722.485 210.784 722.131 210.824C721.778 210.871 721.435 210.894 721.101 210.894H720.641C720.488 210.894 720.335 210.881 720.181 210.854H709.531V210.114C709.105 209.014 708.861 207.974 708.801 206.994C708.675 206.841 708.611 206.657 708.611 206.444L708.431 205.524C707.758 203.351 707.328 201.514 707.141 200.014L706.961 199.464L706.041 195.984L705.861 194.514L704.391 188.824V188.084C704.085 187.384 703.901 186.651 703.841 185.884L703.471 184.784L703.111 183.494V182.944L702.191 179.274V178.724L702.001 177.984L701.641 177.254L701.451 175.784C701.211 175.051 701.015 174.377 700.861 173.764C700.708 173.151 700.601 172.601 700.541 172.114L700.351 171.564V171.014C700.231 170.861 700.171 170.677 700.171 170.464L699.801 168.994L699.621 168.444C699.495 167.797 699.378 167.214 699.271 166.694C699.165 166.174 699.035 165.717 698.881 165.324L698.701 164.034C698.488 163.421 698.318 162.854 698.191 162.334C698.071 161.814 697.995 161.341 697.961 160.914L697.781 159.994C697.661 159.841 697.601 159.657 697.601 159.444L696.681 155.774L696.311 154.484L696.131 153.574L695.951 152.834L695.761 151.554C695.515 150.907 695.391 150.354 695.391 149.894V149.714L695.031 148.794L694.841 148.064C694.721 147.177 694.538 146.441 694.291 145.854V145.124C694.171 144.971 694.111 144.787 694.111 144.574" fill="white"/>
<path d="M819.566 165.135L820.126 166.235C821.559 168.015 822.476 169.851 822.876 171.745C822.996 172.538 823.086 173.281 823.146 173.975C823.212 174.661 823.246 175.265 823.246 175.785V200.015C824.372 202.255 826.022 203.601 828.196 204.055L827.836 204.605C827.709 204.825 827.586 204.948 827.466 204.975L827.286 205.525L826.916 205.895C826.609 206.568 826.242 207.118 825.816 207.545C825.382 208.678 824.829 209.535 824.156 210.115C823.882 210.728 823.622 211.258 823.376 211.705C823.136 212.145 822.909 212.535 822.696 212.875C819.116 211.955 816.299 210.301 814.246 207.915H813.696C809.749 210.761 805.679 212.185 801.486 212.185C799.219 212.185 796.986 211.801 794.786 211.035C788.206 208.681 784.229 204.398 782.856 198.185V197.955C782.856 186.115 789.786 180.195 803.646 180.195H803.786C804.059 180.068 804.362 180.005 804.696 180.005L805.246 179.825H806.536L807.086 179.645H807.636L812.226 179.095C812.286 178.755 812.316 178.448 812.316 178.175V177.255C812.316 172.141 809.609 169.585 804.196 169.585C800.429 169.585 795.272 170.855 788.726 173.395L787.996 171.745L787.626 170.645L787.256 170.275L787.076 169.915L786.706 168.805C786.372 168.258 786.129 167.708 785.976 167.155C785.329 166.301 784.899 165.445 784.686 164.585L785.236 164.405L785.606 164.215L786.156 164.035L786.526 163.665H787.076C787.196 163.545 787.302 163.485 787.396 163.485H787.446C788.546 162.905 789.522 162.475 790.376 162.195L791.296 162.015C791.969 161.708 792.582 161.525 793.136 161.465L794.606 161.095C795.672 160.668 796.712 160.425 797.726 160.365L801.766 159.625C802.372 159.565 802.959 159.511 803.526 159.465C804.092 159.418 804.652 159.395 805.206 159.395C811.046 159.395 815.832 161.308 819.566 165.135ZM807.816 188.455H806.716C806.442 188.515 806.176 188.561 805.916 188.595C805.656 188.621 805.402 188.635 805.156 188.635H804.886L804.146 188.825H803.596C803.442 188.945 803.259 189.005 803.046 189.005H802.496L799.556 189.735H799.006C798.152 190.228 797.419 190.535 796.806 190.655C794.819 192.555 793.826 194.391 793.826 196.165C793.826 197.785 794.636 199.375 796.256 200.935C798.609 202.375 800.902 203.095 803.136 203.095C805.982 203.095 808.706 201.948 811.306 199.655C811.552 198.948 811.799 198.458 812.046 198.185L812.226 197.635L812.046 196.895V188.265H808.376C808.222 188.391 808.036 188.455 807.816 188.455Z" fill="white"/>
<path d="M882.05 169.537V170.087C882.45 170.82 882.697 171.554 882.79 172.287V210.657H871.59V178.167L871.4 177.067C869.874 172.44 867.304 170.127 863.69 170.127C862.59 170.127 861.367 170.357 860.02 170.817C856.96 172.137 854.757 174.22 853.41 177.067L852.68 180.187V210.657H841.66V160.537H852.68V164.757C856.107 161.697 859.84 159.864 863.88 159.257H864.7C872.9 159.257 878.684 162.684 882.05 169.537Z" fill="white"/>
<path d="M445.5 134.5H395V232.5H445.5V134.5Z" stroke="white" stroke-width="2" stroke-dasharray="5 5"/>
<path d="M493 134.5H447.5V232.5H493V134.5Z" stroke="white" stroke-width="2" stroke-dasharray="5 5"/>
<path d="M550.5 134.5H495V232.5H550.5V134.5Z" stroke="white" stroke-width="2" stroke-dasharray="5 5"/>
<path d="M605 134.5H552.5V232.5H605V134.5Z" stroke="white" stroke-width="2" stroke-dasharray="5 5"/>
<path d="M661 134.5H607V232.5H661V134.5Z" stroke="white" stroke-width="2" stroke-dasharray="5 5"/>
<path d="M686 134.5H663V232.5H686V134.5Z" stroke="white" stroke-width="2" stroke-dasharray="5 5"/>
<path d="M777.5 134.5H688V232.5H777.5V134.5Z" stroke="white" stroke-width="2" stroke-dasharray="5 5"/>
<path d="M833 134.5H779.5V232.5H833V134.5Z" stroke="white" stroke-width="2" stroke-dasharray="5 5"/>
<path d="M889 134.5H835V232.5H889V134.5Z" stroke="white" stroke-width="2" stroke-dasharray="5 5"/>
<path d="M464.917 104.75H349.705" stroke="#FF0000" stroke-width="3.03189"/>
<path d="M464.917 86H349.705" stroke="#FF0000" stroke-width="3.03189"/>
<path d="M373.96 104.75V86" stroke="#FF0000" stroke-width="3.03189"/>
<path d="M373.96 92.2552L367.896 68H380.024L373.96 92.2552Z" fill="#FF0000"/>
<path d="M373.96 99L367.896 123.255H380.024L373.96 99Z" fill="#FF0000"/>
<path d="M327.041 33.5398V60H323.837V36.899H323.682L317.222 41.1885V37.9326L323.837 33.5398H327.041ZM335.362 60.2067C334.725 60.2067 334.178 59.9785 333.721 59.522C333.265 59.0655 333.036 58.5185 333.036 57.8811C333.036 57.2437 333.265 56.6968 333.721 56.2403C334.178 55.7838 334.725 55.5555 335.362 55.5555C335.999 55.5555 336.546 55.7838 337.003 56.2403C337.459 56.6968 337.688 57.2437 337.688 57.8811C337.688 58.3032 337.58 58.6908 337.365 59.0439C337.158 59.3971 336.878 59.6813 336.525 59.8966C336.18 60.1034 335.793 60.2067 335.362 60.2067ZM350.843 60.3618C349.327 60.3618 347.962 60.0603 346.748 59.4574C345.533 58.8544 344.56 58.0275 343.828 56.9767C343.096 55.9259 342.695 54.7286 342.626 53.385H345.727C345.848 54.5822 346.39 55.5727 347.355 56.3566C348.328 57.1318 349.491 57.5194 350.843 57.5194C351.929 57.5194 352.893 57.2653 353.737 56.7571C354.59 56.2489 355.258 55.5512 355.74 54.664C356.231 53.7683 356.476 52.7562 356.476 51.6278C356.476 50.4736 356.222 49.4444 355.714 48.54C355.215 47.6269 354.526 46.9077 353.647 46.3823C352.768 45.8569 351.765 45.5899 350.637 45.5813C349.827 45.5727 348.996 45.6976 348.143 45.956C347.29 46.2057 346.588 46.5287 346.037 46.925L343.04 46.5632L344.642 33.5398H358.389V36.3822H347.329L346.399 44.1859H346.554C347.097 43.7552 347.777 43.3978 348.595 43.1136C349.414 42.8293 350.266 42.6872 351.153 42.6872C352.773 42.6872 354.215 43.0748 355.482 43.85C356.756 44.6166 357.756 45.6674 358.479 47.0025C359.211 48.3375 359.577 49.8621 359.577 51.5762C359.577 53.2644 359.198 54.7717 358.44 56.0982C357.691 57.416 356.657 58.4582 355.339 59.2248C354.022 59.9828 352.523 60.3618 350.843 60.3618ZM378.818 44.5994L376.079 45.3746C375.907 44.918 375.653 44.4745 375.317 44.0438C374.99 43.6045 374.542 43.2428 373.973 42.9585C373.405 42.6743 372.677 42.5322 371.79 42.5322C370.575 42.5322 369.563 42.8121 368.754 43.372C367.953 43.9232 367.552 44.6252 367.552 45.4779C367.552 46.2359 367.828 46.8345 368.379 47.2738C368.93 47.7131 369.792 48.0791 370.963 48.372L373.909 49.0955C375.683 49.5262 377.005 50.1851 377.875 51.0723C378.745 51.9508 379.18 53.0835 379.18 54.4702C379.18 55.6072 378.853 56.6236 378.198 57.5194C377.552 58.4151 376.648 59.1214 375.485 59.6382C374.322 60.155 372.97 60.4134 371.428 60.4134C369.404 60.4134 367.729 59.9742 366.402 59.0956C365.076 58.217 364.236 56.9337 363.883 55.2454L366.777 54.5219C367.053 55.59 367.574 56.391 368.34 56.925C369.115 57.4591 370.128 57.7261 371.376 57.7261C372.798 57.7261 373.926 57.4246 374.761 56.8217C375.606 56.2101 376.028 55.478 376.028 54.6253C376.028 53.9362 375.786 53.3591 375.304 52.894C374.822 52.4203 374.081 52.0671 373.082 51.8346L369.774 51.0594C367.957 50.6287 366.622 49.9612 365.769 49.0568C364.925 48.1437 364.503 47.0025 364.503 45.633C364.503 44.5132 364.817 43.5227 365.446 42.6614C366.084 41.8 366.949 41.1239 368.043 40.6329C369.146 40.142 370.395 39.8965 371.79 39.8965C373.754 39.8965 375.296 40.3271 376.415 41.1885C377.544 42.0498 378.345 43.1868 378.818 44.5994ZM388.266 60L382.22 40.1549H385.424L389.713 55.3488H389.92L394.158 40.1549H397.413L401.6 55.2971H401.806L406.096 40.1549H409.3L403.253 60H400.256L395.915 44.7544H395.605L391.264 60H388.266Z" fill="#FF0000"/>
<path d="M235.75 247.5V132.288" stroke="#46C147" stroke-width="3.03189"/>
<path d="M269 247.5V132.288" stroke="#46C147" stroke-width="3.03189"/>
<path d="M235.75 156.543H269" stroke="#46C147" stroke-width="3.03189"/>
<path d="M263 156.543L287.255 150.479V162.607L263 156.543Z" fill="#46C147"/>
<path d="M242.255 156.543L218 150.479V162.607L242.255 156.543Z" fill="#46C147"/>
<path d="M0.739041 128V125.674L9.47297 116.114C10.498 114.994 11.3421 114.021 12.0053 113.194C12.6685 112.358 13.1595 111.574 13.4782 110.842C13.8055 110.101 13.9691 109.326 13.9691 108.517C13.9691 107.586 13.7452 106.781 13.2973 106.101C12.858 105.42 12.2551 104.895 11.4885 104.524C10.7219 104.154 9.86057 103.969 8.90448 103.969C7.88811 103.969 7.00094 104.18 6.24296 104.602C5.4936 105.015 4.9122 105.597 4.49876 106.346C4.09394 107.095 3.89152 107.974 3.89152 108.982H0.842401C0.842401 107.431 1.19985 106.07 1.91476 104.899C2.62967 103.728 3.60298 102.815 4.83468 102.16C6.075 101.505 7.46606 101.178 9.00784 101.178C10.5582 101.178 11.9321 101.505 13.1293 102.16C14.3266 102.815 15.2654 103.697 15.9459 104.809C16.6263 105.92 16.9666 107.156 16.9666 108.517C16.9666 109.49 16.79 110.442 16.4368 111.372C16.0923 112.294 15.4894 113.323 14.628 114.46C13.7753 115.588 12.591 116.966 11.075 118.594L5.13184 124.951V125.158H17.4317V128H0.739041ZM25.0416 128.207C24.4042 128.207 23.8572 127.978 23.4007 127.522C22.9442 127.065 22.716 126.519 22.716 125.881C22.716 125.244 22.9442 124.697 23.4007 124.24C23.8572 123.784 24.4042 123.556 25.0416 123.556C25.679 123.556 26.2259 123.784 26.6824 124.24C27.1389 124.697 27.3672 125.244 27.3672 125.881C27.3672 126.303 27.2595 126.691 27.0442 127.044C26.8375 127.397 26.5575 127.681 26.2044 127.897C25.8598 128.103 25.4722 128.207 25.0416 128.207ZM40.523 128.362C39.007 128.362 37.6418 128.06 36.4273 127.457C35.2128 126.854 34.2395 126.028 33.5074 124.977C32.7753 123.926 32.3748 122.729 32.3058 121.385H35.4066C35.5272 122.582 36.0699 123.573 37.0346 124.357C38.0079 125.132 39.1707 125.519 40.523 125.519C41.6083 125.519 42.5729 125.265 43.4171 124.757C44.2698 124.249 44.9373 123.551 45.4197 122.664C45.9106 121.768 46.1561 120.756 46.1561 119.628C46.1561 118.474 45.902 117.444 45.3938 116.54C44.8942 115.627 44.2052 114.908 43.3266 114.382C42.4481 113.857 41.4446 113.59 40.3163 113.581C39.5066 113.573 38.6754 113.698 37.8227 113.956C36.97 114.206 36.268 114.529 35.7167 114.925L32.7193 114.563L34.3214 101.54H48.0683V104.382H37.0087L36.0785 112.186H36.2335C36.7762 111.755 37.4566 111.398 38.2749 111.114C39.0932 110.829 39.9459 110.687 40.8331 110.687C42.4524 110.687 43.8951 111.075 45.1613 111.85C46.436 112.617 47.4352 113.667 48.1587 115.002C48.8908 116.338 49.2569 117.862 49.2569 119.576C49.2569 121.264 48.8779 122.772 48.1199 124.098C47.3706 125.416 46.337 126.458 45.0191 127.225C43.7013 127.983 42.2026 128.362 40.523 128.362ZM68.498 112.599L65.759 113.375C65.5867 112.918 65.3326 112.474 64.9967 112.044C64.6694 111.605 64.2215 111.243 63.653 110.959C63.0845 110.674 62.3567 110.532 61.4695 110.532C60.255 110.532 59.243 110.812 58.4333 111.372C57.6323 111.923 57.2318 112.625 57.2318 113.478C57.2318 114.236 57.5074 114.835 58.0586 115.274C58.6099 115.713 59.4712 116.079 60.6426 116.372L63.5884 117.096C65.3628 117.526 66.6849 118.185 67.5549 119.072C68.4248 119.951 68.8598 121.083 68.8598 122.47C68.8598 123.607 68.5325 124.624 67.8779 125.519C67.2319 126.415 66.3275 127.121 65.1647 127.638C64.0019 128.155 62.6496 128.413 61.1078 128.413C59.0836 128.413 57.4083 127.974 56.0819 127.096C54.7554 126.217 53.9156 124.934 53.5625 123.245L56.4566 122.522C56.7322 123.59 57.2533 124.391 58.0199 124.925C58.7951 125.459 59.8072 125.726 61.0561 125.726C62.4773 125.726 63.6056 125.425 64.4411 124.822C65.2852 124.21 65.7073 123.478 65.7073 122.625C65.7073 121.936 65.4661 121.359 64.9838 120.894C64.5014 120.42 63.7607 120.067 62.7615 119.835L59.454 119.059C57.6366 118.629 56.3015 117.961 55.4488 117.057C54.6047 116.144 54.1826 115.002 54.1826 113.633C54.1826 112.513 54.497 111.523 55.1258 110.661C55.7632 109.8 56.6288 109.124 57.7227 108.633C58.8252 108.142 60.0742 107.896 61.4695 107.896C63.4334 107.896 64.9752 108.327 66.0949 109.188C67.2232 110.05 68.0243 111.187 68.498 112.599ZM77.9458 128L71.8992 108.155H75.1034L79.3928 123.349H79.5995L83.8373 108.155H87.0931L91.2792 123.297H91.4859L95.7754 108.155H98.9795L92.933 128H89.9355L85.5944 112.754H85.2843L80.9432 128H77.9458ZM1.20416 172V145.54H4.25328V155.307H4.51168C4.73563 154.963 5.04571 154.524 5.44192 153.99C5.84675 153.447 6.42384 152.965 7.1732 152.542C7.93118 152.112 8.95617 151.896 10.2482 151.896C11.9192 151.896 13.392 152.314 14.6668 153.15C15.9416 153.985 16.9364 155.17 17.6513 156.703C18.3662 158.236 18.7237 160.045 18.7237 162.129C18.7237 164.231 18.3662 166.052 17.6513 167.594C16.9364 169.127 15.9459 170.316 14.6797 171.16C13.4136 171.996 11.9536 172.413 10.2998 172.413C9.02507 172.413 8.00439 172.202 7.2378 171.78C6.47122 171.35 5.8812 170.863 5.46776 170.32C5.05432 169.769 4.73563 169.313 4.51168 168.951H4.14992V172H1.20416ZM4.2016 162.077C4.2016 163.576 4.42124 164.898 4.86052 166.044C5.2998 167.181 5.9415 168.072 6.7856 168.718C7.62971 169.356 8.66331 169.674 9.88641 169.674C11.1612 169.674 12.2249 169.338 13.0776 168.667C13.939 167.986 14.585 167.073 15.0156 165.928C15.4549 164.773 15.6746 163.49 15.6746 162.077C15.6746 160.682 15.4592 159.425 15.0286 158.305C14.6065 157.176 13.9648 156.285 13.1035 155.63C12.2508 154.967 11.1784 154.636 9.88641 154.636C8.64609 154.636 7.60387 154.95 6.75976 155.579C5.91566 156.199 5.27827 157.069 4.8476 158.189C4.41694 159.3 4.2016 160.596 4.2016 162.077ZM35.8944 163.886V152.155H38.9435V172H35.8944V168.641H35.6877C35.2225 169.649 34.499 170.506 33.5171 171.212C32.5352 171.91 31.2949 172.258 29.7961 172.258C28.5558 172.258 27.4533 171.987 26.4886 171.444C25.5239 170.893 24.7659 170.066 24.2147 168.964C23.6634 167.853 23.3878 166.453 23.3878 164.765V152.155H26.4369V164.558C26.4369 166.005 26.8418 167.159 27.6514 168.021C28.4697 168.882 29.5119 169.313 30.7781 169.313C31.536 169.313 32.3069 169.119 33.0907 168.731C33.8832 168.344 34.5464 167.749 35.0804 166.948C35.6231 166.147 35.8944 165.127 35.8944 163.886ZM53.1587 152.155V154.739H42.8744V152.155H53.1587ZM45.8719 147.4H48.921V166.315C48.921 167.177 49.0459 167.823 49.2957 168.253C49.5541 168.675 49.8814 168.959 50.2776 169.106C50.6824 169.244 51.1088 169.313 51.5567 169.313C51.8926 169.313 52.1682 169.295 52.3835 169.261C52.5989 169.218 52.7711 169.183 52.9003 169.158L53.5205 171.897C53.3138 171.974 53.0252 172.052 52.6549 172.129C52.2845 172.215 51.8151 172.258 51.2466 172.258C50.3852 172.258 49.5411 172.073 48.7143 171.703C47.896 171.332 47.2155 170.768 46.6729 170.01C46.1389 169.252 45.8719 168.296 45.8719 167.142V147.4ZM67.978 172V152.155H70.9237V155.152H71.1305C71.4922 154.17 72.1468 153.374 73.0943 152.762C74.0418 152.151 75.1098 151.845 76.2985 151.845C76.5224 151.845 76.8023 151.849 77.1383 151.858C77.4742 151.866 77.7283 151.879 77.9006 151.896V154.997C77.7972 154.971 77.5603 154.933 77.1899 154.881C76.8282 154.821 76.4449 154.791 76.0401 154.791C75.0754 154.791 74.214 154.993 73.4561 155.398C72.7067 155.794 72.1124 156.345 71.6731 157.052C71.2424 157.749 71.0271 158.546 71.0271 159.442V172H67.978ZM88.973 172.413C87.1814 172.413 85.6095 171.987 84.2572 171.134C82.9135 170.282 81.8627 169.089 81.1047 167.556C80.3553 166.022 79.9807 164.231 79.9807 162.181C79.9807 160.114 80.3553 158.309 81.1047 156.767C81.8627 155.226 82.9135 154.028 84.2572 153.176C85.6095 152.323 87.1814 151.896 88.973 151.896C90.7646 151.896 92.3322 152.323 93.6759 153.176C95.0282 154.028 96.079 155.226 96.8284 156.767C97.5863 158.309 97.9653 160.114 97.9653 162.181C97.9653 164.231 97.5863 166.022 96.8284 167.556C96.079 169.089 95.0282 170.282 93.6759 171.134C92.3322 171.987 90.7646 172.413 88.973 172.413ZM88.973 169.674C90.3339 169.674 91.4536 169.326 92.3322 168.628C93.2108 167.93 93.8611 167.013 94.2831 165.876C94.7052 164.739 94.9162 163.507 94.9162 162.181C94.9162 160.854 94.7052 159.618 94.2831 158.473C93.8611 157.327 93.2108 156.401 92.3322 155.695C91.4536 154.989 90.3339 154.636 88.973 154.636C87.6121 154.636 86.4923 154.989 85.6138 155.695C84.7352 156.401 84.0849 157.327 83.6629 158.473C83.2408 159.618 83.0298 160.854 83.0298 162.181C83.0298 163.507 83.2408 164.739 83.6629 165.876C84.0849 167.013 84.7352 167.93 85.6138 168.628C86.4923 169.326 87.6121 169.674 88.973 169.674ZM115.126 163.886V152.155H118.175V172H115.126V168.641H114.92C114.454 169.649 113.731 170.506 112.749 171.212C111.767 171.91 110.527 172.258 109.028 172.258C107.788 172.258 106.685 171.987 105.721 171.444C104.756 170.893 103.998 170.066 103.447 168.964C102.895 167.853 102.62 166.453 102.62 164.765V152.155H105.669V164.558C105.669 166.005 106.074 167.159 106.883 168.021C107.702 168.882 108.744 169.313 110.01 169.313C110.768 169.313 111.539 169.119 112.323 168.731C113.115 168.344 113.778 167.749 114.312 166.948C114.855 166.147 115.126 165.127 115.126 163.886ZM126.809 160.062V172H123.76V152.155H126.706V155.256H126.964C127.429 154.248 128.136 153.438 129.083 152.827C130.031 152.207 131.254 151.896 132.752 151.896C134.096 151.896 135.272 152.172 136.28 152.723C137.287 153.266 138.071 154.093 138.631 155.204C139.191 156.306 139.471 157.702 139.471 159.39V172H136.422V159.597C136.422 158.038 136.017 156.823 135.207 155.953C134.398 155.075 133.286 154.636 131.874 154.636C130.901 154.636 130.031 154.847 129.264 155.269C128.506 155.691 127.907 156.306 127.468 157.116C127.029 157.926 126.809 158.908 126.809 160.062ZM152.536 172.413C150.882 172.413 149.422 171.996 148.156 171.16C146.89 170.316 145.9 169.127 145.185 167.594C144.47 166.052 144.112 164.231 144.112 162.129C144.112 160.045 144.47 158.236 145.185 156.703C145.9 155.17 146.894 153.985 148.169 153.15C149.444 152.314 150.917 151.896 152.588 151.896C153.88 151.896 154.901 152.112 155.65 152.542C156.408 152.965 156.985 153.447 157.381 153.99C157.786 154.524 158.1 154.963 158.324 155.307H158.583V145.54H161.632V172H158.686V168.951H158.324C158.1 169.313 157.782 169.769 157.368 170.32C156.955 170.863 156.365 171.35 155.598 171.78C154.832 172.202 153.811 172.413 152.536 172.413ZM152.95 169.674C154.173 169.674 155.206 169.356 156.05 168.718C156.895 168.072 157.536 167.181 157.976 166.044C158.415 164.898 158.634 163.576 158.634 162.077C158.634 160.596 158.419 159.3 157.988 158.189C157.558 157.069 156.92 156.199 156.076 155.579C155.232 154.95 154.19 154.636 152.95 154.636C151.658 154.636 150.581 154.967 149.72 155.63C148.867 156.285 148.225 157.176 147.795 158.305C147.372 159.425 147.161 160.682 147.161 162.077C147.161 163.49 147.377 164.773 147.807 165.928C148.247 167.073 148.893 167.986 149.745 168.667C150.607 169.338 151.675 169.674 152.95 169.674ZM175.96 172.413C174.048 172.413 172.399 171.991 171.012 171.147C169.634 170.295 168.57 169.106 167.821 167.581C167.08 166.048 166.709 164.265 166.709 162.232C166.709 160.2 167.08 158.408 167.821 156.858C168.57 155.299 169.612 154.084 170.947 153.214C172.291 152.336 173.859 151.896 175.65 151.896C176.684 151.896 177.704 152.069 178.712 152.413C179.72 152.758 180.637 153.318 181.464 154.093C182.291 154.859 182.95 155.876 183.441 157.142C183.932 158.408 184.177 159.967 184.177 161.819V163.111H168.88V160.475H181.076C181.076 159.356 180.853 158.356 180.405 157.478C179.965 156.599 179.337 155.906 178.518 155.398C177.709 154.89 176.753 154.636 175.65 154.636C174.436 154.636 173.385 154.937 172.498 155.54C171.619 156.134 170.943 156.909 170.469 157.866C169.995 158.822 169.759 159.847 169.759 160.94V162.698C169.759 164.196 170.017 165.467 170.534 166.509C171.059 167.543 171.787 168.331 172.717 168.873C173.647 169.407 174.728 169.674 175.96 169.674C176.761 169.674 177.485 169.562 178.131 169.338C178.785 169.106 179.35 168.761 179.823 168.305C180.297 167.84 180.663 167.263 180.921 166.574L183.867 167.4C183.557 168.4 183.036 169.278 182.304 170.036C181.572 170.786 180.667 171.371 179.591 171.793C178.514 172.207 177.304 172.413 175.96 172.413ZM196.309 172.413C194.655 172.413 193.195 171.996 191.929 171.16C190.663 170.316 189.673 169.127 188.958 167.594C188.243 166.052 187.885 164.231 187.885 162.129C187.885 160.045 188.243 158.236 188.958 156.703C189.673 155.17 190.667 153.985 191.942 153.15C193.217 152.314 194.69 151.896 196.361 151.896C197.653 151.896 198.674 152.112 199.423 152.542C200.181 152.965 200.758 153.447 201.154 153.99C201.559 154.524 201.873 154.963 202.097 155.307H202.356V145.54H205.405V172H202.459V168.951H202.097C201.873 169.313 201.555 169.769 201.141 170.32C200.728 170.863 200.138 171.35 199.371 171.78C198.605 172.202 197.584 172.413 196.309 172.413ZM196.723 169.674C197.946 169.674 198.979 169.356 199.823 168.718C200.668 168.072 201.309 167.181 201.748 166.044C202.188 164.898 202.407 163.576 202.407 162.077C202.407 160.596 202.192 159.3 201.761 158.189C201.331 157.069 200.693 156.199 199.849 155.579C199.005 154.95 197.963 154.636 196.723 154.636C195.431 154.636 194.354 154.967 193.493 155.63C192.64 156.285 191.998 157.176 191.568 158.305C191.145 159.425 190.934 160.682 190.934 162.077C190.934 163.49 191.15 164.773 191.58 165.928C192.02 167.073 192.666 167.986 193.518 168.667C194.38 169.338 195.448 169.674 196.723 169.674Z" fill="#46C147"/>
<path d="M890 137.5V22.288" stroke="#46C147" stroke-width="3.03189"/>
<path d="M923.25 137.5V22.288" stroke="#46C147" stroke-width="3.03189"/>
<path d="M890 46.5432H923.25" stroke="#46C147" stroke-width="3.03189"/>
<path d="M915 46.5432L939.255 40.4794V52.607L915 46.5432Z" fill="#46C147"/>
<path d="M898.255 46.5432L874 40.4794V52.607L898.255 46.5432Z" fill="#46C147"/>
<path d="M960.739 52V49.6744L969.473 40.1136C970.498 38.9939 971.342 38.0206 972.005 37.1937C972.669 36.3582 973.159 35.5744 973.478 34.8422C973.805 34.1015 973.969 33.3263 973.969 32.5166C973.969 31.5864 973.745 30.781 973.297 30.1006C972.858 29.4201 972.255 28.8947 971.488 28.5243C970.722 28.154 969.861 27.9688 968.904 27.9688C967.888 27.9688 967.001 28.1798 966.243 28.6019C965.494 29.0153 964.912 29.5967 964.499 30.3461C964.094 31.0954 963.892 31.974 963.892 32.9818H960.842C960.842 31.4313 961.2 30.0704 961.915 28.899C962.63 27.7276 963.603 26.8146 964.835 26.16C966.075 25.5054 967.466 25.1781 969.008 25.1781C970.558 25.1781 971.932 25.5054 973.129 26.16C974.327 26.8146 975.265 27.6975 975.946 28.8086C976.626 29.9197 976.967 31.1557 976.967 32.5166C976.967 33.4899 976.79 34.4417 976.437 35.372C976.092 36.2936 975.489 37.3229 974.628 38.4598C973.775 39.5882 972.591 40.9663 971.075 42.5942L965.132 48.9509V49.1576H977.432V52H960.739ZM985.042 52.2067C984.404 52.2067 983.857 51.9785 983.401 51.522C982.944 51.0655 982.716 50.5185 982.716 49.8811C982.716 49.2437 982.944 48.6968 983.401 48.2403C983.857 47.7838 984.404 47.5555 985.042 47.5555C985.679 47.5555 986.226 47.7838 986.682 48.2403C987.139 48.6968 987.367 49.2437 987.367 49.8811C987.367 50.3032 987.26 50.6908 987.044 51.0439C986.837 51.3971 986.558 51.6813 986.204 51.8966C985.86 52.1034 985.472 52.2067 985.042 52.2067ZM1000.52 52.3618C999.007 52.3618 997.642 52.0603 996.427 51.4574C995.213 50.8544 994.24 50.0275 993.507 48.9767C992.775 47.9259 992.375 46.7286 992.306 45.385H995.407C995.527 46.5822 996.07 47.5727 997.035 48.3566C998.008 49.1318 999.171 49.5194 1000.52 49.5194C1001.61 49.5194 1002.57 49.2653 1003.42 48.7571C1004.27 48.2489 1004.94 47.5512 1005.42 46.664C1005.91 45.7683 1006.16 44.7562 1006.16 43.6278C1006.16 42.4736 1005.9 41.4444 1005.39 40.54C1004.89 39.6269 1004.21 38.9077 1003.33 38.3823C1002.45 37.8569 1001.44 37.5899 1000.32 37.5813C999.507 37.5727 998.675 37.6976 997.823 37.956C996.97 38.2057 996.268 38.5287 995.717 38.925L992.719 38.5632L994.321 25.5398H1008.07V28.3822H997.009L996.078 36.1859H996.234C996.776 35.7552 997.457 35.3978 998.275 35.1136C999.093 34.8293 999.946 34.6872 1000.83 34.6872C1002.45 34.6872 1003.9 35.0748 1005.16 35.85C1006.44 36.6166 1007.44 37.6674 1008.16 39.0025C1008.89 40.3375 1009.26 41.8621 1009.26 43.5762C1009.26 45.2644 1008.88 46.7717 1008.12 48.0982C1007.37 49.416 1006.34 50.4582 1005.02 51.2248C1003.7 51.9828 1002.2 52.3618 1000.52 52.3618ZM1028.5 36.5994L1025.76 37.3746C1025.59 36.918 1025.33 36.4745 1025 36.0438C1024.67 35.6045 1024.22 35.2428 1023.65 34.9585C1023.08 34.6743 1022.36 34.5322 1021.47 34.5322C1020.26 34.5322 1019.24 34.8121 1018.43 35.372C1017.63 35.9232 1017.23 36.6252 1017.23 37.4779C1017.23 38.2359 1017.51 38.8345 1018.06 39.2738C1018.61 39.7131 1019.47 40.0791 1020.64 40.372L1023.59 41.0955C1025.36 41.5262 1026.68 42.1851 1027.55 43.0723C1028.42 43.9508 1028.86 45.0835 1028.86 46.4702C1028.86 47.6072 1028.53 48.6236 1027.88 49.5194C1027.23 50.4151 1026.33 51.1214 1025.16 51.6382C1024 52.155 1022.65 52.4134 1021.11 52.4134C1019.08 52.4134 1017.41 51.9742 1016.08 51.0956C1014.76 50.217 1013.92 48.9337 1013.56 47.2454L1016.46 46.5219C1016.73 47.59 1017.25 48.391 1018.02 48.925C1018.8 49.4591 1019.81 49.7261 1021.06 49.7261C1022.48 49.7261 1023.61 49.4246 1024.44 48.8217C1025.29 48.2101 1025.71 47.478 1025.71 46.6253C1025.71 45.9362 1025.47 45.3591 1024.98 44.894C1024.5 44.4203 1023.76 44.0671 1022.76 43.8346L1019.45 43.0594C1017.64 42.6287 1016.3 41.9612 1015.45 41.0568C1014.6 40.1437 1014.18 39.0025 1014.18 37.633C1014.18 36.5132 1014.5 35.5227 1015.13 34.6614C1015.76 33.8 1016.63 33.1239 1017.72 32.6329C1018.83 32.142 1020.07 31.8965 1021.47 31.8965C1023.43 31.8965 1024.98 32.3271 1026.09 33.1885C1027.22 34.0498 1028.02 35.1868 1028.5 36.5994ZM1037.95 52L1031.9 32.1549H1035.1L1039.39 47.3488H1039.6L1043.84 32.1549H1047.09L1051.28 47.2971H1051.49L1055.78 32.1549H1058.98L1052.93 52H1049.94L1045.59 36.7544H1045.28L1040.94 52H1037.95ZM961.204 96V69.5398H964.253V79.3074H964.512C964.736 78.9628 965.046 78.5235 965.442 77.9895C965.847 77.4469 966.424 76.9645 967.173 76.5425C967.931 76.1118 968.956 75.8965 970.248 75.8965C971.919 75.8965 973.392 76.3142 974.667 77.1497C975.942 77.9852 976.936 79.1695 977.651 80.7027C978.366 82.2359 978.724 84.0447 978.724 86.1291C978.724 88.2308 978.366 90.0525 977.651 91.5943C976.936 93.1275 975.946 94.3161 974.68 95.1602C973.414 95.9957 971.954 96.4134 970.3 96.4134C969.025 96.4134 968.004 96.2024 967.238 95.7804C966.471 95.3497 965.881 94.863 965.468 94.3204C965.054 93.7691 964.736 93.3126 964.512 92.9509H964.15V96H961.204ZM964.202 86.0774C964.202 87.5762 964.421 88.8983 964.861 90.0439C965.3 91.1808 965.941 92.0723 966.786 92.7183C967.63 93.3557 968.663 93.6744 969.886 93.6744C971.161 93.6744 972.225 93.3385 973.078 92.6666C973.939 91.9862 974.585 91.0732 975.016 89.9276C975.455 88.7734 975.675 87.49 975.675 86.0774C975.675 84.6821 975.459 83.4245 975.029 82.3048C974.607 81.1764 973.965 80.285 973.103 79.6304C972.251 78.9671 971.178 78.6355 969.886 78.6355C968.646 78.6355 967.604 78.9499 966.76 79.5787C965.916 80.1988 965.278 81.0688 964.848 82.1885C964.417 83.2996 964.202 84.5959 964.202 86.0774ZM995.894 87.8862V76.1549H998.943V96H995.894V92.6408H995.688C995.223 93.6486 994.499 94.5056 993.517 95.2119C992.535 95.9096 991.295 96.2584 989.796 96.2584C988.556 96.2584 987.453 95.9871 986.489 95.4444C985.524 94.8932 984.766 94.0663 984.215 92.9638C983.663 91.8527 983.388 90.453 983.388 88.7648V76.1549H986.437V88.5581C986.437 90.0051 986.842 91.1593 987.651 92.0206C988.47 92.882 989.512 93.3126 990.778 93.3126C991.536 93.3126 992.307 93.1188 993.091 92.7312C993.883 92.3436 994.546 91.7493 995.08 90.9483C995.623 90.1472 995.894 89.1266 995.894 87.8862ZM1013.16 76.1549V78.7389H1002.87V76.1549H1013.16ZM1005.87 71.4003H1008.92V90.3152C1008.92 91.1765 1009.05 91.8225 1009.3 92.2532C1009.55 92.6753 1009.88 92.9595 1010.28 93.1059C1010.68 93.2437 1011.11 93.3126 1011.56 93.3126C1011.89 93.3126 1012.17 93.2954 1012.38 93.261C1012.6 93.2179 1012.77 93.1834 1012.9 93.1576L1013.52 95.8966C1013.31 95.9742 1013.03 96.0517 1012.65 96.1292C1012.28 96.2153 1011.82 96.2584 1011.25 96.2584C1010.39 96.2584 1009.54 96.0732 1008.71 95.7028C1007.9 95.3325 1007.22 94.7683 1006.67 94.0103C1006.14 93.2523 1005.87 92.2963 1005.87 91.1421V71.4003ZM1027.98 96V76.1549H1030.92V79.1523H1031.13C1031.49 78.1704 1032.15 77.3737 1033.09 76.7621C1034.04 76.1506 1035.11 75.8448 1036.3 75.8448C1036.52 75.8448 1036.8 75.8491 1037.14 75.8577C1037.47 75.8663 1037.73 75.8792 1037.9 75.8965V78.9973C1037.8 78.9714 1037.56 78.9327 1037.19 78.881C1036.83 78.8207 1036.44 78.7906 1036.04 78.7906C1035.08 78.7906 1034.21 78.993 1033.46 79.3978C1032.71 79.794 1032.11 80.3453 1031.67 81.0516C1031.24 81.7492 1031.03 82.546 1031.03 83.4418V96H1027.98ZM1048.97 96.4134C1047.18 96.4134 1045.61 95.9871 1044.26 95.1344C1042.91 94.2816 1041.86 93.0887 1041.1 91.5555C1040.36 90.0223 1039.98 88.2308 1039.98 86.1808C1039.98 84.1136 1040.36 82.3091 1041.1 80.7673C1041.86 79.2255 1042.91 78.0283 1044.26 77.1756C1045.61 76.3228 1047.18 75.8965 1048.97 75.8965C1050.76 75.8965 1052.33 76.3228 1053.68 77.1756C1055.03 78.0283 1056.08 79.2255 1056.83 80.7673C1057.59 82.3091 1057.97 84.1136 1057.97 86.1808C1057.97 88.2308 1057.59 90.0223 1056.83 91.5555C1056.08 93.0887 1055.03 94.2816 1053.68 95.1344C1052.33 95.9871 1050.76 96.4134 1048.97 96.4134ZM1048.97 93.6744C1050.33 93.6744 1051.45 93.3256 1052.33 92.6279C1053.21 91.9302 1053.86 91.0129 1054.28 89.8759C1054.71 88.739 1054.92 87.5072 1054.92 86.1808C1054.92 84.8543 1054.71 83.6183 1054.28 82.4728C1053.86 81.3272 1053.21 80.4012 1052.33 79.695C1051.45 78.9887 1050.33 78.6355 1048.97 78.6355C1047.61 78.6355 1046.49 78.9887 1045.61 79.695C1044.74 80.4012 1044.08 81.3272 1043.66 82.4728C1043.24 83.6183 1043.03 84.8543 1043.03 86.1808C1043.03 87.5072 1043.24 88.739 1043.66 89.8759C1044.08 91.0129 1044.74 91.9302 1045.61 92.6279C1046.49 93.3256 1047.61 93.6744 1048.97 93.6744ZM1075.13 87.8862V76.1549H1078.18V96H1075.13V92.6408H1074.92C1074.45 93.6486 1073.73 94.5056 1072.75 95.2119C1071.77 95.9096 1070.53 96.2584 1069.03 96.2584C1067.79 96.2584 1066.69 95.9871 1065.72 95.4444C1064.76 94.8932 1064 94.0663 1063.45 92.9638C1062.9 91.8527 1062.62 90.453 1062.62 88.7648V76.1549H1065.67V88.5581C1065.67 90.0051 1066.07 91.1593 1066.88 92.0206C1067.7 92.882 1068.74 93.3126 1070.01 93.3126C1070.77 93.3126 1071.54 93.1188 1072.32 92.7312C1073.12 92.3436 1073.78 91.7493 1074.31 90.9483C1074.85 90.1472 1075.13 89.1266 1075.13 87.8862ZM1086.81 84.0619V96H1083.76V76.1549H1086.71V79.2557H1086.96C1087.43 78.2479 1088.14 77.4383 1089.08 76.8267C1090.03 76.2066 1091.25 75.8965 1092.75 75.8965C1094.1 75.8965 1095.27 76.1721 1096.28 76.7234C1097.29 77.266 1098.07 78.0929 1098.63 79.204C1099.19 80.3065 1099.47 81.7019 1099.47 83.3901V96H1096.42V83.5968C1096.42 82.0378 1096.02 80.8233 1095.21 79.9534C1094.4 79.0748 1093.29 78.6355 1091.87 78.6355C1090.9 78.6355 1090.03 78.8465 1089.26 79.2686C1088.51 79.6906 1087.91 80.3065 1087.47 81.1162C1087.03 81.9258 1086.81 82.9077 1086.81 84.0619ZM1112.54 96.4134C1110.88 96.4134 1109.42 95.9957 1108.16 95.1602C1106.89 94.3161 1105.9 93.1275 1105.18 91.5943C1104.47 90.0525 1104.11 88.2308 1104.11 86.1291C1104.11 84.0447 1104.47 82.2359 1105.18 80.7027C1105.9 79.1695 1106.89 77.9852 1108.17 77.1497C1109.44 76.3142 1110.92 75.8965 1112.59 75.8965C1113.88 75.8965 1114.9 76.1118 1115.65 76.5425C1116.41 76.9645 1116.98 77.4469 1117.38 77.9895C1117.79 78.5235 1118.1 78.9628 1118.32 79.3074H1118.58V69.5398H1121.63V96H1118.69V92.9509H1118.32C1118.1 93.3126 1117.78 93.7691 1117.37 94.3204C1116.95 94.863 1116.36 95.3497 1115.6 95.7804C1114.83 96.2024 1113.81 96.4134 1112.54 96.4134ZM1112.95 93.6744C1114.17 93.6744 1115.21 93.3557 1116.05 92.7183C1116.89 92.0723 1117.54 91.1808 1117.98 90.0439C1118.41 88.8983 1118.63 87.5762 1118.63 86.0774C1118.63 84.5959 1118.42 83.2996 1117.99 82.1885C1117.56 81.0688 1116.92 80.1988 1116.08 79.5787C1115.23 78.9499 1114.19 78.6355 1112.95 78.6355C1111.66 78.6355 1110.58 78.9671 1109.72 79.6304C1108.87 80.285 1108.23 81.1764 1107.79 82.3048C1107.37 83.4245 1107.16 84.6821 1107.16 86.0774C1107.16 87.49 1107.38 88.7734 1107.81 89.9276C1108.25 91.0732 1108.89 91.9862 1109.75 92.6666C1110.61 93.3385 1111.67 93.6744 1112.95 93.6744ZM1135.96 96.4134C1134.05 96.4134 1132.4 95.9914 1131.01 95.1473C1129.63 94.2946 1128.57 93.1059 1127.82 91.5814C1127.08 90.0482 1126.71 88.2652 1126.71 86.2325C1126.71 84.1997 1127.08 82.4082 1127.82 80.8578C1128.57 79.2987 1129.61 78.0843 1130.95 77.2143C1132.29 76.3358 1133.86 75.8965 1135.65 75.8965C1136.68 75.8965 1137.7 76.0687 1138.71 76.4133C1139.72 76.7578 1140.64 77.3177 1141.46 78.0929C1142.29 78.8595 1142.95 79.8758 1143.44 81.142C1143.93 82.4082 1144.18 83.9672 1144.18 85.819V87.111H1128.88V84.4754H1141.08C1141.08 83.3556 1140.85 82.3565 1140.4 81.4779C1139.97 80.5994 1139.34 79.906 1138.52 79.3978C1137.71 78.8896 1136.75 78.6355 1135.65 78.6355C1134.44 78.6355 1133.38 78.937 1132.5 79.5399C1131.62 80.1342 1130.94 80.9094 1130.47 81.8655C1130 82.8216 1129.76 83.8466 1129.76 84.9405V86.6976C1129.76 88.1963 1130.02 89.4668 1130.53 90.509C1131.06 91.5426 1131.79 92.3307 1132.72 92.8734C1133.65 93.4074 1134.73 93.6744 1135.96 93.6744C1136.76 93.6744 1137.48 93.5624 1138.13 93.3385C1138.79 93.1059 1139.35 92.7614 1139.82 92.3049C1140.3 91.8398 1140.66 91.2627 1140.92 90.5736L1143.87 91.4005C1143.56 92.3996 1143.04 93.2782 1142.3 94.0362C1141.57 94.7855 1140.67 95.3712 1139.59 95.7933C1138.51 96.2067 1137.3 96.4134 1135.96 96.4134ZM1156.31 96.4134C1154.66 96.4134 1153.2 95.9957 1151.93 95.1602C1150.66 94.3161 1149.67 93.1275 1148.96 91.5943C1148.24 90.0525 1147.89 88.2308 1147.89 86.1291C1147.89 84.0447 1148.24 82.2359 1148.96 80.7027C1149.67 79.1695 1150.67 77.9852 1151.94 77.1497C1153.22 76.3142 1154.69 75.8965 1156.36 75.8965C1157.65 75.8965 1158.67 76.1118 1159.42 76.5425C1160.18 76.9645 1160.76 77.4469 1161.15 77.9895C1161.56 78.5235 1161.87 78.9628 1162.1 79.3074H1162.36V69.5398H1165.4V96H1162.46V92.9509H1162.1C1161.87 93.3126 1161.55 93.7691 1161.14 94.3204C1160.73 94.863 1160.14 95.3497 1159.37 95.7804C1158.6 96.2024 1157.58 96.4134 1156.31 96.4134ZM1156.72 93.6744C1157.95 93.6744 1158.98 93.3557 1159.82 92.7183C1160.67 92.0723 1161.31 91.1808 1161.75 90.0439C1162.19 88.8983 1162.41 87.5762 1162.41 86.0774C1162.41 84.5959 1162.19 83.2996 1161.76 82.1885C1161.33 81.0688 1160.69 80.1988 1159.85 79.5787C1159.01 78.9499 1157.96 78.6355 1156.72 78.6355C1155.43 78.6355 1154.35 78.9671 1153.49 79.6304C1152.64 80.285 1152 81.1764 1151.57 82.3048C1151.15 83.4245 1150.93 84.6821 1150.93 86.0774C1150.93 87.49 1151.15 88.7734 1151.58 89.9276C1152.02 91.0732 1152.67 91.9862 1153.52 92.6666C1154.38 93.3385 1155.45 93.6744 1156.72 93.6744Z" fill="#46C147"/>
<path d="M642 104.75H526.788" stroke="#FF0000" stroke-width="3.03189"/>
<path d="M642 133.5H526.788" stroke="#FF0000" stroke-width="3.03189"/>
<path d="M551.043 104.75V133.5" stroke="#FF0000" stroke-width="3.03189"/>
<path d="M551.043 130L544.979 154.255H557.107L551.043 130Z" fill="#FF0000"/>
<path d="M551.043 108.255L544.979 84H557.107L551.043 108.255Z" fill="#FF0000"/>
<path d="M527.739 27V24.6744L536.473 15.1136C537.498 13.9939 538.342 13.0206 539.005 12.1937C539.669 11.3582 540.159 10.5744 540.478 9.84223C540.805 9.10148 540.969 8.32628 540.969 7.51663C540.969 6.58639 540.745 5.78104 540.297 5.10059C539.858 4.42014 539.255 3.89472 538.488 3.52435C537.722 3.15398 536.861 2.96879 535.904 2.96879C534.888 2.96879 534.001 3.17982 533.243 3.60187C532.494 4.01531 531.912 4.59671 531.499 5.34607C531.094 6.09543 530.892 6.97399 530.892 7.98175H527.842C527.842 6.43135 528.2 5.07044 528.915 3.89903C529.63 2.72761 530.603 1.8146 531.835 1.15999C533.075 0.505374 534.466 0.178067 536.008 0.178067C537.558 0.178067 538.932 0.505374 540.129 1.15999C541.327 1.8146 542.265 2.69747 542.946 3.80859C543.626 4.91971 543.967 6.15572 543.967 7.51663C543.967 8.48994 543.79 9.44171 543.437 10.372C543.092 11.2936 542.489 12.3229 541.628 13.4598C540.775 14.5882 539.591 15.9663 538.075 17.5942L532.132 23.9509V24.1576H544.432V27H527.739ZM552.042 27.2067C551.404 27.2067 550.857 26.9785 550.401 26.522C549.944 26.0655 549.716 25.5185 549.716 24.8811C549.716 24.2437 549.944 23.6968 550.401 23.2403C550.857 22.7838 551.404 22.5555 552.042 22.5555C552.679 22.5555 553.226 22.7838 553.682 23.2403C554.139 23.6968 554.367 24.2437 554.367 24.8811C554.367 25.3032 554.26 25.6908 554.044 26.0439C553.837 26.3971 553.558 26.6813 553.204 26.8966C552.86 27.1034 552.472 27.2067 552.042 27.2067ZM567.523 27.3618C566.007 27.3618 564.642 27.0603 563.427 26.4574C562.213 25.8544 561.24 25.0275 560.507 23.9767C559.775 22.9259 559.375 21.7286 559.306 20.385H562.407C562.527 21.5822 563.07 22.5727 564.035 23.3566C565.008 24.1318 566.171 24.5194 567.523 24.5194C568.608 24.5194 569.573 24.2653 570.417 23.7571C571.27 23.2489 571.937 22.5512 572.42 21.664C572.911 20.7683 573.156 19.7562 573.156 18.6278C573.156 17.4736 572.902 16.4444 572.394 15.54C571.894 14.6269 571.205 13.9077 570.327 13.3823C569.448 12.8569 568.445 12.5899 567.316 12.5813C566.507 12.5727 565.675 12.6976 564.823 12.956C563.97 13.2057 563.268 13.5287 562.717 13.925L559.719 13.5632L561.321 0.539827H575.068V3.38223H564.009L563.078 11.1859H563.234C563.776 10.7552 564.457 10.3978 565.275 10.1136C566.093 9.82931 566.946 9.68719 567.833 9.68719C569.452 9.68719 570.895 10.0748 572.161 10.85C573.436 11.6166 574.435 12.6674 575.159 14.0025C575.891 15.3375 576.257 16.8621 576.257 18.5762C576.257 20.2644 575.878 21.7717 575.12 23.0982C574.371 24.416 573.337 25.4582 572.019 26.2248C570.701 26.9828 569.203 27.3618 567.523 27.3618ZM595.498 11.5994L592.759 12.3746C592.587 11.918 592.333 11.4745 591.997 11.0438C591.669 10.6045 591.221 10.2428 590.653 9.95851C590.085 9.67427 589.357 9.53215 588.47 9.53215C587.255 9.53215 586.243 9.81209 585.433 10.372C584.632 10.9232 584.232 11.6252 584.232 12.4779C584.232 13.2359 584.507 13.8345 585.059 14.2738C585.61 14.7131 586.471 15.0791 587.643 15.372L590.588 16.0955C592.363 16.5262 593.685 17.1851 594.555 18.0723C595.425 18.9508 595.86 20.0835 595.86 21.4702C595.86 22.6072 595.532 23.6236 594.878 24.5194C594.232 25.4151 593.327 26.1214 592.165 26.6382C591.002 27.155 589.65 27.4134 588.108 27.4134C586.084 27.4134 584.408 26.9742 583.082 26.0956C581.755 25.217 580.916 23.9337 580.562 22.2454L583.457 21.5219C583.732 22.59 584.253 23.391 585.02 23.925C585.795 24.4591 586.807 24.7261 588.056 24.7261C589.477 24.7261 590.606 24.4246 591.441 23.8217C592.285 23.2101 592.707 22.478 592.707 21.6253C592.707 20.9362 592.466 20.3591 591.984 19.894C591.501 19.4203 590.761 19.0671 589.762 18.8346L586.454 18.0594C584.637 17.6287 583.302 16.9612 582.449 16.0568C581.605 15.1437 581.183 14.0025 581.183 12.633C581.183 11.5132 581.497 10.5227 582.126 9.66135C582.763 8.80002 583.629 8.12387 584.723 7.63291C585.825 7.14195 587.074 6.89647 588.47 6.89647C590.433 6.89647 591.975 7.32714 593.095 8.18847C594.223 9.0498 595.024 10.1868 595.498 11.5994ZM604.946 27L598.899 7.15487H602.103L606.393 22.3488H606.6L610.837 7.15487H614.093L618.279 22.2971H618.486L622.775 7.15487H625.98L619.933 27H616.936L612.594 11.7544H612.284L607.943 27H604.946ZM528.204 71V44.5398H531.253V54.3074H531.512C531.736 53.9628 532.046 53.5235 532.442 52.9895C532.847 52.4469 533.424 51.9645 534.173 51.5425C534.931 51.1118 535.956 50.8965 537.248 50.8965C538.919 50.8965 540.392 51.3142 541.667 52.1497C542.942 52.9852 543.936 54.1695 544.651 55.7027C545.366 57.2359 545.724 59.0447 545.724 61.1291C545.724 63.2308 545.366 65.0525 544.651 66.5943C543.936 68.1275 542.946 69.3161 541.68 70.1602C540.414 70.9957 538.954 71.4134 537.3 71.4134C536.025 71.4134 535.004 71.2024 534.238 70.7804C533.471 70.3497 532.881 69.863 532.468 69.3204C532.054 68.7691 531.736 68.3126 531.512 67.9509H531.15V71H528.204ZM531.202 61.0774C531.202 62.5762 531.421 63.8983 531.861 65.0439C532.3 66.1808 532.941 67.0723 533.786 67.7183C534.63 68.3557 535.663 68.6744 536.886 68.6744C538.161 68.6744 539.225 68.3385 540.078 67.6666C540.939 66.9862 541.585 66.0732 542.016 64.9276C542.455 63.7734 542.675 62.49 542.675 61.0774C542.675 59.6821 542.459 58.4245 542.029 57.3048C541.607 56.1764 540.965 55.285 540.103 54.6304C539.251 53.9671 538.178 53.6355 536.886 53.6355C535.646 53.6355 534.604 53.9499 533.76 54.5787C532.916 55.1988 532.278 56.0688 531.848 57.1885C531.417 58.2996 531.202 59.5959 531.202 61.0774ZM562.894 62.8862V51.1549H565.943V71H562.894V67.6408H562.688C562.223 68.6486 561.499 69.5056 560.517 70.2119C559.535 70.9096 558.295 71.2584 556.796 71.2584C555.556 71.2584 554.453 70.9871 553.489 70.4444C552.524 69.8932 551.766 69.0663 551.215 67.9638C550.663 66.8527 550.388 65.453 550.388 63.7648V51.1549H553.437V63.5581C553.437 65.0051 553.842 66.1593 554.651 67.0206C555.47 67.882 556.512 68.3126 557.778 68.3126C558.536 68.3126 559.307 68.1188 560.091 67.7312C560.883 67.3436 561.546 66.7493 562.08 65.9483C562.623 65.1472 562.894 64.1266 562.894 62.8862ZM580.159 51.1549V53.7389H569.874V51.1549H580.159ZM572.872 46.4003H575.921V65.3152C575.921 66.1765 576.046 66.8225 576.296 67.2532C576.554 67.6753 576.881 67.9595 577.278 68.1059C577.682 68.2437 578.109 68.3126 578.557 68.3126C578.893 68.3126 579.168 68.2954 579.384 68.261C579.599 68.2179 579.771 68.1834 579.9 68.1576L580.52 70.8966C580.314 70.9742 580.025 71.0517 579.655 71.1292C579.284 71.2153 578.815 71.2584 578.247 71.2584C577.385 71.2584 576.541 71.0732 575.714 70.7028C574.896 70.3325 574.216 69.7683 573.673 69.0103C573.139 68.2523 572.872 67.2963 572.872 66.1421V46.4003ZM594.978 71V51.1549H597.924V54.1523H598.13C598.492 53.1704 599.147 52.3737 600.094 51.7621C601.042 51.1506 602.11 50.8448 603.298 50.8448C603.522 50.8448 603.802 50.8491 604.138 50.8577C604.474 50.8663 604.728 50.8792 604.901 50.8965V53.9973C604.797 53.9714 604.56 53.9327 604.19 53.881C603.828 53.8207 603.445 53.7906 603.04 53.7906C602.075 53.7906 601.214 53.993 600.456 54.3978C599.707 54.794 599.112 55.3453 598.673 56.0516C598.242 56.7492 598.027 57.546 598.027 58.4418V71H594.978ZM615.973 71.4134C614.181 71.4134 612.609 70.9871 611.257 70.1344C609.914 69.2816 608.863 68.0887 608.105 66.5555C607.355 65.0223 606.981 63.2308 606.981 61.1808C606.981 59.1136 607.355 57.3091 608.105 55.7673C608.863 54.2255 609.914 53.0283 611.257 52.1756C612.609 51.3228 614.181 50.8965 615.973 50.8965C617.765 50.8965 619.332 51.3228 620.676 52.1756C622.028 53.0283 623.079 54.2255 623.828 55.7673C624.586 57.3091 624.965 59.1136 624.965 61.1808C624.965 63.2308 624.586 65.0223 623.828 66.5555C623.079 68.0887 622.028 69.2816 620.676 70.1344C619.332 70.9871 617.765 71.4134 615.973 71.4134ZM615.973 68.6744C617.334 68.6744 618.454 68.3256 619.332 67.6279C620.211 66.9302 620.861 66.0129 621.283 64.8759C621.705 63.739 621.916 62.5072 621.916 61.1808C621.916 59.8543 621.705 58.6183 621.283 57.4728C620.861 56.3272 620.211 55.4012 619.332 54.695C618.454 53.9887 617.334 53.6355 615.973 53.6355C614.612 53.6355 613.492 53.9887 612.614 54.695C611.735 55.4012 611.085 56.3272 610.663 57.4728C610.241 58.6183 610.03 59.8543 610.03 61.1808C610.03 62.5072 610.241 63.739 610.663 64.8759C611.085 66.0129 611.735 66.9302 612.614 67.6279C613.492 68.3256 614.612 68.6744 615.973 68.6744ZM642.126 62.8862V51.1549H645.175V71H642.126V67.6408H641.92C641.454 68.6486 640.731 69.5056 639.749 70.2119C638.767 70.9096 637.527 71.2584 636.028 71.2584C634.788 71.2584 633.685 70.9871 632.721 70.4444C631.756 69.8932 630.998 69.0663 630.447 67.9638C629.895 66.8527 629.62 65.453 629.62 63.7648V51.1549H632.669V63.5581C632.669 65.0051 633.074 66.1593 633.883 67.0206C634.702 67.882 635.744 68.3126 637.01 68.3126C637.768 68.3126 638.539 68.1188 639.323 67.7312C640.115 67.3436 640.778 66.7493 641.312 65.9483C641.855 65.1472 642.126 64.1266 642.126 62.8862ZM653.809 59.0619V71H650.76V51.1549H653.706V54.2557H653.964C654.429 53.2479 655.136 52.4383 656.083 51.8267C657.031 51.2066 658.254 50.8965 659.752 50.8965C661.096 50.8965 662.272 51.1721 663.28 51.7234C664.287 52.266 665.071 53.0929 665.631 54.204C666.191 55.3065 666.471 56.7019 666.471 58.3901V71H663.422V58.5968C663.422 57.0378 663.017 55.8233 662.207 54.9534C661.398 54.0748 660.286 53.6355 658.874 53.6355C657.901 53.6355 657.031 53.8465 656.264 54.2686C655.506 54.6906 654.907 55.3065 654.468 56.1162C654.029 56.9258 653.809 57.9077 653.809 59.0619ZM679.536 71.4134C677.882 71.4134 676.422 70.9957 675.156 70.1602C673.89 69.3161 672.9 68.1275 672.185 66.5943C671.47 65.0525 671.112 63.2308 671.112 61.1291C671.112 59.0447 671.47 57.2359 672.185 55.7027C672.9 54.1695 673.894 52.9852 675.169 52.1497C676.444 51.3142 677.917 50.8965 679.588 50.8965C680.88 50.8965 681.901 51.1118 682.65 51.5425C683.408 51.9645 683.985 52.4469 684.381 52.9895C684.786 53.5235 685.1 53.9628 685.324 54.3074H685.583V44.5398H688.632V71H685.686V67.9509H685.324C685.1 68.3126 684.782 68.7691 684.368 69.3204C683.955 69.863 683.365 70.3497 682.598 70.7804C681.832 71.2024 680.811 71.4134 679.536 71.4134ZM679.95 68.6744C681.173 68.6744 682.206 68.3557 683.05 67.7183C683.895 67.0723 684.536 66.1808 684.976 65.0439C685.415 63.8983 685.634 62.5762 685.634 61.0774C685.634 59.5959 685.419 58.2996 684.988 57.1885C684.558 56.0688 683.92 55.1988 683.076 54.5787C682.232 53.9499 681.19 53.6355 679.95 53.6355C678.658 53.6355 677.581 53.9671 676.72 54.6304C675.867 55.285 675.225 56.1764 674.795 57.3048C674.372 58.4245 674.161 59.6821 674.161 61.0774C674.161 62.49 674.377 63.7734 674.807 64.9276C675.247 66.0732 675.893 66.9862 676.745 67.6666C677.607 68.3385 678.675 68.6744 679.95 68.6744ZM702.96 71.4134C701.048 71.4134 699.399 70.9914 698.012 70.1473C696.634 69.2946 695.57 68.1059 694.821 66.5814C694.08 65.0482 693.709 63.2652 693.709 61.2325C693.709 59.1997 694.08 57.4082 694.821 55.8578C695.57 54.2987 696.612 53.0843 697.947 52.2143C699.291 51.3358 700.859 50.8965 702.65 50.8965C703.684 50.8965 704.704 51.0687 705.712 51.4133C706.72 51.7578 707.637 52.3177 708.464 53.0929C709.291 53.8595 709.95 54.8758 710.441 56.142C710.932 57.4082 711.177 58.9672 711.177 60.819V62.111H695.88V59.4754H708.076C708.076 58.3556 707.853 57.3565 707.405 56.4779C706.965 55.5994 706.337 54.906 705.518 54.3978C704.709 53.8896 703.753 53.6355 702.65 53.6355C701.436 53.6355 700.385 53.937 699.498 54.5399C698.619 55.1342 697.943 55.9094 697.469 56.8655C696.995 57.8216 696.759 58.8466 696.759 59.9405V61.6976C696.759 63.1963 697.017 64.4668 697.534 65.509C698.059 66.5426 698.787 67.3307 699.717 67.8734C700.647 68.4074 701.728 68.6744 702.96 68.6744C703.761 68.6744 704.485 68.5624 705.131 68.3385C705.785 68.1059 706.35 67.7614 706.823 67.3049C707.297 66.8398 707.663 66.2627 707.921 65.5736L710.867 66.4005C710.557 67.3996 710.036 68.2782 709.304 69.0362C708.572 69.7855 707.667 70.3712 706.591 70.7933C705.514 71.2067 704.304 71.4134 702.96 71.4134ZM723.309 71.4134C721.655 71.4134 720.195 70.9957 718.929 70.1602C717.663 69.3161 716.673 68.1275 715.958 66.5943C715.243 65.0525 714.885 63.2308 714.885 61.1291C714.885 59.0447 715.243 57.2359 715.958 55.7027C716.673 54.1695 717.667 52.9852 718.942 52.1497C720.217 51.3142 721.69 50.8965 723.361 50.8965C724.653 50.8965 725.674 51.1118 726.423 51.5425C727.181 51.9645 727.758 52.4469 728.154 52.9895C728.559 53.5235 728.873 53.9628 729.097 54.3074H729.356V44.5398H732.405V71H729.459V67.9509H729.097C728.873 68.3126 728.555 68.7691 728.141 69.3204C727.728 69.863 727.138 70.3497 726.371 70.7804C725.605 71.2024 724.584 71.4134 723.309 71.4134ZM723.723 68.6744C724.946 68.6744 725.979 68.3557 726.823 67.7183C727.668 67.0723 728.309 66.1808 728.748 65.0439C729.188 63.8983 729.407 62.5762 729.407 61.0774C729.407 59.5959 729.192 58.2996 728.761 57.1885C728.331 56.0688 727.693 55.1988 726.849 54.5787C726.005 53.9499 724.963 53.6355 723.723 53.6355C722.431 53.6355 721.354 53.9671 720.493 54.6304C719.64 55.285 718.998 56.1764 718.568 57.3048C718.145 58.4245 717.934 59.6821 717.934 61.0774C717.934 62.49 718.15 63.7734 718.58 64.9276C719.02 66.0732 719.666 66.9862 720.518 67.6666C721.38 68.3385 722.448 68.6744 723.723 68.6744Z" fill="#FF0000"/>
<path d="M531.5 392.25H416.288" stroke="#FF0000" stroke-width="3.03189"/>
<path d="M531.5 376H416.288" stroke="#FF0000" stroke-width="3.03189"/>
<path d="M440.543 376V392.25" stroke="#FF0000" stroke-width="3.03189"/>
<path d="M440.543 387L434.479 411.255H446.607L440.543 387Z" fill="#FF0000"/>
<path d="M440.543 379.255L434.479 355H446.607L440.543 379.255Z" fill="#FF0000"/>
<path d="M420.041 418.54V445H416.837V421.899H416.682L410.222 426.188V422.933L416.837 418.54H420.041ZM428.362 445.207C427.725 445.207 427.178 444.978 426.721 444.522C426.265 444.065 426.036 443.519 426.036 442.881C426.036 442.244 426.265 441.697 426.721 441.24C427.178 440.784 427.725 440.556 428.362 440.556C428.999 440.556 429.546 440.784 430.003 441.24C430.459 441.697 430.688 442.244 430.688 442.881C430.688 443.303 430.58 443.691 430.365 444.044C430.158 444.397 429.878 444.681 429.525 444.897C429.18 445.103 428.793 445.207 428.362 445.207ZM443.843 445.362C442.327 445.362 440.962 445.06 439.748 444.457C438.533 443.854 437.56 443.028 436.828 441.977C436.096 440.926 435.695 439.729 435.626 438.385H438.727C438.848 439.582 439.39 440.573 440.355 441.357C441.328 442.132 442.491 442.519 443.843 442.519C444.929 442.519 445.893 442.265 446.737 441.757C447.59 441.249 448.258 440.551 448.74 439.664C449.231 438.768 449.476 437.756 449.476 436.628C449.476 435.474 449.222 434.444 448.714 433.54C448.215 432.627 447.526 431.908 446.647 431.382C445.768 430.857 444.765 430.59 443.637 430.581C442.827 430.573 441.996 430.698 441.143 430.956C440.29 431.206 439.588 431.529 439.037 431.925L436.04 431.563L437.642 418.54H451.389V421.382H440.329L439.399 429.186H439.554C440.097 428.755 440.777 428.398 441.595 428.114C442.414 427.829 443.266 427.687 444.153 427.687C445.773 427.687 447.215 428.075 448.482 428.85C449.756 429.617 450.756 430.667 451.479 432.002C452.211 433.338 452.577 434.862 452.577 436.576C452.577 438.264 452.198 439.772 451.44 441.098C450.691 442.416 449.657 443.458 448.339 444.225C447.022 444.983 445.523 445.362 443.843 445.362ZM471.818 429.599L469.079 430.375C468.907 429.918 468.653 429.474 468.317 429.044C467.99 428.605 467.542 428.243 466.973 427.959C466.405 427.674 465.677 427.532 464.79 427.532C463.575 427.532 462.563 427.812 461.754 428.372C460.953 428.923 460.552 429.625 460.552 430.478C460.552 431.236 460.828 431.835 461.379 432.274C461.93 432.713 462.792 433.079 463.963 433.372L466.909 434.096C468.683 434.526 470.005 435.185 470.875 436.072C471.745 436.951 472.18 438.083 472.18 439.47C472.18 440.607 471.853 441.624 471.198 442.519C470.552 443.415 469.648 444.121 468.485 444.638C467.322 445.155 465.97 445.413 464.428 445.413C462.404 445.413 460.729 444.974 459.402 444.096C458.076 443.217 457.236 441.934 456.883 440.245L459.777 439.522C460.053 440.59 460.574 441.391 461.34 441.925C462.115 442.459 463.128 442.726 464.376 442.726C465.798 442.726 466.926 442.425 467.761 441.822C468.606 441.21 469.028 440.478 469.028 439.625C469.028 438.936 468.786 438.359 468.304 437.894C467.822 437.42 467.081 437.067 466.082 436.835L462.774 436.059C460.957 435.629 459.622 434.961 458.769 434.057C457.925 433.144 457.503 432.002 457.503 430.633C457.503 429.513 457.817 428.523 458.446 427.661C459.084 426.8 459.949 426.124 461.043 425.633C462.146 425.142 463.395 424.896 464.79 424.896C466.754 424.896 468.296 425.327 469.415 426.188C470.544 427.05 471.345 428.187 471.818 429.599ZM481.266 445L475.22 425.155H478.424L482.713 440.349H482.92L487.158 425.155H490.413L494.6 440.297H494.806L499.096 425.155H502.3L496.253 445H493.256L488.915 429.754H488.605L484.264 445H481.266ZM411.204 489V462.54H414.253V472.307H414.512C414.736 471.963 415.046 471.524 415.442 470.99C415.847 470.447 416.424 469.965 417.173 469.542C417.931 469.112 418.956 468.896 420.248 468.896C421.919 468.896 423.392 469.314 424.667 470.15C425.942 470.985 426.936 472.17 427.651 473.703C428.366 475.236 428.724 477.045 428.724 479.129C428.724 481.231 428.366 483.052 427.651 484.594C426.936 486.127 425.946 487.316 424.68 488.16C423.414 488.996 421.954 489.413 420.3 489.413C419.025 489.413 418.004 489.202 417.238 488.78C416.471 488.35 415.881 487.863 415.468 487.32C415.054 486.769 414.736 486.313 414.512 485.951H414.15V489H411.204ZM414.202 479.077C414.202 480.576 414.421 481.898 414.861 483.044C415.3 484.181 415.941 485.072 416.786 485.718C417.63 486.356 418.663 486.674 419.886 486.674C421.161 486.674 422.225 486.338 423.078 485.667C423.939 484.986 424.585 484.073 425.016 482.928C425.455 481.773 425.675 480.49 425.675 479.077C425.675 477.682 425.459 476.425 425.029 475.305C424.607 474.176 423.965 473.285 423.103 472.63C422.251 471.967 421.178 471.636 419.886 471.636C418.646 471.636 417.604 471.95 416.76 472.579C415.916 473.199 415.278 474.069 414.848 475.189C414.417 476.3 414.202 477.596 414.202 479.077ZM445.894 480.886V469.155H448.943V489H445.894V485.641H445.688C445.223 486.649 444.499 487.506 443.517 488.212C442.535 488.91 441.295 489.258 439.796 489.258C438.556 489.258 437.453 488.987 436.489 488.444C435.524 487.893 434.766 487.066 434.215 485.964C433.663 484.853 433.388 483.453 433.388 481.765V469.155H436.437V481.558C436.437 483.005 436.842 484.159 437.651 485.021C438.47 485.882 439.512 486.313 440.778 486.313C441.536 486.313 442.307 486.119 443.091 485.731C443.883 485.344 444.546 484.749 445.08 483.948C445.623 483.147 445.894 482.127 445.894 480.886ZM463.159 469.155V471.739H452.874V469.155H463.159ZM455.872 464.4H458.921V483.315C458.921 484.177 459.046 484.823 459.296 485.253C459.554 485.675 459.881 485.959 460.278 486.106C460.682 486.244 461.109 486.313 461.557 486.313C461.893 486.313 462.168 486.295 462.384 486.261C462.599 486.218 462.771 486.183 462.9 486.158L463.52 488.897C463.314 488.974 463.025 489.052 462.655 489.129C462.284 489.215 461.815 489.258 461.247 489.258C460.385 489.258 459.541 489.073 458.714 488.703C457.896 488.332 457.216 487.768 456.673 487.01C456.139 486.252 455.872 485.296 455.872 484.142V464.4ZM477.978 489V469.155H480.924V472.152H481.13C481.492 471.17 482.147 470.374 483.094 469.762C484.042 469.151 485.11 468.845 486.298 468.845C486.522 468.845 486.802 468.849 487.138 468.858C487.474 468.866 487.728 468.879 487.901 468.896V471.997C487.797 471.971 487.56 471.933 487.19 471.881C486.828 471.821 486.445 471.791 486.04 471.791C485.075 471.791 484.214 471.993 483.456 472.398C482.707 472.794 482.112 473.345 481.673 474.052C481.242 474.749 481.027 475.546 481.027 476.442V489H477.978ZM498.973 489.413C497.181 489.413 495.609 488.987 494.257 488.134C492.914 487.282 491.863 486.089 491.105 484.556C490.355 483.022 489.981 481.231 489.981 479.181C489.981 477.114 490.355 475.309 491.105 473.767C491.863 472.226 492.914 471.028 494.257 470.176C495.609 469.323 497.181 468.896 498.973 468.896C500.765 468.896 502.332 469.323 503.676 470.176C505.028 471.028 506.079 472.226 506.828 473.767C507.586 475.309 507.965 477.114 507.965 479.181C507.965 481.231 507.586 483.022 506.828 484.556C506.079 486.089 505.028 487.282 503.676 488.134C502.332 488.987 500.765 489.413 498.973 489.413ZM498.973 486.674C500.334 486.674 501.454 486.326 502.332 485.628C503.211 484.93 503.861 484.013 504.283 482.876C504.705 481.739 504.916 480.507 504.916 479.181C504.916 477.854 504.705 476.618 504.283 475.473C503.861 474.327 503.211 473.401 502.332 472.695C501.454 471.989 500.334 471.636 498.973 471.636C497.612 471.636 496.492 471.989 495.614 472.695C494.735 473.401 494.085 474.327 493.663 475.473C493.241 476.618 493.03 477.854 493.03 479.181C493.03 480.507 493.241 481.739 493.663 482.876C494.085 484.013 494.735 484.93 495.614 485.628C496.492 486.326 497.612 486.674 498.973 486.674ZM525.126 480.886V469.155H528.175V489H525.126V485.641H524.92C524.454 486.649 523.731 487.506 522.749 488.212C521.767 488.91 520.527 489.258 519.028 489.258C517.788 489.258 516.685 488.987 515.721 488.444C514.756 487.893 513.998 487.066 513.447 485.964C512.895 484.853 512.62 483.453 512.62 481.765V469.155H515.669V481.558C515.669 483.005 516.074 484.159 516.883 485.021C517.702 485.882 518.744 486.313 520.01 486.313C520.768 486.313 521.539 486.119 522.323 485.731C523.115 485.344 523.778 484.749 524.312 483.948C524.855 483.147 525.126 482.127 525.126 480.886ZM536.809 477.062V489H533.76V469.155H536.706V472.256H536.964C537.429 471.248 538.136 470.438 539.083 469.827C540.031 469.207 541.254 468.896 542.752 468.896C544.096 468.896 545.272 469.172 546.28 469.723C547.287 470.266 548.071 471.093 548.631 472.204C549.191 473.306 549.471 474.702 549.471 476.39V489H546.422V476.597C546.422 475.038 546.017 473.823 545.207 472.953C544.398 472.075 543.286 471.636 541.874 471.636C540.901 471.636 540.031 471.847 539.264 472.269C538.506 472.691 537.907 473.306 537.468 474.116C537.029 474.926 536.809 475.908 536.809 477.062ZM562.536 489.413C560.882 489.413 559.422 488.996 558.156 488.16C556.89 487.316 555.9 486.127 555.185 484.594C554.47 483.052 554.112 481.231 554.112 479.129C554.112 477.045 554.47 475.236 555.185 473.703C555.9 472.17 556.894 470.985 558.169 470.15C559.444 469.314 560.917 468.896 562.588 468.896C563.88 468.896 564.901 469.112 565.65 469.542C566.408 469.965 566.985 470.447 567.381 470.99C567.786 471.524 568.1 471.963 568.324 472.307H568.583V462.54H571.632V489H568.686V485.951H568.324C568.1 486.313 567.782 486.769 567.368 487.32C566.955 487.863 566.365 488.35 565.598 488.78C564.832 489.202 563.811 489.413 562.536 489.413ZM562.95 486.674C564.173 486.674 565.206 486.356 566.05 485.718C566.895 485.072 567.536 484.181 567.976 483.044C568.415 481.898 568.634 480.576 568.634 479.077C568.634 477.596 568.419 476.3 567.988 475.189C567.558 474.069 566.92 473.199 566.076 472.579C565.232 471.95 564.19 471.636 562.95 471.636C561.658 471.636 560.581 471.967 559.72 472.63C558.867 473.285 558.225 474.176 557.795 475.305C557.372 476.425 557.161 477.682 557.161 479.077C557.161 480.49 557.377 481.773 557.807 482.928C558.247 484.073 558.893 484.986 559.745 485.667C560.607 486.338 561.675 486.674 562.95 486.674ZM585.96 489.413C584.048 489.413 582.399 488.991 581.012 488.147C579.634 487.295 578.57 486.106 577.821 484.581C577.08 483.048 576.709 481.265 576.709 479.232C576.709 477.2 577.08 475.408 577.821 473.858C578.57 472.299 579.612 471.084 580.947 470.214C582.291 469.336 583.859 468.896 585.65 468.896C586.684 468.896 587.704 469.069 588.712 469.413C589.72 469.758 590.637 470.318 591.464 471.093C592.291 471.859 592.95 472.876 593.441 474.142C593.932 475.408 594.177 476.967 594.177 478.819V480.111H578.88V477.475H591.076C591.076 476.356 590.853 475.356 590.405 474.478C589.965 473.599 589.337 472.906 588.518 472.398C587.709 471.89 586.753 471.636 585.65 471.636C584.436 471.636 583.385 471.937 582.498 472.54C581.619 473.134 580.943 473.909 580.469 474.866C579.995 475.822 579.759 476.847 579.759 477.94V479.698C579.759 481.196 580.017 482.467 580.534 483.509C581.059 484.543 581.787 485.331 582.717 485.873C583.647 486.407 584.728 486.674 585.96 486.674C586.761 486.674 587.485 486.562 588.131 486.338C588.785 486.106 589.35 485.761 589.823 485.305C590.297 484.84 590.663 484.263 590.921 483.574L593.867 484.4C593.557 485.4 593.036 486.278 592.304 487.036C591.572 487.786 590.667 488.371 589.591 488.793C588.514 489.207 587.304 489.413 585.96 489.413ZM606.309 489.413C604.655 489.413 603.195 488.996 601.929 488.16C600.663 487.316 599.673 486.127 598.958 484.594C598.243 483.052 597.885 481.231 597.885 479.129C597.885 477.045 598.243 475.236 598.958 473.703C599.673 472.17 600.667 470.985 601.942 470.15C603.217 469.314 604.69 468.896 606.361 468.896C607.653 468.896 608.674 469.112 609.423 469.542C610.181 469.965 610.758 470.447 611.154 470.99C611.559 471.524 611.873 471.963 612.097 472.307H612.356V462.54H615.405V489H612.459V485.951H612.097C611.873 486.313 611.555 486.769 611.141 487.32C610.728 487.863 610.138 488.35 609.371 488.78C608.605 489.202 607.584 489.413 606.309 489.413ZM606.723 486.674C607.946 486.674 608.979 486.356 609.823 485.718C610.668 485.072 611.309 484.181 611.748 483.044C612.188 481.898 612.407 480.576 612.407 479.077C612.407 477.596 612.192 476.3 611.761 475.189C611.331 474.069 610.693 473.199 609.849 472.579C609.005 471.95 607.963 471.636 606.723 471.636C605.431 471.636 604.354 471.967 603.493 472.63C602.64 473.285 601.998 474.176 601.568 475.305C601.145 476.425 600.934 477.682 600.934 479.077C600.934 480.49 601.15 481.773 601.58 482.928C602.02 484.073 602.666 484.986 603.518 485.667C604.38 486.338 605.448 486.674 606.723 486.674Z" fill="#FF0000"/>
<path d="M952.75 430.476L934 398" stroke="#04E3E3" stroke-width="3.03189"/>
<path d="M953.064 425C949.715 425 947 427.715 947 431.064C947 434.413 949.715 437.128 953.064 437.128C956.413 437.128 959.128 434.413 959.128 431.064C959.128 427.715 956.413 425 953.064 425Z" fill="#04E3E3"/>
<path d="M934 398V416.191L949.754 407.096L934 398Z" fill="#04E3E3"/>
<path d="M968.204 449V422.54H977.145C979.212 422.54 980.909 422.893 982.235 423.599C983.562 424.297 984.544 425.257 985.181 426.48C985.818 427.704 986.137 429.095 986.137 430.654C986.137 432.213 985.818 433.595 985.181 434.801C984.544 436.007 983.566 436.954 982.248 437.643C980.93 438.324 979.246 438.664 977.196 438.664H969.961V435.77H977.093C978.506 435.77 979.643 435.563 980.504 435.15C981.374 434.736 982.003 434.151 982.39 433.393C982.787 432.626 982.985 431.713 982.985 430.654C982.985 429.594 982.787 428.668 982.39 427.876C981.994 427.083 981.361 426.472 980.491 426.041C979.621 425.602 978.471 425.382 977.041 425.382H971.408V449H968.204ZM980.659 437.114L987.171 449H983.45L977.041 437.114H980.659ZM999.952 449.362C998.246 449.362 996.726 449.069 995.391 448.483C994.065 447.897 993.009 447.084 992.226 446.041C991.45 444.99 991.028 443.772 990.959 442.385H994.215C994.284 443.238 994.577 443.974 995.094 444.594C995.611 445.206 996.287 445.68 997.122 446.015C997.958 446.351 998.884 446.519 999.9 446.519C1001.04 446.519 1002.04 446.321 1002.92 445.925C1003.8 445.529 1004.49 444.978 1004.99 444.271C1005.49 443.565 1005.74 442.747 1005.74 441.816C1005.74 440.843 1005.5 439.986 1005.02 439.245C1004.53 438.496 1003.83 437.91 1002.9 437.488C1001.97 437.066 1000.83 436.855 999.487 436.855H997.368V434.013H999.487C1000.54 434.013 1001.46 433.823 1002.25 433.444C1003.05 433.065 1003.68 432.531 1004.12 431.842C1004.58 431.153 1004.81 430.344 1004.81 429.413C1004.81 428.517 1004.61 427.738 1004.22 427.075C1003.82 426.412 1003.26 425.895 1002.54 425.524C1001.82 425.154 1000.98 424.969 1000 424.969C999.09 424.969 998.229 425.137 997.419 425.473C996.618 425.8 995.964 426.278 995.456 426.907C994.947 427.527 994.672 428.276 994.629 429.155H991.528C991.58 427.768 991.997 426.554 992.781 425.511C993.565 424.461 994.59 423.642 995.856 423.057C997.131 422.471 998.531 422.178 1000.06 422.178C1001.69 422.178 1003.1 422.51 1004.27 423.173C1005.44 423.828 1006.34 424.693 1006.97 425.77C1007.6 426.846 1007.91 428.009 1007.91 429.258C1007.91 430.748 1007.52 432.019 1006.73 433.07C1005.96 434.12 1004.9 434.848 1003.57 435.253V435.46C1005.24 435.735 1006.55 436.446 1007.48 437.592C1008.42 438.729 1008.89 440.137 1008.89 441.816C1008.89 443.255 1008.5 444.547 1007.72 445.692C1006.94 446.829 1005.88 447.725 1004.54 448.38C1003.19 449.034 1001.67 449.362 999.952 449.362ZM1028.29 433.599L1025.55 434.375C1025.37 433.918 1025.12 433.474 1024.78 433.044C1024.46 432.605 1024.01 432.243 1023.44 431.959C1022.87 431.674 1022.14 431.532 1021.26 431.532C1020.04 431.532 1019.03 431.812 1018.22 432.372C1017.42 432.923 1017.02 433.625 1017.02 434.478C1017.02 435.236 1017.29 435.835 1017.85 436.274C1018.4 436.713 1019.26 437.079 1020.43 437.372L1023.38 438.096C1025.15 438.526 1026.47 439.185 1027.34 440.072C1028.21 440.951 1028.65 442.083 1028.65 443.47C1028.65 444.607 1028.32 445.624 1027.67 446.519C1027.02 447.415 1026.11 448.121 1024.95 448.638C1023.79 449.155 1022.44 449.413 1020.9 449.413C1018.87 449.413 1017.2 448.974 1015.87 448.096C1014.54 447.217 1013.7 445.934 1013.35 444.245L1016.24 443.522C1016.52 444.59 1017.04 445.391 1017.81 445.925C1018.58 446.459 1019.59 446.726 1020.84 446.726C1022.26 446.726 1023.39 446.425 1024.23 445.822C1025.07 445.21 1025.49 444.478 1025.49 443.625C1025.49 442.936 1025.25 442.359 1024.77 441.894C1024.29 441.42 1023.55 441.067 1022.55 440.835L1019.24 440.059C1017.42 439.629 1016.09 438.961 1015.24 438.057C1014.39 437.144 1013.97 436.002 1013.97 434.633C1013.97 433.513 1014.28 432.523 1014.91 431.661C1015.55 430.8 1016.42 430.124 1017.51 429.633C1018.61 429.142 1019.86 428.896 1021.26 428.896C1023.22 428.896 1024.76 429.327 1025.88 430.188C1027.01 431.05 1027.81 432.187 1028.29 433.599ZM1037.73 449L1031.69 429.155H1034.89L1039.18 444.349H1039.39L1043.62 429.155H1046.88L1051.07 444.297H1051.27L1055.56 429.155H1058.77L1052.72 449H1049.72L1045.38 433.754H1045.07L1040.73 449H1037.73Z" fill="#04E3E3"/>
<path d="M894.5 354.5L913.25 386.976" stroke="#04E3E3" stroke-width="3.03189"/>
<path d="M894.5 360.564C897.849 360.564 900.564 357.849 900.564 354.5C900.564 351.151 897.849 348.436 894.5 348.436C891.151 348.436 888.436 351.151 888.436 354.5C888.436 357.849 891.151 360.564 894.5 360.564Z" fill="#04E3E3"/>
<path d="M913.25 386.976V368.785L897.496 377.88L913.25 386.976Z" fill="#04E3E3"/>
<path d="M791.204 331V304.54H800.145C802.212 304.54 803.909 304.893 805.235 305.599C806.562 306.297 807.544 307.257 808.181 308.48C808.818 309.704 809.137 311.095 809.137 312.654C809.137 314.213 808.818 315.595 808.181 316.801C807.544 318.007 806.566 318.954 805.248 319.643C803.93 320.324 802.246 320.664 800.196 320.664H792.961V317.77H800.093C801.506 317.77 802.643 317.563 803.504 317.15C804.374 316.736 805.003 316.151 805.39 315.393C805.787 314.626 805.985 313.713 805.985 312.654C805.985 311.594 805.787 310.668 805.39 309.876C804.994 309.083 804.361 308.472 803.491 308.041C802.621 307.602 801.471 307.382 800.041 307.382H794.408V331H791.204ZM803.659 319.114L810.171 331H806.45L800.041 319.114H803.659ZM823.314 304.54V331H820.109V307.899H819.954L813.494 312.188V308.933L820.109 304.54H823.314ZM831.634 331.207C830.997 331.207 830.45 330.978 829.993 330.522C829.537 330.065 829.308 329.519 829.308 328.881C829.308 328.244 829.537 327.697 829.993 327.24C830.45 326.784 830.997 326.556 831.634 326.556C832.271 326.556 832.818 326.784 833.275 327.24C833.731 327.697 833.96 328.244 833.96 328.881C833.96 329.303 833.852 329.691 833.637 330.044C833.43 330.397 833.15 330.681 832.797 330.897C832.452 331.103 832.065 331.207 831.634 331.207ZM847.115 331.362C845.6 331.362 844.234 331.06 843.02 330.457C841.805 329.854 840.832 329.028 840.1 327.977C839.368 326.926 838.967 325.729 838.898 324.385H841.999C842.12 325.582 842.662 326.573 843.627 327.357C844.6 328.132 845.763 328.519 847.115 328.519C848.201 328.519 849.165 328.265 850.01 327.757C850.862 327.249 851.53 326.551 852.012 325.664C852.503 324.768 852.749 323.756 852.749 322.628C852.749 321.474 852.494 320.444 851.986 319.54C851.487 318.627 850.798 317.908 849.919 317.382C849.041 316.857 848.037 316.59 846.909 316.581C846.099 316.573 845.268 316.698 844.415 316.956C843.562 317.206 842.86 317.529 842.309 317.925L839.312 317.563L840.914 304.54H854.661V307.382H843.601L842.671 315.186H842.826C843.369 314.755 844.049 314.398 844.867 314.114C845.686 313.829 846.538 313.687 847.426 313.687C849.045 313.687 850.488 314.075 851.754 314.85C853.029 315.617 854.028 316.667 854.751 318.002C855.483 319.338 855.849 320.862 855.849 322.576C855.849 324.264 855.47 325.772 854.712 327.098C853.963 328.416 852.929 329.458 851.612 330.225C850.294 330.983 848.795 331.362 847.115 331.362ZM875.091 315.599L872.351 316.375C872.179 315.918 871.925 315.474 871.589 315.044C871.262 314.605 870.814 314.243 870.245 313.959C869.677 313.674 868.949 313.532 868.062 313.532C866.848 313.532 865.835 313.812 865.026 314.372C864.225 314.923 863.824 315.625 863.824 316.478C863.824 317.236 864.1 317.835 864.651 318.274C865.202 318.713 866.064 319.079 867.235 319.372L870.181 320.096C871.955 320.526 873.277 321.185 874.147 322.072C875.017 322.951 875.452 324.083 875.452 325.47C875.452 326.607 875.125 327.624 874.47 328.519C873.824 329.415 872.92 330.121 871.757 330.638C870.594 331.155 869.242 331.413 867.7 331.413C865.676 331.413 864.001 330.974 862.674 330.096C861.348 329.217 860.508 327.934 860.155 326.245L863.049 325.522C863.325 326.59 863.846 327.391 864.612 327.925C865.388 328.459 866.4 328.726 867.649 328.726C869.07 328.726 870.198 328.425 871.034 327.822C871.878 327.21 872.3 326.478 872.3 325.625C872.3 324.936 872.059 324.359 871.576 323.894C871.094 323.42 870.353 323.067 869.354 322.835L866.046 322.059C864.229 321.629 862.894 320.961 862.041 320.057C861.197 319.144 860.775 318.002 860.775 316.633C860.775 315.513 861.09 314.523 861.718 313.661C862.356 312.8 863.221 312.124 864.315 311.633C865.418 311.142 866.667 310.896 868.062 310.896C870.026 310.896 871.568 311.327 872.687 312.188C873.816 313.05 874.617 314.187 875.091 315.599ZM884.538 331L878.492 311.155H881.696L885.985 326.349H886.192L890.43 311.155H893.686L897.872 326.297H898.078L902.368 311.155H905.572L899.525 331H896.528L892.187 315.754H891.877L887.536 331H884.538Z" fill="#04E3E3"/>
</svg>
