<?xml version="1.0" encoding="UTF-8" ?><!-- DOCTYPE svg PUBLIC "-//W3C//DTD SVG 1.1//EN" "http://www.w3.org/Graphics/SVG/1.1/DTD/svg11.dtd" -->
<svg viewBox="0,0,1024,307" preserveAspectRatio="xMidYMid" zoomAndPan="magnify" xmlns="http://www.w3.org/2000/svg" xmlns:xlink="http://www.w3.org/1999/xlink">
<line x1="0" y1="192" x2="0" y2="115.2" stroke="black" stroke-width="10" />
<line x1="3.05175e-08" y1="115.2" x2="638.486" y2="139.143" stroke="black" stroke-width="10" />
<path d="M638.48,139.14 A76.80,76.80 0.00 0,0 716.80,76.80" fill="none" stroke="black" stroke-width="10" />
<line x1="716.8" y1="76.8" x2="576" y2="76.8" stroke="black" stroke-width="10" />
<line x1="576" y1="76.8" x2="768" y2="0" stroke="black" stroke-width="10" />
<line x1="768" y1="0" x2="1024" y2="76.8" stroke="black" stroke-width="10" />
<line x1="1024" y1="76.8" x2="819.2" y2="76.8" stroke="black" stroke-width="10" />
<path d="M819.20,76.80 A102.40,102.40 0.00 0,1 764.76,153.60" fill="none" stroke="black" stroke-width="10" />
<path d="M764.76,153.60 A102.40,102.40 0.00 0,1 819.20,230.40" fill="none" stroke="black" stroke-width="10" />
<line x1="819.2" y1="230.4" x2="1024" y2="230.4" stroke="black" stroke-width="10" />
<line x1="1024" y1="230.4" x2="768" y2="307.2" stroke="black" stroke-width="10" />
<line x1="768" y1="307.2" x2="576" y2="230.4" stroke="black" stroke-width="10" />
<line x1="576" y1="230.4" x2="716.8" y2="230.4" stroke="black" stroke-width="10" />
<path d="M716.80,230.40 A76.80,76.80 0.00 0,0 638.49,168.06" fill="none" stroke="black" stroke-width="10" />
<line x1="638.486" y1="168.057" x2="0" y2="192" stroke="black" stroke-width="10" />
</svg>