<?xml version="1.0" encoding="UTF-8" ?><!-- DOCTYPE svg PUBLIC "-//W3C//DTD SVG 1.1//EN" "http://www.w3.org/Graphics/SVG/1.1/DTD/svg11.dtd" -->
<svg viewBox="0,0,1024,145" preserveAspectRatio="xMidYMid" zoomAndPan="magnify" xmlns="http://www.w3.org/2000/svg" xmlns:xlink="http://www.w3.org/1999/xlink">
<line x1="436.053" y1="111.611" x2="436.053" y2="112.64" stroke="black" stroke-width="10" />
<line x1="0" y1="68.2667" x2="0" y2="17.0667" stroke="black" stroke-width="10" />
<line x1="0" y1="17.0667" x2="614.4" y2="32.4267" stroke="black" stroke-width="10" />
<line x1="614.4" y1="32.4267" x2="614.4" y2="0" stroke="black" stroke-width="10" />
<line x1="614.4" y1="0" x2="1024" y2="42.6667" stroke="black" stroke-width="10" />
<line x1="1024" y1="42.6667" x2="614.4" y2="85.3333" stroke="black" stroke-width="10" />
<line x1="614.4" y1="85.3333" x2="614.4" y2="52.9067" stroke="black" stroke-width="10" />
<line x1="614.4" y1="52.9067" x2="493.92" y2="55.9187" stroke="black" stroke-width="10" />
<path d="M493.92,55.92 A66.56,66.56 0.00 0,1 525.65,112.64" fill="none" stroke="black" stroke-width="10" />
<line x1="525.653" y1="112.64" x2="624.64" y2="112.64" stroke="black" stroke-width="10" />
<line x1="624.64" y1="112.64" x2="477.867" y2="145.067" stroke="black" stroke-width="10" />
<line x1="477.867" y1="145.067" x2="368.64" y2="112.64" stroke="black" stroke-width="10" />
<line x1="368.64" y1="112.64" x2="436.053" y2="112.64" stroke="black" stroke-width="10" />
<path d="M436.05,111.61 A52.91,52.91 0.00 0,0 381.82,58.72" fill="none" stroke="black" stroke-width="10" />
<line x1="381.824" y1="58.7211" x2="0" y2="68.2667" stroke="black" stroke-width="10" />
</svg>