<?xml version="1.0" encoding="UTF-8" ?><!-- DOCTYPE svg PUBLIC "-//W3C//DTD SVG 1.1//EN" "http://www.w3.org/Graphics/SVG/1.1/DTD/svg11.dtd" -->
<svg viewBox="0,0,1024,218" preserveAspectRatio="xMidYMid" zoomAndPan="magnify" xmlns="http://www.w3.org/2000/svg" xmlns:xlink="http://www.w3.org/1999/xlink">
<line x1="448" y1="62.8972" x2="448" y2="48.64" stroke="black" stroke-width="10" />
<line x1="0" y1="115.2" x2="0" y2="192" stroke="black" stroke-width="10" />
<line x1="0" y1="192" x2="614.4" y2="168.96" stroke="black" stroke-width="10" />
<line x1="614.4" y1="168.96" x2="614.4" y2="217.6" stroke="black" stroke-width="10" />
<line x1="614.4" y1="217.6" x2="1024" y2="153.6" stroke="black" stroke-width="10" />
<line x1="1024" y1="153.6" x2="614.4" y2="89.6" stroke="black" stroke-width="10" />
<line x1="614.4" y1="89.6" x2="614.4" y2="138.24" stroke="black" stroke-width="10" />
<line x1="614.4" y1="138.24" x2="492.273" y2="133.66" stroke="black" stroke-width="10" />
<path d="M492.27,133.66 A102.40,102.40 0.00 0,0 537.60,48.64" fill="none" stroke="black" stroke-width="10" />
<line x1="537.6" y1="48.64" x2="614.4" y2="48.64" stroke="black" stroke-width="10" />
<line x1="614.4" y1="48.64" x2="476.16" y2="6.10351e-08" stroke="black" stroke-width="10" />
<line x1="476.16" y1="0" x2="367.36" y2="48.64" stroke="black" stroke-width="10" />
<line x1="367.36" y1="48.64" x2="448" y2="48.64" stroke="black" stroke-width="10" />
<path d="M448.00,62.90 A66.56,66.56 92.15 0,1 378.95,129.41" fill="none" stroke="black" stroke-width="10" />
<line x1="378.946" y1="129.41" x2="0" y2="115.2" stroke="black" stroke-width="10" />
</svg>