<?xml version="1.0" encoding="UTF-8" ?><!-- DOCTYPE svg PUBLIC "-//W3C//DTD SVG 1.1//EN" "http://www.w3.org/Graphics/SVG/1.1/DTD/svg11.dtd" -->
<svg viewBox="0,0,1024,205" preserveAspectRatio="xMidYMid" zoomAndPan="magnify" xmlns="http://www.w3.org/2000/svg" xmlns:xlink="http://www.w3.org/1999/xlink">
<line x1="436.053" y1="171.345" x2="436.053" y2="172.373" stroke="black" stroke-width="10" />
<line x1="0" y1="128" x2="0" y2="76.8" stroke="black" stroke-width="10" />
<line x1="0" y1="76.8" x2="381.826" y2="86.3457" stroke="black" stroke-width="10" />
<path d="M381.82,86.35 A52.91,52.91 0.00 0,0 436.05,33.46" fill="none" stroke="black" stroke-width="10" />
<line x1="436.053" y1="32.4267" x2="368.64" y2="32.4267" stroke="black" stroke-width="10" />
<line x1="368.64" y1="32.4267" x2="477.867" y2="0" stroke="black" stroke-width="10" />
<line x1="477.867" y1="4.06901e-08" x2="624.64" y2="32.4267" stroke="black" stroke-width="10" />
<line x1="624.64" y1="32.4267" x2="525.653" y2="32.4267" stroke="black" stroke-width="10" />
<path d="M525.65,32.43 A66.56,66.56 0.00 0,1 493.92,89.15" fill="none" stroke="black" stroke-width="10" />
<line x1="493.92" y1="89.148" x2="614.4" y2="92.16" stroke="black" stroke-width="10" />
<line x1="614.4" y1="92.16" x2="614.4" y2="59.7333" stroke="black" stroke-width="10" />
<line x1="614.4" y1="59.7333" x2="1024" y2="102.4" stroke="black" stroke-width="10" />
<line x1="1024" y1="102.4" x2="614.4" y2="145.067" stroke="black" stroke-width="10" />
<line x1="614.4" y1="145.067" x2="614.4" y2="112.64" stroke="black" stroke-width="10" />
<line x1="614.4" y1="112.64" x2="493.92" y2="115.652" stroke="black" stroke-width="10" />
<path d="M493.92,115.65 A66.56,66.56 0.00 0,1 525.65,172.37" fill="none" stroke="black" stroke-width="10" />
<line x1="525.653" y1="172.373" x2="624.64" y2="172.373" stroke="black" stroke-width="10" />
<line x1="624.64" y1="172.373" x2="477.867" y2="204.8" stroke="black" stroke-width="10" />
<line x1="477.867" y1="204.8" x2="368.64" y2="172.373" stroke="black" stroke-width="10" />
<line x1="368.64" y1="172.373" x2="436.053" y2="172.373" stroke="black" stroke-width="10" />
<path d="M436.05,171.34 A52.91,52.91 0.00 0,0 381.82,118.45" fill="none" stroke="black" stroke-width="10" />
<line x1="381.824" y1="118.454" x2="0" y2="128" stroke="black" stroke-width="10" />
</svg>