<?xml version="1.0" encoding="UTF-8" ?><!-- DOCTYPE svg PUBLIC "-//W3C//DTD SVG 1.1//EN" "http://www.w3.org/Graphics/SVG/1.1/DTD/svg11.dtd" -->
<svg viewBox="0,0,1024,4096" preserveAspectRatio="xMidYMid" zoomAndPan="magnify" xmlns="http://www.w3.org/2000/svg" xmlns:xlink="http://www.w3.org/1999/xlink">
<g>
<g>
<ellipse transform="translate(512.00 2048.00) rotate(0.00)" rx="512" ry="2048" fill="none" stroke="black" stroke-width="10" />
<ellipse transform="translate(512.00 2048.00) rotate(0.00)" rx="409.6" ry="1536" fill="none" stroke="black" stroke-width="10" />
</g>
<g>
<ellipse transform="translate(654.34 2048.00) rotate(0.00)" rx="125.44" ry="1024" fill="none" stroke="black" stroke-width="10" />
<ellipse transform="translate(654.34 2048.00) rotate(0.00)" rx="56.32" ry="768" fill="none" stroke="black" stroke-width="10" />
</g>
<line x1="242.995" y1="2045.1" x2="299.337" y2="2192.12" stroke="black" stroke-width="10" />
<path d="M299.34,2192.12 A54.06,469.90 0.00 1,1 297.36,2438.45" fill="none" stroke="black" stroke-width="10" />
<line x1="297.356" y1="2438.45" x2="243.682" y2="2556.15" stroke="black" stroke-width="10" />
<path d="M243.68,2556.15 A118.05,714.20 0.00 1,0 319.80,1680.17" fill="none" stroke="black" stroke-width="10" />
<line x1="319.798" y1="1680.17" x2="325.568" y2="1355.12" stroke="black" stroke-width="10" />
<line x1="325.568" y1="1355.12" x2="440.426" y2="1355.12" stroke="black" stroke-width="10" />
<line x1="440.426" y1="1355.12" x2="440.32" y2="1024" stroke="black" stroke-width="10" />
<line x1="440.32" y1="1024" x2="261.12" y2="1024" stroke="black" stroke-width="10" />
<line x1="261.12" y1="1024" x2="242.995" y2="2045.1" stroke="black" stroke-width="10" />
</g>
</svg>