<?xml version="1.0" encoding="UTF-8" ?><!-- DOCTYPE svg PUBLIC "-//W3C//DTD SVG 1.1//EN" "http://www.w3.org/Graphics/SVG/1.1/DTD/svg11.dtd" -->
<svg viewBox="0,0,1024,4724" preserveAspectRatio="xMidYMid" zoomAndPan="magnify" xmlns="http://www.w3.org/2000/svg" xmlns:xlink="http://www.w3.org/1999/xlink">
<g>
<polyline points="419.35,3967.39,453.73,4139.13" fill="none" stroke="black" stroke-width="10" />
<polyline points="631.20,3746.67,648.69,3786.53,622.49,3867.12,596.78,3937.28,566.35,3988.46,527.40,4028.25,492.75,4048.12,462.84,4068.95" fill="none" stroke="black" stroke-width="10" />
<polyline points="600.89,4048.27,626.43,4099.53,634.94,4119.47,634.90,4149.82" fill="none" stroke="black" stroke-width="10" />
<polyline points="544.49,4018.79,566.27,4048.23,561.96,4078.57,561.86,4149.72,565.94,4280.63,582.85,4401.12,604.49,4522.57,634.27,4592.81,673.07,4664.01,724.72,4694.44,712.00,4633.71,707.82,4572.99,716.44,4512.30" fill="none" stroke="black" stroke-width="10" />
<polyline points="643.77,4250.38,660.78,4291.20,630.28,4401.19,600.24,4512.13,565.51,4583.23,530.84,4623.02,479.07,4673.22,435.89,4683.60" fill="none" stroke="black" stroke-width="10" />
<polyline points="143.20,0.00,261.77,0.17" fill="none" stroke="black" stroke-width="10" />
<polyline points="851.28,30.40,874.00,60.79" fill="none" stroke="black" stroke-width="10" />
<polyline points="966.19,1284.60,847.62,1284.43" fill="none" stroke="black" stroke-width="10" />
<line x1="143.201" y1="4.52324e-08" x2="142.133" y2="758.87" stroke="black" stroke-width="10" />
<line x1="142.133" y1="758.87" x2="272.089" y2="759.053" stroke="black" stroke-width="10" />
<line x1="261.774" y1="0.166819" x2="297.736" y2="59.9785" stroke="black" stroke-width="10" />
<line x1="297.736" y1="59.9785" x2="308.985" y2="155.802" stroke="black" stroke-width="10" />
<line x1="308.985" y1="155.802" x2="308.943" y2="185.208" stroke="black" stroke-width="10" />
<line x1="308.943" y1="185.208" x2="297.425" y2="280.999" stroke="black" stroke-width="10" />
<line x1="297.425" y1="280.999" x2="272.67" y2="346.417" stroke="black" stroke-width="10" />
<line x1="272.67" y1="346.417" x2="308.624" y2="411.92" stroke="black" stroke-width="10" />
<line x1="308.624" y1="411.92" x2="321.77" y2="507.746" stroke="black" stroke-width="10" />
<line x1="321.77" y1="507.746" x2="321.635" y2="603.554" stroke="black" stroke-width="10" />
<line x1="321.635" y1="603.554" x2="308.22" y2="699.342" stroke="black" stroke-width="10" />
<line x1="308.22" y1="699.342" x2="272.089" y2="759.053" stroke="black" stroke-width="10" />
<line x1="601.468" y1="603.947" x2="590.409" y2="711.122" stroke="black" stroke-width="10" />
<line x1="590.409" y1="711.122" x2="565.677" y2="759.466" stroke="black" stroke-width="10" />
<line x1="565.677" y1="759.466" x2="471.293" y2="759.333" stroke="black" stroke-width="10" />
<line x1="471.293" y1="759.333" x2="435.805" y2="699.522" stroke="black" stroke-width="10" />
<line x1="435.805" y1="699.522" x2="424.557" y2="603.699" stroke="black" stroke-width="10" />
<line x1="425.405" y1="0.397029" x2="424.557" y2="603.699" stroke="black" stroke-width="10" />
<line x1="601.468" y1="603.947" x2="602.317" y2="0.645922" stroke="black" stroke-width="10" />
<line x1="707.152" y1="663.857" x2="743.106" y2="729.36" stroke="black" stroke-width="10" />
<line x1="564.884" y1="1660.62" x2="565.951" y2="901.754" stroke="black" stroke-width="10" />
<line x1="565.951" y1="901.754" x2="744.167" y2="1660.88" stroke="black" stroke-width="10" />
<line x1="744.167" y1="1660.88" x2="745.234" y2="902.007" stroke="black" stroke-width="10" />
<line x1="282.205" y1="1660.23" x2="377.183" y2="901.489" stroke="black" stroke-width="10" />
<line x1="377.183" y1="901.489" x2="472.871" y2="1660.49" stroke="black" stroke-width="10" />
<line x1="1.06764" y1="900.96" x2="0" y2="1659.83" stroke="black" stroke-width="10" />
<line x1="0" y1="1659.83" x2="166.003" y2="1660.06" stroke="black" stroke-width="10" />
<line x1="1014.16" y1="902.385" x2="848.156" y2="902.152" stroke="black" stroke-width="10" />
<line x1="848.156" y1="902.152" x2="847.088" y2="1661.02" stroke="black" stroke-width="10" />
<line x1="847.088" y1="1661.02" x2="1024" y2="1661.27" stroke="black" stroke-width="10" />
<line x1="729.981" y1="281.608" x2="862.082" y2="443.054" stroke="black" stroke-width="10" />
<line x1="743.106" y1="729.36" x2="772.004" y2="753.116" stroke="black" stroke-width="10" />
<line x1="772.004" y1="753.116" x2="825.6" y2="753.191" stroke="black" stroke-width="10" />
<line x1="825.6" y1="753.191" x2="861.721" y2="700.121" stroke="black" stroke-width="10" />
<line x1="861.721" y1="700.121" x2="886.519" y2="604.348" stroke="black" stroke-width="10" />
<line x1="886.519" y1="604.348" x2="886.611" y2="538.896" stroke="black" stroke-width="10" />
<line x1="886.611" y1="538.896" x2="862.082" y2="443.054" stroke="black" stroke-width="10" />
<line x1="851.28" y1="30.4024" x2="826.658" y2="0.961543" stroke="black" stroke-width="10" />
<line x1="826.658" y1="0.961543" x2="779.703" y2="0.895483" stroke="black" stroke-width="10" />
<line x1="779.703" y1="0.895483" x2="730.292" y2="60.5871" stroke="black" stroke-width="10" />
<line x1="730.292" y1="60.5871" x2="707.866" y2="156.363" stroke="black" stroke-width="10" />
<line x1="707.866" y1="156.363" x2="707.824" y2="185.769" stroke="black" stroke-width="10" />
<line x1="707.824" y1="185.769" x2="729.981" y2="281.608" stroke="black" stroke-width="10" />
<line x1="142.714" y1="346.234" x2="272.67" y2="346.417" stroke="black" stroke-width="10" />
<line x1="52.5043" y1="2098.15" x2="65.2542" y2="2138.01" stroke="black" stroke-width="10" />
<line x1="65.2542" y1="2138.01" x2="436.626" y2="2138.53" stroke="black" stroke-width="10" />
<line x1="436.626" y1="2138.53" x2="398.264" y2="2098.64" stroke="black" stroke-width="10" />
<line x1="65.2542" y1="2138.01" x2="63.6514" y2="3277.26" stroke="black" stroke-width="10" />
<line x1="63.6514" y1="3277.26" x2="67.8627" y2="3318.06" stroke="black" stroke-width="10" />
<line x1="67.8627" y1="3318.06" x2="93.4185" y2="3357.94" stroke="black" stroke-width="10" />
<line x1="93.4185" y1="3357.94" x2="439.179" y2="3358.42" stroke="black" stroke-width="10" />
<line x1="439.179" y1="3358.42" x2="469.102" y2="3328.11" stroke="black" stroke-width="10" />
<line x1="469.102" y1="3328.11" x2="477.71" y2="3277.85" stroke="black" stroke-width="10" />
<line x1="477.71" y1="3277.85" x2="443.603" y2="3247.44" stroke="black" stroke-width="10" />
<line x1="443.603" y1="3247.44" x2="443.73" y2="3157.33" stroke="black" stroke-width="10" />
<line x1="443.73" y1="3157.33" x2="465.216" y2="3055.86" stroke="black" stroke-width="10" />
<line x1="51.7957" y1="2601.85" x2="423.168" y2="2602.37" stroke="black" stroke-width="10" />
<line x1="244.537" y1="2138.26" x2="248.748" y2="2179.06" stroke="black" stroke-width="10" />
<line x1="248.748" y1="2179.06" x2="248.153" y2="2602.13" stroke="black" stroke-width="10" />
<line x1="423.82" y1="2138.51" x2="418.786" y2="2683" stroke="black" stroke-width="10" />
<line x1="564.996" y1="2592.14" x2="585.793" y2="2643.39" stroke="black" stroke-width="10" />
<line x1="585.793" y1="2643.39" x2="991.788" y2="2643.96" stroke="black" stroke-width="10" />
<line x1="991.788" y1="2643.96" x2="957.654" y2="2633.48" stroke="black" stroke-width="10" />
<line x1="774.379" y1="2099.17" x2="782.861" y2="2139.02" stroke="black" stroke-width="10" />
<line x1="782.861" y1="2139.02" x2="781.144" y2="3358.9" stroke="black" stroke-width="10" />
<line x1="497.56" y1="3664.9" x2="515.079" y2="3685.79" stroke="black" stroke-width="10" />
<line x1="515.079" y1="3685.79" x2="683.496" y2="3655.67" stroke="black" stroke-width="10" />
<line x1="683.496" y1="3655.67" x2="665.976" y2="3635.73" stroke="black" stroke-width="10" />
<line x1="385.895" y1="3474.08" x2="390.15" y2="3483.57" stroke="black" stroke-width="10" />
<line x1="390.15" y1="3483.57" x2="350.888" y2="3746.27" stroke="black" stroke-width="10" />
<line x1="428.843" y1="3624.96" x2="433.084" y2="3644.89" stroke="black" stroke-width="10" />
<line x1="433.084" y1="3644.89" x2="367.467" y2="4099.17" stroke="black" stroke-width="10" />
<line x1="597.359" y1="3524.65" x2="631.437" y2="3574.97" stroke="black" stroke-width="10" />
<line x1="631.437" y1="3574.97" x2="635.678" y2="3594.9" stroke="black" stroke-width="10" />
<line x1="635.678" y1="3594.9" x2="640.378" y2="3625.26" stroke="black" stroke-width="10" />
<line x1="536.707" y1="3483.77" x2="558.467" y2="3524.59" stroke="black" stroke-width="10" />
<line x1="558.467" y1="3524.59" x2="554.17" y2="3544.51" stroke="black" stroke-width="10" />
<line x1="554.17" y1="3544.51" x2="554.042" y2="3635.57" stroke="black" stroke-width="10" />
<line x1="554.042" y1="3635.57" x2="566.721" y2="3725.71" stroke="black" stroke-width="10" />
<line x1="566.721" y1="3725.71" x2="579.328" y2="3867.06" stroke="black" stroke-width="10" />
<line x1="579.328" y1="3867.06" x2="601.033" y2="3947.72" stroke="black" stroke-width="10" />
<line x1="601.033" y1="3947.72" x2="639.825" y2="4018.92" stroke="black" stroke-width="10" />
<line x1="639.825" y1="4018.92" x2="678.186" y2="4058.82" stroke="black" stroke-width="10" />
<line x1="678.186" y1="4058.82" x2="708.556" y2="4048.43" stroke="black" stroke-width="10" />
<line x1="708.556" y1="4048.43" x2="691.552" y2="3998.13" stroke="black" stroke-width="10" />
<line x1="691.552" y1="3998.13" x2="691.623" y2="3947.85" stroke="black" stroke-width="10" />
<line x1="691.623" y1="3947.85" x2="708.768" y2="3897.6" stroke="black" stroke-width="10" />
<line x1="338.14" y1="3705.46" x2="389.568" y2="3897.15" stroke="black" stroke-width="10" />
<line x1="376.478" y1="4099.18" x2="384.974" y2="4128.6" stroke="black" stroke-width="10" />
<line x1="384.974" y1="4128.6" x2="384.136" y2="4724.31" stroke="black" stroke-width="10" />
<line x1="384.136" y1="4724.31" x2="379.925" y2="4683.52" stroke="black" stroke-width="10" />
<line x1="350.279" y1="4179.78" x2="350.237" y2="4209.18" stroke="black" stroke-width="10" />
<line x1="350.237" y1="4209.18" x2="315.002" y2="4643.59" stroke="black" stroke-width="10" />
<line x1="414.782" y1="4179.87" x2="453.165" y2="4542.28" stroke="black" stroke-width="10" />
<line x1="453.165" y1="4542.28" x2="440.415" y2="4502.42" stroke="black" stroke-width="10" />
<line x1="315.783" y1="4088.66" x2="328.574" y2="4099.11" stroke="black" stroke-width="10" />
<line x1="328.574" y1="4099.11" x2="436.756" y2="4068.91" stroke="black" stroke-width="10" />
<line x1="483.988" y1="4209.37" x2="501.507" y2="4230.26" stroke="black" stroke-width="10" />
<line x1="501.507" y1="4230.26" x2="712.639" y2="4180.29" stroke="black" stroke-width="10" />
<line x1="712.639" y1="4180.29" x2="687.07" y2="4149.89" stroke="black" stroke-width="10" />
<line x1="598.123" y1="3318.8" x2="618.936" y2="3358.68" stroke="black" stroke-width="10" />
<line x1="618.936" y1="3358.68" x2="977.502" y2="3359.18" stroke="black" stroke-width="10" />
<line x1="977.502" y1="3359.18" x2="969.035" y2="3308.89" stroke="black" stroke-width="10" />
<line x1="448.477" y1="1468.85" x2="307.138" y2="1468.65" stroke="black" stroke-width="10" />
</g>
</svg>