<?xml version="1.0" encoding="UTF-8" ?><!-- DOCTYPE svg PUBLIC "-//W3C//DTD SVG 1.1//EN" "http://www.w3.org/Graphics/SVG/1.1/DTD/svg11.dtd" -->
<svg viewBox="0,0,1024,2618" preserveAspectRatio="xMidYMid" zoomAndPan="magnify" xmlns="http://www.w3.org/2000/svg" xmlns:xlink="http://www.w3.org/1999/xlink">
<g>
<g>
<polyline points="446.08,2269.92,480.15,2349.33" fill="none" stroke="black" stroke-width="10" />
<polyline points="659.13,2170.90,676.97,2189.82,649.59,2226.29,623.87,2258.05,593.43,2281.38,553.79,2299.56,518.60,2308.07,489.40,2316.87" fill="none" stroke="black" stroke-width="10" />
<polyline points="627.59,2309.26,653.11,2333.54,661.54,2342.38,661.13,2356.25" fill="none" stroke="black" stroke-width="10" />
<polyline points="571.63,2294.77,592.98,2309.18,588.44,2322.97,588.23,2355.31,591.71,2415.52,608.11,2471.15,628.93,2527.65,657.97,2560.97,696.87,2593.51,748.66,2608.29,735.61,2580.13,732.67,2552.33,741.01,2524.66" fill="none" stroke="black" stroke-width="10" />
<polyline points="669.51,2402.71,686.20,2421.87,655.73,2472.67,624.18,2522.98,589.74,2555.28,555.01,2573.25,502.85,2595.68,459.12,2599.85" fill="none" stroke="black" stroke-width="10" />
<line x1="526.141" y1="2131.68" x2="543.529" y2="2141.14" stroke="black" stroke-width="10" />
<line x1="543.529" y1="2141.14" x2="711.862" y2="2129.72" stroke="black" stroke-width="10" />
<line x1="711.862" y1="2129.72" x2="694.805" y2="2120.68" stroke="black" stroke-width="10" />
<line x1="414.874" y1="2042.57" x2="418.921" y2="2046.78" stroke="black" stroke-width="10" />
<line x1="418.921" y1="2046.78" x2="378.873" y2="2166.88" stroke="black" stroke-width="10" />
<line x1="457.583" y1="2112.03" x2="461.425" y2="2121.49" stroke="black" stroke-width="10" />
<line x1="461.425" y1="2121.49" x2="393.136" y2="2329.89" stroke="black" stroke-width="10" />
<line x1="626.12" y1="2068.28" x2="660.772" y2="2091.69" stroke="black" stroke-width="10" />
<line x1="660.772" y1="2091.69" x2="664.655" y2="2100.78" stroke="black" stroke-width="10" />
<line x1="664.655" y1="2100.78" x2="669.488" y2="2114.86" stroke="black" stroke-width="10" />
<line x1="565.491" y1="2048.38" x2="587.423" y2="2067.75" stroke="black" stroke-width="10" />
<line x1="587.423" y1="2067.75" x2="583.417" y2="2076.71" stroke="black" stroke-width="10" />
<line x1="583.417" y1="2076.71" x2="582.926" y2="2118.42" stroke="black" stroke-width="10" />
<line x1="582.926" y1="2118.42" x2="595.195" y2="2160.42" stroke="black" stroke-width="10" />
<line x1="595.195" y1="2160.42" x2="606.765" y2="2225.67" stroke="black" stroke-width="10" />
<line x1="606.765" y1="2225.67" x2="627.831" y2="2263" stroke="black" stroke-width="10" />
<line x1="627.831" y1="2263" x2="666.696" y2="2295.91" stroke="black" stroke-width="10" />
<line x1="666.696" y1="2295.91" x2="705.56" y2="2315.28" stroke="black" stroke-width="10" />
<line x1="705.56" y1="2315.28" x2="735.419" y2="2310.69" stroke="black" stroke-width="10" />
<line x1="735.419" y1="2310.69" x2="718.443" y2="2287.36" stroke="black" stroke-width="10" />
<line x1="718.443" y1="2287.36" x2="718.771" y2="2264.07" stroke="black" stroke-width="10" />
<line x1="718.771" y1="2264.07" x2="735.908" y2="2241.89" stroke="black" stroke-width="10" />
<line x1="365.862" y1="2148.51" x2="416.213" y2="2237.25" stroke="black" stroke-width="10" />
<line x1="402.924" y1="2329.85" x2="410.772" y2="2343.89" stroke="black" stroke-width="10" />
<line x1="410.772" y1="2343.89" x2="407.081" y2="2617.78" stroke="black" stroke-width="10" />
<line x1="407.081" y1="2617.78" x2="403.114" y2="2599.28" stroke="black" stroke-width="10" />
<line x1="375.918" y1="2366.36" x2="375.506" y2="2380.23" stroke="black" stroke-width="10" />
<line x1="375.506" y1="2380.23" x2="338.315" y2="2579.67" stroke="black" stroke-width="10" />
<line x1="440.138" y1="2367.47" x2="477.281" y2="2534.52" stroke="black" stroke-width="10" />
<line x1="477.281" y1="2534.52" x2="464.188" y2="2516.88" stroke="black" stroke-width="10" />
<line x1="341.429" y1="2324.52" x2="354.48" y2="2328.98" stroke="black" stroke-width="10" />
<line x1="354.48" y1="2328.98" x2="463.467" y2="2316.62" stroke="black" stroke-width="10" />
<line x1="509.273" y1="2381.91" x2="527.363" y2="2391.82" stroke="black" stroke-width="10" />
<line x1="527.363" y1="2391.82" x2="738.44" y2="2371.61" stroke="black" stroke-width="10" />
<line x1="738.44" y1="2371.61" x2="713.7" y2="2357.2" stroke="black" stroke-width="10" />
</g>
<line x1="783.085" y1="427.824" x2="783.085" y2="9.90603e-09" stroke="black" stroke-width="10" />
<line x1="783.085" y1="9.90603e-09" x2="876.86" y2="404.218" stroke="black" stroke-width="10" />
<line x1="876.86" y1="404.218" x2="969.329" y2="1.81899e-13" stroke="black" stroke-width="10" />
<line x1="969.329" y1="1.81899e-13" x2="969.871" y2="427.824" stroke="black" stroke-width="10" />
<line x1="522.057" y1="427.824" x2="609.077" y2="1.91614e-08" stroke="black" stroke-width="10" />
<line x1="609.077" y1="1.91614e-08" x2="696.065" y2="427.824" stroke="black" stroke-width="10" />
<line x1="674.334" y1="320.868" x2="543.82" y2="320.868" stroke="black" stroke-width="10" />
<line x1="261.028" y1="427.824" x2="261.028" y2="3.76731e-08" stroke="black" stroke-width="10" />
<line x1="261.028" y1="3.76731e-08" x2="369.78" y2="3.18891e-08" stroke="black" stroke-width="10" />
<line x1="369.78" y1="211.666" x2="261.028" y2="211.666" stroke="black" stroke-width="10" />
<polyline points="369.81,0.00,402.41,17.81,425.54,86.90,425.54,124.76,402.41,196.10,369.78,211.67" fill="none" stroke="black" stroke-width="10" />
<line x1="369.78" y1="211.666" x2="425.541" y2="427.824" stroke="black" stroke-width="10" />
<line x1="0" y1="5.15571e-08" x2="174.008" y2="4.23017e-08" stroke="black" stroke-width="10" />
<line x1="87.0201" y1="4.69285e-08" x2="87.0201" y2="427.824" stroke="black" stroke-width="10" />
<g>
<line x1="63.4546" y1="651.977" x2="63.4546" y2="1079.8" stroke="black" stroke-width="10" />
<line x1="63.4546" y1="1079.8" x2="215.733" y2="1079.8" stroke="black" stroke-width="10" />
</g>
<g>
<line x1="324.485" y1="1079.8" x2="411.506" y2="651.977" stroke="black" stroke-width="10" />
<line x1="411.506" y1="651.977" x2="498.495" y2="1079.8" stroke="black" stroke-width="10" />
<line x1="476.764" y1="972.846" x2="346.248" y2="972.846" stroke="black" stroke-width="10" />
</g>
<g>
<line x1="585.516" y1="1079.8" x2="585.516" y2="651.977" stroke="black" stroke-width="10" />
<line x1="585.516" y1="651.977" x2="750.03" y2="1079.8" stroke="black" stroke-width="10" />
<line x1="750.03" y1="1079.8" x2="750.03" y2="651.977" stroke="black" stroke-width="10" />
</g>
<g>
<line x1="998.825" y1="651.977" x2="846.547" y2="651.977" stroke="black" stroke-width="10" />
<line x1="846.547" y1="651.977" x2="846.547" y2="1079.8" stroke="black" stroke-width="10" />
<line x1="846.547" y1="1079.8" x2="1009.69" y2="1079.8" stroke="black" stroke-width="10" />
<line x1="955.299" y1="865.89" x2="846.547" y2="865.89" stroke="black" stroke-width="10" />
</g>
<g>
<line x1="195.688" y1="1851.24" x2="195.684" y2="1650.65" stroke="black" stroke-width="10" />
<polyline points="195.68,1664.98,343.60,1664.97,491.51,1664.97" fill="none" stroke="black" stroke-width="10" />
<line x1="491.51" y1="1650.64" x2="491.514" y2="1851.23" stroke="black" stroke-width="10" />
<polyline points="491.51,1836.90,343.60,1836.91,195.69,1836.91" fill="none" stroke="black" stroke-width="10" />
<polyline points="195.69,1750.94,343.60,1750.94,491.51,1750.94" fill="none" stroke="black" stroke-width="10" />
<polyline points="540.82,1836.90,540.82,1922.87,530.96,1922.87,383.05,1922.88,378.35,1922.88,374.12,1922.19,369.90,1920.83,365.67,1918.78,361.92,1916.05,358.16,1913.32,354.40,1909.91,351.12,1905.82,347.83,1901.73,345.01,1896.95,342.19,1892.17,339.85,1886.71,337.97,1881.26,336.56,1875.12,335.15,1868.98,334.21,1862.84,333.74,1856.69,333.74,1851.24" fill="none" stroke="black" stroke-width="10" />
<polyline points="333.74,1865.56,333.74,1765.27,333.73,1550.35,333.73,1335.43" fill="none" stroke="black" stroke-width="10" />
<line x1="304.146" y1="1335.43" x2="156.233" y2="1335.43" stroke="black" stroke-width="10" />
<line x1="175.956" y1="1392.74" x2="136.515" y2="1507.37" stroke="black" stroke-width="10" />
<line x1="195.68" y1="1464.38" x2="274.567" y2="1493.04" stroke="black" stroke-width="10" />
<line x1="284.429" y1="1550.35" x2="185.821" y2="1593.34" stroke="black" stroke-width="10" />
<polyline points="166.10,1421.40,314.01,1421.40,461.92,1421.39,540.81,1421.39" fill="none" stroke="black" stroke-width="10" />
<line x1="550.669" y1="1392.74" x2="511.228" y2="1478.7" stroke="black" stroke-width="10" />
<line x1="471.784" y1="1464.38" x2="383.037" y2="1507.36" stroke="black" stroke-width="10" />
<line x1="383.038" y1="1550.35" x2="491.508" y2="1593.33" stroke="black" stroke-width="10" />
<line x1="452.059" y1="1335.43" x2="304.146" y2="1335.43" stroke="black" stroke-width="10" />
<line x1="452.059" y1="1335.43" x2="530.946" y2="1335.42" stroke="black" stroke-width="10" />
</g>
<g>
<polyline points="609.84,1808.25,757.76,1808.24,905.67,1808.24,1024.00,1808.24" fill="none" stroke="black" stroke-width="10" />
<polyline points="954.97,1722.27,954.97,1679.29,954.97,1464.37" fill="none" stroke="black" stroke-width="10" />
<polyline points="954.97,1478.70,836.64,1478.70,688.72,1478.70" fill="none" stroke="black" stroke-width="10" />
<polyline points="688.72,1464.37,688.73,1679.29,688.73,1722.28" fill="none" stroke="black" stroke-width="10" />
<polyline points="688.73,1707.95,836.64,1707.95,954.97,1707.94" fill="none" stroke="black" stroke-width="10" />
<polyline points="954.97,1593.32,836.64,1593.32,688.73,1593.32" fill="none" stroke="black" stroke-width="10" />
<line x1="816.916" y1="1521.68" x2="816.911" y2="1306.76" stroke="black" stroke-width="10" />
<line x1="777.469" y1="1392.73" x2="629.556" y2="1392.73" stroke="black" stroke-width="10" />
<polyline points="777.47,1392.73,925.38,1392.73,1004.27,1392.73" fill="none" stroke="black" stroke-width="10" />
<polyline points="816.92,1521.68,816.92,1736.60,816.92,1937.19" fill="none" stroke="black" stroke-width="10" />
</g>
</g>
</svg>