<?xml version="1.0" encoding="UTF-8" ?><!-- DOCTYPE svg PUBLIC "-//W3C//DTD SVG 1.1//EN" "http://www.w3.org/Graphics/SVG/1.1/DTD/svg11.dtd" -->
<svg viewBox="0,0,1024,971" preserveAspectRatio="xMidYMid" zoomAndPan="magnify" xmlns="http://www.w3.org/2000/svg" xmlns:xlink="http://www.w3.org/1999/xlink">
<g>
<g>
<g>
<line x1="0.185853" y1="140.393" x2="79.2635" y2="140.427" stroke="black" stroke-width="10" />
<line x1="39.7319" y1="140.41" x2="39.608" y2="421.195" stroke="black" stroke-width="10" />
</g>
<g>
<line x1="118.686" y1="421.23" x2="118.81" y2="140.445" stroke="black" stroke-width="10" />
<line x1="118.81" y1="140.445" x2="168.231" y2="140.467" stroke="black" stroke-width="10" />
<line x1="168.17" y1="279.385" x2="118.748" y2="279.364" stroke="black" stroke-width="10" />
<polyline points="168.25,140.47,183.05,152.16,193.55,197.51,193.54,222.36,183.00,269.18,168.17,279.39" fill="none" stroke="black" stroke-width="10" />
<line x1="168.17" y1="279.385" x2="193.448" y2="421.263" stroke="black" stroke-width="10" />
</g>
<g>
<line x1="237.309" y1="421.282" x2="276.979" y2="140.515" stroke="black" stroke-width="10" />
<line x1="276.979" y1="140.515" x2="316.387" y2="421.317" stroke="black" stroke-width="10" />
<line x1="306.542" y1="351.116" x2="247.23" y2="351.09" stroke="black" stroke-width="10" />
</g>
<g>
<line x1="355.933" y1="421.335" x2="356.057" y2="140.55" stroke="black" stroke-width="10" />
<line x1="356.057" y1="140.55" x2="398.556" y2="405.861" stroke="black" stroke-width="10" />
<line x1="398.556" y1="405.861" x2="440.695" y2="140.587" stroke="black" stroke-width="10" />
<line x1="440.695" y1="140.587" x2="440.817" y2="421.372" stroke="black" stroke-width="10" />
</g>
<g>
<line x1="602.83" y1="244.479" x2="657.8" y2="304.485" stroke="black" stroke-width="10" />
<line x1="593.196" y1="386.341" x2="608.317" y2="411.198" stroke="black" stroke-width="10" />
<line x1="652.611" y1="151.649" x2="662.497" y2="162.621" stroke="black" stroke-width="10" />
<polyline points="652.61,151.65,643.04,140.68,622.96,140.67,602.56,162.59" fill="none" stroke="black" stroke-width="10" />
<polyline points="602.56,162.59,593.58,197.69,593.43,209.45,602.83,244.48" fill="none" stroke="black" stroke-width="10" />
<polyline points="608.32,411.20,620.66,420.22,642.60,419.99,657.76,399.53" fill="none" stroke="black" stroke-width="10" />
<polyline points="657.76,399.53,667.77,363.75,667.72,339.55,657.80,304.49" fill="none" stroke="black" stroke-width="10" />
</g>
<g>
<line x1="711.928" y1="140.707" x2="791.006" y2="140.741" stroke="black" stroke-width="10" />
<line x1="751.474" y1="140.724" x2="751.35" y2="421.509" stroke="black" stroke-width="10" />
</g>
<g>
<line x1="830.944" y1="368.897" x2="831.021" y2="193.406" stroke="black" stroke-width="10" />
<line x1="910.021" y1="368.932" x2="910.099" y2="193.441" stroke="black" stroke-width="10" />
<polyline points="831.02,193.41,833.66,174.52,839.74,160.44,851.94,146.97,863.67,140.77,879.48,140.78,887.30,145.72,902.22,161.84,907.49,174.55,910.10,193.44" fill="none" stroke="black" stroke-width="10" />
<polyline points="830.94,368.90,833.57,387.78,839.63,401.87,851.82,415.35,863.54,421.56,879.36,421.57,887.18,416.67,902.12,400.53,907.39,387.82,910.02,368.93" fill="none" stroke="black" stroke-width="10" />
</g>
<g>
<line x1="949.052" y1="421.596" x2="949.176" y2="140.811" stroke="black" stroke-width="10" />
<line x1="949.176" y1="140.811" x2="998.597" y2="140.833" stroke="black" stroke-width="10" />
<line x1="998.536" y1="279.752" x2="949.114" y2="279.73" stroke="black" stroke-width="10" />
<polyline points="998.61,140.83,1013.42,152.53,1023.91,197.88,1023.90,222.73,1013.37,269.54,998.54,279.75" fill="none" stroke="black" stroke-width="10" />
</g>
</g>
<g>
<polyline points="216.54,489.82,222.02,497.49,350.65,497.59,343.46,489.95" fill="none" stroke="black" stroke-width="10" />
<polyline points="212.84,528.86,216.73,540.64,212.75,583.67,207.56,607.01,203.91,622.81,198.35,642.22" fill="none" stroke="black" stroke-width="10" />
<polyline points="213.01,564.11,370.68,564.10,361.34,560.23" fill="none" stroke="black" stroke-width="10" />
<polyline points="370.65,567.93,357.96,591.45,350.59,611.30,348.78,622.82" fill="none" stroke="black" stroke-width="10" />
<polyline points="279.89,493.59,279.72,681.53,279.92,669.62" fill="none" stroke="black" stroke-width="10" />
<polyline points="225.58,599.23,232.80,603.04,262.00,603.18,254.65,595.29" fill="none" stroke="black" stroke-width="10" />
<polyline points="225.52,650.21,231.03,654.05,258.11,654.12,259.83,654.09,258.02,646.21" fill="none" stroke="black" stroke-width="10" />
<polyline points="296.38,599.39,299.74,607.00,334.08,607.05,330.72,599.44" fill="none" stroke="black" stroke-width="10" />
<polyline points="297.94,642.43,303.55,654.18,334.05,654.20,330.78,646.19" fill="none" stroke="black" stroke-width="10" />
<polyline points="218.27,685.23,225.59,696.95,225.51,892.80" fill="none" stroke="black" stroke-width="10" />
<polyline points="225.52,712.94,343.31,712.88,334.08,713.09" fill="none" stroke="black" stroke-width="10" />
<polyline points="336.14,720.82,341.34,892.93,341.31,896.76" fill="none" stroke="black" stroke-width="10" />
<polyline points="225.45,783.33,234.76,791.04,334.20,791.00,330.52,791.21" fill="none" stroke="black" stroke-width="10" />
<polyline points="225.43,865.48,341.26,865.60" fill="none" stroke="black" stroke-width="10" />
<polyline points="276.46,716.83,279.91,732.35,279.90,939.95,285.09,951.61,294.50,967.22,368.72,967.33,372.15,967.27,375.93,955.55,372.07,939.94,370.50,916.32,370.38,892.82,370.43,869.57" fill="none" stroke="black" stroke-width="10" />
<polyline points="432.01,556.31,439.36,564.20,602.34,564.34,594.99,556.46" fill="none" stroke="black" stroke-width="10" />
<polyline points="452.15,611.32,457.63,618.99,457.52,818.67" fill="none" stroke="black" stroke-width="10" />
<polyline points="575.16,638.49,575.01,807.02" fill="none" stroke="black" stroke-width="10" />
<polyline points="424.62,857.57,433.84,865.68,602.21,865.58,596.96,842.18" fill="none" stroke="black" stroke-width="10" />
<polyline points="510.11,489.88,515.31,501.54,515.31,967.31,509.99,951.57" fill="none" stroke="black" stroke-width="10" />
<polyline points="457.32,787.26,575.11,787.20" fill="none" stroke="black" stroke-width="10" />
<polyline points="457.30,708.95,575.09,708.89" fill="none" stroke="black" stroke-width="10" />
<polyline points="457.40,634.72,577.06,634.88,569.99,623.00" fill="none" stroke="black" stroke-width="10" />
<polyline points="685.54,501.66,694.66,521.27,694.56,658.22" fill="none" stroke="black" stroke-width="10" />
<polyline points="652.90,646.45,658.47,662.04,738.28,658.31,734.71,638.70" fill="none" stroke="black" stroke-width="10" />
<polyline points="665.66,732.40,685.50,873.54" fill="none" stroke="black" stroke-width="10" />
<polyline points="716.41,713.20,732.75,736.61,697.98,900.75" fill="none" stroke="black" stroke-width="10" />
<polyline points="651.06,947.72,658.37,959.44,725.31,900.68" fill="none" stroke="black" stroke-width="10" />
<polyline points="769.09,490.05,779.93,509.63,783.42,798.90" fill="none" stroke="black" stroke-width="10" />
<polyline points="783.31,658.27,823.19,658.32,821.33,638.69" fill="none" stroke="black" stroke-width="10" />
<polyline points="741.86,775.63,748.86,795.18,750.64,967.34" fill="none" stroke="black" stroke-width="10" />
<polyline points="750.67,803.06,828.73,803.20,828.64,795.28" fill="none" stroke="black" stroke-width="10" />
<polyline points="828.73,803.20,823.12,971.31" fill="none" stroke="black" stroke-width="10" />
<polyline points="752.33,951.73,824.84,951.87" fill="none" stroke="black" stroke-width="10" />
</g>
</g>
</svg>