<?xml version="1.0" encoding="UTF-8" ?><!-- DOCTYPE svg PUBLIC "-//W3C//DTD SVG 1.1//EN" "http://www.w3.org/Graphics/SVG/1.1/DTD/svg11.dtd" -->
<svg viewBox="0,0,1024,5889" preserveAspectRatio="xMidYMid" zoomAndPan="magnify" xmlns="http://www.w3.org/2000/svg" xmlns:xlink="http://www.w3.org/1999/xlink">
<g>
<g>
<g>
<line x1="129.832" y1="385.847" x2="139.393" y2="1139.16" stroke="black" stroke-width="10" />
<line x1="139.393" y1="1139.16" x2="265.685" y2="1137.56" stroke="black" stroke-width="10" />
<line x1="134.215" y1="731.145" x2="26107" y2="729.542" stroke="black" stroke-width="10" />
<line x1="129.832" y1="385.847" x2="244.622" y2="384.39" stroke="black" stroke-width="10" />
<polyline points="244.62,384.39,280.52,440.86,292.53,538.75,292.88,566.25,283.34,662.48,260.51,729.54" fill="none" stroke="black" stroke-width="10" />
<polyline points="260.51,729.54,295.77,793.84,309.85,885.82,311.07,982.01,299.40,1080.20,265.68,1137.56" fill="none" stroke="black" stroke-width="10" />
</g>
<g>
<line x1="405.354" y1="382.35" x2="412.922" y2="978.691" stroke="black" stroke-width="10" />
<line x1="585.123" y1="976.505" x2="577.555" y2="380.165" stroke="black" stroke-width="10" />
<polyline points="585.12,976.51,575.05,1086.54,552.68,1133.91,460.82,1135.08,424.93,1076.67,412.92,978.69" fill="none" stroke="black" stroke-width="10" />
</g>
<g>
<line x1="706.642" y1="657.109" x2="836.422" y2="816.412" stroke="black" stroke-width="10" />
<line x1="689.241" y1="1038" x2="725.233" y2="1104.22" stroke="black" stroke-width="10" />
<line x1="819.01" y1="406.531" x2="842.355" y2="435.666" stroke="black" stroke-width="10" />
<polyline points="819.01,406.53,796.41,377.39,749.76,377.98,703.15,437.43" fill="none" stroke="black" stroke-width="10" />
<polyline points="703.15,437.43,683.52,531.86,683.59,563.41,706.64,657.11" fill="none" stroke="black" stroke-width="10" />
<polyline points="725.23,1104.22,754.23,1128.04,805.18,1126.75,839.66,1071.41" fill="none" stroke="black" stroke-width="10" />
<polyline points="839.66,1071.41,861.65,975.11,860.69,910.19,836.42,816.41" fill="none" stroke="black" stroke-width="10" />
</g>
</g>
<g>
<g>
<line x1="33.1709" y1="1898.24" x2="163.218" y2="2057.54" stroke="black" stroke-width="10" />
<line x1="15.7233" y1="2279.13" x2="51.7893" y2="2345.35" stroke="black" stroke-width="10" />
<line x1="145.78" y1="1647.66" x2="169.173" y2="1676.79" stroke="black" stroke-width="10" />
<polyline points="145.78,1647.66,123.13,1618.52,76.38,1619.11,29.68,1678.56" fill="none" stroke="black" stroke-width="10" />
<polyline points="29.68,1678.56,10.01,1772.99,10.07,1804.54,33.17,1898.24" fill="none" stroke="black" stroke-width="10" />
<polyline points="51.79,2345.35,80.85,2369.17,131.90,2367.88,166.45,2312.53" fill="none" stroke="black" stroke-width="10" />
<polyline points="166.45,2312.53,188.49,2216.24,187.53,2151.32,163.22,2057.54" fill="none" stroke="black" stroke-width="10" />
</g>
<g>
<line x1="283.455" y1="1616.48" x2="467.509" y2="1614.14" stroke="black" stroke-width="10" />
<line x1="375.499" y1="1615.31" x2="385.059" y2="2368.62" stroke="black" stroke-width="10" />
</g>
<g>
<line x1="568.466" y1="2225.03" x2="562.491" y2="1754.21" stroke="black" stroke-width="10" />
<line x1="752.52" y1="2222.69" x2="746.545" y2="1751.87" stroke="black" stroke-width="10" />
<polyline points="562.49,1754.21,567.98,1703.46,581.62,1665.49,609.54,1628.99,636.63,1612.00,673.44,1611.53,691.80,1624.54,727.10,1667.32,739.80,1701.28,746.54,1751.87" fill="none" stroke="black" stroke-width="10" />
<polyline points="568.47,2225.03,575.24,2275.62,589.84,2313.23,618.68,2349.01,646.19,2365.31,683.00,2364.84,701.03,2351.46,735.23,2307.71,747.06,2273.43,752.52,2222.69" fill="none" stroke="black" stroke-width="10" />
</g>
<g>
<line x1="845.21" y1="2362.78" x2="835.65" y2="1609.47" stroke="black" stroke-width="10" />
<line x1="835.65" y1="1609.47" x2="950.679" y2="1608.01" stroke="black" stroke-width="10" />
<line x1="955.409" y1="1980.71" x2="840.38" y2="1982.17" stroke="black" stroke-width="10" />
<polyline points="950.71,1608.01,985.59,1638.93,1011.60,1760.28,1012.45,1826.95,989.57,1952.87,955.41,1980.71" fill="none" stroke="black" stroke-width="10" />
</g>
</g>
<g>
<polyline points="-0.00,2810.84,14.93,2852.13,426.58,2846.87,383.20,2805.97" fill="none" stroke="black" stroke-width="10" />
<polyline points="412.33,2846.83,414.61,3408.83" fill="none" stroke="black" stroke-width="10" />
<polyline points="14.93,2852.13,29.71,4027.84,35.23,4070.04,63.89,4110.95,447.09,4106.07,479.64,4074.43,488.78,4021.78,450.26,3991.80,449.22,3897.88,471.45,3794.11" fill="none" stroke="black" stroke-width="10" />
<polyline points="6.82,3331.56,418.48,3326.30" fill="none" stroke="black" stroke-width="10" />
<polyline points="213.16,2849.53,218.63,2891.26,224.01,3328.54" fill="none" stroke="black" stroke-width="10" />
<polyline points="550.19,3313.53,574.21,3365.33,1023.82,3359.71,985.81,3349.63" fill="none" stroke="black" stroke-width="10" />
<polyline points="774.97,2801.21,785.10,2842.01,801.37,4101.63" fill="none" stroke="black" stroke-width="10" />
<polyline points="597.24,4063.02,621.62,4103.87,1019.08,4099.03,1008.79,4046.85" fill="none" stroke="black" stroke-width="10" />
</g>
<g>
<polyline points="409.81,4622.52,433.83,4674.33,438.92,5049.91" fill="none" stroke="black" stroke-width="10" />
<polyline points="329.57,5019.21,344.55,5060.97,556.97,5047.96,546.68,4995.78" fill="none" stroke="black" stroke-width="10" />
<polyline points="365.62,5248.86,422.84,5633.16" fill="none" stroke="black" stroke-width="10" />
<polyline points="502.31,5194.29,545.34,5256.12,456.48,5705.87" fill="none" stroke="black" stroke-width="10" />
<polyline points="335.33,5832.54,354.47,5863.44,532.39,5705.16" fill="none" stroke="black" stroke-width="10" />
<polyline points="632.08,4588.62,660.84,4640.44,680.53,5421.08" fill="none" stroke="black" stroke-width="10" />
<polyline points="675.58,5046.90,784.17,5045.39,779.06,4992.71" fill="none" stroke="black" stroke-width="10" />
<polyline points="570.61,5360.04,589.88,5411.82,600.71,5880.87" fill="none" stroke="black" stroke-width="10" />
<polyline points="594.76,5432.72,803.43,5430.05,803.31,5409.17" fill="none" stroke="black" stroke-width="10" />
<polyline points="803.43,5430.05,795.24,5889.07" fill="none" stroke="black" stroke-width="10" />
<polyline points="604.74,5839.17,799.21,5836.93" fill="none" stroke="black" stroke-width="10" />
</g>
</g>
</svg>