<?xml version="1.0" encoding="UTF-8" ?><!-- DOCTYPE svg PUBLIC "-//W3C//DTD SVG 1.1//EN" "http://www.w3.org/Graphics/SVG/1.1/DTD/svg11.dtd" -->
<svg viewBox="0,0,1024,5804" preserveAspectRatio="xMidYMid" zoomAndPan="magnify" xmlns="http://www.w3.org/2000/svg" xmlns:xlink="http://www.w3.org/1999/xlink">
<g>
<g>
<g>
<line x1="178.971" y1="371.051" x2="173.821" y2="1113.15" stroke="black" stroke-width="10" />
<line x1="173.821" y1="1113.15" x2="298.234" y2="1114.02" stroke="black" stroke-width="10" />
<line x1="176.61" y1="711.212" x2="301.023" y2="712.075" stroke="black" stroke-width="10" />
<line x1="178.971" y1="371.051" x2="292.052" y2="371.836" stroke="black" stroke-width="10" />
<polyline points="292.05,371.84,326.32,428.15,336.25,524.79,336.06,551.88,324.80,646.47,301.02,712.07" fill="none" stroke="black" stroke-width="10" />
<polyline points="301.02,712.07,334.51,776.08,346.60,866.94,345.94,961.70,332.55,1058.18,298.23,1114.02" fill="none" stroke="black" stroke-width="10" />
</g>
<g>
<line x1="450.393" y1="372.935" x2="446.316" y2="960.402" stroke="black" stroke-width="10" />
<line x1="615.955" y1="961.579" x2="620.031" y2="374.112" stroke="black" stroke-width="10" />
<polyline points="615.95,961.58,603.91,1069.75,580.95,1115.98,490.47,1115.35,456.25,1057.13,446.32,960.40" fill="none" stroke="black" stroke-width="10" />
</g>
<g>
<line x1="741.811" y1="649.363" x2="866.548" y2="808.766" stroke="black" stroke-width="10" />
<line x1="717.309" y1="1024.16" x2="751.476" y2="1090.07" stroke="black" stroke-width="10" />
<line x1="857.324" y1="404.748" x2="879.753" y2="433.894" stroke="black" stroke-width="10" />
<polyline points="857.32,404.75,835.62,375.61,789.67,375.29,742.62,432.94" fill="none" stroke="black" stroke-width="10" />
<polyline points="742.62,432.94,721.46,525.56,720.92,556.63,741.81,649.36" fill="none" stroke="black" stroke-width="10" />
<polyline points="751.48,1090.07,779.57,1114.10,829.77,1113.81,864.81,1059.97" fill="none" stroke="black" stroke-width="10" />
<polyline points="864.81,1059.97,888.32,965.55,888.63,901.60,866.55,808.77" fill="none" stroke="black" stroke-width="10" />
</g>
</g>
<g>
<g>
<line x1="54.0797" y1="1858.47" x2="179.08" y2="2017.87" stroke="black" stroke-width="10" />
<line x1="29.5315" y1="2233.26" x2="63.7716" y2="2299.18" stroke="black" stroke-width="10" />
<line x1="169.831" y1="1613.85" x2="192.306" y2="1643" stroke="black" stroke-width="10" />
<polyline points="169.83,1613.85,148.09,1584.71,102.03,1584.39,54.88,1642.05" fill="none" stroke="black" stroke-width="10" />
<polyline points="54.88,1642.05,33.69,1734.66,33.14,1765.73,54.08,1858.47" fill="none" stroke="black" stroke-width="10" />
<polyline points="63.77,2299.18,91.93,2323.20,142.23,2322.91,177.34,2269.07" fill="none" stroke="black" stroke-width="10" />
<polyline points="177.34,2269.07,200.90,2174.66,201.21,2110.70,179.08,2017.87" fill="none" stroke="black" stroke-width="10" />
</g>
<g>
<line x1="306.026" y1="1585.81" x2="487.341" y2="1587.07" stroke="black" stroke-width="10" />
<line x1="396.7" y1="1586.44" x2="391.551" y2="2328.54" stroke="black" stroke-width="10" />
</g>
<g>
<line x1="574.96" y1="2190.66" x2="578.179" y2="1726.85" stroke="black" stroke-width="10" />
<line x1="756.275" y1="2191.92" x2="759.494" y2="1728.11" stroke="black" stroke-width="10" />
<polyline points="578.18,1726.85,584.57,1676.98,598.74,1639.84,626.94,1604.43,653.95,1588.22,690.20,1588.47,708.04,1601.64,741.98,1644.46,753.83,1678.15,759.49,1728.11" fill="none" stroke="black" stroke-width="10" />
<polyline points="574.96,2190.66,580.66,2240.62,594.31,2277.94,622.02,2313.74,648.80,2330.32,685.05,2330.57,703.07,2317.74,737.60,2275.31,749.92,2241.79,756.28,2191.92" fill="none" stroke="black" stroke-width="10" />
</g>
<g>
<line x1="844.855" y1="2331.68" x2="850.004" y2="1589.58" stroke="black" stroke-width="10" />
<line x1="850.004" y1="1589.58" x2="963.322" y2="1590.37" stroke="black" stroke-width="10" />
<line x1="960.774" y1="1957.52" x2="847.457" y2="1956.74" stroke="black" stroke-width="10" />
<polyline points="963.36,1590.37,997.11,1621.50,1020.38,1741.51,1019.92,1807.19,994.96,1930.76,960.77,1957.52" fill="none" stroke="black" stroke-width="10" />
</g>
</g>
<g>
<polyline points="3.69,2757.22,17.39,2797.81,422.69,2800.59,381.03,2759.80" fill="none" stroke="black" stroke-width="10" />
<polyline points="408.86,2800.19,400.45,3353.72" fill="none" stroke="black" stroke-width="10" />
<polyline points="17.39,2797.81,9.33,3955.86,13.74,3998.00,41.13,4038.54,418.90,4040.97,451.66,4010.73,461.31,3959.12,424.42,3928.53,424.65,3835.92,448.79,3734.07" fill="none" stroke="black" stroke-width="10" />
<polyline points="-0.00,3269.56,405.30,3272.33" fill="none" stroke="black" stroke-width="10" />
<polyline points="212.61,2798.92,217.31,2840.48,214.06,3271.40" fill="none" stroke="black" stroke-width="10" />
<polyline points="535.38,3262.82,558.42,3314.07,1000.97,3316.97,963.80,3306.54" fill="none" stroke="black" stroke-width="10" />
<polyline points="767.19,2762.43,776.03,2803.13,767.38,4043.63" fill="none" stroke="black" stroke-width="10" />
<polyline points="567.74,4001.85,590.71,4042.36,982.32,4045.18,972.97,3993.88" fill="none" stroke="black" stroke-width="10" />
</g>
<g>
<polyline points="372.10,4548.73,394.84,4600.57,392.32,4970.54" fill="none" stroke="black" stroke-width="10" />
<polyline points="285.37,4938.26,299.21,4979.29,508.63,4971.38,499.58,4919.49" fill="none" stroke="black" stroke-width="10" />
<polyline points="316.57,5165.07,365.21,5544.83" fill="none" stroke="black" stroke-width="10" />
<polyline points="451.80,5114.22,493.46,5176.06,397.08,5617.21" fill="none" stroke="black" stroke-width="10" />
<polyline points="275.18,5739.12,293.51,5769.87,471.58,5617.45" fill="none" stroke="black" stroke-width="10" />
<polyline points="591.39,4519.98,618.99,4571.71,622.87,5340.57" fill="none" stroke="black" stroke-width="10" />
<polyline points="625.38,4972.07,732.85,4972.85,728.22,4920.99" fill="none" stroke="black" stroke-width="10" />
<polyline points="515.99,5278.40,534.17,5329.77,535.69,5791.94" fill="none" stroke="black" stroke-width="10" />
<polyline points="538.58,5350.86,744.10,5352.05,744.25,5331.43" fill="none" stroke="black" stroke-width="10" />
<polyline points="744.10,5352.05,727.01,5803.62" fill="none" stroke="black" stroke-width="10" />
<polyline points="540.55,5751.19,731.94,5752.57" fill="none" stroke="black" stroke-width="10" />
</g>
</g>
</svg>