<?xml version="1.0" encoding="UTF-8" ?><!-- DOCTYPE svg PUBLIC "-//W3C//DTD SVG 1.1//EN" "http://www.w3.org/Graphics/SVG/1.1/DTD/svg11.dtd" -->
<svg viewBox="0,0,1024,5807" preserveAspectRatio="xMidYMid" zoomAndPan="magnify" xmlns="http://www.w3.org/2000/svg" xmlns:xlink="http://www.w3.org/1999/xlink">
<g>
<g>
<g>
<line x1="178.667" y1="371.24" x2="173.577" y2="1113.72" stroke="black" stroke-width="10" />
<line x1="173.577" y1="1113.72" x2="298.053" y2="1114.57" stroke="black" stroke-width="10" />
<line x1="176.334" y1="711.573" x2="300.81" y2="712.426" stroke="black" stroke-width="10" />
<line x1="178.667" y1="371.24" x2="291.806" y2="372.015" stroke="black" stroke-width="10" />
<polyline points="291.81,372.02,326.10,428.36,336.04,525.05,335.85,552.14,324.60,646.79,300.81,712.43" fill="none" stroke="black" stroke-width="10" />
<polyline points="300.81,712.43,334.32,776.47,346.42,867.37,345.77,962.17,332.38,1058.70,298.05,1114.57" fill="none" stroke="black" stroke-width="10" />
</g>
<g>
<line x1="450.227" y1="373.101" x2="446.197" y2="960.867" stroke="black" stroke-width="10" />
<line x1="615.922" y1="962.031" x2="619.951" y2="374.265" stroke="black" stroke-width="10" />
<polyline points="615.92,962.03,603.88,1070.26,580.92,1116.51,490.39,1115.89,456.14,1057.65,446.20,960.87" fill="none" stroke="black" stroke-width="10" />
</g>
<g>
<line x1="741.816" y1="649.646" x2="866.63" y2="809.119" stroke="black" stroke-width="10" />
<line x1="717.333" y1="1024.63" x2="751.523" y2="1090.58" stroke="black" stroke-width="10" />
<line x1="857.367" y1="404.897" x2="879.81" y2="434.055" stroke="black" stroke-width="10" />
<polyline points="857.37,404.90,835.65,375.74,789.68,375.43,742.60,433.11" fill="none" stroke="black" stroke-width="10" />
<polyline points="742.60,433.11,721.45,525.78,720.90,556.87,741.82,649.65" fill="none" stroke="black" stroke-width="10" />
<polyline points="751.52,1090.58,779.64,1114.61,829.86,1114.32,864.91,1060.45" fill="none" stroke="black" stroke-width="10" />
<polyline points="864.91,1060.45,888.43,965.98,888.74,901.99,866.63,809.12" fill="none" stroke="black" stroke-width="10" />
</g>
</g>
<g>
<g>
<line x1="53.6412" y1="1859.36" x2="178.718" y2="2018.83" stroke="black" stroke-width="10" />
<line x1="29.112" y1="2234.34" x2="63.375" y2="2300.29" stroke="black" stroke-width="10" />
<line x1="169.43" y1="1614.61" x2="191.92" y2="1643.77" stroke="black" stroke-width="10" />
<polyline points="169.43,1614.61,147.67,1585.46,101.60,1585.14,54.43,1642.83" fill="none" stroke="black" stroke-width="10" />
<polyline points="54.43,1642.83,33.23,1735.50,32.68,1766.58,53.64,1859.36" fill="none" stroke="black" stroke-width="10" />
<polyline points="63.38,2300.29,91.55,2324.32,141.88,2324.03,177.00,2270.16" fill="none" stroke="black" stroke-width="10" />
<polyline points="177.00,2270.16,200.56,2175.70,200.87,2111.71,178.72,2018.83" fill="none" stroke="black" stroke-width="10" />
</g>
<g>
<line x1="305.693" y1="1586.54" x2="487.1" y2="1587.79" stroke="black" stroke-width="10" />
<line x1="396.413" y1="1587.16" x2="391.323" y2="2329.64" stroke="black" stroke-width="10" />
</g>
<g>
<line x1="574.814" y1="2191.68" x2="577.995" y2="1727.63" stroke="black" stroke-width="10" />
<line x1="756.221" y1="2192.92" x2="759.402" y2="1728.87" stroke="black" stroke-width="10" />
<polyline points="578.00,1727.63,584.38,1677.73,598.56,1640.58,626.77,1605.15,653.79,1588.93,690.07,1589.18,707.91,1602.35,741.87,1645.18,753.73,1678.89,759.40,1728.87" fill="none" stroke="black" stroke-width="10" />
<polyline points="574.81,2191.68,580.52,2241.66,594.18,2279.01,621.91,2314.82,648.70,2331.41,684.98,2331.65,703.00,2318.82,737.54,2276.36,749.87,2242.82,756.22,2192.92" fill="none" stroke="black" stroke-width="10" />
</g>
<g>
<line x1="844.857" y1="2332.75" x2="849.947" y2="1590.27" stroke="black" stroke-width="10" />
<line x1="849.947" y1="1590.27" x2="963.322" y2="1591.05" stroke="black" stroke-width="10" />
<line x1="960.804" y1="1958.39" x2="847.429" y2="1957.61" stroke="black" stroke-width="10" />
<polyline points="963.36,1591.05,997.13,1622.19,1020.42,1742.26,1019.97,1807.97,995.01,1931.62,960.80,1958.39" fill="none" stroke="black" stroke-width="10" />
</g>
</g>
<g>
<polyline points="3.33,2758.57,17.06,2798.86,422.91,2801.90,381.17,2761.13" fill="none" stroke="black" stroke-width="10" />
<polyline points="408.75,2801.49,400.28,3355.81" fill="none" stroke="black" stroke-width="10" />
<polyline points="17.06,2798.86,9.04,3957.77,13.11,3999.87,41.00,4040.58,418.85,4043.14,451.76,4012.86,461.39,3960.92,424.40,3930.30,424.95,3837.65,448.72,3735.98" fill="none" stroke="black" stroke-width="10" />
<polyline points="0.00,3271.27,405.54,3273.96" fill="none" stroke="black" stroke-width="10" />
<polyline points="212.58,2800.16,216.99,2841.95,213.97,3272.87" fill="none" stroke="black" stroke-width="10" />
<polyline points="535.34,3264.24,558.39,3315.57,1001.18,3318.55,964.13,3308.05" fill="none" stroke="black" stroke-width="10" />
<polyline points="767.26,2763.79,776.04,2804.16,767.67,4045.51" fill="none" stroke="black" stroke-width="10" />
<polyline points="567.67,4003.74,590.61,4044.51,982.30,4047.14,973.45,3995.55" fill="none" stroke="black" stroke-width="10" />
</g>
<g>
<polyline points="372.23,4550.94,395.25,4602.94,392.44,4972.85" fill="none" stroke="black" stroke-width="10" />
<polyline points="285.27,4940.87,299.27,4982.17,508.84,4973.32,499.99,4921.73" fill="none" stroke="black" stroke-width="10" />
<polyline points="316.32,5167.43,365.11,5547.30" fill="none" stroke="black" stroke-width="10" />
<polyline points="451.89,5116.79,493.53,5178.33,397.27,5619.89" fill="none" stroke="black" stroke-width="10" />
<polyline points="275.46,5742.16,293.65,5772.80,471.78,5620.48" fill="none" stroke="black" stroke-width="10" />
<polyline points="591.73,4522.49,619.07,4573.72,623.44,5343.42" fill="none" stroke="black" stroke-width="10" />
<polyline points="625.87,4974.48,733.03,4975.12,728.47,4923.43" fill="none" stroke="black" stroke-width="10" />
<polyline points="515.87,5281.08,534.63,5332.52,535.57,5794.98" fill="none" stroke="black" stroke-width="10" />
<polyline points="538.83,5353.19,744.21,5355.00,744.65,5333.91" fill="none" stroke="black" stroke-width="10" />
<polyline points="744.21,5355.00,727.25,5806.63" fill="none" stroke="black" stroke-width="10" />
<polyline points="540.68,5754.02,732.25,5755.11" fill="none" stroke="black" stroke-width="10" />
</g>
</g>
</svg>