<?xml version="1.0" encoding="UTF-8" ?><!-- DOCTYPE svg PUBLIC "-//W3C//DTD SVG 1.1//EN" "http://www.w3.org/Graphics/SVG/1.1/DTD/svg11.dtd" -->
<svg viewBox="0,0,1024,5800" preserveAspectRatio="xMidYMid" zoomAndPan="magnify" xmlns="http://www.w3.org/2000/svg" xmlns:xlink="http://www.w3.org/1999/xlink">
<g>
<g>
<g>
<line x1="179.14" y1="370.781" x2="174.025" y2="1112.34" stroke="black" stroke-width="10" />
<line x1="174.025" y1="1112.34" x2="298.347" y2="1113.2" stroke="black" stroke-width="10" />
<line x1="176.795" y1="710.693" x2="301.117" y2="711.55" stroke="black" stroke-width="10" />
<line x1="179.14" y1="370.781" x2="292.139" y2="371.56" stroke="black" stroke-width="10" />
<polyline points="292.14,371.56,326.38,427.83,336.31,524.40,336.13,551.47,324.88,645.99,301.12,711.55" fill="none" stroke="black" stroke-width="10" />
<polyline points="301.12,711.55,334.58,775.51,346.67,866.30,346.02,960.99,332.64,1057.40,298.35,1113.20" fill="none" stroke="black" stroke-width="10" />
</g>
<g>
<line x1="450.364" y1="372.651" x2="446.315" y2="959.69" stroke="black" stroke-width="10" />
<line x1="615.83" y1="960.86" x2="619.879" y2="373.821" stroke="black" stroke-width="10" />
<polyline points="615.83,960.86,603.79,1068.96,580.86,1115.15,490.44,1114.52,456.24,1056.35,446.31,959.69" fill="none" stroke="black" stroke-width="10" />
</g>
<g>
<line x1="741.581" y1="648.866" x2="866.234" y2="808.148" stroke="black" stroke-width="10" />
<line x1="717.112" y1="1023.39" x2="751.258" y2="1089.26" stroke="black" stroke-width="10" />
<line x1="857" y1="404.425" x2="879.413" y2="433.548" stroke="black" stroke-width="10" />
<polyline points="857.00,404.42,835.32,375.31,789.39,374.99,742.38,432.60" fill="none" stroke="black" stroke-width="10" />
<polyline points="742.38,432.60,721.24,525.16,720.70,556.20,741.58,648.87" fill="none" stroke="black" stroke-width="10" />
<polyline points="751.26,1089.26,779.34,1113.26,829.50,1112.97,864.50,1059.17" fill="none" stroke="black" stroke-width="10" />
<polyline points="864.50,1059.17,888.00,964.82,888.31,900.91,866.23,808.15" fill="none" stroke="black" stroke-width="10" />
</g>
</g>
<g>
<g>
<line x1="54.8138" y1="1856.98" x2="179.73" y2="2016.26" stroke="black" stroke-width="10" />
<line x1="30.2991" y1="2231.5" x2="64.517" y2="2297.37" stroke="black" stroke-width="10" />
<line x1="170.47" y1="1612.54" x2="192.931" y2="1641.66" stroke="black" stroke-width="10" />
<polyline points="170.47,1612.54,148.74,1583.42,102.72,1583.11,55.61,1640.72" fill="none" stroke="black" stroke-width="10" />
<polyline points="55.61,1640.72,34.43,1733.27,33.89,1764.32,54.81,1856.98" fill="none" stroke="black" stroke-width="10" />
<polyline points="64.52,2297.37,92.65,2321.37,142.92,2321.08,178.00,2267.28" fill="none" stroke="black" stroke-width="10" />
<polyline points="178.00,2267.28,201.54,2172.93,201.85,2109.02,179.73,2016.26" fill="none" stroke="black" stroke-width="10" />
</g>
<g>
<line x1="306.565" y1="1584.51" x2="487.748" y2="1585.76" stroke="black" stroke-width="10" />
<line x1="397.173" y1="1585.14" x2="392.058" y2="2326.69" stroke="black" stroke-width="10" />
</g>
<g>
<line x1="575.328" y1="2188.91" x2="578.525" y2="1725.44" stroke="black" stroke-width="10" />
<line x1="756.511" y1="2190.16" x2="759.708" y2="1726.69" stroke="black" stroke-width="10" />
<polyline points="578.53,1725.44,584.91,1675.60,599.07,1638.49,627.25,1603.11,654.23,1586.91,690.46,1587.16,708.29,1600.32,742.20,1643.10,754.05,1676.77,759.71,1726.69" fill="none" stroke="black" stroke-width="10" />
<polyline points="575.33,2188.91,581.02,2238.83,594.67,2276.13,622.36,2311.90,649.12,2328.47,685.35,2328.72,703.35,2315.90,737.85,2273.50,750.16,2240.00,756.51,2190.16" fill="none" stroke="black" stroke-width="10" />
</g>
<g>
<line x1="845.032" y1="2329.82" x2="850.147" y2="1588.26" stroke="black" stroke-width="10" />
<line x1="850.147" y1="1588.26" x2="963.382" y2="1589.04" stroke="black" stroke-width="10" />
<line x1="960.851" y1="1955.93" x2="847.616" y2="1955.15" stroke="black" stroke-width="10" />
<polyline points="963.41,1589.04,997.14,1620.14,1020.40,1740.07,1019.95,1805.70,995.01,1929.19,960.85,1955.93" fill="none" stroke="black" stroke-width="10" />
</g>
</g>
<g>
<polyline points="3.61,2755.56,17.17,2795.81,422.45,2798.54,380.84,2758.16" fill="none" stroke="black" stroke-width="10" />
<polyline points="408.42,2798.47,399.98,3351.91" fill="none" stroke="black" stroke-width="10" />
<polyline points="17.17,2795.81,9.49,3953.23,13.50,3995.28,41.50,4036.11,418.72,4038.71,451.41,4007.99,461.01,3956.60,423.98,3926.05,424.80,3833.52,448.57,3731.70" fill="none" stroke="black" stroke-width="10" />
<polyline points="-0.00,3267.41,405.28,3270.14" fill="none" stroke="black" stroke-width="10" />
<polyline points="212.56,2797.12,217.09,2838.76,214.05,3269.27" fill="none" stroke="black" stroke-width="10" />
<polyline points="535.41,3260.39,558.08,3311.88,1000.30,3314.75,963.50,3304.34" fill="none" stroke="black" stroke-width="10" />
<polyline points="766.49,2760.70,775.83,2800.98,766.97,4041.07" fill="none" stroke="black" stroke-width="10" />
<polyline points="567.42,3999.10,590.28,4039.85,981.53,4042.52,972.43,3991.04" fill="none" stroke="black" stroke-width="10" />
</g>
<g>
<polyline points="371.62,4545.99,394.75,4597.53,392.05,4966.79" fill="none" stroke="black" stroke-width="10" />
<polyline points="285.45,4935.04,298.91,4976.21,508.43,4967.77,499.32,4916.29" fill="none" stroke="black" stroke-width="10" />
<polyline points="316.45,5161.42,365.09,5540.74" fill="none" stroke="black" stroke-width="10" />
<polyline points="451.82,5110.59,493.05,5172.45,397.24,5613.34" fill="none" stroke="black" stroke-width="10" />
<polyline points="275.46,5735.30,293.74,5766.21,471.58,5613.65" fill="none" stroke="black" stroke-width="10" />
<polyline points="591.23,4517.09,618.57,4568.61,622.67,5337.13" fill="none" stroke="black" stroke-width="10" />
<polyline points="625.27,4968.79,732.34,4969.26,727.91,4917.81" fill="none" stroke="black" stroke-width="10" />
<polyline points="515.52,5274.91,533.97,5326.43,535.60,5788.30" fill="none" stroke="black" stroke-width="10" />
<polyline points="538.37,5347.00,743.57,5348.40,743.86,5327.85" fill="none" stroke="black" stroke-width="10" />
<polyline points="743.57,5348.40,726.64,5799.91" fill="none" stroke="black" stroke-width="10" />
<polyline points="540.38,5747.17,731.56,5748.50" fill="none" stroke="black" stroke-width="10" />
</g>
</g>
</svg>