<?xml version="1.0" encoding="UTF-8" ?><!-- DOCTYPE svg PUBLIC "-//W3C//DTD SVG 1.1//EN" "http://www.w3.org/Graphics/SVG/1.1/DTD/svg11.dtd" -->
<svg viewBox="0,0,1024,410" preserveAspectRatio="xMidYMid" zoomAndPan="magnify" xmlns="http://www.w3.org/2000/svg" xmlns:xlink="http://www.w3.org/1999/xlink">
<polygon points="25.60,25.60,25.60,-25.60,-25.60,-25.60,-25.60,25.60" fill="none" stroke="black" stroke-width="10" />
<polygon points="25.60,230.43,25.60,179.22,-25.60,179.22,-25.60,230.43" fill="none" stroke="black" stroke-width="10" />
<polygon points="25.60,435.25,25.60,384.04,-25.60,384.04,-25.60,435.25" fill="none" stroke="black" stroke-width="10" />
<polygon points="230.42,384.11,179.21,384.10,179.20,435.31,230.41,435.32" fill="none" stroke="black" stroke-width="10" />
<polygon points="435.24,384.17,384.04,384.15,384.02,435.36,435.23,435.37" fill="none" stroke="black" stroke-width="10" />
<polygon points="1049.60,25.99,1049.60,-25.22,998.40,-25.22,998.40,25.99" fill="none" stroke="black" stroke-width="10" />
<polygon points="1049.60,230.81,1049.60,179.60,998.40,179.60,998.40,230.81" fill="none" stroke="black" stroke-width="10" />
<polygon points="1049.60,435.63,1049.60,384.43,998.40,384.43,998.40,435.63" fill="none" stroke="black" stroke-width="10" />
<polygon points="793.59,435.65,844.79,435.65,844.79,384.44,793.59,384.44" fill="none" stroke="black" stroke-width="10" />
<polygon points="588.76,435.66,639.97,435.65,639.97,384.45,588.76,384.45" fill="none" stroke="black" stroke-width="10" />
</svg>