<?xml version="1.0" encoding="UTF-8" ?><!-- DOCTYPE svg PUBLIC "-//W3C//DTD SVG 1.1//EN" "http://www.w3.org/Graphics/SVG/1.1/DTD/svg11.dtd" -->
<svg viewBox="0,0,1024,3880" preserveAspectRatio="xMidYMid" zoomAndPan="magnify" xmlns="http://www.w3.org/2000/svg" xmlns:xlink="http://www.w3.org/1999/xlink">
<g>
<g>
<line x1="271.82" y1="871.013" x2="302.071" y2="1367.4" stroke="black" stroke-width="10" />
<line x1="302.071" y1="1367.4" x2="336.533" y2="920.7" stroke="black" stroke-width="10" />
<line x1="336.533" y1="920.7" x2="370.152" y2="1368.67" stroke="black" stroke-width="10" />
<line x1="370.152" y1="1368.67" x2="401.844" y2="871.013" stroke="black" stroke-width="10" />
</g>
<g>
<line x1="453.371" y1="1367.4" x2="513.895" y2="871.013" stroke="black" stroke-width="10" />
<line x1="513.895" y1="871.013" x2="574.397" y2="1367.4" stroke="black" stroke-width="10" />
<line x1="559.283" y1="1243.3" x2="468.507" y2="1243.3" stroke="black" stroke-width="10" />
</g>
<g>
<line x1="634.921" y1="871.013" x2="695.445" y2="1108.84" stroke="black" stroke-width="10" />
<line x1="695.445" y1="1108.84" x2="752.18" y2="871.013" stroke="black" stroke-width="10" />
<line x1="695.445" y1="1357.04" x2="695.445" y2="1104.97" stroke="black" stroke-width="10" />
</g>
</g>
<g>
<g>
<line x1="6.04358e-09" y1="1493.83" x2="121.279" y2="1493.83" stroke="black" stroke-width="10" />
<line x1="60.6507" y1="1493.83" x2="60.6507" y2="1990.22" stroke="black" stroke-width="10" />
</g>
<g>
<line x1="182.685" y1="1897.14" x2="182.685" y2="1586.9" stroke="black" stroke-width="10" />
<line x1="303.964" y1="1897.14" x2="303.964" y2="1586.9" stroke="black" stroke-width="10" />
<polyline points="182.69,1586.90,186.73,1553.52,196.03,1528.61,214.73,1504.80,232.72,1493.83,256.97,1493.83,268.96,1502.56,291.86,1531.04,299.94,1553.52,303.96,1586.90" fill="none" stroke="black" stroke-width="10" />
<polyline points="182.69,1897.14,186.73,1930.53,196.03,1955.44,214.73,1979.25,232.72,1990.22,256.97,1990.22,268.96,1981.55,291.86,1953.01,299.94,1930.53,303.96,1897.14" fill="none" stroke="black" stroke-width="10" />
</g>
<g>
<line x1="545.79" y1="1493.83" x2="545.79" y2="1990.22" stroke="black" stroke-width="10" />
<line x1="545.79" y1="1990.22" x2="629.182" y2="1990.22" stroke="black" stroke-width="10" />
<line x1="545.79" y1="1721.36" x2="629.182" y2="1721.36" stroke="black" stroke-width="10" />
<line x1="545.79" y1="1493.83" x2="621.587" y2="1493.83" stroke="black" stroke-width="10" />
<polyline points="621.59,1493.83,644.82,1531.34,651.92,1595.93,651.92,1614.05,644.82,1677.37,629.18,1721.36" fill="none" stroke="black" stroke-width="10" />
<polyline points="629.18,1721.36,651.92,1764.02,660.45,1824.73,660.45,1888.12,651.92,1952.71,629.18,1990.22" fill="none" stroke="black" stroke-width="10" />
</g>
<g>
<line x1="727.72" y1="1493.83" x2="727.72" y2="1886.78" stroke="black" stroke-width="10" />
<line x1="841.426" y1="1886.78" x2="841.426" y2="1493.83" stroke="black" stroke-width="10" />
<polyline points="841.43,1886.78,833.85,1959.19,818.68,1990.22,758.03,1990.22,734.83,1951.44,727.72,1886.78" fill="none" stroke="black" stroke-width="10" />
</g>
<g>
<line x1="924.329" y1="1677.37" x2="1008.68" y2="1783.41" stroke="black" stroke-width="10" />
<line x1="909.65" y1="1928.17" x2="932.857" y2="1972.1" stroke="black" stroke-width="10" />
<line x1="1000.61" y1="1513.22" x2="1015.78" y2="1532.61" stroke="black" stroke-width="10" />
<polyline points="1000.61,1513.22,985.94,1493.83,955.13,1493.83,923.86,1532.61" fill="none" stroke="black" stroke-width="10" />
<polyline points="923.86,1532.61,910.12,1594.66,909.89,1615.44,924.33,1677.37" fill="none" stroke="black" stroke-width="10" />
<polyline points="932.86,1972.10,951.80,1988.03,985.45,1987.61,1008.68,1951.44" fill="none" stroke="black" stroke-width="10" />
<polyline points="1008.68,1951.44,1024.00,1888.18,1023.91,1845.40,1008.68,1783.41" fill="none" stroke="black" stroke-width="10" />
</g>
</g>
<g>
<g>
<g>
<line x1="196.473" y1="2726.34" x2="195.725" y2="2544.2" stroke="black" stroke-width="10" />
<line x1="195.778" y1="2557.21" x2="275.285" y2="2556.88" stroke="black" stroke-width="10" />
<line x1="275.231" y1="2543.87" x2="275.98" y2="2726.01" stroke="black" stroke-width="10" />
<line x1="275.926" y1="2713" x2="196.42" y2="2713.33" stroke="black" stroke-width="10" />
<polyline points="304.94,2738.90,312.47,2727.10,319.30,2714.06,325.44,2699.79,331.23,2684.89,335.98,2668.77,340.04,2652.02,343.07,2635.28,345.40,2617.31,347.05,2599.33,347.67,2581.36,347.62,2569.59,347.14,2452.50,455.55,2452.06,462.78,2452.03,463.58,2647.18,463.96,2738.25,405.92,2686.45" fill="none" stroke="black" stroke-width="10" />
<line x1="456.195" y1="2608.18" x2="347.777" y2="2608.62" stroke="black" stroke-width="10" />
<polyline points="347.46,2530.56,455.87,2530.12,463.10,2530.09" fill="none" stroke="black" stroke-width="10" />
<line x1="463.423" y1="2608.15" x2="456.195" y2="2608.18" stroke="black" stroke-width="10" />
<line x1="426.375" y1="2387.12" x2="317.957" y2="2387.57" stroke="black" stroke-width="10" />
<line x1="281.764" y1="2374.71" x2="195.03" y2="2375.06" stroke="black" stroke-width="10" />
<line x1="195.351" y1="2453.12" x2="282.085" y2="2452.77" stroke="black" stroke-width="10" />
<line x1="288.618" y1="2283.61" x2="180.2" y2="2284.05" stroke="black" stroke-width="10" />
<line x1="237.97" y1="2270.8" x2="201.456" y2="2179.88" stroke="black" stroke-width="10" />
<line x1="288.618" y1="2283.61" x2="295.846" y2="2283.58" stroke="black" stroke-width="10" />
<polyline points="331.77,2231.39,440.19,2230.94,490.78,2230.73" fill="none" stroke="black" stroke-width="10" />
<polyline points="469.42,2308.88,454.97,2308.94,346.55,2309.39" fill="none" stroke="black" stroke-width="10" />
<line x1="404.478" y1="2335.17" x2="403.676" y2="2140.02" stroke="black" stroke-width="10" />
<line x1="404.478" y1="2335.17" x2="404.638" y2="2374.2" stroke="black" stroke-width="10" />
<line x1="426.375" y1="2387.12" x2="498.654" y2="2386.83" stroke="black" stroke-width="10" />
</g>
<g>
<line x1="543.411" y1="2724.91" x2="542.716" y2="2555.78" stroke="black" stroke-width="10" />
<line x1="542.77" y1="2568.79" x2="615.048" y2="2568.49" stroke="black" stroke-width="10" />
<line x1="614.995" y1="2555.48" x2="615.69" y2="2724.62" stroke="black" stroke-width="10" />
<line x1="615.636" y1="2711.6" x2="543.358" y2="2711.9" stroke="black" stroke-width="10" />
<polyline points="629.88,2659.50,638.80,2653.89,647.72,2647.04,656.29,2638.33,664.51,2628.39,672.04,2617.82,679.22,2605.40,685.36,2592.37,691.15,2578.09,696.26,2563.20,700.32,2547.08,701.68,2542.12,700.87,2346.96" fill="none" stroke="black" stroke-width="10" />
<polyline points="715.33,2346.91,715.01,2268.84,657.19,2269.08,657.51,2347.14,715.33,2346.91" fill="none" stroke="black" stroke-width="10" />
<polyline points="758.70,2346.73,816.52,2346.49,816.20,2268.43,758.38,2268.67,758.70,2346.73" fill="none" stroke="black" stroke-width="10" />
<line x1="780.381" y1="2346.64" x2="781.182" y2="2541.79" stroke="black" stroke-width="10" />
<line x1="745.043" y1="2541.94" x2="636.625" y2="2542.38" stroke="black" stroke-width="10" />
<line x1="614.621" y1="2464.41" x2="542.342" y2="2464.71" stroke="black" stroke-width="10" />
<line x1="541.968" y1="2373.64" x2="614.247" y2="2373.34" stroke="black" stroke-width="10" />
<polyline points="650.49,2399.21,758.91,2398.77,823.96,2398.50" fill="none" stroke="black" stroke-width="10" />
<polyline points="817.00,2463.58,766.41,2463.79,657.99,2464.23" fill="none" stroke="black" stroke-width="10" />
<line x1="680.26" y1="2607.26" x2="680.794" y2="2737.36" stroke="black" stroke-width="10" />
<line x1="666.392" y1="2750.43" x2="731.282" y2="2711.13" stroke="black" stroke-width="10" />
<line x1="767.208" y1="2658.94" x2="817.482" y2="2580.67" stroke="black" stroke-width="10" />
<line x1="846.233" y1="2541.52" x2="745.043" y2="2541.94" stroke="black" stroke-width="10" />
<polyline points="730.64,2555.01,737.28,2580.38,745.30,2604.51,754.34,2626.78,764.41,2647.80,775.50,2667.58,787.62,2684.88,800.42,2700.31,813.90,2713.89,828.06,2725.60,842.55,2734.83,847.04,2736.67" fill="none" stroke="black" stroke-width="10" />
<polyline points="837.67,2216.30,750.93,2216.66,642.52,2217.10" fill="none" stroke="black" stroke-width="10" />
<line x1="635.609" y1="2295.19" x2="527.191" y2="2295.64" stroke="black" stroke-width="10" />
<line x1="584.961" y1="2282.39" x2="548.447" y2="2191.47" stroke="black" stroke-width="10" />
<line x1="736.479" y1="2216.71" x2="736.212" y2="2151.66" stroke="black" stroke-width="10" />
</g>
</g>
<g>
<g>
<polyline points="199.38,3432.88,199.11,3367.83,198.31,3172.67,197.51,2977.52" fill="none" stroke="black" stroke-width="10" />
<polyline points="197.61,3003.54,306.03,3003.10,414.45,3002.65,450.59,3002.50" fill="none" stroke="black" stroke-width="10" />
<polyline points="450.48,2976.48,451.28,3171.64,451.50,3223.68,343.08,3224.12,234.66,3224.57,198.52,3224.72" fill="none" stroke="black" stroke-width="10" />
<polyline points="199.38,3432.88,199.76,3441.55,200.82,3450.22,202.23,3458.27,203.99,3466.31,206.08,3473.74,208.87,3481.16,211.65,3487.97,214.77,3494.77,218.24,3500.33,222.05,3505.89,226.20,3510.21,230.34,3514.53,234.83,3517.61,239.32,3520.69,244.14,3522.53,248.62,3523.75,253.45,3524.35,257.57,3523.71,365.99,3523.27,474.41,3522.82,488.86,3522.76,466.65,3392.75" fill="none" stroke="black" stroke-width="10" />
<polyline points="328.62,3224.18,328.52,3198.16,327.71,3003.01" fill="none" stroke="black" stroke-width="10" />
</g>
<g>
<polyline points="561.14,3522.46,669.56,3522.02,777.98,3521.57,814.12,3521.42" fill="none" stroke="black" stroke-width="10" />
<polyline points="684.02,3521.96,683.38,3365.84,682.57,3170.69,681.77,2975.53" fill="none" stroke="black" stroke-width="10" />
<line x1="646.542" y1="3196.85" x2="538.124" y2="3197.3" stroke="black" stroke-width="10" />
<polyline points="646.54,3196.85,754.96,3196.41,841.69,3196.05" fill="none" stroke="black" stroke-width="10" />
</g>
</g>
</g>
<g>
<g>
<line x1="297.362" y1="349.021" x2="274.668" y2="266.311" stroke="black" stroke-width="10" />
<line x1="266.158" y1="537.772" x2="297.827" y2="537.772" stroke="black" stroke-width="10" />
<line x1="297.827" y1="537.772" x2="297.827" y2="642.478" stroke="black" stroke-width="10" />
<line x1="297.827" y1="642.478" x2="274.668" y2="725.189" stroke="black" stroke-width="10" />
<polyline points="274.67,266.31,249.60,248.19,235.51,248.25,213.19,267.58,190.03,349.02" fill="none" stroke="black" stroke-width="10" />
<polyline points="190.03,349.02,183.40,453.73,183.34,536.50,190.03,643.75" fill="none" stroke="black" stroke-width="10" />
<polyline points="190.03,643.75,212.73,722.58,235.88,744.58,251.53,744.03,274.67,725.19" fill="none" stroke="black" stroke-width="10" />
</g>
<g>
<line x1="402.321" y1="248.193" x2="447.708" y2="248.193" stroke="black" stroke-width="10" />
<line x1="425.014" y1="248.193" x2="425.014" y2="744.579" stroke="black" stroke-width="10" />
<line x1="402.321" y1="744.579" x2="447.708" y2="744.579" stroke="black" stroke-width="10" />
</g>
<g>
<line x1="546.041" y1="248.193" x2="606.565" y2="744.579" stroke="black" stroke-width="10" />
<line x1="606.565" y1="744.579" x2="667.067" y2="248.193" stroke="black" stroke-width="10" />
</g>
<g>
<line x1="833.503" y1="248.193" x2="727.591" y2="248.193" stroke="black" stroke-width="10" />
<line x1="727.591" y1="248.193" x2="727.591" y2="744.579" stroke="black" stroke-width="10" />
<line x1="727.591" y1="744.579" x2="841.061" y2="744.579" stroke="black" stroke-width="10" />
<line x1="803.23" y1="496.386" x2="727.591" y2="496.386" stroke="black" stroke-width="10" />
</g>
</g>
</svg>