<?xml version="1.0" encoding="UTF-8" ?><!-- DOCTYPE svg PUBLIC "-//W3C//DTD SVG 1.1//EN" "http://www.w3.org/Graphics/SVG/1.1/DTD/svg11.dtd" -->
<svg viewBox="0,0,1024,554" preserveAspectRatio="xMidYMid" zoomAndPan="magnify" xmlns="http://www.w3.org/2000/svg" xmlns:xlink="http://www.w3.org/1999/xlink">
<line x1="1024" y1="507.366" x2="562.581" y2="461.395" stroke="rgb(150, 150, 150)" stroke-width="10" />
<line x1="1024" y1="507.366" x2="562.611" y2="553.618" stroke="rgb(150, 150, 150)" stroke-width="10" />
<line x1="562.611" y1="553.618" x2="562.542" y2="516.668" stroke="rgb(150, 150, 150)" stroke-width="10" />
<line x1="562.649" y1="498.344" x2="562.581" y2="461.395" stroke="rgb(150, 150, 150)" stroke-width="10" />
<line x1="562.542" y1="516.668" x2="0" y2="535.003" stroke="rgb(150, 150, 150)" stroke-width="10" />
<line x1="0.0386058" y1="479.73" x2="0" y2="535.003" stroke="rgb(150, 150, 150)" stroke-width="10" />
<line x1="1023.9" y1="46.4306" x2="562.733" y2="0" stroke="rgb(150, 150, 150)" stroke-width="10" />
<line x1="1023.9" y1="46.4306" x2="562.815" y2="92.3993" stroke="rgb(150, 150, 150)" stroke-width="10" />
<line x1="562.815" y1="92.3993" x2="562.8" y2="55.6269" stroke="rgb(150, 150, 150)" stroke-width="10" />
<line x1="562.801" y1="36.9491" x2="562.733" y2="0" stroke="rgb(150, 150, 150)" stroke-width="10" />
<line x1="562.8" y1="55.6269" x2="472.044" y2="55.4108" stroke="rgb(150, 150, 150)" stroke-width="10" />
<line x1="562.801" y1="36.9491" x2="439.355" y2="36.8765" stroke="rgb(150, 150, 150)" stroke-width="10" />
<line x1="125.276" y1="456.161" x2="361.189" y2="80.072" stroke="rgb(150, 150, 150)" stroke-width="10" />
<line x1="238.902" y1="434.33" x2="427.31" y2="82.2598" stroke="rgb(150, 150, 150)" stroke-width="10" />
<path d="M361.13,80.23 A92.24,92.24 212.10 0,1 439.28,37.01" fill="none" stroke="rgb(150, 150, 150)" stroke-width="10" />
<path d="M427.24,82.27 A50.73,50.73 208.14 0,1 471.98,55.46" fill="none" stroke="rgb(150, 150, 150)" stroke-width="10" />
<line x1="0.0386058" y1="479.73" x2="76.4787" y2="482.299" stroke="rgb(150, 150, 150)" stroke-width="10" />
<line x1="270.3" y1="488.487" x2="562.649" y2="498.344" stroke="rgb(150, 150, 150)" stroke-width="10" />
<path d="M76.46,482.23 A55.35,55.35 91.89 0,0 125.16,456.33" fill="none" stroke="rgb(150, 150, 150)" stroke-width="10" />
<path d="M238.95,434.33 A36.90,36.90 208.14 0,0 270.27,488.61" fill="none" stroke="rgb(150, 150, 150)" stroke-width="10" />
</svg>