<?xml version="1.0" encoding="UTF-8" ?><!-- DOCTYPE svg PUBLIC "-//W3C//DTD SVG 1.1//EN" "http://www.w3.org/Graphics/SVG/1.1/DTD/svg11.dtd" -->
<svg viewBox="0,0,1024,290" preserveAspectRatio="xMidYMid" zoomAndPan="magnify" xmlns="http://www.w3.org/2000/svg" xmlns:xlink="http://www.w3.org/1999/xlink">
<line x1="179.582" y1="290.388" x2="332.418" y2="290.388" stroke="black" stroke-width="10" />
<line x1="179.582" y1="290.388" x2="332.418" y2="290.388" stroke="black" stroke-width="10" />
<line x1="932.299" y1="122.269" x2="748.896" y2="122.269" stroke="black" stroke-width="10" />
<line x1="748.896" y1="122.269" x2="748.896" y2="168.119" stroke="black" stroke-width="10" />
<line x1="748.896" y1="168.119" x2="932.299" y2="168.119" stroke="black" stroke-width="10" />
<line x1="932.299" y1="168.119" x2="886.448" y2="213.97" stroke="black" stroke-width="10" />
<line x1="886.448" y1="213.97" x2="955.224" y2="213.97" stroke="black" stroke-width="10" />
<line x1="955.224" y1="213.97" x2="1024" y2="145.194" stroke="black" stroke-width="10" />
<line x1="1024" y1="145.194" x2="955.224" y2="76.4179" stroke="black" stroke-width="10" />
<line x1="955.224" y1="76.4179" x2="886.448" y2="76.4179" stroke="black" stroke-width="10" />
<line x1="886.448" y1="76.4179" x2="932.299" y2="122.269" stroke="black" stroke-width="10" />
<g>
<line x1="515.821" y1="168.119" x2="438.859" y2="168.119" stroke="black" stroke-width="10" />
<path d="M438.86,168.12 A163.53,163.53 1.50 0,0 442.47,137.55" fill="white" fill-opacity="0.5" stroke="black" stroke-width="10" />
<line x1="442.465" y1="137.552" x2="424.119" y2="137.552" stroke="black" stroke-width="10" />
<path d="M424.12,137.55 A145.19,145.19 1.50 0,1 420.04,168.12" fill="white" fill-opacity="0.5" stroke="black" stroke-width="10" />
<line x1="420.044" y1="168.119" x2="362.985" y2="168.119" stroke="black" stroke-width="10" />
<line x1="362.985" y1="168.119" x2="362.985" y2="186.46" stroke="black" stroke-width="10" />
<line x1="362.985" y1="186.46" x2="414.267" y2="186.46" stroke="black" stroke-width="10" />
<path d="M414.27,186.46 A145.19,145.19 1.50 0,1 362.99,252.18" fill="white" fill-opacity="0.5" stroke="black" stroke-width="10" />
<line x1="362.985" y1="252.179" x2="373.597" y2="267.138" stroke="black" stroke-width="10" />
<path d="M373.60,267.14 A163.53,163.53 1.50 0,0 404.25,238.87" fill="white" fill-opacity="0.5" stroke="black" stroke-width="10" />
<line x1="404.251" y1="238.874" x2="404.251" y2="290.388" stroke="black" stroke-width="10" />
<line x1="404.251" y1="290.388" x2="422.591" y2="290.388" stroke="black" stroke-width="10" />
<line x1="422.591" y1="290.388" x2="422.591" y2="284.275" stroke="black" stroke-width="10" />
<line x1="422.591" y1="284.275" x2="477.612" y2="284.275" stroke="black" stroke-width="10" />
<line x1="477.612" y1="284.275" x2="477.612" y2="290.388" stroke="black" stroke-width="10" />
<line x1="477.612" y1="290.388" x2="495.952" y2="290.388" stroke="black" stroke-width="10" />
<line x1="495.952" y1="290.388" x2="495.952" y2="217.027" stroke="black" stroke-width="10" />
<line x1="495.952" y1="217.027" x2="419.722" y2="217.027" stroke="black" stroke-width="10" />
<path d="M419.72,217.03 A163.53,163.53 1.50 0,0 433.78,186.46" fill="white" fill-opacity="0.5" stroke="black" stroke-width="10" />
<line x1="433.784" y1="186.46" x2="515.821" y2="186.46" stroke="black" stroke-width="10" />
<line x1="515.821" y1="186.46" x2="515.821" y2="168.119" stroke="black" stroke-width="10" />
<polygon points="477.61,235.37,422.59,235.37,422.59,265.93,477.61,265.93" fill="white" fill-opacity="0.5" stroke="black" stroke-width="10" />
</g>
<line x1="225.433" y1="157.421" x2="256" y2="157.421" stroke="black" stroke-width="10" />
<line x1="256" y1="157.421" x2="256" y2="172.704" stroke="black" stroke-width="10" />
<line x1="256" y1="172.704" x2="205.564" y2="172.704" stroke="black" stroke-width="10" />
<line x1="205.564" y1="172.704" x2="205.564" y2="186.46" stroke="black" stroke-width="10" />
<path d="M205.56,186.46 A4.59,4.59 90.00 0,0 210.15,191.04" fill="none" stroke="black" stroke-width="10" />
<line x1="210.149" y1="191.045" x2="240.716" y2="191.045" stroke="black" stroke-width="10" />
<line x1="240.716" y1="191.045" x2="240.716" y2="206.328" stroke="black" stroke-width="10" />
<line x1="240.716" y1="206.328" x2="210.149" y2="206.328" stroke="black" stroke-width="10" />
<path d="M210.15,206.33 A19.87,19.87 90.00 0,1 190.28,186.46" fill="none" stroke="black" stroke-width="10" />
<line x1="190.281" y1="186.46" x2="190.281" y2="172.704" stroke="black" stroke-width="10" />
<line x1="190.281" y1="172.704" x2="179.582" y2="172.704" stroke="black" stroke-width="10" />
<line x1="179.582" y1="172.704" x2="179.582" y2="157.421" stroke="black" stroke-width="10" />
<line x1="179.582" y1="157.421" x2="210.149" y2="157.421" stroke="black" stroke-width="10" />
<line x1="210.149" y1="157.421" x2="210.149" y2="137.552" stroke="black" stroke-width="10" />
<line x1="210.149" y1="137.552" x2="225.433" y2="137.552" stroke="black" stroke-width="10" />
<line x1="225.433" y1="137.552" x2="225.433" y2="157.421" stroke="black" stroke-width="10" />
<line x1="263.642" y1="249.122" x2="317.134" y2="249.122" stroke="black" stroke-width="10" />
<line x1="317.134" y1="249.122" x2="317.134" y2="264.406" stroke="black" stroke-width="10" />
<line x1="317.134" y1="264.406" x2="263.642" y2="264.406" stroke="black" stroke-width="10" />
<line x1="263.642" y1="264.406" x2="263.642" y2="275.104" stroke="black" stroke-width="10" />
<line x1="263.642" y1="275.104" x2="332.418" y2="275.104" stroke="black" stroke-width="10" />
<line x1="332.418" y1="275.104" x2="332.418" y2="290.388" stroke="black" stroke-width="10" />
<line x1="332.418" y1="290.388" x2="179.582" y2="290.388" stroke="black" stroke-width="10" />
<line x1="179.582" y1="290.388" x2="179.582" y2="275.104" stroke="black" stroke-width="10" />
<line x1="179.582" y1="275.104" x2="248.358" y2="275.104" stroke="black" stroke-width="10" />
<line x1="248.358" y1="275.104" x2="248.358" y2="264.406" stroke="black" stroke-width="10" />
<line x1="248.358" y1="264.406" x2="194.866" y2="264.406" stroke="black" stroke-width="10" />
<line x1="194.866" y1="264.406" x2="194.866" y2="249.122" stroke="black" stroke-width="10" />
<line x1="194.866" y1="249.122" x2="248.358" y2="249.122" stroke="black" stroke-width="10" />
<line x1="248.358" y1="249.122" x2="248.358" y2="238.424" stroke="black" stroke-width="10" />
<line x1="248.358" y1="238.424" x2="188.752" y2="238.424" stroke="black" stroke-width="10" />
<line x1="188.752" y1="238.424" x2="188.752" y2="223.14" stroke="black" stroke-width="10" />
<line x1="188.752" y1="223.14" x2="323.248" y2="223.14" stroke="black" stroke-width="10" />
<line x1="323.248" y1="223.14" x2="323.248" y2="238.424" stroke="black" stroke-width="10" />
<line x1="323.248" y1="238.424" x2="263.642" y2="238.424" stroke="black" stroke-width="10" />
<line x1="263.642" y1="238.424" x2="263.642" y2="249.122" stroke="black" stroke-width="10" />
<g>
<line x1="265.17" y1="143.666" x2="326.304" y2="143.666" stroke="black" stroke-width="10" />
<line x1="326.304" y1="143.666" x2="326.304" y2="203.272" stroke="black" stroke-width="10" />
<path d="M326.30,203.27 A15.28,15.28 90.00 0,1 311.02,218.56" fill="white" fill-opacity="0.5" stroke="black" stroke-width="10" />
<line x1="311.021" y1="218.555" x2="291.152" y2="218.555" stroke="black" stroke-width="10" />
<line x1="291.152" y1="218.555" x2="291.152" y2="203.272" stroke="black" stroke-width="10" />
<line x1="291.152" y1="203.272" x2="311.021" y2="203.272" stroke="black" stroke-width="10" />
<line x1="311.021" y1="203.272" x2="311.021" y2="195.63" stroke="black" stroke-width="10" />
<line x1="311.021" y1="195.63" x2="273.387" y2="195.63" stroke="black" stroke-width="10" />
<path d="M273.39,195.63 A76.42,76.42 0.00 0,1 256.67,218.94" fill="white" fill-opacity="0.5" stroke="black" stroke-width="10" />
<line x1="256.669" y1="218.937" x2="246.142" y2="207.857" stroke="black" stroke-width="10" />
<path d="M246.14,207.86 A61.13,61.13 0.00 0,0 265.17,163.53" fill="white" fill-opacity="0.5" stroke="black" stroke-width="10" />
<line x1="265.17" y1="163.534" x2="265.17" y2="143.666" stroke="black" stroke-width="10" />
<polygon points="280.45,163.53,311.02,163.53,311.02,155.89,280.45,155.89" fill="white" fill-opacity="0.5" stroke="black" stroke-width="10" />
<line x1="277.826" y1="183.403" x2="311.021" y2="183.403" stroke="black" stroke-width="10" />
<line x1="311.021" y1="183.403" x2="311.021" y2="175.761" stroke="black" stroke-width="10" />
<line x1="311.021" y1="175.761" x2="279.469" y2="175.761" stroke="black" stroke-width="10" />
<path d="M279.47,175.76 A76.42,76.42 0.00 0,1 277.83,183.40" fill="white" fill-opacity="0.5" stroke="black" stroke-width="10" />
</g>
<line x1="0" y1="8.70697e-08" x2="15.2836" y2="8.70697e-08" stroke="black" stroke-width="10" />
<line x1="15.2836" y1="8.70697e-08" x2="15.2836" y2="76.4179" stroke="black" stroke-width="10" />
<line x1="15.2836" y1="76.4179" x2="53.4925" y2="76.4179" stroke="black" stroke-width="10" />
<line x1="53.4925" y1="76.4179" x2="53.4925" y2="91.7015" stroke="black" stroke-width="10" />
<line x1="53.4925" y1="91.7015" x2="0" y2="91.7015" stroke="black" stroke-width="10" />
<line x1="0" y1="91.7015" x2="0" y2="8.70697e-08" stroke="black" stroke-width="10" />
<line x1="267.463" y1="45.8507" x2="301.851" y2="8.70697e-08" stroke="black" stroke-width="10" />
<line x1="301.851" y1="8.70697e-08" x2="320.955" y2="8.70697e-08" stroke="black" stroke-width="10" />
<line x1="320.955" y1="8.70697e-08" x2="290.866" y2="40.1194" stroke="black" stroke-width="10" />
<line x1="290.866" y1="40.1194" x2="320.955" y2="91.7015" stroke="black" stroke-width="10" />
<line x1="320.955" y1="91.7015" x2="301.851" y2="91.7015" stroke="black" stroke-width="10" />
<line x1="301.851" y1="91.7015" x2="280.119" y2="54.4478" stroke="black" stroke-width="10" />
<line x1="280.119" y1="54.4478" x2="267.463" y2="71.3234" stroke="black" stroke-width="10" />
<line x1="267.463" y1="71.3234" x2="267.463" y2="91.7015" stroke="black" stroke-width="10" />
<line x1="267.463" y1="91.7015" x2="252.179" y2="91.7015" stroke="black" stroke-width="10" />
<line x1="252.179" y1="91.7015" x2="252.179" y2="8.70697e-08" stroke="black" stroke-width="10" />
<line x1="252.179" y1="8.70697e-08" x2="267.463" y2="8.70697e-08" stroke="black" stroke-width="10" />
<line x1="267.463" y1="8.70697e-08" x2="267.463" y2="45.8507" stroke="black" stroke-width="10" />
<polygon points="443.22,0.00,458.51,0.00,458.51,91.70,443.22,91.70" fill="white" fill-opacity="0.5" stroke="black" stroke-width="10" />
<path d="M534.93,62.53 A30.57,24.84 87.95 1,1 532.17,25.47" fill="none" stroke="black" stroke-width="10" />
<line x1="532.17" y1="25.4655" x2="547.168" y2="20.5635" stroke="black" stroke-width="10" />
<path d="M547.17,20.56 A45.85,40.12 87.95 1,0 534.93,85.13" fill="none" stroke="black" stroke-width="10" />
<line x1="534.925" y1="85.1327" x2="534.925" y2="91.7015" stroke="black" stroke-width="10" />
<line x1="534.925" y1="91.7015" x2="550.209" y2="91.7015" stroke="black" stroke-width="10" />
<line x1="550.209" y1="91.7015" x2="550.209" y2="42.0299" stroke="black" stroke-width="10" />
<line x1="550.209" y1="42.0299" x2="508.179" y2="42.0299" stroke="black" stroke-width="10" />
<line x1="508.179" y1="42.0299" x2="508.179" y2="57.3134" stroke="black" stroke-width="10" />
<line x1="508.179" y1="57.3134" x2="534.925" y2="57.3134" stroke="black" stroke-width="10" />
<line x1="534.925" y1="57.3134" x2="534.925" y2="62.5349" stroke="black" stroke-width="10" />
<line x1="618.985" y1="38.209" x2="618.985" y2="8.70697e-08" stroke="black" stroke-width="10" />
<line x1="618.985" y1="8.70697e-08" x2="634.269" y2="8.70697e-08" stroke="black" stroke-width="10" />
<line x1="634.269" y1="8.70697e-08" x2="634.269" y2="91.7015" stroke="black" stroke-width="10" />
<line x1="634.269" y1="91.7015" x2="618.985" y2="91.7015" stroke="black" stroke-width="10" />
<line x1="618.985" y1="91.7015" x2="618.985" y2="53.4925" stroke="black" stroke-width="10" />
<line x1="618.985" y1="53.4925" x2="580.776" y2="53.4925" stroke="black" stroke-width="10" />
<line x1="580.776" y1="53.4925" x2="580.776" y2="91.7015" stroke="black" stroke-width="10" />
<line x1="580.776" y1="91.7015" x2="565.493" y2="91.7015" stroke="black" stroke-width="10" />
<line x1="565.493" y1="91.7015" x2="565.493" y2="8.70697e-08" stroke="black" stroke-width="10" />
<line x1="565.493" y1="8.70697e-08" x2="580.776" y2="8.70697e-08" stroke="black" stroke-width="10" />
<line x1="580.776" y1="8.70697e-08" x2="580.776" y2="38.209" stroke="black" stroke-width="10" />
<line x1="580.776" y1="38.209" x2="618.985" y2="38.209" stroke="black" stroke-width="10" />
<line x1="695.403" y1="15.2836" x2="680.119" y2="15.2836" stroke="black" stroke-width="10" />
<line x1="680.119" y1="15.2836" x2="680.119" y2="91.7015" stroke="black" stroke-width="10" />
<line x1="680.119" y1="91.7015" x2="664.836" y2="91.7015" stroke="black" stroke-width="10" />
<line x1="664.836" y1="91.7015" x2="664.836" y2="15.2836" stroke="black" stroke-width="10" />
<line x1="664.836" y1="15.2836" x2="649.552" y2="15.2836" stroke="black" stroke-width="10" />
<line x1="649.552" y1="15.2836" x2="649.552" y2="8.70697e-08" stroke="black" stroke-width="10" />
<line x1="649.552" y1="8.70697e-08" x2="695.403" y2="8.70697e-08" stroke="black" stroke-width="10" />
<line x1="695.403" y1="8.70697e-08" x2="695.403" y2="15.2836" stroke="black" stroke-width="10" />
<g>
<path d="M413.17,53.72 A28.66,28.66 0.00 0,0 399.28,0.00" fill="white" fill-opacity="0.5" stroke="black" stroke-width="10" />
<line x1="399.284" y1="8.70697e-08" x2="366.806" y2="8.70697e-08" stroke="black" stroke-width="10" />
<line x1="366.806" y1="8.70697e-08" x2="366.806" y2="91.7015" stroke="black" stroke-width="10" />
<line x1="366.806" y1="91.7015" x2="382.09" y2="91.7015" stroke="black" stroke-width="10" />
<line x1="382.09" y1="91.7015" x2="382.09" y2="57.3134" stroke="black" stroke-width="10" />
<line x1="382.09" y1="57.3134" x2="399.284" y2="57.3134" stroke="black" stroke-width="10" />
<line x1="399.284" y1="57.3134" x2="412.657" y2="91.7015" stroke="black" stroke-width="10" />
<line x1="412.657" y1="91.7015" x2="427.94" y2="91.7015" stroke="black" stroke-width="10" />
<line x1="427.94" y1="91.7015" x2="413.171" y2="53.7235" stroke="black" stroke-width="10" />
<path d="M399.28,42.03 A13.37,13.37 0.00 1,0 399.28,15.28" fill="white" fill-opacity="0.5" stroke="black" stroke-width="10" />
<line x1="399.284" y1="15.2836" x2="382.09" y2="15.2836" stroke="black" stroke-width="10" />
<line x1="382.09" y1="15.2836" x2="382.09" y2="42.0299" stroke="black" stroke-width="10" />
<line x1="382.09" y1="42.0299" x2="399.284" y2="42.0299" stroke="black" stroke-width="10" />
</g>
<g>
<ellipse transform="translate(198.69 45.85) rotate(270.00)" rx="45.8507" ry="38.209" fill="white" fill-opacity="0.5" stroke="black" stroke-width="10" />
<ellipse transform="translate(198.69 45.85) rotate(270.00)" rx="30.5672" ry="22.9254" fill="white" fill-opacity="0.5" stroke="black" stroke-width="10" />
</g>
<g>
<ellipse transform="translate(106.99 45.85) rotate(270.00)" rx="45.8507" ry="38.209" fill="white" fill-opacity="0.5" stroke="black" stroke-width="10" />
<ellipse transform="translate(106.99 45.85) rotate(270.00)" rx="30.5672" ry="22.9254" fill="white" fill-opacity="0.5" stroke="black" stroke-width="10" />
</g>
</svg>