<?xml version="1.0" encoding="UTF-8" ?><!-- DOCTYPE svg PUBLIC "-//W3C//DTD SVG 1.1//EN" "http://www.w3.org/Graphics/SVG/1.1/DTD/svg11.dtd" -->
<svg viewBox="0,0,1024,314" preserveAspectRatio="xMidYMid" zoomAndPan="magnify" xmlns="http://www.w3.org/2000/svg" xmlns:xlink="http://www.w3.org/1999/xlink">
<line x1="507.871" y1="313.806" x2="673.032" y2="313.806" stroke="black" stroke-width="10" />
<line x1="507.871" y1="313.806" x2="673.032" y2="313.806" stroke="black" stroke-width="10" />
<line x1="355.097" y1="5.4714e-08" x2="371.613" y2="5.4714e-08" stroke="black" stroke-width="10" />
<line x1="371.613" y1="5.4714e-08" x2="371.613" y2="82.5806" stroke="black" stroke-width="10" />
<line x1="371.613" y1="82.5806" x2="412.903" y2="82.5806" stroke="black" stroke-width="10" />
<line x1="412.903" y1="82.5806" x2="412.903" y2="99.0968" stroke="black" stroke-width="10" />
<line x1="412.903" y1="99.0968" x2="355.097" y2="99.0968" stroke="black" stroke-width="10" />
<line x1="355.097" y1="99.0968" x2="355.097" y2="5.4714e-08" stroke="black" stroke-width="10" />
<g>
<ellipse transform="translate(470.71 49.55) rotate(270.00)" rx="49.5484" ry="41.2903" fill="white" fill-opacity="0.5" stroke="black" stroke-width="10" />
<ellipse transform="translate(470.71 49.55) rotate(270.00)" rx="33.0323" ry="24.7742" fill="white" fill-opacity="0.5" stroke="black" stroke-width="10" />
</g>
<g>
<ellipse transform="translate(569.81 49.55) rotate(270.00)" rx="49.5484" ry="41.2903" fill="white" fill-opacity="0.5" stroke="black" stroke-width="10" />
<ellipse transform="translate(569.81 49.55) rotate(270.00)" rx="33.0323" ry="24.7742" fill="white" fill-opacity="0.5" stroke="black" stroke-width="10" />
</g>
<line x1="644.129" y1="49.5484" x2="681.29" y2="5.4714e-08" stroke="black" stroke-width="10" />
<line x1="681.29" y1="5.4714e-08" x2="701.935" y2="5.4714e-08" stroke="black" stroke-width="10" />
<line x1="701.935" y1="5.4714e-08" x2="669.419" y2="43.3548" stroke="black" stroke-width="10" />
<line x1="669.419" y1="43.3548" x2="701.935" y2="99.0968" stroke="black" stroke-width="10" />
<line x1="701.935" y1="99.0968" x2="681.29" y2="99.0968" stroke="black" stroke-width="10" />
<line x1="681.29" y1="99.0968" x2="657.806" y2="58.8387" stroke="black" stroke-width="10" />
<line x1="657.806" y1="58.8387" x2="644.129" y2="77.0753" stroke="black" stroke-width="10" />
<line x1="644.129" y1="77.0753" x2="644.129" y2="99.0968" stroke="black" stroke-width="10" />
<line x1="644.129" y1="99.0968" x2="627.613" y2="99.0968" stroke="black" stroke-width="10" />
<line x1="627.613" y1="99.0968" x2="627.613" y2="5.4714e-08" stroke="black" stroke-width="10" />
<line x1="627.613" y1="5.4714e-08" x2="644.129" y2="5.4714e-08" stroke="black" stroke-width="10" />
<line x1="644.129" y1="5.4714e-08" x2="644.129" y2="49.5484" stroke="black" stroke-width="10" />
<line x1="751.484" y1="5.4714e-08" x2="768" y2="5.4714e-08" stroke="black" stroke-width="10" />
<line x1="768" y1="5.4714e-08" x2="768" y2="82.5806" stroke="black" stroke-width="10" />
<line x1="768" y1="82.5806" x2="809.29" y2="82.5806" stroke="black" stroke-width="10" />
<line x1="809.29" y1="82.5806" x2="809.29" y2="99.0968" stroke="black" stroke-width="10" />
<line x1="809.29" y1="99.0968" x2="751.484" y2="99.0968" stroke="black" stroke-width="10" />
<line x1="751.484" y1="99.0968" x2="751.484" y2="5.4714e-08" stroke="black" stroke-width="10" />
<line x1="825.806" y1="5.4714e-08" x2="883.613" y2="5.4714e-08" stroke="black" stroke-width="10" />
<line x1="883.613" y1="5.4714e-08" x2="883.613" y2="16.5161" stroke="black" stroke-width="10" />
<line x1="883.613" y1="16.5161" x2="842.323" y2="16.5161" stroke="black" stroke-width="10" />
<line x1="842.323" y1="16.5161" x2="842.323" y2="41.2903" stroke="black" stroke-width="10" />
<line x1="842.323" y1="41.2903" x2="875.355" y2="41.2903" stroke="black" stroke-width="10" />
<line x1="875.355" y1="41.2903" x2="875.355" y2="57.8065" stroke="black" stroke-width="10" />
<line x1="875.355" y1="57.8065" x2="842.323" y2="57.8065" stroke="black" stroke-width="10" />
<line x1="842.323" y1="57.8065" x2="842.323" y2="82.5806" stroke="black" stroke-width="10" />
<line x1="842.323" y1="82.5806" x2="883.613" y2="82.5806" stroke="black" stroke-width="10" />
<line x1="883.613" y1="82.5806" x2="883.613" y2="99.0968" stroke="black" stroke-width="10" />
<line x1="883.613" y1="99.0968" x2="825.806" y2="99.0968" stroke="black" stroke-width="10" />
<line x1="825.806" y1="99.0968" x2="825.806" y2="5.4714e-08" stroke="black" stroke-width="10" />
<line x1="949.677" y1="57.8065" x2="949.677" y2="41.2903" stroke="black" stroke-width="10" />
<line x1="949.677" y1="41.2903" x2="916.645" y2="41.2903" stroke="black" stroke-width="10" />
<line x1="916.645" y1="41.2903" x2="916.645" y2="16.5161" stroke="black" stroke-width="10" />
<line x1="916.645" y1="16.5161" x2="957.935" y2="16.5161" stroke="black" stroke-width="10" />
<line x1="957.935" y1="16.5161" x2="957.935" y2="5.4714e-08" stroke="black" stroke-width="10" />
<line x1="957.935" y1="5.4714e-08" x2="900.129" y2="5.4714e-08" stroke="black" stroke-width="10" />
<line x1="900.129" y1="5.4714e-08" x2="900.129" y2="99.0968" stroke="black" stroke-width="10" />
<line x1="900.129" y1="99.0968" x2="916.645" y2="99.0968" stroke="black" stroke-width="10" />
<line x1="916.645" y1="99.0968" x2="916.645" y2="57.8065" stroke="black" stroke-width="10" />
<line x1="916.645" y1="57.8065" x2="949.677" y2="57.8065" stroke="black" stroke-width="10" />
<line x1="767.377" y1="234.529" x2="849.755" y2="234.529" stroke="black" stroke-width="10" />
<line x1="849.755" y1="234.529" x2="849.755" y2="254.348" stroke="black" stroke-width="10" />
<line x1="849.755" y1="254.348" x2="808.465" y2="254.348" stroke="black" stroke-width="10" />
<line x1="808.465" y1="254.348" x2="808.465" y2="293.987" stroke="black" stroke-width="10" />
<line x1="808.465" y1="293.987" x2="871.226" y2="293.987" stroke="black" stroke-width="10" />
<line x1="871.226" y1="293.987" x2="871.226" y2="313.806" stroke="black" stroke-width="10" />
<line x1="871.226" y1="313.806" x2="725.884" y2="313.806" stroke="black" stroke-width="10" />
<line x1="725.884" y1="313.806" x2="725.884" y2="293.987" stroke="black" stroke-width="10" />
<line x1="725.884" y1="293.987" x2="788.645" y2="293.987" stroke="black" stroke-width="10" />
<line x1="788.645" y1="293.987" x2="788.645" y2="254.348" stroke="black" stroke-width="10" />
<line x1="788.645" y1="254.348" x2="753.75" y2="254.348" stroke="black" stroke-width="10" />
<path d="M753.75,254.35 A176.72,176.72 1.50 0,1 717.53,288.68" fill="none" stroke="black" stroke-width="10" />
<line x1="717.532" y1="288.681" x2="706.065" y2="272.516" stroke="black" stroke-width="10" />
<path d="M706.06,272.52 A156.90,156.90 1.50 0,0 761.48,201.50" fill="none" stroke="black" stroke-width="10" />
<line x1="761.482" y1="201.497" x2="706.065" y2="201.497" stroke="black" stroke-width="10" />
<line x1="706.065" y1="201.497" x2="706.065" y2="181.677" stroke="black" stroke-width="10" />
<line x1="706.065" y1="181.677" x2="767.725" y2="181.677" stroke="black" stroke-width="10" />
<path d="M767.73,181.68 A156.90,156.90 1.50 0,0 772.13,148.65" fill="none" stroke="black" stroke-width="10" />
<line x1="772.129" y1="148.645" x2="791.954" y2="148.645" stroke="black" stroke-width="10" />
<path d="M791.95,148.65 A176.72,176.72 1.50 0,1 788.06,181.68" fill="none" stroke="black" stroke-width="10" />
<line x1="788.057" y1="181.677" x2="871.226" y2="181.677" stroke="black" stroke-width="10" />
<line x1="871.226" y1="181.677" x2="871.226" y2="201.497" stroke="black" stroke-width="10" />
<line x1="871.226" y1="201.497" x2="782.574" y2="201.497" stroke="black" stroke-width="10" />
<path d="M782.57,201.50 A176.72,176.72 1.50 0,1 767.38,234.53" fill="none" stroke="black" stroke-width="10" />
<g>
<line x1="600.361" y1="155.252" x2="666.426" y2="155.252" stroke="black" stroke-width="10" />
<line x1="666.426" y1="155.252" x2="666.426" y2="219.665" stroke="black" stroke-width="10" />
<path d="M666.43,219.66 A16.52,16.52 90.00 0,1 649.91,236.18" fill="white" fill-opacity="0.5" stroke="black" stroke-width="10" />
<line x1="649.91" y1="236.181" x2="628.439" y2="236.181" stroke="black" stroke-width="10" />
<line x1="628.439" y1="236.181" x2="628.439" y2="219.665" stroke="black" stroke-width="10" />
<line x1="628.439" y1="219.665" x2="649.91" y2="219.665" stroke="black" stroke-width="10" />
<line x1="649.91" y1="219.665" x2="649.91" y2="211.406" stroke="black" stroke-width="10" />
<line x1="649.91" y1="211.406" x2="609.241" y2="211.406" stroke="black" stroke-width="10" />
<path d="M609.24,211.41 A82.58,82.58 0.00 0,1 591.17,236.59" fill="white" fill-opacity="0.5" stroke="black" stroke-width="10" />
<line x1="591.174" y1="236.594" x2="579.799" y2="224.619" stroke="black" stroke-width="10" />
<path d="M579.80,224.62 A66.06,66.06 0.00 0,0 600.36,176.72" fill="white" fill-opacity="0.5" stroke="black" stroke-width="10" />
<line x1="600.361" y1="176.723" x2="600.361" y2="155.252" stroke="black" stroke-width="10" />
<polygon points="616.88,176.72,649.91,176.72,649.91,168.46,616.88,168.46" fill="white" fill-opacity="0.5" stroke="black" stroke-width="10" />
<line x1="614.037" y1="198.194" x2="649.91" y2="198.194" stroke="black" stroke-width="10" />
<line x1="649.91" y1="198.194" x2="649.91" y2="189.935" stroke="black" stroke-width="10" />
<line x1="649.91" y1="189.935" x2="615.814" y2="189.935" stroke="black" stroke-width="10" />
<path d="M615.81,189.94 A82.58,82.58 0.00 0,1 614.04,198.19" fill="white" fill-opacity="0.5" stroke="black" stroke-width="10" />
</g>
<line x1="557.419" y1="170.116" x2="590.452" y2="170.116" stroke="black" stroke-width="10" />
<line x1="590.452" y1="170.116" x2="590.452" y2="186.632" stroke="black" stroke-width="10" />
<line x1="590.452" y1="186.632" x2="535.948" y2="186.632" stroke="black" stroke-width="10" />
<line x1="535.948" y1="186.632" x2="535.948" y2="201.497" stroke="black" stroke-width="10" />
<path d="M535.95,201.50 A4.95,4.95 90.00 0,0 540.90,206.45" fill="none" stroke="black" stroke-width="10" />
<line x1="540.903" y1="206.452" x2="573.935" y2="206.452" stroke="black" stroke-width="10" />
<line x1="573.935" y1="206.452" x2="573.935" y2="222.968" stroke="black" stroke-width="10" />
<line x1="573.935" y1="222.968" x2="540.903" y2="222.968" stroke="black" stroke-width="10" />
<path d="M540.90,222.97 A21.47,21.47 90.00 0,1 519.43,201.50" fill="none" stroke="black" stroke-width="10" />
<line x1="519.432" y1="201.497" x2="519.432" y2="186.632" stroke="black" stroke-width="10" />
<line x1="519.432" y1="186.632" x2="507.871" y2="186.632" stroke="black" stroke-width="10" />
<line x1="507.871" y1="186.632" x2="507.871" y2="170.116" stroke="black" stroke-width="10" />
<line x1="507.871" y1="170.116" x2="540.903" y2="170.116" stroke="black" stroke-width="10" />
<line x1="540.903" y1="170.116" x2="540.903" y2="148.645" stroke="black" stroke-width="10" />
<line x1="540.903" y1="148.645" x2="557.419" y2="148.645" stroke="black" stroke-width="10" />
<line x1="557.419" y1="148.645" x2="557.419" y2="170.116" stroke="black" stroke-width="10" />
<line x1="598.71" y1="269.213" x2="656.516" y2="269.213" stroke="black" stroke-width="10" />
<line x1="656.516" y1="269.213" x2="656.516" y2="285.729" stroke="black" stroke-width="10" />
<line x1="656.516" y1="285.729" x2="598.71" y2="285.729" stroke="black" stroke-width="10" />
<line x1="598.71" y1="285.729" x2="598.71" y2="297.29" stroke="black" stroke-width="10" />
<line x1="598.71" y1="297.29" x2="673.032" y2="297.29" stroke="black" stroke-width="10" />
<line x1="673.032" y1="297.29" x2="673.032" y2="313.806" stroke="black" stroke-width="10" />
<line x1="673.032" y1="313.806" x2="507.871" y2="313.806" stroke="black" stroke-width="10" />
<line x1="507.871" y1="313.806" x2="507.871" y2="297.29" stroke="black" stroke-width="10" />
<line x1="507.871" y1="297.29" x2="582.194" y2="297.29" stroke="black" stroke-width="10" />
<line x1="582.194" y1="297.29" x2="582.194" y2="285.729" stroke="black" stroke-width="10" />
<line x1="582.194" y1="285.729" x2="524.387" y2="285.729" stroke="black" stroke-width="10" />
<line x1="524.387" y1="285.729" x2="524.387" y2="269.213" stroke="black" stroke-width="10" />
<line x1="524.387" y1="269.213" x2="582.194" y2="269.213" stroke="black" stroke-width="10" />
<line x1="582.194" y1="269.213" x2="582.194" y2="257.652" stroke="black" stroke-width="10" />
<line x1="582.194" y1="257.652" x2="517.781" y2="257.652" stroke="black" stroke-width="10" />
<line x1="517.781" y1="257.652" x2="517.781" y2="241.135" stroke="black" stroke-width="10" />
<line x1="517.781" y1="241.135" x2="663.123" y2="241.135" stroke="black" stroke-width="10" />
<line x1="663.123" y1="241.135" x2="663.123" y2="257.652" stroke="black" stroke-width="10" />
<line x1="663.123" y1="257.652" x2="598.71" y2="257.652" stroke="black" stroke-width="10" />
<line x1="598.71" y1="257.652" x2="598.71" y2="269.213" stroke="black" stroke-width="10" />
<line x1="99.0968" y1="132.129" x2="297.29" y2="132.129" stroke="black" stroke-width="10" />
<line x1="297.29" y1="132.129" x2="297.29" y2="181.677" stroke="black" stroke-width="10" />
<line x1="297.29" y1="181.677" x2="99.0968" y2="181.677" stroke="black" stroke-width="10" />
<line x1="99.0968" y1="181.677" x2="148.645" y2="231.226" stroke="black" stroke-width="10" />
<line x1="148.645" y1="231.226" x2="74.3226" y2="231.226" stroke="black" stroke-width="10" />
<line x1="74.3226" y1="231.226" x2="0" y2="156.903" stroke="black" stroke-width="10" />
<line x1="0" y1="156.903" x2="74.3226" y2="82.5806" stroke="black" stroke-width="10" />
<line x1="74.3226" y1="82.5806" x2="148.645" y2="82.5806" stroke="black" stroke-width="10" />
<line x1="148.645" y1="82.5806" x2="99.0968" y2="132.129" stroke="black" stroke-width="10" />
<line x1="990.968" y1="99.0968" x2="990.968" y2="16.5161" stroke="black" stroke-width="10" />
<line x1="990.968" y1="16.5161" x2="974.452" y2="16.5161" stroke="black" stroke-width="10" />
<line x1="974.452" y1="16.5161" x2="974.452" y2="5.4714e-08" stroke="black" stroke-width="10" />
<line x1="974.452" y1="5.4714e-08" x2="1024" y2="5.4714e-08" stroke="black" stroke-width="10" />
<line x1="1024" y1="5.4714e-08" x2="1024" y2="16.5161" stroke="black" stroke-width="10" />
<line x1="1024" y1="16.5161" x2="1007.48" y2="16.5161" stroke="black" stroke-width="10" />
<line x1="1007.48" y1="16.5161" x2="1007.48" y2="99.0968" stroke="black" stroke-width="10" />
<line x1="1007.48" y1="99.0968" x2="990.968" y2="99.0968" stroke="black" stroke-width="10" />
</svg>