<?xml version="1.0" encoding="UTF-8" ?><!-- DOCTYPE svg PUBLIC "-//W3C//DTD SVG 1.1//EN" "http://www.w3.org/Graphics/SVG/1.1/DTD/svg11.dtd" -->
<svg viewBox="0,0,1024,5001" preserveAspectRatio="xMidYMid" zoomAndPan="magnify" xmlns="http://www.w3.org/2000/svg" xmlns:xlink="http://www.w3.org/1999/xlink">
<polyline points="453.77,3483.09,478.36,3605.83" fill="none" stroke="rgb(150, 150, 150)" stroke-width="10" />
<polyline points="604.94,3324.81,617.50,3353.63,598.88,3411.22,580.70,3461.15,558.67,3498.12,530.87,3526.60,506.28,3540.84,484.76,3555.97" fill="none" stroke="rgb(150, 150, 150)" stroke-width="10" />
<polyline points="583.66,3540.86,601.79,3577.45,608.20,3591.75,608.17,3613.61" fill="none" stroke="rgb(150, 150, 150)" stroke-width="10" />
<polyline points="543.03,3519.83,558.92,3540.67,555.77,3562.60,555.79,3613.55,558.71,3706.96,570.91,3793.44,586.46,3880.11,607.90,3930.58,635.79,3981.66,672.79,4003.20,663.46,3959.66,660.39,3915.99,666.42,3872.83" fill="none" stroke="rgb(150, 150, 150)" stroke-width="10" />
<polyline points="614.47,3685.34,626.53,3714.62,604.81,3793.18,583.51,3872.74,558.79,3923.50,534.12,3951.91,497.02,3987.79,466.29,3995.68" fill="none" stroke="rgb(150, 150, 150)" stroke-width="10" />
<polyline points="358.70,4114.12,374.38,4142.87,361.77,4221.95,346.55,4287.43,331.06,4344.95,312.55,4387.89" fill="none" stroke="rgb(150, 150, 150)" stroke-width="10" />
<polyline points="361.95,4214.51,485.21,4214.95,473.28,4200.58" fill="none" stroke="rgb(150, 150, 150)" stroke-width="10" />
<polyline points="392.93,4655.08,451.34,4770.35" fill="none" stroke="rgb(150, 150, 150)" stroke-width="10" />
<polyline points="386.56,4828.23,411.28,4871.68,429.79,4914.30,442.24,4957.77,447.96,5001.35" fill="none" stroke="rgb(150, 150, 150)" stroke-width="10" />
<polyline points="186.24,4561.27,195.22,4568.26,300.02,4546.52" fill="none" stroke="rgb(150, 150, 150)" stroke-width="10" />
<polyline points="278.84,4474.43,309.50,4561.71,312.48,4590.00" fill="none" stroke="rgb(150, 150, 150)" stroke-width="10" />
<polyline points="252.87,644.66,337.69,644.86" fill="none" stroke="rgb(150, 150, 150)" stroke-width="10" />
<polyline points="759.23,665.92,775.55,687.74" fill="none" stroke="rgb(150, 150, 150)" stroke-width="10" />
<polyline points="842.63,1563.40,757.81,1563.20" fill="none" stroke="rgb(150, 150, 150)" stroke-width="10" />
<line x1="252.868" y1="644.661" x2="252.615" y2="1187.77" stroke="rgb(150, 150, 150)" stroke-width="10" />
<line x1="252.615" y1="1187.77" x2="345.609" y2="1187.95" stroke="rgb(150, 150, 150)" stroke-width="10" />
<line x1="337.69" y1="644.863" x2="363.389" y2="687.884" stroke="rgb(150, 150, 150)" stroke-width="10" />
<line x1="363.389" y1="687.884" x2="371.316" y2="756.34" stroke="rgb(150, 150, 150)" stroke-width="10" />
<line x1="371.316" y1="756.34" x2="371.342" y2="777.25" stroke="rgb(150, 150, 150)" stroke-width="10" />
<line x1="371.342" y1="777.25" x2="363.151" y2="846.001" stroke="rgb(150, 150, 150)" stroke-width="10" />
<line x1="363.151" y1="846.001" x2="345.632" y2="892.6" stroke="rgb(150, 150, 150)" stroke-width="10" />
<line x1="345.632" y1="892.6" x2="371.115" y2="939.453" stroke="rgb(150, 150, 150)" stroke-width="10" />
<line x1="371.115" y1="939.453" x2="380.706" y2="1008.24" stroke="rgb(150, 150, 150)" stroke-width="10" />
<line x1="380.706" y1="1008.24" x2="380.714" y2="1076.5" stroke="rgb(150, 150, 150)" stroke-width="10" />
<line x1="380.714" y1="1076.5" x2="371.565" y2="1145.19" stroke="rgb(150, 150, 150)" stroke-width="10" />
<line x1="371.565" y1="1145.19" x2="345.609" y2="1187.95" stroke="rgb(150, 150, 150)" stroke-width="10" />
<line x1="580.903" y1="1076.45" x2="573.213" y2="1153.41" stroke="rgb(150, 150, 150)" stroke-width="10" />
<line x1="573.213" y1="1153.41" x2="555.661" y2="1187.75" stroke="rgb(150, 150, 150)" stroke-width="10" />
<line x1="555.661" y1="1187.75" x2="488.142" y2="1187.56" stroke="rgb(150, 150, 150)" stroke-width="10" />
<line x1="488.142" y1="1187.56" x2="462.416" y2="1145.01" stroke="rgb(150, 150, 150)" stroke-width="10" />
<line x1="462.416" y1="1145.01" x2="454.489" y2="1076.56" stroke="rgb(150, 150, 150)" stroke-width="10" />
<line x1="454.721" y1="644.954" x2="454.489" y2="1076.56" stroke="rgb(150, 150, 150)" stroke-width="10" />
<line x1="580.903" y1="1076.45" x2="580.883" y2="645.078" stroke="rgb(150, 150, 150)" stroke-width="10" />
<line x1="656.846" y1="1119.18" x2="682.556" y2="1166.28" stroke="rgb(150, 150, 150)" stroke-width="10" />
<line x1="555.7" y1="1832.53" x2="555.953" y2="1289.42" stroke="rgb(150, 150, 150)" stroke-width="10" />
<line x1="555.953" y1="1289.42" x2="684.031" y2="1832.53" stroke="rgb(150, 150, 150)" stroke-width="10" />
<line x1="684.031" y1="1832.53" x2="684.284" y2="1289.42" stroke="rgb(150, 150, 150)" stroke-width="10" />
<line x1="353.594" y1="1832.46" x2="421.114" y2="1289.77" stroke="rgb(150, 150, 150)" stroke-width="10" />
<line x1="421.114" y1="1289.77" x2="490.097" y2="1832.45" stroke="rgb(150, 150, 150)" stroke-width="10" />
<line x1="151.967" y1="1289.54" x2="151.714" y2="1832.65" stroke="rgb(150, 150, 150)" stroke-width="10" />
<line x1="151.714" y1="1832.65" x2="270.436" y2="1832.59" stroke="rgb(150, 150, 150)" stroke-width="10" />
<line x1="876.754" y1="1289.91" x2="757.806" y2="1289.71" stroke="rgb(150, 150, 150)" stroke-width="10" />
<line x1="757.806" y1="1289.71" x2="757.553" y2="1832.82" stroke="rgb(150, 150, 150)" stroke-width="10" />
<line x1="757.553" y1="1832.82" x2="884.221" y2="1832.49" stroke="rgb(150, 150, 150)" stroke-width="10" />
<line x1="672.679" y1="846.1" x2="767.38" y2="961.251" stroke="rgb(150, 150, 150)" stroke-width="10" />
<line x1="682.556" y1="1166.28" x2="703.481" y2="1183.08" stroke="rgb(150, 150, 150)" stroke-width="10" />
<line x1="703.481" y1="1183.08" x2="741.439" y2="1183.29" stroke="rgb(150, 150, 150)" stroke-width="10" />
<line x1="741.439" y1="1183.29" x2="767.126" y2="1145.32" stroke="rgb(150, 150, 150)" stroke-width="10" />
<line x1="767.126" y1="1145.32" x2="785.152" y2="1076.88" stroke="rgb(150, 150, 150)" stroke-width="10" />
<line x1="785.152" y1="1076.88" x2="784.917" y2="1029.77" stroke="rgb(150, 150, 150)" stroke-width="10" />
<line x1="784.917" y1="1029.77" x2="767.38" y2="961.251" stroke="rgb(150, 150, 150)" stroke-width="10" />
<line x1="759.231" y1="665.919" x2="741.423" y2="644.971" stroke="rgb(150, 150, 150)" stroke-width="10" />
<line x1="741.423" y1="644.971" x2="708.003" y2="645.255" stroke="rgb(150, 150, 150)" stroke-width="10" />
<line x1="708.003" y1="645.255" x2="672.691" y2="687.729" stroke="rgb(150, 150, 150)" stroke-width="10" />
<line x1="672.691" y1="687.729" x2="656.834" y2="756.05" stroke="rgb(150, 150, 150)" stroke-width="10" />
<line x1="656.834" y1="756.05" x2="656.833" y2="777.439" stroke="rgb(150, 150, 150)" stroke-width="10" />
<line x1="656.833" y1="777.439" x2="672.679" y2="846.1" stroke="rgb(150, 150, 150)" stroke-width="10" />
<line x1="252.864" y1="892.672" x2="345.632" y2="892.6" stroke="rgb(150, 150, 150)" stroke-width="10" />
<line x1="189.612" y1="2145.99" x2="198.817" y2="2174.63" stroke="rgb(150, 150, 150)" stroke-width="10" />
<line x1="198.817" y1="2174.63" x2="464.356" y2="2174.9" stroke="rgb(150, 150, 150)" stroke-width="10" />
<line x1="464.356" y1="2174.9" x2="436.891" y2="2146.2" stroke="rgb(150, 150, 150)" stroke-width="10" />
<line x1="198.817" y1="2174.63" x2="198.424" y2="2989.54" stroke="rgb(150, 150, 150)" stroke-width="10" />
<line x1="198.424" y1="2989.54" x2="201.825" y2="3018.81" stroke="rgb(150, 150, 150)" stroke-width="10" />
<line x1="201.825" y1="3018.81" x2="219.681" y2="3047.45" stroke="rgb(150, 150, 150)" stroke-width="10" />
<line x1="219.681" y1="3047.45" x2="467.439" y2="3047.68" stroke="rgb(150, 150, 150)" stroke-width="10" />
<line x1="467.439" y1="3047.68" x2="488.629" y2="3025.56" stroke="rgb(150, 150, 150)" stroke-width="10" />
<line x1="488.629" y1="3025.56" x2="494.735" y2="2989.61" stroke="rgb(150, 150, 150)" stroke-width="10" />
<line x1="494.735" y1="2989.61" x2="470.247" y2="2967.81" stroke="rgb(150, 150, 150)" stroke-width="10" />
<line x1="470.247" y1="2967.81" x2="470.502" y2="2903.42" stroke="rgb(150, 150, 150)" stroke-width="10" />
<line x1="470.502" y1="2903.42" x2="485.869" y2="2830.98" stroke="rgb(150, 150, 150)" stroke-width="10" />
<line x1="189.533" y1="2506.47" x2="455.326" y2="2506.51" stroke="rgb(150, 150, 150)" stroke-width="10" />
<line x1="326.922" y1="2174.38" x2="330.07" y2="2203.88" stroke="rgb(150, 150, 150)" stroke-width="10" />
<line x1="330.07" y1="2203.88" x2="330.122" y2="2506.44" stroke="rgb(150, 150, 150)" stroke-width="10" />
<line x1="455.226" y1="2174.87" x2="452.066" y2="2564.49" stroke="rgb(150, 150, 150)" stroke-width="10" />
<line x1="556.444" y1="2498.98" x2="571.898" y2="2536.14" stroke="rgb(150, 150, 150)" stroke-width="10" />
<line x1="571.898" y1="2536.14" x2="861.981" y2="2535.86" stroke="rgb(150, 150, 150)" stroke-width="10" />
<line x1="861.981" y1="2535.86" x2="837.416" y2="2528.24" stroke="rgb(150, 150, 150)" stroke-width="10" />
<line x1="706.516" y1="2146.46" x2="712.394" y2="2174.42" stroke="rgb(150, 150, 150)" stroke-width="10" />
<line x1="712.394" y1="2174.42" x2="712.349" y2="3047.27" stroke="rgb(150, 150, 150)" stroke-width="10" />
<line x1="509.432" y1="3266.81" x2="521.813" y2="3281.68" stroke="rgb(150, 150, 150)" stroke-width="10" />
<line x1="521.813" y1="3281.68" x2="642.253" y2="3259.61" stroke="rgb(150, 150, 150)" stroke-width="10" />
<line x1="642.253" y1="3259.61" x2="629.592" y2="3245.44" stroke="rgb(150, 150, 150)" stroke-width="10" />
<line x1="429.159" y1="3130.12" x2="432.136" y2="3137.01" stroke="rgb(150, 150, 150)" stroke-width="10" />
<line x1="432.136" y1="3137.01" x2="404.527" y2="3324.59" stroke="rgb(150, 150, 150)" stroke-width="10" />
<line x1="460.099" y1="3238.08" x2="463.377" y2="3252.44" stroke="rgb(150, 150, 150)" stroke-width="10" />
<line x1="463.377" y1="3252.44" x2="416.512" y2="3577.36" stroke="rgb(150, 150, 150)" stroke-width="10" />
<line x1="580.691" y1="3166.27" x2="605.104" y2="3202.25" stroke="rgb(150, 150, 150)" stroke-width="10" />
<line x1="605.104" y1="3202.25" x2="608.156" y2="3216.36" stroke="rgb(150, 150, 150)" stroke-width="10" />
<line x1="608.156" y1="3216.36" x2="611.509" y2="3237.94" stroke="rgb(150, 150, 150)" stroke-width="10" />
<line x1="537.162" y1="3136.91" x2="552.821" y2="3166.15" stroke="rgb(150, 150, 150)" stroke-width="10" />
<line x1="552.821" y1="3166.15" x2="549.617" y2="3180.39" stroke="rgb(150, 150, 150)" stroke-width="10" />
<line x1="549.617" y1="3180.39" x2="549.787" y2="3245.76" stroke="rgb(150, 150, 150)" stroke-width="10" />
<line x1="549.787" y1="3245.76" x2="558.662" y2="3310.19" stroke="rgb(150, 150, 150)" stroke-width="10" />
<line x1="558.662" y1="3310.19" x2="567.885" y2="3411.16" stroke="rgb(150, 150, 150)" stroke-width="10" />
<line x1="567.885" y1="3411.16" x2="583.619" y2="3469" stroke="rgb(150, 150, 150)" stroke-width="10" />
<line x1="583.619" y1="3469" x2="611.761" y2="3519.85" stroke="rgb(150, 150, 150)" stroke-width="10" />
<line x1="611.761" y1="3519.85" x2="639.001" y2="3548.3" stroke="rgb(150, 150, 150)" stroke-width="10" />
<line x1="639.001" y1="3548.3" x2="660.567" y2="3540.86" stroke="rgb(150, 150, 150)" stroke-width="10" />
<line x1="660.567" y1="3540.86" x2="648.413" y2="3504.85" stroke="rgb(150, 150, 150)" stroke-width="10" />
<line x1="648.413" y1="3504.85" x2="648.742" y2="3469.06" stroke="rgb(150, 150, 150)" stroke-width="10" />
<line x1="648.742" y1="3469.06" x2="660.625" y2="3432.96" stroke="rgb(150, 150, 150)" stroke-width="10" />
<line x1="395.096" y1="3295.71" x2="432.312" y2="3433.1" stroke="rgb(150, 150, 150)" stroke-width="10" />
<line x1="473.454" y1="4214.53" x2="454.554" y2="4315.61" stroke="rgb(150, 150, 150)" stroke-width="10" />
<line x1="454.554" y1="4315.61" x2="445.292" y2="4373.48" stroke="rgb(150, 150, 150)" stroke-width="10" />
<line x1="445.292" y1="4373.48" x2="426.824" y2="4445.5" stroke="rgb(150, 150, 150)" stroke-width="10" />
<line x1="426.824" y1="4445.5" x2="402.175" y2="4524.87" stroke="rgb(150, 150, 150)" stroke-width="10" />
<line x1="402.175" y1="4524.87" x2="380.279" y2="4568.09" stroke="rgb(150, 150, 150)" stroke-width="10" />
<line x1="380.279" y1="4568.09" x2="337.193" y2="4633.44" stroke="rgb(150, 150, 150)" stroke-width="10" />
<line x1="364.868" y1="4243.76" x2="377.446" y2="4344.92" stroke="rgb(150, 150, 150)" stroke-width="10" />
<line x1="377.446" y1="4344.92" x2="392.774" y2="4431.33" stroke="rgb(150, 150, 150)" stroke-width="10" />
<line x1="392.774" y1="4431.33" x2="423.564" y2="4524.87" stroke="rgb(150, 150, 150)" stroke-width="10" />
<line x1="423.564" y1="4524.87" x2="442.173" y2="4561.48" stroke="rgb(150, 150, 150)" stroke-width="10" />
<line x1="442.173" y1="4561.48" x2="470.193" y2="4597.42" stroke="rgb(150, 150, 150)" stroke-width="10" />
<line x1="470.193" y1="4597.42" x2="494.681" y2="4619.22" stroke="rgb(150, 150, 150)" stroke-width="10" />
<line x1="696.576" y1="4114.37" x2="714.835" y2="4157.21" stroke="rgb(150, 150, 150)" stroke-width="10" />
<line x1="714.835" y1="4157.21" x2="714.715" y2="5001.45" stroke="rgb(150, 150, 150)" stroke-width="10" />
<line x1="714.878" y1="4553.98" x2="848.733" y2="4554.06" stroke="rgb(150, 150, 150)" stroke-width="10" />
<line x1="848.733" y1="4554.06" x2="834.258" y2="4525.12" stroke="rgb(150, 150, 150)" stroke-width="10" />
<line x1="596.046" y1="4359.37" x2="610.773" y2="4409.46" stroke="rgb(150, 150, 150)" stroke-width="10" />
<line x1="610.773" y1="4409.46" x2="610.9" y2="5001.38" stroke="rgb(150, 150, 150)" stroke-width="10" />
<line x1="555.893" y1="4979.54" x2="571.251" y2="5001.31" stroke="rgb(150, 150, 150)" stroke-width="10" />
<line x1="571.251" y1="5001.31" x2="861.334" y2="5001.04" stroke="rgb(150, 150, 150)" stroke-width="10" />
<line x1="861.334" y1="5001.04" x2="852.507" y2="4965.7" stroke="rgb(150, 150, 150)" stroke-width="10" />
<line x1="198.419" y1="4323.32" x2="247.62" y2="4431.34" stroke="rgb(150, 150, 150)" stroke-width="10" />
<line x1="250.888" y1="4561.3" x2="251.14" y2="4582.46" stroke="rgb(150, 150, 150)" stroke-width="10" />
<line x1="251.14" y1="4582.46" x2="250.903" y2="5001.33" stroke="rgb(150, 150, 150)" stroke-width="10" />
<line x1="250.903" y1="5001.33" x2="244.477" y2="4936.08" stroke="rgb(150, 150, 150)" stroke-width="10" />
<line x1="210.75" y1="4655.41" x2="222.933" y2="4669.55" stroke="rgb(150, 150, 150)" stroke-width="10" />
<line x1="222.933" y1="4669.55" x2="198.197" y2="4900.07" stroke="rgb(150, 150, 150)" stroke-width="10" />
<line x1="198.197" y1="4900.07" x2="192.242" y2="4929.06" stroke="rgb(150, 150, 150)" stroke-width="10" />
<line x1="192.242" y1="4929.06" x2="185.808" y2="4958.02" stroke="rgb(150, 150, 150)" stroke-width="10" />
<line x1="278.7" y1="4669.33" x2="312.505" y2="4871.65" stroke="rgb(150, 150, 150)" stroke-width="10" />
<line x1="312.505" y1="4871.65" x2="312.731" y2="4893.3" stroke="rgb(150, 150, 150)" stroke-width="10" />
<line x1="248.073" y1="4128.32" x2="263.13" y2="4142.63" stroke="rgb(150, 150, 150)" stroke-width="10" />
<line x1="263.13" y1="4142.63" x2="204.825" y2="4337.61" stroke="rgb(150, 150, 150)" stroke-width="10" />
<line x1="293.968" y1="4243.85" x2="300.148" y2="4257.9" stroke="rgb(150, 150, 150)" stroke-width="10" />
<line x1="300.148" y1="4257.9" x2="210.733" y2="4561.69" stroke="rgb(150, 150, 150)" stroke-width="10" />
<line x1="423.246" y1="3577.26" x2="429.275" y2="3598.27" stroke="rgb(150, 150, 150)" stroke-width="10" />
<line x1="429.275" y1="3598.27" x2="429.086" y2="4024.83" stroke="rgb(150, 150, 150)" stroke-width="10" />
<line x1="429.086" y1="4024.83" x2="425.938" y2="3995.33" stroke="rgb(150, 150, 150)" stroke-width="10" />
<line x1="404.375" y1="3635.08" x2="404.401" y2="3655.99" stroke="rgb(150, 150, 150)" stroke-width="10" />
<line x1="404.401" y1="3655.99" x2="379.705" y2="3967.02" stroke="rgb(150, 150, 150)" stroke-width="10" />
<line x1="450.759" y1="3635.04" x2="478.231" y2="3894.45" stroke="rgb(150, 150, 150)" stroke-width="10" />
<line x1="478.231" y1="3894.45" x2="469.253" y2="3866.07" stroke="rgb(150, 150, 150)" stroke-width="10" />
<line x1="379.662" y1="3570.25" x2="388.867" y2="3577.49" stroke="rgb(150, 150, 150)" stroke-width="10" />
<line x1="388.867" y1="3577.49" x2="466.277" y2="3555.65" stroke="rgb(150, 150, 150)" stroke-width="10" />
<line x1="500.044" y1="3656.08" x2="512.651" y2="3671.21" stroke="rgb(150, 150, 150)" stroke-width="10" />
<line x1="512.651" y1="3671.21" x2="663.686" y2="3635" stroke="rgb(150, 150, 150)" stroke-width="10" />
<line x1="663.686" y1="3635" x2="645.426" y2="3613.55" stroke="rgb(150, 150, 150)" stroke-width="10" />
<line x1="580.563" y1="3018.95" x2="596.502" y2="3047.48" stroke="rgb(150, 150, 150)" stroke-width="10" />
<line x1="596.502" y1="3047.48" x2="852.911" y2="3047.72" stroke="rgb(150, 150, 150)" stroke-width="10" />
<line x1="852.911" y1="3047.72" x2="846.786" y2="3011.33" stroke="rgb(150, 150, 150)" stroke-width="10" />
<line x1="472.327" y1="1695.43" x2="370.907" y2="1695.49" stroke="rgb(150, 150, 150)" stroke-width="10" />
<polyline points="705.10,102.69,707.99,64.16,719.53,38.37,740.66,13.12,759.42,0.00,786.78,0.58,801.23,8.60,826.94,42.97,834.63,64.31,839.69,102.56" fill="none" stroke="rgb(150, 150, 150)" stroke-width="10" />
<line x1="118.948" y1="0.281453" x2="0" y2="0.08293" stroke="rgb(150, 150, 150)" stroke-width="10" />
<line x1="0" y1="0.08293" x2="0" y2="542.968" stroke="rgb(150, 150, 150)" stroke-width="10" />
<line x1="0" y1="542.968" x2="126.641" y2="543.118" stroke="rgb(150, 150, 150)" stroke-width="10" />
<line x1="705.077" y1="440.818" x2="705.101" y2="102.687" stroke="rgb(150, 150, 150)" stroke-width="10" />
<line x1="705.077" y1="440.818" x2="707.993" y2="478.712" stroke="rgb(150, 150, 150)" stroke-width="10" />
<line x1="707.993" y1="478.712" x2="719.276" y2="504.58" stroke="rgb(150, 150, 150)" stroke-width="10" />
<line x1="719.276" y1="504.58" x2="740.421" y2="530.282" stroke="rgb(150, 150, 150)" stroke-width="10" />
<line x1="740.421" y1="530.282" x2="759.166" y2="543.111" stroke="rgb(150, 150, 150)" stroke-width="10" />
<line x1="759.166" y1="543.111" x2="787.036" y2="543.236" stroke="rgb(150, 150, 150)" stroke-width="10" />
<line x1="787.036" y1="543.236" x2="801.243" y2="534.182" stroke="rgb(150, 150, 150)" stroke-width="10" />
<line x1="801.243" y1="534.182" x2="826.94" y2="500.299" stroke="rgb(150, 150, 150)" stroke-width="10" />
<line x1="826.94" y1="500.299" x2="834.634" y2="478.862" stroke="rgb(150, 150, 150)" stroke-width="10" />
<line x1="834.634" y1="478.862" x2="839.663" y2="440.694" stroke="rgb(150, 150, 150)" stroke-width="10" />
<line x1="839.663" y1="440.694" x2="839.688" y2="102.564" stroke="rgb(150, 150, 150)" stroke-width="10" />
<line x1="1024" y1="0.215066" x2="905.278" y2="0.269576" stroke="rgb(150, 150, 150)" stroke-width="10" />
<line x1="905.278" y1="0.269576" x2="905.025" y2="543.381" stroke="rgb(150, 150, 150)" stroke-width="10" />
<line x1="905.02" y1="269.895" x2="990.122" y2="269.392" stroke="rgb(150, 150, 150)" stroke-width="10" />
<line x1="201.627" y1="543.008" x2="202.106" y2="0.150165" stroke="rgb(150, 150, 150)" stroke-width="10" />
<line x1="202.106" y1="0.150165" x2="330.184" y2="543.266" stroke="rgb(150, 150, 150)" stroke-width="10" />
<line x1="330.184" y1="543.266" x2="330.437" y2="0.155255" stroke="rgb(150, 150, 150)" stroke-width="10" />
<line x1="481.115" y1="0.215067" x2="404.212" y2="0.2174" stroke="rgb(150, 150, 150)" stroke-width="10" />
<line x1="404.212" y1="0.2174" x2="403.959" y2="543.328" stroke="rgb(150, 150, 150)" stroke-width="10" />
<line x1="403.959" y1="543.328" x2="480.862" y2="543.326" stroke="rgb(150, 150, 150)" stroke-width="10" />
<line x1="481.115" y1="0.215067" x2="506.841" y2="42.7562" stroke="rgb(150, 150, 150)" stroke-width="10" />
<line x1="506.841" y1="42.7562" x2="524.124" y2="132.887" stroke="rgb(150, 150, 150)" stroke-width="10" />
<line x1="524.124" y1="132.887" x2="534.24" y2="252.174" stroke="rgb(150, 150, 150)" stroke-width="10" />
<line x1="534.24" y1="252.174" x2="522.934" y2="401.979" stroke="rgb(150, 150, 150)" stroke-width="10" />
<line x1="522.934" y1="401.979" x2="505.154" y2="500.232" stroke="rgb(150, 150, 150)" stroke-width="10" />
<line x1="505.154" y1="500.232" x2="480.862" y2="543.326" stroke="rgb(150, 150, 150)" stroke-width="10" />
<line x1="84.8272" y1="273.771" x2="0.00530242" y2="273.568" stroke="rgb(150, 150, 150)" stroke-width="10" />
</svg>