<?xml version="1.0" encoding="UTF-8" ?><!-- DOCTYPE svg PUBLIC "-//W3C//DTD SVG 1.1//EN" "http://www.w3.org/Graphics/SVG/1.1/DTD/svg11.dtd" -->
<svg viewBox="0,0,1024,2261" preserveAspectRatio="xMidYMid" zoomAndPan="magnify" xmlns="http://www.w3.org/2000/svg" xmlns:xlink="http://www.w3.org/1999/xlink">
<g>
<g>
<ellipse transform="translate(617.79 419.88) rotate(90.00)" rx="419.883" ry="135.241" fill="white" fill-opacity="0.5" stroke="black" stroke-width="10" />
<ellipse transform="translate(617.79 419.88) rotate(90.00)" rx="292.941" ry="83.9765" fill="white" fill-opacity="0.5" stroke="black" stroke-width="10" />
</g>
<g>
<path d="M906.82,532.18 A251.44,117.18 90.00 1,0 906.82,29.29" fill="white" fill-opacity="0.5" stroke="black" stroke-width="10" />
<line x1="906.823" y1="29.2941" x2="804.294" y2="29.2941" stroke="black" stroke-width="10" />
<line x1="804.294" y1="29.2941" x2="804.294" y2="810.471" stroke="black" stroke-width="10" />
<line x1="804.294" y1="810.471" x2="872.647" y2="810.471" stroke="black" stroke-width="10" />
<line x1="872.647" y1="810.471" x2="872.647" y2="532.177" stroke="black" stroke-width="10" />
<line x1="872.647" y1="532.177" x2="906.823" y2="532.177" stroke="black" stroke-width="10" />
<line x1="872.647" y1="141.588" x2="872.647" y2="419.883" stroke="black" stroke-width="10" />
<line x1="872.647" y1="419.883" x2="906.823" y2="419.883" stroke="black" stroke-width="10" />
<path d="M906.82,419.88 A139.15,48.82 90.00 1,0 906.82,141.59" fill="white" fill-opacity="0.5" stroke="black" stroke-width="10" />
<line x1="906.823" y1="141.588" x2="872.647" y2="141.588" stroke="black" stroke-width="10" />
</g>
<line x1="320.787" y1="158.677" x2="252.588" y2="158.677" stroke="black" stroke-width="10" />
<line x1="252.588" y1="158.677" x2="252.588" y2="29.2941" stroke="black" stroke-width="10" />
<line x1="252.588" y1="29.2941" x2="457.647" y2="29.2941" stroke="black" stroke-width="10" />
<line x1="457.647" y1="29.2941" x2="457.647" y2="158.677" stroke="black" stroke-width="10" />
<line x1="457.647" y1="158.677" x2="389.294" y2="158.677" stroke="black" stroke-width="10" />
<line x1="389.294" y1="158.677" x2="389.294" y2="810.471" stroke="black" stroke-width="10" />
<line x1="389.294" y1="810.471" x2="320.941" y2="810.471" stroke="black" stroke-width="10" />
<line x1="320.941" y1="810.471" x2="320.941" y2="159.025" stroke="black" stroke-width="10" />
<line x1="320.941" y1="159.025" x2="320.787" y2="158.677" stroke="black" stroke-width="10" />
<path d="M117.91,482.06 A97.65,97.65 288.93 0,1 180.06,555.31" fill="none" stroke="black" stroke-width="10" />
<path d="M180.06,555.31 A244.12,244.12 349.15 0,1 184.37,606.95" fill="none" stroke="black" stroke-width="10" />
<path d="M184.37,606.95 A390.59,390.59 1.33 0,1 177.09,673.45" fill="none" stroke="black" stroke-width="10" />
<path d="M177.09,673.45 A48.82,48.82 1.33 0,1 97.39,701.05" fill="none" stroke="black" stroke-width="10" />
<path d="M97.39,701.05 A156.24,156.24 130.64 0,1 58.22,649.94" fill="none" stroke="black" stroke-width="10" />
<path d="M58.22,649.94 A292.94,292.94 154.43 0,1 40.68,603.56" fill="none" stroke="black" stroke-width="10" />
<line x1="40.679" y1="603.557" x2="2.84089e-06" y2="693.071" stroke="black" stroke-width="10" />
<path d="M0.00,693.07 A292.94,292.94 136.53 0,0 69.57,815.86" fill="none" stroke="black" stroke-width="10" />
<path d="M69.57,815.86 A77.69,77.69 148.37 0,0 190.90,805.03" fill="none" stroke="black" stroke-width="10" />
<path d="M190.90,805.03 A244.12,244.12 148.37 0,0 224.63,726.14" fill="none" stroke="black" stroke-width="10" />
<path d="M224.63,726.14 A634.71,634.71 359.28 0,0 240.92,575.04" fill="none" stroke="black" stroke-width="10" />
<path d="M240.92,575.04 A467.43,467.43 342.65 0,0 227.88,471.15" fill="none" stroke="black" stroke-width="10" />
<path d="M227.88,471.15 A170.88,170.88 170.60 0,0 134.59,356.69" fill="none" stroke="black" stroke-width="10" />
<path d="M134.59,356.69 A122.06,122.06 170.60 0,1 66.18,266.20" fill="none" stroke="black" stroke-width="10" />
<path d="M66.18,266.20 A146.47,146.47 184.31 0,1 64.63,231.27" fill="none" stroke="black" stroke-width="10" />
<path d="M64.63,231.27 A206.86,206.86 206.24 0,1 80.85,165.12" fill="none" stroke="black" stroke-width="10" />
<path d="M80.85,165.12 A41.50,41.50 206.24 0,1 142.76,147.50" fill="none" stroke="black" stroke-width="10" />
<path d="M142.76,147.50 A97.65,97.65 331.05 0,1 172.25,180.25" fill="none" stroke="black" stroke-width="10" />
<path d="M172.25,180.25 A195.29,195.29 345.10 0,1 190.09,224.59" fill="none" stroke="black" stroke-width="10" />
<line x1="190.094" y1="224.588" x2="235.485" y2="141.593" stroke="black" stroke-width="10" />
<path d="M235.48,141.59 A302.71,302.71 315.80 0,0 166.34,29.29" fill="none" stroke="black" stroke-width="10" />
<path d="M166.34,29.29 A64.54,64.54 224.20 0,0 73.81,29.29" fill="none" stroke="black" stroke-width="10" />
<path d="M73.81,29.29 A170.88,170.88 224.20 0,0 33.50,96.53" fill="none" stroke="black" stroke-width="10" />
<path d="M33.50,96.53 A390.59,390.59 224.20 0,0 21.45,144.70" fill="none" stroke="black" stroke-width="10" />
<path d="M21.45,144.70 A585.88,585.88 190.01 0,0 25.46,376.02" fill="none" stroke="black" stroke-width="10" />
<path d="M25.46,376.02 A146.47,146.47 190.01 0,0 117.91,482.06" fill="none" stroke="black" stroke-width="10" />
<line x1="611.929" y1="1020.41" x2="724.223" y2="1020.41" stroke="black" stroke-width="10" />
<line x1="724.223" y1="1020.41" x2="724.223" y2="1118.06" stroke="black" stroke-width="10" />
<line x1="724.223" y1="1118.06" x2="450.811" y2="1118.06" stroke="black" stroke-width="10" />
<line x1="450.811" y1="1118.06" x2="450.811" y2="1020.41" stroke="black" stroke-width="10" />
<line x1="450.811" y1="1020.41" x2="563.106" y2="1020.41" stroke="black" stroke-width="10" />
<line x1="563.106" y1="1020.41" x2="563.106" y2="942.295" stroke="black" stroke-width="10" />
<line x1="563.106" y1="942.295" x2="611.929" y2="942.295" stroke="black" stroke-width="10" />
<line x1="611.929" y1="942.295" x2="611.929" y2="1020.41" stroke="black" stroke-width="10" />
<g>
<polygon points="489.87,1166.88,685.16,1166.88,685.16,1508.65,489.87,1508.65" fill="white" fill-opacity="0.5" stroke="black" stroke-width="10" />
<polygon points="538.69,1264.53,636.34,1264.53,636.34,1411.00,538.69,1411.00" fill="white" fill-opacity="0.5" stroke="black" stroke-width="10" />
</g>
<line x1="450.811" y1="1557.47" x2="724.223" y2="1557.47" stroke="black" stroke-width="10" />
<line x1="724.223" y1="1557.47" x2="724.223" y2="1752.77" stroke="black" stroke-width="10" />
<line x1="724.223" y1="1752.77" x2="675.4" y2="1752.77" stroke="black" stroke-width="10" />
<line x1="675.4" y1="1752.77" x2="675.4" y2="1655.12" stroke="black" stroke-width="10" />
<line x1="675.4" y1="1655.12" x2="499.635" y2="1655.12" stroke="black" stroke-width="10" />
<line x1="499.635" y1="1655.12" x2="499.635" y2="1752.77" stroke="black" stroke-width="10" />
<line x1="499.635" y1="1752.77" x2="450.811" y2="1752.77" stroke="black" stroke-width="10" />
<line x1="450.811" y1="1752.77" x2="450.811" y2="1557.47" stroke="black" stroke-width="10" />
<line x1="514.282" y1="1703.94" x2="660.753" y2="1703.94" stroke="black" stroke-width="10" />
<line x1="660.753" y1="1703.94" x2="660.753" y2="1801.59" stroke="black" stroke-width="10" />
<line x1="660.753" y1="1801.59" x2="611.929" y2="1801.59" stroke="black" stroke-width="10" />
<line x1="611.929" y1="1801.59" x2="611.929" y2="2260.53" stroke="black" stroke-width="10" />
<line x1="611.929" y1="2260.53" x2="514.282" y2="2260.53" stroke="black" stroke-width="10" />
<line x1="514.282" y1="2260.53" x2="514.282" y2="2162.88" stroke="black" stroke-width="10" />
<line x1="514.282" y1="2162.88" x2="563.106" y2="2162.88" stroke="black" stroke-width="10" />
<line x1="563.106" y1="2162.88" x2="563.106" y2="1801.59" stroke="black" stroke-width="10" />
<line x1="563.106" y1="1801.59" x2="514.282" y2="1801.59" stroke="black" stroke-width="10" />
<line x1="514.282" y1="1801.59" x2="514.282" y2="1703.94" stroke="black" stroke-width="10" />
<line x1="411.752" y1="2260.53" x2="411.752" y2="1103.6" stroke="black" stroke-width="10" />
<line x1="411.752" y1="1103.6" x2="444.798" y2="952.742" stroke="black" stroke-width="10" />
<line x1="444.798" y1="952.742" x2="397.105" y2="942.295" stroke="black" stroke-width="10" />
<line x1="397.105" y1="942.295" x2="284.811" y2="1454.94" stroke="black" stroke-width="10" />
<line x1="284.811" y1="1454.94" x2="332.504" y2="1465.39" stroke="black" stroke-width="10" />
<line x1="332.504" y1="1465.39" x2="362.929" y2="1326.49" stroke="black" stroke-width="10" />
<line x1="362.929" y1="1326.49" x2="362.929" y2="2260.53" stroke="black" stroke-width="10" />
<line x1="362.929" y1="2260.53" x2="411.752" y2="2260.53" stroke="black" stroke-width="10" />
</g>
</svg>