<?xml version="1.0" encoding="UTF-8" ?><!-- DOCTYPE svg PUBLIC "-//W3C//DTD SVG 1.1//EN" "http://www.w3.org/Graphics/SVG/1.1/DTD/svg11.dtd" -->
<svg viewBox="0,0,1024,3943" preserveAspectRatio="xMidYMid" zoomAndPan="magnify" xmlns="http://www.w3.org/2000/svg" xmlns:xlink="http://www.w3.org/1999/xlink">
<g>
<g>
<path d="M906.82,931.31 A440.02,117.18 90.00 1,0 906.82,51.26" fill="black" fill-opacity="0.5" stroke="black" stroke-width="10" />
<line x1="906.823" y1="51.2647" x2="804.294" y2="51.2647" stroke="black" stroke-width="10" />
<line x1="804.294" y1="51.2647" x2="804.294" y2="1418.32" stroke="black" stroke-width="10" />
<line x1="804.294" y1="1418.32" x2="872.647" y2="1418.32" stroke="black" stroke-width="10" />
<line x1="872.647" y1="1418.32" x2="872.647" y2="931.31" stroke="black" stroke-width="10" />
<line x1="872.647" y1="931.31" x2="906.823" y2="931.31" stroke="black" stroke-width="10" />
<line x1="872.647" y1="247.78" x2="872.647" y2="734.795" stroke="black" stroke-width="10" />
<line x1="872.647" y1="734.795" x2="906.823" y2="734.795" stroke="black" stroke-width="10" />
<path d="M906.82,734.79 A243.51,48.82 90.00 1,0 906.82,247.78" fill="black" fill-opacity="0.5" stroke="black" stroke-width="10" />
<line x1="906.823" y1="247.78" x2="872.647" y2="247.78" stroke="black" stroke-width="10" />
</g>
<g>
<ellipse transform="translate(617.79 734.79) rotate(90.00)" rx="734.795" ry="135.241" fill="black" fill-opacity="0.5" stroke="black" stroke-width="10" />
<ellipse transform="translate(617.79 734.79) rotate(90.00)" rx="512.647" ry="83.9765" fill="black" fill-opacity="0.5" stroke="black" stroke-width="10" />
</g>
<line x1="320.787" y1="277.684" x2="252.588" y2="277.684" stroke="black" stroke-width="10" />
<line x1="252.588" y1="277.684" x2="252.588" y2="51.2647" stroke="black" stroke-width="10" />
<line x1="252.588" y1="51.2647" x2="457.647" y2="51.2647" stroke="black" stroke-width="10" />
<line x1="457.647" y1="51.2647" x2="457.647" y2="277.684" stroke="black" stroke-width="10" />
<line x1="457.647" y1="277.684" x2="389.294" y2="277.684" stroke="black" stroke-width="10" />
<line x1="389.294" y1="277.684" x2="389.294" y2="1418.32" stroke="black" stroke-width="10" />
<line x1="389.294" y1="1418.32" x2="320.941" y2="1418.32" stroke="black" stroke-width="10" />
<line x1="320.941" y1="1418.32" x2="320.941" y2="278.294" stroke="black" stroke-width="10" />
<line x1="320.941" y1="278.294" x2="320.787" y2="277.684" stroke="black" stroke-width="10" />
<path d="M117.91,843.61 A170.88,97.65 270.00 0,1 180.06,971.78" fill="none" stroke="black" stroke-width="10" />
<path d="M180.06,971.78 A427.21,244.12 270.00 0,1 184.37,1062.17" fill="none" stroke="black" stroke-width="10" />
<path d="M184.37,1062.17 A683.53,390.59 90.00 0,1 177.09,1178.53" fill="none" stroke="black" stroke-width="10" />
<path d="M177.09,1178.53 A85.44,48.82 90.00 0,1 97.39,1226.83" fill="none" stroke="black" stroke-width="10" />
<path d="M97.39,1226.83 A273.41,156.24 90.00 0,1 58.22,1137.39" fill="none" stroke="black" stroke-width="10" />
<path d="M58.22,1137.39 A512.65,292.94 90.00 0,1 40.68,1056.22" fill="none" stroke="black" stroke-width="10" />
<line x1="40.679" y1="1056.22" x2="2.83767e-06" y2="1212.87" stroke="black" stroke-width="10" />
<path d="M-0.00,1212.87 A512.65,292.94 90.00 0,0 69.57,1427.75" fill="none" stroke="black" stroke-width="10" />
<path d="M69.57,1427.75 A135.95,77.69 90.00 0,0 190.90,1408.80" fill="none" stroke="black" stroke-width="10" />
<path d="M190.90,1408.80 A427.21,244.12 90.00 0,0 224.63,1270.74" fill="none" stroke="black" stroke-width="10" />
<path d="M224.63,1270.74 A1110.74,634.71 270.00 0,0 240.92,1006.32" fill="none" stroke="black" stroke-width="10" />
<path d="M240.92,1006.32 A818.00,467.43 270.00 0,0 227.88,824.51" fill="none" stroke="black" stroke-width="10" />
<path d="M227.88,824.51 A299.04,170.88 90.00 0,0 134.59,624.20" fill="none" stroke="black" stroke-width="10" />
<path d="M134.59,624.20 A213.60,122.06 90.00 0,1 66.18,465.86" fill="none" stroke="black" stroke-width="10" />
<path d="M66.18,465.86 A256.32,146.47 270.00 0,1 64.63,404.72" fill="none" stroke="black" stroke-width="10" />
<path d="M64.63,404.72 A362.01,206.86 270.00 0,1 80.85,288.97" fill="none" stroke="black" stroke-width="10" />
<path d="M80.85,288.97 A72.63,41.50 270.00 0,1 142.76,258.13" fill="none" stroke="black" stroke-width="10" />
<path d="M142.76,258.13 A170.88,97.65 270.00 0,1 172.25,315.44" fill="none" stroke="black" stroke-width="10" />
<path d="M172.25,315.44 A341.76,195.29 270.00 0,1 190.09,393.03" fill="none" stroke="black" stroke-width="10" />
<line x1="190.094" y1="393.03" x2="235.485" y2="247.787" stroke="black" stroke-width="10" />
<path d="M235.48,247.79 A529.74,302.71 270.00 0,0 166.34,51.26" fill="none" stroke="black" stroke-width="10" />
<path d="M166.34,51.26 A112.94,64.54 270.00 0,0 73.81,51.26" fill="none" stroke="black" stroke-width="10" />
<path d="M73.81,51.26 A299.04,170.88 270.00 0,0 33.50,168.92" fill="none" stroke="black" stroke-width="10" />
<path d="M33.50,168.92 A683.53,390.59 270.00 0,0 21.45,253.22" fill="none" stroke="black" stroke-width="10" />
<path d="M21.45,253.22 A1025.29,585.88 270.00 0,0 25.46,658.03" fill="none" stroke="black" stroke-width="10" />
<path d="M25.46,658.03 A256.32,146.47 270.00 0,0 117.91,843.61" fill="none" stroke="black" stroke-width="10" />
<g>
<line x1="611.929" y1="3942.5" x2="611.929" y2="3146.68" stroke="black" stroke-width="10" />
<line x1="611.929" y1="3146.68" x2="660.753" y2="3146.68" stroke="black" stroke-width="10" />
<line x1="660.753" y1="3146.68" x2="660.753" y2="2975.8" stroke="black" stroke-width="10" />
<line x1="660.753" y1="2975.8" x2="514.282" y2="2975.8" stroke="black" stroke-width="10" />
<line x1="514.282" y1="2975.8" x2="514.282" y2="3146.68" stroke="black" stroke-width="10" />
<line x1="514.282" y1="3146.68" x2="563.106" y2="3146.68" stroke="black" stroke-width="10" />
<line x1="563.106" y1="3146.68" x2="563.106" y2="3771.62" stroke="black" stroke-width="10" />
<line x1="563.106" y1="3771.62" x2="514.282" y2="3771.62" stroke="black" stroke-width="10" />
<line x1="514.282" y1="3771.62" x2="514.282" y2="3942.5" stroke="black" stroke-width="10" />
<line x1="514.282" y1="3942.5" x2="611.929" y2="3942.5" stroke="black" stroke-width="10" />
<line x1="411.752" y1="1965.15" x2="411.752" y2="3942.5" stroke="black" stroke-width="10" />
<line x1="411.752" y1="3942.5" x2="362.929" y2="3942.5" stroke="black" stroke-width="10" />
<line x1="362.929" y1="3942.5" x2="362.929" y2="2357.86" stroke="black" stroke-width="10" />
<line x1="362.929" y1="2357.86" x2="338.09" y2="2557.66" stroke="black" stroke-width="10" />
<line x1="338.09" y1="2557.66" x2="284.811" y2="2551.03" stroke="black" stroke-width="10" />
<line x1="284.811" y1="2551.03" x2="397.105" y2="1647.8" stroke="black" stroke-width="10" />
<line x1="397.105" y1="1647.8" x2="450.384" y2="1654.42" stroke="black" stroke-width="10" />
<line x1="450.384" y1="1654.42" x2="411.752" y2="1965.15" stroke="black" stroke-width="10" />
<line x1="611.929" y1="1784.5" x2="724.223" y2="1784.5" stroke="black" stroke-width="10" />
<line x1="724.223" y1="1784.5" x2="724.223" y2="1955.38" stroke="black" stroke-width="10" />
<line x1="724.223" y1="1955.38" x2="450.811" y2="1955.38" stroke="black" stroke-width="10" />
<line x1="450.811" y1="1955.38" x2="450.811" y2="1784.5" stroke="black" stroke-width="10" />
<line x1="450.811" y1="1784.5" x2="563.106" y2="1784.5" stroke="black" stroke-width="10" />
<line x1="563.106" y1="1784.5" x2="563.106" y2="1647.8" stroke="black" stroke-width="10" />
<line x1="563.106" y1="1647.8" x2="611.929" y2="1647.8" stroke="black" stroke-width="10" />
<line x1="611.929" y1="1647.8" x2="611.929" y2="1784.5" stroke="black" stroke-width="10" />
<line x1="450.811" y1="2719.47" x2="724.223" y2="2719.47" stroke="black" stroke-width="10" />
<line x1="724.223" y1="2719.47" x2="724.223" y2="3061.24" stroke="black" stroke-width="10" />
<line x1="724.223" y1="3061.24" x2="675.4" y2="3061.24" stroke="black" stroke-width="10" />
<line x1="675.4" y1="3061.24" x2="675.4" y2="2890.36" stroke="black" stroke-width="10" />
<line x1="675.4" y1="2890.36" x2="499.635" y2="2890.36" stroke="black" stroke-width="10" />
<line x1="499.635" y1="2890.36" x2="499.635" y2="3061.24" stroke="black" stroke-width="10" />
<line x1="499.635" y1="3061.24" x2="450.811" y2="3061.24" stroke="black" stroke-width="10" />
<line x1="450.811" y1="3061.24" x2="450.811" y2="2719.47" stroke="black" stroke-width="10" />
<g>
<polygon points="489.87,2038.38,685.16,2038.38,685.16,2636.47,489.87,2636.47" fill="black" fill-opacity="0.5" stroke="black" stroke-width="10" />
<polygon points="538.69,2209.27,636.34,2209.27,636.34,2465.59,538.69,2465.59" fill="black" fill-opacity="0.5" stroke="black" stroke-width="10" />
</g>
</g>
</g>
</svg>