<?xml version="1.0" encoding="UTF-8" ?><!-- DOCTYPE svg PUBLIC "-//W3C//DTD SVG 1.1//EN" "http://www.w3.org/Graphics/SVG/1.1/DTD/svg11.dtd" -->
<svg viewBox="0,0,1024,3716" preserveAspectRatio="xMidYMid" zoomAndPan="magnify" xmlns="http://www.w3.org/2000/svg" xmlns:xlink="http://www.w3.org/1999/xlink">
<g>
<polygon points="1024.00,3686.40,0.00,3686.40,0.00,3715.66,1024.00,3715.66" fill="rgb(30, 30, 30)" fill-opacity="0.5" stroke="black" stroke-width="10" />
<polygon points="1024.00,-0.00,0.00,-0.00,0.00,29.26,1024.00,29.26" fill="rgb(30, 30, 30)" fill-opacity="0.5" stroke="black" stroke-width="10" />
<line x1="258.245" y1="612.978" x2="301.641" y2="804.571" stroke="black" stroke-width="10" />
<line x1="301.641" y1="804.571" x2="340.261" y2="804.571" stroke="black" stroke-width="10" />
<line x1="340.261" y1="804.571" x2="275.89" y2="520.374" stroke="black" stroke-width="10" />
<line x1="275.89" y1="520.374" x2="340.261" y2="336.457" stroke="black" stroke-width="10" />
<line x1="340.261" y1="336.457" x2="301.641" y2="336.457" stroke="black" stroke-width="10" />
<line x1="301.641" y1="336.457" x2="240.201" y2="512" stroke="black" stroke-width="10" />
<line x1="240.201" y1="512" x2="240.201" y2="336.457" stroke="black" stroke-width="10" />
<line x1="240.201" y1="336.457" x2="199.241" y2="336.457" stroke="black" stroke-width="10" />
<line x1="199.241" y1="336.457" x2="199.241" y2="804.571" stroke="black" stroke-width="10" />
<line x1="199.241" y1="804.571" x2="240.201" y2="804.571" stroke="black" stroke-width="10" />
<line x1="240.201" y1="804.571" x2="240.201" y2="673.814" stroke="black" stroke-width="10" />
<line x1="240.201" y1="673.814" x2="258.245" y2="612.978" stroke="black" stroke-width="10" />
<path d="M265.36,1273.04 A247.52,81.24 270.00 1,1 265.36,1040.98" fill="none" stroke="black" stroke-width="10" />
<line x1="265.362" y1="1040.98" x2="235.436" y2="1058.44" stroke="black" stroke-width="10" />
<path d="M235.44,1058.44 A173.94,50.77 270.00 1,0 235.44,1255.59" fill="none" stroke="black" stroke-width="10" />
<line x1="235.436" y1="1255.59" x2="265.362" y2="1273.04" stroke="black" stroke-width="10" />
<line x1="392.631" y1="1389.71" x2="392.631" y2="1331.2" stroke="black" stroke-width="10" />
<line x1="392.631" y1="1331.2" x2="336.165" y2="1331.2" stroke="black" stroke-width="10" />
<line x1="336.165" y1="1331.2" x2="336.165" y2="921.6" stroke="black" stroke-width="10" />
<line x1="336.165" y1="921.6" x2="295.205" y2="921.6" stroke="black" stroke-width="10" />
<line x1="295.205" y1="921.6" x2="295.205" y2="1389.71" stroke="black" stroke-width="10" />
<line x1="295.205" y1="1389.71" x2="392.631" y2="1389.71" stroke="black" stroke-width="10" />
<g>
<line x1="707.73" y1="1389.71" x2="666.529" y2="1389.71" stroke="black" stroke-width="10" />
<line x1="666.529" y1="1389.71" x2="657.779" y2="1309.26" stroke="black" stroke-width="10" />
<line x1="657.779" y1="1309.26" x2="610.226" y2="1309.26" stroke="black" stroke-width="10" />
<line x1="610.226" y1="1309.26" x2="601.476" y2="1389.71" stroke="black" stroke-width="10" />
<line x1="601.476" y1="1389.71" x2="560.274" y2="1389.71" stroke="black" stroke-width="10" />
<line x1="560.274" y1="1389.71" x2="611.182" y2="921.6" stroke="black" stroke-width="10" />
<line x1="611.182" y1="921.6" x2="656.823" y2="921.6" stroke="black" stroke-width="10" />
<line x1="656.823" y1="921.6" x2="707.73" y2="1389.71" stroke="black" stroke-width="10" />
<line x1="634.002" y1="1090.62" x2="617.639" y2="1241.09" stroke="black" stroke-width="10" />
<line x1="617.639" y1="1241.09" x2="650.366" y2="1241.09" stroke="black" stroke-width="10" />
<line x1="650.366" y1="1241.09" x2="634.002" y2="1090.62" stroke="black" stroke-width="10" />
</g>
<g>
<path d="M826.26,1204.80 A148.48,73.14 90.00 0,0 795.50,921.60" fill="rgb(30, 30, 30)" fill-opacity="0.5" stroke="black" stroke-width="10" />
<line x1="795.502" y1="921.6" x2="736.987" y2="921.6" stroke="black" stroke-width="10" />
<line x1="736.987" y1="921.6" x2="736.987" y2="1389.71" stroke="black" stroke-width="10" />
<line x1="736.987" y1="1389.71" x2="775.022" y2="1389.71" stroke="black" stroke-width="10" />
<line x1="775.022" y1="1389.71" x2="775.022" y2="1222.95" stroke="black" stroke-width="10" />
<line x1="775.022" y1="1222.95" x2="783.49" y2="1222.95" stroke="black" stroke-width="10" />
<path d="M783.49,1222.95 A11.70,11.70 346.23 0,1 794.86,1231.87" fill="rgb(30, 30, 30)" fill-opacity="0.5" stroke="black" stroke-width="10" />
<line x1="794.856" y1="1231.87" x2="833.536" y2="1389.71" stroke="black" stroke-width="10" />
<line x1="833.536" y1="1389.71" x2="871.57" y2="1389.71" stroke="black" stroke-width="10" />
<line x1="871.57" y1="1389.71" x2="826.257" y2="1204.8" stroke="black" stroke-width="10" />
<path d="M795.50,1143.95 A74.06,35.11 90.00 1,0 792.02,996.21" fill="rgb(30, 30, 30)" fill-opacity="0.5" stroke="black" stroke-width="10" />
<line x1="792.017" y1="996.206" x2="775.022" y2="996.206" stroke="black" stroke-width="10" />
<line x1="775.022" y1="996.206" x2="775.022" y2="1143.95" stroke="black" stroke-width="10" />
<line x1="775.022" y1="1143.95" x2="795.502" y2="1143.95" stroke="black" stroke-width="10" />
</g>
<g>
<path d="M731.14,637.81 A150.67,70.22 90.00 1,0 731.14,336.46" fill="none" stroke="black" stroke-width="10" />
<line x1="731.136" y1="336.457" x2="669.696" y2="336.457" stroke="black" stroke-width="10" />
<line x1="669.696" y1="336.457" x2="669.696" y2="804.571" stroke="black" stroke-width="10" />
<line x1="669.696" y1="804.571" x2="710.656" y2="804.571" stroke="black" stroke-width="10" />
<line x1="710.656" y1="804.571" x2="710.656" y2="637.806" stroke="black" stroke-width="10" />
<line x1="710.656" y1="637.806" x2="731.136" y2="637.806" stroke="black" stroke-width="10" />
<line x1="710.656" y1="403.749" x2="710.656" y2="570.514" stroke="black" stroke-width="10" />
<line x1="710.656" y1="570.514" x2="731.136" y2="570.514" stroke="black" stroke-width="10" />
<path d="M731.14,570.51 A83.38,29.26 90.00 1,0 731.14,403.75" fill="none" stroke="black" stroke-width="10" />
<line x1="731.136" y1="403.749" x2="710.656" y2="403.749" stroke="black" stroke-width="10" />
</g>
<line x1="556.178" y1="728.503" x2="638.098" y2="728.503" stroke="black" stroke-width="10" />
<line x1="638.098" y1="728.503" x2="638.098" y2="804.571" stroke="black" stroke-width="10" />
<line x1="638.098" y1="804.571" x2="515.218" y2="804.571" stroke="black" stroke-width="10" />
<line x1="515.218" y1="804.571" x2="515.218" y2="336.457" stroke="black" stroke-width="10" />
<line x1="515.218" y1="336.457" x2="638.098" y2="336.457" stroke="black" stroke-width="10" />
<line x1="638.098" y1="336.457" x2="638.098" y2="412.526" stroke="black" stroke-width="10" />
<line x1="638.098" y1="412.526" x2="556.178" y2="412.526" stroke="black" stroke-width="10" />
<line x1="556.178" y1="412.526" x2="556.178" y2="532.48" stroke="black" stroke-width="10" />
<line x1="556.178" y1="532.48" x2="617.618" y2="532.48" stroke="black" stroke-width="10" />
<line x1="617.618" y1="532.48" x2="617.618" y2="608.549" stroke="black" stroke-width="10" />
<line x1="617.618" y1="608.549" x2="556.178" y2="608.549" stroke="black" stroke-width="10" />
<line x1="556.178" y1="608.549" x2="556.178" y2="728.503" stroke="black" stroke-width="10" />
<line x1="461.385" y1="1313.65" x2="543.305" y2="1313.65" stroke="black" stroke-width="10" />
<line x1="543.305" y1="1313.65" x2="543.305" y2="1389.71" stroke="black" stroke-width="10" />
<line x1="543.305" y1="1389.71" x2="420.425" y2="1389.71" stroke="black" stroke-width="10" />
<line x1="420.425" y1="1389.71" x2="420.425" y2="921.6" stroke="black" stroke-width="10" />
<line x1="420.425" y1="921.6" x2="543.305" y2="921.6" stroke="black" stroke-width="10" />
<line x1="543.305" y1="921.6" x2="543.305" y2="997.669" stroke="black" stroke-width="10" />
<line x1="543.305" y1="997.669" x2="461.385" y2="997.669" stroke="black" stroke-width="10" />
<line x1="461.385" y1="997.669" x2="461.385" y2="1117.62" stroke="black" stroke-width="10" />
<line x1="461.385" y1="1117.62" x2="522.825" y2="1117.62" stroke="black" stroke-width="10" />
<line x1="522.825" y1="1117.62" x2="522.825" y2="1193.69" stroke="black" stroke-width="10" />
<line x1="522.825" y1="1193.69" x2="461.385" y2="1193.69" stroke="black" stroke-width="10" />
<line x1="461.385" y1="1193.69" x2="461.385" y2="1313.65" stroke="black" stroke-width="10" />
<line x1="401.701" y1="728.503" x2="483.621" y2="728.503" stroke="black" stroke-width="10" />
<line x1="483.621" y1="728.503" x2="483.621" y2="804.571" stroke="black" stroke-width="10" />
<line x1="483.621" y1="804.571" x2="360.741" y2="804.571" stroke="black" stroke-width="10" />
<line x1="360.741" y1="804.571" x2="360.741" y2="336.457" stroke="black" stroke-width="10" />
<line x1="360.741" y1="336.457" x2="483.621" y2="336.457" stroke="black" stroke-width="10" />
<line x1="483.621" y1="336.457" x2="483.621" y2="412.526" stroke="black" stroke-width="10" />
<line x1="483.621" y1="412.526" x2="401.701" y2="412.526" stroke="black" stroke-width="10" />
<line x1="401.701" y1="412.526" x2="401.701" y2="532.48" stroke="black" stroke-width="10" />
<line x1="401.701" y1="532.48" x2="463.141" y2="532.48" stroke="black" stroke-width="10" />
<line x1="463.141" y1="532.48" x2="463.141" y2="608.549" stroke="black" stroke-width="10" />
<line x1="463.141" y1="608.549" x2="401.701" y2="608.549" stroke="black" stroke-width="10" />
<line x1="401.701" y1="608.549" x2="401.701" y2="728.503" stroke="black" stroke-width="10" />
<line x1="393.509" y1="2592.18" x2="460.8" y2="2592.18" stroke="black" stroke-width="10" />
<line x1="460.8" y1="2592.18" x2="460.8" y2="2650.7" stroke="black" stroke-width="10" />
<line x1="460.8" y1="2650.7" x2="296.96" y2="2650.7" stroke="black" stroke-width="10" />
<line x1="296.96" y1="2650.7" x2="296.96" y2="2592.18" stroke="black" stroke-width="10" />
<line x1="296.96" y1="2592.18" x2="364.251" y2="2592.18" stroke="black" stroke-width="10" />
<line x1="364.251" y1="2592.18" x2="364.251" y2="2545.37" stroke="black" stroke-width="10" />
<line x1="364.251" y1="2545.37" x2="393.509" y2="2545.37" stroke="black" stroke-width="10" />
<line x1="393.509" y1="2545.37" x2="393.509" y2="2592.18" stroke="black" stroke-width="10" />
<line x1="296.96" y1="2914.01" x2="460.8" y2="2914.01" stroke="black" stroke-width="10" />
<line x1="460.8" y1="2914.01" x2="460.8" y2="3031.04" stroke="black" stroke-width="10" />
<line x1="460.8" y1="3031.04" x2="431.543" y2="3031.04" stroke="black" stroke-width="10" />
<line x1="431.543" y1="3031.04" x2="431.543" y2="2972.53" stroke="black" stroke-width="10" />
<line x1="431.543" y1="2972.53" x2="326.217" y2="2972.53" stroke="black" stroke-width="10" />
<line x1="326.217" y1="2972.53" x2="326.217" y2="3031.04" stroke="black" stroke-width="10" />
<line x1="326.217" y1="3031.04" x2="296.96" y2="3031.04" stroke="black" stroke-width="10" />
<line x1="296.96" y1="3031.04" x2="296.96" y2="2914.01" stroke="black" stroke-width="10" />
<line x1="273.554" y1="3335.31" x2="273.554" y2="2655.09" stroke="black" stroke-width="10" />
<line x1="273.554" y1="2655.09" x2="296.085" y2="2552.23" stroke="black" stroke-width="10" />
<line x1="296.085" y1="2552.23" x2="264.777" y2="2545.37" stroke="black" stroke-width="10" />
<line x1="264.777" y1="2545.37" x2="197.486" y2="2852.57" stroke="black" stroke-width="10" />
<line x1="197.486" y1="2852.57" x2="228.793" y2="2859.43" stroke="black" stroke-width="10" />
<line x1="228.793" y1="2859.43" x2="244.297" y2="2788.65" stroke="black" stroke-width="10" />
<line x1="244.297" y1="2788.65" x2="244.297" y2="3335.31" stroke="black" stroke-width="10" />
<line x1="244.297" y1="3335.31" x2="273.554" y2="3335.31" stroke="black" stroke-width="10" />
<g>
<line x1="668.526" y1="2674.1" x2="770.926" y2="2674.1" stroke="black" stroke-width="10" />
<line x1="770.926" y1="2674.1" x2="770.926" y2="2615.59" stroke="black" stroke-width="10" />
<line x1="770.926" y1="2615.59" x2="668.526" y2="2615.59" stroke="black" stroke-width="10" />
<line x1="668.526" y1="2615.59" x2="668.526" y2="2545.37" stroke="black" stroke-width="10" />
<line x1="668.526" y1="2545.37" x2="633.417" y2="2545.37" stroke="black" stroke-width="10" />
<line x1="633.417" y1="2545.37" x2="633.417" y2="2615.59" stroke="black" stroke-width="10" />
<line x1="633.417" y1="2615.59" x2="531.017" y2="2615.59" stroke="black" stroke-width="10" />
<line x1="531.017" y1="2615.59" x2="531.017" y2="2674.1" stroke="black" stroke-width="10" />
<line x1="531.017" y1="2674.1" x2="633.417" y2="2674.1" stroke="black" stroke-width="10" />
<line x1="633.417" y1="2674.1" x2="633.417" y2="2754.56" stroke="black" stroke-width="10" />
<line x1="633.417" y1="2754.56" x2="541.257" y2="2754.56" stroke="black" stroke-width="10" />
<line x1="541.257" y1="2754.56" x2="541.257" y2="3105.65" stroke="black" stroke-width="10" />
<line x1="541.257" y1="3105.65" x2="633.417" y2="3105.65" stroke="black" stroke-width="10" />
<line x1="633.417" y1="3105.65" x2="633.417" y2="3186.1" stroke="black" stroke-width="10" />
<line x1="633.417" y1="3186.1" x2="519.314" y2="3186.1" stroke="black" stroke-width="10" />
<line x1="519.314" y1="3186.1" x2="519.314" y2="3244.62" stroke="black" stroke-width="10" />
<line x1="519.314" y1="3244.62" x2="633.417" y2="3244.62" stroke="black" stroke-width="10" />
<line x1="633.417" y1="3244.62" x2="633.417" y2="3335.31" stroke="black" stroke-width="10" />
<line x1="633.417" y1="3335.31" x2="668.526" y2="3335.31" stroke="black" stroke-width="10" />
<line x1="668.526" y1="3335.31" x2="668.526" y2="3244.62" stroke="black" stroke-width="10" />
<line x1="668.526" y1="3244.62" x2="782.629" y2="3244.62" stroke="black" stroke-width="10" />
<line x1="782.629" y1="3244.62" x2="782.629" y2="3186.1" stroke="black" stroke-width="10" />
<line x1="782.629" y1="3186.1" x2="668.526" y2="3186.1" stroke="black" stroke-width="10" />
<line x1="668.526" y1="3186.1" x2="668.526" y2="3105.65" stroke="black" stroke-width="10" />
<line x1="668.526" y1="3105.65" x2="760.686" y2="3105.65" stroke="black" stroke-width="10" />
<line x1="760.686" y1="3105.65" x2="760.686" y2="2754.56" stroke="black" stroke-width="10" />
<line x1="760.686" y1="2754.56" x2="668.526" y2="2754.56" stroke="black" stroke-width="10" />
<line x1="668.526" y1="2754.56" x2="668.526" y2="2674.1" stroke="black" stroke-width="10" />
<polygon points="668.53,2813.07,725.58,2813.07,725.58,2900.85,668.53,2900.85" fill="rgb(30, 30, 30)" fill-opacity="0.5" stroke="black" stroke-width="10" />
<polygon points="576.37,2813.07,633.42,2813.07,633.42,2900.85,576.37,2900.85" fill="rgb(30, 30, 30)" fill-opacity="0.5" stroke="black" stroke-width="10" />
<polygon points="576.37,2959.36,633.42,2959.36,633.42,3047.13,576.37,3047.13" fill="rgb(30, 30, 30)" fill-opacity="0.5" stroke="black" stroke-width="10" />
<polygon points="668.53,2959.36,725.58,2959.36,725.58,3047.13,668.53,3047.13" fill="rgb(30, 30, 30)" fill-opacity="0.5" stroke="black" stroke-width="10" />
</g>
<line x1="334.994" y1="3001.78" x2="422.766" y2="3001.78" stroke="black" stroke-width="10" />
<line x1="422.766" y1="3001.78" x2="422.766" y2="3060.3" stroke="black" stroke-width="10" />
<line x1="422.766" y1="3060.3" x2="393.509" y2="3060.3" stroke="black" stroke-width="10" />
<line x1="393.509" y1="3060.3" x2="393.509" y2="3335.31" stroke="black" stroke-width="10" />
<line x1="393.509" y1="3335.31" x2="334.994" y2="3335.31" stroke="black" stroke-width="10" />
<line x1="334.994" y1="3335.31" x2="334.994" y2="3276.8" stroke="black" stroke-width="10" />
<line x1="334.994" y1="3276.8" x2="364.251" y2="3276.8" stroke="black" stroke-width="10" />
<line x1="364.251" y1="3276.8" x2="364.251" y2="3060.3" stroke="black" stroke-width="10" />
<line x1="364.251" y1="3060.3" x2="334.994" y2="3060.3" stroke="black" stroke-width="10" />
<line x1="334.994" y1="3060.3" x2="334.994" y2="3001.78" stroke="black" stroke-width="10" />
<line x1="610.091" y1="1696.91" x2="782.629" y2="1696.91" stroke="black" stroke-width="10" />
<line x1="782.629" y1="1696.91" x2="782.629" y2="2282.06" stroke="black" stroke-width="10" />
<path d="M782.63,2282.06 A58.51,58.51 0.00 0,1 724.11,2340.57" fill="none" stroke="black" stroke-width="10" />
<line x1="724.114" y1="2340.57" x2="680.229" y2="2340.57" stroke="black" stroke-width="10" />
<line x1="680.229" y1="2340.57" x2="680.229" y2="2267.43" stroke="black" stroke-width="10" />
<line x1="680.229" y1="2267.43" x2="703.634" y2="2267.43" stroke="black" stroke-width="10" />
<path d="M703.63,2267.43 A43.89,43.89 90.00 0,0 747.52,2223.54" fill="none" stroke="black" stroke-width="10" />
<line x1="747.52" y1="2223.54" x2="747.52" y2="1770.06" stroke="black" stroke-width="10" />
<line x1="747.52" y1="1770.06" x2="718.263" y2="1770.06" stroke="black" stroke-width="10" />
<path d="M718.26,1770.06 A1462.86,1462.86 0.25 0,1 599.77,2340.57" fill="none" stroke="black" stroke-width="10" />
<line x1="599.771" y1="2340.57" x2="571.977" y2="2267.43" stroke="black" stroke-width="10" />
<path d="M571.98,2267.43 A1170.29,1170.29 0.63 0,0 689.01,1770.06" fill="none" stroke="black" stroke-width="10" />
<line x1="689.006" y1="1770.06" x2="659.749" y2="1770.06" stroke="black" stroke-width="10" />
<path d="M659.75,1770.06 A877.71,877.71 7.06 0,1 545.65,2106.51" fill="none" stroke="black" stroke-width="10" />
<line x1="545.646" y1="2106.51" x2="519.314" y2="2062.63" stroke="black" stroke-width="10" />
<path d="M519.31,2062.63 A643.66,643.66 6.74 0,0 630.49,1770.06" fill="none" stroke="black" stroke-width="10" />
<line x1="630.491" y1="1770.06" x2="595.334" y2="1770.06" stroke="black" stroke-width="10" />
<path d="M595.33,1770.06 A620.25,620.25 354.07 0,1 519.31,1943.69" fill="none" stroke="black" stroke-width="10" />
<line x1="519.314" y1="1943.69" x2="519.314" y2="1872.46" stroke="black" stroke-width="10" />
<path d="M519.31,1872.46 A585.14,585.14 354.07 0,0 577.83,1550.63" fill="none" stroke="black" stroke-width="10" />
<line x1="577.829" y1="1550.63" x2="613.115" y2="1550.63" stroke="black" stroke-width="10" />
<path d="M613.12,1550.63 A620.25,620.25 354.07 0,1 610.09,1696.91" fill="none" stroke="black" stroke-width="10" />
<line x1="397.897" y1="1609.14" x2="453.486" y2="1609.14" stroke="black" stroke-width="10" />
<line x1="453.486" y1="1609.14" x2="453.486" y2="1674.97" stroke="black" stroke-width="10" />
<line x1="453.486" y1="1674.97" x2="397.897" y2="1674.97" stroke="black" stroke-width="10" />
<line x1="397.897" y1="1674.97" x2="397.897" y2="1718.86" stroke="black" stroke-width="10" />
<line x1="397.897" y1="1718.86" x2="446.171" y2="1718.86" stroke="black" stroke-width="10" />
<line x1="446.171" y1="1718.86" x2="446.171" y2="1784.69" stroke="black" stroke-width="10" />
<line x1="446.171" y1="1784.69" x2="397.897" y2="1784.69" stroke="black" stroke-width="10" />
<line x1="397.897" y1="1784.69" x2="397.897" y2="1828.57" stroke="black" stroke-width="10" />
<line x1="397.897" y1="1828.57" x2="460.8" y2="1828.57" stroke="black" stroke-width="10" />
<line x1="460.8" y1="1828.57" x2="460.8" y2="1894.4" stroke="black" stroke-width="10" />
<line x1="460.8" y1="1894.4" x2="299.886" y2="1894.4" stroke="black" stroke-width="10" />
<line x1="299.886" y1="1894.4" x2="299.886" y2="1828.57" stroke="black" stroke-width="10" />
<line x1="299.886" y1="1828.57" x2="362.789" y2="1828.57" stroke="black" stroke-width="10" />
<line x1="362.789" y1="1828.57" x2="362.789" y2="1784.69" stroke="black" stroke-width="10" />
<line x1="362.789" y1="1784.69" x2="314.514" y2="1784.69" stroke="black" stroke-width="10" />
<line x1="314.514" y1="1784.69" x2="314.514" y2="1718.86" stroke="black" stroke-width="10" />
<line x1="314.514" y1="1718.86" x2="362.789" y2="1718.86" stroke="black" stroke-width="10" />
<line x1="362.789" y1="1718.86" x2="362.789" y2="1674.97" stroke="black" stroke-width="10" />
<line x1="362.789" y1="1674.97" x2="307.2" y2="1674.97" stroke="black" stroke-width="10" />
<line x1="307.2" y1="1674.97" x2="307.2" y2="1609.14" stroke="black" stroke-width="10" />
<line x1="307.2" y1="1609.14" x2="362.789" y2="1609.14" stroke="black" stroke-width="10" />
<line x1="362.789" y1="1609.14" x2="362.789" y2="1550.63" stroke="black" stroke-width="10" />
<line x1="362.789" y1="1550.63" x2="397.897" y2="1550.63" stroke="black" stroke-width="10" />
<line x1="397.897" y1="1550.63" x2="397.897" y2="1609.14" stroke="black" stroke-width="10" />
<polygon points="212.11,1579.89,285.26,1579.89,285.26,1645.71,212.11,1645.71" fill="rgb(30, 30, 30)" fill-opacity="0.5" stroke="black" stroke-width="10" />
<polygon points="197.49,1696.91,299.89,1696.91,299.89,1762.74,197.49,1762.74" fill="rgb(30, 30, 30)" fill-opacity="0.5" stroke="black" stroke-width="10" />
<polygon points="209.19,1813.94,288.18,1813.94,288.18,1879.77,209.19,1879.77" fill="rgb(30, 30, 30)" fill-opacity="0.5" stroke="black" stroke-width="10" />
<polygon points="209.19,1930.97,288.18,1930.97,288.18,1996.80,209.19,1996.80" fill="rgb(30, 30, 30)" fill-opacity="0.5" stroke="black" stroke-width="10" />
<g>
<line x1="314.514" y1="1938.29" x2="446.171" y2="1938.29" stroke="black" stroke-width="10" />
<line x1="446.171" y1="1938.29" x2="446.171" y2="2340.57" stroke="black" stroke-width="10" />
<line x1="446.171" y1="2340.57" x2="387.657" y2="2340.57" stroke="black" stroke-width="10" />
<line x1="387.657" y1="2340.57" x2="387.657" y2="2274.74" stroke="black" stroke-width="10" />
<line x1="387.657" y1="2274.74" x2="416.914" y2="2274.74" stroke="black" stroke-width="10" />
<line x1="416.914" y1="2274.74" x2="416.914" y2="2223.54" stroke="black" stroke-width="10" />
<line x1="416.914" y1="2223.54" x2="343.771" y2="2223.54" stroke="black" stroke-width="10" />
<line x1="343.771" y1="2223.54" x2="343.771" y2="2340.57" stroke="black" stroke-width="10" />
<line x1="343.771" y1="2340.57" x2="314.514" y2="2340.57" stroke="black" stroke-width="10" />
<line x1="314.514" y1="2340.57" x2="314.514" y2="1938.29" stroke="black" stroke-width="10" />
<polygon points="343.77,2004.11,416.91,2004.11,416.91,2048.00,343.77,2048.00" fill="rgb(30, 30, 30)" fill-opacity="0.5" stroke="black" stroke-width="10" />
<polygon points="343.77,2113.83,416.91,2113.83,416.91,2157.71,343.77,2157.71" fill="none" stroke="black" stroke-width="10" />
</g>
<g>
<polygon points="204.80,2048.00,292.57,2048.00,292.57,2340.57,204.80,2340.57" fill="rgb(30, 30, 30)" fill-opacity="0.5" stroke="black" stroke-width="10" />
<polygon points="234.06,2113.83,263.31,2113.83,263.31,2274.74,234.06,2274.74" fill="rgb(30, 30, 30)" fill-opacity="0.5" stroke="black" stroke-width="10" />
</g>
<g>
<polygon points="320.37,2679.95,437.39,2679.95,437.39,2884.75,320.37,2884.75" fill="rgb(30, 30, 30)" fill-opacity="0.5" stroke="black" stroke-width="10" />
<polygon points="349.62,2738.47,408.14,2738.47,408.14,2826.24,349.62,2826.24" fill="rgb(30, 30, 30)" fill-opacity="0.5" stroke="black" stroke-width="10" />
</g>
</g>
</svg>