<?xml version="1.0" encoding="UTF-8" ?><!-- DOCTYPE svg PUBLIC "-//W3C//DTD SVG 1.1//EN" "http://www.w3.org/Graphics/SVG/1.1/DTD/svg11.dtd" -->
<svg viewBox="0,0,1024,2152" preserveAspectRatio="xMidYMid" zoomAndPan="magnify" xmlns="http://www.w3.org/2000/svg" xmlns:xlink="http://www.w3.org/1999/xlink">
<line x1="178.816" y1="270.108" x2="217.168" y2="195.354" stroke="black" stroke-width="10" />
<path d="M217.17,195.35 C182.80,111.15 150.06,72.50 111.61,72.53 C85.62,72.55 57.03,90.24 37.54,136.60 C21.03,175.86 11.06,235.68 11.30,296.80 C11.54,354.50 20.89,413.35 37.53,446.29 C44.17,459.43 51.96,468.45 59.73,475.77 C76.36,491.44 92.86,499.34 111.61,506.81 C133.38,515.49 158.19,523.58 168.72,569.13 C175.27,597.44 176.30,640.22 171.74,669.14 C164.14,717.32 141.01,727.04 118.89,724.61 C89.42,721.36 61.74,696.54 38.39,619.80" fill="none" stroke="black" stroke-width="10" />
<line x1="38.3862" y1="619.8" x2="0" y2="704.275" stroke="black" stroke-width="10" />
<path d="M0.00,704.27 C10.89,732.58 22.54,756.14 34.86,776.07 C59.09,815.26 85.97,840.39 116.12,840.87 C144.88,841.33 176.63,819.36 196.23,772.21 C211.49,735.51 219.39,683.56 223.22,616.92" fill="none" stroke="black" stroke-width="10" />
<path d="M223.12,618.63 C223.36,599.51 222.75,581.45 221.20,563.52 C217.76,523.69 209.70,484.52 197.99,457.01 C192.24,443.50 185.61,432.80 178.63,424.97 C172.30,417.86 165.68,413.11 158.61,410.71" fill="none" stroke="black" stroke-width="10" />
<line x1="158.608" y1="410.706" x2="93.586" y2="374.655" stroke="black" stroke-width="10" />
<path d="M94.05,374.82 C87.86,372.74 82.67,368.33 77.68,360.40 C69.02,346.62 60.96,322.19 59.73,296.81 C58.21,265.47 67.10,232.69 75.88,213.39 C85.87,191.43 95.73,186.90 108.46,189.18 C129.78,192.99 159.18,215.85 178.82,270.11" fill="none" stroke="black" stroke-width="10" />
<line x1="420.237" y1="721.714" x2="328.449" y2="721.714" stroke="black" stroke-width="10" />
<line x1="328.447" y1="721.709" x2="328.447" y2="90.209" stroke="black" stroke-width="10" />
<line x1="328.447" y1="90.209" x2="265.298" y2="90.209" stroke="black" stroke-width="10" />
<line x1="265.298" y1="90.209" x2="265.298" y2="811.923" stroke="black" stroke-width="10" />
<line x1="265.298" y1="811.923" x2="420.24" y2="811.923" stroke="black" stroke-width="10" />
<line x1="420.24" y1="811.923" x2="420.24" y2="721.709" stroke="black" stroke-width="10" />
<line x1="420.237" y1="721.714" x2="420.237" y2="721.714" stroke="black" stroke-width="10" />
<g>
<g>
<ellipse transform="translate(569.57 453.09) rotate(270.00)" rx="386.413" ry="125.062" fill="white" fill-opacity="0.5" stroke="black" stroke-width="10" />
<ellipse transform="translate(569.57 453.09) rotate(270.00)" rx="271.533" ry="78.1637" fill="none" stroke="black" stroke-width="10" />
</g>
</g>
<line x1="808.836" y1="539.355" x2="852.578" y2="90.2143" stroke="black" stroke-width="10" />
<line x1="852.578" y1="90.2143" x2="895.717" y2="90.2143" stroke="black" stroke-width="10" />
<line x1="895.717" y1="90.2143" x2="939.459" y2="539.355" stroke="black" stroke-width="10" />
<line x1="939.459" y1="539.355" x2="968.252" y2="90.2143" stroke="black" stroke-width="10" />
<line x1="968.252" y1="90.2143" x2="1024" y2="90.2143" stroke="black" stroke-width="10" />
<line x1="1024" y1="90.2143" x2="976.639" y2="811.928" stroke="black" stroke-width="10" />
<line x1="976.639" y1="811.928" x2="913.489" y2="811.928" stroke="black" stroke-width="10" />
<line x1="913.489" y1="811.928" x2="874.148" y2="442.635" stroke="black" stroke-width="10" />
<line x1="874.148" y1="442.635" x2="834.551" y2="811.928" stroke="black" stroke-width="10" />
<line x1="834.551" y1="811.928" x2="771.401" y2="811.928" stroke="black" stroke-width="10" />
<line x1="771.401" y1="811.928" x2="724.295" y2="90.2143" stroke="black" stroke-width="10" />
<line x1="724.295" y1="90.2143" x2="780.044" y2="90.2143" stroke="black" stroke-width="10" />
<line x1="780.044" y1="90.2143" x2="808.836" y2="539.355" stroke="black" stroke-width="10" />
<line x1="621.646" y1="1948.63" x2="621.646" y2="1745.65" stroke="black" stroke-width="10" />
<polygon points="116.45,933.72,161.55,933.72,161.55,2151.61,116.45,2151.61" fill="white" fill-opacity="0.5" stroke="black" stroke-width="10" />
<polygon points="184.11,1240.45,229.21,1240.45,229.21,1578.75,184.11,1578.75" fill="white" fill-opacity="0.5" stroke="black" stroke-width="10" />
<polygon points="48.79,1240.45,93.89,1240.45,93.89,1578.75,48.79,1578.75" fill="white" fill-opacity="0.5" stroke="black" stroke-width="10" />
<polygon points="549.47,1745.65,517.90,1745.65,517.90,1948.63,549.47,1948.63" fill="white" fill-opacity="0.5" stroke="black" stroke-width="10" />
<polygon points="601.35,1745.65,569.77,1745.65,569.77,1948.63,601.35,1948.63" fill="white" fill-opacity="0.5" stroke="black" stroke-width="10" />
<polygon points="653.22,1745.65,621.65,1745.65,621.65,1948.63,653.22,1948.63" fill="white" fill-opacity="0.5" stroke="black" stroke-width="10" />
<polygon points="705.09,1745.65,673.52,1745.65,673.52,1948.63,705.09,1948.63" fill="white" fill-opacity="0.5" stroke="black" stroke-width="10" />
<g>
<polygon points="281.09,933.72,461.52,933.72,461.52,1276.53,281.09,1276.53" fill="white" fill-opacity="0.5" stroke="black" stroke-width="10" />
<polygon points="326.19,1150.23,416.41,1150.23,416.41,1186.32,326.19,1186.32" fill="white" fill-opacity="0.5" stroke="black" stroke-width="10" />
<polygon points="326.19,1023.93,416.41,1023.93,416.41,1060.02,326.19,1060.02" fill="white" fill-opacity="0.5" stroke="black" stroke-width="10" />
</g>
<g>
<polygon points="251.77,1321.64,490.83,1321.64,490.83,1637.39,251.77,1637.39" fill="white" fill-opacity="0.5" stroke="black" stroke-width="10" />
<polygon points="296.87,1411.85,319.43,1411.85,319.43,1547.17,296.87,1547.17" fill="white" fill-opacity="0.5" stroke="black" stroke-width="10" />
<polygon points="360.02,1411.85,382.58,1411.85,382.58,1547.17,360.02,1547.17" fill="white" fill-opacity="0.5" stroke="black" stroke-width="10" />
<polygon points="423.17,1411.85,445.73,1411.85,445.73,1547.17,423.17,1547.17" fill="white" fill-opacity="0.5" stroke="black" stroke-width="10" />
</g>
<g>
<line x1="251.767" y1="1682.5" x2="490.835" y2="1682.5" stroke="black" stroke-width="10" />
<line x1="490.835" y1="1682.5" x2="490.835" y2="1772.71" stroke="black" stroke-width="10" />
<line x1="490.835" y1="1772.71" x2="393.855" y2="1973.85" stroke="black" stroke-width="10" />
<line x1="393.855" y1="1973.85" x2="479.558" y2="2151.61" stroke="black" stroke-width="10" />
<line x1="479.558" y1="2151.61" x2="434.451" y2="2151.61" stroke="black" stroke-width="10" />
<line x1="434.451" y1="2151.61" x2="371.301" y2="2020.63" stroke="black" stroke-width="10" />
<line x1="371.301" y1="2020.63" x2="308.151" y2="2151.61" stroke="black" stroke-width="10" />
<line x1="308.151" y1="2151.61" x2="263.044" y2="2151.61" stroke="black" stroke-width="10" />
<line x1="263.044" y1="2151.61" x2="348.748" y2="1973.85" stroke="black" stroke-width="10" />
<line x1="348.748" y1="1973.85" x2="251.767" y2="1772.71" stroke="black" stroke-width="10" />
<line x1="251.767" y1="1772.71" x2="251.767" y2="1682.5" stroke="black" stroke-width="10" />
<line x1="296.874" y1="1772.71" x2="445.728" y2="1772.71" stroke="black" stroke-width="10" />
<line x1="445.728" y1="1772.71" x2="371.301" y2="1927.08" stroke="black" stroke-width="10" />
<line x1="371.301" y1="1927.08" x2="296.874" y2="1772.71" stroke="black" stroke-width="10" />
</g>
<g>
<line x1="544.963" y1="933.717" x2="725.392" y2="933.717" stroke="black" stroke-width="10" />
<line x1="725.392" y1="933.717" x2="725.392" y2="1023.93" stroke="black" stroke-width="10" />
<line x1="725.392" y1="1023.93" x2="680.285" y2="1023.93" stroke="black" stroke-width="10" />
<line x1="680.285" y1="1023.93" x2="680.285" y2="1136.7" stroke="black" stroke-width="10" />
<line x1="680.285" y1="1136.7" x2="725.392" y2="1136.7" stroke="black" stroke-width="10" />
<line x1="725.392" y1="1136.7" x2="725.392" y2="1226.91" stroke="black" stroke-width="10" />
<line x1="725.392" y1="1226.91" x2="680.285" y2="1226.91" stroke="black" stroke-width="10" />
<line x1="680.285" y1="1226.91" x2="680.285" y2="1339.68" stroke="black" stroke-width="10" />
<line x1="680.285" y1="1339.68" x2="725.392" y2="1339.68" stroke="black" stroke-width="10" />
<line x1="725.392" y1="1339.68" x2="725.392" y2="1429.9" stroke="black" stroke-width="10" />
<line x1="725.392" y1="1429.9" x2="680.285" y2="1429.9" stroke="black" stroke-width="10" />
<line x1="680.285" y1="1429.9" x2="680.285" y2="1542.66" stroke="black" stroke-width="10" />
<line x1="680.285" y1="1542.66" x2="756.967" y2="1542.66" stroke="black" stroke-width="10" />
<line x1="756.967" y1="1542.66" x2="756.967" y2="2151.61" stroke="black" stroke-width="10" />
<line x1="756.967" y1="2151.61" x2="644.199" y2="2151.61" stroke="black" stroke-width="10" />
<line x1="644.199" y1="2151.61" x2="644.199" y2="2061.4" stroke="black" stroke-width="10" />
<line x1="644.199" y1="2061.4" x2="725.392" y2="2061.4" stroke="black" stroke-width="10" />
<line x1="725.392" y1="2061.4" x2="725.392" y2="1632.88" stroke="black" stroke-width="10" />
<line x1="725.392" y1="1632.88" x2="544.963" y2="1632.88" stroke="black" stroke-width="10" />
<line x1="544.963" y1="1632.88" x2="544.963" y2="933.717" stroke="black" stroke-width="10" />
<polygon points="590.07,1023.93,635.18,1023.93,635.18,1136.70,590.07,1136.70" fill="white" fill-opacity="0.5" stroke="black" stroke-width="10" />
<polygon points="590.07,1226.91,635.18,1226.91,635.18,1339.68,590.07,1339.68" fill="white" fill-opacity="0.5" stroke="black" stroke-width="10" />
<polygon points="590.07,1429.90,635.18,1429.90,635.18,1542.66,590.07,1542.66" fill="white" fill-opacity="0.5" stroke="black" stroke-width="10" />
</g>
<g>
<line x1="964.46" y1="2104.73" x2="869.735" y2="1799.77" stroke="black" stroke-width="10" />
<line x1="869.735" y1="1799.77" x2="894.544" y2="1520.11" stroke="black" stroke-width="10" />
<line x1="894.544" y1="1520.11" x2="987.013" y2="1520.11" stroke="black" stroke-width="10" />
<line x1="987.013" y1="1520.11" x2="987.013" y2="1114.15" stroke="black" stroke-width="10" />
<line x1="987.013" y1="1114.15" x2="894.544" y2="1114.15" stroke="black" stroke-width="10" />
<line x1="894.544" y1="1114.15" x2="894.544" y2="933.717" stroke="black" stroke-width="10" />
<line x1="894.544" y1="933.717" x2="849.437" y2="933.717" stroke="black" stroke-width="10" />
<line x1="849.437" y1="933.717" x2="849.437" y2="1114.15" stroke="black" stroke-width="10" />
<line x1="849.437" y1="1114.15" x2="756.967" y2="1114.15" stroke="black" stroke-width="10" />
<line x1="756.967" y1="1114.15" x2="756.967" y2="1520.11" stroke="black" stroke-width="10" />
<line x1="756.967" y1="1520.11" x2="849.437" y2="1520.11" stroke="black" stroke-width="10" />
<line x1="849.437" y1="1520.11" x2="833.649" y2="1691.52" stroke="black" stroke-width="10" />
<line x1="833.649" y1="1691.52" x2="808.84" y2="1610.32" stroke="black" stroke-width="10" />
<line x1="808.84" y1="1610.32" x2="777.265" y2="1610.32" stroke="black" stroke-width="10" />
<line x1="777.265" y1="1610.32" x2="777.265" y2="1745.65" stroke="black" stroke-width="10" />
<line x1="777.265" y1="1745.65" x2="808.84" y2="1745.65" stroke="black" stroke-width="10" />
<line x1="808.84" y1="1745.65" x2="825.981" y2="1799.77" stroke="black" stroke-width="10" />
<line x1="825.981" y1="1799.77" x2="775.01" y2="2104.73" stroke="black" stroke-width="10" />
<line x1="775.01" y1="2104.73" x2="802.074" y2="2151.61" stroke="black" stroke-width="10" />
<line x1="802.074" y1="2151.61" x2="856.203" y2="1894.5" stroke="black" stroke-width="10" />
<line x1="856.203" y1="1894.5" x2="937.395" y2="2151.61" stroke="black" stroke-width="10" />
<line x1="937.395" y1="2151.61" x2="964.46" y2="2104.73" stroke="black" stroke-width="10" />
<polygon points="802.07,1204.36,849.44,1204.36,849.44,1429.90,802.07,1429.90" fill="white" fill-opacity="0.5" stroke="black" stroke-width="10" />
<polygon points="894.54,1204.36,941.91,1204.36,941.91,1429.90,894.54,1429.90" fill="white" fill-opacity="0.5" stroke="black" stroke-width="10" />
</g>
<line x1="517.899" y1="0" x2="517.899" y2="0" stroke="black" stroke-width="10" />
</svg>