<?xml version="1.0" encoding="UTF-8" ?><!-- DOCTYPE svg PUBLIC "-//W3C//DTD SVG 1.1//EN" "http://www.w3.org/Graphics/SVG/1.1/DTD/svg11.dtd" -->
<svg viewBox="0,0,1024,3163" preserveAspectRatio="xMidYMid" zoomAndPan="magnify" xmlns="http://www.w3.org/2000/svg" xmlns:xlink="http://www.w3.org/1999/xlink">
<polyline points="13.06,1823.87,28.75,1883.26,20.95,1986.44,13.00,2091.76,0.00,2136.60" fill="none" stroke="black" stroke-width="10" />
<polyline points="57.80,1346.73,65.70,1406.81,65.54,3162.53,57.66,3103.34" fill="none" stroke="black" stroke-width="10" />
<line x1="62.181" y1="1660.74" x2="119.184" y2="1808.88" stroke="black" stroke-width="10" />
<polyline points="164.11,1303.67,171.68,1346.87,171.76,1883.20" fill="none" stroke="black" stroke-width="10" />
<polyline points="176.52,1377.34,356.48,1377.29,340.18,1333.01" fill="none" stroke="black" stroke-width="10" />
<line x1="171.77" y1="1584.92" x2="351.729" y2="1584.87" stroke="black" stroke-width="10" />
<line x1="168.265" y1="1867.46" x2="348.053" y2="1867.76" stroke="black" stroke-width="10" />
<polyline points="119.07,1943.01,135.33,1956.91,135.25,2344.90" fill="none" stroke="black" stroke-width="10" />
<polyline points="135.23,2017.13,404.90,2017.15,388.77,1972.51" fill="none" stroke="black" stroke-width="10" />
<line x1="401.35" y1="2017.22" x2="392.904" y2="2329.51" stroke="black" stroke-width="10" />
<line x1="135.374" y1="2314.16" x2="396.869" y2="2313.8" stroke="black" stroke-width="10" />
<line x1="213.482" y1="2031.1" x2="221.179" y2="2314.13" stroke="black" stroke-width="10" />
<line x1="298.758" y1="2031.25" x2="298.793" y2="2285.12" stroke="black" stroke-width="10" />
<polyline points="131.83,2463.81,147.55,2477.90,372.28,2478.07,343.71,2432.78" fill="none" stroke="black" stroke-width="10" />
<polyline points="360.02,2477.94,340.30,2627.37,319.44,2791.20,290.29,2865.31,253.79,2953.94,208.59,3043.27,163.99,3117.49,118.92,3148.37" fill="none" stroke="black" stroke-width="10" />
<polyline points="197.12,2478.20,208.88,2582.79,233.03,2731.56,266.13,2865.23,311.06,3013.78,356.37,3088.60,392.86,3148.66" fill="none" stroke="black" stroke-width="10" />
<polyline points="619.94,1377.43,627.91,1422.58,789.92,1422.33,769.19,1406.74" fill="none" stroke="black" stroke-width="10" />
<line x1="627.79" y1="1407.12" x2="627.863" y2="2419.02" stroke="black" stroke-width="10" />
<polyline points="627.88,2345.12,789.72,2345.23,773.48,2285.14" fill="none" stroke="black" stroke-width="10" />
<polyline points="776.98,2329.49,773.52,2567.60,773.27,2731.58,757.07,2953.95,736.54,3088.47,708.81,3162.37,700.82,3162.52,700.76,3103.54,684.54,3072.94,668.35,3043.22" fill="none" stroke="black" stroke-width="10" />
<polyline points="631.42,1719.01,644.15,1734.75,773.48,1734.78,757.28,1705.06" fill="none" stroke="black" stroke-width="10" />
<polyline points="627.70,2046.31,643.98,2061.99,773.49,2061.66,765.45,2031.43" fill="none" stroke="black" stroke-width="10" />
<polyline points="692.65,1436.27,700.82,1510.55,700.89,2345.15" fill="none" stroke="black" stroke-width="10" />
<polyline points="623.33,2656.62,627.52,2746.61,623.32,2880.11,611.85,2940.20,607.08,2969.60" fill="none" stroke="black" stroke-width="10" />
<polyline points="643.91,2627.28,668.03,2746.55,668.26,2879.96,668.02,2895.25" fill="none" stroke="black" stroke-width="10" />
<polyline points="668.00,2567.48,700.61,2656.93,704.33,2731.29,704.12,2776.07" fill="none" stroke="black" stroke-width="10" />
<polyline points="692.53,2493.82,728.54,2612.16,728.74,2641.29" fill="none" stroke="black" stroke-width="10" />
<polyline points="806.16,1584.93,814.05,1645.00,813.98,2285.08,814.12,2255.23" fill="none" stroke="black" stroke-width="10" />
<polyline points="814.00,1660.82,1011.91,1660.96,979.86,1629.41" fill="none" stroke="black" stroke-width="10" />
<polyline points="1000.17,1660.65,1000.35,2314.04,992.05,2269.61" fill="none" stroke="black" stroke-width="10" />
<line x1="813.977" y1="2210.29" x2="1000.34" y2="2210.65" stroke="black" stroke-width="10" />
<polyline points="895.32,1303.61,919.35,1362.13,914.81,1422.44,915.03,1452.46,915.06,2210.50,911.18,2239.88,911.21,2418.96,898.53,2583.17,890.70,2731.66,866.09,2895.03,833.95,2998.50,805.88,3073.12,773.25,3103.76,773.33,3117.44" fill="none" stroke="black" stroke-width="10" />
<polyline points="793.53,2582.86,806.11,2627.56,825.87,2508.52,846.48,2359.08,854.43,2478.13,858.23,2612.36,874.31,2776.20,895.08,2924.68,927.22,2998.50,959.52,3043.37,995.84,3103.79,1003.90,3088.71" fill="none" stroke="black" stroke-width="10" />
<line x1="48.9384" y1="414.235" x2="173.918" y2="652.395" stroke="black" stroke-width="10" />
<line x1="27.1747" y1="978.868" x2="61.3408" y2="1075.21" stroke="black" stroke-width="10" />
<line x1="163.213" y1="43.257" x2="184.685" y2="88.6822" stroke="black" stroke-width="10" />
<polyline points="163.21,43.26,139.83,0.00,95.77,0.13,48.78,88.60,27.49,230.24,27.25,273.24,48.94,414.23" fill="none" stroke="black" stroke-width="10" />
<polyline points="61.34,1075.21,89.18,1110.04,139.64,1110.32,173.86,1032.04,197.47,891.06,197.40,794.25,173.92,652.40" fill="none" stroke="black" stroke-width="10" />
<polyline points="295.45,0.24,295.45,1120.32,452.67,1120.00" fill="none" stroke="black" stroke-width="10" />
<line x1="564.829" y1="908.589" x2="565.07" y2="211.838" stroke="black" stroke-width="10" />
<polyline points="564.83,908.59,569.53,987.38,583.86,1040.40,611.87,1093.34,636.90,1120.22,673.85,1120.23,692.69,1101.93,727.24,1032.16,736.87,987.03,744.26,908.73" fill="none" stroke="black" stroke-width="10" />
<polyline points="830.36,0.36,875.31,1120.30,926.53,115.25,976.92,1120.32,1024.00,0.23" fill="none" stroke="black" stroke-width="10" />
<line x1="744.259" y1="908.727" x2="744.141" y2="211.805" stroke="black" stroke-width="10" />
<line x1="565.07" y1="211.838" x2="569.594" y2="132.165" stroke="black" stroke-width="10" />
<line x1="569.594" y1="132.165" x2="584.033" y2="78.7722" stroke="black" stroke-width="10" />
<line x1="584.033" y1="78.7722" x2="611.825" y2="26.9022" stroke="black" stroke-width="10" />
<line x1="611.825" y1="26.9022" x2="636.897" y2="0.132662" stroke="black" stroke-width="10" />
<line x1="636.897" y1="0.132662" x2="673.849" y2="0.139985" stroke="black" stroke-width="10" />
<line x1="673.849" y1="0.139985" x2="692.475" y2="17.3729" stroke="black" stroke-width="10" />
<line x1="692.475" y1="17.3729" x2="727.056" y2="88.8409" stroke="black" stroke-width="10" />
<line x1="727.056" y1="88.8409" x2="736.763" y2="132.181" stroke="black" stroke-width="10" />
<line x1="736.763" y1="132.181" x2="744.141" y2="211.805" stroke="black" stroke-width="10" />
<line x1="348.375" y1="1361.99" x2="348.286" y2="1898.67" stroke="black" stroke-width="10" />
</svg>