<?xml version="1.0" encoding="UTF-8" ?><!-- DOCTYPE svg PUBLIC "-//W3C//DTD SVG 1.1//EN" "http://www.w3.org/Graphics/SVG/1.1/DTD/svg11.dtd" -->
<svg viewBox="0,0,1024,6833" preserveAspectRatio="xMidYMid" zoomAndPan="magnify" xmlns="http://www.w3.org/2000/svg" xmlns:xlink="http://www.w3.org/1999/xlink">
<g>
<polyline points="390.70,5960.55,435.63,6158.71" fill="none" stroke="black" stroke-width="10" />
<polyline points="670.41,5706.46,694.24,5752.19,659.39,5845.11,625.25,5925.98,584.44,5985.19,533.92,6031.03,487.61,6053.78,447.90,6077.97" fill="none" stroke="black" stroke-width="10" />
<polyline points="630.84,6053.73,664.91,6112.82,676.02,6135.98,676.00,6170.97" fill="none" stroke="black" stroke-width="10" />
<polyline points="555.99,6019.96,584.38,6054.07,578.89,6088.68,579.23,6170.68,584.43,6321.40,607.31,6460.65,636.22,6600.25,675.89,6681.03,727.08,6763.09,795.40,6798.16,778.48,6728.16,773.05,6658.35,784.01,6588.58" fill="none" stroke="black" stroke-width="10" />
<polyline points="688.31,6286.49,710.55,6333.91,670.17,6460.35,630.39,6588.41,584.26,6670.19,538.11,6715.90,469.92,6773.76,412.34,6785.93" fill="none" stroke="black" stroke-width="10" />
<line x1="493.666" y1="5612.42" x2="516.817" y2="5636.3" stroke="black" stroke-width="10" />
<line x1="516.817" y1="5636.3" x2="739.339" y2="5601.56" stroke="black" stroke-width="10" />
<line x1="739.339" y1="5601.56" x2="717.314" y2="5578.73" stroke="black" stroke-width="10" />
<line x1="345.828" y1="5392.29" x2="350.551" y2="5403.63" stroke="black" stroke-width="10" />
<line x1="350.551" y1="5403.63" x2="299.197" y2="5705.89" stroke="black" stroke-width="10" />
<line x1="402.578" y1="5566.03" x2="407.672" y2="5589.38" stroke="black" stroke-width="10" />
<line x1="407.672" y1="5589.38" x2="321.585" y2="6112.48" stroke="black" stroke-width="10" />
<line x1="625.336" y1="5450.36" x2="670.866" y2="5508.55" stroke="black" stroke-width="10" />
<line x1="670.866" y1="5508.55" x2="676.49" y2="5531.33" stroke="black" stroke-width="10" />
<line x1="676.49" y1="5531.33" x2="682.501" y2="5566.68" stroke="black" stroke-width="10" />
<line x1="545.718" y1="5403.62" x2="573.963" y2="5450.85" stroke="black" stroke-width="10" />
<line x1="573.963" y1="5450.85" x2="568.1" y2="5473.45" stroke="black" stroke-width="10" />
<line x1="568.1" y1="5473.45" x2="568.059" y2="5578.41" stroke="black" stroke-width="10" />
<line x1="568.059" y1="5578.41" x2="584.932" y2="5682.31" stroke="black" stroke-width="10" />
<line x1="584.932" y1="5682.31" x2="601.988" y2="5845.24" stroke="black" stroke-width="10" />
<line x1="601.988" y1="5845.24" x2="631.086" y2="5937.83" stroke="black" stroke-width="10" />
<line x1="631.086" y1="5937.83" x2="682.273" y2="6019.89" stroke="black" stroke-width="10" />
<line x1="682.273" y1="6019.89" x2="732.895" y2="6065.89" stroke="black" stroke-width="10" />
<line x1="732.895" y1="6065.89" x2="773.537" y2="6054.25" stroke="black" stroke-width="10" />
<line x1="773.537" y1="6054.25" x2="750.962" y2="5995.9" stroke="black" stroke-width="10" />
<line x1="750.962" y1="5995.9" x2="750.814" y2="5937.96" stroke="black" stroke-width="10" />
<line x1="750.814" y1="5937.96" x2="773.638" y2="5880.4" stroke="black" stroke-width="10" />
<line x1="281.346" y1="5658.88" x2="350.485" y2="5879.79" stroke="black" stroke-width="10" />
<line x1="333.617" y1="6112.65" x2="345.056" y2="6146.74" stroke="black" stroke-width="10" />
<line x1="345.056" y1="6146.74" x2="344.363" y2="6832.85" stroke="black" stroke-width="10" />
<line x1="344.363" y1="6832.85" x2="337.998" y2="6786.03" stroke="black" stroke-width="10" />
<line x1="298.764" y1="6205.57" x2="298.716" y2="6239.47" stroke="black" stroke-width="10" />
<line x1="298.716" y1="6239.47" x2="252.388" y2="6740.02" stroke="black" stroke-width="10" />
<line x1="384.05" y1="6205.67" x2="435.192" y2="6622.86" stroke="black" stroke-width="10" />
<line x1="435.192" y1="6622.86" x2="418.484" y2="6577.45" stroke="black" stroke-width="10" />
<line x1="252.876" y1="6100.39" x2="269.649" y2="6112.44" stroke="black" stroke-width="10" />
<line x1="269.649" y1="6112.44" x2="412.909" y2="6077.95" stroke="black" stroke-width="10" />
<line x1="476.388" y1="6239.45" x2="499.54" y2="6263.34" stroke="black" stroke-width="10" />
<line x1="499.54" y1="6263.34" x2="778.768" y2="6206.07" stroke="black" stroke-width="10" />
<line x1="778.768" y1="6206.07" x2="744.886" y2="6171.03" stroke="black" stroke-width="10" />
</g>
<polyline points="158.25,182.16,124.26,37.24,92.24,9.26,68.19,9.45,42.25,37.04,8.45,181.86,0.00,368.54,0.11,513.96,9.78,720.85,39.75,859.33,69.55,886.29,91.43,886.71,123.38,858.94,157.72,714.10,157.86,541.34,113.57,541.07" fill="none" stroke="black" stroke-width="10" />
<polyline points="241.25,444.74,345.13,444.81" fill="none" stroke="black" stroke-width="10" />
<polyline points="387.45,9.44,242.04,9.55,241.22,886.46,397.03,886.57" fill="none" stroke="black" stroke-width="10" />
<polyline points="471.10,9.59,636.76,9.95" fill="none" stroke="black" stroke-width="10" />
<polyline points="554.75,9.74,553.93,886.65" fill="none" stroke="black" stroke-width="10" />
<polyline points="781.15,880.19,781.87,0.00" fill="none" stroke="black" stroke-width="10" />
<polyline points="862.61,880.40,863.33,0.22,1015.69,880.60,1016.41,0.42" fill="none" stroke="black" stroke-width="10" />
<polyline points="105.93,1055.19,105.11,1932.10,248.90,1932.58" fill="none" stroke="black" stroke-width="10" />
<polyline points="479.22,1725.38,353.48,1725.44" fill="none" stroke="black" stroke-width="10" />
<polyline points="333.09,1932.71,417.54,1055.41,498.73,1932.52" fill="none" stroke="black" stroke-width="10" />
<polyline points="582.38,1932.68,583.20,1055.77,740.37,1932.72,741.19,1055.81" fill="none" stroke="black" stroke-width="10" />
<polyline points="824.04,1490.60,927.91,1490.68" fill="none" stroke="black" stroke-width="10" />
<polyline points="970.26,1055.85,824.30,1055.98,824.02,1932.87,979.83,1932.98" fill="none" stroke="black" stroke-width="10" />
<polyline points="107.83,2126.63,121.54,2163.38,244.00,2163.43,221.55,2126.95" fill="none" stroke="black" stroke-width="10" />
<polyline points="235.42,2151.12,230.32,2393.46" fill="none" stroke="black" stroke-width="10" />
<polyline points="126.07,2150.67,125.33,2587.49,143.41,2624.11,234.70,2624.03,252.71,2587.39,257.27,2575.77,239.21,2539.70,239.52,2479.01,243.52,2466.86" fill="none" stroke="black" stroke-width="10" />
<polyline points="125.88,2357.32,235.23,2357.78" fill="none" stroke="black" stroke-width="10" />
<polyline points="275.67,2126.92,280.78,2150.82,420.75,2151.42,398.68,2126.95" fill="none" stroke="black" stroke-width="10" />
<polyline points="416.37,2151.01,416.38,2381.71" fill="none" stroke="black" stroke-width="10" />
<polyline points="280.78,2150.82,288.79,2587.37,298.30,2612.22,307.27,2637.10,416.06,2637.02,434.40,2575.77,416.51,2527.67,420.84,2490.91,420.81,2454.28" fill="none" stroke="black" stroke-width="10" />
<polyline points="284.97,2357.33,416.18,2357.66" fill="none" stroke="black" stroke-width="10" />
<polyline points="143.56,2806.15,166.55,2842.62,415.86,2843.12,393.78,2818.66" fill="none" stroke="black" stroke-width="10" />
<polyline points="197.92,2636.64,211.98,2684.86,215.97,3097.49" fill="none" stroke="black" stroke-width="10" />
<polyline points="302.36,2672.78,325.70,2685.18,325.30,3097.39" fill="none" stroke="black" stroke-width="10" />
<polyline points="120.64,3073.10,138.70,3109.17,456.89,3109.73,438.83,3073.66" fill="none" stroke="black" stroke-width="10" />
<polyline points="211.46,3146.28,234.10,3206.81,175.16,3351.86,161.70,3376.33,142.94,3388.39" fill="none" stroke="black" stroke-width="10" />
<polyline points="324.81,3170.12,415.71,3352.09,419.75,3376.57,425.05,3388.98" fill="none" stroke="black" stroke-width="10" />
<polyline points="39.53,2163.18,84.99,2272.21" fill="none" stroke="black" stroke-width="10" />
<polyline points="16.80,2454.17,57.48,2514.69,76.11,2551.29,80.16,2611.85" fill="none" stroke="black" stroke-width="10" />
<polyline points="11.89,2915.18,25.23,2939.92,102.85,2939.71,79.86,2903.24" fill="none" stroke="black" stroke-width="10" />
<polyline points="97.94,2939.86,93.63,3012.70,93.68,3085.41,93.46,3255.43,93.15,3351.66,79.54,3388.71,56.80,3449.00,38.44,3509.70,29.56,3558.63,29.43,3607.29" fill="none" stroke="black" stroke-width="10" />
<polyline points="93.35,3340.17,107.07,3413.01,143.04,3497.73,193.22,3582.55,215.29,3607.02,433.43,3607.40,447.28,3595.49,456.52,3558.57" fill="none" stroke="black" stroke-width="10" />
<polyline points="761.68,2127.23,784.34,2188.30,784.28,2345.75" fill="none" stroke="black" stroke-width="10" />
<polyline points="602.54,2284.67,616.46,2346.01,616.51,2418.72,602.55,2515.37,598.40,2575.63,579.48,2600.27" fill="none" stroke="black" stroke-width="10" />
<polyline points="616.46,2346.01,1007.34,2345.98,970.30,2297.37" fill="none" stroke="black" stroke-width="10" />
<polyline points="993.67,2345.85,970.22,2418.74,956.61,2491.32,942.80,2539.85" fill="none" stroke="black" stroke-width="10" />
<polyline points="616.34,2660.91,624.95,2709.84,984.14,2710.24,961.48,2649.16" fill="none" stroke="black" stroke-width="10" />
<polyline points="779.28,2697.42,783.88,2757.96,783.04,3510.23,779.08,3559.01" fill="none" stroke="black" stroke-width="10" />
<polyline points="783.66,3122.61,942.74,3122.62,920.47,3074.11" fill="none" stroke="black" stroke-width="10" />
<polyline points="665.52,2855.10,693.27,2903.99,683.74,3073.76,665.45,3207.17,647.15,3340.58,624.10,3461.56,601.96,3559.01,578.67,3619.31" fill="none" stroke="black" stroke-width="10" />
<polyline points="665.62,3195.14,670.22,3255.68,697.12,3400.81,742.94,3486.32,778.71,3546.99,1001.45,3607.91,1010.52,3583.03,1024.00,3559.10" fill="none" stroke="black" stroke-width="10" />
<polyline points="138.28,3733.49,161.10,3781.99,119.89,3952.19,74.79,4085.33,37.87,4182.14,10.57,4218.52" fill="none" stroke="black" stroke-width="10" />
<polyline points="142.45,4134.09,174.36,4193.78,142.03,4315.60,115.17,4437.24,78.47,4558.65,33.16,4667.20,10.05,4679.94" fill="none" stroke="black" stroke-width="10" />
<polyline points="96.82,4497.95,96.51,4558.64,96.32,5225.60,92.08,5177.08" fill="none" stroke="black" stroke-width="10" />
<polyline points="197.03,3830.08,211.09,3842.77,410.62,3842.63,387.80,3794.13" fill="none" stroke="black" stroke-width="10" />
<polyline points="160.60,4279.49,183.05,4315.97,455.85,4316.30,438.13,4255.62" fill="none" stroke="black" stroke-width="10" />
<polyline points="365.25,4303.24,364.66,5116.73,355.22,5165.13,346.13,5189.46,323.37,5213.67,319.14,5165.15,305.43,5128.40,287.02,5116.39,255.48,5104.24" fill="none" stroke="black" stroke-width="10" />
<polyline points="597.30,3939.64,615.01,3964.24,1023.94,3964.74,1005.69,3940.16" fill="none" stroke="black" stroke-width="10" />
<polyline points="646.83,4109.77,660.17,4134.51,660.12,4752.81" fill="none" stroke="black" stroke-width="10" />
<polyline points="955.60,4194.82,954.75,4716.39" fill="none" stroke="black" stroke-width="10" />
<polyline points="578.03,4873.98,600.67,4898.97,1023.26,4899.05,1009.51,4825.67" fill="none" stroke="black" stroke-width="10" />
<polyline points="792.14,3734.09,805.83,3770.30,805.01,5214.12,791.48,5165.33" fill="none" stroke="black" stroke-width="10" />
<polyline points="659.85,4655.51,955.06,4655.69" fill="none" stroke="black" stroke-width="10" />
<polyline points="660.01,4412.78,955.23,4412.96" fill="none" stroke="black" stroke-width="10" />
<polyline points="660.56,4182.61,960.15,4182.65,941.54,4146.60" fill="none" stroke="black" stroke-width="10" />
</svg>