<?xml version="1.0" encoding="UTF-8" ?><!-- DOCTYPE svg PUBLIC "-//W3C//DTD SVG 1.1//EN" "http://www.w3.org/Graphics/SVG/1.1/DTD/svg11.dtd" -->
<svg viewBox="0,0,1024,1024" preserveAspectRatio="xMidYMid" zoomAndPan="magnify" xmlns="http://www.w3.org/2000/svg" xmlns:xlink="http://www.w3.org/1999/xlink">
<path d="M586.94,600.89 A113.76,113.76 3.41 1,1 401.36,509.11" fill="none" stroke="black" stroke-width="10" />
<polyline points="400.74,509.46,403.78,460.13" fill="none" stroke="black" stroke-width="10" />
<path d="M404.29,459.95 A153.68,153.68 3.41 1,0 609.42,668.49" fill="none" stroke="black" stroke-width="10" />
<polyline points="610.42,668.46,587.11,600.46" fill="none" stroke="black" stroke-width="10" />
<line x1="587.114" y1="600.456" x2="587.114" y2="600.456" stroke="black" stroke-width="10" />
<polyline points="424.15,312.62,433.07,553.31,591.80,562.37,651.83,703.15,733.21,673.91,723.47,649.28,676.90,670.36,616.83,517.78" fill="none" stroke="black" stroke-width="10" />
<polyline points="616.83,517.78,469.91,509.74,459.63,485.66,584.58,494.31,587.63,448.19,462.68,440.61,467.20,356.42" fill="none" stroke="black" stroke-width="10" />
<path d="M467.44,356.29 A46.74,46.74 3.41 1,0 425.60,310.28" fill="none" stroke="black" stroke-width="10" />
<line x1="426.285" y1="310.465" x2="424.148" y2="312.617" stroke="black" stroke-width="10" />
<line x1="0.534154" y1="0" x2="1024" y2="0" stroke="black" stroke-width="10" />
<line x1="1024" y1="0" x2="1023.47" y2="1024" stroke="black" stroke-width="10" />
<line x1="1023.47" y1="1024" x2="0" y2="1024" stroke="black" stroke-width="10" />
<line x1="0" y1="1024" x2="0.534154" y2="0" stroke="black" stroke-width="10" />
</svg>