<?xml version="1.0" encoding="UTF-8" ?><!-- DOCTYPE svg PUBLIC "-//W3C//DTD SVG 1.1//EN" "http://www.w3.org/Graphics/SVG/1.1/DTD/svg11.dtd" -->
<svg viewBox="0,0,1024,1195" preserveAspectRatio="xMidYMid" zoomAndPan="magnify" xmlns="http://www.w3.org/2000/svg" xmlns:xlink="http://www.w3.org/1999/xlink">
<path d="M655.87,810.84 A279.04,279.04 0.03 1,1 188.20,612.91" fill="none" stroke="black" stroke-width="10" />
<polyline points="187.29,612.86,187.83,492.25" fill="none" stroke="black" stroke-width="10" />
<path d="M188.27,492.10 A376.94,376.94 0.03 1,0 720.68,973.12" fill="none" stroke="black" stroke-width="10" />
<polyline points="720.89,972.44,655.61,810.66" fill="none" stroke="black" stroke-width="10" />
<line x1="655.607" y1="810.662" x2="655.607" y2="810.662" stroke="black" stroke-width="10" />
<polyline points="215.64,129.66,270.95,715.35,661.46,715.35,828.77,1050.49,1024.00,967.32,996.25,911.53,884.68,967.02,717.43,604.01" fill="none" stroke="black" stroke-width="10" />
<polyline points="717.43,604.01,354.78,604.07,327.04,548.28,633.95,548.10,634.19,436.64,327.27,436.82,327.13,230.13" fill="none" stroke="black" stroke-width="10" />
<path d="M327.94,229.17 A114.64,114.64 0.03 1,0 218.85,122.55" fill="none" stroke="black" stroke-width="10" />
<line x1="219.282" y1="122.132" x2="215.636" y2="129.665" stroke="black" stroke-width="10" />
</svg>