<?xml version="1.0" encoding="UTF-8" ?><!-- DOCTYPE svg PUBLIC "-//W3C//DTD SVG 1.1//EN" "http://www.w3.org/Graphics/SVG/1.1/DTD/svg11.dtd" -->
<svg viewBox="0,0,1024,4529" preserveAspectRatio="xMidYMid" zoomAndPan="magnify" xmlns="http://www.w3.org/2000/svg" xmlns:xlink="http://www.w3.org/1999/xlink">
<polyline points="169.39,0.03,285.14,0.05" fill="none" stroke="black" stroke-width="10" />
<polyline points="861.92,28.94,884.26,58.39" fill="none" stroke="black" stroke-width="10" />
<line x1="169.385" y1="0.0291694" x2="169.557" y2="742.262" stroke="black" stroke-width="10" />
<line x1="169.557" y1="742.262" x2="296.612" y2="742.187" stroke="black" stroke-width="10" />
<line x1="285.145" y1="0.0481295" x2="320.877" y2="58.7041" stroke="black" stroke-width="10" />
<line x1="320.877" y1="58.7041" x2="331.683" y2="152.371" stroke="black" stroke-width="10" />
<line x1="331.683" y1="152.371" x2="331.561" y2="180.984" stroke="black" stroke-width="10" />
<line x1="331.561" y1="180.984" x2="320.806" y2="274.965" stroke="black" stroke-width="10" />
<line x1="320.806" y1="274.965" x2="296.351" y2="338.869" stroke="black" stroke-width="10" />
<line x1="296.351" y1="338.869" x2="332.053" y2="402.955" stroke="black" stroke-width="10" />
<line x1="332.053" y1="402.955" x2="344.762" y2="496.434" stroke="black" stroke-width="10" />
<line x1="344.762" y1="496.434" x2="344.709" y2="590.041" stroke="black" stroke-width="10" />
<line x1="344.709" y1="590.041" x2="331.895" y2="683.773" stroke="black" stroke-width="10" />
<line x1="331.895" y1="683.773" x2="296.612" y2="742.187" stroke="black" stroke-width="10" />
<line x1="618.632" y1="590.199" x2="607.816" y2="695.039" stroke="black" stroke-width="10" />
<line x1="607.816" y1="695.039" x2="583.733" y2="742.063" stroke="black" stroke-width="10" />
<line x1="583.733" y1="742.063" x2="491.312" y2="742.572" stroke="black" stroke-width="10" />
<line x1="491.312" y1="742.572" x2="456.61" y2="684.04" stroke="black" stroke-width="10" />
<line x1="456.61" y1="684.04" x2="445.211" y2="590.092" stroke="black" stroke-width="10" />
<line x1="445.211" y1="0" x2="445.211" y2="590.092" stroke="black" stroke-width="10" />
<line x1="618.632" y1="590.199" x2="618.632" y2="0.106468" stroke="black" stroke-width="10" />
<line x1="721.698" y1="648.442" x2="756.963" y2="712.683" stroke="black" stroke-width="10" />
<line x1="743.781" y1="274.577" x2="873.036" y2="432.321" stroke="black" stroke-width="10" />
<line x1="756.963" y1="712.683" x2="785.484" y2="735.988" stroke="black" stroke-width="10" />
<line x1="785.484" y1="735.988" x2="838.153" y2="735.889" stroke="black" stroke-width="10" />
<line x1="838.153" y1="735.889" x2="873.281" y2="683.934" stroke="black" stroke-width="10" />
<line x1="873.281" y1="683.934" x2="897.39" y2="590.107" stroke="black" stroke-width="10" />
<line x1="897.39" y1="590.107" x2="897.196" y2="526.143" stroke="black" stroke-width="10" />
<line x1="897.196" y1="526.143" x2="873.036" y2="432.321" stroke="black" stroke-width="10" />
<line x1="861.917" y1="28.9426" x2="837.826" y2="0.11449" stroke="black" stroke-width="10" />
<line x1="837.826" y1="0.11449" x2="792.052" y2="0.212937" stroke="black" stroke-width="10" />
<line x1="792.052" y1="0.212937" x2="743.415" y2="58.4722" stroke="black" stroke-width="10" />
<line x1="743.415" y1="58.4722" x2="721.802" y2="152.393" stroke="black" stroke-width="10" />
<line x1="721.802" y1="152.393" x2="721.68" y2="181.005" stroke="black" stroke-width="10" />
<line x1="721.68" y1="181.005" x2="743.781" y2="274.577" stroke="black" stroke-width="10" />
<line x1="169.296" y1="338.945" x2="296.351" y2="338.869" stroke="black" stroke-width="10" />
<line x1="83.6593" y1="1932.94" x2="96.2378" y2="1972.28" stroke="black" stroke-width="10" />
<line x1="96.2378" y1="1972.28" x2="459.648" y2="1972" stroke="black" stroke-width="10" />
<line x1="459.648" y1="1972" x2="422.139" y2="1933.18" stroke="black" stroke-width="10" />
<line x1="96.2378" y1="1972.28" x2="96.7301" y2="3086.29" stroke="black" stroke-width="10" />
<line x1="96.7301" y1="3086.29" x2="100.666" y2="3126.26" stroke="black" stroke-width="10" />
<line x1="100.666" y1="3126.26" x2="125.85" y2="3165.04" stroke="black" stroke-width="10" />
<line x1="125.85" y1="3165.04" x2="463.736" y2="3165" stroke="black" stroke-width="10" />
<line x1="463.736" y1="3165" x2="493.032" y2="3135.33" stroke="black" stroke-width="10" />
<line x1="493.032" y1="3135.33" x2="501.514" y2="3086" stroke="black" stroke-width="10" />
<line x1="501.514" y1="3086" x2="467.875" y2="3056.64" stroke="black" stroke-width="10" />
<line x1="467.875" y1="3056.64" x2="467.897" y2="2968.46" stroke="black" stroke-width="10" />
<line x1="467.897" y1="2968.46" x2="488.947" y2="2868.83" stroke="black" stroke-width="10" />
<line x1="83.9298" y1="2425.9" x2="446.903" y2="2425.77" stroke="black" stroke-width="10" />
<line x1="271.562" y1="1972.2" x2="275.934" y2="2012.02" stroke="black" stroke-width="10" />
<line x1="275.934" y1="2012.02" x2="275.978" y2="2425.76" stroke="black" stroke-width="10" />
<line x1="446.886" y1="1972.12" x2="443.011" y2="2504.49" stroke="black" stroke-width="10" />
<line x1="585.626" y1="2415.61" x2="606.349" y2="2465.35" stroke="black" stroke-width="10" />
<line x1="606.349" y1="2465.35" x2="1003.36" y2="2465.37" stroke="black" stroke-width="10" />
<line x1="1003.36" y1="2465.37" x2="969.695" y2="2455.23" stroke="black" stroke-width="10" />
<line x1="789.948" y1="1932.8" x2="797.971" y2="1971.8" stroke="black" stroke-width="10" />
<line x1="797.971" y1="1971.8" x2="798.253" y2="3165.19" stroke="black" stroke-width="10" />
<line x1="619.305" y1="3126.17" x2="639.653" y2="3165.2" stroke="black" stroke-width="10" />
<line x1="639.653" y1="3165.2" x2="990.301" y2="3165.04" stroke="black" stroke-width="10" />
<line x1="990.301" y1="3165.04" x2="982.059" y2="3115.78" stroke="black" stroke-width="10" />
<g>
<polyline points="391.05,3326.92,414.87,3377.03,414.87,3727.24" fill="none" stroke="black" stroke-width="10" />
<polyline points="306.25,3697.58,320.45,3737.33,528.13,3727.16,518.71,3677.34" fill="none" stroke="black" stroke-width="10" />
<polyline points="339.41,3917.24,391.15,4278.52" fill="none" stroke="black" stroke-width="10" />
<polyline points="471.42,3867.61,514.24,3928.17,424.64,4348.81" fill="none" stroke="black" stroke-width="10" />
<polyline points="301.62,4469.11,320.75,4499.22,495.06,4348.77" fill="none" stroke="black" stroke-width="10" />
<polyline points="608.28,3296.60,636.21,3347.21,646.18,4087.91" fill="none" stroke="black" stroke-width="10" />
<polyline points="646.39,3727.28,749.82,3727.27,744.95,3677.78" fill="none" stroke="black" stroke-width="10" />
<polyline points="537.50,4027.73,556.03,4078.25,561.35,4519.16" fill="none" stroke="black" stroke-width="10" />
<polyline points="561.31,4098.53,764.22,4098.44,763.93,4078.35" fill="none" stroke="black" stroke-width="10" />
<polyline points="764.22,4098.44,749.94,4528.63" fill="none" stroke="black" stroke-width="10" />
<polyline points="566.22,4479.00,754.90,4479.08" fill="none" stroke="black" stroke-width="10" />
</g>
<g>
<polyline points="192.99,1028.44,189.12,1012.10,184.53,996.49,178.79,981.80,171.89,968.01,165.02,955.68,156.29,945.01,148.02,935.65,138.91,928.07,129.23,921.68,119.47,917.78,109.29,915.50,99.15,914.69,89.36,916.22,79.15,919.37,69.29,924.87,59.90,931.67,51.14,940.22,42.84,950.08,35.16,961.69,27.96,974.61,22.09,988.52,16.26,1003.91,12.20,1020.13,8.90,1037.08,6.34,1054.74,4.66,1072.09,4.75,1090.28,5.72,1108.15,7.57,1125.72,10.72,1142.82,14.00,1158.89,19.18,1174.77,24.92,1189.46,31.23,1202.97,38.68,1215.58,46.55,1226.56,55.25,1235.77,64.80,1243.19,73.88,1249.31,84.24,1253.49,93.98,1255.92,96.04,1256.17" fill="none" stroke="black" stroke-width="10" />
<polyline points="0.00,1574.69,5.40,1593.94,11.95,1612.28,18.91,1629.01,26.72,1643.95,35.36,1657.12,44.69,1668.07,55.02,1677.68,65.29,1684.36,75.65,1688.54,85.82,1690.81,96.68,1690.87,107.47,1688.00,118.24,1683.66,128.34,1676.11,137.83,1666.81,147.41,1655.02,155.49,1641.79,163.82,1626.50,170.93,1609.18,177.14,1590.71,182.44,1571.08,186.68,1549.86,189.73,1528.08,191.60,1505.74,193.04,1483.56,192.69,1460.53,191.63,1438.25,189.54,1415.85,185.70,1394.07,181.89,1373.76,176.17,1353.63,169.78,1335.72,162.82,1319.00,154.42,1303.78,145.78,1290.61,136.29,1279.22,126.27,1270.49,116.29,1263.22,105.93,1259.04,96.19,1256.60" fill="none" stroke="black" stroke-width="10" />
<polyline points="269.83,916.76,496.35,916.62" fill="none" stroke="black" stroke-width="10" />
<polyline points="383.09,916.69,383.08,1691.50" fill="none" stroke="black" stroke-width="10" />
<polyline points="624.25,914.76,612.11,916.63,600.23,923.34,588.71,933.86,577.58,948.18,566.97,966.75,557.17,988.97,548.04,1014.40,539.71,1043.48,531.72,1074.90,525.55,1108.63,520.31,1144.98,516.13,1182.92,513.02,1222.46,510.93,1262.11,510.34,1303.21,510.91,1343.40,512.94,1383.55,516.13,1422.80,520.31,1460.71,525.93,1497.13,531.80,1531.48,539.51,1562.71,547.91,1591.73,557.40,1616.91,567.26,1639.00,577.78,1657.41,588.95,1672.13,600.62,1682.74,612.20,1688.95,624.43,1691.47,635.82,1688.88,647.27,1682.33,658.93,1672.25,669.92,1657.49,680.52,1638.92,690.47,1617.14,699.61,1591.71,708.10,1563.07,715.93,1531.21,721.94,1497.04,727.77,1460.97,731.80,1422.59,735.22,1383.93,737.00,1343.40,737.31,1302.90,737.02,1262.12,735.14,1222.40,731.80,1182.71,727.62,1144.80,722.15,1108.83,716.00,1075.07,708.14,1043.40,699.74,1014.38,690.25,989.20,680.83,966.96,670.15,948.11,658.70,933.98,647.47,923.21,635.73,916.57,624.25,914.76" fill="none" stroke="black" stroke-width="10" />
<polyline points="810.29,1292.10,958.46,1291.86" fill="none" stroke="black" stroke-width="10" />
<polyline points="956.03,1287.81,963.05,1286.78,970.04,1284.28,976.69,1279.44,983.14,1272.70,989.41,1264.06,995.65,1253.95,1000.68,1241.81,1005.67,1228.21,1010.63,1213.14,1014.24,1197.07,1017.55,1180.12,1020.23,1161.43,1022.04,1143.06,1023.53,1123.80,1024.00,1104.43,1023.28,1084.49,1022.44,1065.58,1020.56,1046.55,1018.41,1028.11,1015.25,1011.01,1011.66,994.07,1007.23,978.90,1002.67,964.77,996.84,952.57,991.31,941.24,985.54,931.98,979.08,924.93,972.22,919.50,965.10,916.13,958.77,914.94,956.27,914.85" fill="none" stroke="black" stroke-width="10" />
<polyline points="958.36,916.57,810.18,916.80,810.02,1691.17" fill="none" stroke="black" stroke-width="10" />
</g>
</svg>