<?xml version="1.0" encoding="UTF-8" ?><!-- DOCTYPE svg PUBLIC "-//W3C//DTD SVG 1.1//EN" "http://www.w3.org/Graphics/SVG/1.1/DTD/svg11.dtd" -->
<svg viewBox="0,0,1024,1137" preserveAspectRatio="xMidYMid" zoomAndPan="magnify" xmlns="http://www.w3.org/2000/svg" xmlns:xlink="http://www.w3.org/1999/xlink">
<line x1="176.214" y1="0" x2="933.737" y2="0" stroke="black" stroke-width="10" />
<line x1="176.261" y1="150.726" x2="176.214" y2="0" stroke="black" stroke-width="10" />
<path d="M320.36,505.58 A87.91,172.60 0.02 0,1 466.60,445.54" fill="none" stroke="black" stroke-width="10" />
<path d="M254.39,442.58 A22.99,31.31 0.02 1,1 278.63,390.29" fill="none" stroke="black" stroke-width="10" />
<path d="M277.79,391.24 A95.33,213.82 0.02 0,0 339.85,444.60" fill="none" stroke="black" stroke-width="10" />
<line x1="292.503" y1="662.334" x2="320.787" y2="506.663" stroke="black" stroke-width="10" />
<line x1="328.903" y1="509.223" x2="328.903" y2="509.223" stroke="black" stroke-width="10" />
<line x1="0" y1="901.234" x2="107.065" y2="901.295" stroke="black" stroke-width="10" />
<line x1="410.992" y1="1072.52" x2="373.31" y2="1072.53" stroke="black" stroke-width="10" />
<line x1="397.229" y1="1072.15" x2="407.543" y2="970.3" stroke="black" stroke-width="10" />
<line x1="412.902" y1="654.703" x2="455.661" y2="654.31" stroke="black" stroke-width="10" />
<line x1="439.81" y1="654.267" x2="429.212" y2="757.017" stroke="black" stroke-width="10" />
<path d="M763.16,1096.14 A96.70,225.66 0.02 0,1 660.87,933.05" fill="none" stroke="black" stroke-width="10" />
<line x1="661.243" y1="939.278" x2="661.243" y2="939.278" stroke="black" stroke-width="10" />
<line x1="1024" y1="902.005" x2="962.684" y2="901.502" stroke="black" stroke-width="10" />
<line x1="809.644" y1="624.717" x2="767.437" y2="624.703" stroke="black" stroke-width="10" />
<line x1="848.063" y1="588.565" x2="871.817" y2="196.227" stroke="black" stroke-width="10" />
<path d="M809.64,624.72 A38.48,38.48 90.02 0,0 848.06,588.57" fill="none" stroke="black" stroke-width="10" />
<line x1="729.467" y1="656.882" x2="696.174" y2="857.547" stroke="black" stroke-width="10" />
<path d="M729.47,656.88 A38.48,38.48 189.42 0,1 767.44,624.70" fill="none" stroke="black" stroke-width="10" />
<line x1="557.249" y1="614.11" x2="551.96" y2="614.109" stroke="black" stroke-width="10" />
<line x1="618.767" y1="196.221" x2="595.668" y2="577.958" stroke="black" stroke-width="10" />
<path d="M557.25,614.11 A38.48,38.48 90.02 0,0 595.67,577.96" fill="none" stroke="black" stroke-width="10" />
<line x1="489.991" y1="790.148" x2="513.995" y2="646.254" stroke="black" stroke-width="10" />
<path d="M551.96,614.11 A38.48,38.48 270.02 0,0 513.99,646.25" fill="none" stroke="black" stroke-width="10" />
<line x1="703.416" y1="901.645" x2="371.677" y2="901.536" stroke="black" stroke-width="10" />
<line x1="371.675" y1="901.536" x2="359.715" y2="901.532" stroke="black" stroke-width="10" />
<path d="M373.62,912.89 A52.45,109.12 1.16 0,0 468.03,911.49" fill="none" stroke="black" stroke-width="10" />
<path d="M471.48,893.88 A52.45,109.12 1.16 1,0 370.26,892.47" fill="none" stroke="black" stroke-width="10" />
<path d="M163.92,1106.15 A107.70,236.66 0.02 0,1 44.57,913.76" fill="none" stroke="black" stroke-width="10" />
<path d="M43.21,891.05 A107.70,236.66 0.02 0,1 203.04,664.63" fill="none" stroke="black" stroke-width="10" />
<ellipse transform="translate(233.50 901.42) rotate(0.02)" rx="107.058" ry="236.016" fill="none" stroke="black" stroke-width="10" />
<ellipse transform="translate(836.88 896.70) rotate(0.02)" rx="109.809" ry="238.766" fill="none" stroke="black" stroke-width="10" />
<ellipse transform="translate(233.50 901.42) rotate(0.02)" rx="14.4288" ry="30.06" fill="none" stroke="black" stroke-width="10" />
<ellipse transform="translate(836.88 896.70) rotate(0.02)" rx="14.4288" ry="30.06" fill="none" stroke="black" stroke-width="10" />
</svg>