<?xml version="1.0" encoding="UTF-8" ?><!-- DOCTYPE svg PUBLIC "-//W3C//DTD SVG 1.1//EN" "http://www.w3.org/Graphics/SVG/1.1/DTD/svg11.dtd" -->
<svg viewBox="0,0,1024,1538" preserveAspectRatio="xMidYMid" zoomAndPan="magnify" xmlns="http://www.w3.org/2000/svg" xmlns:xlink="http://www.w3.org/1999/xlink">
<polyline points="267.24,387.54,267.24,0.00,313.91,0.00,327.74,15.21,339.49,76.40,339.49,112.70,328.77,173.89,313.91,189.10,267.24,189.10" fill="none" stroke="black" stroke-width="10" />
<polyline points="411.40,0.00,420.73,0.00,436.29,21.43,450.81,85.39,454.61,161.79,454.61,231.63,450.81,308.03,435.25,372.33,420.73,387.54,411.40,387.54,397.57,372.33,382.01,308.03,378.21,231.63,378.21,161.79,382.01,82.28,397.57,18.32,411.40,0.00" fill="none" stroke="black" stroke-width="10" />
<polyline points="492.99,0.00,492.99,387.54,559.36,387.54" fill="none" stroke="black" stroke-width="10" />
<polyline points="598.08,387.54,598.08,0.00" fill="none" stroke="black" stroke-width="10" />
<polyline points="708.71,76.40,694.19,12.10,679.67,0.00,669.64,0.00,655.82,12.10,639.91,76.40,636.46,161.79,636.46,207.43,636.46,237.85,637.15,265.51,639.91,314.25,655.82,375.44,669.64,387.54,677.60,387.54,693.50,375.44,708.71,314.25" fill="none" stroke="black" stroke-width="10" />
<polyline points="747.43,192.22,795.48,192.22" fill="none" stroke="black" stroke-width="10" />
<polyline points="814.50,0.00,747.43,0.00,747.43,387.54,819.34,387.54" fill="none" stroke="black" stroke-width="10" />
<polyline points="352.97,443.55,362.31,443.55,378.21,465.33,393.42,531.71,397.22,610.53,397.22,682.78,393.42,761.60,377.52,827.64,362.31,843.54,352.97,843.54,338.80,827.64,322.90,761.60,318.75,682.78,318.75,610.53,322.90,528.59,338.80,462.56,352.97,443.55" fill="none" stroke="black" stroke-width="10" />
<polyline points="436.63,843.54,436.63,443.55,510.96,843.54,510.96,443.55" fill="none" stroke="black" stroke-width="10" />
<polyline points="551.07,443.55,551.07,843.54,618.83,843.54" fill="none" stroke="black" stroke-width="10" />
<polyline points="696.26,635.42,696.26,843.54" fill="none" stroke="black" stroke-width="10" />
<polyline points="658.58,443.55,696.26,635.42,733.95,443.55" fill="none" stroke="black" stroke-width="10" />
<polyline points="2.07,951.40,8.64,961.77,116.85,961.77,110.63,941.03" fill="none" stroke="black" stroke-width="10" />
<polyline points="30.42,903.69,39.07,914.41,41.14,993.58" fill="none" stroke="black" stroke-width="10" />
<polyline points="73.98,903.69,86.77,909.22,78.13,1004.29" fill="none" stroke="black" stroke-width="10" />
<polyline points="19.36,983.21,23.85,993.58,17.29,1030.91,8.64,1073.09,0.00,1110.08" fill="none" stroke="black" stroke-width="10" />
<polyline points="23.85,1030.91,104.06,1030.91,101.99,1004.29" fill="none" stroke="black" stroke-width="10" />
<polyline points="101.99,1025.38,93.34,1136.70,86.77,1168.16,78.13,1189.60,67.07,1162.98" fill="none" stroke="black" stroke-width="10" />
<polyline points="21.43,1051.66,25.93,1062.72,28.35,1147.07" fill="none" stroke="black" stroke-width="10" />
<polyline points="28.35,1073.09,69.49,1073.09,62.92,1062.72" fill="none" stroke="black" stroke-width="10" />
<polyline points="64.99,1078.28,62.92,1147.07" fill="none" stroke="black" stroke-width="10" />
<polyline points="25.93,1141.89,64.99,1136.70" fill="none" stroke="black" stroke-width="10" />
<polyline points="138.98,893.32,147.27,909.22,136.56,972.83,129.99,1009.83,119.27,1051.66,108.55,1088.99" fill="none" stroke="black" stroke-width="10" />
<polyline points="141.05,993.58,210.54,993.58,201.55,978.02" fill="none" stroke="black" stroke-width="10" />
<polyline points="186.34,993.58,177.70,1041.29,166.98,1083.46,156.26,1115.27,138.98,1147.07,108.55,1184.41" fill="none" stroke="black" stroke-width="10" />
<polyline points="141.05,1004.29,147.27,1057.19,160.41,1094.18,177.70,1131.17,195.33,1162.98,210.54,1178.88" fill="none" stroke="black" stroke-width="10" />
<polyline points="41.14,1199.97,49.78,1215.87,162.48,1215.87,156.26,1194.78" fill="none" stroke="black" stroke-width="10" />
<polyline points="0.00,1236.96,4.49,1252.86,210.54,1252.86,201.55,1268.76" fill="none" stroke="black" stroke-width="10" />
<polyline points="43.56,1321.66,49.78,1332.38,166.98,1332.38,162.48,1321.66" fill="none" stroke="black" stroke-width="10" />
<polyline points="43.56,1379.74,47.71,1384.92,169.40,1384.92,162.48,1374.55" fill="none" stroke="black" stroke-width="10" />
<polyline points="32.50,1411.54,41.14,1422.26,43.56,1538.42" fill="none" stroke="black" stroke-width="10" />
<polyline points="39.07,1437.82,180.12,1437.82,173.55,1427.45" fill="none" stroke="black" stroke-width="10" />
<polyline points="175.62,1437.82,171.47,1538.42" fill="none" stroke="black" stroke-width="10" />
<polyline points="39.07,1512.15,173.55,1512.15" fill="none" stroke="black" stroke-width="10" />
<polyline points="364.38,893.32,373.02,919.59,375.10,988.39" fill="none" stroke="black" stroke-width="10" />
<polyline points="286.25,956.59,294.89,972.83,288.32,999.11,284.18,1036.10,279.68,1067.91,271.04,1104.90" fill="none" stroke="black" stroke-width="10" />
<polyline points="292.47,978.02,296.97,993.58,481.58,993.58,477.08,967.30" fill="none" stroke="black" stroke-width="10" />
<polyline points="481.58,988.39,457.38,1046.47" fill="none" stroke="black" stroke-width="10" />
<polyline points="327.39,1009.83,333.96,1025.38,327.39,1062.72,318.75,1104.90,310.10,1141.89,294.89,1178.88,288.32,1199.97" fill="none" stroke="black" stroke-width="10" />
<polyline points="325.32,1083.46,375.10,1083.46,368.53,1067.91" fill="none" stroke="black" stroke-width="10" />
<polyline points="368.53,1083.46,357.81,1147.07,340.53,1205.15,318.75,1258.05,303.54,1289.85,286.25,1316.47" fill="none" stroke="black" stroke-width="10" />
<polyline points="325.32,1131.17,340.53,1189.60" fill="none" stroke="black" stroke-width="10" />
<polyline points="303.54,1189.60,320.82,1247.68" fill="none" stroke="black" stroke-width="10" />
<polyline points="387.89,1036.10,394.80,1083.46,405.52,1131.17,418.31,1168.16,448.73,1215.87,481.58,1247.68" fill="none" stroke="black" stroke-width="10" />
<polyline points="394.80,1078.28,453.23,1078.28,448.73,1051.66" fill="none" stroke="black" stroke-width="10" />
<polyline points="453.23,1073.09,422.81,1157.79" fill="none" stroke="black" stroke-width="10" />
<polyline points="338.11,1242.49,345.02,1258.05,422.81,1258.05,418.31,1242.49" fill="none" stroke="black" stroke-width="10" />
<polyline points="296.97,1326.84,305.61,1337.56,463.95,1337.56,455.65,1347.93" fill="none" stroke="black" stroke-width="10" />
<polyline points="381.67,1358.65,381.67,1522.86,373.02,1538.42,355.74,1501.43" fill="none" stroke="black" stroke-width="10" />
<polyline points="333.96,1401.17,340.53,1416.73,292.47,1506.61" fill="none" stroke="black" stroke-width="10" />
<polyline points="418.31,1411.54,477.08,1501.43" fill="none" stroke="black" stroke-width="10" />
<polyline points="561.78,956.59,566.28,967.30,568.35,972.83,748.47,972.83,741.90,961.77" fill="none" stroke="black" stroke-width="10" />
<polyline points="644.06,888.14,653.05,909.22,653.05,1289.85" fill="none" stroke="black" stroke-width="10" />
<polyline points="585.64,1015.01,594.28,1036.10,594.28,1247.68" fill="none" stroke="black" stroke-width="10" />
<polyline points="594.28,1041.29,720.12,1041.29,711.48,1030.91" fill="none" stroke="black" stroke-width="10" />
<polyline points="711.48,1041.29,711.48,1242.49" fill="none" stroke="black" stroke-width="10" />
<polyline points="594.28,1141.89,711.48,1141.89" fill="none" stroke="black" stroke-width="10" />
<polyline points="594.28,1226.59,711.48,1226.59" fill="none" stroke="black" stroke-width="10" />
<polyline points="568.35,1305.76,574.57,1316.47,704.91,1268.76" fill="none" stroke="black" stroke-width="10" />
<polyline points="696.26,1242.49,718.04,1295.04" fill="none" stroke="black" stroke-width="10" />
<polyline points="544.50,1321.66,553.14,1342.75,757.11,1342.75,748.47,1321.66" fill="none" stroke="black" stroke-width="10" />
<polyline points="620.21,1395.99,646.48,1427.45" fill="none" stroke="black" stroke-width="10" />
<polyline points="687.62,1305.76,687.62,1464.44,687.62,1501.43,683.47,1522.86,672.41,1538.42,665.84,1538.42,661.69,1512.15,655.12,1501.43,644.06,1496.24" fill="none" stroke="black" stroke-width="10" />
<polyline points="845.61,893.32,852.53,909.22,856.68,1136.70,856.68,1231.77,852.53,1321.66,845.61,1395.99,837.32,1459.25,822.10,1512.15,813.46,1538.42" fill="none" stroke="black" stroke-width="10" />
<polyline points="852.53,919.59,1024.00,919.59,1008.79,903.69" fill="none" stroke="black" stroke-width="10" />
<polyline points="1017.09,919.59,1017.09,1469.62,1015.01,1501.43,1004.29,1522.86,991.16,1538.42,984.59,1501.43,978.37,1485.87,971.45,1485.87" fill="none" stroke="black" stroke-width="10" />
<polyline points="858.75,1078.28,867.74,1099.71,1004.29,1099.71,997.73,1088.99" fill="none" stroke="black" stroke-width="10" />
<polyline points="858.75,1258.05,867.74,1274.30,1001.87,1274.30,995.65,1258.05" fill="none" stroke="black" stroke-width="10" />
<polyline points="928.24,919.59,932.73,956.59,932.73,1533.23,930.31,1506.61" fill="none" stroke="black" stroke-width="10" />
</svg>