<?xml version="1.0" encoding="UTF-8" ?><!-- DOCTYPE svg PUBLIC "-//W3C//DTD SVG 1.1//EN" "http://www.w3.org/Graphics/SVG/1.1/DTD/svg11.dtd" -->
<svg viewBox="0,0,1024,1610" preserveAspectRatio="xMidYMid" zoomAndPan="magnify" xmlns="http://www.w3.org/2000/svg" xmlns:xlink="http://www.w3.org/1999/xlink">
<path d="M59.12,313.41 A108.33,37.86 89.99 0,0 76.96,307.58" fill="none" stroke="black" stroke-width="10" />
<path d="M76.96,307.58 A117.89,41.21 89.99 0,0 96.05,270.88" fill="none" stroke="black" stroke-width="10" />
<line x1="110.301" y1="238.664" x2="110.29" y2="141.764" stroke="black" stroke-width="10" />
<path d="M110.29,141.76 A526.45,184.01 269.99 0,0 109.88,78.91" fill="none" stroke="black" stroke-width="10" />
<path d="M109.88,78.91 A66.15,23.12 269.99 0,0 104.04,36.86" fill="none" stroke="black" stroke-width="10" />
<path d="M104.04,36.86 A110.43,38.60 269.99 0,0 89.11,8.86" fill="none" stroke="black" stroke-width="10" />
<path d="M89.11,8.86 A169.37,59.20 269.99 0,0 65.32,0.58" fill="none" stroke="black" stroke-width="10" />
<path d="M65.32,0.58 A180.72,63.16 269.99 0,0 48.15,8.04" fill="none" stroke="black" stroke-width="10" />
<path d="M48.15,8.04 A202.61,70.82 269.99 0,0 37.43,20.49" fill="none" stroke="black" stroke-width="10" />
<path d="M37.43,20.49 A220.40,77.03 89.99 0,1 28.10,31.27" fill="none" stroke="black" stroke-width="10" />
<line x1="110.446" y1="118.032" x2="71.283" y2="125.453" stroke="black" stroke-width="10" />
<path d="M71.28,125.45 A940.92,328.87 269.99 0,0 59.49,128.22" fill="none" stroke="black" stroke-width="10" />
<path d="M59.49,128.22 A195.35,68.28 269.99 0,0 45.35,137.60" fill="none" stroke="black" stroke-width="10" />
<path d="M45.35,137.60 A98.26,34.34 269.99 0,0 30.73,164.22" fill="none" stroke="black" stroke-width="10" />
<path d="M30.73,164.22 A85.04,29.72 269.99 0,0 24.57,222.05" fill="none" stroke="black" stroke-width="10" />
<path d="M24.57,222.05 A85.29,29.81 269.99 0,0 30.33,274.38" fill="none" stroke="black" stroke-width="10" />
<path d="M30.33,274.38 A103.69,36.24 89.99 0,0 43.20,303.15" fill="none" stroke="black" stroke-width="10" />
<path d="M43.20,303.15 A142.84,49.93 89.99 0,0 59.12,313.41" fill="none" stroke="black" stroke-width="10" />
<line x1="59.1214" y1="313.41" x2="59.1214" y2="313.41" stroke="black" stroke-width="10" />
<polyline points="96.05,270.88,110.30,233.21" fill="none" stroke="black" stroke-width="10" />
<polyline points="110.30,238.66,112.70,278.54,115.09,292.05,118.27,303.18,121.45,311.14" fill="none" stroke="black" stroke-width="10" />
<g>
<line x1="133.35" y1="0.499282" x2="133.761" y2="308.547" stroke="black" stroke-width="10" />
<polyline points="194.54,42.36,194.58,308.74" fill="none" stroke="black" stroke-width="10" />
<polyline points="133.48,42.33,136.46,29.68,140.35,18.96,145.84,9.82,154.68,2.57,164.31,0.53,173.15,3.24,181.99,9.38,186.41,16.51,189.11,24.63,194.54,42.36,198.68,25.12,201.63,15.78,207.03,7.66,213.90,2.00,223.47,0.03,234.03,3.23,242.13,11.10,246.79,20.93,250.98,36.79,251.78,60.65,251.78,86.09,251.81,308.73" fill="none" stroke="black" stroke-width="10" />
</g>
<g>
<line x1="133.631" y1="839.114" x2="133.507" y2="1147.13" stroke="black" stroke-width="10" />
<polyline points="194.65,880.86,194.68,1147.24" fill="none" stroke="black" stroke-width="10" />
<polyline points="133.58,880.83,136.56,868.17,140.46,857.46,145.95,848.32,154.78,841.07,164.42,839.03,173.25,841.74,182.09,847.88,186.51,855.01,189.21,863.13,194.65,880.86,198.78,863.62,201.73,854.27,207.13,846.16,214.00,840.50,223.57,838.53,234.13,841.73,242.23,849.60,246.90,859.43,251.08,875.29,251.88,899.14,251.88,924.59,251.91,1147.23" fill="none" stroke="black" stroke-width="10" />
</g>
<polyline points="4.93,1227.56,7.12,1240.86,109.26,1240.87,102.34,1221.12" fill="none" stroke="black" stroke-width="10" />
<polyline points="52.72,1237.86,57.80,1247.56,57.85,1580.32,58.54,1610.19" fill="none" stroke="black" stroke-width="10" />
<polyline points="58.81,1327.45,67.36,1337.62,80.45,1357.47,87.85,1387.46,89.92,1407.47,88.90,1397.20" fill="none" stroke="black" stroke-width="10" />
<polyline points="178.84,1204.32,190.77,1221.14,185.15,1257.64,176.77,1291.02,170.62,1327.48,160.79,1367.23,148.74,1394.22" fill="none" stroke="black" stroke-width="10" />
<polyline points="178.71,1280.65,185.00,1297.41,252.19,1297.54,249.77,1274.29" fill="none" stroke="black" stroke-width="10" />
<polyline points="156.08,1420.71,165.44,1430.67,266.51,1430.61,262.72,1417.22" fill="none" stroke="black" stroke-width="10" />
<polyline points="214.84,1297.26,214.97,1610.13,212.85,1600.33" fill="none" stroke="black" stroke-width="10" />
<polyline points="28.79,839.48,29.10,1149.14" fill="none" stroke="black" stroke-width="10" />
<polyline points="28.95,883.04,43.55,853.78,58.88,839.62,81.19,839.57,95.95,853.86,111.20,882.97,118.45,929.35,118.35,958.91,111.23,1002.85,96.10,1032.07,81.27,1046.80,58.70,1046.57,43.69,1031.99,28.73,1002.63" fill="none" stroke="black" stroke-width="10" />
<polyline points="440.29,909.04,323.83,1318.09,500.44,1317.85" fill="none" stroke="black" stroke-width="10" />
<polyline points="440.29,909.04,440.35,1519.72" fill="none" stroke="black" stroke-width="10" />
<polyline points="587.46,1217.00,688.52,1216.95" fill="none" stroke="black" stroke-width="10" />
<polyline points="948.01,909.19,830.08,1519.74" fill="none" stroke="black" stroke-width="10" />
<polyline points="783.25,909.04,948.01,909.19" fill="none" stroke="black" stroke-width="10" />
<polyline points="479.09,82.37,369.20,684.25" fill="none" stroke="black" stroke-width="10" />
<polyline points="326.16,82.37,479.09,82.37" fill="none" stroke="black" stroke-width="10" />
<polyline points="562.03,385.53,655.57,385.58" fill="none" stroke="black" stroke-width="10" />
<polyline points="742.61,200.87,764.43,167.73,796.53,82.24,796.55,684.31" fill="none" stroke="black" stroke-width="10" />
<polyline points="935.22,82.22,903.20,110.73,881.59,200.59,870.65,342.95,870.53,428.42,881.64,570.44,903.30,655.83,935.53,684.04,957.02,684.21,989.59,655.72,1012.80,570.52,1024.00,428.45,1023.58,342.95,1012.75,200.68,989.48,110.63,957.00,82.13,935.22,82.22" fill="none" stroke="black" stroke-width="10" />
<polyline points="51.23,387.62,56.16,400.00,56.01,759.35" fill="none" stroke="black" stroke-width="10" />
<polyline points="52.55,573.42,103.88,573.45,100.28,561.41" fill="none" stroke="black" stroke-width="10" />
<polyline points="0.00,747.24,5.11,756.40,115.85,756.37,112.44,750.26" fill="none" stroke="black" stroke-width="10" />
<polyline points="179.17,387.51,190.91,402.98,185.20,436.51,176.47,466.65,170.73,500.72,161.37,537.00,148.94,561.28" fill="none" stroke="black" stroke-width="10" />
<polyline points="179.14,457.66,185.23,473.07,252.17,472.92,249.38,451.52" fill="none" stroke="black" stroke-width="10" />
<polyline points="156.40,585.63,165.83,594.51,266.07,594.68,262.47,582.64" fill="none" stroke="black" stroke-width="10" />
<polyline points="214.82,472.64,214.87,759.16,212.44,750.15" fill="none" stroke="black" stroke-width="10" />
</svg>