<?xml version="1.0" encoding="UTF-8" ?><!-- DOCTYPE svg PUBLIC "-//W3C//DTD SVG 1.1//EN" "http://www.w3.org/Graphics/SVG/1.1/DTD/svg11.dtd" -->
<svg viewBox="0,0,1024,760" preserveAspectRatio="xMidYMid" zoomAndPan="magnify" xmlns="http://www.w3.org/2000/svg" xmlns:xlink="http://www.w3.org/1999/xlink">
<path d="M59.05,313.47 A108.35,37.87 90.00 0,0 76.89,307.63" fill="none" stroke="black" stroke-width="10" />
<path d="M76.89,307.63 A117.91,41.21 90.00 0,0 95.99,270.94" fill="none" stroke="black" stroke-width="10" />
<line x1="110.252" y1="238.716" x2="110.257" y2="141.798" stroke="black" stroke-width="10" />
<path d="M110.26,141.80 A526.55,184.04 270.00 0,0 109.86,78.93" fill="none" stroke="black" stroke-width="10" />
<path d="M109.86,78.93 A66.16,23.13 270.00 0,0 104.02,36.87" fill="none" stroke="black" stroke-width="10" />
<path d="M104.02,36.87 A110.45,38.61 270.00 0,0 89.10,8.87" fill="none" stroke="black" stroke-width="10" />
<path d="M89.10,8.87 A169.40,59.21 270.00 0,0 65.30,0.58" fill="none" stroke="black" stroke-width="10" />
<path d="M65.30,0.58 A180.75,63.18 270.00 0,0 48.13,8.04" fill="none" stroke="black" stroke-width="10" />
<path d="M48.13,8.04 A202.65,70.83 270.00 0,0 37.40,20.49" fill="none" stroke="black" stroke-width="10" />
<path d="M37.40,20.49 A220.44,77.05 90.00 0,1 28.07,31.27" fill="none" stroke="black" stroke-width="10" />
<line x1="110.417" y1="118.061" x2="71.2456" y2="125.477" stroke="black" stroke-width="10" />
<path d="M71.25,125.48 A941.10,328.93 270.00 0,0 59.45,128.24" fill="none" stroke="black" stroke-width="10" />
<path d="M59.45,128.24 A195.38,68.29 270.00 0,0 45.30,137.62" fill="none" stroke="black" stroke-width="10" />
<path d="M45.30,137.62 A98.28,34.35 270.00 0,0 30.67,164.25" fill="none" stroke="black" stroke-width="10" />
<path d="M30.67,164.25 A85.06,29.73 270.00 0,0 24.51,222.09" fill="none" stroke="black" stroke-width="10" />
<path d="M24.51,222.09 A85.31,29.82 270.00 0,0 30.26,274.43" fill="none" stroke="black" stroke-width="10" />
<path d="M30.26,274.43 A103.71,36.25 90.00 0,0 43.13,303.21" fill="none" stroke="black" stroke-width="10" />
<path d="M43.13,303.21 A142.87,49.94 90.00 0,0 59.05,313.47" fill="none" stroke="black" stroke-width="10" />
<line x1="59.0489" y1="313.467" x2="59.0489" y2="313.467" stroke="black" stroke-width="10" />
<polyline points="95.99,270.94,110.25,233.26" fill="none" stroke="black" stroke-width="10" />
<polyline points="110.25,238.72,112.65,278.59,115.03,292.12,118.21,303.25,121.39,311.20" fill="none" stroke="black" stroke-width="10" />
<g>
<line x1="133.571" y1="0.492575" x2="133.55" y2="308.94" stroke="black" stroke-width="10" />
<polyline points="194.55,42.39,194.53,308.82" fill="none" stroke="black" stroke-width="10" />
<polyline points="133.47,42.35,136.46,29.69,140.35,18.98,145.84,9.84,154.68,2.58,164.32,0.55,173.15,3.26,181.99,9.41,186.41,16.54,189.11,24.66,194.55,42.39,198.69,25.15,201.63,15.80,207.04,7.68,213.91,2.03,223.49,0.06,234.04,3.26,242.14,11.13,246.81,20.97,250.99,36.83,251.78,60.69,251.78,86.14,251.77,308.82" fill="none" stroke="black" stroke-width="10" />
</g>
<polyline points="479.15,82.74,368.93,684.39" fill="none" stroke="black" stroke-width="10" />
<polyline points="325.89,82.69,479.15,82.74" fill="none" stroke="black" stroke-width="10" />
<polyline points="562.19,385.68,655.91,385.68" fill="none" stroke="black" stroke-width="10" />
<polyline points="742.68,200.99,764.36,167.87,796.46,82.60,796.44,684.52" fill="none" stroke="black" stroke-width="10" />
<polyline points="935.55,82.37,903.03,111.11,881.77,200.75,870.37,343.02,870.41,429.08,881.72,571.04,903.03,656.18,935.47,684.66,957.06,684.18,989.89,655.88,1012.76,570.71,1023.73,428.75,1024.00,343.14,1012.75,200.79,989.83,111.18,957.01,82.64,935.55,82.37" fill="none" stroke="black" stroke-width="10" />
<polyline points="51.34,387.94,56.33,400.24,56.42,759.80" fill="none" stroke="black" stroke-width="10" />
<polyline points="52.75,573.69,103.86,573.59,99.98,561.46" fill="none" stroke="black" stroke-width="10" />
<polyline points="0.00,747.17,4.72,756.35,115.73,756.36,112.42,750.46" fill="none" stroke="black" stroke-width="10" />
<polyline points="178.94,387.46,190.66,403.49,185.08,436.81,176.48,467.36,170.48,500.99,160.95,537.53,149.16,561.44" fill="none" stroke="black" stroke-width="10" />
<polyline points="179.07,458.16,184.84,472.88,252.05,472.98,248.83,451.73" fill="none" stroke="black" stroke-width="10" />
<polyline points="156.09,585.95,165.80,595.14,266.08,595.01,262.58,582.94" fill="none" stroke="black" stroke-width="10" />
<polyline points="214.80,472.94,214.73,759.48,212.70,750.33" fill="none" stroke="black" stroke-width="10" />
</svg>