<?xml version="1.0" encoding="UTF-8" ?><!-- DOCTYPE svg PUBLIC "-//W3C//DTD SVG 1.1//EN" "http://www.w3.org/Graphics/SVG/1.1/DTD/svg11.dtd" -->
<svg viewBox="0,0,1024,846" preserveAspectRatio="xMidYMid" zoomAndPan="magnify" xmlns="http://www.w3.org/2000/svg" xmlns:xlink="http://www.w3.org/1999/xlink">
<path d="M65.13,348.75 A120.55,42.13 90.00 0,0 84.99,342.26" fill="none" stroke="black" stroke-width="10" />
<path d="M84.99,342.26 A131.18,45.85 90.00 0,0 106.23,301.43" fill="none" stroke="black" stroke-width="10" />
<line x1="122.095" y1="265.582" x2="122.095" y2="157.756" stroke="black" stroke-width="10" />
<path d="M122.09,157.76 A585.82,204.76 270.00 0,0 121.65,87.81" fill="none" stroke="black" stroke-width="10" />
<path d="M121.65,87.81 A73.61,25.73 270.00 0,0 115.15,41.02" fill="none" stroke="black" stroke-width="10" />
<path d="M115.15,41.02 A122.88,42.95 270.00 0,0 98.54,9.86" fill="none" stroke="black" stroke-width="10" />
<path d="M98.54,9.86 A188.47,65.87 270.00 0,0 72.07,0.64" fill="none" stroke="black" stroke-width="10" />
<path d="M72.07,0.64 A201.10,70.29 270.00 0,0 52.97,8.95" fill="none" stroke="black" stroke-width="10" />
<path d="M52.97,8.95 A225.45,78.80 270.00 0,0 41.04,22.79" fill="none" stroke="black" stroke-width="10" />
<path d="M41.04,22.79 A245.25,85.72 90.00 0,1 30.65,34.79" fill="none" stroke="black" stroke-width="10" />
<line x1="122.272" y1="131.347" x2="78.6917" y2="139.6" stroke="black" stroke-width="10" />
<path d="M78.69,139.60 A1047.02,365.96 270.00 0,0 65.56,142.68" fill="none" stroke="black" stroke-width="10" />
<path d="M65.56,142.68 A217.37,75.98 270.00 0,0 49.83,153.11" fill="none" stroke="black" stroke-width="10" />
<path d="M49.83,153.11 A109.34,38.22 270.00 0,0 33.56,182.73" fill="none" stroke="black" stroke-width="10" />
<path d="M33.56,182.73 A94.63,33.07 270.00 0,0 26.70,247.09" fill="none" stroke="black" stroke-width="10" />
<path d="M26.70,247.09 A94.91,33.17 270.00 0,0 33.10,305.32" fill="none" stroke="black" stroke-width="10" />
<path d="M33.10,305.32 A115.39,40.33 90.00 0,0 47.42,337.33" fill="none" stroke="black" stroke-width="10" />
<path d="M47.42,337.33 A158.95,55.56 90.00 0,0 65.13,348.75" fill="none" stroke="black" stroke-width="10" />
<line x1="65.1333" y1="348.75" x2="65.1333" y2="348.75" stroke="black" stroke-width="10" />
<polyline points="106.23,301.43,122.09,259.51" fill="none" stroke="black" stroke-width="10" />
<polyline points="122.09,265.58,124.76,309.95,127.42,324.99,130.95,337.38,134.49,346.23" fill="none" stroke="black" stroke-width="10" />
<g>
<line x1="147.794" y1="0.496772" x2="147.794" y2="343.378" stroke="black" stroke-width="10" />
<polyline points="215.86,47.16,215.86,343.57" fill="none" stroke="black" stroke-width="10" />
<polyline points="147.92,47.12,151.23,33.03,155.57,21.11,161.68,10.94,171.51,2.87,182.23,0.61,192.06,3.62,201.90,10.46,206.81,18.39,209.82,27.42,215.86,47.16,220.47,27.97,223.75,17.57,229.76,8.54,237.41,2.25,248.06,0.06,259.81,3.62,268.82,12.37,274.01,23.32,278.66,40.96,279.55,67.51,279.55,95.82,279.55,343.57" fill="none" stroke="black" stroke-width="10" />
</g>
<polyline points="532.48,91.71,410.02,761.42" fill="none" stroke="black" stroke-width="10" />
<polyline points="361.88,91.71,532.48,91.71" fill="none" stroke="black" stroke-width="10" />
<polyline points="624.53,429.10,728.83,429.10" fill="none" stroke="black" stroke-width="10" />
<polyline points="1024.00,317.62,1006.26,412.63,975.86,475.97,930.68,507.64,915.48,507.64,869.87,475.97,839.47,412.63,824.27,317.62,824.27,285.95,839.47,185.87,869.87,122.53,915.48,90.86,930.68,90.86,975.86,122.53,1006.26,185.87,1024.00,317.62,1024.00,475.97,1006.26,633.90,975.86,728.91,930.68,760.58,900.28,760.58,854.67,728.91,839.47,665.57" fill="none" stroke="black" stroke-width="10" />
<polyline points="57.01,432.48,62.50,446.41,62.50,846.30" fill="none" stroke="black" stroke-width="10" />
<polyline points="58.70,639.39,115.70,639.39,111.48,625.88" fill="none" stroke="black" stroke-width="10" />
<polyline points="0.00,832.79,5.49,842.92,128.79,842.92,124.99,836.17" fill="none" stroke="black" stroke-width="10" />
<polyline points="199.31,432.48,212.40,449.79,206.07,486.95,196.35,520.73,190.02,558.31,179.46,598.85,165.95,625.88" fill="none" stroke="black" stroke-width="10" />
<polyline points="199.31,510.60,206.07,527.49,280.39,527.49,277.43,503.84" fill="none" stroke="black" stroke-width="10" />
<polyline points="173.97,652.90,184.53,663.04,296.01,663.04,292.21,649.52" fill="none" stroke="black" stroke-width="10" />
<polyline points="239.00,527.49,239.00,846.30,236.47,836.17" fill="none" stroke="black" stroke-width="10" />
</svg>