<?xml version="1.0" encoding="UTF-8" ?><!-- DOCTYPE svg PUBLIC "-//W3C//DTD SVG 1.1//EN" "http://www.w3.org/Graphics/SVG/1.1/DTD/svg11.dtd" -->
<svg viewBox="0,0,1024,2505" preserveAspectRatio="xMidYMid" zoomAndPan="magnify" xmlns="http://www.w3.org/2000/svg" xmlns:xlink="http://www.w3.org/1999/xlink">
<g>
<polyline points="74.87,1407.84,75.24,1038.83,128.03,1279.77,181.76,1039.46,181.86,1408.00" fill="none" stroke="black" stroke-width="10" />
<polyline points="247.96,1407.69,248.34,1039.62" fill="none" stroke="black" stroke-width="10" />
<polyline points="450.23,1222.21,517.75,1221.88" fill="none" stroke="black" stroke-width="10" />
<polyline points="315.49,1047.86,315.49,1408.31" fill="none" stroke="black" stroke-width="10" />
<polyline points="315.49,1047.86,365.90,1048.21,387.49,1064.60,401.21,1098.68,407.80,1132.84,415.54,1184.10,415.63,1271.60,408.15,1323.04,401.43,1357.36,387.08,1390.34,365.89,1407.71,315.49,1408.31" fill="none" stroke="black" stroke-width="10" />
</g>
<polyline points="0.20,1887.59,0.00,1510.49,99.59,1887.83,99.39,1510.74" fill="none" stroke="black" stroke-width="10" />
<polyline points="146.46,1510.66,146.66,1887.75" fill="none" stroke="black" stroke-width="10" />
<polyline points="303.49,1599.14,295.93,1563.57,282.68,1528.54,268.68,1510.63,240.62,1510.49,226.09,1528.26,212.24,1563.61,203.64,1599.85,197.14,1653.66,196.81,1745.45,203.62,1798.62,212.61,1834.66,225.87,1870.16,240.34,1887.59,267.92,1887.73,282.45,1869.97,296.78,1834.61,303.48,1798.86,303.32,1745.13" fill="none" stroke="black" stroke-width="10" />
<polyline points="268.13,1744.60,303.32,1745.13" fill="none" stroke="black" stroke-width="10" />
<polyline points="351.42,1510.60,351.62,1887.69" fill="none" stroke="black" stroke-width="10" />
<polyline points="450.81,1510.85,451.00,1887.94" fill="none" stroke="black" stroke-width="10" />
<polyline points="351.63,1688.92,451.02,1689.17" fill="none" stroke="black" stroke-width="10" />
<polyline points="547.81,1510.64,548.01,1887.74" fill="none" stroke="black" stroke-width="10" />
<polyline points="497.88,1510.76,597.26,1510.53" fill="none" stroke="black" stroke-width="10" />
<polyline points="133.22,1997.28,150.10,2016.58,141.56,2059.00,130.12,2096.23,121.11,2138.18,108.33,2183.51,91.58,2214.14" fill="none" stroke="black" stroke-width="10" />
<polyline points="133.31,2084.78,141.63,2104.65,235.78,2104.01,232.13,2077.42" fill="none" stroke="black" stroke-width="10" />
<polyline points="101.92,2244.45,114.91,2256.66,255.66,2256.42,251.67,2240.77" fill="none" stroke="black" stroke-width="10" />
<polyline points="183.47,2104.15,183.92,2461.74,180.45,2449.90" fill="none" stroke="black" stroke-width="10" />
<polyline points="377.17,1997.71,384.06,2016.65,383.69,2066.11" fill="none" stroke="black" stroke-width="10" />
<polyline points="308.08,2065.58,315.26,2069.78,459.82,2069.96,446.28,2050.62" fill="none" stroke="black" stroke-width="10" />
<polyline points="343.68,2100.35,349.91,2104.08,356.65,2111.61,350.40,2145.92,340.39,2184.08,326.96,2214.20,314.88,2237.64,301.73,2252.06" fill="none" stroke="black" stroke-width="10" />
<polyline points="333.78,2187.96,336.81,2202.67,336.60,2465.16,334.72,2427.14" fill="none" stroke="black" stroke-width="10" />
<polyline points="385.39,2088.91,396.04,2104.48,392.72,2145.42,382.24,2183.58,368.47,2226.07,358.32,2252.34,348.48,2263.87" fill="none" stroke="black" stroke-width="10" />
<polyline points="390.25,2137.84,399.39,2146.29,445.98,2145.73,436.30,2131.11" fill="none" stroke="black" stroke-width="10" />
<polyline points="444.51,2141.95,437.88,2184.35,432.76,2233.39,421.07,2290.59,409.21,2332.58,393.96,2370.33,375.87,2408.58,360.40,2427.31,350.03,2435.04" fill="none" stroke="black" stroke-width="10" />
<polyline points="399.07,2199.55,411.18,2217.95,417.54,2233.57,421.18,2259.68" fill="none" stroke="black" stroke-width="10" />
<polyline points="375.34,2203.16,381.92,2237.32,392.40,2279.04,402.51,2328.85,418.03,2354.82,436.51,2389.32,452.90,2408.14,465.97,2427.48" fill="none" stroke="black" stroke-width="10" />
<g>
<polyline points="644.99,1515.97,673.95,1474.11,717.41,1366.58,717.41,2125.30" fill="none" stroke="black" stroke-width="10" />
<polyline points="833.28,1551.82,833.28,1515.97,847.76,1444.29,862.24,1402.42,891.21,1366.58,949.15,1366.58,978.12,1402.42,992.60,1444.29,1009.52,1515.97,1009.52,1587.66,992.60,1659.34,963.63,1766.87,818.79,2125.30,1024.00,2125.30" fill="none" stroke="black" stroke-width="10" />
</g>
<path d="M145.57,392.71 A135.74,47.44 90.00 0,0 167.93,385.40" fill="none" stroke="black" stroke-width="10" />
<path d="M167.93,385.40 A147.72,51.63 90.00 0,0 191.85,339.42" fill="none" stroke="black" stroke-width="10" />
<line x1="209.715" y1="299.058" x2="209.715" y2="177.641" stroke="black" stroke-width="10" />
<path d="M209.72,177.64 A659.66,230.57 270.00 0,0 209.22,98.88" fill="none" stroke="black" stroke-width="10" />
<path d="M209.22,98.88 A82.89,28.97 270.00 0,0 201.89,46.19" fill="none" stroke="black" stroke-width="10" />
<path d="M201.89,46.19 A138.37,48.36 270.00 0,0 183.20,11.11" fill="none" stroke="black" stroke-width="10" />
<path d="M183.20,11.11 A212.22,74.18 270.00 0,0 153.39,0.72" fill="none" stroke="black" stroke-width="10" />
<path d="M153.39,0.72 A226.44,79.15 270.00 0,0 131.88,10.08" fill="none" stroke="black" stroke-width="10" />
<path d="M131.88,10.08 A253.87,88.73 270.00 0,0 118.44,25.67" fill="none" stroke="black" stroke-width="10" />
<path d="M118.44,25.67 A276.16,96.52 90.00 0,1 106.74,39.18" fill="none" stroke="black" stroke-width="10" />
<line x1="209.915" y1="147.903" x2="160.841" y2="157.197" stroke="black" stroke-width="10" />
<path d="M160.84,157.20 A1179.00,412.08 270.00 0,0 146.06,160.66" fill="none" stroke="black" stroke-width="10" />
<path d="M146.06,160.66 A244.77,85.55 270.00 0,0 128.34,172.41" fill="none" stroke="black" stroke-width="10" />
<path d="M128.34,172.41 A123.12,43.03 270.00 0,0 110.02,205.77" fill="none" stroke="black" stroke-width="10" />
<path d="M110.02,205.77 A106.56,37.24 270.00 0,0 102.30,278.23" fill="none" stroke="black" stroke-width="10" />
<path d="M102.30,278.23 A106.87,37.35 270.00 0,0 109.50,343.80" fill="none" stroke="black" stroke-width="10" />
<path d="M109.50,343.80 A129.93,45.41 90.00 0,0 125.63,379.85" fill="none" stroke="black" stroke-width="10" />
<path d="M125.63,379.85 A178.98,62.56 90.00 0,0 145.57,392.71" fill="none" stroke="black" stroke-width="10" />
<line x1="145.574" y1="392.71" x2="145.574" y2="392.71" stroke="black" stroke-width="10" />
<polyline points="191.85,339.42,209.72,292.23" fill="none" stroke="black" stroke-width="10" />
<polyline points="209.72,299.06,212.72,349.02,215.71,365.96,219.69,379.91,223.67,389.87" fill="none" stroke="black" stroke-width="10" />
<g>
<line x1="238.853" y1="0.707348" x2="238.684" y2="386.839" stroke="black" stroke-width="10" />
<polyline points="315.30,53.10,315.30,386.88" fill="none" stroke="black" stroke-width="10" />
<polyline points="238.79,53.05,242.53,37.19,247.41,23.77,254.29,12.32,265.36,3.23,277.43,0.68,288.50,4.07,299.58,11.78,305.11,20.71,308.50,30.88,315.30,53.10,320.49,31.50,324.18,19.79,330.95,9.62,339.56,2.53,351.56,0.07,364.78,4.07,374.93,13.93,380.78,26.26,386.02,46.13,387.01,76.02,387.01,107.90,387.01,386.88" fill="none" stroke="black" stroke-width="10" />
</g>
<polyline points="671.85,103.51,533.88,857.91" fill="none" stroke="black" stroke-width="10" />
<polyline points="479.74,103.89,671.85,103.51" fill="none" stroke="black" stroke-width="10" />
<polyline points="775.75,483.65,893.21,483.68" fill="none" stroke="black" stroke-width="10" />
<polyline points="135.72,486.02,141.61,501.64,141.73,951.97" fill="none" stroke="black" stroke-width="10" />
<polyline points="137.54,719.01,201.73,718.72,196.80,704.04" fill="none" stroke="black" stroke-width="10" />
<polyline points="71.64,936.16,77.97,948.44,216.34,947.75,211.98,940.67" fill="none" stroke="black" stroke-width="10" />
<polyline points="295.97,486.02,310.47,505.34,303.35,546.80,292.39,584.97,285.77,627.37,272.99,673.17,258.62,703.78" fill="none" stroke="black" stroke-width="10" />
<polyline points="296.07,573.99,303.42,592.45,387.11,592.41,383.47,566.30" fill="none" stroke="black" stroke-width="10" />
<polyline points="267.53,733.63,279.56,745.85,404.63,745.79,400.64,730.15" fill="none" stroke="black" stroke-width="10" />
<polyline points="340.52,592.96,340.98,951.98,337.99,940.60" fill="none" stroke="black" stroke-width="10" />
</svg>