<?xml version="1.0" encoding="UTF-8" ?><!-- DOCTYPE svg PUBLIC "-//W3C//DTD SVG 1.1//EN" "http://www.w3.org/Graphics/SVG/1.1/DTD/svg11.dtd" -->
<svg viewBox="0,0,1024,2116" preserveAspectRatio="xMidYMid" zoomAndPan="magnify" xmlns="http://www.w3.org/2000/svg" xmlns:xlink="http://www.w3.org/1999/xlink">
<polyline points="10.56,1256.42,28.68,1285.85,25.66,1362.06,7.55,1428.47,0.00,1452.62" fill="none" stroke="black" stroke-width="10" />
<polyline points="64.14,950.80,70.18,995.32,64.90,2106.86,52.07,2069.88" fill="none" stroke="black" stroke-width="10" />
<polyline points="64.14,1152.28,125.26,1248.87" fill="none" stroke="black" stroke-width="10" />
<polyline points="167.52,926.66,175.07,952.31,167.52,1295.66" fill="none" stroke="black" stroke-width="10" />
<polyline points="178.09,979.48,356.93,977.97,347.12,943.26" fill="none" stroke="black" stroke-width="10" />
<polyline points="171.30,1105.50,351.65,1106.25" fill="none" stroke="black" stroke-width="10" />
<polyline points="172.05,1284.34,348.63,1290.38" fill="none" stroke="black" stroke-width="10" />
<polyline points="120.74,1328.86,134.32,1341.69,133.57,1585.43" fill="none" stroke="black" stroke-width="10" />
<polyline points="133.57,1377.91,399.94,1377.16,385.60,1349.24" fill="none" stroke="black" stroke-width="10" />
<polyline points="394.66,1380.17,389.38,1577.13" fill="none" stroke="black" stroke-width="10" />
<polyline points="131.30,1572.60,394.66,1573.35" fill="none" stroke="black" stroke-width="10" />
<polyline points="215.82,1393.76,218.84,1568.07" fill="none" stroke="black" stroke-width="10" />
<polyline points="292.03,1392.25,295.81,1549.21" fill="none" stroke="black" stroke-width="10" />
<polyline points="128.28,1666.92,145.64,1672.96,365.23,1674.47,341.08,1644.29" fill="none" stroke="black" stroke-width="10" />
<polyline points="352.40,1674.47,336.55,1768.04,313.92,1874.44,280.71,1921.98,252.04,1972.54,206.01,2033.66,159.22,2080.45,112.44,2096.29" fill="none" stroke="black" stroke-width="10" />
<polyline points="197.71,1674.47,200.73,1738.61,228.65,1832.18,258.83,1921.98,301.09,2015.55,343.35,2067.62,380.32,2100.82" fill="none" stroke="black" stroke-width="10" />
<polyline points="621.80,981.74,628.59,1012.68,787.05,1010.42,770.45,999.85" fill="none" stroke="black" stroke-width="10" />
<polyline points="629.34,990.80,621.80,1639.00" fill="none" stroke="black" stroke-width="10" />
<polyline points="624.06,1589.95,775.73,1592.97,766.68,1556.75" fill="none" stroke="black" stroke-width="10" />
<polyline points="768.19,1584.67,762.15,1737.10,759.89,1841.99,744.04,1980.09,722.91,2064.60,697.26,2113.65,685.94,2115.91,689.71,2073.66,674.62,2060.07,657.26,2042.72" fill="none" stroke="black" stroke-width="10" />
<polyline points="625.57,1196.05,644.43,1203.60,770.45,1205.86,755.36,1185.49" fill="none" stroke="black" stroke-width="10" />
<polyline points="689.71,1018.72,698.01,1060.22,694.99,1592.97" fill="none" stroke="black" stroke-width="10" />
<polyline points="612.74,1795.21,618.78,1847.27,616.51,1934.05,601.42,1970.28,597.65,1990.65" fill="none" stroke="black" stroke-width="10" />
<polyline points="631.61,1778.61,656.51,1848.78,657.26,1931.79,651.98,1943.86" fill="none" stroke="black" stroke-width="10" />
<polyline points="656.51,1737.10,695.75,1790.68,690.46,1837.47,690.46,1867.65" fill="none" stroke="black" stroke-width="10" />
<polyline points="685.94,1685.03,718.38,1764.27,718.38,1786.15" fill="none" stroke="black" stroke-width="10" />
<polyline points="799.88,1113.04,806.67,1148.51,800.64,1562.79,806.67,1534.87" fill="none" stroke="black" stroke-width="10" />
<polyline points="806.67,1156.81,1008.15,1159.83,973.44,1141.72" fill="none" stroke="black" stroke-width="10" />
<polyline points="993.06,1165.11,992.31,1577.88,980.23,1544.68" fill="none" stroke="black" stroke-width="10" />
<polyline points="800.64,1506.19,990.80,1515.25" fill="none" stroke="black" stroke-width="10" />
<polyline points="885.15,934.20,911.56,974.20,913.83,1010.42,913.07,1026.26,907.79,1519.02,901.00,1528.83,901.00,1641.27,885.15,1752.19,877.61,1839.73,854.21,1945.37,818.75,2009.52,792.34,2054.79,753.85,2077.43,762.91,2084.98" fill="none" stroke="black" stroke-width="10" />
<polyline points="787.05,1751.44,796.11,1771.81,815.73,1703.15,839.12,1606.56,846.67,1675.98,845.16,1767.29,861.76,1869.91,882.89,1968.01,906.28,2009.52,941.75,2042.72,977.97,2082.71,990.80,2072.90" fill="none" stroke="black" stroke-width="10" />
<polyline points="62.63,266.38,184.88,418.05" fill="none" stroke="black" stroke-width="10" />
<polyline points="36.98,620.29,73.95,682.16" fill="none" stroke="black" stroke-width="10" />
<polyline points="175.07,27.92,195.44,56.60" fill="none" stroke="black" stroke-width="10" />
<polyline points="175.07,27.92,150.92,0.00,107.15,0.00,58.86,61.12,39.24,147.90,39.24,171.30,62.63,266.38" fill="none" stroke="black" stroke-width="10" />
<polyline points="73.95,682.16,94.33,707.82,139.60,705.56,184.88,659.53,199.97,567.46,203.74,507.10,184.88,418.05" fill="none" stroke="black" stroke-width="10" />
<polyline points="302.60,2.26,302.60,713.86,461.82,710.84" fill="none" stroke="black" stroke-width="10" />
<polyline points="570.48,581.80,571.99,138.09" fill="none" stroke="black" stroke-width="10" />
<polyline points="570.48,581.80,571.99,631.61,581.80,662.54,611.23,699.52,638.40,720.65,671.60,720.65,694.99,710.84,728.95,666.32,736.50,638.40,747.06,581.80" fill="none" stroke="black" stroke-width="10" />
<polyline points="836.86,0.00,870.82,721.40,931.94,78.48,971.93,721.40,1024.00,9.81" fill="none" stroke="black" stroke-width="10" />
<line x1="747.06" y1="581.801" x2="744.796" y2="143.375" stroke="black" stroke-width="10" />
<line x1="571.991" y1="138.093" x2="575.764" y2="89.7981" stroke="black" stroke-width="10" />
<line x1="575.764" y1="89.7981" x2="594.629" y2="55.8408" stroke="black" stroke-width="10" />
<line x1="594.629" y1="55.8408" x2="621.041" y2="20.3744" stroke="black" stroke-width="10" />
<line x1="621.041" y1="20.3744" x2="643.679" y2="4.52764" stroke="black" stroke-width="10" />
<line x1="643.679" y1="4.52764" x2="679.9" y2="4.52764" stroke="black" stroke-width="10" />
<line x1="679.9" y1="4.52764" x2="704.047" y2="20.3744" stroke="black" stroke-width="10" />
<line x1="704.047" y1="20.3744" x2="733.477" y2="61.8777" stroke="black" stroke-width="10" />
<line x1="733.477" y1="61.8777" x2="744.041" y2="89.7981" stroke="black" stroke-width="10" />
<line x1="744.041" y1="89.7981" x2="744.796" y2="143.375" stroke="black" stroke-width="10" />
<line x1="349.382" y1="964.386" x2="344.855" y2="1303.2" stroke="black" stroke-width="10" />
<line x1="623.304" y1="1402.81" x2="636.887" y2="1414.13" stroke="black" stroke-width="10" />
<line x1="636.887" y1="1414.13" x2="765.17" y2="1411.11" stroke="black" stroke-width="10" />
<line x1="765.17" y1="1411.11" x2="757.624" y2="1393.76" stroke="black" stroke-width="10" />
</svg>