<?xml version="1.0" encoding="UTF-8" ?><!-- DOCTYPE svg PUBLIC "-//W3C//DTD SVG 1.1//EN" "http://www.w3.org/Graphics/SVG/1.1/DTD/svg11.dtd" -->
<svg viewBox="0,0,1024,2117" preserveAspectRatio="xMidYMid" zoomAndPan="magnify" xmlns="http://www.w3.org/2000/svg" xmlns:xlink="http://www.w3.org/1999/xlink">
<g>
<polyline points="10.77,1256.56,28.94,1286.51,25.70,1363.51,7.50,1428.74,0.00,1454.40" fill="none" stroke="black" stroke-width="10" />
<polyline points="64.36,950.72,70.76,995.64,66.06,2107.86,53.24,2070.42" fill="none" stroke="black" stroke-width="10" />
<polyline points="64.28,1152.84,126.27,1249.12" fill="none" stroke="black" stroke-width="10" />
<polyline points="168.10,927.23,175.58,952.90,167.96,1296.19" fill="none" stroke="black" stroke-width="10" />
<polyline points="178.78,979.64,357.37,978.64,347.76,943.34" fill="none" stroke="black" stroke-width="10" />
<polyline points="171.24,1105.83,351.98,1106.97" fill="none" stroke="black" stroke-width="10" />
<polyline points="173.31,1284.43,348.70,1290.91" fill="none" stroke="black" stroke-width="10" />
<polyline points="120.89,1329.32,134.79,1342.16,133.63,1586.00" fill="none" stroke="black" stroke-width="10" />
<polyline points="134.78,1378.52,401.07,1377.55,386.11,1349.74" fill="none" stroke="black" stroke-width="10" />
<polyline points="394.65,1380.76,389.23,1577.54" fill="none" stroke="black" stroke-width="10" />
<polyline points="131.50,1573.16,394.58,1574.33" fill="none" stroke="black" stroke-width="10" />
<polyline points="216.05,1394.60,219.19,1568.92" fill="none" stroke="black" stroke-width="10" />
<polyline points="291.98,1392.49,297.27,1549.70" fill="none" stroke="black" stroke-width="10" />
<polyline points="129.32,1667.27,145.36,1673.69,366.74,1674.85,341.08,1644.89" fill="none" stroke="black" stroke-width="10" />
<polyline points="352.83,1674.84,336.76,1768.95,314.26,1874.81,281.09,1922.93,253.26,1973.18,206.19,2034.12,160.18,2081.16,112.05,2097.18" fill="none" stroke="black" stroke-width="10" />
<polyline points="198.83,1674.78,200.95,1738.95,228.72,1833.07,258.63,1922.92,302.44,2015.98,343.06,2068.39,381.55,2101.56" fill="none" stroke="black" stroke-width="10" />
<polyline points="622.59,981.94,629.00,1012.96,787.28,1010.88,771.24,1000.18" fill="none" stroke="black" stroke-width="10" />
<polyline points="630.08,991.57,623.42,1639.65" fill="none" stroke="black" stroke-width="10" />
<polyline points="624.50,1590.46,777.43,1593.72,766.75,1557.36" fill="none" stroke="black" stroke-width="10" />
<polyline points="768.88,1585.16,762.41,1738.09,760.23,1842.90,745.20,1980.85,722.71,2065.33,697.03,2114.51,687.40,2116.65,690.63,2074.94,675.66,2061.03,657.49,2043.91" fill="none" stroke="black" stroke-width="10" />
<polyline points="626.79,1195.83,644.97,1204.40,771.16,1206.58,756.20,1185.19" fill="none" stroke="black" stroke-width="10" />
<polyline points="689.95,1019.40,698.49,1061.11,696.16,1593.69" fill="none" stroke="black" stroke-width="10" />
<polyline points="613.73,1795.79,620.13,1848.19,617.96,1934.82,601.90,1971.17,597.62,1991.49" fill="none" stroke="black" stroke-width="10" />
<polyline points="631.92,1779.75,657.56,1849.28,658.60,1932.69,652.18,1944.45" fill="none" stroke="black" stroke-width="10" />
<polyline points="657.60,1738.05,696.08,1791.54,690.72,1838.59,690.71,1868.54" fill="none" stroke="black" stroke-width="10" />
<polyline points="686.50,1685.66,719.62,1764.81,718.54,1786.20" fill="none" stroke="black" stroke-width="10" />
<polyline points="800.07,1113.55,807.55,1147.78,800.97,1563.79,807.40,1534.92" fill="none" stroke="black" stroke-width="10" />
<polyline points="807.54,1157.40,1009.67,1160.69,974.38,1142.49" fill="none" stroke="black" stroke-width="10" />
<polyline points="993.62,1166.03,992.40,1578.83,980.65,1545.67" fill="none" stroke="black" stroke-width="10" />
<polyline points="800.99,1507.11,991.35,1515.73" fill="none" stroke="black" stroke-width="10" />
<polyline points="885.69,934.99,912.42,974.57,914.54,1010.93,913.47,1026.97,907.93,1519.98,901.51,1529.60,901.47,1641.89,885.39,1753.11,877.87,1840.80,854.30,1946.67,818.99,2010.82,793.30,2055.73,754.79,2078.17,764.42,2085.66" fill="none" stroke="black" stroke-width="10" />
<polyline points="787.00,1752.00,796.62,1772.33,815.89,1703.89,839.46,1607.65,846.92,1677.17,846.88,1768.07,861.82,1870.74,883.17,1969.14,907.75,2010.86,941.96,2042.95,978.30,2083.60,991.14,2073.98" fill="none" stroke="black" stroke-width="10" />
<polyline points="63.54,266.28,185.40,418.18" fill="none" stroke="black" stroke-width="10" />
<polyline points="37.74,620.25,73.01,682.29" fill="none" stroke="black" stroke-width="10" />
<polyline points="174.85,27.83,196.23,56.71" fill="none" stroke="black" stroke-width="10" />
<polyline points="174.85,27.83,151.34,1.09,106.42,0.00,59.34,62.01,40.06,147.56,40.05,171.09,63.54,266.28" fill="none" stroke="black" stroke-width="10" />
<polyline points="73.01,682.29,94.39,707.97,140.38,705.85,185.31,659.88,200.32,567.91,203.55,506.95,185.40,418.18" fill="none" stroke="black" stroke-width="10" />
<polyline points="303.20,2.21,302.93,714.46,462.28,711.31" fill="none" stroke="black" stroke-width="10" />
<polyline points="571.41,581.95,572.65,138.13" fill="none" stroke="black" stroke-width="10" />
<polyline points="571.41,581.95,572.46,632.22,582.07,662.16,612.01,699.61,638.73,721.00,671.89,721.02,695.42,710.33,729.66,666.50,737.15,638.69,747.87,582.02" fill="none" stroke="black" stroke-width="10" />
<polyline points="837.92,0.27,871.87,722.16,933.07,78.38,972.40,722.20,1024.00,9.97" fill="none" stroke="black" stroke-width="10" />
<line x1="747.869" y1="582.018" x2="745.894" y2="143.546" stroke="black" stroke-width="10" />
<line x1="572.647" y1="138.133" x2="576.942" y2="90.0099" stroke="black" stroke-width="10" />
<line x1="576.942" y1="90.0099" x2="595.136" y2="55.7945" stroke="black" stroke-width="10" />
<line x1="595.136" y1="55.7945" x2="621.885" y2="20.5129" stroke="black" stroke-width="10" />
<line x1="621.885" y1="20.5129" x2="643.28" y2="4.47932" stroke="black" stroke-width="10" />
<line x1="643.28" y1="4.47932" x2="680.711" y2="4.49337" stroke="black" stroke-width="10" />
<line x1="680.711" y1="4.49337" x2="705.302" y2="20.5443" stroke="black" stroke-width="10" />
<line x1="705.302" y1="20.5443" x2="734.161" y2="62.2634" stroke="black" stroke-width="10" />
<line x1="734.161" y1="62.2634" x2="744.845" y2="90.073" stroke="black" stroke-width="10" />
<line x1="744.845" y1="90.073" x2="745.894" y2="143.546" stroke="black" stroke-width="10" />
<line x1="349.892" y1="964.73" x2="345.487" y2="1303.74" stroke="black" stroke-width="10" />
<line x1="623.505" y1="1402.23" x2="637.403" y2="1415.07" stroke="black" stroke-width="10" />
<line x1="637.403" y1="1415.07" x2="765.738" y2="1411.91" stroke="black" stroke-width="10" />
<line x1="765.738" y1="1411.91" x2="758.258" y2="1394.8" stroke="black" stroke-width="10" />
</g>
</svg>