<?xml version="1.0" encoding="UTF-8" ?><!-- DOCTYPE svg PUBLIC "-//W3C//DTD SVG 1.1//EN" "http://www.w3.org/Graphics/SVG/1.1/DTD/svg11.dtd" -->
<svg viewBox="0,0,1024,2118" preserveAspectRatio="xMidYMid" zoomAndPan="magnify" xmlns="http://www.w3.org/2000/svg" xmlns:xlink="http://www.w3.org/1999/xlink">
<g>
<polyline points="10.70,1257.26,28.89,1287.22,25.68,1364.26,7.49,1429.53,0.00,1455.21" fill="none" stroke="black" stroke-width="10" />
<polyline points="64.20,951.24,70.62,996.18,66.34,2108.99,53.50,2071.54" fill="none" stroke="black" stroke-width="10" />
<polyline points="64.20,1153.47,126.26,1249.77" fill="none" stroke="black" stroke-width="10" />
<polyline points="167.99,927.70,175.48,953.38,167.99,1296.85" fill="none" stroke="black" stroke-width="10" />
<polyline points="178.69,980.13,357.38,979.06,347.75,943.75" fill="none" stroke="black" stroke-width="10" />
<polyline points="171.20,1106.39,352.03,1107.46" fill="none" stroke="black" stroke-width="10" />
<polyline points="173.34,1285.08,348.82,1291.50" fill="none" stroke="black" stroke-width="10" />
<polyline points="120.91,1330.02,134.82,1342.86,133.75,1586.83" fill="none" stroke="black" stroke-width="10" />
<polyline points="134.82,1379.24,401.25,1378.17,386.27,1350.35" fill="none" stroke="black" stroke-width="10" />
<polyline points="394.83,1381.38,389.48,1578.27" fill="none" stroke="black" stroke-width="10" />
<polyline points="131.61,1573.99,394.83,1575.06" fill="none" stroke="black" stroke-width="10" />
<polyline points="216.14,1395.29,219.35,1569.71" fill="none" stroke="black" stroke-width="10" />
<polyline points="292.11,1393.15,297.46,1550.45" fill="none" stroke="black" stroke-width="10" />
<polyline points="129.47,1668.15,145.52,1674.57,367.01,1675.64,341.33,1645.68" fill="none" stroke="black" stroke-width="10" />
<polyline points="353.10,1675.64,337.05,1769.80,314.58,1875.73,281.41,1923.88,253.59,1974.17,206.51,2035.16,160.50,2082.24,112.35,2098.29" fill="none" stroke="black" stroke-width="10" />
<polyline points="199.02,1675.64,201.16,1739.84,228.98,1834.00,258.94,1923.88,302.81,2016.97,343.47,2069.40,381.99,2102.57" fill="none" stroke="black" stroke-width="10" />
<polyline points="622.75,982.27,629.17,1013.30,787.53,1011.16,771.48,1000.46" fill="none" stroke="black" stroke-width="10" />
<polyline points="630.24,991.90,623.82,1640.33" fill="none" stroke="black" stroke-width="10" />
<polyline points="624.89,1591.11,777.90,1594.32,767.20,1557.94" fill="none" stroke="black" stroke-width="10" />
<polyline points="769.34,1585.76,762.92,1738.77,760.78,1843.63,745.80,1981.66,723.33,2066.19,697.65,2115.41,688.02,2117.55,691.23,2075.82,676.25,2061.91,658.06,2044.79" fill="none" stroke="black" stroke-width="10" />
<polyline points="627.03,1196.27,645.22,1204.83,771.48,1206.97,756.50,1185.57" fill="none" stroke="black" stroke-width="10" />
<polyline points="690.16,1019.72,698.72,1061.45,696.58,1594.32" fill="none" stroke="black" stroke-width="10" />
<polyline points="614.19,1796.55,620.61,1848.98,618.47,1935.65,602.42,1972.03,598.14,1992.36" fill="none" stroke="black" stroke-width="10" />
<polyline points="632.38,1780.50,658.06,1850.05,659.13,1933.51,652.71,1945.28" fill="none" stroke="black" stroke-width="10" />
<polyline points="658.06,1738.77,696.58,1792.27,691.23,1839.35,691.23,1869.31" fill="none" stroke="black" stroke-width="10" />
<polyline points="686.95,1686.34,720.12,1765.52,719.05,1786.92" fill="none" stroke="black" stroke-width="10" />
<polyline points="800.37,1113.88,807.86,1148.12,801.44,1564.36,807.86,1535.46" fill="none" stroke="black" stroke-width="10" />
<polyline points="807.86,1157.75,1010.09,1160.96,974.78,1142.77" fill="none" stroke="black" stroke-width="10" />
<polyline points="994.04,1166.31,992.97,1579.34,981.20,1546.17" fill="none" stroke="black" stroke-width="10" />
<polyline points="801.44,1507.64,991.90,1516.20" fill="none" stroke="black" stroke-width="10" />
<polyline points="885.97,935.19,912.72,974.78,914.86,1011.16,913.79,1027.21,908.44,1520.48,902.02,1530.11,902.02,1642.47,885.97,1753.75,878.48,1841.49,854.94,1947.42,819.63,2011.62,793.95,2056.56,755.43,2079.03,765.06,2086.52" fill="none" stroke="black" stroke-width="10" />
<polyline points="787.53,1752.68,797.16,1773.01,816.42,1704.53,839.96,1608.23,847.45,1677.78,847.45,1768.73,862.43,1871.45,883.83,1969.89,908.44,2011.62,942.68,2043.72,979.06,2084.38,991.90,2074.75" fill="none" stroke="black" stroke-width="10" />
<polyline points="63.13,266.43,185.11,418.37" fill="none" stroke="black" stroke-width="10" />
<polyline points="37.45,620.61,72.76,682.67" fill="none" stroke="black" stroke-width="10" />
<polyline points="174.41,27.82,195.81,56.71" fill="none" stroke="black" stroke-width="10" />
<polyline points="174.41,27.82,150.87,1.07,105.93,0.00,58.85,62.06,39.59,147.66,39.59,171.20,63.13,266.43" fill="none" stroke="black" stroke-width="10" />
<polyline points="72.76,682.67,94.16,708.35,140.17,706.21,185.11,660.20,200.09,568.18,203.30,507.18,185.11,418.37" fill="none" stroke="black" stroke-width="10" />
<polyline points="302.81,2.14,302.81,714.77,462.24,711.56" fill="none" stroke="black" stroke-width="10" />
<polyline points="571.39,582.09,572.46,138.03" fill="none" stroke="black" stroke-width="10" />
<polyline points="571.39,582.09,572.46,632.38,582.09,662.34,612.05,699.79,638.80,721.19,671.97,721.19,695.51,710.49,729.75,666.62,737.24,638.80,747.94,582.09" fill="none" stroke="black" stroke-width="10" />
<polyline points="837.82,0.00,872.06,722.26,933.05,78.11,972.64,722.26,1024.00,9.63" fill="none" stroke="black" stroke-width="10" />
<line x1="747.937" y1="582.086" x2="745.797" y2="143.381" stroke="black" stroke-width="10" />
<line x1="572.456" y1="138.031" x2="576.736" y2="89.8809" stroke="black" stroke-width="10" />
<line x1="576.736" y1="89.8809" x2="594.926" y2="55.6405" stroke="black" stroke-width="10" />
<line x1="594.926" y1="55.6405" x2="621.676" y2="20.3302" stroke="black" stroke-width="10" />
<line x1="621.676" y1="20.3302" x2="643.076" y2="4.28004" stroke="black" stroke-width="10" />
<line x1="643.076" y1="4.28004" x2="680.527" y2="4.28004" stroke="black" stroke-width="10" />
<line x1="680.527" y1="4.28004" x2="705.137" y2="20.3302" stroke="black" stroke-width="10" />
<line x1="705.137" y1="20.3302" x2="734.027" y2="62.0606" stroke="black" stroke-width="10" />
<line x1="734.027" y1="62.0606" x2="744.727" y2="89.8809" stroke="black" stroke-width="10" />
<line x1="744.727" y1="89.8809" x2="745.797" y2="143.381" stroke="black" stroke-width="10" />
<line x1="349.893" y1="965.149" x2="345.613" y2="1304.34" stroke="black" stroke-width="10" />
<line x1="623.816" y1="1402.78" x2="637.726" y2="1415.62" stroke="black" stroke-width="10" />
<line x1="637.726" y1="1415.62" x2="766.127" y2="1412.41" stroke="black" stroke-width="10" />
<line x1="766.127" y1="1412.41" x2="758.637" y2="1395.29" stroke="black" stroke-width="10" />
</g>
</svg>