<?xml version="1.0" encoding="UTF-8" ?><!-- DOCTYPE svg PUBLIC "-//W3C//DTD SVG 1.1//EN" "http://www.w3.org/Graphics/SVG/1.1/DTD/svg11.dtd" -->
<svg viewBox="0,0,1024,1641" preserveAspectRatio="xMidYMid" zoomAndPan="magnify" xmlns="http://www.w3.org/2000/svg" xmlns:xlink="http://www.w3.org/1999/xlink">
<path d="M364.81,0.00 A117.10,117.10 0.05 0,0 305.85,214.59" fill="none" stroke="black" stroke-width="10" />
<path d="M758.74,181.64 A61.68,61.68 0.05 0,0 787.98,129.55" fill="none" stroke="black" stroke-width="10" />
<polyline points="789.30,130.96,605.74,130.28,605.87,164.10" fill="none" stroke="black" stroke-width="10" />
<polyline points="605.87,164.10,675.95,182.26" fill="none" stroke="black" stroke-width="10" />
<line x1="398.308" y1="1.47533" x2="368.351" y2="1.69999" stroke="black" stroke-width="10" />
<line x1="675.954" y1="182.258" x2="759.041" y2="182.382" stroke="black" stroke-width="10" />
<path d="M517.89,959.19 A50.81,50.81 0.05 0,1 594.55,959.26" fill="none" stroke="black" stroke-width="10" />
<path d="M511.52,1340.13 A50.81,50.81 0.05 0,0 575.61,1340.19" fill="none" stroke="black" stroke-width="10" />
<ellipse transform="translate(161.27 1161.31) rotate(277.26)" rx="481.487" ry="150.568" fill="none" stroke="black" stroke-width="10" />
<line x1="307.042" y1="214.671" x2="160.92" y2="1160.8" stroke="black" stroke-width="10" />
<line x1="671.843" y1="348.337" x2="281.512" y2="348.337" stroke="black" stroke-width="10" />
<ellipse transform="translate(549.30 1148.90) rotate(272.51)" rx="130.733" ry="61.4133" fill="none" stroke="black" stroke-width="10" />
<polyline points="826.19,1152.42,671.53,350.47" fill="none" stroke="black" stroke-width="10" />
<ellipse transform="translate(826.19 1152.42) rotate(270.20)" rx="488.582" ry="197.802" fill="none" stroke="black" stroke-width="10" />
<polyline points="503.91,1067.76,246.94,604.71" fill="none" stroke="black" stroke-width="10" />
<polyline points="610.66,1151.64,826.50,1152.38" fill="none" stroke="black" stroke-width="10" />
<polyline points="569.09,1022.47,696.92,182.17" fill="none" stroke="black" stroke-width="10" />
<line x1="554.788" y1="1017.89" x2="556.7" y2="940.645" stroke="black" stroke-width="10" />
<line x1="544.473" y1="1278.5" x2="543.646" y2="1350.94" stroke="black" stroke-width="10" />
</svg>