<?xml version="1.0" encoding="UTF-8" ?><!-- DOCTYPE svg PUBLIC "-//W3C//DTD SVG 1.1//EN" "http://www.w3.org/Graphics/SVG/1.1/DTD/svg11.dtd" -->
<svg viewBox="0,0,1024,2183" preserveAspectRatio="xMidYMid" zoomAndPan="magnify" xmlns="http://www.w3.org/2000/svg" xmlns:xlink="http://www.w3.org/1999/xlink">
<polyline points="23.08,278.42,154.89,441.57" fill="none" stroke="black" stroke-width="10" />
<polyline points="0.00,661.84,35.45,728.51" fill="none" stroke="black" stroke-width="10" />
<polyline points="144.19,29.32,166.17,60.84" fill="none" stroke="black" stroke-width="10" />
<polyline points="144.19,29.32,120.14,0.05,72.47,0.00,23.17,60.68,1.35,154.81,1.56,184.05,23.08,278.42" fill="none" stroke="black" stroke-width="10" />
<polyline points="35.45,728.51,64.67,752.13,119.95,752.93,154.31,697.24,180.46,602.92,180.78,536.83,154.89,441.57" fill="none" stroke="black" stroke-width="10" />
<polyline points="283.73,0.38,472.23,0.69" fill="none" stroke="black" stroke-width="10" />
<polyline points="375.82,0.63,375.82,757.83" fill="none" stroke="black" stroke-width="10" />
<polyline points="563.44,616.27,564.11,142.85" fill="none" stroke="black" stroke-width="10" />
<polyline points="750.81,615.54,751.53,143.21" fill="none" stroke="black" stroke-width="10" />
<polyline points="564.11,142.85,569.38,90.62,583.97,53.14,612.80,19.37,639.06,0.87,677.00,1.35,696.94,11.30,733.83,61.66,744.86,90.42,751.53,143.21" fill="none" stroke="black" stroke-width="10" />
<polyline points="563.44,616.27,569.03,669.10,582.56,705.33,612.25,739.76,637.98,758.12,674.83,758.65,696.02,747.96,732.79,697.59,743.43,668.95,750.81,615.54" fill="none" stroke="black" stroke-width="10" />
<polyline points="844.91,758.69,845.94,0.36,962.99,1.67" fill="none" stroke="black" stroke-width="10" />
<polyline points="963.41,377.54,845.28,376.28" fill="none" stroke="black" stroke-width="10" />
<polyline points="962.99,1.67,998.98,31.49,1024.00,156.04,1023.68,222.13,997.79,346.77,963.41,377.54" fill="none" stroke="black" stroke-width="10" />
<g>
<polyline points="419.14,904.32,431.13,954.70,419.16,1026.72,371.99,1282.30,330.01,1434.73,312.63,1507.00" fill="none" stroke="black" stroke-width="10" />
<polyline points="375.19,1281.07,386.14,1332.58,386.06,2161.28,372.95,2109.87" fill="none" stroke="black" stroke-width="10" />
<polyline points="544.41,944.26,565.91,964.97,565.80,1109.05" fill="none" stroke="black" stroke-width="10" />
<polyline points="425.56,1097.93,434.74,1109.44,727.22,1109.47,717.57,1087.15" fill="none" stroke="black" stroke-width="10" />
<polyline points="483.36,1179.87,490.37,1191.47,490.61,1465.53" fill="none" stroke="black" stroke-width="10" />
<polyline points="491.07,1231.52,694.71,1231.16,673.85,1200.67" fill="none" stroke="black" stroke-width="10" />
<polyline points="669.79,1231.18,669.60,1446.76" fill="none" stroke="black" stroke-width="10" />
<polyline points="490.95,1424.35,669.72,1425.08" fill="none" stroke="black" stroke-width="10" />
<polyline points="421.71,1475.08,439.89,1518.69,429.21,1619.91,421.14,1682.01,407.73,1721.60" fill="none" stroke="black" stroke-width="10" />
<polyline points="439.67,1538.20,738.64,1537.94,716.71,1507.50" fill="none" stroke="black" stroke-width="10" />
<polyline points="726.75,1538.46,708.55,1641.10" fill="none" stroke="black" stroke-width="10" />
<polyline points="475.03,1651.45,490.42,1681.10,684.38,1682.25,669.54,1640.66" fill="none" stroke="black" stroke-width="10" />
<polyline points="591.16,1680.97,590.82,2039.54,590.74,2111.04,577.37,2151.72,559.26,2182.85,546.24,2182.35,538.14,2122.04,523.56,2110.77,503.62,2100.82" fill="none" stroke="black" stroke-width="10" />
</g>
</svg>