<?xml version="1.0" encoding="UTF-8" ?><!-- DOCTYPE svg PUBLIC "-//W3C//DTD SVG 1.1//EN" "http://www.w3.org/Graphics/SVG/1.1/DTD/svg11.dtd" -->
<svg viewBox="0,0,1024,2091" preserveAspectRatio="xMidYMid" zoomAndPan="magnify" xmlns="http://www.w3.org/2000/svg" xmlns:xlink="http://www.w3.org/1999/xlink">
<g>
<g>
<line x1="226.581" y1="314.804" x2="1.07607e-08" y2="314.804" stroke="black" stroke-width="10" />
<line x1="1.07607e-08" y1="314.804" x2="3.2283e-08" y2="944.413" stroke="black" stroke-width="10" />
<line x1="3.2283e-08" y1="944.413" x2="242.748" y2="944.413" stroke="black" stroke-width="10" />
<line x1="161.816" y1="629.609" x2="2.15218e-08" y2="629.609" stroke="black" stroke-width="10" />
</g>
<g>
<line x1="388.397" y1="944.413" x2="388.397" y2="314.804" stroke="black" stroke-width="10" />
<line x1="388.397" y1="314.804" x2="633.185" y2="944.413" stroke="black" stroke-width="10" />
<line x1="633.185" y1="944.413" x2="633.185" y2="314.804" stroke="black" stroke-width="10" />
</g>
<g>
<line x1="922.444" y1="314.804" x2="776.795" y2="314.804" stroke="black" stroke-width="10" />
<line x1="776.795" y1="314.804" x2="776.795" y2="944.413" stroke="black" stroke-width="10" />
<line x1="776.795" y1="944.413" x2="922.444" y2="944.413" stroke="black" stroke-width="10" />
<polyline points="922.44,314.80,973.03,363.99,1006.41,468.90,1024.00,608.17,1004.37,782.09,970.99,893.61,922.44,944.41" fill="none" stroke="black" stroke-width="10" />
</g>
</g>
<polyline points="269.67,1061.74,292.07,1095.80,273.82,1189.65,251.83,1265.86,229.56,1325.44,202.39,1375.22" fill="none" stroke="black" stroke-width="10" />
<polyline points="273.26,1180.88,448.27,1181.05,434.88,1163.94" fill="none" stroke="black" stroke-width="10" />
<polyline points="435.16,1180.58,408.97,1300.39,393.76,1358.47,367.05,1444.14,332.16,1538.27,299.72,1588.73,238.31,1666.15" fill="none" stroke="black" stroke-width="10" />
<polyline points="278.18,1214.31,296.07,1325.21,318.64,1427.53,363.68,1537.65,390.17,1579.73,430.61,1623.19,461.22,1647.92" fill="none" stroke="black" stroke-width="10" />
<polyline points="317.92,1690.89,404.03,1827.00" fill="none" stroke="black" stroke-width="10" />
<polyline points="310.01,1886.62,344.95,1936.88,372.00,1987.73,389.37,2039.98,398.94,2090.20" fill="none" stroke="black" stroke-width="10" />
<polyline points="112.42,1078.84,134.58,1095.39,50.50,1316.38" fill="none" stroke="black" stroke-width="10" />
<polyline points="41.17,1308.16,113.02,1427.13" fill="none" stroke="black" stroke-width="10" />
<polyline points="174.90,1214.97,184.79,1231.95,59.39,1580.09" fill="none" stroke="black" stroke-width="10" />
<polyline points="22.65,1579.64,37.20,1588.91,184.27,1562.70" fill="none" stroke="black" stroke-width="10" />
<polyline points="157.55,1478.61,197.66,1579.81,202.55,1614.11" fill="none" stroke="black" stroke-width="10" />
<polyline points="117.13,1580.41,117.09,1605.79,118.06,2089.73,108.56,2013.25" fill="none" stroke="black" stroke-width="10" />
<polyline points="59.77,1691.23,77.55,1707.62,41.81,1971.48,31.85,2005.24,23.60,2039.95" fill="none" stroke="black" stroke-width="10" />
<polyline points="158.02,1708.77,202.31,1937.00,202.24,1963.25" fill="none" stroke="black" stroke-width="10" />
<polyline points="787.69,1062.00,813.87,1112.82,814.62,2089.40" fill="none" stroke="black" stroke-width="10" />
<polyline points="814.00,1571.35,1006.51,1571.27,988.48,1537.37" fill="none" stroke="black" stroke-width="10" />
<polyline points="644.61,1342.12,666.97,1401.55,666.67,2091.08" fill="none" stroke="black" stroke-width="10" />
<polyline points="586.25,2064.56,608.96,2089.88,1023.73,2089.92,1010.36,2048.32" fill="none" stroke="black" stroke-width="10" />
</svg>