<?xml version="1.0" encoding="UTF-8" ?><!-- DOCTYPE svg PUBLIC "-//W3C//DTD SVG 1.1//EN" "http://www.w3.org/Graphics/SVG/1.1/DTD/svg11.dtd" -->
<svg viewBox="0,0,1024,3881" preserveAspectRatio="xMidYMid" zoomAndPan="magnify" xmlns="http://www.w3.org/2000/svg" xmlns:xlink="http://www.w3.org/1999/xlink">
<polyline points="362.11,0.00,362.03,376.38" fill="none" stroke="black" stroke-width="10" />
<polyline points="316.97,0.15,405.73,0.22" fill="none" stroke="black" stroke-width="10" />
<polyline points="550.95,376.48,499.95,0.25,448.82,376.28" fill="none" stroke="black" stroke-width="10" />
<polyline points="465.75,252.25,534.20,252.08" fill="none" stroke="black" stroke-width="10" />
<polyline points="574.35,0.09,663.02,376.54" fill="none" stroke="black" stroke-width="10" />
<polyline points="662.62,0.12,574.26,376.47" fill="none" stroke="black" stroke-width="10" />
<polyline points="704.76,0.21,704.67,376.59" fill="none" stroke="black" stroke-width="10" />
<polyline points="0.00,488.09,0.41,864.51" fill="none" stroke="black" stroke-width="10" />
<polyline points="0.00,488.09,45.10,488.43,63.95,505.89,76.30,541.65,82.74,576.91,89.12,630.51,89.30,722.26,82.79,775.77,76.30,811.42,63.87,847.06,45.01,864.81,0.41,864.51" fill="none" stroke="black" stroke-width="10" />
<polyline points="131.89,488.33,132.29,864.75" fill="none" stroke="black" stroke-width="10" />
<polyline points="131.89,488.33,189.42,488.24,208.23,506.19,214.70,523.60,221.10,559.35,221.05,595.05,214.57,630.70,208.10,648.50,189.25,666.25,132.25,665.89" fill="none" stroke="black" stroke-width="10" />
<polyline points="176.85,666.19,221.05,864.82" fill="none" stroke="black" stroke-width="10" />
<polyline points="301.00,488.25,288.58,506.04,275.65,541.65,269.17,577.30,262.70,630.31,262.34,722.51,268.76,775.62,275.16,811.37,288.54,846.72,300.91,864.63,326.19,864.78,339.09,847.03,351.53,811.38,358.02,775.73,364.03,722.19,363.85,630.43,357.93,577.36,351.53,541.62,339.18,505.86,326.27,488.40,301.00,488.25" fill="none" stroke="black" stroke-width="10" />
<polyline points="406.62,488.25,407.03,864.67" fill="none" stroke="black" stroke-width="10" />
<polyline points="406.62,488.25,464.65,488.20,483.46,506.16,489.39,524.01,495.83,559.27,495.76,612.82,489.28,648.47,483.31,666.32,464.45,684.06,406.96,683.66" fill="none" stroke="black" stroke-width="10" />
<polyline points="710.12,488.13,697.71,505.92,684.28,541.48,677.80,577.14,671.78,630.68,671.47,722.39,677.85,775.99,684.29,811.25,698.11,847.13,710.03,864.51,735.31,864.66,747.73,846.86,760.16,811.22,766.65,775.57,773.11,722.56,772.98,630.31,766.56,577.20,760.16,541.45,747.77,506.19,735.40,488.28,710.12,488.13" fill="none" stroke="black" stroke-width="10" />
<polyline points="816.24,488.17,816.15,864.55" fill="none" stroke="black" stroke-width="10" />
<polyline points="816.24,488.17,898.55,488.19" fill="none" stroke="black" stroke-width="10" />
<polyline points="816.06,666.19,866.66,666.00" fill="none" stroke="black" stroke-width="10" />
<polyline points="941.68,488.37,941.60,864.74" fill="none" stroke="black" stroke-width="10" />
<polyline points="941.68,488.37,1024.00,488.38" fill="none" stroke="black" stroke-width="10" />
<polyline points="941.55,665.89,992.60,666.23" fill="none" stroke="black" stroke-width="10" />
<polyline points="301.92,975.79,289.51,993.59,276.09,1029.15,270.10,1064.84,263.59,1118.35,263.77,1210.10,270.14,1263.70,276.09,1298.92,289.92,1334.80,302.33,1352.21,327.12,1352.32,339.53,1334.53,352.46,1298.93,358.94,1263.27,364.92,1210.22,364.78,1117.97,358.86,1064.91,352.46,1029.16,339.57,993.85,327.20,975.95,301.92,975.79" fill="none" stroke="black" stroke-width="10" />
<polyline points="406.93,1352.63,407.06,975.76,495.73,1352.20,495.82,975.82" fill="none" stroke="black" stroke-width="10" />
<polyline points="539.93,976.08,539.84,1352.46,615.72,1352.43" fill="none" stroke="black" stroke-width="10" />
<polyline points="658.97,975.73,710.38,1153.64,710.43,1352.50" fill="none" stroke="black" stroke-width="10" />
<polyline points="760.13,975.85,710.38,1153.64" fill="none" stroke="black" stroke-width="10" />
<polyline points="267.14,1545.61,274.63,1556.66,330.33,1578.23,325.30,1567.39" fill="none" stroke="black" stroke-width="10" />
<polyline points="256.74,1692.01,264.38,1718.94,345.60,1708.45,337.51,1680.99" fill="none" stroke="black" stroke-width="10" />
<polyline points="302.02,1713.69,307.63,2163.45,302.07,2147.11" fill="none" stroke="black" stroke-width="10" />
<polyline points="266.81,1784.11,279.38,1805.50,274.58,1903.29,266.83,2000.82,256.62,2098.14" fill="none" stroke="black" stroke-width="10" />
<polyline points="330.39,1800.40,332.74,2065.90,330.17,2055.27" fill="none" stroke="black" stroke-width="10" />
<polyline points="459.19,1502.84,467.30,1518.40,426.84,1551.18,390.92,1594.76,357.83,1610.80,340.01,1616.24,337.51,1616.52" fill="none" stroke="black" stroke-width="10" />
<polyline points="360.29,1611.01,365.85,1627.35,365.98,2065.73" fill="none" stroke="black" stroke-width="10" />
<polyline points="343.23,2076.70,352.84,2103.80,421.04,2000.96" fill="none" stroke="black" stroke-width="10" />
<polyline points="378.17,1757.32,484.79,1751.46,474.72,1729.78" fill="none" stroke="black" stroke-width="10" />
<polyline points="424.09,1583.68,426.83,1762.43,431.47,1860.02,446.68,1973.38,474.52,2060.53,502.65,2109.03,494.98,2076.64,492.23,2038.72,494.95,2000.77" fill="none" stroke="black" stroke-width="10" />
<polyline points="573.41,1594.81,601.43,1697.35" fill="none" stroke="black" stroke-width="10" />
<polyline points="573.22,1919.61,583.68,1924.96,591.25,1940.97,595.86,1962.68,601.59,2006.31,601.49,2060.35,601.41,2119.86" fill="none" stroke="black" stroke-width="10" />
<polyline points="595.89,1968.14,593.63,1936.21,598.36,1897.93,631.47,1664.69" fill="none" stroke="black" stroke-width="10" />
<polyline points="682.34,1502.86,700.41,1523.73,689.98,1600.21,674.52,1659.89,656.78,1740.71,642.27,1795.03,626.67,1832.88" fill="none" stroke="black" stroke-width="10" />
<polyline points="669.78,1680.82,674.91,1708.03,677.07,2163.44,669.51,2141.48" fill="none" stroke="black" stroke-width="10" />
<polyline points="741.12,1529.15,763.43,1535.01,752.97,1600.08,745.72,1627.23,733.15,1670.31" fill="none" stroke="black" stroke-width="10" />
<polyline points="682.49,1653.63,692.48,1670.34,811.53,1669.99,801.42,1648.80" fill="none" stroke="black" stroke-width="10" />
<polyline points="741.11,1669.99,741.12,2103.90" fill="none" stroke="black" stroke-width="10" />
<polyline points="679.94,1795.24,687.48,1805.79,801.56,1805.52,791.44,1784.33" fill="none" stroke="black" stroke-width="10" />
<polyline points="682.33,1925.36,687.44,1941.17,803.97,1947.05,793.94,1930.83" fill="none" stroke="black" stroke-width="10" />
<polyline points="682.46,2082.08,692.50,2098.30,819.46,2098.12,808.89,2082.35" fill="none" stroke="black" stroke-width="10" />
<polyline points="300.99,2359.26,321.45,2375.37,313.80,2418.86,293.77,2462.29,278.56,2483.82,275.63,2494.98" fill="none" stroke="black" stroke-width="10" />
<polyline points="255.67,2472.96,255.74,2483.87,255.50,3020.41" fill="none" stroke="black" stroke-width="10" />
<polyline points="258.31,2500.46,367.42,2500.26,346.93,2478.69" fill="none" stroke="black" stroke-width="10" />
<polyline points="357.00,2500.37,356.90,2988.32,364.96,3010.33,359.40,2993.99" fill="none" stroke="black" stroke-width="10" />
<polyline points="265.87,2657.30,275.92,2667.57,354.25,2667.75,354.29,2673.21,344.78,2662.49" fill="none" stroke="black" stroke-width="10" />
<polyline points="268.42,2961.50,364.65,2961.21" fill="none" stroke="black" stroke-width="10" />
<polyline points="402.64,2359.43,423.20,2385.96,410.31,2462.23,394.92,2526.88,379.81,2570.73,367.11,2591.97" fill="none" stroke="black" stroke-width="10" />
<polyline points="397.66,2500.34,504.27,2500.42,493.75,2484.16" fill="none" stroke="black" stroke-width="10" />
<polyline points="496.36,2500.25,496.25,2624.71,493.92,2716.75,494.02,2803.54,491.10,2879.17,481.48,2928.44,470.95,2976.64,455.81,3009.08,443.49,3019.94,432.79,2976.39,423.21,2960.70,407.83,2954.94" fill="none" stroke="black" stroke-width="10" />
<polyline points="382.70,2694.95,395.12,2700.46,466.03,2700.51,455.54,2689.70" fill="none" stroke="black" stroke-width="10" />
<polyline points="572.58,2619.26,585.18,2646.12,820.73,2646.20,803.29,2641.25" fill="none" stroke="black" stroke-width="10" />
<polyline points="693.74,2359.25,699.38,2380.55,699.38,3025.71" fill="none" stroke="black" stroke-width="10" />
<polyline points="592.63,3003.79,605.65,3025.72,812.97,3025.40,807.83,2998.18" fill="none" stroke="black" stroke-width="10" />
<polyline points="264.38,3284.98,276.94,3312.33,370.67,3312.32,365.56,3290.56" fill="none" stroke="black" stroke-width="10" />
<polyline points="383.41,3290.58,395.99,3311.98,484.75,3312.04,474.68,3290.36" fill="none" stroke="black" stroke-width="10" />
<polyline points="319.90,3214.79,327.97,3230.85,327.61,3387.52" fill="none" stroke="black" stroke-width="10" />
<polyline points="416.34,3241.30,433.80,3257.65,421.16,3366.17" fill="none" stroke="black" stroke-width="10" />
<polyline points="281.84,3365.80,309.97,3420.25" fill="none" stroke="black" stroke-width="10" />
<polyline points="256.51,3512.92,281.69,3561.17" fill="none" stroke="black" stroke-width="10" />
<polyline points="266.93,3718.11,276.89,3729.37,284.95,3745.42,292.06,3772.80,294.81,3804.77,294.53,3837.48,292.34,3880.93" fill="none" stroke="black" stroke-width="10" />
<polyline points="289.92,3745.35,343.23,3431.49" fill="none" stroke="black" stroke-width="10" />
<polyline points="383.41,3361.00,395.88,3366.02,378.13,3452.79,360.17,3512.76,348.06,3550.42,340.31,3577.53" fill="none" stroke="black" stroke-width="10" />
<polyline points="380.59,3453.00,469.35,3453.06,459.35,3442.30" fill="none" stroke="black" stroke-width="10" />
<polyline points="466.89,3452.86,449.39,3501.46,433.86,3550.23,416.25,3588.42,393.30,3637.06,368.22,3669.65,340.20,3701.99,319.99,3718.14" fill="none" stroke="black" stroke-width="10" />
<polyline points="383.69,3469.13,393.38,3501.19,408.62,3555.54,434.21,3604.81,459.20,3631.72,484.65,3659.16,505.04,3664.36" fill="none" stroke="black" stroke-width="10" />
<polyline points="360.30,3669.48,370.87,3691.20,378.01,3858.92" fill="none" stroke="black" stroke-width="10" />
<polyline points="370.90,3696.65,467.13,3696.36,459.03,3674.85" fill="none" stroke="black" stroke-width="10" />
<polyline points="462.16,3696.44,459.26,3853.89" fill="none" stroke="black" stroke-width="10" />
<polyline points="370.89,3837.49,462.16,3837.27" fill="none" stroke="black" stroke-width="10" />
<polyline points="679.90,3214.98,689.98,3230.71,690.05,3312.04" fill="none" stroke="black" stroke-width="10" />
<polyline points="586.18,3279.46,591.25,3295.76,586.07,3339.45,583.82,3371.99,575.58,3393.12,573.26,3414.74" fill="none" stroke="black" stroke-width="10" />
<polyline points="591.36,3312.13,819.47,3312.08,796.06,3295.72" fill="none" stroke="black" stroke-width="10" />
<polyline points="816.48,3312.32,781.52,3344.57,775.75,3365.90,773.24,3366.19,773.23,3372.14" fill="none" stroke="black" stroke-width="10" />
<polyline points="656.84,3317.67,669.86,3339.60,629.20,3474.51,611.24,3528.54,596.03,3556.01,583.85,3582.75" fill="none" stroke="black" stroke-width="10" />
<polyline points="647.12,3415.03,654.58,3420.62,761.24,3420.22,737.71,3393.43" fill="none" stroke="black" stroke-width="10" />
<polyline points="755.78,3420.25,745.56,3453.11,723.14,3501.30,692.32,3566.63,662.49,3632.05,631.55,3669.60,601.48,3696.81,573.52,3740.07" fill="none" stroke="black" stroke-width="10" />
<polyline points="649.66,3420.21,659.90,3469.17,674.55,3507.11,692.22,3550.26,712.78,3582.74,743.23,3615.57,783.68,3659.15,819.49,3669.62" fill="none" stroke="black" stroke-width="10" />
<polyline points="628.98,3658.97,633.98,3664.35,636.51,3880.77" fill="none" stroke="black" stroke-width="10" />
<polyline points="636.62,3685.90,763.58,3685.72,745.55,3664.36" fill="none" stroke="black" stroke-width="10" />
<polyline points="755.59,3674.63,755.47,3875.46" fill="none" stroke="black" stroke-width="10" />
<polyline points="636.83,3853.53,755.83,3853.67" fill="none" stroke="black" stroke-width="10" />
</svg>