<?xml version="1.0" encoding="UTF-8" ?><!-- DOCTYPE svg PUBLIC "-//W3C//DTD SVG 1.1//EN" "http://www.w3.org/Graphics/SVG/1.1/DTD/svg11.dtd" -->
<svg viewBox="0,0,1024,4353" preserveAspectRatio="xMidYMid" zoomAndPan="magnify" xmlns="http://www.w3.org/2000/svg" xmlns:xlink="http://www.w3.org/1999/xlink">
<polyline points="302.69,1460.48,288.95,1479.72,275.08,1515.60,270.02,1549.79,263.05,1604.27,263.15,1695.59,269.14,1748.41,275.26,1784.60,288.58,1819.40,300.44,1837.89,326.83,1836.97,338.63,1820.59,352.50,1784.71,358.05,1748.77,364.23,1694.44,363.48,1604.08,358.94,1550.15,351.37,1515.07,339.34,1478.35,326.84,1460.82,302.69,1460.48" fill="none" stroke="black" stroke-width="10" />
<polyline points="405.98,1838.37,405.99,1462.23,494.75,1837.94,494.75,1461.79" fill="none" stroke="black" stroke-width="10" />
<polyline points="538.89,1462.45,538.57,1836.99,615.32,1838.86" fill="none" stroke="black" stroke-width="10" />
<polyline points="657.55,1462.08,708.97,1639.03,708.09,1837.65" fill="none" stroke="black" stroke-width="10" />
<polyline points="758.94,1462.53,708.97,1639.03" fill="none" stroke="black" stroke-width="10" />
<polyline points="0.00,973.90,0.80,1349.89" fill="none" stroke="black" stroke-width="10" />
<polyline points="0.00,973.90,45.74,974.25,64.15,992.30,76.83,1028.07,83.60,1063.30,90.54,1116.77,88.89,1207.59,82.87,1262.72,76.21,1297.22,63.79,1331.98,45.89,1351.20,0.80,1349.89" fill="none" stroke="black" stroke-width="10" />
<polyline points="132.25,975.07,132.09,1350.42" fill="none" stroke="black" stroke-width="10" />
<polyline points="132.25,975.07,189.35,974.07,208.72,992.77,215.15,1008.97,220.47,1045.32,221.63,1081.63,214.32,1117.08,207.79,1134.94,190.08,1150.80,133.13,1152.60" fill="none" stroke="black" stroke-width="10" />
<polyline points="177.76,1151.50,220.21,1350.94" fill="none" stroke="black" stroke-width="10" />
<polyline points="300.66,974.29,289.32,993.07,276.74,1027.04,268.94,1064.24,262.46,1116.97,262.56,1208.29,268.55,1261.11,276.28,1296.99,288.31,1333.71,300.65,1350.43,327.36,1351.12,338.85,1333.13,350.96,1296.76,358.58,1262.92,363.30,1209.70,364.01,1118.23,358.51,1063.65,352.39,1027.46,339.21,993.45,326.71,975.93,300.66,974.29" fill="none" stroke="black" stroke-width="10" />
<polyline points="407.81,974.47,406.20,1350.92" fill="none" stroke="black" stroke-width="10" />
<polyline points="407.81,974.47,464.42,975.22,483.48,992.32,490.22,1010.12,495.53,1046.47,496.57,1099.41,489.26,1134.86,483.53,1152.57,464.37,1169.53,408.07,1170.38" fill="none" stroke="black" stroke-width="10" />
<polyline points="709.42,975.50,698.08,994.28,684.71,1028.41,678.04,1062.90,671.22,1118.18,670.37,1208.85,677.32,1262.32,683.28,1297.71,697.72,1333.96,709.57,1352.45,733.56,1351.99,747.30,1332.75,759.72,1297.98,765.43,1262.84,772.56,1209.16,772.31,1117.04,765.67,1065.17,759.55,1028.98,747.67,993.06,735.97,975.38,709.42,975.50" fill="none" stroke="black" stroke-width="10" />
<polyline points="815.61,975.03,814.96,1352.14" fill="none" stroke="black" stroke-width="10" />
<polyline points="815.61,975.03,897.17,975.98" fill="none" stroke="black" stroke-width="10" />
<polyline points="815.69,1152.71,866.23,1152.14" fill="none" stroke="black" stroke-width="10" />
<polyline points="941.00,975.04,940.19,1351.34" fill="none" stroke="black" stroke-width="10" />
<polyline points="941.00,975.04,1024.00,974.87" fill="none" stroke="black" stroke-width="10" />
<polyline points="940.27,1152.87,990.17,1153.25" fill="none" stroke="black" stroke-width="10" />
<polyline points="55.22,487.51,54.27,863.01" fill="none" stroke="black" stroke-width="10" />
<polyline points="55.22,487.51,112.79,488.91,130.89,505.36,136.68,522.52,144.40,558.40,143.18,612.61,136.68,647.90,130.94,665.61,112.43,681.62,53.73,682.93" fill="none" stroke="black" stroke-width="10" />
<polyline points="188.12,487.73,186.52,864.18" fill="none" stroke="black" stroke-width="10" />
<polyline points="325.61,576.74,319.65,541.35,305.86,504.14,294.47,488.06,269.52,487.87,256.27,505.36,243.21,541.09,235.74,575.73,230.37,629.91,230.47,721.22,236.46,774.05,243.54,810.88,256.06,845.84,269.52,864.02,293.66,864.36,306.76,846.07,319.03,810.50,325.38,774.41" fill="none" stroke="black" stroke-width="10" />
<polyline points="370.11,488.48,368.20,863.34" fill="none" stroke="black" stroke-width="10" />
<polyline points="457.27,488.35,367.55,738.91" fill="none" stroke="black" stroke-width="10" />
<polyline points="400.72,647.84,457.42,865.30" fill="none" stroke="black" stroke-width="10" />
<polyline points="630.79,488.24,631.12,758.04,637.27,811.66,649.80,846.62,668.86,863.72,681.48,864.62,700.49,846.85,713.56,811.13,718.28,757.91,718.91,488.76" fill="none" stroke="black" stroke-width="10" />
<polyline points="762.89,488.61,762.08,864.91" fill="none" stroke="black" stroke-width="10" />
<polyline points="762.89,488.61,820.94,488.26,840.16,506.16,845.30,524.27,852.06,559.51,852.45,613.40,844.99,648.05,839.26,665.76,821.20,684.17,762.19,683.88" fill="none" stroke="black" stroke-width="10" />
<polyline points="967.92,488.27,893.87,863.69" fill="none" stroke="black" stroke-width="10" />
<polyline points="362.01,0.97,363.30,375.20" fill="none" stroke="black" stroke-width="10" />
<polyline points="319.48,0.00,406.95,1.47" fill="none" stroke="black" stroke-width="10" />
<polyline points="551.21,376.48,500.52,0.11,449.02,376.18" fill="none" stroke="black" stroke-width="10" />
<polyline points="467.56,252.22,534.88,252.58" fill="none" stroke="black" stroke-width="10" />
<polyline points="575.36,0.68,663.31,376.54" fill="none" stroke="black" stroke-width="10" />
<polyline points="664.27,1.04,574.55,376.98" fill="none" stroke="black" stroke-width="10" />
<polyline points="704.90,0.71,704.89,376.86" fill="none" stroke="black" stroke-width="10" />
<polyline points="240.02,2020.54,247.94,2031.47,303.58,2053.17,299.03,2042.42" fill="none" stroke="black" stroke-width="10" />
<polyline points="230.59,2166.00,238.38,2193.57,318.74,2183.95,310.95,2156.38" fill="none" stroke="black" stroke-width="10" />
<polyline points="275.68,2188.89,279.75,2638.16,274.92,2621.65" fill="none" stroke="black" stroke-width="10" />
<polyline points="240.12,2258.83,251.78,2280.67,248.00,2377.71,239.41,2475.68,228.92,2572.36" fill="none" stroke="black" stroke-width="10" />
<polyline points="303.00,2274.98,305.62,2539.36,302.97,2529.91" fill="none" stroke="black" stroke-width="10" />
<polyline points="432.90,1978.52,440.28,1995.37,400.55,2026.25,364.38,2071.39,330.68,2086.16,313.52,2091.95,311.77,2091.46" fill="none" stroke="black" stroke-width="10" />
<polyline points="333.88,2085.55,339.67,2102.70,338.39,2541.37" fill="none" stroke="black" stroke-width="10" />
<polyline points="315.44,2551.59,326.43,2578.54,393.10,2476.06" fill="none" stroke="black" stroke-width="10" />
<polyline points="351.31,2232.49,458.34,2227.72,448.27,2205.57" fill="none" stroke="black" stroke-width="10" />
<polyline points="396.93,2059.32,399.72,2238.14,404.90,2334.30,418.58,2448.75,447.66,2535.33,475.12,2583.20,467.52,2552.28,465.10,2513.72,467.79,2475.83" fill="none" stroke="black" stroke-width="10" />
<polyline points="546.06,2070.54,574.21,2173.91" fill="none" stroke="black" stroke-width="10" />
<polyline points="546.13,2395.19,556.02,2399.11,563.56,2416.76,569.31,2438.07,574.26,2481.13,574.00,2535.98,574.51,2594.84" fill="none" stroke="black" stroke-width="10" />
<polyline points="567.99,2444.14,566.64,2411.18,571.08,2373.79,605.18,2140.56" fill="none" stroke="black" stroke-width="10" />
<polyline points="655.51,1978.94,672.78,1999.71,663.09,2074.64,647.28,2134.97,629.55,2215.59,614.26,2270.01,600.20,2309.25" fill="none" stroke="black" stroke-width="10" />
<polyline points="641.51,2156.83,646.74,2184.06,649.18,2637.79,642.63,2616.63" fill="none" stroke="black" stroke-width="10" />
<polyline points="713.84,2005.94,736.35,2010.75,726.57,2076.56,719.33,2103.69,705.73,2145.33" fill="none" stroke="black" stroke-width="10" />
<polyline points="655.47,2130.07,665.91,2145.51,784.58,2145.14,774.82,2124.59" fill="none" stroke="black" stroke-width="10" />
<polyline points="714.20,2146.20,713.60,2579.75" fill="none" stroke="black" stroke-width="10" />
<polyline points="652.63,2270.95,660.39,2281.08,774.10,2280.83,765.14,2260.13" fill="none" stroke="black" stroke-width="10" />
<polyline points="655.16,2400.83,659.83,2416.53,777.18,2422.23,765.79,2406.15" fill="none" stroke="black" stroke-width="10" />
<polyline points="654.44,2557.07,664.88,2572.50,790.57,2574.10,780.78,2557.72" fill="none" stroke="black" stroke-width="10" />
<polyline points="272.34,2833.05,293.00,2849.84,287.23,2893.30,265.48,2935.67,251.40,2957.47,248.74,2969.61" fill="none" stroke="black" stroke-width="10" />
<polyline points="226.85,2946.41,228.20,2957.78,227.61,3473.53" fill="none" stroke="black" stroke-width="10" />
<polyline points="229.68,2974.10,340.18,2974.47,319.09,2951.12" fill="none" stroke="black" stroke-width="10" />
<polyline points="330.27,2974.71,329.56,3442.33,336.76,3462.53,331.29,3446.98" fill="none" stroke="black" stroke-width="10" />
<polyline points="238.08,3130.25,247.59,3140.88,327.39,3141.33,326.56,3145.64,316.40,3135.97" fill="none" stroke="black" stroke-width="10" />
<polyline points="241.02,3413.66,337.45,3414.24" fill="none" stroke="black" stroke-width="10" />
<polyline points="375.98,2832.25,394.48,2859.42,383.34,2935.46,367.50,2999.94,351.16,3044.60,339.48,3065.94" fill="none" stroke="black" stroke-width="10" />
<polyline points="369.78,2972.93,475.48,2974.22,464.89,2957.99" fill="none" stroke="black" stroke-width="10" />
<polyline points="467.97,2974.01,467.97,3099.39,465.51,3190.37,466.29,3276.57,462.67,3352.83,452.21,3402.17,443.05,3449.60,428.42,3481.47,414.74,3492.40,404.83,3449.46,395.04,3433.08,379.74,3426.88" fill="none" stroke="black" stroke-width="10" />
<polyline points="355.66,3167.46,366.80,3173.62,439.24,3174.65,428.62,3162.58" fill="none" stroke="black" stroke-width="10" />
<polyline points="543.98,3093.09,557.37,3119.58,791.66,3120.26,774.90,3115.17" fill="none" stroke="black" stroke-width="10" />
<polyline points="666.87,2833.68,671.67,2854.34,670.89,3498.84" fill="none" stroke="black" stroke-width="10" />
<polyline points="563.75,3477.07,576.22,3498.75,784.60,3498.59,779.37,3471.36" fill="none" stroke="black" stroke-width="10" />
<polyline points="179.11,3687.94,188.87,3708.49,188.76,4347.87" fill="none" stroke="black" stroke-width="10" />
<polyline points="180.90,4017.24,289.81,4017.92,282.79,3994.36" fill="none" stroke="black" stroke-width="10" />
<polyline points="69.79,4325.05,80.54,4342.08,313.72,4341.31,307.41,4330.07" fill="none" stroke="black" stroke-width="10" />
<polyline points="394.31,3757.88,406.10,3784.68,501.08,3786.37,494.72,3761.85" fill="none" stroke="black" stroke-width="10" />
<polyline points="513.41,3764.07,524.92,3785.11,613.99,3786.27,603.62,3762.52" fill="none" stroke="black" stroke-width="10" />
<polyline points="448.91,3687.61,457.09,3704.31,456.38,3860.55" fill="none" stroke="black" stroke-width="10" />
<polyline points="545.45,3714.74,563.41,3730.39,551.06,3839.04" fill="none" stroke="black" stroke-width="10" />
<polyline points="411.45,3838.45,440.44,3894.33" fill="none" stroke="black" stroke-width="10" />
<polyline points="385.69,3985.39,410.90,4034.52" fill="none" stroke="black" stroke-width="10" />
<polyline points="396.11,4190.97,406.27,4200.65,413.81,4218.30,420.49,4244.42,423.59,4277.86,423.83,4309.37,421.26,4352.21" fill="none" stroke="black" stroke-width="10" />
<polyline points="418.77,4218.17,472.20,3904.01" fill="none" stroke="black" stroke-width="10" />
<polyline points="511.91,3834.11,525.16,3838.21,507.05,3925.55,490.44,3986.03,477.68,4023.36,468.83,4050.80" fill="none" stroke="black" stroke-width="10" />
<polyline points="510.57,3926.53,599.17,3925.29,589.01,3915.62" fill="none" stroke="black" stroke-width="10" />
<polyline points="595.97,3925.91,579.45,3973.92,562.44,4023.69,545.36,4060.18,522.59,4110.22,497.88,4141.54,468.52,4174.58,448.90,4189.14" fill="none" stroke="black" stroke-width="10" />
<polyline points="512.69,3941.90,523.00,3973.97,537.46,4027.65,563.62,4077.43,588.69,4104.17,614.55,4130.76,634.82,4136.83" fill="none" stroke="black" stroke-width="10" />
<polyline points="489.57,4141.47,499.79,4164.42,506.98,4331.60" fill="none" stroke="black" stroke-width="10" />
<polyline points="500.56,4168.42,596.34,4169.96,589.32,4146.40" fill="none" stroke="black" stroke-width="10" />
<polyline points="591.23,4169.28,587.95,4325.18" fill="none" stroke="black" stroke-width="10" />
<polyline points="498.67,4309.94,590.64,4308.89" fill="none" stroke="black" stroke-width="10" />
<polyline points="808.57,3688.29,819.32,3705.32,819.02,3785.92" fill="none" stroke="black" stroke-width="10" />
<polyline points="715.64,3753.47,719.51,3769.33,715.50,3813.28,713.34,3845.25,705.66,3865.82,702.45,3888.02" fill="none" stroke="black" stroke-width="10" />
<polyline points="720.99,3785.65,948.56,3785.96,926.30,3769.47" fill="none" stroke="black" stroke-width="10" />
<polyline points="945.36,3786.57,909.13,3818.44,905.77,3839.84,903.21,3839.50,901.89,3845.57" fill="none" stroke="black" stroke-width="10" />
<polyline points="785.23,3791.58,798.35,3812.31,758.77,3947.79,739.97,4001.22,725.36,4028.93,712.05,4054.74" fill="none" stroke="black" stroke-width="10" />
<polyline points="776.19,3887.15,783.33,3894.08,890.32,3893.46,867.66,3866.26" fill="none" stroke="black" stroke-width="10" />
<polyline points="883.92,3894.69,875.04,3926.29,851.96,3974.73,821.39,4040.38,791.31,4104.28,760.47,4142.59,730.53,4168.27,700.92,4212.98" fill="none" stroke="black" stroke-width="10" />
<polyline points="778.22,3893.40,789.20,3941.94,803.29,3980.75,820.87,4024.71,841.74,4055.57,871.24,4088.10,912.65,4130.80,948.07,4142.27" fill="none" stroke="black" stroke-width="10" />
<polyline points="758.63,4132.98,762.75,4137.17,765.26,4353.41" fill="none" stroke="black" stroke-width="10" />
<polyline points="764.50,4159.25,892.13,4157.99,874.86,4137.23" fill="none" stroke="black" stroke-width="10" />
<polyline points="884.22,4147.06,883.65,4347.28" fill="none" stroke="black" stroke-width="10" />
<polyline points="765.94,4326.71,883.65,4325.69" fill="none" stroke="black" stroke-width="10" />
</svg>