<?xml version="1.0" encoding="UTF-8" ?><!-- DOCTYPE svg PUBLIC "-//W3C//DTD SVG 1.1//EN" "http://www.w3.org/Graphics/SVG/1.1/DTD/svg11.dtd" -->
<svg viewBox="0,0,1024,1024" preserveAspectRatio="xMidYMid" zoomAndPan="magnify" xmlns="http://www.w3.org/2000/svg" xmlns:xlink="http://www.w3.org/1999/xlink">
<g>
<line x1="338.727" y1="458.084" x2="338.727" y2="458.084" stroke="black" stroke-width="10" />
<line x1="792.99" y1="710.563" x2="686.299" y2="760.331" stroke="black" stroke-width="10" />
<line x1="686.299" y1="760.331" x2="598.558" y2="572.232" stroke="black" stroke-width="10" />
<line x1="598.558" y1="572.232" x2="383.575" y2="572.259" stroke="black" stroke-width="10" />
<line x1="383.575" y1="572.259" x2="354.036" y2="235.114" stroke="black" stroke-width="10" />
<path d="M354.04,235.11 A66.54,66.54 269.99 1,1 421.02,295.85" fill="none" stroke="black" stroke-width="10" />
<line x1="421.016" y1="295.845" x2="431.78" y2="418.694" stroke="black" stroke-width="10" />
<line x1="431.78" y1="418.694" x2="583.417" y2="418.675" stroke="black" stroke-width="10" />
<line x1="583.417" y1="418.675" x2="583.423" y2="469.861" stroke="black" stroke-width="10" />
<line x1="583.423" y1="469.861" x2="436.264" y2="469.88" stroke="black" stroke-width="10" />
<line x1="436.264" y1="469.88" x2="439.852" y2="510.829" stroke="black" stroke-width="10" />
<line x1="439.852" y1="510.829" x2="637.681" y2="510.804" stroke="black" stroke-width="10" />
<line x1="637.681" y1="510.804" x2="726.817" y2="701.893" stroke="black" stroke-width="10" />
<line x1="726.817" y1="701.893" x2="777.844" y2="678.091" stroke="black" stroke-width="10" />
<line x1="777.844" y1="678.091" x2="792.99" y2="710.563" stroke="black" stroke-width="10" />
<path d="M342.48,455.08 A214.98,214.98 89.99 1,0 640.28,734.33" fill="none" stroke="black" stroke-width="10" />
<line x1="640.284" y1="734.335" x2="598.794" y2="645.389" stroke="black" stroke-width="10" />
<path d="M598.79,645.39 A153.56,153.56 89.99 1,1 348.57,524.60" fill="none" stroke="black" stroke-width="10" />
<line x1="348.57" y1="524.602" x2="342.479" y2="455.081" stroke="black" stroke-width="10" />
<polygon points="1023.94,0.00,0.00,0.00,0.00,1023.94,1024.00,1023.26" fill="none" stroke="black" stroke-width="10" />
</g>
</svg>