<?xml version="1.0" encoding="UTF-8" ?><!-- DOCTYPE svg PUBLIC "-//W3C//DTD SVG 1.1//EN" "http://www.w3.org/Graphics/SVG/1.1/DTD/svg11.dtd" -->
<svg viewBox="0,0,1024,3351" preserveAspectRatio="xMidYMid" zoomAndPan="magnify" xmlns="http://www.w3.org/2000/svg" xmlns:xlink="http://www.w3.org/1999/xlink">
<g>
<g>
<line x1="222.679" y1="682.373" x2="317.05" y2="682.373" stroke="black" stroke-width="10" />
<line x1="269.873" y1="682.373" x2="269.873" y2="1059.88" stroke="black" stroke-width="10" />
</g>
<g>
<line x1="364.832" y1="989.099" x2="364.832" y2="753.156" stroke="black" stroke-width="10" />
<line x1="459.203" y1="989.099" x2="459.203" y2="753.156" stroke="black" stroke-width="10" />
<polyline points="364.83,753.16,367.98,727.76,375.22,708.82,389.77,690.71,403.77,682.37,422.64,682.37,431.97,689.01,449.79,710.67,456.08,727.76,459.20,753.16" fill="none" stroke="black" stroke-width="10" />
<polyline points="364.83,989.10,367.98,1014.49,375.22,1033.43,389.77,1051.54,403.77,1059.88,422.64,1059.88,431.97,1053.29,449.79,1031.59,456.08,1014.49,459.20,989.10" fill="none" stroke="black" stroke-width="10" />
</g>
<g>
<line x1="505.81" y1="682.373" x2="505.81" y2="1059.88" stroke="black" stroke-width="10" />
<line x1="505.81" y1="1059.88" x2="588.396" y2="1059.88" stroke="black" stroke-width="10" />
</g>
<g>
<line x1="647.375" y1="682.373" x2="647.375" y2="1059.88" stroke="black" stroke-width="10" />
<line x1="647.375" y1="1059.88" x2="729.961" y2="1059.88" stroke="black" stroke-width="10" />
</g>
</g>
<g>
<g>
<line x1="228.658" y1="1478.49" x2="228.658" y2="1242.55" stroke="black" stroke-width="10" />
<line x1="323.029" y1="1478.49" x2="323.029" y2="1242.55" stroke="black" stroke-width="10" />
<polyline points="228.66,1242.55,231.80,1217.16,239.04,1198.22,253.59,1180.11,267.59,1171.77,286.46,1171.77,295.79,1178.40,313.61,1200.06,319.90,1217.16,323.03,1242.55" fill="none" stroke="black" stroke-width="10" />
<polyline points="228.66,1478.49,231.80,1503.89,239.04,1522.83,253.59,1540.94,267.59,1549.28,286.46,1549.28,295.79,1542.69,313.61,1520.98,319.90,1503.89,323.03,1478.49" fill="none" stroke="black" stroke-width="10" />
</g>
<g>
<line x1="369.636" y1="1549.28" x2="369.636" y2="1171.77" stroke="black" stroke-width="10" />
<line x1="369.636" y1="1171.77" x2="458.857" y2="1549.28" stroke="black" stroke-width="10" />
<line x1="458.857" y1="1549.28" x2="458.857" y2="1171.77" stroke="black" stroke-width="10" />
</g>
<g>
<line x1="511.201" y1="1171.77" x2="511.201" y2="1549.28" stroke="black" stroke-width="10" />
<line x1="511.201" y1="1549.28" x2="593.787" y2="1549.28" stroke="black" stroke-width="10" />
</g>
<g>
<line x1="652.767" y1="1171.77" x2="699.961" y2="1352.64" stroke="black" stroke-width="10" />
<line x1="699.961" y1="1352.64" x2="744.201" y2="1171.77" stroke="black" stroke-width="10" />
<line x1="699.961" y1="1541.4" x2="699.961" y2="1349.69" stroke="black" stroke-width="10" />
</g>
</g>
<g>
<g>
<line x1="329.212" y1="3014.09" x2="375.66" y2="2936.13" stroke="black" stroke-width="10" />
<polyline points="395.98,2936.32,472.19,2937.02,472.67,2884.77,474.48,2688.81,423.68,2688.34,347.47,2687.64,346.99,2739.89,345.18,2935.85,395.98,2936.32" fill="none" stroke="black" stroke-width="10" />
<line x1="431.544" y1="2936.65" x2="486.702" y2="3015.55" stroke="black" stroke-width="10" />
<polyline points="472.91,2858.64,422.11,2858.17,345.90,2857.47" fill="none" stroke="black" stroke-width="10" />
<polyline points="346.63,2779.08,422.83,2779.79,473.64,2780.26" fill="none" stroke="black" stroke-width="10" />
<polyline points="489.84,2675.89,509.80,2715.27,516.09,2584.68" fill="none" stroke="black" stroke-width="10" />
<polyline points="515.85,2610.80,480.29,2610.48,404.08,2609.77,327.88,2609.07,328.60,2530.68,348.92,2530.87,425.13,2531.58,501.33,2532.28,502.06,2453.90,466.50,2453.57,390.29,2452.87,314.09,2452.16" fill="none" stroke="black" stroke-width="10" />
<polyline points="385.81,2387.50,384.24,2557.33,381.16,2576.59,377.37,2594.59,373.09,2611.97,368.35,2628.11,362.88,2643.61,356.95,2657.24,350.79,2669.63,343.91,2680.76,337.04,2690.65,329.71,2698.67,322.15,2704.82,314.37,2709.73,306.59,2712.77,301.51,2713.34" fill="none" stroke="black" stroke-width="10" />
<polyline points="444.00,2688.53,444.97,2584.02,446.78,2388.06" fill="none" stroke="black" stroke-width="10" />
</g>
<g>
<polyline points="543.91,2872.36,620.12,2873.07,696.32,2873.77,757.29,2874.34" fill="none" stroke="black" stroke-width="10" />
<polyline points="722.45,2795.62,722.81,2756.43,724.63,2560.48" fill="none" stroke="black" stroke-width="10" />
<polyline points="724.50,2573.54,663.54,2572.98,587.34,2572.27" fill="none" stroke="black" stroke-width="10" />
<polyline points="587.46,2559.21,585.64,2755.16,585.28,2794.36" fill="none" stroke="black" stroke-width="10" />
<polyline points="585.40,2781.29,661.61,2782.00,722.57,2782.56" fill="none" stroke="black" stroke-width="10" />
<polyline points="723.54,2678.05,662.57,2677.49,586.37,2676.78" fill="none" stroke="black" stroke-width="10" />
<line x1="653.018" y1="2612.07" x2="654.83" y2="2416.12" stroke="black" stroke-width="10" />
<line x1="633.784" y1="2494.31" x2="557.579" y2="2493.61" stroke="black" stroke-width="10" />
<polyline points="633.78,2494.31,709.99,2495.02,750.63,2495.39" fill="none" stroke="black" stroke-width="10" />
<polyline points="653.02,2612.07,651.21,2808.03,649.51,2990.92" fill="none" stroke="black" stroke-width="10" />
</g>
<g>
<polyline points="782.81,2861.51,859.02,2862.21,874.26,2862.35" fill="none" stroke="black" stroke-width="10" />
<line x1="895.061" y1="2810.29" x2="916.107" y2="2732.09" stroke="black" stroke-width="10" />
<line x1="895.544" y1="2758.03" x2="897.357" y2="2562.07" stroke="black" stroke-width="10" />
<polyline points="897.11,2588.20,973.32,2588.91,1003.80,2589.19" fill="none" stroke="black" stroke-width="10" />
<polyline points="1004.04,2563.06,1002.23,2759.02,1000.42,2954.97,1000.06,2994.16,970.06,2941.63" fill="none" stroke="black" stroke-width="10" />
<polyline points="944.41,2967.52,945.50,2849.95,947.31,2653.99,949.13,2458.03" fill="none" stroke="black" stroke-width="10" />
<line x1="969.447" y1="2458.22" x2="893.243" y2="2457.52" stroke="black" stroke-width="10" />
<polyline points="877.76,2483.50,862.52,2483.36,786.31,2482.66" fill="none" stroke="black" stroke-width="10" />
<polyline points="795.51,2587.26,793.82,2770.15,864.94,2770.81,866.63,2587.92,795.51,2587.26" fill="none" stroke="black" stroke-width="10" />
<line x1="794.663" y1="2678.71" x2="865.787" y2="2679.37" stroke="black" stroke-width="10" />
<line x1="906.551" y1="2666.68" x2="940.784" y2="2810.71" stroke="black" stroke-width="10" />
<line x1="950.945" y1="2810.8" x2="977.192" y2="2719.59" stroke="black" stroke-width="10" />
<line x1="962.434" y1="2667.19" x2="996.789" y2="2798.16" stroke="black" stroke-width="10" />
<polyline points="895.54,2758.03,893.73,2953.99,893.37,2993.18" fill="none" stroke="black" stroke-width="10" />
<polyline points="827.45,2979.50,829.02,2809.67,830.83,2613.72,832.64,2417.76" fill="none" stroke="black" stroke-width="10" />
<line x1="969.447" y1="2458.22" x2="1010.09" y2="2458.6" stroke="black" stroke-width="10" />
</g>
</g>
<g>
<g>
<line x1="792.887" y1="2256.49" x2="915.037" y2="2178.44" stroke="black" stroke-width="10" />
<polyline points="910.10,2126.17,879.62,2126.08,803.41,2125.87" fill="none" stroke="black" stroke-width="10" />
<polyline points="803.59,2060.55,804.06,1890.72,834.54,1890.80,910.75,1891.01,910.28,2060.85" fill="none" stroke="black" stroke-width="10" />
<polyline points="910.32,2047.78,879.83,2047.70,803.62,2047.49" fill="none" stroke="black" stroke-width="10" />
<polyline points="803.84,1969.10,880.05,1969.31,910.53,1969.40" fill="none" stroke="black" stroke-width="10" />
<polyline points="951.21,1956.44,951.36,1904.19,951.90,1708.22" fill="none" stroke="black" stroke-width="10" />
<polyline points="911.29,1695.04,897.45,1713.05,882.89,1727.32,868.10,1739.10,853.08,1746.52,837.83,1751.45,822.34,1752.03,807.10,1750.13,799.37,1746.99" fill="none" stroke="black" stroke-width="10" />
<polyline points="799.15,1825.38,875.36,1825.59,916.01,1825.70" fill="none" stroke="black" stroke-width="10" />
<polyline points="926.03,1877.99,1002.23,1878.20,1007.31,1878.21" fill="none" stroke="black" stroke-width="10" />
<polyline points="1007.35,1865.15,1006.85,2048.05,1005.49,2100.30,1002.45,2151.31,997.47,2201.68,991.05,2250.81,985.88,2283.15,955.61,2204.68" fill="none" stroke="black" stroke-width="10" />
<polyline points="899.51,2282.91,909.50,2255.57,918.78,2226.35,926.85,2194.65,933.95,2161.69,939.86,2126.87,944.55,2091.42,948.04,2054.73,950.08,2017.41,951.15,1979.46,951.21,1956.44" fill="none" stroke="black" stroke-width="10" />
<line x1="854.717" y1="1943.11" x2="855.257" y2="1747.15" stroke="black" stroke-width="10" />
<polyline points="854.72,1943.11,854.18,2139.08,853.96,2217.46" fill="none" stroke="black" stroke-width="10" />
</g>
</g>
<polyline points="8.13,1707.50,13.94,1717.55,57.50,1738.07,53.52,1727.82" fill="none" stroke="black" stroke-width="10" />
<polyline points="0.12,1845.22,6.00,1870.58,69.50,1860.45,63.41,1834.96" fill="none" stroke="black" stroke-width="10" />
<polyline points="35.75,1865.33,39.64,2288.44,35.83,2273.21" fill="none" stroke="black" stroke-width="10" />
<polyline points="8.01,1931.82,17.80,1952.13,13.81,2043.89,7.92,2135.54,0.00,2227.26" fill="none" stroke="black" stroke-width="10" />
<polyline points="57.63,1947.02,59.66,2196.79,57.58,2186.66" fill="none" stroke="black" stroke-width="10" />
<polyline points="158.64,1666.57,164.54,1682.04,132.82,1712.57,105.08,1753.34,79.44,1768.65,65.46,1773.57,63.43,1773.64" fill="none" stroke="black" stroke-width="10" />
<polyline points="81.34,1768.78,85.28,1783.81,85.38,2196.80" fill="none" stroke="black" stroke-width="10" />
<polyline points="67.37,2206.96,75.48,2232.38,128.85,2135.59" fill="none" stroke="black" stroke-width="10" />
<polyline points="95.25,1906.26,178.53,1901.26,170.57,1880.75" fill="none" stroke="black" stroke-width="10" />
<polyline points="130.95,1743.27,132.90,1911.31,136.89,2002.97,148.81,2110.03,170.49,2191.59,192.31,2237.36,186.40,2206.89,184.39,2171.37,186.24,2135.56" fill="none" stroke="black" stroke-width="10" />
<polyline points="247.81,1753.35,269.56,1850.22" fill="none" stroke="black" stroke-width="10" />
<polyline points="247.90,2059.21,255.90,2064.21,261.74,2079.37,265.64,2100.03,269.57,2140.77,269.63,2191.69,269.71,2247.70" fill="none" stroke="black" stroke-width="10" />
<polyline points="265.79,2104.93,263.61,2074.38,267.69,2038.63,293.42,1819.61" fill="none" stroke="black" stroke-width="10" />
<polyline points="333.03,1666.54,346.94,1687.02,339.12,1758.46,327.10,1814.40,313.34,1890.97,301.30,1941.81,289.57,1977.60" fill="none" stroke="black" stroke-width="10" />
<polyline points="323.14,1834.97,327.13,1860.21,329.01,2288.50,323.28,2268.05" fill="none" stroke="black" stroke-width="10" />
<polyline points="378.64,1692.10,396.40,1697.31,388.53,1758.54,382.50,1783.96,372.63,1824.64" fill="none" stroke="black" stroke-width="10" />
<polyline points="333.03,1809.27,340.96,1824.67,434.14,1824.79,426.19,1804.29" fill="none" stroke="black" stroke-width="10" />
<polyline points="378.58,1824.61,378.66,2232.50" fill="none" stroke="black" stroke-width="10" />
<polyline points="331.14,1941.99,336.95,1952.04,426.21,1952.11,418.25,1931.61" fill="none" stroke="black" stroke-width="10" />
<polyline points="333.06,2064.22,337.06,2079.58,428.18,2084.55,420.25,2069.15" fill="none" stroke="black" stroke-width="10" />
<polyline points="333.08,2212.05,341.01,2227.45,440.08,2227.22,432.02,2212.01" fill="none" stroke="black" stroke-width="10" />
<polyline points="582.75,1666.74,602.62,1687.18,588.84,1732.93,574.86,1763.56,563.03,1778.93" fill="none" stroke="black" stroke-width="10" />
<polyline points="523.35,1748.24,529.38,1763.53,529.40,2278.21" fill="none" stroke="black" stroke-width="10" />
<polyline points="531.13,1773.73,658.02,1773.75,644.16,1763.48" fill="none" stroke="black" stroke-width="10" />
<polyline points="652.04,1768.67,652.15,2263.07" fill="none" stroke="black" stroke-width="10" />
<polyline points="531.12,1916.45,537.13,1926.63,644.25,1926.62,634.32,1916.39" fill="none" stroke="black" stroke-width="10" />
<polyline points="531.25,2058.98,535.20,2064.13,644.22,2064.23,636.32,2053.93" fill="none" stroke="black" stroke-width="10" />
<polyline points="529.34,2227.30,656.23,2227.32" fill="none" stroke="black" stroke-width="10" />
<g>
<g>
<line x1="45.1798" y1="3006.02" x2="55.341" y2="2862.31" stroke="black" stroke-width="10" />
<line x1="70.5828" y1="2862.31" x2="80.744" y2="2966.82" stroke="black" stroke-width="10" />
<polyline points="101.07,3006.02,109.53,2975.53,116.79,2943.81,123.08,2909.59,128.40,2874.75,132.28,2838.05,134.94,2801.34,136.39,2764.02" fill="none" stroke="black" stroke-width="10" />
<line x1="151.872" y1="2744.73" x2="151.872" y2="2679.41" stroke="black" stroke-width="10" />
<polyline points="177.28,2666.34,121.39,2666.34,121.39,2470.38" fill="none" stroke="black" stroke-width="10" />
<line x1="121.389" y1="2483.44" x2="177.275" y2="2483.44" stroke="black" stroke-width="10" />
<line x1="177.275" y1="2470.38" x2="177.275" y2="2666.34" stroke="black" stroke-width="10" />
<polyline points="182.36,2718.60,191.07,2690.61,199.05,2660.12,206.07,2628.39,211.63,2594.80,216.23,2560.58,219.86,2525.12,222.03,2489.04,223.00,2457.31" fill="none" stroke="black" stroke-width="10" />
<line x1="212.84" y1="2601.02" x2="263.646" y2="2601.02" stroke="black" stroke-width="10" />
<polyline points="253.48,2601.02,252.03,2653.90,248.89,2705.54,244.05,2756.55,237.27,2806.32,229.05,2854.22,219.37,2900.26,208.00,2943.81,195.18,2984.87,187.44,3006.02" fill="none" stroke="black" stroke-width="10" />
<line x1="167.114" y1="3006.02" x2="141.711" y2="2966.82" stroke="black" stroke-width="10" />
<polyline points="162.03,3006.02,177.03,2871.02,182.36,2810.05" fill="none" stroke="black" stroke-width="10" />
<line x1="177.275" y1="2823.12" x2="131.55" y2="2823.12" stroke="black" stroke-width="10" />
<line x1="111.228" y1="2836.18" x2="90.9052" y2="2757.79" stroke="black" stroke-width="10" />
<line x1="111.228" y1="2757.79" x2="182.356" y2="2757.79" stroke="black" stroke-width="10" />
<polyline points="207.76,2653.28,209.45,2701.18,213.08,2748.46,218.16,2794.50,224.69,2838.67,232.68,2882.22,242.36,2923.28,253.24,2961.85,263.65,2992.95" fill="none" stroke="black" stroke-width="10" />
<line x1="106.147" y1="2940.7" x2="90.9052" y2="2849.24" stroke="black" stroke-width="10" />
<line x1="106.147" y1="2810.05" x2="40.0992" y2="2836.18" stroke="black" stroke-width="10" />
<polyline points="50.26,2823.12,65.99,2777.08,80.02,2727.31,92.60,2674.43,103.00,2619.68,106.15,2601.02" fill="none" stroke="black" stroke-width="10" />
<line x1="121.389" y1="2574.89" x2="177.275" y2="2574.89" stroke="black" stroke-width="10" />
<line x1="146.792" y1="2431.18" x2="126.469" y2="2483.44" stroke="black" stroke-width="10" />
<polyline points="90.91,2444.25,87.76,2476.60,83.65,2508.33,78.57,2538.19,72.28,2567.43,65.26,2595.42,57.28,2620.93,50.26,2640.21" fill="none" stroke="black" stroke-width="10" />
<line x1="40.0992" y1="2614.09" x2="85.8246" y2="2705.54" stroke="black" stroke-width="10" />
</g>
</g>
<g>
<g>
<line x1="211.311" y1="566.263" x2="258.505" y2="188.754" stroke="black" stroke-width="10" />
<line x1="258.505" y1="188.754" x2="305.682" y2="566.263" stroke="black" stroke-width="10" />
<line x1="293.897" y1="471.886" x2="223.114" y2="471.886" stroke="black" stroke-width="10" />
</g>
<g>
<line x1="352.877" y1="188.754" x2="352.877" y2="487.6" stroke="black" stroke-width="10" />
<line x1="441.355" y1="487.6" x2="441.355" y2="188.754" stroke="black" stroke-width="10" />
<polyline points="441.36,487.60,435.46,542.67,423.66,566.26,376.47,566.26,358.41,536.77,352.88,487.60" fill="none" stroke="black" stroke-width="10" />
</g>
<g>
<line x1="494.442" y1="188.754" x2="588.814" y2="188.754" stroke="black" stroke-width="10" />
<line x1="541.637" y1="188.754" x2="541.637" y2="566.263" stroke="black" stroke-width="10" />
</g>
<g>
<line x1="636.595" y1="495.48" x2="636.595" y2="259.537" stroke="black" stroke-width="10" />
<line x1="730.967" y1="495.48" x2="730.967" y2="259.537" stroke="black" stroke-width="10" />
<polyline points="636.60,259.54,639.74,234.15,646.98,215.21,661.53,197.10,675.53,188.75,694.40,188.75,703.73,195.39,721.55,217.05,727.84,234.15,730.97,259.54" fill="none" stroke="black" stroke-width="10" />
<polyline points="636.60,495.48,639.74,520.87,646.98,539.81,661.53,557.92,675.53,566.26,694.40,566.26,703.73,559.67,721.55,537.97,727.84,520.87,730.97,495.48" fill="none" stroke="black" stroke-width="10" />
</g>
</g>
</svg>