<?xml version="1.0" encoding="UTF-8" ?><!-- DOCTYPE svg PUBLIC "-//W3C//DTD SVG 1.1//EN" "http://www.w3.org/Graphics/SVG/1.1/DTD/svg11.dtd" -->
<svg viewBox="0,0,1024,285" preserveAspectRatio="xMidYMid" zoomAndPan="magnify" xmlns="http://www.w3.org/2000/svg" xmlns:xlink="http://www.w3.org/1999/xlink">
<path d="M0.25,235.74 A0.34,0.37 0.22 0,0 0.21,236.22" fill="none" stroke="black" stroke-width="10" />
<path d="M31.17,284.43 A0.34,0.37 0.22 0,1 30.66,284.38" fill="none" stroke="black" stroke-width="10" />
<path d="M775.60,0.00 C792.16,14.10 809.10,27.72 825.54,42.00 C859.26,71.27 886.98,106.62 916.51,140.14 C930.97,156.56 946.19,172.36 958.94,190.12 C980.89,220.68 1002.18,251.67 1024.00,282.30" fill="none" stroke="black" stroke-width="10" />
<path d="M1019.30,276.49 C958.81,239.31 902.32,196.16 837.72,165.14 C761.79,128.68 677.46,118.54 597.39,95.05" fill="none" stroke="black" stroke-width="10" />
<line x1="595.92" y1="95.0525" x2="774.074" y2="1.18987" stroke="black" stroke-width="10" />
<line x1="774.074" y1="1.18987" x2="775.599" y2="0" stroke="black" stroke-width="10" />
<path d="M704.35,75.81 A682.89,753.20 0.22 0,0 32.53,283.33" fill="none" stroke="black" stroke-width="10" />
<line x1="30.7809" y1="284.287" x2="0.227177" y2="236.324" stroke="black" stroke-width="10" />
<path d="M0.00,236.01 A736.09,811.88 0.22 0,1 707.71,36.32" fill="none" stroke="black" stroke-width="10" />
<line x1="707.684" y1="36.6351" x2="704.465" y2="76.1111" stroke="black" stroke-width="10" />
</svg>