<?xml version="1.0" encoding="UTF-8" ?><!-- DOCTYPE svg PUBLIC "-//W3C//DTD SVG 1.1//EN" "http://www.w3.org/Graphics/SVG/1.1/DTD/svg11.dtd" -->
<svg viewBox="0,0,1024,258" preserveAspectRatio="xMidYMid" zoomAndPan="magnify" xmlns="http://www.w3.org/2000/svg" xmlns:xlink="http://www.w3.org/1999/xlink">
<g>
<path d="M0.25,208.55 A0.34,0.34 0.59 0,0 0.21,208.99" fill="none" stroke="black" stroke-width="10" />
<path d="M30.91,252.92 A0.34,0.34 0.59 0,1 30.40,252.87" fill="none" stroke="black" stroke-width="10" />
<path d="M777.25,0.00 C793.76,12.88 810.28,25.77 826.80,38.65 C860.17,64.68 887.68,97.40 917.00,128.00 C931.44,143.08 946.65,157.50 959.39,174.00 C980.93,201.90 1002.46,229.79 1024.00,257.69" fill="none" stroke="black" stroke-width="10" />
<path d="M1019.33,252.58 C958.93,218.43 901.81,176.33 838.14,150.14 C762.17,118.89 678.39,106.64 598.51,84.89" fill="none" stroke="black" stroke-width="10" />
<line x1="596.825" y1="84.8766" x2="775.883" y2="1.33592" stroke="black" stroke-width="10" />
<line x1="775.883" y1="1.33592" x2="777.247" y2="0" stroke="black" stroke-width="10" />
<path d="M705.40,68.33 A683.08,683.08 0.59 0,0 32.28,251.93" fill="none" stroke="black" stroke-width="10" />
<line x1="30.4647" y1="252.849" x2="0.204605" y2="209" stroke="black" stroke-width="10" />
<path d="M-0.00,208.79 A736.29,736.29 0.59 0,1 708.99,32.54" fill="none" stroke="black" stroke-width="10" />
<line x1="709.074" y1="32.7093" x2="705.33" y2="68.4452" stroke="black" stroke-width="10" />
</g>
</svg>