<?xml version="1.0" encoding="UTF-8" ?><!-- DOCTYPE svg PUBLIC "-//W3C//DTD SVG 1.1//EN" "http://www.w3.org/Graphics/SVG/1.1/DTD/svg11.dtd" -->
<svg viewBox="0,0,1024,722" preserveAspectRatio="xMidYMid" zoomAndPan="magnify" xmlns="http://www.w3.org/2000/svg" xmlns:xlink="http://www.w3.org/1999/xlink">
<g>
<g>
<g>
<line x1="452.347" y1="105.862" x2="567.023" y2="105.862" stroke="black" stroke-width="10" />
<polyline points="567.02,105.86,559.86,130.67,549.55,148.43,531.67,166.81,495.90,184.15" fill="none" stroke="black" stroke-width="10" />
<polyline points="495.90,184.15,522.96,184.02,549.94,194.64,567.59,211.72,575.86,238.19,575.86,265.20,566.74,291.28,547.97,309.68,522.36,317.59,495.35,317.04,469.46,308.21,452.35,290.58" fill="none" stroke="black" stroke-width="10" />
</g>
</g>
<g>
<g>
<polyline points="593.06,150.21,619.53,115.50,646.56,107.23,664.76,107.23,691.77,116.05,718.23,150.78" fill="none" stroke="black" stroke-width="10" />
<polyline points="718.23,150.78,726.50,195.44,725.91,230.72,718.23,275.38" fill="none" stroke="black" stroke-width="10" />
<polyline points="718.23,275.38,690.66,310.12,664.19,318.96,646.00,318.96,619.53,310.69,593.06,275.38" fill="none" stroke="black" stroke-width="10" />
<polyline points="593.06,275.38,585.47,230.72,585.47,194.90,593.06,150.21" fill="none" stroke="black" stroke-width="10" />
</g>
</g>
<path d="M53.17,315.94 A98.41,34.40 90.00 0,0 69.38,310.65" fill="none" stroke="black" stroke-width="10" />
<path d="M69.38,310.65 A107.10,37.43 90.00 0,0 86.73,277.31" fill="none" stroke="black" stroke-width="10" />
<line x1="99.678" y1="248.046" x2="99.678" y2="160.017" stroke="black" stroke-width="10" />
<path d="M99.68,160.02 A478.26,167.16 270.00 0,0 99.32,102.92" fill="none" stroke="black" stroke-width="10" />
<path d="M99.32,102.92 A60.10,21.00 270.00 0,0 94.01,64.71" fill="none" stroke="black" stroke-width="10" />
<path d="M94.01,64.71 A100.32,35.06 270.00 0,0 80.45,39.28" fill="none" stroke="black" stroke-width="10" />
<path d="M80.45,39.28 A153.87,53.78 270.00 0,0 58.84,31.75" fill="none" stroke="black" stroke-width="10" />
<path d="M58.84,31.75 A164.18,57.38 270.00 0,0 43.25,38.53" fill="none" stroke="black" stroke-width="10" />
<path d="M43.25,38.53 A184.06,64.33 270.00 0,0 33.50,49.83" fill="none" stroke="black" stroke-width="10" />
<path d="M33.50,49.83 A200.22,69.98 90.00 0,1 25.02,59.63" fill="none" stroke="black" stroke-width="10" />
<line x1="99.8227" y1="138.457" x2="64.2439" y2="145.195" stroke="black" stroke-width="10" />
<path d="M64.24,145.19 A854.79,298.77 270.00 0,0 53.53,147.71" fill="none" stroke="black" stroke-width="10" />
<path d="M53.53,147.71 A177.46,62.03 270.00 0,0 40.68,156.23" fill="none" stroke="black" stroke-width="10" />
<path d="M40.68,156.23 A89.27,31.20 270.00 0,0 27.39,180.41" fill="none" stroke="black" stroke-width="10" />
<path d="M27.39,180.41 A77.26,27.00 270.00 0,0 21.80,232.95" fill="none" stroke="black" stroke-width="10" />
<path d="M21.80,232.95 A77.49,27.08 270.00 0,0 27.02,280.49" fill="none" stroke="black" stroke-width="10" />
<path d="M27.02,280.49 A94.20,32.93 90.00 0,0 38.72,306.62" fill="none" stroke="black" stroke-width="10" />
<path d="M38.72,306.62 A129.77,45.36 90.00 0,0 53.17,315.94" fill="none" stroke="black" stroke-width="10" />
<line x1="53.1749" y1="315.945" x2="53.1749" y2="315.945" stroke="black" stroke-width="10" />
<polyline points="86.73,277.31,99.68,243.09" fill="none" stroke="black" stroke-width="10" />
<polyline points="99.68,248.05,101.86,284.27,104.02,296.55,106.91,306.66,109.80,313.89" fill="none" stroke="black" stroke-width="10" />
<g>
<line x1="120.659" y1="31.6311" x2="120.659" y2="311.56" stroke="black" stroke-width="10" />
<polyline points="176.23,69.73,176.23,311.72" fill="none" stroke="black" stroke-width="10" />
<polyline points="120.76,69.69,123.47,58.19,127.00,48.46,131.99,40.16,140.02,33.57,148.77,31.72,156.80,34.18,164.83,39.76,168.84,46.24,171.30,53.61,176.23,69.73,179.99,54.06,182.67,45.57,187.58,38.20,193.82,33.06,202.52,31.27,212.11,34.18,219.46,41.33,223.70,50.26,227.50,64.67,228.22,86.34,228.22,109.46,228.22,311.72" fill="none" stroke="black" stroke-width="10" />
</g>
<polyline points="434.72,106.09,334.74,652.85" fill="none" stroke="black" stroke-width="10" />
<polyline points="295.44,106.09,434.72,106.09" fill="none" stroke="black" stroke-width="10" />
<polyline points="737.64,381.54,822.79,381.54" fill="none" stroke="black" stroke-width="10" />
<polyline points="1024.00,290.53,1009.52,368.10,984.70,419.81,947.81,445.66,935.40,445.66,898.17,419.81,873.35,368.10,860.94,290.53,860.94,264.68,873.35,182.97,898.17,131.26,935.40,105.41,947.81,105.41,984.70,131.26,1009.52,182.97,1024.00,290.53,1024.00,419.81,1009.52,548.74,984.70,626.31,947.81,652.16,922.99,652.16,885.76,626.31,873.35,574.60" fill="none" stroke="black" stroke-width="10" />
<polyline points="46.54,384.30,51.02,395.68,51.02,722.14" fill="none" stroke="black" stroke-width="10" />
<polyline points="47.92,553.22,94.46,553.22,91.01,542.19" fill="none" stroke="black" stroke-width="10" />
<polyline points="0.00,711.11,4.48,719.39,105.15,719.39,102.04,713.87" fill="none" stroke="black" stroke-width="10" />
<polyline points="162.72,384.30,173.40,398.43,168.23,428.77,160.30,456.35,155.13,487.03,146.51,520.13,135.48,542.19" fill="none" stroke="black" stroke-width="10" />
<polyline points="162.72,448.08,168.23,461.87,228.91,461.87,226.49,442.56" fill="none" stroke="black" stroke-width="10" />
<polyline points="142.03,564.25,150.65,572.53,241.66,572.53,238.56,561.50" fill="none" stroke="black" stroke-width="10" />
<polyline points="195.12,461.87,195.12,722.14,193.05,713.87" fill="none" stroke="black" stroke-width="10" />
</g>
</svg>