<svg width="990" height="1065" viewBox="0 0 990 1065" fill="none" xmlns="http://www.w3.org/2000/svg">
<g clip-path="url(#clip0_0_1)">
<path d="M20 57.5C20 36.7893 36.7893 20 57.5 20H932.5C953.211 20 970 36.7893 970 57.5V1007.5C970 1028.21 953.211 1045 932.5 1045H57.5C36.7893 1045 20 1028.21 20 1007.5V57.5Z" fill="white"/>
<path d="M38.75 57.5C38.75 47.1446 47.1447 38.75 57.5 38.75H932.5C942.855 38.75 951.25 47.1446 951.25 57.5V1007.5C951.25 1017.86 942.855 1026.25 932.5 1026.25H57.5C47.1447 1026.25 38.75 1017.86 38.75 1007.5V57.5Z" fill="#0033A2"/>
<path d="M582.12 98.0504V87.0304H632.79V98.0504H613.51V157.35H601.4V98.0504" fill="white"/>
<path d="M672.416 111.635L672.976 112.735C674.41 114.515 675.326 116.351 675.726 118.245C675.846 119.038 675.936 119.781 675.996 120.475C676.063 121.161 676.096 121.765 676.096 122.285V146.515C677.223 148.755 678.873 150.101 681.046 150.555L680.686 151.105C680.56 151.325 680.436 151.448 680.316 151.475L680.136 152.025L679.766 152.395C679.46 153.068 679.093 153.618 678.666 154.045C678.233 155.178 677.68 156.035 677.006 156.615C676.733 157.228 676.473 157.758 676.226 158.205C675.986 158.645 675.76 159.035 675.546 159.375C671.966 158.455 669.15 156.801 667.096 154.415H666.546C662.6 157.261 658.53 158.685 654.336 158.685C652.07 158.685 649.836 158.301 647.636 157.535C641.056 155.181 637.08 150.898 635.706 144.685V144.455C635.706 132.615 642.636 126.695 656.496 126.695H656.636C656.91 126.568 657.213 126.505 657.546 126.505L658.096 126.325H659.386L659.936 126.145H660.486L665.076 125.595C665.136 125.255 665.166 124.948 665.166 124.675V123.755C665.166 118.641 662.46 116.085 657.046 116.085C653.28 116.085 648.123 117.355 641.576 119.895L640.846 118.245L640.476 117.145L640.106 116.775L639.926 116.415L639.556 115.305C639.223 114.758 638.98 114.208 638.826 113.655C638.18 112.801 637.75 111.945 637.536 111.085L638.086 110.905L638.456 110.715L639.006 110.535L639.376 110.165H639.926C640.046 110.045 640.153 109.985 640.246 109.985H640.296C641.396 109.405 642.373 108.975 643.226 108.695L644.146 108.515C644.82 108.208 645.433 108.025 645.986 107.965L647.456 107.595C648.523 107.168 649.563 106.925 650.576 106.865L654.616 106.125C655.223 106.065 655.81 106.011 656.376 105.965C656.943 105.918 657.503 105.895 658.056 105.895C663.896 105.895 668.683 107.808 672.416 111.635ZM660.666 134.955H659.566C659.293 135.015 659.026 135.061 658.766 135.095C658.506 135.121 658.253 135.135 658.006 135.135H657.736L656.996 135.325H656.446C656.293 135.445 656.11 135.505 655.896 135.505H655.346L652.406 136.235H651.856C651.003 136.728 650.27 137.035 649.656 137.155C647.67 139.055 646.676 140.891 646.676 142.665C646.676 144.285 647.486 145.875 649.106 147.435C651.46 148.875 653.753 149.595 655.986 149.595C658.833 149.595 661.556 148.448 664.156 146.155C664.403 145.448 664.65 144.958 664.896 144.685L665.076 144.135L664.896 143.395V134.765H661.226C661.073 134.891 660.886 134.955 660.666 134.955Z" fill="white"/>
<path d="M692.033 157.531V107.411H703.233V157.531H692.033ZM704.333 92.7212V93.3212C704.333 95.8612 703.536 97.9245 701.943 99.5112C700.263 100.338 698.716 100.751 697.303 100.751C694.856 100.751 692.916 99.4212 691.483 96.7612C691.203 95.6878 691.063 94.7412 691.063 93.9212C691.063 90.7945 692.793 88.6812 696.253 87.5812H696.713C700.599 87.5812 703.139 89.2945 704.333 92.7212Z" fill="white"/>
<path d="M743.292 87.584V87.214H755.962L756.142 88.504L756.332 89.054L756.692 90.344L757.062 92.544L757.612 94.374L757.982 96.584L758.532 98.414L758.712 99.884C758.925 100.404 759.049 100.834 759.082 101.174L759.262 101.904L759.632 103.004V103.744C759.752 103.837 759.812 103.927 759.812 104.014V104.664C760.152 105.337 760.339 106.071 760.372 106.864L760.732 107.964L761.102 109.254L761.472 111.454L762.022 113.284L762.202 114.394L763.302 118.984C763.395 119.411 763.482 119.801 763.562 120.154C763.635 120.501 763.672 120.844 763.672 121.184L764.042 121.914V122.654L764.402 123.574V124.304L764.772 125.034V125.774C765.112 126.694 765.295 127.491 765.322 128.164L765.512 128.894C765.725 129.507 765.892 130.074 766.012 130.594C766.132 131.114 766.209 131.587 766.242 132.014L766.612 133.484L766.982 134.764L767.342 133.664L768.082 129.994L768.442 129.074L768.632 127.974L769.182 125.404L769.552 124.124V123.574L770.282 120.634L770.462 119.534L770.832 118.794L771.012 118.064L771.202 117.144V116.414L771.382 115.854L772.122 112.924L772.482 110.714L772.672 109.984L773.032 109.254C773.099 108.274 773.282 107.414 773.582 106.674L773.772 105.764V105.214L774.142 103.744L774.322 103.194L774.872 100.804L775.052 99.704L775.422 98.604L775.602 97.684L776.152 95.294L776.342 94.374L776.522 94.014C776.555 93.674 776.595 93.344 776.642 93.024C776.689 92.704 776.772 92.4207 776.892 92.174L777.072 91.624V91.074L777.262 90.344L777.442 89.784L777.992 87.214H791.582V87.764C792.009 88.8373 792.252 89.8807 792.312 90.894L792.682 92.354L792.862 92.914L793.602 96.214L793.962 97.684C794.209 98.5707 794.332 99.304 794.332 99.884C794.545 100.404 794.669 100.834 794.702 101.174L795.062 102.454L795.252 103.744L795.432 104.474L795.622 105.024C795.709 105.424 795.785 105.784 795.852 106.104C795.912 106.424 795.955 106.737 795.982 107.044C796.229 107.624 796.399 108.161 796.492 108.654C796.585 109.141 796.662 109.584 796.722 109.984L796.902 111.084L797.272 112.004L797.452 113.104V113.654C797.759 114.387 797.942 115.061 798.002 115.674L798.192 116.774C798.492 117.507 798.675 118.181 798.742 118.794L798.922 119.714L799.472 121.734V122.464C799.592 122.744 799.652 123.051 799.652 123.384C799.992 124.091 800.179 124.704 800.212 125.224L800.392 126.144L800.572 127.244L800.762 127.974C801.069 128.921 801.252 129.777 801.312 130.544C801.432 130.637 801.492 130.731 801.492 130.824V131.464C801.919 132.537 802.165 133.577 802.232 134.584C802.412 134.524 802.532 134.401 802.592 134.214C802.745 133.454 802.899 132.791 803.052 132.224C803.205 131.657 803.359 131.161 803.512 130.734V129.994C803.912 128.894 804.155 127.914 804.242 127.054L804.612 125.774L805.352 122.834L805.532 121.364L805.902 120.084L806.082 119.534V118.984C806.295 118.397 806.465 117.867 806.592 117.394C806.712 116.921 806.785 116.471 806.812 116.044L807.182 114.754L808.652 108.694L809.202 105.764L809.572 104.294C809.905 103.407 810.089 102.674 810.122 102.094L810.302 101.174L810.672 99.704C810.945 98.8173 811.129 98.084 811.222 97.504L811.402 96.764L811.962 94.194L812.322 93.094V92.544L812.872 91.074V90.344L813.062 89.784L813.612 87.214H826.092L825.362 90.894L824.812 93.094L824.622 93.644L824.072 96.214L823.712 97.684L823.342 98.964L822.602 102.644L822.242 103.924L821.502 107.414L821.142 108.694L820.952 109.254L820.582 111.264L820.402 111.634L820.222 112.924C819.915 113.931 819.732 114.787 819.672 115.494L818.932 117.694L818.752 118.984L818.562 119.714L818.382 120.264L818.202 121.554L818.012 122.104L816.912 126.694L816.732 127.974L816.362 129.264L815.442 132.934L815.262 134.214L814.162 138.804L813.612 141.374C813.272 142.294 813.089 143.091 813.062 143.764L812.322 146.154V146.884C811.989 147.804 811.805 148.601 811.772 149.274C811.465 150.281 811.282 151.137 811.222 151.844L810.852 153.124L810.672 153.494L810.492 154.784C810.185 155.791 810.002 156.647 809.942 157.354H796.352L796.172 155.884C795.959 155.364 795.835 154.934 795.802 154.594L795.432 153.124L795.252 151.844L794.882 150.554C794.789 150.187 794.712 149.837 794.652 149.504C794.592 149.164 794.545 148.841 794.512 148.534L794.332 147.804L794.152 146.884C794.025 146.731 793.962 146.547 793.962 146.334L793.782 145.414L793.602 144.864C793.509 144.471 793.432 144.111 793.372 143.784C793.305 143.464 793.259 143.151 793.232 142.844C793.019 142.264 792.859 141.731 792.752 141.244C792.645 140.751 792.559 140.307 792.492 139.914L792.312 139.174L792.132 138.254C792.005 137.887 791.919 137.537 791.872 137.204C791.832 136.864 791.795 136.541 791.762 136.234C791.549 135.627 791.382 135.047 791.262 134.494C791.135 133.941 791.059 133.421 791.032 132.934C790.905 132.781 790.842 132.597 790.842 132.384L790.662 131.644L790.482 131.094C790.389 130.454 790.265 129.844 790.112 129.264L789.742 127.604L789.562 126.504L789.192 125.594L788.822 123.384L788.642 122.834V122.284C788.335 121.551 788.152 120.877 788.092 120.264L787.722 118.064L787.352 117.144L786.992 115.674V114.944C786.625 113.931 786.442 113.074 786.442 112.374C786.315 112.221 786.252 112.037 786.252 111.824L786.072 111.264V110.714C785.765 110.014 785.582 109.281 785.522 108.514C785.215 107.534 785.032 106.617 784.972 105.764L784.602 106.494L784.422 107.594L783.872 109.984L783.502 112.004L783.312 112.554L782.582 115.674L782.402 116.414L782.032 118.244L781.852 118.984L781.482 121.004L781.302 121.554L780.562 125.034L780.192 126.324L780.012 127.604C779.679 128.524 779.495 129.321 779.462 129.994L779.282 130.364L779.092 131.464L778.912 132.014L777.992 136.604L777.812 137.154L777.072 140.644L776.892 141.374L776.712 142.294L776.522 142.844L775.792 146.334L775.422 147.804L775.052 149.644L774.872 150.004L774.502 151.664L774.322 152.394L774.142 153.674C773.922 154.441 773.799 155.054 773.772 155.514C773.645 155.821 773.562 156.111 773.522 156.384C773.475 156.664 773.435 156.924 773.402 157.164C772.975 157.231 772.585 157.284 772.232 157.324C771.879 157.371 771.535 157.394 771.202 157.394H770.742C770.589 157.394 770.435 157.381 770.282 157.354H759.632V156.614C759.205 155.514 758.962 154.474 758.902 153.494C758.775 153.341 758.712 153.157 758.712 152.944L758.532 152.024C757.859 149.851 757.429 148.014 757.242 146.514L757.062 145.964L756.142 142.484L755.962 141.014L754.492 135.324V134.584C754.185 133.884 754.002 133.151 753.942 132.384L753.572 131.284L753.212 129.994V129.444L752.292 125.774V125.224L752.102 124.484L751.742 123.754L751.552 122.284C751.312 121.551 751.115 120.877 750.962 120.264C750.809 119.651 750.702 119.101 750.642 118.614L750.452 118.064V117.514C750.332 117.361 750.272 117.177 750.272 116.964L749.902 115.494L749.722 114.944C749.595 114.297 749.479 113.714 749.372 113.194C749.265 112.674 749.135 112.217 748.982 111.824L748.802 110.534C748.589 109.921 748.419 109.354 748.292 108.834C748.172 108.314 748.095 107.841 748.062 107.414L747.882 106.494C747.762 106.341 747.702 106.157 747.702 105.944L746.782 102.274L746.412 100.984L746.232 100.074L746.052 99.334L745.862 98.054C745.615 97.4073 745.492 96.854 745.492 96.394V96.214L745.132 95.294L744.942 94.564C744.822 93.6773 744.639 92.9407 744.392 92.354V91.624C744.272 91.4707 744.212 91.2873 744.212 91.074" fill="white"/>
<path d="M869.666 111.635L870.226 112.735C871.659 114.515 872.576 116.351 872.976 118.245C873.096 119.038 873.186 119.781 873.246 120.475C873.313 121.161 873.346 121.765 873.346 122.285V146.515C874.473 148.755 876.123 150.101 878.296 150.555L877.936 151.105C877.809 151.325 877.686 151.448 877.566 151.475L877.386 152.025L877.016 152.395C876.709 153.068 876.343 153.618 875.916 154.045C875.483 155.178 874.929 156.035 874.256 156.615C873.983 157.228 873.723 157.758 873.476 158.205C873.236 158.645 873.009 159.035 872.796 159.375C869.216 158.455 866.399 156.801 864.346 154.415H863.796C859.849 157.261 855.779 158.685 851.586 158.685C849.319 158.685 847.086 158.301 844.886 157.535C838.306 155.181 834.329 150.898 832.956 144.685V144.455C832.956 132.615 839.886 126.695 853.746 126.695H853.886C854.159 126.568 854.463 126.505 854.796 126.505L855.346 126.325H856.636L857.186 126.145H857.736L862.326 125.595C862.386 125.255 862.416 124.948 862.416 124.675V123.755C862.416 118.641 859.709 116.085 854.296 116.085C850.529 116.085 845.373 117.355 838.826 119.895L838.096 118.245L837.726 117.145L837.356 116.775L837.176 116.415L836.806 115.305C836.473 114.758 836.229 114.208 836.076 113.655C835.429 112.801 834.999 111.945 834.786 111.085L835.336 110.905L835.706 110.715L836.256 110.535L836.626 110.165H837.176C837.296 110.045 837.403 109.985 837.496 109.985H837.546C838.646 109.405 839.623 108.975 840.476 108.695L841.396 108.515C842.069 108.208 842.683 108.025 843.236 107.965L844.706 107.595C845.773 107.168 846.813 106.925 847.826 106.865L851.866 106.125C852.473 106.065 853.059 106.011 853.626 105.965C854.193 105.918 854.753 105.895 855.306 105.895C861.146 105.895 865.933 107.808 869.666 111.635ZM857.916 134.955H856.816C856.543 135.015 856.276 135.061 856.016 135.095C855.756 135.121 855.503 135.135 855.256 135.135H854.986L854.246 135.325H853.696C853.543 135.445 853.359 135.505 853.146 135.505H852.596L849.656 136.235H849.106C848.253 136.728 847.519 137.035 846.906 137.155C844.919 139.055 843.926 140.891 843.926 142.665C843.926 144.285 844.736 145.875 846.356 147.435C848.709 148.875 851.003 149.595 853.236 149.595C856.083 149.595 858.806 148.448 861.406 146.155C861.653 145.448 861.899 144.958 862.146 144.685L862.326 144.135L862.146 143.395V134.765H858.476C858.323 134.891 858.136 134.955 857.916 134.955Z" fill="white"/>
<path d="M891.033 157.531V107.411H902.233V157.531H891.033ZM903.333 92.7212V93.3212C903.333 95.8612 902.536 97.9245 900.943 99.5112C899.263 100.338 897.716 100.751 896.303 100.751C893.856 100.751 891.916 99.4212 890.483 96.7612C890.203 95.6878 890.063 94.7412 890.063 93.9212C890.063 90.7945 891.793 88.6812 895.253 87.5812H895.713C899.599 87.5812 902.139 89.2945 903.333 92.7212Z" fill="white"/>
<path d="M632.101 81H581.601V179H632.101V81Z" stroke="white" stroke-width="2" stroke-dasharray="5 5"/>
<path d="M684.101 81H634.101V179H684.101V81Z" stroke="white" stroke-width="2" stroke-dasharray="5 5"/>
<path d="M711.101 81H686.101V179H711.101V81Z" stroke="white" stroke-width="2" stroke-dasharray="5 5"/>
<path d="M736.101 81H713.101V179H736.101V81Z" stroke="white" stroke-width="2" stroke-dasharray="5 5"/>
<path d="M827.601 81H738.101V179H827.601V81Z" stroke="white" stroke-width="2" stroke-dasharray="5 5"/>
<path d="M883.101 81H829.601V179H883.101V81Z" stroke="white" stroke-width="2" stroke-dasharray="5 5"/>
<path d="M910.101 81H885.101V179H910.101V81Z" stroke="white" stroke-width="2" stroke-dasharray="5 5"/>
<path d="M123.062 837.165V828.055H176.052V837.165H123.062ZM116.202 855.275V846.385H183.472V855.275H116.202ZM100.782 874.175V864.955H198.662V874.175H100.782ZM114.622 812.075V803.525H153.772V812.075H114.622ZM144.662 809.265V803.525H156.252C158.652 806.599 161.559 809.579 164.972 812.465C168.385 815.359 172.152 818.042 176.272 820.515C180.399 822.989 184.712 825.202 189.212 827.155C193.712 829.102 198.249 830.752 202.822 832.105C202.002 832.705 201.065 833.492 200.012 834.465C198.965 835.439 197.952 836.452 196.972 837.505C195.999 838.552 195.212 839.525 194.612 840.425C188.612 838.252 182.689 835.552 176.842 832.325C170.989 829.099 165.569 825.519 160.582 821.585C155.595 817.645 151.302 813.539 147.702 809.265H144.662ZM142.192 804.655L151.862 808.365C148.189 813.312 143.725 817.885 138.472 822.085C133.225 826.285 127.619 829.999 121.652 833.225C115.692 836.452 109.675 839.265 103.602 841.665C103.075 840.912 102.362 840.012 101.462 838.965C100.562 837.912 99.6253 836.879 98.652 835.865C97.6787 834.859 96.8153 834.055 96.062 833.455C102.215 831.575 108.215 829.212 114.062 826.365C119.915 823.512 125.259 820.249 130.092 816.575C134.932 812.902 138.965 808.929 142.192 804.655ZM143.992 871.365V832.215H154.902V871.365H143.992ZM100.002 791.935V782.155H199.452V791.935H100.002ZM123.962 801.275V773.605H134.542V801.275H123.962ZM164.242 801.835V773.605H174.812V801.835" fill="white"/>
<path d="M286.327 781.368V775.858H306.007V781.368H286.327ZM285.647 799.708V794.308H306.797V799.708H285.647ZM285.647 808.138V802.858H306.797V808.138H285.647ZM269.227 861.468V854.608H326.257V861.468H269.227ZM282.387 790.818V784.858H309.387V790.818H282.387ZM300.047 817.028H292.057V823.438H300.047V817.028ZM285.417 828.618V811.858H306.907V828.618H285.417ZM271.137 849.878V843.468H317.817V838.628H264.157V832.218H327.727V849.878H271.137ZM267.307 830.188V804.658H274.397V830.188H267.307ZM257.077 808.588L256.287 801.728C259.587 801.581 263.28 801.431 267.367 801.278C271.454 801.131 275.784 800.945 280.357 800.718V806.908C276.157 807.281 272.09 807.581 268.157 807.808C264.217 808.028 260.524 808.288 257.077 808.588ZM268.097 843.468H277.997C277.097 847.068 276.124 850.818 275.077 854.718C274.024 858.618 273.047 861.991 272.147 864.838L262.587 863.488C263.634 860.715 264.647 857.508 265.627 853.868C266.6 850.235 267.424 846.768 268.097 843.468ZM322.887 855.728V854.608H332.897C332.897 854.608 332.86 855.111 332.787 856.118C332.714 857.131 332.564 857.978 332.337 858.658C331.284 863.305 330.194 866.958 329.067 869.618C327.947 872.285 326.637 874.218 325.137 875.418C323.864 876.318 322.494 876.935 321.027 877.268C319.567 877.608 317.824 877.815 315.797 877.888C314.07 877.968 311.614 877.988 308.427 877.948C305.24 877.908 301.847 877.815 298.247 877.668C298.174 876.468 297.874 875.118 297.347 873.618C296.82 872.118 296.184 870.768 295.437 869.568C298.964 869.941 302.377 870.165 305.677 870.238C308.977 870.318 311.3 870.358 312.647 870.358C313.847 870.358 314.82 870.318 315.567 870.238C316.32 870.165 316.96 869.941 317.487 869.568C318.534 868.741 319.49 867.258 320.357 865.118C321.217 862.985 322.06 859.855 322.887 855.728ZM275.747 812.638L281.147 811.408C281.747 813.281 282.327 815.341 282.887 817.588C283.454 819.841 283.887 821.791 284.187 823.438L278.337 825.018C278.184 823.291 277.864 821.285 277.377 818.998C276.89 816.711 276.347 814.591 275.747 812.638ZM275.407 797.338L280.247 795.538C281.22 797.418 282.12 799.518 282.947 801.838C283.774 804.165 284.337 806.191 284.637 807.918L279.347 809.938C279.12 808.218 278.634 806.195 277.887 803.868C277.134 801.541 276.307 799.365 275.407 797.338ZM257.407 788.458L261.007 783.058C263.187 784.478 265.324 786.108 267.417 787.948C269.524 789.788 271.1 791.381 272.147 792.728L268.097 798.918C266.97 797.345 265.397 795.581 263.377 793.628C261.35 791.681 259.36 789.958 257.407 788.458ZM268.097 773.268L274.507 776.418C273.007 778.891 271.507 781.405 270.007 783.958C268.507 786.505 267.084 788.641 265.737 790.368L260.787 787.778C261.987 785.831 263.3 783.451 264.727 780.638C266.147 777.825 267.27 775.368 268.097 773.268ZM275.297 782.608L281.597 786.208C279.124 789.581 276.48 793.141 273.667 796.888C270.854 800.641 268.21 803.791 265.737 806.338L261.007 803.418C262.587 801.545 264.277 799.408 266.077 797.008C267.877 794.608 269.58 792.131 271.187 789.578C272.8 787.031 274.17 784.708 275.297 782.608ZM259.887 810.958L266.527 812.418C265.847 815.345 265.02 818.268 264.047 821.188C263.074 824.115 262.024 826.628 260.897 828.728C260.224 828.281 259.247 827.775 257.967 827.208C256.694 826.648 255.647 826.181 254.827 825.808C256.1 823.708 257.147 821.361 257.967 818.768C258.794 816.181 259.434 813.578 259.887 810.958ZM319.287 830.188V804.658H326.487V830.188H319.287ZM308.937 808.588L308.257 801.728C311.71 801.581 315.594 801.431 319.907 801.278C324.22 801.131 328.814 800.981 333.687 800.828L333.567 807.018C329.147 807.318 324.854 807.598 320.687 807.858C316.527 808.125 312.61 808.368 308.937 808.588ZM328.057 812.638L333.797 810.958C334.77 813.205 335.727 815.678 336.667 818.378C337.6 821.078 338.257 823.405 338.637 825.358L332.677 827.268C332.377 825.315 331.777 822.951 330.877 820.178C329.977 817.405 329.037 814.891 328.057 812.638ZM327.157 797.118L332.447 794.758C333.72 796.705 334.9 798.858 335.987 801.218C337.08 803.585 337.85 805.668 338.297 807.468L332.557 810.058C332.184 808.258 331.49 806.138 330.477 803.698C329.464 801.258 328.357 799.065 327.157 797.118ZM308.487 788.228L312.307 783.168C314.26 784.515 316.21 786.071 318.157 787.838C320.11 789.598 321.61 791.191 322.657 792.618L318.277 798.468C317.297 796.968 315.89 795.241 314.057 793.288C312.217 791.341 310.36 789.655 308.487 788.228ZM319.507 773.378L325.927 776.638C324.347 779.118 322.77 781.611 321.197 784.118C319.624 786.631 318.124 788.788 316.697 790.588L311.747 788.008C313.02 786.055 314.407 783.671 315.907 780.858C317.407 778.045 318.607 775.551 319.507 773.378ZM327.497 782.158L333.797 785.758C331.25 789.131 328.477 792.691 325.477 796.438C322.477 800.191 319.627 803.341 316.927 805.888L312.307 802.968C314.034 801.095 315.834 798.958 317.707 796.558C319.587 794.158 321.387 791.681 323.107 789.128C324.834 786.581 326.297 784.258 327.497 782.158ZM311.747 810.958L318.277 812.528C317.75 815.301 317 818.131 316.027 821.018C315.047 823.911 313.997 826.368 312.877 828.388C312.277 828.015 311.377 827.508 310.177 826.868C308.977 826.235 307.927 825.731 307.027 825.358C308.22 823.258 309.194 820.968 309.947 818.488C310.694 816.015 311.294 813.505 311.747 810.958ZM235.247 782.038L241.437 775.068C243.31 776.041 245.277 777.221 247.337 778.608C249.404 779.995 251.337 781.381 253.137 782.768C254.937 784.161 256.4 785.495 257.527 786.768L251.107 794.638C250.06 793.365 248.654 791.978 246.887 790.478C245.127 788.978 243.234 787.498 241.207 786.038C239.187 784.571 237.2 783.238 235.247 782.038ZM232.887 812.078L238.737 804.768C240.684 805.668 242.727 806.775 244.867 808.088C247.007 809.401 248.994 810.711 250.827 812.018C252.667 813.331 254.187 814.588 255.387 815.788L249.197 823.888C248.07 822.688 246.59 821.378 244.757 819.958C242.917 818.531 240.947 817.125 238.847 815.738C236.747 814.351 234.76 813.131 232.887 812.078ZM244.697 876.658L235.137 871.258C236.564 868.258 238.08 864.768 239.687 860.788C241.3 856.815 242.95 852.615 244.637 848.188C246.33 843.768 247.887 839.418 249.307 835.138L257.747 840.538C256.547 844.518 255.197 848.608 253.697 852.808C252.197 857.008 250.697 861.131 249.197 865.178C247.697 869.231 246.197 873.058 244.697 876.658Z" fill="white"/>
<path d="M215.4 766.5H79.8995V907H215.4V766.5Z" stroke="white" stroke-width="2" stroke-dasharray="5 5"/>
<path d="M352.9 766.5H217.4V907H352.9V766.5Z" stroke="white" stroke-width="2" stroke-dasharray="5 5"/>
<path d="M708.351 997.5V777.116C708.351 771.695 704.855 766.891 699.697 765.223C729.701 774.925 762 774.925 792.004 765.223C786.846 766.891 783.35 771.695 783.351 777.116V997.5H708.351Z" fill="white"/>
<path d="M745.851 472.5C799.44 472.5 848.959 501.09 875.754 547.5C902.549 593.91 902.549 651.09 875.754 697.5L821.628 666.25C843.583 628.223 833.954 579.813 799.117 553.082C764.281 526.351 715.028 529.579 683.979 560.628C652.93 591.678 649.701 640.931 676.432 675.767C703.163 710.603 751.573 720.233 789.601 698.278L820.851 752.404C774.44 779.199 717.261 779.199 670.851 752.404C624.44 725.609 595.851 676.09 595.851 622.5C595.851 539.657 663.008 472.5 745.851 472.5Z" fill="white"/>
<path d="M628.101 230.515V219.485H727.551V230.515H628.101ZM673.441 226.465L684.121 223.875C686.527 232.729 689.774 240.979 693.861 248.625C697.947 256.279 702.971 262.972 708.931 268.705C714.897 274.445 721.817 278.965 729.691 282.265C728.791 283.012 727.834 283.985 726.821 285.185C725.807 286.385 724.851 287.605 723.951 288.845C723.051 290.085 722.301 291.192 721.701 292.165C713.374 288.265 706.117 283.109 699.931 276.695C693.744 270.282 688.514 262.839 684.241 254.365C679.967 245.892 676.367 236.592 673.441 226.465ZM671.751 188.105H683.341C683.341 193.425 683.207 199.142 682.941 205.255C682.681 211.369 682.101 217.652 681.201 224.105C680.301 230.552 678.837 237.002 676.811 243.455C674.791 249.902 671.977 256.125 668.371 262.125C664.777 268.125 660.167 273.695 654.541 278.835C648.914 283.969 642.051 288.449 633.951 292.275C633.051 290.849 631.851 289.292 630.351 287.605C628.851 285.919 627.351 284.512 625.851 283.385C633.651 279.865 640.231 275.759 645.591 271.065C650.957 266.379 655.307 261.279 658.641 255.765C661.981 250.259 664.551 244.542 666.351 238.615C668.151 232.689 669.427 226.762 670.181 220.835C670.927 214.915 671.377 209.179 671.531 203.625C671.677 198.079 671.751 192.905 671.751 188.105Z" fill="white"/>
<path d="M783.493 226.128V220.058H846.833V226.128H783.493ZM784.053 268.658V262.468H846.943V268.658H784.053ZM814.763 276.078V244.918H824.333V276.078H814.763ZM830.293 235.128H799.583V241.318H830.293V235.128ZM790.583 246.378V229.838H839.743V246.378H790.583ZM806.553 202.728L815.443 203.858C814.616 206.931 813.676 210.191 812.623 213.638C811.576 217.091 810.603 220.054 809.703 222.528H800.363C801.416 219.828 802.503 216.641 803.623 212.968C804.75 209.294 805.726 205.881 806.553 202.728ZM790.013 214.538V208.808H837.153V223.318H828.263V214.538H790.013ZM767.513 292.618V192.718H862.693V292.618H852.233V202.388H777.643V292.618H767.513ZM773.933 288.118V278.438H857.853V288.118H773.933ZM791.933 266.858V250.538H842.103V256.618H800.253V266.858" fill="white"/>
<path d="M744.851 181H609.351V321.5H744.851V181Z" stroke="white" stroke-width="2" stroke-dasharray="5 5"/>
<path d="M882.351 181H746.851V321.5H882.351V181Z" stroke="white" stroke-width="2" stroke-dasharray="5 5"/>
<path d="M745.851 322.5L770.851 347.5V464.386C770.851 470.178 774.83 475.212 780.466 476.549C757.705 471.15 733.996 471.15 711.235 476.549C716.871 475.212 720.851 470.178 720.851 464.386V347.5L745.851 322.5Z" fill="white"/>
<path d="M445.851 622.5L470.851 597.5H587.737C593.529 597.5 598.563 593.521 599.899 587.885C594.501 610.646 594.501 634.354 599.899 657.115C598.563 651.479 593.529 647.5 587.737 647.5H470.851L445.851 622.5Z" fill="white"/>
<path d="M80.4189 683.551V672.531H131.089V683.551H111.809V742.851H99.6989V683.551" fill="white"/>
<path d="M173.808 698.777L173.258 699.517L172.708 700.067L172.158 700.437L171.418 701.537L171.058 701.907L170.688 702.087C170.288 702.64 169.921 703.067 169.588 703.367L167.198 706.127C162.118 702.854 157.911 701.217 154.578 701.217C151.151 701.217 148.628 702.914 147.008 706.307C147.068 708.3 147.861 709.77 149.388 710.717C150.061 710.897 150.551 711.08 150.858 711.267C152.051 711.447 153.031 711.69 153.798 711.997C165.391 712.857 171.878 717.51 173.258 725.957C173.318 726.324 173.348 726.68 173.348 727.027C173.348 727.38 173.348 727.727 173.348 728.067C173.348 734.214 170.748 738.834 165.548 741.927C161.815 743.607 158.065 744.447 154.298 744.447C147.138 744.447 139.995 741.404 132.868 735.317L133.238 734.587L134.148 733.667C134.761 732.934 135.315 732.38 135.808 732.007C135.928 731.794 136.048 731.674 136.168 731.647L136.538 731.097C136.658 730.884 136.781 730.76 136.908 730.727L137.088 730.357L137.458 730.177L139.848 727.417C144.375 731.704 149.115 733.847 154.068 733.847C156.148 733.847 158.261 733.48 160.408 732.747C160.955 732.014 161.505 731.464 162.058 731.097C162.245 730.364 162.338 729.674 162.338 729.027C162.338 727.434 161.818 726.104 160.778 725.037L156.548 723.567C143.941 722.8 137.088 717.414 135.988 707.407C136.815 697.34 142.505 691.957 153.058 691.257H153.708C161.815 691.257 168.515 693.764 173.808 698.777Z" fill="white"/>
<path d="M186.186 728.526V692.726H197.206V724.486C197.326 724.639 197.386 724.822 197.386 725.036C197.513 725.129 197.576 725.219 197.576 725.306V725.406C197.79 726.779 198.093 728.002 198.486 729.076C200.6 732.009 203.31 733.476 206.616 733.476H206.756C210.856 732.376 213.73 730.112 215.376 726.686V726.136L216.116 723.936V692.726H227.316V742.846H216.116V738.806C211.71 742.412 207.32 744.216 202.946 744.216C199.546 744.216 196.103 743.146 192.616 741.006C189.77 738.832 187.81 736.262 186.736 733.296L186.556 732.006C186.283 731.119 186.146 730.249 186.146 729.396V728.986C186.146 728.832 186.16 728.679 186.186 728.526Z" fill="white"/>
<path d="M285.735 713.294L285.915 716.044C286.035 716.198 286.095 716.381 286.095 716.594V722.104H252.505C253.205 728.344 256.385 732.018 262.045 733.124C262.965 733.211 263.869 733.254 264.755 733.254C269.375 733.254 273.309 731.741 276.555 728.714C276.949 729.388 277.439 729.938 278.025 730.364L278.205 730.914L278.755 731.464C279.182 731.864 279.549 732.241 279.855 732.594C280.162 732.948 280.409 733.308 280.595 733.674C280.809 733.794 280.929 733.914 280.955 734.034L283.525 736.974C277.712 741.841 271.515 744.274 264.935 744.274C263.809 744.274 262.662 744.198 261.495 744.044C260.335 743.891 259.172 743.678 258.005 743.404C247.419 739.884 241.605 732.294 240.565 720.634C240.565 720.481 240.559 720.174 240.545 719.714C240.532 719.261 240.525 718.971 240.525 718.844C240.525 702.904 247.699 693.831 262.045 691.624C276.305 692.118 284.202 699.341 285.735 713.294ZM252.315 713.474H274.535V712.924C274.409 712.558 274.345 712.191 274.345 711.824V711.454C274.039 710.781 273.855 710.171 273.795 709.624C271.535 704.391 267.802 701.758 262.595 701.724C256.049 703.284 252.622 707.201 252.315 713.474Z" fill="white"/>
<path d="M338.95 701.537V702.087C339.35 702.82 339.596 703.554 339.69 704.287V742.657H328.49V710.167L328.3 709.067C326.773 704.44 324.203 702.127 320.59 702.127C319.49 702.127 318.266 702.357 316.92 702.817C313.86 704.137 311.656 706.22 310.31 709.067L309.58 712.187V742.657H298.56V692.537H309.58V696.757C313.006 693.697 316.74 691.864 320.78 691.257H321.6C329.8 691.257 335.583 694.684 338.95 701.537Z" fill="white"/>
<path d="M378.091 673.084V672.714H390.761L390.941 674.004L391.131 674.554L391.491 675.844L391.861 678.044L392.411 679.874L392.781 682.084L393.331 683.914L393.511 685.384C393.724 685.904 393.847 686.334 393.881 686.674L394.061 687.404L394.431 688.504V689.244C394.551 689.337 394.611 689.427 394.611 689.514V690.164C394.951 690.837 395.137 691.571 395.171 692.364L395.531 693.464L395.901 694.754L396.271 696.954L396.821 698.784L397.001 699.894L398.101 704.484C398.194 704.911 398.281 705.301 398.361 705.654C398.434 706.001 398.471 706.344 398.471 706.684L398.841 707.414V708.154L399.201 709.074V709.804L399.571 710.534V711.274C399.911 712.194 400.094 712.991 400.121 713.664L400.311 714.394C400.524 715.007 400.691 715.574 400.811 716.094C400.931 716.614 401.007 717.087 401.041 717.514L401.411 718.984L401.781 720.264L402.141 719.164L402.881 715.494L403.241 714.574L403.431 713.474L403.981 710.904L404.351 709.624V709.074L405.081 706.134L405.261 705.034L405.631 704.294L405.811 703.564L406.001 702.644V701.914L406.181 701.354L406.921 698.424L407.281 696.214L407.471 695.484L407.831 694.754C407.897 693.774 408.081 692.914 408.381 692.174L408.571 691.264V690.714L408.941 689.244L409.121 688.694L409.671 686.304L409.851 685.204L410.221 684.104L410.401 683.184L410.951 680.794L411.141 679.874L411.321 679.514C411.354 679.174 411.394 678.844 411.441 678.524C411.487 678.204 411.571 677.921 411.691 677.674L411.871 677.124V676.574L412.061 675.844L412.241 675.284L412.791 672.714H426.381V673.264C426.807 674.337 427.051 675.381 427.111 676.394L427.481 677.854L427.661 678.414L428.401 681.714L428.761 683.184C429.007 684.071 429.131 684.804 429.131 685.384C429.344 685.904 429.467 686.334 429.501 686.674L429.861 687.954L430.051 689.244L430.231 689.974L430.421 690.524C430.507 690.924 430.584 691.284 430.651 691.604C430.711 691.924 430.754 692.237 430.781 692.544C431.027 693.124 431.197 693.661 431.291 694.154C431.384 694.641 431.461 695.084 431.521 695.484L431.701 696.584L432.071 697.504L432.251 698.604V699.154C432.557 699.887 432.741 700.561 432.801 701.174L432.991 702.274C433.291 703.007 433.474 703.681 433.541 704.294L433.721 705.214L434.271 707.234V707.964C434.391 708.244 434.451 708.551 434.451 708.884C434.791 709.591 434.977 710.204 435.011 710.724L435.191 711.644L435.371 712.744L435.561 713.474C435.867 714.421 436.051 715.277 436.111 716.044C436.231 716.137 436.291 716.231 436.291 716.324V716.964C436.717 718.037 436.964 719.077 437.031 720.084C437.211 720.024 437.331 719.901 437.391 719.714C437.544 718.954 437.697 718.291 437.851 717.724C438.004 717.157 438.157 716.661 438.311 716.234V715.494C438.711 714.394 438.954 713.414 439.041 712.554L439.411 711.274L440.151 708.334L440.331 706.864L440.701 705.584L440.881 705.034V704.484C441.094 703.897 441.264 703.367 441.391 702.894C441.511 702.421 441.584 701.971 441.611 701.544L441.981 700.254L443.451 694.194L444.001 691.264L444.371 689.794C444.704 688.907 444.887 688.174 444.921 687.594L445.101 686.674L445.471 685.204C445.744 684.317 445.927 683.584 446.021 683.004L446.201 682.264L446.761 679.694L447.121 678.594V678.044L447.671 676.574V675.844L447.861 675.284L448.411 672.714H460.891L460.161 676.394L459.611 678.594L459.421 679.144L458.871 681.714L458.511 683.184L458.141 684.464L457.401 688.144L457.041 689.424L456.301 692.914L455.941 694.194L455.751 694.754L455.381 696.764L455.201 697.134L455.021 698.424C454.714 699.431 454.531 700.287 454.471 700.994L453.731 703.194L453.551 704.484L453.361 705.214L453.181 705.764L453.001 707.054L452.811 707.604L451.711 712.194L451.531 713.474L451.161 714.764L450.241 718.434L450.061 719.714L448.961 724.304L448.411 726.874C448.071 727.794 447.887 728.591 447.861 729.264L447.121 731.654V732.384C446.787 733.304 446.604 734.101 446.571 734.774C446.264 735.781 446.081 736.637 446.021 737.344L445.651 738.624L445.471 738.994L445.291 740.284C444.984 741.291 444.801 742.147 444.741 742.854H431.151L430.971 741.384C430.757 740.864 430.634 740.434 430.601 740.094L430.231 738.624L430.051 737.344L429.681 736.054C429.587 735.687 429.511 735.337 429.451 735.004C429.391 734.664 429.344 734.341 429.311 734.034L429.131 733.304L428.951 732.384C428.824 732.231 428.761 732.047 428.761 731.834L428.581 730.914L428.401 730.364C428.307 729.971 428.231 729.611 428.171 729.284C428.104 728.964 428.057 728.651 428.031 728.344C427.817 727.764 427.657 727.231 427.551 726.744C427.444 726.251 427.357 725.807 427.291 725.414L427.111 724.674L426.931 723.754C426.804 723.387 426.717 723.037 426.671 722.704C426.631 722.364 426.594 722.041 426.561 721.734C426.347 721.127 426.181 720.547 426.061 719.994C425.934 719.441 425.857 718.921 425.831 718.434C425.704 718.281 425.641 718.097 425.641 717.884L425.461 717.144L425.281 716.594C425.187 715.954 425.064 715.344 424.911 714.764L424.541 713.104L424.361 712.004L423.991 711.094L423.621 708.884L423.441 708.334V707.784C423.134 707.051 422.951 706.377 422.891 705.764L422.521 703.564L422.151 702.644L421.791 701.174V700.444C421.424 699.431 421.241 698.574 421.241 697.874C421.114 697.721 421.051 697.537 421.051 697.324L420.871 696.764V696.214C420.564 695.514 420.381 694.781 420.321 694.014C420.014 693.034 419.831 692.117 419.771 691.264L419.401 691.994L419.221 693.094L418.671 695.484L418.301 697.504L418.111 698.054L417.381 701.174L417.201 701.914L416.831 703.744L416.651 704.484L416.281 706.504L416.101 707.054L415.361 710.534L414.991 711.824L414.811 713.104C414.477 714.024 414.294 714.821 414.261 715.494L414.081 715.864L413.891 716.964L413.711 717.514L412.791 722.104L412.611 722.654L411.871 726.144L411.691 726.874L411.511 727.794L411.321 728.344L410.591 731.834L410.221 733.304L409.851 735.144L409.671 735.504L409.301 737.164L409.121 737.894L408.941 739.174C408.721 739.941 408.597 740.554 408.571 741.014C408.444 741.321 408.361 741.611 408.321 741.884C408.274 742.164 408.234 742.424 408.201 742.664C407.774 742.731 407.384 742.784 407.031 742.824C406.677 742.871 406.334 742.894 406.001 742.894H405.541C405.387 742.894 405.234 742.881 405.081 742.854H394.431V742.114C394.004 741.014 393.761 739.974 393.701 738.994C393.574 738.841 393.511 738.657 393.511 738.444L393.331 737.524C392.657 735.351 392.227 733.514 392.041 732.014L391.861 731.464L390.941 727.984L390.761 726.514L389.291 720.824V720.084C388.984 719.384 388.801 718.651 388.741 717.884L388.371 716.784L388.011 715.494V714.944L387.091 711.274V710.724L386.901 709.984L386.541 709.254L386.351 707.784C386.111 707.051 385.914 706.377 385.761 705.764C385.607 705.151 385.501 704.601 385.441 704.114L385.251 703.564V703.014C385.131 702.861 385.071 702.677 385.071 702.464L384.701 700.994L384.521 700.444C384.394 699.797 384.277 699.214 384.171 698.694C384.064 698.174 383.934 697.717 383.781 697.324L383.601 696.034C383.387 695.421 383.217 694.854 383.091 694.334C382.971 693.814 382.894 693.341 382.861 692.914L382.681 691.994C382.561 691.841 382.501 691.657 382.501 691.444L381.581 687.774L381.211 686.484L381.031 685.574L380.851 684.834L380.661 683.554C380.414 682.907 380.291 682.354 380.291 681.894V681.714L379.931 680.794L379.741 680.064C379.621 679.177 379.437 678.441 379.191 677.854V677.124C379.071 676.971 379.011 676.787 379.011 676.574" fill="white"/>
<path d="M504.465 697.135L505.025 698.235C506.458 700.015 507.375 701.851 507.775 703.745C507.895 704.538 507.985 705.281 508.045 705.975C508.112 706.661 508.145 707.265 508.145 707.785V732.015C509.272 734.255 510.922 735.601 513.095 736.055L512.735 736.605C512.608 736.825 512.485 736.948 512.365 736.975L512.185 737.525L511.815 737.895C511.508 738.568 511.142 739.118 510.715 739.545C510.282 740.678 509.728 741.535 509.055 742.115C508.782 742.728 508.522 743.258 508.275 743.705C508.035 744.145 507.808 744.535 507.595 744.875C504.015 743.955 501.198 742.301 499.145 739.915H498.595C494.648 742.761 490.578 744.185 486.385 744.185C484.118 744.185 481.885 743.801 479.685 743.035C473.105 740.681 469.128 736.398 467.755 730.185V729.955C467.755 718.115 474.685 712.195 488.545 712.195H488.685C488.958 712.068 489.262 712.005 489.595 712.005L490.145 711.825H491.435L491.985 711.645H492.535L497.125 711.095C497.185 710.755 497.215 710.448 497.215 710.175V709.255C497.215 704.141 494.508 701.585 489.095 701.585C485.328 701.585 480.172 702.855 473.625 705.395L472.895 703.745L472.525 702.645L472.155 702.275L471.975 701.915L471.605 700.805C471.272 700.258 471.028 699.708 470.875 699.155C470.228 698.301 469.798 697.445 469.585 696.585L470.135 696.405L470.505 696.215L471.055 696.035L471.425 695.665H471.975C472.095 695.545 472.202 695.485 472.295 695.485H472.345C473.445 694.905 474.422 694.475 475.275 694.195L476.195 694.015C476.868 693.708 477.482 693.525 478.035 693.465L479.505 693.095C480.572 692.668 481.612 692.425 482.625 692.365L486.665 691.625C487.272 691.565 487.858 691.511 488.425 691.465C488.992 691.418 489.552 691.395 490.105 691.395C495.945 691.395 500.732 693.308 504.465 697.135ZM492.715 720.455H491.615C491.342 720.515 491.075 720.561 490.815 720.595C490.555 720.621 490.302 720.635 490.055 720.635H489.785L489.045 720.825H488.495C488.342 720.945 488.158 721.005 487.945 721.005H487.395L484.455 721.735H483.905C483.052 722.228 482.318 722.535 481.705 722.655C479.718 724.555 478.725 726.391 478.725 728.165C478.725 729.785 479.535 731.375 481.155 732.935C483.508 734.375 485.802 735.095 488.035 735.095C490.882 735.095 493.605 733.948 496.205 731.655C496.452 730.948 496.698 730.458 496.945 730.185L497.125 729.635L496.945 728.895V720.265H493.275C493.122 720.391 492.935 720.455 492.715 720.455Z" fill="white"/>
<path d="M566.95 701.537V702.087C567.35 702.82 567.596 703.554 567.69 704.287V742.657H556.49V710.167L556.3 709.067C554.773 704.44 552.203 702.127 548.59 702.127C547.49 702.127 546.266 702.357 544.92 702.817C541.86 704.137 539.656 706.22 538.31 709.067L537.58 712.187V742.657H526.56V692.537H537.58V696.757C541.006 693.697 544.74 691.864 548.78 691.257H549.6C557.8 691.257 563.583 694.684 566.95 701.537Z" fill="white"/>
<path d="M130.399 666.5H79.8994V764.5H130.399V666.5Z" stroke="white" stroke-width="2" stroke-dasharray="5 5"/>
<path d="M177.899 666.5H132.399V764.5H177.899V666.5Z" stroke="white" stroke-width="2" stroke-dasharray="5 5"/>
<path d="M235.399 666.5H179.899V764.5H235.399V666.5Z" stroke="white" stroke-width="2" stroke-dasharray="5 5"/>
<path d="M289.899 666.5H237.399V764.5H289.899V666.5Z" stroke="white" stroke-width="2" stroke-dasharray="5 5"/>
<path d="M345.899 666.5H291.899V764.5H345.899V666.5Z" stroke="white" stroke-width="2" stroke-dasharray="5 5"/>
<path d="M370.899 666.5H347.899V764.5H370.899V666.5Z" stroke="white" stroke-width="2" stroke-dasharray="5 5"/>
<path d="M462.399 666.5H372.899V764.5H462.399V666.5Z" stroke="white" stroke-width="2" stroke-dasharray="5 5"/>
<path d="M517.899 666.5H464.399V764.5H517.899V666.5Z" stroke="white" stroke-width="2" stroke-dasharray="5 5"/>
<path d="M573.899 666.5H519.899V764.5H573.899V666.5Z" stroke="white" stroke-width="2" stroke-dasharray="5 5"/>
<path d="M574.899 725V817" stroke="#46C147" stroke-width="3.03189"/>
<path d="M599.899 668V815" stroke="#46C147" stroke-width="3.03189"/>
<path d="M574.899 791.341H599.899" stroke="#46C147" stroke-width="3.03189"/>
<path d="M592 791.341L628.383 782.246V800.437L592 791.341Z" fill="#46C147"/>
<path d="M583.383 791.341L547 782.246V800.437L583.383 791.341Z" fill="#46C147"/>
<path d="M555.739 852.081V849.756L564.473 840.195C565.498 839.075 566.342 838.102 567.005 837.275C567.669 836.44 568.159 835.656 568.478 834.924C568.805 834.183 568.969 833.408 568.969 832.598C568.969 831.668 568.745 830.862 568.297 830.182C567.858 829.501 567.255 828.976 566.488 828.606C565.722 828.235 564.861 828.05 563.904 828.05C562.888 828.05 562.001 828.261 561.243 828.683C560.494 829.097 559.912 829.678 559.499 830.427C559.094 831.177 558.892 832.055 558.892 833.063H555.842C555.842 831.513 556.2 830.152 556.915 828.98C557.63 827.809 558.603 826.896 559.835 826.241C561.075 825.587 562.466 825.259 564.008 825.259C565.558 825.259 566.932 825.587 568.129 826.241C569.327 826.896 570.265 827.779 570.946 828.89C571.626 830.001 571.967 831.237 571.967 832.598C571.967 833.571 571.79 834.523 571.437 835.453C571.092 836.375 570.489 837.404 569.628 838.541C568.775 839.67 567.591 841.048 566.075 842.676L560.132 849.032V849.239H572.432V852.081H555.739ZM591.876 836.681L589.137 837.456C588.965 836.999 588.711 836.556 588.375 836.125C588.048 835.686 587.6 835.324 587.031 835.04C586.463 834.756 585.735 834.614 584.848 834.614C583.633 834.614 582.621 834.893 581.812 835.453C581.011 836.005 580.61 836.707 580.61 837.559C580.61 838.317 580.886 838.916 581.437 839.355C581.988 839.794 582.85 840.161 584.021 840.453L586.967 841.177C588.741 841.608 590.063 842.266 590.933 843.154C591.803 844.032 592.238 845.165 592.238 846.552C592.238 847.689 591.911 848.705 591.256 849.601C590.61 850.497 589.706 851.203 588.543 851.72C587.38 852.236 586.028 852.495 584.486 852.495C582.462 852.495 580.787 852.056 579.46 851.177C578.134 850.298 577.294 849.015 576.941 847.327L579.835 846.603C580.11 847.671 580.632 848.472 581.398 849.006C582.173 849.54 583.185 849.807 584.434 849.807C585.856 849.807 586.984 849.506 587.819 848.903C588.664 848.291 589.086 847.559 589.086 846.707C589.086 846.018 588.844 845.44 588.362 844.975C587.88 844.502 587.139 844.148 586.14 843.916L582.832 843.141C581.015 842.71 579.68 842.043 578.827 841.138C577.983 840.225 577.561 839.084 577.561 837.714C577.561 836.595 577.875 835.604 578.504 834.743C579.141 833.881 580.007 833.205 581.101 832.714C582.204 832.223 583.452 831.978 584.848 831.978C586.812 831.978 588.353 832.408 589.473 833.27C590.602 834.131 591.403 835.268 591.876 836.681ZM601.324 852.081L595.277 832.236H598.482L602.771 847.43H602.978L607.216 832.236H610.471L614.657 847.378H614.864L619.154 832.236H622.358L616.311 852.081H613.314L608.973 836.836H608.663L604.321 852.081H601.324Z" fill="#46C147"/>
<path d="M744.899 322V469" stroke="#46C147" stroke-width="3.03189"/>
<path d="M737 445.341L773.383 436.246V454.437L737 445.341Z" fill="#46C147"/>
<path d="M751.383 445.341L715 436.246V454.437L751.383 445.341Z" fill="#46C147"/>
<path d="M721.37 506.443C719.423 506.443 717.765 505.913 716.395 504.854C715.026 503.786 713.979 502.24 713.256 500.216C712.532 498.183 712.171 495.728 712.171 492.851C712.171 489.992 712.532 487.55 713.256 485.526C713.988 483.493 715.039 481.942 716.408 480.874C717.786 479.798 719.44 479.259 721.37 479.259C723.299 479.259 724.948 479.798 726.318 480.874C727.696 481.942 728.747 483.493 729.47 485.526C730.203 487.55 730.569 489.992 730.569 492.851C730.569 495.728 730.207 498.183 729.483 500.216C728.76 502.24 727.713 503.786 726.344 504.854C724.974 505.913 723.316 506.443 721.37 506.443ZM721.37 503.601C723.299 503.601 724.798 502.67 725.866 500.81C726.934 498.95 727.468 496.297 727.468 492.851C727.468 490.56 727.222 488.609 726.731 486.999C726.249 485.388 725.551 484.16 724.638 483.316C723.734 482.472 722.644 482.05 721.37 482.05C719.457 482.05 717.963 482.993 716.886 484.88C715.81 486.757 715.271 489.415 715.271 492.851C715.271 495.142 715.513 497.089 715.995 498.691C716.477 500.293 717.171 501.512 718.075 502.347C718.988 503.183 720.086 503.601 721.37 503.601ZM749.587 490.681L746.848 491.456C746.676 490.999 746.421 490.556 746.086 490.125C745.758 489.686 745.31 489.324 744.742 489.04C744.173 488.756 743.446 488.614 742.558 488.614C741.344 488.614 740.332 488.893 739.522 489.453C738.721 490.005 738.321 490.707 738.321 491.559C738.321 492.317 738.596 492.916 739.148 493.355C739.699 493.794 740.56 494.161 741.732 494.453L744.677 495.177C746.452 495.608 747.774 496.266 748.644 497.154C749.514 498.032 749.949 499.165 749.949 500.552C749.949 501.689 749.621 502.705 748.967 503.601C748.321 504.497 747.416 505.203 746.254 505.72C745.091 506.236 743.738 506.495 742.197 506.495C740.173 506.495 738.497 506.056 737.171 505.177C735.844 504.298 735.005 503.015 734.651 501.327L737.545 500.603C737.821 501.671 738.342 502.472 739.109 503.006C739.884 503.54 740.896 503.807 742.145 503.807C743.566 503.807 744.695 503.506 745.53 502.903C746.374 502.291 746.796 501.559 746.796 500.707C746.796 500.018 746.555 499.44 746.073 498.975C745.59 498.502 744.85 498.148 743.85 497.916L740.543 497.141C738.725 496.71 737.39 496.043 736.538 495.138C735.694 494.225 735.272 493.084 735.272 491.714C735.272 490.595 735.586 489.604 736.215 488.743C736.852 487.881 737.718 487.205 738.812 486.714C739.914 486.223 741.163 485.978 742.558 485.978C744.522 485.978 746.064 486.408 747.184 487.27C748.312 488.131 749.113 489.268 749.587 490.681ZM759.035 506.081L752.988 486.236H756.192L760.482 501.43H760.688L764.926 486.236H768.182L772.368 501.378H772.575L776.864 486.236H780.068L774.022 506.081H771.024L766.683 490.836H766.373L762.032 506.081H759.035Z" fill="#46C147"/>
<path d="M574.899 866V958" stroke="#46C147" stroke-width="3.03189"/>
<path d="M708 809V956" stroke="#46C147" stroke-width="3.03189"/>
<path d="M579 932.341H704" stroke="#46C147" stroke-width="3.03189"/>
<path d="M700 932.341L736.383 923.246V941.437L700 932.341Z" fill="#46C147"/>
<path d="M583.383 932.341L547 923.246V941.437L583.383 932.341Z" fill="#46C147"/>
<path d="M608.791 968V948.155H611.736V951.256H611.995C612.408 950.196 613.076 949.374 613.997 948.788C614.919 948.194 616.026 947.896 617.318 947.896C618.627 947.896 619.717 948.194 620.587 948.788C621.465 949.374 622.15 950.196 622.641 951.256H622.848C623.356 950.231 624.118 949.417 625.135 948.814C626.151 948.202 627.37 947.896 628.791 947.896C630.565 947.896 632.017 948.452 633.145 949.563C634.273 950.666 634.837 952.384 634.837 954.718V968H631.788V954.718C631.788 953.254 631.388 952.207 630.587 951.579C629.786 950.95 628.843 950.636 627.757 950.636C626.362 950.636 625.281 951.058 624.514 951.902C623.748 952.737 623.364 953.797 623.364 955.08V968H620.264V954.408C620.264 953.28 619.898 952.371 619.165 951.682C618.433 950.984 617.49 950.636 616.336 950.636C615.544 950.636 614.803 950.847 614.114 951.269C613.433 951.691 612.882 952.276 612.46 953.026C612.047 953.766 611.84 954.623 611.84 955.597V968H608.791ZM640.412 968V948.155H643.462V968H640.412ZM641.963 944.847C641.369 944.847 640.856 944.645 640.425 944.24C640.003 943.835 639.792 943.349 639.792 942.78C639.792 942.212 640.003 941.725 640.425 941.32C640.856 940.915 641.369 940.713 641.963 940.713C642.557 940.713 643.065 940.915 643.487 941.32C643.918 941.725 644.133 942.212 644.133 942.78C644.133 943.349 643.918 943.835 643.487 944.24C643.065 944.645 642.557 944.847 641.963 944.847ZM652.095 956.062V968H649.046V948.155H651.992V951.256H652.25C652.716 950.248 653.422 949.438 654.369 948.827C655.317 948.207 656.54 947.896 658.039 947.896C659.382 947.896 660.558 948.172 661.566 948.723C662.573 949.266 663.357 950.093 663.917 951.204C664.477 952.306 664.757 953.702 664.757 955.39V968H661.708V955.597C661.708 954.038 661.303 952.823 660.493 951.953C659.684 951.075 658.573 950.636 657.16 950.636C656.187 950.636 655.317 950.847 654.55 951.269C653.792 951.691 653.194 952.306 652.754 953.116C652.315 953.926 652.095 954.908 652.095 956.062ZM672.551 968.207C671.914 968.207 671.367 967.978 670.91 967.522C670.454 967.065 670.225 966.519 670.225 965.881C670.225 965.244 670.454 964.697 670.91 964.24C671.367 963.784 671.914 963.556 672.551 963.556C673.188 963.556 673.735 963.784 674.192 964.24C674.648 964.697 674.877 965.244 674.877 965.881C674.877 966.303 674.769 966.691 674.554 967.044C674.347 967.397 674.067 967.681 673.714 967.897C673.369 968.103 672.982 968.207 672.551 968.207ZM608.119 1006.57V1003.94L619.747 985.54H621.659V989.623H620.367L611.581 1003.52V1003.73H627.24V1006.57H608.119ZM620.574 1012V1005.77V1004.55V985.54H623.623V1012H620.574ZM646.191 996.599L643.452 997.375C643.28 996.918 643.026 996.474 642.69 996.044C642.362 995.605 641.914 995.243 641.346 994.959C640.777 994.674 640.05 994.532 639.162 994.532C637.948 994.532 636.936 994.812 636.126 995.372C635.325 995.923 634.925 996.625 634.925 997.478C634.925 998.236 635.2 998.835 635.752 999.274C636.303 999.713 637.164 1000.08 638.336 1000.37L641.281 1001.1C643.056 1001.53 644.378 1002.19 645.248 1003.07C646.118 1003.95 646.553 1005.08 646.553 1006.47C646.553 1007.61 646.225 1008.62 645.571 1009.52C644.925 1010.42 644.02 1011.12 642.858 1011.64C641.695 1012.16 640.342 1012.41 638.801 1012.41C636.777 1012.41 635.101 1011.97 633.775 1011.1C632.448 1010.22 631.609 1008.93 631.255 1007.25L634.149 1006.52C634.425 1007.59 634.946 1008.39 635.713 1008.93C636.488 1009.46 637.5 1009.73 638.749 1009.73C640.17 1009.73 641.299 1009.42 642.134 1008.82C642.978 1008.21 643.4 1007.48 643.4 1006.63C643.4 1005.94 643.159 1005.36 642.677 1004.89C642.194 1004.42 641.454 1004.07 640.454 1003.83L637.147 1003.06C635.329 1002.63 633.994 1001.96 633.142 1001.06C632.298 1000.14 631.876 999.002 631.876 997.633C631.876 996.513 632.19 995.523 632.819 994.661C633.456 993.8 634.322 993.124 635.416 992.633C636.518 992.142 637.767 991.896 639.162 991.896C641.126 991.896 642.668 992.327 643.788 993.188C644.916 994.05 645.717 995.187 646.191 996.599ZM655.639 1012L649.592 992.155H652.796L657.086 1007.35H657.292L661.53 992.155H664.786L668.972 1007.3H669.179L673.468 992.155H676.672L670.626 1012H667.628L663.287 996.754H662.977L658.636 1012H655.639Z" fill="#46C147"/>
<path d="M574.899 665.5H690.111" stroke="#FF0000" stroke-width="3.03189"/>
<path d="M470.851 647.5H690.111" stroke="#FF0000" stroke-width="3.03189"/>
<path d="M665.856 665.5V647.5" stroke="#FF0000" stroke-width="3.03189"/>
<path d="M665.856 665.5L656.76 701.883H674.952L665.856 665.5Z" fill="#FF0000"/>
<path d="M665.856 647.5L656.76 611.117H674.952L665.856 647.5Z" fill="#FF0000"/>
<path d="M715.275 639.237V665.698H712.071V642.597H711.916L705.456 646.886V643.63L712.071 639.237H715.275ZM723.596 665.904C722.958 665.904 722.411 665.676 721.955 665.22C721.498 664.763 721.27 664.216 721.27 663.579C721.27 662.941 721.498 662.394 721.955 661.938C722.411 661.481 722.958 661.253 723.596 661.253C724.233 661.253 724.78 661.481 725.237 661.938C725.693 662.394 725.921 662.941 725.921 663.579C725.921 664.001 725.814 664.388 725.598 664.742C725.392 665.095 725.112 665.379 724.758 665.594C724.414 665.801 724.026 665.904 723.596 665.904ZM739.077 666.059C737.561 666.059 736.196 665.758 734.981 665.155C733.767 664.552 732.794 663.725 732.062 662.674C731.329 661.624 730.929 660.426 730.86 659.083H733.961C734.081 660.28 734.624 661.27 735.589 662.054C736.562 662.829 737.725 663.217 739.077 663.217C740.162 663.217 741.127 662.963 741.971 662.455C742.824 661.947 743.491 661.249 743.974 660.362C744.465 659.466 744.71 658.454 744.71 657.325C744.71 656.171 744.456 655.142 743.948 654.238C743.448 653.325 742.759 652.605 741.881 652.08C741.002 651.555 739.999 651.288 738.87 651.279C738.061 651.27 737.23 651.395 736.377 651.654C735.524 651.903 734.822 652.226 734.271 652.623L731.273 652.261L732.875 639.237H746.622V642.08H735.563L734.633 649.884H734.788C735.33 649.453 736.011 649.095 736.829 648.811C737.647 648.527 738.5 648.385 739.387 648.385C741.006 648.385 742.449 648.772 743.715 649.548C744.99 650.314 745.989 651.365 746.713 652.7C747.445 654.035 747.811 655.56 747.811 657.274C747.811 658.962 747.432 660.469 746.674 661.796C745.925 663.114 744.891 664.156 743.573 664.922C742.255 665.68 740.757 666.059 739.077 666.059ZM767.052 650.297L764.313 651.072C764.141 650.616 763.887 650.172 763.551 649.741C763.224 649.302 762.776 648.94 762.207 648.656C761.639 648.372 760.911 648.23 760.024 648.23C758.809 648.23 757.797 648.51 756.987 649.07C756.186 649.621 755.786 650.323 755.786 651.176C755.786 651.934 756.062 652.532 756.613 652.971C757.164 653.411 758.025 653.777 759.197 654.07L762.143 654.793C763.917 655.224 765.239 655.883 766.109 656.77C766.979 657.648 767.414 658.781 767.414 660.168C767.414 661.305 767.087 662.321 766.432 663.217C765.786 664.113 764.882 664.819 763.719 665.336C762.556 665.853 761.204 666.111 759.662 666.111C757.638 666.111 755.962 665.672 754.636 664.793C753.31 663.915 752.47 662.631 752.117 660.943L755.011 660.22C755.286 661.288 755.807 662.089 756.574 662.623C757.349 663.157 758.361 663.424 759.61 663.424C761.031 663.424 762.16 663.122 762.995 662.519C763.839 661.908 764.261 661.176 764.261 660.323C764.261 659.634 764.02 659.057 763.538 658.592C763.056 658.118 762.315 657.765 761.316 657.532L758.008 656.757C756.191 656.326 754.856 655.659 754.003 654.754C753.159 653.841 752.737 652.7 752.737 651.331C752.737 650.211 753.051 649.22 753.68 648.359C754.317 647.498 755.183 646.822 756.277 646.331C757.379 645.84 758.628 645.594 760.024 645.594C761.987 645.594 763.529 646.025 764.649 646.886C765.777 647.747 766.578 648.884 767.052 650.297ZM776.5 665.698L770.453 645.853H773.657L777.947 661.046H778.154L782.391 645.853H785.647L789.833 660.995H790.04L794.329 645.853H797.534L791.487 665.698H788.49L784.149 650.452H783.838L779.497 665.698H776.5Z" fill="#FF0000"/>
<path d="M581 323.383H747" stroke="#FF0000" stroke-width="3.03189"/>
<path d="M604.228 323L613.324 359.383H595.132L604.228 323Z" fill="#FF0000"/>
<path d="M604.228 323.383L613.324 287H595.132L604.228 323.383Z" fill="#FF0000"/>
<path d="M507.37 339.362C505.423 339.362 503.765 338.832 502.395 337.773C501.026 336.705 499.979 335.158 499.256 333.134C498.532 331.102 498.171 328.647 498.171 325.77C498.171 322.91 498.532 320.468 499.256 318.444C499.988 316.412 501.039 314.861 502.408 313.793C503.786 312.716 505.44 312.178 507.37 312.178C509.299 312.178 510.948 312.716 512.318 313.793C513.696 314.861 514.747 316.412 515.47 318.444C516.203 320.468 516.569 322.91 516.569 325.77C516.569 328.647 516.207 331.102 515.483 333.134C514.76 335.158 513.713 336.705 512.344 337.773C510.974 338.832 509.316 339.362 507.37 339.362ZM507.37 336.519C509.299 336.519 510.798 335.589 511.866 333.729C512.934 331.868 513.468 329.215 513.468 325.77C513.468 323.479 513.222 321.528 512.731 319.917C512.249 318.306 511.551 317.079 510.638 316.235C509.734 315.391 508.644 314.969 507.37 314.969C505.457 314.969 503.963 315.912 502.886 317.798C501.81 319.676 501.271 322.333 501.271 325.77C501.271 328.061 501.513 330.008 501.995 331.61C502.477 333.212 503.171 334.431 504.075 335.266C504.988 336.102 506.086 336.519 507.37 336.519ZM535.587 323.599L532.848 324.375C532.676 323.918 532.421 323.474 532.086 323.044C531.758 322.605 531.31 322.243 530.742 321.959C530.173 321.674 529.446 321.532 528.558 321.532C527.344 321.532 526.332 321.812 525.522 322.372C524.721 322.923 524.321 323.625 524.321 324.478C524.321 325.236 524.596 325.835 525.148 326.274C525.699 326.713 526.56 327.079 527.732 327.372L530.677 328.096C532.452 328.526 533.774 329.185 534.644 330.072C535.514 330.951 535.949 332.083 535.949 333.47C535.949 334.607 535.621 335.624 534.967 336.519C534.321 337.415 533.416 338.121 532.254 338.638C531.091 339.155 529.738 339.413 528.197 339.413C526.173 339.413 524.497 338.974 523.171 338.096C521.844 337.217 521.005 335.934 520.651 334.245L523.545 333.522C523.821 334.59 524.342 335.391 525.109 335.925C525.884 336.459 526.896 336.726 528.145 336.726C529.566 336.726 530.695 336.425 531.53 335.822C532.374 335.21 532.796 334.478 532.796 333.625C532.796 332.936 532.555 332.359 532.073 331.894C531.59 331.42 530.85 331.067 529.85 330.835L526.543 330.059C524.725 329.629 523.39 328.961 522.538 328.057C521.694 327.144 521.272 326.002 521.272 324.633C521.272 323.513 521.586 322.523 522.215 321.661C522.852 320.8 523.718 320.124 524.812 319.633C525.914 319.142 527.163 318.896 528.558 318.896C530.522 318.896 532.064 319.327 533.184 320.188C534.312 321.05 535.113 322.187 535.587 323.599ZM545.035 339L538.988 319.155H542.192L546.482 334.349H546.688L550.926 319.155H554.182L558.368 334.297H558.575L562.864 319.155H566.068L560.022 339H557.024L552.683 323.754H552.373L548.032 339H545.035Z" fill="#FF0000"/>
</g>
<defs>
<clipPath id="clip0_0_1">
<rect width="990" height="1065" fill="white"/>
</clipPath>
</defs>
</svg>
