<svg width="790" height="715" viewBox="0 0 790 715" fill="none" xmlns="http://www.w3.org/2000/svg">
<g clip-path="url(#clip0_0_1)">
<path d="M20 57.4999C20 36.7893 36.7893 19.9999 57.5 19.9999H732.5C753.211 19.9999 770 36.7893 770 57.4999V657.5C770 678.211 753.211 695 732.5 695H57.5C36.7893 695 20 678.211 20 657.5V57.4999Z" fill="white"/>
<path d="M38.75 57.4999C38.75 47.1446 47.1447 38.7499 57.5 38.7499H732.5C742.855 38.7499 751.25 47.1446 751.25 57.4999V657.5C751.25 667.855 742.855 676.25 732.5 676.25H57.5C47.1447 676.25 38.75 667.855 38.75 657.5V57.4999Z" fill="#0033A2"/>
<path d="M116.162 249.19V240.08H169.152V249.19H116.162ZM109.302 267.3V258.41H176.572V267.3H109.302ZM93.8825 286.2V276.98H191.762V286.2H93.8825ZM107.722 224.1V215.55H146.872V224.1H107.722ZM137.762 221.29V215.55H149.352C151.752 218.624 154.659 221.604 158.072 224.49C161.486 227.384 165.252 230.067 169.372 232.54C173.499 235.014 177.812 237.227 182.312 239.18C186.812 241.127 191.349 242.777 195.922 244.13C195.102 244.73 194.166 245.517 193.112 246.49C192.066 247.464 191.052 248.477 190.072 249.53C189.099 250.577 188.312 251.55 187.712 252.45C181.712 250.277 175.789 247.577 169.942 244.35C164.089 241.124 158.669 237.544 153.682 233.61C148.696 229.67 144.402 225.564 140.802 221.29H137.762ZM135.292 216.68L144.962 220.39C141.289 225.337 136.826 229.91 131.572 234.11C126.326 238.31 120.719 242.024 114.752 245.25C108.792 248.477 102.776 251.29 96.7025 253.69C96.1758 252.937 95.4625 252.037 94.5625 250.99C93.6625 249.937 92.7258 248.904 91.7525 247.89C90.7791 246.884 89.9158 246.08 89.1625 245.48C95.3158 243.6 101.316 241.237 107.162 238.39C113.016 235.537 118.359 232.274 123.192 228.6C128.032 224.927 132.066 220.954 135.292 216.68ZM137.092 283.39V244.24H148.002V283.39H137.092ZM93.1025 203.96V194.18H192.552V203.96H93.1025ZM117.062 213.3V185.63H127.642V213.3H117.062ZM157.342 213.86V185.63H167.912V213.86" fill="white"/>
<path d="M279.427 193.393V187.883H299.107V193.393H279.427ZM278.747 211.733V206.333H299.897V211.733H278.747ZM278.747 220.163V214.883H299.897V220.163H278.747ZM262.327 273.493V266.633H319.357V273.493H262.327ZM275.487 202.843V196.883H302.487V202.843H275.487ZM293.147 229.053H285.157V235.463H293.147V229.053ZM278.517 240.643V223.883H300.007V240.643H278.517ZM264.237 261.903V255.493H310.917V250.653H257.257V244.243H320.827V261.903H264.237ZM260.407 242.213V216.683H267.497V242.213H260.407ZM250.177 220.613L249.387 213.753C252.687 213.606 256.381 213.456 260.467 213.303C264.554 213.156 268.884 212.97 273.457 212.743V218.933C269.257 219.306 265.191 219.606 261.257 219.833C257.317 220.053 253.624 220.313 250.177 220.613ZM261.197 255.493H271.097C270.197 259.093 269.224 262.843 268.177 266.743C267.124 270.643 266.147 274.016 265.247 276.863L255.687 275.513C256.734 272.74 257.747 269.533 258.727 265.893C259.701 262.26 260.524 258.793 261.197 255.493ZM315.987 267.753V266.633H325.997C325.997 266.633 325.961 267.136 325.887 268.143C325.814 269.156 325.664 270.003 325.437 270.683C324.384 275.33 323.294 278.983 322.167 281.643C321.047 284.31 319.737 286.243 318.237 287.443C316.964 288.343 315.594 288.96 314.127 289.293C312.667 289.633 310.924 289.84 308.897 289.913C307.171 289.993 304.714 290.013 301.527 289.973C298.341 289.933 294.947 289.84 291.347 289.693C291.274 288.493 290.974 287.143 290.447 285.643C289.921 284.143 289.284 282.793 288.537 281.593C292.064 281.966 295.477 282.19 298.777 282.263C302.077 282.343 304.401 282.383 305.747 282.383C306.947 282.383 307.921 282.343 308.667 282.263C309.421 282.19 310.061 281.966 310.587 281.593C311.634 280.766 312.591 279.283 313.457 277.143C314.317 275.01 315.161 271.88 315.987 267.753ZM268.847 224.663L274.247 223.433C274.847 225.306 275.427 227.366 275.987 229.613C276.554 231.866 276.987 233.816 277.287 235.463L271.437 237.043C271.284 235.316 270.964 233.31 270.477 231.023C269.991 228.736 269.447 226.616 268.847 224.663ZM268.507 209.363L273.347 207.563C274.321 209.443 275.221 211.543 276.047 213.863C276.874 216.19 277.437 218.216 277.737 219.943L272.447 221.963C272.221 220.243 271.734 218.22 270.987 215.893C270.234 213.566 269.407 211.39 268.507 209.363ZM250.507 200.483L254.107 195.083C256.287 196.503 258.424 198.133 260.517 199.973C262.624 201.813 264.201 203.406 265.247 204.753L261.197 210.943C260.071 209.37 258.497 207.606 256.477 205.653C254.451 203.706 252.461 201.983 250.507 200.483ZM261.197 185.293L267.607 188.443C266.107 190.916 264.607 193.43 263.107 195.983C261.607 198.53 260.184 200.666 258.837 202.393L253.887 199.803C255.087 197.856 256.401 195.476 257.827 192.663C259.247 189.85 260.371 187.393 261.197 185.293ZM268.397 194.633L274.697 198.233C272.224 201.606 269.581 205.166 266.767 208.913C263.954 212.666 261.311 215.816 258.837 218.363L254.107 215.443C255.687 213.57 257.377 211.433 259.177 209.033C260.977 206.633 262.681 204.156 264.287 201.603C265.901 199.056 267.271 196.733 268.397 194.633ZM252.987 222.983L259.627 224.443C258.947 227.37 258.121 230.293 257.147 233.213C256.174 236.14 255.124 238.653 253.997 240.753C253.324 240.306 252.347 239.8 251.067 239.233C249.794 238.673 248.747 238.206 247.927 237.833C249.201 235.733 250.247 233.386 251.067 230.793C251.894 228.206 252.534 225.603 252.987 222.983ZM312.387 242.213V216.683H319.587V242.213H312.387ZM302.037 220.613L301.357 213.753C304.811 213.606 308.694 213.456 313.007 213.303C317.321 213.156 321.914 213.006 326.787 212.853L326.667 219.043C322.247 219.343 317.954 219.623 313.787 219.883C309.627 220.15 305.711 220.393 302.037 220.613ZM321.157 224.663L326.897 222.983C327.871 225.23 328.827 227.703 329.767 230.403C330.701 233.103 331.357 235.43 331.737 237.383L325.777 239.293C325.477 237.34 324.877 234.976 323.977 232.203C323.077 229.43 322.137 226.916 321.157 224.663ZM320.257 209.143L325.547 206.783C326.821 208.73 328.001 210.883 329.087 213.243C330.181 215.61 330.951 217.693 331.397 219.493L325.657 222.083C325.284 220.283 324.591 218.163 323.577 215.723C322.564 213.283 321.457 211.09 320.257 209.143ZM301.587 200.253L305.407 195.193C307.361 196.54 309.311 198.096 311.257 199.863C313.211 201.623 314.711 203.216 315.757 204.643L311.377 210.493C310.397 208.993 308.991 207.266 307.157 205.313C305.317 203.366 303.461 201.68 301.587 200.253ZM312.607 185.403L319.027 188.663C317.447 191.143 315.871 193.636 314.297 196.143C312.724 198.656 311.224 200.813 309.797 202.613L304.847 200.033C306.121 198.08 307.507 195.696 309.007 192.883C310.507 190.07 311.707 187.576 312.607 185.403ZM320.597 194.183L326.897 197.783C324.351 201.156 321.577 204.716 318.577 208.463C315.577 212.216 312.727 215.366 310.027 217.913L305.407 214.993C307.134 213.12 308.934 210.983 310.807 208.583C312.687 206.183 314.487 203.706 316.207 201.153C317.934 198.606 319.397 196.283 320.597 194.183ZM304.847 222.983L311.377 224.553C310.851 227.326 310.101 230.156 309.127 233.043C308.147 235.936 307.097 238.393 305.977 240.413C305.377 240.04 304.477 239.533 303.277 238.893C302.077 238.26 301.027 237.756 300.127 237.383C301.321 235.283 302.294 232.993 303.047 230.513C303.794 228.04 304.394 225.53 304.847 222.983ZM228.347 194.063L234.537 187.093C236.411 188.066 238.377 189.246 240.437 190.633C242.504 192.02 244.437 193.406 246.237 194.793C248.037 196.186 249.501 197.52 250.627 198.793L244.207 206.663C243.161 205.39 241.754 204.003 239.987 202.503C238.227 201.003 236.334 199.523 234.307 198.063C232.287 196.596 230.301 195.263 228.347 194.063ZM225.987 224.103L231.837 216.793C233.784 217.693 235.827 218.8 237.967 220.113C240.107 221.426 242.094 222.736 243.927 224.043C245.767 225.356 247.287 226.613 248.487 227.813L242.297 235.913C241.171 234.713 239.691 233.403 237.857 231.983C236.017 230.556 234.047 229.15 231.947 227.763C229.847 226.376 227.861 225.156 225.987 224.103ZM237.797 288.683L228.237 283.283C229.664 280.283 231.181 276.793 232.787 272.813C234.401 268.84 236.051 264.64 237.737 260.213C239.431 255.793 240.987 251.443 242.407 247.163L250.847 252.563C249.647 256.543 248.297 260.633 246.797 264.833C245.297 269.033 243.797 273.156 242.297 277.203C240.797 281.256 239.297 285.083 237.797 288.683Z" fill="white"/>
<path d="M208.5 178.525H73V319.025H208.5V178.525Z" stroke="white" stroke-width="2" stroke-dasharray="5 5"/>
<path d="M346 178.525H210.5V319.025H346V178.525Z" stroke="white" stroke-width="2" stroke-dasharray="5 5"/>
<path d="M680.5 340.306L718 377.806V490.306V649.975H680.5H643V490.306V377.806L680.5 340.306Z" fill="white"/>
<path d="M343.849 353.676L378 344.525L624.25 486.693C628.117 488.925 632.88 488.926 636.748 486.694C640.615 484.463 642.998 480.338 643 475.873V490.306V562.475V562.478C643.002 558.01 640.619 553.882 636.75 551.648L353 387.826L343.849 353.676Z" fill="white"/>
<path d="M73.5195 95.5756V84.5556H124.19V95.5756H104.91V154.876H92.7995V95.5756" fill="white"/>
<path d="M166.909 110.802L166.359 111.542L165.809 112.092L165.259 112.462L164.519 113.562L164.159 113.932L163.789 114.112C163.389 114.666 163.022 115.092 162.689 115.392L160.299 118.152C155.219 114.879 151.012 113.242 147.679 113.242C144.252 113.242 141.729 114.939 140.109 118.332C140.169 120.326 140.962 121.796 142.489 122.742C143.162 122.922 143.652 123.106 143.959 123.292C145.152 123.472 146.132 123.716 146.899 124.022C158.492 124.882 164.979 129.536 166.359 137.982C166.419 138.349 166.449 138.706 166.449 139.052C166.449 139.406 166.449 139.752 166.449 140.092C166.449 146.239 163.849 150.859 158.649 153.952C154.915 155.632 151.165 156.472 147.399 156.472C140.239 156.472 133.095 153.429 125.969 147.342L126.339 146.612L127.249 145.692C127.862 144.959 128.415 144.406 128.909 144.032C129.029 143.819 129.149 143.699 129.269 143.672L129.639 143.122C129.759 142.909 129.882 142.786 130.009 142.752L130.189 142.382L130.559 142.202L132.949 139.442C137.475 143.729 142.215 145.872 147.169 145.872C149.249 145.872 151.362 145.506 153.509 144.772C154.055 144.039 154.605 143.489 155.159 143.122C155.345 142.389 155.439 141.699 155.439 141.052C155.439 139.459 154.919 138.129 153.879 137.062L149.649 135.592C137.042 134.826 130.189 129.439 129.089 119.432C129.915 109.366 135.605 103.982 146.159 103.282H146.809C154.915 103.282 161.615 105.789 166.909 110.802Z" fill="white"/>
<path d="M179.287 140.551V104.751H190.307V136.511C190.427 136.664 190.487 136.848 190.487 137.061C190.614 137.154 190.677 137.244 190.677 137.331V137.431C190.89 138.804 191.194 140.028 191.587 141.101C193.7 144.034 196.41 145.501 199.717 145.501H199.857C203.957 144.401 206.83 142.138 208.477 138.711V138.161L209.217 135.961V104.751H220.417V154.871H209.217V150.831C204.81 154.438 200.42 156.241 196.047 156.241C192.647 156.241 189.204 155.171 185.717 153.031C182.87 150.858 180.91 148.288 179.837 145.321L179.657 144.031C179.384 143.144 179.247 142.274 179.247 141.421V141.011C179.247 140.858 179.26 140.704 179.287 140.551Z" fill="white"/>
<path d="M278.836 125.319L279.016 128.069C279.136 128.223 279.196 128.406 279.196 128.619V134.129H245.606C246.306 140.369 249.486 144.043 255.146 145.149C256.066 145.236 256.969 145.279 257.856 145.279C262.476 145.279 266.409 143.766 269.656 140.739C270.049 141.413 270.539 141.963 271.126 142.389L271.306 142.939L271.856 143.489C272.283 143.889 272.649 144.266 272.956 144.619C273.263 144.973 273.509 145.333 273.696 145.699C273.909 145.819 274.029 145.939 274.056 146.059L276.626 148.999C270.813 153.866 264.616 156.299 258.036 156.299C256.909 156.299 255.763 156.223 254.596 156.069C253.436 155.916 252.273 155.703 251.106 155.429C240.519 151.909 234.706 144.319 233.666 132.659C233.666 132.506 233.659 132.199 233.646 131.739C233.633 131.286 233.626 130.996 233.626 130.869C233.626 114.929 240.799 105.856 255.146 103.649C269.406 104.143 277.303 111.366 278.836 125.319ZM245.416 125.499H267.636V124.949C267.509 124.583 267.446 124.216 267.446 123.849V123.479C267.139 122.806 266.956 122.196 266.896 121.649C264.636 116.416 260.903 113.783 255.696 113.749C249.149 115.309 245.723 119.226 245.416 125.499Z" fill="white"/>
<path d="M332.05 113.562V114.112C332.45 114.846 332.697 115.579 332.79 116.312V154.682H321.59V122.192L321.4 121.092C319.874 116.466 317.304 114.152 313.69 114.152C312.59 114.152 311.367 114.382 310.02 114.842C306.96 116.162 304.757 118.246 303.41 121.092L302.68 124.212V154.682H291.66V104.562H302.68V108.782C306.107 105.722 309.84 103.889 313.88 103.282H314.7C322.9 103.282 328.684 106.709 332.05 113.562Z" fill="white"/>
<path d="M371.191 85.1092V84.7392H383.861L384.041 86.0292L384.231 86.5792L384.591 87.8692L384.961 90.0692L385.511 91.8992L385.881 94.1092L386.431 95.9392L386.611 97.4092C386.825 97.9292 386.948 98.3592 386.981 98.6992L387.161 99.4292L387.531 100.529V101.269C387.651 101.363 387.711 101.453 387.711 101.539V102.189C388.051 102.863 388.238 103.596 388.271 104.389L388.631 105.489L389.001 106.779L389.371 108.979L389.921 110.809L390.101 111.919L391.201 116.509C391.295 116.936 391.381 117.326 391.461 117.679C391.535 118.026 391.571 118.369 391.571 118.709L391.941 119.439V120.179L392.301 121.099V121.829L392.671 122.559V123.299C393.011 124.219 393.195 125.016 393.221 125.689L393.411 126.419C393.625 127.033 393.791 127.599 393.911 128.119C394.031 128.639 394.108 129.113 394.141 129.539L394.511 131.009L394.881 132.289L395.241 131.189L395.981 127.519L396.341 126.599L396.531 125.499L397.081 122.929L397.451 121.649V121.099L398.181 118.159L398.361 117.059L398.731 116.319L398.911 115.589L399.101 114.669V113.939L399.281 113.379L400.021 110.449L400.381 108.239L400.571 107.509L400.931 106.779C400.998 105.799 401.181 104.939 401.481 104.199L401.671 103.289V102.739L402.041 101.269L402.221 100.719L402.771 98.3292L402.951 97.2292L403.321 96.1292L403.501 95.2092L404.051 92.8192L404.241 91.8992L404.421 91.5392C404.455 91.1992 404.495 90.8692 404.541 90.5492C404.588 90.2292 404.671 89.9459 404.791 89.6992L404.971 89.1492V88.5992L405.161 87.8692L405.341 87.3092L405.891 84.7392H419.481V85.2892C419.908 86.3625 420.151 87.4059 420.211 88.4192L420.581 89.8792L420.761 90.4392L421.501 93.7392L421.861 95.2092C422.108 96.0959 422.231 96.8292 422.231 97.4092C422.445 97.9292 422.568 98.3592 422.601 98.6992L422.961 99.9792L423.151 101.269L423.331 101.999L423.521 102.549C423.608 102.949 423.685 103.309 423.751 103.629C423.811 103.949 423.855 104.263 423.881 104.569C424.128 105.149 424.298 105.686 424.391 106.179C424.485 106.666 424.561 107.109 424.621 107.509L424.801 108.609L425.171 109.529L425.351 110.629V111.179C425.658 111.913 425.841 112.586 425.901 113.199L426.091 114.299C426.391 115.033 426.575 115.706 426.641 116.319L426.821 117.239L427.371 119.259V119.989C427.491 120.269 427.551 120.576 427.551 120.909C427.891 121.616 428.078 122.229 428.111 122.749L428.291 123.669L428.471 124.769L428.661 125.499C428.968 126.446 429.151 127.303 429.211 128.069C429.331 128.163 429.391 128.256 429.391 128.349V128.989C429.818 130.063 430.065 131.103 430.131 132.109C430.311 132.049 430.431 131.926 430.491 131.739C430.645 130.979 430.798 130.316 430.951 129.749C431.105 129.183 431.258 128.686 431.411 128.259V127.519C431.811 126.419 432.055 125.439 432.141 124.579L432.511 123.299L433.251 120.359L433.431 118.889L433.801 117.609L433.981 117.059V116.509C434.195 115.923 434.365 115.393 434.491 114.919C434.611 114.446 434.685 113.996 434.711 113.569L435.081 112.279L436.551 106.219L437.101 103.289L437.471 101.819C437.805 100.933 437.988 100.199 438.021 99.6192L438.201 98.6992L438.571 97.2292C438.845 96.3425 439.028 95.6092 439.121 95.0292L439.301 94.2892L439.861 91.7192L440.221 90.6192V90.0692L440.771 88.5992V87.8692L440.961 87.3092L441.511 84.7392H453.991L453.261 88.4192L452.711 90.6192L452.521 91.1692L451.971 93.7392L451.611 95.2092L451.241 96.4892L450.501 100.169L450.141 101.449L449.401 104.939L449.041 106.219L448.851 106.779L448.481 108.789L448.301 109.159L448.121 110.449C447.815 111.456 447.631 112.313 447.571 113.019L446.831 115.219L446.651 116.509L446.461 117.239L446.281 117.789L446.101 119.079L445.911 119.629L444.811 124.219L444.631 125.499L444.261 126.789L443.341 130.459L443.161 131.739L442.061 136.329L441.511 138.899C441.171 139.819 440.988 140.616 440.961 141.289L440.221 143.679V144.409C439.888 145.329 439.705 146.126 439.671 146.799C439.365 147.806 439.181 148.663 439.121 149.369L438.751 150.649L438.571 151.019L438.391 152.309C438.085 153.316 437.901 154.173 437.841 154.879H424.251L424.071 153.409C423.858 152.889 423.735 152.459 423.701 152.119L423.331 150.649L423.151 149.369L422.781 148.079C422.688 147.713 422.611 147.363 422.551 147.029C422.491 146.689 422.445 146.366 422.411 146.059L422.231 145.329L422.051 144.409C421.925 144.256 421.861 144.073 421.861 143.859L421.681 142.939L421.501 142.389C421.408 141.996 421.331 141.636 421.271 141.309C421.205 140.989 421.158 140.676 421.131 140.369C420.918 139.789 420.758 139.256 420.651 138.769C420.545 138.276 420.458 137.833 420.391 137.439L420.211 136.699L420.031 135.779C419.905 135.413 419.818 135.063 419.771 134.729C419.731 134.389 419.695 134.066 419.661 133.759C419.448 133.153 419.281 132.573 419.161 132.019C419.035 131.466 418.958 130.946 418.931 130.459C418.805 130.306 418.741 130.123 418.741 129.909L418.561 129.169L418.381 128.619C418.288 127.979 418.165 127.369 418.011 126.789L417.641 125.129L417.461 124.029L417.091 123.119L416.721 120.909L416.541 120.359V119.809C416.235 119.076 416.051 118.403 415.991 117.789L415.621 115.589L415.251 114.669L414.891 113.199V112.469C414.525 111.456 414.341 110.599 414.341 109.899C414.215 109.746 414.151 109.563 414.151 109.349L413.971 108.789V108.239C413.665 107.539 413.481 106.806 413.421 106.039C413.115 105.059 412.931 104.143 412.871 103.289L412.501 104.019L412.321 105.119L411.771 107.509L411.401 109.529L411.211 110.079L410.481 113.199L410.301 113.939L409.931 115.769L409.751 116.509L409.381 118.529L409.201 119.079L408.461 122.559L408.091 123.849L407.911 125.129C407.578 126.049 407.395 126.846 407.361 127.519L407.181 127.889L406.991 128.989L406.811 129.539L405.891 134.129L405.711 134.679L404.971 138.169L404.791 138.899L404.611 139.819L404.421 140.369L403.691 143.859L403.321 145.329L402.951 147.169L402.771 147.529L402.401 149.189L402.221 149.919L402.041 151.199C401.821 151.966 401.698 152.579 401.671 153.039C401.545 153.346 401.461 153.636 401.421 153.909C401.375 154.189 401.335 154.449 401.301 154.689C400.875 154.756 400.485 154.809 400.131 154.849C399.778 154.896 399.435 154.919 399.101 154.919H398.641C398.488 154.919 398.335 154.906 398.181 154.879H387.531V154.139C387.105 153.039 386.861 151.999 386.801 151.019C386.675 150.866 386.611 150.683 386.611 150.469L386.431 149.549C385.758 147.376 385.328 145.539 385.141 144.039L384.961 143.489L384.041 140.009L383.861 138.539L382.391 132.849V132.109C382.085 131.409 381.901 130.676 381.841 129.909L381.471 128.809L381.111 127.519V126.969L380.191 123.299V122.749L380.001 122.009L379.641 121.279L379.451 119.809C379.211 119.076 379.015 118.403 378.861 117.789C378.708 117.176 378.601 116.626 378.541 116.139L378.351 115.589V115.039C378.231 114.886 378.171 114.703 378.171 114.489L377.801 113.019L377.621 112.469C377.495 111.823 377.378 111.239 377.271 110.719C377.165 110.199 377.035 109.743 376.881 109.349L376.701 108.059C376.488 107.446 376.318 106.879 376.191 106.359C376.071 105.839 375.995 105.366 375.961 104.939L375.781 104.019C375.661 103.866 375.601 103.683 375.601 103.469L374.681 99.7992L374.311 98.5092L374.131 97.5992L373.951 96.8592L373.761 95.5792C373.515 94.9325 373.391 94.3792 373.391 93.9192V93.7392L373.031 92.8192L372.841 92.0892C372.721 91.2025 372.538 90.4659 372.291 89.8792V89.1492C372.171 88.9959 372.111 88.8125 372.111 88.5992" fill="white"/>
<path d="M497.565 109.16L498.125 110.26C499.559 112.04 500.475 113.877 500.875 115.77C500.995 116.563 501.085 117.307 501.145 118C501.212 118.687 501.245 119.29 501.245 119.81V144.04C502.372 146.28 504.022 147.627 506.195 148.08L505.835 148.63C505.709 148.85 505.585 148.973 505.465 149L505.285 149.55L504.915 149.92C504.609 150.593 504.242 151.143 503.815 151.57C503.382 152.703 502.829 153.56 502.155 154.14C501.882 154.753 501.622 155.283 501.375 155.73C501.135 156.17 500.909 156.56 500.695 156.9C497.115 155.98 494.299 154.327 492.245 151.94H491.695C487.749 154.787 483.679 156.21 479.485 156.21C477.219 156.21 474.985 155.827 472.785 155.06C466.205 152.707 462.229 148.423 460.855 142.21V141.98C460.855 130.14 467.785 124.22 481.645 124.22H481.785C482.059 124.093 482.362 124.03 482.695 124.03L483.245 123.85H484.535L485.085 123.67H485.635L490.225 123.12C490.285 122.78 490.315 122.473 490.315 122.2V121.28C490.315 116.167 487.609 113.61 482.195 113.61C478.429 113.61 473.272 114.88 466.725 117.42L465.995 115.77L465.625 114.67L465.255 114.3L465.075 113.94L464.705 112.83C464.372 112.283 464.129 111.733 463.975 111.18C463.329 110.327 462.899 109.47 462.685 108.61L463.235 108.43L463.605 108.24L464.155 108.06L464.525 107.69H465.075C465.195 107.57 465.302 107.51 465.395 107.51H465.445C466.545 106.93 467.522 106.5 468.375 106.22L469.295 106.04C469.969 105.733 470.582 105.55 471.135 105.49L472.605 105.12C473.672 104.693 474.712 104.45 475.725 104.39L479.765 103.65C480.372 103.59 480.959 103.537 481.525 103.49C482.092 103.443 482.652 103.42 483.205 103.42C489.045 103.42 493.832 105.333 497.565 109.16ZM485.815 132.48H484.715C484.442 132.54 484.175 132.587 483.915 132.62C483.655 132.647 483.402 132.66 483.155 132.66H482.885L482.145 132.85H481.595C481.442 132.97 481.259 133.03 481.045 133.03H480.495L477.555 133.76H477.005C476.152 134.253 475.419 134.56 474.805 134.68C472.819 136.58 471.825 138.417 471.825 140.19C471.825 141.81 472.635 143.4 474.255 144.96C476.609 146.4 478.902 147.12 481.135 147.12C483.982 147.12 486.705 145.973 489.305 143.68C489.552 142.973 489.799 142.483 490.045 142.21L490.225 141.66L490.045 140.92V132.29H486.375C486.222 132.417 486.035 132.48 485.815 132.48Z" fill="white"/>
<path d="M560.05 113.562V114.112C560.45 114.846 560.697 115.579 560.79 116.312V154.682H549.59V122.192L549.4 121.092C547.874 116.466 545.304 114.152 541.69 114.152C540.59 114.152 539.367 114.382 538.02 114.842C534.96 116.162 532.757 118.246 531.41 121.092L530.68 124.212V154.682H519.66V104.562H530.68V108.782C534.107 105.722 537.84 103.889 541.88 103.282H542.7C550.9 103.282 556.684 106.709 560.05 113.562Z" fill="white"/>
<path d="M123.5 78.5252H73V176.525H123.5V78.5252Z" stroke="white" stroke-width="2" stroke-dasharray="5 5"/>
<path d="M171 78.5252H125.5V176.525H171V78.5252Z" stroke="white" stroke-width="2" stroke-dasharray="5 5"/>
<path d="M228.5 78.5252H173V176.525H228.5V78.5252Z" stroke="white" stroke-width="2" stroke-dasharray="5 5"/>
<path d="M283 78.5252H230.5V176.525H283V78.5252Z" stroke="white" stroke-width="2" stroke-dasharray="5 5"/>
<path d="M339 78.5252H285V176.525H339V78.5252Z" stroke="white" stroke-width="2" stroke-dasharray="5 5"/>
<path d="M364 78.5252H341V176.525H364V78.5252Z" stroke="white" stroke-width="2" stroke-dasharray="5 5"/>
<path d="M455.5 78.5252H366V176.525H455.5V78.5252Z" stroke="white" stroke-width="2" stroke-dasharray="5 5"/>
<path d="M511 78.5252H457.5V176.525H511V78.5252Z" stroke="white" stroke-width="2" stroke-dasharray="5 5"/>
<path d="M567 78.5252H513V176.525H567V78.5252Z" stroke="white" stroke-width="2" stroke-dasharray="5 5"/>
<path d="M568 177.525V292.737" stroke="#46C147" stroke-width="3.03189"/>
<path d="M643 375V249" stroke="#46C147" stroke-width="3.03189"/>
<path d="M568 268.482H643" stroke="#46C147" stroke-width="3.03189"/>
<path d="M568 268.482L604.383 259.386V277.578L568 268.482Z" fill="#46C147"/>
<path d="M643 268.482L606.617 259.386V277.578L643 268.482Z" fill="#46C147"/>
<path d="M590.103 308.556L586.923 308.805C586.638 307.549 586.236 306.637 585.715 306.069C584.85 305.157 583.784 304.701 582.517 304.701C581.498 304.701 580.604 304.985 579.834 305.554C578.828 306.288 578.034 307.36 577.454 308.769C576.874 310.178 576.572 312.186 576.548 314.791C577.318 313.619 578.259 312.748 579.372 312.18C580.486 311.611 581.652 311.327 582.872 311.327C585.004 311.327 586.816 312.115 588.308 313.69C589.812 315.253 590.564 317.279 590.564 319.766C590.564 321.4 590.209 322.922 589.499 324.331C588.8 325.729 587.835 326.801 586.603 327.547C585.371 328.293 583.974 328.666 582.41 328.666C579.746 328.666 577.572 327.689 575.891 325.735C574.209 323.769 573.368 320.535 573.368 316.035C573.368 311.002 574.298 307.342 576.157 305.056C577.78 303.067 579.965 302.072 582.712 302.072C584.761 302.072 586.437 302.646 587.74 303.795C589.054 304.944 589.842 306.531 590.103 308.556ZM577.045 319.783C577.045 320.885 577.276 321.939 577.738 322.946C578.212 323.952 578.869 324.722 579.71 325.255C580.551 325.776 581.433 326.037 582.357 326.037C583.707 326.037 584.868 325.492 585.839 324.402C586.81 323.313 587.296 321.832 587.296 319.961C587.296 318.161 586.816 316.746 585.857 315.715C584.897 314.673 583.689 314.152 582.233 314.152C580.788 314.152 579.562 314.673 578.555 315.715C577.549 316.746 577.045 318.102 577.045 319.783ZM593.371 322.59L596.533 322.093C596.711 323.36 597.203 324.331 598.008 325.006C598.825 325.681 599.962 326.019 601.419 326.019C602.887 326.019 603.977 325.723 604.688 325.131C605.398 324.527 605.754 323.822 605.754 323.017C605.754 322.294 605.44 321.726 604.812 321.311C604.374 321.027 603.284 320.666 601.543 320.228C599.198 319.635 597.57 319.126 596.658 318.7C595.758 318.262 595.071 317.663 594.597 316.905C594.135 316.136 593.904 315.289 593.904 314.365C593.904 313.524 594.094 312.748 594.473 312.038C594.864 311.315 595.391 310.717 596.054 310.244C596.551 309.876 597.226 309.569 598.079 309.32C598.944 309.059 599.867 308.929 600.85 308.929C602.331 308.929 603.628 309.142 604.741 309.569C605.866 309.995 606.695 310.575 607.228 311.309C607.761 312.032 608.128 313.003 608.329 314.223L605.203 314.649C605.061 313.678 604.646 312.92 603.959 312.375C603.284 311.831 602.325 311.558 601.081 311.558C599.613 311.558 598.565 311.801 597.937 312.287C597.309 312.772 596.995 313.341 596.995 313.992C596.995 314.407 597.126 314.78 597.386 315.111C597.647 315.455 598.055 315.739 598.612 315.964C598.932 316.082 599.873 316.355 601.437 316.781C603.699 317.385 605.274 317.883 606.162 318.273C607.062 318.652 607.767 319.209 608.276 319.943C608.785 320.678 609.04 321.59 609.04 322.679C609.04 323.745 608.726 324.752 608.098 325.699C607.483 326.635 606.588 327.363 605.416 327.884C604.243 328.393 602.917 328.648 601.437 328.648C598.985 328.648 597.114 328.139 595.823 327.12C594.544 326.102 593.727 324.592 593.371 322.59ZM616.324 328.222L610.55 309.355H613.854L616.857 320.245L617.976 324.296C618.023 324.094 618.349 322.798 618.953 320.405L621.955 309.355H625.242L628.066 320.299L629.008 323.905L630.092 320.263L633.325 309.355H636.434L630.536 328.222H627.214L624.211 316.923L623.483 313.708L619.664 328.222H616.324Z" fill="#46C147"/>
<path d="M355 177.525H470.212" stroke="#FF0000" stroke-width="3.03189"/>
<path d="M380 344.525H465" stroke="#FF0000" stroke-width="3.03189"/>
<path d="M425 177.525V344.525" stroke="#FF0000" stroke-width="3.03189"/>
<path d="M425.096 177.525L416 213.908H434.191L425.096 177.525Z" fill="#FF0000"/>
<path d="M425.096 344.525L416 308.142H434.191L425.096 344.525Z" fill="#FF0000"/>
<path d="M453.555 269.223H450.357V248.846C449.587 249.581 448.575 250.315 447.319 251.049C446.076 251.783 444.956 252.334 443.962 252.701V249.61C445.75 248.769 447.313 247.751 448.652 246.555C449.99 245.358 450.937 244.198 451.494 243.073H453.555V269.223ZM461.78 262.348L464.978 261.921C465.345 263.733 465.967 265.042 466.843 265.847C467.731 266.641 468.809 267.038 470.076 267.038C471.58 267.038 472.848 266.517 473.878 265.474C474.92 264.432 475.441 263.141 475.441 261.602C475.441 260.133 474.962 258.925 474.002 257.977C473.043 257.018 471.823 256.539 470.343 256.539C469.739 256.539 468.987 256.657 468.086 256.894L468.442 254.087C468.655 254.111 468.827 254.122 468.957 254.122C470.319 254.122 471.545 253.767 472.634 253.057C473.724 252.346 474.269 251.25 474.269 249.77C474.269 248.598 473.872 247.626 473.078 246.857C472.285 246.087 471.26 245.702 470.005 245.702C468.762 245.702 467.725 246.093 466.896 246.874C466.067 247.656 465.534 248.829 465.297 250.392L462.1 249.823C462.491 247.68 463.379 246.022 464.764 244.849C466.15 243.665 467.873 243.073 469.934 243.073C471.355 243.073 472.664 243.381 473.86 243.996C475.056 244.6 475.968 245.429 476.596 246.484C477.235 247.538 477.555 248.657 477.555 249.841C477.555 250.966 477.253 251.991 476.649 252.914C476.045 253.838 475.151 254.573 473.967 255.117C475.506 255.473 476.703 256.213 477.555 257.338C478.408 258.451 478.834 259.849 478.834 261.53C478.834 263.804 478.005 265.735 476.347 267.322C474.689 268.897 472.593 269.685 470.058 269.685C467.773 269.685 465.872 269.004 464.356 267.642C462.852 266.28 461.993 264.515 461.78 262.348ZM483.809 269.223V265.581H487.45V269.223H483.809ZM502.391 269.223V262.987H491.092V260.056L502.977 243.179H505.588V260.056H509.106V262.987H505.588V269.223H502.391ZM502.391 260.056V248.313L494.237 260.056H502.391ZM512.002 263.591L515.164 263.094C515.341 264.361 515.833 265.332 516.638 266.007C517.455 266.682 518.592 267.02 520.049 267.02C521.518 267.02 522.607 266.724 523.318 266.132C524.028 265.528 524.384 264.823 524.384 264.018C524.384 263.295 524.07 262.727 523.442 262.312C523.004 262.028 521.914 261.667 520.173 261.228C517.829 260.636 516.2 260.127 515.288 259.701C514.388 259.263 513.701 258.664 513.227 257.906C512.765 257.137 512.535 256.29 512.535 255.366C512.535 254.525 512.724 253.749 513.103 253.039C513.494 252.316 514.021 251.718 514.684 251.245C515.182 250.877 515.857 250.569 516.709 250.321C517.574 250.06 518.498 249.93 519.481 249.93C520.961 249.93 522.258 250.143 523.371 250.569C524.496 250.996 525.325 251.576 525.858 252.31C526.391 253.033 526.758 254.004 526.96 255.224L523.833 255.65C523.691 254.679 523.276 253.921 522.59 253.376C521.914 252.832 520.955 252.559 519.712 252.559C518.243 252.559 517.195 252.802 516.567 253.288C515.939 253.773 515.626 254.342 515.626 254.993C515.626 255.407 515.756 255.781 516.016 256.112C516.277 256.456 516.686 256.74 517.242 256.965C517.562 257.083 518.504 257.356 520.067 257.782C522.329 258.386 523.904 258.884 524.792 259.274C525.692 259.653 526.397 260.21 526.906 260.944C527.416 261.679 527.67 262.59 527.67 263.68C527.67 264.746 527.356 265.753 526.729 266.7C526.113 267.636 525.219 268.364 524.046 268.885C522.874 269.394 521.547 269.649 520.067 269.649C517.615 269.649 515.744 269.14 514.453 268.121C513.174 267.103 512.357 265.593 512.002 263.591ZM534.954 269.223L529.18 250.356H532.485L535.487 261.246L536.606 265.297C536.653 265.095 536.979 263.798 537.583 261.406L540.585 250.356H543.872L546.697 261.3L547.638 264.906L548.722 261.264L551.955 250.356H555.064L549.166 269.223H545.844L542.842 257.924L542.113 254.709L538.294 269.223H534.954Z" fill="#FF0000"/>
</g>
<defs>
<clipPath id="clip0_0_1">
<rect width="790" height="715" fill="white"/>
</clipPath>
</defs>
</svg>
