<svg width="2190" height="614" viewBox="0 0 2190 614" fill="none" xmlns="http://www.w3.org/2000/svg">
<path d="M120 131.5C120 110.789 135.228 94 154.012 94H2035.99C2054.77 94 2070 110.789 2070 131.5V556.5C2070 577.211 2054.77 594 2035.99 594H154.012C135.228 594 120 577.211 120 556.5V131.5Z" fill="white"/>
<path d="M138.75 131.5C138.75 121.145 146.35 112.75 155.725 112.75H2034.28C2043.65 112.75 2051.25 121.145 2051.25 131.5V556.5C2051.25 566.855 2043.65 575.25 2034.28 575.25H155.725C146.35 575.25 138.75 566.855 138.75 556.5V131.5Z" fill="#006928"/>
<path d="M1964 154.5H2010.88C2016.05 154.503 2020.25 158.696 2020.25 163.87V257.63C2020.25 262.804 2016.05 266.997 2010.88 267H1917.12C1911.95 266.997 1907.75 262.804 1907.75 257.63V163.87C1907.75 158.696 1911.95 154.503 1917.12 154.5H1964Z" fill="#FF0000"/>
<path d="M1964 157.625H1917.12C1913.67 157.625 1910.88 160.423 1910.88 163.875V257.625C1910.88 261.077 1913.67 263.875 1917.12 263.875H2010.88C2014.33 263.875 2017.12 261.077 2017.12 257.625V163.875C2017.12 160.423 2014.33 157.625 2010.88 157.625H1964Z" fill="white"/>
<path d="M1967.12 170.125H1973.38L1976.15 188.875H1967.12V170.125Z" fill="#FF0000"/>
<path d="M1960.88 170.125V188.875H1951.85L1954.62 170.125H1960.88Z" fill="#FF0000"/>
<path d="M1964 195.125H2007.75V201.375H2001.49C1999.77 201.378 1998.38 202.773 1998.38 204.495V213.875H1992.12L1989.59 203.745C1989.24 202.353 1987.99 201.376 1986.56 201.375H1941.44C1940.01 201.376 1938.76 202.353 1938.41 203.745L1935.88 213.875H1929.62V204.495C1929.62 202.773 1928.23 201.378 1926.51 201.375H1920.25V195.125H1964Z" fill="#FF0000"/>
<path d="M1967.12 207.625H1978.93L1982.75 254.5H1967.12V207.625Z" fill="#FF0000"/>
<path d="M1960.88 207.625V254.5H1945.25L1949.08 207.625H1960.88Z" fill="#FF0000"/>
<path d="M776.49 433.5H832.74V471C833.85 506.083 810.48 537.243 776.49 546C742.5 537.243 719.13 506.083 720.24 471V433.5H776.49Z" fill="#E9B500"/>
<path d="M772.579 449.904C787.236 449.629 796.294 455.871 799.751 468.631L800.302 468.998L800.486 469.916L800.669 470.65L800.853 471.385L801.037 471.752L801.404 473.404V474.322C801.526 474.506 801.587 474.689 801.587 474.873L801.954 476.893L802.322 480.014L802.689 482.951C803.729 505.839 796.263 518.813 780.29 521.873C764.624 524.076 755.016 519.18 751.466 507.186L755.322 505.9C755.444 505.747 755.566 505.686 755.689 505.717L757.341 504.982C758.106 504.768 758.718 504.523 759.177 504.248L759.728 504.064H760.279C760.401 503.911 760.523 503.85 760.646 503.881L761.197 503.697L764.134 502.412H764.869C766.857 507.92 770.835 510.184 776.802 509.205C783.136 507.767 786.869 503.789 788.001 497.271L788.185 494.334C779.984 499.597 771.723 500.76 763.4 497.822C755.107 494.212 750.701 488.214 750.181 479.83C748.437 461.318 755.903 451.342 772.579 449.904ZM774.048 463.123C769.244 464.316 766.123 467.07 764.685 471.385C763.43 480.228 766.796 485.368 774.783 486.807C783.167 485.95 787.206 481.482 786.9 473.404C785.278 466.366 780.994 462.939 774.048 463.123Z" fill="black"/>
<path d="M407.551 232.028V161.898H419.671V193.108L420.401 192.188L421.501 191.088C421.627 190.874 421.751 190.751 421.871 190.718L422.051 190.348L422.421 189.988L424.811 187.228L425.731 186.318L425.911 185.758L427.011 184.848L427.201 184.478L429.211 182.088L429.951 181.168L431.971 178.968L432.701 178.238L433.251 177.318C433.591 176.891 433.921 176.531 434.241 176.238C434.561 175.944 434.844 175.691 435.091 175.478C435.644 174.498 436.257 173.764 436.931 173.278L438.761 170.888L439.311 170.338L439.861 169.608L441.331 168.138L442.981 166.118L443.351 165.748C443.477 165.534 443.601 165.414 443.721 165.388L443.901 165.018L444.271 164.648L446.661 161.898H460.791C460.031 163.211 459.174 164.251 458.221 165.018C457.981 165.444 457.674 165.811 457.301 166.118L456.571 167.218L455.101 168.688L454.001 170.158L453.631 170.528C453.417 170.801 453.204 171.044 452.991 171.258C452.777 171.471 452.564 171.654 452.351 171.808C451.617 173.034 450.821 173.954 449.961 174.568L449.411 175.298L447.391 177.868L446.841 178.418C446.474 178.818 446.154 179.178 445.881 179.498C445.601 179.818 445.371 180.131 445.191 180.438L444.641 180.808L444.091 181.358L443.721 182.088L442.801 183.008L442.431 183.558L442.071 183.928L441.701 184.478L441.151 184.848L440.961 185.208L440.601 185.578C439.314 187.231 438.211 188.454 437.291 189.248C437.964 190.721 438.577 191.824 439.131 192.558L439.681 193.838C439.954 194.118 440.137 194.424 440.231 194.758L440.961 195.678L441.701 196.958L442.071 197.698L442.431 198.248L442.801 198.978L442.981 199.528L443.351 199.718L443.541 200.448C443.661 200.541 443.721 200.634 443.721 200.728V200.818C444.547 201.671 445.097 202.588 445.371 203.568L446.111 204.858L446.471 205.228L448.311 208.348L449.041 209.628L449.591 210.918L450.331 211.838L450.511 212.388C450.817 212.781 451.077 213.161 451.291 213.528C451.504 213.894 451.674 214.248 451.801 214.588L452.351 215.318L452.711 216.238L453.271 216.978L454.551 219.178L455.291 220.278L455.471 221.008L456.021 221.748L456.201 222.298C456.414 222.451 456.537 222.634 456.571 222.848L456.941 223.588C457.554 224.254 457.981 224.988 458.221 225.788C458.987 226.581 459.477 227.374 459.691 228.168L460.061 228.538L461.891 232.028H448.311L447.761 230.748L447.211 230.188L446.841 229.458L446.111 228.168L445.921 227.618L445.551 227.258L445.371 226.888C445.124 226.461 444.904 226.078 444.711 225.738C444.511 225.404 444.304 225.114 444.091 224.868L443.901 224.318L443.541 223.588L442.801 222.478L442.251 221.378L441.701 220.458L440.961 219.358L440.411 218.438L440.231 218.078C439.464 216.851 438.914 215.811 438.581 214.958C438.307 214.618 438.124 214.311 438.031 214.038C437.971 213.978 437.924 213.924 437.891 213.878C437.857 213.831 437.841 213.778 437.841 213.718V213.668C436.894 212.448 436.221 211.348 435.821 210.368L435.641 209.818C434.847 208.864 434.297 208.068 433.991 207.428L433.801 206.688L433.441 206.138L432.891 205.408L432.701 204.858L431.971 203.758L431.791 203.208L431.421 202.838L431.231 202.468L431.051 201.918L430.681 201.738C430.194 200.664 429.704 199.744 429.211 198.978L428.851 199.348L428.661 199.718C428.141 200.144 427.774 200.571 427.561 200.998L427.011 201.368L425.361 203.568L424.631 204.118L423.891 205.228L423.341 205.588C422.727 206.568 422.114 207.304 421.501 207.798C420.921 208.624 420.311 209.298 419.671 209.818V232.028" fill="white"/>
<path d="M513.093 191.644C515.2 196.691 516.253 201.664 516.253 206.564C516.253 209.557 515.873 212.477 515.113 215.324C513 224.444 507.673 230.137 499.133 232.404C497.88 232.737 496.656 232.974 495.463 233.114C494.27 233.254 493.093 233.337 491.933 233.364C487.4 233.364 483.253 232.124 479.493 229.644C472.426 224.717 468.693 218.171 468.293 210.004C468.26 209.577 468.243 209.157 468.243 208.744C468.243 208.331 468.243 207.924 468.243 207.524C468.243 192.224 475.236 183.014 489.223 179.894C489.496 179.861 489.77 179.844 490.043 179.844C490.323 179.844 490.6 179.844 490.873 179.844C500.786 179.844 508.193 183.777 513.093 191.644ZM479.673 209.084C480.686 217.284 484.85 221.751 492.163 222.484C499.656 221.784 503.816 217.867 504.643 210.734C504.763 209.821 504.87 208.934 504.963 208.074C505.056 207.221 505.086 206.394 505.053 205.594C505.053 196.327 500.45 191.371 491.243 190.724C483.436 192.651 479.533 197.837 479.533 206.284C479.533 207.171 479.58 208.104 479.673 209.084Z" fill="white"/>
<path d="M525.453 181.909H537.023L537.203 183.009C537.416 183.589 537.586 184.116 537.713 184.589C537.833 185.069 537.91 185.523 537.943 185.949C538.31 186.956 538.493 187.813 538.493 188.519L538.673 189.249C538.8 189.403 538.863 189.586 538.863 189.799L539.963 194.209L540.323 196.049L540.693 196.959V197.509C540.906 198.096 541.076 198.649 541.203 199.169C541.323 199.689 541.4 200.179 541.433 200.639L541.613 201.549C542.1 202.656 542.343 203.696 542.343 204.669L542.533 205.409L542.893 206.139L543.083 207.429C543.33 208.069 543.453 208.619 543.453 209.079V209.259L543.813 210.729C543.94 210.823 544.003 210.916 544.003 211.009V211.099L544.913 215.319L545.103 214.959L545.463 213.849C545.616 212.936 545.803 212.203 546.023 211.649L546.203 210.369C546.356 209.509 546.54 208.836 546.753 208.349C546.786 208.009 546.823 207.679 546.863 207.359C546.91 207.039 546.996 206.756 547.123 206.509V205.959L547.303 205.589L547.853 202.839L548.223 201.739L548.403 200.639C548.71 199.626 548.893 198.769 548.953 198.069L549.323 197.329V196.409L549.503 195.679L550.243 193.289V192.559C550.576 191.639 550.76 190.843 550.793 190.169C551.1 189.163 551.283 188.306 551.343 187.599L551.523 187.049L551.713 186.129L551.893 185.579L552.633 182.089L553.733 181.909H565.113L565.483 183.189V183.749L566.393 187.049L566.763 189.249L567.313 191.089L567.683 193.289C567.93 193.869 568.096 194.406 568.183 194.899C568.276 195.386 568.353 195.829 568.413 196.229L568.603 197.329C568.723 197.483 568.783 197.666 568.783 197.879L570.073 203.209L570.253 203.939V204.669L570.623 205.779L570.803 207.059L571.723 210.179L572.453 214.039C572.64 214.499 572.823 214.866 573.003 215.139L573.373 213.669V213.119L573.553 212.569L574.293 209.079L574.663 207.799L574.843 206.689L575.023 206.139L575.213 205.779C575.366 204.859 575.55 204.123 575.763 203.569V203.019L576.133 201.739L576.863 198.429L577.233 197.699V196.779L577.593 196.049L577.783 194.939L577.963 194.029L578.143 193.479L578.883 189.989L579.063 189.619L579.613 187.419L579.803 186.869V186.129L580.533 183.929C580.566 183.563 580.606 183.209 580.653 182.869C580.693 182.536 580.776 182.216 580.903 181.909H592.463L592.103 183.009L591.913 184.299L591.733 184.659L590.453 189.619L590.263 189.989L589.343 193.659L588.983 194.759L587.883 198.979L587.513 200.269L586.963 201.549L586.773 202.839L586.413 204.309L586.223 204.669L585.863 205.779L584.753 210.179L584.573 210.729L584.393 211.099L583.293 215.319L583.103 215.869C582.796 217.309 582.43 218.473 582.003 219.359L581.823 220.099L581.633 221.379L581.273 222.479L580.353 225.789L579.983 227.259L579.803 227.619L578.703 231.849H566.213L565.843 230.559L565.663 229.089L565.483 228.539V227.989C565.176 227.289 564.993 226.556 564.933 225.789C564.626 224.809 564.443 223.889 564.383 223.029L564.013 221.929V221.379C563.586 220.313 563.34 219.273 563.273 218.259L563.093 217.339L562.723 216.239L562.543 214.959L562.173 213.849L561.993 213.119V212.389C561.566 211.316 561.32 210.273 561.253 209.259L560.703 207.429V206.689C560.43 206.016 560.246 205.406 560.153 204.859C559.973 203.539 559.73 202.499 559.423 201.739C559.27 200.639 559.023 199.719 558.683 198.979C558.563 199.839 558.45 200.599 558.343 201.259C558.236 201.913 558.106 202.499 557.953 203.019L557.403 205.589L557.033 207.059L556.303 210.919L555.933 211.839L555.753 213.119L555.203 215.689L555.013 216.789L554.643 217.529L554.463 218.439C554.403 218.899 554.343 219.313 554.283 219.679C554.223 220.046 554.16 220.369 554.093 220.649L553.733 222.479L553.543 223.219L553.363 224.139L553.183 224.689L552.993 225.969L552.813 226.519L552.443 227.809V228.359C552.23 229.126 552.106 229.736 552.073 230.189C551.953 230.496 551.87 230.789 551.823 231.069C551.776 231.343 551.74 231.603 551.713 231.849H539.223C538.736 230.349 538.43 229.123 538.303 228.169C537.97 227.563 537.786 227.076 537.753 226.709V226.159C537.693 226.093 537.65 226.036 537.623 225.989C537.59 225.949 537.573 225.896 537.573 225.829V225.789L536.653 222.849C536.5 222.176 536.346 221.563 536.193 221.009C536.04 220.463 535.886 219.976 535.733 219.549L535.553 218.259C535.246 217.586 535.063 216.913 535.003 216.239C534.943 216.179 534.896 216.126 534.863 216.079C534.836 216.033 534.823 215.979 534.823 215.919V215.869C534.61 215.289 534.44 214.769 534.313 214.309C534.193 213.856 534.116 213.459 534.083 213.119L533.353 210.549L533.163 209.629C533.043 209.476 532.983 209.293 532.983 209.079C532.65 208.466 532.466 207.976 532.433 207.609V207.059C532.373 206.999 532.326 206.946 532.293 206.899C532.266 206.853 532.253 206.799 532.253 206.739V206.689L531.333 203.759C531.206 203.053 531.07 202.416 530.923 201.849C530.77 201.283 530.6 200.756 530.413 200.269L530.233 199.169L529.863 198.249L529.683 197.329L529.493 196.959V196.409C529.126 195.709 528.943 195.099 528.943 194.579L528.573 193.839L528.393 192.919L527.843 190.909L527.663 190.169L527.473 189.619L527.293 188.519C527.173 188.366 527.113 188.183 527.113 187.969L526.923 187.419L526.373 185.949V185.399C525.853 183.959 525.546 182.796 525.453 181.909Z" fill="white"/>
<path d="M603.359 222.85V161.53H614.559V212.39C614.526 212.784 614.509 213.164 614.509 213.53V214.59C614.509 216.67 614.649 218.444 614.929 219.91C616.243 221.597 618.259 222.44 620.979 222.44C622.146 222.44 623.493 222.27 625.019 221.93V223.03L625.209 223.59L625.569 226.16V227.26L625.759 227.62V228.73L626.309 231.85C622.909 232.677 619.879 233.09 617.219 233.09C610.119 233.09 605.559 230.167 603.539 224.32C603.513 224.014 603.489 223.737 603.469 223.49C603.456 223.25 603.419 223.037 603.359 222.85Z" fill="white"/>
<path d="M676.593 191.644C678.7 196.691 679.753 201.664 679.753 206.564C679.753 209.557 679.373 212.477 678.613 215.324C676.5 224.444 671.173 230.137 662.633 232.404C661.38 232.737 660.157 232.974 658.963 233.114C657.77 233.254 656.593 233.337 655.433 233.364C650.9 233.364 646.753 232.124 642.993 229.644C635.927 224.717 632.193 218.171 631.793 210.004C631.76 209.577 631.743 209.157 631.743 208.744C631.743 208.331 631.743 207.924 631.743 207.524C631.743 192.224 638.737 183.014 652.723 179.894C652.997 179.861 653.27 179.844 653.543 179.844C653.823 179.844 654.1 179.844 654.373 179.844C664.287 179.844 671.693 183.777 676.593 191.644ZM643.173 209.084C644.187 217.284 648.35 221.751 655.663 222.484C663.157 221.784 667.317 217.867 668.143 210.734C668.263 209.821 668.37 208.934 668.463 208.074C668.557 207.221 668.587 206.394 668.553 205.594C668.553 196.327 663.95 191.371 654.743 190.724C646.937 192.651 643.033 197.837 643.033 206.284C643.033 207.171 643.08 208.104 643.173 209.084Z" fill="white"/>
<path d="M735.593 191.644C737.7 196.691 738.753 201.664 738.753 206.564C738.753 209.557 738.373 212.477 737.613 215.324C735.5 224.444 730.173 230.137 721.633 232.404C720.38 232.737 719.157 232.974 717.963 233.114C716.77 233.254 715.593 233.337 714.433 233.364C709.9 233.364 705.753 232.124 701.993 229.644C694.927 224.717 691.193 218.171 690.793 210.004C690.76 209.577 690.743 209.157 690.743 208.744C690.743 208.331 690.743 207.924 690.743 207.524C690.743 192.224 697.737 183.014 711.723 179.894C711.997 179.861 712.27 179.844 712.543 179.844C712.823 179.844 713.1 179.844 713.373 179.844C723.287 179.844 730.693 183.777 735.593 191.644ZM702.173 209.084C703.187 217.284 707.35 221.751 714.663 222.484C722.157 221.784 726.317 217.867 727.143 210.734C727.263 209.821 727.37 208.934 727.463 208.074C727.557 207.221 727.587 206.394 727.553 205.594C727.553 196.327 722.95 191.371 713.743 190.724C705.937 192.651 702.033 197.837 702.033 206.284C702.033 207.171 702.08 208.104 702.173 209.084Z" fill="white"/>
<path d="M793.3 190.537V191.087C793.7 191.82 793.947 192.554 794.04 193.287V231.657H782.84V199.167L782.65 198.067C781.124 193.44 778.554 191.127 774.94 191.127C773.84 191.127 772.617 191.357 771.27 191.817C768.21 193.137 766.007 195.22 764.66 198.067L763.93 201.187V231.657H752.91V181.537H763.93V185.757C767.357 182.697 771.09 180.864 775.13 180.257H775.95C784.15 180.257 789.934 183.684 793.3 190.537Z" fill="white"/>
<path d="M835.391 157.464L835.941 157.834L836.311 158.574L837.601 160.404L837.961 160.954L838.151 161.504L838.511 161.694L838.881 162.244C839.461 163.097 839.967 163.891 840.401 164.624C840.827 165.364 841.177 166.037 841.451 166.644C828.171 175.704 821.257 187.637 820.711 202.444V202.634C820.711 220.014 827.624 233.294 841.451 242.474L841.081 243.024L840.721 243.754L840.171 244.304C839.771 245.131 839.341 245.744 838.881 246.144C838.634 246.631 838.391 246.997 838.151 247.244C837.324 248.957 836.404 250.304 835.391 251.284C817.584 239.351 808.681 223.761 808.681 204.514C808.681 204.421 808.681 204.197 808.681 203.844C808.681 203.497 808.687 203.131 808.701 202.744C808.721 202.364 808.737 201.997 808.751 201.644C808.764 201.291 808.771 201.071 808.771 200.984C810.764 181.277 819.637 166.771 835.391 157.464Z" fill="white"/>
<path d="M859.941 162.084V161.714H872.611L872.791 163.004L872.981 163.554L873.341 164.844L873.711 167.044L874.261 168.874L874.631 171.084L875.181 172.914L875.361 174.384C875.575 174.904 875.698 175.334 875.731 175.674L875.911 176.404L876.281 177.504V178.244C876.401 178.337 876.461 178.427 876.461 178.514V179.164C876.801 179.837 876.988 180.571 877.021 181.364L877.381 182.464L877.751 183.754L878.121 185.954L878.671 187.784L878.851 188.894L879.951 193.484C880.045 193.911 880.131 194.301 880.211 194.654C880.285 195.001 880.321 195.344 880.321 195.684L880.691 196.414V197.154L881.051 198.074V198.804L881.421 199.534V200.274C881.761 201.194 881.945 201.991 881.971 202.664L882.161 203.394C882.375 204.007 882.541 204.574 882.661 205.094C882.781 205.614 882.858 206.087 882.891 206.514L883.261 207.984L883.631 209.264L883.991 208.164L884.731 204.494L885.091 203.574L885.281 202.474L885.831 199.904L886.201 198.624V198.074L886.931 195.134L887.111 194.034L887.481 193.294L887.661 192.564L887.851 191.644V190.914L888.031 190.354L888.771 187.424L889.131 185.214L889.321 184.484L889.681 183.754C889.748 182.774 889.931 181.914 890.231 181.174L890.421 180.264V179.714L890.791 178.244L890.971 177.694L891.521 175.304L891.701 174.204L892.071 173.104L892.251 172.184L892.801 169.794L892.991 168.874L893.171 168.514C893.205 168.174 893.245 167.844 893.291 167.524C893.338 167.204 893.421 166.921 893.541 166.674L893.721 166.124V165.574L893.911 164.844L894.091 164.284L894.641 161.714H908.231V162.264C908.658 163.337 908.901 164.381 908.961 165.394L909.331 166.854L909.511 167.414L910.251 170.714L910.611 172.184C910.858 173.071 910.981 173.804 910.981 174.384C911.195 174.904 911.318 175.334 911.351 175.674L911.711 176.954L911.901 178.244L912.081 178.974L912.271 179.524C912.358 179.924 912.435 180.284 912.501 180.604C912.561 180.924 912.605 181.237 912.631 181.544C912.878 182.124 913.048 182.661 913.141 183.154C913.235 183.641 913.311 184.084 913.371 184.484L913.551 185.584L913.921 186.504L914.101 187.604V188.154C914.408 188.887 914.591 189.561 914.651 190.174L914.841 191.274C915.141 192.007 915.325 192.681 915.391 193.294L915.571 194.214L916.121 196.234V196.964C916.241 197.244 916.301 197.551 916.301 197.884C916.641 198.591 916.828 199.204 916.861 199.724L917.041 200.644L917.221 201.744L917.411 202.474C917.718 203.421 917.901 204.277 917.961 205.044C918.081 205.137 918.141 205.231 918.141 205.324V205.964C918.568 207.037 918.815 208.077 918.881 209.084C919.061 209.024 919.181 208.901 919.241 208.714C919.395 207.954 919.548 207.291 919.701 206.724C919.855 206.157 920.008 205.661 920.161 205.234V204.494C920.561 203.394 920.805 202.414 920.891 201.554L921.261 200.274L922.001 197.334L922.181 195.864L922.551 194.584L922.731 194.034V193.484C922.945 192.897 923.115 192.367 923.241 191.894C923.361 191.421 923.435 190.971 923.461 190.544L923.831 189.254L925.301 183.194L925.851 180.264L926.221 178.794C926.555 177.907 926.738 177.174 926.771 176.594L926.951 175.674L927.321 174.204C927.595 173.317 927.778 172.584 927.871 172.004L928.051 171.264L928.611 168.694L928.971 167.594V167.044L929.521 165.574V164.844L929.711 164.284L930.261 161.714H942.741L942.011 165.394L941.461 167.594L941.271 168.144L940.721 170.714L940.361 172.184L939.991 173.464L939.251 177.144L938.891 178.424L938.151 181.914L937.791 183.194L937.601 183.754L937.231 185.764L937.051 186.134L936.871 187.424C936.565 188.431 936.381 189.287 936.321 189.994L935.581 192.194L935.401 193.484L935.211 194.214L935.031 194.764L934.851 196.054L934.661 196.604L933.561 201.194L933.381 202.474L933.011 203.764L932.091 207.434L931.911 208.714L930.811 213.304L930.261 215.874C929.921 216.794 929.738 217.591 929.711 218.264L928.971 220.654V221.384C928.638 222.304 928.455 223.101 928.421 223.774C928.115 224.781 927.931 225.637 927.871 226.344L927.501 227.624L927.321 227.994L927.141 229.284C926.835 230.291 926.651 231.147 926.591 231.854H913.001L912.821 230.384C912.608 229.864 912.485 229.434 912.451 229.094L912.081 227.624L911.901 226.344L911.531 225.054C911.438 224.687 911.361 224.337 911.301 224.004C911.241 223.664 911.195 223.341 911.161 223.034L910.981 222.304L910.801 221.384C910.675 221.231 910.611 221.047 910.611 220.834L910.431 219.914L910.251 219.364C910.158 218.971 910.081 218.611 910.021 218.284C909.955 217.964 909.908 217.651 909.881 217.344C909.668 216.764 909.508 216.231 909.401 215.744C909.295 215.251 909.208 214.807 909.141 214.414L908.961 213.674L908.781 212.754C908.655 212.387 908.568 212.037 908.521 211.704C908.481 211.364 908.445 211.041 908.411 210.734C908.198 210.127 908.031 209.547 907.911 208.994C907.785 208.441 907.708 207.921 907.681 207.434C907.555 207.281 907.491 207.097 907.491 206.884L907.311 206.144L907.131 205.594C907.038 204.954 906.915 204.344 906.761 203.764L906.391 202.104L906.211 201.004L905.841 200.094L905.471 197.884L905.291 197.334V196.784C904.985 196.051 904.801 195.377 904.741 194.764L904.371 192.564L904.001 191.644L903.641 190.174V189.444C903.275 188.431 903.091 187.574 903.091 186.874C902.965 186.721 902.901 186.537 902.901 186.324L902.721 185.764V185.214C902.415 184.514 902.231 183.781 902.171 183.014C901.865 182.034 901.681 181.117 901.621 180.264L901.251 180.994L901.071 182.094L900.521 184.484L900.151 186.504L899.961 187.054L899.231 190.174L899.051 190.914L898.681 192.744L898.501 193.484L898.131 195.504L897.951 196.054L897.211 199.534L896.841 200.824L896.661 202.104C896.328 203.024 896.145 203.821 896.111 204.494L895.931 204.864L895.741 205.964L895.561 206.514L894.641 211.104L894.461 211.654L893.721 215.144L893.541 215.874L893.361 216.794L893.171 217.344L892.441 220.834L892.071 222.304L891.701 224.144L891.521 224.504L891.151 226.164L890.971 226.894L890.791 228.174C890.571 228.941 890.448 229.554 890.421 230.014C890.295 230.321 890.211 230.611 890.171 230.884C890.125 231.164 890.085 231.424 890.051 231.664C889.625 231.731 889.235 231.784 888.881 231.824C888.528 231.871 888.185 231.894 887.851 231.894H887.391C887.238 231.894 887.085 231.881 886.931 231.854H876.281V231.114C875.855 230.014 875.611 228.974 875.551 227.994C875.425 227.841 875.361 227.657 875.361 227.444L875.181 226.524C874.508 224.351 874.078 222.514 873.891 221.014L873.711 220.464L872.791 216.984L872.611 215.514L871.141 209.824V209.084C870.835 208.384 870.651 207.651 870.591 206.884L870.221 205.784L869.861 204.494V203.944L868.941 200.274V199.724L868.751 198.984L868.391 198.254L868.201 196.784C867.961 196.051 867.765 195.377 867.611 194.764C867.458 194.151 867.351 193.601 867.291 193.114L867.101 192.564V192.014C866.981 191.861 866.921 191.677 866.921 191.464L866.551 189.994L866.371 189.444C866.245 188.797 866.128 188.214 866.021 187.694C865.915 187.174 865.785 186.717 865.631 186.324L865.451 185.034C865.238 184.421 865.068 183.854 864.941 183.334C864.821 182.814 864.745 182.341 864.711 181.914L864.531 180.994C864.411 180.841 864.351 180.657 864.351 180.444L863.431 176.774L863.061 175.484L862.881 174.574L862.701 173.834L862.511 172.554C862.265 171.907 862.141 171.354 862.141 170.894V170.714L861.781 169.794L861.591 169.064C861.471 168.177 861.288 167.441 861.041 166.854V166.124C860.921 165.971 860.861 165.787 860.861 165.574" fill="white"/>
<path d="M991.098 207.594C989.231 227.234 980.358 241.797 964.478 251.284C963.525 250.364 962.851 249.384 962.458 248.344C962.245 248.224 962.121 248.104 962.088 247.984L960.988 246.514L960.798 245.964L960.438 245.594L958.418 242.474C972.278 232.374 979.208 219.674 979.208 204.374C979.208 204.041 979.208 203.721 979.208 203.414C979.208 203.107 979.191 202.784 979.158 202.444C978.551 194.337 976.518 187.324 973.058 181.404C969.598 175.484 964.718 170.564 958.418 166.644L958.598 165.914L959.148 165.364C959.455 164.657 959.821 164.044 960.248 163.524L960.618 162.794L960.988 162.424L961.358 161.694L961.718 161.504L962.088 160.954C962.855 159.487 963.588 158.324 964.288 157.464C982.221 169.064 991.188 184.547 991.188 203.914C991.188 204.527 991.188 205.141 991.188 205.754C991.188 206.367 991.158 206.981 991.098 207.594Z" fill="white"/>
<path d="M1015.14 228.732C1015.08 236.932 1011.2 241.032 1003.48 241.032H1002.84V240.482L1002.66 237.172C1005.11 237.172 1007.13 236.439 1008.71 234.972C1008.71 234.299 1008.59 233.685 1008.35 233.132C1004.43 232.672 1002.17 230.715 1001.55 227.262C1001.93 223.922 1003.64 221.962 1006.7 221.382C1011.75 221.442 1014.56 223.892 1015.14 228.732Z" fill="white"/>
<path d="M1050.77 172.55V161.53H1101.44V172.55H1082.16V231.85H1070.05V172.55" fill="white"/>
<path d="M1144.16 187.777L1143.61 188.517L1143.06 189.067L1142.51 189.437L1141.77 190.537L1141.41 190.907L1141.04 191.087C1140.64 191.64 1140.27 192.067 1139.94 192.367L1137.55 195.127C1132.47 191.854 1128.26 190.217 1124.93 190.217C1121.5 190.217 1118.98 191.914 1117.36 195.307C1117.42 197.3 1118.21 198.77 1119.74 199.717C1120.41 199.897 1120.9 200.08 1121.21 200.267C1122.4 200.447 1123.38 200.69 1124.15 200.997C1135.74 201.857 1142.23 206.51 1143.61 214.957C1143.67 215.324 1143.7 215.68 1143.7 216.027C1143.7 216.38 1143.7 216.727 1143.7 217.067C1143.7 223.214 1141.1 227.834 1135.9 230.927C1132.17 232.607 1128.42 233.447 1124.65 233.447C1117.49 233.447 1110.35 230.404 1103.22 224.317L1103.59 223.587L1104.5 222.667C1105.11 221.934 1105.67 221.38 1106.16 221.007C1106.28 220.794 1106.4 220.674 1106.52 220.647L1106.89 220.097C1107.01 219.884 1107.13 219.76 1107.26 219.727L1107.44 219.357L1107.81 219.177L1110.2 216.417C1114.73 220.704 1119.47 222.847 1124.42 222.847C1126.5 222.847 1128.61 222.48 1130.76 221.747C1131.31 221.014 1131.86 220.464 1132.41 220.097C1132.6 219.364 1132.69 218.674 1132.69 218.027C1132.69 216.434 1132.17 215.104 1131.13 214.037L1126.9 212.567C1114.29 211.8 1107.44 206.414 1106.34 196.407C1107.17 186.34 1112.86 180.957 1123.41 180.257H1124.06C1132.17 180.257 1138.87 182.764 1144.16 187.777Z" fill="white"/>
<path d="M1156.54 217.526V181.726H1167.56V213.486C1167.68 213.639 1167.74 213.822 1167.74 214.036C1167.86 214.129 1167.93 214.219 1167.93 214.306V214.406C1168.14 215.779 1168.44 217.002 1168.84 218.076C1170.95 221.009 1173.66 222.476 1176.97 222.476H1177.11C1181.21 221.376 1184.08 219.112 1185.73 215.686V215.136L1186.47 212.936V181.726H1197.67V231.846H1186.47V227.806C1182.06 231.412 1177.67 233.216 1173.3 233.216C1169.9 233.216 1166.45 232.146 1162.97 230.006C1160.12 227.832 1158.16 225.262 1157.09 222.296L1156.91 221.006C1156.63 220.119 1156.5 219.249 1156.5 218.396V217.986C1156.5 217.832 1156.51 217.679 1156.54 217.526Z" fill="white"/>
<path d="M1256.09 202.294L1256.27 205.044C1256.39 205.198 1256.45 205.381 1256.45 205.594V211.104H1222.86C1223.56 217.344 1226.74 221.018 1232.4 222.124C1233.32 222.211 1234.22 222.254 1235.11 222.254C1239.73 222.254 1243.66 220.741 1246.91 217.714C1247.3 218.388 1247.79 218.938 1248.38 219.364L1248.56 219.914L1249.11 220.464C1249.53 220.864 1249.9 221.241 1250.21 221.594C1250.51 221.948 1250.76 222.308 1250.95 222.674C1251.16 222.794 1251.28 222.914 1251.31 223.034L1253.88 225.974C1248.06 230.841 1241.87 233.274 1235.29 233.274C1234.16 233.274 1233.01 233.198 1231.85 233.044C1230.69 232.891 1229.52 232.678 1228.36 232.404C1217.77 228.884 1211.96 221.294 1210.92 209.634C1210.92 209.481 1210.91 209.174 1210.9 208.714C1210.88 208.261 1210.88 207.971 1210.88 207.844C1210.88 191.904 1218.05 182.831 1232.4 180.624C1246.66 181.118 1254.55 188.341 1256.09 202.294ZM1222.67 202.474H1244.89V201.924C1244.76 201.558 1244.7 201.191 1244.7 200.824V200.454C1244.39 199.781 1244.21 199.171 1244.15 198.624C1241.89 193.391 1238.15 190.758 1232.95 190.724C1226.4 192.284 1222.97 196.201 1222.67 202.474Z" fill="white"/>
<path d="M1309.3 190.537V191.087C1309.7 191.82 1309.95 192.554 1310.04 193.287V231.657H1298.84V199.167L1298.65 198.067C1297.12 193.44 1294.55 191.127 1290.94 191.127C1289.84 191.127 1288.62 191.357 1287.27 191.817C1284.21 193.137 1282.01 195.22 1280.66 198.067L1279.93 201.187V231.657H1268.91V181.537H1279.93V185.757C1283.36 182.697 1287.09 180.864 1291.13 180.257H1291.95C1300.15 180.257 1305.93 183.684 1309.3 190.537Z" fill="white"/>
<path d="M1348.44 162.084V161.714H1361.11L1361.29 163.004L1361.48 163.554L1361.84 164.844L1362.21 167.044L1362.76 168.874L1363.13 171.084L1363.68 172.914L1363.86 174.384C1364.07 174.904 1364.2 175.334 1364.23 175.674L1364.41 176.404L1364.78 177.504V178.244C1364.9 178.337 1364.96 178.427 1364.96 178.514V179.164C1365.3 179.837 1365.49 180.571 1365.52 181.364L1365.88 182.464L1366.25 183.754L1366.62 185.954L1367.17 187.784L1367.35 188.894L1368.45 193.484C1368.54 193.911 1368.63 194.301 1368.71 194.654C1368.78 195.001 1368.82 195.344 1368.82 195.684L1369.19 196.414V197.154L1369.55 198.074V198.804L1369.92 199.534V200.274C1370.26 201.194 1370.44 201.991 1370.47 202.664L1370.66 203.394C1370.87 204.007 1371.04 204.574 1371.16 205.094C1371.28 205.614 1371.36 206.087 1371.39 206.514L1371.76 207.984L1372.13 209.264L1372.49 208.164L1373.23 204.494L1373.59 203.574L1373.78 202.474L1374.33 199.904L1374.7 198.624V198.074L1375.43 195.134L1375.61 194.034L1375.98 193.294L1376.16 192.564L1376.35 191.644V190.914L1376.53 190.354L1377.27 187.424L1377.63 185.214L1377.82 184.484L1378.18 183.754C1378.25 182.774 1378.43 181.914 1378.73 181.174L1378.92 180.264V179.714L1379.29 178.244L1379.47 177.694L1380.02 175.304L1380.2 174.204L1380.57 173.104L1380.75 172.184L1381.3 169.794L1381.49 168.874L1381.67 168.514C1381.7 168.174 1381.74 167.844 1381.79 167.524C1381.84 167.204 1381.92 166.921 1382.04 166.674L1382.22 166.124V165.574L1382.41 164.844L1382.59 164.284L1383.14 161.714H1396.73V162.264C1397.16 163.337 1397.4 164.381 1397.46 165.394L1397.83 166.854L1398.01 167.414L1398.75 170.714L1399.11 172.184C1399.36 173.071 1399.48 173.804 1399.48 174.384C1399.69 174.904 1399.82 175.334 1399.85 175.674L1400.21 176.954L1400.4 178.244L1400.58 178.974L1400.77 179.524C1400.86 179.924 1400.93 180.284 1401 180.604C1401.06 180.924 1401.1 181.237 1401.13 181.544C1401.38 182.124 1401.55 182.661 1401.64 183.154C1401.73 183.641 1401.81 184.084 1401.87 184.484L1402.05 185.584L1402.42 186.504L1402.6 187.604V188.154C1402.91 188.887 1403.09 189.561 1403.15 190.174L1403.34 191.274C1403.64 192.007 1403.82 192.681 1403.89 193.294L1404.07 194.214L1404.62 196.234V196.964C1404.74 197.244 1404.8 197.551 1404.8 197.884C1405.14 198.591 1405.33 199.204 1405.36 199.724L1405.54 200.644L1405.72 201.744L1405.91 202.474C1406.22 203.421 1406.4 204.277 1406.46 205.044C1406.58 205.137 1406.64 205.231 1406.64 205.324V205.964C1407.07 207.037 1407.31 208.077 1407.38 209.084C1407.56 209.024 1407.68 208.901 1407.74 208.714C1407.89 207.954 1408.05 207.291 1408.2 206.724C1408.35 206.157 1408.51 205.661 1408.66 205.234V204.494C1409.06 203.394 1409.3 202.414 1409.39 201.554L1409.76 200.274L1410.5 197.334L1410.68 195.864L1411.05 194.584L1411.23 194.034V193.484C1411.44 192.897 1411.61 192.367 1411.74 191.894C1411.86 191.421 1411.93 190.971 1411.96 190.544L1412.33 189.254L1413.8 183.194L1414.35 180.264L1414.72 178.794C1415.05 177.907 1415.24 177.174 1415.27 176.594L1415.45 175.674L1415.82 174.204C1416.09 173.317 1416.28 172.584 1416.37 172.004L1416.55 171.264L1417.11 168.694L1417.47 167.594V167.044L1418.02 165.574V164.844L1418.21 164.284L1418.76 161.714H1431.24L1430.51 165.394L1429.96 167.594L1429.77 168.144L1429.22 170.714L1428.86 172.184L1428.49 173.464L1427.75 177.144L1427.39 178.424L1426.65 181.914L1426.29 183.194L1426.1 183.754L1425.73 185.764L1425.55 186.134L1425.37 187.424C1425.06 188.431 1424.88 189.287 1424.82 189.994L1424.08 192.194L1423.9 193.484L1423.71 194.214L1423.53 194.764L1423.35 196.054L1423.16 196.604L1422.06 201.194L1421.88 202.474L1421.51 203.764L1420.59 207.434L1420.41 208.714L1419.31 213.304L1418.76 215.874C1418.42 216.794 1418.24 217.591 1418.21 218.264L1417.47 220.654V221.384C1417.14 222.304 1416.95 223.101 1416.92 223.774C1416.61 224.781 1416.43 225.637 1416.37 226.344L1416 227.624L1415.82 227.994L1415.64 229.284C1415.33 230.291 1415.15 231.147 1415.09 231.854H1401.5L1401.32 230.384C1401.11 229.864 1400.98 229.434 1400.95 229.094L1400.58 227.624L1400.4 226.344L1400.03 225.054C1399.94 224.687 1399.86 224.337 1399.8 224.004C1399.74 223.664 1399.69 223.341 1399.66 223.034L1399.48 222.304L1399.3 221.384C1399.17 221.231 1399.11 221.047 1399.11 220.834L1398.93 219.914L1398.75 219.364C1398.66 218.971 1398.58 218.611 1398.52 218.284C1398.45 217.964 1398.41 217.651 1398.38 217.344C1398.17 216.764 1398.01 216.231 1397.9 215.744C1397.79 215.251 1397.71 214.807 1397.64 214.414L1397.46 213.674L1397.28 212.754C1397.15 212.387 1397.07 212.037 1397.02 211.704C1396.98 211.364 1396.94 211.041 1396.91 210.734C1396.7 210.127 1396.53 209.547 1396.41 208.994C1396.28 208.441 1396.21 207.921 1396.18 207.434C1396.05 207.281 1395.99 207.097 1395.99 206.884L1395.81 206.144L1395.63 205.594C1395.54 204.954 1395.41 204.344 1395.26 203.764L1394.89 202.104L1394.71 201.004L1394.34 200.094L1393.97 197.884L1393.79 197.334V196.784C1393.48 196.051 1393.3 195.377 1393.24 194.764L1392.87 192.564L1392.5 191.644L1392.14 190.174V189.444C1391.77 188.431 1391.59 187.574 1391.59 186.874C1391.46 186.721 1391.4 186.537 1391.4 186.324L1391.22 185.764V185.214C1390.91 184.514 1390.73 183.781 1390.67 183.014C1390.36 182.034 1390.18 181.117 1390.12 180.264L1389.75 180.994L1389.57 182.094L1389.02 184.484L1388.65 186.504L1388.46 187.054L1387.73 190.174L1387.55 190.914L1387.18 192.744L1387 193.484L1386.63 195.504L1386.45 196.054L1385.71 199.534L1385.34 200.824L1385.16 202.104C1384.83 203.024 1384.64 203.821 1384.61 204.494L1384.43 204.864L1384.24 205.964L1384.06 206.514L1383.14 211.104L1382.96 211.654L1382.22 215.144L1382.04 215.874L1381.86 216.794L1381.67 217.344L1380.94 220.834L1380.57 222.304L1380.2 224.144L1380.02 224.504L1379.65 226.164L1379.47 226.894L1379.29 228.174C1379.07 228.941 1378.95 229.554 1378.92 230.014C1378.79 230.321 1378.71 230.611 1378.67 230.884C1378.62 231.164 1378.58 231.424 1378.55 231.664C1378.12 231.731 1377.73 231.784 1377.38 231.824C1377.03 231.871 1376.68 231.894 1376.35 231.894H1375.89C1375.74 231.894 1375.58 231.881 1375.43 231.854H1364.78V231.114C1364.35 230.014 1364.11 228.974 1364.05 227.994C1363.92 227.841 1363.86 227.657 1363.86 227.444L1363.68 226.524C1363.01 224.351 1362.58 222.514 1362.39 221.014L1362.21 220.464L1361.29 216.984L1361.11 215.514L1359.64 209.824V209.084C1359.33 208.384 1359.15 207.651 1359.09 206.884L1358.72 205.784L1358.36 204.494V203.944L1357.44 200.274V199.724L1357.25 198.984L1356.89 198.254L1356.7 196.784C1356.46 196.051 1356.26 195.377 1356.11 194.764C1355.96 194.151 1355.85 193.601 1355.79 193.114L1355.6 192.564V192.014C1355.48 191.861 1355.42 191.677 1355.42 191.464L1355.05 189.994L1354.87 189.444C1354.74 188.797 1354.63 188.214 1354.52 187.694C1354.41 187.174 1354.28 186.717 1354.13 186.324L1353.95 185.034C1353.74 184.421 1353.57 183.854 1353.44 183.334C1353.32 182.814 1353.24 182.341 1353.21 181.914L1353.03 180.994C1352.91 180.841 1352.85 180.657 1352.85 180.444L1351.93 176.774L1351.56 175.484L1351.38 174.574L1351.2 173.834L1351.01 172.554C1350.76 171.907 1350.64 171.354 1350.64 170.894V170.714L1350.28 169.794L1350.09 169.064C1349.97 168.177 1349.79 167.441 1349.54 166.854V166.124C1349.42 165.971 1349.36 165.787 1349.36 165.574" fill="white"/>
<path d="M1474.82 186.135L1475.38 187.235C1476.81 189.015 1477.73 190.851 1478.13 192.745C1478.25 193.538 1478.34 194.281 1478.4 194.975C1478.46 195.661 1478.5 196.265 1478.5 196.785V221.015C1479.62 223.255 1481.27 224.601 1483.45 225.055L1483.09 225.605C1482.96 225.825 1482.84 225.948 1482.72 225.975L1482.54 226.525L1482.17 226.895C1481.86 227.568 1481.49 228.118 1481.07 228.545C1480.63 229.678 1480.08 230.535 1479.41 231.115C1479.13 231.728 1478.87 232.258 1478.63 232.705C1478.39 233.145 1478.16 233.535 1477.95 233.875C1474.37 232.955 1471.55 231.301 1469.5 228.915H1468.95C1465 231.761 1460.93 233.185 1456.74 233.185C1454.47 233.185 1452.24 232.801 1450.04 232.035C1443.46 229.681 1439.48 225.398 1438.11 219.185V218.955C1438.11 207.115 1445.04 201.195 1458.9 201.195H1459.04C1459.31 201.068 1459.61 201.005 1459.95 201.005L1460.5 200.825H1461.79L1462.34 200.645H1462.89L1467.48 200.095C1467.54 199.755 1467.57 199.448 1467.57 199.175V198.255C1467.57 193.141 1464.86 190.585 1459.45 190.585C1455.68 190.585 1450.52 191.855 1443.98 194.395L1443.25 192.745L1442.88 191.645L1442.51 191.275L1442.33 190.915L1441.96 189.805C1441.62 189.258 1441.38 188.708 1441.23 188.155C1440.58 187.301 1440.15 186.445 1439.94 185.585L1440.49 185.405L1440.86 185.215L1441.41 185.035L1441.78 184.665H1442.33C1442.45 184.545 1442.55 184.485 1442.65 184.485H1442.7C1443.8 183.905 1444.77 183.475 1445.63 183.195L1446.55 183.015C1447.22 182.708 1447.83 182.525 1448.39 182.465L1449.86 182.095C1450.92 181.668 1451.96 181.425 1452.98 181.365L1457.02 180.625C1457.62 180.565 1458.21 180.511 1458.78 180.465C1459.34 180.418 1459.9 180.395 1460.46 180.395C1466.3 180.395 1471.08 182.308 1474.82 186.135ZM1463.07 209.455H1461.97C1461.69 209.515 1461.43 209.561 1461.17 209.595C1460.91 209.621 1460.65 209.635 1460.41 209.635H1460.14L1459.4 209.825H1458.85C1458.69 209.945 1458.51 210.005 1458.3 210.005H1457.75L1454.81 210.735H1454.26C1453.4 211.228 1452.67 211.535 1452.06 211.655C1450.07 213.555 1449.08 215.391 1449.08 217.165C1449.08 218.785 1449.89 220.375 1451.51 221.935C1453.86 223.375 1456.15 224.095 1458.39 224.095C1461.23 224.095 1463.96 222.948 1466.56 220.655C1466.8 219.948 1467.05 219.458 1467.3 219.185L1467.48 218.635L1467.3 217.895V209.265H1463.63C1463.47 209.391 1463.29 209.455 1463.07 209.455Z" fill="white"/>
<path d="M1537.3 190.537V191.087C1537.7 191.82 1537.95 192.554 1538.04 193.287V231.657H1526.84V199.167L1526.65 198.067C1525.12 193.44 1522.55 191.127 1518.94 191.127C1517.84 191.127 1516.62 191.357 1515.27 191.817C1512.21 193.137 1510.01 195.22 1508.66 198.067L1507.93 201.187V231.657H1496.91V181.537H1507.93V185.757C1511.36 182.697 1515.09 180.864 1519.13 180.257H1519.95C1528.15 180.257 1533.93 183.684 1537.3 190.537Z" fill="white"/>
<path d="M462.75 155.5H395.75V253.5H462.75V155.5Z" stroke="white" stroke-width="2" stroke-dasharray="5 5"/>
<path d="M521.75 155.5H464.75V253.5H521.75V155.5Z" stroke="white" stroke-width="2" stroke-dasharray="5 5"/>
<path d="M595.25 155.5H523.75V253.5H595.25V155.5Z" stroke="white" stroke-width="2" stroke-dasharray="5 5"/>
<path d="M626.25 155.5H597.25V253.5H626.25V155.5Z" stroke="white" stroke-width="2" stroke-dasharray="5 5"/>
<path d="M685.25 155.5H628.25V253.5H685.25V155.5Z" stroke="white" stroke-width="2" stroke-dasharray="5 5"/>
<path d="M744.25 155.5H687.25V253.5H744.25V155.5Z" stroke="white" stroke-width="2" stroke-dasharray="5 5"/>
<path d="M800.25 155.5H746.25V253.5H800.25V155.5Z" stroke="white" stroke-width="2" stroke-dasharray="5 5"/>
<path d="M852.75 155.5H802.25V253.5H852.75V155.5Z" stroke="white" stroke-width="2" stroke-dasharray="5 5"/>
<path d="M944.25 155.5H854.75V253.5H944.25V155.5Z" stroke="white" stroke-width="2" stroke-dasharray="5 5"/>
<path d="M996.75 155.5H946.25V253.5H996.75V155.5Z" stroke="white" stroke-width="2" stroke-dasharray="5 5"/>
<path d="M1023.25 155.5H998.75V253.5H1023.25V155.5Z" stroke="white" stroke-width="2" stroke-dasharray="5 5"/>
<path d="M1048.25 155.5H1025.25V253.5H1048.25V155.5Z" stroke="white" stroke-width="2" stroke-dasharray="5 5"/>
<path d="M1100.75 155.5H1050.25V253.5H1100.75V155.5Z" stroke="white" stroke-width="2" stroke-dasharray="5 5"/>
<path d="M1148.25 155.5H1102.75V253.5H1148.25V155.5Z" stroke="white" stroke-width="2" stroke-dasharray="5 5"/>
<path d="M1205.75 155.5H1150.25V253.5H1205.75V155.5Z" stroke="white" stroke-width="2" stroke-dasharray="5 5"/>
<path d="M1260.25 155.5H1207.75V253.5H1260.25V155.5Z" stroke="white" stroke-width="2" stroke-dasharray="5 5"/>
<path d="M1316.25 155.5H1262.25V253.5H1316.25V155.5Z" stroke="white" stroke-width="2" stroke-dasharray="5 5"/>
<path d="M1341.25 155.5H1318.25V253.5H1341.25V155.5Z" stroke="white" stroke-width="2" stroke-dasharray="5 5"/>
<path d="M1432.75 155.5H1343.25V253.5H1432.75V155.5Z" stroke="white" stroke-width="2" stroke-dasharray="5 5"/>
<path d="M1488.25 155.5H1434.75V253.5H1488.25V155.5Z" stroke="white" stroke-width="2" stroke-dasharray="5 5"/>
<path d="M1544.25 155.5H1490.25V253.5H1544.25V155.5Z" stroke="white" stroke-width="2" stroke-dasharray="5 5"/>
<path d="M1682.75 154.5C1692.88 163.957 1698.63 177.193 1698.62 191.05V235.75L1792.14 290.19C1794.06 291.308 1795.25 293.365 1795.25 295.59V308.54C1795.25 310.523 1794.31 312.388 1792.71 313.566C1791.12 314.744 1789.06 315.094 1787.16 314.51L1714 292H1698.38V298.25L1692.12 348.25L1728.34 359.39C1730.96 360.198 1732.75 362.624 1732.75 365.37V373.25C1732.75 376.702 1729.95 379.5 1726.5 379.5H1639C1635.55 379.5 1632.75 376.702 1632.75 373.25V365.37C1632.75 362.624 1634.54 360.198 1637.16 359.39L1673.38 348.25L1667.12 298.25V292H1651.5L1578.34 314.51C1576.44 315.094 1574.38 314.744 1572.79 313.566C1571.19 312.388 1570.25 310.523 1570.25 308.54V295.59C1570.25 293.365 1571.44 291.308 1573.36 290.19L1666.88 235.75V191.05C1666.87 177.193 1672.62 163.957 1682.75 154.5Z" fill="white"/>
<path d="M1482.7 446H1520.2V496H1595.2L1482.7 546L1370.2 496H1445.2V446H1482.7Z" fill="white"/>
<path d="M570.702 446H608.202V496H683.202L570.702 546L458.202 496H533.202V446H570.702Z" fill="white"/>
<path d="M1688.49 430.375H1744.74V467.875C1745.85 502.958 1722.48 534.118 1688.49 542.875C1654.5 534.118 1631.13 502.958 1632.24 467.875V430.375H1688.49Z" fill="#E9B500"/>
<path d="M1684.58 446.779C1699.24 446.504 1708.29 452.746 1711.75 465.506L1712.3 465.873L1712.49 466.791L1712.67 467.525L1712.85 468.26L1713.04 468.627L1713.4 470.279V471.197C1713.53 471.381 1713.59 471.564 1713.59 471.748L1713.95 473.768L1714.32 476.889L1714.69 479.826C1715.73 502.714 1708.26 515.688 1692.29 518.748C1676.62 520.951 1667.02 516.055 1663.47 504.061L1667.32 502.775C1667.44 502.622 1667.57 502.561 1667.69 502.592L1669.34 501.857C1670.11 501.643 1670.72 501.398 1671.18 501.123L1671.73 500.939H1672.28C1672.4 500.786 1672.52 500.725 1672.65 500.756L1673.2 500.572L1676.13 499.287H1676.87C1678.86 504.795 1682.84 507.059 1688.8 506.08C1695.14 504.642 1698.87 500.664 1700 494.146L1700.18 491.209C1691.98 496.472 1683.72 497.635 1675.4 494.697C1667.11 491.087 1662.7 485.089 1662.18 476.705C1660.44 458.193 1667.9 448.217 1684.58 446.779ZM1686.05 459.998C1681.24 461.191 1678.12 463.945 1676.68 468.26C1675.43 477.103 1678.8 482.243 1686.78 483.682C1695.17 482.825 1699.21 478.357 1698.9 470.279C1697.28 463.241 1692.99 459.814 1686.05 459.998Z" fill="black"/>
<path d="M1095 409H2032.5V421.5H157.5V409H1095Z" fill="white"/>
<path d="M569.253 263.955H580.733C580.653 272.729 580.483 281.259 580.223 289.545C579.963 297.832 579.229 305.782 578.023 313.395C576.829 321.009 574.883 328.132 572.183 334.765C569.483 341.405 565.693 347.445 560.813 352.885C555.939 358.319 549.679 363.062 542.033 367.115C541.579 366.215 540.903 365.222 540.003 364.135C539.103 363.049 538.146 361.999 537.133 360.985C536.119 359.972 535.163 359.129 534.263 358.455C541.463 354.929 547.313 350.709 551.813 345.795C556.313 340.882 559.763 335.405 562.163 329.365C564.563 323.332 566.253 316.829 567.233 309.855C568.206 302.875 568.766 295.525 568.913 287.805C569.066 280.079 569.179 272.129 569.253 263.955ZM539.663 301.635V290.835H609.083V301.635H539.663ZM603.003 349.905V290.835H614.033V349.905C614.033 352.079 614.236 353.465 614.643 354.065C615.056 354.665 616.053 354.965 617.633 354.965C618.006 354.965 618.643 354.965 619.543 354.965C620.443 354.965 621.416 354.965 622.463 354.965C623.516 354.965 624.509 354.965 625.443 354.965C626.383 354.965 627.039 354.965 627.413 354.965C628.466 354.965 629.236 354.532 629.723 353.665C630.209 352.805 630.583 351.175 630.843 348.775C631.109 346.375 631.279 342.889 631.353 338.315C632.253 338.915 633.283 339.532 634.443 340.165C635.609 340.805 636.809 341.369 638.043 341.855C639.283 342.342 640.429 342.735 641.483 343.035C641.103 348.589 640.483 352.995 639.623 356.255C638.763 359.522 637.469 361.865 635.743 363.285C634.016 364.712 631.576 365.425 628.423 365.425C627.903 365.425 627.059 365.425 625.893 365.425C624.733 365.425 623.479 365.425 622.133 365.425C620.779 365.425 619.523 365.425 618.363 365.425C617.196 365.425 616.389 365.425 615.943 365.425C612.643 365.425 610.053 364.975 608.173 364.075C606.299 363.175 604.969 361.602 604.183 359.355C603.396 357.102 603.003 353.952 603.003 349.905Z" fill="white"/>
<path d="M693.698 276.775V262.605H704.048V276.775H693.698ZM674.688 280.715V271.825H723.178V280.715H674.688ZM672.888 303.885V294.775H724.978V303.885H672.888ZM682.678 331.675V324.585H715.078V331.675H682.678ZM682.678 345.625V338.535H715.078V345.625H682.678ZM681.208 282.065L689.648 280.155C690.621 282.255 691.484 284.579 692.238 287.125C692.984 289.679 693.548 291.855 693.928 293.655L685.038 295.905C684.811 294.105 684.341 291.892 683.628 289.265C682.914 286.639 682.108 284.239 681.208 282.065ZM708.098 279.815L717.658 282.065C716.611 284.612 715.581 287.069 714.568 289.435C713.554 291.795 712.674 293.912 711.928 295.785L703.828 293.655C704.574 291.702 705.378 289.412 706.238 286.785C707.104 284.165 707.724 281.842 708.098 279.815ZM678.738 366.775V310.075H715.518V317.835H688.638V366.775H678.738ZM709.788 355.865V310.075H720.248V356.085C720.248 358.485 719.968 360.399 719.408 361.825C718.841 363.252 717.734 364.379 716.088 365.205C714.434 366.025 712.448 366.512 710.128 366.665C707.801 366.812 705.061 366.885 701.908 366.885C701.608 365.465 701.121 363.855 700.448 362.055C699.774 360.255 699.101 358.715 698.428 357.435C700.601 357.515 702.588 357.572 704.388 357.605C706.188 357.645 707.424 357.629 708.098 357.555C708.698 357.555 709.128 357.442 709.388 357.215C709.654 356.989 709.788 356.539 709.788 355.865ZM734.198 279.585V270.925H775.488V279.585H734.198ZM734.198 324.585V318.065H771.098V324.585H734.198ZM734.758 337.075V330.555H770.418V337.075H734.758ZM733.748 349.675V343.155H771.548V349.675H733.748ZM730.148 292.755V262.605H740.498V292.755H730.148ZM730.148 295.675V287.465H771.098V312.215H730.148V304.115H760.748V295.675H730.148ZM730.148 352.935V308.385H740.498V352.935C740.498 354.889 740.834 356.145 741.508 356.705C742.188 357.272 743.801 357.555 746.348 357.555C746.948 357.555 748.018 357.555 749.558 357.555C751.091 357.555 752.794 357.555 754.668 357.555C756.548 357.555 758.311 357.555 759.958 357.555C761.611 357.555 762.774 357.555 763.448 357.555C764.721 357.555 765.698 357.329 766.378 356.875C767.051 356.429 767.554 355.549 767.888 354.235C768.228 352.922 768.434 351.029 768.508 348.555C769.634 349.375 771.098 350.125 772.898 350.805C774.698 351.479 776.311 351.965 777.738 352.265C777.358 355.865 776.721 358.679 775.828 360.705C774.928 362.725 773.578 364.169 771.778 365.035C769.978 365.895 767.501 366.325 764.348 366.325C763.821 366.325 762.901 366.325 761.588 366.325C760.281 366.325 758.821 366.325 757.208 366.325C755.594 366.325 753.944 366.325 752.258 366.325C750.571 366.325 749.088 366.325 747.808 366.325C746.534 366.325 745.634 366.325 745.108 366.325C741.208 366.325 738.171 365.952 735.998 365.205C733.824 364.452 732.304 363.119 731.438 361.205C730.578 359.292 730.148 356.535 730.148 352.935Z" fill="white"/>
<path d="M841.073 271.569C841.347 271.636 841.53 271.759 841.623 271.939L841.983 272.309L843.823 275.429L844.193 275.979L844.553 276.709L844.743 277.269L845.113 277.629L845.663 278.919C846.363 279.686 846.853 280.479 847.133 281.299C833.787 289.806 826.623 301.312 825.643 315.819C825.277 333.839 832.44 347.302 847.133 356.209L845.473 358.779L845.113 359.699L844.193 361.169L841.983 365.019C841.71 365.386 841.407 365.632 841.073 365.759L840.703 365.389L840.333 365.209C838.987 364.442 837.947 363.706 837.213 362.999C819.713 352.259 810.9 337.449 810.773 318.569C811.66 298.802 819.983 284.362 835.743 275.249C835.897 275.062 836.08 274.939 836.293 274.879C836.42 274.666 836.543 274.542 836.663 274.509C837.243 274.082 837.733 273.776 838.133 273.589L838.503 273.229C839.57 272.676 840.427 272.122 841.073 271.569Z" fill="white"/>
<path d="M906.278 359.805V350.015H984.458V359.805H906.278ZM899.408 366.555V294.215H990.538V366.325H979.848V304.005H909.758V366.555H899.408ZM950.708 320.765V298.485H960.948V320.765C960.948 322.039 961.118 322.845 961.458 323.185C961.791 323.519 962.598 323.685 963.878 323.685C964.251 323.685 964.944 323.685 965.958 323.685C966.971 323.685 968.038 323.685 969.158 323.685C970.284 323.685 971.034 323.685 971.408 323.685C972.234 323.685 972.834 323.519 973.208 323.185C973.588 322.845 973.871 322.152 974.058 321.105C974.244 320.052 974.374 318.439 974.448 316.265C975.121 316.792 975.984 317.299 977.038 317.785C978.084 318.272 979.171 318.702 980.298 319.075C981.424 319.449 982.474 319.785 983.448 320.085C983.074 323.465 982.474 326.109 981.648 328.015C980.821 329.929 979.698 331.262 978.278 332.015C976.851 332.762 975.011 333.135 972.758 333.135C972.238 333.135 971.488 333.135 970.508 333.135C969.534 333.135 968.504 333.135 967.418 333.135C966.331 333.135 965.318 333.135 964.378 333.135C963.444 333.135 962.751 333.135 962.298 333.135C959.151 333.135 956.751 332.762 955.098 332.015C953.451 331.262 952.308 329.985 951.668 328.185C951.028 326.385 950.708 323.912 950.708 320.765ZM894.688 279.705V269.355H994.588V279.705H894.688ZM925.958 299.835V276.885H936.428V299.835H925.958ZM950.828 299.835V276.885H961.508V299.835H950.828ZM926.518 307.375V296.575H936.428V307.605C936.428 311.205 935.921 314.935 934.908 318.795C933.894 322.655 931.981 326.369 929.168 329.935C926.354 333.495 922.248 336.662 916.848 339.435C916.401 338.762 915.708 337.975 914.768 337.075C913.828 336.175 912.871 335.295 911.898 334.435C910.924 333.569 910.061 332.912 909.308 332.465C914.261 330.065 917.954 327.459 920.388 324.645C922.828 321.832 924.461 318.945 925.288 315.985C926.108 313.019 926.518 310.149 926.518 307.375Z" fill="white"/>
<path d="M1046.93 272.028C1067.1 282.528 1077.44 298.135 1077.96 318.848C1077.23 338.648 1069.03 353.091 1053.36 362.178L1052.8 362.728L1052.25 362.908C1052.13 363.121 1052.01 363.245 1051.89 363.278L1051.52 363.648L1051.15 363.828L1049.87 364.558L1047.48 366.218L1046.75 365.848L1046.56 365.108L1046.01 364.378L1045.64 363.828L1045.28 363.098L1044.91 362.728L1044.18 361.438C1043.84 360.831 1043.6 360.281 1043.44 359.788L1043.07 359.608C1042.49 358.415 1041.94 357.435 1041.42 356.668C1056.2 347.061 1063.43 334.148 1063.09 317.928C1061.9 301.281 1054.68 289.225 1041.42 281.758L1042.52 279.738L1042.89 279.188L1043.07 278.638L1043.44 278.278L1043.81 277.358L1044.18 276.988L1044.54 276.438L1044.73 275.888L1045.09 275.518L1045.28 274.968C1046.02 273.868 1046.57 272.888 1046.93 272.028Z" fill="white"/>
<path d="M1108.73 313.302L1110.43 313.532C1113.52 313.959 1116.84 315.259 1120.39 317.432C1124.34 319.819 1126.31 322.649 1126.31 325.922C1126.31 327.389 1125.87 328.552 1124.98 329.412C1124.12 330.172 1123.22 330.552 1122.27 330.552C1120.74 330.552 1119.6 329.942 1118.87 328.722C1118.41 327.955 1117.88 326.669 1117.27 324.862C1116.5 322.569 1115.25 320.582 1113.5 318.902C1111.91 317.369 1110.41 316.282 1109 315.642C1107.69 315.029 1107.03 314.509 1107.03 314.082C1107.03 313.529 1107.44 313.252 1108.27 313.252C1108.36 313.252 1108.52 313.269 1108.73 313.302Z" fill="white"/>
<path d="M1191.16 326.165V317.055H1244.15V326.165H1191.16ZM1184.3 344.275V335.385H1251.57V344.275H1184.3ZM1168.88 363.175V353.955H1266.76V363.175H1168.88ZM1182.72 301.075V292.525H1221.87V301.075H1182.72ZM1212.76 298.265V292.525H1224.35C1226.75 295.599 1229.66 298.579 1233.07 301.465C1236.49 304.359 1240.25 307.042 1244.37 309.515C1248.5 311.989 1252.81 314.202 1257.31 316.155C1261.81 318.102 1266.35 319.752 1270.92 321.105C1270.1 321.705 1269.17 322.492 1268.11 323.465C1267.07 324.439 1266.05 325.452 1265.07 326.505C1264.1 327.552 1263.31 328.525 1262.71 329.425C1256.71 327.252 1250.79 324.552 1244.94 321.325C1239.09 318.099 1233.67 314.519 1228.68 310.585C1223.7 306.645 1219.4 302.539 1215.8 298.265H1212.76ZM1210.29 293.655L1219.96 297.365C1216.29 302.312 1211.83 306.885 1206.57 311.085C1201.33 315.285 1195.72 318.999 1189.75 322.225C1183.79 325.452 1177.78 328.265 1171.7 330.665C1171.18 329.912 1170.46 329.012 1169.56 327.965C1168.66 326.912 1167.73 325.879 1166.75 324.865C1165.78 323.859 1164.92 323.055 1164.16 322.455C1170.32 320.575 1176.32 318.212 1182.16 315.365C1188.02 312.512 1193.36 309.249 1198.19 305.575C1203.03 301.902 1207.07 297.929 1210.29 293.655ZM1212.09 360.365V321.215H1223V360.365H1212.09ZM1168.1 280.935V271.155H1267.55V280.935H1168.1ZM1192.06 290.275V262.605H1202.64V290.275H1192.06ZM1232.34 290.835V262.605H1242.91V290.835" fill="white"/>
<path d="M1354.43 270.368V264.858H1374.11V270.368H1354.43ZM1353.75 288.708V283.308H1374.9V288.708H1353.75ZM1353.75 297.138V291.858H1374.9V297.138H1353.75ZM1337.33 350.468V343.608H1394.36V350.468H1337.33ZM1350.49 279.818V273.858H1377.49V279.818H1350.49ZM1368.15 306.028H1360.16V312.438H1368.15V306.028ZM1353.52 317.618V300.858H1375.01V317.618H1353.52ZM1339.24 338.878V332.468H1385.92V327.628H1332.26V321.218H1395.83V338.878H1339.24ZM1335.41 319.188V293.658H1342.5V319.188H1335.41ZM1325.18 297.588L1324.39 290.728C1327.69 290.581 1331.38 290.431 1335.47 290.278C1339.55 290.131 1343.88 289.944 1348.46 289.718V295.908C1344.26 296.281 1340.19 296.581 1336.26 296.808C1332.32 297.028 1328.62 297.288 1325.18 297.588ZM1336.2 332.468H1346.1C1345.2 336.068 1344.22 339.818 1343.18 343.718C1342.12 347.618 1341.15 350.991 1340.25 353.838L1330.69 352.488C1331.73 349.714 1332.75 346.508 1333.73 342.868C1334.7 339.234 1335.52 335.768 1336.2 332.468ZM1390.99 344.728V343.608H1401C1401 343.608 1400.96 344.111 1400.89 345.118C1400.81 346.131 1400.66 346.978 1400.44 347.658C1399.38 352.304 1398.29 355.958 1397.17 358.618C1396.05 361.284 1394.74 363.218 1393.24 364.418C1391.96 365.318 1390.59 365.934 1389.13 366.268C1387.67 366.608 1385.92 366.814 1383.9 366.888C1382.17 366.968 1379.71 366.988 1376.53 366.948C1373.34 366.908 1369.95 366.814 1366.35 366.668C1366.27 365.468 1365.97 364.118 1365.45 362.618C1364.92 361.118 1364.28 359.768 1363.54 358.568C1367.06 358.941 1370.48 359.164 1373.78 359.238C1377.08 359.318 1379.4 359.358 1380.75 359.358C1381.95 359.358 1382.92 359.318 1383.67 359.238C1384.42 359.164 1385.06 358.941 1385.59 358.568C1386.63 357.741 1387.59 356.258 1388.46 354.118C1389.32 351.984 1390.16 348.854 1390.99 344.728ZM1343.85 301.638L1349.25 300.408C1349.85 302.281 1350.43 304.341 1350.99 306.588C1351.55 308.841 1351.99 310.791 1352.29 312.438L1346.44 314.018C1346.28 312.291 1345.96 310.284 1345.48 307.998C1344.99 305.711 1344.45 303.591 1343.85 301.638ZM1343.51 286.338L1348.35 284.538C1349.32 286.418 1350.22 288.518 1351.05 290.838C1351.87 293.164 1352.44 295.191 1352.74 296.918L1347.45 298.938C1347.22 297.218 1346.73 295.194 1345.99 292.868C1345.23 290.541 1344.41 288.364 1343.51 286.338ZM1325.51 277.458L1329.11 272.058C1331.29 273.478 1333.42 275.108 1335.52 276.948C1337.62 278.788 1339.2 280.381 1340.25 281.728L1336.2 287.918C1335.07 286.344 1333.5 284.581 1331.48 282.628C1329.45 280.681 1327.46 278.958 1325.51 277.458ZM1336.2 262.268L1342.61 265.418C1341.11 267.891 1339.61 270.404 1338.11 272.958C1336.61 275.504 1335.18 277.641 1333.84 279.368L1328.89 276.778C1330.09 274.831 1331.4 272.451 1332.83 269.638C1334.25 266.824 1335.37 264.368 1336.2 262.268ZM1343.4 271.608L1349.7 275.208C1347.22 278.581 1344.58 282.141 1341.77 285.888C1338.95 289.641 1336.31 292.791 1333.84 295.338L1329.11 292.418C1330.69 290.544 1332.38 288.408 1334.18 286.008C1335.98 283.608 1337.68 281.131 1339.29 278.578C1340.9 276.031 1342.27 273.708 1343.4 271.608ZM1327.99 299.958L1334.63 301.418C1333.95 304.344 1333.12 307.268 1332.15 310.188C1331.17 313.114 1330.12 315.628 1329 317.728C1328.32 317.281 1327.35 316.774 1326.07 316.208C1324.79 315.648 1323.75 315.181 1322.93 314.808C1324.2 312.708 1325.25 310.361 1326.07 307.768C1326.89 305.181 1327.53 302.578 1327.99 299.958ZM1387.39 319.188V293.658H1394.59V319.188H1387.39ZM1377.04 297.588L1376.36 290.728C1379.81 290.581 1383.69 290.431 1388.01 290.278C1392.32 290.131 1396.91 289.981 1401.79 289.828L1401.67 296.018C1397.25 296.318 1392.95 296.598 1388.79 296.858C1384.63 297.124 1380.71 297.368 1377.04 297.588ZM1396.16 301.638L1401.9 299.958C1402.87 302.204 1403.83 304.678 1404.77 307.378C1405.7 310.078 1406.36 312.404 1406.74 314.358L1400.78 316.268C1400.48 314.314 1399.88 311.951 1398.98 309.178C1398.08 306.404 1397.14 303.891 1396.16 301.638ZM1395.26 286.118L1400.55 283.758C1401.82 285.704 1403 287.858 1404.09 290.218C1405.18 292.584 1405.95 294.668 1406.4 296.468L1400.66 299.058C1400.28 297.258 1399.59 295.138 1398.58 292.698C1397.56 290.258 1396.46 288.064 1395.26 286.118ZM1376.59 277.228L1380.41 272.168C1382.36 273.514 1384.31 275.071 1386.26 276.838C1388.21 278.598 1389.71 280.191 1390.76 281.618L1386.38 287.468C1385.4 285.968 1383.99 284.241 1382.16 282.288C1380.32 280.341 1378.46 278.654 1376.59 277.228ZM1387.61 262.378L1394.03 265.638C1392.45 268.118 1390.87 270.611 1389.3 273.118C1387.72 275.631 1386.22 277.788 1384.8 279.588L1379.85 277.008C1381.12 275.054 1382.51 272.671 1384.01 269.858C1385.51 267.044 1386.71 264.551 1387.61 262.378ZM1395.6 271.158L1401.9 274.758C1399.35 278.131 1396.58 281.691 1393.58 285.438C1390.58 289.191 1387.73 292.341 1385.03 294.888L1380.41 291.968C1382.13 290.094 1383.93 287.958 1385.81 285.558C1387.69 283.158 1389.49 280.681 1391.21 278.128C1392.93 275.581 1394.4 273.258 1395.6 271.158ZM1379.85 299.958L1386.38 301.528C1385.85 304.301 1385.1 307.131 1384.13 310.018C1383.15 312.911 1382.1 315.368 1380.98 317.388C1380.38 317.014 1379.48 316.508 1378.28 315.868C1377.08 315.234 1376.03 314.731 1375.13 314.358C1376.32 312.258 1377.29 309.968 1378.05 307.488C1378.79 305.014 1379.39 302.504 1379.85 299.958ZM1303.35 271.038L1309.54 264.068C1311.41 265.041 1313.38 266.221 1315.44 267.608C1317.5 268.994 1319.44 270.381 1321.24 271.768C1323.04 273.161 1324.5 274.494 1325.63 275.768L1319.21 283.638C1318.16 282.364 1316.75 280.978 1314.99 279.478C1313.23 277.978 1311.33 276.498 1309.31 275.038C1307.29 273.571 1305.3 272.238 1303.35 271.038ZM1300.99 301.078L1306.84 293.768C1308.78 294.668 1310.83 295.774 1312.97 297.088C1315.11 298.401 1317.09 299.711 1318.93 301.018C1320.77 302.331 1322.29 303.588 1323.49 304.788L1317.3 312.888C1316.17 311.688 1314.69 310.378 1312.86 308.958C1311.02 307.531 1309.05 306.124 1306.95 304.738C1304.85 303.351 1302.86 302.131 1300.99 301.078ZM1312.8 365.658L1303.24 360.258C1304.66 357.258 1306.18 353.768 1307.79 349.788C1309.4 345.814 1311.05 341.614 1312.74 337.188C1314.43 332.768 1315.99 328.418 1317.41 324.138L1325.85 329.538C1324.65 333.518 1323.3 337.608 1321.8 341.808C1320.3 346.008 1318.8 350.131 1317.3 354.178C1315.8 358.231 1314.3 362.058 1312.8 365.658Z" fill="white"/>
<path d="M654.5 255.5H519V396H654.5V255.5Z" stroke="white" stroke-width="2" stroke-dasharray="5 5"/>
<path d="M792 255.5H656.5V396H792V255.5Z" stroke="white" stroke-width="2" stroke-dasharray="5 5"/>
<path d="M874.5 255.5H794V396H874.5V255.5Z" stroke="white" stroke-width="2" stroke-dasharray="5 5"/>
<path d="M1012 255.5H876.5V396H1012V255.5Z" stroke="white" stroke-width="2" stroke-dasharray="5 5"/>
<path d="M1094.5 255.5H1014V396H1094.5V255.5Z" stroke="white" stroke-width="2" stroke-dasharray="5 5"/>
<path d="M1146 255.5H1096.5V396H1146V255.5Z" stroke="white" stroke-width="2" stroke-dasharray="5 5"/>
<path d="M1283.5 255.5H1148V396H1283.5V255.5Z" stroke="white" stroke-width="2" stroke-dasharray="5 5"/>
<path d="M1421 255.5H1285.5V396H1421V255.5Z" stroke="white" stroke-width="2" stroke-dasharray="5 5"/>
<rect x="397.25" y="157" width="1397" height="239" stroke="#46C147" stroke-width="3"/>
<path d="M1124.38 38.4846V419.485" stroke="#46C147" stroke-width="3.03189"/>
<path d="M1123 62.7399L1159.38 71.8356V53.6442L1123 62.7399Z" fill="#46C147"/>
<path d="M1124.38 62.7399L1088 71.8356V53.6442L1124.38 62.7399Z" fill="#46C147"/>
<path d="M1104.37 28.3618C1102.42 28.3618 1100.76 27.832 1099.4 26.7726C1098.03 25.7045 1096.98 24.1585 1096.26 22.1343C1095.53 20.1016 1095.17 17.6468 1095.17 14.7699C1095.17 11.9103 1095.53 9.4684 1096.26 7.44427C1096.99 5.41152 1098.04 3.86112 1099.41 2.79307C1100.79 1.7164 1102.44 1.17807 1104.37 1.17807C1106.3 1.17807 1107.95 1.7164 1109.32 2.79307C1110.7 3.86112 1111.75 5.41152 1112.47 7.44427C1113.2 9.4684 1113.57 11.9103 1113.57 14.7699C1113.57 17.6468 1113.21 20.1016 1112.48 22.1343C1111.76 24.1585 1110.71 25.7045 1109.34 26.7726C1107.97 27.832 1106.32 28.3618 1104.37 28.3618ZM1104.37 25.5194C1106.3 25.5194 1107.8 24.5891 1108.87 22.7286C1109.93 20.8682 1110.47 18.2152 1110.47 14.7699C1110.47 12.4788 1110.22 10.5278 1109.73 8.91715C1109.25 7.30646 1108.55 6.07906 1107.64 5.23495C1106.73 4.39084 1105.64 3.96879 1104.37 3.96879C1102.46 3.96879 1100.96 4.91195 1099.89 6.79827C1098.81 8.67598 1098.27 11.3332 1098.27 14.7699C1098.27 17.0611 1098.51 19.0077 1098.99 20.6098C1099.48 22.2118 1100.17 23.4306 1101.08 24.2661C1101.99 25.1016 1103.09 25.5194 1104.37 25.5194ZM1132.59 12.5994L1129.85 13.3746C1129.68 12.918 1129.42 12.4745 1129.09 12.0438C1128.76 11.6045 1128.31 11.2428 1127.74 10.9585C1127.17 10.6743 1126.45 10.5322 1125.56 10.5322C1124.34 10.5322 1123.33 10.8121 1122.52 11.372C1121.72 11.9232 1121.32 12.6252 1121.32 13.4779C1121.32 14.2359 1121.6 14.8345 1122.15 15.2738C1122.7 15.7131 1123.56 16.0791 1124.73 16.372L1127.68 17.0955C1129.45 17.5262 1130.77 18.1851 1131.64 19.0723C1132.51 19.9508 1132.95 21.0835 1132.95 22.4702C1132.95 23.6072 1132.62 24.6236 1131.97 25.5194C1131.32 26.4151 1130.42 27.1214 1129.25 27.6382C1128.09 28.155 1126.74 28.4134 1125.2 28.4134C1123.17 28.4134 1121.5 27.9742 1120.17 27.0956C1118.84 26.217 1118 24.9337 1117.65 23.2454L1120.55 22.5219C1120.82 23.59 1121.34 24.391 1122.11 24.925C1122.88 25.4591 1123.9 25.7261 1125.14 25.7261C1126.57 25.7261 1127.69 25.4246 1128.53 24.8217C1129.37 24.2101 1129.8 23.478 1129.8 22.6253C1129.8 21.9362 1129.56 21.3591 1129.07 20.894C1128.59 20.4203 1127.85 20.0671 1126.85 19.8346L1123.54 19.0594C1121.73 18.6287 1120.39 17.9612 1119.54 17.0568C1118.69 16.1437 1118.27 15.0025 1118.27 13.633C1118.27 12.5132 1118.59 11.5227 1119.21 10.6614C1119.85 9.80002 1120.72 9.12387 1121.81 8.63291C1122.91 8.14195 1124.16 7.89647 1125.56 7.89647C1127.52 7.89647 1129.06 8.32714 1130.18 9.18847C1131.31 10.0498 1132.11 11.1868 1132.59 12.5994ZM1142.03 28L1135.99 8.15487H1139.19L1143.48 23.3488H1143.69L1147.93 8.15487H1151.18L1155.37 23.2971H1155.57L1159.86 8.15487H1163.07L1157.02 28H1154.02L1149.68 12.7544H1149.37L1145.03 28H1142.03Z" fill="#46C147"/>
<path d="M1906 153.697V38.4846" stroke="#46C147" stroke-width="3.03189"/>
<path d="M1795 153.697V38.4846" stroke="#46C147" stroke-width="3.03189"/>
<path d="M1905.38 62.7399H1794.38" stroke="#46C147" stroke-width="3.03189"/>
<path d="M1906 62.7399L1942.38 71.8356V53.6442L1906 62.7399Z" fill="#46C147"/>
<path d="M1795.38 62.7399L1759 71.8356V53.6442L1795.38 62.7399Z" fill="#46C147"/>
<path d="M1777.79 28V8.15487H1780.74V11.2557H1780.99C1781.41 10.1962 1782.08 9.37366 1783 8.78795C1783.92 8.19363 1785.03 7.89647 1786.32 7.89647C1787.63 7.89647 1788.72 8.19363 1789.59 8.78795C1790.47 9.37366 1791.15 10.1962 1791.64 11.2557H1791.85C1792.36 10.2307 1793.12 9.41672 1794.13 8.81379C1795.15 8.20224 1796.37 7.89647 1797.79 7.89647C1799.57 7.89647 1801.02 8.45203 1802.14 9.56315C1803.27 10.6657 1803.84 12.384 1803.84 14.7182V28H1800.79V14.7182C1800.79 13.254 1800.39 12.2074 1799.59 11.5787C1798.79 10.9499 1797.84 10.6355 1796.76 10.6355C1795.36 10.6355 1794.28 11.0576 1793.51 11.9017C1792.75 12.7372 1792.36 13.7966 1792.36 15.08V28H1789.26V14.4082C1789.26 13.2798 1788.9 12.3711 1788.17 11.682C1787.43 10.9844 1786.49 10.6355 1785.34 10.6355C1784.54 10.6355 1783.8 10.8465 1783.11 11.2686C1782.43 11.6906 1781.88 12.2764 1781.46 13.0257C1781.05 13.7665 1780.84 14.6235 1780.84 15.5968V28H1777.79ZM1809.41 28V8.15487H1812.46V28H1809.41ZM1810.96 4.84735C1810.37 4.84735 1809.86 4.64494 1809.43 4.24011C1809 3.83528 1808.79 3.34863 1808.79 2.78015C1808.79 2.21167 1809 1.72501 1809.43 1.32019C1809.86 0.915361 1810.37 0.712948 1810.96 0.712948C1811.56 0.712948 1812.07 0.915361 1812.49 1.32019C1812.92 1.72501 1813.13 2.21167 1813.13 2.78015C1813.13 3.34863 1812.92 3.83528 1812.49 4.24011C1812.07 4.64494 1811.56 4.84735 1810.96 4.84735ZM1821.1 16.0619V28H1818.05V8.15487H1820.99V11.2557H1821.25C1821.72 10.2479 1822.42 9.43826 1823.37 8.82671C1824.32 8.20655 1825.54 7.89647 1827.04 7.89647C1828.38 7.89647 1829.56 8.1721 1830.57 8.72335C1831.57 9.26599 1832.36 10.0929 1832.92 11.204C1833.48 12.3065 1833.76 13.7019 1833.76 15.3901V28H1830.71V15.5968C1830.71 14.0378 1830.3 12.8233 1829.49 11.9534C1828.68 11.0748 1827.57 10.6355 1826.16 10.6355C1825.19 10.6355 1824.32 10.8465 1823.55 11.2686C1822.79 11.6906 1822.19 12.3065 1821.75 13.1162C1821.31 13.9258 1821.1 14.9077 1821.1 16.0619ZM1841.55 28.2067C1840.91 28.2067 1840.37 27.9785 1839.91 27.522C1839.45 27.0655 1839.23 26.5185 1839.23 25.8811C1839.23 25.2437 1839.45 24.6968 1839.91 24.2403C1840.37 23.7838 1840.91 23.5555 1841.55 23.5555C1842.19 23.5555 1842.74 23.7838 1843.19 24.2403C1843.65 24.6968 1843.88 25.2437 1843.88 25.8811C1843.88 26.3032 1843.77 26.6908 1843.55 27.0439C1843.35 27.3971 1843.07 27.6813 1842.71 27.8966C1842.37 28.1034 1841.98 28.2067 1841.55 28.2067ZM1858.91 22.5736V19.9379L1870.54 1.53983H1872.45V5.62255H1871.16L1862.37 19.5245V19.7312H1878.03V22.5736H1858.91ZM1871.36 28V21.7726V20.5452V1.53983H1874.41V28H1871.36ZM1896.98 12.5994L1894.24 13.3746C1894.07 12.918 1893.82 12.4745 1893.48 12.0438C1893.15 11.6045 1892.7 11.2428 1892.14 10.9585C1891.57 10.6743 1890.84 10.5322 1889.95 10.5322C1888.74 10.5322 1887.73 10.8121 1886.92 11.372C1886.12 11.9232 1885.71 12.6252 1885.71 13.4779C1885.71 14.2359 1885.99 14.8345 1886.54 15.2738C1887.09 15.7131 1887.95 16.0791 1889.13 16.372L1892.07 17.0955C1893.85 17.5262 1895.17 18.1851 1896.04 19.0723C1896.91 19.9508 1897.34 21.0835 1897.34 22.4702C1897.34 23.6072 1897.02 24.6236 1896.36 25.5194C1895.71 26.4151 1894.81 27.1214 1893.65 27.6382C1892.48 28.155 1891.13 28.4134 1889.59 28.4134C1887.57 28.4134 1885.89 27.9742 1884.56 27.0956C1883.24 26.217 1882.4 24.9337 1882.05 23.2454L1884.94 22.5219C1885.22 23.59 1885.74 24.391 1886.5 24.925C1887.28 25.4591 1888.29 25.7261 1889.54 25.7261C1890.96 25.7261 1892.09 25.4246 1892.92 24.8217C1893.77 24.2101 1894.19 23.478 1894.19 22.6253C1894.19 21.9362 1893.95 21.3591 1893.47 20.894C1892.98 20.4203 1892.24 20.0671 1891.24 19.8346L1887.94 19.0594C1886.12 18.6287 1884.78 17.9612 1883.93 17.0568C1883.09 16.1437 1882.67 15.0025 1882.67 13.633C1882.67 12.5132 1882.98 11.5227 1883.61 10.6614C1884.25 9.80002 1885.11 9.12387 1886.21 8.63291C1887.31 8.14195 1888.56 7.89647 1889.95 7.89647C1891.92 7.89647 1893.46 8.32714 1894.58 9.18847C1895.71 10.0498 1896.51 11.1868 1896.98 12.5994ZM1906.43 28L1900.38 8.15487H1903.59L1907.88 23.3488H1908.08L1912.32 8.15487H1915.58L1919.76 23.2971H1919.97L1924.26 8.15487H1927.46L1921.42 28H1918.42L1914.08 12.7544H1913.77L1909.43 28H1906.43Z" fill="#46C147"/>
<path d="M2069 156H1799" stroke="#FF0000" stroke-width="2.74323"/>
<path d="M2060.3 156L2052.07 188.919H2068.53L2060.3 156Z" fill="#FF0000"/>
<path d="M2060.3 161.919L2052.07 129H2068.53L2060.3 161.919Z" fill="#FF0000"/>
<path d="M2097.76 170.327C2096 170.327 2094.49 169.848 2093.26 168.889C2092.02 167.923 2091.07 166.524 2090.42 164.693C2089.76 162.854 2089.43 160.632 2089.43 158.03C2089.43 155.442 2089.76 153.233 2090.42 151.401C2091.08 149.562 2092.03 148.159 2093.27 147.193C2094.51 146.219 2096.01 145.732 2097.76 145.732C2099.5 145.732 2100.99 146.219 2102.23 147.193C2103.48 148.159 2104.43 149.562 2105.09 151.401C2105.75 153.233 2106.08 155.442 2106.08 158.03C2106.08 160.632 2105.75 162.854 2105.1 164.693C2104.44 166.524 2103.5 167.923 2102.26 168.889C2101.02 169.848 2099.52 170.327 2097.76 170.327ZM2097.76 167.756C2099.5 167.756 2100.86 166.914 2101.82 165.231C2102.79 163.547 2103.27 161.147 2103.27 158.03C2103.27 155.957 2103.05 154.191 2102.61 152.734C2102.17 151.277 2101.54 150.166 2100.71 149.402C2099.9 148.639 2098.91 148.257 2097.76 148.257C2096.03 148.257 2094.67 149.11 2093.7 150.817C2092.73 152.516 2092.24 154.92 2092.24 158.03C2092.24 160.103 2092.46 161.864 2092.89 163.313C2093.33 164.763 2093.96 165.866 2094.78 166.622C2095.6 167.378 2096.6 167.756 2097.76 167.756ZM2123.29 156.066L2120.81 156.767C2120.65 156.354 2120.42 155.953 2120.12 155.563C2119.82 155.165 2119.42 154.838 2118.9 154.581C2118.39 154.324 2117.73 154.195 2116.93 154.195C2115.83 154.195 2114.91 154.449 2114.18 154.955C2113.46 155.454 2113.09 156.089 2113.09 156.861C2113.09 157.546 2113.34 158.088 2113.84 158.485C2114.34 158.883 2115.12 159.214 2116.18 159.479L2118.84 160.134C2120.45 160.523 2121.65 161.12 2122.43 161.922C2123.22 162.717 2123.61 163.742 2123.61 164.997C2123.61 166.025 2123.32 166.945 2122.73 167.756C2122.14 168.566 2121.32 169.205 2120.27 169.673C2119.22 170.14 2118 170.374 2116.6 170.374C2114.77 170.374 2113.25 169.977 2112.05 169.182C2110.85 168.387 2110.09 167.226 2109.77 165.698L2112.39 165.043C2112.64 166.01 2113.11 166.735 2113.81 167.218C2114.51 167.701 2115.42 167.943 2116.55 167.943C2117.84 167.943 2118.86 167.67 2119.62 167.124C2120.38 166.571 2120.76 165.909 2120.76 165.137C2120.76 164.514 2120.54 163.991 2120.11 163.571C2119.67 163.142 2119 162.822 2118.1 162.612L2115.1 161.911C2113.46 161.521 2112.25 160.917 2111.48 160.099C2110.72 159.273 2110.33 158.24 2110.33 157.001C2110.33 155.988 2110.62 155.091 2111.19 154.312C2111.76 153.533 2112.55 152.921 2113.54 152.477C2114.54 152.033 2115.67 151.81 2116.93 151.81C2118.7 151.81 2120.1 152.2 2121.11 152.979C2122.13 153.759 2122.86 154.788 2123.29 156.066ZM2131.84 170L2126.36 152.044H2129.26L2133.14 165.792H2133.33L2137.17 152.044H2140.11L2143.9 165.745H2144.09L2147.97 152.044H2150.87L2145.4 170H2142.68L2138.76 156.206H2138.48L2134.55 170H2131.84Z" fill="#FF0000"/>
</svg>
