<svg width="915" height="1215" viewBox="0 0 915 1215" fill="none" xmlns="http://www.w3.org/2000/svg">
<g clip-path="url(#clip0_0_1)">
<path d="M20 57.5001C20 36.7894 36.7893 20.0001 57.5 20.0001H857.5C878.211 20.0001 895 36.7894 895 57.5001V1157.5C895 1178.21 878.211 1195 857.5 1195H57.5C36.7893 1195 20 1178.21 20 1157.5V57.5001Z" fill="white"/>
<path d="M38.75 57.5001C38.75 47.1448 47.1446 38.7501 57.5 38.7501H857.5C867.855 38.7501 876.25 47.1448 876.25 57.5001V1157.5C876.25 1167.86 867.855 1176.25 857.5 1176.25H57.5C47.1446 1176.25 38.75 1167.86 38.75 1157.5V57.5001Z" fill="#0033A2"/>
<path d="M309.5 1064.32V1053.29H408.95V1064.32H309.5ZM354.84 1060.27L365.52 1057.68C367.927 1066.53 371.173 1074.78 375.26 1082.43C379.347 1090.08 384.37 1096.77 390.33 1102.51C396.297 1108.25 403.217 1112.77 411.09 1116.07C410.19 1116.81 409.233 1117.79 408.22 1118.99C407.207 1120.19 406.25 1121.41 405.35 1122.65C404.45 1123.89 403.7 1124.99 403.1 1125.97C394.773 1122.07 387.517 1116.91 381.33 1110.5C375.143 1104.08 369.913 1096.64 365.64 1088.17C361.367 1079.69 357.767 1070.39 354.84 1060.27ZM353.15 1021.91H364.74C364.74 1027.23 364.607 1032.94 364.34 1039.06C364.08 1045.17 363.5 1051.45 362.6 1057.91C361.7 1064.35 360.237 1070.8 358.21 1077.26C356.19 1083.7 353.377 1089.93 349.77 1095.93C346.177 1101.93 341.567 1107.5 335.94 1112.64C330.313 1117.77 323.45 1122.25 315.35 1126.08C314.45 1124.65 313.25 1123.09 311.75 1121.41C310.25 1119.72 308.75 1118.31 307.25 1117.19C315.05 1113.67 321.63 1109.56 326.99 1104.87C332.357 1100.18 336.707 1095.08 340.04 1089.57C343.38 1084.06 345.95 1078.34 347.75 1072.42C349.55 1066.49 350.827 1060.56 351.58 1054.64C352.327 1048.72 352.777 1042.98 352.93 1037.43C353.077 1031.88 353.15 1026.71 353.15 1021.91Z" fill="white"/>
<path d="M464.893 1059.93V1053.86H528.233V1059.93H464.893ZM465.453 1102.46V1096.27H528.343V1102.46H465.453ZM496.163 1109.88V1078.72H505.733V1109.88H496.163ZM511.693 1068.93H480.983V1075.12H511.693V1068.93ZM471.983 1080.18V1063.64H521.143V1080.18H471.983ZM487.953 1036.53L496.843 1037.66C496.016 1040.73 495.076 1043.99 494.023 1047.44C492.976 1050.89 492.003 1053.85 491.103 1056.33H481.763C482.816 1053.63 483.903 1050.44 485.023 1046.77C486.149 1043.09 487.126 1039.68 487.953 1036.53ZM471.413 1048.34V1042.61H518.553V1057.12H509.663V1048.34H471.413ZM448.913 1126.42V1026.52H544.093V1126.42H533.633V1036.19H459.043V1126.42H448.913ZM455.333 1121.92V1112.24H539.253V1121.92H455.333ZM473.333 1100.66V1084.34H523.503V1090.42H481.653V1100.66" fill="white"/>
<path d="M426.25 1014.8H290.75V1155.3H426.25V1014.8Z" stroke="white" stroke-width="2" stroke-dasharray="5 5"/>
<path d="M563.75 1014.8H428.25V1155.3H563.75V1014.8Z" stroke="white" stroke-width="2" stroke-dasharray="5 5"/>
<path d="M238.913 241.144V232.034H291.903V241.144H238.913ZM232.053 259.254V250.364H299.323V259.254H232.053ZM216.633 278.154V268.934H314.513V278.154H216.633ZM230.473 216.054V207.504H269.623V216.054H230.473ZM260.513 213.244V207.504H272.103C274.503 210.577 277.409 213.557 280.823 216.444C284.236 219.337 288.003 222.021 292.123 224.494C296.249 226.967 300.563 229.181 305.063 231.134C309.563 233.081 314.099 234.731 318.673 236.084C317.853 236.684 316.916 237.471 315.863 238.444C314.816 239.417 313.803 240.431 312.823 241.484C311.849 242.531 311.063 243.504 310.463 244.404C304.463 242.231 298.539 239.531 292.693 236.304C286.839 233.077 281.419 229.497 276.433 225.564C271.446 221.624 267.153 217.517 263.553 213.244H260.513ZM258.043 208.634L267.713 212.344C264.039 217.291 259.576 221.864 254.323 226.064C249.076 230.264 243.469 233.977 237.503 237.204C231.543 240.431 225.526 243.244 219.453 245.644C218.926 244.891 218.213 243.991 217.313 242.944C216.413 241.891 215.476 240.857 214.503 239.844C213.529 238.837 212.666 238.034 211.913 237.434C218.066 235.554 224.066 233.191 229.913 230.344C235.766 227.491 241.109 224.227 245.943 220.554C250.783 216.881 254.816 212.907 258.043 208.634ZM259.843 275.344V236.194H270.753V275.344H259.843ZM215.853 195.914V186.134H315.303V195.914H215.853ZM239.813 205.254V177.584H250.393V205.254H239.813ZM280.093 205.814V177.584H290.663V205.814" fill="white"/>
<path d="M402.178 185.347V179.837H421.858V185.347H402.178ZM401.498 203.687V198.287H422.648V203.687H401.498ZM401.498 212.117V206.837H422.648V212.117H401.498ZM385.078 265.447V258.587H442.108V265.447H385.078ZM398.238 194.797V188.837H425.238V194.797H398.238ZM415.898 221.007H407.908V227.417H415.898V221.007ZM401.268 232.597V215.837H422.758V232.597H401.268ZM386.988 253.857V247.447H433.668V242.607H380.008V236.197H443.578V253.857H386.988ZM383.158 234.167V208.637H390.248V234.167H383.158ZM372.928 212.567L372.138 205.707C375.438 205.56 379.131 205.41 383.218 205.257C387.304 205.11 391.634 204.923 396.208 204.697V210.887C392.008 211.26 387.941 211.56 384.008 211.787C380.068 212.007 376.374 212.267 372.928 212.567ZM383.948 247.447H393.848C392.948 251.047 391.974 254.797 390.928 258.697C389.874 262.597 388.898 265.97 387.998 268.817L378.438 267.467C379.484 264.693 380.498 261.487 381.478 257.847C382.451 254.213 383.274 250.747 383.948 247.447ZM438.738 259.707V258.587H448.748C448.748 258.587 448.711 259.09 448.638 260.097C448.564 261.11 448.414 261.957 448.188 262.637C447.134 267.283 446.044 270.937 444.918 273.597C443.798 276.263 442.488 278.197 440.988 279.397C439.714 280.297 438.344 280.913 436.878 281.247C435.418 281.587 433.674 281.793 431.648 281.867C429.921 281.947 427.464 281.967 424.278 281.927C421.091 281.887 417.698 281.793 414.098 281.647C414.024 280.447 413.724 279.097 413.198 277.597C412.671 276.097 412.034 274.747 411.288 273.547C414.814 273.92 418.228 274.143 421.528 274.217C424.828 274.297 427.151 274.337 428.498 274.337C429.698 274.337 430.671 274.297 431.418 274.217C432.171 274.143 432.811 273.92 433.338 273.547C434.384 272.72 435.341 271.237 436.208 269.097C437.068 266.963 437.911 263.833 438.738 259.707ZM391.598 216.617L396.998 215.387C397.598 217.26 398.178 219.32 398.738 221.567C399.304 223.82 399.738 225.77 400.038 227.417L394.188 228.997C394.034 227.27 393.714 225.263 393.228 222.977C392.741 220.69 392.198 218.57 391.598 216.617ZM391.258 201.317L396.098 199.517C397.071 201.397 397.971 203.497 398.798 205.817C399.624 208.143 400.188 210.17 400.488 211.897L395.198 213.917C394.971 212.197 394.484 210.173 393.738 207.847C392.984 205.52 392.158 203.343 391.258 201.317ZM373.258 192.437L376.858 187.037C379.038 188.457 381.174 190.087 383.268 191.927C385.374 193.767 386.951 195.36 387.998 196.707L383.948 202.897C382.821 201.323 381.248 199.56 379.228 197.607C377.201 195.66 375.211 193.937 373.258 192.437ZM383.948 177.247L390.358 180.397C388.858 182.87 387.358 185.383 385.858 187.937C384.358 190.483 382.934 192.62 381.588 194.347L376.638 191.757C377.838 189.81 379.151 187.43 380.578 184.617C381.998 181.803 383.121 179.347 383.948 177.247ZM391.148 186.587L397.448 190.187C394.974 193.56 392.331 197.12 389.518 200.867C386.704 204.62 384.061 207.77 381.588 210.317L376.858 207.397C378.438 205.523 380.128 203.387 381.928 200.987C383.728 198.587 385.431 196.11 387.038 193.557C388.651 191.01 390.021 188.687 391.148 186.587ZM375.738 214.937L382.378 216.397C381.698 219.323 380.871 222.247 379.898 225.167C378.924 228.093 377.874 230.607 376.748 232.707C376.074 232.26 375.098 231.753 373.818 231.187C372.544 230.627 371.498 230.16 370.678 229.787C371.951 227.687 372.998 225.34 373.818 222.747C374.644 220.16 375.284 217.557 375.738 214.937ZM435.138 234.167V208.637H442.338V234.167H435.138ZM424.788 212.567L424.108 205.707C427.561 205.56 431.444 205.41 435.758 205.257C440.071 205.11 444.664 204.96 449.538 204.807L449.418 210.997C444.998 211.297 440.704 211.577 436.538 211.837C432.378 212.103 428.461 212.347 424.788 212.567ZM443.908 216.617L449.648 214.937C450.621 217.183 451.578 219.657 452.518 222.357C453.451 225.057 454.108 227.383 454.488 229.337L448.528 231.247C448.228 229.293 447.628 226.93 446.728 224.157C445.828 221.383 444.888 218.87 443.908 216.617ZM443.008 201.097L448.298 198.737C449.571 200.683 450.751 202.837 451.838 205.197C452.931 207.563 453.701 209.647 454.148 211.447L448.408 214.037C448.034 212.237 447.341 210.117 446.328 207.677C445.314 205.237 444.208 203.043 443.008 201.097ZM424.338 192.207L428.158 187.147C430.111 188.493 432.061 190.05 434.008 191.817C435.961 193.577 437.461 195.17 438.508 196.597L434.128 202.447C433.148 200.947 431.741 199.22 429.908 197.267C428.068 195.32 426.211 193.633 424.338 192.207ZM435.358 177.357L441.778 180.617C440.198 183.097 438.621 185.59 437.048 188.097C435.474 190.61 433.974 192.767 432.548 194.567L427.598 191.987C428.871 190.033 430.258 187.65 431.758 184.837C433.258 182.023 434.458 179.53 435.358 177.357ZM443.348 186.137L449.648 189.737C447.101 193.11 444.328 196.67 441.328 200.417C438.328 204.17 435.478 207.32 432.778 209.867L428.158 206.947C429.884 205.073 431.684 202.937 433.558 200.537C435.438 198.137 437.238 195.66 438.958 193.107C440.684 190.56 442.148 188.237 443.348 186.137ZM427.598 214.937L434.128 216.507C433.601 219.28 432.851 222.11 431.878 224.997C430.898 227.89 429.848 230.347 428.728 232.367C428.128 231.993 427.228 231.487 426.028 230.847C424.828 230.213 423.778 229.71 422.878 229.337C424.071 227.237 425.044 224.947 425.798 222.467C426.544 219.993 427.144 217.483 427.598 214.937ZM351.098 186.017L357.288 179.047C359.161 180.02 361.128 181.2 363.188 182.587C365.254 183.973 367.188 185.36 368.988 186.747C370.788 188.14 372.251 189.473 373.378 190.747L366.958 198.617C365.911 197.343 364.504 195.957 362.738 194.457C360.978 192.957 359.084 191.477 357.058 190.017C355.038 188.55 353.051 187.217 351.098 186.017ZM348.738 216.057L354.588 208.747C356.534 209.647 358.578 210.753 360.718 212.067C362.858 213.38 364.844 214.69 366.678 215.997C368.518 217.31 370.038 218.567 371.238 219.767L365.048 227.867C363.921 226.667 362.441 225.357 360.608 223.937C358.768 222.51 356.798 221.103 354.698 219.717C352.598 218.33 350.611 217.11 348.738 216.057ZM360.548 280.637L350.988 275.237C352.414 272.237 353.931 268.747 355.538 264.767C357.151 260.793 358.801 256.593 360.488 252.167C362.181 247.747 363.738 243.397 365.158 239.117L373.598 244.517C372.398 248.497 371.048 252.587 369.548 256.787C368.048 260.987 366.548 265.11 365.048 269.157C363.548 273.21 362.048 277.037 360.548 280.637Z" fill="white"/>
<path d="M331.25 170.479H195.75V310.979H331.25V170.479Z" stroke="white" stroke-width="2" stroke-dasharray="5 5"/>
<path d="M468.75 170.479H333.25V310.979H468.75V170.479Z" stroke="white" stroke-width="2" stroke-dasharray="5 5"/>
<path d="M207.551 389.507V319.377H219.671V350.587L220.401 349.667L221.501 348.567C221.628 348.353 221.751 348.23 221.871 348.197L222.051 347.827L222.421 347.467L224.811 344.707L225.731 343.797L225.911 343.237L227.011 342.327L227.201 341.957L229.211 339.567L229.951 338.647L231.971 336.447L232.701 335.717L233.251 334.797C233.591 334.37 233.921 334.01 234.241 333.717C234.561 333.423 234.844 333.17 235.091 332.957C235.644 331.977 236.258 331.243 236.931 330.757L238.761 328.367L239.311 327.817L239.861 327.087L241.331 325.617L242.981 323.597L243.351 323.227C243.478 323.013 243.601 322.893 243.721 322.867L243.901 322.497L244.271 322.127L246.661 319.377H260.791C260.031 320.69 259.174 321.73 258.221 322.497C257.981 322.923 257.674 323.29 257.301 323.597L256.571 324.697L255.101 326.167L254.001 327.637L253.631 328.007C253.418 328.28 253.204 328.523 252.991 328.737C252.778 328.95 252.564 329.133 252.351 329.287C251.618 330.513 250.821 331.433 249.961 332.047L249.411 332.777L247.391 335.347L246.841 335.897C246.474 336.297 246.154 336.657 245.881 336.977C245.601 337.297 245.371 337.61 245.191 337.917L244.641 338.287L244.091 338.837L243.721 339.567L242.801 340.487L242.431 341.037L242.071 341.407L241.701 341.957L241.151 342.327L240.961 342.687L240.601 343.057C239.314 344.71 238.211 345.933 237.291 346.727C237.964 348.2 238.578 349.303 239.131 350.037L239.681 351.317C239.954 351.597 240.138 351.903 240.231 352.237L240.961 353.157L241.701 354.437L242.071 355.177L242.431 355.727L242.801 356.457L242.981 357.007L243.351 357.197L243.541 357.927C243.661 358.02 243.721 358.113 243.721 358.207V358.297C244.548 359.15 245.098 360.067 245.371 361.047L246.111 362.337L246.471 362.707L248.311 365.827L249.041 367.107L249.591 368.397L250.331 369.317L250.511 369.867C250.818 370.26 251.078 370.64 251.291 371.007C251.504 371.373 251.674 371.727 251.801 372.067L252.351 372.797L252.711 373.717L253.271 374.457L254.551 376.657L255.291 377.757L255.471 378.487L256.021 379.227L256.201 379.777C256.414 379.93 256.538 380.113 256.571 380.327L256.941 381.067C257.554 381.733 257.981 382.467 258.221 383.267C258.988 384.06 259.478 384.853 259.691 385.647L260.061 386.017L261.891 389.507H248.311L247.761 388.227L247.211 387.667L246.841 386.937L246.111 385.647L245.921 385.097L245.551 384.737L245.371 384.367C245.124 383.94 244.904 383.557 244.711 383.217C244.511 382.883 244.304 382.593 244.091 382.347L243.901 381.797L243.541 381.067L242.801 379.957L242.251 378.857L241.701 377.937L240.961 376.837L240.411 375.917L240.231 375.557C239.464 374.33 238.914 373.29 238.581 372.437C238.308 372.097 238.124 371.79 238.031 371.517C237.971 371.457 237.924 371.403 237.891 371.357C237.858 371.31 237.841 371.257 237.841 371.197V371.147C236.894 369.927 236.221 368.827 235.821 367.847L235.641 367.297C234.848 366.343 234.298 365.547 233.991 364.907L233.801 364.167L233.441 363.617L232.891 362.887L232.701 362.337L231.971 361.237L231.791 360.687L231.421 360.317L231.231 359.947L231.051 359.397L230.681 359.217C230.194 358.143 229.704 357.223 229.211 356.457L228.851 356.827L228.661 357.197C228.141 357.623 227.774 358.05 227.561 358.477L227.011 358.847L225.361 361.047L224.631 361.597L223.891 362.707L223.341 363.067C222.728 364.047 222.114 364.783 221.501 365.277C220.921 366.103 220.311 366.777 219.671 367.297V389.507" fill="white"/>
<path d="M313.093 349.123C315.2 354.17 316.253 359.143 316.253 364.043C316.253 367.036 315.873 369.956 315.113 372.803C313 381.923 307.673 387.616 299.133 389.883C297.88 390.216 296.657 390.453 295.463 390.593C294.27 390.733 293.093 390.816 291.933 390.843C287.4 390.843 283.253 389.603 279.493 387.123C272.427 382.196 268.693 375.65 268.293 367.483C268.26 367.056 268.243 366.636 268.243 366.223C268.243 365.81 268.243 365.403 268.243 365.003C268.243 349.703 275.237 340.493 289.223 337.373C289.497 337.34 289.77 337.323 290.043 337.323C290.323 337.323 290.6 337.323 290.873 337.323C300.787 337.323 308.193 341.256 313.093 349.123ZM279.673 366.563C280.687 374.763 284.85 379.23 292.163 379.963C299.657 379.263 303.817 375.346 304.643 368.213C304.763 367.3 304.87 366.413 304.963 365.553C305.057 364.7 305.087 363.873 305.053 363.073C305.053 353.806 300.45 348.85 291.243 348.203C283.437 350.13 279.533 355.316 279.533 363.763C279.533 364.65 279.58 365.583 279.673 366.563Z" fill="white"/>
<path d="M325.453 339.388H337.023L337.203 340.488C337.416 341.068 337.586 341.595 337.713 342.068C337.833 342.548 337.91 343.002 337.943 343.428C338.31 344.435 338.493 345.292 338.493 345.998L338.673 346.728C338.8 346.882 338.863 347.065 338.863 347.278L339.963 351.688L340.323 353.528L340.693 354.438V354.988C340.906 355.575 341.076 356.128 341.203 356.648C341.323 357.168 341.4 357.658 341.433 358.118L341.613 359.028C342.1 360.135 342.343 361.175 342.343 362.148L342.533 362.888L342.893 363.618L343.083 364.908C343.33 365.548 343.453 366.098 343.453 366.558V366.738L343.813 368.208C343.94 368.302 344.003 368.395 344.003 368.488V368.578L344.913 372.798L345.103 372.438L345.463 371.328C345.616 370.415 345.803 369.682 346.023 369.128L346.203 367.848C346.356 366.988 346.54 366.315 346.753 365.828C346.786 365.488 346.823 365.158 346.863 364.838C346.91 364.518 346.996 364.235 347.123 363.988V363.438L347.303 363.068L347.853 360.318L348.223 359.218L348.403 358.118C348.71 357.105 348.893 356.248 348.953 355.548L349.323 354.808V353.888L349.503 353.158L350.243 350.768V350.038C350.576 349.118 350.76 348.322 350.793 347.648C351.1 346.642 351.283 345.785 351.343 345.078L351.523 344.528L351.713 343.608L351.893 343.058L352.633 339.568L353.733 339.388H365.113L365.483 340.668V341.228L366.393 344.528L366.763 346.728L367.313 348.568L367.683 350.768C367.93 351.348 368.096 351.885 368.183 352.378C368.276 352.865 368.353 353.308 368.413 353.708L368.603 354.808C368.723 354.962 368.783 355.145 368.783 355.358L370.073 360.688L370.253 361.418V362.148L370.623 363.258L370.803 364.538L371.723 367.658L372.453 371.518C372.64 371.978 372.823 372.345 373.003 372.618L373.373 371.148V370.598L373.553 370.048L374.293 366.558L374.663 365.278L374.843 364.168L375.023 363.618L375.213 363.258C375.366 362.338 375.55 361.602 375.763 361.048V360.498L376.133 359.218L376.863 355.908L377.233 355.178V354.258L377.593 353.528L377.783 352.418L377.963 351.508L378.143 350.958L378.883 347.468L379.063 347.098L379.613 344.898L379.803 344.348V343.608L380.533 341.408C380.566 341.042 380.606 340.688 380.653 340.348C380.693 340.015 380.776 339.695 380.903 339.388H392.463L392.103 340.488L391.913 341.778L391.733 342.138L390.453 347.098L390.263 347.468L389.343 351.138L388.983 352.238L387.883 356.458L387.513 357.748L386.963 359.028L386.773 360.318L386.413 361.788L386.223 362.148L385.863 363.258L384.753 367.658L384.573 368.208L384.393 368.578L383.293 372.798L383.103 373.348C382.796 374.788 382.43 375.952 382.003 376.838L381.823 377.578L381.633 378.858L381.273 379.958L380.353 383.268L379.983 384.738L379.803 385.098L378.703 389.328H366.213L365.843 388.038L365.663 386.568L365.483 386.018V385.468C365.176 384.768 364.993 384.035 364.933 383.268C364.626 382.288 364.443 381.368 364.383 380.508L364.013 379.408V378.858C363.586 377.792 363.34 376.752 363.273 375.738L363.093 374.818L362.723 373.718L362.543 372.438L362.173 371.328L361.993 370.598V369.868C361.566 368.795 361.32 367.752 361.253 366.738L360.703 364.908V364.168C360.43 363.495 360.246 362.885 360.153 362.338C359.973 361.018 359.73 359.978 359.423 359.218C359.27 358.118 359.023 357.198 358.683 356.458C358.563 357.318 358.45 358.078 358.343 358.738C358.236 359.392 358.106 359.978 357.953 360.498L357.403 363.068L357.033 364.538L356.303 368.398L355.933 369.318L355.753 370.598L355.203 373.168L355.013 374.268L354.643 375.008L354.463 375.918C354.403 376.378 354.343 376.792 354.283 377.158C354.223 377.525 354.16 377.848 354.093 378.128L353.733 379.958L353.543 380.698L353.363 381.618L353.183 382.168L352.993 383.448L352.813 383.998L352.443 385.288V385.838C352.23 386.605 352.106 387.215 352.073 387.668C351.953 387.975 351.87 388.268 351.823 388.548C351.776 388.822 351.74 389.082 351.713 389.328H339.223C338.736 387.828 338.43 386.602 338.303 385.648C337.97 385.042 337.786 384.555 337.753 384.188V383.638C337.693 383.572 337.65 383.515 337.623 383.468C337.59 383.428 337.573 383.375 337.573 383.308V383.268L336.653 380.328C336.5 379.655 336.346 379.042 336.193 378.488C336.04 377.942 335.886 377.455 335.733 377.028L335.553 375.738C335.246 375.065 335.063 374.392 335.003 373.718C334.943 373.658 334.896 373.605 334.863 373.558C334.836 373.512 334.823 373.458 334.823 373.398V373.348C334.61 372.768 334.44 372.248 334.313 371.788C334.193 371.335 334.116 370.938 334.083 370.598L333.353 368.028L333.163 367.108C333.043 366.955 332.983 366.772 332.983 366.558C332.65 365.945 332.466 365.455 332.433 365.088V364.538C332.373 364.478 332.326 364.425 332.293 364.378C332.266 364.332 332.253 364.278 332.253 364.218V364.168L331.333 361.238C331.206 360.532 331.07 359.895 330.923 359.328C330.77 358.762 330.6 358.235 330.413 357.748L330.233 356.648L329.863 355.728L329.683 354.808L329.493 354.438V353.888C329.126 353.188 328.943 352.578 328.943 352.058L328.573 351.318L328.393 350.398L327.843 348.388L327.663 347.648L327.473 347.098L327.293 345.998C327.173 345.845 327.113 345.662 327.113 345.448L326.923 344.898L326.373 343.428V342.878C325.853 341.438 325.546 340.275 325.453 339.388Z" fill="white"/>
<path d="M403.359 380.329V319.009H414.559V369.869C414.526 370.263 414.509 370.643 414.509 371.009V372.069C414.509 374.149 414.649 375.923 414.929 377.389C416.243 379.076 418.259 379.919 420.979 379.919C422.146 379.919 423.493 379.749 425.019 379.409V380.509L425.209 381.069L425.569 383.639V384.739L425.759 385.099V386.209L426.309 389.329C422.909 390.156 419.879 390.569 417.219 390.569C410.119 390.569 405.559 387.646 403.539 381.799C403.513 381.493 403.489 381.216 403.469 380.969C403.456 380.729 403.419 380.516 403.359 380.329Z" fill="white"/>
<path d="M476.593 349.123C478.7 354.17 479.753 359.143 479.753 364.043C479.753 367.036 479.373 369.956 478.613 372.803C476.5 381.923 471.173 387.616 462.633 389.883C461.38 390.216 460.157 390.453 458.963 390.593C457.77 390.733 456.593 390.816 455.433 390.843C450.9 390.843 446.753 389.603 442.993 387.123C435.927 382.196 432.193 375.65 431.793 367.483C431.76 367.056 431.743 366.636 431.743 366.223C431.743 365.81 431.743 365.403 431.743 365.003C431.743 349.703 438.737 340.493 452.723 337.373C452.997 337.34 453.27 337.323 453.543 337.323C453.823 337.323 454.1 337.323 454.373 337.323C464.287 337.323 471.693 341.256 476.593 349.123ZM443.173 366.563C444.187 374.763 448.35 379.23 455.663 379.963C463.157 379.263 467.317 375.346 468.143 368.213C468.263 367.3 468.37 366.413 468.463 365.553C468.557 364.7 468.587 363.873 468.553 363.073C468.553 353.806 463.95 348.85 454.743 348.203C446.937 350.13 443.033 355.316 443.033 363.763C443.033 364.65 443.08 365.583 443.173 366.563Z" fill="white"/>
<path d="M535.593 349.123C537.7 354.17 538.753 359.143 538.753 364.043C538.753 367.036 538.373 369.956 537.613 372.803C535.5 381.923 530.173 387.616 521.633 389.883C520.38 390.216 519.157 390.453 517.963 390.593C516.77 390.733 515.593 390.816 514.433 390.843C509.9 390.843 505.753 389.603 501.993 387.123C494.927 382.196 491.193 375.65 490.793 367.483C490.76 367.056 490.743 366.636 490.743 366.223C490.743 365.81 490.743 365.403 490.743 365.003C490.743 349.703 497.737 340.493 511.723 337.373C511.997 337.34 512.27 337.323 512.543 337.323C512.823 337.323 513.1 337.323 513.373 337.323C523.287 337.323 530.693 341.256 535.593 349.123ZM502.173 366.563C503.187 374.763 507.35 379.23 514.663 379.963C522.157 379.263 526.317 375.346 527.143 368.213C527.263 367.3 527.37 366.413 527.463 365.553C527.557 364.7 527.587 363.873 527.553 363.073C527.553 353.806 522.95 348.85 513.743 348.203C505.937 350.13 502.033 355.316 502.033 363.763C502.033 364.65 502.08 365.583 502.173 366.563Z" fill="white"/>
<path d="M593.3 348.016V348.566C593.7 349.299 593.947 350.033 594.04 350.766V389.136H582.84V356.646L582.65 355.546C581.124 350.919 578.554 348.606 574.94 348.606C573.84 348.606 572.617 348.836 571.27 349.296C568.21 350.616 566.007 352.699 564.66 355.546L563.93 358.666V389.136H552.91V339.016H563.93V343.236C567.357 340.176 571.09 338.343 575.13 337.736H575.95C584.15 337.736 589.934 341.163 593.3 348.016Z" fill="white"/>
<path d="M262.75 312.979H195.75V410.979H262.75V312.979Z" stroke="white" stroke-width="2" stroke-dasharray="5 5"/>
<path d="M321.75 312.979H264.75V410.979H321.75V312.979Z" stroke="white" stroke-width="2" stroke-dasharray="5 5"/>
<path d="M395.25 312.979H323.75V410.979H395.25V312.979Z" stroke="white" stroke-width="2" stroke-dasharray="5 5"/>
<path d="M426.25 312.979H397.25V410.979H426.25V312.979Z" stroke="white" stroke-width="2" stroke-dasharray="5 5"/>
<path d="M485.25 312.979H428.25V410.979H485.25V312.979Z" stroke="white" stroke-width="2" stroke-dasharray="5 5"/>
<path d="M544.25 312.979H487.25V410.979H544.25V312.979Z" stroke="white" stroke-width="2" stroke-dasharray="5 5"/>
<path d="M600.25 312.979H546.25V410.979H600.25V312.979Z" stroke="white" stroke-width="2" stroke-dasharray="5 5"/>
<path d="M845.25 1030.81L795.25 1080.81H745.25L778.583 1047.48H645.25V1014.15H778.583L745.25 980.814H795.25L845.25 1030.81Z" fill="white"/>
<path d="M457.5 872.878H857.5C867.855 872.878 876.25 864.484 876.25 854.128V904.128C876.25 893.773 867.855 885.378 857.5 885.378H57.5C47.1446 885.378 38.75 893.773 38.75 904.128V854.128C38.75 864.484 47.1446 872.878 57.5 872.878H457.5Z" fill="white"/>
<path d="M291.27 933.852V922.832H341.94V933.852H322.66V993.152H310.55V933.852" fill="white"/>
<path d="M381.566 947.437L382.126 948.537C383.559 950.317 384.476 952.153 384.876 954.047C384.996 954.84 385.086 955.583 385.146 956.277C385.212 956.963 385.246 957.567 385.246 958.087V982.317C386.372 984.557 388.022 985.903 390.196 986.357L389.836 986.907C389.709 987.127 389.586 987.25 389.466 987.277L389.286 987.827L388.916 988.197C388.609 988.87 388.242 989.42 387.816 989.847C387.382 990.98 386.829 991.837 386.156 992.417C385.882 993.03 385.622 993.56 385.376 994.007C385.136 994.447 384.909 994.837 384.696 995.177C381.116 994.257 378.299 992.603 376.246 990.217H375.696C371.749 993.063 367.679 994.487 363.486 994.487C361.219 994.487 358.986 994.103 356.786 993.337C350.206 990.983 346.229 986.7 344.856 980.487V980.257C344.856 968.417 351.786 962.497 365.646 962.497H365.786C366.059 962.37 366.362 962.307 366.696 962.307L367.246 962.127H368.536L369.086 961.947H369.636L374.226 961.397C374.286 961.057 374.316 960.75 374.316 960.477V959.557C374.316 954.443 371.609 951.887 366.196 951.887C362.429 951.887 357.272 953.157 350.726 955.697L349.996 954.047L349.626 952.947L349.256 952.577L349.076 952.217L348.706 951.107C348.372 950.56 348.129 950.01 347.976 949.457C347.329 948.603 346.899 947.747 346.686 946.887L347.236 946.707L347.606 946.517L348.156 946.337L348.526 945.967H349.076C349.196 945.847 349.302 945.787 349.396 945.787H349.446C350.546 945.207 351.522 944.777 352.376 944.497L353.296 944.317C353.969 944.01 354.582 943.827 355.136 943.767L356.606 943.397C357.672 942.97 358.712 942.727 359.726 942.667L363.766 941.927C364.372 941.867 364.959 941.813 365.526 941.767C366.092 941.72 366.652 941.697 367.206 941.697C373.046 941.697 377.832 943.61 381.566 947.437ZM369.816 970.757H368.716C368.442 970.817 368.176 970.863 367.916 970.897C367.656 970.923 367.402 970.937 367.156 970.937H366.886L366.146 971.127H365.596C365.442 971.247 365.259 971.307 365.046 971.307H364.496L361.556 972.037H361.006C360.152 972.53 359.419 972.837 358.806 972.957C356.819 974.857 355.826 976.693 355.826 978.467C355.826 980.087 356.636 981.677 358.256 983.237C360.609 984.677 362.902 985.397 365.136 985.397C367.982 985.397 370.706 984.25 373.306 981.957C373.552 981.25 373.799 980.76 374.046 980.487L374.226 979.937L374.046 979.197V970.567H370.376C370.222 970.693 370.036 970.757 369.816 970.757Z" fill="white"/>
<path d="M401.182 993.333V943.213H412.382V993.333H401.182ZM413.482 928.523V929.123C413.482 931.663 412.685 933.726 411.092 935.313C409.412 936.14 407.865 936.553 406.452 936.553C404.005 936.553 402.065 935.223 400.632 932.563C400.352 931.49 400.212 930.543 400.212 929.723C400.212 926.596 401.942 924.483 405.402 923.383H405.862C409.749 923.383 412.289 925.096 413.482 928.523Z" fill="white"/>
<path d="M452.441 923.386V923.016H465.111L465.291 924.306L465.481 924.856L465.841 926.146L466.211 928.346L466.761 930.176L467.131 932.386L467.681 934.216L467.861 935.686C468.075 936.206 468.198 936.636 468.231 936.976L468.411 937.706L468.781 938.806V939.546C468.901 939.639 468.961 939.729 468.961 939.816V940.466C469.301 941.139 469.488 941.873 469.521 942.666L469.881 943.766L470.251 945.056L470.621 947.256L471.171 949.086L471.351 950.196L472.451 954.786C472.545 955.213 472.631 955.603 472.711 955.956C472.785 956.303 472.821 956.646 472.821 956.986L473.191 957.716V958.456L473.551 959.376V960.106L473.921 960.836V961.576C474.261 962.496 474.445 963.293 474.471 963.966L474.661 964.696C474.875 965.309 475.041 965.876 475.161 966.396C475.281 966.916 475.358 967.389 475.391 967.816L475.761 969.286L476.131 970.566L476.491 969.466L477.231 965.796L477.591 964.876L477.781 963.776L478.331 961.206L478.701 959.926V959.376L479.431 956.436L479.611 955.336L479.981 954.596L480.161 953.866L480.351 952.946V952.216L480.531 951.656L481.271 948.726L481.631 946.516L481.821 945.786L482.181 945.056C482.248 944.076 482.431 943.216 482.731 942.476L482.921 941.566V941.016L483.291 939.546L483.471 938.996L484.021 936.606L484.201 935.506L484.571 934.406L484.751 933.486L485.301 931.096L485.491 930.176L485.671 929.816C485.705 929.476 485.745 929.146 485.791 928.826C485.838 928.506 485.921 928.223 486.041 927.976L486.221 927.426V926.876L486.411 926.146L486.591 925.586L487.141 923.016H500.731V923.566C501.158 924.639 501.401 925.683 501.461 926.696L501.831 928.156L502.011 928.716L502.751 932.016L503.111 933.486C503.358 934.373 503.481 935.106 503.481 935.686C503.695 936.206 503.818 936.636 503.851 936.976L504.211 938.256L504.401 939.546L504.581 940.276L504.771 940.826C504.858 941.226 504.935 941.586 505.001 941.906C505.061 942.226 505.105 942.539 505.131 942.846C505.378 943.426 505.548 943.963 505.641 944.456C505.735 944.943 505.811 945.386 505.871 945.786L506.051 946.886L506.421 947.806L506.601 948.906V949.456C506.908 950.189 507.091 950.863 507.151 951.476L507.341 952.576C507.641 953.309 507.825 953.983 507.891 954.596L508.071 955.516L508.621 957.536V958.266C508.741 958.546 508.801 958.853 508.801 959.186C509.141 959.893 509.328 960.506 509.361 961.026L509.541 961.946L509.721 963.046L509.911 963.776C510.218 964.723 510.401 965.579 510.461 966.346C510.581 966.439 510.641 966.533 510.641 966.626V967.266C511.068 968.339 511.315 969.379 511.381 970.386C511.561 970.326 511.681 970.203 511.741 970.016C511.895 969.256 512.048 968.593 512.201 968.026C512.355 967.459 512.508 966.963 512.661 966.536V965.796C513.061 964.696 513.305 963.716 513.391 962.856L513.761 961.576L514.501 958.636L514.681 957.166L515.051 955.886L515.231 955.336V954.786C515.445 954.199 515.615 953.669 515.741 953.196C515.861 952.723 515.935 952.273 515.961 951.846L516.331 950.556L517.801 944.496L518.351 941.566L518.721 940.096C519.055 939.209 519.238 938.476 519.271 937.896L519.451 936.976L519.821 935.506C520.095 934.619 520.278 933.886 520.371 933.306L520.551 932.566L521.111 929.996L521.471 928.896V928.346L522.021 926.876V926.146L522.211 925.586L522.761 923.016H535.241L534.511 926.696L533.961 928.896L533.771 929.446L533.221 932.016L532.861 933.486L532.491 934.766L531.751 938.446L531.391 939.726L530.651 943.216L530.291 944.496L530.101 945.056L529.731 947.066L529.551 947.436L529.371 948.726C529.065 949.733 528.881 950.589 528.821 951.296L528.081 953.496L527.901 954.786L527.711 955.516L527.531 956.066L527.351 957.356L527.161 957.906L526.061 962.496L525.881 963.776L525.511 965.066L524.591 968.736L524.411 970.016L523.311 974.606L522.761 977.176C522.421 978.096 522.238 978.893 522.211 979.566L521.471 981.956V982.686C521.138 983.606 520.955 984.403 520.921 985.076C520.615 986.083 520.431 986.939 520.371 987.646L520.001 988.926L519.821 989.296L519.641 990.586C519.335 991.593 519.151 992.449 519.091 993.156H505.501L505.321 991.686C505.108 991.166 504.985 990.736 504.951 990.396L504.581 988.926L504.401 987.646L504.031 986.356C503.938 985.989 503.861 985.639 503.801 985.306C503.741 984.966 503.695 984.643 503.661 984.336L503.481 983.606L503.301 982.686C503.175 982.533 503.111 982.349 503.111 982.136L502.931 981.216L502.751 980.666C502.658 980.273 502.581 979.913 502.521 979.586C502.455 979.266 502.408 978.953 502.381 978.646C502.168 978.066 502.008 977.533 501.901 977.046C501.795 976.553 501.708 976.109 501.641 975.716L501.461 974.976L501.281 974.056C501.155 973.689 501.068 973.339 501.021 973.006C500.981 972.666 500.945 972.343 500.911 972.036C500.698 971.429 500.531 970.849 500.411 970.296C500.285 969.743 500.208 969.223 500.181 968.736C500.055 968.583 499.991 968.399 499.991 968.186L499.811 967.446L499.631 966.896C499.538 966.256 499.415 965.646 499.261 965.066L498.891 963.406L498.711 962.306L498.341 961.396L497.971 959.186L497.791 958.636V958.086C497.485 957.353 497.301 956.679 497.241 956.066L496.871 953.866L496.501 952.946L496.141 951.476V950.746C495.775 949.733 495.591 948.876 495.591 948.176C495.465 948.023 495.401 947.839 495.401 947.626L495.221 947.066V946.516C494.915 945.816 494.731 945.083 494.671 944.316C494.365 943.336 494.181 942.419 494.121 941.566L493.751 942.296L493.571 943.396L493.021 945.786L492.651 947.806L492.461 948.356L491.731 951.476L491.551 952.216L491.181 954.046L491.001 954.786L490.631 956.806L490.451 957.356L489.711 960.836L489.341 962.126L489.161 963.406C488.828 964.326 488.645 965.123 488.611 965.796L488.431 966.166L488.241 967.266L488.061 967.816L487.141 972.406L486.961 972.956L486.221 976.446L486.041 977.176L485.861 978.096L485.671 978.646L484.941 982.136L484.571 983.606L484.201 985.446L484.021 985.806L483.651 987.466L483.471 988.196L483.291 989.476C483.071 990.243 482.948 990.856 482.921 991.316C482.795 991.623 482.711 991.913 482.671 992.186C482.625 992.466 482.585 992.726 482.551 992.966C482.125 993.033 481.735 993.086 481.381 993.126C481.028 993.173 480.685 993.196 480.351 993.196H479.891C479.738 993.196 479.585 993.183 479.431 993.156H468.781V992.416C468.355 991.316 468.111 990.276 468.051 989.296C467.925 989.143 467.861 988.959 467.861 988.746L467.681 987.826C467.008 985.653 466.578 983.816 466.391 982.316L466.211 981.766L465.291 978.286L465.111 976.816L463.641 971.126V970.386C463.335 969.686 463.151 968.953 463.091 968.186L462.721 967.086L462.361 965.796V965.246L461.441 961.576V961.026L461.251 960.286L460.891 959.556L460.701 958.086C460.461 957.353 460.265 956.679 460.111 956.066C459.958 955.453 459.851 954.903 459.791 954.416L459.601 953.866V953.316C459.481 953.163 459.421 952.979 459.421 952.766L459.051 951.296L458.871 950.746C458.745 950.099 458.628 949.516 458.521 948.996C458.415 948.476 458.285 948.019 458.131 947.626L457.951 946.336C457.738 945.723 457.568 945.156 457.441 944.636C457.321 944.116 457.245 943.643 457.211 943.216L457.031 942.296C456.911 942.143 456.851 941.959 456.851 941.746L455.931 938.076L455.561 936.786L455.381 935.876L455.201 935.136L455.011 933.856C454.765 933.209 454.641 932.656 454.641 932.196V932.016L454.281 931.096L454.091 930.366C453.971 929.479 453.788 928.743 453.541 928.156V927.426C453.421 927.273 453.361 927.089 453.361 926.876" fill="white"/>
<path d="M578.816 947.437L579.376 948.537C580.809 950.317 581.726 952.153 582.126 954.047C582.246 954.84 582.336 955.583 582.396 956.277C582.462 956.963 582.496 957.567 582.496 958.087V982.317C583.622 984.557 585.272 985.903 587.446 986.357L587.086 986.907C586.959 987.127 586.836 987.25 586.716 987.277L586.536 987.827L586.166 988.197C585.859 988.87 585.492 989.42 585.066 989.847C584.632 990.98 584.079 991.837 583.406 992.417C583.132 993.03 582.872 993.56 582.626 994.007C582.386 994.447 582.159 994.837 581.946 995.177C578.366 994.257 575.549 992.603 573.496 990.217H572.946C568.999 993.063 564.929 994.487 560.736 994.487C558.469 994.487 556.236 994.103 554.036 993.337C547.456 990.983 543.479 986.7 542.106 980.487V980.257C542.106 968.417 549.036 962.497 562.896 962.497H563.036C563.309 962.37 563.612 962.307 563.946 962.307L564.496 962.127H565.786L566.336 961.947H566.886L571.476 961.397C571.536 961.057 571.566 960.75 571.566 960.477V959.557C571.566 954.443 568.859 951.887 563.446 951.887C559.679 951.887 554.522 953.157 547.976 955.697L547.246 954.047L546.876 952.947L546.506 952.577L546.326 952.217L545.956 951.107C545.622 950.56 545.379 950.01 545.226 949.457C544.579 948.603 544.149 947.747 543.936 946.887L544.486 946.707L544.856 946.517L545.406 946.337L545.776 945.967H546.326C546.446 945.847 546.552 945.787 546.646 945.787H546.696C547.796 945.207 548.772 944.777 549.626 944.497L550.546 944.317C551.219 944.01 551.832 943.827 552.386 943.767L553.856 943.397C554.922 942.97 555.962 942.727 556.976 942.667L561.016 941.927C561.622 941.867 562.209 941.813 562.776 941.767C563.342 941.72 563.902 941.697 564.456 941.697C570.296 941.697 575.082 943.61 578.816 947.437ZM567.066 970.757H565.966C565.692 970.817 565.426 970.863 565.166 970.897C564.906 970.923 564.652 970.937 564.406 970.937H564.136L563.396 971.127H562.846C562.692 971.247 562.509 971.307 562.296 971.307H561.746L558.806 972.037H558.256C557.402 972.53 556.669 972.837 556.056 972.957C554.069 974.857 553.076 976.693 553.076 978.467C553.076 980.087 553.886 981.677 555.506 983.237C557.859 984.677 560.152 985.397 562.386 985.397C565.232 985.397 567.956 984.25 570.556 981.957C570.802 981.25 571.049 980.76 571.296 980.487L571.476 979.937L571.296 979.197V970.567H567.626C567.472 970.693 567.286 970.757 567.066 970.757Z" fill="white"/>
<path d="M600.182 993.333V943.213H611.382V993.333H600.182ZM612.482 928.523V929.123C612.482 931.663 611.685 933.726 610.092 935.313C608.412 936.14 606.865 936.553 605.452 936.553C603.005 936.553 601.065 935.223 599.632 932.563C599.352 931.49 599.212 930.543 599.212 929.723C599.212 926.596 600.942 924.483 604.402 923.383H604.862C608.749 923.383 611.289 925.096 612.482 928.523Z" fill="white"/>
<path d="M341.25 916.802H290.75V1014.8H341.25V916.802Z" stroke="white" stroke-width="2" stroke-dasharray="5 5"/>
<path d="M393.25 916.802H343.25V1014.8H393.25V916.802Z" stroke="white" stroke-width="2" stroke-dasharray="5 5"/>
<path d="M420.25 916.802H395.25V1014.8H420.25V916.802Z" stroke="white" stroke-width="2" stroke-dasharray="5 5"/>
<path d="M445.25 916.802H422.25V1014.8H445.25V916.802Z" stroke="white" stroke-width="2" stroke-dasharray="5 5"/>
<path d="M536.75 916.802H447.25V1014.8H536.75V916.802Z" stroke="white" stroke-width="2" stroke-dasharray="5 5"/>
<path d="M592.25 916.802H538.75V1014.8H592.25V916.802Z" stroke="white" stroke-width="2" stroke-dasharray="5 5"/>
<path d="M619.25 916.802H594.25V1014.8H619.25V916.802Z" stroke="white" stroke-width="2" stroke-dasharray="5 5"/>
<path d="M69.7501 729.304L119.75 679.304H169.75L136.417 712.637H269.75V745.97H136.417L169.75 779.304H119.75L69.7501 729.304Z" fill="white"/>
<path d="M457.5 573.229H857.5C867.855 573.229 876.25 564.834 876.25 554.479V604.479C876.25 594.124 867.855 585.729 857.5 585.729H57.5C47.1446 585.729 38.75 594.124 38.75 604.479V554.479C38.75 564.834 47.1446 573.229 57.5 573.229H457.5Z" fill="white"/>
<path d="M196.27 87.5293V76.5093H246.94V87.5293H227.66V146.829H215.55V87.5293" fill="white"/>
<path d="M289.659 102.756L289.109 103.496L288.559 104.046L288.009 104.416L287.269 105.516L286.909 105.886L286.539 106.066C286.139 106.619 285.772 107.046 285.439 107.346L283.049 110.106C277.969 106.833 273.762 105.196 270.429 105.196C267.002 105.196 264.479 106.893 262.859 110.286C262.919 112.279 263.712 113.749 265.239 114.696C265.912 114.876 266.402 115.059 266.709 115.246C267.902 115.426 268.882 115.669 269.649 115.976C281.242 116.836 287.729 121.489 289.109 129.936C289.169 130.303 289.199 130.659 289.199 131.006C289.199 131.359 289.199 131.706 289.199 132.046C289.199 138.193 286.599 142.813 281.399 145.906C277.665 147.586 273.915 148.426 270.149 148.426C262.989 148.426 255.845 145.383 248.719 139.296L249.089 138.566L249.999 137.646C250.612 136.913 251.165 136.359 251.659 135.986C251.779 135.773 251.899 135.653 252.019 135.626L252.389 135.076C252.509 134.863 252.632 134.739 252.759 134.706L252.939 134.336L253.309 134.156L255.699 131.396C260.225 135.683 264.965 137.826 269.919 137.826C271.999 137.826 274.112 137.459 276.259 136.726C276.805 135.993 277.355 135.443 277.909 135.076C278.095 134.343 278.189 133.653 278.189 133.006C278.189 131.413 277.669 130.083 276.629 129.016L272.399 127.546C259.792 126.779 252.939 121.393 251.839 111.386C252.665 101.319 258.355 95.936 268.909 95.236H269.559C277.665 95.236 284.365 97.7426 289.659 102.756Z" fill="white"/>
<path d="M302.037 132.505V96.7047H313.057V128.465C313.177 128.618 313.237 128.801 313.237 129.015C313.364 129.108 313.427 129.198 313.427 129.285V129.385C313.64 130.758 313.944 131.981 314.337 133.055C316.45 135.988 319.16 137.455 322.467 137.455H322.607C326.707 136.355 329.58 134.091 331.227 130.665V130.115L331.967 127.915V96.7047H343.167V146.825H331.967V142.785C327.56 146.391 323.17 148.195 318.797 148.195C315.397 148.195 311.954 147.125 308.467 144.985C305.62 142.811 303.66 140.241 302.587 137.275L302.407 135.985C302.134 135.098 301.997 134.228 301.997 133.375V132.965C301.997 132.811 302.01 132.658 302.037 132.505Z" fill="white"/>
<path d="M401.586 117.273L401.766 120.023C401.886 120.176 401.946 120.36 401.946 120.573V126.083H368.356C369.056 132.323 372.236 135.996 377.896 137.103C378.816 137.19 379.719 137.233 380.606 137.233C385.226 137.233 389.159 135.72 392.406 132.693C392.799 133.366 393.289 133.916 393.876 134.343L394.056 134.893L394.606 135.443C395.033 135.843 395.399 136.22 395.706 136.573C396.013 136.926 396.259 137.286 396.446 137.653C396.659 137.773 396.779 137.893 396.806 138.013L399.376 140.953C393.563 145.82 387.366 148.253 380.786 148.253C379.659 148.253 378.513 148.176 377.346 148.023C376.186 147.87 375.023 147.656 373.856 147.383C363.269 143.863 357.456 136.273 356.416 124.613C356.416 124.46 356.409 124.153 356.396 123.693C356.383 123.24 356.376 122.95 356.376 122.823C356.376 106.883 363.549 97.8098 377.896 95.6031C392.156 96.0965 400.053 103.32 401.586 117.273ZM368.166 117.453H390.386V116.903C390.259 116.536 390.196 116.17 390.196 115.803V115.433C389.889 114.76 389.706 114.15 389.646 113.603C387.386 108.37 383.653 105.736 378.446 105.703C371.899 107.263 368.473 111.18 368.166 117.453Z" fill="white"/>
<path d="M454.8 105.516V106.066C455.2 106.799 455.447 107.533 455.54 108.266V146.636H444.34V114.146L444.15 113.046C442.624 108.419 440.054 106.106 436.44 106.106C435.34 106.106 434.117 106.336 432.77 106.796C429.71 108.116 427.507 110.199 426.16 113.046L425.43 116.166V146.636H414.41V96.516H425.43V100.736C428.857 97.676 432.59 95.8426 436.63 95.236H437.45C445.65 95.236 451.434 98.6626 454.8 105.516Z" fill="white"/>
<path d="M493.941 77.0629V76.6929H506.611L506.791 77.9829L506.981 78.5329L507.341 79.8229L507.711 82.0229L508.261 83.8529L508.631 86.0629L509.181 87.8929L509.361 89.3629C509.575 89.8829 509.698 90.3129 509.731 90.6529L509.911 91.3829L510.281 92.4829V93.2229C510.401 93.3163 510.461 93.4063 510.461 93.4929V94.1429C510.801 94.8163 510.988 95.5496 511.021 96.3429L511.381 97.4429L511.751 98.7329L512.121 100.933L512.671 102.763L512.851 103.873L513.951 108.463C514.045 108.89 514.131 109.28 514.211 109.633C514.285 109.98 514.321 110.323 514.321 110.663L514.691 111.393V112.133L515.051 113.053V113.783L515.421 114.513V115.253C515.761 116.173 515.945 116.97 515.971 117.643L516.161 118.373C516.375 118.986 516.541 119.553 516.661 120.073C516.781 120.593 516.858 121.066 516.891 121.493L517.261 122.963L517.631 124.243L517.991 123.143L518.731 119.473L519.091 118.553L519.281 117.453L519.831 114.883L520.201 113.603V113.053L520.931 110.113L521.111 109.013L521.481 108.273L521.661 107.543L521.851 106.623V105.893L522.031 105.333L522.771 102.403L523.131 100.193L523.321 99.4629L523.681 98.7329C523.748 97.7529 523.931 96.8929 524.231 96.1529L524.421 95.2429V94.6929L524.791 93.2229L524.971 92.6729L525.521 90.2829L525.701 89.1829L526.071 88.0829L526.251 87.1629L526.801 84.7729L526.991 83.8529L527.171 83.4929C527.205 83.1529 527.245 82.8229 527.291 82.5029C527.338 82.1829 527.421 81.8996 527.541 81.6529L527.721 81.1029V80.5529L527.911 79.8229L528.091 79.2629L528.641 76.6929H542.231V77.2429C542.658 78.3163 542.901 79.3596 542.961 80.3729L543.331 81.8329L543.511 82.3929L544.251 85.6929L544.611 87.1629C544.858 88.0496 544.981 88.7829 544.981 89.3629C545.195 89.8829 545.318 90.3129 545.351 90.6529L545.711 91.9329L545.901 93.2229L546.081 93.9529L546.271 94.5029C546.358 94.9029 546.435 95.2629 546.501 95.5829C546.561 95.9029 546.605 96.2163 546.631 96.5229C546.878 97.1029 547.048 97.6396 547.141 98.1329C547.235 98.6196 547.311 99.0629 547.371 99.4629L547.551 100.563L547.921 101.483L548.101 102.583V103.133C548.408 103.866 548.591 104.54 548.651 105.153L548.841 106.253C549.141 106.986 549.325 107.66 549.391 108.273L549.571 109.193L550.121 111.213V111.943C550.241 112.223 550.301 112.53 550.301 112.863C550.641 113.57 550.828 114.183 550.861 114.703L551.041 115.623L551.221 116.723L551.411 117.453C551.718 118.4 551.901 119.256 551.961 120.023C552.081 120.116 552.141 120.21 552.141 120.303V120.943C552.568 122.016 552.815 123.056 552.881 124.063C553.061 124.003 553.181 123.88 553.241 123.693C553.395 122.933 553.548 122.27 553.701 121.703C553.855 121.136 554.008 120.64 554.161 120.213V119.473C554.561 118.373 554.805 117.393 554.891 116.533L555.261 115.253L556.001 112.313L556.181 110.843L556.551 109.563L556.731 109.013V108.463C556.945 107.876 557.115 107.346 557.241 106.873C557.361 106.4 557.435 105.95 557.461 105.523L557.831 104.233L559.301 98.1729L559.851 95.2429L560.221 93.7729C560.555 92.8863 560.738 92.1529 560.771 91.5729L560.951 90.6529L561.321 89.1829C561.595 88.2963 561.778 87.5629 561.871 86.9829L562.051 86.2429L562.611 83.6729L562.971 82.5729V82.0229L563.521 80.5529V79.8229L563.711 79.2629L564.261 76.6929H576.741L576.011 80.3729L575.461 82.5729L575.271 83.1229L574.721 85.6929L574.361 87.1629L573.991 88.4429L573.251 92.1229L572.891 93.4029L572.151 96.8929L571.791 98.1729L571.601 98.7329L571.231 100.743L571.051 101.113L570.871 102.403C570.565 103.41 570.381 104.266 570.321 104.973L569.581 107.173L569.401 108.463L569.211 109.193L569.031 109.743L568.851 111.033L568.661 111.583L567.561 116.173L567.381 117.453L567.011 118.743L566.091 122.413L565.911 123.693L564.811 128.283L564.261 130.853C563.921 131.773 563.738 132.57 563.711 133.243L562.971 135.633V136.363C562.638 137.283 562.455 138.08 562.421 138.753C562.115 139.76 561.931 140.616 561.871 141.323L561.501 142.603L561.321 142.973L561.141 144.263C560.835 145.27 560.651 146.126 560.591 146.833H547.001L546.821 145.363C546.608 144.843 546.485 144.413 546.451 144.073L546.081 142.603L545.901 141.323L545.531 140.033C545.438 139.666 545.361 139.316 545.301 138.983C545.241 138.643 545.195 138.32 545.161 138.013L544.981 137.283L544.801 136.363C544.675 136.21 544.611 136.026 544.611 135.813L544.431 134.893L544.251 134.343C544.158 133.95 544.081 133.59 544.021 133.263C543.955 132.943 543.908 132.63 543.881 132.323C543.668 131.743 543.508 131.21 543.401 130.723C543.295 130.23 543.208 129.786 543.141 129.393L542.961 128.653L542.781 127.733C542.655 127.366 542.568 127.016 542.521 126.683C542.481 126.343 542.445 126.02 542.411 125.713C542.198 125.106 542.031 124.526 541.911 123.973C541.785 123.42 541.708 122.9 541.681 122.413C541.555 122.26 541.491 122.076 541.491 121.863L541.311 121.123L541.131 120.573C541.038 119.933 540.915 119.323 540.761 118.743L540.391 117.083L540.211 115.983L539.841 115.073L539.471 112.863L539.291 112.313V111.763C538.985 111.03 538.801 110.356 538.741 109.743L538.371 107.543L538.001 106.623L537.641 105.153V104.423C537.275 103.41 537.091 102.553 537.091 101.853C536.965 101.7 536.901 101.516 536.901 101.303L536.721 100.743V100.193C536.415 99.4929 536.231 98.7596 536.171 97.9929C535.865 97.0129 535.681 96.0963 535.621 95.2429L535.251 95.9729L535.071 97.0729L534.521 99.4629L534.151 101.483L533.961 102.033L533.231 105.153L533.051 105.893L532.681 107.723L532.501 108.463L532.131 110.483L531.951 111.033L531.211 114.513L530.841 115.803L530.661 117.083C530.328 118.003 530.145 118.8 530.111 119.473L529.931 119.843L529.741 120.943L529.561 121.493L528.641 126.083L528.461 126.633L527.721 130.123L527.541 130.853L527.361 131.773L527.171 132.323L526.441 135.813L526.071 137.283L525.701 139.123L525.521 139.483L525.151 141.143L524.971 141.873L524.791 143.153C524.571 143.92 524.448 144.533 524.421 144.993C524.295 145.3 524.211 145.59 524.171 145.863C524.125 146.143 524.085 146.403 524.051 146.643C523.625 146.71 523.235 146.763 522.881 146.803C522.528 146.85 522.185 146.873 521.851 146.873H521.391C521.238 146.873 521.085 146.86 520.931 146.833H510.281V146.093C509.855 144.993 509.611 143.953 509.551 142.973C509.425 142.82 509.361 142.636 509.361 142.423L509.181 141.503C508.508 139.33 508.078 137.493 507.891 135.993L507.711 135.443L506.791 131.963L506.611 130.493L505.141 124.803V124.063C504.835 123.363 504.651 122.63 504.591 121.863L504.221 120.763L503.861 119.473V118.923L502.941 115.253V114.703L502.751 113.963L502.391 113.233L502.201 111.763C501.961 111.03 501.765 110.356 501.611 109.743C501.458 109.13 501.351 108.58 501.291 108.093L501.101 107.543V106.993C500.981 106.84 500.921 106.656 500.921 106.443L500.551 104.973L500.371 104.423C500.245 103.776 500.128 103.193 500.021 102.673C499.915 102.153 499.785 101.696 499.631 101.303L499.451 100.013C499.238 99.3996 499.068 98.8329 498.941 98.3129C498.821 97.7929 498.745 97.3196 498.711 96.8929L498.531 95.9729C498.411 95.8196 498.351 95.6363 498.351 95.4229L497.431 91.7529L497.061 90.4629L496.881 89.5529L496.701 88.8129L496.511 87.5329C496.265 86.8863 496.141 86.3329 496.141 85.8729V85.6929L495.781 84.7729L495.591 84.0429C495.471 83.1563 495.288 82.4196 495.041 81.8329V81.1029C494.921 80.9496 494.861 80.7663 494.861 80.5529" fill="white"/>
<path d="M620.316 101.114L620.876 102.214C622.309 103.994 623.226 105.83 623.626 107.724C623.746 108.517 623.836 109.26 623.896 109.954C623.962 110.64 623.996 111.244 623.996 111.764V135.994C625.122 138.234 626.772 139.58 628.946 140.034L628.586 140.584C628.459 140.804 628.336 140.927 628.216 140.954L628.036 141.504L627.666 141.874C627.359 142.547 626.992 143.097 626.566 143.524C626.132 144.657 625.579 145.514 624.906 146.094C624.632 146.707 624.372 147.237 624.126 147.684C623.886 148.124 623.659 148.514 623.446 148.854C619.866 147.934 617.049 146.28 614.996 143.894H614.446C610.499 146.74 606.429 148.164 602.236 148.164C599.969 148.164 597.736 147.78 595.536 147.014C588.956 144.66 584.979 140.377 583.606 134.164V133.934C583.606 122.094 590.536 116.174 604.396 116.174H604.536C604.809 116.047 605.112 115.984 605.446 115.984L605.996 115.804H607.286L607.836 115.624H608.386L612.976 115.074C613.036 114.734 613.066 114.427 613.066 114.154V113.234C613.066 108.12 610.359 105.564 604.946 105.564C601.179 105.564 596.022 106.834 589.476 109.374L588.746 107.724L588.376 106.624L588.006 106.254L587.826 105.894L587.456 104.784C587.122 104.237 586.879 103.687 586.726 103.134C586.079 102.28 585.649 101.424 585.436 100.564L585.986 100.384L586.356 100.194L586.906 100.014L587.276 99.6437H587.826C587.946 99.5237 588.052 99.4637 588.146 99.4637H588.196C589.296 98.8837 590.272 98.4537 591.126 98.1737L592.046 97.9937C592.719 97.687 593.332 97.5037 593.886 97.4437L595.356 97.0737C596.422 96.647 597.462 96.4037 598.476 96.3437L602.516 95.6037C603.122 95.5437 603.709 95.4903 604.276 95.4437C604.842 95.397 605.402 95.3737 605.956 95.3737C611.796 95.3737 616.582 97.287 620.316 101.114ZM608.566 124.434H607.466C607.192 124.494 606.926 124.54 606.666 124.574C606.406 124.6 606.152 124.614 605.906 124.614H605.636L604.896 124.804H604.346C604.192 124.924 604.009 124.984 603.796 124.984H603.246L600.306 125.714H599.756C598.902 126.207 598.169 126.514 597.556 126.634C595.569 128.534 594.576 130.37 594.576 132.144C594.576 133.764 595.386 135.354 597.006 136.914C599.359 138.354 601.652 139.074 603.886 139.074C606.732 139.074 609.456 137.927 612.056 135.634C612.302 134.927 612.549 134.437 612.796 134.164L612.976 133.614L612.796 132.874V124.244H609.126C608.972 124.37 608.786 124.434 608.566 124.434Z" fill="white"/>
<path d="M682.8 105.516V106.066C683.2 106.799 683.447 107.533 683.54 108.266V146.636H672.34V114.146L672.15 113.046C670.624 108.419 668.054 106.106 664.44 106.106C663.34 106.106 662.117 106.336 660.77 106.796C657.71 108.116 655.507 110.199 654.16 113.046L653.43 116.166V146.636H642.41V96.516H653.43V100.736C656.857 97.676 660.59 95.8426 664.63 95.236H665.45C673.65 95.236 679.434 98.6626 682.8 105.516Z" fill="white"/>
<path d="M246.25 70.4789H195.75V168.479H246.25V70.4789Z" stroke="white" stroke-width="2" stroke-dasharray="5 5"/>
<path d="M293.75 70.4789H248.25V168.479H293.75V70.4789Z" stroke="white" stroke-width="2" stroke-dasharray="5 5"/>
<path d="M351.25 70.4789H295.75V168.479H351.25V70.4789Z" stroke="white" stroke-width="2" stroke-dasharray="5 5"/>
<path d="M405.75 70.4789H353.25V168.479H405.75V70.4789Z" stroke="white" stroke-width="2" stroke-dasharray="5 5"/>
<path d="M461.75 70.4789H407.75V168.479H461.75V70.4789Z" stroke="white" stroke-width="2" stroke-dasharray="5 5"/>
<path d="M486.75 70.4789H463.75V168.479H486.75V70.4789Z" stroke="white" stroke-width="2" stroke-dasharray="5 5"/>
<path d="M578.25 70.4789H488.75V168.479H578.25V70.4789Z" stroke="white" stroke-width="2" stroke-dasharray="5 5"/>
<path d="M633.75 70.4789H580.25V168.479H633.75V70.4789Z" stroke="white" stroke-width="2" stroke-dasharray="5 5"/>
<path d="M689.75 70.4789H635.75V168.479H689.75V70.4789Z" stroke="white" stroke-width="2" stroke-dasharray="5 5"/>
<path d="M119.75 205.99L169.75 255.99V305.99L136.417 272.656V405.99H103.083V272.656L69.7501 305.99V255.99L119.75 205.99Z" fill="white"/>
<path d="M307.551 693.68V623.55H319.671V654.76L320.401 653.84L321.501 652.74C321.627 652.527 321.751 652.404 321.871 652.37L322.051 652L322.421 651.64L324.811 648.88L325.731 647.97L325.911 647.41L327.011 646.5L327.201 646.13L329.211 643.74L329.951 642.82L331.971 640.62L332.701 639.89L333.251 638.97C333.591 638.544 333.921 638.184 334.241 637.89C334.561 637.597 334.844 637.344 335.091 637.13C335.644 636.15 336.257 635.417 336.931 634.93L338.761 632.54L339.311 631.99L339.861 631.26L341.331 629.79L342.981 627.77L343.351 627.4C343.477 627.187 343.601 627.067 343.721 627.04L343.901 626.67L344.271 626.3L346.661 623.55H360.791C360.031 624.864 359.174 625.904 358.221 626.67C357.981 627.097 357.674 627.464 357.301 627.77L356.571 628.87L355.101 630.34L354.001 631.81L353.631 632.18C353.417 632.454 353.204 632.697 352.991 632.91C352.777 633.124 352.564 633.307 352.351 633.46C351.617 634.687 350.821 635.607 349.961 636.22L349.411 636.95L347.391 639.52L346.841 640.07C346.474 640.47 346.154 640.83 345.881 641.15C345.601 641.47 345.371 641.784 345.191 642.09L344.641 642.46L344.091 643.01L343.721 643.74L342.801 644.66L342.431 645.21L342.071 645.58L341.701 646.13L341.151 646.5L340.961 646.86L340.601 647.23C339.314 648.884 338.211 650.107 337.291 650.9C337.964 652.374 338.577 653.477 339.131 654.21L339.681 655.49C339.954 655.77 340.137 656.077 340.231 656.41L340.961 657.33L341.701 658.61L342.071 659.35L342.431 659.9L342.801 660.63L342.981 661.18L343.351 661.37L343.541 662.1C343.661 662.194 343.721 662.287 343.721 662.38V662.47C344.547 663.324 345.097 664.24 345.371 665.22L346.111 666.51L346.471 666.88L348.311 670L349.041 671.28L349.591 672.57L350.331 673.49L350.511 674.04C350.817 674.434 351.077 674.814 351.291 675.18C351.504 675.547 351.674 675.9 351.801 676.24L352.351 676.97L352.711 677.89L353.271 678.63L354.551 680.83L355.291 681.93L355.471 682.66L356.021 683.4L356.201 683.95C356.414 684.104 356.537 684.287 356.571 684.5L356.941 685.24C357.554 685.907 357.981 686.64 358.221 687.44C358.987 688.234 359.477 689.027 359.691 689.82L360.061 690.19L361.891 693.68H348.311L347.761 692.4L347.211 691.84L346.841 691.11L346.111 689.82L345.921 689.27L345.551 688.91L345.371 688.54C345.124 688.114 344.904 687.73 344.711 687.39C344.511 687.057 344.304 686.767 344.091 686.52L343.901 685.97L343.541 685.24L342.801 684.13L342.251 683.03L341.701 682.11L340.961 681.01L340.411 680.09L340.231 679.73C339.464 678.504 338.914 677.464 338.581 676.61C338.307 676.27 338.124 675.964 338.031 675.69C337.971 675.63 337.924 675.577 337.891 675.53C337.857 675.484 337.841 675.43 337.841 675.37V675.32C336.894 674.1 336.221 673 335.821 672.02L335.641 671.47C334.847 670.517 334.297 669.72 333.991 669.08L333.801 668.34L333.441 667.79L332.891 667.06L332.701 666.51L331.971 665.41L331.791 664.86L331.421 664.49L331.231 664.12L331.051 663.57L330.681 663.39C330.194 662.317 329.704 661.397 329.211 660.63L328.851 661L328.661 661.37C328.141 661.797 327.774 662.224 327.561 662.65L327.011 663.02L325.361 665.22L324.631 665.77L323.891 666.88L323.341 667.24C322.727 668.22 322.114 668.957 321.501 669.45C320.921 670.277 320.311 670.95 319.671 671.47V693.68" fill="white"/>
<path d="M366.453 643.562H378.023L378.203 644.662C378.416 645.242 378.586 645.769 378.713 646.242C378.833 646.722 378.91 647.175 378.943 647.602C379.31 648.609 379.493 649.465 379.493 650.172L379.673 650.902C379.8 651.055 379.863 651.239 379.863 651.452L380.963 655.862L381.323 657.702L381.693 658.612V659.162C381.906 659.749 382.076 660.302 382.203 660.822C382.323 661.342 382.4 661.832 382.433 662.292L382.613 663.202C383.1 664.309 383.343 665.349 383.343 666.322L383.533 667.062L383.893 667.792L384.083 669.082C384.33 669.722 384.453 670.272 384.453 670.732V670.912L384.813 672.382C384.94 672.475 385.003 672.569 385.003 672.662V672.752L385.913 676.972L386.103 676.612L386.463 675.502C386.616 674.589 386.803 673.855 387.023 673.302L387.203 672.022C387.356 671.162 387.54 670.489 387.753 670.002C387.786 669.662 387.823 669.332 387.863 669.012C387.91 668.692 387.996 668.409 388.123 668.162V667.612L388.303 667.242L388.853 664.492L389.223 663.392L389.403 662.292C389.71 661.279 389.893 660.422 389.953 659.722L390.323 658.982V658.062L390.503 657.332L391.243 654.942V654.212C391.576 653.292 391.76 652.495 391.793 651.822C392.1 650.815 392.283 649.959 392.343 649.252L392.523 648.702L392.713 647.782L392.893 647.232L393.633 643.742L394.733 643.562H406.113L406.483 644.842V645.402L407.393 648.702L407.763 650.902L408.313 652.742L408.683 654.942C408.93 655.522 409.096 656.059 409.183 656.552C409.276 657.039 409.353 657.482 409.413 657.882L409.603 658.982C409.723 659.135 409.783 659.319 409.783 659.532L411.073 664.862L411.253 665.592V666.322L411.623 667.432L411.803 668.712L412.723 671.832L413.453 675.692C413.64 676.152 413.823 676.519 414.003 676.792L414.373 675.322V674.772L414.553 674.222L415.293 670.732L415.663 669.452L415.843 668.342L416.023 667.792L416.213 667.432C416.366 666.512 416.55 665.775 416.763 665.222V664.672L417.133 663.392L417.863 660.082L418.233 659.352V658.432L418.593 657.702L418.783 656.592L418.963 655.682L419.143 655.132L419.883 651.642L420.063 651.272L420.613 649.072L420.803 648.522V647.782L421.533 645.582C421.566 645.215 421.606 644.862 421.653 644.522C421.693 644.189 421.776 643.869 421.903 643.562H433.463L433.103 644.662L432.913 645.952L432.733 646.312L431.453 651.272L431.263 651.642L430.343 655.312L429.983 656.412L428.883 660.632L428.513 661.922L427.963 663.202L427.773 664.492L427.413 665.962L427.223 666.322L426.863 667.432L425.753 671.832L425.573 672.382L425.393 672.752L424.293 676.972L424.103 677.522C423.796 678.962 423.43 680.125 423.003 681.012L422.823 681.752L422.633 683.032L422.273 684.132L421.353 687.442L420.983 688.912L420.803 689.272L419.703 693.502H407.213L406.843 692.212L406.663 690.742L406.483 690.192V689.642C406.176 688.942 405.993 688.209 405.933 687.442C405.626 686.462 405.443 685.542 405.383 684.682L405.013 683.582V683.032C404.586 681.965 404.34 680.925 404.273 679.912L404.093 678.992L403.723 677.892L403.543 676.612L403.173 675.502L402.993 674.772V674.042C402.566 672.969 402.32 671.925 402.253 670.912L401.703 669.082V668.342C401.43 667.669 401.246 667.059 401.153 666.512C400.973 665.192 400.73 664.152 400.423 663.392C400.27 662.292 400.023 661.372 399.683 660.632C399.563 661.492 399.45 662.252 399.343 662.912C399.236 663.565 399.106 664.152 398.953 664.672L398.403 667.242L398.033 668.712L397.303 672.572L396.933 673.492L396.753 674.772L396.203 677.342L396.013 678.442L395.643 679.182L395.463 680.092C395.403 680.552 395.343 680.965 395.283 681.332C395.223 681.699 395.16 682.022 395.093 682.302L394.733 684.132L394.543 684.872L394.363 685.792L394.183 686.342L393.993 687.622L393.813 688.172L393.443 689.462V690.012C393.23 690.779 393.106 691.389 393.073 691.842C392.953 692.149 392.87 692.442 392.823 692.722C392.776 692.995 392.74 693.255 392.713 693.502H380.223C379.736 692.002 379.43 690.775 379.303 689.822C378.97 689.215 378.786 688.729 378.753 688.362V687.812C378.693 687.745 378.65 687.689 378.623 687.642C378.59 687.602 378.573 687.549 378.573 687.482V687.442L377.653 684.502C377.5 683.829 377.346 683.215 377.193 682.662C377.04 682.115 376.886 681.629 376.733 681.202L376.553 679.912C376.246 679.239 376.063 678.565 376.003 677.892C375.943 677.832 375.896 677.779 375.863 677.732C375.836 677.685 375.823 677.632 375.823 677.572V677.522C375.61 676.942 375.44 676.422 375.313 675.962C375.193 675.509 375.116 675.112 375.083 674.772L374.353 672.202L374.163 671.282C374.043 671.129 373.983 670.945 373.983 670.732C373.65 670.119 373.466 669.629 373.433 669.262V668.712C373.373 668.652 373.326 668.599 373.293 668.552C373.266 668.505 373.253 668.452 373.253 668.392V668.342L372.333 665.412C372.206 664.705 372.07 664.069 371.923 663.502C371.77 662.935 371.6 662.409 371.413 661.922L371.233 660.822L370.863 659.902L370.683 658.982L370.493 658.612V658.062C370.126 657.362 369.943 656.752 369.943 656.232L369.573 655.492L369.393 654.572L368.843 652.562L368.663 651.822L368.473 651.272L368.293 650.172C368.173 650.019 368.113 649.835 368.113 649.622L367.923 649.072L367.373 647.602V647.052C366.853 645.612 366.546 644.449 366.453 643.562Z" fill="white"/>
<path d="M478.315 647.787L478.875 648.887C480.309 650.667 481.225 652.504 481.625 654.397C481.745 655.191 481.836 655.934 481.896 656.627C481.962 657.314 481.995 657.917 481.995 658.437V682.667C483.122 684.907 484.772 686.254 486.945 686.707L486.585 687.257C486.459 687.477 486.335 687.601 486.215 687.627L486.035 688.177L485.665 688.547C485.359 689.221 484.992 689.771 484.565 690.197C484.132 691.331 483.579 692.187 482.905 692.767C482.632 693.381 482.372 693.911 482.125 694.357C481.885 694.797 481.659 695.187 481.445 695.527C477.865 694.607 475.049 692.954 472.995 690.567H472.445C468.499 693.414 464.429 694.837 460.235 694.837C457.969 694.837 455.735 694.454 453.535 693.687C446.955 691.334 442.979 687.051 441.605 680.837V680.607C441.605 668.767 448.535 662.847 462.395 662.847H462.535C462.809 662.721 463.112 662.657 463.445 662.657L463.995 662.477H465.285L465.835 662.297H466.385L470.975 661.747C471.035 661.407 471.065 661.101 471.065 660.827V659.907C471.065 654.794 468.359 652.237 462.945 652.237C459.179 652.237 454.022 653.507 447.475 656.047L446.745 654.397L446.375 653.297L446.005 652.927L445.825 652.567L445.455 651.457C445.122 650.911 444.879 650.361 444.725 649.807C444.079 648.954 443.649 648.097 443.435 647.237L443.985 647.057L444.355 646.867L444.905 646.687L445.275 646.317H445.825C445.945 646.197 446.052 646.137 446.145 646.137H446.195C447.295 645.557 448.272 645.127 449.125 644.847L450.045 644.667C450.719 644.361 451.332 644.177 451.885 644.117L453.355 643.747C454.422 643.321 455.462 643.077 456.475 643.017L460.515 642.277C461.122 642.217 461.709 642.164 462.275 642.117C462.842 642.071 463.402 642.047 463.955 642.047C469.795 642.047 474.582 643.961 478.315 647.787ZM466.565 671.107H465.465C465.192 671.167 464.925 671.214 464.665 671.247C464.405 671.274 464.152 671.287 463.905 671.287H463.635L462.895 671.477H462.345C462.192 671.597 462.009 671.657 461.795 671.657H461.245L458.305 672.387H457.755C456.902 672.881 456.169 673.187 455.555 673.307C453.569 675.207 452.575 677.044 452.575 678.817C452.575 680.437 453.385 682.027 455.005 683.587C457.359 685.027 459.652 685.747 461.885 685.747C464.732 685.747 467.456 684.601 470.056 682.307C470.302 681.601 470.549 681.111 470.795 680.837L470.975 680.287L470.795 679.547V670.917H467.125C466.972 671.044 466.785 671.107 466.565 671.107Z" fill="white"/>
<path d="M499.682 693.684V643.564H510.882V693.684H499.682ZM511.982 628.874V629.474C511.982 632.014 511.185 634.077 509.592 635.664C507.912 636.49 506.365 636.904 504.952 636.904C502.505 636.904 500.565 635.574 499.132 632.914C498.852 631.84 498.712 630.894 498.712 630.074C498.712 626.947 500.442 624.834 503.902 623.734H504.362C508.249 623.734 510.789 625.447 511.982 628.874Z" fill="white"/>
<path d="M613.038 642.461C612.918 642.675 612.735 642.858 612.488 643.011L611.568 643.191L610.838 643.381H610.098C609.825 643.501 609.521 643.561 609.188 643.561C608.541 643.808 607.988 643.931 607.528 643.931H607.348C607.195 644.051 607.011 644.111 606.798 644.111L606.068 644.291L604.778 644.481L604.408 644.661L601.478 645.211C598.171 636.491 592.525 632.131 584.538 632.131C582.671 632.131 580.605 632.391 578.338 632.911C578.185 633.031 578.001 633.091 577.788 633.091L576.508 633.651C575.861 633.985 575.248 634.228 574.668 634.381C574.548 634.595 574.425 634.718 574.298 634.751L573.748 634.931L573.198 635.301L572.828 635.661L572.278 635.851C571.698 636.431 571.171 636.935 570.698 637.361C570.225 637.795 569.775 638.148 569.348 638.421L569.158 638.971L568.248 639.891L568.058 640.441L567.688 640.621C567.261 641.721 566.775 642.641 566.228 643.381C564.661 648.608 563.878 653.671 563.878 658.571C563.878 662.458 564.355 666.205 565.308 669.811C567.721 678.905 573.411 683.861 582.378 684.681H582.568C592.388 684.681 598.691 680.338 601.478 671.651L602.388 671.831C602.755 671.958 603.108 672.045 603.448 672.091C603.781 672.131 604.101 672.168 604.408 672.201L604.778 672.381L607.718 672.931L608.448 673.121L609.738 673.301L613.038 674.041C608.691 687.101 600.125 694.261 587.338 695.521C586.818 695.581 586.291 695.611 585.758 695.611C585.218 695.611 584.688 695.611 584.168 695.611C572.055 695.611 563.015 690.625 557.048 680.651C553.375 673.058 551.538 665.591 551.538 658.251C551.538 653.198 552.395 648.178 554.108 643.191C558.755 630.065 567.505 622.781 580.358 621.341C580.725 621.315 581.085 621.301 581.438 621.301C581.791 621.301 582.135 621.301 582.468 621.301C598.168 621.301 608.358 628.355 613.038 642.461Z" fill="white"/>
<path d="M626.41 693.684V623.734H637.61V647.604C641.617 643.99 645.947 642.184 650.6 642.184C651.274 642.184 651.954 642.224 652.64 642.304C653.327 642.377 654.007 642.49 654.68 642.644C661.08 644.264 665.244 647.937 667.17 653.664L667.35 654.944C667.477 655.284 667.54 655.65 667.54 656.044V693.684H656.34V661.004L655.97 659.534V658.984L655.42 657.704C654.927 656.964 654.62 656.35 654.5 655.864C652.88 654.424 651.227 653.444 649.54 652.924C644.307 653.017 640.574 655.284 638.34 659.724V660.274C638.187 660.7 638.044 661.09 637.91 661.444C637.77 661.79 637.67 662.134 637.61 662.474V693.684" fill="white"/>
<path d="M682.037 679.178V643.378H693.057V675.138C693.177 675.292 693.237 675.475 693.237 675.688C693.364 675.782 693.427 675.872 693.427 675.958V676.058C693.64 677.432 693.944 678.655 694.337 679.728C696.45 682.662 699.16 684.128 702.467 684.128H702.607C706.707 683.028 709.58 680.765 711.227 677.338V676.788L711.967 674.588V643.378H723.167V693.498H711.967V689.458C707.56 693.065 703.17 694.868 698.797 694.868C695.397 694.868 691.954 693.798 688.467 691.658C685.62 689.485 683.66 686.915 682.587 683.948L682.407 682.658C682.134 681.772 681.997 680.902 681.997 680.048V679.638C681.997 679.485 682.01 679.332 682.037 679.178Z" fill="white"/>
<path d="M780.3 652.19V652.74C780.7 653.473 780.947 654.206 781.04 654.94V693.31H769.84V660.82L769.65 659.72C768.124 655.093 765.554 652.78 761.94 652.78C760.84 652.78 759.617 653.01 758.27 653.47C755.21 654.79 753.007 656.873 751.66 659.72L750.93 662.84V693.31H739.91V643.19H750.93V647.41C754.357 644.35 758.09 642.516 762.13 641.91H762.95C771.15 641.91 776.934 645.336 780.3 652.19Z" fill="white"/>
<path d="M825.104 647.05V643.56H836.124V694.6L835.934 696.62L835.754 696.99L835.574 698.09L834.834 700.29L834.284 701.39L833.554 702.49C832.667 704.05 831.627 705.274 830.434 706.16L829.694 707.08L825.844 708.92C821.77 709.927 817.837 710.43 814.044 710.43C807.157 710.43 800.807 708.764 794.994 705.43L795.364 704.7L796.284 702.68L797.014 700.84L797.204 700.29L797.564 699.56C797.93 698.64 798.297 697.904 798.664 697.35L799.034 696.07C803.96 698.577 808.534 699.83 812.754 699.83C816.58 699.83 820.147 698.82 823.454 696.8L823.634 696.25C824.4 695.177 824.89 694.137 825.104 693.13V685.42C821.157 688.354 817.057 689.82 812.804 689.82C810.91 689.82 808.954 689.517 806.934 688.91C800.167 686.244 795.88 681.714 794.074 675.32C793.554 673.667 793.164 672.047 792.904 670.46C792.644 668.867 792.514 667.304 792.514 665.77C792.514 661.43 793.587 657.33 795.734 653.47C799.187 647.077 804.204 643.407 810.784 642.46H811.474C816.8 642.46 821.344 643.99 825.104 647.05ZM813.444 653.47H812.624L808.584 654.94C805.55 658.34 804.034 662.06 804.034 666.1C804.034 666.774 804.08 667.46 804.174 668.16C804.974 675.107 808.647 678.717 815.194 678.99C821.707 678.164 824.964 674.17 824.964 667.01V666.32C824.964 666.08 824.95 665.837 824.924 665.59C824.737 657.484 821.004 653.384 813.724 653.29C813.604 653.41 813.51 653.47 813.444 653.47Z" fill="white"/>
<path d="M362.75 617.153H295.75V715.153H362.75V617.153Z" stroke="white" stroke-width="2" stroke-dasharray="5 5"/>
<path d="M436.25 617.153H364.75V715.153H436.25V617.153Z" stroke="white" stroke-width="2" stroke-dasharray="5 5"/>
<path d="M491.75 617.153H438.25V715.153H491.75V617.153Z" stroke="white" stroke-width="2" stroke-dasharray="5 5"/>
<path d="M518.75 617.153H493.75V715.153H518.75V617.153Z" stroke="white" stroke-width="2" stroke-dasharray="5 5"/>
<path d="M543.75 617.153H520.75V715.153H543.75V617.153Z" stroke="white" stroke-width="2" stroke-dasharray="5 5"/>
<path d="M617.75 617.153H545.75V715.153H617.75V617.153Z" stroke="white" stroke-width="2" stroke-dasharray="5 5"/>
<path d="M673.75 617.153H619.75V715.153H673.75V617.153Z" stroke="white" stroke-width="2" stroke-dasharray="5 5"/>
<path d="M731.25 617.153H675.75V715.153H731.25V617.153Z" stroke="white" stroke-width="2" stroke-dasharray="5 5"/>
<path d="M787.25 617.153H733.25V715.153H787.25V617.153Z" stroke="white" stroke-width="2" stroke-dasharray="5 5"/>
<path d="M844.25 617.153H789.25V715.153H844.25V617.153Z" stroke="white" stroke-width="2" stroke-dasharray="5 5"/>
<path d="M246.003 421.434H257.483C257.403 430.207 257.233 438.737 256.973 447.024C256.713 455.311 255.979 463.261 254.773 470.874C253.579 478.487 251.633 485.611 248.933 492.244C246.233 498.884 242.443 504.924 237.563 510.364C232.689 515.797 226.429 520.541 218.783 524.594C218.329 523.694 217.653 522.701 216.753 521.614C215.853 520.527 214.896 519.477 213.883 518.464C212.869 517.451 211.913 516.607 211.013 515.934C218.213 512.407 224.063 508.187 228.563 503.274C233.063 498.361 236.513 492.884 238.913 486.844C241.313 480.811 243.003 474.307 243.983 467.334C244.956 460.354 245.516 453.004 245.663 445.284C245.816 437.557 245.929 429.607 246.003 421.434ZM216.413 459.114V448.314H285.833V459.114H216.413ZM279.753 507.384V448.314H290.783V507.384C290.783 509.557 290.986 510.944 291.393 511.544C291.806 512.144 292.803 512.444 294.383 512.444C294.756 512.444 295.393 512.444 296.293 512.444C297.193 512.444 298.166 512.444 299.213 512.444C300.266 512.444 301.259 512.444 302.193 512.444C303.133 512.444 303.789 512.444 304.163 512.444C305.216 512.444 305.986 512.011 306.473 511.144C306.959 510.284 307.333 508.654 307.593 506.254C307.859 503.854 308.029 500.367 308.103 495.794C309.003 496.394 310.033 497.011 311.193 497.644C312.359 498.284 313.559 498.847 314.793 499.334C316.033 499.821 317.179 500.214 318.233 500.514C317.853 506.067 317.233 510.474 316.373 513.734C315.513 517.001 314.219 519.344 312.493 520.764C310.766 522.191 308.326 522.904 305.173 522.904C304.653 522.904 303.809 522.904 302.643 522.904C301.483 522.904 300.229 522.904 298.883 522.904C297.529 522.904 296.273 522.904 295.113 522.904C293.946 522.904 293.139 522.904 292.693 522.904C289.393 522.904 286.803 522.454 284.923 521.554C283.049 520.654 281.719 519.081 280.933 516.834C280.146 514.581 279.753 511.431 279.753 507.384Z" fill="white"/>
<path d="M370.448 434.254V420.084H380.798V434.254H370.448ZM351.438 438.194V429.304H399.928V438.194H351.438ZM349.638 461.364V452.254H401.728V461.364H349.638ZM359.428 489.154V482.064H391.828V489.154H359.428ZM359.428 503.104V496.014H391.828V503.104H359.428ZM357.958 439.544L366.398 437.634C367.371 439.734 368.234 442.058 368.988 444.604C369.734 447.158 370.298 449.334 370.678 451.134L361.788 453.384C361.561 451.584 361.091 449.371 360.378 446.744C359.664 444.118 358.858 441.717 357.958 439.544ZM384.848 437.294L394.408 439.544C393.361 442.091 392.331 444.547 391.318 446.914C390.304 449.274 389.424 451.391 388.678 453.264L380.578 451.134C381.324 449.181 382.128 446.891 382.988 444.264C383.854 441.644 384.474 439.321 384.848 437.294ZM355.488 524.254V467.554H392.268V475.314H365.388V524.254H355.488ZM386.538 513.344V467.554H396.998V513.564C396.998 515.964 396.718 517.878 396.158 519.304C395.591 520.731 394.484 521.857 392.838 522.684C391.184 523.504 389.198 523.991 386.878 524.144C384.551 524.291 381.811 524.364 378.658 524.364C378.358 522.944 377.871 521.334 377.198 519.534C376.524 517.734 375.851 516.194 375.178 514.914C377.351 514.994 379.338 515.051 381.138 515.084C382.938 515.124 384.174 515.107 384.848 515.034C385.448 515.034 385.878 514.921 386.138 514.694C386.404 514.468 386.538 514.018 386.538 513.344ZM410.948 437.064V428.404H452.238V437.064H410.948ZM410.948 482.064V475.544H447.848V482.064H410.948ZM411.508 494.554V488.034H447.168V494.554H411.508ZM410.498 507.154V500.634H448.298V507.154H410.498ZM406.898 450.234V420.084H417.248V450.234H406.898ZM406.898 453.154V444.944H447.848V469.694H406.898V461.594H437.498V453.154H406.898ZM406.898 510.414V465.864H417.248V510.414C417.248 512.368 417.584 513.624 418.258 514.184C418.938 514.751 420.551 515.034 423.098 515.034C423.698 515.034 424.768 515.034 426.308 515.034C427.841 515.034 429.544 515.034 431.418 515.034C433.298 515.034 435.061 515.034 436.708 515.034C438.361 515.034 439.524 515.034 440.198 515.034C441.471 515.034 442.448 514.807 443.128 514.354C443.801 513.907 444.304 513.027 444.638 511.714C444.978 510.401 445.184 508.507 445.258 506.034C446.384 506.854 447.848 507.604 449.648 508.284C451.448 508.957 453.061 509.444 454.488 509.744C454.108 513.344 453.471 516.157 452.578 518.184C451.678 520.204 450.328 521.648 448.528 522.514C446.728 523.374 444.251 523.804 441.098 523.804C440.571 523.804 439.651 523.804 438.338 523.804C437.031 523.804 435.571 523.804 433.958 523.804C432.344 523.804 430.694 523.804 429.008 523.804C427.321 523.804 425.838 523.804 424.558 523.804C423.284 523.804 422.384 523.804 421.858 523.804C417.958 523.804 414.921 523.431 412.748 522.684C410.574 521.931 409.054 520.597 408.188 518.684C407.328 516.771 406.898 514.014 406.898 510.414Z" fill="white"/>
<path d="M331.25 412.979H195.75V553.479H331.25V412.979Z" stroke="white" stroke-width="2" stroke-dasharray="5 5"/>
<path d="M468.75 412.979H333.25V553.479H468.75V412.979Z" stroke="white" stroke-width="2" stroke-dasharray="5 5"/>
<path d="M319.458 757.535V748.655H353.208V757.535H319.458ZM341.278 782.405V773.515H385.938V782.405H341.278ZM324.518 801.525V792.415H403.488V801.525H324.518ZM364.908 747.755L373.788 745.275C376.188 751.202 379.471 756.639 383.638 761.585C387.798 766.539 392.728 770.779 398.428 774.305C404.128 777.825 410.464 780.525 417.438 782.405C416.764 783.005 415.978 783.849 415.078 784.935C414.178 786.022 413.354 787.129 412.608 788.255C411.854 789.375 411.214 790.385 410.688 791.285C403.414 788.885 396.854 785.642 391.008 781.555C385.154 777.469 380.051 772.575 375.698 766.875C371.351 761.175 367.754 754.802 364.908 747.755ZM360.408 797.255L370.078 795.905C373.151 802.425 378.251 807.299 385.378 810.525C392.504 813.752 401.768 815.739 413.168 816.485C412.414 817.312 411.628 818.305 410.808 819.465C409.981 820.632 409.211 821.832 408.498 823.065C407.784 824.305 407.204 825.452 406.758 826.505C398.504 825.525 391.378 823.892 385.378 821.605C379.378 819.319 374.351 816.189 370.298 812.215C366.251 808.242 362.954 803.255 360.408 797.255ZM357.478 777.455H368.168C367.868 783.455 367.284 788.815 366.418 793.535C365.558 798.262 364.171 802.425 362.258 806.025C360.344 809.625 357.664 812.739 354.218 815.365C350.764 817.992 346.301 820.242 340.828 822.115C335.354 823.989 328.604 825.489 320.578 826.615C320.204 825.262 319.511 823.685 318.498 821.885C317.484 820.085 316.491 818.625 315.518 817.505C322.864 816.605 329.014 815.442 333.968 814.015C338.914 812.589 342.888 810.825 345.888 808.725C348.888 806.625 351.178 804.132 352.758 801.245C354.331 798.359 355.454 794.945 356.128 791.005C356.801 787.072 357.251 782.555 357.478 777.455ZM350.728 750.115V748.655H352.638L354.328 748.205L360.858 751.125C358.304 758.179 354.758 764.365 350.218 769.685C345.684 775.012 340.511 779.552 334.698 783.305C328.884 787.052 322.791 790.052 316.418 792.305C315.891 791.105 315.064 789.659 313.938 787.965C312.818 786.279 311.768 784.949 310.788 783.975C316.568 782.329 322.118 779.892 327.438 776.665C332.764 773.439 337.491 769.575 341.618 765.075C345.738 760.575 348.774 755.589 350.728 750.115ZM320.918 763.835L327.668 758.555C330.368 760.275 333.141 762.335 335.988 764.735C338.841 767.135 340.981 769.349 342.408 771.375L335.208 777.225C333.854 775.199 331.808 772.929 329.068 770.415C326.334 767.909 323.618 765.715 320.918 763.835ZM392.918 745.165L400.788 750.225C397.788 752.699 394.601 755.119 391.228 757.485C387.854 759.845 384.704 761.889 381.778 763.615L375.478 759.115C377.351 757.842 379.378 756.415 381.558 754.835C383.731 753.262 385.811 751.612 387.798 749.885C389.784 748.165 391.491 746.592 392.918 745.165ZM405.518 756.975L413.618 762.155C410.618 764.555 407.391 766.899 403.938 769.185C400.491 771.472 397.304 773.439 394.378 775.085L387.858 770.365C389.804 769.239 391.848 767.905 393.988 766.365C396.121 764.832 398.201 763.222 400.228 761.535C402.254 759.849 404.018 758.329 405.518 756.975ZM338.808 746.515V722.105H349.158V746.515H338.808ZM377.618 746.515V722.105H387.968V746.515H377.618ZM314.168 738.525V729.185H413.618V738.525" fill="white"/>
<path d="M485.643 735.038V726.038H539.753V735.038H485.643ZM496.333 745.958L501.163 738.868C504.843 739.914 508.726 741.244 512.813 742.858C516.899 744.471 520.836 746.158 524.623 747.918C528.409 749.684 531.539 751.391 534.013 753.038L528.843 761.028C526.516 759.301 523.533 757.521 519.893 755.688C516.259 753.848 512.379 752.064 508.253 750.338C504.126 748.618 500.153 747.158 496.333 745.958ZM484.853 826.388V755.408H543.243V764.738H494.863V826.388H484.853ZM490.813 783.758V774.638H543.463V783.758H490.813ZM490.813 803.558V794.218H543.463V803.558H490.813ZM538.293 815.368V755.408H548.753V815.588C548.753 817.914 548.473 819.808 547.913 821.268C547.346 822.734 546.276 823.881 544.703 824.708C543.129 825.528 541.199 826.031 538.913 826.218C536.626 826.411 533.869 826.508 530.643 826.508C530.489 825.154 530.113 823.541 529.513 821.668C528.913 819.794 528.239 818.258 527.493 817.058C529.519 817.131 531.413 817.168 533.173 817.168C534.933 817.168 536.076 817.131 536.603 817.058C537.729 817.058 538.293 816.494 538.293 815.368ZM511.173 825.828V760.018H521.303V825.828H511.173ZM535.703 727.958V726.038H538.293L540.313 725.478L547.293 730.428C544.893 733.201 542.136 735.958 539.023 738.698C535.909 741.438 532.609 743.988 529.123 746.348C525.636 748.708 522.129 750.788 518.603 752.588C517.929 751.541 516.993 750.361 515.793 749.048C514.593 747.734 513.543 746.664 512.643 745.838C515.569 744.418 518.513 742.694 521.473 740.668C524.433 738.641 527.169 736.521 529.683 734.308C532.196 732.094 534.203 729.978 535.703 727.958ZM454.593 731.218L460.663 723.568C462.916 724.694 465.393 726.008 468.093 727.508C470.793 729.008 473.399 730.468 475.913 731.888C478.426 733.314 480.543 734.591 482.263 735.718L475.853 744.488C474.279 743.214 472.273 741.808 469.833 740.268C467.399 738.734 464.833 737.161 462.133 735.548C459.433 733.934 456.919 732.491 454.593 731.218ZM448.963 761.258L455.153 753.378C457.326 754.431 459.783 755.651 462.523 757.038C465.263 758.424 467.906 759.791 470.453 761.138C473.006 762.491 475.106 763.731 476.753 764.858L470.563 773.628C468.989 772.501 466.946 771.208 464.433 769.748C461.919 768.288 459.313 766.808 456.613 765.308C453.913 763.808 451.363 762.458 448.963 761.258ZM460.663 824.478L451.663 817.958C453.616 815.031 455.756 811.561 458.083 807.548C460.403 803.534 462.763 799.298 465.163 794.838C467.563 790.371 469.776 785.964 471.803 781.618L479.683 788.138C477.803 792.118 475.796 796.224 473.663 800.458C471.523 804.698 469.346 808.881 467.133 813.008C464.919 817.128 462.763 820.951 460.663 824.478Z" fill="white"/>
<path d="M431.25 715H295.75V855.5H431.25V715Z" stroke="white" stroke-width="2" stroke-dasharray="5 5"/>
<path d="M568.75 715H433.25V855.5H568.75V715Z" stroke="white" stroke-width="2" stroke-dasharray="5 5"/>
<path d="M169.75 230.176V114.964" stroke="#46C147" stroke-width="3.03189"/>
<path d="M194.75 366.686V114.964" stroke="#46C147" stroke-width="3.03189"/>
<path d="M169.75 139.219H194.75" stroke="#46C147" stroke-width="3.03189"/>
<path d="M190 139.219L226.383 148.314V130.123L190 139.219Z" fill="#46C147"/>
<path d="M176.383 139.219L140 148.314V130.123L176.383 139.219Z" fill="#46C147"/>
<path d="M91.739 122V119.674L100.473 110.114C101.498 108.994 102.342 108.021 103.005 107.194C103.669 106.358 104.159 105.574 104.478 104.842C104.805 104.101 104.969 103.326 104.969 102.517C104.969 101.586 104.745 100.781 104.297 100.101C103.858 99.4201 103.255 98.8947 102.488 98.5243C101.722 98.154 100.861 97.9688 99.9045 97.9688C98.8881 97.9688 98.0009 98.1798 97.243 98.6019C96.4936 99.0153 95.9122 99.5967 95.4988 100.346C95.0939 101.095 94.8915 101.974 94.8915 102.982H91.8424C91.8424 101.431 92.1999 100.07 92.9148 98.899C93.6297 97.7276 94.603 96.8146 95.8347 96.16C97.075 95.5054 98.4661 95.1781 100.008 95.1781C101.558 95.1781 102.932 95.5054 104.129 96.16C105.327 96.8146 106.265 97.6975 106.946 98.8086C107.626 99.9197 107.967 101.156 107.967 102.517C107.967 103.49 107.79 104.442 107.437 105.372C107.092 106.294 106.489 107.323 105.628 108.46C104.775 109.588 103.591 110.966 102.075 112.594L96.1318 118.951V119.158H108.432V122H91.739ZM127.876 106.599L125.137 107.375C124.965 106.918 124.711 106.474 124.375 106.044C124.048 105.605 123.6 105.243 123.031 104.959C122.463 104.674 121.735 104.532 120.848 104.532C119.633 104.532 118.621 104.812 117.812 105.372C117.011 105.923 116.61 106.625 116.61 107.478C116.61 108.236 116.886 108.835 117.437 109.274C117.988 109.713 118.85 110.079 120.021 110.372L122.967 111.096C124.741 111.526 126.063 112.185 126.933 113.072C127.803 113.951 128.238 115.083 128.238 116.47C128.238 117.607 127.911 118.624 127.256 119.519C126.61 120.415 125.706 121.121 124.543 121.638C123.38 122.155 122.028 122.413 120.486 122.413C118.462 122.413 116.787 121.974 115.46 121.096C114.134 120.217 113.294 118.934 112.941 117.245L115.835 116.522C116.11 117.59 116.632 118.391 117.398 118.925C118.173 119.459 119.185 119.726 120.434 119.726C121.856 119.726 122.984 119.425 123.819 118.822C124.664 118.21 125.086 117.478 125.086 116.625C125.086 115.936 124.844 115.359 124.362 114.894C123.88 114.42 123.139 114.067 122.14 113.835L118.832 113.059C117.015 112.629 115.68 111.961 114.827 111.057C113.983 110.144 113.561 109.002 113.561 107.633C113.561 106.513 113.875 105.523 114.504 104.661C115.141 103.8 116.007 103.124 117.101 102.633C118.204 102.142 119.452 101.896 120.848 101.896C122.812 101.896 124.353 102.327 125.473 103.188C126.602 104.05 127.403 105.187 127.876 106.599ZM137.324 122L131.277 102.155H134.482L138.771 117.349H138.978L143.216 102.155H146.471L150.657 117.297H150.864L155.154 102.155H158.358L152.311 122H149.314L144.973 106.754H144.663L140.321 122H137.324Z" fill="#46C147"/>
<path d="M69.75 306V826" stroke="#46C147" stroke-width="3.03189"/>
<path d="M65 792.468L101.383 783.372V801.563L65 792.468Z" fill="#46C147"/>
<path d="M69.3828 792.468L33 783.372V801.563L69.3828 792.468Z" fill="#46C147"/>
<path d="M51.3696 855.048C49.423 855.048 47.7649 854.518 46.3954 853.459C45.0259 852.391 43.9794 850.845 43.2558 848.82C42.5323 846.788 42.1706 844.333 42.1706 841.456C42.1706 838.596 42.5323 836.155 43.2558 834.13C43.988 832.098 45.0388 830.547 46.4083 829.479C47.7865 828.403 49.4402 827.864 51.3696 827.864C53.299 827.864 54.9484 828.403 56.318 829.479C57.6961 830.547 58.7469 832.098 59.4704 834.13C60.2026 836.155 60.5687 838.596 60.5687 841.456C60.5687 844.333 60.2069 846.788 59.4834 848.82C58.7598 850.845 57.7133 852.391 56.3438 853.459C54.9743 854.518 53.3162 855.048 51.3696 855.048ZM51.3696 852.206C53.299 852.206 54.7977 851.275 55.8658 849.415C56.9338 847.554 57.4678 844.901 57.4678 841.456C57.4678 839.165 57.2224 837.214 56.7314 835.603C56.2491 833.993 55.5514 832.765 54.6384 831.921C53.734 831.077 52.6444 830.655 51.3696 830.655C49.4574 830.655 47.963 831.598 46.8864 833.484C45.8097 835.362 45.2714 838.019 45.2714 841.456C45.2714 843.747 45.5125 845.694 45.9949 847.296C46.4772 848.898 47.1706 850.117 48.075 850.952C48.988 851.788 50.0862 852.206 51.3696 852.206ZM79.5869 839.286L76.8479 840.061C76.6756 839.604 76.4215 839.161 76.0856 838.73C75.7583 838.291 75.3104 837.929 74.7419 837.645C74.1734 837.36 73.4456 837.218 72.5584 837.218C71.3439 837.218 70.3319 837.498 69.5222 838.058C68.7212 838.609 68.3207 839.311 68.3207 840.164C68.3207 840.922 68.5963 841.521 69.1475 841.96C69.6988 842.399 70.5601 842.765 71.7315 843.058L74.6773 843.782C76.4516 844.212 77.7738 844.871 78.6437 845.758C79.5137 846.637 79.9487 847.77 79.9487 849.156C79.9487 850.293 79.6214 851.31 78.9667 852.206C78.3207 853.101 77.4163 853.808 76.2535 854.324C75.0907 854.841 73.7384 855.1 72.1967 855.1C70.1725 855.1 68.4972 854.66 67.1708 853.782C65.8443 852.903 65.0045 851.62 64.6514 849.932L67.5455 849.208C67.8211 850.276 68.3422 851.077 69.1088 851.611C69.884 852.145 70.896 852.412 72.145 852.412C73.5662 852.412 74.6945 852.111 75.53 851.508C76.3741 850.896 76.7962 850.164 76.7962 849.311C76.7962 848.622 76.555 848.045 76.0727 847.58C75.5903 847.106 74.8496 846.753 73.8504 846.521L70.5429 845.746C68.7255 845.315 67.3904 844.647 66.5377 843.743C65.6936 842.83 65.2715 841.689 65.2715 840.319C65.2715 839.199 65.5859 838.209 66.2147 837.348C66.8521 836.486 67.7177 835.81 68.8116 835.319C69.9141 834.828 71.1631 834.583 72.5584 834.583C74.5223 834.583 76.064 835.013 77.1838 835.875C78.3121 836.736 79.1132 837.873 79.5869 839.286ZM89.0347 854.686L82.9881 834.841H86.1923L90.4817 850.035H90.6884L94.9262 834.841H98.182L102.368 849.983H102.575L106.864 834.841H110.068L104.022 854.686H101.024L96.6833 839.441H96.3732L92.0321 854.686H89.0347Z" fill="#46C147"/>
<path d="M844.75 673V1131" stroke="#46C147" stroke-width="3.03189"/>
<path d="M840 1100.47L876.383 1091.37V1109.56L840 1100.47Z" fill="#46C147"/>
<path d="M844.383 1100.47L808 1091.37V1109.56L844.383 1100.47Z" fill="#46C147"/>
<path d="M826.37 1163.05C824.423 1163.05 822.765 1162.52 821.395 1161.46C820.026 1160.39 818.979 1158.84 818.256 1156.82C817.532 1154.79 817.171 1152.33 817.171 1149.46C817.171 1146.6 817.532 1144.15 818.256 1142.13C818.988 1140.1 820.039 1138.55 821.408 1137.48C822.786 1136.4 824.44 1135.86 826.37 1135.86C828.299 1135.86 829.948 1136.4 831.318 1137.48C832.696 1138.55 833.747 1140.1 834.47 1142.13C835.203 1144.15 835.569 1146.6 835.569 1149.46C835.569 1152.33 835.207 1154.79 834.483 1156.82C833.76 1158.84 832.713 1160.39 831.344 1161.46C829.974 1162.52 828.316 1163.05 826.37 1163.05ZM826.37 1160.21C828.299 1160.21 829.798 1159.28 830.866 1157.41C831.934 1155.55 832.468 1152.9 832.468 1149.46C832.468 1147.16 832.222 1145.21 831.731 1143.6C831.249 1141.99 830.551 1140.77 829.638 1139.92C828.734 1139.08 827.644 1138.65 826.37 1138.65C824.457 1138.65 822.963 1139.6 821.886 1141.48C820.81 1143.36 820.271 1146.02 820.271 1149.46C820.271 1151.75 820.513 1153.69 820.995 1155.3C821.477 1156.9 822.171 1158.12 823.075 1158.95C823.988 1159.79 825.086 1160.21 826.37 1160.21ZM854.587 1147.29L851.848 1148.06C851.676 1147.6 851.421 1147.16 851.086 1146.73C850.758 1146.29 850.31 1145.93 849.742 1145.64C849.173 1145.36 848.446 1145.22 847.558 1145.22C846.344 1145.22 845.332 1145.5 844.522 1146.06C843.721 1146.61 843.321 1147.31 843.321 1148.16C843.321 1148.92 843.596 1149.52 844.148 1149.96C844.699 1150.4 845.56 1150.77 846.732 1151.06L849.677 1151.78C851.452 1152.21 852.774 1152.87 853.644 1153.76C854.514 1154.64 854.949 1155.77 854.949 1157.16C854.949 1158.29 854.621 1159.31 853.967 1160.21C853.321 1161.1 852.416 1161.81 851.254 1162.32C850.091 1162.84 848.738 1163.1 847.197 1163.1C845.173 1163.1 843.497 1162.66 842.171 1161.78C840.844 1160.9 840.005 1159.62 839.651 1157.93L842.545 1157.21C842.821 1158.28 843.342 1159.08 844.109 1159.61C844.884 1160.15 845.896 1160.41 847.145 1160.41C848.566 1160.41 849.695 1160.11 850.53 1159.51C851.374 1158.9 851.796 1158.16 851.796 1157.31C851.796 1156.62 851.555 1156.05 851.073 1155.58C850.59 1155.11 849.85 1154.75 848.85 1154.52L845.543 1153.75C843.725 1153.31 842.39 1152.65 841.538 1151.74C840.694 1150.83 840.272 1149.69 840.272 1148.32C840.272 1147.2 840.586 1146.21 841.215 1145.35C841.852 1144.49 842.718 1143.81 843.812 1143.32C844.914 1142.83 846.163 1142.58 847.558 1142.58C849.522 1142.58 851.064 1143.01 852.184 1143.87C853.312 1144.74 854.113 1145.87 854.587 1147.29ZM864.035 1162.69L857.988 1142.84H861.192L865.482 1158.03H865.688L869.926 1142.84H873.182L877.368 1157.98H877.575L881.864 1142.84H885.068L879.022 1162.69H876.024L871.683 1147.44H871.373L867.032 1162.69H864.035Z" fill="#46C147"/>
<path d="M270.75 744V845" stroke="#46C147" stroke-width="3.03189"/>
<path d="M295.75 661V844" stroke="#46C147" stroke-width="3.03189"/>
<path d="M270.75 817H295.75" stroke="#46C147" stroke-width="3.03189"/>
<path d="M290 817.096L326.383 808V826.191L290 817.096Z" fill="#46C147"/>
<path d="M276.383 817.096L240 808V826.191L276.383 817.096Z" fill="#46C147"/>
<path d="M195.739 853V850.674L204.473 841.114C205.498 839.994 206.342 839.021 207.005 838.194C207.669 837.358 208.159 836.574 208.478 835.842C208.805 835.101 208.969 834.326 208.969 833.517C208.969 832.586 208.745 831.781 208.297 831.101C207.858 830.42 207.255 829.895 206.488 829.524C205.722 829.154 204.861 828.969 203.904 828.969C202.888 828.969 202.001 829.18 201.243 829.602C200.494 830.015 199.912 830.597 199.499 831.346C199.094 832.095 198.892 832.974 198.892 833.982H195.842C195.842 832.431 196.2 831.07 196.915 829.899C197.63 828.728 198.603 827.815 199.835 827.16C201.075 826.505 202.466 826.178 204.008 826.178C205.558 826.178 206.932 826.505 208.129 827.16C209.327 827.815 210.265 828.697 210.946 829.809C211.626 830.92 211.967 832.156 211.967 833.517C211.967 834.49 211.79 835.442 211.437 836.372C211.092 837.294 210.489 838.323 209.628 839.46C208.775 840.588 207.591 841.966 206.075 843.594L200.132 849.951V850.158H212.432V853H195.739ZM231.876 837.599L229.137 838.375C228.965 837.918 228.711 837.474 228.375 837.044C228.048 836.605 227.6 836.243 227.031 835.959C226.463 835.674 225.735 835.532 224.848 835.532C223.633 835.532 222.621 835.812 221.812 836.372C221.011 836.923 220.61 837.625 220.61 838.478C220.61 839.236 220.886 839.835 221.437 840.274C221.988 840.713 222.85 841.079 224.021 841.372L226.967 842.096C228.741 842.526 230.063 843.185 230.933 844.072C231.803 844.951 232.238 846.083 232.238 847.47C232.238 848.607 231.911 849.624 231.256 850.519C230.61 851.415 229.706 852.121 228.543 852.638C227.38 853.155 226.028 853.413 224.486 853.413C222.462 853.413 220.787 852.974 219.46 852.096C218.134 851.217 217.294 849.934 216.941 848.245L219.835 847.522C220.11 848.59 220.632 849.391 221.398 849.925C222.173 850.459 223.185 850.726 224.434 850.726C225.856 850.726 226.984 850.425 227.819 849.822C228.664 849.21 229.086 848.478 229.086 847.625C229.086 846.936 228.844 846.359 228.362 845.894C227.88 845.42 227.139 845.067 226.14 844.835L222.832 844.059C221.015 843.629 219.68 842.961 218.827 842.057C217.983 841.144 217.561 840.002 217.561 838.633C217.561 837.513 217.875 836.523 218.504 835.661C219.141 834.8 220.007 834.124 221.101 833.633C222.204 833.142 223.452 832.896 224.848 832.896C226.812 832.896 228.353 833.327 229.473 834.188C230.602 835.05 231.403 836.187 231.876 837.599ZM241.324 853L235.277 833.155H238.482L242.771 848.349H242.978L247.216 833.155H250.471L254.657 848.297H254.864L259.154 833.155H262.358L256.311 853H253.314L248.973 837.754H248.663L244.321 853H241.324Z" fill="#46C147"/>
<path d="M645.633 1048V1149" stroke="#46C147" stroke-width="3.03189"/>
<path d="M620.633 965V1148" stroke="#46C147" stroke-width="3.03189"/>
<path d="M645.633 1121H620.633" stroke="#46C147" stroke-width="3.03189"/>
<path d="M626.383 1121.1L590 1112V1130.19L626.383 1121.1Z" fill="#46C147"/>
<path d="M640 1121.1L676.383 1112V1130.19L640 1121.1Z" fill="#46C147"/>
<path d="M655.122 1157V1154.67L663.856 1145.11C664.881 1143.99 665.725 1143.02 666.388 1142.19C667.051 1141.36 667.542 1140.57 667.861 1139.84C668.188 1139.1 668.352 1138.33 668.352 1137.52C668.352 1136.59 668.128 1135.78 667.68 1135.1C667.241 1134.42 666.638 1133.89 665.871 1133.52C665.105 1133.15 664.243 1132.97 663.287 1132.97C662.271 1132.97 661.384 1133.18 660.626 1133.6C659.876 1134.02 659.295 1134.6 658.882 1135.35C658.477 1136.1 658.274 1136.97 658.274 1137.98H655.225C655.225 1136.43 655.583 1135.07 656.298 1133.9C657.012 1132.73 657.986 1131.81 659.217 1131.16C660.458 1130.51 661.849 1130.18 663.391 1130.18C664.941 1130.18 666.315 1130.51 667.512 1131.16C668.709 1131.81 669.648 1132.7 670.329 1133.81C671.009 1134.92 671.349 1136.16 671.349 1137.52C671.349 1138.49 671.173 1139.44 670.82 1140.37C670.475 1141.29 669.872 1142.32 669.011 1143.46C668.158 1144.59 666.974 1145.97 665.458 1147.59L659.515 1153.95V1154.16H671.815V1157H655.122ZM691.259 1141.6L688.52 1142.37C688.348 1141.92 688.094 1141.47 687.758 1141.04C687.43 1140.6 686.983 1140.24 686.414 1139.96C685.846 1139.67 685.118 1139.53 684.231 1139.53C683.016 1139.53 682.004 1139.81 681.194 1140.37C680.393 1140.92 679.993 1141.63 679.993 1142.48C679.993 1143.24 680.268 1143.83 680.82 1144.27C681.371 1144.71 682.232 1145.08 683.404 1145.37L686.35 1146.1C688.124 1146.53 689.446 1147.19 690.316 1148.07C691.186 1148.95 691.621 1150.08 691.621 1151.47C691.621 1152.61 691.294 1153.62 690.639 1154.52C689.993 1155.42 689.089 1156.12 687.926 1156.64C686.763 1157.16 685.411 1157.41 683.869 1157.41C681.845 1157.41 680.169 1156.97 678.843 1156.1C677.517 1155.22 676.677 1153.93 676.324 1152.25L679.218 1151.52C679.493 1152.59 680.014 1153.39 680.781 1153.93C681.556 1154.46 682.568 1154.73 683.817 1154.73C685.238 1154.73 686.367 1154.42 687.202 1153.82C688.046 1153.21 688.468 1152.48 688.468 1151.63C688.468 1150.94 688.227 1150.36 687.745 1149.89C687.263 1149.42 686.522 1149.07 685.523 1148.83L682.215 1148.06C680.398 1147.63 679.063 1146.96 678.21 1146.06C677.366 1145.14 676.944 1144 676.944 1142.63C676.944 1141.51 677.258 1140.52 677.887 1139.66C678.524 1138.8 679.39 1138.12 680.484 1137.63C681.586 1137.14 682.835 1136.9 684.231 1136.9C686.194 1136.9 687.736 1137.33 688.856 1138.19C689.984 1139.05 690.785 1140.19 691.259 1141.6ZM700.707 1157L694.66 1137.15H697.864L702.154 1152.35H702.361L706.598 1137.15H709.854L714.04 1152.3H714.247L718.536 1137.15H721.741L715.694 1157H712.697L708.356 1141.75H708.045L703.704 1157H700.707Z" fill="#46C147"/>
</g>
<defs>
<clipPath id="clip0_0_1">
<rect width="915" height="1215" fill="white"/>
</clipPath>
</defs>
</svg>
