<svg width="840" height="740" viewBox="0 0 840 740" fill="none" xmlns="http://www.w3.org/2000/svg">
<path d="M19.9999 57.4999C19.9999 36.7892 36.7893 19.9999 57.4999 19.9999H782.5C803.211 19.9999 820 36.7892 820 57.4999V682.5C820 703.211 803.211 720 782.5 720H57.4999C36.7893 720 19.9999 703.211 19.9999 682.5V57.4999Z" fill="white"/>
<path d="M38.7499 57.4999C38.7499 47.1446 47.1446 38.7499 57.4999 38.7499H782.5C792.855 38.7499 801.25 47.1446 801.25 57.4999V682.5C801.25 692.855 792.855 701.25 782.5 701.25H57.4999C47.1446 701.25 38.7499 692.855 38.7499 682.5V57.4999Z" fill="#006928"/>
<path d="M75.0503 268.685V257.665H125.72V268.685H106.44V327.985H94.3303V268.685" fill="white"/>
<path d="M168.439 283.912L167.889 284.652L167.339 285.202L166.789 285.572L166.049 286.672L165.689 287.042L165.319 287.222C164.919 287.775 164.553 288.202 164.219 288.502L161.829 291.262C156.749 287.988 152.543 286.352 149.209 286.352C145.783 286.352 143.259 288.048 141.639 291.442C141.699 293.435 142.493 294.905 144.019 295.852C144.693 296.032 145.183 296.215 145.489 296.402C146.683 296.582 147.663 296.825 148.429 297.132C160.023 297.992 166.509 302.645 167.889 311.092C167.949 311.458 167.979 311.815 167.979 312.162C167.979 312.515 167.979 312.862 167.979 313.202C167.979 319.348 165.379 323.968 160.179 327.062C156.446 328.742 152.696 329.582 148.929 329.582C141.769 329.582 134.626 326.538 127.499 320.452L127.869 319.722L128.779 318.802C129.393 318.068 129.946 317.515 130.439 317.142C130.559 316.928 130.679 316.808 130.799 316.782L131.169 316.232C131.289 316.018 131.413 315.895 131.539 315.862L131.719 315.492L132.089 315.312L134.479 312.552C139.006 316.838 143.746 318.982 148.699 318.982C150.779 318.982 152.893 318.615 155.039 317.882C155.586 317.148 156.136 316.598 156.689 316.232C156.876 315.498 156.969 314.808 156.969 314.162C156.969 312.568 156.449 311.238 155.409 310.172L151.179 308.702C138.573 307.935 131.719 302.548 130.619 292.542C131.446 282.475 137.136 277.092 147.689 276.392H148.339C156.446 276.392 163.146 278.898 168.439 283.912Z" fill="white"/>
<path d="M180.818 313.66V277.86H191.838V309.62C191.958 309.774 192.018 309.957 192.018 310.17C192.145 310.264 192.208 310.354 192.208 310.44V310.54C192.421 311.914 192.725 313.137 193.118 314.21C195.231 317.144 197.941 318.61 201.248 318.61H201.388C205.488 317.51 208.361 315.247 210.008 311.82V311.27L210.748 309.07V277.86H221.948V327.98H210.748V323.94C206.341 327.547 201.951 329.35 197.578 329.35C194.178 329.35 190.735 328.28 187.248 326.14C184.401 323.967 182.441 321.397 181.368 318.43L181.188 317.14C180.915 316.254 180.778 315.384 180.778 314.53V314.12C180.778 313.967 180.791 313.814 180.818 313.66Z" fill="white"/>
<path d="M280.367 298.429L280.547 301.179C280.667 301.332 280.727 301.516 280.727 301.729V307.239H247.137C247.837 313.479 251.017 317.152 256.677 318.259C257.597 318.346 258.5 318.389 259.387 318.389C264.007 318.389 267.94 316.876 271.187 313.849C271.58 314.522 272.07 315.072 272.657 315.499L272.837 316.049L273.387 316.599C273.813 316.999 274.18 317.376 274.487 317.729C274.793 318.082 275.04 318.442 275.227 318.809C275.44 318.929 275.56 319.049 275.587 319.169L278.157 322.109C272.343 326.976 266.147 329.409 259.567 329.409C258.44 329.409 257.293 329.332 256.127 329.179C254.967 329.026 253.803 328.812 252.637 328.539C242.05 325.019 236.237 317.429 235.197 305.769C235.197 305.616 235.19 305.309 235.177 304.849C235.163 304.396 235.157 304.106 235.157 303.979C235.157 288.039 242.33 278.966 256.677 276.759C270.937 277.252 278.833 284.476 280.367 298.429ZM246.947 298.609H269.167V298.059C269.04 297.692 268.977 297.326 268.977 296.959V296.589C268.67 295.916 268.487 295.306 268.427 294.759C266.167 289.526 262.433 286.892 257.227 286.859C250.68 288.419 247.253 292.336 246.947 298.609Z" fill="white"/>
<path d="M333.581 286.672V287.222C333.981 287.955 334.228 288.688 334.321 289.422V327.792H323.121V295.302L322.931 294.202C321.404 289.575 318.834 287.262 315.221 287.262C314.121 287.262 312.898 287.492 311.551 287.952C308.491 289.272 306.288 291.355 304.941 294.202L304.211 297.322V327.792H293.191V277.672H304.211V281.892C307.638 278.832 311.371 276.998 315.411 276.392H316.231C324.431 276.392 330.214 279.818 333.581 286.672Z" fill="white"/>
<path d="M372.722 258.219V257.849H385.392L385.572 259.139L385.762 259.689L386.122 260.979L386.492 263.179L387.042 265.009L387.412 267.219L387.962 269.049L388.142 270.519C388.356 271.039 388.479 271.469 388.512 271.809L388.692 272.539L389.062 273.639V274.379C389.182 274.472 389.242 274.562 389.242 274.649V275.299C389.582 275.972 389.769 276.705 389.802 277.499L390.162 278.599L390.532 279.889L390.902 282.089L391.452 283.919L391.632 285.029L392.732 289.619C392.826 290.045 392.912 290.435 392.992 290.789C393.065 291.135 393.102 291.479 393.102 291.819L393.472 292.549V293.289L393.832 294.209V294.939L394.202 295.669V296.409C394.542 297.329 394.726 298.125 394.752 298.799L394.942 299.529C395.156 300.142 395.322 300.709 395.442 301.229C395.562 301.749 395.639 302.222 395.672 302.649L396.042 304.119L396.412 305.399L396.772 304.299L397.512 300.629L397.872 299.709L398.062 298.609L398.612 296.039L398.982 294.759V294.209L399.712 291.269L399.892 290.169L400.262 289.429L400.442 288.699L400.632 287.779V287.049L400.812 286.489L401.552 283.559L401.912 281.349L402.102 280.619L402.462 279.889C402.529 278.909 402.712 278.049 403.012 277.309L403.202 276.399V275.849L403.572 274.379L403.752 273.829L404.302 271.439L404.482 270.339L404.852 269.239L405.032 268.319L405.582 265.929L405.772 265.009L405.952 264.649C405.986 264.309 406.026 263.979 406.072 263.659C406.119 263.339 406.202 263.055 406.322 262.809L406.502 262.259V261.709L406.692 260.979L406.872 260.419L407.422 257.849H421.012V258.399C421.439 259.472 421.682 260.515 421.742 261.529L422.112 262.989L422.292 263.549L423.032 266.849L423.392 268.319C423.639 269.205 423.762 269.939 423.762 270.519C423.976 271.039 424.099 271.469 424.132 271.809L424.492 273.089L424.682 274.379L424.862 275.109L425.052 275.659C425.139 276.059 425.216 276.419 425.282 276.739C425.342 277.059 425.386 277.372 425.412 277.679C425.659 278.259 425.829 278.795 425.922 279.289C426.016 279.775 426.092 280.219 426.152 280.619L426.332 281.719L426.702 282.639L426.882 283.739V284.289C427.189 285.022 427.372 285.695 427.432 286.309L427.622 287.409C427.922 288.142 428.106 288.815 428.172 289.429L428.352 290.349L428.902 292.369V293.099C429.022 293.379 429.082 293.685 429.082 294.019C429.422 294.725 429.609 295.339 429.642 295.859L429.822 296.779L430.002 297.879L430.192 298.609C430.499 299.555 430.682 300.412 430.742 301.179C430.862 301.272 430.922 301.365 430.922 301.459V302.099C431.349 303.172 431.595 304.212 431.662 305.219C431.842 305.159 431.962 305.035 432.022 304.849C432.176 304.089 432.329 303.425 432.482 302.859C432.635 302.292 432.789 301.795 432.942 301.369V300.629C433.342 299.529 433.586 298.549 433.672 297.689L434.042 296.409L434.782 293.469L434.962 291.999L435.332 290.719L435.512 290.169V289.619C435.726 289.032 435.896 288.502 436.022 288.029C436.142 287.555 436.216 287.105 436.242 286.679L436.612 285.389L438.082 279.329L438.632 276.399L439.002 274.929C439.336 274.042 439.519 273.309 439.552 272.729L439.732 271.809L440.102 270.339C440.375 269.452 440.559 268.719 440.652 268.139L440.832 267.399L441.392 264.829L441.752 263.729V263.179L442.302 261.709V260.979L442.492 260.419L443.042 257.849H455.522L454.792 261.529L454.242 263.729L454.052 264.279L453.502 266.849L453.142 268.319L452.772 269.599L452.032 273.279L451.672 274.559L450.932 278.049L450.572 279.329L450.382 279.889L450.012 281.899L449.832 282.269L449.652 283.559C449.346 284.565 449.162 285.422 449.102 286.129L448.362 288.329L448.182 289.619L447.992 290.349L447.812 290.899L447.632 292.189L447.442 292.739L446.342 297.329L446.162 298.609L445.792 299.899L444.872 303.569L444.692 304.849L443.592 309.439L443.042 312.009C442.702 312.929 442.519 313.725 442.492 314.399L441.752 316.789V317.519C441.419 318.439 441.235 319.235 441.202 319.909C440.895 320.915 440.712 321.772 440.652 322.479L440.282 323.759L440.102 324.129L439.922 325.419C439.615 326.425 439.432 327.282 439.372 327.989H425.782L425.602 326.519C425.389 325.999 425.266 325.569 425.232 325.229L424.862 323.759L424.682 322.479L424.312 321.189C424.219 320.822 424.142 320.472 424.082 320.139C424.022 319.799 423.976 319.475 423.942 319.169L423.762 318.439L423.582 317.519C423.456 317.365 423.392 317.182 423.392 316.969L423.212 316.049L423.032 315.499C422.939 315.105 422.862 314.745 422.802 314.419C422.736 314.099 422.689 313.785 422.662 313.479C422.449 312.899 422.289 312.365 422.182 311.879C422.076 311.385 421.989 310.942 421.922 310.549L421.742 309.809L421.562 308.889C421.436 308.522 421.349 308.172 421.302 307.839C421.262 307.499 421.226 307.175 421.192 306.869C420.979 306.262 420.812 305.682 420.692 305.129C420.566 304.575 420.489 304.055 420.462 303.569C420.336 303.415 420.272 303.232 420.272 303.019L420.092 302.279L419.912 301.729C419.819 301.089 419.696 300.479 419.542 299.899L419.172 298.239L418.992 297.139L418.622 296.229L418.252 294.019L418.072 293.469V292.919C417.766 292.185 417.582 291.512 417.522 290.899L417.152 288.699L416.782 287.779L416.422 286.309V285.579C416.056 284.565 415.872 283.709 415.872 283.009C415.746 282.855 415.682 282.672 415.682 282.459L415.502 281.899V281.349C415.196 280.649 415.012 279.915 414.952 279.149C414.646 278.169 414.462 277.252 414.402 276.399L414.032 277.129L413.852 278.229L413.302 280.619L412.932 282.639L412.742 283.189L412.012 286.309L411.832 287.049L411.462 288.879L411.282 289.619L410.912 291.639L410.732 292.189L409.992 295.669L409.622 296.959L409.442 298.239C409.109 299.159 408.926 299.955 408.892 300.629L408.712 300.999L408.522 302.099L408.342 302.649L407.422 307.239L407.242 307.789L406.502 311.279L406.322 312.009L406.142 312.929L405.952 313.479L405.222 316.969L404.852 318.439L404.482 320.279L404.302 320.639L403.932 322.299L403.752 323.029L403.572 324.309C403.352 325.075 403.229 325.689 403.202 326.149C403.075 326.455 402.992 326.745 402.952 327.019C402.905 327.299 402.866 327.559 402.832 327.799C402.405 327.865 402.016 327.919 401.662 327.959C401.309 328.005 400.965 328.029 400.632 328.029H400.172C400.019 328.029 399.866 328.015 399.712 327.989H389.062V327.249C388.636 326.149 388.392 325.109 388.332 324.129C388.206 323.975 388.142 323.792 388.142 323.579L387.962 322.659C387.289 320.485 386.859 318.649 386.672 317.149L386.492 316.599L385.572 313.119L385.392 311.649L383.922 305.959V305.219C383.616 304.519 383.432 303.785 383.372 303.019L383.002 301.919L382.642 300.629V300.079L381.722 296.409V295.859L381.532 295.119L381.172 294.389L380.982 292.919C380.742 292.185 380.546 291.512 380.392 290.899C380.239 290.285 380.132 289.735 380.072 289.249L379.882 288.699V288.149C379.762 287.995 379.702 287.812 379.702 287.599L379.332 286.129L379.152 285.579C379.026 284.932 378.909 284.349 378.802 283.829C378.696 283.309 378.566 282.852 378.412 282.459L378.232 281.169C378.019 280.555 377.849 279.989 377.722 279.469C377.602 278.949 377.526 278.475 377.492 278.049L377.312 277.129C377.192 276.975 377.132 276.792 377.132 276.579L376.212 272.909L375.842 271.619L375.662 270.709L375.482 269.969L375.292 268.689C375.046 268.042 374.922 267.489 374.922 267.029V266.849L374.562 265.929L374.372 265.199C374.252 264.312 374.069 263.575 373.822 262.989V262.259C373.702 262.105 373.642 261.922 373.642 261.709" fill="white"/>
<path d="M499.096 282.269L499.656 283.369C501.09 285.149 502.006 286.986 502.406 288.879C502.526 289.673 502.616 290.416 502.676 291.109C502.743 291.796 502.776 292.399 502.776 292.919V317.149C503.903 319.389 505.553 320.736 507.726 321.189L507.366 321.739C507.24 321.959 507.116 322.083 506.996 322.109L506.816 322.659L506.446 323.029C506.14 323.703 505.773 324.253 505.346 324.679C504.913 325.813 504.36 326.669 503.686 327.249C503.413 327.863 503.153 328.393 502.906 328.839C502.666 329.279 502.44 329.669 502.226 330.009C498.646 329.089 495.83 327.436 493.776 325.049H493.226C489.28 327.896 485.21 329.319 481.016 329.319C478.75 329.319 476.516 328.936 474.316 328.169C467.736 325.816 463.76 321.533 462.386 315.319V315.089C462.386 303.249 469.316 297.329 483.176 297.329H483.316C483.59 297.203 483.893 297.139 484.226 297.139L484.776 296.959H486.066L486.616 296.779H487.166L491.756 296.229C491.816 295.889 491.846 295.583 491.846 295.309V294.389C491.846 289.276 489.14 286.719 483.726 286.719C479.96 286.719 474.803 287.989 468.256 290.529L467.526 288.879L467.156 287.779L466.786 287.409L466.606 287.049L466.236 285.939C465.903 285.393 465.66 284.843 465.506 284.289C464.86 283.436 464.43 282.579 464.216 281.719L464.766 281.539L465.136 281.349L465.686 281.169L466.056 280.799H466.606C466.726 280.679 466.833 280.619 466.926 280.619H466.976C468.076 280.039 469.053 279.609 469.906 279.329L470.826 279.149C471.5 278.843 472.113 278.659 472.666 278.599L474.136 278.229C475.203 277.803 476.243 277.559 477.256 277.499L481.296 276.759C481.903 276.699 482.49 276.646 483.056 276.599C483.623 276.553 484.183 276.529 484.736 276.529C490.576 276.529 495.363 278.443 499.096 282.269ZM487.346 305.589H486.246C485.973 305.649 485.706 305.696 485.446 305.729C485.186 305.756 484.933 305.769 484.686 305.769H484.416L483.676 305.959H483.126C482.973 306.079 482.79 306.139 482.576 306.139H482.026L479.086 306.869H478.536C477.683 307.363 476.95 307.669 476.336 307.789C474.35 309.689 473.356 311.526 473.356 313.299C473.356 314.919 474.166 316.509 475.786 318.069C478.14 319.509 480.433 320.229 482.666 320.229C485.513 320.229 488.236 319.083 490.836 316.789C491.083 316.083 491.33 315.593 491.576 315.319L491.756 314.769L491.576 314.029V305.399H487.906C487.753 305.526 487.566 305.589 487.346 305.589Z" fill="white"/>
<path d="M561.581 286.672V287.222C561.981 287.955 562.228 288.688 562.321 289.422V327.792H551.121V295.302L550.931 294.202C549.404 289.575 546.834 287.262 543.221 287.262C542.121 287.262 540.898 287.492 539.551 287.952C536.491 289.272 534.288 291.355 532.941 294.202L532.211 297.322V327.792H521.191V277.672H532.211V281.892C535.638 278.832 539.371 276.998 543.411 276.392H544.231C552.431 276.392 558.214 279.818 561.581 286.672Z" fill="white"/>
<path d="M125.031 251.635H74.5308V349.635H125.031V251.635Z" stroke="white" stroke-width="2" stroke-dasharray="5 5"/>
<path d="M172.531 251.635H127.031V349.635H172.531V251.635Z" stroke="white" stroke-width="2" stroke-dasharray="5 5"/>
<path d="M230.031 251.635H174.531V349.635H230.031V251.635Z" stroke="white" stroke-width="2" stroke-dasharray="5 5"/>
<path d="M284.531 251.635H232.031V349.635H284.531V251.635Z" stroke="white" stroke-width="2" stroke-dasharray="5 5"/>
<path d="M340.531 251.635H286.531V349.635H340.531V251.635Z" stroke="white" stroke-width="2" stroke-dasharray="5 5"/>
<path d="M365.531 251.635H342.531V349.635H365.531V251.635Z" stroke="white" stroke-width="2" stroke-dasharray="5 5"/>
<path d="M457.031 251.635H367.531V349.635H457.031V251.635Z" stroke="white" stroke-width="2" stroke-dasharray="5 5"/>
<path d="M512.531 251.635H459.031V349.635H512.531V251.635Z" stroke="white" stroke-width="2" stroke-dasharray="5 5"/>
<path d="M568.531 251.635H514.531V349.635H568.531V251.635Z" stroke="white" stroke-width="2" stroke-dasharray="5 5"/>
<path d="M710.181 71.4156H757.061C762.235 71.4184 766.429 75.6119 766.431 80.7856V174.546C766.429 179.719 762.235 183.913 757.061 183.916H663.301C658.128 183.913 653.934 179.719 653.931 174.546V80.7856C653.934 75.6119 658.128 71.4184 663.301 71.4156H710.181Z" fill="#FF0000"/>
<path d="M710.181 74.5406H663.306C659.855 74.5406 657.056 77.3388 657.056 80.7906V174.541C657.056 177.992 659.855 180.791 663.306 180.791H757.056C760.508 180.791 763.306 177.992 763.306 174.541V80.7906C763.306 77.3388 760.508 74.5406 757.056 74.5406H710.181Z" fill="white"/>
<path d="M713.306 87.0406H719.556L722.331 105.791H713.306V87.0406Z" fill="#FF0000"/>
<path d="M707.056 87.0406V105.791H698.031L700.806 87.0406H707.056Z" fill="#FF0000"/>
<path d="M710.181 112.041H753.931V118.291H747.676C745.954 118.293 744.559 119.689 744.556 121.411V130.791H738.306L735.771 120.661C735.425 119.269 734.176 118.292 732.741 118.291H687.621C686.187 118.292 684.938 119.269 684.591 120.661L682.056 130.791H675.806V121.411C675.804 119.689 674.408 118.293 672.686 118.291H666.431V112.041H710.181Z" fill="#FF0000"/>
<path d="M713.306 124.541H725.106L728.931 171.416H713.306V124.541Z" fill="#FF0000"/>
<path d="M707.056 124.541V171.416H691.431L695.256 124.541H707.056Z" fill="#FF0000"/>
<path d="M117.693 422.3V413.19H170.683V422.3H117.693ZM110.833 440.41V431.52H178.103V440.41H110.833ZM95.4133 459.31V450.09H193.293V459.31H95.4133ZM109.253 397.21V388.66H148.403V397.21H109.253ZM139.293 394.4V388.66H150.883C153.283 391.733 156.19 394.713 159.603 397.6C163.017 400.493 166.783 403.177 170.903 405.65C175.03 408.123 179.343 410.337 183.843 412.29C188.343 414.237 192.88 415.887 197.453 417.24C196.633 417.84 195.697 418.627 194.643 419.6C193.597 420.573 192.583 421.587 191.603 422.64C190.63 423.687 189.843 424.66 189.243 425.56C183.243 423.387 177.32 420.687 171.473 417.46C165.62 414.233 160.2 410.653 155.213 406.72C150.227 402.78 145.933 398.673 142.333 394.4H139.293ZM136.823 389.79L146.493 393.5C142.82 398.447 138.357 403.02 133.103 407.22C127.857 411.42 122.25 415.133 116.283 418.36C110.323 421.587 104.307 424.4 98.2333 426.8C97.7066 426.047 96.9933 425.147 96.0933 424.1C95.1933 423.047 94.2566 422.013 93.2833 421C92.3099 419.993 91.4466 419.19 90.6933 418.59C96.8466 416.71 102.847 414.347 108.693 411.5C114.547 408.647 119.89 405.383 124.723 401.71C129.563 398.037 133.597 394.063 136.823 389.79ZM138.623 456.5V417.35H149.533V456.5H138.623ZM94.6333 377.07V367.29H194.083V377.07H94.6333ZM118.593 386.41V358.74H129.173V386.41H118.593ZM158.873 386.97V358.74H169.443V386.97" fill="white"/>
<path d="M280.958 366.503V360.993H300.638V366.503H280.958ZM280.278 384.843V379.443H301.428V384.843H280.278ZM280.278 393.273V387.993H301.428V393.273H280.278ZM263.858 446.603V439.743H320.888V446.603H263.858ZM277.018 375.953V369.993H304.018V375.953H277.018ZM294.678 402.163H286.688V408.573H294.678V402.163ZM280.048 413.753V396.993H301.538V413.753H280.048ZM265.768 435.013V428.603H312.448V423.763H258.788V417.353H322.358V435.013H265.768ZM261.938 415.323V389.793H269.028V415.323H261.938ZM251.708 393.723L250.918 386.863C254.218 386.716 257.912 386.566 261.998 386.413C266.085 386.266 270.415 386.079 274.988 385.853V392.043C270.788 392.416 266.722 392.716 262.788 392.943C258.848 393.163 255.155 393.423 251.708 393.723ZM262.728 428.603H272.628C271.728 432.203 270.755 435.953 269.708 439.853C268.655 443.753 267.678 447.126 266.778 449.973L257.218 448.623C258.265 445.849 259.278 442.643 260.258 439.003C261.232 435.369 262.055 431.903 262.728 428.603ZM317.518 440.863V439.743H327.528C327.528 439.743 327.492 440.246 327.418 441.253C327.345 442.266 327.195 443.113 326.968 443.793C325.915 448.439 324.825 452.093 323.698 454.753C322.578 457.419 321.268 459.353 319.768 460.553C318.495 461.453 317.125 462.069 315.658 462.403C314.198 462.743 312.455 462.949 310.428 463.023C308.702 463.103 306.245 463.123 303.058 463.083C299.872 463.043 296.478 462.949 292.878 462.803C292.805 461.603 292.505 460.253 291.978 458.753C291.452 457.253 290.815 455.903 290.068 454.703C293.595 455.076 297.008 455.299 300.308 455.373C303.608 455.453 305.932 455.493 307.278 455.493C308.478 455.493 309.452 455.453 310.198 455.373C310.952 455.299 311.592 455.076 312.118 454.703C313.165 453.876 314.122 452.393 314.988 450.253C315.848 448.119 316.692 444.989 317.518 440.863ZM270.378 397.773L275.778 396.543C276.378 398.416 276.958 400.476 277.518 402.723C278.085 404.976 278.518 406.926 278.818 408.573L272.968 410.153C272.815 408.426 272.495 406.419 272.008 404.133C271.522 401.846 270.978 399.726 270.378 397.773ZM270.038 382.473L274.878 380.673C275.852 382.553 276.752 384.653 277.578 386.973C278.405 389.299 278.968 391.326 279.268 393.053L273.978 395.073C273.752 393.353 273.265 391.329 272.518 389.003C271.765 386.676 270.938 384.499 270.038 382.473ZM252.038 373.593L255.638 368.193C257.818 369.613 259.955 371.243 262.048 373.083C264.155 374.923 265.732 376.516 266.778 377.863L262.728 384.053C261.602 382.479 260.028 380.716 258.008 378.763C255.982 376.816 253.992 375.093 252.038 373.593ZM262.728 358.403L269.138 361.553C267.638 364.026 266.138 366.539 264.638 369.093C263.138 371.639 261.715 373.776 260.368 375.503L255.418 372.913C256.618 370.966 257.932 368.586 259.358 365.773C260.778 362.959 261.902 360.503 262.728 358.403ZM269.928 367.743L276.228 371.343C273.755 374.716 271.112 378.276 268.298 382.023C265.485 385.776 262.842 388.926 260.368 391.473L255.638 388.553C257.218 386.679 258.908 384.543 260.708 382.143C262.508 379.743 264.212 377.266 265.818 374.713C267.432 372.166 268.802 369.843 269.928 367.743ZM254.518 396.093L261.158 397.553C260.478 400.479 259.652 403.403 258.678 406.323C257.705 409.249 256.655 411.763 255.528 413.863C254.855 413.416 253.878 412.909 252.598 412.343C251.325 411.783 250.278 411.316 249.458 410.943C250.732 408.843 251.778 406.496 252.598 403.903C253.425 401.316 254.065 398.713 254.518 396.093ZM313.918 415.323V389.793H321.118V415.323H313.918ZM303.568 393.723L302.888 386.863C306.342 386.716 310.225 386.566 314.538 386.413C318.852 386.266 323.445 386.116 328.318 385.963L328.198 392.153C323.778 392.453 319.485 392.733 315.318 392.993C311.158 393.259 307.242 393.503 303.568 393.723ZM322.688 397.773L328.428 396.093C329.402 398.339 330.358 400.813 331.298 403.513C332.232 406.213 332.888 408.539 333.268 410.493L327.308 412.403C327.008 410.449 326.408 408.086 325.508 405.313C324.608 402.539 323.668 400.026 322.688 397.773ZM321.788 382.253L327.078 379.893C328.352 381.839 329.532 383.993 330.618 386.353C331.712 388.719 332.482 390.803 332.928 392.603L327.188 395.193C326.815 393.393 326.122 391.273 325.108 388.833C324.095 386.393 322.988 384.199 321.788 382.253ZM303.118 373.363L306.938 368.303C308.892 369.649 310.842 371.206 312.788 372.973C314.742 374.733 316.242 376.326 317.288 377.753L312.908 383.603C311.928 382.103 310.522 380.376 308.688 378.423C306.848 376.476 304.992 374.789 303.118 373.363ZM314.138 358.513L320.558 361.773C318.978 364.253 317.402 366.746 315.828 369.253C314.255 371.766 312.755 373.923 311.328 375.723L306.378 373.143C307.652 371.189 309.038 368.806 310.538 365.993C312.038 363.179 313.238 360.686 314.138 358.513ZM322.128 367.293L328.428 370.893C325.882 374.266 323.108 377.826 320.108 381.573C317.108 385.326 314.258 388.476 311.558 391.023L306.938 388.103C308.665 386.229 310.465 384.093 312.338 381.693C314.218 379.293 316.018 376.816 317.738 374.263C319.465 371.716 320.928 369.393 322.128 367.293ZM306.378 396.093L312.908 397.663C312.382 400.436 311.632 403.266 310.658 406.153C309.678 409.046 308.628 411.503 307.508 413.523C306.908 413.149 306.008 412.643 304.808 412.003C303.608 411.369 302.558 410.866 301.658 410.493C302.852 408.393 303.825 406.103 304.578 403.623C305.325 401.149 305.925 398.639 306.378 396.093ZM229.878 367.173L236.068 360.203C237.942 361.176 239.908 362.356 241.968 363.743C244.035 365.129 245.968 366.516 247.768 367.903C249.568 369.296 251.032 370.629 252.158 371.903L245.738 379.773C244.692 378.499 243.285 377.113 241.518 375.613C239.758 374.113 237.865 372.633 235.838 371.173C233.818 369.706 231.832 368.373 229.878 367.173ZM227.518 397.213L233.368 389.903C235.315 390.803 237.358 391.909 239.498 393.223C241.638 394.536 243.625 395.846 245.458 397.153C247.298 398.466 248.818 399.723 250.018 400.923L243.828 409.023C242.702 407.823 241.222 406.513 239.388 405.093C237.548 403.666 235.578 402.259 233.478 400.873C231.378 399.486 229.392 398.266 227.518 397.213ZM239.328 461.793L229.768 456.393C231.195 453.393 232.712 449.903 234.318 445.923C235.932 441.949 237.582 437.749 239.268 433.323C240.962 428.903 242.518 424.553 243.938 420.273L252.378 425.673C251.178 429.653 249.828 433.743 248.328 437.943C246.828 442.143 245.328 446.266 243.828 450.313C242.328 454.366 240.828 458.193 239.328 461.793Z" fill="white"/>
<path d="M210.031 351.635H74.5308V492.135H210.031V351.635Z" stroke="white" stroke-width="2" stroke-dasharray="5 5"/>
<path d="M347.531 351.635H212.031V492.135H347.531V351.635Z" stroke="white" stroke-width="2" stroke-dasharray="5 5"/>
<path d="M373.531 384.785L407.681 375.635L653.931 517.802C657.798 520.035 662.562 520.035 666.429 517.804C670.296 515.572 672.679 511.447 672.681 506.982V521.416V593.584V593.587C672.683 589.12 670.3 584.991 666.431 582.758L382.681 418.936L373.531 384.785Z" fill="white"/>
<path d="M710.181 208.916H766.431V246.416C767.541 281.498 744.171 312.658 710.181 321.416C676.191 312.658 652.821 281.498 653.931 246.416V208.916H710.181Z" fill="#E9B500"/>
<path d="M706.271 225.32C720.928 225.045 729.985 231.287 733.443 244.046L733.994 244.414L734.177 245.332L734.361 246.066L734.545 246.8L734.728 247.168L735.095 248.82V249.738C735.218 249.921 735.279 250.105 735.279 250.289L735.646 252.308L736.013 255.429L736.381 258.367C737.421 281.255 729.955 294.229 713.982 297.289C698.315 299.492 688.707 294.596 685.158 282.601L689.013 281.316C689.136 281.163 689.258 281.102 689.381 281.132L691.033 280.398C691.798 280.184 692.41 279.939 692.869 279.664L693.42 279.48H693.97C694.093 279.327 694.215 279.266 694.338 279.296L694.888 279.113L697.826 277.828H698.56C700.549 283.336 704.527 285.6 710.494 284.621C716.828 283.183 720.561 279.205 721.693 272.687L721.877 269.75C713.676 275.013 705.414 276.175 697.092 273.238C688.799 269.627 684.393 263.63 683.873 255.246C682.129 236.733 689.595 226.758 706.271 225.32ZM707.74 238.539C702.936 239.732 699.815 242.486 698.377 246.8C697.122 255.643 700.488 260.784 708.474 262.222C716.858 261.365 720.897 256.898 720.592 248.82C718.97 241.782 714.686 238.355 707.74 238.539Z" fill="black"/>
<path d="M710.181 371.416L747.681 408.916V521.416V681.084H710.181H672.681V521.416V408.916L710.181 371.416Z" fill="white"/>
<path d="M348.531 350.635V454.878" stroke="#46C147" stroke-width="2.74323"/>
<path d="M373.531 384.785V454.878" stroke="#46C147" stroke-width="2.74323"/>
<path d="M348.531 432.932H373.531" stroke="#46C147" stroke-width="2.74323"/>
<path d="M365 432.932L397.919 424.702V441.161L365 432.932Z" fill="#46C147"/>
<path d="M355.919 432.932L323 424.702V441.161L355.919 432.932Z" fill="#46C147"/>
<path d="M366.572 483.44V486.221H350.997C350.975 485.524 351.088 484.855 351.334 484.212C351.731 483.151 352.363 482.106 353.231 481.077C354.109 480.049 355.374 478.859 357.024 477.509C359.585 475.409 361.316 473.748 362.216 472.526C363.116 471.294 363.566 470.131 363.566 469.038C363.566 467.892 363.154 466.927 362.328 466.145C361.514 465.352 360.448 464.955 359.13 464.955C357.737 464.955 356.622 465.373 355.787 466.209C354.951 467.045 354.527 468.202 354.517 469.681L351.543 469.376C351.747 467.157 352.513 465.47 353.842 464.312C355.17 463.144 356.955 462.56 359.194 462.56C361.455 462.56 363.245 463.187 364.563 464.441C365.881 465.695 366.54 467.249 366.54 469.102C366.54 470.045 366.347 470.972 365.961 471.883C365.575 472.794 364.932 473.753 364.032 474.76C363.143 475.768 361.659 477.15 359.58 478.907C357.844 480.365 356.729 481.356 356.237 481.881C355.744 482.395 355.336 482.915 355.015 483.44H366.572ZM369.337 481.125L372.198 480.675C372.358 481.822 372.803 482.701 373.532 483.311C374.271 483.922 375.3 484.228 376.618 484.228C377.947 484.228 378.933 483.96 379.575 483.424C380.218 482.878 380.54 482.24 380.54 481.511C380.54 480.858 380.256 480.343 379.688 479.968C379.292 479.711 378.306 479.384 376.73 478.988C374.609 478.452 373.135 477.991 372.31 477.605C371.496 477.209 370.874 476.668 370.446 475.982C370.028 475.285 369.819 474.519 369.819 473.683C369.819 472.923 369.99 472.221 370.333 471.578C370.687 470.924 371.164 470.383 371.764 469.954C372.214 469.622 372.825 469.344 373.596 469.118C374.378 468.883 375.214 468.765 376.104 468.765C377.443 468.765 378.616 468.958 379.624 469.344C380.642 469.729 381.392 470.254 381.874 470.919C382.356 471.572 382.688 472.451 382.871 473.555L380.042 473.941C379.913 473.062 379.538 472.376 378.916 471.883C378.306 471.39 377.438 471.144 376.313 471.144C374.984 471.144 374.035 471.363 373.468 471.803C372.9 472.242 372.616 472.756 372.616 473.346C372.616 473.721 372.733 474.058 372.969 474.358C373.205 474.669 373.575 474.926 374.078 475.13C374.368 475.237 375.22 475.484 376.634 475.869C378.681 476.416 380.106 476.866 380.91 477.22C381.724 477.562 382.362 478.066 382.822 478.731C383.283 479.395 383.514 480.22 383.514 481.206C383.514 482.17 383.23 483.081 382.662 483.938C382.104 484.785 381.295 485.444 380.235 485.915C379.174 486.376 377.973 486.607 376.634 486.607C374.416 486.607 372.723 486.146 371.555 485.224C370.397 484.303 369.658 482.936 369.337 481.125ZM390.104 486.221L384.88 469.151H387.869L390.586 479.004L391.599 482.669C391.641 482.486 391.936 481.313 392.483 479.148L395.199 469.151H398.173L400.728 479.052L401.58 482.315L402.561 479.02L405.486 469.151H408.299L402.963 486.221H399.957L397.24 475.998L396.581 473.089L393.126 486.221H390.104Z" fill="#46C147"/>
<path d="M655 256V387" stroke="#46C147" stroke-width="2.74323"/>
<path d="M568.919 317.151V387.243" stroke="#46C147" stroke-width="2.74323"/>
<path d="M657.388 365.297H563.388" stroke="#46C147" stroke-width="2.74323"/>
<path d="M577.919 365.297L545 357.067V373.527L577.919 365.297Z" fill="#46C147"/>
<path d="M648 365.297L680.919 357.067V373.527L648 365.297Z" fill="#46C147"/>
<path d="M585.552 418.586V401.516H588.14V403.911C588.675 403.075 589.388 402.405 590.277 401.902C591.167 401.387 592.179 401.13 593.315 401.13C594.58 401.13 595.614 401.393 596.417 401.918C597.232 402.443 597.805 403.177 598.137 404.12C599.488 402.127 601.245 401.13 603.41 401.13C605.103 401.13 606.405 401.602 607.315 402.545C608.226 403.477 608.682 404.918 608.682 406.869V418.586H605.804V407.833C605.804 406.676 605.708 405.845 605.515 405.342C605.333 404.827 604.995 404.415 604.503 404.104C604.01 403.793 603.431 403.638 602.767 403.638C601.566 403.638 600.57 404.04 599.777 404.843C598.984 405.636 598.587 406.911 598.587 408.669V418.586H595.694V407.495C595.694 406.21 595.458 405.245 594.987 404.602C594.515 403.959 593.744 403.638 592.672 403.638C591.858 403.638 591.102 403.852 590.406 404.281C589.72 404.709 589.222 405.336 588.911 406.161C588.6 406.986 588.445 408.176 588.445 409.73V418.586H585.552ZM612.989 398.35V395.022H615.883V398.35H612.989ZM612.989 418.586V401.516H615.883V418.586H612.989ZM620.303 418.586V401.516H622.907V403.943C624.161 402.068 625.972 401.13 628.34 401.13C629.368 401.13 630.311 401.318 631.169 401.693C632.037 402.057 632.685 402.539 633.114 403.139C633.542 403.74 633.842 404.452 634.014 405.277C634.121 405.813 634.174 406.751 634.174 408.09V418.586H631.281V408.203C631.281 407.024 631.169 406.145 630.944 405.567C630.719 404.977 630.317 404.511 629.738 404.168C629.17 403.815 628.5 403.638 627.729 403.638C626.497 403.638 625.43 404.029 624.53 404.811C623.641 405.593 623.196 407.078 623.196 409.264V418.586H620.303ZM639.447 418.586V415.291H642.742V418.586H639.447ZM601.593 438.793L598.716 439.018C598.459 437.882 598.094 437.057 597.623 436.542C596.841 435.717 595.876 435.305 594.73 435.305C593.808 435.305 592.999 435.562 592.303 436.076C591.392 436.741 590.674 437.71 590.149 438.986C589.624 440.261 589.35 442.077 589.329 444.435C590.026 443.374 590.877 442.586 591.885 442.072C592.892 441.557 593.947 441.3 595.051 441.3C596.98 441.3 598.62 442.013 599.97 443.438C601.331 444.852 602.011 446.685 602.011 448.935C602.011 450.414 601.69 451.791 601.047 453.066C600.414 454.331 599.541 455.3 598.427 455.975C597.312 456.651 596.048 456.988 594.633 456.988C592.222 456.988 590.256 456.104 588.734 454.336C587.213 452.557 586.452 449.632 586.452 445.56C586.452 441.006 587.293 437.694 588.975 435.626C590.443 433.826 592.42 432.926 594.907 432.926C596.76 432.926 598.277 433.446 599.455 434.485C600.645 435.524 601.357 436.96 601.593 438.793ZM589.779 448.951C589.779 449.948 589.988 450.902 590.406 451.812C590.835 452.723 591.429 453.42 592.19 453.902C592.951 454.373 593.749 454.609 594.585 454.609C595.807 454.609 596.857 454.116 597.736 453.13C598.614 452.145 599.054 450.805 599.054 449.112C599.054 447.483 598.62 446.203 597.752 445.27C596.884 444.327 595.791 443.856 594.473 443.856C593.165 443.856 592.056 444.327 591.145 445.27C590.234 446.203 589.779 447.43 589.779 448.951ZM604.551 451.491L607.412 451.041C607.573 452.187 608.017 453.066 608.746 453.677C609.485 454.288 610.514 454.593 611.832 454.593C613.161 454.593 614.147 454.325 614.79 453.789C615.433 453.243 615.754 452.605 615.754 451.877C615.754 451.223 615.47 450.709 614.902 450.334C614.506 450.076 613.52 449.75 611.945 449.353C609.823 448.817 608.349 448.357 607.524 447.971C606.71 447.574 606.088 447.033 605.66 446.347C605.242 445.651 605.033 444.885 605.033 444.049C605.033 443.288 605.204 442.586 605.547 441.943C605.901 441.289 606.378 440.748 606.978 440.32C607.428 439.988 608.039 439.709 608.81 439.484C609.592 439.248 610.428 439.13 611.318 439.13C612.657 439.13 613.831 439.323 614.838 439.709C615.856 440.095 616.606 440.62 617.088 441.284C617.57 441.938 617.903 442.816 618.085 443.92L615.256 444.306C615.127 443.427 614.752 442.741 614.131 442.249C613.52 441.756 612.652 441.509 611.527 441.509C610.198 441.509 609.25 441.729 608.682 442.168C608.114 442.608 607.83 443.122 607.83 443.711C607.83 444.086 607.948 444.424 608.183 444.724C608.419 445.035 608.789 445.292 609.292 445.495C609.582 445.603 610.434 445.849 611.848 446.235C613.895 446.781 615.32 447.231 616.124 447.585C616.938 447.928 617.576 448.432 618.037 449.096C618.497 449.76 618.728 450.585 618.728 451.571C618.728 452.536 618.444 453.447 617.876 454.304C617.319 455.15 616.51 455.809 615.449 456.281C614.388 456.742 613.188 456.972 611.848 456.972C609.63 456.972 607.937 456.511 606.769 455.59C605.612 454.668 604.872 453.302 604.551 451.491ZM625.318 456.586L620.094 439.516H623.084L625.8 449.369L626.813 453.034C626.856 452.852 627.15 451.678 627.697 449.514L630.413 439.516H633.387L635.943 449.417L636.794 452.68L637.775 449.385L640.7 439.516H643.513L638.177 456.586H635.171L632.455 446.363L631.796 443.454L628.34 456.586H625.318Z" fill="#46C147"/>
<path d="M348.531 350.635H452.774" stroke="#FF0000" stroke-width="2.74323"/>
<path d="M407.681 375.635H452.774" stroke="#FF0000" stroke-width="2.74323"/>
<path d="M430.828 350.635V375.635" stroke="#FF0000" stroke-width="2.74323"/>
<path d="M430.828 370L422.598 402.919H439.057L430.828 370Z" fill="#FF0000"/>
<path d="M430.828 356.919L422.598 324H439.057L430.828 356.919Z" fill="#FF0000"/>
<path d="M474.572 377.219V380H458.997C458.975 379.303 459.088 378.634 459.334 377.991C459.731 376.93 460.363 375.885 461.231 374.856C462.11 373.828 463.374 372.638 465.024 371.288C467.585 369.188 469.316 367.527 470.216 366.305C471.116 365.073 471.566 363.91 471.566 362.817C471.566 361.671 471.154 360.706 470.328 359.924C469.514 359.131 468.448 358.735 467.13 358.735C465.737 358.735 464.622 359.153 463.787 359.988C462.951 360.824 462.527 361.981 462.517 363.46L459.543 363.155C459.747 360.937 460.513 359.249 461.842 358.092C463.17 356.924 464.955 356.34 467.194 356.34C469.455 356.34 471.245 356.966 472.563 358.22C473.881 359.474 474.54 361.028 474.54 362.882C474.54 363.825 474.347 364.751 473.961 365.662C473.575 366.573 472.932 367.532 472.032 368.54C471.143 369.547 469.659 370.929 467.58 372.687C465.844 374.144 464.73 375.135 464.237 375.66C463.744 376.174 463.336 376.694 463.015 377.219H474.572ZM477.337 374.905L480.198 374.455C480.358 375.601 480.803 376.48 481.532 377.091C482.271 377.701 483.3 378.007 484.618 378.007C485.947 378.007 486.933 377.739 487.576 377.203C488.218 376.657 488.54 376.019 488.54 375.29C488.54 374.637 488.256 374.122 487.688 373.747C487.292 373.49 486.306 373.163 484.73 372.767C482.609 372.231 481.135 371.77 480.31 371.385C479.496 370.988 478.874 370.447 478.446 369.761C478.028 369.065 477.819 368.298 477.819 367.463C477.819 366.702 477.99 366 478.333 365.357C478.687 364.703 479.164 364.162 479.764 363.733C480.214 363.401 480.825 363.123 481.596 362.898C482.378 362.662 483.214 362.544 484.104 362.544C485.443 362.544 486.616 362.737 487.624 363.123C488.642 363.508 489.392 364.034 489.874 364.698C490.356 365.352 490.688 366.23 490.871 367.334L488.042 367.72C487.913 366.841 487.538 366.155 486.916 365.662C486.306 365.169 485.438 364.923 484.313 364.923C482.984 364.923 482.035 365.143 481.468 365.582C480.9 366.021 480.616 366.536 480.616 367.125C480.616 367.5 480.733 367.838 480.969 368.138C481.205 368.448 481.575 368.706 482.078 368.909C482.368 369.016 483.22 369.263 484.634 369.649C486.681 370.195 488.106 370.645 488.91 370.999C489.724 371.342 490.362 371.845 490.822 372.51C491.283 373.174 491.514 373.999 491.514 374.985C491.514 375.949 491.23 376.86 490.662 377.718C490.104 378.564 489.295 379.223 488.235 379.695C487.174 380.155 485.973 380.386 484.634 380.386C482.416 380.386 480.723 379.925 479.555 379.003C478.397 378.082 477.658 376.716 477.337 374.905ZM498.104 380L492.88 362.93H495.87L498.586 372.783L499.599 376.448C499.641 376.266 499.936 375.092 500.483 372.928L503.199 362.93H506.173L508.728 372.831L509.58 376.094L510.561 372.799L513.486 362.93H516.299L510.963 380H507.957L505.24 369.777L504.581 366.868L501.126 380H498.104Z" fill="#FF0000"/>
</svg>
