<svg width="930" height="550" viewBox="0 0 930 550" fill="none" xmlns="http://www.w3.org/2000/svg">
<g clip-path="url(#clip0_0_1)">
<path d="M0 -339.5C0 -360.211 16.9171 -377 37.7853 -377H667.541C688.409 -377 705.326 -360.211 705.326 -339.5V485.5C705.326 506.211 688.409 523 667.541 523H37.7853C16.9171 523 0 506.211 0 485.5V-339.5Z" fill="white"/>
<path d="M18.8926 -339.5C18.8926 -349.855 27.3512 -358.25 37.7853 -358.25H667.541C677.975 -358.25 686.433 -349.855 686.433 -339.5V485.5C686.433 495.855 677.975 504.25 667.541 504.25H37.7853C27.3512 504.25 18.8926 495.855 18.8926 485.5V-339.5Z" fill="#0033A2"/>
<path d="M611.618 -267.377L649.404 -229.877V-117.377V475.877H611.618H573.833V-117.377V-229.877L611.618 -267.377Z" fill="white"/>
<path d="M127.714 225.639V214.609H227.921V225.639H127.714ZM173.399 221.589L184.161 218.999C186.586 227.852 189.857 236.102 193.975 243.749C198.093 251.402 203.154 258.095 209.159 263.829C215.171 269.569 222.144 274.089 230.077 277.389C229.171 278.135 228.207 279.109 227.186 280.309C226.164 281.509 225.201 282.729 224.294 283.969C223.387 285.209 222.631 286.315 222.027 287.289C213.637 283.389 206.325 278.232 200.091 271.819C193.857 265.405 188.587 257.962 184.282 249.489C179.976 241.015 176.348 231.715 173.399 221.589ZM171.697 183.229H183.375C183.375 188.549 183.24 194.265 182.972 200.379C182.71 206.492 182.125 212.775 181.218 219.229C180.312 225.675 178.837 232.125 176.795 238.579C174.76 245.025 171.925 251.249 168.291 257.249C164.67 263.249 160.025 268.819 154.356 273.959C148.686 279.092 141.771 283.572 133.609 287.399C132.702 285.972 131.493 284.415 129.982 282.729C128.47 281.042 126.959 279.635 125.447 278.509C133.307 274.989 139.937 270.882 145.337 266.189C150.745 261.502 155.128 256.402 158.487 250.889C161.852 245.382 164.442 239.665 166.255 233.739C168.069 227.812 169.355 221.885 170.115 215.959C170.867 210.039 171.32 204.302 171.475 198.749C171.623 193.202 171.697 188.029 171.697 183.229Z" fill="white"/>
<path d="M284.289 221.251V215.181H348.111V221.251H284.289ZM284.854 263.781V257.591H348.222V263.781H284.854ZM315.797 271.201V240.041H325.44V271.201H315.797ZM331.445 230.251H300.502V236.441H331.445V230.251ZM291.433 241.501V224.961H340.967V241.501H291.433ZM307.525 197.851L316.482 198.981C315.649 202.054 314.702 205.314 313.641 208.761C312.586 212.214 311.606 215.178 310.699 217.651H301.288C302.349 214.951 303.444 211.764 304.572 208.091C305.708 204.418 306.692 201.004 307.525 197.851ZM290.859 209.661V203.931H338.358V218.441H329.4V209.661H290.859ZM268.188 287.741V187.841H364.092V287.741H353.552V197.511H278.395V287.741H268.188ZM274.657 283.241V273.561H359.215V283.241H274.657ZM292.793 261.981V245.661H343.345V251.741H301.177V261.981" fill="white"/>
<path d="M245.353 176.123H108.822V316.623H245.353V176.123Z" stroke="white" stroke-width="2" stroke-dasharray="5 5"/>
<path d="M383.899 176.123H247.368V316.623H383.899V176.123Z" stroke="white" stroke-width="2" stroke-dasharray="5 5"/>
<path d="M410.097 258.473L444.507 249.322L554.941 312.595C558.837 314.827 563.637 314.828 567.533 312.596C571.43 310.364 573.831 306.239 573.833 301.775V316.208V388.377V388.38C573.835 383.912 571.434 379.783 567.536 377.55L419.317 292.623L410.097 258.473Z" fill="white"/>
<path d="M109.345 93.1738V82.1538H160.401V93.1738H140.974V152.474H128.772V93.1738" fill="white"/>
<path d="M200.328 106.758L200.892 107.858C202.337 109.638 203.26 111.475 203.663 113.368C203.784 114.161 203.875 114.905 203.935 115.598C204.003 116.285 204.036 116.888 204.036 117.408V141.638C205.171 143.878 206.834 145.225 209.024 145.678L208.661 146.228C208.534 146.448 208.409 146.571 208.288 146.598L208.107 147.148L207.734 147.518C207.425 148.191 207.056 148.741 206.626 149.168C206.189 150.301 205.632 151.158 204.953 151.738C204.678 152.351 204.416 152.881 204.167 153.328C203.925 153.768 203.697 154.158 203.482 154.498C199.875 153.578 197.037 151.925 194.968 149.538H194.414C190.437 152.385 186.336 153.808 182.111 153.808C179.827 153.808 177.576 153.425 175.36 152.658C168.73 150.305 164.723 146.021 163.339 139.808V139.578C163.339 127.738 170.322 121.818 184.287 121.818H184.428C184.704 121.691 185.009 121.628 185.345 121.628L185.899 121.448H187.199L187.753 121.268H188.307L192.932 120.718C192.993 120.378 193.023 120.071 193.023 119.798V118.878C193.023 113.765 190.296 111.208 184.841 111.208C181.046 111.208 175.85 112.478 169.254 115.018L168.518 113.368L168.145 112.268L167.772 111.898L167.591 111.538L167.218 110.428C166.882 109.881 166.637 109.331 166.483 108.778C165.831 107.925 165.398 107.068 165.183 106.208L165.737 106.028L166.11 105.838L166.664 105.658L167.037 105.288H167.591C167.712 105.168 167.819 105.108 167.913 105.108H167.964C169.072 104.528 170.056 104.098 170.916 103.818L171.843 103.638C172.522 103.331 173.14 103.148 173.697 103.088L175.178 102.718C176.253 102.291 177.301 102.048 178.322 101.988L182.393 101.248C183.004 101.188 183.595 101.135 184.166 101.088C184.737 101.041 185.301 101.018 185.859 101.018C191.743 101.018 196.566 102.931 200.328 106.758ZM188.489 130.078H187.38C187.105 130.138 186.836 130.185 186.574 130.218C186.312 130.245 186.057 130.258 185.809 130.258H185.537L184.791 130.448H184.237C184.082 130.568 183.897 130.628 183.683 130.628H183.128L180.166 131.358H179.612C178.752 131.851 178.013 132.158 177.395 132.278C175.393 134.178 174.392 136.015 174.392 137.788C174.392 139.408 175.209 140.998 176.841 142.558C179.212 143.998 181.523 144.718 183.773 144.718C186.642 144.718 189.386 143.571 192.005 141.278C192.254 140.571 192.502 140.081 192.751 139.808L192.932 139.258L192.751 138.518V129.888H189.053C188.899 130.015 188.71 130.078 188.489 130.078Z" fill="white"/>
<path d="M220.094 152.655V102.535H231.379V152.655H220.094ZM232.487 87.8446V88.4446C232.487 90.9846 231.685 93.0479 230.079 94.6346C228.387 95.4612 226.828 95.8746 225.404 95.8746C222.939 95.8746 220.984 94.5446 219.54 91.8846C219.258 90.8112 219.117 89.8646 219.117 89.0446C219.117 85.9179 220.86 83.8046 224.346 82.7046H224.81C228.726 82.7046 231.285 84.4179 232.487 87.8446Z" fill="white"/>
<path d="M271.743 82.7074V82.3374H284.51L284.691 83.6274L284.883 84.1774L285.245 85.4674L285.618 87.6674L286.172 89.4974L286.545 91.7074L287.099 93.5374L287.281 95.0074C287.496 95.5274 287.62 95.9574 287.654 96.2974L287.835 97.0274L288.208 98.1274V98.8674C288.329 98.9607 288.389 99.0507 288.389 99.1374V99.7874C288.732 100.461 288.92 101.194 288.953 101.987L289.316 103.087L289.689 104.377L290.062 106.577L290.616 108.407L290.797 109.517L291.906 114.107C292 114.534 292.087 114.924 292.168 115.277C292.241 115.624 292.278 115.967 292.278 116.307L292.651 117.037V117.777L293.014 118.697V119.427L293.387 120.157V120.897C293.729 121.817 293.914 122.614 293.941 123.287L294.132 124.017C294.347 124.631 294.515 125.197 294.636 125.717C294.757 126.237 294.834 126.711 294.868 127.137L295.241 128.607L295.614 129.887L295.976 128.787L296.722 125.117L297.085 124.197L297.276 123.097L297.83 120.527L298.203 119.247V118.697L298.939 115.757L299.12 114.657L299.493 113.917L299.674 113.187L299.866 112.267V111.537L300.047 110.977L300.793 108.047L301.155 105.837L301.347 105.107L301.71 104.377C301.777 103.397 301.962 102.537 302.264 101.797L302.455 100.887V100.337L302.828 98.8674L303.009 98.3174L303.564 95.9274L303.745 94.8274L304.118 93.7274L304.299 92.8074L304.853 90.4174L305.045 89.4974L305.226 89.1374C305.26 88.7974 305.3 88.4674 305.347 88.1474C305.394 87.8274 305.478 87.544 305.599 87.2974L305.78 86.7474V86.1974L305.972 85.4674L306.153 84.9074L306.707 82.3374H320.401V82.8874C320.831 83.9607 321.076 85.004 321.136 86.0174L321.509 87.4774L321.691 88.0374L322.436 91.3374L322.799 92.8074C323.047 93.694 323.172 94.4274 323.172 95.0074C323.387 95.5274 323.511 95.9574 323.545 96.2974L323.907 97.5774L324.099 98.8674L324.28 99.5974L324.472 100.147C324.559 100.547 324.636 100.907 324.703 101.227C324.764 101.547 324.807 101.861 324.834 102.167C325.083 102.747 325.254 103.284 325.348 103.777C325.442 104.264 325.519 104.707 325.58 105.107L325.761 106.207L326.134 107.127L326.315 108.227V108.777C326.624 109.511 326.809 110.184 326.87 110.797L327.061 111.897C327.363 112.631 327.548 113.304 327.615 113.917L327.797 114.837L328.351 116.857V117.587C328.472 117.867 328.532 118.174 328.532 118.507C328.875 119.214 329.063 119.827 329.096 120.347L329.278 121.267L329.459 122.367L329.651 123.097C329.96 124.044 330.144 124.901 330.205 125.667C330.326 125.761 330.386 125.854 330.386 125.947V126.587C330.816 127.661 331.065 128.701 331.132 129.707C331.313 129.647 331.434 129.524 331.495 129.337C331.649 128.577 331.804 127.914 331.958 127.347C332.113 126.781 332.267 126.284 332.422 125.857V125.117C332.825 124.017 333.07 123.037 333.157 122.177L333.53 120.897L334.276 117.957L334.457 116.487L334.83 115.207L335.011 114.657V114.107C335.226 113.521 335.397 112.991 335.525 112.517C335.646 112.044 335.72 111.594 335.747 111.167L336.12 109.877L337.601 103.817L338.155 100.887L338.528 99.4174C338.864 98.5307 339.048 97.7974 339.082 97.2174L339.263 96.2974L339.636 94.8274C339.911 93.9407 340.096 93.2074 340.19 92.6274L340.372 91.8874L340.936 89.3174L341.299 88.2174V87.6674L341.853 86.1974V85.4674L342.044 84.9074L342.598 82.3374H355.173L354.438 86.0174L353.884 88.2174L353.692 88.7674L353.138 91.3374L352.775 92.8074L352.402 94.0874L351.657 97.7674L351.294 99.0474L350.548 102.537L350.186 103.817L349.994 104.377L349.621 106.387L349.44 106.757L349.259 108.047C348.95 109.054 348.765 109.911 348.705 110.617L347.959 112.817L347.778 114.107L347.586 114.837L347.405 115.387L347.223 116.677L347.032 117.227L345.924 121.817L345.742 123.097L345.369 124.387L344.442 128.057L344.261 129.337L343.153 133.927L342.598 136.497C342.256 137.417 342.071 138.214 342.044 138.887L341.299 141.277V142.007C340.963 142.927 340.778 143.724 340.744 144.397C340.435 145.404 340.251 146.261 340.19 146.967L339.817 148.247L339.636 148.617L339.455 149.907C339.146 150.914 338.961 151.771 338.9 152.477H325.207L325.026 151.007C324.811 150.487 324.687 150.057 324.653 149.717L324.28 148.247L324.099 146.967L323.726 145.677C323.632 145.311 323.555 144.961 323.494 144.627C323.434 144.287 323.387 143.964 323.353 143.657L323.172 142.927L322.99 142.007C322.863 141.854 322.799 141.671 322.799 141.457L322.618 140.537L322.436 139.987C322.342 139.594 322.265 139.234 322.204 138.907C322.137 138.587 322.09 138.274 322.063 137.967C321.848 137.387 321.687 136.854 321.58 136.367C321.472 135.874 321.385 135.431 321.318 135.037L321.136 134.297L320.955 133.377C320.827 133.011 320.74 132.661 320.693 132.327C320.653 131.987 320.616 131.664 320.582 131.357C320.367 130.751 320.199 130.171 320.078 129.617C319.951 129.064 319.873 128.544 319.847 128.057C319.719 127.904 319.655 127.721 319.655 127.507L319.474 126.767L319.292 126.217C319.198 125.577 319.074 124.967 318.92 124.387L318.547 122.727L318.365 121.627L317.993 120.717L317.62 118.507L317.438 117.957V117.407C317.129 116.674 316.945 116.001 316.884 115.387L316.511 113.187L316.139 112.267L315.776 110.797V110.067C315.406 109.054 315.222 108.197 315.222 107.497C315.094 107.344 315.03 107.161 315.03 106.947L314.849 106.387V105.837C314.54 105.137 314.355 104.404 314.295 103.637C313.986 102.657 313.801 101.741 313.741 100.887L313.368 101.617L313.186 102.717L312.632 105.107L312.259 107.127L312.068 107.677L311.332 110.797L311.151 111.537L310.778 113.367L310.597 114.107L310.224 116.127L310.043 116.677L309.297 120.157L308.924 121.447L308.743 122.727C308.407 123.647 308.222 124.444 308.189 125.117L308.007 125.487L307.816 126.587L307.634 127.137L306.707 131.727L306.526 132.277L305.78 135.767L305.599 136.497L305.418 137.417L305.226 137.967L304.491 141.457L304.118 142.927L303.745 144.767L303.564 145.127L303.191 146.787L303.009 147.517L302.828 148.797C302.606 149.564 302.482 150.177 302.455 150.637C302.328 150.944 302.244 151.234 302.203 151.507C302.156 151.787 302.116 152.047 302.082 152.287C301.653 152.354 301.26 152.407 300.904 152.447C300.548 152.494 300.202 152.517 299.866 152.517H299.402C299.248 152.517 299.093 152.504 298.939 152.477H288.208V151.737C287.778 150.637 287.533 149.597 287.472 148.617C287.345 148.464 287.281 148.281 287.281 148.067L287.099 147.147C286.421 144.974 285.988 143.137 285.8 141.637L285.618 141.087L284.691 137.607L284.51 136.137L283.029 130.447V129.707C282.72 129.007 282.535 128.274 282.474 127.507L282.102 126.407L281.739 125.117V124.567L280.812 120.897V120.347L280.62 119.607L280.258 118.877L280.066 117.407C279.824 116.674 279.626 116.001 279.472 115.387C279.317 114.774 279.21 114.224 279.149 113.737L278.958 113.187V112.637C278.837 112.484 278.776 112.301 278.776 112.087L278.404 110.617L278.222 110.067C278.095 109.421 277.977 108.837 277.87 108.317C277.762 107.797 277.631 107.341 277.477 106.947L277.295 105.657C277.08 105.044 276.909 104.477 276.781 103.957C276.661 103.437 276.583 102.964 276.55 102.537L276.368 101.617C276.247 101.464 276.187 101.281 276.187 101.067L275.26 97.3974L274.887 96.1074L274.706 95.1974L274.524 94.4574L274.333 93.1774C274.084 92.5307 273.96 91.9774 273.96 91.5174V91.3374L273.597 90.4174L273.406 89.6874C273.285 88.8007 273.1 88.064 272.852 87.4774V86.7474C272.731 86.594 272.67 86.4107 272.67 86.1974" fill="white"/>
<path d="M399.079 106.758L399.643 107.858C401.088 109.638 402.011 111.475 402.414 113.368C402.535 114.161 402.626 114.905 402.686 115.598C402.753 116.285 402.787 116.888 402.787 117.408V141.638C403.922 143.878 405.585 145.225 407.775 145.678L407.412 146.228C407.284 146.448 407.16 146.571 407.039 146.598L406.858 147.148L406.485 147.518C406.176 148.191 405.806 148.741 405.377 149.168C404.94 150.301 404.382 151.158 403.704 151.738C403.429 152.351 403.167 152.881 402.918 153.328C402.676 153.768 402.448 154.158 402.233 154.498C398.626 153.578 395.787 151.925 393.719 149.538H393.164C389.188 152.385 385.087 153.808 380.861 153.808C378.578 153.808 376.327 153.425 374.11 152.658C367.48 150.305 363.473 146.021 362.09 139.808V139.578C362.09 127.738 369.072 121.818 383.038 121.818H383.179C383.454 121.691 383.76 121.628 384.096 121.628L384.65 121.448H385.95L386.504 121.268H387.058L391.683 120.718C391.744 120.378 391.774 120.071 391.774 119.798V118.878C391.774 113.765 389.047 111.208 383.592 111.208C379.797 111.208 374.601 112.478 368.004 115.018L367.269 113.368L366.896 112.268L366.523 111.898L366.342 111.538L365.969 110.428C365.633 109.881 365.388 109.331 365.233 108.778C364.582 107.925 364.149 107.068 363.934 106.208L364.488 106.028L364.861 105.838L365.415 105.658L365.788 105.288H366.342C366.463 105.168 366.57 105.108 366.664 105.108H366.715C367.823 104.528 368.807 104.098 369.667 103.818L370.594 103.638C371.272 103.331 371.89 103.148 372.448 103.088L373.929 102.718C375.004 102.291 376.052 102.048 377.073 101.988L381.144 101.248C381.755 101.188 382.346 101.135 382.917 101.088C383.488 101.041 384.052 101.018 384.61 101.018C390.494 101.018 395.317 102.931 399.079 106.758ZM387.24 130.078H386.131C385.856 130.138 385.587 130.185 385.325 130.218C385.063 130.245 384.808 130.258 384.559 130.258H384.287L383.542 130.448H382.988C382.833 130.568 382.648 130.628 382.433 130.628H381.879L378.917 131.358H378.363C377.503 131.851 376.764 132.158 376.146 132.278C374.144 134.178 373.143 136.015 373.143 137.788C373.143 139.408 373.959 140.998 375.592 142.558C377.963 143.998 380.274 144.718 382.524 144.718C385.392 144.718 388.136 143.571 390.756 141.278C391.005 140.571 391.253 140.081 391.502 139.808L391.683 139.258L391.502 138.518V129.888H387.804C387.649 130.015 387.461 130.078 387.24 130.078Z" fill="white"/>
<path d="M420.608 152.655V102.535H431.893V152.655H420.608ZM433.002 87.8446V88.4446C433.002 90.9846 432.199 93.0479 430.593 94.6346C428.901 95.4612 427.342 95.8746 425.918 95.8746C423.453 95.8746 421.498 94.5446 420.054 91.8846C419.772 90.8112 419.631 89.8646 419.631 89.0446C419.631 85.9179 421.374 83.8046 424.86 82.7046H425.324C429.24 82.7046 431.799 84.4179 433.002 87.8446Z" fill="white"/>
<path d="M159.706 76.1234H108.822V174.123H159.706V76.1234Z" stroke="white" stroke-width="2" stroke-dasharray="5 5"/>
<path d="M212.102 76.1234H161.721V174.123H212.102V76.1234Z" stroke="white" stroke-width="2" stroke-dasharray="5 5"/>
<path d="M239.307 76.1234H214.117V174.123H239.307V76.1234Z" stroke="white" stroke-width="2" stroke-dasharray="5 5"/>
<path d="M264.497 76.1234H241.322V174.123H264.497V76.1234Z" stroke="white" stroke-width="2" stroke-dasharray="5 5"/>
<path d="M356.693 76.1234H266.512V174.123H356.693V76.1234Z" stroke="white" stroke-width="2" stroke-dasharray="5 5"/>
<path d="M412.616 76.1234H358.709V174.123H412.616V76.1234Z" stroke="white" stroke-width="2" stroke-dasharray="5 5"/>
<path d="M439.821 76.1234H414.631V174.123H439.821V76.1234Z" stroke="white" stroke-width="2" stroke-dasharray="5 5"/>
<path d="M419.317 292.623H474.735" stroke="#FF0000" stroke-width="2.74323"/>
<path d="M384.907 317.623H477.607" stroke="#FF0000" stroke-width="2.74323"/>
<path d="M455.439 292.623V317.623" stroke="#FF0000" stroke-width="2.74323"/>
<path d="M455.671 310L447.378 342.919H463.963L455.671 310Z" fill="#FF0000"/>
<path d="M455.671 302.919L447.378 270H463.963L455.671 302.919Z" fill="#FF0000"/>
<path d="M447.828 369.219V372H432.253C432.232 371.303 432.344 370.634 432.591 369.991C432.987 368.93 433.619 367.885 434.487 366.856C435.366 365.828 436.631 364.638 438.281 363.288C440.842 361.188 442.572 359.527 443.473 358.305C444.373 357.073 444.823 355.91 444.823 354.817C444.823 353.671 444.41 352.706 443.585 351.924C442.771 351.131 441.704 350.735 440.386 350.735C438.993 350.735 437.879 351.152 437.043 351.988C436.207 352.824 435.784 353.981 435.773 355.46L432.8 355.155C433.003 352.937 433.769 351.249 435.098 350.092C436.427 348.924 438.211 348.34 440.451 348.34C442.712 348.34 444.501 348.966 445.819 350.22C447.137 351.474 447.796 353.028 447.796 354.882C447.796 355.825 447.603 356.751 447.218 357.662C446.832 358.573 446.189 359.532 445.289 360.539C444.399 361.547 442.915 362.929 440.836 364.686C439.101 366.144 437.986 367.135 437.493 367.66C437 368.174 436.593 368.694 436.272 369.219H447.828ZM450.593 366.905L453.454 366.455C453.615 367.601 454.06 368.48 454.788 369.091C455.528 369.701 456.556 370.007 457.875 370.007C459.203 370.007 460.189 369.739 460.832 369.203C461.475 368.657 461.796 368.019 461.796 367.29C461.796 366.637 461.513 366.122 460.945 365.747C460.548 365.49 459.562 365.163 457.987 364.767C455.865 364.231 454.392 363.77 453.567 363.384C452.752 362.988 452.131 362.447 451.702 361.761C451.284 361.065 451.075 360.298 451.075 359.463C451.075 358.702 451.247 358 451.59 357.357C451.943 356.703 452.42 356.162 453.02 355.733C453.47 355.401 454.081 355.123 454.853 354.898C455.635 354.662 456.471 354.544 457.36 354.544C458.7 354.544 459.873 354.737 460.88 355.123C461.898 355.508 462.648 356.033 463.131 356.698C463.613 357.352 463.945 358.23 464.127 359.334L461.298 359.72C461.17 358.841 460.795 358.155 460.173 357.662C459.562 357.169 458.694 356.923 457.569 356.923C456.24 356.923 455.292 357.143 454.724 357.582C454.156 358.021 453.872 358.536 453.872 359.125C453.872 359.5 453.99 359.838 454.226 360.138C454.462 360.448 454.831 360.706 455.335 360.909C455.624 361.016 456.476 361.263 457.891 361.649C459.937 362.195 461.362 362.645 462.166 362.999C462.981 363.342 463.618 363.845 464.079 364.51C464.54 365.174 464.77 365.999 464.77 366.985C464.77 367.949 464.486 368.86 463.918 369.718C463.361 370.564 462.552 371.223 461.491 371.695C460.43 372.155 459.23 372.386 457.891 372.386C455.672 372.386 453.979 371.925 452.811 371.003C451.654 370.082 450.915 368.716 450.593 366.905ZM471.36 372L466.136 354.93H469.126L471.843 364.783L472.855 368.448C472.898 368.266 473.193 367.092 473.739 364.928L476.456 354.93H479.429L481.985 364.831L482.837 368.094L483.817 364.799L486.743 354.93H489.556L484.219 372H481.213L478.497 361.777L477.838 358.868L474.382 372H471.36Z" fill="#FF0000"/>
<path d="M410.097 287.535V183.292" stroke="#46C147" stroke-width="2.74323"/>
<path d="M573.833 287.535V183.292" stroke="#46C147" stroke-width="2.74323"/>
<path d="M410.097 205.237H573.833" stroke="#46C147" stroke-width="2.74323"/>
<path d="M410.097 205.237L432.21 199.751V210.724L410.097 205.237Z" fill="#46C147"/>
<path d="M573.833 205.237L551.72 199.751V210.724L573.833 205.237Z" fill="#46C147"/>
<path d="M460.65 168H457.757V149.563C457.06 150.228 456.144 150.892 455.008 151.557C453.883 152.221 452.87 152.719 451.97 153.051V150.255C453.588 149.494 455.003 148.572 456.214 147.49C457.425 146.408 458.282 145.358 458.786 144.34H460.65V168ZM468.092 161.779L470.985 161.394C471.318 163.033 471.88 164.217 472.673 164.946C473.477 165.664 474.452 166.023 475.599 166.023C476.959 166.023 478.106 165.551 479.038 164.608C479.981 163.665 480.453 162.497 480.453 161.104C480.453 159.776 480.019 158.683 479.151 157.825C478.283 156.957 477.179 156.523 475.84 156.523C475.293 156.523 474.613 156.631 473.798 156.845L474.12 154.305C474.313 154.327 474.468 154.337 474.586 154.337C475.818 154.337 476.927 154.016 477.913 153.373C478.899 152.73 479.392 151.739 479.392 150.399C479.392 149.338 479.033 148.46 478.315 147.763C477.597 147.067 476.67 146.718 475.534 146.718C474.409 146.718 473.472 147.072 472.721 147.779C471.971 148.487 471.489 149.547 471.275 150.962L468.382 150.448C468.735 148.508 469.539 147.008 470.793 145.947C472.046 144.875 473.605 144.34 475.47 144.34C476.756 144.34 477.94 144.618 479.022 145.175C480.105 145.722 480.93 146.472 481.498 147.426C482.076 148.379 482.366 149.392 482.366 150.464C482.366 151.482 482.092 152.409 481.546 153.244C480.999 154.08 480.19 154.745 479.119 155.237C480.512 155.559 481.594 156.229 482.366 157.247C483.137 158.254 483.523 159.518 483.523 161.04C483.523 163.097 482.773 164.844 481.273 166.28C479.772 167.705 477.876 168.418 475.583 168.418C473.514 168.418 471.794 167.802 470.423 166.569C469.062 165.337 468.285 163.74 468.092 161.779ZM486.046 162.905L488.908 162.455C489.068 163.601 489.513 164.48 490.242 165.091C490.981 165.701 492.01 166.007 493.328 166.007C494.657 166.007 495.642 165.739 496.285 165.203C496.928 164.657 497.25 164.019 497.25 163.29C497.25 162.637 496.966 162.122 496.398 161.747C496.001 161.49 495.016 161.163 493.44 160.767C491.319 160.231 489.845 159.77 489.02 159.384C488.206 158.988 487.584 158.447 487.156 157.761C486.738 157.065 486.529 156.298 486.529 155.462C486.529 154.702 486.7 154 487.043 153.357C487.397 152.703 487.873 152.162 488.474 151.733C488.924 151.401 489.534 151.123 490.306 150.898C491.088 150.662 491.924 150.544 492.813 150.544C494.153 150.544 495.326 150.737 496.334 151.123C497.352 151.508 498.102 152.033 498.584 152.698C499.066 153.351 499.398 154.23 499.58 155.334L496.751 155.72C496.623 154.841 496.248 154.155 495.626 153.662C495.016 153.169 494.148 152.923 493.022 152.923C491.694 152.923 490.745 153.143 490.177 153.582C489.609 154.021 489.325 154.536 489.325 155.125C489.325 155.5 489.443 155.838 489.679 156.138C489.915 156.448 490.285 156.706 490.788 156.909C491.078 157.016 491.929 157.263 493.344 157.649C495.391 158.195 496.816 158.645 497.619 158.999C498.434 159.342 499.071 159.845 499.532 160.51C499.993 161.174 500.223 161.999 500.223 162.985C500.223 163.949 499.939 164.86 499.372 165.717C498.814 166.564 498.005 167.223 496.944 167.695C495.884 168.155 494.683 168.386 493.344 168.386C491.126 168.386 489.433 167.925 488.265 167.003C487.107 166.082 486.368 164.716 486.046 162.905ZM506.814 168L501.59 150.93H504.579L507.296 160.783L508.308 164.448C508.351 164.265 508.646 163.092 509.192 160.928L511.909 150.93H514.883L517.438 160.831L518.29 164.094L519.271 160.799L522.196 150.93H525.009L519.673 168H516.667L513.95 157.777L513.291 154.868L509.835 168H506.814Z" fill="#46C147"/>
<path d="M470.553 321.22L561.517 373.341" stroke="#46C147" stroke-width="2.74323"/>
<path d="M495.743 277.919L586.707 330.04" stroke="#46C147" stroke-width="2.74323"/>
<path d="M542.367 362.368L567.557 319.067" stroke="#46C147" stroke-width="2.74323"/>
<path d="M542.079 362.601L558.211 345.641L549.212 340.619L542.079 362.601Z" fill="#46C147"/>
<path d="M567.845 318.834L560.713 340.816L551.713 335.795L567.845 318.834Z" fill="#46C147"/>
<path d="M596.909 387.425L592.079 384.73L586.929 393.351L584.658 392.084L577.002 375.721L578.193 373.728L591.266 381.023L592.869 378.339L595.139 379.606L593.536 382.29L598.366 384.985L596.909 387.425ZM589.808 383.463L580.712 378.387L586.091 389.685L589.808 383.463ZM596.927 377.658L597.983 375.03C599.046 375.442 600.022 375.487 600.912 375.164C601.807 374.832 602.587 374.111 603.251 372.999C603.92 371.878 604.188 370.919 604.053 370.121C603.909 369.318 603.525 368.742 602.901 368.394C602.342 368.081 601.758 368.075 601.151 368.375C600.731 368.587 599.955 369.262 598.822 370.401C597.294 371.934 596.157 372.957 595.411 373.468C594.662 373.965 593.885 374.231 593.082 374.265C592.276 374.285 591.514 374.095 590.799 373.696C590.147 373.332 589.633 372.852 589.255 372.256C588.874 371.645 588.651 370.985 588.586 370.274C588.528 369.736 588.597 369.087 588.793 368.329C588.986 367.557 589.306 366.796 589.754 366.046C590.429 364.916 591.185 364.019 592.023 363.353C592.866 362.679 593.693 362.298 594.505 362.208C595.307 362.114 596.227 362.254 597.264 362.627L596.169 365.197C595.352 364.886 594.576 364.875 593.841 365.163C593.111 365.443 592.463 366.057 591.896 367.006C591.226 368.126 590.937 369.031 591.027 369.72C591.117 370.409 591.414 370.894 591.919 371.176C592.24 371.355 592.588 371.417 592.964 371.361C593.349 371.311 593.755 371.122 594.183 370.794C594.42 370.602 595.061 370.001 596.103 368.992C597.602 367.527 598.706 366.541 599.413 366.032C600.117 365.509 600.869 365.212 601.67 365.14C602.471 365.069 603.294 365.269 604.138 365.74C604.963 366.201 605.6 366.875 606.048 367.764C606.492 368.638 606.649 369.635 606.518 370.755C606.378 371.87 605.971 372.992 605.296 374.122C604.178 375.993 602.931 377.2 601.554 377.745C600.182 378.281 598.64 378.252 596.927 377.658ZM611.751 362.578L594.505 358.829L596.011 356.307L605.815 358.724L609.463 359.621C609.328 359.497 608.472 358.688 606.895 357.193L599.704 350.126L601.202 347.618L610.966 350.193L614.188 351.034L611.861 348.633L604.886 341.451L606.303 339.079L618.229 351.734L616.715 354.269L606.594 351.676L603.771 350.842L613.273 360.03L611.751 362.578Z" fill="#46C147"/>
<path d="M574.337 130V234.243" stroke="#46C147" stroke-width="2.74323"/>
<path d="M647.892 130V234.243" stroke="#46C147" stroke-width="2.74323"/>
<path d="M573.329 212.297H623.71" stroke="#46C147" stroke-width="2.74323"/>
<path d="M570.307 212.297L592.419 217.784V206.811L570.307 212.297Z" fill="#46C147"/>
<path d="M647.838 212.297L625.725 217.784V206.811L647.838 212.297Z" fill="#46C147"/>
<path d="M596.762 253.741L593.884 253.966C593.627 252.83 593.263 252.005 592.791 251.491C592.009 250.666 591.045 250.253 589.898 250.253C588.977 250.253 588.168 250.51 587.471 251.025C586.56 251.689 585.842 252.659 585.317 253.934C584.792 255.209 584.519 257.026 584.497 259.383C585.194 258.322 586.046 257.535 587.053 257.02C588.06 256.506 589.116 256.249 590.22 256.249C592.149 256.249 593.788 256.961 595.138 258.386C596.499 259.801 597.18 261.633 597.18 263.884C597.18 265.362 596.858 266.739 596.215 268.015C595.583 269.279 594.71 270.249 593.595 270.924C592.481 271.599 591.216 271.937 589.802 271.937C587.391 271.937 585.424 271.052 583.903 269.284C582.381 267.506 581.62 264.58 581.62 260.508C581.62 255.954 582.461 252.643 584.144 250.575C585.612 248.774 587.589 247.874 590.075 247.874C591.929 247.874 593.445 248.394 594.624 249.433C595.813 250.473 596.526 251.909 596.762 253.741ZM584.948 263.9C584.948 264.896 585.156 265.85 585.574 266.761C586.003 267.672 586.598 268.368 587.359 268.85C588.119 269.322 588.918 269.558 589.754 269.558C590.975 269.558 592.025 269.065 592.904 268.079C593.783 267.093 594.222 265.754 594.222 264.06C594.222 262.432 593.788 261.151 592.92 260.219C592.052 259.276 590.959 258.804 589.641 258.804C588.334 258.804 587.225 259.276 586.314 260.219C585.403 261.151 584.948 262.378 584.948 263.9ZM599.719 266.439L602.58 265.989C602.741 267.136 603.186 268.015 603.914 268.625C604.654 269.236 605.683 269.542 607.001 269.542C608.329 269.542 609.315 269.274 609.958 268.738C610.601 268.191 610.923 267.554 610.923 266.825C610.923 266.171 610.639 265.657 610.071 265.282C609.674 265.025 608.688 264.698 607.113 264.302C604.991 263.766 603.518 263.305 602.693 262.919C601.878 262.523 601.257 261.982 600.828 261.296C600.41 260.599 600.201 259.833 600.201 258.997C600.201 258.236 600.373 257.535 600.716 256.892C601.069 256.238 601.546 255.697 602.146 255.268C602.596 254.936 603.207 254.657 603.979 254.432C604.761 254.197 605.597 254.079 606.486 254.079C607.826 254.079 608.999 254.272 610.006 254.657C611.024 255.043 611.774 255.568 612.257 256.233C612.739 256.886 613.071 257.765 613.253 258.869L610.424 259.254C610.296 258.376 609.921 257.69 609.299 257.197C608.688 256.704 607.82 256.458 606.695 256.458C605.366 256.458 604.418 256.677 603.85 257.117C603.282 257.556 602.998 258.07 602.998 258.66C602.998 259.035 603.116 259.372 603.352 259.672C603.588 259.983 603.957 260.24 604.461 260.444C604.75 260.551 605.602 260.797 607.017 261.183C609.063 261.73 610.489 262.18 611.292 262.533C612.107 262.876 612.744 263.38 613.205 264.044C613.666 264.709 613.896 265.534 613.896 266.52C613.896 267.484 613.612 268.395 613.044 269.252C612.487 270.099 611.678 270.758 610.617 271.229C609.556 271.69 608.356 271.92 607.017 271.92C604.798 271.92 603.105 271.46 601.937 270.538C600.78 269.617 600.041 268.25 599.719 266.439ZM620.486 271.535L615.262 254.464H618.252L620.969 264.318L621.981 267.982C622.024 267.8 622.319 266.627 622.865 264.462L625.582 254.464H628.555L631.111 264.366L631.963 267.629L632.943 264.334L635.869 254.464H638.682L633.345 271.535H630.339L627.623 261.312L626.964 258.403L623.508 271.535H620.486Z" fill="#46C147"/>
<path d="M766 394C766 391.239 768.239 389 771 389H926C928.761 389 931 391.239 931 394V428C931 430.761 928.761 433 926 433H771C768.239 433 766 430.761 766 428V394Z" fill="#0033A2"/>
<path d="M770.436 422.5L780.438 396.456H784.15L794.809 422.5H790.883L787.846 414.612H776.956L774.095 422.5H770.436ZM777.951 411.805H786.78L784.062 404.593C783.233 402.402 782.617 400.602 782.214 399.192C781.882 400.862 781.415 402.52 780.811 404.167L777.951 411.805ZM797.154 429.73V403.634H800.068V406.085C800.755 405.126 801.531 404.409 802.395 403.936C803.26 403.45 804.308 403.207 805.54 403.207C807.15 403.207 808.571 403.622 809.803 404.451C811.035 405.28 811.965 406.452 812.592 407.968C813.22 409.472 813.534 411.124 813.534 412.925C813.534 414.855 813.184 416.596 812.486 418.148C811.799 419.687 810.792 420.872 809.466 421.701C808.151 422.518 806.765 422.926 805.309 422.926C804.243 422.926 803.283 422.701 802.431 422.251C801.59 421.801 800.897 421.233 800.352 420.546V429.73H797.154ZM800.05 413.173C800.05 415.601 800.542 417.396 801.525 418.556C802.508 419.717 803.698 420.297 805.095 420.297C806.517 420.297 807.731 419.699 808.737 418.503C809.756 417.295 810.265 415.43 810.265 412.907C810.265 410.503 809.768 408.703 808.773 407.506C807.79 406.31 806.611 405.712 805.238 405.712C803.876 405.712 802.668 406.352 801.613 407.631C800.571 408.898 800.05 410.745 800.05 413.173ZM817.407 429.73V403.634H820.32V406.085C821.007 405.126 821.783 404.409 822.647 403.936C823.512 403.45 824.56 403.207 825.792 403.207C827.402 403.207 828.824 403.622 830.055 404.451C831.287 405.28 832.217 406.452 832.844 407.968C833.472 409.472 833.786 411.124 833.786 412.925C833.786 414.855 833.437 416.596 832.738 418.148C832.051 419.687 831.044 420.872 829.718 421.701C828.403 422.518 827.017 422.926 825.561 422.926C824.495 422.926 823.536 422.701 822.683 422.251C821.842 421.801 821.149 421.233 820.604 420.546V429.73H817.407ZM820.302 413.173C820.302 415.601 820.794 417.396 821.777 418.556C822.76 419.717 823.95 420.297 825.348 420.297C826.769 420.297 827.983 419.699 828.989 418.503C830.008 417.295 830.517 415.43 830.517 412.907C830.517 410.503 830.02 408.703 829.025 407.506C828.042 406.31 826.863 405.712 825.49 405.712C824.128 405.712 822.92 406.352 821.866 407.631C820.823 408.898 820.302 410.745 820.302 413.173ZM837.623 422.5V403.634H840.501V406.494C841.235 405.155 841.91 404.273 842.526 403.847C843.154 403.42 843.841 403.207 844.587 403.207C845.665 403.207 846.76 403.551 847.874 404.238L846.772 407.204C845.99 406.742 845.209 406.511 844.427 406.511C843.728 406.511 843.101 406.725 842.544 407.151C841.987 407.566 841.591 408.146 841.354 408.892C840.999 410.029 840.821 411.273 840.821 412.623V422.5H837.623ZM848.584 413.067C848.584 409.573 849.555 406.985 851.498 405.303C853.12 403.906 855.098 403.207 857.431 403.207C860.025 403.207 862.145 404.06 863.791 405.765C865.437 407.459 866.26 409.804 866.26 412.8C866.26 415.228 865.893 417.141 865.159 418.538C864.436 419.924 863.377 421.002 861.979 421.772C860.593 422.541 859.077 422.926 857.431 422.926C854.79 422.926 852.652 422.08 851.018 420.386C849.395 418.692 848.584 416.253 848.584 413.067ZM851.871 413.067C851.871 415.483 852.398 417.295 853.452 418.503C854.506 419.699 855.832 420.297 857.431 420.297C859.018 420.297 860.339 419.693 861.393 418.485C862.447 417.277 862.974 415.435 862.974 412.96C862.974 410.627 862.441 408.862 861.375 407.666C860.321 406.458 859.006 405.854 857.431 405.854C855.832 405.854 854.506 406.452 853.452 407.648C852.398 408.845 851.871 410.651 851.871 413.067ZM882.338 420.173C881.153 421.179 880.01 421.89 878.909 422.305C877.819 422.719 876.647 422.926 875.392 422.926C873.319 422.926 871.726 422.423 870.613 421.416C869.5 420.398 868.943 419.101 868.943 417.526C868.943 416.602 869.15 415.761 869.565 415.003C869.991 414.233 870.542 413.617 871.217 413.156C871.904 412.694 872.674 412.344 873.526 412.107C874.154 411.942 875.101 411.782 876.369 411.628C878.95 411.32 880.851 410.953 882.071 410.526C882.083 410.088 882.089 409.81 882.089 409.691C882.089 408.389 881.787 407.471 881.183 406.938C880.366 406.215 879.152 405.854 877.541 405.854C876.037 405.854 874.924 406.121 874.201 406.654C873.491 407.175 872.964 408.104 872.62 409.443L869.494 409.016C869.778 407.678 870.246 406.6 870.897 405.783C871.548 404.954 872.49 404.32 873.722 403.882C874.953 403.432 876.38 403.207 878.003 403.207C879.614 403.207 880.922 403.397 881.929 403.776C882.936 404.155 883.676 404.634 884.15 405.215C884.623 405.783 884.955 406.506 885.145 407.382C885.251 407.927 885.304 408.91 885.304 410.331V414.595C885.304 417.567 885.37 419.45 885.5 420.244C885.642 421.026 885.914 421.778 886.317 422.5H882.977C882.646 421.837 882.432 421.061 882.338 420.173ZM882.071 413.031C880.911 413.505 879.17 413.908 876.848 414.239C875.534 414.429 874.604 414.642 874.059 414.879C873.514 415.116 873.094 415.465 872.798 415.927C872.502 416.377 872.354 416.88 872.354 417.437C872.354 418.29 872.674 419 873.313 419.569C873.964 420.137 874.912 420.421 876.155 420.421C877.387 420.421 878.483 420.155 879.442 419.622C880.401 419.077 881.106 418.337 881.556 417.401C881.899 416.679 882.071 415.613 882.071 414.204V413.031ZM902.59 415.589L905.734 415.998C905.391 418.165 904.508 419.865 903.087 421.097C901.678 422.316 899.943 422.926 897.882 422.926C895.3 422.926 893.222 422.085 891.647 420.404C890.083 418.71 889.302 416.288 889.302 413.138C889.302 411.101 889.639 409.318 890.314 407.791C890.989 406.263 892.014 405.12 893.388 404.362C894.773 403.592 896.277 403.207 897.9 403.207C899.949 403.207 901.625 403.728 902.927 404.771C904.23 405.801 905.065 407.269 905.432 409.176L902.323 409.656C902.027 408.389 901.5 407.435 900.742 406.796C899.996 406.156 899.09 405.836 898.024 405.836C896.413 405.836 895.105 406.417 894.098 407.577C893.091 408.726 892.588 410.55 892.588 413.049C892.588 415.583 893.074 417.425 894.045 418.574C895.016 419.723 896.283 420.297 897.847 420.297C899.102 420.297 900.15 419.912 900.991 419.142C901.832 418.373 902.365 417.188 902.59 415.589ZM908.47 422.5V396.456H911.668V405.801C913.16 404.072 915.043 403.207 917.317 403.207C918.714 403.207 919.928 403.486 920.959 404.042C921.989 404.587 922.723 405.345 923.162 406.316C923.612 407.287 923.837 408.697 923.837 410.544V422.5H920.639V410.544C920.639 408.945 920.29 407.785 919.591 407.062C918.904 406.328 917.927 405.961 916.66 405.961C915.712 405.961 914.818 406.209 913.977 406.707C913.148 407.192 912.556 407.856 912.201 408.697C911.845 409.537 911.668 410.698 911.668 412.179V422.5H908.47Z" fill="white"/>
<path d="M648.9 390H764.989" stroke="#FF0000" stroke-width="3.03189"/>
<path d="M648.9 477H764.989" stroke="#FF0000" stroke-width="3.03189"/>
<path d="M740.549 393V473" stroke="#FF0000" stroke-width="3.03189"/>
<path d="M740.549 390L746.659 414.255H734.439L740.549 390Z" fill="#FF0000"/>
<path d="M740.549 477.255L746.659 453H734.439L740.549 477.255Z" fill="#FF0000"/>
<path d="M784.019 470V451.134H786.879V453.781C787.471 452.857 788.259 452.117 789.242 451.56C790.225 450.991 791.344 450.707 792.599 450.707C793.997 450.707 795.14 450.997 796.028 451.578C796.928 452.158 797.562 452.969 797.929 454.011C799.421 451.809 801.364 450.707 803.756 450.707C805.627 450.707 807.066 451.228 808.073 452.271C809.079 453.301 809.583 454.894 809.583 457.049V470H806.403V458.115C806.403 456.836 806.296 455.918 806.083 455.362C805.882 454.793 805.509 454.337 804.964 453.994C804.419 453.65 803.78 453.479 803.045 453.479C801.719 453.479 800.617 453.923 799.741 454.811C798.865 455.687 798.426 457.097 798.426 459.039V470H795.229V457.742C795.229 456.321 794.968 455.255 794.447 454.544C793.926 453.834 793.073 453.479 791.889 453.479C790.989 453.479 790.154 453.715 789.384 454.189C788.626 454.663 788.075 455.356 787.732 456.268C787.388 457.18 787.217 458.494 787.217 460.211V470H784.019ZM814.344 447.634V443.956H817.542V447.634H814.344ZM814.344 470V451.134H817.542V470H814.344ZM822.427 470V451.134H825.305V453.816C826.691 451.743 828.692 450.707 831.309 450.707C832.446 450.707 833.489 450.914 834.436 451.329C835.395 451.732 836.112 452.265 836.586 452.928C837.059 453.591 837.391 454.379 837.58 455.291C837.699 455.883 837.758 456.919 837.758 458.399V470H834.56V458.524C834.56 457.221 834.436 456.25 834.187 455.61C833.939 454.959 833.495 454.444 832.855 454.065C832.227 453.674 831.487 453.479 830.634 453.479C829.272 453.479 828.094 453.911 827.099 454.775C826.116 455.64 825.625 457.28 825.625 459.696V470H822.427ZM843.585 470V466.358H847.227V470H843.585ZM862.256 447.367V444.294H879.115V446.781C877.457 448.546 875.811 450.891 874.176 453.816C872.554 456.741 871.298 459.75 870.41 462.841C869.771 465.02 869.362 467.406 869.184 470H865.898C865.933 467.951 866.336 465.476 867.106 462.574C867.876 459.673 868.977 456.878 870.41 454.189C871.855 451.489 873.389 449.215 875.011 447.367H862.256ZM881.904 464.368L885.066 463.871C885.244 465.138 885.735 466.109 886.541 466.785C887.358 467.46 888.495 467.797 889.952 467.797C891.42 467.797 892.51 467.501 893.22 466.909C893.931 466.305 894.286 465.6 894.286 464.795C894.286 464.072 893.973 463.504 893.345 463.089C892.907 462.805 891.817 462.444 890.076 462.006C887.731 461.414 886.103 460.904 885.191 460.478C884.291 460.04 883.604 459.442 883.13 458.684C882.668 457.914 882.437 457.067 882.437 456.143C882.437 455.302 882.627 454.527 883.006 453.816C883.396 453.094 883.923 452.496 884.587 452.022C885.084 451.655 885.759 451.347 886.612 451.098C887.476 450.837 888.4 450.707 889.383 450.707C890.864 450.707 892.16 450.92 893.274 451.347C894.399 451.773 895.228 452.353 895.761 453.088C896.294 453.81 896.661 454.781 896.862 456.001L893.736 456.428C893.594 455.456 893.179 454.698 892.492 454.154C891.817 453.609 890.858 453.336 889.614 453.336C888.146 453.336 887.097 453.579 886.47 454.065C885.842 454.55 885.528 455.119 885.528 455.77C885.528 456.185 885.658 456.558 885.919 456.889C886.18 457.233 886.588 457.517 887.145 457.742C887.465 457.861 888.406 458.133 889.969 458.559C892.232 459.163 893.807 459.661 894.695 460.052C895.595 460.431 896.3 460.987 896.809 461.722C897.318 462.456 897.573 463.368 897.573 464.457C897.573 465.523 897.259 466.53 896.631 467.477C896.015 468.413 895.121 469.141 893.949 469.662C892.776 470.172 891.45 470.426 889.969 470.426C887.518 470.426 885.647 469.917 884.356 468.899C883.077 467.88 882.259 466.37 881.904 464.368ZM904.857 470L899.083 451.134H902.387L905.39 462.024L906.509 466.074C906.556 465.873 906.882 464.576 907.486 462.183L910.488 451.134H913.775L916.599 462.077L917.541 465.683L918.624 462.041L921.858 451.134H924.967L919.069 470H915.747L912.744 458.701L912.016 455.486L908.196 470H904.857Z" fill="#FF0000"/>
</g>
<defs>
<clipPath id="clip0_0_1">
<rect width="930" height="550" fill="white"/>
</clipPath>
</defs>
</svg>
