<svg width="980" height="834" viewBox="0 0 980 834" fill="none" xmlns="http://www.w3.org/2000/svg">
<path d="M20 57.5C20 36.7893 36.7893 20 57.5 20H732.5C753.211 20 770 36.7893 770 57.5V707.5C770 728.211 753.211 745 732.5 745H57.5C36.7893 745 20 728.211 20 707.5V57.5Z" fill="white"/>
<path d="M38.75 57.5C38.75 47.1447 47.1447 38.75 57.5 38.75H732.5C742.855 38.75 751.25 47.1447 751.25 57.5V707.5C751.25 717.855 742.855 726.25 732.5 726.25H57.5C47.1447 726.25 38.75 717.855 38.75 707.5V57.5Z" fill="#0033A2"/>
<path d="M116.162 242.94V233.83H169.152V242.94H116.162ZM109.302 261.05V252.16H176.572V261.05H109.302ZM93.8825 279.95V270.73H191.762V279.95H93.8825ZM107.722 217.85V209.3H146.872V217.85H107.722ZM137.762 215.04V209.3H149.352C151.752 212.374 154.659 215.354 158.072 218.24C161.486 221.134 165.252 223.817 169.372 226.29C173.499 228.764 177.812 230.977 182.312 232.93C186.812 234.877 191.349 236.527 195.922 237.88C195.102 238.48 194.166 239.267 193.112 240.24C192.066 241.214 191.052 242.227 190.072 243.28C189.099 244.327 188.312 245.3 187.712 246.2C181.712 244.027 175.789 241.327 169.942 238.1C164.089 234.874 158.669 231.294 153.682 227.36C148.696 223.42 144.402 219.314 140.802 215.04H137.762ZM135.292 210.43L144.962 214.14C141.289 219.087 136.826 223.66 131.572 227.86C126.326 232.06 120.719 235.774 114.752 239C108.792 242.227 102.776 245.04 96.7025 247.44C96.1758 246.687 95.4625 245.787 94.5625 244.74C93.6625 243.687 92.7258 242.654 91.7525 241.64C90.7791 240.634 89.9158 239.83 89.1625 239.23C95.3158 237.35 101.316 234.987 107.162 232.14C113.016 229.287 118.359 226.024 123.192 222.35C128.032 218.677 132.066 214.704 135.292 210.43ZM137.092 277.14V237.99H148.002V277.14H137.092ZM93.1025 197.71V187.93H192.552V197.71H93.1025ZM117.062 207.05V179.38H127.642V207.05H117.062ZM157.342 207.61V179.38H167.912V207.61" fill="white"/>
<path d="M279.427 187.143V181.633H299.107V187.143H279.427ZM278.747 205.483V200.083H299.897V205.483H278.747ZM278.747 213.913V208.633H299.897V213.913H278.747ZM262.327 267.243V260.383H319.357V267.243H262.327ZM275.487 196.593V190.633H302.487V196.593H275.487ZM293.147 222.803H285.157V229.213H293.147V222.803ZM278.517 234.393V217.633H300.007V234.393H278.517ZM264.237 255.653V249.243H310.917V244.403H257.257V237.993H320.827V255.653H264.237ZM260.407 235.963V210.433H267.497V235.963H260.407ZM250.177 214.363L249.387 207.503C252.687 207.356 256.381 207.206 260.467 207.053C264.554 206.906 268.884 206.72 273.457 206.493V212.683C269.257 213.056 265.191 213.356 261.257 213.583C257.317 213.803 253.624 214.063 250.177 214.363ZM261.197 249.243H271.097C270.197 252.843 269.224 256.593 268.177 260.493C267.124 264.393 266.147 267.766 265.247 270.613L255.687 269.263C256.734 266.49 257.747 263.283 258.727 259.643C259.701 256.01 260.524 252.543 261.197 249.243ZM315.987 261.503V260.383H325.997C325.997 260.383 325.961 260.886 325.887 261.893C325.814 262.906 325.664 263.753 325.437 264.433C324.384 269.08 323.294 272.733 322.167 275.393C321.047 278.06 319.737 279.993 318.237 281.193C316.964 282.093 315.594 282.71 314.127 283.043C312.667 283.383 310.924 283.59 308.897 283.663C307.171 283.743 304.714 283.763 301.527 283.723C298.341 283.683 294.947 283.59 291.347 283.443C291.274 282.243 290.974 280.893 290.447 279.393C289.921 277.893 289.284 276.543 288.537 275.343C292.064 275.716 295.477 275.94 298.777 276.013C302.077 276.093 304.401 276.133 305.747 276.133C306.947 276.133 307.921 276.093 308.667 276.013C309.421 275.94 310.061 275.716 310.587 275.343C311.634 274.516 312.591 273.033 313.457 270.893C314.317 268.76 315.161 265.63 315.987 261.503ZM268.847 218.413L274.247 217.183C274.847 219.056 275.427 221.116 275.987 223.363C276.554 225.616 276.987 227.566 277.287 229.213L271.437 230.793C271.284 229.066 270.964 227.06 270.477 224.773C269.991 222.486 269.447 220.366 268.847 218.413ZM268.507 203.113L273.347 201.313C274.321 203.193 275.221 205.293 276.047 207.613C276.874 209.94 277.437 211.966 277.737 213.693L272.447 215.713C272.221 213.993 271.734 211.97 270.987 209.643C270.234 207.316 269.407 205.14 268.507 203.113ZM250.507 194.233L254.107 188.833C256.287 190.253 258.424 191.883 260.517 193.723C262.624 195.563 264.201 197.156 265.247 198.503L261.197 204.693C260.071 203.12 258.497 201.356 256.477 199.403C254.451 197.456 252.461 195.733 250.507 194.233ZM261.197 179.043L267.607 182.193C266.107 184.666 264.607 187.18 263.107 189.733C261.607 192.28 260.184 194.416 258.837 196.143L253.887 193.553C255.087 191.606 256.401 189.226 257.827 186.413C259.247 183.6 260.371 181.143 261.197 179.043ZM268.397 188.383L274.697 191.983C272.224 195.356 269.581 198.916 266.767 202.663C263.954 206.416 261.311 209.566 258.837 212.113L254.107 209.193C255.687 207.32 257.377 205.183 259.177 202.783C260.977 200.383 262.681 197.906 264.287 195.353C265.901 192.806 267.271 190.483 268.397 188.383ZM252.987 216.733L259.627 218.193C258.947 221.12 258.121 224.043 257.147 226.963C256.174 229.89 255.124 232.403 253.997 234.503C253.324 234.056 252.347 233.55 251.067 232.983C249.794 232.423 248.747 231.956 247.927 231.583C249.201 229.483 250.247 227.136 251.067 224.543C251.894 221.956 252.534 219.353 252.987 216.733ZM312.387 235.963V210.433H319.587V235.963H312.387ZM302.037 214.363L301.357 207.503C304.811 207.356 308.694 207.206 313.007 207.053C317.321 206.906 321.914 206.756 326.787 206.603L326.667 212.793C322.247 213.093 317.954 213.373 313.787 213.633C309.627 213.9 305.711 214.143 302.037 214.363ZM321.157 218.413L326.897 216.733C327.871 218.98 328.827 221.453 329.767 224.153C330.701 226.853 331.357 229.18 331.737 231.133L325.777 233.043C325.477 231.09 324.877 228.726 323.977 225.953C323.077 223.18 322.137 220.666 321.157 218.413ZM320.257 202.893L325.547 200.533C326.821 202.48 328.001 204.633 329.087 206.993C330.181 209.36 330.951 211.443 331.397 213.243L325.657 215.833C325.284 214.033 324.591 211.913 323.577 209.473C322.564 207.033 321.457 204.84 320.257 202.893ZM301.587 194.003L305.407 188.943C307.361 190.29 309.311 191.846 311.257 193.613C313.211 195.373 314.711 196.966 315.757 198.393L311.377 204.243C310.397 202.743 308.991 201.016 307.157 199.063C305.317 197.116 303.461 195.43 301.587 194.003ZM312.607 179.153L319.027 182.413C317.447 184.893 315.871 187.386 314.297 189.893C312.724 192.406 311.224 194.563 309.797 196.363L304.847 193.783C306.121 191.83 307.507 189.446 309.007 186.633C310.507 183.82 311.707 181.326 312.607 179.153ZM320.597 187.933L326.897 191.533C324.351 194.906 321.577 198.466 318.577 202.213C315.577 205.966 312.727 209.116 310.027 211.663L305.407 208.743C307.134 206.87 308.934 204.733 310.807 202.333C312.687 199.933 314.487 197.456 316.207 194.903C317.934 192.356 319.397 190.033 320.597 187.933ZM304.847 216.733L311.377 218.303C310.851 221.076 310.101 223.906 309.127 226.793C308.147 229.686 307.097 232.143 305.977 234.163C305.377 233.79 304.477 233.283 303.277 232.643C302.077 232.01 301.027 231.506 300.127 231.133C301.321 229.033 302.294 226.743 303.047 224.263C303.794 221.79 304.394 219.28 304.847 216.733ZM228.347 187.813L234.537 180.843C236.411 181.816 238.377 182.996 240.437 184.383C242.504 185.77 244.437 187.156 246.237 188.543C248.037 189.936 249.501 191.27 250.627 192.543L244.207 200.413C243.161 199.14 241.754 197.753 239.987 196.253C238.227 194.753 236.334 193.273 234.307 191.813C232.287 190.346 230.301 189.013 228.347 187.813ZM225.987 217.853L231.837 210.543C233.784 211.443 235.827 212.55 237.967 213.863C240.107 215.176 242.094 216.486 243.927 217.793C245.767 219.106 247.287 220.363 248.487 221.563L242.297 229.663C241.171 228.463 239.691 227.153 237.857 225.733C236.017 224.306 234.047 222.9 231.947 221.513C229.847 220.126 227.861 218.906 225.987 217.853ZM237.797 282.433L228.237 277.033C229.664 274.033 231.181 270.543 232.787 266.563C234.401 262.59 236.051 258.39 237.737 253.963C239.431 249.543 240.987 245.193 242.407 240.913L250.847 246.313C249.647 250.293 248.297 254.383 246.797 258.583C245.297 262.783 243.797 266.906 242.297 270.953C240.797 275.006 239.297 278.833 237.797 282.433Z" fill="white"/>
<path d="M208.5 172.275H73V312.775H208.5V172.275Z" stroke="white" stroke-width="2" stroke-dasharray="5 5"/>
<path d="M346 172.275H210.5V312.775H346V172.275Z" stroke="white" stroke-width="2" stroke-dasharray="5 5"/>
<path d="M343.849 342.151L378 333L624.25 475.168C628.117 477.4 632.881 477.401 636.748 475.169C640.615 472.938 642.998 468.813 643 464.348V478.781V550.95V550.953C643.002 546.485 640.619 542.357 636.75 540.123L353 376.301L343.849 342.151Z" fill="white"/>
<path d="M73.5195 89.3257V78.3057H124.19V89.3257H104.91V148.626H92.7995V89.3257" fill="white"/>
<path d="M166.909 104.552L166.359 105.292L165.809 105.842L165.259 106.212L164.519 107.312L164.159 107.682L163.789 107.862C163.389 108.416 163.022 108.842 162.689 109.142L160.299 111.902C155.219 108.629 151.012 106.992 147.679 106.992C144.252 106.992 141.729 108.689 140.109 112.082C140.169 114.076 140.962 115.546 142.489 116.492C143.162 116.672 143.652 116.856 143.959 117.042C145.152 117.222 146.132 117.466 146.899 117.772C158.492 118.632 164.979 123.286 166.359 131.732C166.419 132.099 166.449 132.456 166.449 132.802C166.449 133.156 166.449 133.502 166.449 133.842C166.449 139.989 163.849 144.609 158.649 147.702C154.915 149.382 151.165 150.222 147.399 150.222C140.239 150.222 133.095 147.179 125.969 141.092L126.339 140.362L127.249 139.442C127.862 138.709 128.415 138.156 128.909 137.782C129.029 137.569 129.149 137.449 129.269 137.422L129.639 136.872C129.759 136.659 129.882 136.536 130.009 136.502L130.189 136.132L130.559 135.952L132.949 133.192C137.475 137.479 142.215 139.622 147.169 139.622C149.249 139.622 151.362 139.256 153.509 138.522C154.055 137.789 154.605 137.239 155.159 136.872C155.345 136.139 155.439 135.449 155.439 134.802C155.439 133.209 154.919 131.879 153.879 130.812L149.649 129.342C137.042 128.576 130.189 123.189 129.089 113.182C129.915 103.116 135.605 97.7322 146.159 97.0322H146.809C154.915 97.0322 161.615 99.5389 166.909 104.552Z" fill="white"/>
<path d="M179.287 134.301V98.5007H190.307V130.261C190.427 130.414 190.487 130.597 190.487 130.811C190.614 130.904 190.677 130.994 190.677 131.081V131.181C190.89 132.554 191.194 133.777 191.587 134.851C193.7 137.784 196.41 139.251 199.717 139.251H199.857C203.957 138.151 206.83 135.887 208.477 132.461V131.911L209.217 129.711V98.5007H220.417V148.621H209.217V144.581C204.81 148.187 200.42 149.991 196.047 149.991C192.647 149.991 189.204 148.921 185.717 146.781C182.87 144.607 180.91 142.037 179.837 139.071L179.657 137.781C179.384 136.894 179.247 136.024 179.247 135.171V134.761C179.247 134.607 179.26 134.454 179.287 134.301Z" fill="white"/>
<path d="M278.836 119.069L279.016 121.819C279.136 121.973 279.196 122.156 279.196 122.369V127.879H245.606C246.306 134.119 249.486 137.793 255.146 138.899C256.066 138.986 256.969 139.029 257.856 139.029C262.476 139.029 266.409 137.516 269.656 134.489C270.049 135.163 270.539 135.713 271.126 136.139L271.306 136.689L271.856 137.239C272.283 137.639 272.649 138.016 272.956 138.369C273.263 138.723 273.509 139.083 273.696 139.449C273.909 139.569 274.029 139.689 274.056 139.809L276.626 142.749C270.813 147.616 264.616 150.049 258.036 150.049C256.909 150.049 255.763 149.973 254.596 149.819C253.436 149.666 252.273 149.453 251.106 149.179C240.519 145.659 234.706 138.069 233.666 126.409C233.666 126.256 233.659 125.949 233.646 125.489C233.633 125.036 233.626 124.746 233.626 124.619C233.626 108.679 240.799 99.6061 255.146 97.3994C269.406 97.8927 277.303 105.116 278.836 119.069ZM245.416 119.249H267.636V118.699C267.509 118.333 267.446 117.966 267.446 117.599V117.229C267.139 116.556 266.956 115.946 266.896 115.399C264.636 110.166 260.903 107.533 255.696 107.499C249.149 109.059 245.723 112.976 245.416 119.249Z" fill="white"/>
<path d="M332.05 107.312V107.862C332.45 108.596 332.697 109.329 332.79 110.062V148.432H321.59V115.942L321.4 114.842C319.874 110.216 317.304 107.902 313.69 107.902C312.59 107.902 311.367 108.132 310.02 108.592C306.96 109.912 304.757 111.996 303.41 114.842L302.68 117.962V148.432H291.66V98.3122H302.68V102.532C306.107 99.4722 309.84 97.6389 313.88 97.0322H314.7C322.9 97.0322 328.684 100.459 332.05 107.312Z" fill="white"/>
<path d="M371.191 78.8593V78.4893H383.861L384.041 79.7793L384.231 80.3293L384.591 81.6193L384.961 83.8193L385.511 85.6493L385.881 87.8593L386.431 89.6893L386.611 91.1593C386.825 91.6793 386.948 92.1093 386.981 92.4493L387.161 93.1793L387.531 94.2793V95.0193C387.651 95.1126 387.711 95.2026 387.711 95.2893V95.9393C388.051 96.6126 388.238 97.3459 388.271 98.1393L388.631 99.2393L389.001 100.529L389.371 102.729L389.921 104.559L390.101 105.669L391.201 110.259C391.295 110.686 391.381 111.076 391.461 111.429C391.535 111.776 391.571 112.119 391.571 112.459L391.941 113.189V113.929L392.301 114.849V115.579L392.671 116.309V117.049C393.011 117.969 393.195 118.766 393.221 119.439L393.411 120.169C393.625 120.783 393.791 121.349 393.911 121.869C394.031 122.389 394.108 122.863 394.141 123.289L394.511 124.759L394.881 126.039L395.241 124.939L395.981 121.269L396.341 120.349L396.531 119.249L397.081 116.679L397.451 115.399V114.849L398.181 111.909L398.361 110.809L398.731 110.069L398.911 109.339L399.101 108.419V107.689L399.281 107.129L400.021 104.199L400.381 101.989L400.571 101.259L400.931 100.529C400.998 99.5493 401.181 98.6893 401.481 97.9493L401.671 97.0393V96.4893L402.041 95.0193L402.221 94.4693L402.771 92.0793L402.951 90.9793L403.321 89.8793L403.501 88.9593L404.051 86.5693L404.241 85.6493L404.421 85.2893C404.455 84.9493 404.495 84.6193 404.541 84.2993C404.588 83.9793 404.671 83.6959 404.791 83.4493L404.971 82.8993V82.3493L405.161 81.6193L405.341 81.0593L405.891 78.4893H419.481V79.0393C419.908 80.1126 420.151 81.1559 420.211 82.1693L420.581 83.6293L420.761 84.1893L421.501 87.4893L421.861 88.9593C422.108 89.8459 422.231 90.5793 422.231 91.1593C422.445 91.6793 422.568 92.1093 422.601 92.4493L422.961 93.7293L423.151 95.0193L423.331 95.7493L423.521 96.2993C423.608 96.6993 423.685 97.0593 423.751 97.3793C423.811 97.6993 423.855 98.0126 423.881 98.3193C424.128 98.8993 424.298 99.4359 424.391 99.9293C424.485 100.416 424.561 100.859 424.621 101.259L424.801 102.359L425.171 103.279L425.351 104.379V104.929C425.658 105.663 425.841 106.336 425.901 106.949L426.091 108.049C426.391 108.783 426.575 109.456 426.641 110.069L426.821 110.989L427.371 113.009V113.739C427.491 114.019 427.551 114.326 427.551 114.659C427.891 115.366 428.078 115.979 428.111 116.499L428.291 117.419L428.471 118.519L428.661 119.249C428.968 120.196 429.151 121.053 429.211 121.819C429.331 121.913 429.391 122.006 429.391 122.099V122.739C429.818 123.813 430.065 124.853 430.131 125.859C430.311 125.799 430.431 125.676 430.491 125.489C430.645 124.729 430.798 124.066 430.951 123.499C431.105 122.933 431.258 122.436 431.411 122.009V121.269C431.811 120.169 432.055 119.189 432.141 118.329L432.511 117.049L433.251 114.109L433.431 112.639L433.801 111.359L433.981 110.809V110.259C434.195 109.673 434.365 109.143 434.491 108.669C434.611 108.196 434.685 107.746 434.711 107.319L435.081 106.029L436.551 99.9693L437.101 97.0393L437.471 95.5693C437.805 94.6826 437.988 93.9493 438.021 93.3693L438.201 92.4493L438.571 90.9793C438.845 90.0926 439.028 89.3593 439.121 88.7793L439.301 88.0393L439.861 85.4693L440.221 84.3693V83.8193L440.771 82.3493V81.6193L440.961 81.0593L441.511 78.4893H453.991L453.261 82.1693L452.711 84.3693L452.521 84.9193L451.971 87.4893L451.611 88.9593L451.241 90.2393L450.501 93.9193L450.141 95.1993L449.401 98.6893L449.041 99.9693L448.851 100.529L448.481 102.539L448.301 102.909L448.121 104.199C447.815 105.206 447.631 106.063 447.571 106.769L446.831 108.969L446.651 110.259L446.461 110.989L446.281 111.539L446.101 112.829L445.911 113.379L444.811 117.969L444.631 119.249L444.261 120.539L443.341 124.209L443.161 125.489L442.061 130.079L441.511 132.649C441.171 133.569 440.988 134.366 440.961 135.039L440.221 137.429V138.159C439.888 139.079 439.705 139.876 439.671 140.549C439.365 141.556 439.181 142.413 439.121 143.119L438.751 144.399L438.571 144.769L438.391 146.059C438.085 147.066 437.901 147.923 437.841 148.629H424.251L424.071 147.159C423.858 146.639 423.735 146.209 423.701 145.869L423.331 144.399L423.151 143.119L422.781 141.829C422.688 141.463 422.611 141.113 422.551 140.779C422.491 140.439 422.445 140.116 422.411 139.809L422.231 139.079L422.051 138.159C421.925 138.006 421.861 137.823 421.861 137.609L421.681 136.689L421.501 136.139C421.408 135.746 421.331 135.386 421.271 135.059C421.205 134.739 421.158 134.426 421.131 134.119C420.918 133.539 420.758 133.006 420.651 132.519C420.545 132.026 420.458 131.583 420.391 131.189L420.211 130.449L420.031 129.529C419.905 129.163 419.818 128.813 419.771 128.479C419.731 128.139 419.695 127.816 419.661 127.509C419.448 126.903 419.281 126.323 419.161 125.769C419.035 125.216 418.958 124.696 418.931 124.209C418.805 124.056 418.741 123.873 418.741 123.659L418.561 122.919L418.381 122.369C418.288 121.729 418.165 121.119 418.011 120.539L417.641 118.879L417.461 117.779L417.091 116.869L416.721 114.659L416.541 114.109V113.559C416.235 112.826 416.051 112.153 415.991 111.539L415.621 109.339L415.251 108.419L414.891 106.949V106.219C414.525 105.206 414.341 104.349 414.341 103.649C414.215 103.496 414.151 103.313 414.151 103.099L413.971 102.539V101.989C413.665 101.289 413.481 100.556 413.421 99.7893C413.115 98.8093 412.931 97.8926 412.871 97.0393L412.501 97.7693L412.321 98.8693L411.771 101.259L411.401 103.279L411.211 103.829L410.481 106.949L410.301 107.689L409.931 109.519L409.751 110.259L409.381 112.279L409.201 112.829L408.461 116.309L408.091 117.599L407.911 118.879C407.578 119.799 407.395 120.596 407.361 121.269L407.181 121.639L406.991 122.739L406.811 123.289L405.891 127.879L405.711 128.429L404.971 131.919L404.791 132.649L404.611 133.569L404.421 134.119L403.691 137.609L403.321 139.079L402.951 140.919L402.771 141.279L402.401 142.939L402.221 143.669L402.041 144.949C401.821 145.716 401.698 146.329 401.671 146.789C401.545 147.096 401.461 147.386 401.421 147.659C401.375 147.939 401.335 148.199 401.301 148.439C400.875 148.506 400.485 148.559 400.131 148.599C399.778 148.646 399.435 148.669 399.101 148.669H398.641C398.488 148.669 398.335 148.656 398.181 148.629H387.531V147.889C387.105 146.789 386.861 145.749 386.801 144.769C386.675 144.616 386.611 144.433 386.611 144.219L386.431 143.299C385.758 141.126 385.328 139.289 385.141 137.789L384.961 137.239L384.041 133.759L383.861 132.289L382.391 126.599V125.859C382.085 125.159 381.901 124.426 381.841 123.659L381.471 122.559L381.111 121.269V120.719L380.191 117.049V116.499L380.001 115.759L379.641 115.029L379.451 113.559C379.211 112.826 379.015 112.153 378.861 111.539C378.708 110.926 378.601 110.376 378.541 109.889L378.351 109.339V108.789C378.231 108.636 378.171 108.453 378.171 108.239L377.801 106.769L377.621 106.219C377.495 105.573 377.378 104.989 377.271 104.469C377.165 103.949 377.035 103.493 376.881 103.099L376.701 101.809C376.488 101.196 376.318 100.629 376.191 100.109C376.071 99.5893 375.995 99.1159 375.961 98.6893L375.781 97.7693C375.661 97.6159 375.601 97.4326 375.601 97.2193L374.681 93.5493L374.311 92.2593L374.131 91.3493L373.951 90.6093L373.761 89.3293C373.515 88.6826 373.391 88.1293 373.391 87.6693V87.4893L373.031 86.5693L372.841 85.8393C372.721 84.9526 372.538 84.2159 372.291 83.6293V82.8993C372.171 82.7459 372.111 82.5626 372.111 82.3493" fill="white"/>
<path d="M497.565 102.91L498.125 104.01C499.559 105.79 500.475 107.627 500.875 109.52C500.995 110.313 501.085 111.057 501.145 111.75C501.212 112.437 501.245 113.04 501.245 113.56V137.79C502.372 140.03 504.022 141.377 506.195 141.83L505.835 142.38C505.709 142.6 505.585 142.723 505.465 142.75L505.285 143.3L504.915 143.67C504.609 144.343 504.242 144.893 503.815 145.32C503.382 146.453 502.829 147.31 502.155 147.89C501.882 148.503 501.622 149.033 501.375 149.48C501.135 149.92 500.909 150.31 500.695 150.65C497.115 149.73 494.299 148.077 492.245 145.69H491.695C487.749 148.537 483.679 149.96 479.485 149.96C477.219 149.96 474.985 149.577 472.785 148.81C466.205 146.457 462.229 142.173 460.855 135.96V135.73C460.855 123.89 467.785 117.97 481.645 117.97H481.785C482.059 117.843 482.362 117.78 482.695 117.78L483.245 117.6H484.535L485.085 117.42H485.635L490.225 116.87C490.285 116.53 490.315 116.223 490.315 115.95V115.03C490.315 109.917 487.609 107.36 482.195 107.36C478.429 107.36 473.272 108.63 466.725 111.17L465.995 109.52L465.625 108.42L465.255 108.05L465.075 107.69L464.705 106.58C464.372 106.033 464.129 105.483 463.975 104.93C463.329 104.077 462.899 103.22 462.685 102.36L463.235 102.18L463.605 101.99L464.155 101.81L464.525 101.44H465.075C465.195 101.32 465.302 101.26 465.395 101.26H465.445C466.545 100.68 467.522 100.25 468.375 99.9699L469.295 99.7899C469.969 99.4833 470.582 99.2999 471.135 99.2399L472.605 98.8699C473.672 98.4433 474.712 98.1999 475.725 98.1399L479.765 97.3999C480.372 97.3399 480.959 97.2866 481.525 97.2399C482.092 97.1933 482.652 97.1699 483.205 97.1699C489.045 97.1699 493.832 99.0833 497.565 102.91ZM485.815 126.23H484.715C484.442 126.29 484.175 126.337 483.915 126.37C483.655 126.397 483.402 126.41 483.155 126.41H482.885L482.145 126.6H481.595C481.442 126.72 481.259 126.78 481.045 126.78H480.495L477.555 127.51H477.005C476.152 128.003 475.419 128.31 474.805 128.43C472.819 130.33 471.825 132.167 471.825 133.94C471.825 135.56 472.635 137.15 474.255 138.71C476.609 140.15 478.902 140.87 481.135 140.87C483.982 140.87 486.705 139.723 489.305 137.43C489.552 136.723 489.799 136.233 490.045 135.96L490.225 135.41L490.045 134.67V126.04H486.375C486.222 126.167 486.035 126.23 485.815 126.23Z" fill="white"/>
<path d="M560.05 107.312V107.862C560.45 108.596 560.697 109.329 560.79 110.062V148.432H549.59V115.942L549.4 114.842C547.873 110.216 545.303 107.902 541.69 107.902C540.59 107.902 539.367 108.132 538.02 108.592C534.96 109.912 532.757 111.996 531.41 114.842L530.68 117.962V148.432H519.66V98.3122H530.68V102.532C534.107 99.4722 537.84 97.6389 541.88 97.0322H542.7C550.9 97.0322 556.683 100.459 560.05 107.312Z" fill="white"/>
<path d="M123.5 72.2751H73V170.275H123.5V72.2751Z" stroke="white" stroke-width="2" stroke-dasharray="5 5"/>
<path d="M171 72.2751H125.5V170.275H171V72.2751Z" stroke="white" stroke-width="2" stroke-dasharray="5 5"/>
<path d="M228.5 72.2751H173V170.275H228.5V72.2751Z" stroke="white" stroke-width="2" stroke-dasharray="5 5"/>
<path d="M283 72.2751H230.5V170.275H283V72.2751Z" stroke="white" stroke-width="2" stroke-dasharray="5 5"/>
<path d="M339 72.2751H285V170.275H339V72.2751Z" stroke="white" stroke-width="2" stroke-dasharray="5 5"/>
<path d="M364 72.2751H341V170.275H364V72.2751Z" stroke="white" stroke-width="2" stroke-dasharray="5 5"/>
<path d="M455.5 72.2751H366V170.275H455.5V72.2751Z" stroke="white" stroke-width="2" stroke-dasharray="5 5"/>
<path d="M511 72.2751H457.5V170.275H511V72.2751Z" stroke="white" stroke-width="2" stroke-dasharray="5 5"/>
<path d="M567 72.2751H513V170.275H567V72.2751Z" stroke="white" stroke-width="2" stroke-dasharray="5 5"/>
<path d="M680.5 330.931L718 368.431V484.056V706.225H680.5H643V484.056V368.431L680.5 330.931Z" fill="white"/>
<path d="M378 333.697V218.485" stroke="#46C147" stroke-width="3.03189"/>
<path d="M643 303.541V218.485" stroke="#46C147" stroke-width="3.03189"/>
<path d="M378 242.74H643" stroke="#46C147" stroke-width="3.03189"/>
<path d="M378 242.74L414.383 251.836V233.644L378 242.74Z" fill="#46C147"/>
<path d="M643 242.74L606.617 251.836V233.644L643 242.74Z" fill="#46C147"/>
<path d="M468.157 205.927V209H450.943C450.919 208.23 451.043 207.49 451.316 206.779C451.754 205.607 452.453 204.452 453.412 203.315C454.383 202.178 455.781 200.864 457.605 199.371C460.435 197.05 462.348 195.214 463.343 193.864C464.338 192.502 464.835 191.217 464.835 190.009C464.835 188.742 464.379 187.676 463.467 186.812C462.567 185.935 461.389 185.497 459.932 185.497C458.392 185.497 457.161 185.959 456.237 186.883C455.313 187.806 454.845 189.085 454.833 190.72L451.547 190.382C451.772 187.931 452.619 186.065 454.087 184.786C455.556 183.495 457.528 182.85 460.003 182.85C462.502 182.85 464.48 183.543 465.936 184.928C467.393 186.314 468.122 188.031 468.122 190.08C468.122 191.122 467.908 192.147 467.482 193.154C467.056 194.16 466.345 195.22 465.35 196.334C464.367 197.447 462.727 198.975 460.429 200.917C458.511 202.528 457.279 203.623 456.734 204.203C456.189 204.772 455.739 205.346 455.384 205.927H468.157ZM483.648 209H480.45V188.624C479.681 189.358 478.668 190.092 477.413 190.826C476.169 191.561 475.05 192.111 474.055 192.479V189.387C475.843 188.547 477.407 187.528 478.745 186.332C480.083 185.136 481.031 183.975 481.587 182.85H483.648V209ZM493.65 209V205.358H497.292V209H493.65ZM518.787 205.927V209H501.573C501.549 208.23 501.674 207.49 501.946 206.779C502.384 205.607 503.083 204.452 504.042 203.315C505.014 202.178 506.411 200.864 508.235 199.371C511.066 197.05 512.978 195.214 513.973 193.864C514.968 192.502 515.465 191.217 515.465 190.009C515.465 188.742 515.009 187.676 514.097 186.812C513.197 185.935 512.019 185.497 510.562 185.497C509.023 185.497 507.791 185.959 506.867 186.883C505.943 187.806 505.475 189.085 505.464 190.72L502.177 190.382C502.402 187.931 503.249 186.065 504.717 184.786C506.186 183.495 508.158 182.85 510.633 182.85C513.132 182.85 515.11 183.543 516.567 184.928C518.023 186.314 518.752 188.031 518.752 190.08C518.752 191.122 518.539 192.147 518.112 193.154C517.686 194.16 516.975 195.22 515.98 196.334C514.997 197.447 513.357 198.975 511.06 200.917C509.141 202.528 507.909 203.623 507.364 204.203C506.82 204.772 506.37 205.346 506.014 205.927H518.787ZM522.234 202.178L525.591 201.894C525.84 203.528 526.414 204.76 527.315 205.589C528.227 206.406 529.322 206.815 530.601 206.815C532.141 206.815 533.444 206.235 534.509 205.074C535.575 203.913 536.108 202.374 536.108 200.455C536.108 198.631 535.593 197.192 534.563 196.138C533.544 195.084 532.206 194.557 530.548 194.557C529.517 194.557 528.588 194.794 527.759 195.268C526.93 195.73 526.278 196.334 525.805 197.08L522.802 196.689L525.325 183.312H538.276V186.367H527.883L526.48 193.367C528.043 192.277 529.683 191.732 531.401 191.732C533.674 191.732 535.593 192.52 537.156 194.095C538.72 195.67 539.501 197.696 539.501 200.171C539.501 202.528 538.814 204.565 537.441 206.282C535.771 208.39 533.491 209.444 530.601 209.444C528.232 209.444 526.296 208.781 524.792 207.454C523.3 206.128 522.447 204.369 522.234 202.178ZM542.095 203.368L545.257 202.871C545.435 204.138 545.926 205.109 546.732 205.785C547.549 206.46 548.686 206.797 550.143 206.797C551.611 206.797 552.701 206.501 553.411 205.909C554.122 205.305 554.477 204.6 554.477 203.795C554.477 203.072 554.163 202.504 553.536 202.089C553.098 201.805 552.008 201.444 550.267 201.006C547.922 200.414 546.294 199.904 545.382 199.478C544.481 199.04 543.795 198.442 543.321 197.684C542.859 196.914 542.628 196.067 542.628 195.143C542.628 194.302 542.817 193.527 543.196 192.816C543.587 192.094 544.114 191.496 544.778 191.022C545.275 190.655 545.95 190.347 546.803 190.098C547.667 189.837 548.591 189.707 549.574 189.707C551.055 189.707 552.351 189.92 553.465 190.347C554.59 190.773 555.419 191.353 555.952 192.088C556.485 192.81 556.852 193.781 557.053 195.001L553.927 195.428C553.784 194.456 553.37 193.698 552.683 193.154C552.008 192.609 551.049 192.336 549.805 192.336C548.336 192.336 547.288 192.579 546.661 193.065C546.033 193.55 545.719 194.119 545.719 194.77C545.719 195.185 545.849 195.558 546.11 195.889C546.371 196.233 546.779 196.517 547.336 196.742C547.656 196.861 548.597 197.133 550.16 197.559C552.422 198.163 553.998 198.661 554.886 199.052C555.786 199.431 556.491 199.987 557 200.722C557.509 201.456 557.764 202.368 557.764 203.457C557.764 204.523 557.45 205.53 556.822 206.477C556.206 207.413 555.312 208.141 554.14 208.662C552.967 209.172 551.641 209.426 550.16 209.426C547.709 209.426 545.838 208.917 544.547 207.899C543.268 206.88 542.45 205.37 542.095 203.368ZM565.047 209L559.274 190.134H562.578L565.58 201.024L566.7 205.074C566.747 204.873 567.073 203.576 567.677 201.183L570.679 190.134H573.965L576.79 201.077L577.732 204.683L578.815 201.041L582.049 190.134H585.157L579.259 209H575.937L572.935 197.701L572.207 194.486L568.387 209H565.047Z" fill="#46C147"/>
<path d="M643 338.27V223.058" stroke="#46C147" stroke-width="3.03189"/>
<path d="M717.151 338.27V223.058" stroke="#46C147" stroke-width="3.03189"/>
<path d="M644 247.312H715" stroke="#46C147" stroke-width="3.03189"/>
<path d="M642 247.313L666.255 241.249V253.376L642 247.313Z" fill="#46C147"/>
<path d="M717.151 247.313L692.895 241.249V253.376L717.151 247.313Z" fill="#46C147"/>
<path d="M665.103 187.334L661.923 187.583C661.638 186.327 661.236 185.416 660.715 184.847C659.85 183.935 658.784 183.479 657.517 183.479C656.498 183.479 655.604 183.763 654.834 184.332C653.828 185.066 653.034 186.138 652.454 187.547C651.874 188.957 651.572 190.964 651.548 193.57C652.318 192.397 653.259 191.527 654.372 190.958C655.486 190.39 656.652 190.105 657.872 190.105C660.004 190.105 661.816 190.893 663.308 192.468C664.812 194.032 665.564 196.057 665.564 198.544C665.564 200.178 665.209 201.7 664.499 203.109C663.8 204.507 662.835 205.579 661.603 206.325C660.371 207.071 658.974 207.444 657.41 207.444C654.746 207.444 652.572 206.467 650.891 204.513C649.209 202.547 648.368 199.314 648.368 194.813C648.368 189.78 649.298 186.12 651.157 183.834C652.78 181.845 654.965 180.85 657.712 180.85C659.761 180.85 661.437 181.424 662.74 182.573C664.054 183.722 664.842 185.309 665.103 187.334ZM652.045 198.562C652.045 199.663 652.276 200.717 652.738 201.724C653.212 202.73 653.869 203.5 654.71 204.033C655.551 204.554 656.433 204.815 657.357 204.815C658.707 204.815 659.868 204.27 660.839 203.181C661.81 202.091 662.296 200.611 662.296 198.739C662.296 196.939 661.816 195.524 660.857 194.493C659.897 193.451 658.689 192.93 657.233 192.93C655.788 192.93 654.562 193.451 653.555 194.493C652.549 195.524 652.045 196.88 652.045 198.562ZM668.371 201.368L671.533 200.871C671.711 202.138 672.203 203.109 673.008 203.785C673.825 204.46 674.962 204.797 676.419 204.797C677.887 204.797 678.977 204.501 679.688 203.909C680.398 203.305 680.754 202.6 680.754 201.795C680.754 201.072 680.44 200.504 679.812 200.089C679.374 199.805 678.284 199.444 676.543 199.006C674.198 198.414 672.57 197.904 671.658 197.478C670.758 197.04 670.071 196.442 669.597 195.684C669.135 194.914 668.904 194.067 668.904 193.143C668.904 192.302 669.094 191.527 669.473 190.816C669.864 190.094 670.391 189.496 671.054 189.022C671.551 188.655 672.226 188.347 673.079 188.098C673.944 187.837 674.867 187.707 675.85 187.707C677.331 187.707 678.628 187.92 679.741 188.347C680.866 188.773 681.695 189.353 682.228 190.088C682.761 190.81 683.128 191.781 683.329 193.001L680.203 193.428C680.061 192.456 679.646 191.698 678.959 191.154C678.284 190.609 677.325 190.336 676.081 190.336C674.613 190.336 673.565 190.579 672.937 191.065C672.309 191.55 671.995 192.119 671.995 192.77C671.995 193.185 672.126 193.558 672.386 193.889C672.647 194.233 673.055 194.517 673.612 194.742C673.932 194.861 674.873 195.133 676.437 195.559C678.699 196.163 680.274 196.661 681.162 197.052C682.062 197.431 682.767 197.987 683.276 198.722C683.785 199.456 684.04 200.368 684.04 201.457C684.04 202.523 683.726 203.53 683.098 204.477C682.483 205.413 681.588 206.141 680.416 206.662C679.243 207.172 677.917 207.426 676.437 207.426C673.985 207.426 672.114 206.917 670.823 205.899C669.544 204.88 668.727 203.37 668.371 201.368ZM691.324 207L685.55 188.134H688.854L691.857 199.024L692.976 203.074C693.023 202.873 693.349 201.576 693.953 199.183L696.955 188.134H700.242L703.066 199.077L704.008 202.683L705.092 199.041L708.325 188.134H711.434L705.536 207H702.214L699.211 195.701L698.483 192.486L694.664 207H691.324Z" fill="#46C147"/>
<path d="M564.628 498.231L464.851 440.625" stroke="#46C147" stroke-width="3.03189"/>
<path d="M589.203 455.666L489.427 398.06" stroke="#46C147" stroke-width="3.03189"/>
<path d="M486.357 451.887L509.357 412.05" stroke="#46C147" stroke-width="3.03189"/>
<path d="M508.357 413.782L515.233 389.744L525.736 395.808L508.357 413.782Z" fill="#46C147"/>
<path d="M487.484 449.934L470.105 467.907L480.608 473.971L487.484 449.934Z" fill="#46C147"/>
<path d="M540.325 385.107L534.925 381.989L529.276 391.774L526.737 390.308L518.064 371.577L519.37 369.316L533.985 377.754L535.744 374.708L538.283 376.173L536.524 379.22L541.924 382.337L540.325 385.107ZM532.386 380.523L522.217 374.652L528.309 387.585L532.386 380.523ZM540.253 373.968L541.404 370.98C542.59 371.46 543.677 371.52 544.664 371.16C545.657 370.79 546.518 369.974 547.247 368.713C547.981 367.441 548.269 366.349 548.112 365.438C547.944 364.52 547.511 363.86 546.814 363.458C546.188 363.096 545.539 363.084 544.866 363.42C544.401 363.658 543.543 364.421 542.293 365.709C540.608 367.444 539.353 368.6 538.527 369.176C537.698 369.737 536.836 370.032 535.943 370.064C535.046 370.079 534.197 369.855 533.397 369.394C532.669 368.973 532.091 368.421 531.666 367.738C531.235 367.038 530.981 366.282 530.902 365.471C530.833 364.857 530.904 364.118 531.115 363.255C531.321 362.376 531.67 361.511 532.162 360.66C532.902 359.378 533.735 358.361 534.661 357.61C535.593 356.849 536.51 356.421 537.412 356.327C538.305 356.227 539.329 356.394 540.486 356.83L539.292 359.751C538.38 359.388 537.516 359.368 536.701 359.691C535.892 360.003 535.176 360.698 534.554 361.775C533.82 363.046 533.506 364.075 533.613 364.862C533.72 365.648 534.055 366.204 534.619 366.53C534.978 366.737 535.366 366.811 535.784 366.751C536.212 366.697 536.662 366.485 537.135 366.116C537.398 365.898 538.104 365.219 539.255 364.078C540.909 362.421 542.128 361.306 542.91 360.732C543.689 360.142 544.523 359.81 545.414 359.736C546.304 359.662 547.221 359.898 548.165 360.443C549.088 360.975 549.803 361.751 550.309 362.768C550.812 363.769 550.995 364.908 550.861 366.184C550.715 367.454 550.273 368.73 549.532 370.012C548.307 372.135 546.93 373.501 545.402 374.11C543.881 374.708 542.165 374.661 540.253 373.968ZM556.607 356.906L537.381 352.473L539.033 349.611L549.965 352.456L554.033 353.512C553.882 353.371 552.922 352.44 551.152 350.721L543.084 342.596L544.727 339.75L555.616 342.775L559.21 343.763L556.598 341.003L548.768 332.749L550.323 330.057L563.713 344.598L562.052 347.475L550.766 344.426L547.617 343.449L558.277 354.014L556.607 356.906Z" fill="#46C147"/>
<path d="M822.746 453H819.548V432.624C818.778 433.358 817.766 434.092 816.51 434.826C815.267 435.561 814.148 436.111 813.153 436.479V433.387C814.941 432.547 816.504 431.528 817.843 430.332C819.181 429.136 820.128 427.975 820.685 426.85H822.746V453ZM847.759 449.927V453H830.545C830.521 452.23 830.645 451.49 830.918 450.779C831.356 449.607 832.055 448.452 833.014 447.315C833.985 446.178 835.383 444.864 837.207 443.371C840.037 441.05 841.95 439.214 842.945 437.864C843.939 436.502 844.437 435.217 844.437 434.009C844.437 432.742 843.981 431.676 843.069 430.812C842.169 429.935 840.99 429.497 839.534 429.497C837.994 429.497 836.762 429.959 835.839 430.883C834.915 431.806 834.447 433.085 834.435 434.72L831.149 434.382C831.374 431.931 832.22 430.065 833.689 428.786C835.158 427.495 837.13 426.85 839.605 426.85C842.104 426.85 844.082 427.543 845.538 428.928C846.995 430.314 847.723 432.031 847.723 434.08C847.723 435.122 847.51 436.147 847.084 437.154C846.657 438.16 845.947 439.22 844.952 440.334C843.969 441.447 842.329 442.975 840.031 444.917C838.113 446.528 836.881 447.623 836.336 448.203C835.791 448.772 835.341 449.346 834.986 449.927H847.759ZM853 453V449.358H856.641V453H853ZM878.137 449.927V453H860.923C860.899 452.23 861.023 451.49 861.296 450.779C861.734 449.607 862.433 448.452 863.392 447.315C864.363 446.178 865.761 444.864 867.585 443.371C870.415 441.05 872.328 439.214 873.323 437.864C874.318 436.502 874.815 435.217 874.815 434.009C874.815 432.742 874.359 431.676 873.447 430.812C872.547 429.935 871.369 429.497 869.912 429.497C868.372 429.497 867.141 429.959 866.217 430.883C865.293 431.806 864.825 433.085 864.813 434.72L861.527 434.382C861.752 431.931 862.599 430.065 864.067 428.786C865.536 427.495 867.508 426.85 869.983 426.85C872.482 426.85 874.46 427.543 875.916 428.928C877.373 430.314 878.102 432.031 878.102 434.08C878.102 435.122 877.888 436.147 877.462 437.154C877.036 438.16 876.325 439.22 875.33 440.334C874.347 441.447 872.707 442.975 870.409 444.917C868.491 446.528 867.259 447.623 866.714 448.203C866.169 448.772 865.719 449.346 865.364 449.927H878.137ZM881.583 446.178L884.941 445.894C885.19 447.528 885.764 448.76 886.664 449.589C887.576 450.406 888.672 450.815 889.951 450.815C891.49 450.815 892.793 450.235 893.859 449.074C894.925 447.913 895.458 446.374 895.458 444.455C895.458 442.631 894.943 441.192 893.912 440.138C892.894 439.084 891.556 438.557 889.898 438.557C888.867 438.557 887.937 438.794 887.108 439.268C886.279 439.73 885.628 440.334 885.154 441.08L882.152 440.689L884.675 427.312H897.625V430.367H887.233L885.829 437.367C887.393 436.277 889.033 435.732 890.75 435.732C893.024 435.732 894.943 436.52 896.506 438.095C898.069 439.67 898.851 441.696 898.851 444.171C898.851 446.528 898.164 448.565 896.79 450.282C895.12 452.39 892.841 453.444 889.951 453.444C887.582 453.444 885.646 452.781 884.142 451.454C882.649 450.128 881.797 448.369 881.583 446.178ZM901.445 447.368L904.607 446.871C904.785 448.138 905.276 449.109 906.081 449.785C906.899 450.46 908.036 450.797 909.492 450.797C910.961 450.797 912.05 450.501 912.761 449.909C913.472 449.305 913.827 448.6 913.827 447.795C913.827 447.072 913.513 446.504 912.885 446.089C912.447 445.805 911.358 445.444 909.617 445.006C907.272 444.414 905.643 443.904 904.731 443.478C903.831 443.04 903.144 442.442 902.671 441.684C902.209 440.914 901.978 440.067 901.978 439.143C901.978 438.302 902.167 437.527 902.546 436.816C902.937 436.094 903.464 435.496 904.127 435.022C904.625 434.655 905.3 434.347 906.152 434.098C907.017 433.837 907.941 433.707 908.924 433.707C910.404 433.707 911.701 433.92 912.814 434.347C913.939 434.773 914.769 435.353 915.301 436.088C915.834 436.81 916.202 437.781 916.403 439.001L913.276 439.428C913.134 438.456 912.72 437.698 912.033 437.154C911.358 436.609 910.398 436.336 909.155 436.336C907.686 436.336 906.638 436.579 906.01 437.065C905.383 437.55 905.069 438.119 905.069 438.77C905.069 439.185 905.199 439.558 905.46 439.889C905.72 440.233 906.129 440.517 906.685 440.742C907.005 440.861 907.947 441.133 909.51 441.559C911.772 442.163 913.347 442.661 914.236 443.052C915.136 443.431 915.84 443.987 916.35 444.722C916.859 445.456 917.114 446.368 917.114 447.457C917.114 448.523 916.8 449.53 916.172 450.477C915.556 451.413 914.662 452.141 913.489 452.662C912.317 453.172 910.991 453.426 909.51 453.426C907.059 453.426 905.187 452.917 903.896 451.899C902.617 450.88 901.8 449.37 901.445 447.368ZM924.397 453L918.624 434.134H921.928L924.93 445.024L926.049 449.074C926.097 448.873 926.422 447.576 927.026 445.183L930.029 434.134H933.315L936.14 445.077L937.081 448.683L938.165 445.041L941.398 434.134H944.507L938.609 453H935.287L932.285 441.701L931.556 438.486L927.737 453H924.397Z" fill="#FF0000"/>
<path d="M695 332H810.212" stroke="#FF0000" stroke-width="3.03189"/>
<path d="M695 490H810.212" stroke="#FF0000" stroke-width="3.03189"/>
<path d="M785.957 332V475" stroke="#FF0000" stroke-width="3.03189"/>
<path d="M785.957 332L792.021 356.255H779.893L785.957 332Z" fill="#FF0000"/>
<path d="M785.957 490.255L792.021 466H779.893L785.957 490.255Z" fill="#FF0000"/>
<path d="M842 374C842 371.239 844.239 369 847 369H908C910.761 369 913 371.239 913 374V408C913 410.761 910.761 413 908 413H847C844.239 413 842 410.761 842 408V374Z" fill="#0033A2"/>
<path d="M850.035 402V375.956H868.866V379.03H853.482V387.006H867.889V390.062H853.482V398.927H869.47V402H850.035ZM871.691 402L878.584 392.194L872.206 383.134H876.203L879.099 387.557C879.644 388.398 880.082 389.103 880.413 389.671C880.935 388.889 881.414 388.197 881.852 387.593L885.032 383.134H888.852L882.332 392.016L889.349 402H885.423L881.55 396.138L880.52 394.556L875.564 402H871.691ZM892.032 379.634V375.956H895.229V379.634H892.032ZM892.032 402V383.134H895.229V402H892.032ZM907.097 399.14L907.558 401.964C906.658 402.154 905.853 402.249 905.142 402.249C903.982 402.249 903.082 402.065 902.442 401.698C901.803 401.331 901.352 400.851 901.092 400.259C900.831 399.655 900.701 398.394 900.701 396.475V385.621H898.356V383.134H900.701V378.461L903.881 376.543V383.134H907.097V385.621H903.881V396.653C903.881 397.565 903.934 398.151 904.041 398.411C904.159 398.672 904.343 398.879 904.592 399.033C904.852 399.187 905.219 399.264 905.693 399.264C906.048 399.264 906.516 399.223 907.097 399.14Z" fill="white"/>
<path d="M812 599.5C812 596.739 814.239 594.5 817 594.5H973C975.761 594.5 978 596.739 978 599.5V633.5C978 636.261 975.761 638.5 973 638.5H817C814.239 638.5 812 636.261 812 633.5V599.5Z" fill="#0033A2"/>
<path d="M815.029 627.5L825.031 601.456H828.744L839.403 627.5H835.477L832.439 619.612H821.549L818.689 627.5H815.029ZM822.544 616.805H831.373L828.655 609.593C827.826 607.402 827.21 605.602 826.808 604.192C826.476 605.862 826.008 607.52 825.404 609.167L822.544 616.805ZM841.748 634.73V608.634H844.661V611.085C845.348 610.126 846.124 609.409 846.989 608.936C847.853 608.45 848.901 608.207 850.133 608.207C851.744 608.207 853.165 608.622 854.397 609.451C855.628 610.28 856.558 611.452 857.186 612.968C857.813 614.472 858.127 616.124 858.127 617.925C858.127 619.855 857.778 621.596 857.079 623.148C856.392 624.687 855.386 625.872 854.059 626.701C852.744 627.518 851.359 627.926 849.902 627.926C848.836 627.926 847.877 627.701 847.024 627.251C846.183 626.801 845.49 626.233 844.946 625.546V634.73H841.748ZM844.644 618.173C844.644 620.601 845.135 622.396 846.118 623.556C847.101 624.717 848.291 625.297 849.689 625.297C851.11 625.297 852.324 624.699 853.331 623.503C854.349 622.295 854.859 620.43 854.859 617.907C854.859 615.503 854.361 613.703 853.366 612.506C852.383 611.31 851.205 610.712 849.831 610.712C848.469 610.712 847.261 611.352 846.207 612.631C845.165 613.898 844.644 615.745 844.644 618.173ZM862 634.73V608.634H864.914V611.085C865.6 610.126 866.376 609.409 867.241 608.936C868.105 608.45 869.153 608.207 870.385 608.207C871.996 608.207 873.417 608.622 874.649 609.451C875.88 610.28 876.81 611.452 877.438 612.968C878.066 614.472 878.379 616.124 878.379 617.925C878.379 619.855 878.03 621.596 877.331 623.148C876.644 624.687 875.638 625.872 874.311 626.701C872.997 627.518 871.611 627.926 870.154 627.926C869.088 627.926 868.129 627.701 867.276 627.251C866.435 626.801 865.743 626.233 865.198 625.546V634.73H862ZM864.896 618.173C864.896 620.601 865.387 622.396 866.37 623.556C867.353 624.717 868.544 625.297 869.941 625.297C871.362 625.297 872.576 624.699 873.583 623.503C874.601 622.295 875.111 620.43 875.111 617.907C875.111 615.503 874.613 613.703 873.618 612.506C872.635 611.31 871.457 610.712 870.083 610.712C868.721 610.712 867.513 611.352 866.459 612.631C865.417 613.898 864.896 615.745 864.896 618.173ZM882.217 627.5V608.634H885.095V611.494C885.829 610.155 886.504 609.273 887.12 608.847C887.747 608.42 888.434 608.207 889.181 608.207C890.258 608.207 891.354 608.551 892.467 609.238L891.366 612.204C890.584 611.742 889.802 611.511 889.021 611.511C888.322 611.511 887.694 611.725 887.138 612.151C886.581 612.566 886.184 613.146 885.947 613.892C885.592 615.029 885.414 616.273 885.414 617.623V627.5H882.217ZM893.178 618.067C893.178 614.573 894.149 611.985 896.091 610.303C897.714 608.906 899.691 608.207 902.025 608.207C904.618 608.207 906.738 609.06 908.384 610.765C910.031 612.459 910.854 614.804 910.854 617.8C910.854 620.228 910.487 622.141 909.752 623.538C909.03 624.924 907.97 626.002 906.572 626.772C905.187 627.541 903.671 627.926 902.025 627.926C899.384 627.926 897.246 627.08 895.611 625.386C893.989 623.692 893.178 621.253 893.178 618.067ZM896.464 618.067C896.464 620.483 896.991 622.295 898.045 623.503C899.099 624.699 900.426 625.297 902.025 625.297C903.612 625.297 904.932 624.693 905.986 623.485C907.04 622.277 907.567 620.435 907.567 617.96C907.567 615.627 907.034 613.862 905.968 612.666C904.914 611.458 903.6 610.854 902.025 610.854C900.426 610.854 899.099 611.452 898.045 612.648C896.991 613.845 896.464 615.651 896.464 618.067ZM926.931 625.173C925.747 626.179 924.604 626.89 923.503 627.305C922.413 627.719 921.24 627.926 919.985 627.926C917.912 627.926 916.32 627.423 915.206 626.416C914.093 625.398 913.536 624.101 913.536 622.526C913.536 621.602 913.744 620.761 914.158 620.003C914.584 619.233 915.135 618.617 915.81 618.156C916.497 617.694 917.267 617.344 918.12 617.107C918.747 616.942 919.695 616.782 920.962 616.628C923.544 616.32 925.445 615.953 926.665 615.526C926.677 615.088 926.682 614.81 926.682 614.691C926.682 613.389 926.38 612.471 925.776 611.938C924.959 611.215 923.745 610.854 922.135 610.854C920.631 610.854 919.517 611.121 918.795 611.654C918.084 612.175 917.557 613.104 917.214 614.443L914.087 614.016C914.371 612.678 914.839 611.6 915.49 610.783C916.142 609.954 917.083 609.32 918.315 608.882C919.547 608.432 920.974 608.207 922.596 608.207C924.207 608.207 925.516 608.397 926.523 608.776C927.529 609.155 928.269 609.634 928.743 610.215C929.217 610.783 929.549 611.506 929.738 612.382C929.845 612.927 929.898 613.91 929.898 615.331V619.595C929.898 622.567 929.963 624.45 930.093 625.244C930.235 626.026 930.508 626.778 930.911 627.5H927.571C927.239 626.837 927.026 626.061 926.931 625.173ZM926.665 618.031C925.504 618.505 923.763 618.908 921.442 619.239C920.127 619.429 919.197 619.642 918.653 619.879C918.108 620.116 917.687 620.465 917.391 620.927C917.095 621.377 916.947 621.88 916.947 622.437C916.947 623.29 917.267 624 917.907 624.569C918.558 625.137 919.505 625.421 920.749 625.421C921.981 625.421 923.076 625.155 924.035 624.622C924.995 624.077 925.699 623.337 926.149 622.401C926.493 621.679 926.665 620.613 926.665 619.204V618.031ZM947.183 620.589L950.328 620.998C949.984 623.165 949.102 624.865 947.681 626.097C946.271 627.316 944.536 627.926 942.476 627.926C939.894 627.926 937.815 627.085 936.24 625.404C934.677 623.71 933.895 621.288 933.895 618.138C933.895 616.101 934.233 614.318 934.908 612.791C935.583 611.263 936.607 610.12 937.981 609.362C939.367 608.592 940.871 608.207 942.493 608.207C944.542 608.207 946.218 608.728 947.521 609.771C948.824 610.801 949.659 612.269 950.026 614.176L946.917 614.656C946.621 613.389 946.094 612.435 945.336 611.796C944.59 611.156 943.684 610.836 942.618 610.836C941.007 610.836 939.698 611.417 938.692 612.577C937.685 613.726 937.182 615.55 937.182 618.049C937.182 620.583 937.667 622.425 938.638 623.574C939.609 624.723 940.877 625.297 942.44 625.297C943.695 625.297 944.744 624.912 945.584 624.142C946.425 623.373 946.958 622.188 947.183 620.589ZM953.063 627.5V601.456H956.261V610.801C957.753 609.072 959.637 608.207 961.91 608.207C963.308 608.207 964.522 608.486 965.552 609.042C966.583 609.587 967.317 610.345 967.755 611.316C968.205 612.287 968.43 613.697 968.43 615.544V627.5H965.233V615.544C965.233 613.945 964.883 612.785 964.184 612.062C963.497 611.328 962.52 610.961 961.253 610.961C960.306 610.961 959.412 611.209 958.571 611.707C957.742 612.192 957.149 612.856 956.794 613.697C956.439 614.537 956.261 615.698 956.261 617.179V627.5H953.063Z" fill="white"/>
<path d="M674 331.919H349" stroke="#FF0000" stroke-width="2.74323"/>
<path d="M362 336.138V331.919" stroke="#FF0000" stroke-width="2.74323"/>
<path d="M362.23 336.138L354 369.057H370.459L362.23 336.138Z" fill="#FF0000"/>
<path d="M362.23 331.919L354 299H370.459L362.23 331.919Z" fill="#FF0000"/>
<path d="M277.366 329.061C277.366 326.275 277.65 324.036 278.218 322.343C278.797 320.639 279.649 319.326 280.774 318.405C281.91 317.483 283.335 317.022 285.049 317.022C286.314 317.022 287.423 317.279 288.377 317.794C289.33 318.297 290.118 319.031 290.74 319.996C291.361 320.95 291.849 322.118 292.202 323.5C292.556 324.872 292.733 326.725 292.733 329.061C292.733 331.826 292.449 334.06 291.881 335.764C291.313 337.457 290.461 338.77 289.325 339.702C288.2 340.624 286.775 341.084 285.049 341.084C282.778 341.084 280.994 340.27 279.697 338.641C278.143 336.68 277.366 333.487 277.366 329.061ZM280.34 329.061C280.34 332.93 280.79 335.507 281.69 336.793C282.601 338.068 283.721 338.706 285.049 338.706C286.378 338.706 287.493 338.063 288.393 336.777C289.304 335.491 289.759 332.919 289.759 329.061C289.759 325.182 289.304 322.605 288.393 321.33C287.493 320.055 286.367 319.417 285.017 319.417C283.689 319.417 282.628 319.98 281.835 321.105C280.838 322.541 280.34 325.193 280.34 329.061ZM295.337 335.587L298.198 335.137C298.358 336.284 298.803 337.162 299.532 337.773C300.271 338.384 301.3 338.689 302.618 338.689C303.947 338.689 304.933 338.422 305.575 337.886C306.218 337.339 306.54 336.702 306.54 335.973C306.54 335.319 306.256 334.805 305.688 334.43C305.292 334.173 304.306 333.846 302.73 333.449C300.609 332.914 299.135 332.453 298.31 332.067C297.496 331.671 296.874 331.13 296.446 330.444C296.028 329.747 295.819 328.981 295.819 328.145C295.819 327.384 295.99 326.682 296.333 326.04C296.687 325.386 297.164 324.845 297.764 324.416C298.214 324.084 298.825 323.805 299.596 323.58C300.378 323.345 301.214 323.227 302.104 323.227C303.443 323.227 304.616 323.42 305.624 323.805C306.642 324.191 307.392 324.716 307.874 325.381C308.356 326.034 308.688 326.913 308.871 328.017L306.042 328.402C305.913 327.524 305.538 326.838 304.916 326.345C304.306 325.852 303.438 325.606 302.313 325.606C300.984 325.606 300.035 325.825 299.468 326.265C298.9 326.704 298.616 327.218 298.616 327.808C298.616 328.183 298.733 328.52 298.969 328.82C299.205 329.131 299.575 329.388 300.078 329.592C300.368 329.699 301.22 329.945 302.634 330.331C304.681 330.878 306.106 331.328 306.91 331.681C307.724 332.024 308.362 332.528 308.822 333.192C309.283 333.857 309.514 334.682 309.514 335.668C309.514 336.632 309.23 337.543 308.662 338.4C308.104 339.247 307.295 339.906 306.235 340.377C305.174 340.838 303.973 341.068 302.634 341.068C300.416 341.068 298.723 340.608 297.555 339.686C296.397 338.764 295.658 337.398 295.337 335.587ZM316.104 340.683L310.88 323.612H313.869L316.586 333.466L317.599 337.13C317.641 336.948 317.936 335.775 318.483 333.61L321.199 323.612H324.173L326.728 333.514L327.58 336.777L328.561 333.482L331.486 323.612H334.299L328.963 340.683H325.957L323.24 330.46L322.581 327.55L319.126 340.683H316.104Z" fill="#FF0000"/>
<path d="M695 548H810.212" stroke="#FF0000" stroke-width="3.03189"/>
<path d="M695 706H810.212" stroke="#FF0000" stroke-width="3.03189"/>
<path d="M785.957 548V691" stroke="#FF0000" stroke-width="3.03189"/>
<path d="M785.957 548L792.021 572.255H779.893L785.957 548Z" fill="#FF0000"/>
<path d="M785.957 706.255L792.021 682H779.893L785.957 706.255Z" fill="#FF0000"/>
<path d="M818.448 675V656.134H821.308V658.781C821.901 657.857 822.688 657.117 823.671 656.56C824.654 655.991 825.773 655.707 827.029 655.707C828.426 655.707 829.569 655.997 830.457 656.578C831.358 657.158 831.991 657.969 832.358 659.011C833.851 656.809 835.793 655.707 838.185 655.707C840.056 655.707 841.495 656.228 842.502 657.271C843.509 658.301 844.012 659.894 844.012 662.049V675H840.832V663.115C840.832 661.836 840.726 660.918 840.512 660.362C840.311 659.793 839.938 659.337 839.393 658.994C838.848 658.65 838.209 658.479 837.475 658.479C836.148 658.479 835.047 658.923 834.17 659.811C833.294 660.687 832.856 662.097 832.856 664.039V675H829.658V662.742C829.658 661.321 829.397 660.255 828.876 659.544C828.355 658.834 827.503 658.479 826.318 658.479C825.418 658.479 824.583 658.715 823.813 659.189C823.055 659.663 822.505 660.356 822.161 661.268C821.818 662.18 821.646 663.494 821.646 665.211V675H818.448ZM848.773 652.634V648.956H851.971V652.634H848.773ZM848.773 675V656.134H851.971V675H848.773ZM856.856 675V656.134H859.734V658.816C861.12 656.743 863.121 655.707 865.739 655.707C866.876 655.707 867.918 655.914 868.865 656.329C869.825 656.732 870.541 657.265 871.015 657.928C871.489 658.591 871.82 659.379 872.01 660.291C872.128 660.883 872.187 661.919 872.187 663.399V675H868.99V663.524C868.99 662.221 868.865 661.25 868.617 660.61C868.368 659.959 867.924 659.444 867.284 659.065C866.657 658.674 865.916 658.479 865.064 658.479C863.702 658.479 862.523 658.911 861.528 659.775C860.545 660.64 860.054 662.28 860.054 664.696V675H856.856ZM878.014 675V671.358H881.656V675H878.014ZM908.517 675H905.319V654.624C904.549 655.358 903.537 656.092 902.281 656.826C901.038 657.561 899.919 658.111 898.924 658.479V655.387C900.712 654.547 902.275 653.528 903.614 652.332C904.952 651.136 905.9 649.975 906.456 648.85H908.517V675ZM933.53 671.927V675H916.316C916.292 674.23 916.416 673.49 916.689 672.779C917.127 671.607 917.826 670.452 918.785 669.315C919.756 668.178 921.154 666.864 922.978 665.371C925.808 663.05 927.721 661.214 928.716 659.864C929.711 658.502 930.208 657.217 930.208 656.009C930.208 654.742 929.752 653.676 928.84 652.812C927.94 651.935 926.762 651.497 925.305 651.497C923.765 651.497 922.533 651.959 921.61 652.883C920.686 653.806 920.218 655.085 920.206 656.72L916.92 656.382C917.145 653.931 917.992 652.065 919.46 650.786C920.929 649.495 922.901 648.85 925.376 648.85C927.875 648.85 929.853 649.543 931.309 650.928C932.766 652.314 933.494 654.031 933.494 656.08C933.494 657.122 933.281 658.147 932.855 659.154C932.429 660.16 931.718 661.22 930.723 662.334C929.74 663.447 928.1 664.975 925.802 666.917C923.884 668.528 922.652 669.623 922.107 670.203C921.562 670.772 921.112 671.346 920.757 671.927H933.53ZM936.586 669.368L939.748 668.871C939.925 670.138 940.417 671.109 941.222 671.785C942.039 672.46 943.176 672.797 944.633 672.797C946.102 672.797 947.191 672.501 947.902 671.909C948.613 671.305 948.968 670.6 948.968 669.795C948.968 669.072 948.654 668.504 948.026 668.089C947.588 667.805 946.498 667.444 944.757 667.006C942.413 666.414 940.784 665.904 939.872 665.478C938.972 665.04 938.285 664.442 937.811 663.684C937.349 662.914 937.119 662.067 937.119 661.143C937.119 660.302 937.308 659.527 937.687 658.816C938.078 658.094 938.605 657.496 939.268 657.022C939.766 656.655 940.441 656.347 941.293 656.098C942.158 655.837 943.082 655.707 944.065 655.707C945.545 655.707 946.842 655.92 947.955 656.347C949.08 656.773 949.909 657.353 950.442 658.088C950.975 658.81 951.342 659.781 951.544 661.001L948.417 661.428C948.275 660.456 947.86 659.698 947.174 659.154C946.498 658.609 945.539 658.336 944.296 658.336C942.827 658.336 941.779 658.579 941.151 659.065C940.524 659.55 940.21 660.119 940.21 660.77C940.21 661.185 940.34 661.558 940.6 661.889C940.861 662.233 941.27 662.517 941.826 662.742C942.146 662.861 943.088 663.133 944.651 663.559C946.913 664.163 948.488 664.661 949.376 665.052C950.276 665.431 950.981 665.987 951.49 666.722C952 667.456 952.254 668.368 952.254 669.457C952.254 670.523 951.94 671.53 951.313 672.477C950.697 673.413 949.803 674.141 948.63 674.662C947.458 675.172 946.131 675.426 944.651 675.426C942.199 675.426 940.328 674.917 939.037 673.899C937.758 672.88 936.941 671.37 936.586 669.368ZM959.538 675L953.764 656.134H957.069L960.071 667.024L961.19 671.074C961.238 670.873 961.563 669.576 962.167 667.183L965.17 656.134H968.456L971.281 667.077L972.222 670.683L973.306 667.041L976.539 656.134H979.648L973.75 675H970.428L967.426 663.701L966.697 660.486L962.878 675H959.538Z" fill="#FF0000"/>
<path d="M674.637 711.66L674.636 781.66" stroke="#E38D04" stroke-width="3.03189"/>
<path d="M674.637 780.16L694.136 780.16" stroke="#E38D04" stroke-width="3.03189"/>
<path d="M684.636 712.476L674.636 686.66L664.636 712.476L684.636 712.476Z" fill="#E38D04"/>
<path d="M711.926 781.66H708.567L718.283 755.2H721.59L731.306 781.66H727.947L720.04 759.386H719.833L711.926 781.66ZM713.166 771.324H726.706V774.167H713.166V771.324ZM735.014 781.66V761.815H737.96V764.813H738.166C738.528 763.831 739.183 763.034 740.13 762.423C741.078 761.811 742.146 761.505 743.334 761.505C743.558 761.505 743.838 761.509 744.174 761.518C744.51 761.527 744.764 761.54 744.937 761.557V764.658C744.833 764.632 744.596 764.593 744.226 764.541C743.864 764.481 743.481 764.451 743.076 764.451C742.111 764.451 741.25 764.653 740.492 765.058C739.743 765.454 739.148 766.006 738.709 766.712C738.278 767.41 738.063 768.206 738.063 769.102V781.66H735.014ZM748.551 781.66V761.815H751.497V764.813H751.703C752.065 763.831 752.72 763.034 753.667 762.423C754.615 761.811 755.683 761.505 756.871 761.505C757.095 761.505 757.375 761.509 757.711 761.518C758.047 761.527 758.301 761.54 758.473 761.557V764.658C758.37 764.632 758.133 764.593 757.763 764.541C757.401 764.481 757.018 764.451 756.613 764.451C755.648 764.451 754.787 764.653 754.029 765.058C753.28 765.454 752.685 766.006 752.246 766.712C751.815 767.41 751.6 768.206 751.6 769.102V781.66H748.551ZM769.546 782.074C767.754 782.074 766.182 781.647 764.83 780.795C763.486 779.942 762.436 778.749 761.678 777.216C760.928 775.683 760.554 773.891 760.554 771.841C760.554 769.774 760.928 767.97 761.678 766.428C762.436 764.886 763.486 763.689 764.83 762.836C766.182 761.983 767.754 761.557 769.546 761.557C771.337 761.557 772.905 761.983 774.249 762.836C775.601 763.689 776.652 764.886 777.401 766.428C778.159 767.97 778.538 769.774 778.538 771.841C778.538 773.891 778.159 775.683 777.401 777.216C776.652 778.749 775.601 779.942 774.249 780.795C772.905 781.647 771.337 782.074 769.546 782.074ZM769.546 779.335C770.907 779.335 772.027 778.986 772.905 778.288C773.784 777.591 774.434 776.673 774.856 775.536C775.278 774.399 775.489 773.168 775.489 771.841C775.489 770.515 775.278 769.279 774.856 768.133C774.434 766.988 773.784 766.062 772.905 765.355C772.027 764.649 770.907 764.296 769.546 764.296C768.185 764.296 767.065 764.649 766.187 765.355C765.308 766.062 764.658 766.988 764.236 768.133C763.814 769.279 763.603 770.515 763.603 771.841C763.603 773.168 763.814 774.399 764.236 775.536C764.658 776.673 765.308 777.591 766.187 778.288C767.065 778.986 768.185 779.335 769.546 779.335ZM787.014 781.66L780.967 761.815H784.171L788.461 777.009H788.668L792.905 761.815H796.161L800.347 776.958H800.554L804.843 761.815H808.048L802.001 781.66H799.004L794.662 766.415H794.352L790.011 781.66H787.014ZM725.311 805.815C725.156 804.506 724.527 803.49 723.425 802.766C722.322 802.043 720.97 801.681 719.368 801.681C718.196 801.681 717.171 801.87 716.293 802.249C715.423 802.628 714.742 803.149 714.252 803.813C713.769 804.476 713.528 805.23 713.528 806.074C713.528 806.78 713.696 807.387 714.032 807.895C714.376 808.395 714.816 808.813 715.35 809.149C715.884 809.476 716.444 809.747 717.029 809.963C717.615 810.169 718.153 810.337 718.644 810.466L721.332 811.19C722.021 811.371 722.787 811.621 723.631 811.939C724.484 812.258 725.298 812.693 726.073 813.244C726.857 813.787 727.503 814.485 728.011 815.337C728.52 816.19 728.774 817.237 728.774 818.477C728.774 819.907 728.399 821.199 727.65 822.353C726.909 823.507 725.824 824.424 724.394 825.105C722.973 825.785 721.246 826.126 719.213 826.126C717.318 826.126 715.677 825.82 714.29 825.208C712.912 824.597 711.827 823.744 711.034 822.65C710.251 821.556 709.807 820.286 709.704 818.839H713.011C713.097 819.838 713.433 820.665 714.019 821.319C714.613 821.965 715.363 822.448 716.267 822.766C717.18 823.076 718.162 823.231 719.213 823.231C720.436 823.231 721.534 823.033 722.507 822.637C723.481 822.232 724.252 821.672 724.82 820.958C725.389 820.234 725.673 819.39 725.673 818.425C725.673 817.547 725.427 816.832 724.936 816.28C724.445 815.729 723.799 815.281 722.998 814.937C722.197 814.592 721.332 814.291 720.401 814.032L717.146 813.102C715.078 812.508 713.442 811.659 712.236 810.557C711.03 809.454 710.427 808.012 710.427 806.229C710.427 804.747 710.828 803.455 711.629 802.353C712.438 801.242 713.524 800.38 714.885 799.769C716.254 799.149 717.783 798.838 719.471 798.838C721.177 798.838 722.693 799.144 724.019 799.756C725.345 800.359 726.396 801.186 727.172 802.236C727.955 803.287 728.369 804.48 728.412 805.815H725.311ZM736.677 813.722V825.66H733.628V799.2H736.677V808.916H736.936C737.401 807.891 738.099 807.077 739.029 806.474C739.968 805.863 741.217 805.557 742.776 805.557C744.128 805.557 745.312 805.828 746.329 806.371C747.345 806.905 748.133 807.727 748.693 808.839C749.262 809.941 749.546 811.345 749.546 813.05V825.66H746.497V813.257C746.497 811.681 746.087 810.462 745.269 809.601C744.46 808.731 743.336 808.296 741.897 808.296C740.898 808.296 740.002 808.507 739.21 808.929C738.426 809.351 737.806 809.967 737.349 810.777C736.901 811.586 736.677 812.568 736.677 813.722ZM760.964 826.126C759.706 826.126 758.565 825.889 757.54 825.415C756.515 824.933 755.701 824.239 755.098 823.335C754.495 822.422 754.194 821.319 754.194 820.027C754.194 818.89 754.418 817.969 754.866 817.262C755.313 816.547 755.912 815.988 756.661 815.583C757.411 815.178 758.238 814.877 759.142 814.678C760.055 814.472 760.972 814.308 761.894 814.187C763.1 814.032 764.078 813.916 764.827 813.839C765.585 813.752 766.136 813.61 766.481 813.412C766.834 813.214 767.01 812.87 767.01 812.379V812.275C767.01 811 766.662 810.01 765.964 809.304C765.275 808.597 764.228 808.244 762.824 808.244C761.369 808.244 760.227 808.563 759.4 809.2C758.574 809.838 757.992 810.518 757.656 811.242L754.762 810.208C755.279 809.002 755.968 808.063 756.829 807.392C757.699 806.711 758.647 806.237 759.672 805.97C760.705 805.695 761.722 805.557 762.721 805.557C763.358 805.557 764.09 805.634 764.917 805.789C765.753 805.936 766.558 806.242 767.333 806.707C768.117 807.172 768.767 807.874 769.284 808.813C769.801 809.752 770.059 811.009 770.059 812.585V825.66H767.01V822.973H766.855C766.649 823.404 766.304 823.865 765.822 824.355C765.339 824.846 764.698 825.264 763.897 825.609C763.096 825.953 762.118 826.126 760.964 826.126ZM761.429 823.386C762.635 823.386 763.651 823.15 764.478 822.676C765.314 822.202 765.942 821.591 766.364 820.841C766.795 820.092 767.01 819.304 767.01 818.477V815.686C766.881 815.841 766.597 815.983 766.158 816.113C765.727 816.233 765.227 816.341 764.659 816.436C764.099 816.522 763.552 816.599 763.018 816.668C762.493 816.728 762.066 816.78 761.739 816.823C760.947 816.926 760.206 817.094 759.517 817.327C758.836 817.551 758.285 817.891 757.863 818.348C757.45 818.796 757.243 819.407 757.243 820.182C757.243 821.242 757.635 822.043 758.419 822.585C759.211 823.119 760.214 823.386 761.429 823.386ZM775.625 833.102V805.815H778.571V808.968H778.932C779.156 808.623 779.466 808.184 779.863 807.65C780.267 807.107 780.844 806.625 781.594 806.203C782.352 805.772 783.377 805.557 784.669 805.557C786.34 805.557 787.813 805.975 789.087 806.81C790.362 807.646 791.357 808.83 792.072 810.363C792.787 811.896 793.144 813.705 793.144 815.79C793.144 817.891 792.787 819.713 792.072 821.255C791.357 822.788 790.367 823.976 789.1 824.821C787.834 825.656 786.374 826.074 784.72 826.074C783.446 826.074 782.425 825.863 781.658 825.441C780.892 825.01 780.302 824.523 779.888 823.981C779.475 823.43 779.156 822.973 778.932 822.611H778.674V833.102H775.625ZM778.622 815.738C778.622 817.237 778.842 818.559 779.281 819.704C779.72 820.841 780.362 821.733 781.206 822.379C782.05 823.016 783.084 823.335 784.307 823.335C785.582 823.335 786.646 822.999 787.498 822.327C788.36 821.647 789.006 820.734 789.436 819.588C789.876 818.434 790.095 817.15 790.095 815.738C790.095 814.342 789.88 813.085 789.449 811.965C789.027 810.837 788.385 809.945 787.524 809.291C786.671 808.628 785.599 808.296 784.307 808.296C783.067 808.296 782.024 808.61 781.18 809.239C780.336 809.859 779.699 810.729 779.268 811.849C778.838 812.96 778.622 814.256 778.622 815.738ZM806.116 826.074C804.204 826.074 802.554 825.652 801.168 824.808C799.789 823.955 798.726 822.766 797.976 821.242C797.236 819.709 796.865 817.926 796.865 815.893C796.865 813.86 797.236 812.069 797.976 810.518C798.726 808.959 799.768 807.745 801.103 806.875C802.447 805.996 804.014 805.557 805.806 805.557C806.84 805.557 807.86 805.729 808.868 806.074C809.876 806.418 810.793 806.978 811.62 807.753C812.447 808.52 813.106 809.536 813.597 810.802C814.088 812.069 814.333 813.628 814.333 815.479V816.771H799.036V814.136H811.232C811.232 813.016 811.008 812.017 810.56 811.138C810.121 810.26 809.492 809.566 808.674 809.058C807.864 808.55 806.908 808.296 805.806 808.296C804.591 808.296 803.541 808.597 802.653 809.2C801.775 809.795 801.099 810.57 800.625 811.526C800.151 812.482 799.914 813.507 799.914 814.601V816.358C799.914 817.857 800.173 819.127 800.69 820.169C801.215 821.203 801.943 821.991 802.873 822.534C803.803 823.068 804.884 823.335 806.116 823.335C806.917 823.335 807.641 823.223 808.287 822.999C808.941 822.766 809.505 822.422 809.979 821.965C810.453 821.5 810.819 820.923 811.077 820.234L814.023 821.061C813.713 822.06 813.192 822.939 812.46 823.697C811.728 824.446 810.823 825.032 809.747 825.454C808.67 825.867 807.46 826.074 806.116 826.074Z" fill="#E38D04"/>
<path d="M539 470.66L539 540.66" stroke="#E38D04" stroke-width="3.03189"/>
<path d="M539 539.16L519.5 539.16" stroke="#E38D04" stroke-width="3.03189"/>
<path d="M529 471.476L539 445.66L549 471.476L529 471.476Z" fill="#E38D04"/>
<path d="M368.675 520.815C368.52 519.506 367.891 518.49 366.788 517.766C365.686 517.043 364.334 516.681 362.731 516.681C361.56 516.681 360.535 516.87 359.656 517.249C358.787 517.628 358.106 518.149 357.615 518.813C357.133 519.476 356.892 520.23 356.892 521.074C356.892 521.78 357.06 522.387 357.395 522.895C357.74 523.395 358.179 523.813 358.713 524.149C359.247 524.476 359.807 524.747 360.393 524.963C360.979 525.169 361.517 525.337 362.008 525.466L364.695 526.19C365.384 526.371 366.151 526.621 366.995 526.939C367.848 527.258 368.662 527.693 369.437 528.244C370.221 528.787 370.867 529.485 371.375 530.337C371.883 531.19 372.137 532.237 372.137 533.477C372.137 534.907 371.763 536.199 371.013 537.353C370.272 538.507 369.187 539.424 367.757 540.105C366.336 540.785 364.609 541.126 362.576 541.126C360.681 541.126 359.041 540.82 357.654 540.208C356.276 539.597 355.19 538.744 354.398 537.65C353.614 536.556 353.171 535.286 353.067 533.839H356.375C356.461 534.838 356.797 535.665 357.383 536.319C357.977 536.965 358.726 537.448 359.631 537.766C360.544 538.076 361.526 538.231 362.576 538.231C363.799 538.231 364.898 538.033 365.871 537.637C366.844 537.232 367.615 536.672 368.184 535.958C368.752 535.234 369.036 534.39 369.036 533.425C369.036 532.547 368.791 531.832 368.3 531.28C367.809 530.729 367.163 530.281 366.362 529.937C365.561 529.592 364.695 529.291 363.765 529.032L360.509 528.102C358.442 527.508 356.805 526.659 355.6 525.557C354.394 524.454 353.791 523.012 353.791 521.229C353.791 519.747 354.191 518.455 354.992 517.353C355.802 516.242 356.887 515.38 358.248 514.769C359.618 514.149 361.147 513.838 362.835 513.838C364.54 513.838 366.056 514.144 367.383 514.756C368.709 515.359 369.76 516.186 370.535 517.236C371.319 518.287 371.732 519.48 371.775 520.815H368.675ZM376.992 540.66V520.815H380.041V540.66H376.992ZM378.542 517.508C377.948 517.508 377.435 517.305 377.005 516.901C376.583 516.496 376.372 516.009 376.372 515.441C376.372 514.872 376.583 514.385 377.005 513.981C377.435 513.576 377.948 513.373 378.542 513.373C379.137 513.373 379.645 513.576 380.067 513.981C380.498 514.385 380.713 514.872 380.713 515.441C380.713 516.009 380.498 516.496 380.067 516.901C379.645 517.305 379.137 517.508 378.542 517.508ZM393.119 541.074C391.466 541.074 390.006 540.656 388.739 539.821C387.473 538.976 386.483 537.788 385.768 536.255C385.053 534.713 384.695 532.891 384.695 530.79C384.695 528.705 385.053 526.896 385.768 525.363C386.483 523.83 387.478 522.646 388.752 521.81C390.027 520.975 391.5 520.557 393.171 520.557C394.463 520.557 395.484 520.772 396.233 521.203C396.991 521.625 397.568 522.107 397.964 522.65C398.369 523.184 398.683 523.623 398.907 523.968H399.166V514.2H402.215V540.66H399.269V537.611H398.907C398.683 537.973 398.365 538.43 397.951 538.981C397.538 539.523 396.948 540.01 396.181 540.441C395.415 540.863 394.394 541.074 393.119 541.074ZM393.533 538.335C394.756 538.335 395.789 538.016 396.634 537.379C397.478 536.733 398.119 535.841 398.559 534.704C398.998 533.559 399.218 532.237 399.218 530.738C399.218 529.256 399.002 527.96 398.572 526.849C398.141 525.729 397.503 524.859 396.659 524.239C395.815 523.61 394.773 523.296 393.533 523.296C392.241 523.296 391.164 523.628 390.303 524.291C389.45 524.945 388.808 525.837 388.378 526.965C387.956 528.085 387.745 529.342 387.745 530.738C387.745 532.15 387.96 533.434 388.391 534.588C388.83 535.734 389.476 536.647 390.329 537.327C391.19 537.999 392.258 538.335 393.533 538.335ZM416.543 541.074C414.631 541.074 412.982 540.652 411.595 539.808C410.217 538.955 409.153 537.766 408.404 536.242C407.663 534.709 407.293 532.926 407.293 530.893C407.293 528.86 407.663 527.069 408.404 525.518C409.153 523.959 410.195 522.745 411.53 521.875C412.874 520.996 414.442 520.557 416.233 520.557C417.267 520.557 418.287 520.729 419.295 521.074C420.303 521.418 421.22 521.978 422.047 522.753C422.874 523.52 423.533 524.536 424.024 525.802C424.515 527.069 424.76 528.628 424.76 530.479V531.771H409.463V529.136H421.66C421.66 528.016 421.436 527.017 420.988 526.138C420.548 525.26 419.92 524.566 419.101 524.058C418.292 523.55 417.336 523.296 416.233 523.296C415.019 523.296 413.968 523.597 413.081 524.2C412.202 524.795 411.526 525.57 411.052 526.526C410.579 527.482 410.342 528.507 410.342 529.601V531.358C410.342 532.857 410.6 534.127 411.117 535.169C411.642 536.203 412.37 536.991 413.3 537.534C414.231 538.068 415.312 538.335 416.543 538.335C417.344 538.335 418.068 538.223 418.714 537.999C419.368 537.766 419.933 537.422 420.406 536.965C420.88 536.5 421.246 535.923 421.505 535.234L424.45 536.061C424.14 537.06 423.619 537.939 422.887 538.697C422.155 539.446 421.25 540.032 420.174 540.454C419.097 540.867 417.887 541.074 416.543 541.074ZM429.812 540.66V514.2H438.753C440.82 514.2 442.517 514.553 443.843 515.26C445.17 515.957 446.152 516.918 446.789 518.141C447.426 519.364 447.745 520.755 447.745 522.314C447.745 523.873 447.426 525.255 446.789 526.461C446.152 527.667 445.174 528.615 443.856 529.304C442.538 529.984 440.854 530.324 438.804 530.324H431.569V527.43H438.701C440.114 527.43 441.251 527.224 442.112 526.81C442.982 526.397 443.611 525.811 443.998 525.053C444.394 524.286 444.593 523.373 444.593 522.314C444.593 521.255 444.394 520.329 443.998 519.536C443.602 518.744 442.969 518.132 442.099 517.702C441.229 517.262 440.079 517.043 438.649 517.043H433.016V540.66H429.812ZM442.267 528.774L448.779 540.66H445.058L438.649 528.774H442.267ZM460.52 541.074C458.728 541.074 457.156 540.647 455.804 539.795C454.46 538.942 453.409 537.749 452.651 536.216C451.902 534.683 451.527 532.891 451.527 530.841C451.527 528.774 451.902 526.97 452.651 525.428C453.409 523.886 454.46 522.689 455.804 521.836C457.156 520.983 458.728 520.557 460.52 520.557C462.311 520.557 463.879 520.983 465.223 521.836C466.575 522.689 467.626 523.886 468.375 525.428C469.133 526.97 469.512 528.774 469.512 530.841C469.512 532.891 469.133 534.683 468.375 536.216C467.626 537.749 466.575 538.942 465.223 539.795C463.879 540.647 462.311 541.074 460.52 541.074ZM460.52 538.335C461.881 538.335 463 537.986 463.879 537.288C464.757 536.591 465.408 535.673 465.83 534.536C466.252 533.399 466.463 532.168 466.463 530.841C466.463 529.515 466.252 528.279 465.83 527.133C465.408 525.988 464.757 525.062 463.879 524.355C463 523.649 461.881 523.296 460.52 523.296C459.159 523.296 458.039 523.649 457.161 524.355C456.282 525.062 455.632 525.988 455.21 527.133C454.788 528.279 454.577 529.515 454.577 530.841C454.577 532.168 454.788 533.399 455.21 534.536C455.632 535.673 456.282 536.591 457.161 537.288C458.039 537.986 459.159 538.335 460.52 538.335ZM480.006 541.126C478.749 541.126 477.608 540.889 476.583 540.415C475.558 539.933 474.744 539.239 474.141 538.335C473.538 537.422 473.236 536.319 473.236 535.027C473.236 533.89 473.46 532.969 473.908 532.262C474.356 531.547 474.955 530.988 475.704 530.583C476.453 530.178 477.28 529.877 478.185 529.678C479.098 529.472 480.015 529.308 480.937 529.187C482.142 529.032 483.12 528.916 483.869 528.839C484.627 528.752 485.179 528.61 485.523 528.412C485.876 528.214 486.053 527.87 486.053 527.379V527.275C486.053 526 485.704 525.01 485.006 524.304C484.317 523.597 483.271 523.244 481.867 523.244C480.411 523.244 479.27 523.563 478.443 524.2C477.616 524.838 477.035 525.518 476.699 526.242L473.805 525.208C474.322 524.002 475.011 523.063 475.872 522.392C476.742 521.711 477.689 521.237 478.714 520.97C479.748 520.695 480.764 520.557 481.763 520.557C482.401 520.557 483.133 520.634 483.96 520.789C484.795 520.936 485.601 521.242 486.376 521.707C487.16 522.172 487.81 522.874 488.327 523.813C488.844 524.752 489.102 526.009 489.102 527.585V540.66H486.053V537.973H485.898C485.691 538.404 485.347 538.865 484.864 539.355C484.382 539.846 483.74 540.264 482.939 540.609C482.138 540.953 481.161 541.126 480.006 541.126ZM480.471 538.386C481.677 538.386 482.694 538.15 483.521 537.676C484.356 537.202 484.985 536.591 485.407 535.841C485.838 535.092 486.053 534.304 486.053 533.477V530.686C485.924 530.841 485.639 530.983 485.2 531.113C484.769 531.233 484.27 531.341 483.701 531.436C483.142 531.522 482.595 531.599 482.061 531.668C481.535 531.728 481.109 531.78 480.782 531.823C479.989 531.926 479.248 532.094 478.559 532.327C477.879 532.551 477.328 532.891 476.906 533.348C476.492 533.796 476.285 534.407 476.285 535.182C476.285 536.242 476.677 537.043 477.461 537.585C478.254 538.119 479.257 538.386 480.471 538.386ZM502.161 541.074C500.507 541.074 499.047 540.656 497.781 539.821C496.515 538.976 495.524 537.788 494.809 536.255C494.095 534.713 493.737 532.891 493.737 530.79C493.737 528.705 494.095 526.896 494.809 525.363C495.524 523.83 496.519 522.646 497.794 521.81C499.069 520.975 500.542 520.557 502.213 520.557C503.505 520.557 504.525 520.772 505.275 521.203C506.033 521.625 506.61 522.107 507.006 522.65C507.411 523.184 507.725 523.623 507.949 523.968H508.207V514.2H511.257V540.66H508.311V537.611H507.949C507.725 537.973 507.406 538.43 506.993 538.981C506.58 539.523 505.99 540.01 505.223 540.441C504.456 540.863 503.436 541.074 502.161 541.074ZM502.574 538.335C503.797 538.335 504.831 538.016 505.675 537.379C506.519 536.733 507.161 535.841 507.6 534.704C508.039 533.559 508.259 532.237 508.259 530.738C508.259 529.256 508.044 527.96 507.613 526.849C507.182 525.729 506.545 524.859 505.701 524.239C504.857 523.61 503.815 523.296 502.574 523.296C501.282 523.296 500.206 523.628 499.344 524.291C498.492 524.945 497.85 525.837 497.419 526.965C496.997 528.085 496.786 529.342 496.786 530.738C496.786 532.15 497.002 533.434 497.432 534.588C497.871 535.734 498.517 536.647 499.37 537.327C500.232 537.999 501.3 538.335 502.574 538.335Z" fill="#E38D04"/>
</svg>
