<svg width="930" height="775" viewBox="0 0 930 775" fill="none" xmlns="http://www.w3.org/2000/svg">
<g clip-path="url(#clip0_0_1)">
<path d="M0 -124.471C0 -145.198 16.9171 -162 37.7853 -162H667.541C688.409 -162 705.326 -145.198 705.326 -124.471V701.171C705.326 721.898 688.409 738.7 667.541 738.7H37.7853C16.9171 738.7 0 721.898 0 701.171V-124.471Z" fill="white"/>
<path d="M18.8926 -124.471C18.8926 -134.834 27.3512 -143.235 37.7853 -143.235H667.541C677.975 -143.235 686.433 -134.834 686.433 -124.471V701.171C686.433 711.535 677.975 719.936 667.541 719.936H37.7853C27.3512 719.936 18.8926 711.535 18.8926 701.171V-124.471Z" fill="#0033A2"/>
<path d="M611.618 -52.2912L649.404 -14.7621V97.8255V691.54H611.618H573.833V97.8255V-14.7621L611.618 -52.2912Z" fill="white"/>
<path d="M127.714 441.108V430.069H227.921V441.108H127.714ZM173.399 437.054L184.161 434.462C186.586 443.323 189.857 451.579 193.975 459.232C198.093 466.891 203.154 473.59 209.159 479.327C215.171 485.072 222.144 489.595 230.077 492.898C229.171 493.645 228.207 494.619 227.186 495.82C226.164 497.021 225.201 498.242 224.294 499.483C223.387 500.724 222.631 501.832 222.027 502.806C213.637 498.903 206.325 493.742 200.091 487.324C193.857 480.905 188.587 473.456 184.282 464.976C179.976 456.496 176.348 447.189 173.399 437.054ZM171.697 398.665H183.375C183.375 403.989 183.24 409.71 182.972 415.828C182.71 421.946 182.125 428.234 181.218 434.693C180.312 441.144 178.837 447.599 176.795 454.058C174.76 460.509 171.925 466.738 168.291 472.742C164.67 478.747 160.025 484.321 154.356 489.465C148.686 494.603 141.771 499.086 133.609 502.916C132.702 501.488 131.493 499.93 129.982 498.242C128.47 496.554 126.959 495.146 125.447 494.019C133.307 490.496 139.937 486.386 145.337 481.689C150.745 476.999 155.128 471.895 158.487 466.377C161.852 460.866 164.442 455.145 166.255 449.214C168.069 443.283 169.355 437.351 170.115 431.42C170.867 425.495 171.32 419.754 171.475 414.197C171.623 408.646 171.697 403.468 171.697 398.665Z" fill="white"/>
<path d="M284.289 436.717V430.642H348.111V436.717H284.289ZM284.854 479.28V473.085H348.222V479.28H284.854ZM315.797 486.706V455.521H325.44V486.706H315.797ZM331.445 445.724H300.502V451.919H331.445V445.724ZM291.433 456.982V440.43H340.967V456.982H291.433ZM307.525 413.299L316.482 414.429C315.649 417.505 314.702 420.768 313.641 424.217C312.586 427.673 311.606 430.639 310.699 433.114H301.288C302.349 430.412 303.444 427.223 304.572 423.546C305.708 419.87 306.692 416.454 307.525 413.299ZM290.859 425.118V419.383H338.358V433.905H329.4V425.118H290.859ZM268.188 503.258V403.281H364.092V503.258H353.552V412.958H278.395V503.258H268.188ZM274.657 498.755V489.067H359.215V498.755H274.657ZM292.793 477.478V461.146H343.345V467.23H301.177V477.478" fill="white"/>
<path d="M245.353 391.554H108.822V532.163H245.353V391.554Z" stroke="white" stroke-width="2" stroke-dasharray="5 5"/>
<path d="M383.899 391.554H247.368V532.163H383.899V391.554Z" stroke="white" stroke-width="2" stroke-dasharray="5 5"/>
<path d="M100.421 69.4686V60.3515H153.814V69.4686H100.421ZM93.5086 87.5927V78.6958H161.29V87.5927H93.5086ZM77.9713 106.507V97.2802H176.596V106.507H77.9713ZM91.9166 44.3591V35.8024H131.364V44.3591H91.9166ZM122.185 41.5469V35.8024H133.863C136.282 38.8781 139.21 41.8605 142.65 44.7494C146.089 47.645 149.884 50.3304 154.036 52.8056C158.194 55.2809 162.54 57.496 167.074 59.4508C171.608 61.399 176.18 63.0503 180.788 64.4047C179.961 65.0051 179.018 65.7924 177.956 66.7665C176.902 67.7406 175.881 68.7547 174.893 69.8089C173.912 70.8563 173.12 71.8304 172.515 72.7311C166.47 70.5561 160.501 67.854 154.61 64.6248C148.712 61.3957 143.251 57.8129 138.226 53.8765C133.202 49.9334 128.876 45.8235 125.248 41.5469H122.185ZM119.696 36.9333L129.44 40.6462C125.739 45.5967 121.241 50.1736 115.948 54.3769C110.661 58.5801 105.012 62.2964 99.0001 65.5255C92.9947 68.7547 86.9323 71.5702 80.8127 73.9721C80.2821 73.2182 79.5633 72.3175 78.6565 71.27C77.7496 70.2158 76.8058 69.1817 75.8251 68.1676C74.8443 67.1601 73.9744 66.3562 73.2154 65.7557C79.4155 63.8742 85.4612 61.5091 91.3523 58.6602C97.2502 55.8046 102.634 52.5388 107.504 48.8626C112.381 45.1864 116.445 41.21 119.696 36.9333ZM121.51 103.695V64.5147H132.503V103.695H121.51ZM77.1853 24.2034V14.4158H177.392V24.2034H77.1853ZM101.328 33.5507V5.85913H111.988V33.5507H101.328ZM141.914 34.1111V5.85913H152.565V34.1111" fill="white"/>
<path d="M264.928 13.6278V8.11348H284.758V13.6278H264.928ZM264.243 31.982V26.5778H285.554V31.982H264.243ZM264.243 40.4186V35.1345H285.554V40.4186H264.243ZM247.698 93.7901V86.9248H305.162V93.7901H247.698ZM260.958 23.0851V17.1205H288.163V23.0851H260.958ZM278.752 49.3155H270.702V55.7305H278.752V49.3155ZM264.011 60.9145V44.1415H285.665V60.9145H264.011ZM249.622 82.1911V75.7761H296.658V70.9323H242.589V64.5173H306.643V82.1911H249.622ZM245.763 62.4858V36.9359H252.907V62.4858H245.763ZM235.455 40.8689L234.659 34.0036C237.985 33.8568 241.706 33.7067 245.824 33.5533C249.942 33.4065 254.304 33.2197 258.913 32.9928V39.1876C254.681 39.5613 250.583 39.8615 246.62 40.0883C242.65 40.3085 238.928 40.5687 235.455 40.8689ZM246.559 75.7761H256.535C255.628 79.3789 254.647 83.1318 253.592 87.0348C252.531 90.9379 251.547 94.3138 250.64 97.1627L241.007 95.8117C242.062 93.0362 243.083 89.827 244.071 86.1842C245.051 82.548 245.881 79.0787 246.559 75.7761ZM301.766 88.0456V86.9248H311.852C311.852 86.9248 311.815 87.4285 311.742 88.4359C311.668 89.4501 311.516 90.2974 311.288 90.9779C310.227 95.6282 309.128 99.2844 307.993 101.946C306.865 104.615 305.545 106.55 304.033 107.751C302.75 108.652 301.37 109.269 299.892 109.602C298.421 109.943 296.664 110.149 294.622 110.223C292.882 110.303 290.407 110.323 287.196 110.283C283.985 110.243 280.566 110.149 276.939 110.003C276.865 108.802 276.563 107.451 276.032 105.95C275.501 104.448 274.86 103.097 274.107 101.896C277.661 102.27 281.1 102.494 284.425 102.567C287.75 102.647 290.091 102.687 291.448 102.687C292.657 102.687 293.638 102.647 294.391 102.567C295.15 102.494 295.794 102.27 296.325 101.896C297.38 101.069 298.344 99.5846 299.217 97.4429C300.083 95.308 300.933 92.1755 301.766 88.0456ZM254.268 44.9221L259.709 43.6911C260.313 45.5659 260.898 47.6275 261.462 49.876C262.033 52.131 262.469 54.0826 262.772 55.7305L256.877 57.3117C256.723 55.5837 256.4 53.5755 255.91 51.287C255.42 48.9986 254.872 46.877 254.268 44.9221ZM253.925 29.6102L258.802 27.8088C259.783 29.6903 260.689 31.7919 261.522 34.1137C262.355 36.4422 262.923 38.4704 263.225 40.1984L257.895 42.22C257.667 40.4987 257.176 38.4738 256.424 36.1453C255.665 33.8168 254.832 31.6384 253.925 29.6102ZM235.788 20.7233L239.415 15.3191C241.612 16.7402 243.765 18.3715 245.874 20.2129C247.997 22.0543 249.586 23.6489 250.64 24.9966L246.559 31.1914C245.424 29.6169 243.839 27.8522 241.803 25.8973C239.761 23.9491 237.756 22.2245 235.788 20.7233ZM246.559 5.52146L253.018 8.67391C251.507 11.1492 249.995 13.6645 248.484 16.2198C246.972 18.7684 245.538 20.9068 244.181 22.6348L239.194 20.0428C240.403 18.0946 241.726 15.7127 243.164 12.8972C244.594 10.0817 245.726 7.6231 246.559 5.52146ZM253.814 14.8687L260.162 18.4715C257.67 21.8475 255.006 25.4103 252.172 29.1598C249.337 32.9161 246.674 36.0685 244.181 38.6172L239.415 35.6949C241.007 33.8201 242.71 31.6818 244.524 29.2799C246.338 26.8781 248.054 24.3995 249.673 21.8442C251.298 19.2955 252.679 16.9704 253.814 14.8687ZM238.287 43.2408L244.977 44.7019C244.292 47.6309 243.459 50.5565 242.479 53.4788C241.498 56.4077 240.44 58.923 239.305 61.0246C238.626 60.5776 237.642 60.0705 236.352 59.5034C235.069 58.943 234.015 58.476 233.188 58.1023C234.471 56.0007 235.526 53.6522 236.352 51.0569C237.185 48.4682 237.83 45.8628 238.287 43.2408ZM298.139 62.4858V36.9359H305.394V62.4858H298.139ZM287.71 40.8689L287.025 34.0036C290.504 33.8568 294.417 33.7067 298.764 33.5533C303.11 33.4065 307.738 33.2564 312.648 33.1029L312.527 39.2977C308.074 39.598 303.748 39.8782 299.549 40.1384C295.358 40.4053 291.411 40.6488 287.71 40.8689ZM306.976 44.9221L312.759 43.2408C313.74 45.4892 314.704 47.9645 315.651 50.6666C316.591 53.3687 317.253 55.6971 317.636 57.652L311.631 59.5635C311.328 57.6086 310.724 55.2435 309.817 52.468C308.91 49.6925 307.963 47.1772 306.976 44.9221ZM306.069 29.39L311.399 27.0282C312.682 28.9764 313.871 31.1314 314.966 33.4932C316.068 35.8617 316.843 37.9467 317.293 39.7481L311.51 42.3401C311.134 40.5387 310.435 38.417 309.414 35.9751C308.393 33.5332 307.278 31.3382 306.069 29.39ZM287.257 20.4931L291.106 15.4292C293.074 16.7769 295.039 18.3348 297 20.1028C298.968 21.8642 300.48 23.4587 301.534 24.8865L297.121 30.7411C296.134 29.2399 294.716 27.5119 292.869 25.557C291.015 23.6089 289.144 21.9209 287.257 20.4931ZM298.36 5.63155L304.829 8.89408C303.237 11.376 301.649 13.8713 300.063 16.3799C298.478 18.8952 296.967 21.0535 295.529 22.8549L290.541 20.2729C291.824 18.3181 293.222 15.9329 294.733 13.1174C296.245 10.3018 297.454 7.80657 298.36 5.63155ZM306.411 14.4184L312.759 18.0212C310.193 21.3971 307.399 24.9599 304.376 28.7095C301.353 32.4657 298.481 35.6182 295.761 38.1668L291.106 35.2446C292.846 33.3698 294.659 31.2315 296.547 28.8296C298.441 26.4277 300.255 23.9491 301.988 21.3938C303.728 18.8452 305.202 16.52 306.411 14.4184ZM290.541 43.2408L297.121 44.812C296.59 47.5875 295.835 50.4197 294.854 53.3086C293.867 56.2042 292.809 58.6628 291.68 60.6844C291.075 60.3107 290.169 59.8037 288.959 59.1632C287.75 58.5294 286.692 58.0256 285.786 57.652C286.988 55.5504 287.969 53.2586 288.728 50.7767C289.48 48.3014 290.085 45.7894 290.541 43.2408ZM213.459 14.2983L219.696 7.32286C221.584 8.29695 223.566 9.47787 225.641 10.8656C227.724 12.2534 229.672 13.6411 231.485 15.0289C233.299 16.4233 234.774 17.7576 235.909 19.032L229.44 26.9081C228.385 25.6338 226.968 24.246 225.188 22.7449C223.415 21.2437 221.507 19.7625 219.465 18.3014C217.429 16.8336 215.428 15.4992 213.459 14.2983ZM211.081 44.3617L216.976 37.046C218.937 37.9467 220.996 39.0542 223.153 40.3686C225.309 41.6829 227.311 42.9939 229.158 44.3016C231.012 45.616 232.543 46.8736 233.753 48.0746L227.516 56.1809C226.38 54.9799 224.889 53.6689 223.042 52.2478C221.188 50.82 219.203 49.4123 217.087 48.0245C214.971 46.6368 212.969 45.4158 211.081 44.3617ZM222.981 108.992L213.349 103.588C214.786 100.585 216.314 97.0927 217.933 93.1096C219.559 89.1332 221.221 84.9299 222.921 80.4998C224.627 76.0763 226.196 71.7229 227.626 67.4396L236.131 72.8438C234.921 76.8269 233.561 80.9201 232.05 85.1234C230.538 89.3266 229.027 93.4532 227.516 97.503C226.004 101.559 224.493 105.389 222.981 108.992Z" fill="white"/>
<path d="M193.461 -1.25162H56.9299V139.358H193.461V-1.25162Z" stroke="white" stroke-width="2" stroke-dasharray="5 5"/>
<path d="M332.007 -1.25162H195.476V139.358H332.007V-1.25162Z" stroke="white" stroke-width="2" stroke-dasharray="5 5"/>
<path d="M410.097 473.967L444.507 464.809L554.941 528.131C558.837 530.365 563.637 530.366 567.533 528.133C571.43 525.899 573.831 521.771 573.833 517.303V531.747V603.972V603.975C573.835 599.504 571.434 595.372 567.536 593.137L419.317 508.145L410.097 473.967Z" fill="white"/>
<path d="M109.345 308.54V297.511H160.401V308.54H140.974V367.886H128.772V308.54" fill="white"/>
<path d="M200.328 322.135L200.892 323.235C202.337 325.017 203.26 326.855 203.663 328.75C203.784 329.544 203.875 330.288 203.935 330.981C204.003 331.669 204.036 332.272 204.036 332.793V357.042C205.171 359.283 206.834 360.631 209.024 361.085L208.661 361.635C208.534 361.855 208.409 361.979 208.288 362.006L208.107 362.556L207.734 362.926C207.425 363.6 207.056 364.151 206.626 364.578C206.189 365.712 205.632 366.569 204.953 367.15C204.678 367.763 204.416 368.294 204.167 368.741C203.925 369.181 203.697 369.571 203.482 369.912C199.875 368.991 197.037 367.336 194.968 364.948H194.414C190.437 367.797 186.336 369.221 182.111 369.221C179.827 369.221 177.576 368.838 175.36 368.07C168.73 365.715 164.723 361.428 163.339 355.21V354.98C163.339 343.131 170.322 337.206 184.287 337.206H184.428C184.704 337.08 185.009 337.016 185.345 337.016L185.899 336.836H187.199L187.753 336.656H188.307L192.932 336.105C192.993 335.765 193.023 335.458 193.023 335.185V334.264C193.023 329.147 190.296 326.588 184.841 326.588C181.046 326.588 175.85 327.859 169.254 330.401L168.518 328.75L168.145 327.649L167.772 327.279L167.591 326.918L167.218 325.807C166.882 325.26 166.637 324.71 166.483 324.156C165.831 323.302 165.398 322.445 165.183 321.584L165.737 321.404L166.11 321.214L166.664 321.034L167.037 320.663H167.591C167.712 320.543 167.819 320.483 167.913 320.483H167.964C169.072 319.903 170.056 319.473 170.916 319.192L171.843 319.012C172.522 318.705 173.14 318.522 173.697 318.462L175.178 318.091C176.253 317.664 177.301 317.421 178.322 317.361L182.393 316.62C183.004 316.56 183.595 316.507 184.166 316.46C184.737 316.413 185.301 316.39 185.859 316.39C191.743 316.39 196.566 318.305 200.328 322.135ZM188.489 345.473H187.38C187.105 345.533 186.836 345.58 186.574 345.613C186.312 345.64 186.057 345.653 185.809 345.653H185.537L184.791 345.843H184.237C184.082 345.963 183.897 346.023 183.683 346.023H183.128L180.166 346.754H179.612C178.752 347.247 178.013 347.554 177.395 347.674C175.393 349.576 174.392 351.414 174.392 353.189C174.392 354.81 175.209 356.401 176.841 357.962C179.212 359.404 181.523 360.124 183.773 360.124C186.642 360.124 189.386 358.977 192.005 356.681C192.254 355.974 192.502 355.484 192.751 355.21L192.932 354.66L192.751 353.919V345.283H189.053C188.899 345.409 188.71 345.473 188.489 345.473Z" fill="white"/>
<path d="M220.094 368.067V317.908H231.379V368.067H220.094ZM232.487 303.206V303.807C232.487 306.349 231.685 308.414 230.079 310.002C228.387 310.829 226.828 311.243 225.404 311.243C222.939 311.243 220.984 309.912 219.54 307.249C219.258 306.175 219.117 305.228 219.117 304.407C219.117 301.278 220.86 299.163 224.346 298.062H224.81C228.726 298.062 231.285 299.777 232.487 303.206Z" fill="white"/>
<path d="M271.743 298.065V297.695H284.51L284.691 298.986L284.883 299.536L285.245 300.827L285.618 303.029L286.172 304.86L286.545 307.072L287.099 308.904L287.281 310.375C287.496 310.895 287.62 311.325 287.654 311.666L287.835 312.396L288.208 313.497V314.238C288.329 314.331 288.389 314.421 288.389 314.508V315.158C288.732 315.832 288.92 316.566 288.953 317.36L289.316 318.461L289.689 319.752L290.062 321.954L290.616 323.785L290.797 324.896L291.906 329.49C292 329.917 292.087 330.307 292.168 330.661C292.241 331.007 292.278 331.351 292.278 331.691L292.651 332.422V333.162L293.014 334.083V334.814L293.387 335.544V336.285C293.729 337.206 293.914 338.003 293.941 338.677L294.132 339.407C294.347 340.021 294.515 340.588 294.636 341.109C294.757 341.629 294.834 342.103 294.868 342.53L295.241 344.001L295.614 345.282L295.976 344.181L296.722 340.508L297.085 339.587L297.276 338.487L297.83 335.915L298.203 334.634V334.083L298.939 331.141L299.12 330.04L299.493 329.299L299.674 328.569L299.866 327.648V326.918L300.047 326.357L300.793 323.425L301.155 321.213L301.347 320.483L301.71 319.752C301.777 318.771 301.962 317.911 302.264 317.17L302.455 316.259V315.709L302.828 314.238L303.009 313.687L303.564 311.295L303.745 310.195L304.118 309.094L304.299 308.173L304.853 305.781L305.045 304.86L305.226 304.5C305.26 304.16 305.3 303.83 305.347 303.509C305.394 303.189 305.478 302.906 305.599 302.659L305.78 302.108V301.558L305.972 300.827L306.153 300.267L306.707 297.695H320.401V298.245C320.831 299.319 321.076 300.364 321.136 301.378L321.509 302.839L321.691 303.399L322.436 306.702L322.799 308.173C323.047 309.06 323.172 309.794 323.172 310.375C323.387 310.895 323.511 311.325 323.545 311.666L323.907 312.947L324.099 314.238L324.28 314.968L324.472 315.519C324.559 315.919 324.636 316.279 324.703 316.6C324.764 316.92 324.807 317.233 324.834 317.54C325.083 318.121 325.254 318.658 325.348 319.152C325.442 319.639 325.519 320.082 325.58 320.483L325.761 321.583L326.134 322.504L326.315 323.605V324.155C326.624 324.889 326.809 325.563 326.87 326.177L327.061 327.278C327.363 328.012 327.548 328.686 327.615 329.299L327.797 330.22L328.351 332.242V332.972C328.472 333.253 328.532 333.559 328.532 333.893C328.875 334.6 329.063 335.214 329.096 335.734L329.278 336.655L329.459 337.756L329.651 338.487C329.96 339.434 330.144 340.291 330.205 341.059C330.326 341.152 330.386 341.245 330.386 341.339V341.979C330.816 343.053 331.065 344.094 331.132 345.102C331.313 345.042 331.434 344.918 331.495 344.731C331.649 343.971 331.804 343.307 331.958 342.74C332.113 342.173 332.267 341.676 332.422 341.249V340.508C332.825 339.407 333.07 338.427 333.157 337.566L333.53 336.285L334.276 333.343L334.457 331.871L334.83 330.59L335.011 330.04V329.49C335.226 328.902 335.397 328.372 335.525 327.898C335.646 327.425 335.72 326.974 335.747 326.547L336.12 325.256L337.601 319.192L338.155 316.259L338.528 314.788C338.864 313.901 339.048 313.167 339.082 312.586L339.263 311.666L339.636 310.195C339.911 309.307 340.096 308.573 340.19 307.993L340.372 307.252L340.936 304.68L341.299 303.579V303.029L341.853 301.558V300.827L342.044 300.267L342.598 297.695H355.173L354.438 301.378L353.884 303.579L353.692 304.13L353.138 306.702L352.775 308.173L352.402 309.454L351.657 313.137L351.294 314.418L350.548 317.911L350.186 319.192L349.994 319.752L349.621 321.764L349.44 322.134L349.259 323.425C348.95 324.432 348.765 325.29 348.705 325.997L347.959 328.199L347.778 329.49L347.586 330.22L347.405 330.771L347.223 332.062L347.032 332.612L345.924 337.206L345.742 338.487L345.369 339.778L344.442 343.45L344.261 344.731L343.153 349.325L342.598 351.897C342.256 352.818 342.071 353.615 342.044 354.289L341.299 356.681V357.411C340.963 358.332 340.778 359.129 340.744 359.803C340.435 360.811 340.251 361.668 340.19 362.375L339.817 363.656L339.636 364.026L339.455 365.317C339.146 366.325 338.961 367.182 338.9 367.889H325.207L325.026 366.418C324.811 365.898 324.687 365.468 324.653 365.127L324.28 363.656L324.099 362.375L323.726 361.084C323.632 360.717 323.555 360.367 323.494 360.033C323.434 359.693 323.387 359.37 323.353 359.063L323.172 358.332L322.99 357.411C322.863 357.258 322.799 357.074 322.799 356.861L322.618 355.94L322.436 355.39C322.342 354.996 322.265 354.636 322.204 354.309C322.137 353.989 322.09 353.675 322.063 353.368C321.848 352.788 321.687 352.254 321.58 351.767C321.472 351.273 321.385 350.83 321.318 350.436L321.136 349.695L320.955 348.775C320.827 348.408 320.74 348.057 320.693 347.724C320.653 347.384 320.616 347.06 320.582 346.753C320.367 346.146 320.199 345.565 320.078 345.012C319.951 344.458 319.873 343.938 319.847 343.45C319.719 343.297 319.655 343.114 319.655 342.9L319.474 342.159L319.292 341.609C319.198 340.969 319.074 340.358 318.92 339.778L318.547 338.116L318.365 337.015L317.993 336.105L317.62 333.893L317.438 333.343V332.792C317.129 332.058 316.945 331.384 316.884 330.771L316.511 328.569L316.139 327.648L315.776 326.177V325.446C315.406 324.432 315.222 323.575 315.222 322.874C315.094 322.721 315.03 322.538 315.03 322.324L314.849 321.764V321.213C314.54 320.513 314.355 319.779 314.295 319.011C313.986 318.031 313.801 317.113 313.741 316.259L313.368 316.99L313.186 318.091L312.632 320.483L312.259 322.504L312.068 323.055L311.332 326.177L311.151 326.918L310.778 328.749L310.597 329.49L310.224 331.511L310.043 332.062L309.297 335.544L308.924 336.835L308.743 338.116C308.407 339.037 308.222 339.834 308.189 340.508L308.007 340.878L307.816 341.979L307.634 342.53L306.707 347.123L306.526 347.674L305.78 351.166L305.599 351.897L305.418 352.818L305.226 353.368L304.491 356.861L304.118 358.332L303.745 360.173L303.564 360.534L303.191 362.195L303.009 362.926L302.828 364.207C302.606 364.974 302.482 365.588 302.455 366.048C302.328 366.355 302.244 366.645 302.203 366.919C302.156 367.199 302.116 367.459 302.082 367.699C301.653 367.766 301.26 367.819 300.904 367.859C300.548 367.906 300.202 367.93 299.866 367.93H299.402C299.248 367.93 299.093 367.916 298.939 367.889H288.208V367.149C287.778 366.048 287.533 365.007 287.472 364.026C287.345 363.873 287.281 363.69 287.281 363.476L287.099 362.555C286.421 360.38 285.988 358.542 285.8 357.041L285.618 356.491L284.691 353.008L284.51 351.537L283.029 345.842V345.102C282.72 344.401 282.535 343.667 282.474 342.9L282.102 341.799L281.739 340.508V339.958L280.812 336.285V335.734L280.62 334.994L280.258 334.263L280.066 332.792C279.824 332.058 279.626 331.384 279.472 330.771C279.317 330.157 279.21 329.606 279.149 329.119L278.958 328.569V328.018C278.837 327.865 278.776 327.682 278.776 327.468L278.404 325.997L278.222 325.446C278.095 324.799 277.977 324.216 277.87 323.695C277.762 323.175 277.631 322.718 277.477 322.324L277.295 321.033C277.08 320.419 276.909 319.852 276.781 319.332C276.661 318.811 276.583 318.338 276.55 317.911L276.368 316.99C276.247 316.836 276.187 316.653 276.187 316.439L275.26 312.767L274.887 311.476L274.706 310.565L274.524 309.824L274.333 308.543C274.084 307.896 273.96 307.342 273.96 306.882V306.702L273.597 305.781L273.406 305.051C273.285 304.163 273.1 303.426 272.852 302.839V302.108C272.731 301.955 272.67 301.771 272.67 301.558" fill="white"/>
<path d="M399.079 322.135L399.643 323.235C401.088 325.017 402.011 326.855 402.414 328.75C402.535 329.544 402.626 330.288 402.686 330.981C402.753 331.669 402.787 332.272 402.787 332.793V357.042C403.922 359.283 405.585 360.631 407.775 361.085L407.412 361.635C407.284 361.855 407.16 361.979 407.039 362.006L406.858 362.556L406.485 362.926C406.176 363.6 405.806 364.151 405.377 364.578C404.94 365.712 404.382 366.569 403.704 367.15C403.429 367.763 403.167 368.294 402.918 368.741C402.676 369.181 402.448 369.571 402.233 369.912C398.626 368.991 395.787 367.336 393.719 364.948H393.164C389.188 367.797 385.087 369.221 380.861 369.221C378.578 369.221 376.327 368.838 374.11 368.07C367.48 365.715 363.473 361.428 362.09 355.21V354.98C362.09 343.131 369.072 337.206 383.038 337.206H383.179C383.454 337.08 383.76 337.016 384.096 337.016L384.65 336.836H385.95L386.504 336.656H387.058L391.683 336.105C391.744 335.765 391.774 335.458 391.774 335.185V334.264C391.774 329.147 389.047 326.588 383.592 326.588C379.797 326.588 374.601 327.859 368.004 330.401L367.269 328.75L366.896 327.649L366.523 327.279L366.342 326.918L365.969 325.807C365.633 325.26 365.388 324.71 365.233 324.156C364.582 323.302 364.149 322.445 363.934 321.584L364.488 321.404L364.861 321.214L365.415 321.034L365.788 320.663H366.342C366.463 320.543 366.57 320.483 366.664 320.483H366.715C367.823 319.903 368.807 319.473 369.667 319.192L370.594 319.012C371.272 318.705 371.89 318.522 372.448 318.462L373.929 318.091C375.004 317.664 376.052 317.421 377.073 317.361L381.144 316.62C381.755 316.56 382.346 316.507 382.917 316.46C383.488 316.413 384.052 316.39 384.61 316.39C390.494 316.39 395.317 318.305 399.079 322.135ZM387.24 345.473H386.131C385.856 345.533 385.587 345.58 385.325 345.613C385.063 345.64 384.808 345.653 384.559 345.653H384.287L383.542 345.843H382.988C382.833 345.963 382.648 346.023 382.433 346.023H381.879L378.917 346.754H378.363C377.503 347.247 376.764 347.554 376.146 347.674C374.144 349.576 373.143 351.414 373.143 353.189C373.143 354.81 373.959 356.401 375.592 357.962C377.963 359.404 380.274 360.124 382.524 360.124C385.392 360.124 388.136 358.977 390.756 356.681C391.005 355.974 391.253 355.484 391.502 355.21L391.683 354.66L391.502 353.919V345.283H387.804C387.649 345.409 387.461 345.473 387.24 345.473Z" fill="white"/>
<path d="M420.608 368.067V317.908H431.893V368.067H420.608ZM433.002 303.206V303.807C433.002 306.349 432.199 308.414 430.593 310.002C428.901 310.829 427.342 311.243 425.918 311.243C423.453 311.243 421.498 309.912 420.054 307.249C419.772 306.175 419.631 305.228 419.631 304.407C419.631 301.278 421.374 299.163 424.86 298.062H425.324C429.24 298.062 431.799 299.777 433.002 303.206Z" fill="white"/>
<path d="M159.706 291.476H108.822V389.552H159.706V291.476Z" stroke="white" stroke-width="2" stroke-dasharray="5 5"/>
<path d="M212.102 291.476H161.721V389.552H212.102V291.476Z" stroke="white" stroke-width="2" stroke-dasharray="5 5"/>
<path d="M239.307 291.476H214.117V389.552H239.307V291.476Z" stroke="white" stroke-width="2" stroke-dasharray="5 5"/>
<path d="M264.497 291.476H241.322V389.552H264.497V291.476Z" stroke="white" stroke-width="2" stroke-dasharray="5 5"/>
<path d="M356.693 291.476H266.512V389.552H356.693V291.476Z" stroke="white" stroke-width="2" stroke-dasharray="5 5"/>
<path d="M412.616 291.476H358.709V389.552H412.616V291.476Z" stroke="white" stroke-width="2" stroke-dasharray="5 5"/>
<path d="M439.821 291.476H414.631V389.552H439.821V291.476Z" stroke="white" stroke-width="2" stroke-dasharray="5 5"/>
<path d="M419.317 508.144H474.735" stroke="#FF0000" stroke-width="2.74323"/>
<path d="M384.907 533.164H477.607" stroke="#FF0000" stroke-width="2.74323"/>
<path d="M455.439 508.144V533.164" stroke="#FF0000" stroke-width="2.74323"/>
<path d="M455.671 525.535L447.378 558.479H463.963L455.671 525.535Z" fill="#FF0000"/>
<path d="M455.671 518.448L447.378 485.503H463.963L455.671 518.448Z" fill="#FF0000"/>
<path d="M447.828 584.779V587.56H432.253C432.232 586.863 432.344 586.193 432.591 585.55C432.987 584.489 433.619 583.445 434.487 582.416C435.366 581.387 436.631 580.198 438.281 578.848C440.842 576.747 442.572 575.086 443.473 573.865C444.373 572.632 444.823 571.47 444.823 570.377C444.823 569.23 444.41 568.266 443.585 567.484C442.771 566.691 441.704 566.294 440.386 566.294C438.993 566.294 437.879 566.712 437.043 567.548C436.207 568.384 435.784 569.541 435.773 571.02L432.8 570.714C433.003 568.496 433.769 566.808 435.098 565.651C436.427 564.483 438.211 563.899 440.451 563.899C442.712 563.899 444.501 564.526 445.819 565.78C447.137 567.033 447.796 568.587 447.796 570.441C447.796 571.384 447.603 572.311 447.218 573.222C446.832 574.133 446.189 575.092 445.289 576.099C444.399 577.106 442.915 578.489 440.836 580.246C439.101 581.703 437.986 582.695 437.493 583.22C437 583.734 436.593 584.254 436.272 584.779H447.828ZM450.593 582.464L453.454 582.014C453.615 583.161 454.06 584.039 454.788 584.65C455.528 585.261 456.556 585.566 457.875 585.566C459.203 585.566 460.189 585.298 460.832 584.763C461.475 584.216 461.796 583.579 461.796 582.85C461.796 582.196 461.513 581.682 460.945 581.307C460.548 581.05 459.562 580.723 457.987 580.326C455.865 579.791 454.392 579.33 453.567 578.944C452.752 578.548 452.131 578.006 451.702 577.321C451.284 576.624 451.075 575.858 451.075 575.022C451.075 574.261 451.247 573.559 451.59 572.916C451.943 572.263 452.42 571.722 453.02 571.293C453.47 570.961 454.081 570.682 454.853 570.457C455.635 570.221 456.471 570.104 457.36 570.104C458.7 570.104 459.873 570.296 460.88 570.682C461.898 571.068 462.648 571.593 463.131 572.257C463.613 572.911 463.945 573.79 464.127 574.893L461.298 575.279C461.17 574.401 460.795 573.715 460.173 573.222C459.562 572.729 458.694 572.482 457.569 572.482C456.24 572.482 455.292 572.702 454.724 573.141C454.156 573.581 453.872 574.095 453.872 574.685C453.872 575.06 453.99 575.397 454.226 575.697C454.462 576.008 454.831 576.265 455.335 576.469C455.624 576.576 456.476 576.822 457.891 577.208C459.937 577.755 461.362 578.205 462.166 578.558C462.981 578.901 463.618 579.405 464.079 580.069C464.54 580.734 464.77 581.559 464.77 582.545C464.77 583.509 464.486 584.42 463.918 585.277C463.361 586.124 462.552 586.783 461.491 587.254C460.43 587.715 459.23 587.945 457.891 587.945C455.672 587.945 453.979 587.484 452.811 586.563C451.654 585.641 450.915 584.275 450.593 582.464ZM471.36 587.56L466.136 570.489H469.126L471.843 580.342L472.855 584.007C472.898 583.825 473.193 582.652 473.739 580.487L476.456 570.489H479.429L481.985 580.391L482.837 583.654L483.817 580.359L486.743 570.489H489.556L484.219 587.56H481.213L478.497 577.337L477.838 574.427L474.382 587.56H471.36Z" fill="#FF0000"/>
<path d="M410.097 503.052V398.728" stroke="#46C147" stroke-width="2.74323"/>
<path d="M573.833 503.052V398.728" stroke="#46C147" stroke-width="2.74323"/>
<path d="M410.097 420.691H573.833" stroke="#46C147" stroke-width="2.74323"/>
<path d="M410.097 420.691L432.21 415.2V426.181L410.097 420.691Z" fill="#46C147"/>
<path d="M573.833 420.691L551.72 415.2V426.181L573.833 420.691Z" fill="#46C147"/>
<path d="M460.65 383.401H457.757V364.964C457.06 365.629 456.144 366.293 455.008 366.957C453.883 367.622 452.87 368.12 451.97 368.452V365.655C453.588 364.895 455.003 363.973 456.214 362.891C457.425 361.808 458.282 360.758 458.786 359.74H460.65V383.401ZM468.092 377.18L470.985 376.794C471.318 378.434 471.88 379.618 472.673 380.347C473.477 381.065 474.452 381.424 475.599 381.424C476.959 381.424 478.106 380.952 479.038 380.009C479.981 379.066 480.453 377.898 480.453 376.505C480.453 375.176 480.019 374.083 479.151 373.226C478.283 372.358 477.179 371.924 475.84 371.924C475.293 371.924 474.613 372.031 473.798 372.246L474.12 369.706C474.313 369.727 474.468 369.738 474.586 369.738C475.818 369.738 476.927 369.417 477.913 368.774C478.899 368.131 479.392 367.14 479.392 365.8C479.392 364.739 479.033 363.861 478.315 363.164C477.597 362.467 476.67 362.119 475.534 362.119C474.409 362.119 473.472 362.473 472.721 363.18C471.971 363.887 471.489 364.948 471.275 366.363L468.382 365.848C468.735 363.909 469.539 362.409 470.793 361.348C472.046 360.276 473.605 359.74 475.47 359.74C476.756 359.74 477.94 360.019 479.022 360.576C480.105 361.123 480.93 361.873 481.498 362.826C482.076 363.78 482.366 364.793 482.366 365.864C482.366 366.882 482.092 367.809 481.546 368.645C480.999 369.481 480.19 370.145 479.119 370.638C480.512 370.96 481.594 371.629 482.366 372.647C483.137 373.655 483.523 374.919 483.523 376.441C483.523 378.498 482.773 380.245 481.273 381.681C479.772 383.106 477.876 383.819 475.583 383.819C473.514 383.819 471.794 383.202 470.423 381.97C469.062 380.738 468.285 379.141 468.092 377.18ZM486.046 378.305L488.908 377.855C489.068 379.002 489.513 379.881 490.242 380.491C490.981 381.102 492.01 381.408 493.328 381.408C494.657 381.408 495.642 381.14 496.285 380.604C496.928 380.057 497.25 379.42 497.25 378.691C497.25 378.037 496.966 377.523 496.398 377.148C496.001 376.891 495.016 376.564 493.44 376.168C491.319 375.632 489.845 375.171 489.02 374.785C488.206 374.389 487.584 373.848 487.156 373.162C486.738 372.465 486.529 371.699 486.529 370.863C486.529 370.102 486.7 369.401 487.043 368.758C487.397 368.104 487.873 367.563 488.474 367.134C488.924 366.802 489.534 366.523 490.306 366.298C491.088 366.063 491.924 365.945 492.813 365.945C494.153 365.945 495.326 366.138 496.334 366.523C497.352 366.909 498.102 367.434 498.584 368.099C499.066 368.752 499.398 369.631 499.58 370.735L496.751 371.12C496.623 370.242 496.248 369.556 495.626 369.063C495.016 368.57 494.148 368.324 493.022 368.324C491.694 368.324 490.745 368.543 490.177 368.983C489.609 369.422 489.325 369.936 489.325 370.526C489.325 370.901 489.443 371.238 489.679 371.538C489.915 371.849 490.285 372.106 490.788 372.31C491.078 372.417 491.929 372.664 493.344 373.049C495.391 373.596 496.816 374.046 497.619 374.399C498.434 374.742 499.071 375.246 499.532 375.91C499.993 376.575 500.223 377.4 500.223 378.386C500.223 379.35 499.939 380.261 499.372 381.118C498.814 381.965 498.005 382.624 496.944 383.095C495.884 383.556 494.683 383.786 493.344 383.786C491.126 383.786 489.433 383.326 488.265 382.404C487.107 381.483 486.368 380.116 486.046 378.305ZM506.814 383.401L501.59 366.33H504.579L507.296 376.184L508.308 379.848C508.351 379.666 508.646 378.493 509.192 376.328L511.909 366.33H514.883L517.438 376.232L518.29 379.495L519.271 376.2L522.196 366.33H525.009L519.673 383.401H516.667L513.95 373.178L513.291 370.269L509.835 383.401H506.814Z" fill="#46C147"/>
<path d="M470.553 536.763L561.517 588.925" stroke="#46C147" stroke-width="2.74323"/>
<path d="M495.743 493.428L586.707 545.59" stroke="#46C147" stroke-width="2.74323"/>
<path d="M542.367 577.944L567.557 534.609" stroke="#46C147" stroke-width="2.74323"/>
<path d="M542.513 577.811L558.213 561.935L548.347 556.178L542.513 577.811Z" fill="#46C147"/>
<path d="M567.413 534.742L561.58 556.375L551.714 550.617L567.413 534.742Z" fill="#46C147"/>
<path d="M596.915 600.98L592.067 598.152L587.005 606.97L584.726 605.641L576.927 588.709L578.097 586.671L591.22 594.327L592.796 591.581L595.075 592.911L593.499 595.656L598.348 598.485L596.915 600.98ZM589.787 596.822L580.657 591.496L586.134 603.187L589.787 596.822ZM596.842 590.925L597.872 588.231C598.937 588.667 599.912 588.724 600.798 588.402C601.689 588.07 602.461 587.336 603.113 586.199C603.771 585.053 604.029 584.068 603.887 583.245C603.736 582.416 603.347 581.819 602.721 581.454C602.159 581.126 601.576 581.113 600.973 581.415C600.555 581.628 599.786 582.315 598.666 583.475C597.155 585.036 596.029 586.076 595.289 586.595C594.545 587.099 593.772 587.363 592.971 587.389C592.165 587.401 591.403 587.197 590.685 586.778C590.031 586.396 589.513 585.897 589.13 585.278C588.743 584.646 588.514 583.963 588.443 583.231C588.381 582.676 588.444 582.009 588.632 581.231C588.817 580.438 589.129 579.658 589.57 578.891C590.233 577.735 590.98 576.82 591.81 576.144C592.646 575.459 593.468 575.076 594.278 574.993C595.079 574.904 595.998 575.058 597.037 575.455L595.968 578.088C595.149 577.759 594.374 577.738 593.642 578.027C592.916 578.307 592.275 578.932 591.718 579.903C591.06 581.049 590.779 581.977 590.875 582.688C590.972 583.398 591.273 583.901 591.78 584.196C592.102 584.384 592.45 584.452 592.825 584.399C593.209 584.351 593.613 584.161 594.037 583.829C594.273 583.633 594.906 583.022 595.938 581.995C597.421 580.503 598.514 579.499 599.215 578.983C599.913 578.453 600.662 578.155 601.461 578.091C602.26 578.027 603.083 578.241 603.931 578.736C604.759 579.219 605.402 579.921 605.857 580.84C606.309 581.746 606.474 582.774 606.354 583.925C606.225 585.071 605.829 586.222 605.166 587.378C604.067 589.291 602.833 590.521 601.463 591.066C600.098 591.602 598.557 591.555 596.842 590.925ZM611.503 575.565L594.247 571.513L595.727 568.935L605.54 571.531L609.191 572.495C609.055 572.366 608.193 571.524 606.603 569.967L599.356 562.612L600.829 560.047L610.603 562.806L613.829 563.707L611.483 561.209L604.45 553.738L605.842 551.312L617.87 564.473L616.382 567.066L606.252 564.284L603.425 563.394L613 572.958L611.503 575.565Z" fill="#46C147"/>
<path d="M574.337 345.395V449.719" stroke="#46C147" stroke-width="2.74323"/>
<path d="M647.892 345.395V449.719" stroke="#46C147" stroke-width="2.74323"/>
<path d="M573.329 427.756H623.71" stroke="#46C147" stroke-width="2.74323"/>
<path d="M570.307 427.756L592.419 433.247V422.265L570.307 427.756Z" fill="#46C147"/>
<path d="M647.838 427.756L625.725 433.247V422.265L647.838 427.756Z" fill="#46C147"/>
<path d="M596.762 469.223L593.884 469.448C593.627 468.312 593.263 467.487 592.791 466.972C592.009 466.147 591.045 465.735 589.898 465.735C588.977 465.735 588.168 465.992 587.471 466.506C586.56 467.17 585.842 468.14 585.317 469.415C584.792 470.691 584.519 472.507 584.497 474.864C585.194 473.804 586.046 473.016 587.053 472.502C588.06 471.987 589.116 471.73 590.22 471.73C592.149 471.73 593.788 472.443 595.138 473.868C596.499 475.282 597.18 477.115 597.18 479.365C597.18 480.844 596.858 482.221 596.215 483.496C595.583 484.76 594.71 485.73 593.595 486.405C592.481 487.08 591.216 487.418 589.802 487.418C587.391 487.418 585.424 486.534 583.903 484.766C582.381 482.987 581.62 480.062 581.62 475.99C581.62 471.435 582.461 468.124 584.144 466.056C585.612 464.256 587.589 463.356 590.075 463.356C591.929 463.356 593.445 463.875 594.624 464.915C595.813 465.954 596.526 467.39 596.762 469.223ZM584.948 479.381C584.948 480.378 585.156 481.331 585.574 482.242C586.003 483.153 586.598 483.85 587.359 484.332C588.119 484.803 588.918 485.039 589.754 485.039C590.975 485.039 592.025 484.546 592.904 483.56C593.783 482.574 594.222 481.235 594.222 479.542C594.222 477.913 593.788 476.632 592.92 475.7C592.052 474.757 590.959 474.286 589.641 474.286C588.334 474.286 587.225 474.757 586.314 475.7C585.403 476.632 584.948 477.859 584.948 479.381ZM599.719 481.921L602.58 481.471C602.741 482.617 603.186 483.496 603.914 484.107C604.654 484.718 605.683 485.023 607.001 485.023C608.329 485.023 609.315 484.755 609.958 484.219C610.601 483.673 610.923 483.035 610.923 482.306C610.923 481.653 610.639 481.138 610.071 480.763C609.674 480.506 608.688 480.179 607.113 479.783C604.991 479.247 603.518 478.786 602.693 478.401C601.878 478.004 601.257 477.463 600.828 476.777C600.41 476.081 600.201 475.314 600.201 474.479C600.201 473.718 600.373 473.016 600.716 472.373C601.069 471.719 601.546 471.178 602.146 470.75C602.596 470.417 603.207 470.139 603.979 469.914C604.761 469.678 605.597 469.56 606.486 469.56C607.826 469.56 608.999 469.753 610.006 470.139C611.024 470.524 611.774 471.05 612.257 471.714C612.739 472.368 613.071 473.246 613.253 474.35L610.424 474.736C610.296 473.857 609.921 473.171 609.299 472.678C608.688 472.185 607.82 471.939 606.695 471.939C605.366 471.939 604.418 472.159 603.85 472.598C603.282 473.037 602.998 473.552 602.998 474.141C602.998 474.516 603.116 474.854 603.352 475.154C603.588 475.464 603.957 475.722 604.461 475.925C604.75 476.032 605.602 476.279 607.017 476.665C609.063 477.211 610.489 477.661 611.292 478.015C612.107 478.358 612.744 478.861 613.205 479.526C613.666 480.19 613.896 481.015 613.896 482.001C613.896 482.965 613.612 483.876 613.044 484.734C612.487 485.58 611.678 486.239 610.617 486.711C609.556 487.171 608.356 487.402 607.017 487.402C604.798 487.402 603.105 486.941 601.937 486.019C600.78 485.098 600.041 483.732 599.719 481.921ZM620.486 487.016L615.262 469.946H618.252L620.969 479.799L621.981 483.464C622.024 483.282 622.319 482.108 622.865 479.944L625.582 469.946H628.555L631.111 479.847L631.963 483.11L632.943 479.815L635.869 469.946H638.682L633.345 487.016H630.339L627.623 476.793L626.964 473.884L623.508 487.016H620.486Z" fill="#46C147"/>
<path d="M766 615C766 612.239 768.239 610 771 610H926C928.761 610 931 612.239 931 615V636.25C931 639.012 928.761 641.25 926 641.25H771C768.239 641.25 766 639.012 766 636.25V615Z" fill="#0033A2"/>
<path d="M770.436 638.096L780.438 612.053H784.15L794.809 638.096H790.883L787.846 630.209H776.956L774.095 638.096H770.436ZM777.951 627.402H786.78L784.062 620.189C783.233 617.998 782.617 616.198 782.214 614.789C781.882 616.459 781.415 618.117 780.811 619.763L777.951 627.402ZM797.154 645.327V619.23H800.068V621.682C800.755 620.722 801.531 620.006 802.395 619.532C803.26 619.046 804.308 618.804 805.54 618.804C807.15 618.804 808.571 619.218 809.803 620.047C811.035 620.876 811.965 622.049 812.592 623.565C813.22 625.069 813.534 626.721 813.534 628.521C813.534 630.451 813.184 632.192 812.486 633.744C811.799 635.284 810.792 636.468 809.466 637.297C808.151 638.114 806.765 638.523 805.309 638.523C804.243 638.523 803.283 638.298 802.431 637.848C801.59 637.398 800.897 636.829 800.352 636.142V645.327H797.154ZM800.05 628.77C800.05 631.198 800.542 632.992 801.525 634.153C802.508 635.313 803.698 635.894 805.095 635.894C806.517 635.894 807.731 635.295 808.737 634.099C809.756 632.891 810.265 631.026 810.265 628.503C810.265 626.099 809.768 624.299 808.773 623.103C807.79 621.907 806.611 621.308 805.238 621.308C803.876 621.308 802.668 621.948 801.613 623.227C800.571 624.494 800.05 626.342 800.05 628.77ZM817.407 645.327V619.23H820.32V621.682C821.007 620.722 821.783 620.006 822.647 619.532C823.512 619.046 824.56 618.804 825.792 618.804C827.402 618.804 828.824 619.218 830.055 620.047C831.287 620.876 832.217 622.049 832.844 623.565C833.472 625.069 833.786 626.721 833.786 628.521C833.786 630.451 833.437 632.192 832.738 633.744C832.051 635.284 831.044 636.468 829.718 637.297C828.403 638.114 827.017 638.523 825.561 638.523C824.495 638.523 823.536 638.298 822.683 637.848C821.842 637.398 821.149 636.829 820.604 636.142V645.327H817.407ZM820.302 628.77C820.302 631.198 820.794 632.992 821.777 634.153C822.76 635.313 823.95 635.894 825.348 635.894C826.769 635.894 827.983 635.295 828.989 634.099C830.008 632.891 830.517 631.026 830.517 628.503C830.517 626.099 830.02 624.299 829.025 623.103C828.042 621.907 826.863 621.308 825.49 621.308C824.128 621.308 822.92 621.948 821.866 623.227C820.823 624.494 820.302 626.342 820.302 628.77ZM837.623 638.096V619.23H840.501V622.09C841.235 620.752 841.91 619.869 842.526 619.443C843.154 619.017 843.841 618.804 844.587 618.804C845.665 618.804 846.76 619.147 847.874 619.834L846.772 622.801C845.99 622.339 845.209 622.108 844.427 622.108C843.728 622.108 843.101 622.321 842.544 622.747C841.987 623.162 841.591 623.742 841.354 624.488C840.999 625.625 840.821 626.869 840.821 628.219V638.096H837.623ZM848.584 628.663C848.584 625.169 849.555 622.582 851.498 620.9C853.12 619.502 855.098 618.804 857.431 618.804C860.025 618.804 862.145 619.656 863.791 621.362C865.437 623.055 866.26 625.4 866.26 628.397C866.26 630.825 865.893 632.737 865.159 634.135C864.436 635.52 863.377 636.598 861.979 637.368C860.593 638.138 859.077 638.523 857.431 638.523C854.79 638.523 852.652 637.676 851.018 635.982C849.395 634.289 848.584 631.849 848.584 628.663ZM851.871 628.663C851.871 631.079 852.398 632.891 853.452 634.099C854.506 635.295 855.832 635.894 857.431 635.894C859.018 635.894 860.339 635.29 861.393 634.081C862.447 632.873 862.974 631.032 862.974 628.557C862.974 626.223 862.441 624.459 861.375 623.263C860.321 622.055 859.006 621.451 857.431 621.451C855.832 621.451 854.506 622.049 853.452 623.245C852.398 624.441 851.871 626.247 851.871 628.663ZM882.338 635.769C881.153 636.776 880.01 637.486 878.909 637.901C877.819 638.315 876.647 638.523 875.392 638.523C873.319 638.523 871.726 638.019 870.613 637.013C869.5 635.994 868.943 634.697 868.943 633.122C868.943 632.198 869.15 631.358 869.565 630.6C869.991 629.83 870.542 629.214 871.217 628.752C871.904 628.29 872.674 627.941 873.526 627.704C874.154 627.538 875.101 627.378 876.369 627.224C878.95 626.916 880.851 626.549 882.071 626.123C882.083 625.685 882.089 625.406 882.089 625.288C882.089 623.985 881.787 623.067 881.183 622.534C880.366 621.812 879.152 621.451 877.541 621.451C876.037 621.451 874.924 621.717 874.201 622.25C873.491 622.771 872.964 623.701 872.62 625.039L869.494 624.613C869.778 623.274 870.246 622.197 870.897 621.38C871.548 620.55 872.49 619.917 873.722 619.479C874.953 619.029 876.38 618.804 878.003 618.804C879.614 618.804 880.922 618.993 881.929 619.372C882.936 619.751 883.676 620.231 884.15 620.811C884.623 621.38 884.955 622.102 885.145 622.978C885.251 623.523 885.304 624.506 885.304 625.927V630.191C885.304 633.164 885.37 635.047 885.5 635.84C885.642 636.622 885.914 637.374 886.317 638.096H882.977C882.646 637.433 882.432 636.657 882.338 635.769ZM882.071 628.628C880.911 629.101 879.17 629.504 876.848 629.836C875.534 630.025 874.604 630.238 874.059 630.475C873.514 630.712 873.094 631.061 872.798 631.523C872.502 631.973 872.354 632.477 872.354 633.033C872.354 633.886 872.674 634.597 873.313 635.165C873.964 635.734 874.912 636.018 876.155 636.018C877.387 636.018 878.483 635.751 879.442 635.218C880.401 634.674 881.106 633.933 881.556 632.998C881.899 632.275 882.071 631.209 882.071 629.8V628.628ZM902.59 631.186L905.734 631.594C905.391 633.762 904.508 635.461 903.087 636.693C901.678 637.913 899.943 638.523 897.882 638.523C895.3 638.523 893.222 637.682 891.647 636C890.083 634.307 889.302 631.885 889.302 628.734C889.302 626.697 889.639 624.915 890.314 623.387C890.989 621.859 892.014 620.716 893.388 619.958C894.773 619.188 896.277 618.804 897.9 618.804C899.949 618.804 901.625 619.325 902.927 620.367C904.23 621.397 905.065 622.866 905.432 624.773L902.323 625.252C902.027 623.985 901.5 623.032 900.742 622.392C899.996 621.753 899.09 621.433 898.024 621.433C896.413 621.433 895.105 622.013 894.098 623.174C893.091 624.323 892.588 626.146 892.588 628.645C892.588 631.18 893.074 633.022 894.045 634.17C895.016 635.319 896.283 635.894 897.847 635.894C899.102 635.894 900.15 635.509 900.991 634.739C901.832 633.969 902.365 632.785 902.59 631.186ZM908.47 638.096V612.053H911.668V621.397C913.16 619.668 915.043 618.804 917.317 618.804C918.714 618.804 919.928 619.082 920.959 619.639C921.989 620.183 922.723 620.941 923.162 621.912C923.612 622.884 923.837 624.293 923.837 626.141V638.096H920.639V626.141C920.639 624.542 920.29 623.381 919.591 622.659C918.904 621.924 917.927 621.557 916.66 621.557C915.712 621.557 914.818 621.806 913.977 622.303C913.148 622.789 912.556 623.452 912.201 624.293C911.845 625.134 911.668 626.294 911.668 627.775V638.096H908.47Z" fill="white"/>
<path d="M648.9 605.597H764.989" stroke="#FF0000" stroke-width="3.03189"/>
<path d="M648.9 692.665H764.989" stroke="#FF0000" stroke-width="3.03189"/>
<path d="M740.549 608.599V688.662" stroke="#FF0000" stroke-width="3.03189"/>
<path d="M740.549 605.597L746.659 629.871H734.439L740.549 605.597Z" fill="#FF0000"/>
<path d="M740.549 692.92L746.659 668.646H734.439L740.549 692.92Z" fill="#FF0000"/>
<path d="M784.019 685.633V666.766H786.879V669.413C787.471 668.49 788.259 667.749 789.242 667.193C790.225 666.624 791.344 666.34 792.599 666.34C793.997 666.34 795.14 666.63 796.028 667.21C796.928 667.791 797.562 668.602 797.929 669.644C799.421 667.441 801.364 666.34 803.756 666.34C805.627 666.34 807.066 666.861 808.073 667.903C809.079 668.934 809.583 670.527 809.583 672.682V685.633H806.403V673.748C806.403 672.469 806.296 671.551 806.083 670.994C805.882 670.426 805.509 669.97 804.964 669.627C804.419 669.283 803.78 669.111 803.045 669.111C801.719 669.111 800.617 669.555 799.741 670.444C798.865 671.32 798.426 672.729 798.426 674.672V685.633H795.229V673.375C795.229 671.954 794.968 670.888 794.447 670.177C793.926 669.467 793.073 669.111 791.889 669.111C790.989 669.111 790.154 669.348 789.384 669.822C788.626 670.296 788.075 670.989 787.732 671.9C787.388 672.812 787.217 674.127 787.217 675.844V685.633H784.019ZM814.344 663.267V659.589H817.542V663.267H814.344ZM814.344 685.633V666.766H817.542V685.633H814.344ZM822.427 685.633V666.766H825.305V669.449C826.691 667.376 828.692 666.34 831.309 666.34C832.446 666.34 833.489 666.547 834.436 666.962C835.395 667.364 836.112 667.897 836.586 668.561C837.059 669.224 837.391 670.011 837.58 670.923C837.699 671.516 837.758 672.552 837.758 674.032V685.633H834.56V674.157C834.56 672.854 834.436 671.883 834.187 671.243C833.939 670.592 833.495 670.077 832.855 669.698C832.227 669.307 831.487 669.111 830.634 669.111C829.272 669.111 828.094 669.544 827.099 670.408C826.116 671.273 825.625 672.913 825.625 675.329V685.633H822.427ZM843.585 685.633V681.991H847.227V685.633H843.585ZM862.256 663V659.927H879.115V662.414C877.457 664.179 875.811 666.524 874.176 669.449C872.554 672.374 871.298 675.382 870.41 678.474C869.771 680.653 869.362 683.039 869.184 685.633H865.898C865.933 683.584 866.336 681.109 867.106 678.207C867.876 675.305 868.977 672.51 870.41 669.822C871.855 667.122 873.389 664.848 875.011 663H862.256ZM881.904 680.001L885.066 679.504C885.244 680.771 885.735 681.742 886.541 682.417C887.358 683.092 888.495 683.43 889.952 683.43C891.42 683.43 892.51 683.134 893.22 682.542C893.931 681.938 894.286 681.233 894.286 680.428C894.286 679.705 893.973 679.137 893.345 678.722C892.907 678.438 891.817 678.077 890.076 677.639C887.731 677.046 886.103 676.537 885.191 676.111C884.291 675.673 883.604 675.074 883.13 674.317C882.668 673.547 882.437 672.7 882.437 671.776C882.437 670.935 882.627 670.159 883.006 669.449C883.396 668.726 883.923 668.128 884.587 667.655C885.084 667.287 885.759 666.98 886.612 666.731C887.476 666.47 888.4 666.34 889.383 666.34C890.864 666.34 892.16 666.553 893.274 666.98C894.399 667.406 895.228 667.986 895.761 668.721C896.294 669.443 896.661 670.414 896.862 671.634L893.736 672.06C893.594 671.089 893.179 670.331 892.492 669.786C891.817 669.242 890.858 668.969 889.614 668.969C888.146 668.969 887.097 669.212 886.47 669.698C885.842 670.183 885.528 670.752 885.528 671.403C885.528 671.818 885.658 672.191 885.919 672.522C886.18 672.866 886.588 673.15 887.145 673.375C887.465 673.493 888.406 673.766 889.969 674.192C892.232 674.796 893.807 675.294 894.695 675.684C895.595 676.063 896.3 676.62 896.809 677.354C897.318 678.089 897.573 679.001 897.573 680.09C897.573 681.156 897.259 682.163 896.631 683.11C896.015 684.046 895.121 684.774 893.949 685.295C892.776 685.805 891.45 686.059 889.969 686.059C887.518 686.059 885.647 685.55 884.356 684.531C883.077 683.513 882.259 682.003 881.904 680.001ZM904.857 685.633L899.083 666.766H902.387L905.39 677.656L906.509 681.707C906.556 681.505 906.882 680.209 907.486 677.816L910.488 666.766H913.775L916.599 677.71L917.541 681.316L918.624 677.674L921.858 666.766H924.967L919.069 685.633H915.747L912.744 674.334L912.016 671.119L908.196 685.633H904.857Z" fill="#FF0000"/>
<path d="M275 141.236H391.088" stroke="#FF0000" stroke-width="3.03189"/>
<path d="M275 291.353H391.088" stroke="#FF0000" stroke-width="3.03189"/>
<path d="M366.648 144.238V273.339" stroke="#FF0000" stroke-width="3.03189"/>
<path d="M366.649 141.236L372.758 165.51H360.539L366.649 141.236Z" fill="#FF0000"/>
<path d="M366.649 291.608L372.758 267.334H360.539L366.649 291.608Z" fill="#FF0000"/>
<path d="M403.56 199.254V179.409H406.506V182.509H406.764C407.177 181.45 407.845 180.627 408.767 180.042C409.688 179.447 410.795 179.15 412.087 179.15C413.396 179.15 414.486 179.447 415.356 180.042C416.234 180.627 416.919 181.45 417.41 182.509H417.617C418.125 181.484 418.887 180.67 419.904 180.067C420.92 179.456 422.139 179.15 423.56 179.15C425.334 179.15 426.786 179.706 427.914 180.817C429.042 181.919 429.607 183.638 429.607 185.972V199.254H426.557V185.972C426.557 184.508 426.157 183.461 425.356 182.832C424.555 182.204 423.612 181.889 422.526 181.889C421.131 181.889 420.05 182.311 419.283 183.155C418.517 183.991 418.134 185.05 418.134 186.334V199.254H415.033V185.662C415.033 184.533 414.667 183.625 413.935 182.936C413.202 182.238 412.259 181.889 411.105 181.889C410.313 181.889 409.572 182.1 408.883 182.522C408.202 182.944 407.651 183.53 407.229 184.279C406.816 185.02 406.609 185.877 406.609 186.85V199.254H403.56ZM435.182 199.254V179.409H438.231V199.254H435.182ZM436.732 176.101C436.138 176.101 435.625 175.899 435.194 175.494C434.772 175.089 434.561 174.602 434.561 174.034C434.561 173.465 434.772 172.979 435.194 172.574C435.625 172.169 436.138 171.967 436.732 171.967C437.326 171.967 437.834 172.169 438.256 172.574C438.687 172.979 438.902 173.465 438.902 174.034C438.902 174.602 438.687 175.089 438.256 175.494C437.834 175.899 437.326 176.101 436.732 176.101ZM446.864 187.316V199.254H443.815V179.409H446.761V182.509H447.019C447.485 181.502 448.191 180.692 449.138 180.08C450.086 179.46 451.309 179.15 452.808 179.15C454.151 179.15 455.327 179.426 456.335 179.977C457.343 180.52 458.126 181.347 458.686 182.458C459.246 183.56 459.526 184.956 459.526 186.644V199.254H456.477V186.85C456.477 185.291 456.072 184.077 455.262 183.207C454.453 182.328 453.342 181.889 451.929 181.889C450.956 181.889 450.086 182.1 449.319 182.522C448.561 182.944 447.963 183.56 447.523 184.37C447.084 185.179 446.864 186.161 446.864 187.316ZM467.32 199.46C466.683 199.46 466.136 199.232 465.679 198.776C465.223 198.319 464.994 197.772 464.994 197.135C464.994 196.497 465.223 195.95 465.679 195.494C466.136 195.037 466.683 194.809 467.32 194.809C467.957 194.809 468.504 195.037 468.961 195.494C469.417 195.95 469.646 196.497 469.646 197.135C469.646 197.557 469.538 197.944 469.323 198.298C469.116 198.651 468.836 198.935 468.483 199.15C468.138 199.357 467.751 199.46 467.32 199.46ZM404.834 216.794V243.254H401.63V220.153H401.475L395.015 224.442V221.186L401.63 216.794H404.834ZM412.444 243.254V240.928L421.178 231.367C422.203 230.248 423.047 229.274 423.71 228.447C424.373 227.612 424.864 226.828 425.183 226.096C425.51 225.355 425.674 224.58 425.674 223.77C425.674 222.84 425.45 222.035 425.002 221.354C424.563 220.674 423.96 220.148 423.193 219.778C422.427 219.408 421.565 219.222 420.609 219.222C419.593 219.222 418.706 219.433 417.948 219.856C417.198 220.269 416.617 220.85 416.204 221.6C415.799 222.349 415.596 223.228 415.596 224.235H412.547C412.547 222.685 412.905 221.324 413.62 220.153C414.335 218.981 415.308 218.068 416.54 217.414C417.78 216.759 419.171 216.432 420.713 216.432C422.263 216.432 423.637 216.759 424.834 217.414C426.031 218.068 426.97 218.951 427.651 220.062C428.331 221.173 428.671 222.409 428.671 223.77C428.671 224.744 428.495 225.695 428.142 226.626C427.797 227.547 427.194 228.577 426.333 229.714C425.48 230.842 424.296 232.22 422.78 233.848L416.837 240.205V240.411H429.137V243.254H412.444ZM448.581 227.853L445.842 228.628C445.67 228.172 445.416 227.728 445.08 227.297C444.753 226.858 444.305 226.496 443.736 226.212C443.168 225.928 442.44 225.786 441.553 225.786C440.338 225.786 439.326 226.066 438.516 226.626C437.715 227.177 437.315 227.879 437.315 228.732C437.315 229.49 437.591 230.088 438.142 230.527C438.693 230.967 439.554 231.333 440.726 231.626L443.672 232.349C445.446 232.78 446.768 233.439 447.638 234.326C448.508 235.205 448.943 236.337 448.943 237.724C448.943 238.861 448.616 239.877 447.961 240.773C447.315 241.669 446.411 242.375 445.248 242.892C444.085 243.409 442.733 243.667 441.191 243.667C439.167 243.667 437.492 243.228 436.165 242.349C434.839 241.471 433.999 240.187 433.646 238.499L436.54 237.776C436.815 238.844 437.336 239.645 438.103 240.179C438.878 240.713 439.89 240.98 441.139 240.98C442.56 240.98 443.689 240.678 444.524 240.075C445.368 239.464 445.79 238.732 445.79 237.879C445.79 237.19 445.549 236.613 445.067 236.148C444.585 235.674 443.844 235.321 442.845 235.088L439.537 234.313C437.72 233.882 436.385 233.215 435.532 232.31C434.688 231.397 434.266 230.256 434.266 228.887C434.266 227.767 434.58 226.776 435.209 225.915C435.846 225.054 436.712 224.378 437.806 223.887C438.908 223.396 440.157 223.15 441.553 223.15C443.517 223.15 445.058 223.581 446.178 224.442C447.306 225.303 448.107 226.44 448.581 227.853ZM458.029 243.254L451.982 223.409H455.187L459.476 238.602H459.683L463.92 223.409H467.176L471.362 238.551H471.569L475.859 223.409H479.063L473.016 243.254H470.019L465.678 228.008H465.367L461.026 243.254H458.029Z" fill="#FF0000"/>
<path d="M624.637 699.33L624.636 769.385" stroke="#E38D04" stroke-width="3.03189"/>
<path d="M624.637 767.883L644.136 767.883" stroke="#E38D04" stroke-width="3.03189"/>
<path d="M634.636 700.147L624.636 674.311L614.636 700.147L634.636 700.147Z" fill="#E38D04"/>
<path d="M662.289 769.697H658.93L668.646 743.237H671.954L681.669 769.697H678.31L670.403 747.423H670.196L662.289 769.697ZM663.53 759.361H677.07V762.204H663.53V759.361ZM685.377 769.697V749.852H688.323V752.85H688.53C688.892 751.868 689.546 751.071 690.494 750.459C691.441 749.848 692.509 749.542 693.698 749.542C693.922 749.542 694.202 749.546 694.538 749.555C694.874 749.564 695.128 749.577 695.3 749.594V752.695C695.197 752.669 694.96 752.63 694.589 752.578C694.228 752.518 693.844 752.488 693.44 752.488C692.475 752.488 691.614 752.69 690.856 753.095C690.106 753.491 689.512 754.043 689.073 754.749C688.642 755.446 688.427 756.243 688.427 757.139V769.697H685.377ZM698.914 769.697V749.852H701.86V752.85H702.067C702.429 751.868 703.083 751.071 704.031 750.459C704.978 749.848 706.046 749.542 707.235 749.542C707.459 749.542 707.739 749.546 708.075 749.555C708.411 749.564 708.665 749.577 708.837 749.594V752.695C708.734 752.669 708.497 752.63 708.126 752.578C707.765 752.518 707.381 752.488 706.976 752.488C706.012 752.488 705.15 752.69 704.392 753.095C703.643 753.491 703.049 754.043 702.61 754.749C702.179 755.446 701.964 756.243 701.964 757.139V769.697H698.914ZM719.909 770.111C718.118 770.111 716.546 769.684 715.194 768.832C713.85 767.979 712.799 766.786 712.041 765.253C711.292 763.72 710.917 761.928 710.917 759.878C710.917 757.811 711.292 756.006 712.041 754.465C712.799 752.923 713.85 751.726 715.194 750.873C716.546 750.02 718.118 749.594 719.909 749.594C721.701 749.594 723.269 750.02 724.612 750.873C725.965 751.726 727.015 752.923 727.765 754.465C728.523 756.006 728.902 757.811 728.902 759.878C728.902 761.928 728.523 763.72 727.765 765.253C727.015 766.786 725.965 767.979 724.612 768.832C723.269 769.684 721.701 770.111 719.909 770.111ZM719.909 767.372C721.27 767.372 722.39 767.023 723.269 766.325C724.147 765.627 724.797 764.71 725.22 763.573C725.642 762.436 725.853 761.205 725.853 759.878C725.853 758.552 725.642 757.316 725.22 756.17C724.797 755.024 724.147 754.099 723.269 753.392C722.39 752.686 721.27 752.333 719.909 752.333C718.549 752.333 717.429 752.686 716.55 753.392C715.672 754.099 715.021 755.024 714.599 756.17C714.177 757.316 713.966 758.552 713.966 759.878C713.966 761.205 714.177 762.436 714.599 763.573C715.021 764.71 715.672 765.627 716.55 766.325C717.429 767.023 718.549 767.372 719.909 767.372ZM737.377 769.697L731.331 749.852H734.535L738.824 765.046H739.031L743.269 749.852H746.525L750.711 764.994H750.917L755.207 749.852H758.411L752.364 769.697H749.367L745.026 754.452H744.716L740.375 769.697H737.377ZM787.559 749.852C787.404 748.543 786.775 747.527 785.672 746.803C784.57 746.079 783.217 745.718 781.615 745.718C780.444 745.718 779.419 745.907 778.54 746.286C777.67 746.665 776.99 747.186 776.499 747.85C776.017 748.513 775.776 749.266 775.776 750.111C775.776 750.817 775.943 751.424 776.279 751.932C776.624 752.432 777.063 752.85 777.597 753.185C778.131 753.513 778.691 753.784 779.277 753.999C779.863 754.206 780.401 754.374 780.892 754.503L783.579 755.227C784.268 755.408 785.035 755.658 785.879 755.976C786.732 756.295 787.546 756.73 788.321 757.281C789.105 757.824 789.751 758.521 790.259 759.374C790.767 760.227 791.021 761.273 791.021 762.514C791.021 763.944 790.646 765.236 789.897 766.39C789.156 767.544 788.071 768.461 786.641 769.142C785.22 769.822 783.493 770.162 781.46 770.162C779.565 770.162 777.925 769.857 776.538 769.245C775.16 768.634 774.074 767.781 773.282 766.687C772.498 765.593 772.055 764.323 771.951 762.876H775.259C775.345 763.875 775.681 764.702 776.266 765.356C776.861 766.002 777.61 766.484 778.515 766.803C779.428 767.113 780.41 767.268 781.46 767.268C782.683 767.268 783.782 767.07 784.755 766.674C785.728 766.269 786.499 765.709 787.068 764.994C787.636 764.271 787.92 763.427 787.92 762.462C787.92 761.584 787.675 760.869 787.184 760.317C786.693 759.766 786.047 759.318 785.246 758.974C784.445 758.629 783.579 758.328 782.649 758.069L779.393 757.139C777.326 756.545 775.689 755.696 774.484 754.594C773.278 753.491 772.675 752.049 772.675 750.266C772.675 748.784 773.075 747.492 773.876 746.39C774.686 745.278 775.771 744.417 777.132 743.806C778.502 743.185 780.031 742.875 781.719 742.875C783.424 742.875 784.94 743.181 786.267 743.793C787.593 744.396 788.644 745.222 789.419 746.273C790.203 747.324 790.616 748.517 790.659 749.852H787.559ZM798.925 757.759V769.697H795.876V743.237H798.925V752.953H799.183C799.648 751.928 800.346 751.114 801.276 750.511C802.215 749.9 803.464 749.594 805.023 749.594C806.375 749.594 807.56 749.865 808.576 750.408C809.593 750.942 810.381 751.764 810.941 752.875C811.509 753.978 811.793 755.382 811.793 757.087V769.697H808.744V757.294C808.744 755.718 808.335 754.499 807.517 753.638C806.707 752.768 805.583 752.333 804.145 752.333C803.145 752.333 802.25 752.544 801.457 752.966C800.673 753.388 800.053 754.004 799.597 754.813C799.149 755.623 798.925 756.605 798.925 757.759ZM823.211 770.162C821.954 770.162 820.813 769.926 819.788 769.452C818.763 768.969 817.949 768.276 817.346 767.372C816.743 766.459 816.441 765.356 816.441 764.064C816.441 762.927 816.665 762.006 817.113 761.299C817.561 760.584 818.16 760.024 818.909 759.62C819.658 759.215 820.485 758.913 821.39 758.715C822.303 758.509 823.22 758.345 824.142 758.224C825.347 758.069 826.325 757.953 827.074 757.875C827.832 757.789 828.384 757.647 828.728 757.449C829.081 757.251 829.258 756.906 829.258 756.415V756.312C829.258 755.037 828.909 754.047 828.211 753.341C827.522 752.634 826.476 752.281 825.072 752.281C823.616 752.281 822.475 752.6 821.648 753.237C820.821 753.875 820.24 754.555 819.904 755.279L817.01 754.245C817.527 753.039 818.216 752.1 819.077 751.428C819.947 750.748 820.894 750.274 821.919 750.007C822.953 749.732 823.969 749.594 824.968 749.594C825.606 749.594 826.338 749.671 827.165 749.826C828 749.973 828.806 750.278 829.581 750.744C830.365 751.209 831.015 751.911 831.532 752.85C832.049 753.788 832.307 755.046 832.307 756.622V769.697H829.258V767.01H829.103C828.896 767.441 828.552 767.901 828.069 768.392C827.587 768.883 826.945 769.301 826.144 769.646C825.343 769.99 824.366 770.162 823.211 770.162ZM823.676 767.423C824.882 767.423 825.899 767.186 826.726 766.713C827.561 766.239 828.19 765.627 828.612 764.878C829.043 764.129 829.258 763.341 829.258 762.514V759.723C829.129 759.878 828.844 760.02 828.405 760.149C827.975 760.27 827.475 760.378 826.906 760.472C826.347 760.559 825.8 760.636 825.266 760.705C824.74 760.765 824.314 760.817 823.987 760.86C823.194 760.963 822.453 761.131 821.764 761.364C821.084 761.588 820.533 761.928 820.111 762.385C819.697 762.832 819.49 763.444 819.49 764.219C819.49 765.279 819.882 766.08 820.666 766.622C821.459 767.156 822.462 767.423 823.676 767.423ZM837.872 777.139V749.852H840.818V753.005H841.18C841.404 752.66 841.714 752.221 842.11 751.687C842.515 751.144 843.092 750.662 843.841 750.24C844.599 749.809 845.624 749.594 846.916 749.594C848.587 749.594 850.06 750.011 851.335 750.847C852.61 751.682 853.605 752.867 854.319 754.4C855.034 755.933 855.392 757.742 855.392 759.826C855.392 761.928 855.034 763.75 854.319 765.292C853.605 766.825 852.614 768.013 851.348 768.857C850.082 769.693 848.622 770.111 846.968 770.111C845.693 770.111 844.673 769.9 843.906 769.478C843.139 769.047 842.549 768.56 842.136 768.018C841.722 767.466 841.404 767.01 841.18 766.648H840.921V777.139H837.872ZM840.87 759.775C840.87 761.273 841.089 762.596 841.529 763.741C841.968 764.878 842.61 765.77 843.454 766.416C844.298 767.053 845.331 767.372 846.555 767.372C847.829 767.372 848.893 767.036 849.746 766.364C850.607 765.683 851.253 764.77 851.684 763.625C852.123 762.471 852.343 761.187 852.343 759.775C852.343 758.379 852.127 757.122 851.697 756.002C851.275 754.874 850.633 753.982 849.772 753.328C848.919 752.664 847.847 752.333 846.555 752.333C845.314 752.333 844.272 752.647 843.428 753.276C842.584 753.896 841.946 754.766 841.516 755.886C841.085 756.997 840.87 758.293 840.87 759.775ZM868.364 770.111C866.451 770.111 864.802 769.689 863.415 768.845C862.037 767.992 860.973 766.803 860.224 765.279C859.483 763.745 859.113 761.962 859.113 759.93C859.113 757.897 859.483 756.105 860.224 754.555C860.973 752.996 862.015 751.782 863.351 750.912C864.694 750.033 866.262 749.594 868.053 749.594C869.087 749.594 870.108 749.766 871.115 750.111C872.123 750.455 873.041 751.015 873.867 751.79C874.694 752.557 875.353 753.573 875.844 754.839C876.335 756.105 876.581 757.664 876.581 759.516V760.808H861.283V758.173H873.48C873.48 757.053 873.256 756.054 872.808 755.175C872.369 754.297 871.74 753.603 870.922 753.095C870.112 752.587 869.156 752.333 868.053 752.333C866.839 752.333 865.788 752.634 864.901 753.237C864.022 753.831 863.346 754.607 862.873 755.563C862.399 756.519 862.162 757.544 862.162 758.638V760.395C862.162 761.894 862.42 763.164 862.937 764.206C863.463 765.24 864.19 766.028 865.121 766.571C866.051 767.105 867.132 767.372 868.364 767.372C869.165 767.372 869.888 767.26 870.534 767.036C871.189 766.803 871.753 766.459 872.227 766.002C872.7 765.537 873.066 764.96 873.325 764.271L876.271 765.098C875.96 766.097 875.439 766.975 874.707 767.733C873.975 768.483 873.071 769.068 871.994 769.491C870.917 769.904 869.707 770.111 868.364 770.111Z" fill="#E38D04"/>
<path d="M515 566.227L515 636.281" stroke="#E38D04" stroke-width="3.03189"/>
<path d="M515 634.78L495.5 634.78" stroke="#E38D04" stroke-width="3.03189"/>
<path d="M505 567.043L515 541.207L525 567.043L505 567.043Z" fill="#E38D04"/>
<path d="M344.675 625.756C344.519 624.446 343.891 623.43 342.788 622.707C341.686 621.983 340.333 621.621 338.731 621.621C337.56 621.621 336.535 621.811 335.656 622.19C334.786 622.569 334.106 623.09 333.615 623.753C333.133 624.416 332.891 625.17 332.891 626.014C332.891 626.72 333.059 627.328 333.395 627.836C333.74 628.335 334.179 628.753 334.713 629.089C335.247 629.416 335.807 629.688 336.393 629.903C336.979 630.11 337.517 630.278 338.008 630.407L340.695 631.13C341.384 631.311 342.151 631.561 342.995 631.88C343.848 632.198 344.662 632.633 345.437 633.185C346.221 633.727 346.867 634.425 347.375 635.278C347.883 636.13 348.137 637.177 348.137 638.417C348.137 639.847 347.762 641.139 347.013 642.293C346.272 643.447 345.187 644.365 343.757 645.045C342.336 645.726 340.609 646.066 338.576 646.066C336.681 646.066 335.041 645.76 333.654 645.149C332.276 644.537 331.19 643.684 330.398 642.59C329.614 641.497 329.171 640.226 329.067 638.779H332.375C332.461 639.778 332.797 640.605 333.382 641.26C333.977 641.906 334.726 642.388 335.631 642.707C336.544 643.017 337.525 643.172 338.576 643.172C339.799 643.172 340.898 642.974 341.871 642.577C342.844 642.173 343.615 641.613 344.184 640.898C344.752 640.174 345.036 639.33 345.036 638.366C345.036 637.487 344.791 636.772 344.3 636.221C343.809 635.67 343.163 635.222 342.362 634.877C341.561 634.533 340.695 634.231 339.765 633.973L336.509 633.043C334.442 632.448 332.805 631.6 331.599 630.497C330.394 629.395 329.791 627.952 329.791 626.169C329.791 624.688 330.191 623.396 330.992 622.293C331.802 621.182 332.887 620.321 334.248 619.709C335.618 619.089 337.146 618.779 338.835 618.779C340.54 618.779 342.056 619.085 343.383 619.696C344.709 620.299 345.76 621.126 346.535 622.177C347.319 623.228 347.732 624.421 347.775 625.756H344.675ZM352.992 645.601V625.756H356.041V645.601H352.992ZM354.542 622.448C353.948 622.448 353.435 622.246 353.005 621.841C352.583 621.436 352.372 620.949 352.372 620.381C352.372 619.812 352.583 619.326 353.005 618.921C353.435 618.516 353.948 618.314 354.542 618.314C355.137 618.314 355.645 618.516 356.067 618.921C356.497 619.326 356.713 619.812 356.713 620.381C356.713 620.949 356.497 621.436 356.067 621.841C355.645 622.246 355.137 622.448 354.542 622.448ZM369.119 646.014C367.465 646.014 366.005 645.596 364.739 644.761C363.473 643.917 362.483 642.728 361.768 641.195C361.053 639.653 360.695 637.832 360.695 635.73C360.695 633.645 361.053 631.837 361.768 630.303C362.483 628.77 363.477 627.586 364.752 626.75C366.027 625.915 367.5 625.497 369.171 625.497C370.463 625.497 371.484 625.713 372.233 626.143C372.991 626.565 373.568 627.048 373.964 627.59C374.369 628.124 374.683 628.564 374.907 628.908H375.166V619.141H378.215V645.601H375.269V642.552H374.907C374.683 642.913 374.365 643.37 373.951 643.921C373.538 644.464 372.948 644.95 372.181 645.381C371.415 645.803 370.394 646.014 369.119 646.014ZM369.533 643.275C370.756 643.275 371.789 642.956 372.633 642.319C373.478 641.673 374.119 640.782 374.559 639.645C374.998 638.499 375.217 637.177 375.217 635.678C375.217 634.197 375.002 632.9 374.571 631.789C374.141 630.67 373.503 629.8 372.659 629.179C371.815 628.551 370.773 628.236 369.533 628.236C368.241 628.236 367.164 628.568 366.303 629.231C365.45 629.886 364.808 630.777 364.378 631.906C363.955 633.025 363.744 634.283 363.744 635.678C363.744 637.091 363.96 638.374 364.39 639.528C364.83 640.674 365.476 641.587 366.328 642.267C367.19 642.939 368.258 643.275 369.533 643.275ZM392.543 646.014C390.631 646.014 388.982 645.592 387.595 644.748C386.217 643.895 385.153 642.707 384.404 641.182C383.663 639.649 383.292 637.866 383.292 635.833C383.292 633.8 383.663 632.009 384.404 630.459C385.153 628.9 386.195 627.685 387.53 626.815C388.874 625.937 390.442 625.497 392.233 625.497C393.267 625.497 394.287 625.67 395.295 626.014C396.303 626.359 397.22 626.918 398.047 627.694C398.874 628.46 399.533 629.477 400.024 630.743C400.515 632.009 400.76 633.568 400.76 635.42V636.712H385.463V634.076H397.659C397.659 632.956 397.436 631.957 396.988 631.079C396.548 630.2 395.92 629.507 395.101 628.999C394.292 628.49 393.336 628.236 392.233 628.236C391.019 628.236 389.968 628.538 389.081 629.141C388.202 629.735 387.526 630.51 387.052 631.466C386.578 632.422 386.342 633.447 386.342 634.541V636.298C386.342 637.797 386.6 639.068 387.117 640.11C387.642 641.143 388.37 641.931 389.3 642.474C390.23 643.008 391.311 643.275 392.543 643.275C393.344 643.275 394.068 643.163 394.714 642.939C395.368 642.707 395.933 642.362 396.406 641.906C396.88 641.441 397.246 640.863 397.504 640.174L400.45 641.001C400.14 642 399.619 642.879 398.887 643.637C398.155 644.386 397.25 644.972 396.174 645.394C395.097 645.807 393.887 646.014 392.543 646.014ZM405.812 645.601V619.141H414.753C416.82 619.141 418.517 619.494 419.843 620.2C421.17 620.898 422.152 621.858 422.789 623.081C423.426 624.304 423.745 625.695 423.745 627.254C423.745 628.813 423.426 630.196 422.789 631.402C422.152 632.608 421.174 633.555 419.856 634.244C418.538 634.925 416.854 635.265 414.804 635.265H407.569V632.371H414.701C416.114 632.371 417.251 632.164 418.112 631.751C418.982 631.337 419.611 630.751 419.998 629.993C420.394 629.227 420.592 628.314 420.592 627.254C420.592 626.195 420.394 625.269 419.998 624.477C419.602 623.684 418.969 623.073 418.099 622.642C417.229 622.203 416.079 621.983 414.649 621.983H409.016V645.601H405.812ZM418.267 633.714L424.779 645.601H421.058L414.649 633.714H418.267ZM436.52 646.014C434.728 646.014 433.156 645.588 431.804 644.735C430.46 643.882 429.409 642.689 428.651 641.156C427.902 639.623 427.527 637.832 427.527 635.782C427.527 633.714 427.902 631.91 428.651 630.368C429.409 628.826 430.46 627.629 431.804 626.776C433.156 625.924 434.728 625.497 436.52 625.497C438.311 625.497 439.879 625.924 441.223 626.776C442.575 627.629 443.626 628.826 444.375 630.368C445.133 631.91 445.512 633.714 445.512 635.782C445.512 637.832 445.133 639.623 444.375 641.156C443.626 642.689 442.575 643.882 441.223 644.735C439.879 645.588 438.311 646.014 436.52 646.014ZM436.52 643.275C437.881 643.275 439 642.926 439.879 642.229C440.757 641.531 441.408 640.614 441.83 639.477C442.252 638.34 442.463 637.108 442.463 635.782C442.463 634.455 442.252 633.219 441.83 632.074C441.408 630.928 440.757 630.002 439.879 629.296C439 628.589 437.881 628.236 436.52 628.236C435.159 628.236 434.039 628.589 433.16 629.296C432.282 630.002 431.632 630.928 431.21 632.074C430.787 633.219 430.576 634.455 430.576 635.782C430.576 637.108 430.787 638.34 431.21 639.477C431.632 640.614 432.282 641.531 433.16 642.229C434.039 642.926 435.159 643.275 436.52 643.275ZM456.006 646.066C454.749 646.066 453.607 645.829 452.582 645.355C451.557 644.873 450.743 644.18 450.141 643.275C449.538 642.362 449.236 641.26 449.236 639.968C449.236 638.831 449.46 637.909 449.908 637.203C450.356 636.488 450.955 635.928 451.704 635.523C452.453 635.118 453.28 634.817 454.185 634.619C455.098 634.412 456.015 634.248 456.936 634.128C458.142 633.973 459.12 633.856 459.869 633.779C460.627 633.693 461.179 633.551 461.523 633.353C461.876 633.154 462.053 632.81 462.053 632.319V632.216C462.053 630.941 461.704 629.95 461.006 629.244C460.317 628.538 459.271 628.185 457.867 628.185C456.411 628.185 455.27 628.503 454.443 629.141C453.616 629.778 453.035 630.459 452.699 631.182L449.805 630.148C450.321 628.943 451.01 628.004 451.872 627.332C452.742 626.651 453.689 626.178 454.714 625.911C455.748 625.635 456.764 625.497 457.763 625.497C458.401 625.497 459.133 625.575 459.96 625.73C460.795 625.876 461.601 626.182 462.376 626.647C463.16 627.112 463.81 627.814 464.327 628.753C464.844 629.692 465.102 630.949 465.102 632.526V645.601H462.053V642.913H461.898C461.691 643.344 461.346 643.805 460.864 644.296C460.382 644.787 459.74 645.205 458.939 645.549C458.138 645.894 457.16 646.066 456.006 646.066ZM456.471 643.327C457.677 643.327 458.694 643.09 459.52 642.616C460.356 642.143 460.985 641.531 461.407 640.782C461.837 640.032 462.053 639.244 462.053 638.417V635.627C461.924 635.782 461.639 635.924 461.2 636.053C460.769 636.173 460.27 636.281 459.701 636.376C459.141 636.462 458.595 636.54 458.061 636.608C457.535 636.669 457.109 636.72 456.781 636.763C455.989 636.867 455.248 637.035 454.559 637.267C453.879 637.491 453.327 637.832 452.905 638.288C452.492 638.736 452.285 639.347 452.285 640.123C452.285 641.182 452.677 641.983 453.461 642.526C454.253 643.06 455.257 643.327 456.471 643.327ZM478.161 646.014C476.507 646.014 475.047 645.596 473.781 644.761C472.515 643.917 471.524 642.728 470.809 641.195C470.094 639.653 469.737 637.832 469.737 635.73C469.737 633.645 470.094 631.837 470.809 630.303C471.524 628.77 472.519 627.586 473.794 626.75C475.069 625.915 476.541 625.497 478.212 625.497C479.504 625.497 480.525 625.713 481.275 626.143C482.032 626.565 482.61 627.048 483.006 627.59C483.411 628.124 483.725 628.564 483.949 628.908H484.207V619.141H487.256V645.601H484.311V642.552H483.949C483.725 642.913 483.406 643.37 482.993 643.921C482.579 644.464 481.989 644.95 481.223 645.381C480.456 645.803 479.436 646.014 478.161 646.014ZM478.574 643.275C479.797 643.275 480.831 642.956 481.675 642.319C482.519 641.673 483.161 640.782 483.6 639.645C484.039 638.499 484.259 637.177 484.259 635.678C484.259 634.197 484.044 632.9 483.613 631.789C483.182 630.67 482.545 629.8 481.701 629.179C480.857 628.551 479.815 628.236 478.574 628.236C477.282 628.236 476.206 628.568 475.344 629.231C474.492 629.886 473.85 630.777 473.419 631.906C472.997 633.025 472.786 634.283 472.786 635.678C472.786 637.091 473.001 638.374 473.432 639.528C473.871 640.674 474.517 641.587 475.37 642.267C476.231 642.939 477.299 643.275 478.574 643.275Z" fill="#E38D04"/>
</g>
<defs>
<clipPath id="clip0_0_1">
<rect width="930" height="775" fill="white"/>
</clipPath>
</defs>
</svg>
