<svg width="1180" height="475" viewBox="0 0 1180 475" fill="none" xmlns="http://www.w3.org/2000/svg">
<path d="M128.959 38.7499C135.658 27.1461 148.04 19.9985 161.439 19.9999H1054.16C1074.87 19.9999 1091.66 36.7892 1091.66 57.4999V407.5C1091.66 428.211 1074.87 445 1054.16 445H161.439C148.04 445.001 135.658 437.854 128.959 426.25L22.512 241.88C19.1627 236.079 19.1627 228.931 22.512 223.13L128.959 38.7499Z" fill="white"/>
<path d="M145.202 48.12C148.553 42.32 154.743 38.7482 161.442 38.7499H1057.06C1067.41 38.7499 1075.81 47.1446 1075.81 57.4999V407.5C1075.81 417.855 1067.41 426.25 1057.06 426.25H161.442C154.743 426.252 148.553 422.68 145.202 416.88L38.7499 232.5L145.202 48.12Z" fill="#0033A2"/>
<path d="M193.205 57.4999H279.808L175.871 232.5L279.808 407.5H193.205L89.2682 232.5L193.205 57.4999Z" fill="white"/>
<path d="M342.72 241.665V232.555H395.71V241.665H342.72ZM335.86 259.775V250.885H403.13V259.775H335.86ZM320.44 278.675V269.455H418.32V278.675H320.44ZM334.28 216.575V208.025H373.43V216.575H334.28ZM364.32 213.765V208.025H375.91C378.31 211.099 381.217 214.079 384.63 216.965C388.043 219.859 391.81 222.542 395.93 225.015C400.057 227.489 404.37 229.702 408.87 231.655C413.37 233.602 417.907 235.252 422.48 236.605C421.66 237.205 420.723 237.992 419.67 238.965C418.623 239.939 417.61 240.952 416.63 242.005C415.657 243.052 414.87 244.025 414.27 244.925C408.27 242.752 402.347 240.052 396.5 236.825C390.647 233.599 385.227 230.019 380.24 226.085C375.253 222.145 370.96 218.039 367.36 213.765H364.32ZM361.85 209.155L371.52 212.865C367.847 217.812 363.383 222.385 358.13 226.585C352.883 230.785 347.277 234.499 341.31 237.725C335.35 240.952 329.333 243.765 323.26 246.165C322.733 245.412 322.02 244.512 321.12 243.465C320.22 242.412 319.283 241.379 318.31 240.365C317.337 239.359 316.473 238.555 315.72 237.955C321.873 236.075 327.873 233.712 333.72 230.865C339.573 228.012 344.917 224.749 349.75 221.075C354.59 217.402 358.623 213.429 361.85 209.155ZM363.65 275.865V236.715H374.56V275.865H363.65ZM319.66 196.435V186.655H419.11V196.435H319.66ZM343.62 205.775V178.105H354.2V205.775H343.62ZM383.9 206.335V178.105H394.47V206.335" fill="white"/>
<path d="M505.985 185.868V180.358H525.665V185.868H505.985ZM505.305 204.208V198.808H526.455V204.208H505.305ZM505.305 212.638V207.358H526.455V212.638H505.305ZM488.885 265.968V259.108H545.915V265.968H488.885ZM502.045 195.318V189.358H529.045V195.318H502.045ZM519.705 221.528H511.715V227.938H519.705V221.528ZM505.075 233.118V216.358H526.565V233.118H505.075ZM490.795 254.378V247.968H537.475V243.128H483.815V236.718H547.385V254.378H490.795ZM486.965 234.688V209.158H494.055V234.688H486.965ZM476.735 213.088L475.945 206.228C479.245 206.081 482.938 205.931 487.025 205.778C491.112 205.631 495.442 205.444 500.015 205.218V211.408C495.815 211.781 491.748 212.081 487.815 212.308C483.875 212.528 480.182 212.788 476.735 213.088ZM487.755 247.968H497.655C496.755 251.568 495.782 255.318 494.735 259.218C493.682 263.118 492.705 266.491 491.805 269.338L482.245 267.988C483.292 265.214 484.305 262.008 485.285 258.368C486.258 254.734 487.082 251.268 487.755 247.968ZM542.545 260.228V259.108H552.555C552.555 259.108 552.518 259.611 552.445 260.618C552.372 261.631 552.222 262.478 551.995 263.158C550.942 267.804 549.852 271.458 548.725 274.118C547.605 276.784 546.295 278.718 544.795 279.918C543.522 280.818 542.152 281.434 540.685 281.768C539.225 282.108 537.482 282.314 535.455 282.388C533.728 282.468 531.272 282.488 528.085 282.448C524.898 282.408 521.505 282.314 517.905 282.168C517.832 280.968 517.532 279.618 517.005 278.118C516.478 276.618 515.842 275.268 515.095 274.068C518.622 274.441 522.035 274.664 525.335 274.738C528.635 274.818 530.958 274.858 532.305 274.858C533.505 274.858 534.478 274.818 535.225 274.738C535.978 274.664 536.618 274.441 537.145 274.068C538.192 273.241 539.148 271.758 540.015 269.618C540.875 267.484 541.718 264.354 542.545 260.228ZM495.405 217.138L500.805 215.908C501.405 217.781 501.985 219.841 502.545 222.088C503.112 224.341 503.545 226.291 503.845 227.938L497.995 229.518C497.842 227.791 497.522 225.784 497.035 223.498C496.548 221.211 496.005 219.091 495.405 217.138ZM495.065 201.838L499.905 200.038C500.878 201.918 501.778 204.018 502.605 206.338C503.432 208.664 503.995 210.691 504.295 212.418L499.005 214.438C498.778 212.718 498.292 210.694 497.545 208.368C496.792 206.041 495.965 203.864 495.065 201.838ZM477.065 192.958L480.665 187.558C482.845 188.978 484.982 190.608 487.075 192.448C489.182 194.288 490.758 195.881 491.805 197.228L487.755 203.418C486.628 201.844 485.055 200.081 483.035 198.128C481.008 196.181 479.018 194.458 477.065 192.958ZM487.755 177.768L494.165 180.918C492.665 183.391 491.165 185.904 489.665 188.458C488.165 191.004 486.742 193.141 485.395 194.868L480.445 192.278C481.645 190.331 482.958 187.951 484.385 185.138C485.805 182.324 486.928 179.868 487.755 177.768ZM494.955 187.108L501.255 190.708C498.782 194.081 496.138 197.641 493.325 201.388C490.512 205.141 487.868 208.291 485.395 210.838L480.665 207.918C482.245 206.044 483.935 203.908 485.735 201.508C487.535 199.108 489.238 196.631 490.845 194.078C492.458 191.531 493.828 189.208 494.955 187.108ZM479.545 215.458L486.185 216.918C485.505 219.844 484.678 222.768 483.705 225.688C482.732 228.614 481.682 231.128 480.555 233.228C479.882 232.781 478.905 232.274 477.625 231.708C476.352 231.148 475.305 230.681 474.485 230.308C475.758 228.208 476.805 225.861 477.625 223.268C478.452 220.681 479.092 218.078 479.545 215.458ZM538.945 234.688V209.158H546.145V234.688H538.945ZM528.595 213.088L527.915 206.228C531.368 206.081 535.252 205.931 539.565 205.778C543.878 205.631 548.472 205.481 553.345 205.328L553.225 211.518C548.805 211.818 544.512 212.098 540.345 212.358C536.185 212.624 532.268 212.868 528.595 213.088ZM547.715 217.138L553.455 215.458C554.428 217.704 555.385 220.178 556.325 222.878C557.258 225.578 557.915 227.904 558.295 229.858L552.335 231.768C552.035 229.814 551.435 227.451 550.535 224.678C549.635 221.904 548.695 219.391 547.715 217.138ZM546.815 201.618L552.105 199.258C553.378 201.204 554.558 203.358 555.645 205.718C556.738 208.084 557.508 210.168 557.955 211.968L552.215 214.558C551.842 212.758 551.148 210.638 550.135 208.198C549.122 205.758 548.015 203.564 546.815 201.618ZM528.145 192.728L531.965 187.668C533.918 189.014 535.868 190.571 537.815 192.338C539.768 194.098 541.268 195.691 542.315 197.118L537.935 202.968C536.955 201.468 535.548 199.741 533.715 197.788C531.875 195.841 530.018 194.154 528.145 192.728ZM539.165 177.878L545.585 181.138C544.005 183.618 542.428 186.111 540.855 188.618C539.282 191.131 537.782 193.288 536.355 195.088L531.405 192.508C532.678 190.554 534.065 188.171 535.565 185.358C537.065 182.544 538.265 180.051 539.165 177.878ZM547.155 186.658L553.455 190.258C550.908 193.631 548.135 197.191 545.135 200.938C542.135 204.691 539.285 207.841 536.585 210.388L531.965 207.468C533.692 205.594 535.492 203.458 537.365 201.058C539.245 198.658 541.045 196.181 542.765 193.628C544.492 191.081 545.955 188.758 547.155 186.658ZM531.405 215.458L537.935 217.028C537.408 219.801 536.658 222.631 535.685 225.518C534.705 228.411 533.655 230.868 532.535 232.888C531.935 232.514 531.035 232.008 529.835 231.368C528.635 230.734 527.585 230.231 526.685 229.858C527.878 227.758 528.852 225.468 529.605 222.988C530.352 220.514 530.952 218.004 531.405 215.458ZM454.905 186.538L461.095 179.568C462.968 180.541 464.935 181.721 466.995 183.108C469.062 184.494 470.995 185.881 472.795 187.268C474.595 188.661 476.058 189.994 477.185 191.268L470.765 199.138C469.718 197.864 468.312 196.478 466.545 194.978C464.785 193.478 462.892 191.998 460.865 190.538C458.845 189.071 456.858 187.738 454.905 186.538ZM452.545 216.578L458.395 209.268C460.342 210.168 462.385 211.274 464.525 212.588C466.665 213.901 468.652 215.211 470.485 216.518C472.325 217.831 473.845 219.088 475.045 220.288L468.855 228.388C467.728 227.188 466.248 225.878 464.415 224.458C462.575 223.031 460.605 221.624 458.505 220.238C456.405 218.851 454.418 217.631 452.545 216.578ZM464.355 281.158L454.795 275.758C456.222 272.758 457.738 269.268 459.345 265.288C460.958 261.314 462.608 257.114 464.295 252.688C465.988 248.268 467.545 243.918 468.965 239.638L477.405 245.038C476.205 249.018 474.855 253.108 473.355 257.308C471.855 261.508 470.355 265.631 468.855 269.678C467.355 273.731 465.855 277.558 464.355 281.158Z" fill="white"/>
<path d="M435.058 171H299.558V311.5H435.058V171Z" stroke="white" stroke-width="2" stroke-dasharray="5 5"/>
<path d="M572.558 171H437.058V311.5H572.558V171Z" stroke="white" stroke-width="2" stroke-dasharray="5 5"/>
<path d="M932.058 295H988.308V332.5C989.418 367.583 966.048 398.743 932.058 407.5C898.068 398.743 874.698 367.583 875.808 332.5V295H932.058Z" fill="#E9B500"/>
<path d="M928.147 311.404C942.804 311.129 951.862 317.371 955.319 330.131L955.87 330.498L956.054 331.416L956.237 332.15L956.421 332.885L956.604 333.252L956.972 334.904V335.822C957.094 336.006 957.155 336.189 957.155 336.373L957.522 338.393L957.89 341.514L958.257 344.451C959.297 367.339 951.831 380.313 935.858 383.373C920.192 385.576 910.584 380.68 907.034 368.686L910.89 367.4C911.012 367.247 911.134 367.186 911.257 367.217L912.909 366.482C913.674 366.268 914.286 366.023 914.745 365.748L915.296 365.564H915.847C915.969 365.411 916.091 365.35 916.214 365.381L916.765 365.197L919.702 363.912H920.437C922.425 369.42 926.403 371.684 932.37 370.705C938.704 369.267 942.437 365.289 943.569 358.771L943.753 355.834C935.552 361.097 927.291 362.26 918.968 359.322C910.675 355.712 906.269 349.714 905.749 341.33C904.005 322.818 911.471 312.842 928.147 311.404ZM929.616 324.623C924.812 325.816 921.691 328.57 920.253 332.885C918.998 341.728 922.364 346.868 930.351 348.307C938.735 347.45 942.774 342.982 942.468 334.904C940.846 327.866 936.562 324.439 929.616 324.623Z" fill="black"/>
<path d="M932.058 69.9999H982.058L1044.56 132.5V270H819.558V132.5L882.058 69.9999H932.058ZM866.433 232.5H997.683C1022.23 198.874 1017.39 152.135 986.47 124.255C955.552 96.3746 908.563 96.3746 877.645 124.255C846.728 152.135 841.886 198.874 866.433 232.5Z" fill="white"/>
<path d="M300.077 88.0504V77.0304H350.747V88.0504H331.467V147.35H319.357V88.0504" fill="white"/>
<path d="M393.466 103.277L392.916 104.017L392.366 104.567L391.816 104.937L391.076 106.037L390.716 106.407L390.346 106.587C389.946 107.14 389.58 107.567 389.246 107.867L386.856 110.627C381.776 107.354 377.57 105.717 374.236 105.717C370.81 105.717 368.286 107.414 366.666 110.807C366.726 112.8 367.52 114.27 369.046 115.217C369.72 115.397 370.21 115.58 370.516 115.767C371.71 115.947 372.69 116.19 373.456 116.497C385.05 117.357 391.536 122.01 392.916 130.457C392.976 130.824 393.006 131.18 393.006 131.527C393.006 131.88 393.006 132.227 393.006 132.567C393.006 138.714 390.406 143.334 385.206 146.427C381.473 148.107 377.723 148.947 373.956 148.947C366.796 148.947 359.653 145.904 352.526 139.817L352.896 139.087L353.806 138.167C354.42 137.434 354.973 136.88 355.466 136.507C355.586 136.294 355.706 136.174 355.826 136.147L356.196 135.597C356.316 135.384 356.44 135.26 356.566 135.227L356.746 134.857L357.116 134.677L359.506 131.917C364.033 136.204 368.773 138.347 373.726 138.347C375.806 138.347 377.92 137.98 380.066 137.247C380.613 136.514 381.163 135.964 381.716 135.597C381.903 134.864 381.996 134.174 381.996 133.527C381.996 131.934 381.476 130.604 380.436 129.537L376.206 128.067C363.6 127.3 356.746 121.914 355.646 111.907C356.473 101.84 362.163 96.457 372.716 95.757H373.366C381.473 95.757 388.173 98.2636 393.466 103.277Z" fill="white"/>
<path d="M405.845 133.026V97.2257H416.865V128.986C416.985 129.139 417.045 129.322 417.045 129.536C417.171 129.629 417.235 129.719 417.235 129.806V129.906C417.448 131.279 417.751 132.502 418.145 133.576C420.258 136.509 422.968 137.976 426.275 137.976H426.415C430.515 136.876 433.388 134.612 435.035 131.186V130.636L435.775 128.436V97.2257H446.975V147.346H435.775V143.306C431.368 146.912 426.978 148.716 422.605 148.716C419.205 148.716 415.761 147.646 412.275 145.506C409.428 143.332 407.468 140.762 406.395 137.796L406.215 136.506C405.941 135.619 405.805 134.749 405.805 133.896V133.486C405.805 133.332 405.818 133.179 405.845 133.026Z" fill="white"/>
<path d="M505.394 117.794L505.574 120.544C505.694 120.698 505.754 120.881 505.754 121.094V126.604H472.164C472.864 132.844 476.044 136.518 481.704 137.624C482.624 137.711 483.527 137.754 484.414 137.754C489.034 137.754 492.967 136.241 496.214 133.214C496.607 133.888 497.097 134.438 497.684 134.864L497.864 135.414L498.414 135.964C498.84 136.364 499.207 136.741 499.514 137.094C499.82 137.448 500.067 137.808 500.254 138.174C500.467 138.294 500.587 138.414 500.614 138.534L503.184 141.474C497.37 146.341 491.174 148.774 484.594 148.774C483.467 148.774 482.32 148.698 481.154 148.544C479.994 148.391 478.83 148.178 477.664 147.904C467.077 144.384 461.264 136.794 460.224 125.134C460.224 124.981 460.217 124.674 460.204 124.214C460.19 123.761 460.184 123.471 460.184 123.344C460.184 107.404 467.357 98.3308 481.704 96.1242C495.964 96.6175 503.86 103.841 505.394 117.794ZM471.974 117.974H494.194V117.424C494.067 117.058 494.004 116.691 494.004 116.324V115.954C493.697 115.281 493.514 114.671 493.454 114.124C491.194 108.891 487.46 106.258 482.254 106.224C475.707 107.784 472.28 111.701 471.974 117.974Z" fill="white"/>
<path d="M558.608 106.037V106.587C559.008 107.32 559.254 108.054 559.348 108.787V147.157H548.148V114.667L547.958 113.567C546.431 108.94 543.861 106.627 540.248 106.627C539.148 106.627 537.924 106.857 536.578 107.317C533.518 108.637 531.314 110.72 529.968 113.567L529.238 116.687V147.157H518.218V97.037H529.238V101.257C532.664 98.197 536.398 96.3636 540.438 95.757H541.258C549.458 95.757 555.241 99.1836 558.608 106.037Z" fill="white"/>
<path d="M597.749 77.584V77.214H610.419L610.599 78.504L610.789 79.054L611.149 80.344L611.519 82.544L612.069 84.374L612.439 86.584L612.989 88.414L613.169 89.884C613.382 90.404 613.506 90.834 613.539 91.174L613.719 91.904L614.089 93.004V93.744C614.209 93.8373 614.269 93.9273 614.269 94.014V94.664C614.609 95.3373 614.796 96.0706 614.829 96.864L615.189 97.964L615.559 99.254L615.929 101.454L616.479 103.284L616.659 104.394L617.759 108.984C617.852 109.411 617.939 109.801 618.019 110.154C618.092 110.501 618.129 110.844 618.129 111.184L618.499 111.914V112.654L618.859 113.574V114.304L619.229 115.034V115.774C619.569 116.694 619.752 117.491 619.779 118.164L619.969 118.894C620.182 119.507 620.349 120.074 620.469 120.594C620.589 121.114 620.666 121.587 620.699 122.014L621.069 123.484L621.439 124.764L621.799 123.664L622.539 119.994L622.899 119.074L623.089 117.974L623.639 115.404L624.009 114.124V113.574L624.739 110.634L624.919 109.534L625.289 108.794L625.469 108.064L625.659 107.144V106.414L625.839 105.854L626.579 102.924L626.939 100.714L627.129 99.984L627.489 99.254C627.556 98.274 627.739 97.414 628.039 96.674L628.229 95.764V95.214L628.599 93.744L628.779 93.194L629.329 90.804L629.509 89.704L629.879 88.604L630.059 87.684L630.609 85.294L630.799 84.374L630.979 84.014C631.012 83.674 631.052 83.344 631.099 83.024C631.146 82.704 631.229 82.4206 631.349 82.174L631.529 81.624V81.074L631.719 80.344L631.899 79.784L632.449 77.214H646.039V77.764C646.466 78.8373 646.709 79.8806 646.769 80.894L647.139 82.354L647.319 82.914L648.059 86.214L648.419 87.684C648.666 88.5706 648.789 89.304 648.789 89.884C649.002 90.404 649.126 90.834 649.159 91.174L649.519 92.454L649.709 93.744L649.889 94.474L650.079 95.024C650.166 95.424 650.242 95.784 650.309 96.104C650.369 96.424 650.412 96.7373 650.439 97.044C650.686 97.624 650.856 98.1606 650.949 98.654C651.042 99.1406 651.119 99.584 651.179 99.984L651.359 101.084L651.729 102.004L651.909 103.104V103.654C652.216 104.387 652.399 105.061 652.459 105.674L652.649 106.774C652.949 107.507 653.132 108.181 653.199 108.794L653.379 109.714L653.929 111.734V112.464C654.049 112.744 654.109 113.051 654.109 113.384C654.449 114.091 654.636 114.704 654.669 115.224L654.849 116.144L655.029 117.244L655.219 117.974C655.526 118.921 655.709 119.777 655.769 120.544C655.889 120.637 655.949 120.731 655.949 120.824V121.464C656.376 122.537 656.622 123.577 656.689 124.584C656.869 124.524 656.989 124.401 657.049 124.214C657.202 123.454 657.356 122.791 657.509 122.224C657.662 121.657 657.816 121.161 657.969 120.734V119.994C658.369 118.894 658.612 117.914 658.699 117.054L659.069 115.774L659.809 112.834L659.989 111.364L660.359 110.084L660.539 109.534V108.984C660.752 108.397 660.922 107.867 661.049 107.394C661.169 106.921 661.242 106.471 661.269 106.044L661.639 104.754L663.109 98.694L663.659 95.764L664.029 94.294C664.362 93.4073 664.546 92.674 664.579 92.094L664.759 91.174L665.129 89.704C665.402 88.8173 665.586 88.084 665.679 87.504L665.859 86.764L666.419 84.194L666.779 83.094V82.544L667.329 81.074V80.344L667.519 79.784L668.069 77.214H680.549L679.819 80.894L679.269 83.094L679.079 83.644L678.529 86.214L678.169 87.684L677.799 88.964L677.059 92.644L676.699 93.924L675.959 97.414L675.599 98.694L675.409 99.254L675.039 101.264L674.859 101.634L674.679 102.924C674.372 103.931 674.189 104.787 674.129 105.494L673.389 107.694L673.209 108.984L673.019 109.714L672.839 110.264L672.659 111.554L672.469 112.104L671.369 116.694L671.189 117.974L670.819 119.264L669.899 122.934L669.719 124.214L668.619 128.804L668.069 131.374C667.729 132.294 667.546 133.091 667.519 133.764L666.779 136.154V136.884C666.446 137.804 666.262 138.601 666.229 139.274C665.922 140.281 665.739 141.137 665.679 141.844L665.309 143.124L665.129 143.494L664.949 144.784C664.642 145.791 664.459 146.647 664.399 147.354H650.809L650.629 145.884C650.416 145.364 650.292 144.934 650.259 144.594L649.889 143.124L649.709 141.844L649.339 140.554C649.246 140.187 649.169 139.837 649.109 139.504C649.049 139.164 649.002 138.841 648.969 138.534L648.789 137.804L648.609 136.884C648.482 136.731 648.419 136.547 648.419 136.334L648.239 135.414L648.059 134.864C647.966 134.471 647.889 134.111 647.829 133.784C647.762 133.464 647.716 133.151 647.689 132.844C647.476 132.264 647.316 131.731 647.209 131.244C647.102 130.751 647.016 130.307 646.949 129.914L646.769 129.174L646.589 128.254C646.462 127.887 646.376 127.537 646.329 127.204C646.289 126.864 646.252 126.541 646.219 126.234C646.006 125.627 645.839 125.047 645.719 124.494C645.592 123.941 645.516 123.421 645.489 122.934C645.362 122.781 645.299 122.597 645.299 122.384L645.119 121.644L644.939 121.094C644.846 120.454 644.722 119.844 644.569 119.264L644.199 117.604L644.019 116.504L643.649 115.594L643.279 113.384L643.099 112.834V112.284C642.792 111.551 642.609 110.877 642.549 110.264L642.179 108.064L641.809 107.144L641.449 105.674V104.944C641.082 103.931 640.899 103.074 640.899 102.374C640.772 102.221 640.709 102.037 640.709 101.824L640.529 101.264V100.714C640.222 100.014 640.039 99.2806 639.979 98.514C639.672 97.534 639.489 96.6173 639.429 95.764L639.059 96.494L638.879 97.594L638.329 99.984L637.959 102.004L637.769 102.554L637.039 105.674L636.859 106.414L636.489 108.244L636.309 108.984L635.939 111.004L635.759 111.554L635.019 115.034L634.649 116.324L634.469 117.604C634.136 118.524 633.952 119.321 633.919 119.994L633.739 120.364L633.549 121.464L633.369 122.014L632.449 126.604L632.269 127.154L631.529 130.644L631.349 131.374L631.169 132.294L630.979 132.844L630.249 136.334L629.879 137.804L629.509 139.644L629.329 140.004L628.959 141.664L628.779 142.394L628.599 143.674C628.379 144.441 628.256 145.054 628.229 145.514C628.102 145.821 628.019 146.111 627.979 146.384C627.932 146.664 627.892 146.924 627.859 147.164C627.432 147.231 627.042 147.284 626.689 147.324C626.336 147.371 625.992 147.394 625.659 147.394H625.199C625.046 147.394 624.892 147.381 624.739 147.354H614.089V146.614C613.662 145.514 613.419 144.474 613.359 143.494C613.232 143.341 613.169 143.157 613.169 142.944L612.989 142.024C612.316 139.851 611.886 138.014 611.699 136.514L611.519 135.964L610.599 132.484L610.419 131.014L608.949 125.324V124.584C608.642 123.884 608.459 123.151 608.399 122.384L608.029 121.284L607.669 119.994V119.444L606.749 115.774V115.224L606.559 114.484L606.199 113.754L606.009 112.284C605.769 111.551 605.572 110.877 605.419 110.264C605.266 109.651 605.159 109.101 605.099 108.614L604.909 108.064V107.514C604.789 107.361 604.729 107.177 604.729 106.964L604.359 105.494L604.179 104.944C604.052 104.297 603.936 103.714 603.829 103.194C603.722 102.674 603.592 102.217 603.439 101.824L603.259 100.534C603.046 99.9206 602.876 99.354 602.749 98.834C602.629 98.314 602.552 97.8406 602.519 97.414L602.339 96.494C602.219 96.3406 602.159 96.1573 602.159 95.944L601.239 92.274L600.869 90.984L600.689 90.074L600.509 89.334L600.319 88.054C600.072 87.4073 599.949 86.854 599.949 86.394V86.214L599.589 85.294L599.399 84.564C599.279 83.6773 599.096 82.9406 598.849 82.354V81.624C598.729 81.4706 598.669 81.2873 598.669 81.074" fill="white"/>
<path d="M724.123 101.635L724.683 102.735C726.116 104.515 727.033 106.351 727.433 108.245C727.553 109.038 727.643 109.781 727.703 110.475C727.77 111.161 727.803 111.765 727.803 112.285V136.515C728.93 138.755 730.58 140.101 732.753 140.555L732.393 141.105C732.266 141.325 732.143 141.448 732.023 141.475L731.843 142.025L731.473 142.395C731.166 143.068 730.8 143.618 730.373 144.045C729.94 145.178 729.386 146.035 728.713 146.615C728.44 147.228 728.18 147.758 727.933 148.205C727.693 148.645 727.466 149.035 727.253 149.375C723.673 148.455 720.856 146.801 718.803 144.415H718.253C714.306 147.261 710.236 148.685 706.043 148.685C703.776 148.685 701.543 148.301 699.343 147.535C692.763 145.181 688.786 140.898 687.413 134.685V134.455C687.413 122.615 694.343 116.695 708.203 116.695H708.343C708.616 116.568 708.92 116.505 709.253 116.505L709.803 116.325H711.093L711.643 116.145H712.193L716.783 115.595C716.843 115.255 716.873 114.948 716.873 114.675V113.755C716.873 108.641 714.166 106.085 708.753 106.085C704.986 106.085 699.83 107.355 693.283 109.895L692.553 108.245L692.183 107.145L691.813 106.775L691.633 106.415L691.263 105.305C690.93 104.758 690.686 104.208 690.533 103.655C689.886 102.801 689.456 101.945 689.243 101.085L689.793 100.905L690.163 100.715L690.713 100.535L691.083 100.165H691.633C691.753 100.045 691.86 99.9847 691.953 99.9847H692.003C693.103 99.4047 694.08 98.9747 694.933 98.6947L695.853 98.5147C696.526 98.208 697.14 98.0247 697.693 97.9647L699.163 97.5947C700.23 97.168 701.27 96.9247 702.283 96.8647L706.323 96.1247C706.93 96.0647 707.516 96.0114 708.083 95.9647C708.65 95.918 709.21 95.8947 709.763 95.8947C715.603 95.8947 720.39 97.808 724.123 101.635ZM712.373 124.955H711.273C711 125.015 710.733 125.061 710.473 125.095C710.213 125.121 709.96 125.135 709.713 125.135H709.443L708.703 125.325H708.153C708 125.445 707.816 125.505 707.603 125.505H707.053L704.113 126.235H703.563C702.71 126.728 701.976 127.035 701.363 127.155C699.376 129.055 698.383 130.891 698.383 132.665C698.383 134.285 699.193 135.875 700.813 137.435C703.166 138.875 705.46 139.595 707.693 139.595C710.54 139.595 713.263 138.448 715.863 136.155C716.11 135.448 716.356 134.958 716.603 134.685L716.783 134.135L716.603 133.395V124.765H712.933C712.78 124.891 712.593 124.955 712.373 124.955Z" fill="white"/>
<path d="M786.608 106.037V106.587C787.008 107.32 787.255 108.054 787.348 108.787V147.157H776.148V114.667L775.958 113.567C774.431 108.94 771.861 106.627 768.248 106.627C767.148 106.627 765.925 106.857 764.578 107.317C761.518 108.637 759.315 110.72 757.968 113.567L757.238 116.687V147.157H746.218V97.037H757.238V101.257C760.665 98.197 764.398 96.3636 768.438 95.757H769.258C777.458 95.757 783.241 99.1836 786.608 106.037Z" fill="white"/>
<path d="M350.058 71H299.558V169H350.058V71Z" stroke="white" stroke-width="2" stroke-dasharray="5 5"/>
<path d="M397.558 71H352.058V169H397.558V71Z" stroke="white" stroke-width="2" stroke-dasharray="5 5"/>
<path d="M455.058 71H399.558V169H455.058V71Z" stroke="white" stroke-width="2" stroke-dasharray="5 5"/>
<path d="M509.558 71H457.058V169H509.558V71Z" stroke="white" stroke-width="2" stroke-dasharray="5 5"/>
<path d="M565.558 71H511.558V169H565.558V71Z" stroke="white" stroke-width="2" stroke-dasharray="5 5"/>
<path d="M590.558 71H567.558V169H590.558V71Z" stroke="white" stroke-width="2" stroke-dasharray="5 5"/>
<path d="M682.058 71H592.558V169H682.058V71Z" stroke="white" stroke-width="2" stroke-dasharray="5 5"/>
<path d="M737.558 71H684.058V169H737.558V71Z" stroke="white" stroke-width="2" stroke-dasharray="5 5"/>
<path d="M793.558 71H739.558V169H793.558V71Z" stroke="white" stroke-width="2" stroke-dasharray="5 5"/>
<path d="M932.058 295V440" stroke="#46C147" stroke-width="3.03189"/>
<path d="M932.058 270V410.212" stroke="#46C147" stroke-width="3.03189"/>
<path d="M932.058 385.957L968.44 376.861V395.053L932.058 385.957Z" fill="#46C147"/>
<path d="M932.058 385.957L895.675 376.861V395.053L932.058 385.957Z" fill="#46C147"/>
<path d="M909.37 474.362C907.423 474.362 905.765 473.832 904.395 472.773C903.026 471.705 901.979 470.158 901.256 468.134C900.532 466.102 900.171 463.647 900.171 460.77C900.171 457.91 900.532 455.468 901.256 453.444C901.988 451.412 903.039 449.861 904.408 448.793C905.786 447.716 907.44 447.178 909.37 447.178C911.299 447.178 912.948 447.716 914.318 448.793C915.696 449.861 916.747 451.412 917.47 453.444C918.203 455.468 918.569 457.91 918.569 460.77C918.569 463.647 918.207 466.102 917.483 468.134C916.76 470.158 915.713 471.705 914.344 472.773C912.974 473.832 911.316 474.362 909.37 474.362ZM909.37 471.519C911.299 471.519 912.798 470.589 913.866 468.729C914.934 466.868 915.468 464.215 915.468 460.77C915.468 458.479 915.222 456.528 914.731 454.917C914.249 453.306 913.551 452.079 912.638 451.235C911.734 450.391 910.644 449.969 909.37 449.969C907.457 449.969 905.963 450.912 904.886 452.798C903.81 454.676 903.271 457.333 903.271 460.77C903.271 463.061 903.513 465.008 903.995 466.61C904.477 468.212 905.171 469.431 906.075 470.266C906.988 471.102 908.086 471.519 909.37 471.519ZM937.587 458.599L934.848 459.375C934.676 458.918 934.421 458.474 934.086 458.044C933.758 457.605 933.31 457.243 932.742 456.959C932.173 456.674 931.446 456.532 930.558 456.532C929.344 456.532 928.332 456.812 927.522 457.372C926.721 457.923 926.321 458.625 926.321 459.478C926.321 460.236 926.596 460.835 927.148 461.274C927.699 461.713 928.56 462.079 929.732 462.372L932.677 463.096C934.452 463.526 935.774 464.185 936.644 465.072C937.514 465.951 937.949 467.083 937.949 468.47C937.949 469.607 937.621 470.624 936.967 471.519C936.321 472.415 935.416 473.121 934.254 473.638C933.091 474.155 931.738 474.413 930.197 474.413C928.173 474.413 926.497 473.974 925.171 473.096C923.844 472.217 923.005 470.934 922.651 469.245L925.545 468.522C925.821 469.59 926.342 470.391 927.109 470.925C927.884 471.459 928.896 471.726 930.145 471.726C931.566 471.726 932.695 471.425 933.53 470.822C934.374 470.21 934.796 469.478 934.796 468.625C934.796 467.936 934.555 467.359 934.073 466.894C933.59 466.42 932.85 466.067 931.85 465.835L928.543 465.059C926.725 464.629 925.39 463.961 924.538 463.057C923.694 462.144 923.272 461.002 923.272 459.633C923.272 458.513 923.586 457.523 924.215 456.661C924.852 455.8 925.718 455.124 926.812 454.633C927.914 454.142 929.163 453.896 930.558 453.896C932.522 453.896 934.064 454.327 935.184 455.188C936.312 456.05 937.113 457.187 937.587 458.599ZM947.035 474L940.988 454.155H944.192L948.482 469.349H948.688L952.926 454.155H956.182L960.368 469.297H960.575L964.864 454.155H968.068L962.022 474H959.024L954.683 458.754H954.373L950.032 474H947.035Z" fill="#46C147"/>
<path d="M988 295H1103.21" stroke="#FF0000" stroke-width="3.03189"/>
<path d="M988 270H1103.21" stroke="#FF0000" stroke-width="3.03189"/>
<path d="M1079 295V270" stroke="#FF0000" stroke-width="3.03189"/>
<path d="M1078.1 295L1069 331.383H1087.19L1078.1 295Z" fill="#FF0000"/>
<path d="M1078.1 270L1069 233.617H1087.19L1078.1 270Z" fill="#FF0000"/>
<path d="M1112.74 291.698V289.372L1121.47 279.811C1122.5 278.692 1123.34 277.718 1124.01 276.891C1124.67 276.056 1125.16 275.272 1125.48 274.54C1125.81 273.799 1125.97 273.024 1125.97 272.214C1125.97 271.284 1125.75 270.479 1125.3 269.798C1124.86 269.118 1124.26 268.592 1123.49 268.222C1122.72 267.852 1121.86 267.666 1120.9 267.666C1119.89 267.666 1119 267.877 1118.24 268.3C1117.49 268.713 1116.91 269.294 1116.5 270.044C1116.09 270.793 1115.89 271.672 1115.89 272.679H1112.84C1112.84 271.129 1113.2 269.768 1113.91 268.597C1114.63 267.425 1115.6 266.512 1116.83 265.858C1118.08 265.203 1119.47 264.876 1121.01 264.876C1122.56 264.876 1123.93 265.203 1125.13 265.858C1126.33 266.512 1127.27 267.395 1127.95 268.506C1128.63 269.617 1128.97 270.853 1128.97 272.214C1128.97 273.188 1128.79 274.139 1128.44 275.07C1128.09 275.991 1127.49 277.021 1126.63 278.157C1125.78 279.286 1124.59 280.664 1123.08 282.292L1117.13 288.649V288.855H1129.43V291.698H1112.74ZM1148.88 276.297L1146.14 277.072C1145.97 276.616 1145.71 276.172 1145.38 275.741C1145.05 275.302 1144.6 274.94 1144.03 274.656C1143.46 274.372 1142.74 274.23 1141.85 274.23C1140.63 274.23 1139.62 274.51 1138.81 275.07C1138.01 275.621 1137.61 276.323 1137.61 277.176C1137.61 277.934 1137.89 278.532 1138.44 278.971C1138.99 279.411 1139.85 279.777 1141.02 280.07L1143.97 280.793C1145.74 281.224 1147.06 281.883 1147.93 282.77C1148.8 283.648 1149.24 284.781 1149.24 286.168C1149.24 287.305 1148.91 288.321 1148.26 289.217C1147.61 290.113 1146.71 290.819 1145.54 291.336C1144.38 291.853 1143.03 292.111 1141.49 292.111C1139.46 292.111 1137.79 291.672 1136.46 290.793C1135.13 289.915 1134.29 288.631 1133.94 286.943L1136.83 286.22C1137.11 287.288 1137.63 288.089 1138.4 288.623C1139.17 289.157 1140.19 289.424 1141.43 289.424C1142.86 289.424 1143.98 289.122 1144.82 288.519C1145.66 287.908 1146.09 287.176 1146.09 286.323C1146.09 285.634 1145.84 285.057 1145.36 284.592C1144.88 284.118 1144.14 283.765 1143.14 283.532L1139.83 282.757C1138.01 282.326 1136.68 281.659 1135.83 280.754C1134.98 279.841 1134.56 278.7 1134.56 277.331C1134.56 276.211 1134.88 275.22 1135.5 274.359C1136.14 273.498 1137.01 272.822 1138.1 272.331C1139.2 271.84 1140.45 271.594 1141.85 271.594C1143.81 271.594 1145.35 272.025 1146.47 272.886C1147.6 273.747 1148.4 274.884 1148.88 276.297ZM1158.32 291.698L1152.28 271.853H1155.48L1159.77 287.046H1159.98L1164.22 271.853H1167.47L1171.66 286.995H1171.86L1176.15 271.853H1179.36L1173.31 291.698H1170.31L1165.97 276.452H1165.66L1161.32 291.698H1158.32Z" fill="#FF0000"/>
</svg>
