<?xml version="1.0" encoding="UTF-8" ?><!-- DOCTYPE svg PUBLIC "-//W3C//DTD SVG 1.1//EN" "http://www.w3.org/Graphics/SVG/1.1/DTD/svg11.dtd" -->
<svg viewBox="0,0,1024,768" preserveAspectRatio="xMidYMid" zoomAndPan="magnify" xmlns="http://www.w3.org/2000/svg" xmlns:xlink="http://www.w3.org/1999/xlink">
<g>
<line x1="0" y1="120.832" x2="0" y2="632.832" stroke="rgb(150, 150, 150)" stroke-width="10" />
<line x1="1024" y1="120.832" x2="1024" y2="632.832" stroke="rgb(150, 150, 150)" stroke-width="10" />
<line x1="0" y1="120.832" x2="1024" y2="120.832" stroke="rgb(150, 150, 150)" stroke-width="10" />
<line x1="0" y1="632.832" x2="1024" y2="632.832" stroke="rgb(150, 150, 150)" stroke-width="10" />
<g>
<g>
<polyline points="619.02,246.42,637.17,300.84,637.17,192.00,619.02,246.42,582.74,210.14,528.32,192.00,492.04,192.00,437.62,210.14,401.34,246.42,383.20,282.70,365.06,337.13,365.06,430.88,383.20,485.30,401.34,521.58,437.62,557.86,492.04,576.00,528.32,576.00,582.74,557.86,619.02,521.58,637.17,485.30" fill="none" stroke="rgb(150, 150, 150)" stroke-width="10" />
<polyline points="492.04,192.00,455.76,210.14,419.48,246.42,401.34,282.70,383.20,337.13,383.20,430.88,401.34,485.30,419.48,521.58,455.76,557.86,492.04,576.00" fill="none" stroke="rgb(150, 150, 150)" stroke-width="10" />
</g>
</g>
</g>
</svg>