<?xml version="1.0" encoding="UTF-8" ?><!-- DOCTYPE svg PUBLIC "-//W3C//DTD SVG 1.1//EN" "http://www.w3.org/Graphics/SVG/1.1/DTD/svg11.dtd" -->
<svg viewBox="0,0,1024,926" preserveAspectRatio="xMidYMid" zoomAndPan="magnify" xmlns="http://www.w3.org/2000/svg" xmlns:xlink="http://www.w3.org/1999/xlink">
<line x1="177.035" y1="525.535" x2="531.619" y2="525.496" stroke="fuchsia" stroke-width="10" />
<line x1="177.035" y1="525.535" x2="177.035" y2="525.535" stroke="fuchsia" stroke-width="10" />
<circle cx="88.669" cy="525.4" r="88.669" fill="fuchsia" fill-opacity="0.5" stroke="fuchsia" stroke-width="10" />
<line x1="531.749" y1="348.108" x2="531.789" y2="702.692" stroke="fuchsia" stroke-width="10" />
<line x1="531.789" y1="702.692" x2="758.958" y2="702.954" stroke="fuchsia" stroke-width="10" />
<line x1="531.49" y1="702.883" x2="531.49" y2="702.883" stroke="fuchsia" stroke-width="10" />
<line x1="758.659" y1="761.686" x2="977.965" y2="702.968" stroke="fuchsia" stroke-width="10" />
<line x1="977.965" y1="702.968" x2="758.766" y2="644.116" stroke="fuchsia" stroke-width="10" />
<line x1="758.766" y1="644.116" x2="758.659" y2="761.686" stroke="fuchsia" stroke-width="10" />
<line x1="531.749" y1="348.108" x2="758.918" y2="348.37" stroke="fuchsia" stroke-width="10" />
<line x1="531.45" y1="348.299" x2="531.45" y2="348.299" stroke="fuchsia" stroke-width="10" />
<line x1="758.918" y1="406.91" x2="977.925" y2="348.383" stroke="fuchsia" stroke-width="10" />
<line x1="977.925" y1="348.383" x2="759.025" y2="289.34" stroke="fuchsia" stroke-width="10" />
<line x1="759.025" y1="289.34" x2="758.918" y2="406.91" stroke="fuchsia" stroke-width="10" />
<line x1="977.965" y1="702.968" x2="977.835" y2="880.356" stroke="fuchsia" stroke-width="10" />
<line x1="978.072" y1="702.478" x2="977.774" y2="702.669" stroke="fuchsia" stroke-width="10" />
<line x1="978.027" y1="880.654" x2="800.639" y2="880.525" stroke="fuchsia" stroke-width="10" />
<line x1="978.027" y1="880.654" x2="977.835" y2="880.356" stroke="fuchsia" stroke-width="10" />
<line x1="800.577" y1="926.47" x2="629.644" y2="880.513" stroke="fuchsia" stroke-width="10" />
<line x1="629.644" y1="880.513" x2="800.701" y2="834.579" stroke="fuchsia" stroke-width="10" />
<line x1="800.701" y1="834.579" x2="800.577" y2="926.47" stroke="fuchsia" stroke-width="10" />
<line x1="977.925" y1="348.383" x2="978.055" y2="170.995" stroke="fuchsia" stroke-width="10" />
<line x1="977.627" y1="348.574" x2="978.117" y2="348.682" stroke="fuchsia" stroke-width="10" />
<line x1="1024" y1="171.057" x2="978.066" y2="0" stroke="fuchsia" stroke-width="10" />
<line x1="978.066" y1="0" x2="932.11" y2="170.933" stroke="fuchsia" stroke-width="10" />
<line x1="932.11" y1="170.933" x2="1024" y2="171.057" stroke="fuchsia" stroke-width="10" />
<line x1="177.035" y1="525.535" x2="177.035" y2="525.535" stroke="fuchsia" stroke-width="10" />
</svg>