<?xml version="1.0" encoding="UTF-8" ?><!-- DOCTYPE svg PUBLIC "-//W3C//DTD SVG 1.1//EN" "http://www.w3.org/Graphics/SVG/1.1/DTD/svg11.dtd" -->
<svg viewBox="0,0,1024,926" preserveAspectRatio="xMidYMid" zoomAndPan="magnify" xmlns="http://www.w3.org/2000/svg" xmlns:xlink="http://www.w3.org/1999/xlink">
<line x1="177.323" y1="400.639" x2="531.864" y2="400.735" stroke="fuchsia" stroke-width="10" />
<line x1="177.323" y1="400.639" x2="177.323" y2="400.639" stroke="fuchsia" stroke-width="10" />
<circle cx="88.6507" cy="400.735" r="88.6507" fill="fuchsia" fill-opacity="0.5" stroke="fuchsia" stroke-width="10" />
<line x1="532.056" y1="578.079" x2="531.985" y2="223.224" stroke="fuchsia" stroke-width="10" />
<line x1="531.985" y1="223.224" x2="758.828" y2="223.256" stroke="fuchsia" stroke-width="10" />
<line x1="531.672" y1="223.391" x2="531.672" y2="223.391" stroke="fuchsia" stroke-width="10" />
<line x1="758.985" y1="164.558" x2="978.056" y2="223.313" stroke="fuchsia" stroke-width="10" />
<line x1="978.056" y1="223.313" x2="758.836" y2="282.266" stroke="fuchsia" stroke-width="10" />
<line x1="758.836" y1="282.266" x2="758.985" y2="164.558" stroke="fuchsia" stroke-width="10" />
<line x1="532.056" y1="578.079" x2="758.898" y2="578.11" stroke="fuchsia" stroke-width="10" />
<line x1="531.576" y1="577.932" x2="531.576" y2="577.932" stroke="fuchsia" stroke-width="10" />
<line x1="758.889" y1="519.1" x2="977.96" y2="577.855" stroke="fuchsia" stroke-width="10" />
<line x1="977.96" y1="577.855" x2="758.74" y2="636.807" stroke="fuchsia" stroke-width="10" />
<line x1="758.74" y1="636.807" x2="758.889" y2="519.1" stroke="fuchsia" stroke-width="10" />
<line x1="978.056" y1="223.313" x2="977.864" y2="45.9693" stroke="fuchsia" stroke-width="10" />
<line x1="977.743" y1="223.48" x2="978.056" y2="223.313" stroke="fuchsia" stroke-width="10" />
<line x1="978.178" y1="45.8031" x2="800.667" y2="45.6817" stroke="fuchsia" stroke-width="10" />
<line x1="977.864" y1="45.9693" x2="978.178" y2="45.8031" stroke="fuchsia" stroke-width="10" />
<line x1="800.507" y1="0" x2="629.665" y2="45.7191" stroke="fuchsia" stroke-width="10" />
<line x1="629.665" y1="45.7191" x2="800.68" y2="91.8428" stroke="fuchsia" stroke-width="10" />
<line x1="800.68" y1="91.8428" x2="800.507" y2="0" stroke="fuchsia" stroke-width="10" />
<line x1="977.96" y1="577.855" x2="978.152" y2="755.199" stroke="fuchsia" stroke-width="10" />
<line x1="977.96" y1="577.855" x2="977.647" y2="578.021" stroke="fuchsia" stroke-width="10" />
<line x1="1024" y1="755.352" x2="978.19" y2="926.201" stroke="fuchsia" stroke-width="10" />
<line x1="978.19" y1="926.201" x2="931.991" y2="755.212" stroke="fuchsia" stroke-width="10" />
<line x1="931.991" y1="755.212" x2="1024" y2="755.352" stroke="fuchsia" stroke-width="10" />
<line x1="177.323" y1="400.639" x2="177.323" y2="400.639" stroke="fuchsia" stroke-width="10" />
</svg>