<?xml version="1.0" encoding="UTF-8" ?><!-- DOCTYPE svg PUBLIC "-//W3C//DTD SVG 1.1//EN" "http://www.w3.org/Graphics/SVG/1.1/DTD/svg11.dtd" -->
<svg viewBox="0,0,1024,1327" preserveAspectRatio="xMidYMid" zoomAndPan="magnify" xmlns="http://www.w3.org/2000/svg" xmlns:xlink="http://www.w3.org/1999/xlink">
<line x1="167.337" y1="663.591" x2="502.308" y2="663.949" stroke="fuchsia" stroke-width="10" />
<line x1="167.337" y1="663.591" x2="167.337" y2="663.591" stroke="fuchsia" stroke-width="10" />
<circle cx="83.715" cy="663.722" r="83.715" fill="fuchsia" fill-opacity="0.5" stroke="fuchsia" stroke-width="10" />
<line x1="502.211" y1="328.846" x2="502.537" y2="998.598" stroke="fuchsia" stroke-width="10" />
<line x1="502.537" y1="998.598" x2="716.843" y2="998.44" stroke="fuchsia" stroke-width="10" />
<line x1="502.082" y1="998.466" x2="502.082" y2="998.466" stroke="fuchsia" stroke-width="10" />
<line x1="716.475" y1="1054.06" x2="923.374" y2="998.737" stroke="fuchsia" stroke-width="10" />
<line x1="923.374" y1="998.737" x2="716.463" y2="942.854" stroke="fuchsia" stroke-width="10" />
<line x1="716.463" y1="942.854" x2="716.475" y2="1054.06" stroke="fuchsia" stroke-width="10" />
<line x1="502.211" y1="328.846" x2="716.679" y2="328.982" stroke="fuchsia" stroke-width="10" />
<line x1="501.918" y1="329.007" x2="501.918" y2="329.007" stroke="fuchsia" stroke-width="10" />
<line x1="716.604" y1="384.436" x2="923.797" y2="328.956" stroke="fuchsia" stroke-width="10" />
<line x1="923.797" y1="328.956" x2="716.592" y2="273.234" stroke="fuchsia" stroke-width="10" />
<line x1="716.592" y1="273.234" x2="716.604" y2="384.436" stroke="fuchsia" stroke-width="10" />
<line x1="923.21" y1="329.279" x2="923.177" y2="496.684" stroke="fuchsia" stroke-width="10" />
<line x1="923.21" y1="329.279" x2="923.048" y2="328.986" stroke="fuchsia" stroke-width="10" />
<line x1="923.045" y1="497.139" x2="755.773" y2="496.652" stroke="fuchsia" stroke-width="10" />
<line x1="923.339" y1="496.977" x2="923.632" y2="496.816" stroke="fuchsia" stroke-width="10" />
<line x1="755.684" y1="540.267" x2="594.221" y2="496.839" stroke="fuchsia" stroke-width="10" />
<line x1="594.221" y1="496.839" x2="755.729" y2="453.491" stroke="fuchsia" stroke-width="10" />
<line x1="755.729" y1="453.491" x2="755.684" y2="540.267" stroke="fuchsia" stroke-width="10" />
<line x1="923.797" y1="328.956" x2="923.374" y2="161.419" stroke="fuchsia" stroke-width="10" />
<line x1="923.21" y1="329.279" x2="923.503" y2="329.118" stroke="fuchsia" stroke-width="10" />
<line x1="966.989" y1="161.508" x2="923.641" y2="0" stroke="fuchsia" stroke-width="10" />
<line x1="923.641" y1="0" x2="880.214" y2="161.463" stroke="fuchsia" stroke-width="10" />
<line x1="880.214" y1="161.463" x2="966.989" y2="161.508" stroke="fuchsia" stroke-width="10" />
<line x1="923.635" y1="1165.98" x2="923.61" y2="905.359" stroke="fuchsia" stroke-width="10" />
<line x1="966.796" y1="1165.94" x2="923.662" y2="1327.24" stroke="fuchsia" stroke-width="10" />
<line x1="923.662" y1="1327.24" x2="879.726" y2="1166.05" stroke="fuchsia" stroke-width="10" />
<line x1="879.726" y1="1166.05" x2="966.796" y2="1165.94" stroke="fuchsia" stroke-width="10" />
<circle cx="923.542" cy="804.98" r="100.458" fill="none" stroke="rgb(150, 150, 150)" stroke-width="10" />
<g>
<g>
<line x1="920.462" y1="738.655" x2="920.461" y2="872.6" stroke="rgb(150, 150, 150)" stroke-width="10" />
<line x1="926.79" y1="738.655" x2="926.788" y2="872.6" stroke="rgb(150, 150, 150)" stroke-width="10" />
<polyline points="882.50,738.65,876.17,776.62,876.17,738.65,971.08,738.66,971.08,776.62,964.76,738.66" fill="none" stroke="rgb(150, 150, 150)" stroke-width="10" />
<line x1="901.478" y1="872.6" x2="945.771" y2="872.6" stroke="rgb(150, 150, 150)" stroke-width="10" />
</g>
</g>
</svg>