<?xml version="1.0" encoding="UTF-8" ?><!-- DOCTYPE svg PUBLIC "-//W3C//DTD SVG 1.1//EN" "http://www.w3.org/Graphics/SVG/1.1/DTD/svg11.dtd" -->
<svg viewBox="0,0,1024,1050" preserveAspectRatio="xMidYMid" zoomAndPan="magnify" xmlns="http://www.w3.org/2000/svg" xmlns:xlink="http://www.w3.org/1999/xlink">
<line x1="177.099" y1="525.88" x2="531.692" y2="525.703" stroke="fuchsia" stroke-width="10" />
<line x1="177.099" y1="525.88" x2="177.099" y2="525.88" stroke="fuchsia" stroke-width="10" />
<circle cx="88.6056" cy="525.531" r="88.6056" fill="fuchsia" fill-opacity="0.5" stroke="fuchsia" stroke-width="10" />
<line x1="531.388" y1="348.279" x2="531.908" y2="702.783" stroke="fuchsia" stroke-width="10" />
<line x1="531.908" y1="702.783" x2="758.418" y2="702.649" stroke="fuchsia" stroke-width="10" />
<line x1="531.565" y1="702.872" x2="531.565" y2="702.872" stroke="fuchsia" stroke-width="10" />
<line x1="531.388" y1="348.279" x2="758.329" y2="348.399" stroke="fuchsia" stroke-width="10" />
<line x1="531.045" y1="348.367" x2="531.045" y2="348.367" stroke="fuchsia" stroke-width="10" />
<line x1="758.486" y1="407.282" x2="977.444" y2="347.973" stroke="fuchsia" stroke-width="10" />
<line x1="977.444" y1="347.973" x2="758.515" y2="289.428" stroke="fuchsia" stroke-width="10" />
<line x1="758.515" y1="289.428" x2="758.486" y2="407.282" stroke="fuchsia" stroke-width="10" />
<line x1="977.621" y1="702.566" x2="977.837" y2="879.646" stroke="fuchsia" stroke-width="10" />
<line x1="977.533" y1="702.222" x2="977.189" y2="702.311" stroke="fuchsia" stroke-width="10" />
<line x1="977.582" y1="880.078" x2="977.837" y2="879.646" stroke="fuchsia" stroke-width="10" />
<line x1="977.444" y1="347.973" x2="977.228" y2="170.892" stroke="fuchsia" stroke-width="10" />
<line x1="977.189" y1="348.404" x2="977.532" y2="348.316" stroke="fuchsia" stroke-width="10" />
<line x1="1022.96" y1="170.828" x2="977.141" y2="0" stroke="fuchsia" stroke-width="10" />
<line x1="977.141" y1="0" x2="931.153" y2="171.045" stroke="fuchsia" stroke-width="10" />
<line x1="931.153" y1="171.045" x2="1022.96" y2="170.828" stroke="fuchsia" stroke-width="10" />
<line x1="1024" y1="879.837" x2="978.267" y2="1050.45" stroke="fuchsia" stroke-width="10" />
<line x1="978.267" y1="1050.45" x2="932.106" y2="879.711" stroke="fuchsia" stroke-width="10" />
<line x1="932.106" y1="879.711" x2="1024" y2="879.837" stroke="fuchsia" stroke-width="10" />
<line x1="177.099" y1="525.88" x2="177.099" y2="525.88" stroke="fuchsia" stroke-width="10" />
<line x1="531.565" y1="702.872" x2="531.565" y2="702.872" stroke="fuchsia" stroke-width="10" />
<line x1="758.575" y1="761.532" x2="977.621" y2="702.566" stroke="fuchsia" stroke-width="10" />
<line x1="977.621" y1="702.566" x2="758.692" y2="644.021" stroke="fuchsia" stroke-width="10" />
<line x1="758.692" y1="644.021" x2="758.575" y2="761.532" stroke="fuchsia" stroke-width="10" />
<line x1="531.045" y1="348.367" x2="531.045" y2="348.367" stroke="fuchsia" stroke-width="10" />
<line x1="977.533" y1="702.222" x2="977.189" y2="702.311" stroke="fuchsia" stroke-width="10" />
<line x1="977.582" y1="880.078" x2="977.837" y2="879.646" stroke="fuchsia" stroke-width="10" />
<line x1="977.189" y1="348.404" x2="977.532" y2="348.316" stroke="fuchsia" stroke-width="10" />
</svg>