<?xml version="1.0" encoding="UTF-8" ?><!-- DOCTYPE svg PUBLIC "-//W3C//DTD SVG 1.1//EN" "http://www.w3.org/Graphics/SVG/1.1/DTD/svg11.dtd" -->
<svg viewBox="0,0,1024,417" preserveAspectRatio="xMidYMid" zoomAndPan="magnify" xmlns="http://www.w3.org/2000/svg" xmlns:xlink="http://www.w3.org/1999/xlink">
<line x1="207.415" y1="261.611" x2="622.801" y2="261.501" stroke="fuchsia" stroke-width="10" />
<line x1="207.415" y1="261.611" x2="207.415" y2="261.611" stroke="fuchsia" stroke-width="10" />
<line x1="622.716" y1="369.056" x2="1024" y2="261.611" stroke="fuchsia" stroke-width="10" />
<line x1="1024" y1="261.611" x2="622.886" y2="153.947" stroke="fuchsia" stroke-width="10" />
<line x1="622.886" y1="153.947" x2="622.716" y2="369.056" stroke="fuchsia" stroke-width="10" />
<line x1="1024" y1="261.611" x2="1023.75" y2="53.8477" stroke="fuchsia" stroke-width="10" />
<line x1="1023.47" y1="261.862" x2="1023.86" y2="262.002" stroke="fuchsia" stroke-width="10" />
<circle cx="103.798" cy="261.611" r="103.798" fill="fuchsia" fill-opacity="0.5" stroke="fuchsia" stroke-width="10" />
<line x1="1023.89" y1="53.4568" x2="816.266" y2="53.3163" stroke="fuchsia" stroke-width="10" />
<line x1="1023.75" y1="53.8477" x2="1023.89" y2="53.4568" stroke="fuchsia" stroke-width="10" />
<line x1="816.364" y1="0" x2="615.988" y2="53.5967" stroke="fuchsia" stroke-width="10" />
<line x1="615.988" y1="53.5967" x2="816.279" y2="107.554" stroke="fuchsia" stroke-width="10" />
<line x1="816.279" y1="107.554" x2="816.364" y2="0" stroke="fuchsia" stroke-width="10" />
<line x1="1024" y1="261.611" x2="1023.75" y2="53.8477" stroke="fuchsia" stroke-width="10" />
<line x1="1023.47" y1="261.862" x2="1023.86" y2="262.002" stroke="fuchsia" stroke-width="10" />
<line x1="687.61" y1="416.943" x2="1008.45" y2="331.01" stroke="fuchsia" stroke-width="10" />
<line x1="687.611" y1="106.095" x2="1008.69" y2="192.203" stroke="fuchsia" stroke-width="10" />
</svg>