<?xml version="1.0" encoding="UTF-8" ?><!-- DOCTYPE svg PUBLIC "-//W3C//DTD SVG 1.1//EN" "http://www.w3.org/Graphics/SVG/1.1/DTD/svg11.dtd" -->
<svg viewBox="0,0,1024,417" preserveAspectRatio="xMidYMid" zoomAndPan="magnify" xmlns="http://www.w3.org/2000/svg" xmlns:xlink="http://www.w3.org/1999/xlink">
<line x1="207.816" y1="155.048" x2="622.666" y2="155.013" stroke="fuchsia" stroke-width="10" />
<line x1="207.816" y1="155.048" x2="207.816" y2="155.048" stroke="fuchsia" stroke-width="10" />
<line x1="622.806" y1="47.7816" x2="1024" y2="154.993" stroke="fuchsia" stroke-width="10" />
<line x1="1024" y1="154.993" x2="622.806" y2="262.551" stroke="fuchsia" stroke-width="10" />
<line x1="622.806" y1="262.551" x2="622.806" y2="47.7816" stroke="fuchsia" stroke-width="10" />
<line x1="1024" y1="154.993" x2="1023.71" y2="362.699" stroke="fuchsia" stroke-width="10" />
<line x1="1024" y1="154.993" x2="1023.41" y2="154.968" stroke="fuchsia" stroke-width="10" />
<circle cx="103.781" cy="154.993" r="103.781" fill="fuchsia" fill-opacity="0.5" stroke="fuchsia" stroke-width="10" />
<line x1="1023.99" y1="363.005" x2="816.287" y2="362.716" stroke="fuchsia" stroke-width="10" />
<line x1="1023.99" y1="363.005" x2="1023.71" y2="362.699" stroke="fuchsia" stroke-width="10" />
<line x1="816.344" y1="416.778" x2="616.487" y2="363.057" stroke="fuchsia" stroke-width="10" />
<line x1="616.487" y1="363.057" x2="815.923" y2="308.935" stroke="fuchsia" stroke-width="10" />
<line x1="815.923" y1="308.935" x2="816.344" y2="416.778" stroke="fuchsia" stroke-width="10" />
<line x1="1024" y1="154.993" x2="1023.71" y2="362.699" stroke="fuchsia" stroke-width="10" />
<line x1="1024" y1="154.993" x2="1023.41" y2="154.968" stroke="fuchsia" stroke-width="10" />
<line x1="687.706" y1="0" x2="1008.42" y2="85.8767" stroke="fuchsia" stroke-width="10" />
<line x1="687.476" y1="310.245" x2="1008.42" y2="224.551" stroke="fuchsia" stroke-width="10" />
</svg>