<?xml version="1.0" encoding="UTF-8" ?><!-- DOCTYPE svg PUBLIC "-//W3C//DTD SVG 1.1//EN" "http://www.w3.org/Graphics/SVG/1.1/DTD/svg11.dtd" -->
<svg viewBox="0,0,1024,523" preserveAspectRatio="xMidYMid" zoomAndPan="magnify" xmlns="http://www.w3.org/2000/svg" xmlns:xlink="http://www.w3.org/1999/xlink">
<line x1="0" y1="327.939" x2="520.94" y2="328.041" stroke="fuchsia" stroke-width="10" />
<line x1="520.922" y1="462.642" x2="1023.72" y2="327.939" stroke="fuchsia" stroke-width="10" />
<line x1="1023.72" y1="327.939" x2="520.725" y2="192.974" stroke="fuchsia" stroke-width="10" />
<line x1="520.725" y1="192.974" x2="520.922" y2="462.642" stroke="fuchsia" stroke-width="10" />
<line x1="1023.72" y1="327.939" x2="1023.77" y2="68.0507" stroke="fuchsia" stroke-width="10" />
<line x1="1023.48" y1="328.638" x2="1023.95" y2="328.404" stroke="fuchsia" stroke-width="10" />
<line x1="1024" y1="67.3517" x2="763.413" y2="67.0681" stroke="fuchsia" stroke-width="10" />
<line x1="1023.77" y1="68.0507" x2="1024" y2="67.3517" stroke="fuchsia" stroke-width="10" />
<line x1="763.539" y1="0" x2="512.375" y2="67.2349" stroke="fuchsia" stroke-width="10" />
<line x1="512.375" y1="67.2349" x2="763.521" y2="134.601" stroke="fuchsia" stroke-width="10" />
<line x1="763.521" y1="134.601" x2="763.539" y2="0" stroke="fuchsia" stroke-width="10" />
<line x1="1023.72" y1="327.939" x2="1023.77" y2="68.0507" stroke="fuchsia" stroke-width="10" />
<line x1="1023.48" y1="328.638" x2="1023.95" y2="328.404" stroke="fuchsia" stroke-width="10" />
<line x1="601.825" y1="522.828" x2="1004.53" y2="415.064" stroke="fuchsia" stroke-width="10" />
<line x1="601.903" y1="132.996" x2="1004.48" y2="240.874" stroke="fuchsia" stroke-width="10" />
</svg>