<?xml version="1.0" encoding="UTF-8" ?><!-- DOCTYPE svg PUBLIC "-//W3C//DTD SVG 1.1//EN" "http://www.w3.org/Graphics/SVG/1.1/DTD/svg11.dtd" -->
<svg viewBox="0,0,1024,579" preserveAspectRatio="xMidYMid" zoomAndPan="magnify" xmlns="http://www.w3.org/2000/svg" xmlns:xlink="http://www.w3.org/1999/xlink">
<line x1="185.801" y1="287.278" x2="556.696" y2="287.271" stroke="fuchsia" stroke-width="10" />
<line x1="185.801" y1="287.278" x2="185.801" y2="287.278" stroke="fuchsia" stroke-width="10" />
<circle cx="92.8154" cy="287.271" r="92.8154" fill="fuchsia" fill-opacity="0.5" stroke="fuchsia" stroke-width="10" />
<line x1="556.953" y1="472.99" x2="556.964" y2="101.571" stroke="fuchsia" stroke-width="10" />
<line x1="556.964" y1="101.571" x2="794.414" y2="101.758" stroke="fuchsia" stroke-width="10" />
<line x1="556.439" y1="101.553" x2="556.439" y2="101.553" stroke="fuchsia" stroke-width="10" />
<line x1="832.481" y1="202.867" x2="1015.91" y2="153.938" stroke="fuchsia" stroke-width="10" />
<line x1="822.3" y1="0" x2="1005.56" y2="48.7795" stroke="fuchsia" stroke-width="10" />
<line x1="794.672" y1="40.0383" x2="1023.99" y2="101.678" stroke="fuchsia" stroke-width="10" />
<line x1="1023.99" y1="101.678" x2="794.427" y2="163.224" stroke="fuchsia" stroke-width="10" />
<line x1="794.427" y1="163.224" x2="794.672" y2="40.0383" stroke="fuchsia" stroke-width="10" />
<line x1="556.953" y1="472.99" x2="794.674" y2="472.924" stroke="fuchsia" stroke-width="10" />
<line x1="556.428" y1="472.972" x2="556.428" y2="472.972" stroke="fuchsia" stroke-width="10" />
<line x1="811.809" y1="579.363" x2="994.988" y2="530.163" stroke="fuchsia" stroke-width="10" />
<line x1="794.408" y1="411.186" x2="1023.73" y2="472.826" stroke="fuchsia" stroke-width="10" />
<line x1="1023.73" y1="472.826" x2="794.416" y2="534.643" stroke="fuchsia" stroke-width="10" />
<line x1="794.416" y1="534.643" x2="794.408" y2="411.186" stroke="fuchsia" stroke-width="10" />
<line x1="1023.72" y1="101.931" x2="1023.72" y2="101.931" stroke="fuchsia" stroke-width="10" />
<line x1="1024" y1="472.572" x2="1023.48" y2="472.554" stroke="fuchsia" stroke-width="10" />
<line x1="811.43" y1="366.322" x2="994.948" y2="415.373" stroke="fuchsia" stroke-width="10" />
</svg>