<?xml version="1.0" encoding="UTF-8" ?><!-- DOCTYPE svg PUBLIC "-//W3C//DTD SVG 1.1//EN" "http://www.w3.org/Graphics/SVG/1.1/DTD/svg11.dtd" -->
<svg viewBox="0,0,1024,927" preserveAspectRatio="xMidYMid" zoomAndPan="magnify" xmlns="http://www.w3.org/2000/svg" xmlns:xlink="http://www.w3.org/1999/xlink">
<line x1="177.059" y1="525.702" x2="531.957" y2="525.724" stroke="fuchsia" stroke-width="10" />
<line x1="177.059" y1="525.702" x2="177.059" y2="525.702" stroke="fuchsia" stroke-width="10" />
<circle cx="88.7068" cy="525.855" r="88.7068" fill="fuchsia" fill-opacity="0.5" stroke="fuchsia" stroke-width="10" />
<line x1="532.087" y1="348.406" x2="532.065" y2="703.304" stroke="fuchsia" stroke-width="10" />
<line x1="532.065" y1="703.304" x2="759.124" y2="703.214" stroke="fuchsia" stroke-width="10" />
<line x1="531.564" y1="703.28" x2="531.564" y2="703.28" stroke="fuchsia" stroke-width="10" />
<line x1="795.492" y1="606.18" x2="970.4" y2="653.168" stroke="fuchsia" stroke-width="10" />
<line x1="785.793" y1="800.388" x2="961.248" y2="753.716" stroke="fuchsia" stroke-width="10" />
<line x1="759.168" y1="762.24" x2="978.641" y2="703.279" stroke="fuchsia" stroke-width="10" />
<line x1="978.641" y1="703.279" x2="759.08" y2="644.187" stroke="fuchsia" stroke-width="10" />
<line x1="759.08" y1="644.187" x2="759.168" y2="762.24" stroke="fuchsia" stroke-width="10" />
<line x1="532.087" y1="348.406" x2="758.884" y2="348.555" stroke="fuchsia" stroke-width="10" />
<line x1="531.848" y1="348.144" x2="531.848" y2="348.144" stroke="fuchsia" stroke-width="10" />
<line x1="775.386" y1="246.588" x2="950.795" y2="293.599" stroke="fuchsia" stroke-width="10" />
<line x1="758.951" y1="407.08" x2="978.162" y2="348.358" stroke="fuchsia" stroke-width="10" />
<line x1="978.162" y1="348.358" x2="758.84" y2="289.529" stroke="fuchsia" stroke-width="10" />
<line x1="758.84" y1="289.529" x2="758.951" y2="407.08" stroke="fuchsia" stroke-width="10" />
<line x1="978.641" y1="703.279" x2="978.51" y2="880.596" stroke="fuchsia" stroke-width="10" />
<line x1="978.664" y1="702.777" x2="978.163" y2="702.754" stroke="fuchsia" stroke-width="10" />
<line x1="978.487" y1="881.098" x2="800.907" y2="881.206" stroke="fuchsia" stroke-width="10" />
<line x1="978.487" y1="881.098" x2="978.51" y2="880.596" stroke="fuchsia" stroke-width="10" />
<line x1="801.073" y1="926.675" x2="629.867" y2="881.114" stroke="fuchsia" stroke-width="10" />
<line x1="629.867" y1="881.114" x2="801.027" y2="834.997" stroke="fuchsia" stroke-width="10" />
<line x1="801.027" y1="834.997" x2="801.073" y2="926.675" stroke="fuchsia" stroke-width="10" />
<line x1="978.162" y1="348.358" x2="978.292" y2="171.04" stroke="fuchsia" stroke-width="10" />
<line x1="977.899" y1="348.597" x2="978.401" y2="348.62" stroke="fuchsia" stroke-width="10" />
<line x1="1024" y1="171.136" x2="978.385" y2="0" stroke="fuchsia" stroke-width="10" />
<line x1="978.385" y1="0" x2="932.083" y2="170.921" stroke="fuchsia" stroke-width="10" />
<line x1="932.083" y1="170.921" x2="1024" y2="171.136" stroke="fuchsia" stroke-width="10" />
<line x1="775.296" y1="450.28" x2="950.774" y2="403.107" stroke="fuchsia" stroke-width="10" />
</svg>