<?xml version="1.0" encoding="UTF-8" ?><!-- DOCTYPE svg PUBLIC "-//W3C//DTD SVG 1.1//EN" "http://www.w3.org/Graphics/SVG/1.1/DTD/svg11.dtd" -->
<svg viewBox="0,0,1024,579" preserveAspectRatio="xMidYMid" zoomAndPan="magnify" xmlns="http://www.w3.org/2000/svg" xmlns:xlink="http://www.w3.org/1999/xlink">
<line x1="185.801" y1="287.29" x2="556.694" y2="287.275" stroke="fuchsia" stroke-width="10" />
<line x1="185.801" y1="287.29" x2="185.801" y2="287.29" stroke="fuchsia" stroke-width="10" />
<circle cx="92.8151" cy="287.284" r="92.8151" fill="fuchsia" fill-opacity="0.5" stroke="fuchsia" stroke-width="10" />
<line x1="556.955" y1="472.993" x2="556.958" y2="101.575" stroke="fuchsia" stroke-width="10" />
<line x1="556.958" y1="101.575" x2="794.408" y2="101.758" stroke="fuchsia" stroke-width="10" />
<line x1="556.434" y1="101.557" x2="556.434" y2="101.557" stroke="fuchsia" stroke-width="10" />
<line x1="832.477" y1="202.866" x2="1015.91" y2="153.933" stroke="fuchsia" stroke-width="10" />
<line x1="822.291" y1="0" x2="1005.56" y2="48.7758" stroke="fuchsia" stroke-width="10" />
<line x1="794.665" y1="40.0387" x2="1023.99" y2="101.673" stroke="fuchsia" stroke-width="10" />
<line x1="1023.99" y1="101.673" x2="794.422" y2="163.224" stroke="fuchsia" stroke-width="10" />
<line x1="794.422" y1="163.224" x2="794.665" y2="40.0387" stroke="fuchsia" stroke-width="10" />
<line x1="556.955" y1="472.993" x2="794.675" y2="472.923" stroke="fuchsia" stroke-width="10" />
<line x1="556.43" y1="472.976" x2="556.43" y2="472.976" stroke="fuchsia" stroke-width="10" />
<line x1="811.812" y1="579.361" x2="994.989" y2="530.157" stroke="fuchsia" stroke-width="10" />
<line x1="794.408" y1="411.186" x2="1023.73" y2="472.82" stroke="fuchsia" stroke-width="10" />
<line x1="1023.73" y1="472.82" x2="794.418" y2="534.642" stroke="fuchsia" stroke-width="10" />
<line x1="794.418" y1="534.642" x2="794.408" y2="411.186" stroke="fuchsia" stroke-width="10" />
<line x1="1023.71" y1="101.927" x2="1023.71" y2="101.927" stroke="fuchsia" stroke-width="10" />
<line x1="1024" y1="472.567" x2="1023.48" y2="472.549" stroke="fuchsia" stroke-width="10" />
<line x1="811.429" y1="366.321" x2="994.947" y2="415.368" stroke="fuchsia" stroke-width="10" />
</svg>