<?xml version="1.0" encoding="UTF-8" ?><!-- DOCTYPE svg PUBLIC "-//W3C//DTD SVG 1.1//EN" "http://www.w3.org/Graphics/SVG/1.1/DTD/svg11.dtd" -->
<svg viewBox="0,0,1024,1051" preserveAspectRatio="xMidYMid" zoomAndPan="magnify" xmlns="http://www.w3.org/2000/svg" xmlns:xlink="http://www.w3.org/1999/xlink">
<line x1="177.083" y1="525.885" x2="531.634" y2="525.694" stroke="fuchsia" stroke-width="10" />
<line x1="177.083" y1="525.885" x2="177.083" y2="525.885" stroke="fuchsia" stroke-width="10" />
<circle cx="88.6198" cy="525.694" r="88.6198" fill="fuchsia" fill-opacity="0.5" stroke="fuchsia" stroke-width="10" />
<line x1="531.553" y1="348.595" x2="531.716" y2="702.793" stroke="fuchsia" stroke-width="10" />
<line x1="531.716" y1="702.793" x2="758.623" y2="702.956" stroke="fuchsia" stroke-width="10" />
<line x1="531.362" y1="702.822" x2="531.362" y2="702.822" stroke="fuchsia" stroke-width="10" />
<line x1="794.547" y1="606.166" x2="969.732" y2="652.828" stroke="fuchsia" stroke-width="10" />
<line x1="785.313" y1="800.022" x2="960.411" y2="753.158" stroke="fuchsia" stroke-width="10" />
<line x1="531.553" y1="348.595" x2="758.432" y2="348.404" stroke="fuchsia" stroke-width="10" />
<line x1="531.171" y1="348.27" x2="531.171" y2="348.27" stroke="fuchsia" stroke-width="10" />
<line x1="774.734" y1="246.443" x2="949.919" y2="293.104" stroke="fuchsia" stroke-width="10" />
<line x1="758.549" y1="407.074" x2="977.481" y2="348.135" stroke="fuchsia" stroke-width="10" />
<line x1="977.481" y1="348.135" x2="758.287" y2="289.381" stroke="fuchsia" stroke-width="10" />
<line x1="758.287" y1="289.381" x2="758.549" y2="407.074" stroke="fuchsia" stroke-width="10" />
<line x1="977.672" y1="702.686" x2="977.753" y2="879.786" stroke="fuchsia" stroke-width="10" />
<line x1="977.644" y1="702.333" x2="977.29" y2="702.362" stroke="fuchsia" stroke-width="10" />
<line x1="977.481" y1="348.135" x2="977.4" y2="171.036" stroke="fuchsia" stroke-width="10" />
<line x1="977.156" y1="348.517" x2="977.51" y2="348.488" stroke="fuchsia" stroke-width="10" />
<line x1="1022.91" y1="170.915" x2="977.097" y2="0" stroke="fuchsia" stroke-width="10" />
<line x1="977.097" y1="0" x2="931.153" y2="170.86" stroke="fuchsia" stroke-width="10" />
<line x1="931.153" y1="170.86" x2="1022.91" y2="170.915" stroke="fuchsia" stroke-width="10" />
<line x1="774.808" y1="449.859" x2="949.906" y2="402.996" stroke="fuchsia" stroke-width="10" />
<line x1="177.083" y1="525.885" x2="177.083" y2="525.885" stroke="fuchsia" stroke-width="10" />
<line x1="531.362" y1="702.822" x2="531.362" y2="702.822" stroke="fuchsia" stroke-width="10" />
<line x1="758.74" y1="761.626" x2="977.672" y2="702.686" stroke="fuchsia" stroke-width="10" />
<line x1="977.672" y1="702.686" x2="758.478" y2="643.932" stroke="fuchsia" stroke-width="10" />
<line x1="758.478" y1="643.932" x2="758.74" y2="761.626" stroke="fuchsia" stroke-width="10" />
<line x1="531.171" y1="348.27" x2="531.171" y2="348.27" stroke="fuchsia" stroke-width="10" />
<line x1="977.644" y1="702.333" x2="977.29" y2="702.362" stroke="fuchsia" stroke-width="10" />
<line x1="977.156" y1="348.517" x2="977.51" y2="348.488" stroke="fuchsia" stroke-width="10" />
<line x1="1024" y1="879.962" x2="978.056" y2="1050.82" stroke="fuchsia" stroke-width="10" />
<line x1="978.056" y1="1050.82" x2="931.889" y2="879.934" stroke="fuchsia" stroke-width="10" />
<line x1="931.889" y1="879.934" x2="1024" y2="879.962" stroke="fuchsia" stroke-width="10" />
</svg>