<?xml version="1.0" encoding="UTF-8" ?><!-- DOCTYPE svg PUBLIC "-//W3C//DTD SVG 1.1//EN" "http://www.w3.org/Graphics/SVG/1.1/DTD/svg11.dtd" -->
<svg viewBox="0,0,1024,2134" preserveAspectRatio="xMidYMid" zoomAndPan="magnify" xmlns="http://www.w3.org/2000/svg" xmlns:xlink="http://www.w3.org/1999/xlink">
<g>
<path d="M231.65,511.93 A280.28,280.28 0.00 1,1 792.21,511.93" fill="white" fill-opacity="0.5" stroke="rgb(150, 150, 150)" stroke-width="0.50" />
<line x1="792.349" y1="512.024" x2="792.349" y2="1621.68" stroke="rgb(150, 150, 150)" stroke-width="0.50" />
<path d="M792.21,1621.76 A280.28,280.28 0.00 1,1 231.65,1621.76" fill="white" fill-opacity="0.5" stroke="rgb(150, 150, 150)" stroke-width="0.50" />
<line x1="231.751" y1="1621.68" x2="231.751" y2="512.024" stroke="rgb(150, 150, 150)" stroke-width="0.50" />
<line x1="231.751" y1="512.024" x2="231.751" y2="512.024" stroke="rgb(150, 150, 150)" stroke-width="0.50" />
<circle cx="511.825" cy="511.902" r="214.593" fill="white" fill-opacity="0.5" stroke="rgb(150, 150, 150)" stroke-width="0.50" />
<circle cx="511.825" cy="1066.73" r="214.593" fill="white" fill-opacity="0.5" stroke="rgb(150, 150, 150)" stroke-width="0.50" />
<circle cx="511.825" cy="1621.79" r="214.593" fill="white" fill-opacity="0.5" stroke="rgb(150, 150, 150)" stroke-width="0.50" />
</g>
<circle cx="511.932" cy="511.932" r="214.593" fill="red" fill-opacity="0.5" stroke="red" stroke-width="0.50" />
<circle cx="511.932" cy="1066.85" r="214.593" fill="yellow" fill-opacity="0.5" stroke="yellow" stroke-width="0.50" />
<circle cx="511.932" cy="1621.76" r="214.593" fill="lime" fill-opacity="0.5" stroke="lime" stroke-width="0.50" />
<line x1="0.0994651" y1="1621.68" x2="0.0994651" y2="512.024" stroke="rgb(150, 150, 150)" stroke-width="0.50" />
<path d="M0.00,511.93 A511.93,511.93 0.00 1,1 1023.86,511.93" fill="white" fill-opacity="0.5" stroke="rgb(150, 150, 150)" stroke-width="0.50" />
<line x1="1024" y1="512.024" x2="1024" y2="1621.68" stroke="rgb(150, 150, 150)" stroke-width="0.50" />
<path d="M1023.86,1621.76 A511.93,511.93 0.00 1,1 -0.00,1621.76" fill="white" fill-opacity="0.5" stroke="rgb(150, 150, 150)" stroke-width="0.50" />
</svg>