<?xml version="1.0" encoding="UTF-8" ?><!-- DOCTYPE svg PUBLIC "-//W3C//DTD SVG 1.1//EN" "http://www.w3.org/Graphics/SVG/1.1/DTD/svg11.dtd" -->
<svg viewBox="0,0,1024,518" preserveAspectRatio="xMidYMid" zoomAndPan="magnify" xmlns="http://www.w3.org/2000/svg" xmlns:xlink="http://www.w3.org/1999/xlink">
<line x1="194.563" y1="258.952" x2="437.4" y2="258.727" stroke="fuchsia" stroke-width="10" />
<line x1="194.563" y1="258.952" x2="194.563" y2="258.952" stroke="fuchsia" stroke-width="10" />
<circle cx="97.2129" cy="258.863" r="97.2129" fill="fuchsia" fill-opacity="0.5" stroke="fuchsia" stroke-width="10" />
<line x1="534.887" y1="64.5014" x2="783.565" y2="64.5" stroke="fuchsia" stroke-width="10" />
<line x1="534.5" y1="64.4606" x2="534.5" y2="64.4606" stroke="fuchsia" stroke-width="10" />
<line x1="783.713" y1="0" x2="1024" y2="64.8032" stroke="fuchsia" stroke-width="10" />
<line x1="1024" y1="64.8032" x2="783.418" y2="129" stroke="fuchsia" stroke-width="10" />
<line x1="783.418" y1="129" x2="783.713" y2="0" stroke="fuchsia" stroke-width="10" />
<line x1="534.573" y1="453.516" x2="783.637" y2="453.555" stroke="fuchsia" stroke-width="10" />
<line x1="534.186" y1="453.475" x2="534.186" y2="453.475" stroke="fuchsia" stroke-width="10" />
<line x1="783.398" y1="389.015" x2="1023.73" y2="453.431" stroke="fuchsia" stroke-width="10" />
<line x1="1023.73" y1="453.431" x2="783.49" y2="518.055" stroke="fuchsia" stroke-width="10" />
<line x1="783.49" y1="518.055" x2="783.398" y2="389.015" stroke="fuchsia" stroke-width="10" />
<line x1="1023.61" y1="64.7625" x2="1024" y2="64.8032" stroke="fuchsia" stroke-width="10" />
<line x1="1023.73" y1="453.431" x2="1023.34" y2="453.391" stroke="fuchsia" stroke-width="10" />
<line x1="194.563" y1="258.952" x2="194.563" y2="258.952" stroke="fuchsia" stroke-width="10" />
<polyline points="534.89,64.50,631.71,258.86,534.57,453.52" fill="none" stroke="fuchsia" stroke-width="10" />
<polyline points="534.89,64.50,437.40,258.73,534.57,453.52" fill="none" stroke="fuchsia" stroke-width="10" />
</svg>