<?xml version="1.0" encoding="UTF-8" standalone="no" ?>
<!DOCTYPE svg PUBLIC "-//W3C//DTD SVG 1.1//EN" "http://www.w3.org/Graphics/SVG/1.1/DTD/svg11.dtd">
<svg xmlns="http://www.w3.org/2000/svg" xmlns:xlink="http://www.w3.org/1999/xlink" version="1.1" width="1076"
	height="525" viewBox="182.42166344294003 -120.95108952880194 1076 525" xml:space="preserve">
	<desc>Created with Fabric.js 6.4.3</desc>
	<defs>
	</defs>
	<g transform="matrix(1 0 0 1 477.4217 241.5489)">
		<g style="">
			<g transform="matrix(1 0 0 1 0 0)">
				<g style="">
					<g transform="matrix(1 0 0 1 -136.89 -20.2273)">
						<path
							style="stroke: none; stroke-width: 1; stroke-dasharray: none; stroke-linecap: butt; stroke-dashoffset: 0; stroke-linejoin: miter; stroke-miterlimit: 4; fill: rgb(255,255,255); fill-rule: nonzero; opacity: 1;"
							transform=" translate(-112.84, -141.775)"
							d="M 45.23 245.61 L 45.23 155.84 L 183.38 155.84 L 183.38 245.39 L 161.1 245.39 L 161.1 172.49 L 66.38 172.49 L 66.38 245.61 L 45.23 245.61 M 57.83 204.21 L 57.83 189.14 L 168.08 189.14 L 168.08 204.21 L 57.83 204.21 M 57.83 237.96 L 57.83 221.54 L 171 221.54 L 171 237.96 L 57.83 237.96 M 12.38 107.46 L 12.38 88.34 L 212.85 88.34 L 212.85 107.46 L 12.38 107.46 M 101.48 150.21 L 101.48 59.54 L 123.53 59.54 L 123.53 150.21 L 101.48 150.21 M 92.92 92.84 L 109.8 99.59 Q 102.15 110.84 92.14 121.19 Q 82.13 131.54 70.42 140.54 Q 58.73 149.54 46.24 156.85 Q 33.75 164.16 21.15 169.11 Q 19.57 166.41 17.1 163.26 Q 14.63 160.11 12.04 157.08 Q 9.45 154.04 6.98 152.01 Q 19.35 147.74 31.73 141.55 Q 44.1 135.36 55.58 127.6 Q 67.05 119.84 76.61 110.95 Q 86.17 102.06 92.92 92.84 M 114.75 100.71 L 131.4 93.51 Q 138.38 102.29 148.28 110.61 Q 158.18 118.94 169.88 126.36 Q 181.58 133.79 194.06 139.75 Q 206.55 145.71 218.7 149.76 Q 216.45 151.79 213.75 154.94 Q 211.05 158.09 208.69 161.24 Q 206.33 164.39 204.75 167.09 Q 192.38 162.14 179.89 155.05 Q 167.4 147.96 155.47 139.3 Q 143.55 130.64 133.2 120.85 Q 122.85 111.06 114.75 100.71 M 173.03 37.94 L 188.55 54.81 Q 173.47 58.64 154.91 61.68 Q 136.35 64.71 116.33 66.85 Q 96.3 68.99 75.94 70.34 Q 55.58 71.69 36.23 72.36 Q 35.77 68.54 34.2 63.25 Q 32.63 57.96 31.05 54.36 Q 49.95 53.46 69.75 52 Q 89.55 50.54 108.56 48.51 Q 127.58 46.49 144.11 43.79 Q 160.65 41.09 173.03 37.94"
							stroke-linecap="round" />
					</g>
					<g transform="matrix(1 0 0 1 139.8 -21.5773)">
						<path
							style="stroke: none; stroke-width: 1; stroke-dasharray: none; stroke-linecap: butt; stroke-dashoffset: 0; stroke-linejoin: miter; stroke-miterlimit: 4; fill: rgb(255,255,255); fill-rule: nonzero; opacity: 1;"
							transform=" translate(-114.305, -140.425)"
							d="M 95.4 215.91 L 95.4 143.46 L 114.98 143.46 L 114.98 215.69 Q 114.98 221.76 117.79 223.45 Q 120.6 225.14 130.72 225.14 Q 132.53 225.14 136.8 225.14 Q 141.08 225.14 146.7 225.14 Q 152.33 225.14 157.84 225.14 Q 163.35 225.14 168.08 225.14 Q 172.8 225.14 175.05 225.14 Q 180.68 225.14 183.38 223.45 Q 186.08 221.76 187.31 216.48 Q 188.55 211.19 189 200.84 Q 192.6 203.31 197.89 205.34 Q 203.18 207.36 207.45 208.49 Q 206.1 222.21 203.06 229.98 Q 200.03 237.74 193.84 240.78 Q 187.65 243.81 176.63 243.81 Q 174.83 243.81 169.99 243.81 Q 165.15 243.81 158.96 243.81 Q 152.78 243.81 146.59 243.81 Q 140.4 243.81 135.68 243.81 Q 130.95 243.81 129.15 243.81 Q 116.1 243.81 108.67 241.45 Q 101.25 239.09 98.33 233.01 Q 95.4 226.94 95.4 215.91 M 18.68 53.91 L 30.6 38.16 Q 37.35 40.86 44.77 44.91 Q 52.2 48.96 58.73 53.13 Q 65.25 57.29 69.53 61.34 L 56.93 78.66 Q 53.1 74.84 46.69 70.34 Q 40.27 65.84 32.85 61.45 Q 25.43 57.06 18.68 53.91 M 6.98 114.66 L 18.68 98.69 Q 25.65 101.16 33.08 104.88 Q 40.5 108.59 47.02 112.64 Q 53.55 116.69 57.83 120.29 L 45.45 138.06 Q 41.63 134.24 35.1 129.96 Q 28.57 125.69 21.26 121.64 Q 13.95 117.59 6.98 114.66 M 31.95 242.91 L 12.83 230.09 Q 18.23 221.31 24.53 209.39 Q 30.82 197.46 37.35 183.96 Q 43.88 170.46 49.5 157.64 L 66.15 170.46 Q 61.2 182.39 55.46 194.99 Q 49.73 207.59 43.76 219.85 Q 37.8 232.11 31.95 242.91 M 104.63 159.89 L 104.63 143.46 L 180 143.46 L 180 195.89 L 104.63 195.89 L 104.63 179.46 L 160.88 179.46 L 160.88 159.89 L 104.63 159.89 M 70.2 81.36 L 70.2 62.24 L 211.28 62.24 L 211.28 81.36 L 70.2 81.36 M 61.2 122.76 L 61.2 103.41 L 217.8 103.41 L 217.8 122.76 L 61.2 122.76 M 99.45 116.69 L 99.45 37.04 L 120.15 37.04 L 120.15 116.69 L 99.45 116.69 M 158.63 117.14 L 158.63 37.04 L 179.55 37.04 L 179.55 117.14 L 158.63 117.14 M 102.38 115.56 L 120.6 121.86 Q 115.2 134.24 107.44 146.16 Q 99.67 158.09 90.45 168.21 Q 81.23 178.34 71.55 185.09 Q 69.98 182.61 67.39 179.69 Q 64.8 176.76 61.99 173.84 Q 59.18 170.91 56.93 169.11 Q 65.92 163.49 74.59 154.94 Q 83.25 146.39 90.45 136.26 Q 97.65 126.14 102.38 115.56 M 158.63 120.96 L 176.63 114.89 Q 180.9 125.01 187.99 134.8 Q 195.08 144.59 203.74 152.69 Q 212.4 160.79 221.63 165.74 Q 219.15 167.76 216.22 170.69 Q 213.3 173.61 210.83 176.76 Q 208.35 179.91 206.55 182.61 Q 196.88 176.09 187.76 166.3 Q 178.65 156.51 171.22 144.81 Q 163.8 133.11 158.63 120.96"
							stroke-linecap="round" />
					</g>
					<g transform="matrix(1 0 0 1 -137.5 0)">
						<rect
							style="stroke: rgb(255,255,255); stroke-width: 2; stroke-dasharray: 10 10; stroke-linecap: butt; stroke-dashoffset: 0; stroke-linejoin: miter; stroke-miterlimit: 4; fill: rgb(0,0,0); fill-opacity: 0; fill-rule: nonzero; opacity: 1;"
							x="-136.5" y="-141.5" rx="0" ry="0" width="273" height="283" />
					</g>
					<g transform="matrix(1 0 0 1 137.5 0)">
						<rect
							style="stroke: rgb(255,255,255); stroke-width: 2; stroke-dasharray: 10 10; stroke-linecap: butt; stroke-dashoffset: 0; stroke-linejoin: miter; stroke-miterlimit: 4; fill: rgb(0,0,0); fill-opacity: 0; fill-rule: nonzero; opacity: 1;"
							x="-136.5" y="-141.5" rx="0" ry="0" width="273" height="283" />
					</g>
				</g>
			</g>
		</g>
	</g>
	<g transform="matrix(1 0 0 1 720.4217 -0.9511)">
		<g style="">
			<g transform="matrix(1 0 0 1 0 0)">
				<g style="">
					<g transform="matrix(1 0 0 1 -437.8156 -13.9043)">
						<path
							style="stroke: none; stroke-width: 1; stroke-dasharray: none; stroke-linecap: butt; stroke-dashoffset: 0; stroke-linejoin: miter; stroke-miterlimit: 4; fill: rgb(255,255,255); fill-rule: nonzero; opacity: 1;"
							transform=" translate(-79.68, -75.6)"
							d="M 24.23 145.73 L 24.23 5.47 L 48.47 5.47 L 48.47 60.18 L 110.89 60.18 L 110.89 5.47 L 135.13 5.47 L 135.13 145.73 L 110.89 145.73 L 110.89 81.84 L 48.47 81.84 L 48.47 145.73"
							stroke-linecap="round" />
					</g>
					<g transform="matrix(1 0 0 1 -301.5037 5.3733)">
						<path
							style="stroke: none; stroke-width: 1; stroke-dasharray: none; stroke-linecap: butt; stroke-dashoffset: 0; stroke-linejoin: miter; stroke-miterlimit: 4; fill: rgb(255,255,255); fill-rule: nonzero; opacity: 1;"
							transform=" translate(-56, -94.875)"
							d="M 97.67 64.95 Q 104.01 80.1 104.01 94.78 Q 104.01 103.78 101.71 112.32 Q 95.38 139.67 69.77 146.47 Q 66 147.48 62.42 147.89 Q 58.84 148.3 55.35 148.39 Q 41.77 148.39 30.48 140.96 Q 9.27 126.18 8.08 101.67 Q 7.99 100.38 7.99 99.14 Q 7.99 97.91 7.99 96.71 Q 7.99 50.81 49.94 41.45 Q 50.76 41.36 51.59 41.36 Q 52.42 41.36 53.24 41.36 Q 82.98 41.36 97.67 64.95 M 30.84 99.83 Q 33.87 124.43 55.81 126.64 Q 78.3 124.53 80.78 103.14 Q 81.15 100.38 81.42 97.81 Q 81.7 95.24 81.61 92.86 Q 81.61 65.04 53.98 63.11 Q 30.57 68.9 30.57 94.23 Q 30.57 96.9 30.84 99.83"
							stroke-linecap="round" />
					</g>
					<g transform="matrix(1 0 0 1 -184.0547 4.0944)">
						<path
							style="stroke: none; stroke-width: 1; stroke-dasharray: none; stroke-linecap: butt; stroke-dashoffset: 0; stroke-linejoin: miter; stroke-miterlimit: 4; fill: rgb(255,255,255); fill-rule: nonzero; opacity: 1;"
							transform=" translate(-55.445, -93.59)"
							d="M 95.1 62.75 L 95.1 63.85 Q 96.29 66.05 96.57 68.25 L 96.57 145 L 74.17 145 L 74.17 80 L 73.8 77.8 Q 69.21 63.94 58.38 63.94 Q 55.08 63.94 51.04 65.32 Q 41.86 69.26 37.82 77.8 L 36.35 84.04 L 36.35 145 L 14.32 145 L 14.32 44.75 L 36.35 44.75 L 36.35 53.2 Q 46.63 44.02 58.75 42.18 L 60.4 42.18 Q 85 42.18 95.1 62.75"
							stroke-linecap="round" />
					</g>
					<g transform="matrix(1 0 0 1 -76.3727 21.761)">
						<path
							style="stroke: none; stroke-width: 1; stroke-dasharray: none; stroke-linecap: butt; stroke-dashoffset: 0; stroke-linejoin: miter; stroke-miterlimit: 4; fill: rgb(255,255,255); fill-rule: nonzero; opacity: 1;"
							transform=" translate(-51.13, -111.265)"
							d="M 72.7 52.47 L 72.7 45.49 L 94.73 45.49 L 94.73 147.57 L 94.37 151.61 L 94 152.34 L 93.63 154.54 L 92.16 158.95 L 91.06 161.15 L 89.59 163.36 Q 86.93 168.04 83.35 170.7 L 81.88 172.54 L 74.17 176.21 Q 61.96 179.24 50.58 179.24 Q 29.93 179.24 12.48 169.23 L 13.22 167.76 L 15.05 163.72 L 16.52 160.05 L 16.89 158.95 L 17.63 157.48 Q 18.73 154.73 19.83 153.08 L 20.56 150.5 Q 35.34 158.03 48.01 158.03 Q 59.48 158.03 69.4 151.97 L 69.77 150.87 Q 72.06 147.66 72.7 144.63 L 72.7 129.21 Q 60.86 138.02 48.1 138.02 Q 42.41 138.02 36.35 136.18 Q 16.06 128.2 10.65 109.01 Q 9.09 104.06 8.31 99.28 Q 7.53 94.51 7.53 89.92 Q 7.53 76.88 13.95 65.32 Q 24.33 46.13 44.06 43.29 L 45.44 43.29 Q 61.41 43.29 72.7 52.47 M 49.39 65.32 L 47.73 65.32 L 39.66 68.25 Q 30.57 78.44 30.57 90.56 Q 30.57 92.58 30.84 94.69 Q 33.23 115.53 52.88 116.36 Q 72.43 113.88 72.43 92.4 L 72.43 91.02 Q 72.43 90.29 72.34 89.55 Q 71.79 65.23 49.94 64.95 Q 49.57 65.32 49.39 65.32"
							stroke-linecap="round" />
					</g>
					<g transform="matrix(1 0 0 1 -13.5 Infinity)">
						<path
							style="stroke: none; stroke-width: 1; stroke-dasharray: none; stroke-linecap: butt; stroke-dashoffset: 0; stroke-linejoin: miter; stroke-miterlimit: 4; fill: rgb(255,255,255); fill-rule: nonzero; opacity: 1;"
							transform=" translate(0, 0)" d="" stroke-linecap="round" />
					</g>
					<g transform="matrix(1 0 0 1 115.4466 -13.9043)">
						<path
							style="stroke: none; stroke-width: 1; stroke-dasharray: none; stroke-linecap: butt; stroke-dashoffset: 0; stroke-linejoin: miter; stroke-miterlimit: 4; fill: rgb(255,255,255); fill-rule: nonzero; opacity: 1;"
							transform=" translate(-78.945, -75.6)"
							d="M 24.6 145.73 L 24.6 5.47 L 48.84 5.47 L 48.84 67.89 L 50.3 66.05 L 52.51 63.85 Q 52.88 63.21 53.24 63.11 L 53.61 62.38 L 54.34 61.65 L 59.12 56.14 L 60.95 54.3 L 61.32 53.2 L 63.52 51.36 L 63.89 50.63 L 67.93 45.86 L 69.4 44.02 L 73.44 39.61 L 74.91 38.15 L 76.01 36.31 Q 77.02 35.02 77.98 34.15 Q 78.95 33.28 79.68 32.64 Q 81.33 29.7 83.35 28.23 L 87.02 23.46 L 88.13 22.36 L 89.23 20.89 L 92.16 17.95 L 95.47 13.91 L 96.2 13.18 Q 96.57 12.53 96.94 12.44 L 97.3 11.71 L 98.04 10.97 L 102.81 5.47 L 131.09 5.47 Q 128.79 9.41 125.95 11.71 Q 125.21 12.99 124.11 13.91 L 122.64 16.11 L 119.7 19.05 L 117.5 21.99 L 116.77 22.72 Q 116.12 23.55 115.48 24.19 Q 114.84 24.83 114.2 25.29 Q 111.99 28.97 109.42 30.8 L 108.32 32.27 L 104.28 37.41 L 103.18 38.51 Q 102.08 39.71 101.25 40.67 Q 100.43 41.63 99.88 42.55 L 98.77 43.29 L 97.67 44.39 L 96.94 45.86 L 95.1 47.69 L 94.37 48.79 L 93.63 49.53 L 92.9 50.63 L 91.8 51.36 L 91.43 52.1 L 90.7 52.83 Q 86.84 57.79 84.09 60.18 Q 86.11 64.58 87.76 66.79 L 88.86 69.36 Q 89.69 70.18 89.96 71.19 L 91.43 73.03 L 92.9 75.6 L 93.63 77.07 L 94.37 78.17 L 95.1 79.64 L 95.47 80.74 L 96.2 81.11 L 96.57 82.58 Q 96.94 82.85 96.94 83.13 L 96.94 83.31 Q 99.42 85.88 100.24 88.82 L 101.71 91.39 L 102.45 92.12 L 106.12 98.36 L 107.59 100.93 L 108.69 103.5 L 110.16 105.34 L 110.52 106.44 Q 111.44 107.64 112.08 108.74 Q 112.73 109.84 113.09 110.85 L 114.2 112.32 L 114.93 114.15 L 116.03 115.62 L 118.6 120.03 L 120.07 122.23 L 120.44 123.7 L 121.54 125.17 L 121.91 126.27 Q 122.55 126.73 122.64 127.37 L 123.38 128.84 Q 125.21 130.86 125.95 133.25 Q 128.24 135.63 128.88 138.02 L 129.62 138.75 L 133.29 145.73 L 106.12 145.73 L 105.02 143.16 L 103.91 142.06 L 103.18 140.59 L 101.71 138.02 L 101.34 136.92 L 100.61 136.18 L 100.24 135.45 Q 99.51 134.16 98.91 133.16 Q 98.31 132.15 97.67 131.41 L 97.3 130.31 L 96.57 128.84 L 95.1 126.64 L 94 124.43 L 92.9 122.6 L 91.43 120.4 L 90.33 118.56 L 89.96 117.83 Q 87.67 114.15 86.66 111.58 Q 85.83 110.57 85.55 109.75 Q 85.37 109.56 85.28 109.43 Q 85.19 109.29 85.19 109.1 L 85.19 109.01 Q 82.34 105.34 81.15 102.4 L 80.78 101.3 Q 78.39 98.46 77.48 96.53 L 77.11 95.06 L 76.38 93.96 L 75.27 92.49 L 74.91 91.39 L 73.44 89.18 L 73.07 88.08 L 72.34 87.35 L 71.97 86.61 L 71.6 85.51 L 70.87 85.15 Q 69.4 81.93 67.93 79.64 L 67.2 80.37 L 66.83 81.11 Q 65.27 82.39 64.63 83.68 L 63.52 84.41 L 60.22 88.82 L 58.75 89.92 L 57.28 92.12 L 56.18 92.86 Q 54.34 95.79 52.51 97.26 Q 50.76 99.74 48.84 101.3 L 48.84 145.73"
							stroke-linecap="round" />
					</g>
					<g transform="matrix(1 0 0 1 230.4963 5.3733)">
						<path
							style="stroke: none; stroke-width: 1; stroke-dasharray: none; stroke-linecap: butt; stroke-dashoffset: 0; stroke-linejoin: miter; stroke-miterlimit: 4; fill: rgb(255,255,255); fill-rule: nonzero; opacity: 1;"
							transform=" translate(-56, -94.875)"
							d="M 97.67 64.95 Q 104.01 80.1 104.01 94.78 Q 104.01 103.78 101.71 112.32 Q 95.38 139.67 69.77 146.47 Q 66 147.48 62.42 147.89 Q 58.84 148.3 55.35 148.39 Q 41.77 148.39 30.48 140.96 Q 9.27 126.18 8.08 101.67 Q 7.99 100.38 7.99 99.14 Q 7.99 97.91 7.99 96.71 Q 7.99 50.81 49.94 41.45 Q 50.76 41.36 51.59 41.36 Q 52.42 41.36 53.24 41.36 Q 82.98 41.36 97.67 64.95 M 30.84 99.83 Q 33.87 124.43 55.81 126.64 Q 78.3 124.53 80.78 103.14 Q 81.15 100.38 81.42 97.81 Q 81.7 95.24 81.61 92.86 Q 81.61 65.04 53.98 63.11 Q 30.57 68.9 30.57 94.23 Q 30.57 96.9 30.84 99.83"
							stroke-linecap="round" />
					</g>
					<g transform="matrix(1 0 0 1 347.9453 4.0944)">
						<path
							style="stroke: none; stroke-width: 1; stroke-dasharray: none; stroke-linecap: butt; stroke-dashoffset: 0; stroke-linejoin: miter; stroke-miterlimit: 4; fill: rgb(255,255,255); fill-rule: nonzero; opacity: 1;"
							transform=" translate(-55.445, -93.59)"
							d="M 95.1 62.75 L 95.1 63.85 Q 96.29 66.05 96.57 68.25 L 96.57 145 L 74.17 145 L 74.17 80 L 73.8 77.8 Q 69.21 63.94 58.38 63.94 Q 55.08 63.94 51.04 65.32 Q 41.86 69.26 37.82 77.8 L 36.35 84.04 L 36.35 145 L 14.32 145 L 14.32 44.75 L 36.35 44.75 L 36.35 53.2 Q 46.63 44.02 58.75 42.18 L 60.4 42.18 Q 85 42.18 95.1 62.75"
							stroke-linecap="round" />
					</g>
					<g transform="matrix(1 0 0 1 455.6273 21.761)">
						<path
							style="stroke: none; stroke-width: 1; stroke-dasharray: none; stroke-linecap: butt; stroke-dashoffset: 0; stroke-linejoin: miter; stroke-miterlimit: 4; fill: rgb(255,255,255); fill-rule: nonzero; opacity: 1;"
							transform=" translate(-51.13, -111.265)"
							d="M 72.7 52.47 L 72.7 45.49 L 94.73 45.49 L 94.73 147.57 L 94.37 151.61 L 94 152.34 L 93.63 154.54 L 92.16 158.95 L 91.06 161.15 L 89.59 163.36 Q 86.93 168.04 83.35 170.7 L 81.88 172.54 L 74.17 176.21 Q 61.96 179.24 50.58 179.24 Q 29.93 179.24 12.48 169.23 L 13.22 167.76 L 15.05 163.72 L 16.52 160.05 L 16.89 158.95 L 17.63 157.48 Q 18.73 154.73 19.83 153.08 L 20.56 150.5 Q 35.34 158.03 48.01 158.03 Q 59.48 158.03 69.4 151.97 L 69.77 150.87 Q 72.06 147.66 72.7 144.63 L 72.7 129.21 Q 60.86 138.02 48.1 138.02 Q 42.41 138.02 36.35 136.18 Q 16.06 128.2 10.65 109.01 Q 9.09 104.06 8.31 99.28 Q 7.53 94.51 7.53 89.92 Q 7.53 76.88 13.95 65.32 Q 24.33 46.13 44.06 43.29 L 45.44 43.29 Q 61.41 43.29 72.7 52.47 M 49.39 65.32 L 47.73 65.32 L 39.66 68.25 Q 30.57 78.44 30.57 90.56 Q 30.57 92.58 30.84 94.69 Q 33.23 115.53 52.88 116.36 Q 72.43 113.88 72.43 92.4 L 72.43 91.02 Q 72.43 90.29 72.34 89.55 Q 71.79 65.23 49.94 64.95 Q 49.57 65.32 49.39 65.32"
							stroke-linecap="round" />
					</g>
					<g transform="matrix(1 0 0 1 -438 0)">
						<rect
							style="stroke: rgb(255,255,255); stroke-width: 2; stroke-dasharray: 10 10; stroke-linecap: butt; stroke-dashoffset: 0; stroke-linejoin: miter; stroke-miterlimit: 4; fill: rgb(0,0,0); fill-opacity: 0; fill-rule: nonzero; opacity: 1;"
							x="-79" y="-99" rx="0" ry="0" width="158" height="198" />
					</g>
					<g transform="matrix(1 0 0 1 -299 0)">
						<rect
							style="stroke: rgb(255,255,255); stroke-width: 2; stroke-dasharray: 10 10; stroke-linecap: butt; stroke-dashoffset: 0; stroke-linejoin: miter; stroke-miterlimit: 4; fill: rgb(0,0,0); fill-opacity: 0; fill-rule: nonzero; opacity: 1;"
							x="-58" y="-99" rx="0" ry="0" width="116" height="198" />
					</g>
					<g transform="matrix(1 0 0 1 -184 0)">
						<rect
							style="stroke: rgb(255,255,255); stroke-width: 2; stroke-dasharray: 10 10; stroke-linecap: butt; stroke-dashoffset: 0; stroke-linejoin: miter; stroke-miterlimit: 4; fill: rgb(0,0,0); fill-opacity: 0; fill-rule: nonzero; opacity: 1;"
							x="-55" y="-99" rx="0" ry="0" width="110" height="198" />
					</g>
					<g transform="matrix(1 0 0 1 -71 0)">
						<rect
							style="stroke: rgb(255,255,255); stroke-width: 2; stroke-dasharray: 10 10; stroke-linecap: butt; stroke-dashoffset: 0; stroke-linejoin: miter; stroke-miterlimit: 4; fill: rgb(0,0,0); fill-opacity: 0; fill-rule: nonzero; opacity: 1;"
							x="-56" y="-99" rx="0" ry="0" width="112" height="198" />
					</g>
					<g transform="matrix(1 0 0 1 11 0)">
						<rect
							style="stroke: rgb(255,255,255); stroke-width: 2; stroke-dasharray: 10 10; stroke-linecap: butt; stroke-dashoffset: 0; stroke-linejoin: miter; stroke-miterlimit: 4; fill: rgb(0,0,0); fill-opacity: 0; fill-rule: nonzero; opacity: 1;"
							x="-24" y="-99" rx="0" ry="0" width="48" height="198" />
					</g>
					<g transform="matrix(1 0 0 1 105 0)">
						<rect
							style="stroke: rgb(255,255,255); stroke-width: 2; stroke-dasharray: 10 10; stroke-linecap: butt; stroke-dashoffset: 0; stroke-linejoin: miter; stroke-miterlimit: 4; fill: rgb(0,0,0); fill-opacity: 0; fill-rule: nonzero; opacity: 1;"
							x="-68" y="-99" rx="0" ry="0" width="136" height="198" />
					</g>
					<g transform="matrix(1 0 0 1 233 0)">
						<rect
							style="stroke: rgb(255,255,255); stroke-width: 2; stroke-dasharray: 10 10; stroke-linecap: butt; stroke-dashoffset: 0; stroke-linejoin: miter; stroke-miterlimit: 4; fill: rgb(0,0,0); fill-opacity: 0; fill-rule: nonzero; opacity: 1;"
							x="-58" y="-99" rx="0" ry="0" width="116" height="198" />
					</g>
					<g transform="matrix(1 0 0 1 348 0)">
						<rect
							style="stroke: rgb(255,255,255); stroke-width: 2; stroke-dasharray: 10 10; stroke-linecap: butt; stroke-dashoffset: 0; stroke-linejoin: miter; stroke-miterlimit: 4; fill: rgb(0,0,0); fill-opacity: 0; fill-rule: nonzero; opacity: 1;"
							x="-55" y="-99" rx="0" ry="0" width="110" height="198" />
					</g>
					<g transform="matrix(1 0 0 1 461 0)">
						<rect
							style="stroke: rgb(255,255,255); stroke-width: 2; stroke-dasharray: 10 10; stroke-linecap: butt; stroke-dashoffset: 0; stroke-linejoin: miter; stroke-miterlimit: 4; fill: rgb(0,0,0); fill-opacity: 0; fill-rule: nonzero; opacity: 1;"
							x="-56" y="-99" rx="0" ry="0" width="112" height="198" />
					</g>
				</g>
			</g>
		</g>
	</g>
	
</svg>