<?xml version="1.0" encoding="UTF-8" standalone="no" ?>
<!DOCTYPE svg PUBLIC "-//W3C//DTD SVG 1.1//EN" "http://www.w3.org/Graphics/SVG/1.1/DTD/svg11.dtd">
<svg xmlns="http://www.w3.org/2000/svg" xmlns:xlink="http://www.w3.org/1999/xlink" version="1.1" width="7940.5" height="3340" viewBox="-1027.8750000000005 -1295 7940.5 3340" xml:space="preserve">
<desc>Created with Fabric.js 6.4.3</desc>
<defs>
</defs>
<rect x="0" y="0" width="100%" height="100%" fill="rgba(0,0,0,0)"></rect>
<g transform="matrix(1 0 0 1 -654.375 -1025)"  >
<g style=""   >
		<g transform="matrix(1 0 0 1 0 0)"  >
<g style=""   >
		<g transform="matrix(1 0 0 1 0 0)"  >
<path style="stroke: none; stroke-width: 0; stroke-dasharray: none; stroke-linecap: butt; stroke-dashoffset: 0; stroke-linejoin: miter; stroke-miterlimit: 4; fill: rgb(255,255,255); fill-rule: nonzero; opacity: 1;"  transform=" translate(654.375, 1025)" d="M -1007.875 -1275 L -300.875 -1275 L -300.875 -775 L -1007.875 -775 Z" stroke-linecap="round" />
</g>
		<g transform="matrix(1 0 0 1 0 0)"  >
<path style="stroke: none; stroke-width: 0; stroke-dasharray: none; stroke-linecap: butt; stroke-dashoffset: 0; stroke-linejoin: miter; stroke-miterlimit: 4; fill: rgb(0,0,0); fill-rule: nonzero; opacity: 1;"  transform=" translate(654.375, 1025)" d="M -976.625 -1243.75 L -332.125 -1243.75 L -332.125 -806.25 L -976.625 -806.25 Z L -976.625 NaN" stroke-linecap="round" />
</g>
</g>
</g>
</g>
</g>
<g transform="matrix(1 0 0 1 2942.625 625)"  >
<g style=""   >
		<g transform="matrix(1 0 0 1 0 0)"  >
<g style=""   >
		<g transform="matrix(1 0 0 1 0 0)"  >
<path style="stroke: none; stroke-width: 0; stroke-dasharray: none; stroke-linecap: butt; stroke-dashoffset: 0; stroke-linejoin: miter; stroke-miterlimit: 4; fill: rgb(255,255,255); fill-rule: nonzero; opacity: 1;"  transform=" translate(-2942.625, -625)" d="M -1007.375 -587.5 C -1007.375 -691.0534 -923.4284 -775 -819.875 -775 L 6705.125 -775 C 6808.6784 -775 6892.625 -691.0534 6892.625 -587.5 L 6892.625 1837.5 C 6892.625 1941.0534 6808.6784 2025 6705.125 2025 L -819.875 2025 C -923.4284 2025 -1007.375 1941.0534 -1007.375 1837.5 Z" stroke-linecap="round" />
</g>
		<g transform="matrix(1 0 0 1 0 0)"  >
<path style="stroke: none; stroke-width: 0; stroke-dasharray: none; stroke-linecap: butt; stroke-dashoffset: 0; stroke-linejoin: miter; stroke-miterlimit: 4; fill: rgb(0,105,40); fill-rule: nonzero; opacity: 1;"  transform=" translate(-2942.625, -625)" d="M -913.625 -587.5 C -913.625 -639.2767 -871.6517 -681.25 -819.875 -681.25 L 6705.125 -681.25 C 6756.9017 -681.25 6798.875 -639.2767 6798.875 -587.5 L 6798.875 1837.5 C 6798.875 1889.2767 6756.9017 1931.25 6705.125 1931.25 L -819.875 1931.25 C -871.6517 1931.25 -913.625 1889.2767 -913.625 1837.5 Z" stroke-linecap="round" />
</g>
</g>
</g>
</g>
</g>
<g transform="matrix(1 0 0 1 692.5 375)"  >
<g style=""   >
		<g transform="matrix(1 0 0 1 0 0)"  >
<g style=""   >
		<g transform="matrix(1 0 0 1 0 0)"  >
<path style="stroke: none; stroke-width: 0; stroke-dasharray: none; stroke-linecap: butt; stroke-dashoffset: 0; stroke-linejoin: miter; stroke-miterlimit: 4; fill: rgb(0,0,0); fill-rule: nonzero; opacity: 1;"  transform=" translate(-692.5, -375)" d="M -757.5 -262.5 C -757.5 -366.0534 -673.5534 -450 -570 -450 L 1955 -450 C 2058.5534 -450 2142.5 -366.0534 2142.5 -262.5 L 2142.5 1012.5 C 2142.5 1116.0534 2058.5534 1200 1955 1200 L -570 1200 C -673.5534 1200 -757.5 1116.0534 -757.5 1012.5 Z" stroke-linecap="round" />
</g>
		<g transform="matrix(1 0 0 1 0 0)"  >
<path style="stroke: none; stroke-width: 0; stroke-dasharray: none; stroke-linecap: butt; stroke-dashoffset: 0; stroke-linejoin: miter; stroke-miterlimit: 4; fill: rgb(233,181,0); fill-rule: nonzero; opacity: 1;"  transform=" translate(-692.5, -375)" d="M -663.75 -262.5 C -663.75 -314.2767 -621.7767 -356.25 -570 -356.25 L 1955 -356.25 C 2006.7767 -356.25 2048.75 -314.2767 2048.75 -262.5 L 2048.75 1012.5 C 2048.75 1064.2767 2006.7767 1106.25 1955 1106.25 L -570 1106.25 C -621.7767 1106.25 -663.75 1064.2767 -663.75 1012.5 Z" stroke-linecap="round" />
</g>
</g>
</g>
</g>
</g>
<g transform="matrix(1 0 0 1 692.5 656.25)"  >
<g style=""   >
		<g transform="matrix(1 0 0 1 0 0)"  >
<g style=""   >
		<g transform="matrix(1 0 0 1 -333.1225 -43.8474)"  >
<path style="stroke: none; stroke-width: 1; stroke-dasharray: none; stroke-linecap: butt; stroke-dashoffset: 0; stroke-linejoin: miter; stroke-miterlimit: 4; fill: rgb(0,0,0); fill-rule: nonzero; opacity: 1;"  transform=" translate(-291.375, -361.905)" d="M 228.94 182.19 L 228.94 131 L 533.25 131 L 533.25 182.19 L 228.94 182.19 M 240.75 377.37 L 240.75 326.19 L 519.75 326.19 L 519.75 377.37 L 240.75 377.37 M 201.94 592.81 L 201.94 541.62 L 541.69 541.62 L 541.69 592.81 L 201.94 592.81 M 349.88 565.81 L 349.88 157.44 L 403.88 157.44 L 403.88 565.81 L 349.88 565.81 M 68.06 183.31 L 68.06 135.5 L 207.56 135.5 L 207.56 509 L 68.06 509 L 68.06 461.19 L 158.06 461.19 L 158.06 183.31 L 68.06 183.31 M 69.19 343.62 L 69.19 296.37 L 182.25 296.37 L 182.25 343.62 L 69.19 343.62 M 41.06 552.31 L 41.06 135.5 L 90.56 135.5 L 90.56 552.31" stroke-linecap="round" />
</g>
		<g transform="matrix(1 0 0 1 318.655 -50.0349)"  >
<path style="stroke: none; stroke-width: 1; stroke-dasharray: none; stroke-linecap: butt; stroke-dashoffset: 0; stroke-linejoin: miter; stroke-miterlimit: 4; fill: rgb(0,0,0); fill-rule: nonzero; opacity: 1;"  transform=" translate(-255.66, -355.72)" d="M 135.56 269.94 L 135.56 223.25 L 469.69 223.25 L 469.69 269.94 L 135.56 269.94 M 135.56 379.62 L 135.56 334.62 L 461.25 334.62 L 461.25 379.62 L 135.56 379.62 M 126 493.81 L 126 447.69 L 462.94 447.69 L 462.94 493.81 L 126 493.81 M 105.75 366.12 L 105.75 223.25 L 157.5 223.25 L 157.5 366.69 Q 157.5 397.06 153.56 431.09 Q 149.63 465.12 138.94 498.87 Q 128.25 532.62 107.72 563.56 Q 87.19 594.5 54 619.25 Q 50.63 614.19 43.59 606.87 Q 36.56 599.56 29.53 592.53 Q 22.5 585.5 16.88 581.56 Q 46.69 559.06 64.69 532.62 Q 82.69 506.19 91.41 477.78 Q 100.13 449.37 102.94 420.97 Q 105.75 392.56 105.75 366.12 M 441.56 552.87 L 441.56 223.25 L 494.44 223.25 L 494.44 553.44 Q 494.44 577.06 487.41 589.72 Q 480.38 602.37 462.94 608.56 Q 445.5 614.75 416.53 616.15 Q 387.56 617.56 345.38 617.56 Q 343.69 610.25 340.59 600.97 Q 337.5 591.69 333.28 582.4 Q 329.06 573.12 325.13 566.37 Q 346.5 566.94 367.03 567.22 Q 387.56 567.5 403.31 567.5 Q 419.06 567.5 425.25 566.94 Q 434.81 566.94 438.19 563.84 Q 441.56 560.75 441.56 552.87 M 270 471.31 L 270 242.94 L 320.63 242.94 L 320.63 471.31 L 270 471.31 M 182.81 170.94 L 182.81 126.5 L 357.75 126.5 L 357.75 170.94 L 182.81 170.94 M 182.25 92.19 L 239.63 102.87 Q 220.5 137.19 195.75 172.62 Q 171 208.06 138.94 241.53 Q 106.88 275 66.94 304.25 Q 63 298.06 56.25 290.47 Q 49.5 282.87 42.19 276.4 Q 34.88 269.94 28.69 266 Q 66.38 240.69 95.63 211.15 Q 124.88 181.62 146.81 150.97 Q 168.75 120.31 182.25 92.19 M 339.75 136.62 L 339.75 126.5 L 351.56 126.5 L 360 124.25 L 396 147.87 Q 385.88 167 372.38 187.53 Q 358.88 208.06 343.97 227.19 Q 329.06 246.31 315.56 260.94 Q 308.81 254.75 297.84 247.72 Q 286.88 240.69 277.88 236.19 Q 289.69 222.69 301.5 204.97 Q 313.31 187.25 323.44 168.97 Q 333.56 150.69 339.75 136.62" stroke-linecap="round" />
</g>
		<g transform="matrix(1 0 0 1 -343.75 0)"  >
<rect style="stroke: rgb(0,0,0); stroke-opacity: 0; stroke-width: 2; stroke-dasharray: 25 25; stroke-linecap: butt; stroke-dashoffset: 0; stroke-linejoin: miter; stroke-miterlimit: 4; fill: rgb(0,0,0); fill-opacity: 0; fill-rule: nonzero; opacity: 1;"  x="-342.75" y="-355.25" rx="0" ry="0" width="685.5" height="710.5" />
</g>
		<g transform="matrix(1 0 0 1 343.75 0)"  >
<rect style="stroke: rgb(0,0,0); stroke-opacity: 0; stroke-width: 2; stroke-dasharray: 25 25; stroke-linecap: butt; stroke-dashoffset: 0; stroke-linejoin: miter; stroke-miterlimit: 4; fill: rgb(0,0,0); fill-opacity: 0; fill-rule: nonzero; opacity: 1;"  x="-342.75" y="-355.25" rx="0" ry="0" width="685.5" height="710.5" />
</g>
</g>
</g>
</g>
</g>
<g transform="matrix(1 0 0 1 4579 -262.5)"  >
<g style=""   >
		<g transform="matrix(1 0 0 1 0 0)"  >
<g style=""   >
		<g transform="matrix(1 0 0 1 -1242.7223 -34.371)"  >
<path style="stroke: none; stroke-width: 1; stroke-dasharray: none; stroke-linecap: butt; stroke-dashoffset: 0; stroke-linejoin: miter; stroke-miterlimit: 4; fill: rgb(255,255,255); fill-rule: nonzero; opacity: 1;"  transform=" translate(-136.78, -190.125)" d="M 10.1 69.41 L 10.1 14.33 L 263.46 14.33 L 263.46 69.41 L 167.07 69.41 L 167.07 365.92 L 106.48 365.92 L 106.48 69.41" stroke-linecap="round" />
</g>
		<g transform="matrix(1 0 0 1 -974.3527 17.8303)"  >
<path style="stroke: none; stroke-width: 1; stroke-dasharray: none; stroke-linecap: butt; stroke-dashoffset: 0; stroke-linejoin: miter; stroke-miterlimit: 4; fill: rgb(255,255,255); fill-rule: nonzero; opacity: 1;"  transform=" translate(-132.65, -242.335)" d="M 202.87 137.34 L 205.63 142.85 Q 216.41 156.16 219.39 170.39 Q 220.31 176.36 220.77 181.52 Q 221.23 186.68 221.23 190.58 L 221.23 311.76 Q 229.72 328.51 246.02 331.95 L 244.18 334.71 Q 243.26 336.31 242.34 336.54 L 241.43 339.29 L 239.59 341.13 Q 237.29 346.18 234.08 349.39 Q 230.87 357.88 225.82 362.24 Q 223.75 366.83 221.92 370.16 Q 220.08 373.49 218.48 376.01 Q 191.63 369.13 176.25 351.23 L 173.5 351.23 Q 143.89 372.57 112.45 372.57 Q 95.47 372.57 78.95 366.83 Q 29.6 349.16 19.28 302.58 L 19.28 301.43 Q 19.28 212.62 123.24 212.62 L 123.93 212.62 Q 125.99 211.7 128.52 211.7 L 131.27 210.78 L 137.7 210.78 L 140.45 209.86 L 143.2 209.86 L 166.15 207.11 Q 166.61 204.58 166.61 202.52 L 166.61 197.93 Q 166.61 159.6 125.99 159.6 Q 97.76 159.6 48.65 178.65 L 44.98 170.39 L 43.14 164.88 L 41.31 163.04 L 40.39 161.21 L 38.55 155.7 Q 36.03 151.57 34.88 147.44 Q 30.06 141.01 28.46 134.59 L 31.21 133.67 L 33.05 132.75 L 35.8 131.83 L 37.64 130 L 40.39 130 Q 41.31 129.08 42 129.08 L 42.23 129.08 Q 50.49 124.72 56.91 122.65 L 61.5 121.74 Q 66.55 119.44 70.68 118.98 L 78.03 117.15 Q 86.06 113.93 93.63 113.47 L 113.83 109.8 Q 118.42 109.34 122.66 109 Q 126.91 108.66 131.04 108.66 Q 174.87 108.66 202.87 137.34 M 144.12 253.92 L 138.61 253.92 Q 136.55 254.38 134.6 254.61 Q 132.65 254.84 130.81 254.84 L 129.43 254.84 L 125.76 255.76 L 123.01 255.76 Q 121.86 256.68 120.25 256.68 L 117.5 256.68 L 102.81 260.35 L 100.06 260.35 Q 93.63 264.02 89.04 264.94 Q 74.13 279.17 74.13 292.48 Q 74.13 304.64 86.29 316.35 Q 103.96 327.13 120.71 327.13 Q 142.06 327.13 161.56 309.92 Q 163.4 304.64 165.23 302.58 L 166.15 299.82 L 165.23 296.15 L 165.23 253.01 L 146.88 253.01 Q 145.73 253.92 144.12 253.92" stroke-linecap="round" />
</g>
		<g transform="matrix(1 0 0 1 -786.5304 -32.5421)"  >
<path style="stroke: none; stroke-width: 1; stroke-dasharray: none; stroke-linecap: butt; stroke-dashoffset: 0; stroke-linejoin: miter; stroke-miterlimit: 4; fill: rgb(255,255,255); fill-rule: nonzero; opacity: 1;"  transform=" translate(-60.47, -191.96)" d="M 32.13 366.83 L 32.13 116.23 L 88.13 116.23 L 88.13 366.83 L 32.13 366.83 M 93.63 42.79 L 93.63 45.77 Q 93.63 64.82 81.7 76.76 Q 69.08 82.95 58.52 82.95 Q 40.16 82.95 29.38 62.99 Q 27.31 54.95 27.31 48.76 Q 27.31 25.35 53.24 17.09 L 55.54 17.09 Q 84.68 17.09 93.63 42.79" stroke-linecap="round" />
</g>
		<g transform="matrix(1 0 0 1 -712 Infinity)"  >
<path style="stroke: none; stroke-width: 1; stroke-dasharray: none; stroke-linecap: butt; stroke-dashoffset: 0; stroke-linejoin: miter; stroke-miterlimit: 4; fill: rgb(255,255,255); fill-rule: nonzero; opacity: 1;"  transform=" translate(0, 0)" d="" stroke-linecap="round" />
</g>
		<g transform="matrix(1 0 0 1 -389.6361 -33.0001)"  >
<path style="stroke: none; stroke-width: 1; stroke-dasharray: none; stroke-linecap: butt; stroke-dashoffset: 0; stroke-linejoin: miter; stroke-miterlimit: 4; fill: rgb(255,255,255); fill-rule: nonzero; opacity: 1;"  transform=" translate(-197.36, -191.5)" d="M 61.5 366.83 L 61.5 16.17 L 122.09 16.17 L 122.09 172.22 L 125.76 167.63 L 131.27 162.13 Q 132.19 160.52 133.11 160.29 L 134.02 158.46 L 135.86 156.62 L 147.79 142.85 L 152.38 138.26 L 153.3 135.51 L 158.81 130.92 L 159.73 129.08 L 169.82 117.15 L 173.5 112.56 L 183.59 101.54 L 187.27 97.87 L 190.02 93.28 Q 192.54 90.07 194.95 87.89 Q 197.36 85.71 199.2 84.1 Q 203.33 76.76 208.38 73.08 L 217.56 61.15 L 220.31 58.4 L 223.07 54.72 L 230.41 47.38 L 238.67 37.28 L 240.51 35.45 Q 241.43 33.84 242.34 33.61 L 243.26 31.78 L 245.1 29.94 L 257.03 16.17 L 327.71 16.17 Q 321.98 26.04 314.86 31.78 Q 313.03 34.99 310.27 37.28 L 306.6 42.79 L 299.26 50.13 L 293.75 57.48 L 291.91 59.31 Q 290.31 61.38 288.7 62.99 Q 287.09 64.59 285.49 65.74 Q 279.98 74.92 273.55 79.51 L 270.8 83.18 L 260.7 96.03 L 257.95 98.79 Q 255.2 101.77 253.13 104.18 Q 251.06 106.59 249.69 108.88 L 246.93 110.72 L 244.18 113.47 L 242.34 117.15 L 237.75 121.74 L 235.92 124.49 L 234.08 126.33 L 232.25 129.08 L 229.49 130.92 L 228.57 132.75 L 226.74 134.59 Q 217.1 146.98 210.21 152.95 Q 215.26 163.96 219.39 169.47 L 222.15 175.9 Q 224.21 177.96 224.9 180.49 L 228.57 185.08 L 232.25 191.5 L 234.08 195.17 L 235.92 197.93 L 237.75 201.6 L 238.67 204.35 L 240.51 205.27 L 241.43 208.94 Q 242.34 209.63 242.34 210.32 L 242.34 210.78 Q 248.54 217.21 250.61 224.55 L 254.28 230.97 L 256.11 232.81 L 265.29 248.42 L 268.96 254.84 L 271.72 261.27 L 275.39 265.86 L 276.31 268.61 Q 278.6 271.59 280.21 274.35 Q 281.82 277.1 282.73 279.63 L 285.49 283.3 L 287.32 287.89 L 290.08 291.56 L 296.5 302.58 L 300.18 308.08 L 301.09 311.76 L 303.85 315.43 L 304.77 318.18 Q 306.37 319.33 306.6 320.94 L 308.44 324.61 Q 313.03 329.66 314.86 335.62 Q 320.6 341.59 322.21 347.56 L 324.04 349.39 L 333.22 366.83 L 265.29 366.83 L 262.54 360.41 L 259.79 357.65 L 257.95 353.98 L 254.28 347.56 L 253.36 344.8 L 251.52 342.97 L 250.61 341.13 Q 248.77 337.92 247.28 335.39 Q 245.79 332.87 244.18 331.03 L 243.26 328.28 L 241.43 324.61 L 237.75 319.1 L 235 313.59 L 232.25 309 L 228.57 303.49 L 225.82 298.9 L 224.9 297.07 Q 219.17 287.89 216.64 281.46 Q 214.58 278.94 213.89 276.87 Q 213.43 276.41 213.2 276.07 Q 212.97 275.73 212.97 275.27 L 212.97 275.04 Q 205.85 265.86 202.87 258.51 L 201.95 255.76 Q 195.99 248.65 193.69 243.83 L 192.77 240.15 L 190.94 237.4 L 188.18 233.73 L 187.27 230.97 L 183.59 225.47 L 182.68 222.71 L 180.84 220.88 L 179.92 219.04 L 179 216.29 L 177.17 215.37 Q 173.5 207.34 169.82 201.6 L 167.99 203.44 L 167.07 205.27 Q 163.17 208.48 161.56 211.7 L 158.81 213.53 L 150.55 224.55 L 146.88 227.3 L 143.2 232.81 L 140.45 234.65 Q 135.86 241.99 131.27 245.66 Q 126.91 251.86 122.09 255.76 L 122.09 366.83" stroke-linecap="round" />
</g>
		<g transform="matrix(1 0 0 1 -102.0142 15.1964)"  >
<path style="stroke: none; stroke-width: 1; stroke-dasharray: none; stroke-linecap: butt; stroke-dashoffset: 0; stroke-linejoin: miter; stroke-miterlimit: 4; fill: rgb(255,255,255); fill-rule: nonzero; opacity: 1;"  transform=" translate(-139.99, -239.695)" d="M 244.18 164.88 Q 260.01 202.75 260.01 239.47 Q 260.01 261.96 254.28 283.3 Q 238.44 351.69 174.41 368.67 Q 165 371.19 156.05 372.23 Q 147.1 373.26 138.38 373.49 Q 104.42 373.49 76.19 354.9 Q 23.18 317.95 20.2 256.68 Q 19.97 253.46 19.97 250.37 Q 19.97 247.27 19.97 244.29 Q 19.97 129.54 124.84 106.13 Q 126.91 105.9 128.97 105.9 Q 131.04 105.9 133.11 105.9 Q 207.46 105.9 244.18 164.88 M 77.11 252.09 Q 84.68 313.59 139.53 319.1 Q 195.76 313.82 201.95 260.35 Q 202.87 253.46 203.56 247.04 Q 204.25 240.61 204.02 234.65 Q 204.02 165.11 134.94 160.29 Q 76.42 174.75 76.42 238.09 Q 76.42 244.74 77.11 252.09" stroke-linecap="round" />
</g>
		<g transform="matrix(1 0 0 1 195.748 -33.913)"  >
<path style="stroke: none; stroke-width: 1; stroke-dasharray: none; stroke-linecap: butt; stroke-dashoffset: 0; stroke-linejoin: miter; stroke-miterlimit: 4; fill: rgb(255,255,255); fill-rule: nonzero; opacity: 1;"  transform=" translate(-142.745, -190.585)" d="M 30.29 365.92 L 30.29 15.25 L 86.29 15.25 L 86.29 211.7 L 90.88 208.03 L 94.55 203.44 L 100.06 197.93 L 101.89 197.01 Q 102.81 195.4 103.73 195.17 L 113.83 184.16 L 116.58 180.49 L 125.76 172.22 Q 128.06 169.01 130.35 166.83 Q 132.65 164.65 134.94 163.04 L 140.45 157.54 Q 143.43 153.18 146.88 151.11 L 152.38 145.6 L 154.22 142.85 L 156.97 141.01 L 158.81 138.26 L 160.64 136.42 L 163.4 134.59 L 164.32 132.75 Q 168.45 127.24 172.58 123.57 L 174.41 122.65 Q 176.25 120.36 177.74 118.52 Q 179.23 116.69 180.84 115.31 L 254.28 115.31 L 253.36 117.15 L 251.52 118.98 L 249.69 119.9 L 248.77 121.74 L 246.93 122.65 Q 245.1 124.95 243.61 126.79 Q 242.11 128.62 240.51 130 L 235.92 133.67 L 233.16 138.26 L 231.33 139.18 Q 230.41 140.78 229.49 141.01 Q 222.38 149.96 215.72 154.78 Q 214.8 156.39 213.89 156.62 Q 210.67 160.98 207.46 164.08 Q 204.25 167.18 201.04 169.47 L 198.28 173.14 L 191.86 178.65 L 189.1 182.32 L 184.51 186.91 L 180.84 189.67 L 179 192.42 L 176.25 194.26 L 175.33 196.09 L 172.58 197.93 L 167.99 202.52 L 167.07 204.35 L 165.23 205.27 Q 162.94 208.48 160.64 210.66 Q 158.35 212.84 156.05 214.45 L 158.81 220.88 L 162.48 226.38 L 165.23 229.14 L 166.15 230.97 Q 169.37 235.33 170.74 238.32 L 173.5 241.07 L 174.41 243.83 Q 175.33 244.51 175.33 245.2 L 175.33 245.66 Q 182.22 253.24 184.51 259.43 Q 191.4 267 193.69 273.2 L 197.36 276.87 L 199.2 281.46 L 202.87 285.13 Q 206.54 291.56 210.21 296.15 L 212.97 299.82 L 215.72 304.41 L 218.48 308.08 L 220.31 311.76 L 223.07 315.43 L 237.75 337.46 L 238.67 340.21 L 240.51 341.13 L 242.34 343.88 Q 246.7 350.31 249.92 355.82 Q 253.13 361.33 255.2 365.92 L 194.61 365.92 L 191.86 360.41 Q 191.4 359.95 191.17 359.6 Q 190.94 359.26 190.94 358.8 L 190.94 358.57 Q 183.82 350.31 180.84 344.8 L 178.09 341.13 L 175.33 336.54 Q 173.04 333.33 171.55 330.57 Q 170.05 327.82 168.91 325.53 L 166.15 322.77 L 163.4 319.1 L 161.56 315.43 L 158.81 311.76 L 156.05 307.17 Q 150.09 299.59 147.79 294.31 L 145.04 290.64 Q 141.37 286.51 140.45 283.3 L 137.7 280.54 L 134.02 274.12 L 126.68 263.1 Q 126.22 262.64 125.99 262.3 Q 125.76 261.96 125.76 261.5 L 125.76 261.27 Q 123.47 258.74 121.63 256.45 Q 119.79 254.15 118.42 252.09 Q 117.5 253.69 116.58 253.92 L 114.75 257.6 L 106.48 264.94 Q 105.57 266.55 104.65 266.78 L 103.73 268.61 L 98.22 273.2 Q 93.17 281.46 86.29 286.05 L 86.29 365.92" stroke-linecap="round" />
</g>
		<g transform="matrix(1 0 0 1 323 Infinity)"  >
<path style="stroke: none; stroke-width: 1; stroke-dasharray: none; stroke-linecap: butt; stroke-dashoffset: 0; stroke-linejoin: miter; stroke-miterlimit: 4; fill: rgb(255,255,255); fill-rule: nonzero; opacity: 1;"  transform=" translate(0, 0)" d="" stroke-linecap="round" />
</g>
		<g transform="matrix(1 0 0 1 584.7777 -34.371)"  >
<path style="stroke: none; stroke-width: 1; stroke-dasharray: none; stroke-linecap: butt; stroke-dashoffset: 0; stroke-linejoin: miter; stroke-miterlimit: 4; fill: rgb(255,255,255); fill-rule: nonzero; opacity: 1;"  transform=" translate(-136.78, -190.125)" d="M 10.1 69.41 L 10.1 14.33 L 263.46 14.33 L 263.46 69.41 L 167.07 69.41 L 167.07 365.92 L 106.48 365.92 L 106.48 69.41" stroke-linecap="round" />
</g>
		<g transform="matrix(1 0 0 1 830.1988 16.4568)"  >
<path style="stroke: none; stroke-width: 1; stroke-dasharray: none; stroke-linecap: butt; stroke-dashoffset: 0; stroke-linejoin: miter; stroke-miterlimit: 4; fill: rgb(255,255,255); fill-rule: nonzero; opacity: 1;"  transform=" translate(-109.695, -240.96)" d="M 212.05 145.6 L 209.3 149.28 L 206.54 152.03 L 203.79 153.87 L 200.12 159.37 L 198.28 161.21 L 196.45 162.13 Q 193.46 166.26 190.94 168.55 L 179 182.32 Q 140.91 157.77 115.89 157.77 Q 90.19 157.77 78.03 183.24 Q 78.49 198.16 89.96 205.27 Q 95.01 206.65 97.3 208.03 Q 106.25 209.4 111.99 211.7 Q 198.97 218.12 209.3 281.46 Q 209.76 284.22 209.76 286.86 Q 209.76 289.5 209.76 292.02 Q 209.76 338.15 170.74 361.33 Q 142.74 373.95 114.52 373.95 Q 60.82 373.95 7.34 328.28 L 9.18 324.61 L 13.77 320.02 Q 18.36 314.51 22.03 311.76 Q 22.95 310.15 23.87 309.92 L 25.7 307.17 Q 26.62 305.56 27.54 305.33 L 28.46 303.49 L 30.29 302.58 L 42.23 288.81 Q 76.19 320.94 113.37 320.94 Q 128.97 320.94 145.04 315.43 Q 149.17 309.92 153.3 307.17 Q 154.68 301.66 154.68 296.84 Q 154.68 284.91 146.88 276.87 L 125.76 269.53 Q 31.21 263.79 22.95 188.75 Q 29.15 113.25 108.32 107.97 L 111.53 107.97 Q 172.35 107.97 212.05 145.6" stroke-linecap="round" />
</g>
		<g transform="matrix(1 0 0 1 1094.6604 19.5556)"  >
<path style="stroke: none; stroke-width: 1; stroke-dasharray: none; stroke-linecap: butt; stroke-dashoffset: 0; stroke-linejoin: miter; stroke-miterlimit: 4; fill: rgb(255,255,255); fill-rule: nonzero; opacity: 1;"  transform=" translate(-136.665, -244.055)" d="M 33.96 294.31 L 33.96 115.31 L 89.04 115.31 L 89.04 274.12 Q 89.96 275.27 89.96 276.87 Q 90.88 277.56 90.88 278.25 L 90.88 278.71 Q 92.49 289.04 95.47 297.07 Q 111.3 319.1 136.09 319.1 L 136.78 319.1 Q 167.53 310.84 179.92 285.13 L 179.92 282.38 L 183.59 271.37 L 183.59 115.31 L 239.59 115.31 L 239.59 365.92 L 183.59 365.92 L 183.59 345.72 Q 150.55 372.8 117.73 372.8 Q 92.26 372.8 66.09 356.74 Q 44.75 340.44 36.72 318.18 L 35.8 311.76 Q 33.74 305.1 33.74 298.67 L 33.74 296.61 Q 33.74 295.46 33.96 294.31" stroke-linecap="round" />
</g>
		<g transform="matrix(1 0 0 1 1305.9696 -32.5421)"  >
<path style="stroke: none; stroke-width: 1; stroke-dasharray: none; stroke-linecap: butt; stroke-dashoffset: 0; stroke-linejoin: miter; stroke-miterlimit: 4; fill: rgb(255,255,255); fill-rule: nonzero; opacity: 1;"  transform=" translate(-60.47, -191.96)" d="M 32.13 366.83 L 32.13 116.23 L 88.13 116.23 L 88.13 366.83 L 32.13 366.83 M 93.63 42.79 L 93.63 45.77 Q 93.63 64.82 81.7 76.76 Q 69.08 82.95 58.52 82.95 Q 40.16 82.95 29.38 62.99 Q 27.31 54.95 27.31 48.76 Q 27.31 25.35 53.24 17.09 L 55.54 17.09 Q 84.68 17.09 93.63 42.79" stroke-linecap="round" />
</g>
		<g transform="matrix(1 0 0 1 -1243.75 0)"  >
<rect style="stroke: rgb(0,0,0); stroke-opacity: 0; stroke-width: 2; stroke-dasharray: 25 25; stroke-linecap: butt; stroke-dashoffset: 0; stroke-linejoin: miter; stroke-miterlimit: 4; fill: rgb(0,0,0); fill-opacity: 0; fill-rule: nonzero; opacity: 1;"  x="-135.25" y="-249" rx="0" ry="0" width="270.5" height="498" />
</g>
		<g transform="matrix(1 0 0 1 -977.5 0)"  >
<rect style="stroke: rgb(0,0,0); stroke-opacity: 0; stroke-width: 2; stroke-dasharray: 25 25; stroke-linecap: butt; stroke-dashoffset: 0; stroke-linejoin: miter; stroke-miterlimit: 4; fill: rgb(0,0,0); fill-opacity: 0; fill-rule: nonzero; opacity: 1;"  x="-129" y="-249" rx="0" ry="0" width="258" height="498" />
</g>
		<g transform="matrix(1 0 0 1 -780 0)"  >
<rect style="stroke: rgb(0,0,0); stroke-opacity: 0; stroke-width: 2; stroke-dasharray: 25 25; stroke-linecap: butt; stroke-dashoffset: 0; stroke-linejoin: miter; stroke-miterlimit: 4; fill: rgb(0,0,0); fill-opacity: 0; fill-rule: nonzero; opacity: 1;"  x="-66.5" y="-249" rx="0" ry="0" width="133" height="498" />
</g>
		<g transform="matrix(1 0 0 1 -650 0)"  >
<rect style="stroke: rgb(0,0,0); stroke-opacity: 0; stroke-width: 2; stroke-dasharray: 25 25; stroke-linecap: butt; stroke-dashoffset: 0; stroke-linejoin: miter; stroke-miterlimit: 4; fill: rgb(0,0,0); fill-opacity: 0; fill-rule: nonzero; opacity: 1;"  x="-61.5" y="-249" rx="0" ry="0" width="123" height="498" />
</g>
		<g transform="matrix(1 0 0 1 -415 0)"  >
<rect style="stroke: rgb(0,0,0); stroke-opacity: 0; stroke-width: 2; stroke-dasharray: 25 25; stroke-linecap: butt; stroke-dashoffset: 0; stroke-linejoin: miter; stroke-miterlimit: 4; fill: rgb(0,0,0); fill-opacity: 0; fill-rule: nonzero; opacity: 1;"  x="-171.5" y="-249" rx="0" ry="0" width="343" height="498" />
</g>
		<g transform="matrix(1 0 0 1 -95 0)"  >
<rect style="stroke: rgb(0,0,0); stroke-opacity: 0; stroke-width: 2; stroke-dasharray: 25 25; stroke-linecap: butt; stroke-dashoffset: 0; stroke-linejoin: miter; stroke-miterlimit: 4; fill: rgb(0,0,0); fill-opacity: 0; fill-rule: nonzero; opacity: 1;"  x="-146.5" y="-249" rx="0" ry="0" width="293" height="498" />
</g>
		<g transform="matrix(1 0 0 1 187.5 0)"  >
<rect style="stroke: rgb(0,0,0); stroke-opacity: 0; stroke-width: 2; stroke-dasharray: 25 25; stroke-linecap: butt; stroke-dashoffset: 0; stroke-linejoin: miter; stroke-miterlimit: 4; fill: rgb(0,0,0); fill-opacity: 0; fill-rule: nonzero; opacity: 1;"  x="-134" y="-249" rx="0" ry="0" width="268" height="498" />
</g>
		<g transform="matrix(1 0 0 1 385 0)"  >
<rect style="stroke: rgb(0,0,0); stroke-opacity: 0; stroke-width: 2; stroke-dasharray: 25 25; stroke-linecap: butt; stroke-dashoffset: 0; stroke-linejoin: miter; stroke-miterlimit: 4; fill: rgb(0,0,0); fill-opacity: 0; fill-rule: nonzero; opacity: 1;"  x="-61.5" y="-249" rx="0" ry="0" width="123" height="498" />
</g>
		<g transform="matrix(1 0 0 1 583.75 0)"  >
<rect style="stroke: rgb(0,0,0); stroke-opacity: 0; stroke-width: 2; stroke-dasharray: 25 25; stroke-linecap: butt; stroke-dashoffset: 0; stroke-linejoin: miter; stroke-miterlimit: 4; fill: rgb(0,0,0); fill-opacity: 0; fill-rule: nonzero; opacity: 1;"  x="-135.25" y="-249" rx="0" ry="0" width="270.5" height="498" />
</g>
		<g transform="matrix(1 0 0 1 838.75 0)"  >
<rect style="stroke: rgb(0,0,0); stroke-opacity: 0; stroke-width: 2; stroke-dasharray: 25 25; stroke-linecap: butt; stroke-dashoffset: 0; stroke-linejoin: miter; stroke-miterlimit: 4; fill: rgb(0,0,0); fill-opacity: 0; fill-rule: nonzero; opacity: 1;"  x="-117.75" y="-249" rx="0" ry="0" width="235.5" height="498" />
</g>
		<g transform="matrix(1 0 0 1 1101.25 0)"  >
<rect style="stroke: rgb(0,0,0); stroke-opacity: 0; stroke-width: 2; stroke-dasharray: 25 25; stroke-linecap: butt; stroke-dashoffset: 0; stroke-linejoin: miter; stroke-miterlimit: 4; fill: rgb(0,0,0); fill-opacity: 0; fill-rule: nonzero; opacity: 1;"  x="-142.75" y="-249" rx="0" ry="0" width="285.5" height="498" />
</g>
		<g transform="matrix(1 0 0 1 1312.5 0)"  >
<rect style="stroke: rgb(0,0,0); stroke-opacity: 0; stroke-width: 2; stroke-dasharray: 25 25; stroke-linecap: butt; stroke-dashoffset: 0; stroke-linejoin: miter; stroke-miterlimit: 4; fill: rgb(0,0,0); fill-opacity: 0; fill-rule: nonzero; opacity: 1;"  x="-66.5" y="-249" rx="0" ry="0" width="133" height="498" />
</g>
</g>
</g>
</g>
</g>
<g transform="matrix(1 0 0 1 -513.375 -975)"  >
<g style=""   >
		<g transform="matrix(1 0 0 1 0 0)"  >
<g style=""   >
		<g transform="matrix(1 0 0 1 -2.7365 -36.2079)"  >
<path style="stroke: none; stroke-width: 1; stroke-dasharray: none; stroke-linecap: butt; stroke-dashoffset: 0; stroke-linejoin: miter; stroke-miterlimit: 4; fill: rgb(255,255,255); fill-rule: nonzero; opacity: 1;"  transform=" translate(-146.76, -188.29)" d="M 261.62 107.05 Q 262.54 113.02 263 118.98 Q 263.46 124.95 263.46 130.69 Q 263.46 155.24 255.2 177.73 L 253.36 180.49 L 252.44 183.24 L 249.69 190.58 L 247.85 192.42 L 239.59 208.03 L 236.84 209.86 L 235.92 212.62 L 234.08 215.37 L 232.25 217.21 L 230.41 219.96 L 222.15 227.3 Q 221.23 228.91 220.31 229.14 L 219.39 230.97 Q 209.76 242.68 201.95 248.42 L 200.12 251.17 L 197.36 253.01 Q 196.45 254.61 195.53 254.84 L 185.43 265.86 L 182.68 266.78 Q 178.09 272.51 173.5 275.04 Q 170.28 278.94 167.07 280.54 Q 162.94 285.36 158.81 286.97 L 156.97 289.72 L 154.22 290.64 Q 153.07 292.25 151.46 292.48 L 149.63 295.23 L 141.37 299.82 Q 136.78 303.72 132.88 306.82 Q 128.97 309.92 125.76 311.76 L 263.46 311.76 L 263.46 365.92 L 30.29 365.92 L 30.29 311.76 L 33.96 309 L 53.24 298.9 L 56 296.15 L 59.67 294.31 Q 64.03 290.64 68.85 288.81 L 71.6 286.05 L 77.11 282.38 L 78.95 280.54 L 80.78 279.63 Q 83.08 278.02 84.91 276.64 Q 86.75 275.27 88.13 274.12 L 90.88 273.2 Q 92.03 271.59 93.63 271.37 L 95.47 268.61 L 101.89 264.94 L 102.81 263.1 L 104.65 262.19 L 116.58 253.01 L 119.34 250.25 L 124.84 246.58 Q 125.76 244.97 126.68 244.74 Q 127.6 243.83 128.29 243.83 L 128.52 243.83 L 130.35 241.07 Q 137.24 235.79 141.37 230.97 Q 201.26 187.14 201.26 126.33 Q 201.26 109.11 196.45 90.53 L 190.02 81.35 Q 168.91 64.36 147.1 64.36 Q 133.56 64.36 119.34 71.25 Q 87.67 86.39 87.67 124.26 Q 87.67 132.06 89.04 141.01 L 30.29 141.01 Q 30.06 138.26 30.06 135.74 L 30.06 130.23 Q 30.06 23.28 136.78 10.66 L 142.74 10.66 Q 247.62 10.66 261.62 107.05" stroke-linecap="round" />
</g>
		<g transform="matrix(1 0 0 1 0 0)"  >
<rect style="stroke: rgb(0,0,0); stroke-opacity: 0; stroke-width: 2; stroke-dasharray: 25 25; stroke-linecap: butt; stroke-dashoffset: 0; stroke-linejoin: miter; stroke-miterlimit: 4; fill: rgb(0,0,0); fill-opacity: 0; fill-rule: nonzero; opacity: 1;"  x="-149" y="-249" rx="0" ry="0" width="298" height="498" />
</g>
</g>
</g>
</g>
</g>
<g transform="matrix(1 0 0 1 692.5 50)"  >
<g style=""   >
		<g transform="matrix(1 0 0 1 0 0)"  >
<g style=""   >
		<g transform="matrix(1 0 0 1 -958.3789 -46.1502)"  >
<path style="stroke: none; stroke-width: 1; stroke-dasharray: none; stroke-linecap: butt; stroke-dashoffset: 0; stroke-linejoin: miter; stroke-miterlimit: 4; fill: rgb(0,0,0); fill-rule: nonzero; opacity: 1;"  transform=" translate(-233.625, -178.35)" d="M 56 3.02 L 59.67 3.02 L 62.42 3.02 L 80.78 3.02 L 84.45 3.02 L 87.21 3.02 L 103.73 3.02 L 115.66 3.02 L 119.34 3.02 L 134.94 3.02 L 137.7 3.02 L 148.71 3.02 L 152.38 8.53 L 154.22 11.28 L 156.05 14.04 L 159.73 19.54 Q 166.84 27.8 169.82 34.23 Q 171.89 36.53 172.58 38.82 L 175.33 42.49 L 179 46.16 L 180.84 49.84 L 183.59 54.43 L 185.43 56.26 L 186.35 59.02 Q 191.17 63.61 193.69 68.2 L 195.53 71.87 L 199.2 75.54 L 201.95 80.13 L 202.87 82.88 Q 207.69 87.93 210.21 92.06 L 211.13 93.9 Q 214.35 98.03 215.72 101.24 L 217.56 103.08 L 221.23 109.5 L 223.07 110.42 L 223.98 113.18 Q 229.72 119.83 232.25 125.11 L 235 124.19 L 235.92 121.44 L 250.61 101.24 L 253.36 96.65 L 262.54 82.88 Q 267.82 76.69 269.88 71.87 L 272.64 68.2 L 275.39 65.44 L 278.14 59.93 L 280.9 58.1 L 282.73 54.43 Q 285.72 48.92 289.16 46.16 L 291 41.57 Q 294.67 36.53 297.42 34.23 L 298.34 31.48 L 300.18 28.72 L 302.01 26.89 L 302.93 24.13 Q 306.14 21.15 307.52 18.63 L 309.36 15.87 L 317.62 3.02 L 320.37 3.02 L 338.73 3.02 L 350.66 3.02 L 354.34 3.02 L 370.86 3.02 L 374.53 3.02 L 378.2 3.02 L 381.88 3.02 L 397.48 3.02 L 400.23 3.02 L 411.25 3.02 L 411.25 353.68 L 395.64 353.68 L 391.97 353.68 L 387.38 353.68 L 375.45 353.68 L 371.78 353.68 L 356.17 353.68 L 353.42 353.68 L 342.4 353.68 Q 336.89 352.77 338.73 347.26 L 338.73 344.5 L 338.73 340.83 L 338.73 325.23 L 338.73 322.47 L 338.73 311.46 L 338.73 293.1 L 338.73 286.67 L 338.73 281.16 L 338.73 277.49 L 338.73 274.74 L 338.73 270.15 L 338.73 267.39 L 338.73 263.72 L 338.73 260.97 L 338.73 242.61 L 338.73 214.15 L 338.73 208.64 L 338.73 193.04 L 338.73 187.53 L 338.73 183.86 L 338.73 181.11 L 338.73 162.75 L 338.73 159.07 L 338.73 143.47 L 338.73 130.62 L 338.73 127.86 L 338.73 125.11 L 338.73 117.77 Q 339.19 109.27 337.81 103.08 L 333.22 108.59 Q 331.62 111.8 329.55 114.09 Q 324.73 122.59 320.37 127.86 L 316.7 133.37 L 313.03 138.88 L 309.36 144.39 L 298.34 159.99 L 290.08 172.84 L 287.32 176.52 Q 282.73 183.17 279.06 186.61 L 277.23 190.29 Q 271.26 200.15 266.21 205.89 L 264.38 209.56 L 261.62 212.32 L 260.7 215.07 Q 256.11 221.73 252.44 225.17 Q 249.46 231.59 246.93 235.27 Q 238.21 247.66 232.25 253.63 Q 228.57 247.66 225.82 244.45 L 224.9 241.69 L 222.15 238.94 L 220.31 236.18 L 219.39 233.43 L 216.64 229.76 L 212.97 224.25 Q 211.36 223.33 211.13 222.41 Q 207.92 217.37 204.71 214.15 L 201.95 208.64 L 198.28 203.14 Q 197.13 202.22 197.36 201.3 Q 192.54 196.71 190.02 192.12 Q 183.59 183.4 180.84 177.43 L 177.17 172.84 L 174.41 169.17 L 172.58 165.5 Q 167.76 160.68 165.23 155.4 L 162.48 152.65 L 157.89 144.39 L 155.14 141.63 Q 151.46 135.67 148.71 132.45 L 147.79 129.7 L 145.04 126.95 L 144.12 124.19 Q 142.74 123.04 142.29 121.44 Q 140.68 120.52 140.45 119.6 Q 139.3 118.68 139.53 117.77 L 127.6 102.16 L 127.6 353.68 L 126.68 353.68 L 127.6 353.68 L 125.76 353.68 L 126.68 353.68 L 124.84 353.68 L 125.76 353.68 L 123.93 353.68 L 124.84 353.68 L 123.01 353.68 L 123.93 353.68 L 122.09 353.68 L 123.01 353.68 L 121.17 353.68 L 122.09 353.68 L 120.25 353.68 L 121.17 353.68 L 119.34 353.68 L 120.25 353.68 L 118.42 353.68 L 119.34 353.68 L 117.5 353.68 L 118.42 353.68 L 116.58 353.68 L 117.5 353.68 L 115.66 353.68 L 116.58 353.68 L 114.75 353.68 L 115.66 353.68 L 113.83 353.68 L 114.75 353.68 L 112.91 353.68 L 113.83 353.68 L 111.99 353.68 L 112.91 353.68 L 111.07 353.68 L 111.99 353.68 L 110.16 353.68 L 111.07 353.68 L 109.24 353.68 L 110.16 353.68 L 108.32 353.68 L 109.24 353.68 L 107.4 353.68 L 108.32 353.68 L 106.48 353.68 L 107.4 353.68 L 105.57 353.68 L 106.48 353.68 L 104.65 353.68 L 105.57 353.68 L 103.73 353.68 L 104.65 353.68 L 102.81 353.68 L 103.73 353.68 L 101.89 353.68 L 102.81 353.68 L 100.98 353.68 L 101.89 353.68 L 100.06 353.68 L 100.98 353.68 L 99.14 353.68 L 100.06 353.68 L 98.22 353.68 L 99.14 353.68 L 97.3 353.68 L 98.22 353.68 L 96.39 353.68 L 97.3 353.68 L 95.47 353.68 L 96.39 353.68 L 94.55 353.68 L 95.47 353.68 L 93.63 353.68 L 94.55 353.68 L 92.71 353.68 L 93.63 353.68 L 91.8 353.68 L 92.71 353.68 L 90.88 353.68 L 91.8 353.68 L 89.96 353.68 L 90.88 353.68 L 89.04 353.68 L 89.96 353.68 L 88.13 353.68 L 89.04 353.68 L 87.21 353.68 L 88.13 353.68 L 86.29 353.68 L 87.21 353.68 L 85.37 353.68 L 86.29 353.68 L 84.45 353.68 L 85.37 353.68 L 83.54 353.68 L 84.45 353.68 L 82.62 353.68 L 83.54 353.68 L 81.7 353.68 L 82.62 353.68 L 80.78 353.68 L 81.7 353.68 L 79.86 353.68 L 80.78 353.68 L 78.95 353.68 L 79.86 353.68 L 78.03 353.68 L 78.95 353.68 L 77.11 353.68 L 78.03 353.68 L 76.19 353.68 L 77.11 353.68 L 75.27 353.68 L 76.19 353.68 L 74.36 353.68 L 75.27 353.68 L 73.44 353.68 L 74.36 353.68 L 72.52 353.68 L 73.44 353.68 L 71.6 353.68 L 72.52 353.68 L 70.68 353.68 L 71.6 353.68 L 69.77 353.68 L 70.68 353.68 L 68.85 353.68 L 69.77 353.68 L 67.93 353.68 L 68.85 353.68 L 67.01 353.68 L 67.93 353.68 L 66.09 353.68 L 67.01 353.68 L 65.18 353.68 L 66.09 353.68 L 64.26 353.68 L 65.18 353.68 L 63.34 353.68 L 64.26 353.68 L 62.42 353.68 L 63.34 353.68 L 61.5 353.68 L 62.42 353.68 L 60.59 353.68 L 61.5 353.68 L 59.67 353.68 L 60.59 353.68 L 58.75 353.68 L 59.67 353.68 L 57.83 353.68 L 58.75 353.68 L 56.91 353.68 L 57.83 353.68 L 56 353.68 L 56.91 353.68 L 56 353.68 L 56 350.93 L 56 347.26 L 56 344.5 L 56 340.83 L 56 324.31 L 56 316.97 L 56 309.62 L 56 306.87 L 56 288.51 L 56 284.84 L 56 280.25 L 56 276.57 L 56 271.98 L 56 260.05 L 56 256.38 L 56 240.77 L 56 238.02 L 56 227 L 56 223.33 L 56 218.74 L 56 206.81 L 56 203.14 L 56 187.53 L 56 184.78 L 56 173.76 L 56 167.34 L 56 159.99 L 56 152.65 L 56 145.3 L 56 142.55 L 56 139.8 L 56 111.34 L 56 104.91 L 56 99.41 L 56 92.98 L 56 87.47 L 56 82.88 L 56 77.38 L 56 73.7 L 56 57.18 L 56 47.08 L 56 43.41 L 56 39.74 L 56 36.07 L 56 32.39 L 56 16.79 L 56 14.04" stroke-linecap="round" />
</g>
		<g transform="matrix(1 0 0 1 -592.6104 7.7631)"  >
<path style="stroke: none; stroke-width: 1; stroke-dasharray: none; stroke-linecap: butt; stroke-dashoffset: 0; stroke-linejoin: miter; stroke-miterlimit: 4; fill: rgb(0,0,0); fill-rule: nonzero; opacity: 1;"  transform=" translate(-138.851, -232.1475)" d="M 125.76 92.98 Q 216.18 92.29 246.93 168.25 Q 250.15 172.39 251.52 176.52 Q 271.26 256.38 232.25 316.97 Q 177.4 380.08 101.89 358.27 Q 22.49 331.19 15.61 245.36 Q 8.72 114.09 125.76 92.98 M 129.43 154.48 Q 79.4 176.06 85.37 231.59 Q 83.99 290.57 134.02 301.36 Q 194.15 297.23 188.18 213.23 Q 181.07 155.17 129.43 154.48" stroke-linecap="round" />
</g>
		<g transform="matrix(1 0 0 1 -293.4351 0.9779)"  >
<path style="stroke: none; stroke-width: 1; stroke-dasharray: none; stroke-linecap: butt; stroke-dashoffset: 0; stroke-linejoin: miter; stroke-miterlimit: 4; fill: rgb(0,0,0); fill-rule: nonzero; opacity: 1;"  transform=" translate(-146.064, -224.8547)" d="M 150.55 96.65 Q 213.43 94.59 248.77 148.06 L 249.69 150.81 L 250.61 153.57 L 251.52 156.32 Q 253.82 160.22 254.28 163.66 L 257.95 174.68 L 257.95 177.43 Q 261.16 193.96 260.7 204.05 L 260.7 353.68 L 242.34 353.68 L 237.75 353.68 L 235 353.68 L 231.33 353.68 L 227.66 353.68 L 223.98 353.68 L 220.31 353.68 L 204.71 353.68 L 201.95 353.68 L 190.94 353.68 L 190.94 350.93 L 190.94 346.34 L 190.94 343.59 L 190.94 339.91 L 190.94 337.16 L 190.94 318.8 L 190.94 305.95 L 190.94 295.85 L 190.94 291.26 L 190.94 288.51 L 190.94 284.84 L 190.94 282.08 L 190.94 263.72 L 190.94 260.05 L 190.94 249.95 L 190.94 240.77 L 190.94 224.25 L 190.94 221.5 L 190.94 218.74 L 190.94 215.07 L 190.94 198.55 L 190.94 194.88 Q 188.64 189.14 188.18 184.78 Q 177.17 165.5 158.81 159.99 Q 120.71 159.07 102.81 189.37 L 100.98 195.79 L 100.98 353.68 L 82.62 353.68 L 78.03 353.68 L 75.27 353.68 L 71.6 353.68 L 67.93 353.68 L 64.26 353.68 L 60.59 353.68 L 44.98 353.68 L 42.23 353.68 L 31.21 353.68 L 31.21 350.93 L 31.21 346.34 L 31.21 343.59 L 31.21 339.91 L 31.21 337.16 L 31.21 318.8 L 31.21 312.38 L 31.21 308.7 L 31.21 304.11 L 31.21 300.44 L 31.21 295.85 L 31.21 283.92 L 31.21 280.25 L 31.21 264.64 L 31.21 261.89 L 31.21 250.87 L 31.21 244.45 L 31.21 238.02 L 31.21 232.51 L 31.21 226.09 L 31.21 220.58 L 31.21 214.15 L 31.21 208.64 L 31.21 193.04 L 31.21 187.53 L 31.21 182.94 L 31.21 177.43 L 31.21 173.76 L 31.21 157.24 L 31.21 147.14 L 31.21 143.47 L 31.21 139.8 L 31.21 136.13 L 31.21 132.45 L 31.21 116.85 L 31.21 114.09 L 31.21 103.08 L 49.57 103.08 L 54.16 103.08 L 56.91 103.08 L 60.59 103.08 L 64.26 103.08 L 67.93 103.08 L 71.6 103.08 L 87.21 103.08 L 89.96 103.08 L 100.98 103.08 Q 100.52 112.49 101.89 118.68 Q 124.84 100.55 150.55 96.65" stroke-linecap="round" />
</g>
		<g transform="matrix(1 0 0 1 -10.8244 47.5204)"  >
<path style="stroke: none; stroke-width: 1; stroke-dasharray: none; stroke-linecap: butt; stroke-dashoffset: 0; stroke-linejoin: miter; stroke-miterlimit: 4; fill: rgb(0,0,0); fill-rule: nonzero; opacity: 1;"  transform=" translate(-134.579, -270.9702)" d="M 118.42 99.41 Q 156.51 97.11 184.51 115.01 Q 186.12 108.13 185.43 103.08 L 201.04 103.08 L 204.71 103.08 L 209.3 103.08 L 221.23 103.08 L 224.9 103.08 L 240.51 103.08 L 243.26 103.08 L 254.28 103.08 L 254.28 344.5 L 253.36 347.26 Q 253.13 358.96 249.69 367.45 Q 248.31 373.88 246.93 377.55 L 245.1 379.39 Q 236.84 398.66 223.07 410.6 L 220.31 412.43 L 217.56 413.35 Q 215.26 416.34 212.05 417.94 L 209.3 418.86 Q 208.38 420.01 207.46 419.78 L 205.63 421.61 L 202.87 422.53 L 191.86 428.04 Q 96.39 451.45 19.28 406.93 L 20.2 403.25 L 28.46 390.4 L 29.38 387.65 L 30.29 385.81 L 31.21 383.98 L 33.05 380.3 L 34.88 377.55 Q 39.93 369.98 42.23 364.7 L 43.14 362.86 L 44.98 361.03 Q 47.96 354.6 50.49 350.93 Q 58.98 353.91 64.26 358.27 Q 114.98 380.76 164.32 371.13 Q 168.45 367.68 172.58 366.54 Q 175.56 362.18 179 360.11 L 179.92 358.27 L 183.59 351.85 L 185.43 345.42 L 185.43 328.9 Q 120.94 356.44 67.93 324.31 Q 19.05 292.64 16.52 237.1 Q 11.47 113.86 118.42 99.41 M 126.68 160.91 Q 88.81 171.47 86.29 209.56 Q 79.17 247.66 104.65 270.15 Q 128.97 284.61 154.22 277.49 Q 192.77 268.77 185.43 198.55 Q 173.04 156.78 126.68 160.91" stroke-linecap="round" />
</g>
		<g transform="matrix(1 0 0 1 150.5 Infinity)"  >
<path style="stroke: none; stroke-width: 1; stroke-dasharray: none; stroke-linecap: butt; stroke-dashoffset: 0; stroke-linejoin: miter; stroke-miterlimit: 4; fill: rgb(0,0,0); fill-rule: nonzero; opacity: 1;"  transform=" translate(0, 0)" d="" stroke-linecap="round" />
</g>
		<g transform="matrix(1 0 0 1 471.4872 -45.2322)"  >
<path style="stroke: none; stroke-width: 1; stroke-dasharray: none; stroke-linecap: butt; stroke-dashoffset: 0; stroke-linejoin: miter; stroke-miterlimit: 4; fill: rgb(0,0,0); fill-rule: nonzero; opacity: 1;"  transform=" translate(-195.985, -179.27)" d="M 53.24 3.94 L 65.18 3.94 L 68.85 3.94 L 85.37 3.94 L 89.04 3.94 L 92.71 3.94 L 96.39 3.94 L 111.99 3.94 L 114.75 3.94 L 125.76 3.94 L 125.76 123.27 L 131.27 118.68 L 132.19 115.93 L 138.61 110.42 Q 139.53 108.82 140.45 108.59 L 141.37 106.75 L 153.3 92.98 L 157.89 89.31 L 160.64 84.72 L 162.48 82.88 L 164.32 81.05 L 166.15 79.21 L 167.99 77.38 L 169.82 74.62 L 171.66 73.7 L 183.59 59.93 L 187.27 57.18 L 190.02 53.51 L 192.77 49.84 L 196.45 47.08 L 199.2 43.41 Q 200.12 41.8 201.04 41.57 L 203.79 38.82 L 204.71 36.98 Q 207.92 32.85 211.13 30.56 Q 217.33 21.61 223.98 16.79 Q 229.49 8.76 234.08 3.94 L 238.67 3.94 L 241.43 3.94 L 259.79 3.94 L 271.72 3.94 L 275.39 3.94 L 291.91 3.94 L 295.59 3.94 L 299.26 3.94 L 302.93 3.94 L 318.54 3.94 L 321.29 3.94 L 332.3 3.94 L 330.47 6.69 L 328.63 9.45 L 325.88 12.2 L 324.04 14.04 Q 319.45 19.54 315.78 22.3 Q 313.03 26.43 310.27 28.72 L 309.36 30.56 L 307.52 31.48 Q 300.86 40.43 295.59 45.25 L 291 49.84 L 279.06 63.61 L 275.39 67.28 L 272.64 70.95 L 268.05 74.62 L 266.21 78.29 L 263.46 81.05 L 253.36 92.06 L 249.69 95.73 L 246.93 99.41 L 243.26 102.16 L 241.43 104.91 Q 237.98 109.73 234.08 112.26 Q 233.16 113.86 232.25 114.09 L 231.33 116.85 L 228.57 119.6 L 226.74 121.44 L 224.9 123.27 L 223.07 125.11 L 221.23 127.86 L 206.54 142.55 Q 207.92 146.45 210.21 148.98 L 212.97 155.4 L 216.64 160.91 Q 218.71 163.21 219.39 165.5 Q 222.15 167.8 223.98 171.01 L 224.9 173.76 Q 230.87 181.34 234.08 187.53 L 237.75 193.04 L 238.67 195.79 L 240.51 196.71 L 248.77 211.4 L 250.61 213.23 L 254.28 219.66 Q 258.18 224.94 259.79 228.84 L 263.46 233.43 L 279.98 260.05 Q 285.26 267.17 287.32 272.9 Q 288.93 273.82 289.16 274.74 L 297.42 286.67 L 303.85 297.69 L 306.6 301.36 L 308.44 305.95 Q 309.81 307.1 310.27 308.7 L 312.11 311.46 Q 317.85 318.57 320.37 324.31 L 324.04 330.73 L 325.88 331.65 L 326.8 334.41 Q 327.94 335.32 327.71 336.24 Q 335.75 345.19 338.73 354.6 L 325.88 354.6 L 313.95 354.6 L 310.27 354.6 L 293.75 354.6 L 290.08 354.6 L 286.41 354.6 L 282.73 354.6 L 267.13 354.6 L 264.38 354.6 L 253.36 354.6 L 250.61 349.09 Q 249.23 347.95 248.77 346.34 Q 247.16 345.42 246.93 344.5 L 246.02 341.75 Q 244.64 340.6 244.18 339 Q 240.51 335.55 239.59 331.65 Q 237.98 330.73 237.75 329.82 L 236.84 327.98 L 229.49 317.88 L 228.57 315.13 L 218.48 299.52 Q 216.64 296.54 215.72 294.02 Q 214.12 293.1 213.89 292.18 L 205.63 280.25 L 202.87 274.74 L 200.12 271.07 L 199.2 268.31 Q 193.23 261.43 190.94 255.46 L 188.18 252.71 L 181.76 240.77 Q 180.38 239.63 179.92 238.02 L 175.33 232.51 L 173.5 229.76 L 172.58 226.09 L 170.74 225.17 L 169.82 222.41 L 166.15 215.99 Q 160.19 209.56 157.89 203.14 L 154.22 200.38 L 152.38 204.05 L 149.63 205.89 L 147.79 208.64 L 145.96 210.48 L 144.12 213.23 L 141.37 215.07 L 140.45 216.91 Q 135.4 221.73 133.11 225.17 L 125.76 232.51 L 125.76 354.6 L 113.83 354.6 L 110.16 354.6 L 93.63 354.6 L 89.96 354.6 L 86.29 354.6 L 82.62 354.6 L 67.01 354.6 L 64.26 354.6 L 53.24 354.6 L 53.24 351.85 L 53.24 348.18 L 53.24 345.42 L 53.24 341.75 L 53.24 325.23 L 53.24 317.88 L 53.24 310.54 L 53.24 307.79 L 53.24 289.43 L 53.24 285.75 L 53.24 281.16 L 53.24 277.49 L 53.24 272.9 L 53.24 260.97 L 53.24 257.3 L 53.24 241.69 L 53.24 238.94 L 53.24 227.92 L 53.24 224.25 L 53.24 219.66 L 53.24 207.73 L 53.24 204.05 L 53.24 188.45 L 53.24 185.7 L 53.24 174.68 L 53.24 168.25 L 53.24 160.91 L 53.24 153.57 L 53.24 146.22 L 53.24 143.47 L 53.24 140.72 L 53.24 112.26 L 53.24 105.83 L 53.24 100.32 L 53.24 93.9 L 53.24 88.39 L 53.24 83.8 L 53.24 78.29 L 53.24 74.62 L 53.24 58.1 L 53.24 48 L 53.24 44.33 L 53.24 40.66 L 53.24 36.98 L 53.24 33.31 L 53.24 17.71 L 53.24 14.95" stroke-linecap="round" />
</g>
		<g transform="matrix(1 0 0 1 754.8896 7.7631)"  >
<path style="stroke: none; stroke-width: 1; stroke-dasharray: none; stroke-linecap: butt; stroke-dashoffset: 0; stroke-linejoin: miter; stroke-miterlimit: 4; fill: rgb(0,0,0); fill-rule: nonzero; opacity: 1;"  transform=" translate(-138.851, -232.1475)" d="M 125.76 92.98 Q 216.18 92.29 246.93 168.25 Q 250.15 172.39 251.52 176.52 Q 271.26 256.38 232.25 316.97 Q 177.4 380.08 101.89 358.27 Q 22.49 331.19 15.61 245.36 Q 8.72 114.09 125.76 92.98 M 129.43 154.48 Q 79.4 176.06 85.37 231.59 Q 83.99 290.57 134.02 301.36 Q 194.15 297.23 188.18 213.23 Q 181.07 155.17 129.43 154.48" stroke-linecap="round" />
</g>
		<g transform="matrix(1 0 0 1 1061.303 -45.6922)"  >
<path style="stroke: none; stroke-width: 1; stroke-dasharray: none; stroke-linecap: butt; stroke-dashoffset: 0; stroke-linejoin: miter; stroke-miterlimit: 4; fill: rgb(0,0,0); fill-rule: nonzero; opacity: 1;"  transform=" translate(-153.3, -178.81)" d="M 30.29 3.94 L 45.9 3.94 L 49.57 3.94 L 54.16 3.94 L 66.09 3.94 L 69.77 3.94 L 85.37 3.94 L 92.71 3.94 L 99.14 3.94 L 99.14 190.29 L 102.81 186.61 L 106.48 182.94 L 109.24 179.27 L 111.07 177.43 L 112.91 176.52 Q 116.35 171.93 119.34 169.17 L 121.17 168.25 Q 125.76 161.83 131.27 158.16 L 134.02 155.4 Q 138.61 148.98 144.12 145.3 Q 147.1 140.94 150.55 138.88 Q 153.53 134.52 156.97 132.45 L 157.89 130.62 L 159.73 129.7 Q 163.17 125.11 166.15 122.36 L 168.91 120.52 Q 169.82 118.91 170.74 118.68 L 171.66 116.85 L 173.5 115.01 L 175.33 114.09 L 176.25 112.26 L 178.09 111.34 Q 181.53 106.75 184.51 104 L 190.02 104 L 201.95 104 L 205.63 104 L 222.15 104 L 232.25 104 L 235.92 104 L 239.59 104 L 243.26 104 L 246.93 104 L 262.54 104 L 269.88 104 L 276.31 104 L 272.64 109.5 L 268.05 113.18 L 264.38 117.77 L 252.44 129.7 L 250.61 130.62 Q 246.02 136.81 241.43 139.8 Q 236.84 145.99 232.25 148.98 L 231.33 150.81 L 229.49 152.65 L 227.66 154.48 L 225.82 155.4 Q 224.9 157.01 223.98 157.24 L 213.89 168.25 L 204.71 176.52 L 201.95 180.19 L 199.2 182.02 L 197.36 184.78 L 194.61 186.61 Q 191.63 190.97 188.18 193.04 Q 181.76 201.99 175.33 206.81 L 176.25 209.56 L 178.09 210.48 L 181.76 216.91 L 182.68 218.74 Q 185.89 222.87 187.27 226.09 Q 194.15 235.27 197.36 241.69 L 201.04 247.2 L 203.79 252.71 L 207.46 256.38 L 208.38 258.22 L 215.72 271.07 Q 217.79 273.36 218.48 275.66 Q 223.3 281.16 225.82 285.75 L 228.57 290.34 L 230.41 293.1 L 231.33 294.93 Q 234.54 299.29 235.92 302.28 Q 239.36 306.41 240.51 310.54 L 243.26 313.29 L 245.1 316.05 L 246.93 319.72 L 248.77 321.55 L 249.69 324.31 L 253.36 330.73 L 255.2 331.65 L 256.11 334.41 L 259.79 340.83 Q 265.75 347.26 268.05 353.68 L 262.54 353.68 L 234.08 353.68 L 221.23 353.68 L 218.48 353.68 L 213.89 353.68 L 211.13 353.68 L 207.46 353.68 L 204.71 353.68 L 186.35 353.68 L 177.17 339.91 L 175.33 335.32 Q 168.68 327.98 166.15 321.55 L 162.48 316.97 L 160.64 312.38 L 156.97 307.79 L 155.14 304.11 Q 150.55 298.38 148.71 293.1 L 145.96 289.43 L 140.45 282.08 L 138.61 279.33 L 137.7 276.57 L 135.86 273.82 L 134.02 271.98 Q 129.66 263.03 124.84 257.3 L 120.25 261.89 Q 117.04 266.25 114.75 268.31 L 111.99 271.07 L 110.16 272.9 L 108.32 273.82 Q 103.96 280.02 99.14 283.92 L 99.14 353.68 L 83.54 353.68 L 79.86 353.68 L 75.27 353.68 L 63.34 353.68 L 59.67 353.68 L 44.06 353.68 L 41.31 353.68 L 30.29 353.68 L 30.29 346.34 L 30.29 327.98 L 30.29 320.64 L 30.29 317.88 L 30.29 314.21 L 30.29 297.69 L 30.29 294.93 L 30.29 276.57 L 30.29 269.23 L 30.29 265.56 L 30.29 249.04 L 30.29 246.28 L 30.29 243.53 L 30.29 215.07 L 30.29 208.64 L 30.29 205.89 L 30.29 202.22 L 30.29 185.7 L 30.29 172.84 L 30.29 170.09 L 30.29 165.5 L 30.29 162.75 L 30.29 159.07 L 30.29 156.32 L 30.29 137.96 L 30.29 122.36 L 30.29 119.6 L 30.29 108.59 L 30.29 96.65 L 30.29 92.98 L 30.29 77.38 L 30.29 74.62 L 30.29 63.61 L 30.29 53.51 L 30.29 48.92 L 30.29 36.98 L 30.29 33.31 L 30.29 17.71 L 30.29 14.95" stroke-linecap="round" />
</g>
		<g transform="matrix(1 0 0 1 -960 0)"  >
<rect style="stroke: rgb(0,0,0); stroke-opacity: 0; stroke-width: 2; stroke-dasharray: 25 25; stroke-linecap: butt; stroke-dashoffset: 0; stroke-linejoin: miter; stroke-miterlimit: 4; fill: rgb(0,0,0); fill-opacity: 0; fill-rule: nonzero; opacity: 1;"  x="-231.5" y="-249" rx="0" ry="0" width="463" height="498" />
</g>
		<g transform="matrix(1 0 0 1 -583.75 0)"  >
<rect style="stroke: rgb(0,0,0); stroke-opacity: 0; stroke-width: 2; stroke-dasharray: 25 25; stroke-linecap: butt; stroke-dashoffset: 0; stroke-linejoin: miter; stroke-miterlimit: 4; fill: rgb(0,0,0); fill-opacity: 0; fill-rule: nonzero; opacity: 1;"  x="-142.75" y="-249" rx="0" ry="0" width="285.5" height="498" />
</g>
		<g transform="matrix(1 0 0 1 -291.25 0)"  >
<rect style="stroke: rgb(0,0,0); stroke-opacity: 0; stroke-width: 2; stroke-dasharray: 25 25; stroke-linecap: butt; stroke-dashoffset: 0; stroke-linejoin: miter; stroke-miterlimit: 4; fill: rgb(0,0,0); fill-opacity: 0; fill-rule: nonzero; opacity: 1;"  x="-147.75" y="-249" rx="0" ry="0" width="295.5" height="498" />
</g>
		<g transform="matrix(1 0 0 1 3.75 0)"  >
<rect style="stroke: rgb(0,0,0); stroke-opacity: 0; stroke-width: 2; stroke-dasharray: 25 25; stroke-linecap: butt; stroke-dashoffset: 0; stroke-linejoin: miter; stroke-miterlimit: 4; fill: rgb(0,0,0); fill-opacity: 0; fill-rule: nonzero; opacity: 1;"  x="-145.25" y="-249" rx="0" ry="0" width="290.5" height="498" />
</g>
		<g transform="matrix(1 0 0 1 212.5 0)"  >
<rect style="stroke: rgb(0,0,0); stroke-opacity: 0; stroke-width: 2; stroke-dasharray: 25 25; stroke-linecap: butt; stroke-dashoffset: 0; stroke-linejoin: miter; stroke-miterlimit: 4; fill: rgb(0,0,0); fill-opacity: 0; fill-rule: nonzero; opacity: 1;"  x="-61.5" y="-249" rx="0" ry="0" width="123" height="498" />
</g>
		<g transform="matrix(1 0 0 1 447.5 0)"  >
<rect style="stroke: rgb(0,0,0); stroke-opacity: 0; stroke-width: 2; stroke-dasharray: 25 25; stroke-linecap: butt; stroke-dashoffset: 0; stroke-linejoin: miter; stroke-miterlimit: 4; fill: rgb(0,0,0); fill-opacity: 0; fill-rule: nonzero; opacity: 1;"  x="-171.5" y="-249" rx="0" ry="0" width="343" height="498" />
</g>
		<g transform="matrix(1 0 0 1 763.75 0)"  >
<rect style="stroke: rgb(0,0,0); stroke-opacity: 0; stroke-width: 2; stroke-dasharray: 25 25; stroke-linecap: butt; stroke-dashoffset: 0; stroke-linejoin: miter; stroke-miterlimit: 4; fill: rgb(0,0,0); fill-opacity: 0; fill-rule: nonzero; opacity: 1;"  x="-142.75" y="-249" rx="0" ry="0" width="285.5" height="498" />
</g>
		<g transform="matrix(1 0 0 1 1050 0)"  >
<rect style="stroke: rgb(0,0,0); stroke-opacity: 0; stroke-width: 2; stroke-dasharray: 25 25; stroke-linecap: butt; stroke-dashoffset: 0; stroke-linejoin: miter; stroke-miterlimit: 4; fill: rgb(0,0,0); fill-opacity: 0; fill-rule: nonzero; opacity: 1;"  x="-141.5" y="-249" rx="0" ry="0" width="283" height="498" />
</g>
</g>
</g>
</g>
</g>
<g transform="matrix(1 0 0 1 692.625 1575)"  >
<g style=""   >
		<g transform="matrix(1 0 0 1 0 0)"  >
<g style=""   >
		<g transform="matrix(1 0 0 1 0 0)"  >
<path style="stroke: none; stroke-width: 0; stroke-dasharray: none; stroke-linecap: butt; stroke-dashoffset: 0; stroke-linejoin: miter; stroke-miterlimit: 4; fill: rgb(255,255,255); fill-rule: nonzero; opacity: 1;"  transform=" translate(500, -450)" d="M -500 200 L -312.5 200 L -312.5 450 L 62.5 450 L -500 700 L -1062.5 450 L -687.5 450 L -687.5 200 Z" stroke-linecap="round" />
</g>
</g>
</g>
</g>
</g>
<g transform="matrix(1 0 0 1 4580.125 1575)"  >
<g style=""   >
		<g transform="matrix(1 0 0 1 0 0)"  >
<g style=""   >
		<g transform="matrix(1 0 0 1 0 0)"  >
<path style="stroke: none; stroke-width: 0; stroke-dasharray: none; stroke-linecap: butt; stroke-dashoffset: 0; stroke-linejoin: miter; stroke-miterlimit: 4; fill: rgb(255,255,255); fill-rule: nonzero; opacity: 1;"  transform=" translate(-500, -550)" d="M 500 300 L 687.5 300 L 687.5 550 L 1062.5 550 L 500 800 L -62.5 550 L 312.5 550 L 312.5 300 Z" stroke-linecap="round" />
</g>
</g>
</g>
</g>
</g>
<g transform="matrix(1 0 0 1 2330.125 625)"  >
<g style=""   >
		<g transform="matrix(1 0 0 1 0 0)"  >
<g style=""   >
		<g transform="matrix(1 0 0 1 0 0)"  >
<path style="stroke: none; stroke-width: 0; stroke-dasharray: none; stroke-linecap: butt; stroke-dashoffset: 0; stroke-linejoin: miter; stroke-miterlimit: 4; fill: rgb(255,255,255); fill-rule: nonzero; opacity: 1;"  transform=" translate(-2330.125, -856.25)" d="M 2298.875 856.25 L 2298.875 2068.75 C 2298.875 2120.5267 2256.9017 2162.5 2205.125 2162.5 L 2205.125 2162.5 L 2455.125 2162.5 L 2455.125 2162.5 C 2403.3483 2162.5 2361.375 2120.5267 2361.375 2068.75 L 2361.375 -356.25 C 2361.375 -408.0267 2403.3483 -450 2455.125 -450 L 2455.125 -450 L 2205.125 -450 L 2205.125 -450 C 2256.9017 -450 2298.875 -408.0267 2298.875 -356.25 Z" stroke-linecap="round" />
</g>
</g>
</g>
</g>
</g>
<g transform="matrix(1 0 0 1 4580.25 843.75)"  >
<g style=""   >
		<g transform="matrix(1 0 0 1 0 0)"  >
<g style=""   >
		<g transform="matrix(1 0 0 1 -1717.405 -50.8799)"  >
<path style="stroke: none; stroke-width: 1; stroke-dasharray: none; stroke-linecap: butt; stroke-dashoffset: 0; stroke-linejoin: miter; stroke-miterlimit: 4; fill: rgb(255,255,255); fill-rule: nonzero; opacity: 1;"  transform=" translate(-282.095, -354.875)" d="M 33.75 306.5 L 33.75 251.37 L 531 251.37 L 531 306.5 L 33.75 306.5 M 260.44 286.25 L 313.88 273.31 Q 331.88 339.69 362.53 397.06 Q 393.19 454.44 437.91 497.47 Q 482.63 540.5 541.69 565.25 Q 534.94 570.87 527.34 579.87 Q 519.75 588.87 513 598.15 Q 506.25 607.44 501.75 614.75 Q 439.31 585.5 392.91 537.4 Q 346.5 489.31 314.44 425.75 Q 282.38 362.19 260.44 286.25 M 252 94.44 L 309.94 94.44 Q 309.94 134.37 307.97 180.22 Q 306 226.06 299.25 274.44 Q 292.5 322.81 277.31 371.19 Q 262.13 419.56 235.13 464.56 Q 208.13 509.56 165.94 548.09 Q 123.75 586.62 63 615.31 Q 56.25 604.62 45 591.97 Q 33.75 579.31 22.5 570.87 Q 81 544.44 121.22 509.28 Q 161.44 474.12 186.47 432.78 Q 211.5 391.44 225 347 Q 238.5 302.56 244.13 258.12 Q 249.75 213.69 250.88 172.06 Q 252 130.44 252 94.44" stroke-linecap="round" />
</g>
		<g transform="matrix(1 0 0 1 -1056.345 -50.0349)"  >
<path style="stroke: none; stroke-width: 1; stroke-dasharray: none; stroke-linecap: butt; stroke-dashoffset: 0; stroke-linejoin: miter; stroke-miterlimit: 4; fill: rgb(255,255,255); fill-rule: nonzero; opacity: 1;"  transform=" translate(-255.66, -355.72)" d="M 135.56 269.94 L 135.56 223.25 L 469.69 223.25 L 469.69 269.94 L 135.56 269.94 M 135.56 379.62 L 135.56 334.62 L 461.25 334.62 L 461.25 379.62 L 135.56 379.62 M 126 493.81 L 126 447.69 L 462.94 447.69 L 462.94 493.81 L 126 493.81 M 105.75 366.12 L 105.75 223.25 L 157.5 223.25 L 157.5 366.69 Q 157.5 397.06 153.56 431.09 Q 149.63 465.12 138.94 498.87 Q 128.25 532.62 107.72 563.56 Q 87.19 594.5 54 619.25 Q 50.63 614.19 43.59 606.87 Q 36.56 599.56 29.53 592.53 Q 22.5 585.5 16.88 581.56 Q 46.69 559.06 64.69 532.62 Q 82.69 506.19 91.41 477.78 Q 100.13 449.37 102.94 420.97 Q 105.75 392.56 105.75 366.12 M 441.56 552.87 L 441.56 223.25 L 494.44 223.25 L 494.44 553.44 Q 494.44 577.06 487.41 589.72 Q 480.38 602.37 462.94 608.56 Q 445.5 614.75 416.53 616.15 Q 387.56 617.56 345.38 617.56 Q 343.69 610.25 340.59 600.97 Q 337.5 591.69 333.28 582.4 Q 329.06 573.12 325.13 566.37 Q 346.5 566.94 367.03 567.22 Q 387.56 567.5 403.31 567.5 Q 419.06 567.5 425.25 566.94 Q 434.81 566.94 438.19 563.84 Q 441.56 560.75 441.56 552.87 M 270 471.31 L 270 242.94 L 320.63 242.94 L 320.63 471.31 L 270 471.31 M 182.81 170.94 L 182.81 126.5 L 357.75 126.5 L 357.75 170.94 L 182.81 170.94 M 182.25 92.19 L 239.63 102.87 Q 220.5 137.19 195.75 172.62 Q 171 208.06 138.94 241.53 Q 106.88 275 66.94 304.25 Q 63 298.06 56.25 290.47 Q 49.5 282.87 42.19 276.4 Q 34.88 269.94 28.69 266 Q 66.38 240.69 95.63 211.15 Q 124.88 181.62 146.81 150.97 Q 168.75 120.31 182.25 92.19 M 339.75 136.62 L 339.75 126.5 L 351.56 126.5 L 360 124.25 L 396 147.87 Q 385.88 167 372.38 187.53 Q 358.88 208.06 343.97 227.19 Q 329.06 246.31 315.56 260.94 Q 308.81 254.75 297.84 247.72 Q 286.88 240.69 277.88 236.19 Q 289.69 222.69 301.5 204.97 Q 313.31 187.25 323.44 168.97 Q 333.56 150.69 339.75 136.62" stroke-linecap="round" />
</g>
		<g transform="matrix(1 0 0 1 -333.1275 -44.1249)"  >
<path style="stroke: none; stroke-width: 1; stroke-dasharray: none; stroke-linecap: butt; stroke-dashoffset: 0; stroke-linejoin: miter; stroke-miterlimit: 4; fill: rgb(255,255,255); fill-rule: nonzero; opacity: 1;"  transform=" translate(-291.375, -361.625)" d="M 187.88 598.44 L 187.88 549.5 L 542.81 549.5 L 542.81 598.44 L 187.88 598.44 M 274.5 311 L 274.5 262.62 L 466.31 262.62 L 466.31 311 L 274.5 311 M 274.5 452.19 L 274.5 403.81 L 466.31 403.81 L 466.31 452.19 L 274.5 452.19 M 248.06 577.06 L 248.06 124.81 L 492.19 124.81 L 492.19 577.06 L 438.19 577.06 L 438.19 173.75 L 299.81 173.75 L 299.81 577.06 L 248.06 577.06 M 61.31 195.69 L 61.31 144.5 L 198.56 144.5 L 198.56 476.94 L 61.31 476.94 L 61.31 425.19 L 150.19 425.19 L 150.19 195.69 L 61.31 195.69 M 39.94 521.37 L 39.94 144.5 L 87.75 144.5 L 87.75 521.37" stroke-linecap="round" />
</g>
		<g transform="matrix(1 0 0 1 344.2475 -35.9749)"  >
<path style="stroke: none; stroke-width: 1; stroke-dasharray: none; stroke-linecap: butt; stroke-dashoffset: 0; stroke-linejoin: miter; stroke-miterlimit: 4; fill: rgb(255,255,255); fill-rule: nonzero; opacity: 1;"  transform=" translate(-281.25, -369.78)" d="M 149.06 197.94 L 195.19 187.25 Q 218.81 284 261.84 359.94 Q 304.88 435.87 374.06 487.34 Q 443.25 538.81 545.06 562.44 Q 539.44 567.5 532.41 576.5 Q 525.38 585.5 519.47 594.78 Q 513.56 604.06 509.06 611.94 Q 430.31 591.12 371.25 554.28 Q 312.19 517.44 270 465.12 Q 227.81 412.81 198.28 345.59 Q 168.75 278.37 149.06 197.94 M 49.5 177.69 L 49.5 123.69 L 358.31 123.69 L 358.31 177.69 L 49.5 177.69 M 457.31 268.81 L 457.31 259.25 L 467.44 259.25 L 477 256.44 L 513.56 271.06 Q 496.69 344.75 466.03 401.28 Q 435.38 457.81 392.91 499.15 Q 350.44 540.5 298.69 569.19 Q 246.94 597.87 187.88 615.87 Q 184.5 608.56 179.44 600.12 Q 174.38 591.69 168.47 582.97 Q 162.56 574.25 156.94 569.19 Q 210.94 554.56 259.31 529.53 Q 307.69 504.5 347.06 467.37 Q 386.44 430.25 414.56 380.47 Q 442.69 330.69 457.31 268.81 M 334.69 309.31 L 345.38 259.25 L 469.13 259.25 L 469.13 309.31 L 334.69 309.31 M 144.56 219.31 L 144.56 138.87 L 200.25 138.87 L 200.25 219.31 Q 200.25 253.06 197.72 291.59 Q 195.19 330.12 187.31 370.9 Q 179.44 411.69 163.69 453.03 Q 147.94 494.37 121.78 534.31 Q 95.63 574.25 56.25 610.25 Q 52.31 602.94 45.56 594.22 Q 38.81 585.5 31.22 577.34 Q 23.63 569.19 17.44 564.12 Q 61.31 524.75 86.91 480.03 Q 112.5 435.31 124.88 388.9 Q 137.25 342.5 140.91 299.19 Q 144.56 255.87 144.56 219.31 M 347.63 123.69 L 402.19 123.69 Q 396 154.62 388.69 188.65 Q 381.38 222.69 374.06 254.19 Q 366.75 285.69 360.56 309.31 L 302.06 309.31 Q 309.94 284.56 318.38 252.78 Q 326.81 221 334.41 187.25 Q 342 153.5 347.63 123.69" stroke-linecap="round" />
</g>
		<g transform="matrix(1 0 0 1 1033.715 -49.1874)"  >
<path style="stroke: none; stroke-width: 1; stroke-dasharray: none; stroke-linecap: butt; stroke-dashoffset: 0; stroke-linejoin: miter; stroke-miterlimit: 4; fill: rgb(255,255,255); fill-rule: nonzero; opacity: 1;"  transform=" translate(-283.22, -356.56)" d="M 332.44 384.69 L 332.44 96.12 L 384.75 96.12 L 384.75 385.81 Q 384.75 406.62 379.69 418.72 Q 374.63 430.81 360.56 437 Q 346.5 443.75 325.13 445.44 Q 303.75 447.12 272.81 447.12 Q 271.13 435.31 265.78 420.4 Q 260.44 405.5 255.38 394.25 Q 276.75 394.81 295.59 395.09 Q 314.44 395.37 321.19 394.81 Q 327.38 394.25 329.91 392.28 Q 332.44 390.31 332.44 384.69 M 239.06 184.44 L 290.25 195.69 Q 276.19 244.06 255.66 290.75 Q 235.13 337.44 212.06 368.94 Q 207 364.44 198.84 359.09 Q 190.69 353.75 182.25 348.69 Q 173.81 343.62 167.06 340.25 Q 190.13 311.56 208.69 269.65 Q 227.25 227.75 239.06 184.44 M 426.38 196.81 L 471.94 176.56 Q 488.25 199.62 503.16 226.9 Q 518.06 254.19 529.59 280.62 Q 541.13 307.06 547.31 328.44 L 497.81 350.37 Q 492.75 329 481.78 302.28 Q 470.81 275.56 456.47 247.72 Q 442.13 219.87 426.38 196.81 M 458.44 349.81 L 509.06 363.87 Q 488.25 435.87 449.72 485.37 Q 411.19 534.87 352.97 566.65 Q 294.75 598.44 214.31 617 Q 210.38 605.19 201.94 591.4 Q 193.5 577.62 185.06 567.5 Q 260.44 553.44 314.44 527 Q 368.44 500.56 403.88 456.97 Q 439.31 413.37 458.44 349.81 M 50.63 136.62 L 80.44 97.81 Q 98.44 105.12 118.13 115.25 Q 137.81 125.37 155.53 136.62 Q 173.25 147.87 184.5 158 L 153.56 201.31 Q 142.88 191.19 125.44 179.37 Q 108 167.56 88.59 156.31 Q 69.19 145.06 50.63 136.62 M 19.13 289.06 L 47.25 249.12 Q 65.25 255.87 85.5 266 Q 105.75 276.12 124.03 286.53 Q 142.31 296.94 153.56 306.5 L 123.19 350.37 Q 112.5 340.81 95.06 329.56 Q 77.63 318.31 57.66 307.62 Q 37.69 296.94 19.13 289.06 M 83.25 609.12 L 37.69 574.25 Q 52.31 552.31 69.75 522.5 Q 87.19 492.69 105.47 459.5 Q 123.75 426.31 139.5 394.25 L 178.88 428.56 Q 165.38 458.37 149.06 489.87 Q 132.75 521.37 115.88 551.75 Q 99 582.12 83.25 609.12" stroke-linecap="round" />
</g>
		<g transform="matrix(1 0 0 1 1720.09 -33.7249)"  >
<path style="stroke: none; stroke-width: 1; stroke-dasharray: none; stroke-linecap: butt; stroke-dashoffset: 0; stroke-linejoin: miter; stroke-miterlimit: 4; fill: rgb(255,255,255); fill-rule: nonzero; opacity: 1;"  transform=" translate(-282.095, -372.03)" d="M 80.44 576.5 L 80.44 523.06 L 483.19 523.06 L 483.19 576.5 L 80.44 576.5 M 81 378.5 L 81 325.62 L 484.31 325.62 L 484.31 378.5 L 81 378.5 M 50.63 611.37 L 50.63 132.69 L 513.56 132.69 L 513.56 611.37 L 458.44 611.37 L 458.44 183.87 L 103.5 183.87 L 103.5 611.37 L 50.63 611.37 M 250.88 550.62 L 250.88 156.87 L 304.88 156.87 L 304.88 550.62" stroke-linecap="round" />
</g>
		<g transform="matrix(1 0 0 1 -1718.75 0)"  >
<rect style="stroke: rgb(0,0,0); stroke-opacity: 0; stroke-width: 2; stroke-dasharray: 25 25; stroke-linecap: butt; stroke-dashoffset: 0; stroke-linejoin: miter; stroke-miterlimit: 4; fill: rgb(0,0,0); fill-opacity: 0; fill-rule: nonzero; opacity: 1;"  x="-342.75" y="-355.25" rx="0" ry="0" width="685.5" height="710.5" />
</g>
		<g transform="matrix(1 0 0 1 -1031.25 0)"  >
<rect style="stroke: rgb(0,0,0); stroke-opacity: 0; stroke-width: 2; stroke-dasharray: 25 25; stroke-linecap: butt; stroke-dashoffset: 0; stroke-linejoin: miter; stroke-miterlimit: 4; fill: rgb(0,0,0); fill-opacity: 0; fill-rule: nonzero; opacity: 1;"  x="-342.75" y="-355.25" rx="0" ry="0" width="685.5" height="710.5" />
</g>
		<g transform="matrix(1 0 0 1 -343.75 0)"  >
<rect style="stroke: rgb(0,0,0); stroke-opacity: 0; stroke-width: 2; stroke-dasharray: 25 25; stroke-linecap: butt; stroke-dashoffset: 0; stroke-linejoin: miter; stroke-miterlimit: 4; fill: rgb(0,0,0); fill-opacity: 0; fill-rule: nonzero; opacity: 1;"  x="-342.75" y="-355.25" rx="0" ry="0" width="685.5" height="710.5" />
</g>
		<g transform="matrix(1 0 0 1 343.75 0)"  >
<rect style="stroke: rgb(0,0,0); stroke-opacity: 0; stroke-width: 2; stroke-dasharray: 25 25; stroke-linecap: butt; stroke-dashoffset: 0; stroke-linejoin: miter; stroke-miterlimit: 4; fill: rgb(0,0,0); fill-opacity: 0; fill-rule: nonzero; opacity: 1;"  x="-342.75" y="-355.25" rx="0" ry="0" width="685.5" height="710.5" />
</g>
		<g transform="matrix(1 0 0 1 1031.25 0)"  >
<rect style="stroke: rgb(0,0,0); stroke-opacity: 0; stroke-width: 2; stroke-dasharray: 25 25; stroke-linecap: butt; stroke-dashoffset: 0; stroke-linejoin: miter; stroke-miterlimit: 4; fill: rgb(0,0,0); fill-opacity: 0; fill-rule: nonzero; opacity: 1;"  x="-342.75" y="-355.25" rx="0" ry="0" width="685.5" height="710.5" />
</g>
		<g transform="matrix(1 0 0 1 1718.75 0)"  >
<rect style="stroke: rgb(0,0,0); stroke-opacity: 0; stroke-width: 2; stroke-dasharray: 25 25; stroke-linecap: butt; stroke-dashoffset: 0; stroke-linejoin: miter; stroke-miterlimit: 4; fill: rgb(0,0,0); fill-opacity: 0; fill-rule: nonzero; opacity: 1;"  x="-342.75" y="-355.25" rx="0" ry="0" width="685.5" height="710.5" />
</g>
</g>
</g>
</g>
</g>
<g transform="matrix(1 0 0 1 4579 237.5)"  >
<g style=""   >
		<g transform="matrix(1 0 0 1 0 0)"  >
<g style=""   >
		<g transform="matrix(1 0 0 1 -690.512 -34.9497)"  >
<path style="stroke: none; stroke-width: 1; stroke-dasharray: none; stroke-linecap: butt; stroke-dashoffset: 0; stroke-linejoin: miter; stroke-miterlimit: 4; fill: rgb(255,255,255); fill-rule: nonzero; opacity: 1;"  transform=" translate(-165.235, -189.55)" d="M 293.75 66.66 L 289.16 69.41 Q 286.87 71.94 284.8 73.77 Q 282.73 75.61 280.9 76.76 L 276.31 81.35 L 273.55 82.26 Q 269.19 87.77 264.38 89.61 Q 260.01 95.57 253.36 98.79 Q 250.61 102.46 247.85 104.29 Q 215.26 61.38 167.99 61.38 Q 162.94 61.38 156.97 62.07 Q 114.75 63.45 102.81 98.79 Q 102.81 123.11 117.5 139.18 L 123.93 142.85 L 126.68 143.77 L 136.78 148.36 L 141.37 148.36 L 145.04 149.28 L 149.63 150.19 Q 154.91 152.26 158.81 152.95 L 166.15 154.78 L 168.91 154.78 L 199.2 162.13 L 201.95 162.13 L 204.71 163.04 L 207.46 163.04 L 210.21 163.96 L 223.07 166.72 L 225.82 167.63 L 229.49 168.55 L 236.84 171.31 Q 248.54 174.29 256.11 178.65 L 257.95 180.49 L 260.7 181.4 L 262.54 184.16 Q 265.98 185.99 268.05 187.83 Q 269.65 188.75 269.88 189.67 L 280.9 199.76 Q 300.18 228.22 300.18 257.83 Q 300.18 273.43 294.67 289.72 Q 279.52 341.36 235.92 361.33 Q 230.18 365 224.9 366.83 Q 211.13 369.59 198.28 370.85 Q 185.43 372.11 173.04 372.11 Q 86.52 372.11 30.29 305.33 L 31.21 303.49 L 33.05 302.58 Q 33.96 301.66 34.65 301.66 L 34.88 301.66 Q 39.93 295.69 45.9 292.48 L 48.65 289.72 L 59.67 280.54 L 61.5 279.63 Q 62.42 278.71 63.11 278.71 L 63.34 278.71 Q 67.01 274.81 70.45 271.71 Q 73.9 268.61 77.11 266.78 L 79.86 266.78 Q 118.88 317.72 168.22 317.72 Q 194.15 317.72 222.15 304.41 Q 227.43 298.45 232.25 295.23 L 233.16 292.48 Q 238.44 285.13 240.51 277.79 Q 240.74 276.18 240.74 274.81 Q 240.74 273.43 240.74 272.05 Q 240.74 245.66 220.31 230.97 L 217.56 230.06 Q 212.51 227.99 208.38 227.3 L 206.54 225.47 L 203.79 225.47 L 200.12 224.55 L 198.28 223.63 L 195.53 223.63 L 193.69 222.71 Q 184.74 221.34 179 219.04 L 176.25 219.04 L 168.91 217.21 L 166.15 217.21 L 162.48 216.29 L 160.64 215.37 Q 151.69 213.99 145.96 211.7 Q 54.16 201.14 44.06 117.15 Q 46.13 17.32 153.3 7.91 Q 158.58 7.45 163.63 7.22 Q 168.68 6.99 173.5 6.99 Q 252.9 6.99 293.75 66.66" stroke-linecap="round" />
</g>
		<g transform="matrix(1 0 0 1 -374.6342 -32.5421)"  >
<path style="stroke: none; stroke-width: 1; stroke-dasharray: none; stroke-linecap: butt; stroke-dashoffset: 0; stroke-linejoin: miter; stroke-miterlimit: 4; fill: rgb(255,255,255); fill-rule: nonzero; opacity: 1;"  transform=" translate(-138.615, -191.96)" d="M 35.8 366.83 L 35.8 17.09 L 91.8 17.09 L 91.8 136.42 Q 121.86 109.34 156.74 109.34 Q 161.79 109.34 166.96 109.92 Q 172.12 110.49 177.17 111.64 Q 225.13 123.8 239.59 166.72 L 240.51 173.14 Q 241.43 175.67 241.43 178.65 L 241.43 366.83 L 185.43 366.83 L 185.43 203.44 L 183.59 196.09 L 183.59 193.34 L 180.84 186.91 Q 177.17 181.4 176.25 177.73 Q 164.09 166.95 151.46 163.04 Q 112.22 163.73 95.47 197.01 L 95.47 199.76 Q 94.32 202.98 93.29 205.62 Q 92.26 208.25 91.8 210.78 L 91.8 366.83" stroke-linecap="round" />
</g>
		<g transform="matrix(1 0 0 1 -100.6027 17.8303)"  >
<path style="stroke: none; stroke-width: 1; stroke-dasharray: none; stroke-linecap: butt; stroke-dashoffset: 0; stroke-linejoin: miter; stroke-miterlimit: 4; fill: rgb(255,255,255); fill-rule: nonzero; opacity: 1;"  transform=" translate(-132.65, -242.335)" d="M 202.87 137.34 L 205.63 142.85 Q 216.41 156.16 219.39 170.39 Q 220.31 176.36 220.77 181.52 Q 221.23 186.68 221.23 190.58 L 221.23 311.76 Q 229.72 328.51 246.02 331.95 L 244.18 334.71 Q 243.26 336.31 242.34 336.54 L 241.43 339.29 L 239.59 341.13 Q 237.29 346.18 234.08 349.39 Q 230.87 357.88 225.82 362.24 Q 223.75 366.83 221.92 370.16 Q 220.08 373.49 218.48 376.01 Q 191.63 369.13 176.25 351.23 L 173.5 351.23 Q 143.89 372.57 112.45 372.57 Q 95.47 372.57 78.95 366.83 Q 29.6 349.16 19.28 302.58 L 19.28 301.43 Q 19.28 212.62 123.24 212.62 L 123.93 212.62 Q 125.99 211.7 128.52 211.7 L 131.27 210.78 L 137.7 210.78 L 140.45 209.86 L 143.2 209.86 L 166.15 207.11 Q 166.61 204.58 166.61 202.52 L 166.61 197.93 Q 166.61 159.6 125.99 159.6 Q 97.76 159.6 48.65 178.65 L 44.98 170.39 L 43.14 164.88 L 41.31 163.04 L 40.39 161.21 L 38.55 155.7 Q 36.03 151.57 34.88 147.44 Q 30.06 141.01 28.46 134.59 L 31.21 133.67 L 33.05 132.75 L 35.8 131.83 L 37.64 130 L 40.39 130 Q 41.31 129.08 42 129.08 L 42.23 129.08 Q 50.49 124.72 56.91 122.65 L 61.5 121.74 Q 66.55 119.44 70.68 118.98 L 78.03 117.15 Q 86.06 113.93 93.63 113.47 L 113.83 109.8 Q 118.42 109.34 122.66 109 Q 126.91 108.66 131.04 108.66 Q 174.87 108.66 202.87 137.34 M 144.12 253.92 L 138.61 253.92 Q 136.55 254.38 134.6 254.61 Q 132.65 254.84 130.81 254.84 L 129.43 254.84 L 125.76 255.76 L 123.01 255.76 Q 121.86 256.68 120.25 256.68 L 117.5 256.68 L 102.81 260.35 L 100.06 260.35 Q 93.63 264.02 89.04 264.94 Q 74.13 279.17 74.13 292.48 Q 74.13 304.64 86.29 316.35 Q 103.96 327.13 120.71 327.13 Q 142.06 327.13 161.56 309.92 Q 163.4 304.64 165.23 302.58 L 166.15 299.82 L 165.23 296.15 L 165.23 253.01 L 146.88 253.01 Q 145.73 253.92 144.12 253.92" stroke-linecap="round" />
</g>
		<g transform="matrix(1 0 0 1 44.25 Infinity)"  >
<path style="stroke: none; stroke-width: 1; stroke-dasharray: none; stroke-linecap: butt; stroke-dashoffset: 0; stroke-linejoin: miter; stroke-miterlimit: 4; fill: rgb(255,255,255); fill-rule: nonzero; opacity: 1;"  transform=" translate(0, 0)" d="" stroke-linecap="round" />
</g>
		<g transform="matrix(1 0 0 1 306.0277 -34.371)"  >
<path style="stroke: none; stroke-width: 1; stroke-dasharray: none; stroke-linecap: butt; stroke-dashoffset: 0; stroke-linejoin: miter; stroke-miterlimit: 4; fill: rgb(255,255,255); fill-rule: nonzero; opacity: 1;"  transform=" translate(-136.78, -190.125)" d="M 10.1 69.41 L 10.1 14.33 L 263.46 14.33 L 263.46 69.41 L 167.07 69.41 L 167.07 365.92 L 106.48 365.92 L 106.48 69.41" stroke-linecap="round" />
</g>
		<g transform="matrix(1 0 0 1 502.2196 -32.5421)"  >
<path style="stroke: none; stroke-width: 1; stroke-dasharray: none; stroke-linecap: butt; stroke-dashoffset: 0; stroke-linejoin: miter; stroke-miterlimit: 4; fill: rgb(255,255,255); fill-rule: nonzero; opacity: 1;"  transform=" translate(-60.47, -191.96)" d="M 32.13 366.83 L 32.13 116.23 L 88.13 116.23 L 88.13 366.83 L 32.13 366.83 M 93.63 42.79 L 93.63 45.77 Q 93.63 64.82 81.7 76.76 Q 69.08 82.95 58.52 82.95 Q 40.16 82.95 29.38 62.99 Q 27.31 54.95 27.31 48.76 Q 27.31 25.35 53.24 17.09 L 55.54 17.09 Q 84.68 17.09 93.63 42.79" stroke-linecap="round" />
</g>
		<g transform="matrix(1 0 0 1 715.3658 11.9818)"  >
<path style="stroke: none; stroke-width: 1; stroke-dasharray: none; stroke-linecap: butt; stroke-dashoffset: 0; stroke-linejoin: miter; stroke-miterlimit: 4; fill: rgb(255,255,255); fill-rule: nonzero; opacity: 1;"  transform=" translate(-138.615, -236.485)" d="M 237.75 159.37 L 237.75 162.13 Q 240.74 167.63 241.43 173.14 L 241.43 365 L 185.43 365 L 185.43 202.52 L 184.51 197.01 Q 173.04 162.36 145.96 162.36 Q 137.7 162.36 127.6 165.8 Q 104.65 175.67 94.55 197.01 L 90.88 212.62 L 90.88 365 L 35.8 365 L 35.8 114.39 L 90.88 114.39 L 90.88 135.51 Q 116.58 112.56 146.88 107.97 L 151.01 107.97 Q 212.51 107.97 237.75 159.37" stroke-linecap="round" />
</g>
		<g transform="matrix(1 0 0 1 -685 0)"  >
<rect style="stroke: rgb(0,0,0); stroke-opacity: 0; stroke-width: 2; stroke-dasharray: 25 25; stroke-linecap: butt; stroke-dashoffset: 0; stroke-linejoin: miter; stroke-miterlimit: 4; fill: rgb(0,0,0); fill-opacity: 0; fill-rule: nonzero; opacity: 1;"  x="-170.25" y="-249" rx="0" ry="0" width="340.5" height="498" />
</g>
		<g transform="matrix(1 0 0 1 -373.75 0)"  >
<rect style="stroke: rgb(0,0,0); stroke-opacity: 0; stroke-width: 2; stroke-dasharray: 25 25; stroke-linecap: butt; stroke-dashoffset: 0; stroke-linejoin: miter; stroke-miterlimit: 4; fill: rgb(0,0,0); fill-opacity: 0; fill-rule: nonzero; opacity: 1;"  x="-139" y="-249" rx="0" ry="0" width="278" height="498" />
</g>
		<g transform="matrix(1 0 0 1 -95 0)"  >
<rect style="stroke: rgb(0,0,0); stroke-opacity: 0; stroke-width: 2; stroke-dasharray: 25 25; stroke-linecap: butt; stroke-dashoffset: 0; stroke-linejoin: miter; stroke-miterlimit: 4; fill: rgb(0,0,0); fill-opacity: 0; fill-rule: nonzero; opacity: 1;"  x="-137.75" y="-249" rx="0" ry="0" width="275.5" height="498" />
</g>
		<g transform="matrix(1 0 0 1 106.25 0)"  >
<rect style="stroke: rgb(0,0,0); stroke-opacity: 0; stroke-width: 2; stroke-dasharray: 25 25; stroke-linecap: butt; stroke-dashoffset: 0; stroke-linejoin: miter; stroke-miterlimit: 4; fill: rgb(0,0,0); fill-opacity: 0; fill-rule: nonzero; opacity: 1;"  x="-61.5" y="-249" rx="0" ry="0" width="123" height="498" />
</g>
		<g transform="matrix(1 0 0 1 305 0)"  >
<rect style="stroke: rgb(0,0,0); stroke-opacity: 0; stroke-width: 2; stroke-dasharray: 25 25; stroke-linecap: butt; stroke-dashoffset: 0; stroke-linejoin: miter; stroke-miterlimit: 4; fill: rgb(0,0,0); fill-opacity: 0; fill-rule: nonzero; opacity: 1;"  x="-135.25" y="-249" rx="0" ry="0" width="270.5" height="498" />
</g>
		<g transform="matrix(1 0 0 1 508.75 0)"  >
<rect style="stroke: rgb(0,0,0); stroke-opacity: 0; stroke-width: 2; stroke-dasharray: 25 25; stroke-linecap: butt; stroke-dashoffset: 0; stroke-linejoin: miter; stroke-miterlimit: 4; fill: rgb(0,0,0); fill-opacity: 0; fill-rule: nonzero; opacity: 1;"  x="-66.5" y="-249" rx="0" ry="0" width="133" height="498" />
</g>
		<g transform="matrix(1 0 0 1 716.25 0)"  >
<rect style="stroke: rgb(0,0,0); stroke-opacity: 0; stroke-width: 2; stroke-dasharray: 25 25; stroke-linecap: butt; stroke-dashoffset: 0; stroke-linejoin: miter; stroke-miterlimit: 4; fill: rgb(0,0,0); fill-opacity: 0; fill-rule: nonzero; opacity: 1;"  x="-139" y="-249" rx="0" ry="0" width="278" height="498" />
</g>
</g>
</g>
</g>
</g>
<g transform="matrix(1 0 0 1 -819.875 -1025)"  >
<g style=""   >
		<g transform="matrix(1 0 0 1 0 0)"  >
<g style=""   >
		<g transform="matrix(1 0 0 1 0 0)"  >
<g style=""   >
		<g transform="matrix(1 0 0 1 -95.8344 -125)"  >
<path style="stroke: none; stroke-width: 1; stroke-dasharray: none; stroke-linecap: butt; stroke-dashoffset: 0; stroke-linejoin: miter; stroke-miterlimit: 4; fill: rgb(255,255,255); fill-rule: nonzero; opacity: 1;"  transform=" translate(-404.1656, -375)" d="M 375 312.5 L 433.3313 312.5 L 433.3313 333.3313 L 395.8313 333.3313 L 395.8313 364.5813 L 425 364.5813 L 425 385.4187 L 395.8313 385.4187 L 395.8313 416.6687 L 433.3313 416.6687 L 433.3313 437.5 L 375 437.5 Z" stroke-linecap="round" />
</g>
		<g transform="matrix(1 0 0 1 -18.75 -125)"  >
<path style="stroke: none; stroke-width: 1; stroke-dasharray: none; stroke-linecap: butt; stroke-dashoffset: 0; stroke-linejoin: miter; stroke-miterlimit: 4; fill: rgb(255,255,255); fill-rule: nonzero; opacity: 1;"  transform=" translate(-481.25, -375)" d="M 450 312.5 L 472.0688 312.5 L 481.25 338.7312 L 490.425 312.5 L 512.5 312.5 L 490.625 375 L 512.5 437.5 L 490.425 437.5 L 481.25 411.3 L 472.0688 437.5 L 450 437.5 L 471.875 375 Z" stroke-linecap="round" />
</g>
		<g transform="matrix(1 0 0 1 41.9688 -125)"  >
<path style="stroke: none; stroke-width: 1; stroke-dasharray: none; stroke-linecap: butt; stroke-dashoffset: 0; stroke-linejoin: miter; stroke-miterlimit: 4; fill: rgb(255,255,255); fill-rule: nonzero; opacity: 1;"  transform=" translate(-541.9688, -375)" d="M 533.9375 312.5 L 550 312.5 L 550 437.5 L 533.9375 437.5 Z" stroke-linecap="round" />
</g>
		<g transform="matrix(1 0 0 1 95.8344 -125)"  >
<path style="stroke: none; stroke-width: 1; stroke-dasharray: none; stroke-linecap: butt; stroke-dashoffset: 0; stroke-linejoin: miter; stroke-miterlimit: 4; fill: rgb(255,255,255); fill-rule: nonzero; opacity: 1;"  transform=" translate(-595.8344, -375)" d="M 566.6688 312.5 L 625 312.5 L 625 333.3313 L 606.25 333.3313 L 606.25 437.5 L 585.4188 437.5 L 585.4188 333.3313 L 566.6688 333.3313 Z" stroke-linecap="round" />
</g>
		<g transform="matrix(1 0 0 1 0 87.5)"  >
<path style="stroke: none; stroke-width: 1; stroke-dasharray: none; stroke-linecap: butt; stroke-dashoffset: 0; stroke-linejoin: miter; stroke-miterlimit: 4; fill: rgb(255,255,255); fill-rule: nonzero; opacity: 1;"  transform=" translate(-500, -587.5)" d="M 525 487.5 L 525 545.8312 L 583.3312 545.8312 L 583.3312 512.5 L 616.6688 512.5 L 616.6688 579.1688 L 525 579.1688 L 525 637.5 L 591.6688 637.5 L 591.6688 604.1688 L 625 604.1688 L 625 687.5 L 591.6688 687.5 L 591.6688 670.8312 L 408.3313 670.8312 L 408.3313 687.5 L 375 687.5 L 375 604.1688 L 408.3313 604.1688 L 408.3313 637.5 L 475 637.5 L 475 579.1688 L 383.3313 579.1688 L 383.3313 512.5 L 416.6687 512.5 L 416.6687 545.8312 L 475 545.8312 L 475 487.5 Z" stroke-linecap="round" />
</g>
</g>
</g>
</g>
</g>
</g>
</g>
</svg>