<svg width="96" height="187" viewBox="0 0 96 187" fill="none" xmlns="http://www.w3.org/2000/svg">
<path d="M40.4994 1L47.9993 8.49577V30.9831V63.4647H40.4994H32.9995V30.9831V8.49577L40.4994 1Z" fill="white"/>
<path d="M3 38.4789L7.99992 33.4817H30.4995C31.8802 33.4817 32.9995 32.363 32.9995 30.9831V45.9746C32.9995 44.5947 31.8802 43.476 30.4995 43.476H7.99992L3 38.4789Z" fill="white"/>
<path d="M61 1L53 1" stroke="#D50032" stroke-width="0.5"/>
<path d="M61 33L53 33" stroke="#D50032" stroke-width="0.5"/>
<path d="M57 33L55.75 31L58.25 31L57 33Z" fill="#D50032"/>
<path d="M57 1L55.75 3L58.25 3L57 1Z" fill="#D50032"/>
<path d="M57 3L57 31" stroke="#D50032" stroke-width="0.5"/>
<rect x="61" y="12" width="17" height="8" rx="1" fill="#D50032"/>
<path d="M65.3018 16.1309H63.5498V17.335H65.5977V18H62.7236V13.7344H65.5889V14.4053H63.5498V15.4805H65.3018V16.1309ZM67.7598 15.8203L68.457 14.8301H69.333L68.2695 16.3857L69.3711 18H68.4922L67.7627 16.9629L67.0391 18H66.1572L67.2588 16.3857L66.1982 14.8301H67.0742L67.7598 15.8203ZM70.1299 14.8301H71.8555V17.3379H72.7139V18H70.1299V17.3379H71.0322V15.4951H70.1299V14.8301ZM70.9736 14.0186C70.9736 13.9561 70.9844 13.8984 71.0059 13.8457C71.0293 13.791 71.0615 13.7441 71.1025 13.7051C71.1436 13.668 71.1924 13.6387 71.249 13.6172C71.3076 13.5957 71.3721 13.585 71.4424 13.585C71.5869 13.585 71.7012 13.626 71.7852 13.708C71.8711 13.7881 71.9141 13.8916 71.9141 14.0186C71.9141 14.1455 71.8711 14.25 71.7852 14.332C71.7012 14.4121 71.5869 14.4521 71.4424 14.4521C71.3721 14.4521 71.3076 14.4414 71.249 14.4199C71.1924 14.3984 71.1436 14.3682 71.1025 14.3291C71.0615 14.292 71.0293 14.2471 71.0059 14.1943C70.9844 14.1396 70.9736 14.0811 70.9736 14.0186ZM75.0107 14.0537V14.8301H76.1943V15.4307H75.0107V16.793C75.0107 16.9082 75.0234 17.0049 75.0488 17.083C75.0762 17.1592 75.1143 17.2197 75.1631 17.2646C75.2119 17.3115 75.2705 17.3447 75.3389 17.3643C75.4092 17.3838 75.4873 17.3936 75.5732 17.3936C75.6357 17.3936 75.6992 17.3906 75.7637 17.3848C75.8301 17.3789 75.8936 17.3711 75.9541 17.3613C76.0127 17.3535 76.0674 17.3447 76.1182 17.335C76.1709 17.3252 76.2158 17.3154 76.2529 17.3057L76.332 17.8652C76.2754 17.8984 76.209 17.9277 76.1328 17.9531C76.0566 17.9766 75.9756 17.9961 75.8896 18.0117C75.8037 18.0273 75.7139 18.0391 75.6201 18.0469C75.5283 18.0566 75.4375 18.0615 75.3477 18.0615C75.1738 18.0615 75.0156 18.0391 74.873 17.9941C74.7324 17.9473 74.6123 17.875 74.5127 17.7773C74.4111 17.6816 74.333 17.5596 74.2783 17.4111C74.2236 17.2607 74.1963 17.0811 74.1963 16.8721V15.4307H73.4727V14.8301H74.1963V14.0537H75.0107Z" fill="white"/>
<path d="M61 44L53 44" stroke="#D50032" stroke-width="0.5"/>
<path d="M61 63L53 63" stroke="#D50032" stroke-width="0.5"/>
<path d="M57 63L55.75 61L58.25 61L57 63Z" fill="#D50032"/>
<path d="M57 44L55.75 46L58.25 46L57 44Z" fill="#D50032"/>
<path d="M57 46L57 61" stroke="#D50032" stroke-width="0.5"/>
<rect x="61" y="49" width="31" height="8" rx="1" fill="#D50032"/>
<path d="M64.5674 54.1094H63.2871L63.0352 55H62.168L63.5654 50.7344H64.3125L65.6836 55H64.8164L64.5674 54.1094ZM63.4893 53.4092H64.374L63.9375 51.8389L63.4893 53.4092ZM66.1143 56.2188V51.8301H66.8672L66.8965 52.1406C66.9395 52.0879 66.9863 52.041 67.0371 52C67.0879 51.957 67.1426 51.9199 67.2012 51.8887C67.2715 51.8516 67.3486 51.8232 67.4326 51.8037C67.5186 51.7822 67.6104 51.7715 67.708 51.7715C67.9092 51.7715 68.0869 51.8105 68.2412 51.8887C68.3955 51.9648 68.5254 52.0732 68.6309 52.2139C68.7363 52.3564 68.8154 52.5273 68.8682 52.7266C68.9229 52.9238 68.9502 53.1426 68.9502 53.3828V53.4443C68.9502 53.6748 68.9229 53.8887 68.8682 54.0859C68.8154 54.2832 68.7373 54.4531 68.6338 54.5957C68.5283 54.7402 68.3984 54.8535 68.2441 54.9355C68.0898 55.0176 67.9131 55.0586 67.7139 55.0586C67.6084 55.0586 67.5107 55.0469 67.4209 55.0234C67.333 55.002 67.251 54.9697 67.1748 54.9268C67.1299 54.8994 67.0869 54.8691 67.0459 54.8359C67.0049 54.8027 66.9658 54.7656 66.9287 54.7246V56.2188H66.1143ZM68.1357 53.3828C68.1357 53.25 68.123 53.126 68.0977 53.0107C68.0742 52.8936 68.0371 52.792 67.9863 52.7061C67.9336 52.6221 67.8662 52.5557 67.7842 52.5068C67.7041 52.458 67.6064 52.4336 67.4912 52.4336C67.4248 52.4336 67.3643 52.4404 67.3096 52.4541C67.2549 52.4658 67.2051 52.4834 67.1602 52.5068C67.1094 52.5342 67.0645 52.5684 67.0254 52.6094C66.9883 52.6504 66.9561 52.6982 66.9287 52.7529V54.0771C66.9541 54.1279 66.9844 54.1738 67.0195 54.2148C67.0566 54.2559 67.0986 54.291 67.1455 54.3203C67.1904 54.3477 67.2422 54.3691 67.3008 54.3848C67.3594 54.3984 67.4248 54.4053 67.4971 54.4053C67.6123 54.4053 67.71 54.3799 67.79 54.3291C67.8721 54.2783 67.9385 54.209 67.9893 54.1211C68.04 54.0332 68.0771 53.9316 68.1006 53.8164C68.124 53.6992 68.1357 53.5752 68.1357 53.4443V53.3828ZM69.7178 56.2188V51.8301H70.4707L70.5 52.1406C70.543 52.0879 70.5898 52.041 70.6406 52C70.6914 51.957 70.7461 51.9199 70.8047 51.8887C70.875 51.8516 70.9521 51.8232 71.0361 51.8037C71.1221 51.7822 71.2139 51.7715 71.3115 51.7715C71.5127 51.7715 71.6904 51.8105 71.8447 51.8887C71.999 51.9648 72.1289 52.0732 72.2344 52.2139C72.3398 52.3564 72.4189 52.5273 72.4717 52.7266C72.5264 52.9238 72.5537 53.1426 72.5537 53.3828V53.4443C72.5537 53.6748 72.5264 53.8887 72.4717 54.0859C72.4189 54.2832 72.3408 54.4531 72.2373 54.5957C72.1318 54.7402 72.002 54.8535 71.8477 54.9355C71.6934 55.0176 71.5166 55.0586 71.3174 55.0586C71.2119 55.0586 71.1143 55.0469 71.0244 55.0234C70.9365 55.002 70.8545 54.9697 70.7783 54.9268C70.7334 54.8994 70.6904 54.8691 70.6494 54.8359C70.6084 54.8027 70.5693 54.7656 70.5322 54.7246V56.2188H69.7178ZM71.7393 53.3828C71.7393 53.25 71.7266 53.126 71.7012 53.0107C71.6777 52.8936 71.6406 52.792 71.5898 52.7061C71.5371 52.6221 71.4697 52.5557 71.3877 52.5068C71.3076 52.458 71.21 52.4336 71.0947 52.4336C71.0283 52.4336 70.9678 52.4404 70.9131 52.4541C70.8584 52.4658 70.8086 52.4834 70.7637 52.5068C70.7129 52.5342 70.668 52.5684 70.6289 52.6094C70.5918 52.6504 70.5596 52.6982 70.5322 52.7529V54.0771C70.5576 54.1279 70.5879 54.1738 70.623 54.2148C70.6602 54.2559 70.7021 54.291 70.749 54.3203C70.7939 54.3477 70.8457 54.3691 70.9043 54.3848C70.9629 54.3984 71.0283 54.4053 71.1006 54.4053C71.2158 54.4053 71.3135 54.3799 71.3936 54.3291C71.4756 54.2783 71.542 54.209 71.5928 54.1211C71.6436 54.0332 71.6807 53.9316 71.7041 53.8164C71.7275 53.6992 71.7393 53.5752 71.7393 53.4443V53.3828ZM75.5859 51.7715C75.709 51.7715 75.8223 51.7803 75.9258 51.7979C76.0312 51.8135 76.1162 51.8311 76.1807 51.8506L76.0605 52.6621C75.9531 52.6367 75.8428 52.6182 75.7295 52.6064C75.6182 52.5928 75.5117 52.5859 75.4102 52.5859C75.3047 52.5859 75.209 52.5957 75.123 52.6152C75.0391 52.6328 74.9639 52.6602 74.8975 52.6973C74.8174 52.7402 74.749 52.7949 74.6924 52.8613C74.6357 52.9277 74.5889 53.0059 74.5518 53.0957V55H73.7373V51.8301H74.4961L74.5283 52.2783L74.5342 52.3486C74.6631 52.1689 74.8174 52.0283 74.9971 51.9268C75.1768 51.8232 75.373 51.7715 75.5859 51.7715ZM76.8018 53.3857C76.8018 53.1553 76.835 52.9424 76.9014 52.7471C76.9678 52.5498 77.0654 52.3789 77.1943 52.2344C77.3213 52.0898 77.4766 51.9766 77.6602 51.8945C77.8457 51.8125 78.0576 51.7715 78.2959 51.7715C78.5342 51.7715 78.7461 51.8125 78.9316 51.8945C79.1172 51.9766 79.2744 52.0898 79.4033 52.2344C79.5303 52.3789 79.627 52.5498 79.6934 52.7471C79.7598 52.9424 79.793 53.1553 79.793 53.3857V53.4473C79.793 53.6797 79.7598 53.8945 79.6934 54.0918C79.627 54.2871 79.5303 54.457 79.4033 54.6016C79.2764 54.7461 79.1201 54.8594 78.9346 54.9414C78.749 55.0215 78.5381 55.0615 78.3018 55.0615C78.0635 55.0615 77.8506 55.0215 77.6631 54.9414C77.4775 54.8594 77.3213 54.7461 77.1943 54.6016C77.0654 54.457 76.9678 54.2871 76.9014 54.0918C76.835 53.8945 76.8018 53.6797 76.8018 53.4473V53.3857ZM77.6162 53.4473C77.6162 53.5801 77.6289 53.7051 77.6543 53.8223C77.6797 53.9375 77.7197 54.0381 77.7744 54.124C77.8291 54.2119 77.8994 54.2812 77.9854 54.332C78.0732 54.3828 78.1787 54.4082 78.3018 54.4082C78.4209 54.4082 78.5234 54.3828 78.6094 54.332C78.6953 54.2812 78.7656 54.2119 78.8203 54.124C78.873 54.0381 78.9121 53.9375 78.9375 53.8223C78.9629 53.7051 78.9756 53.5801 78.9756 53.4473V53.3857C78.9756 53.2568 78.9629 53.1348 78.9375 53.0195C78.9121 52.9043 78.873 52.8027 78.8203 52.7148C78.7656 52.627 78.6953 52.5576 78.6094 52.5068C78.5234 52.4561 78.4189 52.4307 78.2959 52.4307C78.1748 52.4307 78.0713 52.4561 77.9854 52.5068C77.8994 52.5576 77.8291 52.627 77.7744 52.7148C77.7197 52.8027 77.6797 52.9043 77.6543 53.0195C77.6289 53.1348 77.6162 53.2568 77.6162 53.3857V53.4473ZM82.4971 55C82.4775 54.9609 82.4609 54.916 82.4473 54.8652C82.4336 54.8145 82.4219 54.7607 82.4121 54.7041C82.3672 54.7529 82.3154 54.7988 82.2568 54.8418C82.1982 54.8848 82.1338 54.9219 82.0635 54.9531C81.9912 54.9863 81.9121 55.0117 81.8262 55.0293C81.7402 55.0488 81.6475 55.0586 81.5479 55.0586C81.3857 55.0586 81.2363 55.0352 81.0996 54.9883C80.9648 54.9414 80.8486 54.876 80.751 54.792C80.6533 54.708 80.5771 54.6084 80.5225 54.4932C80.4678 54.376 80.4404 54.249 80.4404 54.1123C80.4404 53.9365 80.4746 53.7812 80.543 53.6465C80.6113 53.5098 80.7139 53.3975 80.8506 53.3096C80.9736 53.2295 81.125 53.1689 81.3047 53.1279C81.4863 53.085 81.6943 53.0635 81.9287 53.0635H82.3828V52.876C82.3828 52.8018 82.3711 52.7354 82.3477 52.6768C82.3242 52.6162 82.2891 52.5645 82.2422 52.5215C82.1934 52.4766 82.1318 52.4424 82.0576 52.4189C81.9854 52.3936 81.9004 52.3809 81.8027 52.3809C81.7168 52.3809 81.6426 52.3916 81.5801 52.4131C81.5176 52.4326 81.4668 52.4609 81.4277 52.498C81.3926 52.5312 81.3662 52.5713 81.3486 52.6182C81.333 52.665 81.3252 52.7168 81.3252 52.7734H80.5107C80.5107 52.6387 80.54 52.5107 80.5986 52.3896C80.6592 52.2686 80.7471 52.1621 80.8623 52.0703C80.9756 51.9785 81.1143 51.9062 81.2783 51.8535C81.4443 51.7988 81.6338 51.7715 81.8467 51.7715C82.0381 51.7715 82.2158 51.7949 82.3799 51.8418C82.5459 51.8887 82.6895 51.958 82.8105 52.0498C82.9316 52.1416 83.0264 52.2578 83.0947 52.3984C83.1631 52.5371 83.1973 52.6982 83.1973 52.8818V54.2412C83.1973 54.4111 83.208 54.5518 83.2295 54.6631C83.251 54.7744 83.2822 54.8701 83.3232 54.9502V55H82.4971ZM81.7207 54.4287C81.8027 54.4287 81.8789 54.4189 81.9492 54.3994C82.0195 54.3799 82.083 54.3545 82.1396 54.3232C82.1963 54.292 82.2451 54.2568 82.2861 54.2178C82.3271 54.1768 82.3594 54.1357 82.3828 54.0947V53.5498H81.9668C81.8398 53.5498 81.7314 53.5625 81.6416 53.5879C81.5518 53.6113 81.4785 53.6445 81.4219 53.6875C81.3652 53.7324 81.3232 53.7861 81.2959 53.8486C81.2686 53.9092 81.2549 53.9756 81.2549 54.0479C81.2549 54.1045 81.2646 54.1572 81.2842 54.2061C81.3057 54.2529 81.3359 54.293 81.375 54.3262C81.4141 54.3574 81.4619 54.3828 81.5186 54.4023C81.5771 54.4199 81.6445 54.4287 81.7207 54.4287ZM85.5234 54.4082C85.6035 54.4082 85.6797 54.3965 85.752 54.373C85.8242 54.3496 85.8877 54.3164 85.9424 54.2734C85.9971 54.2305 86.0391 54.1787 86.0684 54.1182C86.0996 54.0576 86.1133 53.9902 86.1094 53.916H86.877C86.8809 54.0801 86.8467 54.2324 86.7744 54.373C86.7041 54.5137 86.6074 54.6348 86.4844 54.7363C86.3613 54.8379 86.2178 54.918 86.0537 54.9766C85.8916 55.0332 85.7197 55.0615 85.5381 55.0615C85.292 55.0615 85.0762 55.0205 84.8906 54.9385C84.7051 54.8545 84.5508 54.7402 84.4277 54.5957C84.3027 54.4512 84.208 54.2822 84.1436 54.0889C84.0811 53.8936 84.0498 53.6846 84.0498 53.4619V53.374C84.0498 53.1514 84.0811 52.9434 84.1436 52.75C84.2061 52.5547 84.2998 52.3848 84.4248 52.2402C84.5498 52.0957 84.7041 51.9814 84.8877 51.8975C85.0732 51.8135 85.2881 51.7715 85.5322 51.7715C85.7275 51.7715 85.9082 51.8008 86.0742 51.8594C86.2402 51.918 86.3838 52 86.5049 52.1055C86.624 52.2129 86.7168 52.3428 86.7832 52.4951C86.8496 52.6455 86.8809 52.8145 86.877 53.002H86.1094C86.1133 52.9238 86.1016 52.8496 86.0742 52.7793C86.0469 52.709 86.0068 52.6484 85.9541 52.5977C85.9014 52.5469 85.8379 52.5068 85.7637 52.4775C85.6895 52.4463 85.6084 52.4307 85.5205 52.4307C85.3916 52.4307 85.2852 52.457 85.2012 52.5098C85.1172 52.5625 85.0508 52.6328 85.002 52.7207C84.9512 52.8086 84.915 52.9092 84.8936 53.0225C84.874 53.1357 84.8643 53.2529 84.8643 53.374V53.4619C84.8643 53.585 84.874 53.7041 84.8936 53.8193C84.9131 53.9326 84.9482 54.0322 84.999 54.1182C85.0479 54.2061 85.1143 54.2764 85.1982 54.3291C85.2842 54.3818 85.3926 54.4082 85.5234 54.4082ZM88.5381 52.2666C88.5791 52.2061 88.624 52.1504 88.6729 52.0996C88.7236 52.0469 88.7764 52.001 88.8311 51.9619C88.915 51.9014 89.0078 51.8545 89.1094 51.8213C89.2109 51.7881 89.3184 51.7715 89.4316 51.7715C89.5977 51.7715 89.75 51.7969 89.8887 51.8477C90.0273 51.8965 90.1465 51.9736 90.2461 52.0791C90.3457 52.1846 90.4229 52.3203 90.4775 52.4863C90.5342 52.6504 90.5625 52.8486 90.5625 53.0811V55H89.748V53.0752C89.748 52.9619 89.7334 52.8643 89.7041 52.7822C89.6768 52.7002 89.6367 52.6338 89.584 52.583C89.5312 52.5322 89.4678 52.4951 89.3936 52.4717C89.3193 52.4463 89.2354 52.4336 89.1416 52.4336C89.0693 52.4336 89.002 52.4404 88.9395 52.4541C88.877 52.4678 88.8203 52.4883 88.7695 52.5156C88.7227 52.5391 88.6797 52.5674 88.6406 52.6006C88.6035 52.6338 88.5693 52.6709 88.5381 52.7119V55H87.7236V50.5H88.5381V52.2666Z" fill="white"/>
<path d="M33 63V71" stroke="#008B09" stroke-opacity="0.97" stroke-width="0.5"/>
<path d="M48 63V71" stroke="#008B09" stroke-opacity="0.97" stroke-width="0.5"/>
<path d="M48 67L46 68.25L46 65.75L48 67Z" fill="#008B09" fill-opacity="0.97"/>
<path d="M47.0566 67L46.5 67.3477V66.6514L47.0566 67Z" stroke="#008B09" stroke-opacity="0.97"/>
<path d="M33 67L35 68.25L35 65.75L33 67Z" fill="#008B09" fill-opacity="0.97"/>
<path d="M33.9434 67L34.5 67.3477V66.6514L33.9434 67Z" stroke="#008B09" stroke-opacity="0.97"/>
<path d="M35 67H46" stroke="#008B09" stroke-opacity="0.97" stroke-width="0.5"/>
<rect x="30.5" y="72" width="21" height="8" rx="1" fill="#008B09" fill-opacity="0.97"/>
<path d="M32.6533 78L32.0674 73.7344H32.8203L33.1045 76.1191L33.125 76.2861L33.1514 76.1104L33.4883 73.7344H34.0771L34.4346 76.1279L34.4609 76.3037L34.4814 76.125L34.7715 73.7344H35.5273L34.9355 78H34.1914L33.8193 75.6973L33.7871 75.4805L33.7549 75.6973L33.3975 78H32.6533ZM36.2246 74.8301H37.9502V77.3379H38.8086V78H36.2246V77.3379H37.127V75.4951H36.2246V74.8301ZM37.0684 74.0186C37.0684 73.9561 37.0791 73.8984 37.1006 73.8457C37.124 73.791 37.1562 73.7441 37.1973 73.7051C37.2383 73.668 37.2871 73.6387 37.3438 73.6172C37.4023 73.5957 37.4668 73.585 37.5371 73.585C37.6816 73.585 37.7959 73.626 37.8799 73.708C37.9658 73.7881 38.0088 73.8916 38.0088 74.0186C38.0088 74.1455 37.9658 74.25 37.8799 74.332C37.7959 74.4121 37.6816 74.4521 37.5371 74.4521C37.4668 74.4521 37.4023 74.4414 37.3438 74.4199C37.2871 74.3984 37.2383 74.3682 37.1973 74.3291C37.1562 74.292 37.124 74.2471 37.1006 74.1943C37.0791 74.1396 37.0684 74.0811 37.0684 74.0186ZM39.5264 76.3916C39.5264 76.1514 39.5537 75.9316 39.6084 75.7324C39.665 75.5332 39.7471 75.3623 39.8545 75.2197C39.9619 75.0771 40.0918 74.9668 40.2441 74.8887C40.3984 74.8105 40.5742 74.7715 40.7715 74.7715C40.9375 74.7715 41.083 74.8018 41.208 74.8623C41.335 74.9209 41.4473 75.0049 41.5449 75.1143V73.5H42.3623V78H41.627L41.5859 77.6689C41.4863 77.792 41.3691 77.8877 41.2344 77.9561C41.0996 78.0244 40.9434 78.0586 40.7656 78.0586C40.5723 78.0586 40.3984 78.0186 40.2441 77.9385C40.0918 77.8564 39.9629 77.7441 39.8574 77.6016C39.75 77.459 39.668 77.29 39.6113 77.0947C39.5547 76.8975 39.5264 76.6836 39.5264 76.4531V76.3916ZM40.3408 76.4531C40.3408 76.5859 40.3516 76.71 40.373 76.8252C40.3965 76.9385 40.4336 77.0371 40.4844 77.1211C40.5352 77.207 40.6006 77.2744 40.6807 77.3232C40.7607 77.3721 40.8584 77.3965 40.9736 77.3965C41.1143 77.3965 41.2305 77.3662 41.3223 77.3057C41.416 77.2451 41.4902 77.1621 41.5449 77.0566V75.7734C41.4902 75.666 41.417 75.583 41.3252 75.5244C41.2334 75.4639 41.1182 75.4336 40.9795 75.4336C40.8643 75.4336 40.7656 75.459 40.6836 75.5098C40.6035 75.5586 40.5381 75.626 40.4873 75.7119C40.4365 75.7998 40.3994 75.9023 40.376 76.0195C40.3525 76.1348 40.3408 76.2588 40.3408 76.3916V76.4531ZM44.709 74.0537V74.8301H45.8926V75.4307H44.709V76.793C44.709 76.9082 44.7217 77.0049 44.7471 77.083C44.7744 77.1592 44.8125 77.2197 44.8613 77.2646C44.9102 77.3115 44.9688 77.3447 45.0371 77.3643C45.1074 77.3838 45.1855 77.3936 45.2715 77.3936C45.334 77.3936 45.3975 77.3906 45.4619 77.3848C45.5283 77.3789 45.5918 77.3711 45.6523 77.3613C45.7109 77.3535 45.7656 77.3447 45.8164 77.335C45.8691 77.3252 45.9141 77.3154 45.9512 77.3057L46.0303 77.8652C45.9736 77.8984 45.9072 77.9277 45.8311 77.9531C45.7549 77.9766 45.6738 77.9961 45.5879 78.0117C45.502 78.0273 45.4121 78.0391 45.3184 78.0469C45.2266 78.0566 45.1357 78.0615 45.0459 78.0615C44.8721 78.0615 44.7139 78.0391 44.5713 77.9941C44.4307 77.9473 44.3105 77.875 44.2109 77.7773C44.1094 77.6816 44.0312 77.5596 43.9766 77.4111C43.9219 77.2607 43.8945 77.0811 43.8945 76.8721V75.4307H43.1709V74.8301H43.8945V74.0537H44.709ZM47.6328 75.2666C47.6738 75.2061 47.7188 75.1504 47.7676 75.0996C47.8184 75.0469 47.8711 75.001 47.9258 74.9619C48.0098 74.9014 48.1025 74.8545 48.2041 74.8213C48.3057 74.7881 48.4131 74.7715 48.5264 74.7715C48.6924 74.7715 48.8447 74.7969 48.9834 74.8477C49.1221 74.8965 49.2412 74.9736 49.3408 75.0791C49.4404 75.1846 49.5176 75.3203 49.5723 75.4863C49.6289 75.6504 49.6572 75.8486 49.6572 76.0811V78H48.8428V76.0752C48.8428 75.9619 48.8281 75.8643 48.7988 75.7822C48.7715 75.7002 48.7314 75.6338 48.6787 75.583C48.626 75.5322 48.5625 75.4951 48.4883 75.4717C48.4141 75.4463 48.3301 75.4336 48.2363 75.4336C48.1641 75.4336 48.0967 75.4404 48.0342 75.4541C47.9717 75.4678 47.915 75.4883 47.8643 75.5156C47.8174 75.5391 47.7744 75.5674 47.7354 75.6006C47.6982 75.6338 47.6641 75.6709 47.6328 75.7119V78H46.8184V73.5H47.6328V75.2666Z" fill="white"/>
<path d="M33 63V71" stroke="#008B09" stroke-opacity="0.97" stroke-width="0.5"/>
<path d="M48 63V71" stroke="#008B09" stroke-opacity="0.97" stroke-width="0.5"/>
<path d="M48 67L46 68.25L46 65.75L48 67Z" fill="#008B09" fill-opacity="0.97"/>
<path d="M47.0566 67L46.5 67.3477V66.6514L47.0566 67Z" stroke="#008B09" stroke-opacity="0.97"/>
<path d="M33 67L35 68.25L35 65.75L33 67Z" fill="#008B09" fill-opacity="0.97"/>
<path d="M33.9434 67L34.5 67.3477V66.6514L33.9434 67Z" stroke="#008B09" stroke-opacity="0.97"/>
<path d="M35 67H46" stroke="#008B09" stroke-opacity="0.97" stroke-width="0.5"/>
<rect x="30.5" y="72" width="21" height="8" rx="1" fill="#008B09" fill-opacity="0.97"/>
<path d="M32.6533 78L32.0674 73.7344H32.8203L33.1045 76.1191L33.125 76.2861L33.1514 76.1104L33.4883 73.7344H34.0771L34.4346 76.1279L34.4609 76.3037L34.4814 76.125L34.7715 73.7344H35.5273L34.9355 78H34.1914L33.8193 75.6973L33.7871 75.4805L33.7549 75.6973L33.3975 78H32.6533ZM36.2246 74.8301H37.9502V77.3379H38.8086V78H36.2246V77.3379H37.127V75.4951H36.2246V74.8301ZM37.0684 74.0186C37.0684 73.9561 37.0791 73.8984 37.1006 73.8457C37.124 73.791 37.1562 73.7441 37.1973 73.7051C37.2383 73.668 37.2871 73.6387 37.3438 73.6172C37.4023 73.5957 37.4668 73.585 37.5371 73.585C37.6816 73.585 37.7959 73.626 37.8799 73.708C37.9658 73.7881 38.0088 73.8916 38.0088 74.0186C38.0088 74.1455 37.9658 74.25 37.8799 74.332C37.7959 74.4121 37.6816 74.4521 37.5371 74.4521C37.4668 74.4521 37.4023 74.4414 37.3438 74.4199C37.2871 74.3984 37.2383 74.3682 37.1973 74.3291C37.1562 74.292 37.124 74.2471 37.1006 74.1943C37.0791 74.1396 37.0684 74.0811 37.0684 74.0186ZM39.5264 76.3916C39.5264 76.1514 39.5537 75.9316 39.6084 75.7324C39.665 75.5332 39.7471 75.3623 39.8545 75.2197C39.9619 75.0771 40.0918 74.9668 40.2441 74.8887C40.3984 74.8105 40.5742 74.7715 40.7715 74.7715C40.9375 74.7715 41.083 74.8018 41.208 74.8623C41.335 74.9209 41.4473 75.0049 41.5449 75.1143V73.5H42.3623V78H41.627L41.5859 77.6689C41.4863 77.792 41.3691 77.8877 41.2344 77.9561C41.0996 78.0244 40.9434 78.0586 40.7656 78.0586C40.5723 78.0586 40.3984 78.0186 40.2441 77.9385C40.0918 77.8564 39.9629 77.7441 39.8574 77.6016C39.75 77.459 39.668 77.29 39.6113 77.0947C39.5547 76.8975 39.5264 76.6836 39.5264 76.4531V76.3916ZM40.3408 76.4531C40.3408 76.5859 40.3516 76.71 40.373 76.8252C40.3965 76.9385 40.4336 77.0371 40.4844 77.1211C40.5352 77.207 40.6006 77.2744 40.6807 77.3232C40.7607 77.3721 40.8584 77.3965 40.9736 77.3965C41.1143 77.3965 41.2305 77.3662 41.3223 77.3057C41.416 77.2451 41.4902 77.1621 41.5449 77.0566V75.7734C41.4902 75.666 41.417 75.583 41.3252 75.5244C41.2334 75.4639 41.1182 75.4336 40.9795 75.4336C40.8643 75.4336 40.7656 75.459 40.6836 75.5098C40.6035 75.5586 40.5381 75.626 40.4873 75.7119C40.4365 75.7998 40.3994 75.9023 40.376 76.0195C40.3525 76.1348 40.3408 76.2588 40.3408 76.3916V76.4531ZM44.709 74.0537V74.8301H45.8926V75.4307H44.709V76.793C44.709 76.9082 44.7217 77.0049 44.7471 77.083C44.7744 77.1592 44.8125 77.2197 44.8613 77.2646C44.9102 77.3115 44.9688 77.3447 45.0371 77.3643C45.1074 77.3838 45.1855 77.3936 45.2715 77.3936C45.334 77.3936 45.3975 77.3906 45.4619 77.3848C45.5283 77.3789 45.5918 77.3711 45.6523 77.3613C45.7109 77.3535 45.7656 77.3447 45.8164 77.335C45.8691 77.3252 45.9141 77.3154 45.9512 77.3057L46.0303 77.8652C45.9736 77.8984 45.9072 77.9277 45.8311 77.9531C45.7549 77.9766 45.6738 77.9961 45.5879 78.0117C45.502 78.0273 45.4121 78.0391 45.3184 78.0469C45.2266 78.0566 45.1357 78.0615 45.0459 78.0615C44.8721 78.0615 44.7139 78.0391 44.5713 77.9941C44.4307 77.9473 44.3105 77.875 44.2109 77.7773C44.1094 77.6816 44.0312 77.5596 43.9766 77.4111C43.9219 77.2607 43.8945 77.0811 43.8945 76.8721V75.4307H43.1709V74.8301H43.8945V74.0537H44.709ZM47.6328 75.2666C47.6738 75.2061 47.7188 75.1504 47.7676 75.0996C47.8184 75.0469 47.8711 75.001 47.9258 74.9619C48.0098 74.9014 48.1025 74.8545 48.2041 74.8213C48.3057 74.7881 48.4131 74.7715 48.5264 74.7715C48.6924 74.7715 48.8447 74.7969 48.9834 74.8477C49.1221 74.8965 49.2412 74.9736 49.3408 75.0791C49.4404 75.1846 49.5176 75.3203 49.5723 75.4863C49.6289 75.6504 49.6572 75.8486 49.6572 76.0811V78H48.8428V76.0752C48.8428 75.9619 48.8281 75.8643 48.7988 75.7822C48.7715 75.7002 48.7314 75.6338 48.6787 75.583C48.626 75.5322 48.5625 75.4951 48.4883 75.4717C48.4141 75.4463 48.3301 75.4336 48.2363 75.4336C48.1641 75.4336 48.0967 75.4404 48.0342 75.4541C47.9717 75.4678 47.915 75.4883 47.8643 75.5156C47.8174 75.5391 47.7744 75.5674 47.7354 75.6006C47.6982 75.6338 47.6641 75.6709 47.6328 75.7119V78H46.8184V73.5H47.6328V75.2666Z" fill="white"/>
<path d="M33 63V71" stroke="#008B09" stroke-opacity="0.97" stroke-width="0.5"/>
<path d="M48 63V71" stroke="#008B09" stroke-opacity="0.97" stroke-width="0.5"/>
<path d="M48 67L46 68.25L46 65.75L48 67Z" fill="#008B09" fill-opacity="0.97"/>
<path d="M47.0566 67L46.5 67.3477V66.6514L47.0566 67Z" stroke="#008B09" stroke-opacity="0.97"/>
<path d="M33 67L35 68.25L35 65.75L33 67Z" fill="#008B09" fill-opacity="0.97"/>
<path d="M33.9434 67L34.5 67.3477V66.6514L33.9434 67Z" stroke="#008B09" stroke-opacity="0.97"/>
<path d="M35 67H46" stroke="#008B09" stroke-opacity="0.97" stroke-width="0.5"/>
<rect x="30.5" y="72" width="21" height="8" rx="1" fill="#008B09" fill-opacity="0.97"/>
<path d="M32.6533 78L32.0674 73.7344H32.8203L33.1045 76.1191L33.125 76.2861L33.1514 76.1104L33.4883 73.7344H34.0771L34.4346 76.1279L34.4609 76.3037L34.4814 76.125L34.7715 73.7344H35.5273L34.9355 78H34.1914L33.8193 75.6973L33.7871 75.4805L33.7549 75.6973L33.3975 78H32.6533ZM36.2246 74.8301H37.9502V77.3379H38.8086V78H36.2246V77.3379H37.127V75.4951H36.2246V74.8301ZM37.0684 74.0186C37.0684 73.9561 37.0791 73.8984 37.1006 73.8457C37.124 73.791 37.1562 73.7441 37.1973 73.7051C37.2383 73.668 37.2871 73.6387 37.3438 73.6172C37.4023 73.5957 37.4668 73.585 37.5371 73.585C37.6816 73.585 37.7959 73.626 37.8799 73.708C37.9658 73.7881 38.0088 73.8916 38.0088 74.0186C38.0088 74.1455 37.9658 74.25 37.8799 74.332C37.7959 74.4121 37.6816 74.4521 37.5371 74.4521C37.4668 74.4521 37.4023 74.4414 37.3438 74.4199C37.2871 74.3984 37.2383 74.3682 37.1973 74.3291C37.1562 74.292 37.124 74.2471 37.1006 74.1943C37.0791 74.1396 37.0684 74.0811 37.0684 74.0186ZM39.5264 76.3916C39.5264 76.1514 39.5537 75.9316 39.6084 75.7324C39.665 75.5332 39.7471 75.3623 39.8545 75.2197C39.9619 75.0771 40.0918 74.9668 40.2441 74.8887C40.3984 74.8105 40.5742 74.7715 40.7715 74.7715C40.9375 74.7715 41.083 74.8018 41.208 74.8623C41.335 74.9209 41.4473 75.0049 41.5449 75.1143V73.5H42.3623V78H41.627L41.5859 77.6689C41.4863 77.792 41.3691 77.8877 41.2344 77.9561C41.0996 78.0244 40.9434 78.0586 40.7656 78.0586C40.5723 78.0586 40.3984 78.0186 40.2441 77.9385C40.0918 77.8564 39.9629 77.7441 39.8574 77.6016C39.75 77.459 39.668 77.29 39.6113 77.0947C39.5547 76.8975 39.5264 76.6836 39.5264 76.4531V76.3916ZM40.3408 76.4531C40.3408 76.5859 40.3516 76.71 40.373 76.8252C40.3965 76.9385 40.4336 77.0371 40.4844 77.1211C40.5352 77.207 40.6006 77.2744 40.6807 77.3232C40.7607 77.3721 40.8584 77.3965 40.9736 77.3965C41.1143 77.3965 41.2305 77.3662 41.3223 77.3057C41.416 77.2451 41.4902 77.1621 41.5449 77.0566V75.7734C41.4902 75.666 41.417 75.583 41.3252 75.5244C41.2334 75.4639 41.1182 75.4336 40.9795 75.4336C40.8643 75.4336 40.7656 75.459 40.6836 75.5098C40.6035 75.5586 40.5381 75.626 40.4873 75.7119C40.4365 75.7998 40.3994 75.9023 40.376 76.0195C40.3525 76.1348 40.3408 76.2588 40.3408 76.3916V76.4531ZM44.709 74.0537V74.8301H45.8926V75.4307H44.709V76.793C44.709 76.9082 44.7217 77.0049 44.7471 77.083C44.7744 77.1592 44.8125 77.2197 44.8613 77.2646C44.9102 77.3115 44.9688 77.3447 45.0371 77.3643C45.1074 77.3838 45.1855 77.3936 45.2715 77.3936C45.334 77.3936 45.3975 77.3906 45.4619 77.3848C45.5283 77.3789 45.5918 77.3711 45.6523 77.3613C45.7109 77.3535 45.7656 77.3447 45.8164 77.335C45.8691 77.3252 45.9141 77.3154 45.9512 77.3057L46.0303 77.8652C45.9736 77.8984 45.9072 77.9277 45.8311 77.9531C45.7549 77.9766 45.6738 77.9961 45.5879 78.0117C45.502 78.0273 45.4121 78.0391 45.3184 78.0469C45.2266 78.0566 45.1357 78.0615 45.0459 78.0615C44.8721 78.0615 44.7139 78.0391 44.5713 77.9941C44.4307 77.9473 44.3105 77.875 44.2109 77.7773C44.1094 77.6816 44.0312 77.5596 43.9766 77.4111C43.9219 77.2607 43.8945 77.0811 43.8945 76.8721V75.4307H43.1709V74.8301H43.8945V74.0537H44.709ZM47.6328 75.2666C47.6738 75.2061 47.7188 75.1504 47.7676 75.0996C47.8184 75.0469 47.8711 75.001 47.9258 74.9619C48.0098 74.9014 48.1025 74.8545 48.2041 74.8213C48.3057 74.7881 48.4131 74.7715 48.5264 74.7715C48.6924 74.7715 48.8447 74.7969 48.9834 74.8477C49.1221 74.8965 49.2412 74.9736 49.3408 75.0791C49.4404 75.1846 49.5176 75.3203 49.5723 75.4863C49.6289 75.6504 49.6572 75.8486 49.6572 76.0811V78H48.8428V76.0752C48.8428 75.9619 48.8281 75.8643 48.7988 75.7822C48.7715 75.7002 48.7314 75.6338 48.6787 75.583C48.626 75.5322 48.5625 75.4951 48.4883 75.4717C48.4141 75.4463 48.3301 75.4336 48.2363 75.4336C48.1641 75.4336 48.0967 75.4404 48.0342 75.4541C47.9717 75.4678 47.915 75.4883 47.8643 75.5156C47.8174 75.5391 47.7744 75.5674 47.7354 75.6006C47.6982 75.6338 47.6641 75.6709 47.6328 75.7119V78H46.8184V73.5H47.6328V75.2666Z" fill="white"/>
<path d="M4 119.433L14.5 116.933L42.904 132.988C46.6704 135.116 48.9993 139.108 48.9993 143.434V170.898H41.4994H33.9995V148.233C33.9995 146.809 33.2422 145.492 32.0111 144.776L6.5 129.933L4 119.433Z" fill="white"/>
<path d="M12.4246 105.023L8.42456 111.951" stroke="#D50032" stroke-width="0.5"/>
<path d="M41.7129 121.933L37.7129 128.861" stroke="#D50032" stroke-width="0.5"/>
<path d="M39.7128 125.397L37.2573 125.423L38.5073 123.258L39.7128 125.397Z" fill="#D50032"/>
<path d="M10.4244 108.487L11.6299 110.627L12.8799 108.462L10.4244 108.487Z" fill="#D50032"/>
<path d="M12.2549 109.544L37.8822 124.34" stroke="#D50032" stroke-width="0.5"/>
<path d="M62 150.933L54 150.933" stroke="#D50032" stroke-width="0.5"/>
<path d="M62 169.933L54 169.933" stroke="#D50032" stroke-width="0.5"/>
<path d="M58 169.933L56.75 167.933L59.25 167.933L58 169.933Z" fill="#D50032"/>
<path d="M58 150.933L56.75 152.933L59.25 152.933L58 150.933Z" fill="#D50032"/>
<path d="M58 152.933L58 167.933" stroke="#D50032" stroke-width="0.5"/>
<rect x="62" y="155.933" width="31" height="8" rx="1" fill="#D50032"/>
<path d="M65.5674 161.042H64.2871L64.0352 161.933H63.168L64.5654 157.667H65.3125L66.6836 161.933H65.8164L65.5674 161.042ZM64.4893 160.342H65.374L64.9375 158.772L64.4893 160.342ZM67.1143 163.152V158.763H67.8672L67.8965 159.073C67.9395 159.021 67.9863 158.974 68.0371 158.933C68.0879 158.89 68.1426 158.853 68.2012 158.821C68.2715 158.784 68.3486 158.756 68.4326 158.736C68.5186 158.715 68.6104 158.704 68.708 158.704C68.9092 158.704 69.0869 158.743 69.2412 158.821C69.3955 158.898 69.5254 159.006 69.6309 159.147C69.7363 159.289 69.8154 159.46 69.8682 159.659C69.9229 159.857 69.9502 160.075 69.9502 160.316V160.377C69.9502 160.608 69.9229 160.821 69.8682 161.019C69.8154 161.216 69.7373 161.386 69.6338 161.528C69.5283 161.673 69.3984 161.786 69.2441 161.868C69.0898 161.95 68.9131 161.991 68.7139 161.991C68.6084 161.991 68.5107 161.98 68.4209 161.956C68.333 161.935 68.251 161.902 68.1748 161.86C68.1299 161.832 68.0869 161.802 68.0459 161.769C68.0049 161.736 67.9658 161.698 67.9287 161.657V163.152H67.1143ZM69.1357 160.316C69.1357 160.183 69.123 160.059 69.0977 159.944C69.0742 159.826 69.0371 159.725 68.9863 159.639C68.9336 159.555 68.8662 159.488 68.7842 159.44C68.7041 159.391 68.6064 159.366 68.4912 159.366C68.4248 159.366 68.3643 159.373 68.3096 159.387C68.2549 159.399 68.2051 159.416 68.1602 159.44C68.1094 159.467 68.0645 159.501 68.0254 159.542C67.9883 159.583 67.9561 159.631 67.9287 159.686V161.01C67.9541 161.061 67.9844 161.107 68.0195 161.148C68.0566 161.189 68.0986 161.224 68.1455 161.253C68.1904 161.28 68.2422 161.302 68.3008 161.318C68.3594 161.331 68.4248 161.338 68.4971 161.338C68.6123 161.338 68.71 161.313 68.79 161.262C68.8721 161.211 68.9385 161.142 68.9893 161.054C69.04 160.966 69.0771 160.864 69.1006 160.749C69.124 160.632 69.1357 160.508 69.1357 160.377V160.316ZM70.7178 163.152V158.763H71.4707L71.5 159.073C71.543 159.021 71.5898 158.974 71.6406 158.933C71.6914 158.89 71.7461 158.853 71.8047 158.821C71.875 158.784 71.9521 158.756 72.0361 158.736C72.1221 158.715 72.2139 158.704 72.3115 158.704C72.5127 158.704 72.6904 158.743 72.8447 158.821C72.999 158.898 73.1289 159.006 73.2344 159.147C73.3398 159.289 73.4189 159.46 73.4717 159.659C73.5264 159.857 73.5537 160.075 73.5537 160.316V160.377C73.5537 160.608 73.5264 160.821 73.4717 161.019C73.4189 161.216 73.3408 161.386 73.2373 161.528C73.1318 161.673 73.002 161.786 72.8477 161.868C72.6934 161.95 72.5166 161.991 72.3174 161.991C72.2119 161.991 72.1143 161.98 72.0244 161.956C71.9365 161.935 71.8545 161.902 71.7783 161.86C71.7334 161.832 71.6904 161.802 71.6494 161.769C71.6084 161.736 71.5693 161.698 71.5322 161.657V163.152H70.7178ZM72.7393 160.316C72.7393 160.183 72.7266 160.059 72.7012 159.944C72.6777 159.826 72.6406 159.725 72.5898 159.639C72.5371 159.555 72.4697 159.488 72.3877 159.44C72.3076 159.391 72.21 159.366 72.0947 159.366C72.0283 159.366 71.9678 159.373 71.9131 159.387C71.8584 159.399 71.8086 159.416 71.7637 159.44C71.7129 159.467 71.668 159.501 71.6289 159.542C71.5918 159.583 71.5596 159.631 71.5322 159.686V161.01C71.5576 161.061 71.5879 161.107 71.623 161.148C71.6602 161.189 71.7021 161.224 71.749 161.253C71.7939 161.28 71.8457 161.302 71.9043 161.318C71.9629 161.331 72.0283 161.338 72.1006 161.338C72.2158 161.338 72.3135 161.313 72.3936 161.262C72.4756 161.211 72.542 161.142 72.5928 161.054C72.6436 160.966 72.6807 160.864 72.7041 160.749C72.7275 160.632 72.7393 160.508 72.7393 160.377V160.316ZM76.5859 158.704C76.709 158.704 76.8223 158.713 76.9258 158.731C77.0312 158.746 77.1162 158.764 77.1807 158.783L77.0605 159.595C76.9531 159.569 76.8428 159.551 76.7295 159.539C76.6182 159.526 76.5117 159.519 76.4102 159.519C76.3047 159.519 76.209 159.528 76.123 159.548C76.0391 159.566 75.9639 159.593 75.8975 159.63C75.8174 159.673 75.749 159.728 75.6924 159.794C75.6357 159.861 75.5889 159.939 75.5518 160.028V161.933H74.7373V158.763H75.4961L75.5283 159.211L75.5342 159.281C75.6631 159.102 75.8174 158.961 75.9971 158.86C76.1768 158.756 76.373 158.704 76.5859 158.704ZM77.8018 160.319C77.8018 160.088 77.835 159.875 77.9014 159.68C77.9678 159.483 78.0654 159.312 78.1943 159.167C78.3213 159.023 78.4766 158.909 78.6602 158.827C78.8457 158.745 79.0576 158.704 79.2959 158.704C79.5342 158.704 79.7461 158.745 79.9316 158.827C80.1172 158.909 80.2744 159.023 80.4033 159.167C80.5303 159.312 80.627 159.483 80.6934 159.68C80.7598 159.875 80.793 160.088 80.793 160.319V160.38C80.793 160.612 80.7598 160.827 80.6934 161.025C80.627 161.22 80.5303 161.39 80.4033 161.534C80.2764 161.679 80.1201 161.792 79.9346 161.874C79.749 161.954 79.5381 161.994 79.3018 161.994C79.0635 161.994 78.8506 161.954 78.6631 161.874C78.4775 161.792 78.3213 161.679 78.1943 161.534C78.0654 161.39 77.9678 161.22 77.9014 161.025C77.835 160.827 77.8018 160.612 77.8018 160.38V160.319ZM78.6162 160.38C78.6162 160.513 78.6289 160.638 78.6543 160.755C78.6797 160.87 78.7197 160.971 78.7744 161.057C78.8291 161.145 78.8994 161.214 78.9854 161.265C79.0732 161.316 79.1787 161.341 79.3018 161.341C79.4209 161.341 79.5234 161.316 79.6094 161.265C79.6953 161.214 79.7656 161.145 79.8203 161.057C79.873 160.971 79.9121 160.87 79.9375 160.755C79.9629 160.638 79.9756 160.513 79.9756 160.38V160.319C79.9756 160.19 79.9629 160.068 79.9375 159.952C79.9121 159.837 79.873 159.736 79.8203 159.648C79.7656 159.56 79.6953 159.49 79.6094 159.44C79.5234 159.389 79.4189 159.363 79.2959 159.363C79.1748 159.363 79.0713 159.389 78.9854 159.44C78.8994 159.49 78.8291 159.56 78.7744 159.648C78.7197 159.736 78.6797 159.837 78.6543 159.952C78.6289 160.068 78.6162 160.19 78.6162 160.319V160.38ZM83.4971 161.933C83.4775 161.894 83.4609 161.849 83.4473 161.798C83.4336 161.747 83.4219 161.694 83.4121 161.637C83.3672 161.686 83.3154 161.732 83.2568 161.775C83.1982 161.818 83.1338 161.855 83.0635 161.886C82.9912 161.919 82.9121 161.944 82.8262 161.962C82.7402 161.982 82.6475 161.991 82.5479 161.991C82.3857 161.991 82.2363 161.968 82.0996 161.921C81.9648 161.874 81.8486 161.809 81.751 161.725C81.6533 161.641 81.5771 161.541 81.5225 161.426C81.4678 161.309 81.4404 161.182 81.4404 161.045C81.4404 160.869 81.4746 160.714 81.543 160.579C81.6113 160.443 81.7139 160.33 81.8506 160.242C81.9736 160.162 82.125 160.102 82.3047 160.061C82.4863 160.018 82.6943 159.996 82.9287 159.996H83.3828V159.809C83.3828 159.735 83.3711 159.668 83.3477 159.61C83.3242 159.549 83.2891 159.497 83.2422 159.454C83.1934 159.409 83.1318 159.375 83.0576 159.352C82.9854 159.326 82.9004 159.314 82.8027 159.314C82.7168 159.314 82.6426 159.324 82.5801 159.346C82.5176 159.365 82.4668 159.394 82.4277 159.431C82.3926 159.464 82.3662 159.504 82.3486 159.551C82.333 159.598 82.3252 159.65 82.3252 159.706H81.5107C81.5107 159.571 81.54 159.444 81.5986 159.322C81.6592 159.201 81.7471 159.095 81.8623 159.003C81.9756 158.911 82.1143 158.839 82.2783 158.786C82.4443 158.732 82.6338 158.704 82.8467 158.704C83.0381 158.704 83.2158 158.728 83.3799 158.775C83.5459 158.821 83.6895 158.891 83.8105 158.983C83.9316 159.074 84.0264 159.191 84.0947 159.331C84.1631 159.47 84.1973 159.631 84.1973 159.815V161.174C84.1973 161.344 84.208 161.485 84.2295 161.596C84.251 161.707 84.2822 161.803 84.3232 161.883V161.933H83.4971ZM82.7207 161.361C82.8027 161.361 82.8789 161.352 82.9492 161.332C83.0195 161.313 83.083 161.287 83.1396 161.256C83.1963 161.225 83.2451 161.19 83.2861 161.151C83.3271 161.11 83.3594 161.069 83.3828 161.027V160.483H82.9668C82.8398 160.483 82.7314 160.495 82.6416 160.521C82.5518 160.544 82.4785 160.577 82.4219 160.62C82.3652 160.665 82.3232 160.719 82.2959 160.781C82.2686 160.842 82.2549 160.908 82.2549 160.981C82.2549 161.037 82.2646 161.09 82.2842 161.139C82.3057 161.186 82.3359 161.226 82.375 161.259C82.4141 161.29 82.4619 161.316 82.5186 161.335C82.5771 161.353 82.6445 161.361 82.7207 161.361ZM86.5234 161.341C86.6035 161.341 86.6797 161.329 86.752 161.306C86.8242 161.282 86.8877 161.249 86.9424 161.206C86.9971 161.163 87.0391 161.111 87.0684 161.051C87.0996 160.99 87.1133 160.923 87.1094 160.849H87.877C87.8809 161.013 87.8467 161.165 87.7744 161.306C87.7041 161.446 87.6074 161.568 87.4844 161.669C87.3613 161.771 87.2178 161.851 87.0537 161.909C86.8916 161.966 86.7197 161.994 86.5381 161.994C86.292 161.994 86.0762 161.953 85.8906 161.871C85.7051 161.787 85.5508 161.673 85.4277 161.528C85.3027 161.384 85.208 161.215 85.1436 161.022C85.0811 160.826 85.0498 160.617 85.0498 160.395V160.307C85.0498 160.084 85.0811 159.876 85.1436 159.683C85.2061 159.487 85.2998 159.318 85.4248 159.173C85.5498 159.028 85.7041 158.914 85.8877 158.83C86.0732 158.746 86.2881 158.704 86.5322 158.704C86.7275 158.704 86.9082 158.734 87.0742 158.792C87.2402 158.851 87.3838 158.933 87.5049 159.038C87.624 159.146 87.7168 159.276 87.7832 159.428C87.8496 159.578 87.8809 159.747 87.877 159.935H87.1094C87.1133 159.857 87.1016 159.782 87.0742 159.712C87.0469 159.642 87.0068 159.581 86.9541 159.53C86.9014 159.48 86.8379 159.44 86.7637 159.41C86.6895 159.379 86.6084 159.363 86.5205 159.363C86.3916 159.363 86.2852 159.39 86.2012 159.443C86.1172 159.495 86.0508 159.566 86.002 159.653C85.9512 159.741 85.915 159.842 85.8936 159.955C85.874 160.069 85.8643 160.186 85.8643 160.307V160.395C85.8643 160.518 85.874 160.637 85.8936 160.752C85.9131 160.865 85.9482 160.965 85.999 161.051C86.0479 161.139 86.1143 161.209 86.1982 161.262C86.2842 161.315 86.3926 161.341 86.5234 161.341ZM89.5381 159.199C89.5791 159.139 89.624 159.083 89.6729 159.032C89.7236 158.98 89.7764 158.934 89.8311 158.895C89.915 158.834 90.0078 158.787 90.1094 158.754C90.2109 158.721 90.3184 158.704 90.4316 158.704C90.5977 158.704 90.75 158.73 90.8887 158.78C91.0273 158.829 91.1465 158.906 91.2461 159.012C91.3457 159.117 91.4229 159.253 91.4775 159.419C91.5342 159.583 91.5625 159.781 91.5625 160.014V161.933H90.748V160.008C90.748 159.895 90.7334 159.797 90.7041 159.715C90.6768 159.633 90.6367 159.567 90.584 159.516C90.5312 159.465 90.4678 159.428 90.3936 159.404C90.3193 159.379 90.2354 159.366 90.1416 159.366C90.0693 159.366 90.002 159.373 89.9395 159.387C89.877 159.401 89.8203 159.421 89.7695 159.448C89.7227 159.472 89.6797 159.5 89.6406 159.533C89.6035 159.567 89.5693 159.604 89.5381 159.645V161.933H88.7236V157.433H89.5381V159.199Z" fill="white"/>
<path d="M12.3843 105L8.38428 111.928" stroke="#D50032" stroke-width="0.5"/>
<path d="M41.7129 121.933L37.7129 128.861" stroke="#D50032" stroke-width="0.5"/>
<path d="M39.7127 125.397L37.2546 125.421L38.5046 123.256L39.7127 125.397Z" fill="#D50032"/>
<path d="M10.3843 108.464L11.5923 110.605L12.8423 108.44L10.3843 108.464Z" fill="#D50032"/>
<path d="M12.2173 109.522L37.8797 124.339" stroke="#D50032" stroke-width="0.5"/>
<path d="M62 150.933L54 150.933" stroke="#D50032" stroke-width="0.5"/>
<path d="M62 169.933L54 169.933" stroke="#D50032" stroke-width="0.5"/>
<path d="M58 169.933L56.75 167.933L59.25 167.933L58 169.933Z" fill="#D50032"/>
<path d="M58 150.933L56.75 152.933L59.25 152.933L58 150.933Z" fill="#D50032"/>
<path d="M58 152.933L58 167.933" stroke="#D50032" stroke-width="0.5"/>
<rect x="62" y="155.933" width="31" height="8" rx="1" fill="#D50032"/>
<path d="M65.5674 161.042H64.2871L64.0352 161.933H63.168L64.5654 157.667H65.3125L66.6836 161.933H65.8164L65.5674 161.042ZM64.4893 160.342H65.374L64.9375 158.772L64.4893 160.342ZM67.1143 163.152V158.763H67.8672L67.8965 159.073C67.9395 159.021 67.9863 158.974 68.0371 158.933C68.0879 158.89 68.1426 158.853 68.2012 158.821C68.2715 158.784 68.3486 158.756 68.4326 158.736C68.5186 158.715 68.6104 158.704 68.708 158.704C68.9092 158.704 69.0869 158.743 69.2412 158.821C69.3955 158.898 69.5254 159.006 69.6309 159.147C69.7363 159.289 69.8154 159.46 69.8682 159.659C69.9229 159.857 69.9502 160.075 69.9502 160.316V160.377C69.9502 160.608 69.9229 160.821 69.8682 161.019C69.8154 161.216 69.7373 161.386 69.6338 161.528C69.5283 161.673 69.3984 161.786 69.2441 161.868C69.0898 161.95 68.9131 161.991 68.7139 161.991C68.6084 161.991 68.5107 161.98 68.4209 161.956C68.333 161.935 68.251 161.902 68.1748 161.86C68.1299 161.832 68.0869 161.802 68.0459 161.769C68.0049 161.736 67.9658 161.698 67.9287 161.657V163.152H67.1143ZM69.1357 160.316C69.1357 160.183 69.123 160.059 69.0977 159.944C69.0742 159.826 69.0371 159.725 68.9863 159.639C68.9336 159.555 68.8662 159.488 68.7842 159.44C68.7041 159.391 68.6064 159.366 68.4912 159.366C68.4248 159.366 68.3643 159.373 68.3096 159.387C68.2549 159.399 68.2051 159.416 68.1602 159.44C68.1094 159.467 68.0645 159.501 68.0254 159.542C67.9883 159.583 67.9561 159.631 67.9287 159.686V161.01C67.9541 161.061 67.9844 161.107 68.0195 161.148C68.0566 161.189 68.0986 161.224 68.1455 161.253C68.1904 161.28 68.2422 161.302 68.3008 161.318C68.3594 161.331 68.4248 161.338 68.4971 161.338C68.6123 161.338 68.71 161.313 68.79 161.262C68.8721 161.211 68.9385 161.142 68.9893 161.054C69.04 160.966 69.0771 160.864 69.1006 160.749C69.124 160.632 69.1357 160.508 69.1357 160.377V160.316ZM70.7178 163.152V158.763H71.4707L71.5 159.073C71.543 159.021 71.5898 158.974 71.6406 158.933C71.6914 158.89 71.7461 158.853 71.8047 158.821C71.875 158.784 71.9521 158.756 72.0361 158.736C72.1221 158.715 72.2139 158.704 72.3115 158.704C72.5127 158.704 72.6904 158.743 72.8447 158.821C72.999 158.898 73.1289 159.006 73.2344 159.147C73.3398 159.289 73.4189 159.46 73.4717 159.659C73.5264 159.857 73.5537 160.075 73.5537 160.316V160.377C73.5537 160.608 73.5264 160.821 73.4717 161.019C73.4189 161.216 73.3408 161.386 73.2373 161.528C73.1318 161.673 73.002 161.786 72.8477 161.868C72.6934 161.95 72.5166 161.991 72.3174 161.991C72.2119 161.991 72.1143 161.98 72.0244 161.956C71.9365 161.935 71.8545 161.902 71.7783 161.86C71.7334 161.832 71.6904 161.802 71.6494 161.769C71.6084 161.736 71.5693 161.698 71.5322 161.657V163.152H70.7178ZM72.7393 160.316C72.7393 160.183 72.7266 160.059 72.7012 159.944C72.6777 159.826 72.6406 159.725 72.5898 159.639C72.5371 159.555 72.4697 159.488 72.3877 159.44C72.3076 159.391 72.21 159.366 72.0947 159.366C72.0283 159.366 71.9678 159.373 71.9131 159.387C71.8584 159.399 71.8086 159.416 71.7637 159.44C71.7129 159.467 71.668 159.501 71.6289 159.542C71.5918 159.583 71.5596 159.631 71.5322 159.686V161.01C71.5576 161.061 71.5879 161.107 71.623 161.148C71.6602 161.189 71.7021 161.224 71.749 161.253C71.7939 161.28 71.8457 161.302 71.9043 161.318C71.9629 161.331 72.0283 161.338 72.1006 161.338C72.2158 161.338 72.3135 161.313 72.3936 161.262C72.4756 161.211 72.542 161.142 72.5928 161.054C72.6436 160.966 72.6807 160.864 72.7041 160.749C72.7275 160.632 72.7393 160.508 72.7393 160.377V160.316ZM76.5859 158.704C76.709 158.704 76.8223 158.713 76.9258 158.731C77.0312 158.746 77.1162 158.764 77.1807 158.783L77.0605 159.595C76.9531 159.569 76.8428 159.551 76.7295 159.539C76.6182 159.526 76.5117 159.519 76.4102 159.519C76.3047 159.519 76.209 159.528 76.123 159.548C76.0391 159.566 75.9639 159.593 75.8975 159.63C75.8174 159.673 75.749 159.728 75.6924 159.794C75.6357 159.861 75.5889 159.939 75.5518 160.028V161.933H74.7373V158.763H75.4961L75.5283 159.211L75.5342 159.281C75.6631 159.102 75.8174 158.961 75.9971 158.86C76.1768 158.756 76.373 158.704 76.5859 158.704ZM77.8018 160.319C77.8018 160.088 77.835 159.875 77.9014 159.68C77.9678 159.483 78.0654 159.312 78.1943 159.167C78.3213 159.023 78.4766 158.909 78.6602 158.827C78.8457 158.745 79.0576 158.704 79.2959 158.704C79.5342 158.704 79.7461 158.745 79.9316 158.827C80.1172 158.909 80.2744 159.023 80.4033 159.167C80.5303 159.312 80.627 159.483 80.6934 159.68C80.7598 159.875 80.793 160.088 80.793 160.319V160.38C80.793 160.612 80.7598 160.827 80.6934 161.025C80.627 161.22 80.5303 161.39 80.4033 161.534C80.2764 161.679 80.1201 161.792 79.9346 161.874C79.749 161.954 79.5381 161.994 79.3018 161.994C79.0635 161.994 78.8506 161.954 78.6631 161.874C78.4775 161.792 78.3213 161.679 78.1943 161.534C78.0654 161.39 77.9678 161.22 77.9014 161.025C77.835 160.827 77.8018 160.612 77.8018 160.38V160.319ZM78.6162 160.38C78.6162 160.513 78.6289 160.638 78.6543 160.755C78.6797 160.87 78.7197 160.971 78.7744 161.057C78.8291 161.145 78.8994 161.214 78.9854 161.265C79.0732 161.316 79.1787 161.341 79.3018 161.341C79.4209 161.341 79.5234 161.316 79.6094 161.265C79.6953 161.214 79.7656 161.145 79.8203 161.057C79.873 160.971 79.9121 160.87 79.9375 160.755C79.9629 160.638 79.9756 160.513 79.9756 160.38V160.319C79.9756 160.19 79.9629 160.068 79.9375 159.952C79.9121 159.837 79.873 159.736 79.8203 159.648C79.7656 159.56 79.6953 159.49 79.6094 159.44C79.5234 159.389 79.4189 159.363 79.2959 159.363C79.1748 159.363 79.0713 159.389 78.9854 159.44C78.8994 159.49 78.8291 159.56 78.7744 159.648C78.7197 159.736 78.6797 159.837 78.6543 159.952C78.6289 160.068 78.6162 160.19 78.6162 160.319V160.38ZM83.4971 161.933C83.4775 161.894 83.4609 161.849 83.4473 161.798C83.4336 161.747 83.4219 161.694 83.4121 161.637C83.3672 161.686 83.3154 161.732 83.2568 161.775C83.1982 161.818 83.1338 161.855 83.0635 161.886C82.9912 161.919 82.9121 161.944 82.8262 161.962C82.7402 161.982 82.6475 161.991 82.5479 161.991C82.3857 161.991 82.2363 161.968 82.0996 161.921C81.9648 161.874 81.8486 161.809 81.751 161.725C81.6533 161.641 81.5771 161.541 81.5225 161.426C81.4678 161.309 81.4404 161.182 81.4404 161.045C81.4404 160.869 81.4746 160.714 81.543 160.579C81.6113 160.443 81.7139 160.33 81.8506 160.242C81.9736 160.162 82.125 160.102 82.3047 160.061C82.4863 160.018 82.6943 159.996 82.9287 159.996H83.3828V159.809C83.3828 159.735 83.3711 159.668 83.3477 159.61C83.3242 159.549 83.2891 159.497 83.2422 159.454C83.1934 159.409 83.1318 159.375 83.0576 159.352C82.9854 159.326 82.9004 159.314 82.8027 159.314C82.7168 159.314 82.6426 159.324 82.5801 159.346C82.5176 159.365 82.4668 159.394 82.4277 159.431C82.3926 159.464 82.3662 159.504 82.3486 159.551C82.333 159.598 82.3252 159.65 82.3252 159.706H81.5107C81.5107 159.571 81.54 159.444 81.5986 159.322C81.6592 159.201 81.7471 159.095 81.8623 159.003C81.9756 158.911 82.1143 158.839 82.2783 158.786C82.4443 158.732 82.6338 158.704 82.8467 158.704C83.0381 158.704 83.2158 158.728 83.3799 158.775C83.5459 158.821 83.6895 158.891 83.8105 158.983C83.9316 159.074 84.0264 159.191 84.0947 159.331C84.1631 159.47 84.1973 159.631 84.1973 159.815V161.174C84.1973 161.344 84.208 161.485 84.2295 161.596C84.251 161.707 84.2822 161.803 84.3232 161.883V161.933H83.4971ZM82.7207 161.361C82.8027 161.361 82.8789 161.352 82.9492 161.332C83.0195 161.313 83.083 161.287 83.1396 161.256C83.1963 161.225 83.2451 161.19 83.2861 161.151C83.3271 161.11 83.3594 161.069 83.3828 161.027V160.483H82.9668C82.8398 160.483 82.7314 160.495 82.6416 160.521C82.5518 160.544 82.4785 160.577 82.4219 160.62C82.3652 160.665 82.3232 160.719 82.2959 160.781C82.2686 160.842 82.2549 160.908 82.2549 160.981C82.2549 161.037 82.2646 161.09 82.2842 161.139C82.3057 161.186 82.3359 161.226 82.375 161.259C82.4141 161.29 82.4619 161.316 82.5186 161.335C82.5771 161.353 82.6445 161.361 82.7207 161.361ZM86.5234 161.341C86.6035 161.341 86.6797 161.329 86.752 161.306C86.8242 161.282 86.8877 161.249 86.9424 161.206C86.9971 161.163 87.0391 161.111 87.0684 161.051C87.0996 160.99 87.1133 160.923 87.1094 160.849H87.877C87.8809 161.013 87.8467 161.165 87.7744 161.306C87.7041 161.446 87.6074 161.568 87.4844 161.669C87.3613 161.771 87.2178 161.851 87.0537 161.909C86.8916 161.966 86.7197 161.994 86.5381 161.994C86.292 161.994 86.0762 161.953 85.8906 161.871C85.7051 161.787 85.5508 161.673 85.4277 161.528C85.3027 161.384 85.208 161.215 85.1436 161.022C85.0811 160.826 85.0498 160.617 85.0498 160.395V160.307C85.0498 160.084 85.0811 159.876 85.1436 159.683C85.2061 159.487 85.2998 159.318 85.4248 159.173C85.5498 159.028 85.7041 158.914 85.8877 158.83C86.0732 158.746 86.2881 158.704 86.5322 158.704C86.7275 158.704 86.9082 158.734 87.0742 158.792C87.2402 158.851 87.3838 158.933 87.5049 159.038C87.624 159.146 87.7168 159.276 87.7832 159.428C87.8496 159.578 87.8809 159.747 87.877 159.935H87.1094C87.1133 159.857 87.1016 159.782 87.0742 159.712C87.0469 159.642 87.0068 159.581 86.9541 159.53C86.9014 159.48 86.8379 159.44 86.7637 159.41C86.6895 159.379 86.6084 159.363 86.5205 159.363C86.3916 159.363 86.2852 159.39 86.2012 159.443C86.1172 159.495 86.0508 159.566 86.002 159.653C85.9512 159.741 85.915 159.842 85.8936 159.955C85.874 160.069 85.8643 160.186 85.8643 160.307V160.395C85.8643 160.518 85.874 160.637 85.8936 160.752C85.9131 160.865 85.9482 160.965 85.999 161.051C86.0479 161.139 86.1143 161.209 86.1982 161.262C86.2842 161.315 86.3926 161.341 86.5234 161.341ZM89.5381 159.199C89.5791 159.139 89.624 159.083 89.6729 159.032C89.7236 158.98 89.7764 158.934 89.8311 158.895C89.915 158.834 90.0078 158.787 90.1094 158.754C90.2109 158.721 90.3184 158.704 90.4316 158.704C90.5977 158.704 90.75 158.73 90.8887 158.78C91.0273 158.829 91.1465 158.906 91.2461 159.012C91.3457 159.117 91.4229 159.253 91.4775 159.419C91.5342 159.583 91.5625 159.781 91.5625 160.014V161.933H90.748V160.008C90.748 159.895 90.7334 159.797 90.7041 159.715C90.6768 159.633 90.6367 159.567 90.584 159.516C90.5312 159.465 90.4678 159.428 90.3936 159.404C90.3193 159.379 90.2354 159.366 90.1416 159.366C90.0693 159.366 90.002 159.373 89.9395 159.387C89.877 159.401 89.8203 159.421 89.7695 159.448C89.7227 159.472 89.6797 159.5 89.6406 159.533C89.6035 159.567 89.5693 159.604 89.5381 159.645V161.933H88.7236V157.433H89.5381V159.199Z" fill="white"/>
<rect x="23" y="105.933" width="17" height="8" rx="1" fill="#D50032"/>
<path d="M27.3018 110.064H25.5498V111.268H27.5977V111.933H24.7236V107.667H27.5889V108.338H25.5498V109.413H27.3018V110.064ZM29.7598 109.753L30.457 108.763H31.333L30.2695 110.319L31.3711 111.933H30.4922L29.7627 110.896L29.0391 111.933H28.1572L29.2588 110.319L28.1982 108.763H29.0742L29.7598 109.753ZM32.1299 108.763H33.8555V111.271H34.7139V111.933H32.1299V111.271H33.0322V109.428H32.1299V108.763ZM32.9736 107.951C32.9736 107.889 32.9844 107.831 33.0059 107.778C33.0293 107.724 33.0615 107.677 33.1025 107.638C33.1436 107.601 33.1924 107.571 33.249 107.55C33.3076 107.528 33.3721 107.518 33.4424 107.518C33.5869 107.518 33.7012 107.559 33.7852 107.641C33.8711 107.721 33.9141 107.824 33.9141 107.951C33.9141 108.078 33.8711 108.183 33.7852 108.265C33.7012 108.345 33.5869 108.385 33.4424 108.385C33.3721 108.385 33.3076 108.374 33.249 108.353C33.1924 108.331 33.1436 108.301 33.1025 108.262C33.0615 108.225 33.0293 108.18 33.0059 108.127C32.9844 108.072 32.9736 108.014 32.9736 107.951ZM37.0107 107.986V108.763H38.1943V109.363H37.0107V110.726C37.0107 110.841 37.0234 110.938 37.0488 111.016C37.0762 111.092 37.1143 111.152 37.1631 111.197C37.2119 111.244 37.2705 111.277 37.3389 111.297C37.4092 111.317 37.4873 111.326 37.5732 111.326C37.6357 111.326 37.6992 111.323 37.7637 111.318C37.8301 111.312 37.8936 111.304 37.9541 111.294C38.0127 111.286 38.0674 111.277 38.1182 111.268C38.1709 111.258 38.2158 111.248 38.2529 111.238L38.332 111.798C38.2754 111.831 38.209 111.861 38.1328 111.886C38.0566 111.909 37.9756 111.929 37.8896 111.944C37.8037 111.96 37.7139 111.972 37.6201 111.98C37.5283 111.989 37.4375 111.994 37.3477 111.994C37.1738 111.994 37.0156 111.972 36.873 111.927C36.7324 111.88 36.6123 111.808 36.5127 111.71C36.4111 111.614 36.333 111.492 36.2783 111.344C36.2236 111.194 36.1963 111.014 36.1963 110.805V109.363H35.4727V108.763H36.1963V107.986H37.0107Z" fill="white"/>
<path d="M62 150.933L54 150.933" stroke="#D50032" stroke-width="0.5"/>
<path d="M62 169.933L54 169.933" stroke="#D50032" stroke-width="0.5"/>
<path d="M58 169.933L56.75 167.933L59.25 167.933L58 169.933Z" fill="#D50032"/>
<path d="M58 150.933L56.75 152.933L59.25 152.933L58 150.933Z" fill="#D50032"/>
<path d="M58 152.933L58 167.933" stroke="#D50032" stroke-width="0.5"/>
<rect x="62" y="155.933" width="31" height="8" rx="1" fill="#D50032"/>
<path d="M65.5674 161.042H64.2871L64.0352 161.933H63.168L64.5654 157.667H65.3125L66.6836 161.933H65.8164L65.5674 161.042ZM64.4893 160.342H65.374L64.9375 158.772L64.4893 160.342ZM67.1143 163.152V158.763H67.8672L67.8965 159.073C67.9395 159.021 67.9863 158.974 68.0371 158.933C68.0879 158.89 68.1426 158.853 68.2012 158.821C68.2715 158.784 68.3486 158.756 68.4326 158.736C68.5186 158.715 68.6104 158.704 68.708 158.704C68.9092 158.704 69.0869 158.743 69.2412 158.821C69.3955 158.898 69.5254 159.006 69.6309 159.147C69.7363 159.289 69.8154 159.46 69.8682 159.659C69.9229 159.857 69.9502 160.075 69.9502 160.316V160.377C69.9502 160.608 69.9229 160.821 69.8682 161.019C69.8154 161.216 69.7373 161.386 69.6338 161.528C69.5283 161.673 69.3984 161.786 69.2441 161.868C69.0898 161.95 68.9131 161.991 68.7139 161.991C68.6084 161.991 68.5107 161.98 68.4209 161.956C68.333 161.935 68.251 161.902 68.1748 161.86C68.1299 161.832 68.0869 161.802 68.0459 161.769C68.0049 161.736 67.9658 161.698 67.9287 161.657V163.152H67.1143ZM69.1357 160.316C69.1357 160.183 69.123 160.059 69.0977 159.944C69.0742 159.826 69.0371 159.725 68.9863 159.639C68.9336 159.555 68.8662 159.488 68.7842 159.44C68.7041 159.391 68.6064 159.366 68.4912 159.366C68.4248 159.366 68.3643 159.373 68.3096 159.387C68.2549 159.399 68.2051 159.416 68.1602 159.44C68.1094 159.467 68.0645 159.501 68.0254 159.542C67.9883 159.583 67.9561 159.631 67.9287 159.686V161.01C67.9541 161.061 67.9844 161.107 68.0195 161.148C68.0566 161.189 68.0986 161.224 68.1455 161.253C68.1904 161.28 68.2422 161.302 68.3008 161.318C68.3594 161.331 68.4248 161.338 68.4971 161.338C68.6123 161.338 68.71 161.313 68.79 161.262C68.8721 161.211 68.9385 161.142 68.9893 161.054C69.04 160.966 69.0771 160.864 69.1006 160.749C69.124 160.632 69.1357 160.508 69.1357 160.377V160.316ZM70.7178 163.152V158.763H71.4707L71.5 159.073C71.543 159.021 71.5898 158.974 71.6406 158.933C71.6914 158.89 71.7461 158.853 71.8047 158.821C71.875 158.784 71.9521 158.756 72.0361 158.736C72.1221 158.715 72.2139 158.704 72.3115 158.704C72.5127 158.704 72.6904 158.743 72.8447 158.821C72.999 158.898 73.1289 159.006 73.2344 159.147C73.3398 159.289 73.4189 159.46 73.4717 159.659C73.5264 159.857 73.5537 160.075 73.5537 160.316V160.377C73.5537 160.608 73.5264 160.821 73.4717 161.019C73.4189 161.216 73.3408 161.386 73.2373 161.528C73.1318 161.673 73.002 161.786 72.8477 161.868C72.6934 161.95 72.5166 161.991 72.3174 161.991C72.2119 161.991 72.1143 161.98 72.0244 161.956C71.9365 161.935 71.8545 161.902 71.7783 161.86C71.7334 161.832 71.6904 161.802 71.6494 161.769C71.6084 161.736 71.5693 161.698 71.5322 161.657V163.152H70.7178ZM72.7393 160.316C72.7393 160.183 72.7266 160.059 72.7012 159.944C72.6777 159.826 72.6406 159.725 72.5898 159.639C72.5371 159.555 72.4697 159.488 72.3877 159.44C72.3076 159.391 72.21 159.366 72.0947 159.366C72.0283 159.366 71.9678 159.373 71.9131 159.387C71.8584 159.399 71.8086 159.416 71.7637 159.44C71.7129 159.467 71.668 159.501 71.6289 159.542C71.5918 159.583 71.5596 159.631 71.5322 159.686V161.01C71.5576 161.061 71.5879 161.107 71.623 161.148C71.6602 161.189 71.7021 161.224 71.749 161.253C71.7939 161.28 71.8457 161.302 71.9043 161.318C71.9629 161.331 72.0283 161.338 72.1006 161.338C72.2158 161.338 72.3135 161.313 72.3936 161.262C72.4756 161.211 72.542 161.142 72.5928 161.054C72.6436 160.966 72.6807 160.864 72.7041 160.749C72.7275 160.632 72.7393 160.508 72.7393 160.377V160.316ZM76.5859 158.704C76.709 158.704 76.8223 158.713 76.9258 158.731C77.0312 158.746 77.1162 158.764 77.1807 158.783L77.0605 159.595C76.9531 159.569 76.8428 159.551 76.7295 159.539C76.6182 159.526 76.5117 159.519 76.4102 159.519C76.3047 159.519 76.209 159.528 76.123 159.548C76.0391 159.566 75.9639 159.593 75.8975 159.63C75.8174 159.673 75.749 159.728 75.6924 159.794C75.6357 159.861 75.5889 159.939 75.5518 160.028V161.933H74.7373V158.763H75.4961L75.5283 159.211L75.5342 159.281C75.6631 159.102 75.8174 158.961 75.9971 158.86C76.1768 158.756 76.373 158.704 76.5859 158.704ZM77.8018 160.319C77.8018 160.088 77.835 159.875 77.9014 159.68C77.9678 159.483 78.0654 159.312 78.1943 159.167C78.3213 159.023 78.4766 158.909 78.6602 158.827C78.8457 158.745 79.0576 158.704 79.2959 158.704C79.5342 158.704 79.7461 158.745 79.9316 158.827C80.1172 158.909 80.2744 159.023 80.4033 159.167C80.5303 159.312 80.627 159.483 80.6934 159.68C80.7598 159.875 80.793 160.088 80.793 160.319V160.38C80.793 160.612 80.7598 160.827 80.6934 161.025C80.627 161.22 80.5303 161.39 80.4033 161.534C80.2764 161.679 80.1201 161.792 79.9346 161.874C79.749 161.954 79.5381 161.994 79.3018 161.994C79.0635 161.994 78.8506 161.954 78.6631 161.874C78.4775 161.792 78.3213 161.679 78.1943 161.534C78.0654 161.39 77.9678 161.22 77.9014 161.025C77.835 160.827 77.8018 160.612 77.8018 160.38V160.319ZM78.6162 160.38C78.6162 160.513 78.6289 160.638 78.6543 160.755C78.6797 160.87 78.7197 160.971 78.7744 161.057C78.8291 161.145 78.8994 161.214 78.9854 161.265C79.0732 161.316 79.1787 161.341 79.3018 161.341C79.4209 161.341 79.5234 161.316 79.6094 161.265C79.6953 161.214 79.7656 161.145 79.8203 161.057C79.873 160.971 79.9121 160.87 79.9375 160.755C79.9629 160.638 79.9756 160.513 79.9756 160.38V160.319C79.9756 160.19 79.9629 160.068 79.9375 159.952C79.9121 159.837 79.873 159.736 79.8203 159.648C79.7656 159.56 79.6953 159.49 79.6094 159.44C79.5234 159.389 79.4189 159.363 79.2959 159.363C79.1748 159.363 79.0713 159.389 78.9854 159.44C78.8994 159.49 78.8291 159.56 78.7744 159.648C78.7197 159.736 78.6797 159.837 78.6543 159.952C78.6289 160.068 78.6162 160.19 78.6162 160.319V160.38ZM83.4971 161.933C83.4775 161.894 83.4609 161.849 83.4473 161.798C83.4336 161.747 83.4219 161.694 83.4121 161.637C83.3672 161.686 83.3154 161.732 83.2568 161.775C83.1982 161.818 83.1338 161.855 83.0635 161.886C82.9912 161.919 82.9121 161.944 82.8262 161.962C82.7402 161.982 82.6475 161.991 82.5479 161.991C82.3857 161.991 82.2363 161.968 82.0996 161.921C81.9648 161.874 81.8486 161.809 81.751 161.725C81.6533 161.641 81.5771 161.541 81.5225 161.426C81.4678 161.309 81.4404 161.182 81.4404 161.045C81.4404 160.869 81.4746 160.714 81.543 160.579C81.6113 160.443 81.7139 160.33 81.8506 160.242C81.9736 160.162 82.125 160.102 82.3047 160.061C82.4863 160.018 82.6943 159.996 82.9287 159.996H83.3828V159.809C83.3828 159.735 83.3711 159.668 83.3477 159.61C83.3242 159.549 83.2891 159.497 83.2422 159.454C83.1934 159.409 83.1318 159.375 83.0576 159.352C82.9854 159.326 82.9004 159.314 82.8027 159.314C82.7168 159.314 82.6426 159.324 82.5801 159.346C82.5176 159.365 82.4668 159.394 82.4277 159.431C82.3926 159.464 82.3662 159.504 82.3486 159.551C82.333 159.598 82.3252 159.65 82.3252 159.706H81.5107C81.5107 159.571 81.54 159.444 81.5986 159.322C81.6592 159.201 81.7471 159.095 81.8623 159.003C81.9756 158.911 82.1143 158.839 82.2783 158.786C82.4443 158.732 82.6338 158.704 82.8467 158.704C83.0381 158.704 83.2158 158.728 83.3799 158.775C83.5459 158.821 83.6895 158.891 83.8105 158.983C83.9316 159.074 84.0264 159.191 84.0947 159.331C84.1631 159.47 84.1973 159.631 84.1973 159.815V161.174C84.1973 161.344 84.208 161.485 84.2295 161.596C84.251 161.707 84.2822 161.803 84.3232 161.883V161.933H83.4971ZM82.7207 161.361C82.8027 161.361 82.8789 161.352 82.9492 161.332C83.0195 161.313 83.083 161.287 83.1396 161.256C83.1963 161.225 83.2451 161.19 83.2861 161.151C83.3271 161.11 83.3594 161.069 83.3828 161.027V160.483H82.9668C82.8398 160.483 82.7314 160.495 82.6416 160.521C82.5518 160.544 82.4785 160.577 82.4219 160.62C82.3652 160.665 82.3232 160.719 82.2959 160.781C82.2686 160.842 82.2549 160.908 82.2549 160.981C82.2549 161.037 82.2646 161.09 82.2842 161.139C82.3057 161.186 82.3359 161.226 82.375 161.259C82.4141 161.29 82.4619 161.316 82.5186 161.335C82.5771 161.353 82.6445 161.361 82.7207 161.361ZM86.5234 161.341C86.6035 161.341 86.6797 161.329 86.752 161.306C86.8242 161.282 86.8877 161.249 86.9424 161.206C86.9971 161.163 87.0391 161.111 87.0684 161.051C87.0996 160.99 87.1133 160.923 87.1094 160.849H87.877C87.8809 161.013 87.8467 161.165 87.7744 161.306C87.7041 161.446 87.6074 161.568 87.4844 161.669C87.3613 161.771 87.2178 161.851 87.0537 161.909C86.8916 161.966 86.7197 161.994 86.5381 161.994C86.292 161.994 86.0762 161.953 85.8906 161.871C85.7051 161.787 85.5508 161.673 85.4277 161.528C85.3027 161.384 85.208 161.215 85.1436 161.022C85.0811 160.826 85.0498 160.617 85.0498 160.395V160.307C85.0498 160.084 85.0811 159.876 85.1436 159.683C85.2061 159.487 85.2998 159.318 85.4248 159.173C85.5498 159.028 85.7041 158.914 85.8877 158.83C86.0732 158.746 86.2881 158.704 86.5322 158.704C86.7275 158.704 86.9082 158.734 87.0742 158.792C87.2402 158.851 87.3838 158.933 87.5049 159.038C87.624 159.146 87.7168 159.276 87.7832 159.428C87.8496 159.578 87.8809 159.747 87.877 159.935H87.1094C87.1133 159.857 87.1016 159.782 87.0742 159.712C87.0469 159.642 87.0068 159.581 86.9541 159.53C86.9014 159.48 86.8379 159.44 86.7637 159.41C86.6895 159.379 86.6084 159.363 86.5205 159.363C86.3916 159.363 86.2852 159.39 86.2012 159.443C86.1172 159.495 86.0508 159.566 86.002 159.653C85.9512 159.741 85.915 159.842 85.8936 159.955C85.874 160.069 85.8643 160.186 85.8643 160.307V160.395C85.8643 160.518 85.874 160.637 85.8936 160.752C85.9131 160.865 85.9482 160.965 85.999 161.051C86.0479 161.139 86.1143 161.209 86.1982 161.262C86.2842 161.315 86.3926 161.341 86.5234 161.341ZM89.5381 159.199C89.5791 159.139 89.624 159.083 89.6729 159.032C89.7236 158.98 89.7764 158.934 89.8311 158.895C89.915 158.834 90.0078 158.787 90.1094 158.754C90.2109 158.721 90.3184 158.704 90.4316 158.704C90.5977 158.704 90.75 158.73 90.8887 158.78C91.0273 158.829 91.1465 158.906 91.2461 159.012C91.3457 159.117 91.4229 159.253 91.4775 159.419C91.5342 159.583 91.5625 159.781 91.5625 160.014V161.933H90.748V160.008C90.748 159.895 90.7334 159.797 90.7041 159.715C90.6768 159.633 90.6367 159.567 90.584 159.516C90.5312 159.465 90.4678 159.428 90.3936 159.404C90.3193 159.379 90.2354 159.366 90.1416 159.366C90.0693 159.366 90.002 159.373 89.9395 159.387C89.877 159.401 89.8203 159.421 89.7695 159.448C89.7227 159.472 89.6797 159.5 89.6406 159.533C89.6035 159.567 89.5693 159.604 89.5381 159.645V161.933H88.7236V157.433H89.5381V159.199Z" fill="white"/>
<path d="M34 169.933V177.933" stroke="#008B09" stroke-opacity="0.97" stroke-width="0.5"/>
<path d="M49 169.933V177.933" stroke="#008B09" stroke-opacity="0.97" stroke-width="0.5"/>
<path d="M49 173.933L47 175.183L47 172.683L49 173.933Z" fill="#008B09" fill-opacity="0.97"/>
<path d="M48.0566 173.933L47.5 174.28V173.584L48.0566 173.933Z" stroke="#008B09" stroke-opacity="0.97"/>
<path d="M34 173.933L36 175.183L36 172.683L34 173.933Z" fill="#008B09" fill-opacity="0.97"/>
<path d="M34.9434 173.933L35.5 174.28V173.584L34.9434 173.933Z" stroke="#008B09" stroke-opacity="0.97"/>
<path d="M36 173.933H47" stroke="#008B09" stroke-opacity="0.97" stroke-width="0.5"/>
<rect x="31.5" y="178.933" width="21" height="8" rx="1" fill="#008B09" fill-opacity="0.97"/>
<path d="M33.6533 184.933L33.0674 180.667H33.8203L34.1045 183.052L34.125 183.219L34.1514 183.043L34.4883 180.667H35.0771L35.4346 183.061L35.4609 183.236L35.4814 183.058L35.7715 180.667H36.5273L35.9355 184.933H35.1914L34.8193 182.63L34.7871 182.413L34.7549 182.63L34.3975 184.933H33.6533ZM37.2246 181.763H38.9502V184.271H39.8086V184.933H37.2246V184.271H38.127V182.428H37.2246V181.763ZM38.0684 180.951C38.0684 180.889 38.0791 180.831 38.1006 180.778C38.124 180.724 38.1562 180.677 38.1973 180.638C38.2383 180.601 38.2871 180.571 38.3438 180.55C38.4023 180.528 38.4668 180.518 38.5371 180.518C38.6816 180.518 38.7959 180.559 38.8799 180.641C38.9658 180.721 39.0088 180.824 39.0088 180.951C39.0088 181.078 38.9658 181.183 38.8799 181.265C38.7959 181.345 38.6816 181.385 38.5371 181.385C38.4668 181.385 38.4023 181.374 38.3438 181.353C38.2871 181.331 38.2383 181.301 38.1973 181.262C38.1562 181.225 38.124 181.18 38.1006 181.127C38.0791 181.072 38.0684 181.014 38.0684 180.951ZM40.5264 183.324C40.5264 183.084 40.5537 182.864 40.6084 182.665C40.665 182.466 40.7471 182.295 40.8545 182.152C40.9619 182.01 41.0918 181.9 41.2441 181.821C41.3984 181.743 41.5742 181.704 41.7715 181.704C41.9375 181.704 42.083 181.735 42.208 181.795C42.335 181.854 42.4473 181.938 42.5449 182.047V180.433H43.3623V184.933H42.627L42.5859 184.602C42.4863 184.725 42.3691 184.82 42.2344 184.889C42.0996 184.957 41.9434 184.991 41.7656 184.991C41.5723 184.991 41.3984 184.951 41.2441 184.871C41.0918 184.789 40.9629 184.677 40.8574 184.534C40.75 184.392 40.668 184.223 40.6113 184.027C40.5547 183.83 40.5264 183.616 40.5264 183.386V183.324ZM41.3408 183.386C41.3408 183.519 41.3516 183.643 41.373 183.758C41.3965 183.871 41.4336 183.97 41.4844 184.054C41.5352 184.14 41.6006 184.207 41.6807 184.256C41.7607 184.305 41.8584 184.329 41.9736 184.329C42.1143 184.329 42.2305 184.299 42.3223 184.238C42.416 184.178 42.4902 184.095 42.5449 183.989V182.706C42.4902 182.599 42.417 182.516 42.3252 182.457C42.2334 182.397 42.1182 182.366 41.9795 182.366C41.8643 182.366 41.7656 182.392 41.6836 182.443C41.6035 182.491 41.5381 182.559 41.4873 182.645C41.4365 182.733 41.3994 182.835 41.376 182.952C41.3525 183.068 41.3408 183.192 41.3408 183.324V183.386ZM45.709 180.986V181.763H46.8926V182.363H45.709V183.726C45.709 183.841 45.7217 183.938 45.7471 184.016C45.7744 184.092 45.8125 184.152 45.8613 184.197C45.9102 184.244 45.9688 184.277 46.0371 184.297C46.1074 184.317 46.1855 184.326 46.2715 184.326C46.334 184.326 46.3975 184.323 46.4619 184.318C46.5283 184.312 46.5918 184.304 46.6523 184.294C46.7109 184.286 46.7656 184.277 46.8164 184.268C46.8691 184.258 46.9141 184.248 46.9512 184.238L47.0303 184.798C46.9736 184.831 46.9072 184.861 46.8311 184.886C46.7549 184.909 46.6738 184.929 46.5879 184.944C46.502 184.96 46.4121 184.972 46.3184 184.98C46.2266 184.989 46.1357 184.994 46.0459 184.994C45.8721 184.994 45.7139 184.972 45.5713 184.927C45.4307 184.88 45.3105 184.808 45.2109 184.71C45.1094 184.614 45.0312 184.492 44.9766 184.344C44.9219 184.194 44.8945 184.014 44.8945 183.805V182.363H44.1709V181.763H44.8945V180.986H45.709ZM48.6328 182.199C48.6738 182.139 48.7188 182.083 48.7676 182.032C48.8184 181.98 48.8711 181.934 48.9258 181.895C49.0098 181.834 49.1025 181.787 49.2041 181.754C49.3057 181.721 49.4131 181.704 49.5264 181.704C49.6924 181.704 49.8447 181.73 49.9834 181.78C50.1221 181.829 50.2412 181.906 50.3408 182.012C50.4404 182.117 50.5176 182.253 50.5723 182.419C50.6289 182.583 50.6572 182.781 50.6572 183.014V184.933H49.8428V183.008C49.8428 182.895 49.8281 182.797 49.7988 182.715C49.7715 182.633 49.7314 182.567 49.6787 182.516C49.626 182.465 49.5625 182.428 49.4883 182.404C49.4141 182.379 49.3301 182.366 49.2363 182.366C49.1641 182.366 49.0967 182.373 49.0342 182.387C48.9717 182.401 48.915 182.421 48.8643 182.448C48.8174 182.472 48.7744 182.5 48.7354 182.533C48.6982 182.567 48.6641 182.604 48.6328 182.645V184.933H47.8184V180.433H48.6328V182.199Z" fill="white"/>
<path d="M34 169.933V177.933" stroke="#008B09" stroke-opacity="0.97" stroke-width="0.5"/>
<path d="M49 169.933V177.933" stroke="#008B09" stroke-opacity="0.97" stroke-width="0.5"/>
<path d="M49 173.933L47 175.183L47 172.683L49 173.933Z" fill="#008B09" fill-opacity="0.97"/>
<path d="M48.0566 173.933L47.5 174.28V173.584L48.0566 173.933Z" stroke="#008B09" stroke-opacity="0.97"/>
<path d="M34 173.933L36 175.183L36 172.683L34 173.933Z" fill="#008B09" fill-opacity="0.97"/>
<path d="M34.9434 173.933L35.5 174.28V173.584L34.9434 173.933Z" stroke="#008B09" stroke-opacity="0.97"/>
<path d="M36 173.933H47" stroke="#008B09" stroke-opacity="0.97" stroke-width="0.5"/>
<rect x="31.5" y="178.933" width="21" height="8" rx="1" fill="#008B09" fill-opacity="0.97"/>
<path d="M33.6533 184.933L33.0674 180.667H33.8203L34.1045 183.052L34.125 183.219L34.1514 183.043L34.4883 180.667H35.0771L35.4346 183.061L35.4609 183.236L35.4814 183.058L35.7715 180.667H36.5273L35.9355 184.933H35.1914L34.8193 182.63L34.7871 182.413L34.7549 182.63L34.3975 184.933H33.6533ZM37.2246 181.763H38.9502V184.271H39.8086V184.933H37.2246V184.271H38.127V182.428H37.2246V181.763ZM38.0684 180.951C38.0684 180.889 38.0791 180.831 38.1006 180.778C38.124 180.724 38.1562 180.677 38.1973 180.638C38.2383 180.601 38.2871 180.571 38.3438 180.55C38.4023 180.528 38.4668 180.518 38.5371 180.518C38.6816 180.518 38.7959 180.559 38.8799 180.641C38.9658 180.721 39.0088 180.824 39.0088 180.951C39.0088 181.078 38.9658 181.183 38.8799 181.265C38.7959 181.345 38.6816 181.385 38.5371 181.385C38.4668 181.385 38.4023 181.374 38.3438 181.353C38.2871 181.331 38.2383 181.301 38.1973 181.262C38.1562 181.225 38.124 181.18 38.1006 181.127C38.0791 181.072 38.0684 181.014 38.0684 180.951ZM40.5264 183.324C40.5264 183.084 40.5537 182.864 40.6084 182.665C40.665 182.466 40.7471 182.295 40.8545 182.152C40.9619 182.01 41.0918 181.9 41.2441 181.821C41.3984 181.743 41.5742 181.704 41.7715 181.704C41.9375 181.704 42.083 181.735 42.208 181.795C42.335 181.854 42.4473 181.938 42.5449 182.047V180.433H43.3623V184.933H42.627L42.5859 184.602C42.4863 184.725 42.3691 184.82 42.2344 184.889C42.0996 184.957 41.9434 184.991 41.7656 184.991C41.5723 184.991 41.3984 184.951 41.2441 184.871C41.0918 184.789 40.9629 184.677 40.8574 184.534C40.75 184.392 40.668 184.223 40.6113 184.027C40.5547 183.83 40.5264 183.616 40.5264 183.386V183.324ZM41.3408 183.386C41.3408 183.519 41.3516 183.643 41.373 183.758C41.3965 183.871 41.4336 183.97 41.4844 184.054C41.5352 184.14 41.6006 184.207 41.6807 184.256C41.7607 184.305 41.8584 184.329 41.9736 184.329C42.1143 184.329 42.2305 184.299 42.3223 184.238C42.416 184.178 42.4902 184.095 42.5449 183.989V182.706C42.4902 182.599 42.417 182.516 42.3252 182.457C42.2334 182.397 42.1182 182.366 41.9795 182.366C41.8643 182.366 41.7656 182.392 41.6836 182.443C41.6035 182.491 41.5381 182.559 41.4873 182.645C41.4365 182.733 41.3994 182.835 41.376 182.952C41.3525 183.068 41.3408 183.192 41.3408 183.324V183.386ZM45.709 180.986V181.763H46.8926V182.363H45.709V183.726C45.709 183.841 45.7217 183.938 45.7471 184.016C45.7744 184.092 45.8125 184.152 45.8613 184.197C45.9102 184.244 45.9688 184.277 46.0371 184.297C46.1074 184.317 46.1855 184.326 46.2715 184.326C46.334 184.326 46.3975 184.323 46.4619 184.318C46.5283 184.312 46.5918 184.304 46.6523 184.294C46.7109 184.286 46.7656 184.277 46.8164 184.268C46.8691 184.258 46.9141 184.248 46.9512 184.238L47.0303 184.798C46.9736 184.831 46.9072 184.861 46.8311 184.886C46.7549 184.909 46.6738 184.929 46.5879 184.944C46.502 184.96 46.4121 184.972 46.3184 184.98C46.2266 184.989 46.1357 184.994 46.0459 184.994C45.8721 184.994 45.7139 184.972 45.5713 184.927C45.4307 184.88 45.3105 184.808 45.2109 184.71C45.1094 184.614 45.0312 184.492 44.9766 184.344C44.9219 184.194 44.8945 184.014 44.8945 183.805V182.363H44.1709V181.763H44.8945V180.986H45.709ZM48.6328 182.199C48.6738 182.139 48.7188 182.083 48.7676 182.032C48.8184 181.98 48.8711 181.934 48.9258 181.895C49.0098 181.834 49.1025 181.787 49.2041 181.754C49.3057 181.721 49.4131 181.704 49.5264 181.704C49.6924 181.704 49.8447 181.73 49.9834 181.78C50.1221 181.829 50.2412 181.906 50.3408 182.012C50.4404 182.117 50.5176 182.253 50.5723 182.419C50.6289 182.583 50.6572 182.781 50.6572 183.014V184.933H49.8428V183.008C49.8428 182.895 49.8281 182.797 49.7988 182.715C49.7715 182.633 49.7314 182.567 49.6787 182.516C49.626 182.465 49.5625 182.428 49.4883 182.404C49.4141 182.379 49.3301 182.366 49.2363 182.366C49.1641 182.366 49.0967 182.373 49.0342 182.387C48.9717 182.401 48.915 182.421 48.8643 182.448C48.8174 182.472 48.7744 182.5 48.7354 182.533C48.6982 182.567 48.6641 182.604 48.6328 182.645V184.933H47.8184V180.433H48.6328V182.199Z" fill="white"/>
<path d="M34 169.933V177.933" stroke="#008B09" stroke-opacity="0.97" stroke-width="0.5"/>
<path d="M49 169.933V177.933" stroke="#008B09" stroke-opacity="0.97" stroke-width="0.5"/>
<path d="M49 173.933L47 175.183L47 172.683L49 173.933Z" fill="#008B09" fill-opacity="0.97"/>
<path d="M48.0566 173.933L47.5 174.28V173.584L48.0566 173.933Z" stroke="#008B09" stroke-opacity="0.97"/>
<path d="M34 173.933L36 175.183L36 172.683L34 173.933Z" fill="#008B09" fill-opacity="0.97"/>
<path d="M34.9434 173.933L35.5 174.28V173.584L34.9434 173.933Z" stroke="#008B09" stroke-opacity="0.97"/>
<path d="M36 173.933H47" stroke="#008B09" stroke-opacity="0.97" stroke-width="0.5"/>
<rect x="31.5" y="178.933" width="21" height="8" rx="1" fill="#008B09" fill-opacity="0.97"/>
<path d="M33.6533 184.933L33.0674 180.667H33.8203L34.1045 183.052L34.125 183.219L34.1514 183.043L34.4883 180.667H35.0771L35.4346 183.061L35.4609 183.236L35.4814 183.058L35.7715 180.667H36.5273L35.9355 184.933H35.1914L34.8193 182.63L34.7871 182.413L34.7549 182.63L34.3975 184.933H33.6533ZM37.2246 181.763H38.9502V184.271H39.8086V184.933H37.2246V184.271H38.127V182.428H37.2246V181.763ZM38.0684 180.951C38.0684 180.889 38.0791 180.831 38.1006 180.778C38.124 180.724 38.1562 180.677 38.1973 180.638C38.2383 180.601 38.2871 180.571 38.3438 180.55C38.4023 180.528 38.4668 180.518 38.5371 180.518C38.6816 180.518 38.7959 180.559 38.8799 180.641C38.9658 180.721 39.0088 180.824 39.0088 180.951C39.0088 181.078 38.9658 181.183 38.8799 181.265C38.7959 181.345 38.6816 181.385 38.5371 181.385C38.4668 181.385 38.4023 181.374 38.3438 181.353C38.2871 181.331 38.2383 181.301 38.1973 181.262C38.1562 181.225 38.124 181.18 38.1006 181.127C38.0791 181.072 38.0684 181.014 38.0684 180.951ZM40.5264 183.324C40.5264 183.084 40.5537 182.864 40.6084 182.665C40.665 182.466 40.7471 182.295 40.8545 182.152C40.9619 182.01 41.0918 181.9 41.2441 181.821C41.3984 181.743 41.5742 181.704 41.7715 181.704C41.9375 181.704 42.083 181.735 42.208 181.795C42.335 181.854 42.4473 181.938 42.5449 182.047V180.433H43.3623V184.933H42.627L42.5859 184.602C42.4863 184.725 42.3691 184.82 42.2344 184.889C42.0996 184.957 41.9434 184.991 41.7656 184.991C41.5723 184.991 41.3984 184.951 41.2441 184.871C41.0918 184.789 40.9629 184.677 40.8574 184.534C40.75 184.392 40.668 184.223 40.6113 184.027C40.5547 183.83 40.5264 183.616 40.5264 183.386V183.324ZM41.3408 183.386C41.3408 183.519 41.3516 183.643 41.373 183.758C41.3965 183.871 41.4336 183.97 41.4844 184.054C41.5352 184.14 41.6006 184.207 41.6807 184.256C41.7607 184.305 41.8584 184.329 41.9736 184.329C42.1143 184.329 42.2305 184.299 42.3223 184.238C42.416 184.178 42.4902 184.095 42.5449 183.989V182.706C42.4902 182.599 42.417 182.516 42.3252 182.457C42.2334 182.397 42.1182 182.366 41.9795 182.366C41.8643 182.366 41.7656 182.392 41.6836 182.443C41.6035 182.491 41.5381 182.559 41.4873 182.645C41.4365 182.733 41.3994 182.835 41.376 182.952C41.3525 183.068 41.3408 183.192 41.3408 183.324V183.386ZM45.709 180.986V181.763H46.8926V182.363H45.709V183.726C45.709 183.841 45.7217 183.938 45.7471 184.016C45.7744 184.092 45.8125 184.152 45.8613 184.197C45.9102 184.244 45.9688 184.277 46.0371 184.297C46.1074 184.317 46.1855 184.326 46.2715 184.326C46.334 184.326 46.3975 184.323 46.4619 184.318C46.5283 184.312 46.5918 184.304 46.6523 184.294C46.7109 184.286 46.7656 184.277 46.8164 184.268C46.8691 184.258 46.9141 184.248 46.9512 184.238L47.0303 184.798C46.9736 184.831 46.9072 184.861 46.8311 184.886C46.7549 184.909 46.6738 184.929 46.5879 184.944C46.502 184.96 46.4121 184.972 46.3184 184.98C46.2266 184.989 46.1357 184.994 46.0459 184.994C45.8721 184.994 45.7139 184.972 45.5713 184.927C45.4307 184.88 45.3105 184.808 45.2109 184.71C45.1094 184.614 45.0312 184.492 44.9766 184.344C44.9219 184.194 44.8945 184.014 44.8945 183.805V182.363H44.1709V181.763H44.8945V180.986H45.709ZM48.6328 182.199C48.6738 182.139 48.7188 182.083 48.7676 182.032C48.8184 181.98 48.8711 181.934 48.9258 181.895C49.0098 181.834 49.1025 181.787 49.2041 181.754C49.3057 181.721 49.4131 181.704 49.5264 181.704C49.6924 181.704 49.8447 181.73 49.9834 181.78C50.1221 181.829 50.2412 181.906 50.3408 182.012C50.4404 182.117 50.5176 182.253 50.5723 182.419C50.6289 182.583 50.6572 182.781 50.6572 183.014V184.933H49.8428V183.008C49.8428 182.895 49.8281 182.797 49.7988 182.715C49.7715 182.633 49.7314 182.567 49.6787 182.516C49.626 182.465 49.5625 182.428 49.4883 182.404C49.4141 182.379 49.3301 182.366 49.2363 182.366C49.1641 182.366 49.0967 182.373 49.0342 182.387C48.9717 182.401 48.915 182.421 48.8643 182.448C48.8174 182.472 48.7744 182.5 48.7354 182.533C48.6982 182.567 48.6641 182.604 48.6328 182.645V184.933H47.8184V180.433H48.6328V182.199Z" fill="white"/>
<line x1="4.25" y1="119.5" x2="34.1123" y2="136.741" stroke="#D50032" stroke-dasharray="2 2"/>
<line y1="90.5" x2="96" y2="90.5" stroke="white"/>
</svg>
