<svg width="89" height="80" viewBox="0 0 89 80" fill="none" xmlns="http://www.w3.org/2000/svg">
<rect width="89" height="80" fill="#1E1E1E"/>
<path d="M37.4994 1L44.9993 8.49577V30.9831V63.4647H37.4994H29.9995V30.9831V8.49577L37.4994 1Z" fill="white"/>
<path d="M0 38.4789L4.99992 33.4817H27.4995C28.8802 33.4817 29.9995 32.363 29.9995 30.9831V45.9746C29.9995 44.5947 28.8802 43.476 27.4995 43.476H4.99992L0 38.4789Z" fill="white"/>
<path d="M58 1L50 1" stroke="#D50032" stroke-width="0.5"/>
<path d="M58 33L50 33" stroke="#D50032" stroke-width="0.5"/>
<path d="M54 33L52.75 31L55.25 31L54 33Z" fill="#D50032"/>
<path d="M54 1L52.75 3L55.25 3L54 1Z" fill="#D50032"/>
<path d="M54 3L54 31" stroke="#D50032" stroke-width="0.5"/>
<rect x="58" y="12" width="17" height="8" rx="1" fill="#D50032"/>
<path d="M62.3018 16.1309H60.5498V17.335H62.5977V18H59.7236V13.7344H62.5889V14.4053H60.5498V15.4805H62.3018V16.1309ZM64.7598 15.8203L65.457 14.8301H66.333L65.2695 16.3857L66.3711 18H65.4922L64.7627 16.9629L64.0391 18H63.1572L64.2588 16.3857L63.1982 14.8301H64.0742L64.7598 15.8203ZM67.1299 14.8301H68.8555V17.3379H69.7139V18H67.1299V17.3379H68.0322V15.4951H67.1299V14.8301ZM67.9736 14.0186C67.9736 13.9561 67.9844 13.8984 68.0059 13.8457C68.0293 13.791 68.0615 13.7441 68.1025 13.7051C68.1436 13.668 68.1924 13.6387 68.249 13.6172C68.3076 13.5957 68.3721 13.585 68.4424 13.585C68.5869 13.585 68.7012 13.626 68.7852 13.708C68.8711 13.7881 68.9141 13.8916 68.9141 14.0186C68.9141 14.1455 68.8711 14.25 68.7852 14.332C68.7012 14.4121 68.5869 14.4521 68.4424 14.4521C68.3721 14.4521 68.3076 14.4414 68.249 14.4199C68.1924 14.3984 68.1436 14.3682 68.1025 14.3291C68.0615 14.292 68.0293 14.2471 68.0059 14.1943C67.9844 14.1396 67.9736 14.0811 67.9736 14.0186ZM72.0107 14.0537V14.8301H73.1943V15.4307H72.0107V16.793C72.0107 16.9082 72.0234 17.0049 72.0488 17.083C72.0762 17.1592 72.1143 17.2197 72.1631 17.2646C72.2119 17.3115 72.2705 17.3447 72.3389 17.3643C72.4092 17.3838 72.4873 17.3936 72.5732 17.3936C72.6357 17.3936 72.6992 17.3906 72.7637 17.3848C72.8301 17.3789 72.8936 17.3711 72.9541 17.3613C73.0127 17.3535 73.0674 17.3447 73.1182 17.335C73.1709 17.3252 73.2158 17.3154 73.2529 17.3057L73.332 17.8652C73.2754 17.8984 73.209 17.9277 73.1328 17.9531C73.0566 17.9766 72.9756 17.9961 72.8896 18.0117C72.8037 18.0273 72.7139 18.0391 72.6201 18.0469C72.5283 18.0566 72.4375 18.0615 72.3477 18.0615C72.1738 18.0615 72.0156 18.0391 71.873 17.9941C71.7324 17.9473 71.6123 17.875 71.5127 17.7773C71.4111 17.6816 71.333 17.5596 71.2783 17.4111C71.2236 17.2607 71.1963 17.0811 71.1963 16.8721V15.4307H70.4727V14.8301H71.1963V14.0537H72.0107Z" fill="white"/>
<path d="M58 44L50 44" stroke="#D50032" stroke-width="0.5"/>
<path d="M58 63L50 63" stroke="#D50032" stroke-width="0.5"/>
<path d="M54 63L52.75 61L55.25 61L54 63Z" fill="#D50032"/>
<path d="M54 44L52.75 46L55.25 46L54 44Z" fill="#D50032"/>
<path d="M54 46L54 61" stroke="#D50032" stroke-width="0.5"/>
<rect x="58" y="49" width="31" height="8" rx="1" fill="#D50032"/>
<path d="M61.5674 54.1094H60.2871L60.0352 55H59.168L60.5654 50.7344H61.3125L62.6836 55H61.8164L61.5674 54.1094ZM60.4893 53.4092H61.374L60.9375 51.8389L60.4893 53.4092ZM63.1143 56.2188V51.8301H63.8672L63.8965 52.1406C63.9395 52.0879 63.9863 52.041 64.0371 52C64.0879 51.957 64.1426 51.9199 64.2012 51.8887C64.2715 51.8516 64.3486 51.8232 64.4326 51.8037C64.5186 51.7822 64.6104 51.7715 64.708 51.7715C64.9092 51.7715 65.0869 51.8105 65.2412 51.8887C65.3955 51.9648 65.5254 52.0732 65.6309 52.2139C65.7363 52.3564 65.8154 52.5273 65.8682 52.7266C65.9229 52.9238 65.9502 53.1426 65.9502 53.3828V53.4443C65.9502 53.6748 65.9229 53.8887 65.8682 54.0859C65.8154 54.2832 65.7373 54.4531 65.6338 54.5957C65.5283 54.7402 65.3984 54.8535 65.2441 54.9355C65.0898 55.0176 64.9131 55.0586 64.7139 55.0586C64.6084 55.0586 64.5107 55.0469 64.4209 55.0234C64.333 55.002 64.251 54.9697 64.1748 54.9268C64.1299 54.8994 64.0869 54.8691 64.0459 54.8359C64.0049 54.8027 63.9658 54.7656 63.9287 54.7246V56.2188H63.1143ZM65.1357 53.3828C65.1357 53.25 65.123 53.126 65.0977 53.0107C65.0742 52.8936 65.0371 52.792 64.9863 52.7061C64.9336 52.6221 64.8662 52.5557 64.7842 52.5068C64.7041 52.458 64.6064 52.4336 64.4912 52.4336C64.4248 52.4336 64.3643 52.4404 64.3096 52.4541C64.2549 52.4658 64.2051 52.4834 64.1602 52.5068C64.1094 52.5342 64.0645 52.5684 64.0254 52.6094C63.9883 52.6504 63.9561 52.6982 63.9287 52.7529V54.0771C63.9541 54.1279 63.9844 54.1738 64.0195 54.2148C64.0566 54.2559 64.0986 54.291 64.1455 54.3203C64.1904 54.3477 64.2422 54.3691 64.3008 54.3848C64.3594 54.3984 64.4248 54.4053 64.4971 54.4053C64.6123 54.4053 64.71 54.3799 64.79 54.3291C64.8721 54.2783 64.9385 54.209 64.9893 54.1211C65.04 54.0332 65.0771 53.9316 65.1006 53.8164C65.124 53.6992 65.1357 53.5752 65.1357 53.4443V53.3828ZM66.7178 56.2188V51.8301H67.4707L67.5 52.1406C67.543 52.0879 67.5898 52.041 67.6406 52C67.6914 51.957 67.7461 51.9199 67.8047 51.8887C67.875 51.8516 67.9521 51.8232 68.0361 51.8037C68.1221 51.7822 68.2139 51.7715 68.3115 51.7715C68.5127 51.7715 68.6904 51.8105 68.8447 51.8887C68.999 51.9648 69.1289 52.0732 69.2344 52.2139C69.3398 52.3564 69.4189 52.5273 69.4717 52.7266C69.5264 52.9238 69.5537 53.1426 69.5537 53.3828V53.4443C69.5537 53.6748 69.5264 53.8887 69.4717 54.0859C69.4189 54.2832 69.3408 54.4531 69.2373 54.5957C69.1318 54.7402 69.002 54.8535 68.8477 54.9355C68.6934 55.0176 68.5166 55.0586 68.3174 55.0586C68.2119 55.0586 68.1143 55.0469 68.0244 55.0234C67.9365 55.002 67.8545 54.9697 67.7783 54.9268C67.7334 54.8994 67.6904 54.8691 67.6494 54.8359C67.6084 54.8027 67.5693 54.7656 67.5322 54.7246V56.2188H66.7178ZM68.7393 53.3828C68.7393 53.25 68.7266 53.126 68.7012 53.0107C68.6777 52.8936 68.6406 52.792 68.5898 52.7061C68.5371 52.6221 68.4697 52.5557 68.3877 52.5068C68.3076 52.458 68.21 52.4336 68.0947 52.4336C68.0283 52.4336 67.9678 52.4404 67.9131 52.4541C67.8584 52.4658 67.8086 52.4834 67.7637 52.5068C67.7129 52.5342 67.668 52.5684 67.6289 52.6094C67.5918 52.6504 67.5596 52.6982 67.5322 52.7529V54.0771C67.5576 54.1279 67.5879 54.1738 67.623 54.2148C67.6602 54.2559 67.7021 54.291 67.749 54.3203C67.7939 54.3477 67.8457 54.3691 67.9043 54.3848C67.9629 54.3984 68.0283 54.4053 68.1006 54.4053C68.2158 54.4053 68.3135 54.3799 68.3936 54.3291C68.4756 54.2783 68.542 54.209 68.5928 54.1211C68.6436 54.0332 68.6807 53.9316 68.7041 53.8164C68.7275 53.6992 68.7393 53.5752 68.7393 53.4443V53.3828ZM72.5859 51.7715C72.709 51.7715 72.8223 51.7803 72.9258 51.7979C73.0312 51.8135 73.1162 51.8311 73.1807 51.8506L73.0605 52.6621C72.9531 52.6367 72.8428 52.6182 72.7295 52.6064C72.6182 52.5928 72.5117 52.5859 72.4102 52.5859C72.3047 52.5859 72.209 52.5957 72.123 52.6152C72.0391 52.6328 71.9639 52.6602 71.8975 52.6973C71.8174 52.7402 71.749 52.7949 71.6924 52.8613C71.6357 52.9277 71.5889 53.0059 71.5518 53.0957V55H70.7373V51.8301H71.4961L71.5283 52.2783L71.5342 52.3486C71.6631 52.1689 71.8174 52.0283 71.9971 51.9268C72.1768 51.8232 72.373 51.7715 72.5859 51.7715ZM73.8018 53.3857C73.8018 53.1553 73.835 52.9424 73.9014 52.7471C73.9678 52.5498 74.0654 52.3789 74.1943 52.2344C74.3213 52.0898 74.4766 51.9766 74.6602 51.8945C74.8457 51.8125 75.0576 51.7715 75.2959 51.7715C75.5342 51.7715 75.7461 51.8125 75.9316 51.8945C76.1172 51.9766 76.2744 52.0898 76.4033 52.2344C76.5303 52.3789 76.627 52.5498 76.6934 52.7471C76.7598 52.9424 76.793 53.1553 76.793 53.3857V53.4473C76.793 53.6797 76.7598 53.8945 76.6934 54.0918C76.627 54.2871 76.5303 54.457 76.4033 54.6016C76.2764 54.7461 76.1201 54.8594 75.9346 54.9414C75.749 55.0215 75.5381 55.0615 75.3018 55.0615C75.0635 55.0615 74.8506 55.0215 74.6631 54.9414C74.4775 54.8594 74.3213 54.7461 74.1943 54.6016C74.0654 54.457 73.9678 54.2871 73.9014 54.0918C73.835 53.8945 73.8018 53.6797 73.8018 53.4473V53.3857ZM74.6162 53.4473C74.6162 53.5801 74.6289 53.7051 74.6543 53.8223C74.6797 53.9375 74.7197 54.0381 74.7744 54.124C74.8291 54.2119 74.8994 54.2812 74.9854 54.332C75.0732 54.3828 75.1787 54.4082 75.3018 54.4082C75.4209 54.4082 75.5234 54.3828 75.6094 54.332C75.6953 54.2812 75.7656 54.2119 75.8203 54.124C75.873 54.0381 75.9121 53.9375 75.9375 53.8223C75.9629 53.7051 75.9756 53.5801 75.9756 53.4473V53.3857C75.9756 53.2568 75.9629 53.1348 75.9375 53.0195C75.9121 52.9043 75.873 52.8027 75.8203 52.7148C75.7656 52.627 75.6953 52.5576 75.6094 52.5068C75.5234 52.4561 75.4189 52.4307 75.2959 52.4307C75.1748 52.4307 75.0713 52.4561 74.9854 52.5068C74.8994 52.5576 74.8291 52.627 74.7744 52.7148C74.7197 52.8027 74.6797 52.9043 74.6543 53.0195C74.6289 53.1348 74.6162 53.2568 74.6162 53.3857V53.4473ZM79.4971 55C79.4775 54.9609 79.4609 54.916 79.4473 54.8652C79.4336 54.8145 79.4219 54.7607 79.4121 54.7041C79.3672 54.7529 79.3154 54.7988 79.2568 54.8418C79.1982 54.8848 79.1338 54.9219 79.0635 54.9531C78.9912 54.9863 78.9121 55.0117 78.8262 55.0293C78.7402 55.0488 78.6475 55.0586 78.5479 55.0586C78.3857 55.0586 78.2363 55.0352 78.0996 54.9883C77.9648 54.9414 77.8486 54.876 77.751 54.792C77.6533 54.708 77.5771 54.6084 77.5225 54.4932C77.4678 54.376 77.4404 54.249 77.4404 54.1123C77.4404 53.9365 77.4746 53.7812 77.543 53.6465C77.6113 53.5098 77.7139 53.3975 77.8506 53.3096C77.9736 53.2295 78.125 53.1689 78.3047 53.1279C78.4863 53.085 78.6943 53.0635 78.9287 53.0635H79.3828V52.876C79.3828 52.8018 79.3711 52.7354 79.3477 52.6768C79.3242 52.6162 79.2891 52.5645 79.2422 52.5215C79.1934 52.4766 79.1318 52.4424 79.0576 52.4189C78.9854 52.3936 78.9004 52.3809 78.8027 52.3809C78.7168 52.3809 78.6426 52.3916 78.5801 52.4131C78.5176 52.4326 78.4668 52.4609 78.4277 52.498C78.3926 52.5312 78.3662 52.5713 78.3486 52.6182C78.333 52.665 78.3252 52.7168 78.3252 52.7734H77.5107C77.5107 52.6387 77.54 52.5107 77.5986 52.3896C77.6592 52.2686 77.7471 52.1621 77.8623 52.0703C77.9756 51.9785 78.1143 51.9062 78.2783 51.8535C78.4443 51.7988 78.6338 51.7715 78.8467 51.7715C79.0381 51.7715 79.2158 51.7949 79.3799 51.8418C79.5459 51.8887 79.6895 51.958 79.8105 52.0498C79.9316 52.1416 80.0264 52.2578 80.0947 52.3984C80.1631 52.5371 80.1973 52.6982 80.1973 52.8818V54.2412C80.1973 54.4111 80.208 54.5518 80.2295 54.6631C80.251 54.7744 80.2822 54.8701 80.3232 54.9502V55H79.4971ZM78.7207 54.4287C78.8027 54.4287 78.8789 54.4189 78.9492 54.3994C79.0195 54.3799 79.083 54.3545 79.1396 54.3232C79.1963 54.292 79.2451 54.2568 79.2861 54.2178C79.3271 54.1768 79.3594 54.1357 79.3828 54.0947V53.5498H78.9668C78.8398 53.5498 78.7314 53.5625 78.6416 53.5879C78.5518 53.6113 78.4785 53.6445 78.4219 53.6875C78.3652 53.7324 78.3232 53.7861 78.2959 53.8486C78.2686 53.9092 78.2549 53.9756 78.2549 54.0479C78.2549 54.1045 78.2646 54.1572 78.2842 54.2061C78.3057 54.2529 78.3359 54.293 78.375 54.3262C78.4141 54.3574 78.4619 54.3828 78.5186 54.4023C78.5771 54.4199 78.6445 54.4287 78.7207 54.4287ZM82.5234 54.4082C82.6035 54.4082 82.6797 54.3965 82.752 54.373C82.8242 54.3496 82.8877 54.3164 82.9424 54.2734C82.9971 54.2305 83.0391 54.1787 83.0684 54.1182C83.0996 54.0576 83.1133 53.9902 83.1094 53.916H83.877C83.8809 54.0801 83.8467 54.2324 83.7744 54.373C83.7041 54.5137 83.6074 54.6348 83.4844 54.7363C83.3613 54.8379 83.2178 54.918 83.0537 54.9766C82.8916 55.0332 82.7197 55.0615 82.5381 55.0615C82.292 55.0615 82.0762 55.0205 81.8906 54.9385C81.7051 54.8545 81.5508 54.7402 81.4277 54.5957C81.3027 54.4512 81.208 54.2822 81.1436 54.0889C81.0811 53.8936 81.0498 53.6846 81.0498 53.4619V53.374C81.0498 53.1514 81.0811 52.9434 81.1436 52.75C81.2061 52.5547 81.2998 52.3848 81.4248 52.2402C81.5498 52.0957 81.7041 51.9814 81.8877 51.8975C82.0732 51.8135 82.2881 51.7715 82.5322 51.7715C82.7275 51.7715 82.9082 51.8008 83.0742 51.8594C83.2402 51.918 83.3838 52 83.5049 52.1055C83.624 52.2129 83.7168 52.3428 83.7832 52.4951C83.8496 52.6455 83.8809 52.8145 83.877 53.002H83.1094C83.1133 52.9238 83.1016 52.8496 83.0742 52.7793C83.0469 52.709 83.0068 52.6484 82.9541 52.5977C82.9014 52.5469 82.8379 52.5068 82.7637 52.4775C82.6895 52.4463 82.6084 52.4307 82.5205 52.4307C82.3916 52.4307 82.2852 52.457 82.2012 52.5098C82.1172 52.5625 82.0508 52.6328 82.002 52.7207C81.9512 52.8086 81.915 52.9092 81.8936 53.0225C81.874 53.1357 81.8643 53.2529 81.8643 53.374V53.4619C81.8643 53.585 81.874 53.7041 81.8936 53.8193C81.9131 53.9326 81.9482 54.0322 81.999 54.1182C82.0479 54.2061 82.1143 54.2764 82.1982 54.3291C82.2842 54.3818 82.3926 54.4082 82.5234 54.4082ZM85.5381 52.2666C85.5791 52.2061 85.624 52.1504 85.6729 52.0996C85.7236 52.0469 85.7764 52.001 85.8311 51.9619C85.915 51.9014 86.0078 51.8545 86.1094 51.8213C86.2109 51.7881 86.3184 51.7715 86.4316 51.7715C86.5977 51.7715 86.75 51.7969 86.8887 51.8477C87.0273 51.8965 87.1465 51.9736 87.2461 52.0791C87.3457 52.1846 87.4229 52.3203 87.4775 52.4863C87.5342 52.6504 87.5625 52.8486 87.5625 53.0811V55H86.748V53.0752C86.748 52.9619 86.7334 52.8643 86.7041 52.7822C86.6768 52.7002 86.6367 52.6338 86.584 52.583C86.5312 52.5322 86.4678 52.4951 86.3936 52.4717C86.3193 52.4463 86.2354 52.4336 86.1416 52.4336C86.0693 52.4336 86.002 52.4404 85.9395 52.4541C85.877 52.4678 85.8203 52.4883 85.7695 52.5156C85.7227 52.5391 85.6797 52.5674 85.6406 52.6006C85.6035 52.6338 85.5693 52.6709 85.5381 52.7119V55H84.7236V50.5H85.5381V52.2666Z" fill="white"/>
<path d="M58 1L50 1" stroke="#D50032" stroke-width="0.5"/>
<path d="M58 33L50 33" stroke="#D50032" stroke-width="0.5"/>
<path d="M54 33L52.75 31L55.25 31L54 33Z" fill="#D50032"/>
<path d="M54 1L52.75 3L55.25 3L54 1Z" fill="#D50032"/>
<path d="M54 3L54 31" stroke="#D50032" stroke-width="0.5"/>
<rect x="58" y="12" width="17" height="8" rx="1" fill="#D50032"/>
<path d="M62.3018 16.1309H60.5498V17.335H62.5977V18H59.7236V13.7344H62.5889V14.4053H60.5498V15.4805H62.3018V16.1309ZM64.7598 15.8203L65.457 14.8301H66.333L65.2695 16.3857L66.3711 18H65.4922L64.7627 16.9629L64.0391 18H63.1572L64.2588 16.3857L63.1982 14.8301H64.0742L64.7598 15.8203ZM67.1299 14.8301H68.8555V17.3379H69.7139V18H67.1299V17.3379H68.0322V15.4951H67.1299V14.8301ZM67.9736 14.0186C67.9736 13.9561 67.9844 13.8984 68.0059 13.8457C68.0293 13.791 68.0615 13.7441 68.1025 13.7051C68.1436 13.668 68.1924 13.6387 68.249 13.6172C68.3076 13.5957 68.3721 13.585 68.4424 13.585C68.5869 13.585 68.7012 13.626 68.7852 13.708C68.8711 13.7881 68.9141 13.8916 68.9141 14.0186C68.9141 14.1455 68.8711 14.25 68.7852 14.332C68.7012 14.4121 68.5869 14.4521 68.4424 14.4521C68.3721 14.4521 68.3076 14.4414 68.249 14.4199C68.1924 14.3984 68.1436 14.3682 68.1025 14.3291C68.0615 14.292 68.0293 14.2471 68.0059 14.1943C67.9844 14.1396 67.9736 14.0811 67.9736 14.0186ZM72.0107 14.0537V14.8301H73.1943V15.4307H72.0107V16.793C72.0107 16.9082 72.0234 17.0049 72.0488 17.083C72.0762 17.1592 72.1143 17.2197 72.1631 17.2646C72.2119 17.3115 72.2705 17.3447 72.3389 17.3643C72.4092 17.3838 72.4873 17.3936 72.5732 17.3936C72.6357 17.3936 72.6992 17.3906 72.7637 17.3848C72.8301 17.3789 72.8936 17.3711 72.9541 17.3613C73.0127 17.3535 73.0674 17.3447 73.1182 17.335C73.1709 17.3252 73.2158 17.3154 73.2529 17.3057L73.332 17.8652C73.2754 17.8984 73.209 17.9277 73.1328 17.9531C73.0566 17.9766 72.9756 17.9961 72.8896 18.0117C72.8037 18.0273 72.7139 18.0391 72.6201 18.0469C72.5283 18.0566 72.4375 18.0615 72.3477 18.0615C72.1738 18.0615 72.0156 18.0391 71.873 17.9941C71.7324 17.9473 71.6123 17.875 71.5127 17.7773C71.4111 17.6816 71.333 17.5596 71.2783 17.4111C71.2236 17.2607 71.1963 17.0811 71.1963 16.8721V15.4307H70.4727V14.8301H71.1963V14.0537H72.0107Z" fill="white"/>
<path d="M58 44L50 44" stroke="#D50032" stroke-width="0.5"/>
<path d="M58 63L50 63" stroke="#D50032" stroke-width="0.5"/>
<path d="M54 63L52.75 61L55.25 61L54 63Z" fill="#D50032"/>
<path d="M54 44L52.75 46L55.25 46L54 44Z" fill="#D50032"/>
<path d="M54 46L54 61" stroke="#D50032" stroke-width="0.5"/>
<rect x="58" y="49" width="31" height="8" rx="1" fill="#D50032"/>
<path d="M61.5674 54.1094H60.2871L60.0352 55H59.168L60.5654 50.7344H61.3125L62.6836 55H61.8164L61.5674 54.1094ZM60.4893 53.4092H61.374L60.9375 51.8389L60.4893 53.4092ZM63.1143 56.2188V51.8301H63.8672L63.8965 52.1406C63.9395 52.0879 63.9863 52.041 64.0371 52C64.0879 51.957 64.1426 51.9199 64.2012 51.8887C64.2715 51.8516 64.3486 51.8232 64.4326 51.8037C64.5186 51.7822 64.6104 51.7715 64.708 51.7715C64.9092 51.7715 65.0869 51.8105 65.2412 51.8887C65.3955 51.9648 65.5254 52.0732 65.6309 52.2139C65.7363 52.3564 65.8154 52.5273 65.8682 52.7266C65.9229 52.9238 65.9502 53.1426 65.9502 53.3828V53.4443C65.9502 53.6748 65.9229 53.8887 65.8682 54.0859C65.8154 54.2832 65.7373 54.4531 65.6338 54.5957C65.5283 54.7402 65.3984 54.8535 65.2441 54.9355C65.0898 55.0176 64.9131 55.0586 64.7139 55.0586C64.6084 55.0586 64.5107 55.0469 64.4209 55.0234C64.333 55.002 64.251 54.9697 64.1748 54.9268C64.1299 54.8994 64.0869 54.8691 64.0459 54.8359C64.0049 54.8027 63.9658 54.7656 63.9287 54.7246V56.2188H63.1143ZM65.1357 53.3828C65.1357 53.25 65.123 53.126 65.0977 53.0107C65.0742 52.8936 65.0371 52.792 64.9863 52.7061C64.9336 52.6221 64.8662 52.5557 64.7842 52.5068C64.7041 52.458 64.6064 52.4336 64.4912 52.4336C64.4248 52.4336 64.3643 52.4404 64.3096 52.4541C64.2549 52.4658 64.2051 52.4834 64.1602 52.5068C64.1094 52.5342 64.0645 52.5684 64.0254 52.6094C63.9883 52.6504 63.9561 52.6982 63.9287 52.7529V54.0771C63.9541 54.1279 63.9844 54.1738 64.0195 54.2148C64.0566 54.2559 64.0986 54.291 64.1455 54.3203C64.1904 54.3477 64.2422 54.3691 64.3008 54.3848C64.3594 54.3984 64.4248 54.4053 64.4971 54.4053C64.6123 54.4053 64.71 54.3799 64.79 54.3291C64.8721 54.2783 64.9385 54.209 64.9893 54.1211C65.04 54.0332 65.0771 53.9316 65.1006 53.8164C65.124 53.6992 65.1357 53.5752 65.1357 53.4443V53.3828ZM66.7178 56.2188V51.8301H67.4707L67.5 52.1406C67.543 52.0879 67.5898 52.041 67.6406 52C67.6914 51.957 67.7461 51.9199 67.8047 51.8887C67.875 51.8516 67.9521 51.8232 68.0361 51.8037C68.1221 51.7822 68.2139 51.7715 68.3115 51.7715C68.5127 51.7715 68.6904 51.8105 68.8447 51.8887C68.999 51.9648 69.1289 52.0732 69.2344 52.2139C69.3398 52.3564 69.4189 52.5273 69.4717 52.7266C69.5264 52.9238 69.5537 53.1426 69.5537 53.3828V53.4443C69.5537 53.6748 69.5264 53.8887 69.4717 54.0859C69.4189 54.2832 69.3408 54.4531 69.2373 54.5957C69.1318 54.7402 69.002 54.8535 68.8477 54.9355C68.6934 55.0176 68.5166 55.0586 68.3174 55.0586C68.2119 55.0586 68.1143 55.0469 68.0244 55.0234C67.9365 55.002 67.8545 54.9697 67.7783 54.9268C67.7334 54.8994 67.6904 54.8691 67.6494 54.8359C67.6084 54.8027 67.5693 54.7656 67.5322 54.7246V56.2188H66.7178ZM68.7393 53.3828C68.7393 53.25 68.7266 53.126 68.7012 53.0107C68.6777 52.8936 68.6406 52.792 68.5898 52.7061C68.5371 52.6221 68.4697 52.5557 68.3877 52.5068C68.3076 52.458 68.21 52.4336 68.0947 52.4336C68.0283 52.4336 67.9678 52.4404 67.9131 52.4541C67.8584 52.4658 67.8086 52.4834 67.7637 52.5068C67.7129 52.5342 67.668 52.5684 67.6289 52.6094C67.5918 52.6504 67.5596 52.6982 67.5322 52.7529V54.0771C67.5576 54.1279 67.5879 54.1738 67.623 54.2148C67.6602 54.2559 67.7021 54.291 67.749 54.3203C67.7939 54.3477 67.8457 54.3691 67.9043 54.3848C67.9629 54.3984 68.0283 54.4053 68.1006 54.4053C68.2158 54.4053 68.3135 54.3799 68.3936 54.3291C68.4756 54.2783 68.542 54.209 68.5928 54.1211C68.6436 54.0332 68.6807 53.9316 68.7041 53.8164C68.7275 53.6992 68.7393 53.5752 68.7393 53.4443V53.3828ZM72.5859 51.7715C72.709 51.7715 72.8223 51.7803 72.9258 51.7979C73.0312 51.8135 73.1162 51.8311 73.1807 51.8506L73.0605 52.6621C72.9531 52.6367 72.8428 52.6182 72.7295 52.6064C72.6182 52.5928 72.5117 52.5859 72.4102 52.5859C72.3047 52.5859 72.209 52.5957 72.123 52.6152C72.0391 52.6328 71.9639 52.6602 71.8975 52.6973C71.8174 52.7402 71.749 52.7949 71.6924 52.8613C71.6357 52.9277 71.5889 53.0059 71.5518 53.0957V55H70.7373V51.8301H71.4961L71.5283 52.2783L71.5342 52.3486C71.6631 52.1689 71.8174 52.0283 71.9971 51.9268C72.1768 51.8232 72.373 51.7715 72.5859 51.7715ZM73.8018 53.3857C73.8018 53.1553 73.835 52.9424 73.9014 52.7471C73.9678 52.5498 74.0654 52.3789 74.1943 52.2344C74.3213 52.0898 74.4766 51.9766 74.6602 51.8945C74.8457 51.8125 75.0576 51.7715 75.2959 51.7715C75.5342 51.7715 75.7461 51.8125 75.9316 51.8945C76.1172 51.9766 76.2744 52.0898 76.4033 52.2344C76.5303 52.3789 76.627 52.5498 76.6934 52.7471C76.7598 52.9424 76.793 53.1553 76.793 53.3857V53.4473C76.793 53.6797 76.7598 53.8945 76.6934 54.0918C76.627 54.2871 76.5303 54.457 76.4033 54.6016C76.2764 54.7461 76.1201 54.8594 75.9346 54.9414C75.749 55.0215 75.5381 55.0615 75.3018 55.0615C75.0635 55.0615 74.8506 55.0215 74.6631 54.9414C74.4775 54.8594 74.3213 54.7461 74.1943 54.6016C74.0654 54.457 73.9678 54.2871 73.9014 54.0918C73.835 53.8945 73.8018 53.6797 73.8018 53.4473V53.3857ZM74.6162 53.4473C74.6162 53.5801 74.6289 53.7051 74.6543 53.8223C74.6797 53.9375 74.7197 54.0381 74.7744 54.124C74.8291 54.2119 74.8994 54.2812 74.9854 54.332C75.0732 54.3828 75.1787 54.4082 75.3018 54.4082C75.4209 54.4082 75.5234 54.3828 75.6094 54.332C75.6953 54.2812 75.7656 54.2119 75.8203 54.124C75.873 54.0381 75.9121 53.9375 75.9375 53.8223C75.9629 53.7051 75.9756 53.5801 75.9756 53.4473V53.3857C75.9756 53.2568 75.9629 53.1348 75.9375 53.0195C75.9121 52.9043 75.873 52.8027 75.8203 52.7148C75.7656 52.627 75.6953 52.5576 75.6094 52.5068C75.5234 52.4561 75.4189 52.4307 75.2959 52.4307C75.1748 52.4307 75.0713 52.4561 74.9854 52.5068C74.8994 52.5576 74.8291 52.627 74.7744 52.7148C74.7197 52.8027 74.6797 52.9043 74.6543 53.0195C74.6289 53.1348 74.6162 53.2568 74.6162 53.3857V53.4473ZM79.4971 55C79.4775 54.9609 79.4609 54.916 79.4473 54.8652C79.4336 54.8145 79.4219 54.7607 79.4121 54.7041C79.3672 54.7529 79.3154 54.7988 79.2568 54.8418C79.1982 54.8848 79.1338 54.9219 79.0635 54.9531C78.9912 54.9863 78.9121 55.0117 78.8262 55.0293C78.7402 55.0488 78.6475 55.0586 78.5479 55.0586C78.3857 55.0586 78.2363 55.0352 78.0996 54.9883C77.9648 54.9414 77.8486 54.876 77.751 54.792C77.6533 54.708 77.5771 54.6084 77.5225 54.4932C77.4678 54.376 77.4404 54.249 77.4404 54.1123C77.4404 53.9365 77.4746 53.7812 77.543 53.6465C77.6113 53.5098 77.7139 53.3975 77.8506 53.3096C77.9736 53.2295 78.125 53.1689 78.3047 53.1279C78.4863 53.085 78.6943 53.0635 78.9287 53.0635H79.3828V52.876C79.3828 52.8018 79.3711 52.7354 79.3477 52.6768C79.3242 52.6162 79.2891 52.5645 79.2422 52.5215C79.1934 52.4766 79.1318 52.4424 79.0576 52.4189C78.9854 52.3936 78.9004 52.3809 78.8027 52.3809C78.7168 52.3809 78.6426 52.3916 78.5801 52.4131C78.5176 52.4326 78.4668 52.4609 78.4277 52.498C78.3926 52.5312 78.3662 52.5713 78.3486 52.6182C78.333 52.665 78.3252 52.7168 78.3252 52.7734H77.5107C77.5107 52.6387 77.54 52.5107 77.5986 52.3896C77.6592 52.2686 77.7471 52.1621 77.8623 52.0703C77.9756 51.9785 78.1143 51.9062 78.2783 51.8535C78.4443 51.7988 78.6338 51.7715 78.8467 51.7715C79.0381 51.7715 79.2158 51.7949 79.3799 51.8418C79.5459 51.8887 79.6895 51.958 79.8105 52.0498C79.9316 52.1416 80.0264 52.2578 80.0947 52.3984C80.1631 52.5371 80.1973 52.6982 80.1973 52.8818V54.2412C80.1973 54.4111 80.208 54.5518 80.2295 54.6631C80.251 54.7744 80.2822 54.8701 80.3232 54.9502V55H79.4971ZM78.7207 54.4287C78.8027 54.4287 78.8789 54.4189 78.9492 54.3994C79.0195 54.3799 79.083 54.3545 79.1396 54.3232C79.1963 54.292 79.2451 54.2568 79.2861 54.2178C79.3271 54.1768 79.3594 54.1357 79.3828 54.0947V53.5498H78.9668C78.8398 53.5498 78.7314 53.5625 78.6416 53.5879C78.5518 53.6113 78.4785 53.6445 78.4219 53.6875C78.3652 53.7324 78.3232 53.7861 78.2959 53.8486C78.2686 53.9092 78.2549 53.9756 78.2549 54.0479C78.2549 54.1045 78.2646 54.1572 78.2842 54.2061C78.3057 54.2529 78.3359 54.293 78.375 54.3262C78.4141 54.3574 78.4619 54.3828 78.5186 54.4023C78.5771 54.4199 78.6445 54.4287 78.7207 54.4287ZM82.5234 54.4082C82.6035 54.4082 82.6797 54.3965 82.752 54.373C82.8242 54.3496 82.8877 54.3164 82.9424 54.2734C82.9971 54.2305 83.0391 54.1787 83.0684 54.1182C83.0996 54.0576 83.1133 53.9902 83.1094 53.916H83.877C83.8809 54.0801 83.8467 54.2324 83.7744 54.373C83.7041 54.5137 83.6074 54.6348 83.4844 54.7363C83.3613 54.8379 83.2178 54.918 83.0537 54.9766C82.8916 55.0332 82.7197 55.0615 82.5381 55.0615C82.292 55.0615 82.0762 55.0205 81.8906 54.9385C81.7051 54.8545 81.5508 54.7402 81.4277 54.5957C81.3027 54.4512 81.208 54.2822 81.1436 54.0889C81.0811 53.8936 81.0498 53.6846 81.0498 53.4619V53.374C81.0498 53.1514 81.0811 52.9434 81.1436 52.75C81.2061 52.5547 81.2998 52.3848 81.4248 52.2402C81.5498 52.0957 81.7041 51.9814 81.8877 51.8975C82.0732 51.8135 82.2881 51.7715 82.5322 51.7715C82.7275 51.7715 82.9082 51.8008 83.0742 51.8594C83.2402 51.918 83.3838 52 83.5049 52.1055C83.624 52.2129 83.7168 52.3428 83.7832 52.4951C83.8496 52.6455 83.8809 52.8145 83.877 53.002H83.1094C83.1133 52.9238 83.1016 52.8496 83.0742 52.7793C83.0469 52.709 83.0068 52.6484 82.9541 52.5977C82.9014 52.5469 82.8379 52.5068 82.7637 52.4775C82.6895 52.4463 82.6084 52.4307 82.5205 52.4307C82.3916 52.4307 82.2852 52.457 82.2012 52.5098C82.1172 52.5625 82.0508 52.6328 82.002 52.7207C81.9512 52.8086 81.915 52.9092 81.8936 53.0225C81.874 53.1357 81.8643 53.2529 81.8643 53.374V53.4619C81.8643 53.585 81.874 53.7041 81.8936 53.8193C81.9131 53.9326 81.9482 54.0322 81.999 54.1182C82.0479 54.2061 82.1143 54.2764 82.1982 54.3291C82.2842 54.3818 82.3926 54.4082 82.5234 54.4082ZM85.5381 52.2666C85.5791 52.2061 85.624 52.1504 85.6729 52.0996C85.7236 52.0469 85.7764 52.001 85.8311 51.9619C85.915 51.9014 86.0078 51.8545 86.1094 51.8213C86.2109 51.7881 86.3184 51.7715 86.4316 51.7715C86.5977 51.7715 86.75 51.7969 86.8887 51.8477C87.0273 51.8965 87.1465 51.9736 87.2461 52.0791C87.3457 52.1846 87.4229 52.3203 87.4775 52.4863C87.5342 52.6504 87.5625 52.8486 87.5625 53.0811V55H86.748V53.0752C86.748 52.9619 86.7334 52.8643 86.7041 52.7822C86.6768 52.7002 86.6367 52.6338 86.584 52.583C86.5312 52.5322 86.4678 52.4951 86.3936 52.4717C86.3193 52.4463 86.2354 52.4336 86.1416 52.4336C86.0693 52.4336 86.002 52.4404 85.9395 52.4541C85.877 52.4678 85.8203 52.4883 85.7695 52.5156C85.7227 52.5391 85.6797 52.5674 85.6406 52.6006C85.6035 52.6338 85.5693 52.6709 85.5381 52.7119V55H84.7236V50.5H85.5381V52.2666Z" fill="white"/>
<path d="M58 1L50 1" stroke="#D50032" stroke-width="0.5"/>
<path d="M58 33L50 33" stroke="#D50032" stroke-width="0.5"/>
<path d="M54 33L52.75 31L55.25 31L54 33Z" fill="#D50032"/>
<path d="M54 1L52.75 3L55.25 3L54 1Z" fill="#D50032"/>
<path d="M54 3L54 31" stroke="#D50032" stroke-width="0.5"/>
<rect x="58" y="12" width="17" height="8" rx="1" fill="#D50032"/>
<path d="M62.3018 16.1309H60.5498V17.335H62.5977V18H59.7236V13.7344H62.5889V14.4053H60.5498V15.4805H62.3018V16.1309ZM64.7598 15.8203L65.457 14.8301H66.333L65.2695 16.3857L66.3711 18H65.4922L64.7627 16.9629L64.0391 18H63.1572L64.2588 16.3857L63.1982 14.8301H64.0742L64.7598 15.8203ZM67.1299 14.8301H68.8555V17.3379H69.7139V18H67.1299V17.3379H68.0322V15.4951H67.1299V14.8301ZM67.9736 14.0186C67.9736 13.9561 67.9844 13.8984 68.0059 13.8457C68.0293 13.791 68.0615 13.7441 68.1025 13.7051C68.1436 13.668 68.1924 13.6387 68.249 13.6172C68.3076 13.5957 68.3721 13.585 68.4424 13.585C68.5869 13.585 68.7012 13.626 68.7852 13.708C68.8711 13.7881 68.9141 13.8916 68.9141 14.0186C68.9141 14.1455 68.8711 14.25 68.7852 14.332C68.7012 14.4121 68.5869 14.4521 68.4424 14.4521C68.3721 14.4521 68.3076 14.4414 68.249 14.4199C68.1924 14.3984 68.1436 14.3682 68.1025 14.3291C68.0615 14.292 68.0293 14.2471 68.0059 14.1943C67.9844 14.1396 67.9736 14.0811 67.9736 14.0186ZM72.0107 14.0537V14.8301H73.1943V15.4307H72.0107V16.793C72.0107 16.9082 72.0234 17.0049 72.0488 17.083C72.0762 17.1592 72.1143 17.2197 72.1631 17.2646C72.2119 17.3115 72.2705 17.3447 72.3389 17.3643C72.4092 17.3838 72.4873 17.3936 72.5732 17.3936C72.6357 17.3936 72.6992 17.3906 72.7637 17.3848C72.8301 17.3789 72.8936 17.3711 72.9541 17.3613C73.0127 17.3535 73.0674 17.3447 73.1182 17.335C73.1709 17.3252 73.2158 17.3154 73.2529 17.3057L73.332 17.8652C73.2754 17.8984 73.209 17.9277 73.1328 17.9531C73.0566 17.9766 72.9756 17.9961 72.8896 18.0117C72.8037 18.0273 72.7139 18.0391 72.6201 18.0469C72.5283 18.0566 72.4375 18.0615 72.3477 18.0615C72.1738 18.0615 72.0156 18.0391 71.873 17.9941C71.7324 17.9473 71.6123 17.875 71.5127 17.7773C71.4111 17.6816 71.333 17.5596 71.2783 17.4111C71.2236 17.2607 71.1963 17.0811 71.1963 16.8721V15.4307H70.4727V14.8301H71.1963V14.0537H72.0107Z" fill="white"/>
<path d="M58 44L50 44" stroke="#D50032" stroke-width="0.5"/>
<path d="M58 63L50 63" stroke="#D50032" stroke-width="0.5"/>
<path d="M54 63L52.75 61L55.25 61L54 63Z" fill="#D50032"/>
<path d="M54 44L52.75 46L55.25 46L54 44Z" fill="#D50032"/>
<path d="M54 46L54 61" stroke="#D50032" stroke-width="0.5"/>
<rect x="58" y="49" width="31" height="8" rx="1" fill="#D50032"/>
<path d="M61.5674 54.1094H60.2871L60.0352 55H59.168L60.5654 50.7344H61.3125L62.6836 55H61.8164L61.5674 54.1094ZM60.4893 53.4092H61.374L60.9375 51.8389L60.4893 53.4092ZM63.1143 56.2188V51.8301H63.8672L63.8965 52.1406C63.9395 52.0879 63.9863 52.041 64.0371 52C64.0879 51.957 64.1426 51.9199 64.2012 51.8887C64.2715 51.8516 64.3486 51.8232 64.4326 51.8037C64.5186 51.7822 64.6104 51.7715 64.708 51.7715C64.9092 51.7715 65.0869 51.8105 65.2412 51.8887C65.3955 51.9648 65.5254 52.0732 65.6309 52.2139C65.7363 52.3564 65.8154 52.5273 65.8682 52.7266C65.9229 52.9238 65.9502 53.1426 65.9502 53.3828V53.4443C65.9502 53.6748 65.9229 53.8887 65.8682 54.0859C65.8154 54.2832 65.7373 54.4531 65.6338 54.5957C65.5283 54.7402 65.3984 54.8535 65.2441 54.9355C65.0898 55.0176 64.9131 55.0586 64.7139 55.0586C64.6084 55.0586 64.5107 55.0469 64.4209 55.0234C64.333 55.002 64.251 54.9697 64.1748 54.9268C64.1299 54.8994 64.0869 54.8691 64.0459 54.8359C64.0049 54.8027 63.9658 54.7656 63.9287 54.7246V56.2188H63.1143ZM65.1357 53.3828C65.1357 53.25 65.123 53.126 65.0977 53.0107C65.0742 52.8936 65.0371 52.792 64.9863 52.7061C64.9336 52.6221 64.8662 52.5557 64.7842 52.5068C64.7041 52.458 64.6064 52.4336 64.4912 52.4336C64.4248 52.4336 64.3643 52.4404 64.3096 52.4541C64.2549 52.4658 64.2051 52.4834 64.1602 52.5068C64.1094 52.5342 64.0645 52.5684 64.0254 52.6094C63.9883 52.6504 63.9561 52.6982 63.9287 52.7529V54.0771C63.9541 54.1279 63.9844 54.1738 64.0195 54.2148C64.0566 54.2559 64.0986 54.291 64.1455 54.3203C64.1904 54.3477 64.2422 54.3691 64.3008 54.3848C64.3594 54.3984 64.4248 54.4053 64.4971 54.4053C64.6123 54.4053 64.71 54.3799 64.79 54.3291C64.8721 54.2783 64.9385 54.209 64.9893 54.1211C65.04 54.0332 65.0771 53.9316 65.1006 53.8164C65.124 53.6992 65.1357 53.5752 65.1357 53.4443V53.3828ZM66.7178 56.2188V51.8301H67.4707L67.5 52.1406C67.543 52.0879 67.5898 52.041 67.6406 52C67.6914 51.957 67.7461 51.9199 67.8047 51.8887C67.875 51.8516 67.9521 51.8232 68.0361 51.8037C68.1221 51.7822 68.2139 51.7715 68.3115 51.7715C68.5127 51.7715 68.6904 51.8105 68.8447 51.8887C68.999 51.9648 69.1289 52.0732 69.2344 52.2139C69.3398 52.3564 69.4189 52.5273 69.4717 52.7266C69.5264 52.9238 69.5537 53.1426 69.5537 53.3828V53.4443C69.5537 53.6748 69.5264 53.8887 69.4717 54.0859C69.4189 54.2832 69.3408 54.4531 69.2373 54.5957C69.1318 54.7402 69.002 54.8535 68.8477 54.9355C68.6934 55.0176 68.5166 55.0586 68.3174 55.0586C68.2119 55.0586 68.1143 55.0469 68.0244 55.0234C67.9365 55.002 67.8545 54.9697 67.7783 54.9268C67.7334 54.8994 67.6904 54.8691 67.6494 54.8359C67.6084 54.8027 67.5693 54.7656 67.5322 54.7246V56.2188H66.7178ZM68.7393 53.3828C68.7393 53.25 68.7266 53.126 68.7012 53.0107C68.6777 52.8936 68.6406 52.792 68.5898 52.7061C68.5371 52.6221 68.4697 52.5557 68.3877 52.5068C68.3076 52.458 68.21 52.4336 68.0947 52.4336C68.0283 52.4336 67.9678 52.4404 67.9131 52.4541C67.8584 52.4658 67.8086 52.4834 67.7637 52.5068C67.7129 52.5342 67.668 52.5684 67.6289 52.6094C67.5918 52.6504 67.5596 52.6982 67.5322 52.7529V54.0771C67.5576 54.1279 67.5879 54.1738 67.623 54.2148C67.6602 54.2559 67.7021 54.291 67.749 54.3203C67.7939 54.3477 67.8457 54.3691 67.9043 54.3848C67.9629 54.3984 68.0283 54.4053 68.1006 54.4053C68.2158 54.4053 68.3135 54.3799 68.3936 54.3291C68.4756 54.2783 68.542 54.209 68.5928 54.1211C68.6436 54.0332 68.6807 53.9316 68.7041 53.8164C68.7275 53.6992 68.7393 53.5752 68.7393 53.4443V53.3828ZM72.5859 51.7715C72.709 51.7715 72.8223 51.7803 72.9258 51.7979C73.0312 51.8135 73.1162 51.8311 73.1807 51.8506L73.0605 52.6621C72.9531 52.6367 72.8428 52.6182 72.7295 52.6064C72.6182 52.5928 72.5117 52.5859 72.4102 52.5859C72.3047 52.5859 72.209 52.5957 72.123 52.6152C72.0391 52.6328 71.9639 52.6602 71.8975 52.6973C71.8174 52.7402 71.749 52.7949 71.6924 52.8613C71.6357 52.9277 71.5889 53.0059 71.5518 53.0957V55H70.7373V51.8301H71.4961L71.5283 52.2783L71.5342 52.3486C71.6631 52.1689 71.8174 52.0283 71.9971 51.9268C72.1768 51.8232 72.373 51.7715 72.5859 51.7715ZM73.8018 53.3857C73.8018 53.1553 73.835 52.9424 73.9014 52.7471C73.9678 52.5498 74.0654 52.3789 74.1943 52.2344C74.3213 52.0898 74.4766 51.9766 74.6602 51.8945C74.8457 51.8125 75.0576 51.7715 75.2959 51.7715C75.5342 51.7715 75.7461 51.8125 75.9316 51.8945C76.1172 51.9766 76.2744 52.0898 76.4033 52.2344C76.5303 52.3789 76.627 52.5498 76.6934 52.7471C76.7598 52.9424 76.793 53.1553 76.793 53.3857V53.4473C76.793 53.6797 76.7598 53.8945 76.6934 54.0918C76.627 54.2871 76.5303 54.457 76.4033 54.6016C76.2764 54.7461 76.1201 54.8594 75.9346 54.9414C75.749 55.0215 75.5381 55.0615 75.3018 55.0615C75.0635 55.0615 74.8506 55.0215 74.6631 54.9414C74.4775 54.8594 74.3213 54.7461 74.1943 54.6016C74.0654 54.457 73.9678 54.2871 73.9014 54.0918C73.835 53.8945 73.8018 53.6797 73.8018 53.4473V53.3857ZM74.6162 53.4473C74.6162 53.5801 74.6289 53.7051 74.6543 53.8223C74.6797 53.9375 74.7197 54.0381 74.7744 54.124C74.8291 54.2119 74.8994 54.2812 74.9854 54.332C75.0732 54.3828 75.1787 54.4082 75.3018 54.4082C75.4209 54.4082 75.5234 54.3828 75.6094 54.332C75.6953 54.2812 75.7656 54.2119 75.8203 54.124C75.873 54.0381 75.9121 53.9375 75.9375 53.8223C75.9629 53.7051 75.9756 53.5801 75.9756 53.4473V53.3857C75.9756 53.2568 75.9629 53.1348 75.9375 53.0195C75.9121 52.9043 75.873 52.8027 75.8203 52.7148C75.7656 52.627 75.6953 52.5576 75.6094 52.5068C75.5234 52.4561 75.4189 52.4307 75.2959 52.4307C75.1748 52.4307 75.0713 52.4561 74.9854 52.5068C74.8994 52.5576 74.8291 52.627 74.7744 52.7148C74.7197 52.8027 74.6797 52.9043 74.6543 53.0195C74.6289 53.1348 74.6162 53.2568 74.6162 53.3857V53.4473ZM79.4971 55C79.4775 54.9609 79.4609 54.916 79.4473 54.8652C79.4336 54.8145 79.4219 54.7607 79.4121 54.7041C79.3672 54.7529 79.3154 54.7988 79.2568 54.8418C79.1982 54.8848 79.1338 54.9219 79.0635 54.9531C78.9912 54.9863 78.9121 55.0117 78.8262 55.0293C78.7402 55.0488 78.6475 55.0586 78.5479 55.0586C78.3857 55.0586 78.2363 55.0352 78.0996 54.9883C77.9648 54.9414 77.8486 54.876 77.751 54.792C77.6533 54.708 77.5771 54.6084 77.5225 54.4932C77.4678 54.376 77.4404 54.249 77.4404 54.1123C77.4404 53.9365 77.4746 53.7812 77.543 53.6465C77.6113 53.5098 77.7139 53.3975 77.8506 53.3096C77.9736 53.2295 78.125 53.1689 78.3047 53.1279C78.4863 53.085 78.6943 53.0635 78.9287 53.0635H79.3828V52.876C79.3828 52.8018 79.3711 52.7354 79.3477 52.6768C79.3242 52.6162 79.2891 52.5645 79.2422 52.5215C79.1934 52.4766 79.1318 52.4424 79.0576 52.4189C78.9854 52.3936 78.9004 52.3809 78.8027 52.3809C78.7168 52.3809 78.6426 52.3916 78.5801 52.4131C78.5176 52.4326 78.4668 52.4609 78.4277 52.498C78.3926 52.5312 78.3662 52.5713 78.3486 52.6182C78.333 52.665 78.3252 52.7168 78.3252 52.7734H77.5107C77.5107 52.6387 77.54 52.5107 77.5986 52.3896C77.6592 52.2686 77.7471 52.1621 77.8623 52.0703C77.9756 51.9785 78.1143 51.9062 78.2783 51.8535C78.4443 51.7988 78.6338 51.7715 78.8467 51.7715C79.0381 51.7715 79.2158 51.7949 79.3799 51.8418C79.5459 51.8887 79.6895 51.958 79.8105 52.0498C79.9316 52.1416 80.0264 52.2578 80.0947 52.3984C80.1631 52.5371 80.1973 52.6982 80.1973 52.8818V54.2412C80.1973 54.4111 80.208 54.5518 80.2295 54.6631C80.251 54.7744 80.2822 54.8701 80.3232 54.9502V55H79.4971ZM78.7207 54.4287C78.8027 54.4287 78.8789 54.4189 78.9492 54.3994C79.0195 54.3799 79.083 54.3545 79.1396 54.3232C79.1963 54.292 79.2451 54.2568 79.2861 54.2178C79.3271 54.1768 79.3594 54.1357 79.3828 54.0947V53.5498H78.9668C78.8398 53.5498 78.7314 53.5625 78.6416 53.5879C78.5518 53.6113 78.4785 53.6445 78.4219 53.6875C78.3652 53.7324 78.3232 53.7861 78.2959 53.8486C78.2686 53.9092 78.2549 53.9756 78.2549 54.0479C78.2549 54.1045 78.2646 54.1572 78.2842 54.2061C78.3057 54.2529 78.3359 54.293 78.375 54.3262C78.4141 54.3574 78.4619 54.3828 78.5186 54.4023C78.5771 54.4199 78.6445 54.4287 78.7207 54.4287ZM82.5234 54.4082C82.6035 54.4082 82.6797 54.3965 82.752 54.373C82.8242 54.3496 82.8877 54.3164 82.9424 54.2734C82.9971 54.2305 83.0391 54.1787 83.0684 54.1182C83.0996 54.0576 83.1133 53.9902 83.1094 53.916H83.877C83.8809 54.0801 83.8467 54.2324 83.7744 54.373C83.7041 54.5137 83.6074 54.6348 83.4844 54.7363C83.3613 54.8379 83.2178 54.918 83.0537 54.9766C82.8916 55.0332 82.7197 55.0615 82.5381 55.0615C82.292 55.0615 82.0762 55.0205 81.8906 54.9385C81.7051 54.8545 81.5508 54.7402 81.4277 54.5957C81.3027 54.4512 81.208 54.2822 81.1436 54.0889C81.0811 53.8936 81.0498 53.6846 81.0498 53.4619V53.374C81.0498 53.1514 81.0811 52.9434 81.1436 52.75C81.2061 52.5547 81.2998 52.3848 81.4248 52.2402C81.5498 52.0957 81.7041 51.9814 81.8877 51.8975C82.0732 51.8135 82.2881 51.7715 82.5322 51.7715C82.7275 51.7715 82.9082 51.8008 83.0742 51.8594C83.2402 51.918 83.3838 52 83.5049 52.1055C83.624 52.2129 83.7168 52.3428 83.7832 52.4951C83.8496 52.6455 83.8809 52.8145 83.877 53.002H83.1094C83.1133 52.9238 83.1016 52.8496 83.0742 52.7793C83.0469 52.709 83.0068 52.6484 82.9541 52.5977C82.9014 52.5469 82.8379 52.5068 82.7637 52.4775C82.6895 52.4463 82.6084 52.4307 82.5205 52.4307C82.3916 52.4307 82.2852 52.457 82.2012 52.5098C82.1172 52.5625 82.0508 52.6328 82.002 52.7207C81.9512 52.8086 81.915 52.9092 81.8936 53.0225C81.874 53.1357 81.8643 53.2529 81.8643 53.374V53.4619C81.8643 53.585 81.874 53.7041 81.8936 53.8193C81.9131 53.9326 81.9482 54.0322 81.999 54.1182C82.0479 54.2061 82.1143 54.2764 82.1982 54.3291C82.2842 54.3818 82.3926 54.4082 82.5234 54.4082ZM85.5381 52.2666C85.5791 52.2061 85.624 52.1504 85.6729 52.0996C85.7236 52.0469 85.7764 52.001 85.8311 51.9619C85.915 51.9014 86.0078 51.8545 86.1094 51.8213C86.2109 51.7881 86.3184 51.7715 86.4316 51.7715C86.5977 51.7715 86.75 51.7969 86.8887 51.8477C87.0273 51.8965 87.1465 51.9736 87.2461 52.0791C87.3457 52.1846 87.4229 52.3203 87.4775 52.4863C87.5342 52.6504 87.5625 52.8486 87.5625 53.0811V55H86.748V53.0752C86.748 52.9619 86.7334 52.8643 86.7041 52.7822C86.6768 52.7002 86.6367 52.6338 86.584 52.583C86.5312 52.5322 86.4678 52.4951 86.3936 52.4717C86.3193 52.4463 86.2354 52.4336 86.1416 52.4336C86.0693 52.4336 86.002 52.4404 85.9395 52.4541C85.877 52.4678 85.8203 52.4883 85.7695 52.5156C85.7227 52.5391 85.6797 52.5674 85.6406 52.6006C85.6035 52.6338 85.5693 52.6709 85.5381 52.7119V55H84.7236V50.5H85.5381V52.2666Z" fill="white"/>
<path d="M30 63V71" stroke="#008B09" stroke-opacity="0.97" stroke-width="0.5"/>
<path d="M45 63V71" stroke="#008B09" stroke-opacity="0.97" stroke-width="0.5"/>
<path d="M45 67L43 68.25L43 65.75L45 67Z" fill="#008B09" fill-opacity="0.97"/>
<path d="M44.0566 67L43.5 67.3477V66.6514L44.0566 67Z" stroke="#008B09" stroke-opacity="0.97"/>
<path d="M30 67L32 68.25L32 65.75L30 67Z" fill="#008B09" fill-opacity="0.97"/>
<path d="M30.9434 67L31.5 67.3477V66.6514L30.9434 67Z" stroke="#008B09" stroke-opacity="0.97"/>
<path d="M32 67H43" stroke="#008B09" stroke-opacity="0.97" stroke-width="0.5"/>
<rect x="27.5" y="72" width="21" height="8" rx="1" fill="#008B09" fill-opacity="0.97"/>
<path d="M29.6533 78L29.0674 73.7344H29.8203L30.1045 76.1191L30.125 76.2861L30.1514 76.1104L30.4883 73.7344H31.0771L31.4346 76.1279L31.4609 76.3037L31.4814 76.125L31.7715 73.7344H32.5273L31.9355 78H31.1914L30.8193 75.6973L30.7871 75.4805L30.7549 75.6973L30.3975 78H29.6533ZM33.2246 74.8301H34.9502V77.3379H35.8086V78H33.2246V77.3379H34.127V75.4951H33.2246V74.8301ZM34.0684 74.0186C34.0684 73.9561 34.0791 73.8984 34.1006 73.8457C34.124 73.791 34.1562 73.7441 34.1973 73.7051C34.2383 73.668 34.2871 73.6387 34.3438 73.6172C34.4023 73.5957 34.4668 73.585 34.5371 73.585C34.6816 73.585 34.7959 73.626 34.8799 73.708C34.9658 73.7881 35.0088 73.8916 35.0088 74.0186C35.0088 74.1455 34.9658 74.25 34.8799 74.332C34.7959 74.4121 34.6816 74.4521 34.5371 74.4521C34.4668 74.4521 34.4023 74.4414 34.3438 74.4199C34.2871 74.3984 34.2383 74.3682 34.1973 74.3291C34.1562 74.292 34.124 74.2471 34.1006 74.1943C34.0791 74.1396 34.0684 74.0811 34.0684 74.0186ZM36.5264 76.3916C36.5264 76.1514 36.5537 75.9316 36.6084 75.7324C36.665 75.5332 36.7471 75.3623 36.8545 75.2197C36.9619 75.0771 37.0918 74.9668 37.2441 74.8887C37.3984 74.8105 37.5742 74.7715 37.7715 74.7715C37.9375 74.7715 38.083 74.8018 38.208 74.8623C38.335 74.9209 38.4473 75.0049 38.5449 75.1143V73.5H39.3623V78H38.627L38.5859 77.6689C38.4863 77.792 38.3691 77.8877 38.2344 77.9561C38.0996 78.0244 37.9434 78.0586 37.7656 78.0586C37.5723 78.0586 37.3984 78.0186 37.2441 77.9385C37.0918 77.8564 36.9629 77.7441 36.8574 77.6016C36.75 77.459 36.668 77.29 36.6113 77.0947C36.5547 76.8975 36.5264 76.6836 36.5264 76.4531V76.3916ZM37.3408 76.4531C37.3408 76.5859 37.3516 76.71 37.373 76.8252C37.3965 76.9385 37.4336 77.0371 37.4844 77.1211C37.5352 77.207 37.6006 77.2744 37.6807 77.3232C37.7607 77.3721 37.8584 77.3965 37.9736 77.3965C38.1143 77.3965 38.2305 77.3662 38.3223 77.3057C38.416 77.2451 38.4902 77.1621 38.5449 77.0566V75.7734C38.4902 75.666 38.417 75.583 38.3252 75.5244C38.2334 75.4639 38.1182 75.4336 37.9795 75.4336C37.8643 75.4336 37.7656 75.459 37.6836 75.5098C37.6035 75.5586 37.5381 75.626 37.4873 75.7119C37.4365 75.7998 37.3994 75.9023 37.376 76.0195C37.3525 76.1348 37.3408 76.2588 37.3408 76.3916V76.4531ZM41.709 74.0537V74.8301H42.8926V75.4307H41.709V76.793C41.709 76.9082 41.7217 77.0049 41.7471 77.083C41.7744 77.1592 41.8125 77.2197 41.8613 77.2646C41.9102 77.3115 41.9688 77.3447 42.0371 77.3643C42.1074 77.3838 42.1855 77.3936 42.2715 77.3936C42.334 77.3936 42.3975 77.3906 42.4619 77.3848C42.5283 77.3789 42.5918 77.3711 42.6523 77.3613C42.7109 77.3535 42.7656 77.3447 42.8164 77.335C42.8691 77.3252 42.9141 77.3154 42.9512 77.3057L43.0303 77.8652C42.9736 77.8984 42.9072 77.9277 42.8311 77.9531C42.7549 77.9766 42.6738 77.9961 42.5879 78.0117C42.502 78.0273 42.4121 78.0391 42.3184 78.0469C42.2266 78.0566 42.1357 78.0615 42.0459 78.0615C41.8721 78.0615 41.7139 78.0391 41.5713 77.9941C41.4307 77.9473 41.3105 77.875 41.2109 77.7773C41.1094 77.6816 41.0312 77.5596 40.9766 77.4111C40.9219 77.2607 40.8945 77.0811 40.8945 76.8721V75.4307H40.1709V74.8301H40.8945V74.0537H41.709ZM44.6328 75.2666C44.6738 75.2061 44.7188 75.1504 44.7676 75.0996C44.8184 75.0469 44.8711 75.001 44.9258 74.9619C45.0098 74.9014 45.1025 74.8545 45.2041 74.8213C45.3057 74.7881 45.4131 74.7715 45.5264 74.7715C45.6924 74.7715 45.8447 74.7969 45.9834 74.8477C46.1221 74.8965 46.2412 74.9736 46.3408 75.0791C46.4404 75.1846 46.5176 75.3203 46.5723 75.4863C46.6289 75.6504 46.6572 75.8486 46.6572 76.0811V78H45.8428V76.0752C45.8428 75.9619 45.8281 75.8643 45.7988 75.7822C45.7715 75.7002 45.7314 75.6338 45.6787 75.583C45.626 75.5322 45.5625 75.4951 45.4883 75.4717C45.4141 75.4463 45.3301 75.4336 45.2363 75.4336C45.1641 75.4336 45.0967 75.4404 45.0342 75.4541C44.9717 75.4678 44.915 75.4883 44.8643 75.5156C44.8174 75.5391 44.7744 75.5674 44.7354 75.6006C44.6982 75.6338 44.6641 75.6709 44.6328 75.7119V78H43.8184V73.5H44.6328V75.2666Z" fill="white"/>
<path d="M30 63V71" stroke="#008B09" stroke-opacity="0.97" stroke-width="0.5"/>
<path d="M45 63V71" stroke="#008B09" stroke-opacity="0.97" stroke-width="0.5"/>
<path d="M45 67L43 68.25L43 65.75L45 67Z" fill="#008B09" fill-opacity="0.97"/>
<path d="M44.0566 67L43.5 67.3477V66.6514L44.0566 67Z" stroke="#008B09" stroke-opacity="0.97"/>
<path d="M30 67L32 68.25L32 65.75L30 67Z" fill="#008B09" fill-opacity="0.97"/>
<path d="M30.9434 67L31.5 67.3477V66.6514L30.9434 67Z" stroke="#008B09" stroke-opacity="0.97"/>
<path d="M32 67H43" stroke="#008B09" stroke-opacity="0.97" stroke-width="0.5"/>
<rect x="27.5" y="72" width="21" height="8" rx="1" fill="#008B09" fill-opacity="0.97"/>
<path d="M29.6533 78L29.0674 73.7344H29.8203L30.1045 76.1191L30.125 76.2861L30.1514 76.1104L30.4883 73.7344H31.0771L31.4346 76.1279L31.4609 76.3037L31.4814 76.125L31.7715 73.7344H32.5273L31.9355 78H31.1914L30.8193 75.6973L30.7871 75.4805L30.7549 75.6973L30.3975 78H29.6533ZM33.2246 74.8301H34.9502V77.3379H35.8086V78H33.2246V77.3379H34.127V75.4951H33.2246V74.8301ZM34.0684 74.0186C34.0684 73.9561 34.0791 73.8984 34.1006 73.8457C34.124 73.791 34.1562 73.7441 34.1973 73.7051C34.2383 73.668 34.2871 73.6387 34.3438 73.6172C34.4023 73.5957 34.4668 73.585 34.5371 73.585C34.6816 73.585 34.7959 73.626 34.8799 73.708C34.9658 73.7881 35.0088 73.8916 35.0088 74.0186C35.0088 74.1455 34.9658 74.25 34.8799 74.332C34.7959 74.4121 34.6816 74.4521 34.5371 74.4521C34.4668 74.4521 34.4023 74.4414 34.3438 74.4199C34.2871 74.3984 34.2383 74.3682 34.1973 74.3291C34.1562 74.292 34.124 74.2471 34.1006 74.1943C34.0791 74.1396 34.0684 74.0811 34.0684 74.0186ZM36.5264 76.3916C36.5264 76.1514 36.5537 75.9316 36.6084 75.7324C36.665 75.5332 36.7471 75.3623 36.8545 75.2197C36.9619 75.0771 37.0918 74.9668 37.2441 74.8887C37.3984 74.8105 37.5742 74.7715 37.7715 74.7715C37.9375 74.7715 38.083 74.8018 38.208 74.8623C38.335 74.9209 38.4473 75.0049 38.5449 75.1143V73.5H39.3623V78H38.627L38.5859 77.6689C38.4863 77.792 38.3691 77.8877 38.2344 77.9561C38.0996 78.0244 37.9434 78.0586 37.7656 78.0586C37.5723 78.0586 37.3984 78.0186 37.2441 77.9385C37.0918 77.8564 36.9629 77.7441 36.8574 77.6016C36.75 77.459 36.668 77.29 36.6113 77.0947C36.5547 76.8975 36.5264 76.6836 36.5264 76.4531V76.3916ZM37.3408 76.4531C37.3408 76.5859 37.3516 76.71 37.373 76.8252C37.3965 76.9385 37.4336 77.0371 37.4844 77.1211C37.5352 77.207 37.6006 77.2744 37.6807 77.3232C37.7607 77.3721 37.8584 77.3965 37.9736 77.3965C38.1143 77.3965 38.2305 77.3662 38.3223 77.3057C38.416 77.2451 38.4902 77.1621 38.5449 77.0566V75.7734C38.4902 75.666 38.417 75.583 38.3252 75.5244C38.2334 75.4639 38.1182 75.4336 37.9795 75.4336C37.8643 75.4336 37.7656 75.459 37.6836 75.5098C37.6035 75.5586 37.5381 75.626 37.4873 75.7119C37.4365 75.7998 37.3994 75.9023 37.376 76.0195C37.3525 76.1348 37.3408 76.2588 37.3408 76.3916V76.4531ZM41.709 74.0537V74.8301H42.8926V75.4307H41.709V76.793C41.709 76.9082 41.7217 77.0049 41.7471 77.083C41.7744 77.1592 41.8125 77.2197 41.8613 77.2646C41.9102 77.3115 41.9688 77.3447 42.0371 77.3643C42.1074 77.3838 42.1855 77.3936 42.2715 77.3936C42.334 77.3936 42.3975 77.3906 42.4619 77.3848C42.5283 77.3789 42.5918 77.3711 42.6523 77.3613C42.7109 77.3535 42.7656 77.3447 42.8164 77.335C42.8691 77.3252 42.9141 77.3154 42.9512 77.3057L43.0303 77.8652C42.9736 77.8984 42.9072 77.9277 42.8311 77.9531C42.7549 77.9766 42.6738 77.9961 42.5879 78.0117C42.502 78.0273 42.4121 78.0391 42.3184 78.0469C42.2266 78.0566 42.1357 78.0615 42.0459 78.0615C41.8721 78.0615 41.7139 78.0391 41.5713 77.9941C41.4307 77.9473 41.3105 77.875 41.2109 77.7773C41.1094 77.6816 41.0312 77.5596 40.9766 77.4111C40.9219 77.2607 40.8945 77.0811 40.8945 76.8721V75.4307H40.1709V74.8301H40.8945V74.0537H41.709ZM44.6328 75.2666C44.6738 75.2061 44.7188 75.1504 44.7676 75.0996C44.8184 75.0469 44.8711 75.001 44.9258 74.9619C45.0098 74.9014 45.1025 74.8545 45.2041 74.8213C45.3057 74.7881 45.4131 74.7715 45.5264 74.7715C45.6924 74.7715 45.8447 74.7969 45.9834 74.8477C46.1221 74.8965 46.2412 74.9736 46.3408 75.0791C46.4404 75.1846 46.5176 75.3203 46.5723 75.4863C46.6289 75.6504 46.6572 75.8486 46.6572 76.0811V78H45.8428V76.0752C45.8428 75.9619 45.8281 75.8643 45.7988 75.7822C45.7715 75.7002 45.7314 75.6338 45.6787 75.583C45.626 75.5322 45.5625 75.4951 45.4883 75.4717C45.4141 75.4463 45.3301 75.4336 45.2363 75.4336C45.1641 75.4336 45.0967 75.4404 45.0342 75.4541C44.9717 75.4678 44.915 75.4883 44.8643 75.5156C44.8174 75.5391 44.7744 75.5674 44.7354 75.6006C44.6982 75.6338 44.6641 75.6709 44.6328 75.7119V78H43.8184V73.5H44.6328V75.2666Z" fill="white"/>
<path d="M30 63V71" stroke="#008B09" stroke-opacity="0.97" stroke-width="0.5"/>
<path d="M45 63V71" stroke="#008B09" stroke-opacity="0.97" stroke-width="0.5"/>
<path d="M45 67L43 68.25L43 65.75L45 67Z" fill="#008B09" fill-opacity="0.97"/>
<path d="M44.0566 67L43.5 67.3477V66.6514L44.0566 67Z" stroke="#008B09" stroke-opacity="0.97"/>
<path d="M30 67L32 68.25L32 65.75L30 67Z" fill="#008B09" fill-opacity="0.97"/>
<path d="M30.9434 67L31.5 67.3477V66.6514L30.9434 67Z" stroke="#008B09" stroke-opacity="0.97"/>
<path d="M32 67H43" stroke="#008B09" stroke-opacity="0.97" stroke-width="0.5"/>
<rect x="27.5" y="72" width="21" height="8" rx="1" fill="#008B09" fill-opacity="0.97"/>
<path d="M29.6533 78L29.0674 73.7344H29.8203L30.1045 76.1191L30.125 76.2861L30.1514 76.1104L30.4883 73.7344H31.0771L31.4346 76.1279L31.4609 76.3037L31.4814 76.125L31.7715 73.7344H32.5273L31.9355 78H31.1914L30.8193 75.6973L30.7871 75.4805L30.7549 75.6973L30.3975 78H29.6533ZM33.2246 74.8301H34.9502V77.3379H35.8086V78H33.2246V77.3379H34.127V75.4951H33.2246V74.8301ZM34.0684 74.0186C34.0684 73.9561 34.0791 73.8984 34.1006 73.8457C34.124 73.791 34.1562 73.7441 34.1973 73.7051C34.2383 73.668 34.2871 73.6387 34.3438 73.6172C34.4023 73.5957 34.4668 73.585 34.5371 73.585C34.6816 73.585 34.7959 73.626 34.8799 73.708C34.9658 73.7881 35.0088 73.8916 35.0088 74.0186C35.0088 74.1455 34.9658 74.25 34.8799 74.332C34.7959 74.4121 34.6816 74.4521 34.5371 74.4521C34.4668 74.4521 34.4023 74.4414 34.3438 74.4199C34.2871 74.3984 34.2383 74.3682 34.1973 74.3291C34.1562 74.292 34.124 74.2471 34.1006 74.1943C34.0791 74.1396 34.0684 74.0811 34.0684 74.0186ZM36.5264 76.3916C36.5264 76.1514 36.5537 75.9316 36.6084 75.7324C36.665 75.5332 36.7471 75.3623 36.8545 75.2197C36.9619 75.0771 37.0918 74.9668 37.2441 74.8887C37.3984 74.8105 37.5742 74.7715 37.7715 74.7715C37.9375 74.7715 38.083 74.8018 38.208 74.8623C38.335 74.9209 38.4473 75.0049 38.5449 75.1143V73.5H39.3623V78H38.627L38.5859 77.6689C38.4863 77.792 38.3691 77.8877 38.2344 77.9561C38.0996 78.0244 37.9434 78.0586 37.7656 78.0586C37.5723 78.0586 37.3984 78.0186 37.2441 77.9385C37.0918 77.8564 36.9629 77.7441 36.8574 77.6016C36.75 77.459 36.668 77.29 36.6113 77.0947C36.5547 76.8975 36.5264 76.6836 36.5264 76.4531V76.3916ZM37.3408 76.4531C37.3408 76.5859 37.3516 76.71 37.373 76.8252C37.3965 76.9385 37.4336 77.0371 37.4844 77.1211C37.5352 77.207 37.6006 77.2744 37.6807 77.3232C37.7607 77.3721 37.8584 77.3965 37.9736 77.3965C38.1143 77.3965 38.2305 77.3662 38.3223 77.3057C38.416 77.2451 38.4902 77.1621 38.5449 77.0566V75.7734C38.4902 75.666 38.417 75.583 38.3252 75.5244C38.2334 75.4639 38.1182 75.4336 37.9795 75.4336C37.8643 75.4336 37.7656 75.459 37.6836 75.5098C37.6035 75.5586 37.5381 75.626 37.4873 75.7119C37.4365 75.7998 37.3994 75.9023 37.376 76.0195C37.3525 76.1348 37.3408 76.2588 37.3408 76.3916V76.4531ZM41.709 74.0537V74.8301H42.8926V75.4307H41.709V76.793C41.709 76.9082 41.7217 77.0049 41.7471 77.083C41.7744 77.1592 41.8125 77.2197 41.8613 77.2646C41.9102 77.3115 41.9688 77.3447 42.0371 77.3643C42.1074 77.3838 42.1855 77.3936 42.2715 77.3936C42.334 77.3936 42.3975 77.3906 42.4619 77.3848C42.5283 77.3789 42.5918 77.3711 42.6523 77.3613C42.7109 77.3535 42.7656 77.3447 42.8164 77.335C42.8691 77.3252 42.9141 77.3154 42.9512 77.3057L43.0303 77.8652C42.9736 77.8984 42.9072 77.9277 42.8311 77.9531C42.7549 77.9766 42.6738 77.9961 42.5879 78.0117C42.502 78.0273 42.4121 78.0391 42.3184 78.0469C42.2266 78.0566 42.1357 78.0615 42.0459 78.0615C41.8721 78.0615 41.7139 78.0391 41.5713 77.9941C41.4307 77.9473 41.3105 77.875 41.2109 77.7773C41.1094 77.6816 41.0312 77.5596 40.9766 77.4111C40.9219 77.2607 40.8945 77.0811 40.8945 76.8721V75.4307H40.1709V74.8301H40.8945V74.0537H41.709ZM44.6328 75.2666C44.6738 75.2061 44.7188 75.1504 44.7676 75.0996C44.8184 75.0469 44.8711 75.001 44.9258 74.9619C45.0098 74.9014 45.1025 74.8545 45.2041 74.8213C45.3057 74.7881 45.4131 74.7715 45.5264 74.7715C45.6924 74.7715 45.8447 74.7969 45.9834 74.8477C46.1221 74.8965 46.2412 74.9736 46.3408 75.0791C46.4404 75.1846 46.5176 75.3203 46.5723 75.4863C46.6289 75.6504 46.6572 75.8486 46.6572 76.0811V78H45.8428V76.0752C45.8428 75.9619 45.8281 75.8643 45.7988 75.7822C45.7715 75.7002 45.7314 75.6338 45.6787 75.583C45.626 75.5322 45.5625 75.4951 45.4883 75.4717C45.4141 75.4463 45.3301 75.4336 45.2363 75.4336C45.1641 75.4336 45.0967 75.4404 45.0342 75.4541C44.9717 75.4678 44.915 75.4883 44.8643 75.5156C44.8174 75.5391 44.7744 75.5674 44.7354 75.6006C44.6982 75.6338 44.6641 75.6709 44.6328 75.7119V78H43.8184V73.5H44.6328V75.2666Z" fill="white"/>
</svg>
