<?xml version="1.0" encoding="UTF-8" standalone="no" ?>
<!DOCTYPE svg PUBLIC "-//W3C//DTD SVG 1.1//EN" "http://www.w3.org/Graphics/SVG/1.1/DTD/svg11.dtd">
<svg xmlns="http://www.w3.org/2000/svg" xmlns:xlink="http://www.w3.org/1999/xlink" version="1.1" width="2430.8672754201893" height="3840.0000000035275" viewBox="-1233.7618550460531 -1841.6711739782954 2430.8672754201893 3840.0000000035275" xml:space="preserve">
<desc>Created with Fabric.js 6.4.3</desc>
<defs>
</defs>
<rect x="0" y="0" width="100%" height="100%" fill="rgba(0,0,0,0)"></rect>
<g transform="matrix(1 0 0 1 -700 0)" id="grid"  >
<g style=" visibility: hidden;"   >
		<g transform="matrix(1 0 0 1 -5500 0)"  >
<line style="stroke: rgb(255,255,255); stroke-width: 0.5526131074357821; stroke-dasharray: none; stroke-linecap: butt; stroke-dashoffset: 0; stroke-linejoin: miter; stroke-miterlimit: 4; fill: rgb(0,0,0); fill-rule: nonzero; opacity: 1;"  x1="0" y1="-2600" x2="0" y2="2600" />
</g>
		<g transform="matrix(1 0 0 1 -5203.6454 49.0194)" style=""  >
		<text xml:space="preserve" font-family="Arial" font-size="66.31357289229385" font-style="normal" font-weight="normal" style="stroke: none; stroke-width: 1; stroke-dasharray: none; stroke-linecap: butt; stroke-dashoffset: 0; stroke-linejoin: miter; stroke-miterlimit: 4; fill: rgb(255,255,255); fill-rule: nonzero; opacity: 1; white-space: pre;" ><tspan x="-84.8024" y="20.8317" >-6000</tspan></text>
</g>
		<g transform="matrix(1 0 0 1 -5299.7237 0.2763)"  >
<line style="stroke: rgb(255,255,255); stroke-width: 1.1052262148715641; stroke-dasharray: none; stroke-linecap: butt; stroke-dashoffset: 0; stroke-linejoin: miter; stroke-miterlimit: 4; fill: rgb(0,0,0); fill-rule: nonzero; opacity: 1;"  x1="0" y1="-2600" x2="0" y2="2600" />
</g>
		<g transform="matrix(1 0 0 1 -5100 0)"  >
<line style="stroke: rgb(255,255,255); stroke-width: 0.5526131074357821; stroke-dasharray: none; stroke-linecap: butt; stroke-dashoffset: 0; stroke-linejoin: miter; stroke-miterlimit: 4; fill: rgb(0,0,0); fill-rule: nonzero; opacity: 1;"  x1="0" y1="-2600" x2="0" y2="2600" />
</g>
		<g transform="matrix(1 0 0 1 -4900 0)"  >
<line style="stroke: rgb(255,255,255); stroke-width: 0.5526131074357821; stroke-dasharray: none; stroke-linecap: butt; stroke-dashoffset: 0; stroke-linejoin: miter; stroke-miterlimit: 4; fill: rgb(0,0,0); fill-rule: nonzero; opacity: 1;"  x1="0" y1="-2600" x2="0" y2="2600" />
</g>
		<g transform="matrix(1 0 0 1 -4700 0)"  >
<line style="stroke: rgb(255,255,255); stroke-width: 0.5526131074357821; stroke-dasharray: none; stroke-linecap: butt; stroke-dashoffset: 0; stroke-linejoin: miter; stroke-miterlimit: 4; fill: rgb(0,0,0); fill-rule: nonzero; opacity: 1;"  x1="0" y1="-2600" x2="0" y2="2600" />
</g>
		<g transform="matrix(1 0 0 1 -4500 0)"  >
<line style="stroke: rgb(255,255,255); stroke-width: 0.5526131074357821; stroke-dasharray: none; stroke-linecap: butt; stroke-dashoffset: 0; stroke-linejoin: miter; stroke-miterlimit: 4; fill: rgb(0,0,0); fill-rule: nonzero; opacity: 1;"  x1="0" y1="-2600" x2="0" y2="2600" />
</g>
		<g transform="matrix(1 0 0 1 -4203.6454 49.0194)" style=""  >
		<text xml:space="preserve" font-family="Arial" font-size="66.31357289229385" font-style="normal" font-weight="normal" style="stroke: none; stroke-width: 1; stroke-dasharray: none; stroke-linecap: butt; stroke-dashoffset: 0; stroke-linejoin: miter; stroke-miterlimit: 4; fill: rgb(255,255,255); fill-rule: nonzero; opacity: 1; white-space: pre;" ><tspan x="-84.8024" y="20.8317" >-5000</tspan></text>
</g>
		<g transform="matrix(1 0 0 1 -4299.7237 0.2763)"  >
<line style="stroke: rgb(255,255,255); stroke-width: 1.1052262148715641; stroke-dasharray: none; stroke-linecap: butt; stroke-dashoffset: 0; stroke-linejoin: miter; stroke-miterlimit: 4; fill: rgb(0,0,0); fill-rule: nonzero; opacity: 1;"  x1="0" y1="-2600" x2="0" y2="2600" />
</g>
		<g transform="matrix(1 0 0 1 -4100 0)"  >
<line style="stroke: rgb(255,255,255); stroke-width: 0.5526131074357821; stroke-dasharray: none; stroke-linecap: butt; stroke-dashoffset: 0; stroke-linejoin: miter; stroke-miterlimit: 4; fill: rgb(0,0,0); fill-rule: nonzero; opacity: 1;"  x1="0" y1="-2600" x2="0" y2="2600" />
</g>
		<g transform="matrix(1 0 0 1 -3900 0)"  >
<line style="stroke: rgb(255,255,255); stroke-width: 0.5526131074357821; stroke-dasharray: none; stroke-linecap: butt; stroke-dashoffset: 0; stroke-linejoin: miter; stroke-miterlimit: 4; fill: rgb(0,0,0); fill-rule: nonzero; opacity: 1;"  x1="0" y1="-2600" x2="0" y2="2600" />
</g>
		<g transform="matrix(1 0 0 1 -3700 0)"  >
<line style="stroke: rgb(255,255,255); stroke-width: 0.5526131074357821; stroke-dasharray: none; stroke-linecap: butt; stroke-dashoffset: 0; stroke-linejoin: miter; stroke-miterlimit: 4; fill: rgb(0,0,0); fill-rule: nonzero; opacity: 1;"  x1="0" y1="-2600" x2="0" y2="2600" />
</g>
		<g transform="matrix(1 0 0 1 -3500 0)"  >
<line style="stroke: rgb(255,255,255); stroke-width: 0.5526131074357821; stroke-dasharray: none; stroke-linecap: butt; stroke-dashoffset: 0; stroke-linejoin: miter; stroke-miterlimit: 4; fill: rgb(0,0,0); fill-rule: nonzero; opacity: 1;"  x1="0" y1="-2600" x2="0" y2="2600" />
</g>
		<g transform="matrix(1 0 0 1 -3203.6454 49.0194)" style=""  >
		<text xml:space="preserve" font-family="Arial" font-size="66.31357289229385" font-style="normal" font-weight="normal" style="stroke: none; stroke-width: 1; stroke-dasharray: none; stroke-linecap: butt; stroke-dashoffset: 0; stroke-linejoin: miter; stroke-miterlimit: 4; fill: rgb(255,255,255); fill-rule: nonzero; opacity: 1; white-space: pre;" ><tspan x="-84.8024" y="20.8317" >-4000</tspan></text>
</g>
		<g transform="matrix(1 0 0 1 -3299.7237 0.2763)"  >
<line style="stroke: rgb(255,255,255); stroke-width: 1.1052262148715641; stroke-dasharray: none; stroke-linecap: butt; stroke-dashoffset: 0; stroke-linejoin: miter; stroke-miterlimit: 4; fill: rgb(0,0,0); fill-rule: nonzero; opacity: 1;"  x1="0" y1="-2600" x2="0" y2="2600" />
</g>
		<g transform="matrix(1 0 0 1 -3100 0)"  >
<line style="stroke: rgb(255,255,255); stroke-width: 0.5526131074357821; stroke-dasharray: none; stroke-linecap: butt; stroke-dashoffset: 0; stroke-linejoin: miter; stroke-miterlimit: 4; fill: rgb(0,0,0); fill-rule: nonzero; opacity: 1;"  x1="0" y1="-2600" x2="0" y2="2600" />
</g>
		<g transform="matrix(1 0 0 1 -2900 0)"  >
<line style="stroke: rgb(255,255,255); stroke-width: 0.5526131074357821; stroke-dasharray: none; stroke-linecap: butt; stroke-dashoffset: 0; stroke-linejoin: miter; stroke-miterlimit: 4; fill: rgb(0,0,0); fill-rule: nonzero; opacity: 1;"  x1="0" y1="-2600" x2="0" y2="2600" />
</g>
		<g transform="matrix(1 0 0 1 -2700 0)"  >
<line style="stroke: rgb(255,255,255); stroke-width: 0.5526131074357821; stroke-dasharray: none; stroke-linecap: butt; stroke-dashoffset: 0; stroke-linejoin: miter; stroke-miterlimit: 4; fill: rgb(0,0,0); fill-rule: nonzero; opacity: 1;"  x1="0" y1="-2600" x2="0" y2="2600" />
</g>
		<g transform="matrix(1 0 0 1 -2500 0)"  >
<line style="stroke: rgb(255,255,255); stroke-width: 0.5526131074357821; stroke-dasharray: none; stroke-linecap: butt; stroke-dashoffset: 0; stroke-linejoin: miter; stroke-miterlimit: 4; fill: rgb(0,0,0); fill-rule: nonzero; opacity: 1;"  x1="0" y1="-2600" x2="0" y2="2600" />
</g>
		<g transform="matrix(1 0 0 1 -2203.6454 49.0194)" style=""  >
		<text xml:space="preserve" font-family="Arial" font-size="66.31357289229385" font-style="normal" font-weight="normal" style="stroke: none; stroke-width: 1; stroke-dasharray: none; stroke-linecap: butt; stroke-dashoffset: 0; stroke-linejoin: miter; stroke-miterlimit: 4; fill: rgb(255,255,255); fill-rule: nonzero; opacity: 1; white-space: pre;" ><tspan x="-84.8024" y="20.8317" >-3000</tspan></text>
</g>
		<g transform="matrix(1 0 0 1 -2299.7237 0.2763)"  >
<line style="stroke: rgb(255,255,255); stroke-width: 1.1052262148715641; stroke-dasharray: none; stroke-linecap: butt; stroke-dashoffset: 0; stroke-linejoin: miter; stroke-miterlimit: 4; fill: rgb(0,0,0); fill-rule: nonzero; opacity: 1;"  x1="0" y1="-2600" x2="0" y2="2600" />
</g>
		<g transform="matrix(1 0 0 1 -2100 0)"  >
<line style="stroke: rgb(255,255,255); stroke-width: 0.5526131074357821; stroke-dasharray: none; stroke-linecap: butt; stroke-dashoffset: 0; stroke-linejoin: miter; stroke-miterlimit: 4; fill: rgb(0,0,0); fill-rule: nonzero; opacity: 1;"  x1="0" y1="-2600" x2="0" y2="2600" />
</g>
		<g transform="matrix(1 0 0 1 -1900 0)"  >
<line style="stroke: rgb(255,255,255); stroke-width: 0.5526131074357821; stroke-dasharray: none; stroke-linecap: butt; stroke-dashoffset: 0; stroke-linejoin: miter; stroke-miterlimit: 4; fill: rgb(0,0,0); fill-rule: nonzero; opacity: 1;"  x1="0" y1="-2600" x2="0" y2="2600" />
</g>
		<g transform="matrix(1 0 0 1 -1700 0)"  >
<line style="stroke: rgb(255,255,255); stroke-width: 0.5526131074357821; stroke-dasharray: none; stroke-linecap: butt; stroke-dashoffset: 0; stroke-linejoin: miter; stroke-miterlimit: 4; fill: rgb(0,0,0); fill-rule: nonzero; opacity: 1;"  x1="0" y1="-2600" x2="0" y2="2600" />
</g>
		<g transform="matrix(1 0 0 1 -1500 0)"  >
<line style="stroke: rgb(255,255,255); stroke-width: 0.5526131074357821; stroke-dasharray: none; stroke-linecap: butt; stroke-dashoffset: 0; stroke-linejoin: miter; stroke-miterlimit: 4; fill: rgb(0,0,0); fill-rule: nonzero; opacity: 1;"  x1="0" y1="-2600" x2="0" y2="2600" />
</g>
		<g transform="matrix(1 0 0 1 -1203.6454 49.0194)" style=""  >
		<text xml:space="preserve" font-family="Arial" font-size="66.31357289229385" font-style="normal" font-weight="normal" style="stroke: none; stroke-width: 1; stroke-dasharray: none; stroke-linecap: butt; stroke-dashoffset: 0; stroke-linejoin: miter; stroke-miterlimit: 4; fill: rgb(255,255,255); fill-rule: nonzero; opacity: 1; white-space: pre;" ><tspan x="-84.8024" y="20.8317" >-2000</tspan></text>
</g>
		<g transform="matrix(1 0 0 1 -1299.7237 0.2763)"  >
<line style="stroke: rgb(255,255,255); stroke-width: 1.1052262148715641; stroke-dasharray: none; stroke-linecap: butt; stroke-dashoffset: 0; stroke-linejoin: miter; stroke-miterlimit: 4; fill: rgb(0,0,0); fill-rule: nonzero; opacity: 1;"  x1="0" y1="-2600" x2="0" y2="2600" />
</g>
		<g transform="matrix(1 0 0 1 -1100 0)"  >
<line style="stroke: rgb(255,255,255); stroke-width: 0.5526131074357821; stroke-dasharray: none; stroke-linecap: butt; stroke-dashoffset: 0; stroke-linejoin: miter; stroke-miterlimit: 4; fill: rgb(0,0,0); fill-rule: nonzero; opacity: 1;"  x1="0" y1="-2600" x2="0" y2="2600" />
</g>
		<g transform="matrix(1 0 0 1 -900 0)"  >
<line style="stroke: rgb(255,255,255); stroke-width: 0.5526131074357821; stroke-dasharray: none; stroke-linecap: butt; stroke-dashoffset: 0; stroke-linejoin: miter; stroke-miterlimit: 4; fill: rgb(0,0,0); fill-rule: nonzero; opacity: 1;"  x1="0" y1="-2600" x2="0" y2="2600" />
</g>
		<g transform="matrix(1 0 0 1 -700 0)"  >
<line style="stroke: rgb(255,255,255); stroke-width: 0.5526131074357821; stroke-dasharray: none; stroke-linecap: butt; stroke-dashoffset: 0; stroke-linejoin: miter; stroke-miterlimit: 4; fill: rgb(0,0,0); fill-rule: nonzero; opacity: 1;"  x1="0" y1="-2600" x2="0" y2="2600" />
</g>
		<g transform="matrix(1 0 0 1 -500 0)"  >
<line style="stroke: rgb(255,255,255); stroke-width: 0.5526131074357821; stroke-dasharray: none; stroke-linecap: butt; stroke-dashoffset: 0; stroke-linejoin: miter; stroke-miterlimit: 4; fill: rgb(0,0,0); fill-rule: nonzero; opacity: 1;"  x1="0" y1="-2600" x2="0" y2="2600" />
</g>
		<g transform="matrix(1 0 0 1 -203.6454 49.0194)" style=""  >
		<text xml:space="preserve" font-family="Arial" font-size="66.31357289229385" font-style="normal" font-weight="normal" style="stroke: none; stroke-width: 1; stroke-dasharray: none; stroke-linecap: butt; stroke-dashoffset: 0; stroke-linejoin: miter; stroke-miterlimit: 4; fill: rgb(255,255,255); fill-rule: nonzero; opacity: 1; white-space: pre;" ><tspan x="-84.8024" y="20.8317" >-1000</tspan></text>
</g>
		<g transform="matrix(1 0 0 1 -299.7237 0.2763)"  >
<line style="stroke: rgb(255,255,255); stroke-width: 1.1052262148715641; stroke-dasharray: none; stroke-linecap: butt; stroke-dashoffset: 0; stroke-linejoin: miter; stroke-miterlimit: 4; fill: rgb(0,0,0); fill-rule: nonzero; opacity: 1;"  x1="0" y1="-2600" x2="0" y2="2600" />
</g>
		<g transform="matrix(1 0 0 1 -100 0)"  >
<line style="stroke: rgb(255,255,255); stroke-width: 0.5526131074357821; stroke-dasharray: none; stroke-linecap: butt; stroke-dashoffset: 0; stroke-linejoin: miter; stroke-miterlimit: 4; fill: rgb(0,0,0); fill-rule: nonzero; opacity: 1;"  x1="0" y1="-2600" x2="0" y2="2600" />
</g>
		<g transform="matrix(1 0 0 1 100 0)"  >
<line style="stroke: rgb(255,255,255); stroke-width: 0.5526131074357821; stroke-dasharray: none; stroke-linecap: butt; stroke-dashoffset: 0; stroke-linejoin: miter; stroke-miterlimit: 4; fill: rgb(0,0,0); fill-rule: nonzero; opacity: 1;"  x1="0" y1="-2600" x2="0" y2="2600" />
</g>
		<g transform="matrix(1 0 0 1 300 0)"  >
<line style="stroke: rgb(255,255,255); stroke-width: 0.5526131074357821; stroke-dasharray: none; stroke-linecap: butt; stroke-dashoffset: 0; stroke-linejoin: miter; stroke-miterlimit: 4; fill: rgb(0,0,0); fill-rule: nonzero; opacity: 1;"  x1="0" y1="-2600" x2="0" y2="2600" />
</g>
		<g transform="matrix(1 0 0 1 500 0)"  >
<line style="stroke: rgb(255,255,255); stroke-width: 0.5526131074357821; stroke-dasharray: none; stroke-linecap: butt; stroke-dashoffset: 0; stroke-linejoin: miter; stroke-miterlimit: 4; fill: rgb(0,0,0); fill-rule: nonzero; opacity: 1;"  x1="0" y1="-2600" x2="0" y2="2600" />
</g>
		<g transform="matrix(1 0 0 1 729.9925 49.0194)" style=""  >
		<text xml:space="preserve" font-family="Arial" font-size="66.31357289229385" font-style="normal" font-weight="normal" style="stroke: none; stroke-width: 1; stroke-dasharray: none; stroke-linecap: butt; stroke-dashoffset: 0; stroke-linejoin: miter; stroke-miterlimit: 4; fill: rgb(255,255,255); fill-rule: nonzero; opacity: 1; white-space: pre;" ><tspan x="-18.4402" y="20.8317" >0</tspan></text>
</g>
		<g transform="matrix(1 0 0 1 700.2763 0.2763)"  >
<line style="stroke: rgb(255,255,255); stroke-width: 1.1052262148715641; stroke-dasharray: none; stroke-linecap: butt; stroke-dashoffset: 0; stroke-linejoin: miter; stroke-miterlimit: 4; fill: rgb(0,0,0); fill-rule: nonzero; opacity: 1;"  x1="0" y1="-2600" x2="0" y2="2600" />
</g>
		<g transform="matrix(1 0 0 1 900 0)"  >
<line style="stroke: rgb(255,255,255); stroke-width: 0.5526131074357821; stroke-dasharray: none; stroke-linecap: butt; stroke-dashoffset: 0; stroke-linejoin: miter; stroke-miterlimit: 4; fill: rgb(0,0,0); fill-rule: nonzero; opacity: 1;"  x1="0" y1="-2600" x2="0" y2="2600" />
</g>
		<g transform="matrix(1 0 0 1 1100 0)"  >
<line style="stroke: rgb(255,255,255); stroke-width: 0.5526131074357821; stroke-dasharray: none; stroke-linecap: butt; stroke-dashoffset: 0; stroke-linejoin: miter; stroke-miterlimit: 4; fill: rgb(0,0,0); fill-rule: nonzero; opacity: 1;"  x1="0" y1="-2600" x2="0" y2="2600" />
</g>
		<g transform="matrix(1 0 0 1 1300 0)"  >
<line style="stroke: rgb(255,255,255); stroke-width: 0.5526131074357821; stroke-dasharray: none; stroke-linecap: butt; stroke-dashoffset: 0; stroke-linejoin: miter; stroke-miterlimit: 4; fill: rgb(0,0,0); fill-rule: nonzero; opacity: 1;"  x1="0" y1="-2600" x2="0" y2="2600" />
</g>
		<g transform="matrix(1 0 0 1 1500 0)"  >
<line style="stroke: rgb(255,255,255); stroke-width: 0.5526131074357821; stroke-dasharray: none; stroke-linecap: butt; stroke-dashoffset: 0; stroke-linejoin: miter; stroke-miterlimit: 4; fill: rgb(0,0,0); fill-rule: nonzero; opacity: 1;"  x1="0" y1="-2600" x2="0" y2="2600" />
</g>
		<g transform="matrix(1 0 0 1 1785.3132 49.0194)" style=""  >
		<text xml:space="preserve" font-family="Arial" font-size="66.31357289229385" font-style="normal" font-weight="normal" style="stroke: none; stroke-width: 1; stroke-dasharray: none; stroke-linecap: butt; stroke-dashoffset: 0; stroke-linejoin: miter; stroke-miterlimit: 4; fill: rgb(255,255,255); fill-rule: nonzero; opacity: 1; white-space: pre;" ><tspan x="-73.7609" y="20.8317" >1000</tspan></text>
</g>
		<g transform="matrix(1 0 0 1 1700.2763 0.2763)"  >
<line style="stroke: rgb(255,255,255); stroke-width: 1.1052262148715641; stroke-dasharray: none; stroke-linecap: butt; stroke-dashoffset: 0; stroke-linejoin: miter; stroke-miterlimit: 4; fill: rgb(0,0,0); fill-rule: nonzero; opacity: 1;"  x1="0" y1="-2600" x2="0" y2="2600" />
</g>
		<g transform="matrix(1 0 0 1 1900 0)"  >
<line style="stroke: rgb(255,255,255); stroke-width: 0.5526131074357821; stroke-dasharray: none; stroke-linecap: butt; stroke-dashoffset: 0; stroke-linejoin: miter; stroke-miterlimit: 4; fill: rgb(0,0,0); fill-rule: nonzero; opacity: 1;"  x1="0" y1="-2600" x2="0" y2="2600" />
</g>
		<g transform="matrix(1 0 0 1 2100 0)"  >
<line style="stroke: rgb(255,255,255); stroke-width: 0.5526131074357821; stroke-dasharray: none; stroke-linecap: butt; stroke-dashoffset: 0; stroke-linejoin: miter; stroke-miterlimit: 4; fill: rgb(0,0,0); fill-rule: nonzero; opacity: 1;"  x1="0" y1="-2600" x2="0" y2="2600" />
</g>
		<g transform="matrix(1 0 0 1 2300 0)"  >
<line style="stroke: rgb(255,255,255); stroke-width: 0.5526131074357821; stroke-dasharray: none; stroke-linecap: butt; stroke-dashoffset: 0; stroke-linejoin: miter; stroke-miterlimit: 4; fill: rgb(0,0,0); fill-rule: nonzero; opacity: 1;"  x1="0" y1="-2600" x2="0" y2="2600" />
</g>
		<g transform="matrix(1 0 0 1 2500 0)"  >
<line style="stroke: rgb(255,255,255); stroke-width: 0.5526131074357821; stroke-dasharray: none; stroke-linecap: butt; stroke-dashoffset: 0; stroke-linejoin: miter; stroke-miterlimit: 4; fill: rgb(0,0,0); fill-rule: nonzero; opacity: 1;"  x1="0" y1="-2600" x2="0" y2="2600" />
</g>
		<g transform="matrix(1 0 0 1 2785.3132 49.0194)" style=""  >
		<text xml:space="preserve" font-family="Arial" font-size="66.31357289229385" font-style="normal" font-weight="normal" style="stroke: none; stroke-width: 1; stroke-dasharray: none; stroke-linecap: butt; stroke-dashoffset: 0; stroke-linejoin: miter; stroke-miterlimit: 4; fill: rgb(255,255,255); fill-rule: nonzero; opacity: 1; white-space: pre;" ><tspan x="-73.7609" y="20.8317" >2000</tspan></text>
</g>
		<g transform="matrix(1 0 0 1 2700.2763 0.2763)"  >
<line style="stroke: rgb(255,255,255); stroke-width: 1.1052262148715641; stroke-dasharray: none; stroke-linecap: butt; stroke-dashoffset: 0; stroke-linejoin: miter; stroke-miterlimit: 4; fill: rgb(0,0,0); fill-rule: nonzero; opacity: 1;"  x1="0" y1="-2600" x2="0" y2="2600" />
</g>
		<g transform="matrix(1 0 0 1 2900 0)"  >
<line style="stroke: rgb(255,255,255); stroke-width: 0.5526131074357821; stroke-dasharray: none; stroke-linecap: butt; stroke-dashoffset: 0; stroke-linejoin: miter; stroke-miterlimit: 4; fill: rgb(0,0,0); fill-rule: nonzero; opacity: 1;"  x1="0" y1="-2600" x2="0" y2="2600" />
</g>
		<g transform="matrix(1 0 0 1 3100 0)"  >
<line style="stroke: rgb(255,255,255); stroke-width: 0.5526131074357821; stroke-dasharray: none; stroke-linecap: butt; stroke-dashoffset: 0; stroke-linejoin: miter; stroke-miterlimit: 4; fill: rgb(0,0,0); fill-rule: nonzero; opacity: 1;"  x1="0" y1="-2600" x2="0" y2="2600" />
</g>
		<g transform="matrix(1 0 0 1 3300 0)"  >
<line style="stroke: rgb(255,255,255); stroke-width: 0.5526131074357821; stroke-dasharray: none; stroke-linecap: butt; stroke-dashoffset: 0; stroke-linejoin: miter; stroke-miterlimit: 4; fill: rgb(0,0,0); fill-rule: nonzero; opacity: 1;"  x1="0" y1="-2600" x2="0" y2="2600" />
</g>
		<g transform="matrix(1 0 0 1 3500 0)"  >
<line style="stroke: rgb(255,255,255); stroke-width: 0.5526131074357821; stroke-dasharray: none; stroke-linecap: butt; stroke-dashoffset: 0; stroke-linejoin: miter; stroke-miterlimit: 4; fill: rgb(0,0,0); fill-rule: nonzero; opacity: 1;"  x1="0" y1="-2600" x2="0" y2="2600" />
</g>
		<g transform="matrix(1 0 0 1 3785.3132 49.0194)" style=""  >
		<text xml:space="preserve" font-family="Arial" font-size="66.31357289229385" font-style="normal" font-weight="normal" style="stroke: none; stroke-width: 1; stroke-dasharray: none; stroke-linecap: butt; stroke-dashoffset: 0; stroke-linejoin: miter; stroke-miterlimit: 4; fill: rgb(255,255,255); fill-rule: nonzero; opacity: 1; white-space: pre;" ><tspan x="-73.7609" y="20.8317" >3000</tspan></text>
</g>
		<g transform="matrix(1 0 0 1 3700.2763 0.2763)"  >
<line style="stroke: rgb(255,255,255); stroke-width: 1.1052262148715641; stroke-dasharray: none; stroke-linecap: butt; stroke-dashoffset: 0; stroke-linejoin: miter; stroke-miterlimit: 4; fill: rgb(0,0,0); fill-rule: nonzero; opacity: 1;"  x1="0" y1="-2600" x2="0" y2="2600" />
</g>
		<g transform="matrix(1 0 0 1 3900 0)"  >
<line style="stroke: rgb(255,255,255); stroke-width: 0.5526131074357821; stroke-dasharray: none; stroke-linecap: butt; stroke-dashoffset: 0; stroke-linejoin: miter; stroke-miterlimit: 4; fill: rgb(0,0,0); fill-rule: nonzero; opacity: 1;"  x1="0" y1="-2600" x2="0" y2="2600" />
</g>
		<g transform="matrix(1 0 0 1 4100 0)"  >
<line style="stroke: rgb(255,255,255); stroke-width: 0.5526131074357821; stroke-dasharray: none; stroke-linecap: butt; stroke-dashoffset: 0; stroke-linejoin: miter; stroke-miterlimit: 4; fill: rgb(0,0,0); fill-rule: nonzero; opacity: 1;"  x1="0" y1="-2600" x2="0" y2="2600" />
</g>
		<g transform="matrix(1 0 0 1 4300 0)"  >
<line style="stroke: rgb(255,255,255); stroke-width: 0.5526131074357821; stroke-dasharray: none; stroke-linecap: butt; stroke-dashoffset: 0; stroke-linejoin: miter; stroke-miterlimit: 4; fill: rgb(0,0,0); fill-rule: nonzero; opacity: 1;"  x1="0" y1="-2600" x2="0" y2="2600" />
</g>
		<g transform="matrix(1 0 0 1 4500 0)"  >
<line style="stroke: rgb(255,255,255); stroke-width: 0.5526131074357821; stroke-dasharray: none; stroke-linecap: butt; stroke-dashoffset: 0; stroke-linejoin: miter; stroke-miterlimit: 4; fill: rgb(0,0,0); fill-rule: nonzero; opacity: 1;"  x1="0" y1="-2600" x2="0" y2="2600" />
</g>
		<g transform="matrix(1 0 0 1 4785.3132 49.0194)" style=""  >
		<text xml:space="preserve" font-family="Arial" font-size="66.31357289229385" font-style="normal" font-weight="normal" style="stroke: none; stroke-width: 1; stroke-dasharray: none; stroke-linecap: butt; stroke-dashoffset: 0; stroke-linejoin: miter; stroke-miterlimit: 4; fill: rgb(255,255,255); fill-rule: nonzero; opacity: 1; white-space: pre;" ><tspan x="-73.7609" y="20.8317" >4000</tspan></text>
</g>
		<g transform="matrix(1 0 0 1 4700.2763 0.2763)"  >
<line style="stroke: rgb(255,255,255); stroke-width: 1.1052262148715641; stroke-dasharray: none; stroke-linecap: butt; stroke-dashoffset: 0; stroke-linejoin: miter; stroke-miterlimit: 4; fill: rgb(0,0,0); fill-rule: nonzero; opacity: 1;"  x1="0" y1="-2600" x2="0" y2="2600" />
</g>
		<g transform="matrix(1 0 0 1 4900 0)"  >
<line style="stroke: rgb(255,255,255); stroke-width: 0.5526131074357821; stroke-dasharray: none; stroke-linecap: butt; stroke-dashoffset: 0; stroke-linejoin: miter; stroke-miterlimit: 4; fill: rgb(0,0,0); fill-rule: nonzero; opacity: 1;"  x1="0" y1="-2600" x2="0" y2="2600" />
</g>
		<g transform="matrix(1 0 0 1 5100 0)"  >
<line style="stroke: rgb(255,255,255); stroke-width: 0.5526131074357821; stroke-dasharray: none; stroke-linecap: butt; stroke-dashoffset: 0; stroke-linejoin: miter; stroke-miterlimit: 4; fill: rgb(0,0,0); fill-rule: nonzero; opacity: 1;"  x1="0" y1="-2600" x2="0" y2="2600" />
</g>
		<g transform="matrix(1 0 0 1 5300 0)"  >
<line style="stroke: rgb(255,255,255); stroke-width: 0.5526131074357821; stroke-dasharray: none; stroke-linecap: butt; stroke-dashoffset: 0; stroke-linejoin: miter; stroke-miterlimit: 4; fill: rgb(0,0,0); fill-rule: nonzero; opacity: 1;"  x1="0" y1="-2600" x2="0" y2="2600" />
</g>
		<g transform="matrix(1 0 0 1 5500 0)"  >
<line style="stroke: rgb(255,255,255); stroke-width: 0.5526131074357821; stroke-dasharray: none; stroke-linecap: butt; stroke-dashoffset: 0; stroke-linejoin: miter; stroke-miterlimit: 4; fill: rgb(0,0,0); fill-rule: nonzero; opacity: 1;"  x1="0" y1="-2600" x2="0" y2="2600" />
</g>
		<g transform="matrix(1 0 0 1 0 -2600)"  >
<line style="stroke: rgb(255,255,255); stroke-width: 0.5526131074357821; stroke-dasharray: none; stroke-linecap: butt; stroke-dashoffset: 0; stroke-linejoin: miter; stroke-miterlimit: 4; fill: rgb(0,0,0); fill-rule: nonzero; opacity: 1;"  x1="-5500" y1="0" x2="5500" y2="0" />
</g>
		<g transform="matrix(1 0 0 1 0 -2400)"  >
<line style="stroke: rgb(255,255,255); stroke-width: 0.5526131074357821; stroke-dasharray: none; stroke-linecap: butt; stroke-dashoffset: 0; stroke-linejoin: miter; stroke-miterlimit: 4; fill: rgb(0,0,0); fill-rule: nonzero; opacity: 1;"  x1="-5500" y1="0" x2="5500" y2="0" />
</g>
		<g transform="matrix(1 0 0 1 0 -2200)"  >
<line style="stroke: rgb(255,255,255); stroke-width: 0.5526131074357821; stroke-dasharray: none; stroke-linecap: butt; stroke-dashoffset: 0; stroke-linejoin: miter; stroke-miterlimit: 4; fill: rgb(0,0,0); fill-rule: nonzero; opacity: 1;"  x1="-5500" y1="0" x2="5500" y2="0" />
</g>
		<g transform="matrix(1 0 0 1 796.3546 -1950.9806)" style=""  >
		<text xml:space="preserve" font-family="Arial" font-size="66.31357289229385" font-style="normal" font-weight="normal" style="stroke: none; stroke-width: 1; stroke-dasharray: none; stroke-linecap: butt; stroke-dashoffset: 0; stroke-linejoin: miter; stroke-miterlimit: 4; fill: rgb(255,255,255); fill-rule: nonzero; opacity: 1; white-space: pre;" ><tspan x="-84.8024" y="20.8317" >-2000</tspan></text>
</g>
		<g transform="matrix(1 0 0 1 0.2763 -1999.7237)"  >
<line style="stroke: rgb(255,255,255); stroke-width: 1.1052262148715641; stroke-dasharray: none; stroke-linecap: butt; stroke-dashoffset: 0; stroke-linejoin: miter; stroke-miterlimit: 4; fill: rgb(0,0,0); fill-rule: nonzero; opacity: 1;"  x1="-5500" y1="0" x2="5500" y2="0" />
</g>
		<g transform="matrix(1 0 0 1 0 -1800)"  >
<line style="stroke: rgb(255,255,255); stroke-width: 0.5526131074357821; stroke-dasharray: none; stroke-linecap: butt; stroke-dashoffset: 0; stroke-linejoin: miter; stroke-miterlimit: 4; fill: rgb(0,0,0); fill-rule: nonzero; opacity: 1;"  x1="-5500" y1="0" x2="5500" y2="0" />
</g>
		<g transform="matrix(1 0 0 1 0 -1600)"  >
<line style="stroke: rgb(255,255,255); stroke-width: 0.5526131074357821; stroke-dasharray: none; stroke-linecap: butt; stroke-dashoffset: 0; stroke-linejoin: miter; stroke-miterlimit: 4; fill: rgb(0,0,0); fill-rule: nonzero; opacity: 1;"  x1="-5500" y1="0" x2="5500" y2="0" />
</g>
		<g transform="matrix(1 0 0 1 0 -1400)"  >
<line style="stroke: rgb(255,255,255); stroke-width: 0.5526131074357821; stroke-dasharray: none; stroke-linecap: butt; stroke-dashoffset: 0; stroke-linejoin: miter; stroke-miterlimit: 4; fill: rgb(0,0,0); fill-rule: nonzero; opacity: 1;"  x1="-5500" y1="0" x2="5500" y2="0" />
</g>
		<g transform="matrix(1 0 0 1 0 -1200)"  >
<line style="stroke: rgb(255,255,255); stroke-width: 0.5526131074357821; stroke-dasharray: none; stroke-linecap: butt; stroke-dashoffset: 0; stroke-linejoin: miter; stroke-miterlimit: 4; fill: rgb(0,0,0); fill-rule: nonzero; opacity: 1;"  x1="-5500" y1="0" x2="5500" y2="0" />
</g>
		<g transform="matrix(1 0 0 1 796.3546 -950.9806)" style=""  >
		<text xml:space="preserve" font-family="Arial" font-size="66.31357289229385" font-style="normal" font-weight="normal" style="stroke: none; stroke-width: 1; stroke-dasharray: none; stroke-linecap: butt; stroke-dashoffset: 0; stroke-linejoin: miter; stroke-miterlimit: 4; fill: rgb(255,255,255); fill-rule: nonzero; opacity: 1; white-space: pre;" ><tspan x="-84.8024" y="20.8317" >-1000</tspan></text>
</g>
		<g transform="matrix(1 0 0 1 0.2763 -999.7237)"  >
<line style="stroke: rgb(255,255,255); stroke-width: 1.1052262148715641; stroke-dasharray: none; stroke-linecap: butt; stroke-dashoffset: 0; stroke-linejoin: miter; stroke-miterlimit: 4; fill: rgb(0,0,0); fill-rule: nonzero; opacity: 1;"  x1="-5500" y1="0" x2="5500" y2="0" />
</g>
		<g transform="matrix(1 0 0 1 0 -800)"  >
<line style="stroke: rgb(255,255,255); stroke-width: 0.5526131074357821; stroke-dasharray: none; stroke-linecap: butt; stroke-dashoffset: 0; stroke-linejoin: miter; stroke-miterlimit: 4; fill: rgb(0,0,0); fill-rule: nonzero; opacity: 1;"  x1="-5500" y1="0" x2="5500" y2="0" />
</g>
		<g transform="matrix(1 0 0 1 0 -600)"  >
<line style="stroke: rgb(255,255,255); stroke-width: 0.5526131074357821; stroke-dasharray: none; stroke-linecap: butt; stroke-dashoffset: 0; stroke-linejoin: miter; stroke-miterlimit: 4; fill: rgb(0,0,0); fill-rule: nonzero; opacity: 1;"  x1="-5500" y1="0" x2="5500" y2="0" />
</g>
		<g transform="matrix(1 0 0 1 0 -400)"  >
<line style="stroke: rgb(255,255,255); stroke-width: 0.5526131074357821; stroke-dasharray: none; stroke-linecap: butt; stroke-dashoffset: 0; stroke-linejoin: miter; stroke-miterlimit: 4; fill: rgb(0,0,0); fill-rule: nonzero; opacity: 1;"  x1="-5500" y1="0" x2="5500" y2="0" />
</g>
		<g transform="matrix(1 0 0 1 0 -200)"  >
<line style="stroke: rgb(255,255,255); stroke-width: 0.5526131074357821; stroke-dasharray: none; stroke-linecap: butt; stroke-dashoffset: 0; stroke-linejoin: miter; stroke-miterlimit: 4; fill: rgb(0,0,0); fill-rule: nonzero; opacity: 1;"  x1="-5500" y1="0" x2="5500" y2="0" />
</g>
		<g transform="matrix(1 0 0 1 729.9925 49.0194)" style=""  >
		<text xml:space="preserve" font-family="Arial" font-size="66.31357289229385" font-style="normal" font-weight="normal" style="stroke: none; stroke-width: 1; stroke-dasharray: none; stroke-linecap: butt; stroke-dashoffset: 0; stroke-linejoin: miter; stroke-miterlimit: 4; fill: rgb(255,255,255); fill-rule: nonzero; opacity: 1; white-space: pre;" ><tspan x="-18.4402" y="20.8317" >0</tspan></text>
</g>
		<g transform="matrix(1 0 0 1 0.2763 0.2763)"  >
<line style="stroke: rgb(255,255,255); stroke-width: 1.1052262148715641; stroke-dasharray: none; stroke-linecap: butt; stroke-dashoffset: 0; stroke-linejoin: miter; stroke-miterlimit: 4; fill: rgb(0,0,0); fill-rule: nonzero; opacity: 1;"  x1="-5500" y1="0" x2="5500" y2="0" />
</g>
		<g transform="matrix(1 0 0 1 0 200)"  >
<line style="stroke: rgb(255,255,255); stroke-width: 0.5526131074357821; stroke-dasharray: none; stroke-linecap: butt; stroke-dashoffset: 0; stroke-linejoin: miter; stroke-miterlimit: 4; fill: rgb(0,0,0); fill-rule: nonzero; opacity: 1;"  x1="-5500" y1="0" x2="5500" y2="0" />
</g>
		<g transform="matrix(1 0 0 1 0 400)"  >
<line style="stroke: rgb(255,255,255); stroke-width: 0.5526131074357821; stroke-dasharray: none; stroke-linecap: butt; stroke-dashoffset: 0; stroke-linejoin: miter; stroke-miterlimit: 4; fill: rgb(0,0,0); fill-rule: nonzero; opacity: 1;"  x1="-5500" y1="0" x2="5500" y2="0" />
</g>
		<g transform="matrix(1 0 0 1 0 600)"  >
<line style="stroke: rgb(255,255,255); stroke-width: 0.5526131074357821; stroke-dasharray: none; stroke-linecap: butt; stroke-dashoffset: 0; stroke-linejoin: miter; stroke-miterlimit: 4; fill: rgb(0,0,0); fill-rule: nonzero; opacity: 1;"  x1="-5500" y1="0" x2="5500" y2="0" />
</g>
		<g transform="matrix(1 0 0 1 0 800)"  >
<line style="stroke: rgb(255,255,255); stroke-width: 0.5526131074357821; stroke-dasharray: none; stroke-linecap: butt; stroke-dashoffset: 0; stroke-linejoin: miter; stroke-miterlimit: 4; fill: rgb(0,0,0); fill-rule: nonzero; opacity: 1;"  x1="-5500" y1="0" x2="5500" y2="0" />
</g>
		<g transform="matrix(1 0 0 1 785.3132 1049.0194)" style=""  >
		<text xml:space="preserve" font-family="Arial" font-size="66.31357289229385" font-style="normal" font-weight="normal" style="stroke: none; stroke-width: 1; stroke-dasharray: none; stroke-linecap: butt; stroke-dashoffset: 0; stroke-linejoin: miter; stroke-miterlimit: 4; fill: rgb(255,255,255); fill-rule: nonzero; opacity: 1; white-space: pre;" ><tspan x="-73.7609" y="20.8317" >1000</tspan></text>
</g>
		<g transform="matrix(1 0 0 1 0.2763 1000.2763)"  >
<line style="stroke: rgb(255,255,255); stroke-width: 1.1052262148715641; stroke-dasharray: none; stroke-linecap: butt; stroke-dashoffset: 0; stroke-linejoin: miter; stroke-miterlimit: 4; fill: rgb(0,0,0); fill-rule: nonzero; opacity: 1;"  x1="-5500" y1="0" x2="5500" y2="0" />
</g>
		<g transform="matrix(1 0 0 1 0 1200)"  >
<line style="stroke: rgb(255,255,255); stroke-width: 0.5526131074357821; stroke-dasharray: none; stroke-linecap: butt; stroke-dashoffset: 0; stroke-linejoin: miter; stroke-miterlimit: 4; fill: rgb(0,0,0); fill-rule: nonzero; opacity: 1;"  x1="-5500" y1="0" x2="5500" y2="0" />
</g>
		<g transform="matrix(1 0 0 1 0 1400)"  >
<line style="stroke: rgb(255,255,255); stroke-width: 0.5526131074357821; stroke-dasharray: none; stroke-linecap: butt; stroke-dashoffset: 0; stroke-linejoin: miter; stroke-miterlimit: 4; fill: rgb(0,0,0); fill-rule: nonzero; opacity: 1;"  x1="-5500" y1="0" x2="5500" y2="0" />
</g>
		<g transform="matrix(1 0 0 1 0 1600)"  >
<line style="stroke: rgb(255,255,255); stroke-width: 0.5526131074357821; stroke-dasharray: none; stroke-linecap: butt; stroke-dashoffset: 0; stroke-linejoin: miter; stroke-miterlimit: 4; fill: rgb(0,0,0); fill-rule: nonzero; opacity: 1;"  x1="-5500" y1="0" x2="5500" y2="0" />
</g>
		<g transform="matrix(1 0 0 1 0 1800)"  >
<line style="stroke: rgb(255,255,255); stroke-width: 0.5526131074357821; stroke-dasharray: none; stroke-linecap: butt; stroke-dashoffset: 0; stroke-linejoin: miter; stroke-miterlimit: 4; fill: rgb(0,0,0); fill-rule: nonzero; opacity: 1;"  x1="-5500" y1="0" x2="5500" y2="0" />
</g>
		<g transform="matrix(1 0 0 1 785.3132 2049.0194)" style=""  >
		<text xml:space="preserve" font-family="Arial" font-size="66.31357289229385" font-style="normal" font-weight="normal" style="stroke: none; stroke-width: 1; stroke-dasharray: none; stroke-linecap: butt; stroke-dashoffset: 0; stroke-linejoin: miter; stroke-miterlimit: 4; fill: rgb(255,255,255); fill-rule: nonzero; opacity: 1; white-space: pre;" ><tspan x="-73.7609" y="20.8317" >2000</tspan></text>
</g>
		<g transform="matrix(1 0 0 1 0.2763 2000.2763)"  >
<line style="stroke: rgb(255,255,255); stroke-width: 1.1052262148715641; stroke-dasharray: none; stroke-linecap: butt; stroke-dashoffset: 0; stroke-linejoin: miter; stroke-miterlimit: 4; fill: rgb(0,0,0); fill-rule: nonzero; opacity: 1;"  x1="-5500" y1="0" x2="5500" y2="0" />
</g>
		<g transform="matrix(1 0 0 1 0 2200)"  >
<line style="stroke: rgb(255,255,255); stroke-width: 0.5526131074357821; stroke-dasharray: none; stroke-linecap: butt; stroke-dashoffset: 0; stroke-linejoin: miter; stroke-miterlimit: 4; fill: rgb(0,0,0); fill-rule: nonzero; opacity: 1;"  x1="-5500" y1="0" x2="5500" y2="0" />
</g>
		<g transform="matrix(1 0 0 1 0 2400)"  >
<line style="stroke: rgb(255,255,255); stroke-width: 0.5526131074357821; stroke-dasharray: none; stroke-linecap: butt; stroke-dashoffset: 0; stroke-linejoin: miter; stroke-miterlimit: 4; fill: rgb(0,0,0); fill-rule: nonzero; opacity: 1;"  x1="-5500" y1="0" x2="5500" y2="0" />
</g>
		<g transform="matrix(1 0 0 1 0 2600)"  >
<line style="stroke: rgb(255,255,255); stroke-width: 0.5526131074357821; stroke-dasharray: none; stroke-linecap: butt; stroke-dashoffset: 0; stroke-linejoin: miter; stroke-miterlimit: 4; fill: rgb(0,0,0); fill-rule: nonzero; opacity: 1;"  x1="-5500" y1="0" x2="5500" y2="0" />
</g>
		<g transform="matrix(1 0 0 1 700 0)"  >
<line style="stroke: rgb(255,255,255); stroke-width: 2.7630655371789103; stroke-dasharray: none; stroke-linecap: butt; stroke-dashoffset: 0; stroke-linejoin: miter; stroke-miterlimit: 4; fill: rgb(0,0,0); fill-rule: nonzero; opacity: 1;"  x1="0" y1="-2600" x2="0" y2="2600" />
</g>
		<g transform="matrix(1 0 0 1 0 0)"  >
<line style="stroke: rgb(255,255,255); stroke-width: 2.7630655371789103; stroke-dasharray: none; stroke-linecap: butt; stroke-dashoffset: 0; stroke-linejoin: miter; stroke-miterlimit: 4; fill: rgb(0,0,0); fill-rule: nonzero; opacity: 1;"  x1="-5500" y1="0" x2="5500" y2="0" />
</g>
</g>
</g>
<g transform="matrix(1 0 0 1 -93.3282 1681.4288)"  >
<g style=""   >
		<g transform="matrix(1 0 0 1 0 0)"  >
<g style=""   >
		<g transform="matrix(1 0 0 1 0 0)"  >
<path style="stroke: rgb(0,0,0); stroke-width: 0; stroke-dasharray: none; stroke-linecap: butt; stroke-dashoffset: 0; stroke-linejoin: miter; stroke-miterlimit: 4; fill: rgb(255,255,255); fill-rule: nonzero; opacity: 1;"  transform=" translate(93.3282, -1681.4288)" d="M 31.6718 1978.3288 L 31.6718 1978.3288 L -118.3282 1978.3288 L -118.3282 1817.5788 C -118.3149 1638.9327 -213.6161 1473.8519 -368.3282 1384.5288 C -226.3964 1466.4776 -60.2099 1496.0274 101.2718 1468.0288 C 154.1829 1576.9584 181.6738 1696.4787 181.6718 1817.5788 L 181.6718 1978.3288 Z" stroke-linecap="round" />
</g>
</g>
</g>
</g>
</g>
<g transform="matrix(1 0 0 1 -18.3718 -171.6196)"  >
<g style=""   >
		<g transform="matrix(1 0 0 1 0 0)"  >
<g style=""   >
		<g transform="matrix(1 0 0 1 0 0)"  >
<path style="stroke: rgb(0,0,0); stroke-width: 0; stroke-dasharray: none; stroke-linecap: butt; stroke-dashoffset: 0; stroke-linejoin: miter; stroke-miterlimit: 4; fill: rgb(255,255,255); fill-rule: nonzero; opacity: 1;"  transform=" translate(18.3718, 171.6196)" d="M -18.3282 -1821.6712 L -18.3282 -1821.6712 C 231.7581 -1821.672 462.8477 -1688.253 587.8912 -1471.6721 C 712.9347 -1255.0912 712.9349 -988.2523 587.8918 -771.6712 L 414.6868 -871.6712 C 540.1437 -1088.9706 485.118 -1365.5997 286.0533 -1518.3469 C 86.9886 -1671.0941 -194.4563 -1652.647 -371.8802 -1475.2231 C -549.304 -1297.7992 -567.7511 -1016.3544 -415.0039 -817.2897 C -262.2568 -618.225 14.3724 -563.1993 231.6718 -688.6562 L 331.6718 -515.4512 C 284.2222 -488.1015 233.7268 -466.4148 181.2218 -450.8362 C 202.9552 -259.5496 144.9479 -67.7557 20.8468 79.4238 C 263.5641 93.0275 481.8443 231.5843 597.4526 445.4335 C 713.0609 659.2828 709.4416 917.7999 587.8918 1128.3288 L 414.6868 1028.3288 C 540.1437 811.0294 485.118 534.4003 286.0533 381.6531 C 86.9886 228.9059 -194.4563 247.353 -371.8802 424.7769 C -549.304 602.2008 -567.7511 883.6456 -415.0039 1082.7103 C -262.2568 1281.775 14.3724 1336.8007 231.6718 1211.3438 L 331.6718 1384.5488 C -3.1426 1577.8333 -431.2512 1463.1007 -624.5357 1128.2863 C -817.8202 793.472 -703.0876 365.3633 -368.2732 172.0788 C -155.5241 49.2745 -22.715 -176.062 -18.3282 -421.6712 C -404.9275 -421.6712 -718.3282 -735.0718 -718.3282 -1121.6712 C -718.3282 -1508.2705 -404.9275 -1821.6712 -18.3282 -1821.6712 Z" stroke-linecap="round" />
</g>
		<g transform="matrix(1 0 0 1 0.0436 949.9485)"  >
<path style="stroke: rgb(0,0,0); stroke-width: 0; stroke-dasharray: none; stroke-linecap: butt; stroke-dashoffset: 0; stroke-linejoin: miter; stroke-miterlimit: 4; fill: rgb(255,255,255); fill-rule: nonzero; opacity: 1;"  transform=" translate(18.3282, -778.3288)" d="M -18.3282 778.3288 L -18.3282 778.3288 Z" stroke-linecap="round" />
</g>
		<g transform="matrix(1 0 0 1 0.0436 -950.0515)"  >
<path style="stroke: rgb(0,0,0); stroke-width: 0; stroke-dasharray: none; stroke-linecap: butt; stroke-dashoffset: 0; stroke-linejoin: miter; stroke-miterlimit: 4; fill: rgb(255,255,255); fill-rule: nonzero; opacity: 1;"  transform=" translate(18.3282, 1121.6712)" d="M -18.3282 -1121.6712 L -18.3282 -1121.6712 Z" stroke-linecap="round" />
</g>
		<g transform="matrix(1 0 0 1 700.0436 -950.0515)"  >
<path style="stroke: rgb(0,0,0); stroke-width: 0; stroke-dasharray: none; stroke-linecap: butt; stroke-dashoffset: 0; stroke-linejoin: miter; stroke-miterlimit: 4; fill: rgb(255,255,255); fill-rule: nonzero; opacity: 1;"  transform=" translate(-681.6718, 1121.6712)" d="M 681.6718 -1121.6712 L 681.6718 -1121.6712 Z" stroke-linecap="round" />
</g>
		<g transform="matrix(1 0 0 1 700.0436 949.9485)"  >
<path style="stroke: rgb(0,0,0); stroke-width: 0; stroke-dasharray: none; stroke-linecap: butt; stroke-dashoffset: 0; stroke-linejoin: miter; stroke-miterlimit: 4; fill: rgb(255,255,255); fill-rule: nonzero; opacity: 1;"  transform=" translate(-681.6718, -778.3288)" d="M 681.6718 778.3288 L 681.6718 778.3288 Z" stroke-linecap="round" />
</g>
		<g transform="matrix(1 0 0 1 0.0436 1649.9485)"  >
<path style="stroke: rgb(0,0,0); stroke-width: 0; stroke-dasharray: none; stroke-linecap: butt; stroke-dashoffset: 0; stroke-linejoin: miter; stroke-miterlimit: 4; fill: rgb(255,255,255); fill-rule: nonzero; opacity: 1;"  transform=" translate(18.3282, -1478.3288)" d="M -18.3282 1478.3288 L -18.3282 1478.3288 Z" stroke-linecap="round" />
</g>
		<g transform="matrix(1 0 0 1 -699.9564 949.9485)"  >
<path style="stroke: rgb(0,0,0); stroke-width: 0; stroke-dasharray: none; stroke-linecap: butt; stroke-dashoffset: 0; stroke-linejoin: miter; stroke-miterlimit: 4; fill: rgb(255,255,255); fill-rule: nonzero; opacity: 1;"  transform=" translate(718.3282, -778.3288)" d="M -718.3282 778.3288 L -718.3282 778.3288 Z" stroke-linecap="round" />
</g>
		<g transform="matrix(1 0 0 1 -699.9564 -950.0515)"  >
<path style="stroke: rgb(0,0,0); stroke-width: 0; stroke-dasharray: none; stroke-linecap: butt; stroke-dashoffset: 0; stroke-linejoin: miter; stroke-miterlimit: 4; fill: rgb(255,255,255); fill-rule: nonzero; opacity: 1;"  transform=" translate(718.3282, 1121.6712)" d="M -718.3282 -1121.6712 L -718.3282 -1121.6712 Z" stroke-linecap="round" />
</g>
</g>
</g>
</g>
</g>
<g transform="matrix(1 0 0 1 -919.895 -1045.6916)"  >
<g style=""   >
		<g transform="matrix(1 0 0 1 0 0)"  >
<g style=""   >
		<g transform="matrix(1 0 0 1 0 0)"  >
<path style="stroke: rgb(0,0,0); stroke-width: 0; stroke-dasharray: none; stroke-linecap: butt; stroke-dashoffset: 0; stroke-linejoin: miter; stroke-miterlimit: 4; fill: rgb(255,255,255); fill-rule: nonzero; opacity: 1;"  transform=" translate(919.895, 1045.6916)" d="M -1213.7619 -1226.2581 L -1213.7619 -1226.2581 L -1105.4268 -1317.162 C -965.7382 -1297.1672 -832.7086 -1244.6057 -717.0782 -1163.7212 C -725.2592 -1027.7955 -693.6171 -892.4348 -626.0282 -774.2212 C -731.132 -958.034 -913.789 -1084.3943 -1122.858 -1117.923 Z" stroke-linecap="round" />
</g>
</g>
</g>
</g>
</g>
<g transform="matrix(1 0 0 1 883.2386 702.3492)"  >
<g style=""   >
		<g transform="matrix(1 0 0 1 0 0)"  >
<g style=""   >
		<g transform="matrix(1 0 0 1 0 0)"  >
<path style="stroke: rgb(0,0,0); stroke-width: 0; stroke-dasharray: none; stroke-linecap: butt; stroke-dashoffset: 0; stroke-linejoin: miter; stroke-miterlimit: 4; fill: rgb(255,255,255); fill-rule: nonzero; opacity: 1;"  transform=" translate(-883.2386, -702.3492)" d="M 1177.1054 882.9157 L 1177.1054 882.9157 L 1068.7704 973.8196 C 929.0818 953.8248 796.0521 901.2634 680.4218 820.3788 C 688.6027 684.4531 656.9606 549.0925 589.3718 430.8788 C 694.4756 614.6917 877.1326 741.052 1086.2015 774.5807 Z" stroke-linecap="round" />
</g>
</g>
</g>
</g>
</g>
</svg>