<?xml version="1.0" encoding="UTF-8" standalone="no" ?>
<!DOCTYPE svg PUBLIC "-//W3C//DTD SVG 1.1//EN" "http://www.w3.org/Graphics/SVG/1.1/DTD/svg11.dtd">
<svg xmlns="http://www.w3.org/2000/svg" xmlns:xlink="http://www.w3.org/1999/xlink" version="1.1" width="2440" height="3185.0000000203345" viewBox="-1199.551880489409 -1725.1411841537279 2440 3185.0000000203345" xml:space="preserve">
<desc>Created with Fabric.js 6.4.3</desc>
<defs>
</defs>
<rect x="0" y="0" width="100%" height="100%" fill="rgba(0,0,0,0)"></rect>
<g transform="matrix(1 0 0 1 -700 0)" id="grid"  >
<g style=" visibility: hidden;"   >
		<g transform="matrix(1 0 0 1 -5500 0)"  >
<line style="stroke: rgb(255,255,255); stroke-width: 0.5526131074357821; stroke-dasharray: none; stroke-linecap: butt; stroke-dashoffset: 0; stroke-linejoin: miter; stroke-miterlimit: 4; fill: rgb(0,0,0); fill-rule: nonzero; opacity: 1;"  x1="0" y1="-2600" x2="0" y2="2600" />
</g>
		<g transform="matrix(1 0 0 1 -5203.6454 49.0194)" style=""  >
		<text xml:space="preserve" font-family="Arial" font-size="66.31357289229385" font-style="normal" font-weight="normal" style="stroke: none; stroke-width: 1; stroke-dasharray: none; stroke-linecap: butt; stroke-dashoffset: 0; stroke-linejoin: miter; stroke-miterlimit: 4; fill: rgb(255,255,255); fill-rule: nonzero; opacity: 1; white-space: pre;" ><tspan x="-84.8024" y="20.8317" >-6000</tspan></text>
</g>
		<g transform="matrix(1 0 0 1 -5299.7237 0.2763)"  >
<line style="stroke: rgb(255,255,255); stroke-width: 1.1052262148715641; stroke-dasharray: none; stroke-linecap: butt; stroke-dashoffset: 0; stroke-linejoin: miter; stroke-miterlimit: 4; fill: rgb(0,0,0); fill-rule: nonzero; opacity: 1;"  x1="0" y1="-2600" x2="0" y2="2600" />
</g>
		<g transform="matrix(1 0 0 1 -5100 0)"  >
<line style="stroke: rgb(255,255,255); stroke-width: 0.5526131074357821; stroke-dasharray: none; stroke-linecap: butt; stroke-dashoffset: 0; stroke-linejoin: miter; stroke-miterlimit: 4; fill: rgb(0,0,0); fill-rule: nonzero; opacity: 1;"  x1="0" y1="-2600" x2="0" y2="2600" />
</g>
		<g transform="matrix(1 0 0 1 -4900 0)"  >
<line style="stroke: rgb(255,255,255); stroke-width: 0.5526131074357821; stroke-dasharray: none; stroke-linecap: butt; stroke-dashoffset: 0; stroke-linejoin: miter; stroke-miterlimit: 4; fill: rgb(0,0,0); fill-rule: nonzero; opacity: 1;"  x1="0" y1="-2600" x2="0" y2="2600" />
</g>
		<g transform="matrix(1 0 0 1 -4700 0)"  >
<line style="stroke: rgb(255,255,255); stroke-width: 0.5526131074357821; stroke-dasharray: none; stroke-linecap: butt; stroke-dashoffset: 0; stroke-linejoin: miter; stroke-miterlimit: 4; fill: rgb(0,0,0); fill-rule: nonzero; opacity: 1;"  x1="0" y1="-2600" x2="0" y2="2600" />
</g>
		<g transform="matrix(1 0 0 1 -4500 0)"  >
<line style="stroke: rgb(255,255,255); stroke-width: 0.5526131074357821; stroke-dasharray: none; stroke-linecap: butt; stroke-dashoffset: 0; stroke-linejoin: miter; stroke-miterlimit: 4; fill: rgb(0,0,0); fill-rule: nonzero; opacity: 1;"  x1="0" y1="-2600" x2="0" y2="2600" />
</g>
		<g transform="matrix(1 0 0 1 -4203.6454 49.0194)" style=""  >
		<text xml:space="preserve" font-family="Arial" font-size="66.31357289229385" font-style="normal" font-weight="normal" style="stroke: none; stroke-width: 1; stroke-dasharray: none; stroke-linecap: butt; stroke-dashoffset: 0; stroke-linejoin: miter; stroke-miterlimit: 4; fill: rgb(255,255,255); fill-rule: nonzero; opacity: 1; white-space: pre;" ><tspan x="-84.8024" y="20.8317" >-5000</tspan></text>
</g>
		<g transform="matrix(1 0 0 1 -4299.7237 0.2763)"  >
<line style="stroke: rgb(255,255,255); stroke-width: 1.1052262148715641; stroke-dasharray: none; stroke-linecap: butt; stroke-dashoffset: 0; stroke-linejoin: miter; stroke-miterlimit: 4; fill: rgb(0,0,0); fill-rule: nonzero; opacity: 1;"  x1="0" y1="-2600" x2="0" y2="2600" />
</g>
		<g transform="matrix(1 0 0 1 -4100 0)"  >
<line style="stroke: rgb(255,255,255); stroke-width: 0.5526131074357821; stroke-dasharray: none; stroke-linecap: butt; stroke-dashoffset: 0; stroke-linejoin: miter; stroke-miterlimit: 4; fill: rgb(0,0,0); fill-rule: nonzero; opacity: 1;"  x1="0" y1="-2600" x2="0" y2="2600" />
</g>
		<g transform="matrix(1 0 0 1 -3900 0)"  >
<line style="stroke: rgb(255,255,255); stroke-width: 0.5526131074357821; stroke-dasharray: none; stroke-linecap: butt; stroke-dashoffset: 0; stroke-linejoin: miter; stroke-miterlimit: 4; fill: rgb(0,0,0); fill-rule: nonzero; opacity: 1;"  x1="0" y1="-2600" x2="0" y2="2600" />
</g>
		<g transform="matrix(1 0 0 1 -3700 0)"  >
<line style="stroke: rgb(255,255,255); stroke-width: 0.5526131074357821; stroke-dasharray: none; stroke-linecap: butt; stroke-dashoffset: 0; stroke-linejoin: miter; stroke-miterlimit: 4; fill: rgb(0,0,0); fill-rule: nonzero; opacity: 1;"  x1="0" y1="-2600" x2="0" y2="2600" />
</g>
		<g transform="matrix(1 0 0 1 -3500 0)"  >
<line style="stroke: rgb(255,255,255); stroke-width: 0.5526131074357821; stroke-dasharray: none; stroke-linecap: butt; stroke-dashoffset: 0; stroke-linejoin: miter; stroke-miterlimit: 4; fill: rgb(0,0,0); fill-rule: nonzero; opacity: 1;"  x1="0" y1="-2600" x2="0" y2="2600" />
</g>
		<g transform="matrix(1 0 0 1 -3203.6454 49.0194)" style=""  >
		<text xml:space="preserve" font-family="Arial" font-size="66.31357289229385" font-style="normal" font-weight="normal" style="stroke: none; stroke-width: 1; stroke-dasharray: none; stroke-linecap: butt; stroke-dashoffset: 0; stroke-linejoin: miter; stroke-miterlimit: 4; fill: rgb(255,255,255); fill-rule: nonzero; opacity: 1; white-space: pre;" ><tspan x="-84.8024" y="20.8317" >-4000</tspan></text>
</g>
		<g transform="matrix(1 0 0 1 -3299.7237 0.2763)"  >
<line style="stroke: rgb(255,255,255); stroke-width: 1.1052262148715641; stroke-dasharray: none; stroke-linecap: butt; stroke-dashoffset: 0; stroke-linejoin: miter; stroke-miterlimit: 4; fill: rgb(0,0,0); fill-rule: nonzero; opacity: 1;"  x1="0" y1="-2600" x2="0" y2="2600" />
</g>
		<g transform="matrix(1 0 0 1 -3100 0)"  >
<line style="stroke: rgb(255,255,255); stroke-width: 0.5526131074357821; stroke-dasharray: none; stroke-linecap: butt; stroke-dashoffset: 0; stroke-linejoin: miter; stroke-miterlimit: 4; fill: rgb(0,0,0); fill-rule: nonzero; opacity: 1;"  x1="0" y1="-2600" x2="0" y2="2600" />
</g>
		<g transform="matrix(1 0 0 1 -2900 0)"  >
<line style="stroke: rgb(255,255,255); stroke-width: 0.5526131074357821; stroke-dasharray: none; stroke-linecap: butt; stroke-dashoffset: 0; stroke-linejoin: miter; stroke-miterlimit: 4; fill: rgb(0,0,0); fill-rule: nonzero; opacity: 1;"  x1="0" y1="-2600" x2="0" y2="2600" />
</g>
		<g transform="matrix(1 0 0 1 -2700 0)"  >
<line style="stroke: rgb(255,255,255); stroke-width: 0.5526131074357821; stroke-dasharray: none; stroke-linecap: butt; stroke-dashoffset: 0; stroke-linejoin: miter; stroke-miterlimit: 4; fill: rgb(0,0,0); fill-rule: nonzero; opacity: 1;"  x1="0" y1="-2600" x2="0" y2="2600" />
</g>
		<g transform="matrix(1 0 0 1 -2500 0)"  >
<line style="stroke: rgb(255,255,255); stroke-width: 0.5526131074357821; stroke-dasharray: none; stroke-linecap: butt; stroke-dashoffset: 0; stroke-linejoin: miter; stroke-miterlimit: 4; fill: rgb(0,0,0); fill-rule: nonzero; opacity: 1;"  x1="0" y1="-2600" x2="0" y2="2600" />
</g>
		<g transform="matrix(1 0 0 1 -2203.6454 49.0194)" style=""  >
		<text xml:space="preserve" font-family="Arial" font-size="66.31357289229385" font-style="normal" font-weight="normal" style="stroke: none; stroke-width: 1; stroke-dasharray: none; stroke-linecap: butt; stroke-dashoffset: 0; stroke-linejoin: miter; stroke-miterlimit: 4; fill: rgb(255,255,255); fill-rule: nonzero; opacity: 1; white-space: pre;" ><tspan x="-84.8024" y="20.8317" >-3000</tspan></text>
</g>
		<g transform="matrix(1 0 0 1 -2299.7237 0.2763)"  >
<line style="stroke: rgb(255,255,255); stroke-width: 1.1052262148715641; stroke-dasharray: none; stroke-linecap: butt; stroke-dashoffset: 0; stroke-linejoin: miter; stroke-miterlimit: 4; fill: rgb(0,0,0); fill-rule: nonzero; opacity: 1;"  x1="0" y1="-2600" x2="0" y2="2600" />
</g>
		<g transform="matrix(1 0 0 1 -2100 0)"  >
<line style="stroke: rgb(255,255,255); stroke-width: 0.5526131074357821; stroke-dasharray: none; stroke-linecap: butt; stroke-dashoffset: 0; stroke-linejoin: miter; stroke-miterlimit: 4; fill: rgb(0,0,0); fill-rule: nonzero; opacity: 1;"  x1="0" y1="-2600" x2="0" y2="2600" />
</g>
		<g transform="matrix(1 0 0 1 -1900 0)"  >
<line style="stroke: rgb(255,255,255); stroke-width: 0.5526131074357821; stroke-dasharray: none; stroke-linecap: butt; stroke-dashoffset: 0; stroke-linejoin: miter; stroke-miterlimit: 4; fill: rgb(0,0,0); fill-rule: nonzero; opacity: 1;"  x1="0" y1="-2600" x2="0" y2="2600" />
</g>
		<g transform="matrix(1 0 0 1 -1700 0)"  >
<line style="stroke: rgb(255,255,255); stroke-width: 0.5526131074357821; stroke-dasharray: none; stroke-linecap: butt; stroke-dashoffset: 0; stroke-linejoin: miter; stroke-miterlimit: 4; fill: rgb(0,0,0); fill-rule: nonzero; opacity: 1;"  x1="0" y1="-2600" x2="0" y2="2600" />
</g>
		<g transform="matrix(1 0 0 1 -1500 0)"  >
<line style="stroke: rgb(255,255,255); stroke-width: 0.5526131074357821; stroke-dasharray: none; stroke-linecap: butt; stroke-dashoffset: 0; stroke-linejoin: miter; stroke-miterlimit: 4; fill: rgb(0,0,0); fill-rule: nonzero; opacity: 1;"  x1="0" y1="-2600" x2="0" y2="2600" />
</g>
		<g transform="matrix(1 0 0 1 -1203.6454 49.0194)" style=""  >
		<text xml:space="preserve" font-family="Arial" font-size="66.31357289229385" font-style="normal" font-weight="normal" style="stroke: none; stroke-width: 1; stroke-dasharray: none; stroke-linecap: butt; stroke-dashoffset: 0; stroke-linejoin: miter; stroke-miterlimit: 4; fill: rgb(255,255,255); fill-rule: nonzero; opacity: 1; white-space: pre;" ><tspan x="-84.8024" y="20.8317" >-2000</tspan></text>
</g>
		<g transform="matrix(1 0 0 1 -1299.7237 0.2763)"  >
<line style="stroke: rgb(255,255,255); stroke-width: 1.1052262148715641; stroke-dasharray: none; stroke-linecap: butt; stroke-dashoffset: 0; stroke-linejoin: miter; stroke-miterlimit: 4; fill: rgb(0,0,0); fill-rule: nonzero; opacity: 1;"  x1="0" y1="-2600" x2="0" y2="2600" />
</g>
		<g transform="matrix(1 0 0 1 -1100 0)"  >
<line style="stroke: rgb(255,255,255); stroke-width: 0.5526131074357821; stroke-dasharray: none; stroke-linecap: butt; stroke-dashoffset: 0; stroke-linejoin: miter; stroke-miterlimit: 4; fill: rgb(0,0,0); fill-rule: nonzero; opacity: 1;"  x1="0" y1="-2600" x2="0" y2="2600" />
</g>
		<g transform="matrix(1 0 0 1 -900 0)"  >
<line style="stroke: rgb(255,255,255); stroke-width: 0.5526131074357821; stroke-dasharray: none; stroke-linecap: butt; stroke-dashoffset: 0; stroke-linejoin: miter; stroke-miterlimit: 4; fill: rgb(0,0,0); fill-rule: nonzero; opacity: 1;"  x1="0" y1="-2600" x2="0" y2="2600" />
</g>
		<g transform="matrix(1 0 0 1 -700 0)"  >
<line style="stroke: rgb(255,255,255); stroke-width: 0.5526131074357821; stroke-dasharray: none; stroke-linecap: butt; stroke-dashoffset: 0; stroke-linejoin: miter; stroke-miterlimit: 4; fill: rgb(0,0,0); fill-rule: nonzero; opacity: 1;"  x1="0" y1="-2600" x2="0" y2="2600" />
</g>
		<g transform="matrix(1 0 0 1 -500 0)"  >
<line style="stroke: rgb(255,255,255); stroke-width: 0.5526131074357821; stroke-dasharray: none; stroke-linecap: butt; stroke-dashoffset: 0; stroke-linejoin: miter; stroke-miterlimit: 4; fill: rgb(0,0,0); fill-rule: nonzero; opacity: 1;"  x1="0" y1="-2600" x2="0" y2="2600" />
</g>
		<g transform="matrix(1 0 0 1 -203.6454 49.0194)" style=""  >
		<text xml:space="preserve" font-family="Arial" font-size="66.31357289229385" font-style="normal" font-weight="normal" style="stroke: none; stroke-width: 1; stroke-dasharray: none; stroke-linecap: butt; stroke-dashoffset: 0; stroke-linejoin: miter; stroke-miterlimit: 4; fill: rgb(255,255,255); fill-rule: nonzero; opacity: 1; white-space: pre;" ><tspan x="-84.8024" y="20.8317" >-1000</tspan></text>
</g>
		<g transform="matrix(1 0 0 1 -299.7237 0.2763)"  >
<line style="stroke: rgb(255,255,255); stroke-width: 1.1052262148715641; stroke-dasharray: none; stroke-linecap: butt; stroke-dashoffset: 0; stroke-linejoin: miter; stroke-miterlimit: 4; fill: rgb(0,0,0); fill-rule: nonzero; opacity: 1;"  x1="0" y1="-2600" x2="0" y2="2600" />
</g>
		<g transform="matrix(1 0 0 1 -100 0)"  >
<line style="stroke: rgb(255,255,255); stroke-width: 0.5526131074357821; stroke-dasharray: none; stroke-linecap: butt; stroke-dashoffset: 0; stroke-linejoin: miter; stroke-miterlimit: 4; fill: rgb(0,0,0); fill-rule: nonzero; opacity: 1;"  x1="0" y1="-2600" x2="0" y2="2600" />
</g>
		<g transform="matrix(1 0 0 1 100 0)"  >
<line style="stroke: rgb(255,255,255); stroke-width: 0.5526131074357821; stroke-dasharray: none; stroke-linecap: butt; stroke-dashoffset: 0; stroke-linejoin: miter; stroke-miterlimit: 4; fill: rgb(0,0,0); fill-rule: nonzero; opacity: 1;"  x1="0" y1="-2600" x2="0" y2="2600" />
</g>
		<g transform="matrix(1 0 0 1 300 0)"  >
<line style="stroke: rgb(255,255,255); stroke-width: 0.5526131074357821; stroke-dasharray: none; stroke-linecap: butt; stroke-dashoffset: 0; stroke-linejoin: miter; stroke-miterlimit: 4; fill: rgb(0,0,0); fill-rule: nonzero; opacity: 1;"  x1="0" y1="-2600" x2="0" y2="2600" />
</g>
		<g transform="matrix(1 0 0 1 500 0)"  >
<line style="stroke: rgb(255,255,255); stroke-width: 0.5526131074357821; stroke-dasharray: none; stroke-linecap: butt; stroke-dashoffset: 0; stroke-linejoin: miter; stroke-miterlimit: 4; fill: rgb(0,0,0); fill-rule: nonzero; opacity: 1;"  x1="0" y1="-2600" x2="0" y2="2600" />
</g>
		<g transform="matrix(1 0 0 1 729.9925 49.0194)" style=""  >
		<text xml:space="preserve" font-family="Arial" font-size="66.31357289229385" font-style="normal" font-weight="normal" style="stroke: none; stroke-width: 1; stroke-dasharray: none; stroke-linecap: butt; stroke-dashoffset: 0; stroke-linejoin: miter; stroke-miterlimit: 4; fill: rgb(255,255,255); fill-rule: nonzero; opacity: 1; white-space: pre;" ><tspan x="-18.4402" y="20.8317" >0</tspan></text>
</g>
		<g transform="matrix(1 0 0 1 700.2763 0.2763)"  >
<line style="stroke: rgb(255,255,255); stroke-width: 1.1052262148715641; stroke-dasharray: none; stroke-linecap: butt; stroke-dashoffset: 0; stroke-linejoin: miter; stroke-miterlimit: 4; fill: rgb(0,0,0); fill-rule: nonzero; opacity: 1;"  x1="0" y1="-2600" x2="0" y2="2600" />
</g>
		<g transform="matrix(1 0 0 1 900 0)"  >
<line style="stroke: rgb(255,255,255); stroke-width: 0.5526131074357821; stroke-dasharray: none; stroke-linecap: butt; stroke-dashoffset: 0; stroke-linejoin: miter; stroke-miterlimit: 4; fill: rgb(0,0,0); fill-rule: nonzero; opacity: 1;"  x1="0" y1="-2600" x2="0" y2="2600" />
</g>
		<g transform="matrix(1 0 0 1 1100 0)"  >
<line style="stroke: rgb(255,255,255); stroke-width: 0.5526131074357821; stroke-dasharray: none; stroke-linecap: butt; stroke-dashoffset: 0; stroke-linejoin: miter; stroke-miterlimit: 4; fill: rgb(0,0,0); fill-rule: nonzero; opacity: 1;"  x1="0" y1="-2600" x2="0" y2="2600" />
</g>
		<g transform="matrix(1 0 0 1 1300 0)"  >
<line style="stroke: rgb(255,255,255); stroke-width: 0.5526131074357821; stroke-dasharray: none; stroke-linecap: butt; stroke-dashoffset: 0; stroke-linejoin: miter; stroke-miterlimit: 4; fill: rgb(0,0,0); fill-rule: nonzero; opacity: 1;"  x1="0" y1="-2600" x2="0" y2="2600" />
</g>
		<g transform="matrix(1 0 0 1 1500 0)"  >
<line style="stroke: rgb(255,255,255); stroke-width: 0.5526131074357821; stroke-dasharray: none; stroke-linecap: butt; stroke-dashoffset: 0; stroke-linejoin: miter; stroke-miterlimit: 4; fill: rgb(0,0,0); fill-rule: nonzero; opacity: 1;"  x1="0" y1="-2600" x2="0" y2="2600" />
</g>
		<g transform="matrix(1 0 0 1 1785.3132 49.0194)" style=""  >
		<text xml:space="preserve" font-family="Arial" font-size="66.31357289229385" font-style="normal" font-weight="normal" style="stroke: none; stroke-width: 1; stroke-dasharray: none; stroke-linecap: butt; stroke-dashoffset: 0; stroke-linejoin: miter; stroke-miterlimit: 4; fill: rgb(255,255,255); fill-rule: nonzero; opacity: 1; white-space: pre;" ><tspan x="-73.7609" y="20.8317" >1000</tspan></text>
</g>
		<g transform="matrix(1 0 0 1 1700.2763 0.2763)"  >
<line style="stroke: rgb(255,255,255); stroke-width: 1.1052262148715641; stroke-dasharray: none; stroke-linecap: butt; stroke-dashoffset: 0; stroke-linejoin: miter; stroke-miterlimit: 4; fill: rgb(0,0,0); fill-rule: nonzero; opacity: 1;"  x1="0" y1="-2600" x2="0" y2="2600" />
</g>
		<g transform="matrix(1 0 0 1 1900 0)"  >
<line style="stroke: rgb(255,255,255); stroke-width: 0.5526131074357821; stroke-dasharray: none; stroke-linecap: butt; stroke-dashoffset: 0; stroke-linejoin: miter; stroke-miterlimit: 4; fill: rgb(0,0,0); fill-rule: nonzero; opacity: 1;"  x1="0" y1="-2600" x2="0" y2="2600" />
</g>
		<g transform="matrix(1 0 0 1 2100 0)"  >
<line style="stroke: rgb(255,255,255); stroke-width: 0.5526131074357821; stroke-dasharray: none; stroke-linecap: butt; stroke-dashoffset: 0; stroke-linejoin: miter; stroke-miterlimit: 4; fill: rgb(0,0,0); fill-rule: nonzero; opacity: 1;"  x1="0" y1="-2600" x2="0" y2="2600" />
</g>
		<g transform="matrix(1 0 0 1 2300 0)"  >
<line style="stroke: rgb(255,255,255); stroke-width: 0.5526131074357821; stroke-dasharray: none; stroke-linecap: butt; stroke-dashoffset: 0; stroke-linejoin: miter; stroke-miterlimit: 4; fill: rgb(0,0,0); fill-rule: nonzero; opacity: 1;"  x1="0" y1="-2600" x2="0" y2="2600" />
</g>
		<g transform="matrix(1 0 0 1 2500 0)"  >
<line style="stroke: rgb(255,255,255); stroke-width: 0.5526131074357821; stroke-dasharray: none; stroke-linecap: butt; stroke-dashoffset: 0; stroke-linejoin: miter; stroke-miterlimit: 4; fill: rgb(0,0,0); fill-rule: nonzero; opacity: 1;"  x1="0" y1="-2600" x2="0" y2="2600" />
</g>
		<g transform="matrix(1 0 0 1 2785.3132 49.0194)" style=""  >
		<text xml:space="preserve" font-family="Arial" font-size="66.31357289229385" font-style="normal" font-weight="normal" style="stroke: none; stroke-width: 1; stroke-dasharray: none; stroke-linecap: butt; stroke-dashoffset: 0; stroke-linejoin: miter; stroke-miterlimit: 4; fill: rgb(255,255,255); fill-rule: nonzero; opacity: 1; white-space: pre;" ><tspan x="-73.7609" y="20.8317" >2000</tspan></text>
</g>
		<g transform="matrix(1 0 0 1 2700.2763 0.2763)"  >
<line style="stroke: rgb(255,255,255); stroke-width: 1.1052262148715641; stroke-dasharray: none; stroke-linecap: butt; stroke-dashoffset: 0; stroke-linejoin: miter; stroke-miterlimit: 4; fill: rgb(0,0,0); fill-rule: nonzero; opacity: 1;"  x1="0" y1="-2600" x2="0" y2="2600" />
</g>
		<g transform="matrix(1 0 0 1 2900 0)"  >
<line style="stroke: rgb(255,255,255); stroke-width: 0.5526131074357821; stroke-dasharray: none; stroke-linecap: butt; stroke-dashoffset: 0; stroke-linejoin: miter; stroke-miterlimit: 4; fill: rgb(0,0,0); fill-rule: nonzero; opacity: 1;"  x1="0" y1="-2600" x2="0" y2="2600" />
</g>
		<g transform="matrix(1 0 0 1 3100 0)"  >
<line style="stroke: rgb(255,255,255); stroke-width: 0.5526131074357821; stroke-dasharray: none; stroke-linecap: butt; stroke-dashoffset: 0; stroke-linejoin: miter; stroke-miterlimit: 4; fill: rgb(0,0,0); fill-rule: nonzero; opacity: 1;"  x1="0" y1="-2600" x2="0" y2="2600" />
</g>
		<g transform="matrix(1 0 0 1 3300 0)"  >
<line style="stroke: rgb(255,255,255); stroke-width: 0.5526131074357821; stroke-dasharray: none; stroke-linecap: butt; stroke-dashoffset: 0; stroke-linejoin: miter; stroke-miterlimit: 4; fill: rgb(0,0,0); fill-rule: nonzero; opacity: 1;"  x1="0" y1="-2600" x2="0" y2="2600" />
</g>
		<g transform="matrix(1 0 0 1 3500 0)"  >
<line style="stroke: rgb(255,255,255); stroke-width: 0.5526131074357821; stroke-dasharray: none; stroke-linecap: butt; stroke-dashoffset: 0; stroke-linejoin: miter; stroke-miterlimit: 4; fill: rgb(0,0,0); fill-rule: nonzero; opacity: 1;"  x1="0" y1="-2600" x2="0" y2="2600" />
</g>
		<g transform="matrix(1 0 0 1 3785.3132 49.0194)" style=""  >
		<text xml:space="preserve" font-family="Arial" font-size="66.31357289229385" font-style="normal" font-weight="normal" style="stroke: none; stroke-width: 1; stroke-dasharray: none; stroke-linecap: butt; stroke-dashoffset: 0; stroke-linejoin: miter; stroke-miterlimit: 4; fill: rgb(255,255,255); fill-rule: nonzero; opacity: 1; white-space: pre;" ><tspan x="-73.7609" y="20.8317" >3000</tspan></text>
</g>
		<g transform="matrix(1 0 0 1 3700.2763 0.2763)"  >
<line style="stroke: rgb(255,255,255); stroke-width: 1.1052262148715641; stroke-dasharray: none; stroke-linecap: butt; stroke-dashoffset: 0; stroke-linejoin: miter; stroke-miterlimit: 4; fill: rgb(0,0,0); fill-rule: nonzero; opacity: 1;"  x1="0" y1="-2600" x2="0" y2="2600" />
</g>
		<g transform="matrix(1 0 0 1 3900 0)"  >
<line style="stroke: rgb(255,255,255); stroke-width: 0.5526131074357821; stroke-dasharray: none; stroke-linecap: butt; stroke-dashoffset: 0; stroke-linejoin: miter; stroke-miterlimit: 4; fill: rgb(0,0,0); fill-rule: nonzero; opacity: 1;"  x1="0" y1="-2600" x2="0" y2="2600" />
</g>
		<g transform="matrix(1 0 0 1 4100 0)"  >
<line style="stroke: rgb(255,255,255); stroke-width: 0.5526131074357821; stroke-dasharray: none; stroke-linecap: butt; stroke-dashoffset: 0; stroke-linejoin: miter; stroke-miterlimit: 4; fill: rgb(0,0,0); fill-rule: nonzero; opacity: 1;"  x1="0" y1="-2600" x2="0" y2="2600" />
</g>
		<g transform="matrix(1 0 0 1 4300 0)"  >
<line style="stroke: rgb(255,255,255); stroke-width: 0.5526131074357821; stroke-dasharray: none; stroke-linecap: butt; stroke-dashoffset: 0; stroke-linejoin: miter; stroke-miterlimit: 4; fill: rgb(0,0,0); fill-rule: nonzero; opacity: 1;"  x1="0" y1="-2600" x2="0" y2="2600" />
</g>
		<g transform="matrix(1 0 0 1 4500 0)"  >
<line style="stroke: rgb(255,255,255); stroke-width: 0.5526131074357821; stroke-dasharray: none; stroke-linecap: butt; stroke-dashoffset: 0; stroke-linejoin: miter; stroke-miterlimit: 4; fill: rgb(0,0,0); fill-rule: nonzero; opacity: 1;"  x1="0" y1="-2600" x2="0" y2="2600" />
</g>
		<g transform="matrix(1 0 0 1 4785.3132 49.0194)" style=""  >
		<text xml:space="preserve" font-family="Arial" font-size="66.31357289229385" font-style="normal" font-weight="normal" style="stroke: none; stroke-width: 1; stroke-dasharray: none; stroke-linecap: butt; stroke-dashoffset: 0; stroke-linejoin: miter; stroke-miterlimit: 4; fill: rgb(255,255,255); fill-rule: nonzero; opacity: 1; white-space: pre;" ><tspan x="-73.7609" y="20.8317" >4000</tspan></text>
</g>
		<g transform="matrix(1 0 0 1 4700.2763 0.2763)"  >
<line style="stroke: rgb(255,255,255); stroke-width: 1.1052262148715641; stroke-dasharray: none; stroke-linecap: butt; stroke-dashoffset: 0; stroke-linejoin: miter; stroke-miterlimit: 4; fill: rgb(0,0,0); fill-rule: nonzero; opacity: 1;"  x1="0" y1="-2600" x2="0" y2="2600" />
</g>
		<g transform="matrix(1 0 0 1 4900 0)"  >
<line style="stroke: rgb(255,255,255); stroke-width: 0.5526131074357821; stroke-dasharray: none; stroke-linecap: butt; stroke-dashoffset: 0; stroke-linejoin: miter; stroke-miterlimit: 4; fill: rgb(0,0,0); fill-rule: nonzero; opacity: 1;"  x1="0" y1="-2600" x2="0" y2="2600" />
</g>
		<g transform="matrix(1 0 0 1 5100 0)"  >
<line style="stroke: rgb(255,255,255); stroke-width: 0.5526131074357821; stroke-dasharray: none; stroke-linecap: butt; stroke-dashoffset: 0; stroke-linejoin: miter; stroke-miterlimit: 4; fill: rgb(0,0,0); fill-rule: nonzero; opacity: 1;"  x1="0" y1="-2600" x2="0" y2="2600" />
</g>
		<g transform="matrix(1 0 0 1 5300 0)"  >
<line style="stroke: rgb(255,255,255); stroke-width: 0.5526131074357821; stroke-dasharray: none; stroke-linecap: butt; stroke-dashoffset: 0; stroke-linejoin: miter; stroke-miterlimit: 4; fill: rgb(0,0,0); fill-rule: nonzero; opacity: 1;"  x1="0" y1="-2600" x2="0" y2="2600" />
</g>
		<g transform="matrix(1 0 0 1 5500 0)"  >
<line style="stroke: rgb(255,255,255); stroke-width: 0.5526131074357821; stroke-dasharray: none; stroke-linecap: butt; stroke-dashoffset: 0; stroke-linejoin: miter; stroke-miterlimit: 4; fill: rgb(0,0,0); fill-rule: nonzero; opacity: 1;"  x1="0" y1="-2600" x2="0" y2="2600" />
</g>
		<g transform="matrix(1 0 0 1 0 -2600)"  >
<line style="stroke: rgb(255,255,255); stroke-width: 0.5526131074357821; stroke-dasharray: none; stroke-linecap: butt; stroke-dashoffset: 0; stroke-linejoin: miter; stroke-miterlimit: 4; fill: rgb(0,0,0); fill-rule: nonzero; opacity: 1;"  x1="-5500" y1="0" x2="5500" y2="0" />
</g>
		<g transform="matrix(1 0 0 1 0 -2400)"  >
<line style="stroke: rgb(255,255,255); stroke-width: 0.5526131074357821; stroke-dasharray: none; stroke-linecap: butt; stroke-dashoffset: 0; stroke-linejoin: miter; stroke-miterlimit: 4; fill: rgb(0,0,0); fill-rule: nonzero; opacity: 1;"  x1="-5500" y1="0" x2="5500" y2="0" />
</g>
		<g transform="matrix(1 0 0 1 0 -2200)"  >
<line style="stroke: rgb(255,255,255); stroke-width: 0.5526131074357821; stroke-dasharray: none; stroke-linecap: butt; stroke-dashoffset: 0; stroke-linejoin: miter; stroke-miterlimit: 4; fill: rgb(0,0,0); fill-rule: nonzero; opacity: 1;"  x1="-5500" y1="0" x2="5500" y2="0" />
</g>
		<g transform="matrix(1 0 0 1 796.3546 -1950.9806)" style=""  >
		<text xml:space="preserve" font-family="Arial" font-size="66.31357289229385" font-style="normal" font-weight="normal" style="stroke: none; stroke-width: 1; stroke-dasharray: none; stroke-linecap: butt; stroke-dashoffset: 0; stroke-linejoin: miter; stroke-miterlimit: 4; fill: rgb(255,255,255); fill-rule: nonzero; opacity: 1; white-space: pre;" ><tspan x="-84.8024" y="20.8317" >-2000</tspan></text>
</g>
		<g transform="matrix(1 0 0 1 0.2763 -1999.7237)"  >
<line style="stroke: rgb(255,255,255); stroke-width: 1.1052262148715641; stroke-dasharray: none; stroke-linecap: butt; stroke-dashoffset: 0; stroke-linejoin: miter; stroke-miterlimit: 4; fill: rgb(0,0,0); fill-rule: nonzero; opacity: 1;"  x1="-5500" y1="0" x2="5500" y2="0" />
</g>
		<g transform="matrix(1 0 0 1 0 -1800)"  >
<line style="stroke: rgb(255,255,255); stroke-width: 0.5526131074357821; stroke-dasharray: none; stroke-linecap: butt; stroke-dashoffset: 0; stroke-linejoin: miter; stroke-miterlimit: 4; fill: rgb(0,0,0); fill-rule: nonzero; opacity: 1;"  x1="-5500" y1="0" x2="5500" y2="0" />
</g>
		<g transform="matrix(1 0 0 1 0 -1600)"  >
<line style="stroke: rgb(255,255,255); stroke-width: 0.5526131074357821; stroke-dasharray: none; stroke-linecap: butt; stroke-dashoffset: 0; stroke-linejoin: miter; stroke-miterlimit: 4; fill: rgb(0,0,0); fill-rule: nonzero; opacity: 1;"  x1="-5500" y1="0" x2="5500" y2="0" />
</g>
		<g transform="matrix(1 0 0 1 0 -1400)"  >
<line style="stroke: rgb(255,255,255); stroke-width: 0.5526131074357821; stroke-dasharray: none; stroke-linecap: butt; stroke-dashoffset: 0; stroke-linejoin: miter; stroke-miterlimit: 4; fill: rgb(0,0,0); fill-rule: nonzero; opacity: 1;"  x1="-5500" y1="0" x2="5500" y2="0" />
</g>
		<g transform="matrix(1 0 0 1 0 -1200)"  >
<line style="stroke: rgb(255,255,255); stroke-width: 0.5526131074357821; stroke-dasharray: none; stroke-linecap: butt; stroke-dashoffset: 0; stroke-linejoin: miter; stroke-miterlimit: 4; fill: rgb(0,0,0); fill-rule: nonzero; opacity: 1;"  x1="-5500" y1="0" x2="5500" y2="0" />
</g>
		<g transform="matrix(1 0 0 1 796.3546 -950.9806)" style=""  >
		<text xml:space="preserve" font-family="Arial" font-size="66.31357289229385" font-style="normal" font-weight="normal" style="stroke: none; stroke-width: 1; stroke-dasharray: none; stroke-linecap: butt; stroke-dashoffset: 0; stroke-linejoin: miter; stroke-miterlimit: 4; fill: rgb(255,255,255); fill-rule: nonzero; opacity: 1; white-space: pre;" ><tspan x="-84.8024" y="20.8317" >-1000</tspan></text>
</g>
		<g transform="matrix(1 0 0 1 0.2763 -999.7237)"  >
<line style="stroke: rgb(255,255,255); stroke-width: 1.1052262148715641; stroke-dasharray: none; stroke-linecap: butt; stroke-dashoffset: 0; stroke-linejoin: miter; stroke-miterlimit: 4; fill: rgb(0,0,0); fill-rule: nonzero; opacity: 1;"  x1="-5500" y1="0" x2="5500" y2="0" />
</g>
		<g transform="matrix(1 0 0 1 0 -800)"  >
<line style="stroke: rgb(255,255,255); stroke-width: 0.5526131074357821; stroke-dasharray: none; stroke-linecap: butt; stroke-dashoffset: 0; stroke-linejoin: miter; stroke-miterlimit: 4; fill: rgb(0,0,0); fill-rule: nonzero; opacity: 1;"  x1="-5500" y1="0" x2="5500" y2="0" />
</g>
		<g transform="matrix(1 0 0 1 0 -600)"  >
<line style="stroke: rgb(255,255,255); stroke-width: 0.5526131074357821; stroke-dasharray: none; stroke-linecap: butt; stroke-dashoffset: 0; stroke-linejoin: miter; stroke-miterlimit: 4; fill: rgb(0,0,0); fill-rule: nonzero; opacity: 1;"  x1="-5500" y1="0" x2="5500" y2="0" />
</g>
		<g transform="matrix(1 0 0 1 0 -400)"  >
<line style="stroke: rgb(255,255,255); stroke-width: 0.5526131074357821; stroke-dasharray: none; stroke-linecap: butt; stroke-dashoffset: 0; stroke-linejoin: miter; stroke-miterlimit: 4; fill: rgb(0,0,0); fill-rule: nonzero; opacity: 1;"  x1="-5500" y1="0" x2="5500" y2="0" />
</g>
		<g transform="matrix(1 0 0 1 0 -200)"  >
<line style="stroke: rgb(255,255,255); stroke-width: 0.5526131074357821; stroke-dasharray: none; stroke-linecap: butt; stroke-dashoffset: 0; stroke-linejoin: miter; stroke-miterlimit: 4; fill: rgb(0,0,0); fill-rule: nonzero; opacity: 1;"  x1="-5500" y1="0" x2="5500" y2="0" />
</g>
		<g transform="matrix(1 0 0 1 729.9925 49.0194)" style=""  >
		<text xml:space="preserve" font-family="Arial" font-size="66.31357289229385" font-style="normal" font-weight="normal" style="stroke: none; stroke-width: 1; stroke-dasharray: none; stroke-linecap: butt; stroke-dashoffset: 0; stroke-linejoin: miter; stroke-miterlimit: 4; fill: rgb(255,255,255); fill-rule: nonzero; opacity: 1; white-space: pre;" ><tspan x="-18.4402" y="20.8317" >0</tspan></text>
</g>
		<g transform="matrix(1 0 0 1 0.2763 0.2763)"  >
<line style="stroke: rgb(255,255,255); stroke-width: 1.1052262148715641; stroke-dasharray: none; stroke-linecap: butt; stroke-dashoffset: 0; stroke-linejoin: miter; stroke-miterlimit: 4; fill: rgb(0,0,0); fill-rule: nonzero; opacity: 1;"  x1="-5500" y1="0" x2="5500" y2="0" />
</g>
		<g transform="matrix(1 0 0 1 0 200)"  >
<line style="stroke: rgb(255,255,255); stroke-width: 0.5526131074357821; stroke-dasharray: none; stroke-linecap: butt; stroke-dashoffset: 0; stroke-linejoin: miter; stroke-miterlimit: 4; fill: rgb(0,0,0); fill-rule: nonzero; opacity: 1;"  x1="-5500" y1="0" x2="5500" y2="0" />
</g>
		<g transform="matrix(1 0 0 1 0 400)"  >
<line style="stroke: rgb(255,255,255); stroke-width: 0.5526131074357821; stroke-dasharray: none; stroke-linecap: butt; stroke-dashoffset: 0; stroke-linejoin: miter; stroke-miterlimit: 4; fill: rgb(0,0,0); fill-rule: nonzero; opacity: 1;"  x1="-5500" y1="0" x2="5500" y2="0" />
</g>
		<g transform="matrix(1 0 0 1 0 600)"  >
<line style="stroke: rgb(255,255,255); stroke-width: 0.5526131074357821; stroke-dasharray: none; stroke-linecap: butt; stroke-dashoffset: 0; stroke-linejoin: miter; stroke-miterlimit: 4; fill: rgb(0,0,0); fill-rule: nonzero; opacity: 1;"  x1="-5500" y1="0" x2="5500" y2="0" />
</g>
		<g transform="matrix(1 0 0 1 0 800)"  >
<line style="stroke: rgb(255,255,255); stroke-width: 0.5526131074357821; stroke-dasharray: none; stroke-linecap: butt; stroke-dashoffset: 0; stroke-linejoin: miter; stroke-miterlimit: 4; fill: rgb(0,0,0); fill-rule: nonzero; opacity: 1;"  x1="-5500" y1="0" x2="5500" y2="0" />
</g>
		<g transform="matrix(1 0 0 1 785.3132 1049.0194)" style=""  >
		<text xml:space="preserve" font-family="Arial" font-size="66.31357289229385" font-style="normal" font-weight="normal" style="stroke: none; stroke-width: 1; stroke-dasharray: none; stroke-linecap: butt; stroke-dashoffset: 0; stroke-linejoin: miter; stroke-miterlimit: 4; fill: rgb(255,255,255); fill-rule: nonzero; opacity: 1; white-space: pre;" ><tspan x="-73.7609" y="20.8317" >1000</tspan></text>
</g>
		<g transform="matrix(1 0 0 1 0.2763 1000.2763)"  >
<line style="stroke: rgb(255,255,255); stroke-width: 1.1052262148715641; stroke-dasharray: none; stroke-linecap: butt; stroke-dashoffset: 0; stroke-linejoin: miter; stroke-miterlimit: 4; fill: rgb(0,0,0); fill-rule: nonzero; opacity: 1;"  x1="-5500" y1="0" x2="5500" y2="0" />
</g>
		<g transform="matrix(1 0 0 1 0 1200)"  >
<line style="stroke: rgb(255,255,255); stroke-width: 0.5526131074357821; stroke-dasharray: none; stroke-linecap: butt; stroke-dashoffset: 0; stroke-linejoin: miter; stroke-miterlimit: 4; fill: rgb(0,0,0); fill-rule: nonzero; opacity: 1;"  x1="-5500" y1="0" x2="5500" y2="0" />
</g>
		<g transform="matrix(1 0 0 1 0 1400)"  >
<line style="stroke: rgb(255,255,255); stroke-width: 0.5526131074357821; stroke-dasharray: none; stroke-linecap: butt; stroke-dashoffset: 0; stroke-linejoin: miter; stroke-miterlimit: 4; fill: rgb(0,0,0); fill-rule: nonzero; opacity: 1;"  x1="-5500" y1="0" x2="5500" y2="0" />
</g>
		<g transform="matrix(1 0 0 1 0 1600)"  >
<line style="stroke: rgb(255,255,255); stroke-width: 0.5526131074357821; stroke-dasharray: none; stroke-linecap: butt; stroke-dashoffset: 0; stroke-linejoin: miter; stroke-miterlimit: 4; fill: rgb(0,0,0); fill-rule: nonzero; opacity: 1;"  x1="-5500" y1="0" x2="5500" y2="0" />
</g>
		<g transform="matrix(1 0 0 1 0 1800)"  >
<line style="stroke: rgb(255,255,255); stroke-width: 0.5526131074357821; stroke-dasharray: none; stroke-linecap: butt; stroke-dashoffset: 0; stroke-linejoin: miter; stroke-miterlimit: 4; fill: rgb(0,0,0); fill-rule: nonzero; opacity: 1;"  x1="-5500" y1="0" x2="5500" y2="0" />
</g>
		<g transform="matrix(1 0 0 1 785.3132 2049.0194)" style=""  >
		<text xml:space="preserve" font-family="Arial" font-size="66.31357289229385" font-style="normal" font-weight="normal" style="stroke: none; stroke-width: 1; stroke-dasharray: none; stroke-linecap: butt; stroke-dashoffset: 0; stroke-linejoin: miter; stroke-miterlimit: 4; fill: rgb(255,255,255); fill-rule: nonzero; opacity: 1; white-space: pre;" ><tspan x="-73.7609" y="20.8317" >2000</tspan></text>
</g>
		<g transform="matrix(1 0 0 1 0.2763 2000.2763)"  >
<line style="stroke: rgb(255,255,255); stroke-width: 1.1052262148715641; stroke-dasharray: none; stroke-linecap: butt; stroke-dashoffset: 0; stroke-linejoin: miter; stroke-miterlimit: 4; fill: rgb(0,0,0); fill-rule: nonzero; opacity: 1;"  x1="-5500" y1="0" x2="5500" y2="0" />
</g>
		<g transform="matrix(1 0 0 1 0 2200)"  >
<line style="stroke: rgb(255,255,255); stroke-width: 0.5526131074357821; stroke-dasharray: none; stroke-linecap: butt; stroke-dashoffset: 0; stroke-linejoin: miter; stroke-miterlimit: 4; fill: rgb(0,0,0); fill-rule: nonzero; opacity: 1;"  x1="-5500" y1="0" x2="5500" y2="0" />
</g>
		<g transform="matrix(1 0 0 1 0 2400)"  >
<line style="stroke: rgb(255,255,255); stroke-width: 0.5526131074357821; stroke-dasharray: none; stroke-linecap: butt; stroke-dashoffset: 0; stroke-linejoin: miter; stroke-miterlimit: 4; fill: rgb(0,0,0); fill-rule: nonzero; opacity: 1;"  x1="-5500" y1="0" x2="5500" y2="0" />
</g>
		<g transform="matrix(1 0 0 1 0 2600)"  >
<line style="stroke: rgb(255,255,255); stroke-width: 0.5526131074357821; stroke-dasharray: none; stroke-linecap: butt; stroke-dashoffset: 0; stroke-linejoin: miter; stroke-miterlimit: 4; fill: rgb(0,0,0); fill-rule: nonzero; opacity: 1;"  x1="-5500" y1="0" x2="5500" y2="0" />
</g>
		<g transform="matrix(1 0 0 1 700 0)"  >
<line style="stroke: rgb(255,255,255); stroke-width: 2.7630655371789103; stroke-dasharray: none; stroke-linecap: butt; stroke-dashoffset: 0; stroke-linejoin: miter; stroke-miterlimit: 4; fill: rgb(0,0,0); fill-rule: nonzero; opacity: 1;"  x1="0" y1="-2600" x2="0" y2="2600" />
</g>
		<g transform="matrix(1 0 0 1 0 0)"  >
<line style="stroke: rgb(255,255,255); stroke-width: 2.7630655371789103; stroke-dasharray: none; stroke-linecap: butt; stroke-dashoffset: 0; stroke-linejoin: miter; stroke-miterlimit: 4; fill: rgb(0,0,0); fill-rule: nonzero; opacity: 1;"  x1="-5500" y1="0" x2="5500" y2="0" />
</g>
</g>
</g>
<g transform="matrix(1 0 0 1 20.4481 1152.8038)"  >
<g style=""   >
		<g transform="matrix(1 0 0 1 0 0)"  >
<g style=""   >
		<g transform="matrix(1 0 0 1 0 0)"  >
<path style="stroke: rgb(0,0,0); stroke-width: 0; stroke-dasharray: none; stroke-linecap: butt; stroke-dashoffset: 0; stroke-linejoin: miter; stroke-miterlimit: 4; fill: rgb(255,255,255); fill-rule: nonzero; opacity: 1;"  transform=" translate(-20.4481, -1152.8038)" d="M 20.4481 1439.8588 L 20.4481 1439.8588 L -129.5519 1439.8588 L -129.5519 913.3238 C -129.5515 891.6367 -143.5319 872.4219 -164.1669 865.7488 C -44.1499 904.5599 85.0461 904.5599 205.0631 865.7488 C 184.4282 872.4219 170.4478 891.6367 170.4481 913.3238 L 170.4481 1439.8588 L 20.4481 1439.8588 Z" stroke-linecap="round" />
</g>
</g>
</g>
</g>
</g>
<g transform="matrix(1 0 0 1 20.4224 -405.1412)"  >
<g style=""   >
		<g transform="matrix(1 0 0 1 0 0)"  >
<g style=""   >
		<g transform="matrix(1 0 0 1 0 -0.0008)"  >
<path style="stroke: rgb(0,0,0); stroke-width: 0; stroke-dasharray: none; stroke-linecap: butt; stroke-dashoffset: 0; stroke-linejoin: miter; stroke-miterlimit: 4; fill: rgb(255,255,255); fill-rule: nonzero; opacity: 1;"  transform=" translate(-969.4743, -2291.4992)" d="M 969.5 991.5 L 969.5 991.5 C 1183.8593 991.5001 1381.9354 1105.8595 1489.1151 1291.5001 C 1596.2947 1477.1407 1596.2947 1705.8594 1489.115 1891.5 L 1272.61 1766.5 C 1360.43 1614.3905 1321.9122 1420.7499 1182.5669 1313.8268 C 1043.2216 1206.9036 846.2101 1219.8166 722.0133 1344.0133 C 597.8166 1468.2101 584.9036 1665.2216 691.8268 1804.5669 C 798.7499 1943.9122 992.3905 1982.43 1144.5 1894.61 L 1269.5 2111.115 C 1226.0072 2136.2262 1179.5338 2155.7774 1131.17 2169.31 C 1109.5033 2175.3033 1094.5002 2195.0196 1094.5 2217.5 L 1094.5 2365.5 C 1094.5002 2387.9804 1109.5033 2407.6967 1131.17 2413.69 C 1309.6863 2463.6384 1455.0915 2593.2975 1525.0854 2764.9476 C 1595.0792 2936.5978 1581.8016 3130.963 1489.115 3291.5 L 1272.61 3166.5 C 1360.43 3014.3905 1321.9122 2820.7499 1182.5669 2713.8268 C 1043.2216 2606.9036 846.2101 2619.8166 722.0133 2744.0133 C 597.8166 2868.2101 584.9036 3065.2216 691.8268 3204.5669 C 798.7499 3343.9122 992.3905 3382.43 1144.5 3294.61 L 1269.5 3511.115 C 1068.2516 3627.3039 818.0079 3616.8373 627.1647 3484.249 C 436.3216 3351.6607 339.2 3120.7953 377.8693 2891.6546 C 416.5386 2662.5139 584.0445 2476.3064 807.83 2413.69 C 829.4967 2407.6967 844.4998 2387.9804 844.5 2365.5 L 844.5 2217.5 C 844.4998 2195.0196 829.4967 2175.3033 807.83 2169.31 C 519.0763 2088.5198 334.2938 1806.9646 375.0688 1509.9071 C 415.8439 1212.8497 669.6572 991.4976 969.5 991.5 Z" stroke-linecap="round" />
</g>
		<g transform="matrix(1 0 0 1 0.0257 700)"  >
<path style="stroke: rgb(0,0,0); stroke-width: 0; stroke-dasharray: none; stroke-linecap: butt; stroke-dashoffset: 0; stroke-linejoin: miter; stroke-miterlimit: 4; fill: rgb(255,255,255); fill-rule: nonzero; opacity: 1;"  transform=" translate(-969.5, -2991.5)" d="M 969.5 2991.5 L 969.5 2991.5 Z" stroke-linecap="round" />
</g>
		<g transform="matrix(1 0 0 1 0.0257 -700)"  >
<path style="stroke: rgb(0,0,0); stroke-width: 0; stroke-dasharray: none; stroke-linecap: butt; stroke-dashoffset: 0; stroke-linejoin: miter; stroke-miterlimit: 4; fill: rgb(255,255,255); fill-rule: nonzero; opacity: 1;"  transform=" translate(-969.5, -1591.5)" d="M 969.5 1591.5 L 969.5 1591.5 Z" stroke-linecap="round" />
</g>
		<g transform="matrix(1 0 0 1 600.0257 -700)"  >
<path style="stroke: rgb(0,0,0); stroke-width: 0; stroke-dasharray: none; stroke-linecap: butt; stroke-dashoffset: 0; stroke-linejoin: miter; stroke-miterlimit: 4; fill: rgb(255,255,255); fill-rule: nonzero; opacity: 1;"  transform=" translate(-1569.5, -1591.5)" d="M 1569.5 1591.5 L 1569.5 1591.5 Z" stroke-linecap="round" />
</g>
		<g transform="matrix(1 0 0 1 600.0257 700)"  >
<path style="stroke: rgb(0,0,0); stroke-width: 0; stroke-dasharray: none; stroke-linecap: butt; stroke-dashoffset: 0; stroke-linejoin: miter; stroke-miterlimit: 4; fill: rgb(255,255,255); fill-rule: nonzero; opacity: 1;"  transform=" translate(-1569.5, -2991.5)" d="M 1569.5 2991.5 L 1569.5 2991.5 Z" stroke-linecap="round" />
</g>
		<g transform="matrix(1 0 0 1 0.0257 1300)"  >
<path style="stroke: rgb(0,0,0); stroke-width: 0; stroke-dasharray: none; stroke-linecap: butt; stroke-dashoffset: 0; stroke-linejoin: miter; stroke-miterlimit: 4; fill: rgb(255,255,255); fill-rule: nonzero; opacity: 1;"  transform=" translate(-969.5, -3591.5)" d="M 969.5 3591.5 L 969.5 3591.5 Z" stroke-linecap="round" />
</g>
		<g transform="matrix(1 0 0 1 -599.9743 700)"  >
<path style="stroke: rgb(0,0,0); stroke-width: 0; stroke-dasharray: none; stroke-linecap: butt; stroke-dashoffset: 0; stroke-linejoin: miter; stroke-miterlimit: 4; fill: rgb(255,255,255); fill-rule: nonzero; opacity: 1;"  transform=" translate(-369.5, -2991.5)" d="M 369.5 2991.5 L 369.5 2991.5 Z" stroke-linecap="round" />
</g>
		<g transform="matrix(1 0 0 1 -599.9743 -700)"  >
<path style="stroke: rgb(0,0,0); stroke-width: 0; stroke-dasharray: none; stroke-linecap: butt; stroke-dashoffset: 0; stroke-linejoin: miter; stroke-miterlimit: 4; fill: rgb(255,255,255); fill-rule: nonzero; opacity: 1;"  transform=" translate(-369.5, -1591.5)" d="M 369.5 1591.5 L 369.5 1591.5 Z" stroke-linecap="round" />
</g>
		<g transform="matrix(1 0 0 1 -149.9743 1280.95)"  >
<path style="stroke: rgb(0,0,0); stroke-width: 0; stroke-dasharray: none; stroke-linecap: butt; stroke-dashoffset: 0; stroke-linejoin: miter; stroke-miterlimit: 4; fill: rgb(255,255,255); fill-rule: nonzero; opacity: 1;"  transform=" translate(-819.5, -3572.45)" d="M 819.5 3572.45 L 819.5 3572.45 Z" stroke-linecap="round" />
</g>
		<g transform="matrix(1 0 0 1 150.0257 1280.95)"  >
<path style="stroke: rgb(0,0,0); stroke-width: 0; stroke-dasharray: none; stroke-linecap: butt; stroke-dashoffset: 0; stroke-linejoin: miter; stroke-miterlimit: 4; fill: rgb(255,255,255); fill-rule: nonzero; opacity: 1;"  transform=" translate(-1119.5, -3572.45)" d="M 1119.5 3572.45 L 1119.5 3572.45 Z" stroke-linecap="round" />
</g>
</g>
</g>
</g>
</g>
<g transform="matrix(1 0 0 1 -871.4544 -1105.1412)"  >
<g style=""   >
		<g transform="matrix(1 0 0 1 0 0)"  >
<g style=""   >
		<g transform="matrix(1 0 0 1 0 0)"  >
<path style="stroke: rgb(0,0,0); stroke-width: 0; stroke-dasharray: none; stroke-linecap: butt; stroke-dashoffset: 0; stroke-linejoin: miter; stroke-miterlimit: 4; fill: rgb(255,255,255); fill-rule: nonzero; opacity: 1;"  transform=" translate(871.4544, 1105.1412)" d="M -1179.5519 -1105.1412 L -1179.5519 -1105.1412 L -1079.5519 -1205.1412 L -612.0074 -1205.1412 C -588.838 -1205.1412 -568.7038 -1221.0587 -563.357 -1243.6027 C -584.9502 -1152.5578 -584.9502 -1057.7245 -563.357 -966.6796 C -568.7038 -989.2236 -588.838 -1005.1412 -612.0074 -1005.1412 L -1079.5519 -1005.1412 Z" stroke-linecap="round" />
</g>
</g>
</g>
</g>
</g>
<g transform="matrix(1 0 0 1 912.3507 294.8588)"  >
<g style=""   >
		<g transform="matrix(1 0 0 1 0 0)"  >
<g style=""   >
		<g transform="matrix(1 0 0 1 0 0)"  >
<path style="stroke: rgb(0,0,0); stroke-width: 0; stroke-dasharray: none; stroke-linecap: butt; stroke-dashoffset: 0; stroke-linejoin: miter; stroke-miterlimit: 4; fill: rgb(255,255,255); fill-rule: nonzero; opacity: 1;"  transform=" translate(-912.3507, -294.8588)" d="M 1220.4481 294.8588 L 1220.4481 294.8588 L 1120.4481 394.8588 L 652.9037 394.8588 C 629.7343 394.8588 609.6 410.7764 604.2532 433.3204 C 625.8464 342.2755 625.8464 247.4422 604.2532 156.3973 C 609.6 178.9413 629.7343 194.8588 652.9037 194.8588 L 1120.4481 194.8588 Z" stroke-linecap="round" />
</g>
</g>
</g>
</g>
</g>
</svg>