<?xml version="1.0" encoding="UTF-8" standalone="no" ?>
<!DOCTYPE svg PUBLIC "-//W3C//DTD SVG 1.1//EN" "http://www.w3.org/Graphics/SVG/1.1/DTD/svg11.dtd">
<svg xmlns="http://www.w3.org/2000/svg" xmlns:xlink="http://www.w3.org/1999/xlink" version="1.1" width="826.6025403784439" height="1019.4228634059945" viewBox="-415.80127018922195 -622.5 826.6025403784439 1019.4228634059945" xml:space="preserve">
<desc>Created with Fabric.js 6.4.3</desc>
<defs>
</defs>
<rect x="0" y="0" width="100%" height="100%" fill="rgba(0,0,0,0)"></rect>
<g transform="matrix(1 0 0 1 71.6133 0)" id="grid"  >
<g style=" visibility: hidden;"   >
		<g transform="matrix(1 0 0 1 -4984.3848 44.4)" style=""  >
		<text xml:space="preserve" font-family="Arial" font-size="60" font-style="normal" font-weight="normal" style="stroke: none; stroke-width: 1; stroke-dasharray: none; stroke-linecap: butt; stroke-dashoffset: 0; stroke-linejoin: miter; stroke-miterlimit: 4; fill: rgb(255,255,255); fill-rule: nonzero; opacity: 1; white-space: pre;" ><tspan x="-76.7285" y="18.8484" >-5000</tspan></text>
</g>
		<g transform="matrix(1 0 0 1 -5071.3633 0.25)"  >
<line style="stroke: rgb(255,255,255); stroke-width: 1; stroke-dasharray: none; stroke-linecap: butt; stroke-dashoffset: 0; stroke-linejoin: miter; stroke-miterlimit: 4; fill: rgb(0,0,0); fill-rule: nonzero; opacity: 1;"  x1="0" y1="-2400" x2="0" y2="2400" />
</g>
		<g transform="matrix(1 0 0 1 -4871.6133 0)"  >
<line style="stroke: rgb(255,255,255); stroke-width: 0.5; stroke-dasharray: none; stroke-linecap: butt; stroke-dashoffset: 0; stroke-linejoin: miter; stroke-miterlimit: 4; fill: rgb(0,0,0); fill-rule: nonzero; opacity: 1;"  x1="0" y1="-2400" x2="0" y2="2400" />
</g>
		<g transform="matrix(1 0 0 1 -4671.6133 0)"  >
<line style="stroke: rgb(255,255,255); stroke-width: 0.5; stroke-dasharray: none; stroke-linecap: butt; stroke-dashoffset: 0; stroke-linejoin: miter; stroke-miterlimit: 4; fill: rgb(0,0,0); fill-rule: nonzero; opacity: 1;"  x1="0" y1="-2400" x2="0" y2="2400" />
</g>
		<g transform="matrix(1 0 0 1 -4471.6133 0)"  >
<line style="stroke: rgb(255,255,255); stroke-width: 0.5; stroke-dasharray: none; stroke-linecap: butt; stroke-dashoffset: 0; stroke-linejoin: miter; stroke-miterlimit: 4; fill: rgb(0,0,0); fill-rule: nonzero; opacity: 1;"  x1="0" y1="-2400" x2="0" y2="2400" />
</g>
		<g transform="matrix(1 0 0 1 -4271.6133 0)"  >
<line style="stroke: rgb(255,255,255); stroke-width: 0.5; stroke-dasharray: none; stroke-linecap: butt; stroke-dashoffset: 0; stroke-linejoin: miter; stroke-miterlimit: 4; fill: rgb(0,0,0); fill-rule: nonzero; opacity: 1;"  x1="0" y1="-2400" x2="0" y2="2400" />
</g>
		<g transform="matrix(1 0 0 1 -3984.3848 44.4)" style=""  >
		<text xml:space="preserve" font-family="Arial" font-size="60" font-style="normal" font-weight="normal" style="stroke: none; stroke-width: 1; stroke-dasharray: none; stroke-linecap: butt; stroke-dashoffset: 0; stroke-linejoin: miter; stroke-miterlimit: 4; fill: rgb(255,255,255); fill-rule: nonzero; opacity: 1; white-space: pre;" ><tspan x="-76.7285" y="18.8484" >-4000</tspan></text>
</g>
		<g transform="matrix(1 0 0 1 -4071.3633 0.25)"  >
<line style="stroke: rgb(255,255,255); stroke-width: 1; stroke-dasharray: none; stroke-linecap: butt; stroke-dashoffset: 0; stroke-linejoin: miter; stroke-miterlimit: 4; fill: rgb(0,0,0); fill-rule: nonzero; opacity: 1;"  x1="0" y1="-2400" x2="0" y2="2400" />
</g>
		<g transform="matrix(1 0 0 1 -3871.6133 0)"  >
<line style="stroke: rgb(255,255,255); stroke-width: 0.5; stroke-dasharray: none; stroke-linecap: butt; stroke-dashoffset: 0; stroke-linejoin: miter; stroke-miterlimit: 4; fill: rgb(0,0,0); fill-rule: nonzero; opacity: 1;"  x1="0" y1="-2400" x2="0" y2="2400" />
</g>
		<g transform="matrix(1 0 0 1 -3671.6133 0)"  >
<line style="stroke: rgb(255,255,255); stroke-width: 0.5; stroke-dasharray: none; stroke-linecap: butt; stroke-dashoffset: 0; stroke-linejoin: miter; stroke-miterlimit: 4; fill: rgb(0,0,0); fill-rule: nonzero; opacity: 1;"  x1="0" y1="-2400" x2="0" y2="2400" />
</g>
		<g transform="matrix(1 0 0 1 -3471.6133 0)"  >
<line style="stroke: rgb(255,255,255); stroke-width: 0.5; stroke-dasharray: none; stroke-linecap: butt; stroke-dashoffset: 0; stroke-linejoin: miter; stroke-miterlimit: 4; fill: rgb(0,0,0); fill-rule: nonzero; opacity: 1;"  x1="0" y1="-2400" x2="0" y2="2400" />
</g>
		<g transform="matrix(1 0 0 1 -3271.6133 0)"  >
<line style="stroke: rgb(255,255,255); stroke-width: 0.5; stroke-dasharray: none; stroke-linecap: butt; stroke-dashoffset: 0; stroke-linejoin: miter; stroke-miterlimit: 4; fill: rgb(0,0,0); fill-rule: nonzero; opacity: 1;"  x1="0" y1="-2400" x2="0" y2="2400" />
</g>
		<g transform="matrix(1 0 0 1 -2984.3848 44.4)" style=""  >
		<text xml:space="preserve" font-family="Arial" font-size="60" font-style="normal" font-weight="normal" style="stroke: none; stroke-width: 1; stroke-dasharray: none; stroke-linecap: butt; stroke-dashoffset: 0; stroke-linejoin: miter; stroke-miterlimit: 4; fill: rgb(255,255,255); fill-rule: nonzero; opacity: 1; white-space: pre;" ><tspan x="-76.7285" y="18.8484" >-3000</tspan></text>
</g>
		<g transform="matrix(1 0 0 1 -3071.3633 0.25)"  >
<line style="stroke: rgb(255,255,255); stroke-width: 1; stroke-dasharray: none; stroke-linecap: butt; stroke-dashoffset: 0; stroke-linejoin: miter; stroke-miterlimit: 4; fill: rgb(0,0,0); fill-rule: nonzero; opacity: 1;"  x1="0" y1="-2400" x2="0" y2="2400" />
</g>
		<g transform="matrix(1 0 0 1 -2871.6133 0)"  >
<line style="stroke: rgb(255,255,255); stroke-width: 0.5; stroke-dasharray: none; stroke-linecap: butt; stroke-dashoffset: 0; stroke-linejoin: miter; stroke-miterlimit: 4; fill: rgb(0,0,0); fill-rule: nonzero; opacity: 1;"  x1="0" y1="-2400" x2="0" y2="2400" />
</g>
		<g transform="matrix(1 0 0 1 -2671.6133 0)"  >
<line style="stroke: rgb(255,255,255); stroke-width: 0.5; stroke-dasharray: none; stroke-linecap: butt; stroke-dashoffset: 0; stroke-linejoin: miter; stroke-miterlimit: 4; fill: rgb(0,0,0); fill-rule: nonzero; opacity: 1;"  x1="0" y1="-2400" x2="0" y2="2400" />
</g>
		<g transform="matrix(1 0 0 1 -2471.6133 0)"  >
<line style="stroke: rgb(255,255,255); stroke-width: 0.5; stroke-dasharray: none; stroke-linecap: butt; stroke-dashoffset: 0; stroke-linejoin: miter; stroke-miterlimit: 4; fill: rgb(0,0,0); fill-rule: nonzero; opacity: 1;"  x1="0" y1="-2400" x2="0" y2="2400" />
</g>
		<g transform="matrix(1 0 0 1 -2271.6133 0)"  >
<line style="stroke: rgb(255,255,255); stroke-width: 0.5; stroke-dasharray: none; stroke-linecap: butt; stroke-dashoffset: 0; stroke-linejoin: miter; stroke-miterlimit: 4; fill: rgb(0,0,0); fill-rule: nonzero; opacity: 1;"  x1="0" y1="-2400" x2="0" y2="2400" />
</g>
		<g transform="matrix(1 0 0 1 -1984.3848 44.4)" style=""  >
		<text xml:space="preserve" font-family="Arial" font-size="60" font-style="normal" font-weight="normal" style="stroke: none; stroke-width: 1; stroke-dasharray: none; stroke-linecap: butt; stroke-dashoffset: 0; stroke-linejoin: miter; stroke-miterlimit: 4; fill: rgb(255,255,255); fill-rule: nonzero; opacity: 1; white-space: pre;" ><tspan x="-76.7285" y="18.8484" >-2000</tspan></text>
</g>
		<g transform="matrix(1 0 0 1 -2071.3633 0.25)"  >
<line style="stroke: rgb(255,255,255); stroke-width: 1; stroke-dasharray: none; stroke-linecap: butt; stroke-dashoffset: 0; stroke-linejoin: miter; stroke-miterlimit: 4; fill: rgb(0,0,0); fill-rule: nonzero; opacity: 1;"  x1="0" y1="-2400" x2="0" y2="2400" />
</g>
		<g transform="matrix(1 0 0 1 -1871.6133 0)"  >
<line style="stroke: rgb(255,255,255); stroke-width: 0.5; stroke-dasharray: none; stroke-linecap: butt; stroke-dashoffset: 0; stroke-linejoin: miter; stroke-miterlimit: 4; fill: rgb(0,0,0); fill-rule: nonzero; opacity: 1;"  x1="0" y1="-2400" x2="0" y2="2400" />
</g>
		<g transform="matrix(1 0 0 1 -1671.6133 0)"  >
<line style="stroke: rgb(255,255,255); stroke-width: 0.5; stroke-dasharray: none; stroke-linecap: butt; stroke-dashoffset: 0; stroke-linejoin: miter; stroke-miterlimit: 4; fill: rgb(0,0,0); fill-rule: nonzero; opacity: 1;"  x1="0" y1="-2400" x2="0" y2="2400" />
</g>
		<g transform="matrix(1 0 0 1 -1471.6133 0)"  >
<line style="stroke: rgb(255,255,255); stroke-width: 0.5; stroke-dasharray: none; stroke-linecap: butt; stroke-dashoffset: 0; stroke-linejoin: miter; stroke-miterlimit: 4; fill: rgb(0,0,0); fill-rule: nonzero; opacity: 1;"  x1="0" y1="-2400" x2="0" y2="2400" />
</g>
		<g transform="matrix(1 0 0 1 -1271.6133 0)"  >
<line style="stroke: rgb(255,255,255); stroke-width: 0.5; stroke-dasharray: none; stroke-linecap: butt; stroke-dashoffset: 0; stroke-linejoin: miter; stroke-miterlimit: 4; fill: rgb(0,0,0); fill-rule: nonzero; opacity: 1;"  x1="0" y1="-2400" x2="0" y2="2400" />
</g>
		<g transform="matrix(1 0 0 1 -984.3848 44.4)" style=""  >
		<text xml:space="preserve" font-family="Arial" font-size="60" font-style="normal" font-weight="normal" style="stroke: none; stroke-width: 1; stroke-dasharray: none; stroke-linecap: butt; stroke-dashoffset: 0; stroke-linejoin: miter; stroke-miterlimit: 4; fill: rgb(255,255,255); fill-rule: nonzero; opacity: 1; white-space: pre;" ><tspan x="-76.7285" y="18.8484" >-1000</tspan></text>
</g>
		<g transform="matrix(1 0 0 1 -1071.3633 0.25)"  >
<line style="stroke: rgb(255,255,255); stroke-width: 1; stroke-dasharray: none; stroke-linecap: butt; stroke-dashoffset: 0; stroke-linejoin: miter; stroke-miterlimit: 4; fill: rgb(0,0,0); fill-rule: nonzero; opacity: 1;"  x1="0" y1="-2400" x2="0" y2="2400" />
</g>
		<g transform="matrix(1 0 0 1 -871.6133 0)"  >
<line style="stroke: rgb(255,255,255); stroke-width: 0.5; stroke-dasharray: none; stroke-linecap: butt; stroke-dashoffset: 0; stroke-linejoin: miter; stroke-miterlimit: 4; fill: rgb(0,0,0); fill-rule: nonzero; opacity: 1;"  x1="0" y1="-2400" x2="0" y2="2400" />
</g>
		<g transform="matrix(1 0 0 1 -671.6133 0)"  >
<line style="stroke: rgb(255,255,255); stroke-width: 0.5; stroke-dasharray: none; stroke-linecap: butt; stroke-dashoffset: 0; stroke-linejoin: miter; stroke-miterlimit: 4; fill: rgb(0,0,0); fill-rule: nonzero; opacity: 1;"  x1="0" y1="-2400" x2="0" y2="2400" />
</g>
		<g transform="matrix(1 0 0 1 -471.6133 0)"  >
<line style="stroke: rgb(255,255,255); stroke-width: 0.5; stroke-dasharray: none; stroke-linecap: butt; stroke-dashoffset: 0; stroke-linejoin: miter; stroke-miterlimit: 4; fill: rgb(0,0,0); fill-rule: nonzero; opacity: 1;"  x1="0" y1="-2400" x2="0" y2="2400" />
</g>
		<g transform="matrix(1 0 0 1 -271.6133 0)"  >
<line style="stroke: rgb(255,255,255); stroke-width: 0.5; stroke-dasharray: none; stroke-linecap: butt; stroke-dashoffset: 0; stroke-linejoin: miter; stroke-miterlimit: 4; fill: rgb(0,0,0); fill-rule: nonzero; opacity: 1;"  x1="0" y1="-2400" x2="0" y2="2400" />
</g>
		<g transform="matrix(1 0 0 1 -44.4287 44.4)" style=""  >
		<text xml:space="preserve" font-family="Arial" font-size="60" font-style="normal" font-weight="normal" style="stroke: none; stroke-width: 1; stroke-dasharray: none; stroke-linecap: butt; stroke-dashoffset: 0; stroke-linejoin: miter; stroke-miterlimit: 4; fill: rgb(255,255,255); fill-rule: nonzero; opacity: 1; white-space: pre;" ><tspan x="-16.6846" y="18.8484" >0</tspan></text>
</g>
		<g transform="matrix(1 0 0 1 -71.3633 0.25)"  >
<line style="stroke: rgb(255,255,255); stroke-width: 1; stroke-dasharray: none; stroke-linecap: butt; stroke-dashoffset: 0; stroke-linejoin: miter; stroke-miterlimit: 4; fill: rgb(0,0,0); fill-rule: nonzero; opacity: 1;"  x1="0" y1="-2400" x2="0" y2="2400" />
</g>
		<g transform="matrix(1 0 0 1 128.3867 0)"  >
<line style="stroke: rgb(255,255,255); stroke-width: 0.5; stroke-dasharray: none; stroke-linecap: butt; stroke-dashoffset: 0; stroke-linejoin: miter; stroke-miterlimit: 4; fill: rgb(0,0,0); fill-rule: nonzero; opacity: 1;"  x1="0" y1="-2400" x2="0" y2="2400" />
</g>
		<g transform="matrix(1 0 0 1 328.3867 0)"  >
<line style="stroke: rgb(255,255,255); stroke-width: 0.5; stroke-dasharray: none; stroke-linecap: butt; stroke-dashoffset: 0; stroke-linejoin: miter; stroke-miterlimit: 4; fill: rgb(0,0,0); fill-rule: nonzero; opacity: 1;"  x1="0" y1="-2400" x2="0" y2="2400" />
</g>
		<g transform="matrix(1 0 0 1 528.3867 0)"  >
<line style="stroke: rgb(255,255,255); stroke-width: 0.5; stroke-dasharray: none; stroke-linecap: butt; stroke-dashoffset: 0; stroke-linejoin: miter; stroke-miterlimit: 4; fill: rgb(0,0,0); fill-rule: nonzero; opacity: 1;"  x1="0" y1="-2400" x2="0" y2="2400" />
</g>
		<g transform="matrix(1 0 0 1 728.3867 0)"  >
<line style="stroke: rgb(255,255,255); stroke-width: 0.5; stroke-dasharray: none; stroke-linecap: butt; stroke-dashoffset: 0; stroke-linejoin: miter; stroke-miterlimit: 4; fill: rgb(0,0,0); fill-rule: nonzero; opacity: 1;"  x1="0" y1="-2400" x2="0" y2="2400" />
</g>
		<g transform="matrix(1 0 0 1 1005.625 44.4)" style=""  >
		<text xml:space="preserve" font-family="Arial" font-size="60" font-style="normal" font-weight="normal" style="stroke: none; stroke-width: 1; stroke-dasharray: none; stroke-linecap: butt; stroke-dashoffset: 0; stroke-linejoin: miter; stroke-miterlimit: 4; fill: rgb(255,255,255); fill-rule: nonzero; opacity: 1; white-space: pre;" ><tspan x="-66.7383" y="18.8484" >1000</tspan></text>
</g>
		<g transform="matrix(1 0 0 1 928.6367 0.25)"  >
<line style="stroke: rgb(255,255,255); stroke-width: 1; stroke-dasharray: none; stroke-linecap: butt; stroke-dashoffset: 0; stroke-linejoin: miter; stroke-miterlimit: 4; fill: rgb(0,0,0); fill-rule: nonzero; opacity: 1;"  x1="0" y1="-2400" x2="0" y2="2400" />
</g>
		<g transform="matrix(1 0 0 1 1128.3867 0)"  >
<line style="stroke: rgb(255,255,255); stroke-width: 0.5; stroke-dasharray: none; stroke-linecap: butt; stroke-dashoffset: 0; stroke-linejoin: miter; stroke-miterlimit: 4; fill: rgb(0,0,0); fill-rule: nonzero; opacity: 1;"  x1="0" y1="-2400" x2="0" y2="2400" />
</g>
		<g transform="matrix(1 0 0 1 1328.3867 0)"  >
<line style="stroke: rgb(255,255,255); stroke-width: 0.5; stroke-dasharray: none; stroke-linecap: butt; stroke-dashoffset: 0; stroke-linejoin: miter; stroke-miterlimit: 4; fill: rgb(0,0,0); fill-rule: nonzero; opacity: 1;"  x1="0" y1="-2400" x2="0" y2="2400" />
</g>
		<g transform="matrix(1 0 0 1 1528.3867 0)"  >
<line style="stroke: rgb(255,255,255); stroke-width: 0.5; stroke-dasharray: none; stroke-linecap: butt; stroke-dashoffset: 0; stroke-linejoin: miter; stroke-miterlimit: 4; fill: rgb(0,0,0); fill-rule: nonzero; opacity: 1;"  x1="0" y1="-2400" x2="0" y2="2400" />
</g>
		<g transform="matrix(1 0 0 1 1728.3867 0)"  >
<line style="stroke: rgb(255,255,255); stroke-width: 0.5; stroke-dasharray: none; stroke-linecap: butt; stroke-dashoffset: 0; stroke-linejoin: miter; stroke-miterlimit: 4; fill: rgb(0,0,0); fill-rule: nonzero; opacity: 1;"  x1="0" y1="-2400" x2="0" y2="2400" />
</g>
		<g transform="matrix(1 0 0 1 2005.625 44.4)" style=""  >
		<text xml:space="preserve" font-family="Arial" font-size="60" font-style="normal" font-weight="normal" style="stroke: none; stroke-width: 1; stroke-dasharray: none; stroke-linecap: butt; stroke-dashoffset: 0; stroke-linejoin: miter; stroke-miterlimit: 4; fill: rgb(255,255,255); fill-rule: nonzero; opacity: 1; white-space: pre;" ><tspan x="-66.7383" y="18.8484" >2000</tspan></text>
</g>
		<g transform="matrix(1 0 0 1 1928.6367 0.25)"  >
<line style="stroke: rgb(255,255,255); stroke-width: 1; stroke-dasharray: none; stroke-linecap: butt; stroke-dashoffset: 0; stroke-linejoin: miter; stroke-miterlimit: 4; fill: rgb(0,0,0); fill-rule: nonzero; opacity: 1;"  x1="0" y1="-2400" x2="0" y2="2400" />
</g>
		<g transform="matrix(1 0 0 1 2128.3867 0)"  >
<line style="stroke: rgb(255,255,255); stroke-width: 0.5; stroke-dasharray: none; stroke-linecap: butt; stroke-dashoffset: 0; stroke-linejoin: miter; stroke-miterlimit: 4; fill: rgb(0,0,0); fill-rule: nonzero; opacity: 1;"  x1="0" y1="-2400" x2="0" y2="2400" />
</g>
		<g transform="matrix(1 0 0 1 2328.3867 0)"  >
<line style="stroke: rgb(255,255,255); stroke-width: 0.5; stroke-dasharray: none; stroke-linecap: butt; stroke-dashoffset: 0; stroke-linejoin: miter; stroke-miterlimit: 4; fill: rgb(0,0,0); fill-rule: nonzero; opacity: 1;"  x1="0" y1="-2400" x2="0" y2="2400" />
</g>
		<g transform="matrix(1 0 0 1 2528.3867 0)"  >
<line style="stroke: rgb(255,255,255); stroke-width: 0.5; stroke-dasharray: none; stroke-linecap: butt; stroke-dashoffset: 0; stroke-linejoin: miter; stroke-miterlimit: 4; fill: rgb(0,0,0); fill-rule: nonzero; opacity: 1;"  x1="0" y1="-2400" x2="0" y2="2400" />
</g>
		<g transform="matrix(1 0 0 1 2728.3867 0)"  >
<line style="stroke: rgb(255,255,255); stroke-width: 0.5; stroke-dasharray: none; stroke-linecap: butt; stroke-dashoffset: 0; stroke-linejoin: miter; stroke-miterlimit: 4; fill: rgb(0,0,0); fill-rule: nonzero; opacity: 1;"  x1="0" y1="-2400" x2="0" y2="2400" />
</g>
		<g transform="matrix(1 0 0 1 3005.625 44.4)" style=""  >
		<text xml:space="preserve" font-family="Arial" font-size="60" font-style="normal" font-weight="normal" style="stroke: none; stroke-width: 1; stroke-dasharray: none; stroke-linecap: butt; stroke-dashoffset: 0; stroke-linejoin: miter; stroke-miterlimit: 4; fill: rgb(255,255,255); fill-rule: nonzero; opacity: 1; white-space: pre;" ><tspan x="-66.7383" y="18.8484" >3000</tspan></text>
</g>
		<g transform="matrix(1 0 0 1 2928.6367 0.25)"  >
<line style="stroke: rgb(255,255,255); stroke-width: 1; stroke-dasharray: none; stroke-linecap: butt; stroke-dashoffset: 0; stroke-linejoin: miter; stroke-miterlimit: 4; fill: rgb(0,0,0); fill-rule: nonzero; opacity: 1;"  x1="0" y1="-2400" x2="0" y2="2400" />
</g>
		<g transform="matrix(1 0 0 1 3128.3867 0)"  >
<line style="stroke: rgb(255,255,255); stroke-width: 0.5; stroke-dasharray: none; stroke-linecap: butt; stroke-dashoffset: 0; stroke-linejoin: miter; stroke-miterlimit: 4; fill: rgb(0,0,0); fill-rule: nonzero; opacity: 1;"  x1="0" y1="-2400" x2="0" y2="2400" />
</g>
		<g transform="matrix(1 0 0 1 3328.3867 0)"  >
<line style="stroke: rgb(255,255,255); stroke-width: 0.5; stroke-dasharray: none; stroke-linecap: butt; stroke-dashoffset: 0; stroke-linejoin: miter; stroke-miterlimit: 4; fill: rgb(0,0,0); fill-rule: nonzero; opacity: 1;"  x1="0" y1="-2400" x2="0" y2="2400" />
</g>
		<g transform="matrix(1 0 0 1 3528.3867 0)"  >
<line style="stroke: rgb(255,255,255); stroke-width: 0.5; stroke-dasharray: none; stroke-linecap: butt; stroke-dashoffset: 0; stroke-linejoin: miter; stroke-miterlimit: 4; fill: rgb(0,0,0); fill-rule: nonzero; opacity: 1;"  x1="0" y1="-2400" x2="0" y2="2400" />
</g>
		<g transform="matrix(1 0 0 1 3728.3867 0)"  >
<line style="stroke: rgb(255,255,255); stroke-width: 0.5; stroke-dasharray: none; stroke-linecap: butt; stroke-dashoffset: 0; stroke-linejoin: miter; stroke-miterlimit: 4; fill: rgb(0,0,0); fill-rule: nonzero; opacity: 1;"  x1="0" y1="-2400" x2="0" y2="2400" />
</g>
		<g transform="matrix(1 0 0 1 4005.625 44.4)" style=""  >
		<text xml:space="preserve" font-family="Arial" font-size="60" font-style="normal" font-weight="normal" style="stroke: none; stroke-width: 1; stroke-dasharray: none; stroke-linecap: butt; stroke-dashoffset: 0; stroke-linejoin: miter; stroke-miterlimit: 4; fill: rgb(255,255,255); fill-rule: nonzero; opacity: 1; white-space: pre;" ><tspan x="-66.7383" y="18.8484" >4000</tspan></text>
</g>
		<g transform="matrix(1 0 0 1 3928.6367 0.25)"  >
<line style="stroke: rgb(255,255,255); stroke-width: 1; stroke-dasharray: none; stroke-linecap: butt; stroke-dashoffset: 0; stroke-linejoin: miter; stroke-miterlimit: 4; fill: rgb(0,0,0); fill-rule: nonzero; opacity: 1;"  x1="0" y1="-2400" x2="0" y2="2400" />
</g>
		<g transform="matrix(1 0 0 1 4128.3867 0)"  >
<line style="stroke: rgb(255,255,255); stroke-width: 0.5; stroke-dasharray: none; stroke-linecap: butt; stroke-dashoffset: 0; stroke-linejoin: miter; stroke-miterlimit: 4; fill: rgb(0,0,0); fill-rule: nonzero; opacity: 1;"  x1="0" y1="-2400" x2="0" y2="2400" />
</g>
		<g transform="matrix(1 0 0 1 4328.3867 0)"  >
<line style="stroke: rgb(255,255,255); stroke-width: 0.5; stroke-dasharray: none; stroke-linecap: butt; stroke-dashoffset: 0; stroke-linejoin: miter; stroke-miterlimit: 4; fill: rgb(0,0,0); fill-rule: nonzero; opacity: 1;"  x1="0" y1="-2400" x2="0" y2="2400" />
</g>
		<g transform="matrix(1 0 0 1 4528.3867 0)"  >
<line style="stroke: rgb(255,255,255); stroke-width: 0.5; stroke-dasharray: none; stroke-linecap: butt; stroke-dashoffset: 0; stroke-linejoin: miter; stroke-miterlimit: 4; fill: rgb(0,0,0); fill-rule: nonzero; opacity: 1;"  x1="0" y1="-2400" x2="0" y2="2400" />
</g>
		<g transform="matrix(1 0 0 1 4728.3867 0)"  >
<line style="stroke: rgb(255,255,255); stroke-width: 0.5; stroke-dasharray: none; stroke-linecap: butt; stroke-dashoffset: 0; stroke-linejoin: miter; stroke-miterlimit: 4; fill: rgb(0,0,0); fill-rule: nonzero; opacity: 1;"  x1="0" y1="-2400" x2="0" y2="2400" />
</g>
		<g transform="matrix(1 0 0 1 5005.625 44.4)" style=""  >
		<text xml:space="preserve" font-family="Arial" font-size="60" font-style="normal" font-weight="normal" style="stroke: none; stroke-width: 1; stroke-dasharray: none; stroke-linecap: butt; stroke-dashoffset: 0; stroke-linejoin: miter; stroke-miterlimit: 4; fill: rgb(255,255,255); fill-rule: nonzero; opacity: 1; white-space: pre;" ><tspan x="-66.7383" y="18.8484" >5000</tspan></text>
</g>
		<g transform="matrix(1 0 0 1 4928.6367 0.25)"  >
<line style="stroke: rgb(255,255,255); stroke-width: 1; stroke-dasharray: none; stroke-linecap: butt; stroke-dashoffset: 0; stroke-linejoin: miter; stroke-miterlimit: 4; fill: rgb(0,0,0); fill-rule: nonzero; opacity: 1;"  x1="0" y1="-2400" x2="0" y2="2400" />
</g>
		<g transform="matrix(1 0 0 1 -71.6133 -2400)"  >
<line style="stroke: rgb(255,255,255); stroke-width: 0.5; stroke-dasharray: none; stroke-linecap: butt; stroke-dashoffset: 0; stroke-linejoin: miter; stroke-miterlimit: 4; fill: rgb(0,0,0); fill-rule: nonzero; opacity: 1;"  x1="-5000" y1="0" x2="5000" y2="0" />
</g>
		<g transform="matrix(1 0 0 1 -71.6133 -2200)"  >
<line style="stroke: rgb(255,255,255); stroke-width: 0.5; stroke-dasharray: none; stroke-linecap: butt; stroke-dashoffset: 0; stroke-linejoin: miter; stroke-miterlimit: 4; fill: rgb(0,0,0); fill-rule: nonzero; opacity: 1;"  x1="-5000" y1="0" x2="5000" y2="0" />
</g>
		<g transform="matrix(1 0 0 1 15.6152 -1955.6)" style=""  >
		<text xml:space="preserve" font-family="Arial" font-size="60" font-style="normal" font-weight="normal" style="stroke: none; stroke-width: 1; stroke-dasharray: none; stroke-linecap: butt; stroke-dashoffset: 0; stroke-linejoin: miter; stroke-miterlimit: 4; fill: rgb(255,255,255); fill-rule: nonzero; opacity: 1; white-space: pre;" ><tspan x="-76.7285" y="18.8484" >-2000</tspan></text>
</g>
		<g transform="matrix(1 0 0 1 -71.3633 -1999.75)"  >
<line style="stroke: rgb(255,255,255); stroke-width: 1; stroke-dasharray: none; stroke-linecap: butt; stroke-dashoffset: 0; stroke-linejoin: miter; stroke-miterlimit: 4; fill: rgb(0,0,0); fill-rule: nonzero; opacity: 1;"  x1="-5000" y1="0" x2="5000" y2="0" />
</g>
		<g transform="matrix(1 0 0 1 -71.6133 -1800)"  >
<line style="stroke: rgb(255,255,255); stroke-width: 0.5; stroke-dasharray: none; stroke-linecap: butt; stroke-dashoffset: 0; stroke-linejoin: miter; stroke-miterlimit: 4; fill: rgb(0,0,0); fill-rule: nonzero; opacity: 1;"  x1="-5000" y1="0" x2="5000" y2="0" />
</g>
		<g transform="matrix(1 0 0 1 -71.6133 -1600)"  >
<line style="stroke: rgb(255,255,255); stroke-width: 0.5; stroke-dasharray: none; stroke-linecap: butt; stroke-dashoffset: 0; stroke-linejoin: miter; stroke-miterlimit: 4; fill: rgb(0,0,0); fill-rule: nonzero; opacity: 1;"  x1="-5000" y1="0" x2="5000" y2="0" />
</g>
		<g transform="matrix(1 0 0 1 -71.6133 -1400)"  >
<line style="stroke: rgb(255,255,255); stroke-width: 0.5; stroke-dasharray: none; stroke-linecap: butt; stroke-dashoffset: 0; stroke-linejoin: miter; stroke-miterlimit: 4; fill: rgb(0,0,0); fill-rule: nonzero; opacity: 1;"  x1="-5000" y1="0" x2="5000" y2="0" />
</g>
		<g transform="matrix(1 0 0 1 -71.6133 -1200)"  >
<line style="stroke: rgb(255,255,255); stroke-width: 0.5; stroke-dasharray: none; stroke-linecap: butt; stroke-dashoffset: 0; stroke-linejoin: miter; stroke-miterlimit: 4; fill: rgb(0,0,0); fill-rule: nonzero; opacity: 1;"  x1="-5000" y1="0" x2="5000" y2="0" />
</g>
		<g transform="matrix(1 0 0 1 15.6152 -955.6)" style=""  >
		<text xml:space="preserve" font-family="Arial" font-size="60" font-style="normal" font-weight="normal" style="stroke: none; stroke-width: 1; stroke-dasharray: none; stroke-linecap: butt; stroke-dashoffset: 0; stroke-linejoin: miter; stroke-miterlimit: 4; fill: rgb(255,255,255); fill-rule: nonzero; opacity: 1; white-space: pre;" ><tspan x="-76.7285" y="18.8484" >-1000</tspan></text>
</g>
		<g transform="matrix(1 0 0 1 -71.3633 -999.75)"  >
<line style="stroke: rgb(255,255,255); stroke-width: 1; stroke-dasharray: none; stroke-linecap: butt; stroke-dashoffset: 0; stroke-linejoin: miter; stroke-miterlimit: 4; fill: rgb(0,0,0); fill-rule: nonzero; opacity: 1;"  x1="-5000" y1="0" x2="5000" y2="0" />
</g>
		<g transform="matrix(1 0 0 1 -71.6133 -800)"  >
<line style="stroke: rgb(255,255,255); stroke-width: 0.5; stroke-dasharray: none; stroke-linecap: butt; stroke-dashoffset: 0; stroke-linejoin: miter; stroke-miterlimit: 4; fill: rgb(0,0,0); fill-rule: nonzero; opacity: 1;"  x1="-5000" y1="0" x2="5000" y2="0" />
</g>
		<g transform="matrix(1 0 0 1 -71.6133 -600)"  >
<line style="stroke: rgb(255,255,255); stroke-width: 0.5; stroke-dasharray: none; stroke-linecap: butt; stroke-dashoffset: 0; stroke-linejoin: miter; stroke-miterlimit: 4; fill: rgb(0,0,0); fill-rule: nonzero; opacity: 1;"  x1="-5000" y1="0" x2="5000" y2="0" />
</g>
		<g transform="matrix(1 0 0 1 -71.6133 -400)"  >
<line style="stroke: rgb(255,255,255); stroke-width: 0.5; stroke-dasharray: none; stroke-linecap: butt; stroke-dashoffset: 0; stroke-linejoin: miter; stroke-miterlimit: 4; fill: rgb(0,0,0); fill-rule: nonzero; opacity: 1;"  x1="-5000" y1="0" x2="5000" y2="0" />
</g>
		<g transform="matrix(1 0 0 1 -71.6133 -200)"  >
<line style="stroke: rgb(255,255,255); stroke-width: 0.5; stroke-dasharray: none; stroke-linecap: butt; stroke-dashoffset: 0; stroke-linejoin: miter; stroke-miterlimit: 4; fill: rgb(0,0,0); fill-rule: nonzero; opacity: 1;"  x1="-5000" y1="0" x2="5000" y2="0" />
</g>
		<g transform="matrix(1 0 0 1 -44.4287 44.4)" style=""  >
		<text xml:space="preserve" font-family="Arial" font-size="60" font-style="normal" font-weight="normal" style="stroke: none; stroke-width: 1; stroke-dasharray: none; stroke-linecap: butt; stroke-dashoffset: 0; stroke-linejoin: miter; stroke-miterlimit: 4; fill: rgb(255,255,255); fill-rule: nonzero; opacity: 1; white-space: pre;" ><tspan x="-16.6846" y="18.8484" >0</tspan></text>
</g>
		<g transform="matrix(1 0 0 1 -71.3633 0.25)"  >
<line style="stroke: rgb(255,255,255); stroke-width: 1; stroke-dasharray: none; stroke-linecap: butt; stroke-dashoffset: 0; stroke-linejoin: miter; stroke-miterlimit: 4; fill: rgb(0,0,0); fill-rule: nonzero; opacity: 1;"  x1="-5000" y1="0" x2="5000" y2="0" />
</g>
		<g transform="matrix(1 0 0 1 -71.6133 200)"  >
<line style="stroke: rgb(255,255,255); stroke-width: 0.5; stroke-dasharray: none; stroke-linecap: butt; stroke-dashoffset: 0; stroke-linejoin: miter; stroke-miterlimit: 4; fill: rgb(0,0,0); fill-rule: nonzero; opacity: 1;"  x1="-5000" y1="0" x2="5000" y2="0" />
</g>
		<g transform="matrix(1 0 0 1 -71.6133 400)"  >
<line style="stroke: rgb(255,255,255); stroke-width: 0.5; stroke-dasharray: none; stroke-linecap: butt; stroke-dashoffset: 0; stroke-linejoin: miter; stroke-miterlimit: 4; fill: rgb(0,0,0); fill-rule: nonzero; opacity: 1;"  x1="-5000" y1="0" x2="5000" y2="0" />
</g>
		<g transform="matrix(1 0 0 1 -71.6133 600)"  >
<line style="stroke: rgb(255,255,255); stroke-width: 0.5; stroke-dasharray: none; stroke-linecap: butt; stroke-dashoffset: 0; stroke-linejoin: miter; stroke-miterlimit: 4; fill: rgb(0,0,0); fill-rule: nonzero; opacity: 1;"  x1="-5000" y1="0" x2="5000" y2="0" />
</g>
		<g transform="matrix(1 0 0 1 -71.6133 800)"  >
<line style="stroke: rgb(255,255,255); stroke-width: 0.5; stroke-dasharray: none; stroke-linecap: butt; stroke-dashoffset: 0; stroke-linejoin: miter; stroke-miterlimit: 4; fill: rgb(0,0,0); fill-rule: nonzero; opacity: 1;"  x1="-5000" y1="0" x2="5000" y2="0" />
</g>
		<g transform="matrix(1 0 0 1 5.625 1044.4)" style=""  >
		<text xml:space="preserve" font-family="Arial" font-size="60" font-style="normal" font-weight="normal" style="stroke: none; stroke-width: 1; stroke-dasharray: none; stroke-linecap: butt; stroke-dashoffset: 0; stroke-linejoin: miter; stroke-miterlimit: 4; fill: rgb(255,255,255); fill-rule: nonzero; opacity: 1; white-space: pre;" ><tspan x="-66.7383" y="18.8484" >1000</tspan></text>
</g>
		<g transform="matrix(1 0 0 1 -71.3633 1000.25)"  >
<line style="stroke: rgb(255,255,255); stroke-width: 1; stroke-dasharray: none; stroke-linecap: butt; stroke-dashoffset: 0; stroke-linejoin: miter; stroke-miterlimit: 4; fill: rgb(0,0,0); fill-rule: nonzero; opacity: 1;"  x1="-5000" y1="0" x2="5000" y2="0" />
</g>
		<g transform="matrix(1 0 0 1 -71.6133 1200)"  >
<line style="stroke: rgb(255,255,255); stroke-width: 0.5; stroke-dasharray: none; stroke-linecap: butt; stroke-dashoffset: 0; stroke-linejoin: miter; stroke-miterlimit: 4; fill: rgb(0,0,0); fill-rule: nonzero; opacity: 1;"  x1="-5000" y1="0" x2="5000" y2="0" />
</g>
		<g transform="matrix(1 0 0 1 -71.6133 1400)"  >
<line style="stroke: rgb(255,255,255); stroke-width: 0.5; stroke-dasharray: none; stroke-linecap: butt; stroke-dashoffset: 0; stroke-linejoin: miter; stroke-miterlimit: 4; fill: rgb(0,0,0); fill-rule: nonzero; opacity: 1;"  x1="-5000" y1="0" x2="5000" y2="0" />
</g>
		<g transform="matrix(1 0 0 1 -71.6133 1600)"  >
<line style="stroke: rgb(255,255,255); stroke-width: 0.5; stroke-dasharray: none; stroke-linecap: butt; stroke-dashoffset: 0; stroke-linejoin: miter; stroke-miterlimit: 4; fill: rgb(0,0,0); fill-rule: nonzero; opacity: 1;"  x1="-5000" y1="0" x2="5000" y2="0" />
</g>
		<g transform="matrix(1 0 0 1 -71.6133 1800)"  >
<line style="stroke: rgb(255,255,255); stroke-width: 0.5; stroke-dasharray: none; stroke-linecap: butt; stroke-dashoffset: 0; stroke-linejoin: miter; stroke-miterlimit: 4; fill: rgb(0,0,0); fill-rule: nonzero; opacity: 1;"  x1="-5000" y1="0" x2="5000" y2="0" />
</g>
		<g transform="matrix(1 0 0 1 5.625 2044.4)" style=""  >
		<text xml:space="preserve" font-family="Arial" font-size="60" font-style="normal" font-weight="normal" style="stroke: none; stroke-width: 1; stroke-dasharray: none; stroke-linecap: butt; stroke-dashoffset: 0; stroke-linejoin: miter; stroke-miterlimit: 4; fill: rgb(255,255,255); fill-rule: nonzero; opacity: 1; white-space: pre;" ><tspan x="-66.7383" y="18.8484" >2000</tspan></text>
</g>
		<g transform="matrix(1 0 0 1 -71.3633 2000.25)"  >
<line style="stroke: rgb(255,255,255); stroke-width: 1; stroke-dasharray: none; stroke-linecap: butt; stroke-dashoffset: 0; stroke-linejoin: miter; stroke-miterlimit: 4; fill: rgb(0,0,0); fill-rule: nonzero; opacity: 1;"  x1="-5000" y1="0" x2="5000" y2="0" />
</g>
		<g transform="matrix(1 0 0 1 -71.6133 2200)"  >
<line style="stroke: rgb(255,255,255); stroke-width: 0.5; stroke-dasharray: none; stroke-linecap: butt; stroke-dashoffset: 0; stroke-linejoin: miter; stroke-miterlimit: 4; fill: rgb(0,0,0); fill-rule: nonzero; opacity: 1;"  x1="-5000" y1="0" x2="5000" y2="0" />
</g>
		<g transform="matrix(1 0 0 1 -71.6133 2400)"  >
<line style="stroke: rgb(255,255,255); stroke-width: 0.5; stroke-dasharray: none; stroke-linecap: butt; stroke-dashoffset: 0; stroke-linejoin: miter; stroke-miterlimit: 4; fill: rgb(0,0,0); fill-rule: nonzero; opacity: 1;"  x1="-5000" y1="0" x2="5000" y2="0" />
</g>
		<g transform="matrix(1 0 0 1 -71.6133 0)"  >
<line style="stroke: rgb(255,255,255); stroke-width: 2.5; stroke-dasharray: none; stroke-linecap: butt; stroke-dashoffset: 0; stroke-linejoin: miter; stroke-miterlimit: 4; fill: rgb(0,0,0); fill-rule: nonzero; opacity: 1;"  x1="0" y1="-2400" x2="0" y2="2400" />
</g>
		<g transform="matrix(1 0 0 1 -71.6133 0)"  >
<line style="stroke: rgb(255,255,255); stroke-width: 2.5; stroke-dasharray: none; stroke-linecap: butt; stroke-dashoffset: 0; stroke-linejoin: miter; stroke-miterlimit: 4; fill: rgb(0,0,0); fill-rule: nonzero; opacity: 1;"  x1="-5000" y1="0" x2="5000" y2="0" />
</g>
</g>
</g>
<g transform="matrix(1 0 0 1 -2.5 -112.7886)"  >
<g style=""   >
		<g transform="matrix(1 0 0 1 0 0)"  >
<g style=""   >
		<g transform="matrix(1 0 0 1 0 0)"  >
<path style="stroke: rgb(0,0,0); stroke-width: 0; stroke-dasharray: none; stroke-linecap: butt; stroke-dashoffset: 0; stroke-linejoin: miter; stroke-miterlimit: 4; fill: rgb(255,255,255); fill-rule: nonzero; opacity: 1;"  transform=" translate(2.5, 112.7886)" d="M -377.5 -602.5 L -377.5 -602.5 L -309.1987 -584.1987 L -45.8 -127.9809 C -36.868 -112.5121 -20.3624 -102.9831 -2.5 -102.9831 C 15.3624 -102.9831 31.868 -112.5121 40.8 -127.9809 L 304.1987 -584.1987 L 372.5 -602.5 L 390.8013 -534.1987 L 75.85 11.3152 C 73.6556 15.1157 72.5002 19.4268 72.5 23.8152 L 72.5 376.9229 L -2.5 376.9229 L -77.5 376.9229 L -77.5 23.8152 C -77.5002 19.4268 -78.6556 15.1157 -80.85 11.3152 L -395.8013 -534.1987 Z" stroke-linecap="round" />
</g>
</g>
</g>
</g>
</g>
<g transform="matrix(1 0 0 1 -395.8013 -737.5)"  >
<line style="stroke: rgb(0,128,0); stroke-width: 5; stroke-dasharray: none; stroke-linecap: butt; stroke-dashoffset: 0; stroke-linejoin: miter; stroke-miterlimit: 4; fill: rgb(0,0,0); fill-rule: nonzero; opacity: 1;"  x1="0" y1="95" x2="0" y2="-95" />
</g>
<g transform="matrix(1 0 0 1 390.8013 -737.5)"  >
<line style="stroke: rgb(0,128,0); stroke-width: 5; stroke-dasharray: none; stroke-linecap: butt; stroke-dashoffset: 0; stroke-linejoin: miter; stroke-miterlimit: 4; fill: rgb(0,0,0); fill-rule: nonzero; opacity: 1;"  x1="0" y1="95" x2="0" y2="-95" />
</g>
<g transform="matrix(1 0 0 1 -2.5 -792.5)"  >
<line style="stroke: rgb(0,128,0); stroke-width: 5; stroke-dasharray: none; stroke-linecap: butt; stroke-dashoffset: 0; stroke-linejoin: miter; stroke-miterlimit: 4; fill: rgb(0,0,0); fill-rule: nonzero; opacity: 1;"  x1="-393.30127018922195" y1="0" x2="393.30127018922195" y2="0" />
</g>
<g transform="matrix(1 0 0 1 -375.8013 -792.5)"  >
<polygon style="stroke: rgb(0,128,0); stroke-width: 0; stroke-dasharray: none; stroke-linecap: butt; stroke-dashoffset: 0; stroke-linejoin: miter; stroke-miterlimit: 4; fill: rgb(0,128,0); fill-rule: nonzero; opacity: 1;"  points="-20,0 20,-10 20,10 " />
</g>
<g transform="matrix(1 0 0 1 370.8013 -792.5)"  >
<polygon style="stroke: rgb(0,128,0); stroke-width: 0; stroke-dasharray: none; stroke-linecap: butt; stroke-dashoffset: 0; stroke-linejoin: miter; stroke-miterlimit: 4; fill: rgb(0,128,0); fill-rule: nonzero; opacity: 1;"  points="20,0 -20,-10 -20,10 " />
</g>
<g transform="matrix(1 0 0 1 -2.5 -873.9)" style=""  >
		<text xml:space="preserve" font-family="Arial" font-size="60" font-style="normal" font-weight="normal" style="stroke: rgb(255,255,255); stroke-width: 15; stroke-dasharray: none; stroke-linecap: butt; stroke-dashoffset: 0; stroke-linejoin: miter; stroke-miterlimit: 4; fill: rgb(0,128,0); fill-rule: nonzero; opacity: 1; white-space: pre;" paint-order="stroke"  ><tspan x="-100.0342" y="18.8484" >787mm</tspan></text>
</g>
<g transform="matrix(1 0 0 1 -550.8013 -602.5)"  >
<line style="stroke: rgb(255,0,0); stroke-width: 5; stroke-dasharray: none; stroke-linecap: butt; stroke-dashoffset: 0; stroke-linejoin: miter; stroke-miterlimit: 4; fill: rgb(0,0,0); fill-rule: nonzero; opacity: 1;"  x1="94.99999999999997" y1="0" x2="-94.99999999999997" y2="0" />
</g>
<g transform="matrix(1 0 0 1 -550.8013 376.9229)"  >
<line style="stroke: rgb(255,0,0); stroke-width: 5; stroke-dasharray: none; stroke-linecap: butt; stroke-dashoffset: 0; stroke-linejoin: miter; stroke-miterlimit: 4; fill: rgb(0,0,0); fill-rule: nonzero; opacity: 1;"  x1="94.99999999999997" y1="0" x2="-94.99999999999997" y2="0" />
</g>
<g transform="matrix(1 0 0 1 -605.8013 -112.7886)"  >
<line style="stroke: rgb(255,0,0); stroke-width: 5; stroke-dasharray: none; stroke-linecap: butt; stroke-dashoffset: 0; stroke-linejoin: miter; stroke-miterlimit: 4; fill: rgb(0,0,0); fill-rule: nonzero; opacity: 1;"  x1="0" y1="-489.71143170299723" x2="0" y2="489.71143170299723" />
</g>
<g transform="matrix(1 0 0 1 -605.8013 -582.5)"  >
<polygon style="stroke: rgb(255,0,0); stroke-width: 0; stroke-dasharray: none; stroke-linecap: butt; stroke-dashoffset: 0; stroke-linejoin: miter; stroke-miterlimit: 4; fill: rgb(255,0,0); fill-rule: nonzero; opacity: 1;"  points="0,-20 -10,20 10,20 " />
</g>
<g transform="matrix(1 0 0 1 -605.8013 356.9229)"  >
<polygon style="stroke: rgb(255,0,0); stroke-width: 0; stroke-dasharray: none; stroke-linecap: butt; stroke-dashoffset: 0; stroke-linejoin: miter; stroke-miterlimit: 4; fill: rgb(255,0,0); fill-rule: nonzero; opacity: 1;"  points="0,20 -10,-20 10,-20 " />
</g>
<g transform="matrix(0 -1 1 0 -680.8013 -112.7886)" style=""  >
		<text xml:space="preserve" font-family="Arial" font-size="60" font-style="normal" font-weight="normal" style="stroke: rgb(255,255,255); stroke-width: 15; stroke-dasharray: none; stroke-linecap: butt; stroke-dashoffset: 0; stroke-linejoin: miter; stroke-miterlimit: 4; fill: rgb(255,0,0); fill-rule: nonzero; opacity: 1; white-space: pre;" paint-order="stroke"  ><tspan x="-100.0342" y="18.8484" >979mm</tspan></text>
</g>
</svg>