<svg width="775" height="700" viewBox="0 0 775 700" fill="none" xmlns="http://www.w3.org/2000/svg">
<g clip-path="url(#clip0_0_1)">
<path d="M-44 129.375C-44 108.664 -27.2107 91.875 -6.5 91.875H1243.5C1264.21 91.875 1281 108.664 1281 129.375V654.377C1281 675.088 1264.21 691.877 1243.5 691.877H-6.5C-27.2107 691.877 -44 675.088 -44 654.377V129.375Z" fill="white"/>
<path d="M-25.25 129.375C-25.25 119.02 -16.8553 110.625 -6.5 110.625H1243.5C1253.86 110.625 1262.25 119.02 1262.25 129.375V654.377C1262.25 664.732 1253.86 673.127 1243.5 673.127H-6.5C-16.8553 673.127 -25.25 664.732 -25.25 654.377V129.375Z" fill="#0033A2"/>
<path d="M288.61 450.376L338.61 500.376V550.376L305.277 517.043V650.377H271.943V517.043L238.61 550.376V500.376L288.61 450.376Z" fill="white"/>
<path d="M184.465 315.545V306.435H243.504V315.545H184.465ZM176.821 333.655V324.765H251.771V333.655H176.821ZM159.641 352.555V343.335H268.695V352.555H159.641ZM175.061 290.455V281.905H218.68V290.455H175.061ZM208.53 287.645V281.905H221.443C224.117 284.979 227.356 287.959 231.159 290.845C234.962 293.739 239.158 296.422 243.749 298.895C248.346 301.369 253.152 303.582 258.166 305.535C263.18 307.482 268.234 309.132 273.33 310.485C272.416 311.085 271.372 311.872 270.199 312.845C269.033 313.819 267.904 314.832 266.812 315.885C265.727 316.932 264.851 317.905 264.182 318.805C257.497 316.632 250.898 313.932 244.384 310.705C237.862 307.479 231.824 303.899 226.268 299.965C220.712 296.025 215.928 291.919 211.917 287.645H208.53ZM205.778 283.035L216.552 286.745C212.46 291.692 207.487 296.265 201.634 300.465C195.788 304.665 189.541 308.379 182.894 311.605C176.253 314.832 169.55 317.645 162.783 320.045C162.196 319.292 161.402 318.392 160.399 317.345C159.396 316.292 158.352 315.259 157.268 314.245C156.184 313.239 155.222 312.435 154.382 311.835C161.238 309.955 167.923 307.592 174.437 304.745C180.959 301.892 186.912 298.629 192.297 294.955C197.69 291.282 202.183 287.309 205.778 283.035ZM207.784 349.745V310.595H219.939V349.745H207.784ZM158.772 270.315V260.535H269.575V270.315H158.772ZM185.467 279.655V251.985H197.255V279.655H185.467ZM230.345 280.215V251.985H242.122V280.215" fill="white"/>
<path d="M366.367 259.748V254.238H388.294V259.748H366.367ZM365.61 278.088V272.688H389.174V278.088H365.61ZM365.61 286.518V281.238H389.174V286.518H365.61ZM347.315 339.848V332.988H410.855V339.848H347.315ZM361.977 269.198V263.238H392.06V269.198H361.977ZM381.653 295.408H372.751V301.818H381.653V295.408ZM365.353 306.998V290.238H389.296V306.998H365.353ZM349.443 328.258V321.848H401.452V317.008H341.666V310.598H412.493V328.258H349.443ZM345.176 308.568V283.038H353.075V308.568H345.176ZM333.778 286.968L332.898 280.108C336.575 279.961 340.69 279.811 345.243 279.658C349.796 279.511 354.62 279.325 359.716 279.098V285.288C355.036 285.661 350.505 285.961 346.123 286.188C341.733 286.408 337.618 286.668 333.778 286.968ZM346.056 321.848H357.086C356.083 325.448 354.999 329.198 353.833 333.098C352.659 336.998 351.571 340.371 350.568 343.218L339.917 341.868C341.083 339.095 342.212 335.888 343.304 332.248C344.389 328.615 345.306 325.148 346.056 321.848ZM407.101 334.108V332.988H418.253C418.253 332.988 418.212 333.491 418.131 334.498C418.049 335.511 417.882 336.358 417.629 337.038C416.456 341.685 415.241 345.338 413.986 347.998C412.738 350.665 411.279 352.598 409.607 353.798C408.189 354.698 406.662 355.315 405.028 355.648C403.402 355.988 401.459 356.195 399.201 356.268C397.278 356.348 394.54 356.368 390.99 356.328C387.44 356.288 383.659 356.195 379.648 356.048C379.566 354.848 379.232 353.498 378.645 351.998C378.058 350.498 377.349 349.148 376.517 347.948C380.446 348.321 384.249 348.545 387.926 348.618C391.603 348.698 394.191 348.738 395.692 348.738C397.029 348.738 398.113 348.698 398.945 348.618C399.784 348.545 400.497 348.321 401.084 347.948C402.25 347.121 403.316 345.638 404.282 343.498C405.24 341.365 406.18 338.235 407.101 334.108ZM354.579 291.018L360.596 289.788C361.264 291.661 361.911 293.721 362.534 295.968C363.166 298.221 363.649 300.171 363.983 301.818L357.465 303.398C357.294 301.671 356.938 299.665 356.395 297.378C355.853 295.091 355.248 292.971 354.579 291.018ZM354.201 275.718L359.593 273.918C360.678 275.798 361.68 277.898 362.601 280.218C363.522 282.545 364.15 284.571 364.484 286.298L358.59 288.318C358.338 286.598 357.796 284.575 356.964 282.248C356.124 279.921 355.203 277.745 354.201 275.718ZM334.146 266.838L338.157 261.438C340.586 262.858 342.966 264.488 345.298 266.328C347.646 268.168 349.402 269.761 350.568 271.108L346.056 277.298C344.801 275.725 343.048 273.961 340.797 272.008C338.539 270.061 336.322 268.338 334.146 266.838ZM346.056 251.648L353.198 254.798C351.527 257.271 349.855 259.785 348.184 262.338C346.513 264.885 344.927 267.021 343.427 268.748L337.912 266.158C339.249 264.211 340.712 261.831 342.301 259.018C343.884 256.205 345.135 253.748 346.056 251.648ZM354.078 260.988L361.097 264.588C358.342 267.961 355.396 271.521 352.262 275.268C349.127 279.021 346.182 282.171 343.427 284.718L338.157 281.798C339.917 279.925 341.8 277.788 343.806 275.388C345.811 272.988 347.709 270.511 349.499 267.958C351.296 265.411 352.823 263.088 354.078 260.988ZM336.909 289.338L344.307 290.798C343.549 293.725 342.628 296.648 341.544 299.568C340.459 302.495 339.289 305.008 338.034 307.108C337.284 306.661 336.196 306.155 334.77 305.588C333.351 305.028 332.185 304.561 331.271 304.188C332.69 302.088 333.856 299.741 334.77 297.148C335.691 294.561 336.404 291.958 336.909 289.338ZM403.09 308.568V283.038H411.112V308.568H403.09ZM391.558 286.968L390.801 280.108C394.648 279.961 398.975 279.811 403.78 279.658C408.586 279.511 413.704 279.361 419.134 279.208L419 285.398C414.075 285.698 409.292 285.978 404.65 286.238C400.015 286.505 395.651 286.748 391.558 286.968ZM412.861 291.018L419.256 289.338C420.341 291.585 421.406 294.058 422.454 296.758C423.494 299.458 424.225 301.785 424.649 303.738L418.008 305.648C417.674 303.695 417.005 301.331 416.003 298.558C415 295.785 413.953 293.271 412.861 291.018ZM411.858 275.498L417.752 273.138C419.171 275.085 420.485 277.238 421.696 279.598C422.914 281.965 423.772 284.048 424.27 285.848L417.875 288.438C417.459 286.638 416.686 284.518 415.557 282.078C414.428 279.638 413.195 277.445 411.858 275.498ZM391.057 266.608L395.313 261.548C397.489 262.895 399.662 264.451 401.831 266.218C404.007 267.978 405.678 269.571 406.844 270.998L401.964 276.848C400.873 275.348 399.305 273.621 397.263 271.668C395.213 269.721 393.144 268.035 391.057 266.608ZM403.335 251.758L410.488 255.018C408.727 257.498 406.971 259.991 405.218 262.498C403.465 265.011 401.794 267.168 400.204 268.968L394.689 266.388C396.108 264.435 397.653 262.051 399.324 259.238C400.995 256.425 402.332 253.931 403.335 251.758ZM412.237 260.538L419.256 264.138C416.419 267.511 413.329 271.071 409.986 274.818C406.644 278.571 403.469 281.721 400.46 284.268L395.313 281.348C397.237 279.475 399.242 277.338 401.329 274.938C403.424 272.538 405.429 270.061 407.346 267.508C409.27 264.961 410.9 262.638 412.237 260.538ZM394.689 289.338L401.964 290.908C401.378 293.681 400.542 296.511 399.458 299.398C398.366 302.291 397.196 304.748 395.948 306.768C395.279 306.395 394.277 305.888 392.94 305.248C391.603 304.615 390.433 304.111 389.43 303.738C390.76 301.638 391.844 299.348 392.683 296.868C393.515 294.395 394.184 291.885 394.689 289.338ZM309.456 260.418L316.353 253.448C318.44 254.421 320.631 255.601 322.926 256.988C325.229 258.375 327.383 259.761 329.388 261.148C331.394 262.541 333.024 263.875 334.279 265.148L327.127 273.018C325.96 271.745 324.393 270.358 322.425 268.858C320.464 267.358 318.355 265.878 316.096 264.418C313.846 262.951 311.632 261.618 309.456 260.418ZM306.827 290.458L313.345 283.148C315.513 284.048 317.79 285.155 320.174 286.468C322.559 287.781 324.772 289.091 326.815 290.398C328.865 291.711 330.558 292.968 331.895 294.168L324.999 302.268C323.743 301.068 322.094 299.758 320.052 298.338C318.002 296.911 315.807 295.505 313.467 294.118C311.127 292.731 308.914 291.511 306.827 290.458ZM319.985 355.038L309.334 349.638C310.923 346.638 312.613 343.148 314.403 339.168C316.2 335.195 318.039 330.995 319.918 326.568C321.805 322.148 323.539 317.798 325.121 313.518L334.525 318.918C333.188 322.898 331.684 326.988 330.012 331.188C328.341 335.388 326.67 339.511 324.999 343.558C323.327 347.611 321.656 351.438 319.985 355.038Z" fill="white"/>
<path d="M287.343 244.88H136.375V385.38H287.343V244.88Z" stroke="white" stroke-width="2" stroke-dasharray="5 5"/>
<path d="M440.539 244.88H289.571V385.38H440.539V244.88Z" stroke="white" stroke-width="2" stroke-dasharray="5 5"/>
<path d="M12.8281 150.499H13.5681H14.2981H14.8481H15.5881H18.8882H19.6282H22.9282H24.0282H25.3182H28.9882H30.4582H31.9282H33.3982H34.8582H38.5383H39.0883H39.6383H45.3283H46.6083H47.7183H48.9983H50.0983H51.0183H52.1183H52.8583H56.1584H58.1784H58.9184H59.6484H60.3784H61.1184H64.2384H64.7884H66.9884V164.459H65.8884H65.3384H61.6684H59.2784H58.5484H55.2384H54.5084H53.7684H53.0383H49.9183H49.3683H47.1683V220.819H44.7783H44.0383H40.7383H40.0083H39.2683H38.5383H35.4183H34.8582H32.6582V219.529V218.979V218.069V217.519V216.779V216.229V212.559V211.819V208.519V207.419V206.129V202.459V200.989V199.519V198.049V196.589V192.909V192.359V191.809V186.119V184.839V183.729V182.449V181.349V180.429V179.329V178.589V175.289V173.269V172.529V171.799V171.069V170.329V167.209V166.659V164.459H31.5582H31.0082H27.3382H24.9482H24.2182H20.9082H20.1782H19.4382H18.7082H15.5881H15.0381H12.8281V160.779V159.869V159.319V158.579V157.849V157.109V156.379V153.259V152.709" fill="white"/>
<path d="M90.2769 169.575C99.637 169.022 107.407 171.532 113.587 177.105L113.037 177.655L112.487 178.205C112.094 178.752 111.727 179.179 111.387 179.485L110.657 180.225L110.107 180.775C109.554 181.509 109 182.059 108.447 182.425L108.267 182.795L107.897 183.345L107.537 183.525L105.147 186.285C97.1603 179.645 90.9803 178.972 86.6069 184.265C86.5736 185.672 86.8769 186.895 87.5169 187.935L88.2569 188.115L88.8069 188.485H89.3569L89.9069 188.665L91.3769 188.855L94.3169 189.585C101.017 189.645 106.464 191.725 110.657 195.825C114.177 201.059 114.91 206.322 112.857 211.615C110.837 216.209 107.717 219.269 103.497 220.795C89.7569 224.682 78.2502 222.235 68.9768 213.455C69.5568 212.689 70.1068 212.075 70.6268 211.615L71.3668 211.255C72.1335 210.215 72.9902 209.419 73.9368 208.865L74.4868 208.125L74.8568 207.765L75.2168 207.395L75.5868 207.025L75.9568 206.845L76.3268 206.665C77.2135 205.532 78.0702 204.675 78.8969 204.095C85.0169 210.122 91.1969 212.202 97.437 210.335L97.617 209.965C98.477 209.412 99.1503 208.739 99.637 207.945C99.7636 206.079 99.1536 204.672 97.807 203.725H97.257L96.887 203.355H96.337L95.787 203.175L95.417 202.805C93.5503 202.499 92.0203 202.132 90.8269 201.705C80.0269 201.212 73.9668 196.439 72.6468 187.385C72.8002 176.492 78.6769 170.555 90.2769 169.575Z" fill="white"/>
<path d="M123.434 170.694H124.164H125.084H125.824H126.734H127.474H128.394H130.774H131.514H134.634H136.104H137.384L137.574 203.554C140.781 209.734 145.431 211.081 151.524 207.594C153.358 206.127 154.641 204.414 155.374 202.454V201.904V198.234V196.944V195.664V194.924V194.014V191.624V190.884V187.764V187.214V185.014V184.274V183.544V182.994V179.684V177.304V176.564V173.444V172.894V170.694H159.054H159.964H160.514H161.254H161.984H162.724H163.454H166.574H167.124H169.334V220.814H165.664H164.744H164.194H163.454H162.724H161.984H161.254H158.134H157.584H155.374V217.514C148.094 222.774 140.814 223.384 133.534 219.344C130.228 217.231 127.778 214.721 126.184 211.814L125.824 211.634L125.634 211.084L125.454 210.534C125.181 209.921 124.998 209.431 124.904 209.064L124.714 208.514C124.134 206.614 123.768 205.084 123.614 203.924L123.434 199.884V198.594V197.494V194.374V193.824V191.624V189.234V188.504V185.384V184.834V182.624V180.604V179.684V177.304V176.564V173.444V172.894" fill="white"/>
<path d="M200.23 169.657C215.19 169.444 223.697 176.724 225.75 191.497L226.3 193.887V195.177C226.54 197.351 226.6 199.124 226.48 200.497L225.93 200.317H225.38H221.71H221.16H220.61H214.91H213.63H212.53H211.24H210.14H209.22H208.12H207.39H204.08H202.06H201.33H200.59H199.86H199.13H196H195.45H193.25C193.924 205.637 196.677 208.817 201.51 209.857C207.537 210.777 212.557 209.247 216.57 205.267L218.04 206.927C218.62 207.321 219.047 207.747 219.32 208.207L219.69 208.397L219.87 208.757C220.484 209.217 220.974 209.647 221.34 210.047L221.71 210.597C221.924 210.717 222.044 210.841 222.07 210.967L222.44 211.147L222.81 211.517L222.99 211.877L223.36 212.067L223.54 212.427C224.154 212.887 224.644 213.317 225.01 213.717C219.23 221.064 211.277 223.817 201.15 221.977C188.757 219.864 181.717 212.337 180.03 199.397C178.93 182.997 185.663 173.084 200.23 169.657ZM203.35 181.037C197.717 181.924 194.41 184.924 193.43 190.037H194.54H195.82H198.21H203.9H206.47H207.02H207.94H208.49H209.22H209.77H213.45C212.07 184.524 208.704 181.524 203.35 181.037Z" fill="white"/>
<path d="M262.489 169.532C270.875 169.259 277.422 172.685 282.129 179.812L282.319 180.372L282.499 180.922L282.679 181.472C282.985 181.992 283.172 182.482 283.239 182.942L283.969 185.142V185.692C284.395 187.892 284.579 189.665 284.519 191.012V220.942H280.849H279.929H279.379H278.649H277.909H277.179H276.439H273.319H272.769H270.569V220.392V219.472V218.922V218.192V217.642V213.962V211.392V209.372V208.462V207.902V207.172V206.622V202.952V202.212V200.192V198.362V195.052V194.502V193.952V193.222V189.912V189.182C270.262 188.415 270.079 187.742 270.019 187.162C268.545 184.589 266.585 182.935 264.139 182.202C259.059 182.082 255.325 184.042 252.939 188.082L252.579 189.362V220.942H248.899H247.989H247.429H246.699H245.969H245.229H244.499H241.379H240.829H238.619V220.392V219.472V218.922V218.192V217.642V213.962V212.682V211.942V211.032V210.292V209.372V206.992V206.252V203.132V202.582V200.382V199.092V197.812V196.712V195.422V194.322V193.032V191.932V188.812V187.712V186.792V185.692V184.962V181.652V179.632V178.902V178.162V177.432V176.692V173.572V173.022V170.822H242.289H243.209H243.759H244.499H245.229H245.969H246.699H249.819H250.369H252.579C252.512 172.075 252.572 173.115 252.759 173.942C255.819 171.522 259.062 170.052 262.489 169.532Z" fill="white"/>
<path d="M322.017 150.955H322.937H324.037H324.957H325.507H326.427H327.157H327.707H328.627H329.547H330.097H332.297H332.847C334.501 150.862 335.911 150.922 337.077 151.135V151.685L337.807 154.815L337.987 155.915C338.114 156.095 338.177 156.278 338.177 156.465L338.357 157.015L338.537 157.385L338.727 158.295L339.277 161.235L339.457 161.605V162.155C339.917 163.255 340.164 164.295 340.197 165.275L340.557 166.375V166.925C341.017 168.032 341.264 169.072 341.297 170.045L341.667 170.965L341.847 171.885L342.027 172.985C342.581 174.638 342.887 176.045 342.947 177.205C343.347 178.158 343.591 179.015 343.677 179.775C343.864 180.542 343.987 181.215 344.047 181.795C344.507 182.928 344.754 183.972 344.787 184.925C345.061 185.625 345.244 186.235 345.337 186.755C345.517 187.522 345.637 188.195 345.698 188.775C346.098 189.935 346.344 190.915 346.438 191.715L346.618 192.635L347.168 194.465L347.358 195.755L348.088 198.325L348.268 197.405L348.458 196.855V196.305L348.638 195.755C348.851 194.435 349.098 193.332 349.378 192.445V191.715L349.558 191.165L350.108 188.775V188.225L350.288 187.495L350.478 186.935L350.658 186.385V185.835L351.028 184.555V184.005C351.208 183.298 351.331 182.685 351.398 182.165C351.611 181.552 351.731 181.002 351.758 180.515C352.158 179.075 352.404 177.852 352.498 176.845L352.678 175.925L352.858 175.375L353.968 170.045L354.148 169.135L354.328 168.585C354.481 167.632 354.664 166.835 354.878 166.195V165.645L355.248 164.175L355.988 160.505L356.168 160.135L356.538 157.935L356.718 157.385V156.835L357.268 154.995C357.388 153.835 357.571 152.855 357.818 152.055L358.008 150.955H358.918H360.018H360.758H364.058H366.078H366.818H367.548H368.288H369.018H372.138H372.688H374.898L375.078 152.245L375.448 153.525V154.265C375.901 155.945 376.204 157.352 376.358 158.485L376.918 161.055L377.468 163.255L377.648 164.175L377.828 165.455L378.018 166.565L378.198 167.665L378.568 168.585L378.748 169.685L378.928 170.605V171.155C379.054 171.335 379.118 171.518 379.118 171.705C379.364 172.438 379.488 173.112 379.488 173.725C379.608 173.905 379.668 174.088 379.668 174.275L379.848 174.635V175.185L380.218 176.655L380.588 178.865L380.948 179.965L381.138 181.065V181.615L381.508 183.085L381.688 184.185C382.054 185.165 382.238 186.082 382.238 186.935L382.418 187.675C382.758 188.595 382.941 189.392 382.968 190.065L383.158 190.615L383.338 192.085L383.708 193.545L383.888 194.655C384.381 196.062 384.628 197.285 384.628 198.325L385.178 197.225V196.485L385.538 195.015L385.728 194.465L385.908 193.915C386.028 192.908 386.211 192.052 386.458 191.345L386.828 189.875L387.008 188.775L387.198 188.405L387.378 187.125L388.108 184.555L388.298 183.265L388.668 181.985L388.848 180.695L389.218 179.415L389.398 178.675L389.768 177.205L390.868 172.615L391.048 171.515L391.418 170.045L391.788 168.765L391.968 167.665L392.338 166.565L392.518 165.825V165.095L392.698 164.355L392.888 163.805L393.068 163.435L393.438 161.235L393.808 159.765L394.168 158.485V157.935L394.358 157.385L394.538 156.835V156.275L394.908 154.995L395.088 154.445V153.895C395.514 152.762 395.761 151.782 395.828 150.955H396.558H399.858H401.878H402.618H403.348H404.088H404.818H407.938H408.488H410.698V151.505L410.508 152.605L409.958 154.075L409.778 155.365L409.228 157.935L409.038 158.485C408.765 159.892 408.461 161.055 408.128 161.975C408.095 162.675 407.971 163.285 407.758 163.805L406.658 168.585L406.468 169.135V169.685L406.288 170.785L405.918 172.255C405.611 173.108 405.428 173.842 405.368 174.455L405.188 174.825L405.008 176.105C404.701 177.118 404.515 177.975 404.448 178.675C404.175 179.382 403.991 179.995 403.898 180.515L403.718 181.245L403.538 181.795C403.505 182.502 403.381 183.115 403.168 183.635L402.988 184.735L402.798 185.475L402.618 185.835L402.428 187.125L401.698 189.695L401.148 192.815L400.778 194.285L400.418 195.565L400.228 196.675L400.048 197.405L399.858 197.955L399.678 198.325L399.308 200.525L398.758 202.915L398.578 203.465C398.331 204.905 398.024 206.068 397.658 206.955V207.685C397.351 208.605 397.168 209.402 397.108 210.075L396.928 210.625L396.738 211.175L396.378 212.645L396.188 213.925L395.458 216.495L395.268 217.785L394.538 221.085H393.438H392.888H389.218H388.298H387.748H386.828H386.088H385.538H384.628H383.708H383.158H380.948H380.398C378.744 221.179 377.338 221.119 376.178 220.905V220.355L375.998 219.985V219.435L375.808 218.885L375.448 216.685L374.528 212.455L374.338 211.175C373.851 209.488 373.548 208.082 373.428 206.955L373.058 205.485L372.688 204.015L372.508 202.725L372.328 201.445L371.958 200.345V199.605L371.408 197.405V196.855C370.888 195.168 370.581 193.762 370.488 192.635L370.118 191.525V190.615C369.998 190.428 369.938 190.245 369.938 190.065L369.758 189.695L369.018 185.655L368.838 184.925L368.288 181.985L367.918 180.515L367.738 179.775V179.045L367.548 178.315L367.178 177.025V176.475L366.818 175.005L366.448 173.725L366.268 174.275L366.078 175.375L365.898 176.105L365.718 177.205L364.978 180.695L364.608 181.985V182.535L363.878 185.475L363.698 186.935L363.328 188.405L362.958 189.875L362.778 191.345L362.408 192.815L362.038 195.015C361.611 196.395 361.368 197.558 361.308 198.505L360.938 199.605L360.758 200.525V201.075C360.544 201.782 360.421 202.395 360.388 202.915C360.174 203.528 360.051 204.078 360.018 204.565L359.658 205.485L359.288 208.055L359.108 208.975L358.918 209.705L358.188 213.015L357.638 215.585L357.448 216.685L357.088 218.155L356.538 221.085H355.428H354.878H351.208H350.288H349.738H348.828H348.088H347.538H346.618H345.698H345.147H342.947H342.397C340.744 221.179 339.337 221.119 338.177 220.905L337.987 219.435C337.441 217.782 337.137 216.375 337.077 215.215C336.891 214.755 336.767 214.325 336.707 213.925L336.337 212.455L335.967 210.995L335.607 209.705L335.417 208.235L335.237 207.505C334.871 206.492 334.687 205.635 334.687 204.935L334.507 204.195L333.587 201.075V200.345C333.127 199.118 332.881 198.015 332.847 197.035C332.387 195.935 332.144 194.958 332.117 194.105L331.747 192.995L331.567 191.525C331.441 191.345 331.377 191.162 331.377 190.975L330.467 187.305L330.097 185.835V185.285C329.731 184.398 329.547 183.605 329.547 182.905C329.361 182.445 329.237 182.015 329.177 181.615L328.807 180.335L328.627 179.045C328.294 178.125 328.111 177.328 328.077 176.655C327.524 175.068 327.217 173.722 327.157 172.615L326.787 171.705L326.607 170.785L326.427 169.685L326.237 168.765C326.117 168.425 326.057 168.118 326.057 167.845L325.687 167.115L325.137 164.175C324.831 163.255 324.647 162.458 324.587 161.785C324.314 161.085 324.191 160.475 324.217 159.955C323.671 158.515 323.367 157.228 323.307 156.095C323.001 155.362 322.817 154.688 322.757 154.075L322.567 153.525V152.975C322.261 152.242 322.077 151.568 322.017 150.955Z" fill="white"/>
<path d="M436.509 169.044C444.896 168.491 451.873 170.571 457.439 175.284L457.629 175.654C458.116 176.267 458.483 176.877 458.729 177.484C459.369 178.437 459.796 179.294 460.009 180.054V180.794C460.376 181.987 460.559 183.027 460.559 183.914V201.904C460.439 204.937 460.563 207.447 460.929 209.434C462.429 210.994 464.143 211.974 466.069 212.374L465.699 212.924L465.339 213.844L464.969 214.574L464.789 215.124L464.599 215.674L464.239 216.224L463.499 218.064L463.129 218.614L462.949 219.164L462.769 219.714L462.579 220.084L461.299 222.834C455.853 222.867 451.753 221.154 448.999 217.694C443.766 222.894 437.279 224.181 429.539 221.554C422.406 219.594 418.243 215.247 417.049 208.514C417.109 198.634 421.763 192.881 431.009 191.254C431.496 190.947 431.983 190.764 432.469 190.704H433.019C433.206 190.584 433.393 190.524 433.579 190.524L434.129 190.344L437.429 189.794L438.899 189.604L439.449 189.424L442.569 189.234C444.223 188.994 445.569 188.934 446.609 189.054C447.069 182.234 443.336 179.907 435.409 182.074L434.859 182.264L433.389 182.444L432.109 182.994L431.559 183.184L429.719 183.734C428.773 184.374 427.916 184.801 427.149 185.014C426.109 185.814 425.069 186.364 424.029 186.664L422.739 184.284L422.379 184.094L422.189 183.544L421.829 183.184L421.639 182.634C420.846 181.714 420.296 180.854 419.989 180.054C419.503 179.601 419.196 179.114 419.069 178.594C418.276 177.827 417.786 177.031 417.599 176.204L417.969 176.024L418.519 175.654L418.889 175.464C419.716 174.917 420.449 174.491 421.089 174.184C421.583 173.844 422.073 173.661 422.559 173.634L422.929 173.264C424.063 172.744 425.039 172.377 425.859 172.164L426.229 171.794H426.779C427.359 171.427 427.849 171.184 428.249 171.064H428.799C429.626 170.637 430.423 170.391 431.189 170.324C432.869 169.624 434.459 169.257 435.959 169.224L436.509 169.044ZM446.059 199.154L445.329 199.334H444.769C444.036 199.547 443.426 199.671 442.939 199.704H442.389C442.203 199.824 442.019 199.884 441.839 199.884L441.099 200.074H440.549L439.819 200.254L438.719 200.434C438.533 200.561 438.349 200.624 438.169 200.624L437.429 200.804L436.879 200.984C435.166 201.417 433.819 201.847 432.839 202.274C431.553 203.987 431.186 205.761 431.739 207.594C434.799 211.881 439.206 212.617 444.959 209.804L446.429 207.594L446.609 206.864V206.134V205.574V204.664V204.114V203.374V202.824V199.154" fill="white"/>
<path d="M498.99 169.532C507.377 169.259 513.923 172.685 518.63 179.812L518.82 180.372L519 180.922L519.18 181.472C519.487 181.992 519.673 182.482 519.74 182.942L520.47 185.142V185.692C520.897 187.892 521.08 189.665 521.02 191.012V220.942H517.35H516.43H515.88H515.15H514.41H513.68H512.94H509.82H509.27H507.07V220.392V219.472V218.922V218.192V217.642V213.962V211.392V209.372V208.462V207.902V207.172V206.622V202.952V202.212V200.192V198.362V195.052V194.502V193.952V193.222V189.912V189.182C506.763 188.415 506.58 187.742 506.52 187.162C505.047 184.589 503.087 182.935 500.64 182.202C495.56 182.082 491.826 184.042 489.44 188.082L489.08 189.362V220.942H485.4H484.49H483.93H483.2H482.47H481.73H481H477.88H477.33H475.12V220.392V219.472V218.922V218.192V217.642V213.962V212.682V211.942V211.032V210.292V209.372V206.992V206.252V203.132V202.582V200.382V199.092V197.812V196.712V195.422V194.322V193.032V191.932V188.812V187.712V186.792V185.692V184.962V181.652V179.632V178.902V178.162V177.432V176.692V173.572V173.022V170.822H478.79H479.71H480.26H481H481.73H482.47H483.2H486.32H486.87H489.08C489.013 172.075 489.073 173.115 489.26 173.942C492.32 171.522 495.563 170.052 498.99 169.532Z" fill="white"/>
<path d="M66.8753 146.875H12.375V244.875H66.8753V146.875Z" stroke="white" stroke-width="2" stroke-dasharray="5 5"/>
<path d="M115.876 146.875H68.8753V244.875H115.876V146.875Z" stroke="white" stroke-width="2" stroke-dasharray="5 5"/>
<path d="M175.876 146.875H117.876V244.875H175.876V146.875Z" stroke="white" stroke-width="2" stroke-dasharray="5 5"/>
<path d="M230.876 146.875H177.876V244.875H230.876V146.875Z" stroke="white" stroke-width="2" stroke-dasharray="5 5"/>
<path d="M290.377 146.875H232.876V244.875H290.377V146.875Z" stroke="white" stroke-width="2" stroke-dasharray="5 5"/>
<path d="M315.377 146.875H292.377V244.875H315.377V146.875Z" stroke="white" stroke-width="2" stroke-dasharray="5 5"/>
<path d="M411.877 146.875H317.377V244.875H411.877V146.875Z" stroke="white" stroke-width="2" stroke-dasharray="5 5"/>
<path d="M467.378 146.875H413.877V244.875H467.378V146.875Z" stroke="white" stroke-width="2" stroke-dasharray="5 5"/>
<path d="M526.878 146.875H469.378V244.875H526.878V146.875Z" stroke="white" stroke-width="2" stroke-dasharray="5 5"/>
<path d="M575 203.491H593.75V130.5H556.25V203.491H575ZM575 352.328H593.75V253.103H556.25V352.328H575ZM575 501.164H593.75V401.94H556.25V501.164H575ZM575 650H593.75V550.776H556.25V650H575Z" fill="white"/>
<path d="M594.25 653H661.34" stroke="#FF0000" stroke-width="2.24575"/>
<path d="M594.25 554.949H661.338" stroke="#FF0000" stroke-width="2.24575"/>
<path d="M643.372 652.949V554.949" stroke="#FF0000" stroke-width="2.24575"/>
<path d="M643.372 653L636.635 679.949H650.11L643.372 653Z" fill="#FF0000"/>
<path d="M643.372 554.949L636.635 528H650.11L643.372 554.949Z" fill="#FF0000"/>
<path d="M670.214 614.362C668.44 614.362 666.872 614.047 665.511 613.419C664.159 612.781 663.104 611.907 662.346 610.796C661.588 609.676 661.214 608.402 661.222 606.972C661.214 605.852 661.433 604.819 661.881 603.871C662.329 602.915 662.94 602.119 663.716 601.481C664.499 600.836 665.373 600.426 666.338 600.254V600.099C665.072 599.772 664.064 599.061 663.315 597.967C662.566 596.865 662.195 595.612 662.204 594.208C662.195 592.864 662.536 591.663 663.225 590.604C663.914 589.544 664.861 588.709 666.067 588.097C667.281 587.486 668.663 587.18 670.214 587.18C671.747 587.18 673.116 587.486 674.322 588.097C675.528 588.709 676.475 589.544 677.164 590.604C677.862 591.663 678.215 592.864 678.224 594.208C678.215 595.612 677.832 596.865 677.074 597.967C676.324 599.061 675.33 599.772 674.089 600.099V600.254C675.045 600.426 675.907 600.836 676.673 601.481C677.44 602.119 678.051 602.915 678.508 603.871C678.964 604.819 679.197 605.852 679.205 606.972C679.197 608.402 678.809 609.676 678.043 610.796C677.285 611.907 676.23 612.781 674.878 613.419C673.534 614.047 671.979 614.362 670.214 614.362ZM670.214 611.52C671.411 611.52 672.444 611.326 673.314 610.938C674.184 610.551 674.856 610.004 675.33 609.297C675.803 608.591 676.045 607.764 676.053 606.817C676.045 605.818 675.786 604.935 675.278 604.169C674.77 603.402 674.077 602.799 673.198 602.36C672.328 601.921 671.333 601.701 670.214 601.701C669.086 601.701 668.078 601.921 667.191 602.36C666.312 602.799 665.619 603.402 665.111 604.169C664.611 604.935 664.366 605.818 664.374 606.817C664.366 607.764 664.594 608.591 665.059 609.297C665.533 610.004 666.209 610.551 667.087 610.938C667.966 611.326 669.008 611.52 670.214 611.52ZM670.214 598.962C671.161 598.962 672.001 598.773 672.733 598.394C673.474 598.015 674.055 597.485 674.477 596.805C674.899 596.124 675.114 595.328 675.123 594.415C675.114 593.519 674.903 592.74 674.49 592.076C674.077 591.405 673.504 590.888 672.772 590.526C672.04 590.156 671.187 589.971 670.214 589.971C669.223 589.971 668.358 590.156 667.617 590.526C666.876 590.888 666.304 591.405 665.899 592.076C665.494 592.74 665.296 593.519 665.305 594.415C665.296 595.328 665.498 596.124 665.912 596.805C666.334 597.485 666.915 598.015 667.656 598.394C668.396 598.773 669.249 598.962 670.214 598.962ZM698.264 598.601L695.525 599.376C695.353 598.919 695.099 598.476 694.763 598.045C694.436 597.606 693.988 597.244 693.42 596.96C692.851 596.676 692.123 596.533 691.236 596.533C690.022 596.533 689.01 596.813 688.2 597.373C687.399 597.924 686.999 598.626 686.999 599.479C686.999 600.237 687.274 600.836 687.826 601.275C688.377 601.714 689.238 602.08 690.409 602.373L693.355 603.096C695.129 603.527 696.451 604.186 697.321 605.073C698.191 605.951 698.626 607.084 698.626 608.471C698.626 609.608 698.299 610.624 697.644 611.52C696.998 612.415 696.094 613.122 694.931 613.638C693.768 614.155 692.416 614.413 690.875 614.413C688.851 614.413 687.175 613.974 685.849 613.096C684.523 612.217 683.683 610.934 683.33 609.246L686.224 608.522C686.499 609.59 687.02 610.391 687.787 610.925C688.562 611.459 689.574 611.726 690.823 611.726C692.244 611.726 693.372 611.425 694.208 610.822C695.052 610.21 695.474 609.478 695.474 608.626C695.474 607.937 695.233 607.36 694.75 606.895C694.268 606.421 693.527 606.068 692.528 605.835L689.221 605.06C687.404 604.629 686.069 603.962 685.216 603.058C684.372 602.145 683.95 601.003 683.95 599.634C683.95 598.514 684.264 597.524 684.893 596.663C685.53 595.801 686.396 595.125 687.49 594.634C688.592 594.143 689.841 593.898 691.236 593.898C693.2 593.898 694.742 594.329 695.861 595.19C696.99 596.051 697.791 597.188 698.264 598.601ZM707.711 614L701.665 594.156H704.869L709.158 609.349H709.365L713.602 594.156H716.858L721.044 609.297H721.25L725.54 594.156H728.743L722.697 614H719.7L715.359 598.756H715.049L710.708 614H707.711Z" fill="#FF0000"/>
<path d="M555.808 555H488.718" stroke="#FF0000" stroke-width="2.24575"/>
<path d="M555.808 503H488.72" stroke="#FF0000" stroke-width="2.24575"/>
<path d="M506.686 499.949V554.949" stroke="#FF0000" stroke-width="2.24575"/>
<path d="M506.686 555L513.423 581.949H499.949L506.686 555Z" fill="#FF0000"/>
<path d="M506.686 503.949L513.423 477H499.949L506.686 503.949Z" fill="#FF0000"/>
<path d="M429.119 536.574V533.939L440.746 515.542H442.658V519.624H441.366L432.581 533.525V533.732H448.239V536.574H429.119ZM441.573 542V535.773V534.546V515.542H444.622V542H441.573ZM467.188 526.601L464.449 527.376C464.277 526.919 464.023 526.476 463.687 526.045C463.36 525.606 462.912 525.244 462.343 524.96C461.775 524.676 461.047 524.533 460.16 524.533C458.946 524.533 457.934 524.813 457.124 525.373C456.323 525.924 455.922 526.626 455.922 527.479C455.922 528.237 456.198 528.836 456.749 529.275C457.301 529.714 458.162 530.08 459.333 530.373L462.279 531.096C464.053 531.527 465.375 532.186 466.245 533.073C467.115 533.951 467.55 535.084 467.55 536.471C467.55 537.608 467.222 538.624 466.568 539.52C465.922 540.415 465.017 541.122 463.855 541.638C462.692 542.155 461.34 542.413 459.798 542.413C457.774 542.413 456.099 541.974 454.773 541.096C453.446 540.217 452.607 538.934 452.253 537.246L455.147 536.522C455.423 537.59 455.944 538.391 456.711 538.925C457.486 539.459 458.498 539.726 459.747 539.726C461.168 539.726 462.296 539.425 463.131 538.822C463.975 538.21 464.397 537.478 464.397 536.626C464.397 535.937 464.156 535.36 463.674 534.895C463.192 534.421 462.451 534.068 461.452 533.835L458.145 533.06C456.327 532.629 454.992 531.962 454.14 531.058C453.296 530.145 452.874 529.003 452.874 527.634C452.874 526.514 453.188 525.524 453.817 524.663C454.454 523.801 455.32 523.125 456.413 522.634C457.516 522.143 458.765 521.898 460.16 521.898C462.124 521.898 463.665 522.329 464.785 523.19C465.913 524.051 466.714 525.188 467.188 526.601ZM476.635 542L470.589 522.156H473.793L478.082 537.349H478.289L482.526 522.156H485.782L489.967 537.297H490.174L494.463 522.156H497.667L491.621 542H488.624L484.283 526.756H483.973L479.632 542H476.635Z" fill="#FF0000"/>
<path d="M421.718 673H556.718" stroke="#FF0000" stroke-width="2.24575"/>
<path d="M421.718 654H556.718" stroke="#FF0000" stroke-width="2.24575"/>
<path d="M439.686 639.949V694.949" stroke="#FF0000" stroke-width="2.24575"/>
<path d="M439.686 673L446.423 699.949H432.949L439.686 673Z" fill="#FF0000"/>
<path d="M439.686 654.949L446.423 628H432.949L439.686 654.949Z" fill="#FF0000"/>
<path d="M332.041 643.542V670H328.837V646.901H328.682L322.222 651.19V647.934L328.837 643.542H332.041ZM340.36 670.207C339.723 670.207 339.176 669.978 338.72 669.522C338.263 669.066 338.035 668.519 338.035 667.881C338.035 667.244 338.263 666.697 338.72 666.241C339.176 665.784 339.723 665.556 340.36 665.556C340.998 665.556 341.545 665.784 342.001 666.241C342.458 666.697 342.686 667.244 342.686 667.881C342.686 668.303 342.578 668.691 342.363 669.044C342.156 669.397 341.876 669.681 341.523 669.897C341.179 670.103 340.791 670.207 340.36 670.207ZM355.841 670.362C354.325 670.362 352.96 670.06 351.745 669.457C350.531 668.855 349.558 668.028 348.826 666.977C348.094 665.926 347.693 664.729 347.624 663.385H350.725C350.845 664.583 351.388 665.573 352.352 666.357C353.326 667.132 354.488 667.52 355.841 667.52C356.926 667.52 357.89 667.265 358.734 666.757C359.587 666.249 360.255 665.552 360.737 664.664C361.228 663.769 361.473 662.757 361.473 661.628C361.473 660.474 361.219 659.445 360.711 658.541C360.212 657.628 359.523 656.909 358.644 656.383C357.766 655.858 356.762 655.591 355.634 655.582C354.824 655.574 353.993 655.699 353.141 655.957C352.288 656.207 351.586 656.53 351.035 656.926L348.038 656.564L349.639 643.542H363.385V646.384H352.327L351.396 654.187H351.552C352.094 653.756 352.775 653.399 353.593 653.115C354.411 652.831 355.264 652.688 356.151 652.688C357.77 652.688 359.212 653.076 360.479 653.851C361.753 654.618 362.752 655.668 363.476 657.003C364.208 658.338 364.574 659.863 364.574 661.577C364.574 663.265 364.195 664.772 363.437 666.098C362.688 667.416 361.654 668.458 360.336 669.225C359.019 669.983 357.52 670.362 355.841 670.362ZM383.814 654.601L381.075 655.376C380.902 654.919 380.648 654.476 380.313 654.045C379.985 653.606 379.537 653.244 378.969 652.96C378.4 652.676 377.673 652.533 376.786 652.533C375.571 652.533 374.559 652.813 373.75 653.373C372.949 653.924 372.548 654.626 372.548 655.479C372.548 656.237 372.824 656.836 373.375 657.275C373.926 657.714 374.787 658.08 375.959 658.373L378.904 659.096C380.679 659.527 382.001 660.186 382.87 661.073C383.74 661.951 384.175 663.084 384.175 664.471C384.175 665.608 383.848 666.624 383.193 667.52C382.548 668.415 381.643 669.122 380.48 669.638C379.318 670.155 377.966 670.413 376.424 670.413C374.4 670.413 372.725 669.974 371.398 669.096C370.072 668.217 369.232 666.934 368.879 665.246L371.773 664.522C372.049 665.59 372.57 666.391 373.336 666.925C374.111 667.459 375.123 667.726 376.372 667.726C377.793 667.726 378.922 667.425 379.757 666.822C380.601 666.21 381.023 665.478 381.023 664.626C381.023 663.937 380.782 663.36 380.3 662.895C379.817 662.421 379.077 662.068 378.078 661.835L374.77 661.06C372.953 660.629 371.618 659.962 370.765 659.058C369.921 658.145 369.499 657.003 369.499 655.634C369.499 654.514 369.814 653.524 370.442 652.663C371.08 651.801 371.945 651.125 373.039 650.634C374.142 650.143 375.39 649.898 376.786 649.898C378.749 649.898 380.291 650.329 381.411 651.19C382.539 652.051 383.34 653.188 383.814 654.601ZM393.261 670L387.215 650.156H390.418L394.708 665.349H394.914L399.152 650.156H402.407L406.593 665.297H406.8L411.089 650.156H414.293L408.247 670H405.249L400.909 654.756H400.599L396.258 670H393.261Z" fill="#FF0000"/>
<path d="M421.718 131H556.718" stroke="#FF0000" stroke-width="2.24575"/>
<path d="M421.718 112H556.718" stroke="#FF0000" stroke-width="2.24575"/>
<path d="M439.686 97.9491V152.949" stroke="#FF0000" stroke-width="2.24575"/>
<path d="M439.686 131L446.423 157.949H432.949L439.686 131Z" fill="#FF0000"/>
<path d="M439.686 112.949L446.423 86H432.949L439.686 112.949Z" fill="#FF0000"/>
<path d="M332.041 101.542V128H328.837V104.901H328.682L322.222 109.19V105.934L328.837 101.542H332.041ZM340.36 128.207C339.723 128.207 339.176 127.978 338.72 127.522C338.263 127.066 338.035 126.519 338.035 125.881C338.035 125.244 338.263 124.697 338.72 124.241C339.176 123.784 339.723 123.556 340.36 123.556C340.998 123.556 341.545 123.784 342.001 124.241C342.458 124.697 342.686 125.244 342.686 125.881C342.686 126.303 342.578 126.691 342.363 127.044C342.156 127.397 341.876 127.681 341.523 127.897C341.179 128.103 340.791 128.207 340.36 128.207ZM355.841 128.362C354.325 128.362 352.96 128.06 351.745 127.457C350.531 126.855 349.558 126.028 348.826 124.977C348.094 123.926 347.693 122.729 347.624 121.385H350.725C350.845 122.583 351.388 123.573 352.352 124.357C353.326 125.132 354.488 125.52 355.841 125.52C356.926 125.52 357.89 125.265 358.734 124.757C359.587 124.249 360.255 123.552 360.737 122.664C361.228 121.769 361.473 120.757 361.473 119.628C361.473 118.474 361.219 117.445 360.711 116.541C360.212 115.628 359.523 114.909 358.644 114.383C357.766 113.858 356.762 113.591 355.634 113.582C354.824 113.574 353.993 113.699 353.141 113.957C352.288 114.207 351.586 114.53 351.035 114.926L348.038 114.564L349.639 101.542H363.385V104.384H352.327L351.396 112.187H351.552C352.094 111.756 352.775 111.399 353.593 111.115C354.411 110.831 355.264 110.688 356.151 110.688C357.77 110.688 359.212 111.076 360.479 111.851C361.753 112.618 362.752 113.668 363.476 115.003C364.208 116.338 364.574 117.863 364.574 119.577C364.574 121.265 364.195 122.772 363.437 124.098C362.688 125.416 361.654 126.458 360.336 127.225C359.019 127.983 357.52 128.362 355.841 128.362ZM383.814 112.601L381.075 113.376C380.902 112.919 380.648 112.476 380.313 112.045C379.985 111.606 379.537 111.244 378.969 110.96C378.4 110.676 377.673 110.533 376.786 110.533C375.571 110.533 374.559 110.813 373.75 111.373C372.949 111.924 372.548 112.626 372.548 113.479C372.548 114.237 372.824 114.836 373.375 115.275C373.926 115.714 374.787 116.08 375.959 116.373L378.904 117.096C380.679 117.527 382.001 118.186 382.87 119.073C383.74 119.951 384.175 121.084 384.175 122.471C384.175 123.608 383.848 124.624 383.193 125.52C382.548 126.415 381.643 127.122 380.48 127.638C379.318 128.155 377.966 128.413 376.424 128.413C374.4 128.413 372.725 127.974 371.398 127.096C370.072 126.217 369.232 124.934 368.879 123.246L371.773 122.522C372.049 123.59 372.57 124.391 373.336 124.925C374.111 125.459 375.123 125.726 376.372 125.726C377.793 125.726 378.922 125.425 379.757 124.822C380.601 124.21 381.023 123.478 381.023 122.626C381.023 121.937 380.782 121.36 380.3 120.895C379.817 120.421 379.077 120.068 378.078 119.835L374.77 119.06C372.953 118.629 371.618 117.962 370.765 117.058C369.921 116.145 369.499 115.003 369.499 113.634C369.499 112.514 369.814 111.524 370.442 110.663C371.08 109.801 371.945 109.125 373.039 108.634C374.142 108.143 375.39 107.898 376.786 107.898C378.749 107.898 380.291 108.329 381.411 109.19C382.539 110.051 383.34 111.188 383.814 112.601ZM393.261 128L387.215 108.156H390.418L394.708 123.349H394.914L399.152 108.156H402.407L406.593 123.297H406.8L411.089 108.156H414.293L408.247 128H405.249L400.909 112.756H400.599L396.258 128H393.261Z" fill="#FF0000"/>
<path d="M623.644 163.93V152.91H674.314V163.93H655.034V223.23H642.924V163.93" fill="white"/>
<path d="M713.941 177.515L714.501 178.615C715.934 180.395 716.851 182.231 717.251 184.125C717.371 184.918 717.461 185.661 717.521 186.355C717.587 187.041 717.621 187.645 717.621 188.165V212.395C718.747 214.635 720.397 215.981 722.571 216.435L722.211 216.985C722.084 217.205 721.961 217.328 721.841 217.355L721.661 217.905L721.291 218.275C720.984 218.948 720.617 219.498 720.191 219.925C719.757 221.058 719.204 221.915 718.531 222.495C718.257 223.108 717.997 223.638 717.751 224.085C717.511 224.525 717.284 224.915 717.071 225.255C713.491 224.335 710.674 222.681 708.621 220.295H708.071C704.124 223.141 700.054 224.565 695.861 224.565C693.594 224.565 691.361 224.181 689.161 223.415C682.581 221.061 678.604 216.778 677.231 210.565V210.335C677.231 198.495 684.161 192.575 698.021 192.575H698.161C698.434 192.448 698.737 192.385 699.071 192.385L699.621 192.205H700.911L701.461 192.025H702.011L706.601 191.475C706.661 191.135 706.691 190.828 706.691 190.555V189.635C706.691 184.521 703.984 181.965 698.571 181.965C694.804 181.965 689.647 183.235 683.101 185.775L682.371 184.125L682.001 183.025L681.631 182.655L681.451 182.295L681.081 181.185C680.747 180.638 680.504 180.088 680.351 179.535C679.704 178.681 679.274 177.825 679.061 176.965L679.611 176.785L679.981 176.595L680.531 176.415L680.901 176.045H681.451C681.571 175.925 681.677 175.865 681.771 175.865H681.821C682.921 175.285 683.897 174.855 684.751 174.575L685.671 174.395C686.344 174.088 686.957 173.905 687.511 173.845L688.981 173.475C690.047 173.048 691.087 172.805 692.101 172.745L696.141 172.005C696.747 171.945 697.334 171.891 697.901 171.845C698.467 171.798 699.027 171.775 699.581 171.775C705.421 171.775 710.207 173.688 713.941 177.515ZM702.191 200.835H701.091C700.817 200.895 700.551 200.941 700.291 200.975C700.031 201.001 699.777 201.015 699.531 201.015H699.261L698.521 201.205H697.971C697.817 201.325 697.634 201.385 697.421 201.385H696.871L693.931 202.115H693.381C692.527 202.608 691.794 202.915 691.181 203.035C689.194 204.935 688.201 206.771 688.201 208.545C688.201 210.165 689.011 211.755 690.631 213.315C692.984 214.755 695.277 215.475 697.511 215.475C700.357 215.475 703.081 214.328 705.681 212.035C705.927 211.328 706.174 210.838 706.421 210.565L706.601 210.015L706.421 209.275V200.645H702.751C702.597 200.771 702.411 200.835 702.191 200.835Z" fill="white"/>
<path d="M733.557 223.411V173.291H744.757V223.411H733.557ZM745.857 158.601V159.201C745.857 161.741 745.06 163.805 743.467 165.391C741.787 166.218 740.24 166.631 738.827 166.631C736.38 166.631 734.44 165.301 733.007 162.641C732.727 161.568 732.587 160.621 732.587 159.801C732.587 156.675 734.317 154.561 737.777 153.461H738.237C742.123 153.461 744.663 155.175 745.857 158.601Z" fill="white"/>
<path d="M673.625 146.88H623.125V244.88H673.625V146.88Z" stroke="white" stroke-width="2" stroke-dasharray="5 5"/>
<path d="M725.625 146.88H675.625V244.88H725.625V146.88Z" stroke="white" stroke-width="2" stroke-dasharray="5 5"/>
<path d="M752.625 146.88H727.625V244.88H752.625V146.88Z" stroke="white" stroke-width="2" stroke-dasharray="5 5"/>
<path d="M777.625 146.88H754.625V244.88H777.625V146.88Z" stroke="white" stroke-width="2" stroke-dasharray="5 5"/>
<path d="M668.875 294.395V283.365H768.325V294.395H668.875ZM714.215 290.345L724.895 287.755C727.302 296.609 730.549 304.859 734.635 312.505C738.722 320.159 743.745 326.852 749.705 332.585C755.672 338.325 762.592 342.845 770.465 346.145C769.565 346.892 768.609 347.865 767.595 349.065C766.582 350.265 765.625 351.485 764.725 352.725C763.825 353.965 763.075 355.072 762.475 356.045C754.149 352.145 746.892 346.989 740.705 340.575C734.519 334.162 729.289 326.719 725.015 318.245C720.742 309.772 717.142 300.472 714.215 290.345ZM712.525 251.985H724.115C724.115 257.305 723.982 263.022 723.715 269.135C723.455 275.249 722.875 281.532 721.975 287.985C721.075 294.432 719.612 300.882 717.585 307.335C715.565 313.782 712.752 320.005 709.145 326.005C705.552 332.005 700.942 337.575 695.315 342.715C689.689 347.849 682.825 352.329 674.725 356.155C673.825 354.729 672.625 353.172 671.125 351.485C669.625 349.799 668.125 348.392 666.625 347.265C674.425 343.745 681.005 339.639 686.365 334.945C691.732 330.259 696.082 325.159 699.415 319.645C702.755 314.139 705.325 308.422 707.125 302.495C708.925 296.569 710.202 290.642 710.955 284.715C711.702 278.795 712.152 273.059 712.305 267.505C712.452 261.959 712.525 256.785 712.525 251.985Z" fill="white"/>
<path d="M785.625 244.88H650.125V385.38H785.625V244.88Z" stroke="white" stroke-width="2" stroke-dasharray="5 5"/>
<path d="M527 144.623V49.4534" stroke="#46C147" stroke-width="3.03189"/>
<path d="M556 144.623V49.4534" stroke="#46C147" stroke-width="3.03189"/>
<path d="M507 73.6997H552" stroke="#46C147" stroke-width="3.03189"/>
<path d="M551 73.6997L575.255 67.6381V79.7613L551 73.6997Z" fill="#46C147"/>
<path d="M527.255 73.6997L503 67.6381V79.7613L527.255 73.6997Z" fill="#46C147"/>
<path d="M434.759 52.9267V56H417.544C417.521 55.2302 417.645 54.49 417.917 53.7794C418.356 52.6069 419.054 51.4522 420.014 50.3152C420.985 49.1782 422.382 47.8636 424.206 46.3714C427.037 44.0501 428.95 42.2144 429.944 40.8642C430.939 39.5022 431.437 38.2172 431.437 37.0092C431.437 35.742 430.981 34.6761 430.069 33.8115C429.169 32.9351 427.99 32.4969 426.534 32.4969C424.994 32.4969 423.762 32.9588 422.838 33.8826C421.915 34.8063 421.447 36.0854 421.435 37.7198L418.148 37.3823C418.373 34.9307 419.22 33.0654 420.689 31.7863C422.157 30.4954 424.129 29.8499 426.605 29.8499C429.104 29.8499 431.081 30.5427 432.538 31.9284C433.995 33.3141 434.723 35.0314 434.723 37.0803C434.723 38.1225 434.51 39.1469 434.084 40.1536C433.657 41.1603 432.947 42.2203 431.952 43.3335C430.969 44.4468 429.329 45.9746 427.031 47.9169C425.112 49.5276 423.881 50.6231 423.336 51.2034C422.791 51.7719 422.341 52.3463 421.986 52.9267H434.759ZM439.999 56V52.3582H443.641V56H439.999ZM448.331 49.1782L451.689 48.894C451.937 50.5284 452.512 51.7601 453.412 52.5891C454.324 53.4063 455.419 53.8149 456.699 53.8149C458.238 53.8149 459.541 53.2346 460.607 52.0739C461.673 50.9133 462.206 49.3737 462.206 47.455C462.206 45.6312 461.69 44.1922 460.66 43.1381C459.642 42.0841 458.303 41.557 456.645 41.557C455.615 41.557 454.685 41.7939 453.856 42.2676C453.027 42.7295 452.376 43.3335 451.902 44.0797L448.9 43.6888L451.422 30.3118H464.373V33.3674H453.98L452.577 40.3668C454.14 39.2772 455.781 38.7324 457.498 38.7324C459.772 38.7324 461.69 39.52 463.254 41.0952C464.817 42.6703 465.599 44.6955 465.599 47.1708C465.599 49.5276 464.912 51.5647 463.538 53.282C461.868 55.3901 459.588 56.4441 456.699 56.4441C454.33 56.4441 452.393 55.7809 450.889 54.4544C449.397 53.128 448.544 51.3693 448.331 49.1782ZM468.192 50.3685L471.355 49.8711C471.532 51.1383 472.024 52.1095 472.829 52.7845C473.646 53.4596 474.783 53.7971 476.24 53.7971C477.709 53.7971 478.798 53.5011 479.509 52.9089C480.219 52.3049 480.575 51.6002 480.575 50.7949C480.575 50.0724 480.261 49.5039 479.633 49.0894C479.195 48.8052 478.105 48.4439 476.364 48.0057C474.019 47.4136 472.391 46.9043 471.479 46.478C470.579 46.0398 469.892 45.4417 469.418 44.6837C468.956 43.9139 468.725 43.0671 468.725 42.1433C468.725 41.3024 468.915 40.5267 469.294 39.8161C469.685 39.0936 470.212 38.4955 470.875 38.0218C471.372 37.6547 472.047 37.3467 472.9 37.098C473.765 36.8375 474.689 36.7072 475.672 36.7072C477.152 36.7072 478.449 36.9204 479.562 37.3467C480.687 37.7731 481.516 38.3534 482.049 39.0877C482.582 39.8102 482.949 40.7813 483.151 42.0012L480.024 42.4275C479.882 41.4564 479.467 40.6984 478.78 40.1536C478.105 39.6088 477.146 39.3364 475.902 39.3364C474.434 39.3364 473.386 39.5792 472.758 40.0648C472.13 40.5504 471.817 41.1188 471.817 41.7702C471.817 42.1847 471.947 42.5578 472.207 42.8894C472.468 43.2329 472.877 43.5171 473.433 43.7421C473.753 43.8606 474.694 44.133 476.258 44.5593C478.52 45.1633 480.095 45.6608 480.983 46.0516C481.883 46.4306 482.588 46.9872 483.097 47.7215C483.607 48.4558 483.861 49.3677 483.861 50.4573C483.861 51.5232 483.547 52.5299 482.92 53.4774C482.304 54.413 481.41 55.1414 480.237 55.6625C479.065 56.1717 477.738 56.4264 476.258 56.4264C473.806 56.4264 471.935 55.9171 470.644 54.8986C469.365 53.88 468.548 52.37 468.192 50.3685ZM491.145 56L485.371 37.1336H488.676L491.678 48.0235L492.797 52.0739C492.844 51.8726 493.17 50.5758 493.774 48.1834L496.776 37.1336H500.063L502.888 48.0768L503.829 51.6831L504.913 48.0413L508.146 37.1336H511.255L505.357 56H502.035L499.033 44.7015L498.304 41.486L494.485 56H491.145Z" fill="#46C147"/>
<path d="M595 146.623V31.4534" stroke="#46C147" stroke-width="3.03189"/>
<path d="M623 146.623V31.4534" stroke="#46C147" stroke-width="3.03189"/>
<path d="M596 55.6997H641" stroke="#46C147" stroke-width="3.03189"/>
<path d="M618 55.6997L642.255 49.6381V61.7613L618 55.6997Z" fill="#46C147"/>
<path d="M595.255 55.6997L571 49.6381V61.7613L595.255 55.6997Z" fill="#46C147"/>
<path d="M653.759 34.9267V38H636.544C636.521 37.2302 636.645 36.49 636.917 35.7794C637.356 34.6069 638.054 33.4522 639.014 32.3152C639.985 31.1782 641.382 29.8636 643.206 28.3714C646.037 26.0501 647.95 24.2144 648.944 22.8642C649.939 21.5022 650.437 20.2172 650.437 19.0092C650.437 17.742 649.981 16.6761 649.069 15.8115C648.169 14.9351 646.99 14.4969 645.534 14.4969C643.994 14.4969 642.762 14.9588 641.838 15.8826C640.915 16.8063 640.447 18.0854 640.435 19.7198L637.148 19.3823C637.373 16.9307 638.22 15.0654 639.689 13.7863C641.157 12.4954 643.129 11.8499 645.605 11.8499C648.104 11.8499 650.081 12.5427 651.538 13.9284C652.995 15.3141 653.723 17.0314 653.723 19.0803C653.723 20.1225 653.51 21.1469 653.084 22.1536C652.657 23.1603 651.947 24.2203 650.952 25.3335C649.969 26.4468 648.329 27.9746 646.031 29.9169C644.112 31.5276 642.881 32.6231 642.336 33.2034C641.791 33.7719 641.341 34.3463 640.986 34.9267H653.759ZM658.999 38V34.3582H662.641V38H658.999ZM667.331 31.1782L670.689 30.894C670.937 32.5284 671.512 33.7601 672.412 34.5891C673.324 35.4063 674.419 35.8149 675.699 35.8149C677.238 35.8149 678.541 35.2346 679.607 34.0739C680.673 32.9133 681.206 31.3737 681.206 29.455C681.206 27.6312 680.69 26.1922 679.66 25.1381C678.642 24.0841 677.303 23.557 675.645 23.557C674.615 23.557 673.685 23.7939 672.856 24.2676C672.027 24.7295 671.376 25.3335 670.902 26.0797L667.9 25.6888L670.422 12.3118H683.373V15.3674H672.98L671.577 22.3668C673.14 21.2772 674.781 20.7324 676.498 20.7324C678.772 20.7324 680.69 21.52 682.254 23.0952C683.817 24.6703 684.599 26.6955 684.599 29.1708C684.599 31.5276 683.912 33.5647 682.538 35.282C680.868 37.3901 678.588 38.4441 675.699 38.4441C673.33 38.4441 671.393 37.7809 669.889 36.4544C668.397 35.128 667.544 33.3693 667.331 31.1782ZM687.192 32.3685L690.355 31.8711C690.532 33.1383 691.024 34.1095 691.829 34.7845C692.646 35.4596 693.783 35.7971 695.24 35.7971C696.709 35.7971 697.798 35.5011 698.509 34.9089C699.219 34.3049 699.575 33.6002 699.575 32.7949C699.575 32.0724 699.261 31.5039 698.633 31.0894C698.195 30.8052 697.105 30.4439 695.364 30.0057C693.019 29.4136 691.391 28.9043 690.479 28.478C689.579 28.0398 688.892 27.4417 688.418 26.6837C687.956 25.9139 687.725 25.0671 687.725 24.1433C687.725 23.3024 687.915 22.5267 688.294 21.8161C688.685 21.0936 689.212 20.4955 689.875 20.0218C690.372 19.6547 691.047 19.3467 691.9 19.098C692.765 18.8375 693.689 18.7072 694.672 18.7072C696.152 18.7072 697.449 18.9204 698.562 19.3467C699.687 19.7731 700.516 20.3534 701.049 21.0877C701.582 21.8102 701.949 22.7813 702.151 24.0012L699.024 24.4275C698.882 23.4564 698.467 22.6984 697.78 22.1536C697.105 21.6088 696.146 21.3364 694.902 21.3364C693.434 21.3364 692.386 21.5792 691.758 22.0648C691.13 22.5504 690.817 23.1188 690.817 23.7702C690.817 24.1847 690.947 24.5578 691.207 24.8894C691.468 25.2329 691.877 25.5171 692.433 25.7421C692.753 25.8606 693.694 26.133 695.258 26.5593C697.52 27.1633 699.095 27.6608 699.983 28.0516C700.883 28.4306 701.588 28.9872 702.097 29.7215C702.607 30.4558 702.861 31.3677 702.861 32.4573C702.861 33.5232 702.547 34.5299 701.92 35.4774C701.304 36.413 700.41 37.1414 699.237 37.6625C698.065 38.1717 696.738 38.4264 695.258 38.4264C692.806 38.4264 690.935 37.9171 689.644 36.8986C688.365 35.88 687.548 34.37 687.192 32.3685ZM710.145 38L704.371 19.1336H707.676L710.678 30.0235L711.797 34.0739C711.844 33.8726 712.17 32.5758 712.774 30.1834L715.776 19.1336H719.063L721.888 30.0768L722.829 33.6831L723.913 30.0413L727.146 19.1336H730.255L724.357 38H721.035L718.033 26.7015L717.304 23.486L713.485 38H710.145Z" fill="#46C147"/>
<path d="M557.75 376.1V412.1" stroke="#46C147" stroke-width="3.03189"/>
<path d="M593 376.1V412.1" stroke="#46C147" stroke-width="3.03189"/>
<path d="M557.751 390.258H594.75" stroke="#46C147" stroke-width="3.03189"/>
<path d="M590 390.258L626.383 381.166V399.35L590 390.258Z" fill="#46C147"/>
<path d="M558.384 390.258L522.001 381.166V399.35L558.384 390.258Z" fill="#46C147"/>
<path d="M457.68 399.362C455.974 399.362 454.454 399.069 453.119 398.483C451.793 397.897 450.737 397.084 449.954 396.041C449.178 394.99 448.756 393.772 448.687 392.385H451.943C452.012 393.238 452.305 393.974 452.822 394.594C453.339 395.206 454.015 395.68 454.85 396.015C455.686 396.351 456.612 396.519 457.628 396.519C458.765 396.519 459.773 396.321 460.651 395.925C461.53 395.529 462.219 394.978 462.719 394.271C463.218 393.565 463.468 392.747 463.468 391.816C463.468 390.843 463.227 389.986 462.744 389.245C462.262 388.496 461.556 387.91 460.625 387.488C459.695 387.066 458.558 386.855 457.215 386.855H455.096V384.013H457.215C458.265 384.013 459.187 383.823 459.979 383.444C460.781 383.065 461.405 382.531 461.853 381.842C462.309 381.153 462.538 380.344 462.538 379.413C462.538 378.517 462.34 377.738 461.943 377.075C461.547 376.412 460.987 375.895 460.264 375.524C459.549 375.154 458.705 374.969 457.731 374.969C456.818 374.969 455.957 375.137 455.147 375.473C454.346 375.8 453.692 376.278 453.184 376.907C452.675 377.527 452.4 378.276 452.357 379.155H449.256C449.308 377.768 449.725 376.554 450.509 375.511C451.293 374.461 452.318 373.642 453.584 373.057C454.859 372.471 456.259 372.178 457.783 372.178C459.42 372.178 460.824 372.51 461.995 373.173C463.166 373.828 464.067 374.693 464.695 375.77C465.324 376.846 465.638 378.009 465.638 379.258C465.638 380.748 465.247 382.019 464.463 383.07C463.688 384.12 462.632 384.848 461.297 385.253V385.46C462.968 385.735 464.273 386.446 465.212 387.592C466.151 388.729 466.62 390.137 466.62 391.816C466.62 393.255 466.228 394.547 465.445 395.692C464.669 396.829 463.61 397.725 462.266 398.38C460.923 399.034 459.394 399.362 457.68 399.362ZM486.013 383.599L483.274 384.375C483.102 383.918 482.848 383.474 482.512 383.044C482.185 382.605 481.737 382.243 481.168 381.959C480.6 381.674 479.872 381.532 478.985 381.532C477.77 381.532 476.758 381.812 475.949 382.372C475.148 382.923 474.747 383.625 474.747 384.478C474.747 385.236 475.023 385.835 475.574 386.274C476.125 386.713 476.987 387.079 478.158 387.372L481.104 388.096C482.878 388.526 484.2 389.185 485.07 390.072C485.94 390.951 486.375 392.083 486.375 393.47C486.375 394.607 486.048 395.624 485.393 396.519C484.747 397.415 483.843 398.121 482.68 398.638C481.517 399.155 480.165 399.413 478.623 399.413C476.599 399.413 474.924 398.974 473.597 398.096C472.271 397.217 471.431 395.934 471.078 394.245L473.972 393.522C474.247 394.59 474.769 395.391 475.535 395.925C476.31 396.459 477.322 396.726 478.571 396.726C479.993 396.726 481.121 396.425 481.956 395.822C482.801 395.21 483.223 394.478 483.223 393.625C483.223 392.936 482.981 392.359 482.499 391.894C482.017 391.42 481.276 391.067 480.277 390.835L476.969 390.059C475.152 389.629 473.817 388.961 472.964 388.057C472.12 387.144 471.698 386.002 471.698 384.633C471.698 383.513 472.012 382.523 472.641 381.661C473.278 380.8 474.144 380.124 475.238 379.633C476.341 379.142 477.589 378.896 478.985 378.896C480.949 378.896 482.49 379.327 483.61 380.188C484.739 381.05 485.54 382.187 486.013 383.599ZM495.461 399L489.414 379.155H492.619L496.908 394.349H497.115L501.353 379.155H504.608L508.794 394.297H509.001L513.291 379.155H516.495L510.448 399H507.451L503.11 383.754H502.8L498.458 399H495.461Z" fill="#46C147"/>
</g>
<defs>
<clipPath id="clip0_0_1">
<rect width="775" height="700" fill="white"/>
</clipPath>
</defs>
</svg>
