<svg width="915" height="600" viewBox="0 0 915 600" fill="none" xmlns="http://www.w3.org/2000/svg">
<g clip-path="url(#clip0_0_1)">
<path d="M20 -542.5C20 -563.211 36.7893 -580 57.5 -580H857.5C878.211 -580 895 -563.211 895 -542.5V557.5C895 578.211 878.211 595 857.5 595H57.5C36.7893 595 20 578.211 20 557.5V-542.5Z" fill="white"/>
<path d="M38.75 -542.5C38.75 -552.855 47.1446 -561.25 57.5 -561.25H857.5C867.855 -561.25 876.25 -552.855 876.25 -542.5V557.5C876.25 567.855 867.855 576.25 857.5 576.25H57.5C47.1446 576.25 38.75 567.855 38.75 557.5V-542.5Z" fill="#0033A2"/>
<path d="M309.5 464.315V453.285H408.95V464.315H309.5ZM354.84 460.265L365.52 457.675C367.927 466.528 371.173 474.778 375.26 482.425C379.347 490.078 384.37 496.772 390.33 502.505C396.297 508.245 403.217 512.765 411.09 516.065C410.19 516.812 409.233 517.785 408.22 518.985C407.207 520.185 406.25 521.405 405.35 522.645C404.45 523.885 403.7 524.992 403.1 525.965C394.773 522.065 387.517 516.908 381.33 510.495C375.143 504.082 369.913 496.638 365.64 488.165C361.367 479.692 357.767 470.392 354.84 460.265ZM353.15 421.905H364.74C364.74 427.225 364.607 432.942 364.34 439.055C364.08 445.168 363.5 451.452 362.6 457.905C361.7 464.352 360.237 470.802 358.21 477.255C356.19 483.702 353.377 489.925 349.77 495.925C346.177 501.925 341.567 507.495 335.94 512.635C330.313 517.768 323.45 522.248 315.35 526.075C314.45 524.648 313.25 523.092 311.75 521.405C310.25 519.718 308.75 518.312 307.25 517.185C315.05 513.665 321.63 509.558 326.99 504.865C332.357 500.178 336.707 495.078 340.04 489.565C343.38 484.058 345.95 478.342 347.75 472.415C349.55 466.488 350.827 460.562 351.58 454.635C352.327 448.715 352.777 442.978 352.93 437.425C353.077 431.878 353.15 426.705 353.15 421.905Z" fill="white"/>
<path d="M464.893 459.928V453.858H528.233V459.928H464.893ZM465.453 502.458V496.268H528.342V502.458H465.453ZM496.163 509.878V478.718H505.733V509.878H496.163ZM511.693 468.928H480.983V475.118H511.693V468.928ZM471.983 480.178V463.638H521.143V480.178H471.983ZM487.953 436.528L496.843 437.658C496.016 440.731 495.076 443.991 494.023 447.438C492.976 450.891 492.003 453.854 491.103 456.328H481.763C482.816 453.628 483.903 450.441 485.023 446.768C486.149 443.094 487.126 439.681 487.953 436.528ZM471.413 448.338V442.608H518.553V457.118H509.663V448.338H471.413ZM448.913 526.418V426.518H544.092V526.418H533.633V436.188H459.043V526.418H448.913ZM455.333 521.918V512.238H539.253V521.918H455.333ZM473.333 500.658V484.338H523.503V490.418H481.653V500.658" fill="white"/>
<path d="M426.25 414.8H290.75V555.3H426.25V414.8Z" stroke="white" stroke-width="2" stroke-dasharray="5 5"/>
<path d="M563.75 414.8H428.25V555.3H563.75V414.8Z" stroke="white" stroke-width="2" stroke-dasharray="5 5"/>
<path d="M845.25 430.814L795.25 480.814H745.25L778.583 447.481H645.25V414.147H778.583L745.25 380.814H795.25L845.25 430.814Z" fill="white"/>
<path d="M457.5 272.878H857.5C867.855 272.878 876.25 264.484 876.25 254.128V304.128C876.25 293.773 867.855 285.378 857.5 285.378H57.5C47.1446 285.378 38.75 293.773 38.75 304.128V254.128C38.75 264.484 47.1446 272.878 57.5 272.878H457.5Z" fill="white"/>
<path d="M291.27 333.852V322.832H341.94V333.852H322.66V393.152H310.55V333.852" fill="white"/>
<path d="M381.565 347.437L382.125 348.537C383.559 350.317 384.475 352.153 384.875 354.047C384.995 354.84 385.086 355.583 385.146 356.277C385.212 356.963 385.245 357.567 385.245 358.087V382.317C386.372 384.557 388.022 385.903 390.195 386.357L389.835 386.907C389.709 387.127 389.585 387.25 389.465 387.277L389.285 387.827L388.915 388.197C388.609 388.87 388.242 389.42 387.815 389.847C387.382 390.98 386.829 391.837 386.155 392.417C385.882 393.03 385.622 393.56 385.375 394.007C385.135 394.447 384.909 394.837 384.695 395.177C381.115 394.257 378.299 392.603 376.245 390.217H375.695C371.749 393.063 367.679 394.487 363.485 394.487C361.219 394.487 358.985 394.103 356.785 393.337C350.205 390.983 346.229 386.7 344.855 380.487V380.257C344.855 368.417 351.785 362.497 365.645 362.497H365.785C366.059 362.37 366.362 362.307 366.695 362.307L367.245 362.127H368.535L369.085 361.947H369.635L374.225 361.397C374.285 361.057 374.315 360.75 374.315 360.477V359.557C374.315 354.443 371.609 351.887 366.195 351.887C362.429 351.887 357.272 353.157 350.725 355.697L349.995 354.047L349.625 352.947L349.255 352.577L349.075 352.217L348.705 351.107C348.372 350.56 348.129 350.01 347.975 349.457C347.329 348.603 346.899 347.747 346.685 346.887L347.235 346.707L347.605 346.517L348.155 346.337L348.525 345.967H349.075C349.195 345.847 349.302 345.787 349.395 345.787H349.445C350.545 345.207 351.522 344.777 352.375 344.497L353.295 344.317C353.969 344.01 354.582 343.827 355.135 343.767L356.605 343.397C357.672 342.97 358.712 342.727 359.725 342.667L363.765 341.927C364.372 341.867 364.959 341.813 365.525 341.767C366.092 341.72 366.652 341.697 367.205 341.697C373.045 341.697 377.832 343.61 381.565 347.437ZM369.815 370.757H368.715C368.442 370.817 368.175 370.863 367.915 370.897C367.655 370.923 367.402 370.937 367.155 370.937H366.885L366.145 371.127H365.595C365.442 371.247 365.259 371.307 365.045 371.307H364.495L361.555 372.037H361.005C360.152 372.53 359.419 372.837 358.805 372.957C356.819 374.857 355.825 376.693 355.825 378.467C355.825 380.087 356.635 381.677 358.255 383.237C360.609 384.677 362.902 385.397 365.135 385.397C367.982 385.397 370.706 384.25 373.306 381.957C373.552 381.25 373.799 380.76 374.045 380.487L374.225 379.937L374.045 379.197V370.567H370.375C370.222 370.693 370.035 370.757 369.815 370.757Z" fill="white"/>
<path d="M401.182 393.333V343.213H412.382V393.333H401.182ZM413.482 328.523V329.123C413.482 331.663 412.685 333.726 411.092 335.313C409.412 336.14 407.865 336.553 406.452 336.553C404.005 336.553 402.065 335.223 400.632 332.563C400.352 331.49 400.212 330.543 400.212 329.723C400.212 326.596 401.942 324.483 405.402 323.383H405.862C409.749 323.383 412.289 325.096 413.482 328.523Z" fill="white"/>
<path d="M452.441 323.386V323.016H465.111L465.291 324.306L465.481 324.856L465.841 326.146L466.211 328.346L466.761 330.176L467.131 332.386L467.681 334.216L467.861 335.686C468.075 336.206 468.198 336.636 468.231 336.976L468.411 337.706L468.781 338.806V339.546C468.901 339.639 468.961 339.729 468.961 339.816V340.466C469.301 341.139 469.488 341.873 469.521 342.666L469.881 343.766L470.251 345.056L470.621 347.256L471.171 349.086L471.351 350.196L472.451 354.786C472.545 355.213 472.631 355.603 472.711 355.956C472.785 356.303 472.821 356.646 472.821 356.986L473.191 357.716V358.456L473.551 359.376V360.106L473.921 360.836V361.576C474.261 362.496 474.445 363.293 474.471 363.966L474.661 364.696C474.875 365.309 475.041 365.876 475.161 366.396C475.281 366.916 475.358 367.389 475.391 367.816L475.761 369.286L476.131 370.566L476.491 369.466L477.231 365.796L477.591 364.876L477.781 363.776L478.331 361.206L478.701 359.926V359.376L479.431 356.436L479.611 355.336L479.981 354.596L480.161 353.866L480.351 352.946V352.216L480.531 351.656L481.271 348.726L481.631 346.516L481.821 345.786L482.181 345.056C482.248 344.076 482.431 343.216 482.731 342.476L482.921 341.566V341.016L483.291 339.546L483.471 338.996L484.021 336.606L484.201 335.506L484.571 334.406L484.751 333.486L485.301 331.096L485.491 330.176L485.671 329.816C485.705 329.476 485.745 329.146 485.791 328.826C485.838 328.506 485.921 328.223 486.041 327.976L486.221 327.426V326.876L486.411 326.146L486.591 325.586L487.141 323.016H500.731V323.566C501.158 324.639 501.401 325.683 501.461 326.696L501.831 328.156L502.011 328.716L502.751 332.016L503.111 333.486C503.358 334.373 503.481 335.106 503.481 335.686C503.695 336.206 503.818 336.636 503.851 336.976L504.211 338.256L504.401 339.546L504.581 340.276L504.771 340.826C504.858 341.226 504.935 341.586 505.001 341.906C505.061 342.226 505.105 342.539 505.131 342.846C505.378 343.426 505.548 343.963 505.641 344.456C505.735 344.943 505.811 345.386 505.871 345.786L506.051 346.886L506.421 347.806L506.601 348.906V349.456C506.908 350.189 507.091 350.863 507.151 351.476L507.341 352.576C507.641 353.309 507.825 353.983 507.891 354.596L508.071 355.516L508.621 357.536V358.266C508.741 358.546 508.801 358.853 508.801 359.186C509.141 359.893 509.328 360.506 509.361 361.026L509.541 361.946L509.721 363.046L509.911 363.776C510.218 364.723 510.401 365.579 510.461 366.346C510.581 366.439 510.641 366.533 510.641 366.626V367.266C511.068 368.339 511.315 369.379 511.381 370.386C511.561 370.326 511.681 370.203 511.741 370.016C511.895 369.256 512.048 368.593 512.201 368.026C512.355 367.459 512.508 366.963 512.661 366.536V365.796C513.061 364.696 513.305 363.716 513.391 362.856L513.761 361.576L514.501 358.636L514.681 357.166L515.051 355.886L515.231 355.336V354.786C515.445 354.199 515.615 353.669 515.741 353.196C515.861 352.723 515.935 352.273 515.961 351.846L516.331 350.556L517.801 344.496L518.351 341.566L518.721 340.096C519.055 339.209 519.238 338.476 519.271 337.896L519.451 336.976L519.821 335.506C520.095 334.619 520.278 333.886 520.371 333.306L520.551 332.566L521.111 329.996L521.471 328.896V328.346L522.021 326.876V326.146L522.211 325.586L522.761 323.016H535.241L534.511 326.696L533.961 328.896L533.771 329.446L533.221 332.016L532.861 333.486L532.491 334.766L531.751 338.446L531.391 339.726L530.651 343.216L530.291 344.496L530.101 345.056L529.731 347.066L529.551 347.436L529.371 348.726C529.065 349.733 528.881 350.589 528.821 351.296L528.081 353.496L527.901 354.786L527.711 355.516L527.531 356.066L527.351 357.356L527.161 357.906L526.061 362.496L525.881 363.776L525.511 365.066L524.591 368.736L524.411 370.016L523.311 374.606L522.761 377.176C522.421 378.096 522.238 378.893 522.211 379.566L521.471 381.956V382.686C521.138 383.606 520.955 384.403 520.921 385.076C520.615 386.083 520.431 386.939 520.371 387.646L520.001 388.926L519.821 389.296L519.641 390.586C519.335 391.593 519.151 392.449 519.091 393.156H505.501L505.321 391.686C505.108 391.166 504.985 390.736 504.951 390.396L504.581 388.926L504.401 387.646L504.031 386.356C503.938 385.989 503.861 385.639 503.801 385.306C503.741 384.966 503.695 384.643 503.661 384.336L503.481 383.606L503.301 382.686C503.175 382.533 503.111 382.349 503.111 382.136L502.931 381.216L502.751 380.666C502.658 380.273 502.581 379.913 502.521 379.586C502.455 379.266 502.408 378.953 502.381 378.646C502.168 378.066 502.008 377.533 501.901 377.046C501.795 376.553 501.708 376.109 501.641 375.716L501.461 374.976L501.281 374.056C501.155 373.689 501.068 373.339 501.021 373.006C500.981 372.666 500.945 372.343 500.911 372.036C500.698 371.429 500.531 370.849 500.411 370.296C500.285 369.743 500.208 369.223 500.181 368.736C500.055 368.583 499.991 368.399 499.991 368.186L499.811 367.446L499.631 366.896C499.538 366.256 499.415 365.646 499.261 365.066L498.891 363.406L498.711 362.306L498.341 361.396L497.971 359.186L497.791 358.636V358.086C497.485 357.353 497.301 356.679 497.241 356.066L496.871 353.866L496.501 352.946L496.141 351.476V350.746C495.775 349.733 495.591 348.876 495.591 348.176C495.465 348.023 495.401 347.839 495.401 347.626L495.221 347.066V346.516C494.915 345.816 494.731 345.083 494.671 344.316C494.365 343.336 494.181 342.419 494.121 341.566L493.751 342.296L493.571 343.396L493.021 345.786L492.651 347.806L492.461 348.356L491.731 351.476L491.551 352.216L491.181 354.046L491.001 354.786L490.631 356.806L490.451 357.356L489.711 360.836L489.341 362.126L489.161 363.406C488.828 364.326 488.645 365.123 488.611 365.796L488.431 366.166L488.241 367.266L488.061 367.816L487.141 372.406L486.961 372.956L486.221 376.446L486.041 377.176L485.861 378.096L485.671 378.646L484.941 382.136L484.571 383.606L484.201 385.446L484.021 385.806L483.651 387.466L483.471 388.196L483.291 389.476C483.071 390.243 482.948 390.856 482.921 391.316C482.795 391.623 482.711 391.913 482.671 392.186C482.625 392.466 482.585 392.726 482.551 392.966C482.125 393.033 481.735 393.086 481.381 393.126C481.028 393.173 480.685 393.196 480.351 393.196H479.891C479.738 393.196 479.585 393.183 479.431 393.156H468.781V392.416C468.355 391.316 468.111 390.276 468.051 389.296C467.925 389.143 467.861 388.959 467.861 388.746L467.681 387.826C467.008 385.653 466.578 383.816 466.391 382.316L466.211 381.766L465.291 378.286L465.111 376.816L463.641 371.126V370.386C463.335 369.686 463.151 368.953 463.091 368.186L462.721 367.086L462.361 365.796V365.246L461.441 361.576V361.026L461.251 360.286L460.891 359.556L460.701 358.086C460.461 357.353 460.265 356.679 460.111 356.066C459.958 355.453 459.851 354.903 459.791 354.416L459.601 353.866V353.316C459.481 353.163 459.421 352.979 459.421 352.766L459.051 351.296L458.871 350.746C458.745 350.099 458.628 349.516 458.521 348.996C458.415 348.476 458.285 348.019 458.131 347.626L457.951 346.336C457.738 345.723 457.568 345.156 457.441 344.636C457.321 344.116 457.245 343.643 457.211 343.216L457.031 342.296C456.911 342.143 456.851 341.959 456.851 341.746L455.931 338.076L455.561 336.786L455.381 335.876L455.201 335.136L455.011 333.856C454.765 333.209 454.641 332.656 454.641 332.196V332.016L454.281 331.096L454.091 330.366C453.971 329.479 453.788 328.743 453.541 328.156V327.426C453.421 327.273 453.361 327.089 453.361 326.876" fill="white"/>
<path d="M578.815 347.437L579.375 348.537C580.809 350.317 581.725 352.153 582.125 354.047C582.245 354.84 582.336 355.583 582.396 356.277C582.462 356.963 582.495 357.567 582.495 358.087V382.317C583.622 384.557 585.272 385.903 587.445 386.357L587.085 386.907C586.959 387.127 586.835 387.25 586.715 387.277L586.535 387.827L586.165 388.197C585.859 388.87 585.492 389.42 585.065 389.847C584.632 390.98 584.079 391.837 583.405 392.417C583.132 393.03 582.872 393.56 582.625 394.007C582.385 394.447 582.159 394.837 581.945 395.177C578.365 394.257 575.549 392.603 573.495 390.217H572.945C568.999 393.063 564.929 394.487 560.735 394.487C558.469 394.487 556.235 394.103 554.035 393.337C547.455 390.983 543.479 386.7 542.105 380.487V380.257C542.105 368.417 549.035 362.497 562.895 362.497H563.035C563.309 362.37 563.612 362.307 563.945 362.307L564.495 362.127H565.785L566.335 361.947H566.885L571.475 361.397C571.535 361.057 571.565 360.75 571.565 360.477V359.557C571.565 354.443 568.859 351.887 563.445 351.887C559.679 351.887 554.522 353.157 547.975 355.697L547.245 354.047L546.875 352.947L546.505 352.577L546.325 352.217L545.955 351.107C545.622 350.56 545.379 350.01 545.225 349.457C544.579 348.603 544.149 347.747 543.935 346.887L544.485 346.707L544.855 346.517L545.405 346.337L545.775 345.967H546.325C546.445 345.847 546.552 345.787 546.645 345.787H546.695C547.795 345.207 548.772 344.777 549.625 344.497L550.545 344.317C551.219 344.01 551.832 343.827 552.385 343.767L553.855 343.397C554.922 342.97 555.962 342.727 556.975 342.667L561.015 341.927C561.622 341.867 562.209 341.813 562.775 341.767C563.342 341.72 563.902 341.697 564.455 341.697C570.295 341.697 575.082 343.61 578.815 347.437ZM567.065 370.757H565.965C565.692 370.817 565.425 370.863 565.165 370.897C564.905 370.923 564.652 370.937 564.405 370.937H564.135L563.395 371.127H562.845C562.692 371.247 562.509 371.307 562.295 371.307H561.745L558.805 372.037H558.255C557.402 372.53 556.669 372.837 556.055 372.957C554.069 374.857 553.075 376.693 553.075 378.467C553.075 380.087 553.885 381.677 555.505 383.237C557.859 384.677 560.152 385.397 562.385 385.397C565.232 385.397 567.956 384.25 570.556 381.957C570.802 381.25 571.049 380.76 571.295 380.487L571.475 379.937L571.295 379.197V370.567H567.625C567.472 370.693 567.285 370.757 567.065 370.757Z" fill="white"/>
<path d="M600.182 393.333V343.213H611.382V393.333H600.182ZM612.482 328.523V329.123C612.482 331.663 611.685 333.726 610.092 335.313C608.412 336.14 606.865 336.553 605.452 336.553C603.005 336.553 601.065 335.223 599.632 332.563C599.352 331.49 599.212 330.543 599.212 329.723C599.212 326.596 600.942 324.483 604.402 323.383H604.862C608.749 323.383 611.289 325.096 612.482 328.523Z" fill="white"/>
<path d="M341.25 316.802H290.75V414.802H341.25V316.802Z" stroke="white" stroke-width="2" stroke-dasharray="5 5"/>
<path d="M393.25 316.802H343.25V414.802H393.25V316.802Z" stroke="white" stroke-width="2" stroke-dasharray="5 5"/>
<path d="M420.25 316.802H395.25V414.802H420.25V316.802Z" stroke="white" stroke-width="2" stroke-dasharray="5 5"/>
<path d="M445.25 316.802H422.25V414.802H445.25V316.802Z" stroke="white" stroke-width="2" stroke-dasharray="5 5"/>
<path d="M536.75 316.802H447.25V414.802H536.75V316.802Z" stroke="white" stroke-width="2" stroke-dasharray="5 5"/>
<path d="M592.25 316.802H538.75V414.802H592.25V316.802Z" stroke="white" stroke-width="2" stroke-dasharray="5 5"/>
<path d="M619.25 316.802H594.25V414.802H619.25V316.802Z" stroke="white" stroke-width="2" stroke-dasharray="5 5"/>
<path d="M69.7501 129.303L119.75 79.3035H169.75L136.417 112.637H269.75V145.97H136.417L169.75 179.303H119.75L69.7501 129.303Z" fill="white"/>
<path d="M457.5 -26.7712H857.5C867.855 -26.7712 876.25 -35.1658 876.25 -45.5212V4.47882C876.25 -5.87648 867.855 -14.2712 857.5 -14.2712H57.5C47.1446 -14.2712 38.75 -5.87648 38.75 4.47882V-45.5212C38.75 -35.1658 47.1446 -26.7712 57.5 -26.7712H457.5Z" fill="white"/>
<path d="M307.551 93.6802V23.5502H319.671V54.7602L320.401 53.8402L321.501 52.7402C321.627 52.5269 321.751 52.4036 321.871 52.3702L322.051 52.0002L322.421 51.6402L324.811 48.8802L325.731 47.9702L325.911 47.4102L327.011 46.5002L327.201 46.1302L329.211 43.7402L329.951 42.8202L331.971 40.6202L332.701 39.8902L333.251 38.9702C333.591 38.5436 333.921 38.1836 334.241 37.8902C334.561 37.5969 334.844 37.3436 335.091 37.1302C335.644 36.1502 336.257 35.4169 336.931 34.9302L338.761 32.5402L339.311 31.9902L339.861 31.2602L341.331 29.7902L342.981 27.7702L343.351 27.4002C343.477 27.1869 343.601 27.0669 343.721 27.0402L343.901 26.6702L344.271 26.3002L346.661 23.5502H360.791C360.031 24.8636 359.174 25.9036 358.221 26.6702C357.981 27.0969 357.674 27.4636 357.301 27.7702L356.571 28.8702L355.101 30.3402L354.001 31.8102L353.631 32.1802C353.417 32.4536 353.204 32.6969 352.991 32.9102C352.777 33.1236 352.564 33.3069 352.351 33.4602C351.617 34.6869 350.821 35.6069 349.961 36.2202L349.411 36.9502L347.391 39.5202L346.841 40.0702C346.474 40.4702 346.154 40.8302 345.881 41.1502C345.601 41.4702 345.371 41.7836 345.191 42.0902L344.641 42.4602L344.091 43.0102L343.721 43.7402L342.801 44.6602L342.431 45.2102L342.071 45.5802L341.701 46.1302L341.151 46.5002L340.961 46.8602L340.601 47.2302C339.314 48.8836 338.211 50.1069 337.291 50.9002C337.964 52.3736 338.577 53.4769 339.131 54.2102L339.681 55.4902C339.954 55.7702 340.137 56.0769 340.231 56.4102L340.961 57.3302L341.701 58.6102L342.071 59.3502L342.431 59.9002L342.801 60.6302L342.981 61.1802L343.351 61.3702L343.541 62.1002C343.661 62.1936 343.721 62.2869 343.721 62.3802V62.4702C344.547 63.3236 345.097 64.2402 345.371 65.2202L346.111 66.5102L346.471 66.8802L348.311 70.0002L349.041 71.2802L349.591 72.5702L350.331 73.4902L350.511 74.0402C350.817 74.4336 351.077 74.8136 351.291 75.1802C351.504 75.5469 351.674 75.9002 351.801 76.2402L352.351 76.9702L352.711 77.8902L353.271 78.6302L354.551 80.8302L355.291 81.9302L355.471 82.6602L356.021 83.4002L356.201 83.9502C356.414 84.1036 356.537 84.2869 356.571 84.5002L356.941 85.2402C357.554 85.9069 357.981 86.6402 358.221 87.4402C358.987 88.2336 359.477 89.0269 359.691 89.8202L360.061 90.1902L361.891 93.6802H348.311L347.761 92.4002L347.211 91.8402L346.841 91.1102L346.111 89.8202L345.921 89.2702L345.551 88.9102L345.371 88.5402C345.124 88.1136 344.904 87.7302 344.711 87.3902C344.511 87.0569 344.304 86.7669 344.091 86.5202L343.901 85.9702L343.541 85.2402L342.801 84.1302L342.251 83.0302L341.701 82.1102L340.961 81.0102L340.411 80.0902L340.231 79.7302C339.464 78.5036 338.914 77.4636 338.581 76.6102C338.307 76.2702 338.124 75.9636 338.031 75.6902C337.971 75.6302 337.924 75.5769 337.891 75.5302C337.857 75.4836 337.841 75.4302 337.841 75.3702V75.3202C336.894 74.1002 336.221 73.0002 335.821 72.0202L335.641 71.4702C334.847 70.5169 334.297 69.7202 333.991 69.0802L333.801 68.3402L333.441 67.7902L332.891 67.0602L332.701 66.5102L331.971 65.4102L331.791 64.8602L331.421 64.4902L331.231 64.1202L331.051 63.5702L330.681 63.3902C330.194 62.3169 329.704 61.3969 329.211 60.6302L328.851 61.0002L328.661 61.3702C328.141 61.7969 327.774 62.2236 327.561 62.6502L327.011 63.0202L325.361 65.2202L324.631 65.7702L323.891 66.8802L323.341 67.2402C322.727 68.2202 322.114 68.9569 321.501 69.4502C320.921 70.2769 320.311 70.9502 319.671 71.4702V93.6802" fill="white"/>
<path d="M366.453 43.5619H378.023L378.203 44.6619C378.416 45.2419 378.586 45.7686 378.713 46.2419C378.833 46.7219 378.91 47.1752 378.943 47.6019C379.31 48.6086 379.493 49.4652 379.493 50.1719L379.673 50.9019C379.8 51.0552 379.863 51.2386 379.863 51.4519L380.963 55.8619L381.323 57.7019L381.693 58.6119V59.1619C381.906 59.7486 382.076 60.3019 382.203 60.8219C382.323 61.3419 382.4 61.8319 382.433 62.2919L382.613 63.2019C383.1 64.3086 383.343 65.3486 383.343 66.3219L383.533 67.0619L383.893 67.7919L384.083 69.0819C384.33 69.7219 384.453 70.2719 384.453 70.7319V70.9119L384.813 72.3819C384.94 72.4752 385.003 72.5686 385.003 72.6619V72.7519L385.913 76.9719L386.103 76.6119L386.463 75.5019C386.616 74.5886 386.803 73.8552 387.023 73.3019L387.203 72.0219C387.356 71.1619 387.54 70.4886 387.753 70.0019C387.786 69.6619 387.823 69.3319 387.863 69.0119C387.91 68.6919 387.996 68.4086 388.123 68.1619V67.6119L388.303 67.2419L388.853 64.4919L389.223 63.3919L389.403 62.2919C389.71 61.2786 389.893 60.4219 389.953 59.7219L390.323 58.9819V58.0619L390.503 57.3319L391.243 54.9419V54.2119C391.576 53.2919 391.76 52.4952 391.793 51.8219C392.1 50.8152 392.283 49.9586 392.343 49.2519L392.523 48.7019L392.713 47.7819L392.893 47.2319L393.633 43.7419L394.733 43.5619H406.113L406.483 44.8419V45.4019L407.393 48.7019L407.763 50.9019L408.313 52.7419L408.683 54.9419C408.93 55.5219 409.096 56.0586 409.183 56.5519C409.276 57.0386 409.353 57.4819 409.413 57.8819L409.603 58.9819C409.723 59.1352 409.783 59.3186 409.783 59.5319L411.073 64.8619L411.253 65.5919V66.3219L411.623 67.4319L411.803 68.7119L412.723 71.8319L413.453 75.6919C413.64 76.1519 413.823 76.5186 414.003 76.7919L414.373 75.3219V74.7719L414.553 74.2219L415.293 70.7319L415.663 69.4519L415.843 68.3419L416.023 67.7919L416.213 67.4319C416.366 66.5119 416.55 65.7752 416.763 65.2219V64.6719L417.133 63.3919L417.863 60.0819L418.233 59.3519V58.4319L418.593 57.7019L418.783 56.5919L418.963 55.6819L419.143 55.1319L419.883 51.6419L420.063 51.2719L420.613 49.0719L420.803 48.5219V47.7819L421.533 45.5819C421.566 45.2152 421.606 44.8619 421.653 44.5219C421.693 44.1886 421.776 43.8686 421.903 43.5619H433.463L433.103 44.6619L432.913 45.9519L432.733 46.3119L431.453 51.2719L431.263 51.6419L430.343 55.3119L429.983 56.4119L428.883 60.6319L428.513 61.9219L427.963 63.2019L427.773 64.4919L427.413 65.9619L427.223 66.3219L426.863 67.4319L425.753 71.8319L425.573 72.3819L425.393 72.7519L424.293 76.9719L424.103 77.5219C423.796 78.9619 423.43 80.1252 423.003 81.0119L422.823 81.7519L422.633 83.0319L422.273 84.1319L421.353 87.4419L420.983 88.9119L420.803 89.2719L419.703 93.5019H407.213L406.843 92.2119L406.663 90.7419L406.483 90.1919V89.6419C406.176 88.9419 405.993 88.2086 405.933 87.4419C405.626 86.4619 405.443 85.5419 405.383 84.6819L405.013 83.5819V83.0319C404.586 81.9652 404.34 80.9252 404.273 79.9119L404.093 78.9919L403.723 77.8919L403.543 76.6119L403.173 75.5019L402.993 74.7719V74.0419C402.566 72.9686 402.32 71.9252 402.253 70.9119L401.703 69.0819V68.3419C401.43 67.6686 401.246 67.0586 401.153 66.5119C400.973 65.1919 400.73 64.1519 400.423 63.3919C400.27 62.2919 400.023 61.3719 399.683 60.6319C399.563 61.4919 399.45 62.2519 399.343 62.9119C399.236 63.5652 399.106 64.1519 398.953 64.6719L398.403 67.2419L398.033 68.7119L397.303 72.5719L396.933 73.4919L396.753 74.7719L396.203 77.3419L396.013 78.4419L395.643 79.1819L395.463 80.0919C395.403 80.5519 395.343 80.9652 395.283 81.3319C395.223 81.6986 395.16 82.0219 395.093 82.3019L394.733 84.1319L394.543 84.8719L394.363 85.7919L394.183 86.3419L393.993 87.6219L393.813 88.1719L393.443 89.4619V90.0119C393.23 90.7786 393.106 91.3886 393.073 91.8419C392.953 92.1486 392.87 92.4419 392.823 92.7219C392.776 92.9952 392.74 93.2552 392.713 93.5019H380.223C379.736 92.0019 379.43 90.7752 379.303 89.8219C378.97 89.2152 378.786 88.7286 378.753 88.3619V87.8119C378.693 87.7452 378.65 87.6886 378.623 87.6419C378.59 87.6019 378.573 87.5486 378.573 87.4819V87.4419L377.653 84.5019C377.5 83.8286 377.346 83.2152 377.193 82.6619C377.04 82.1152 376.886 81.6286 376.733 81.2019L376.553 79.9119C376.246 79.2386 376.063 78.5652 376.003 77.8919C375.943 77.8319 375.896 77.7786 375.863 77.7319C375.836 77.6852 375.823 77.6319 375.823 77.5719V77.5219C375.61 76.9419 375.44 76.4219 375.313 75.9619C375.193 75.5086 375.116 75.1119 375.083 74.7719L374.353 72.2019L374.163 71.2819C374.043 71.1286 373.983 70.9452 373.983 70.7319C373.65 70.1186 373.466 69.6286 373.433 69.2619V68.7119C373.373 68.6519 373.326 68.5986 373.293 68.5519C373.266 68.5052 373.253 68.4519 373.253 68.3919V68.3419L372.333 65.4119C372.206 64.7052 372.07 64.0686 371.923 63.5019C371.77 62.9352 371.6 62.4086 371.413 61.9219L371.233 60.8219L370.863 59.9019L370.683 58.9819L370.493 58.6119V58.0619C370.126 57.3619 369.943 56.7519 369.943 56.2319L369.573 55.4919L369.393 54.5719L368.843 52.5619L368.663 51.8219L368.473 51.2719L368.293 50.1719C368.173 50.0186 368.113 49.8352 368.113 49.6219L367.923 49.0719L367.373 47.6019V47.0519C366.853 45.6119 366.546 44.4486 366.453 43.5619Z" fill="white"/>
<path d="M478.315 47.7873L478.875 48.8873C480.309 50.6673 481.225 52.504 481.625 54.3973C481.745 55.1906 481.836 55.934 481.896 56.6273C481.962 57.314 481.995 57.9173 481.995 58.4373V82.6673C483.122 84.9073 484.772 86.254 486.945 86.7073L486.585 87.2573C486.459 87.4773 486.335 87.6006 486.215 87.6273L486.035 88.1773L485.665 88.5473C485.359 89.2206 484.992 89.7706 484.565 90.1973C484.132 91.3306 483.579 92.1873 482.905 92.7673C482.632 93.3806 482.372 93.9106 482.125 94.3573C481.885 94.7973 481.659 95.1873 481.445 95.5273C477.865 94.6073 475.049 92.954 472.995 90.5673H472.445C468.499 93.414 464.429 94.8373 460.235 94.8373C457.969 94.8373 455.735 94.454 453.535 93.6873C446.955 91.334 442.979 87.0506 441.605 80.8373V80.6073C441.605 68.7673 448.535 62.8473 462.395 62.8473H462.535C462.809 62.7206 463.112 62.6573 463.445 62.6573L463.995 62.4773H465.285L465.835 62.2973H466.385L470.975 61.7473C471.035 61.4073 471.065 61.1006 471.065 60.8273V59.9073C471.065 54.794 468.359 52.2373 462.945 52.2373C459.179 52.2373 454.022 53.5073 447.475 56.0473L446.745 54.3973L446.375 53.2973L446.005 52.9273L445.825 52.5673L445.455 51.4573C445.122 50.9106 444.879 50.3606 444.725 49.8073C444.079 48.954 443.649 48.0973 443.435 47.2373L443.985 47.0573L444.355 46.8673L444.905 46.6873L445.275 46.3173H445.825C445.945 46.1973 446.052 46.1373 446.145 46.1373H446.195C447.295 45.5573 448.272 45.1273 449.125 44.8473L450.045 44.6673C450.719 44.3606 451.332 44.1773 451.885 44.1173L453.355 43.7473C454.422 43.3206 455.462 43.0773 456.475 43.0173L460.515 42.2773C461.122 42.2173 461.709 42.164 462.275 42.1173C462.842 42.0706 463.402 42.0473 463.955 42.0473C469.795 42.0473 474.582 43.9606 478.315 47.7873ZM466.565 71.1073H465.465C465.192 71.1673 464.925 71.214 464.665 71.2473C464.405 71.274 464.152 71.2873 463.905 71.2873H463.635L462.895 71.4773H462.345C462.192 71.5973 462.009 71.6573 461.795 71.6573H461.245L458.305 72.3873H457.755C456.902 72.8806 456.169 73.1873 455.555 73.3073C453.569 75.2073 452.575 77.044 452.575 78.8173C452.575 80.4373 453.385 82.0273 455.005 83.5873C457.359 85.0273 459.652 85.7473 461.885 85.7473C464.732 85.7473 467.456 84.6006 470.056 82.3073C470.302 81.6006 470.549 81.1106 470.795 80.8373L470.975 80.2873L470.795 79.5473V70.9173H467.125C466.972 71.044 466.785 71.1073 466.565 71.1073Z" fill="white"/>
<path d="M499.682 93.6839V43.5639H510.882V93.6839H499.682ZM511.982 28.8739V29.4739C511.982 32.0139 511.185 34.0772 509.592 35.6639C507.912 36.4906 506.365 36.9039 504.952 36.9039C502.505 36.9039 500.565 35.5739 499.132 32.9139C498.852 31.8406 498.712 30.8939 498.712 30.0739C498.712 26.9472 500.442 24.8339 503.902 23.7339H504.362C508.249 23.7339 510.789 25.4472 511.982 28.8739Z" fill="white"/>
<path d="M613.038 42.4613C612.918 42.6746 612.735 42.8579 612.488 43.0113L611.568 43.1913L610.838 43.3813H610.098C609.825 43.5013 609.521 43.5613 609.188 43.5613C608.541 43.8079 607.988 43.9313 607.528 43.9313H607.348C607.195 44.0513 607.011 44.1113 606.798 44.1113L606.068 44.2913L604.778 44.4813L604.408 44.6613L601.478 45.2113C598.171 36.4913 592.525 32.1313 584.538 32.1313C582.671 32.1313 580.605 32.3913 578.338 32.9113C578.185 33.0313 578.001 33.0913 577.788 33.0913L576.508 33.6513C575.861 33.9846 575.248 34.2279 574.668 34.3813C574.548 34.5946 574.425 34.7179 574.298 34.7513L573.748 34.9313L573.198 35.3013L572.828 35.6613L572.278 35.8513C571.698 36.4313 571.171 36.9346 570.698 37.3613C570.225 37.7946 569.775 38.1479 569.348 38.4213L569.158 38.9713L568.248 39.8913L568.058 40.4413L567.688 40.6213C567.261 41.7213 566.775 42.6413 566.228 43.3813C564.661 48.6079 563.878 53.6713 563.878 58.5713C563.878 62.4579 564.355 66.2046 565.308 69.8113C567.721 78.9046 573.411 83.8613 582.378 84.6813H582.568C592.388 84.6813 598.691 80.3379 601.478 71.6513L602.388 71.8313C602.755 71.9579 603.108 72.0446 603.448 72.0913C603.781 72.1313 604.101 72.1679 604.408 72.2013L604.778 72.3813L607.718 72.9313L608.448 73.1213L609.738 73.3013L613.038 74.0413C608.691 87.1013 600.125 94.2613 587.338 95.5213C586.818 95.5813 586.291 95.6113 585.758 95.6113C585.218 95.6113 584.688 95.6113 584.168 95.6113C572.055 95.6113 563.015 90.6246 557.048 80.6513C553.375 73.0579 551.538 65.5913 551.538 58.2513C551.538 53.1979 552.395 48.1779 554.108 43.1913C558.755 30.0646 567.505 22.7813 580.358 21.3413C580.725 21.3146 581.085 21.3013 581.438 21.3013C581.791 21.3013 582.135 21.3013 582.468 21.3013C598.168 21.3013 608.358 28.3546 613.038 42.4613Z" fill="white"/>
<path d="M626.41 93.6839V23.7339H637.61V47.6039C641.617 43.9906 645.947 42.1839 650.6 42.1839C651.274 42.1839 651.954 42.2239 652.64 42.3039C653.327 42.3772 654.007 42.4906 654.68 42.6439C661.08 44.2639 665.244 47.9372 667.17 53.6639L667.35 54.9439C667.477 55.2839 667.54 55.6506 667.54 56.0439V93.6839H656.34V61.0039L655.97 59.5339V58.9839L655.42 57.7039C654.927 56.9639 654.62 56.3506 654.5 55.8639C652.88 54.4239 651.227 53.4439 649.54 52.9239C644.307 53.0172 640.574 55.2839 638.34 59.7239V60.2739C638.187 60.7006 638.044 61.0906 637.91 61.4439C637.77 61.7906 637.67 62.1339 637.61 62.4739V93.6839" fill="white"/>
<path d="M682.037 79.1783V43.3783H693.057V75.1383C693.177 75.2916 693.237 75.475 693.237 75.6883C693.364 75.7816 693.427 75.8716 693.427 75.9583V76.0583C693.64 77.4316 693.944 78.655 694.337 79.7283C696.45 82.6616 699.16 84.1283 702.467 84.1283H702.607C706.707 83.0283 709.58 80.765 711.227 77.3383V76.7883L711.967 74.5883V43.3783H723.167V93.4983H711.967V89.4583C707.56 93.065 703.17 94.8683 698.797 94.8683C695.397 94.8683 691.954 93.7983 688.467 91.6583C685.62 89.485 683.66 86.915 682.587 83.9483L682.407 82.6583C682.134 81.7716 681.997 80.9016 681.997 80.0483V79.6383C681.997 79.485 682.01 79.3316 682.037 79.1783Z" fill="white"/>
<path d="M780.3 52.1895V52.7395C780.7 53.4729 780.947 54.2062 781.04 54.9395V93.3095H769.84V60.8195L769.65 59.7195C768.124 55.0929 765.554 52.7795 761.94 52.7795C760.84 52.7795 759.617 53.0095 758.27 53.4695C755.21 54.7895 753.007 56.8729 751.66 59.7195L750.93 62.8395V93.3095H739.91V43.1895H750.93V47.4095C754.357 44.3495 758.09 42.5162 762.13 41.9095H762.95C771.15 41.9095 776.934 45.3362 780.3 52.1895Z" fill="white"/>
<path d="M825.104 47.0504V43.5604H836.124V94.6004L835.934 96.6205L835.754 96.9904L835.574 98.0905L834.834 100.29L834.284 101.39L833.554 102.49C832.667 104.05 831.627 105.274 830.434 106.16L829.694 107.08L825.844 108.92C821.77 109.927 817.837 110.43 814.044 110.43C807.157 110.43 800.807 108.764 794.994 105.43L795.364 104.7L796.284 102.68L797.014 100.84L797.204 100.29L797.564 99.5605C797.93 98.6405 798.297 97.9038 798.664 97.3504L799.034 96.0704C803.96 98.5771 808.534 99.8305 812.754 99.8305C816.58 99.8305 820.147 98.8205 823.454 96.8005L823.634 96.2505C824.4 95.1771 824.89 94.1371 825.104 93.1305V85.4204C821.157 88.3538 817.057 89.8204 812.804 89.8204C810.91 89.8204 808.954 89.5171 806.934 88.9105C800.167 86.2438 795.88 81.7138 794.074 75.3204C793.554 73.6671 793.164 72.0471 792.904 70.4605C792.644 68.8671 792.514 67.3038 792.514 65.7704C792.514 61.4304 793.587 57.3304 795.734 53.4704C799.187 47.0771 804.204 43.4071 810.784 42.4604H811.474C816.8 42.4604 821.344 43.9904 825.104 47.0504ZM813.444 53.4704H812.624L808.584 54.9405C805.55 58.3405 804.034 62.0605 804.034 66.1005C804.034 66.7738 804.08 67.4604 804.174 68.1604C804.974 75.1071 808.647 78.7171 815.194 78.9904C821.707 78.1638 824.964 74.1705 824.964 67.0105V66.3204C824.964 66.0804 824.95 65.8371 824.924 65.5904C824.737 57.4838 821.004 53.3838 813.724 53.2904C813.604 53.4104 813.51 53.4704 813.444 53.4704Z" fill="white"/>
<path d="M362.75 17.1526H295.75V115.153H362.75V17.1526Z" stroke="white" stroke-width="2" stroke-dasharray="5 5"/>
<path d="M436.25 17.1526H364.75V115.153H436.25V17.1526Z" stroke="white" stroke-width="2" stroke-dasharray="5 5"/>
<path d="M491.75 17.1526H438.25V115.153H491.75V17.1526Z" stroke="white" stroke-width="2" stroke-dasharray="5 5"/>
<path d="M518.75 17.1526H493.75V115.153H518.75V17.1526Z" stroke="white" stroke-width="2" stroke-dasharray="5 5"/>
<path d="M543.75 17.1526H520.75V115.153H543.75V17.1526Z" stroke="white" stroke-width="2" stroke-dasharray="5 5"/>
<path d="M617.75 17.1526H545.75V115.153H617.75V17.1526Z" stroke="white" stroke-width="2" stroke-dasharray="5 5"/>
<path d="M673.75 17.1526H619.75V115.153H673.75V17.1526Z" stroke="white" stroke-width="2" stroke-dasharray="5 5"/>
<path d="M731.25 17.1526H675.75V115.153H731.25V17.1526Z" stroke="white" stroke-width="2" stroke-dasharray="5 5"/>
<path d="M787.25 17.1526H733.25V115.153H787.25V17.1526Z" stroke="white" stroke-width="2" stroke-dasharray="5 5"/>
<path d="M844.25 17.1526H789.25V115.153H844.25V17.1526Z" stroke="white" stroke-width="2" stroke-dasharray="5 5"/>
<path d="M319.457 157.535V148.655H353.207V157.535H319.457ZM341.277 182.405V173.515H385.937V182.405H341.277ZM324.517 201.525V192.415H403.487V201.525H324.517ZM364.907 147.755L373.787 145.275C376.187 151.202 379.471 156.638 383.637 161.585C387.797 166.538 392.727 170.778 398.427 174.305C404.127 177.825 410.464 180.525 417.437 182.405C416.764 183.005 415.977 183.848 415.077 184.935C414.177 186.022 413.354 187.128 412.607 188.255C411.854 189.375 411.214 190.385 410.687 191.285C403.414 188.885 396.854 185.642 391.007 181.555C385.154 177.468 380.051 172.575 375.697 166.875C371.351 161.175 367.754 154.802 364.907 147.755ZM360.407 197.255L370.077 195.905C373.151 202.425 378.251 207.298 385.377 210.525C392.504 213.752 401.767 215.738 413.167 216.485C412.414 217.312 411.627 218.305 410.807 219.465C409.981 220.632 409.211 221.832 408.497 223.065C407.784 224.305 407.204 225.452 406.757 226.505C398.504 225.525 391.377 223.892 385.377 221.605C379.377 219.318 374.351 216.188 370.297 212.215C366.251 208.242 362.954 203.255 360.407 197.255ZM357.477 177.455H368.167C367.867 183.455 367.284 188.815 366.417 193.535C365.557 198.262 364.171 202.425 362.257 206.025C360.344 209.625 357.664 212.738 354.217 215.365C350.764 217.992 346.301 220.242 340.827 222.115C335.354 223.988 328.604 225.488 320.577 226.615C320.204 225.262 319.511 223.685 318.497 221.885C317.484 220.085 316.491 218.625 315.517 217.505C322.864 216.605 329.014 215.442 333.967 214.015C338.914 212.588 342.887 210.825 345.887 208.725C348.887 206.625 351.177 204.132 352.757 201.245C354.331 198.358 355.454 194.945 356.127 191.005C356.801 187.072 357.251 182.555 357.477 177.455ZM350.727 150.115V148.655H352.637L354.327 148.205L360.857 151.125C358.304 158.178 354.757 164.365 350.217 169.685C345.684 175.012 340.511 179.552 334.697 183.305C328.884 187.052 322.791 190.052 316.417 192.305C315.891 191.105 315.064 189.658 313.937 187.965C312.817 186.278 311.767 184.948 310.787 183.975C316.567 182.328 322.117 179.892 327.437 176.665C332.764 173.438 337.491 169.575 341.617 165.075C345.737 160.575 348.774 155.588 350.727 150.115ZM320.917 163.835L327.667 158.555C330.367 160.275 333.141 162.335 335.987 164.735C338.841 167.135 340.981 169.348 342.407 171.375L335.207 177.225C333.854 175.198 331.807 172.928 329.067 170.415C326.334 167.908 323.617 165.715 320.917 163.835ZM392.917 145.165L400.787 150.225C397.787 152.698 394.601 155.118 391.227 157.485C387.854 159.845 384.704 161.888 381.777 163.615L375.477 159.115C377.351 157.842 379.377 156.415 381.557 154.835C383.731 153.262 385.811 151.612 387.797 149.885C389.784 148.165 391.491 146.592 392.917 145.165ZM405.517 156.975L413.617 162.155C410.617 164.555 407.391 166.898 403.937 169.185C400.491 171.472 397.304 173.438 394.377 175.085L387.857 170.365C389.804 169.238 391.847 167.905 393.987 166.365C396.121 164.832 398.201 163.222 400.227 161.535C402.254 159.848 404.017 158.328 405.517 156.975ZM338.807 146.515V122.105H349.157V146.515H338.807ZM377.617 146.515V122.105H387.967V146.515H377.617ZM314.167 138.525V129.185H413.617V138.525" fill="white"/>
<path d="M485.642 135.038V126.038H539.752V135.038H485.642ZM496.332 145.958L501.162 138.868C504.842 139.914 508.726 141.244 512.812 142.858C516.899 144.471 520.836 146.158 524.622 147.918C528.409 149.684 531.539 151.391 534.012 153.038L528.842 161.028C526.516 159.301 523.532 157.521 519.892 155.688C516.259 153.848 512.379 152.064 508.252 150.338C504.126 148.618 500.152 147.158 496.332 145.958ZM484.852 226.388V155.408H543.242V164.738H494.862V226.388H484.852ZM490.812 183.758V174.638H543.462V183.758H490.812ZM490.812 203.558V194.218H543.462V203.558H490.812ZM538.292 215.368V155.408H548.752V215.588C548.752 217.914 548.472 219.808 547.912 221.268C547.346 222.734 546.276 223.881 544.702 224.708C543.129 225.528 541.199 226.031 538.912 226.218C536.626 226.411 533.869 226.508 530.642 226.508C530.489 225.154 530.112 223.541 529.512 221.668C528.912 219.794 528.239 218.258 527.492 217.058C529.519 217.131 531.412 217.168 533.172 217.168C534.932 217.168 536.076 217.131 536.602 217.058C537.729 217.058 538.292 216.494 538.292 215.368ZM511.172 225.828V160.018H521.302V225.828H511.172ZM535.702 127.958V126.038H538.292L540.312 125.478L547.292 130.428C544.892 133.201 542.136 135.958 539.022 138.698C535.909 141.438 532.609 143.988 529.122 146.348C525.636 148.708 522.129 150.788 518.602 152.588C517.929 151.541 516.992 150.361 515.792 149.048C514.592 147.734 513.542 146.664 512.642 145.838C515.569 144.418 518.512 142.694 521.472 140.668C524.432 138.641 527.169 136.521 529.682 134.308C532.196 132.094 534.202 129.978 535.702 127.958ZM454.592 131.218L460.662 123.568C462.916 124.694 465.392 126.008 468.092 127.508C470.792 129.008 473.399 130.468 475.912 131.888C478.426 133.314 480.542 134.591 482.262 135.718L475.852 144.488C474.279 143.214 472.272 141.808 469.832 140.268C467.399 138.734 464.832 137.161 462.132 135.548C459.432 133.934 456.919 132.491 454.592 131.218ZM448.962 161.258L455.152 153.378C457.326 154.431 459.782 155.651 462.522 157.038C465.262 158.424 467.906 159.791 470.452 161.138C473.006 162.491 475.106 163.731 476.752 164.858L470.562 173.628C468.989 172.501 466.946 171.208 464.432 169.748C461.919 168.288 459.312 166.808 456.612 165.308C453.912 163.808 451.362 162.458 448.962 161.258ZM460.662 224.478L451.662 217.958C453.616 215.031 455.756 211.561 458.082 207.548C460.402 203.534 462.762 199.298 465.162 194.838C467.562 190.371 469.776 185.964 471.802 181.618L479.682 188.138C477.802 192.118 475.796 196.224 473.662 200.458C471.522 204.698 469.346 208.881 467.132 213.008C464.919 217.128 462.762 220.951 460.662 224.478Z" fill="white"/>
<path d="M431.25 115H295.75V255.5H431.25V115Z" stroke="white" stroke-width="2" stroke-dasharray="5 5"/>
<path d="M568.75 115H433.25V255.5H568.75V115Z" stroke="white" stroke-width="2" stroke-dasharray="5 5"/>
<path d="M569 272.383H684.212" stroke="#FF0000" stroke-width="3.03189"/>
<path d="M569 257H684.212" stroke="#FF0000" stroke-width="3.03189"/>
<path d="M660 272.383V247.383" stroke="#FF0000" stroke-width="3.03189"/>
<path d="M659.096 272.383L650 308.766H668.191L659.096 272.383Z" fill="#FF0000"/>
<path d="M659.096 257.383L650 221H668.191L659.096 257.383Z" fill="#FF0000"/>
<path d="M703.041 242.62V269.08H699.837V245.979H699.682L693.222 250.269V247.013L699.837 242.62H703.041ZM711.362 269.287C710.725 269.287 710.178 269.059 709.721 268.602C709.265 268.146 709.036 267.599 709.036 266.962C709.036 266.324 709.265 265.777 709.721 265.321C710.178 264.864 710.725 264.636 711.362 264.636C711.999 264.636 712.546 264.864 713.003 265.321C713.459 265.777 713.688 266.324 713.688 266.962C713.688 267.384 713.58 267.771 713.365 268.124C713.158 268.478 712.878 268.762 712.525 268.977C712.18 269.184 711.793 269.287 711.362 269.287ZM726.843 269.442C725.327 269.442 723.962 269.141 722.748 268.538C721.533 267.935 720.56 267.108 719.828 266.057C719.096 265.006 718.695 263.809 718.626 262.465H721.727C721.848 263.663 722.39 264.653 723.355 265.437C724.328 266.212 725.491 266.6 726.843 266.6C727.929 266.6 728.893 266.346 729.737 265.838C730.59 265.329 731.258 264.632 731.74 263.744C732.231 262.849 732.476 261.837 732.476 260.708C732.476 259.554 732.222 258.525 731.714 257.62C731.215 256.707 730.526 255.988 729.647 255.463C728.768 254.937 727.765 254.67 726.637 254.662C725.827 254.653 724.996 254.778 724.143 255.036C723.29 255.286 722.588 255.609 722.037 256.005L719.04 255.644L720.642 242.62H734.389V245.463H723.329L722.399 253.266H722.554C723.097 252.836 723.777 252.478 724.595 252.194C725.414 251.91 726.266 251.768 727.153 251.768C728.773 251.768 730.215 252.155 731.482 252.93C732.756 253.697 733.756 254.748 734.479 256.083C735.211 257.418 735.577 258.943 735.577 260.657C735.577 262.345 735.198 263.852 734.44 265.179C733.691 266.496 732.657 267.539 731.34 268.305C730.022 269.063 728.523 269.442 726.843 269.442ZM754.818 253.68L752.079 254.455C751.907 253.998 751.653 253.555 751.317 253.124C750.99 252.685 750.542 252.323 749.973 252.039C749.405 251.755 748.677 251.613 747.79 251.613C746.575 251.613 745.563 251.893 744.754 252.452C743.953 253.004 743.552 253.706 743.552 254.558C743.552 255.316 743.828 255.915 744.379 256.354C744.93 256.794 745.792 257.16 746.963 257.452L749.909 258.176C751.683 258.607 753.005 259.266 753.875 260.153C754.745 261.031 755.18 262.164 755.18 263.551C755.18 264.688 754.853 265.704 754.198 266.6C753.552 267.496 752.648 268.202 751.485 268.719C750.322 269.235 748.97 269.494 747.428 269.494C745.404 269.494 743.729 269.055 742.402 268.176C741.076 267.297 740.236 266.014 739.883 264.326L742.777 263.602C743.053 264.67 743.574 265.471 744.34 266.005C745.115 266.54 746.128 266.807 747.376 266.807C748.798 266.807 749.926 266.505 750.762 265.902C751.606 265.291 752.028 264.558 752.028 263.706C752.028 263.017 751.787 262.44 751.304 261.974C750.822 261.501 750.081 261.148 749.082 260.915L745.774 260.14C743.957 259.709 742.622 259.042 741.769 258.137C740.925 257.224 740.503 256.083 740.503 254.713C740.503 253.594 740.817 252.603 741.446 251.742C742.084 250.88 742.949 250.204 744.043 249.713C745.146 249.222 746.395 248.977 747.79 248.977C749.754 248.977 751.296 249.408 752.415 250.269C753.544 251.13 754.345 252.267 754.818 253.68ZM764.266 269.08L758.22 249.235H761.424L765.713 264.429H765.92L770.158 249.235H773.414L777.6 264.378H777.806L782.096 249.235H785.3L779.253 269.08H776.256L771.915 253.835H771.605L767.264 269.08H764.266Z" fill="#FF0000"/>
<path d="M342 286.383H457.212" stroke="#FF0000" stroke-width="3.03189"/>
<path d="M342 273H457.212" stroke="#FF0000" stroke-width="3.03189"/>
<path d="M433 286.383V261.383" stroke="#FF0000" stroke-width="3.03189"/>
<path d="M432.096 286.383L423 322.766H441.191L432.096 286.383Z" fill="#FF0000"/>
<path d="M432.096 273.383L423 237H441.191L432.096 273.383Z" fill="#FF0000"/>
<path d="M476.041 286.54V313H472.837V289.899H472.682L466.222 294.188V290.933L472.837 286.54H476.041ZM497.76 297.599L495.021 298.374C494.849 297.918 494.595 297.474 494.259 297.044C493.931 296.604 493.483 296.243 492.915 295.958C492.347 295.674 491.619 295.532 490.732 295.532C489.517 295.532 488.505 295.812 487.695 296.372C486.894 296.923 486.494 297.625 486.494 298.478C486.494 299.236 486.769 299.834 487.321 300.274C487.872 300.713 488.733 301.079 489.905 301.372L492.85 302.095C494.625 302.526 495.947 303.185 496.817 304.072C497.687 304.951 498.122 306.083 498.122 307.47C498.122 308.607 497.794 309.623 497.14 310.519C496.494 311.415 495.589 312.121 494.427 312.638C493.264 313.155 491.912 313.413 490.37 313.413C488.346 313.413 486.67 312.974 485.344 312.095C484.017 311.217 483.178 309.934 482.824 308.245L485.719 307.522C485.994 308.59 486.515 309.391 487.282 309.925C488.057 310.459 489.069 310.726 490.318 310.726C491.739 310.726 492.868 310.424 493.703 309.822C494.547 309.21 494.969 308.478 494.969 307.625C494.969 306.936 494.728 306.359 494.246 305.894C493.763 305.42 493.023 305.067 492.024 304.834L488.716 304.059C486.899 303.629 485.564 302.961 484.711 302.057C483.867 301.144 483.445 300.002 483.445 298.633C483.445 297.513 483.759 296.523 484.388 295.661C485.025 294.8 485.891 294.124 486.985 293.633C488.087 293.142 489.336 292.896 490.732 292.896C492.695 292.896 494.237 293.327 495.357 294.188C496.485 295.05 497.286 296.187 497.76 297.599ZM507.208 313L501.161 293.155H504.365L508.655 308.349H508.862L513.099 293.155H516.355L520.541 308.297H520.748L525.037 293.155H528.242L522.195 313H519.198L514.856 297.754H514.546L510.205 313H507.208Z" fill="#FF0000"/>
<path d="M292 317.383H176.788" stroke="#FF0000" stroke-width="3.03189"/>
<path d="M292 286H176.788" stroke="#FF0000" stroke-width="3.03189"/>
<path d="M201 319V286" stroke="#FF0000" stroke-width="3.03189"/>
<path d="M201.904 317.383L211 353.766H192.809L201.904 317.383Z" fill="#FF0000"/>
<path d="M201.904 286.383L211 250H192.809L201.904 286.383Z" fill="#FF0000"/>
<path d="M76.7391 314.08V311.755L85.473 302.194C86.498 301.074 87.3421 300.101 88.0053 299.274C88.6686 298.439 89.1595 297.655 89.4782 296.923C89.8055 296.182 89.9692 295.407 89.9692 294.597C89.9692 293.667 89.7452 292.861 89.2973 292.181C88.8581 291.501 88.2551 290.975 87.4885 290.605C86.722 290.234 85.8606 290.049 84.9045 290.049C83.8882 290.049 83.001 290.26 82.243 290.682C81.4937 291.096 80.9123 291.677 80.4988 292.426C80.094 293.176 79.8916 294.054 79.8916 295.062H76.8425C76.8425 293.512 77.1999 292.151 77.9148 290.979C78.6297 289.808 79.603 288.895 80.8347 288.24C82.0751 287.586 83.4661 287.258 85.0079 287.258C86.5583 287.258 87.9321 287.586 89.1294 288.24C90.3266 288.895 91.2655 289.778 91.9459 290.889C92.6264 292 92.9666 293.236 92.9666 294.597C92.9666 295.57 92.7901 296.522 92.4369 297.452C92.0924 298.374 91.4894 299.403 90.6281 300.54C89.7754 301.669 88.5911 303.047 87.0751 304.675L81.1319 311.031V311.238H93.4318V314.08H76.7391ZM101.042 314.287C100.404 314.287 99.8573 314.059 99.4008 313.602C98.9443 313.146 98.716 312.599 98.716 311.962C98.716 311.324 98.9443 310.777 99.4008 310.321C99.8573 309.864 100.404 309.636 101.042 309.636C101.679 309.636 102.226 309.864 102.682 310.321C103.139 310.777 103.367 311.324 103.367 311.962C103.367 312.384 103.26 312.771 103.044 313.124C102.838 313.477 102.558 313.762 102.204 313.977C101.86 314.184 101.472 314.287 101.042 314.287ZM116.523 314.442C115.007 314.442 113.642 314.141 112.427 313.538C111.213 312.935 110.24 312.108 109.507 311.057C108.775 310.006 108.375 308.809 108.306 307.465H111.407C111.527 308.663 112.07 309.653 113.035 310.437C114.008 311.212 115.171 311.6 116.523 311.6C117.608 311.6 118.573 311.346 119.417 310.837C120.27 310.329 120.937 309.632 121.42 308.744C121.911 307.849 122.156 306.837 122.156 305.708C122.156 304.554 121.902 303.525 121.394 302.62C120.894 301.707 120.205 300.988 119.327 300.463C118.448 299.937 117.445 299.67 116.316 299.662C115.507 299.653 114.675 299.778 113.823 300.036C112.97 300.286 112.268 300.609 111.717 301.005L108.719 300.644L110.321 287.62H124.068V290.463H113.009L112.079 298.266H112.234C112.776 297.836 113.457 297.478 114.275 297.194C115.093 296.91 115.946 296.768 116.833 296.768C118.452 296.768 119.895 297.155 121.161 297.93C122.436 298.697 123.435 299.748 124.159 301.083C124.891 302.418 125.257 303.942 125.257 305.657C125.257 307.345 124.878 308.852 124.12 310.179C123.371 311.496 122.337 312.539 121.019 313.305C119.701 314.063 118.203 314.442 116.523 314.442ZM144.498 298.68L141.759 299.455C141.587 298.998 141.333 298.555 140.997 298.124C140.669 297.685 140.222 297.323 139.653 297.039C139.085 296.755 138.357 296.613 137.47 296.613C136.255 296.613 135.243 296.892 134.433 297.452C133.632 298.004 133.232 298.706 133.232 299.558C133.232 300.316 133.507 300.915 134.059 301.354C134.61 301.793 135.471 302.16 136.643 302.452L139.588 303.176C141.363 303.607 142.685 304.265 143.555 305.153C144.425 306.031 144.86 307.164 144.86 308.551C144.86 309.688 144.533 310.704 143.878 311.6C143.232 312.496 142.328 313.202 141.165 313.719C140.002 314.235 138.65 314.494 137.108 314.494C135.084 314.494 133.408 314.055 132.082 313.176C130.755 312.297 129.916 311.014 129.563 309.326L132.457 308.602C132.732 309.67 133.253 310.471 134.02 311.005C134.795 311.539 135.807 311.806 137.056 311.806C138.477 311.806 139.606 311.505 140.441 310.902C141.285 310.291 141.707 309.558 141.707 308.706C141.707 308.017 141.466 307.44 140.984 306.974C140.501 306.501 139.761 306.147 138.762 305.915L135.454 305.14C133.637 304.709 132.302 304.042 131.449 303.137C130.605 302.224 130.183 301.083 130.183 299.713C130.183 298.594 130.497 297.603 131.126 296.742C131.763 295.88 132.629 295.204 133.723 294.713C134.825 294.222 136.074 293.977 137.47 293.977C139.433 293.977 140.975 294.408 142.095 295.269C143.223 296.13 144.024 297.267 144.498 298.68ZM153.946 314.08L147.899 294.235H151.103L155.393 309.429H155.6L159.837 294.235H163.093L167.279 309.378H167.486L171.775 294.235H174.98L168.933 314.08H165.936L161.594 298.835H161.284L156.943 314.08H153.946Z" fill="#FF0000"/>
<path d="M848.409 237.5L867.159 269.976" stroke="#04E3E3" stroke-width="3.03189"/>
<path d="M848.408 231.936C851.481 231.936 853.973 234.427 853.973 237.5C853.973 240.572 851.481 243.064 848.408 243.064C845.336 243.064 842.845 240.572 842.845 237.5C842.845 234.427 845.336 231.936 848.408 231.936Z" fill="#04E3E3" stroke="#04E3E3"/>
<path d="M867.159 269.976V251.784L851.404 260.88L867.159 269.976Z" fill="#04E3E3"/>
<path d="M742.86 220V193.956H754.407C756.729 193.956 758.493 194.193 759.701 194.667C760.909 195.129 761.875 195.952 762.597 197.136C763.32 198.321 763.681 199.629 763.681 201.062C763.681 202.91 763.083 204.467 761.886 205.735C760.69 207.002 758.843 207.807 756.344 208.151C757.256 208.589 757.949 209.021 758.422 209.448C759.429 210.371 760.382 211.526 761.282 212.912L765.813 220H761.478L758.031 214.582C757.025 213.018 756.196 211.822 755.544 210.993C754.893 210.164 754.307 209.584 753.786 209.252C753.276 208.92 752.755 208.69 752.222 208.559C751.831 208.476 751.192 208.435 750.304 208.435H746.307V220H742.86ZM746.307 205.45H753.715C755.29 205.45 756.521 205.291 757.41 204.971C758.298 204.639 758.973 204.118 759.435 203.407C759.897 202.685 760.128 201.903 760.128 201.062C760.128 199.831 759.678 198.818 758.778 198.025C757.889 197.231 756.48 196.834 754.55 196.834H746.307V205.45ZM779.847 220H776.649V199.623C775.879 200.358 774.867 201.092 773.611 201.826C772.368 202.561 771.249 203.111 770.254 203.478V200.387C772.042 199.546 773.605 198.528 774.944 197.332C776.282 196.136 777.23 194.975 777.786 193.85H779.847V220ZM789.849 220V216.358H793.49V220H789.849ZM798.18 213.178L801.538 212.894C801.787 214.528 802.361 215.76 803.261 216.589C804.173 217.406 805.269 217.815 806.548 217.815C808.087 217.815 809.39 217.235 810.456 216.074C811.522 214.913 812.055 213.374 812.055 211.455C812.055 209.631 811.54 208.192 810.509 207.138C809.491 206.084 808.152 205.557 806.494 205.557C805.464 205.557 804.534 205.794 803.705 206.268C802.876 206.729 802.225 207.333 801.751 208.08L798.749 207.689L801.271 194.312H814.222V197.367H803.83L802.426 204.367C803.99 203.277 805.63 202.732 807.347 202.732C809.621 202.732 811.54 203.52 813.103 205.095C814.666 206.67 815.448 208.695 815.448 211.171C815.448 213.528 814.761 215.565 813.387 217.282C811.717 219.39 809.437 220.444 806.548 220.444C804.179 220.444 802.243 219.781 800.739 218.454C799.246 217.128 798.394 215.369 798.18 213.178ZM818.042 214.368L821.204 213.871C821.381 215.138 821.873 216.109 822.678 216.784C823.496 217.46 824.632 217.797 826.089 217.797C827.558 217.797 828.647 217.501 829.358 216.909C830.069 216.305 830.424 215.6 830.424 214.795C830.424 214.072 830.11 213.504 829.482 213.089C829.044 212.805 827.955 212.444 826.214 212.006C823.869 211.414 822.24 210.904 821.328 210.478C820.428 210.04 819.741 209.442 819.267 208.684C818.806 207.914 818.575 207.067 818.575 206.143C818.575 205.302 818.764 204.527 819.143 203.816C819.534 203.094 820.061 202.495 820.724 202.022C821.222 201.655 821.897 201.347 822.749 201.098C823.614 200.837 824.538 200.707 825.521 200.707C827.001 200.707 828.298 200.92 829.411 201.347C830.536 201.773 831.365 202.353 831.898 203.088C832.431 203.81 832.798 204.781 833 206.001L829.873 206.427C829.731 205.456 829.317 204.698 828.63 204.154C827.955 203.609 826.995 203.336 825.752 203.336C824.283 203.336 823.235 203.579 822.607 204.065C821.98 204.55 821.666 205.119 821.666 205.77C821.666 206.185 821.796 206.558 822.057 206.889C822.317 207.233 822.726 207.517 823.282 207.742C823.602 207.861 824.544 208.133 826.107 208.559C828.369 209.163 829.944 209.661 830.832 210.052C831.733 210.431 832.437 210.987 832.946 211.721C833.456 212.456 833.71 213.368 833.71 214.457C833.71 215.523 833.397 216.53 832.769 217.477C832.153 218.413 831.259 219.141 830.086 219.662C828.914 220.172 827.587 220.426 826.107 220.426C823.655 220.426 821.784 219.917 820.493 218.899C819.214 217.88 818.397 216.37 818.042 214.368ZM840.994 220L835.22 201.134H838.525L841.527 212.023L842.646 216.074C842.694 215.873 843.019 214.576 843.623 212.183L846.626 201.134H849.912L852.737 212.077L853.678 215.683L854.762 212.041L857.995 201.134H861.104L855.206 220H851.884L848.882 208.701L848.153 205.486L844.334 220H840.994Z" fill="#04E3E3"/>
</g>
<defs>
<clipPath id="clip0_0_1">
<rect width="915" height="600" fill="white"/>
</clipPath>
</defs>
</svg>
