<svg width="1500" height="525" viewBox="0 0 1500 525" fill="none" xmlns="http://www.w3.org/2000/svg">
<path d="M1270.5 36.3827C1290.76 55.2972 1302.25 81.7692 1302.25 109.483V198.883L1489.29 307.763C1493.14 310.003 1495.5 314.121 1495.5 318.573V344.463C1495.5 348.429 1493.61 352.159 1490.42 354.515C1487.23 356.87 1483.11 357.57 1479.32 356.403L1333 311.383H1301.75V323.883L1289.25 423.883L1361.68 446.163C1366.92 447.778 1370.5 452.625 1370.5 458.113V473.883C1370.5 480.786 1364.9 486.383 1358 486.383H1183C1176.1 486.383 1170.5 480.786 1170.5 473.883V458.113C1170.5 452.625 1174.08 447.778 1179.32 446.163L1251.75 423.883L1239.25 323.883V311.383H1208L1061.68 356.403C1057.89 357.57 1053.77 356.87 1050.58 354.515C1047.39 352.159 1045.5 348.429 1045.5 344.463V318.573C1045.5 314.121 1047.86 310.003 1051.71 307.763L1238.75 198.883V109.483C1238.75 81.7692 1250.24 55.2972 1270.5 36.3827Z" fill="white"/>
<path d="M1045.5 36.3828V151.595" stroke="#008000" stroke-width="3.03189"/>
<path d="M995.5 36.3828V151.595" stroke="#008000" stroke-width="3.03189"/>
<path d="M1045.5 127.34H995.5" stroke="#008000" stroke-width="3.03189"/>
<path d="M1045.5 127.34L1081.88 118.244V136.435L1045.5 127.34Z" fill="#008000"/>
<path d="M995.5 127.34L959.117 118.244V136.435L995.5 127.34Z" fill="#008000"/>
<path d="M981.081 173.428V176.271H969.505V173.428H981.081ZM985.151 188.08V185.754L993.885 176.193C994.91 175.073 995.754 174.1 996.417 173.273C997.08 172.438 997.571 171.654 997.89 170.922C998.217 170.181 998.381 169.406 998.381 168.596C998.381 167.666 998.157 166.861 997.709 166.18C997.27 165.5 996.667 164.974 995.9 164.604C995.134 164.234 994.272 164.048 993.316 164.048C992.3 164.048 991.413 164.259 990.655 164.681C989.905 165.095 989.324 165.676 988.911 166.426C988.506 167.175 988.303 168.054 988.303 169.061H985.254C985.254 167.511 985.612 166.15 986.327 164.979C987.041 163.807 988.015 162.894 989.246 162.24C990.487 161.585 991.878 161.258 993.42 161.258C994.97 161.258 996.344 161.585 997.541 162.24C998.738 162.894 999.677 163.777 1000.36 164.888C1001.04 165.999 1001.38 167.235 1001.38 168.596C1001.38 169.57 1001.2 170.521 1000.85 171.452C1000.5 172.373 999.901 173.402 999.04 174.539C998.187 175.668 997.003 177.046 995.487 178.674L989.544 185.03V185.237H1001.84V188.08H985.151ZM1009.45 188.286C1008.82 188.286 1008.27 188.058 1007.81 187.602C1007.36 187.145 1007.13 186.598 1007.13 185.961C1007.13 185.323 1007.36 184.776 1007.81 184.32C1008.27 183.863 1008.82 183.635 1009.45 183.635C1010.09 183.635 1010.64 183.863 1011.09 184.32C1011.55 184.776 1011.78 185.323 1011.78 185.961C1011.78 186.383 1011.67 186.77 1011.46 187.124C1011.25 187.477 1010.97 187.761 1010.62 187.976C1010.27 188.183 1009.88 188.286 1009.45 188.286ZM1024.91 188.441C1022.96 188.441 1021.3 187.912 1019.93 186.852C1018.56 185.784 1017.52 184.238 1016.79 182.214C1016.07 180.181 1015.71 177.726 1015.71 174.85C1015.71 171.99 1016.07 169.548 1016.79 167.524C1017.52 165.491 1018.57 163.941 1019.94 162.873C1021.32 161.796 1022.98 161.258 1024.91 161.258C1026.84 161.258 1028.48 161.796 1029.85 162.873C1031.23 163.941 1032.28 165.491 1033.01 167.524C1033.74 169.548 1034.1 171.99 1034.1 174.85C1034.1 177.726 1033.74 180.181 1033.02 182.214C1032.3 184.238 1031.25 185.784 1029.88 186.852C1028.51 187.912 1026.85 188.441 1024.91 188.441ZM1024.91 185.599C1026.84 185.599 1028.33 184.669 1029.4 182.808C1030.47 180.948 1031 178.295 1031 174.85C1031 172.558 1030.76 170.607 1030.27 168.997C1029.79 167.386 1029.09 166.159 1028.17 165.315C1027.27 164.47 1026.18 164.048 1024.91 164.048C1022.99 164.048 1021.5 164.992 1020.42 166.878C1019.35 168.756 1018.81 171.413 1018.81 174.85C1018.81 177.141 1019.05 179.087 1019.53 180.689C1020.01 182.291 1020.71 183.51 1021.61 184.346C1022.52 185.181 1023.62 185.599 1024.91 185.599ZM1053.12 172.679L1050.38 173.454C1050.21 172.998 1049.96 172.554 1049.62 172.123C1049.29 171.684 1048.85 171.322 1048.28 171.038C1047.71 170.754 1046.98 170.612 1046.09 170.612C1044.88 170.612 1043.87 170.892 1043.06 171.452C1042.26 172.003 1041.86 172.705 1041.86 173.558C1041.86 174.315 1042.13 174.914 1042.68 175.353C1043.23 175.793 1044.1 176.159 1045.27 176.452L1048.21 177.175C1049.99 177.606 1051.31 178.265 1052.18 179.152C1053.05 180.03 1053.48 181.163 1053.48 182.55C1053.48 183.687 1053.16 184.703 1052.5 185.599C1051.86 186.495 1050.95 187.201 1049.79 187.718C1048.63 188.235 1047.27 188.493 1045.73 188.493C1043.71 188.493 1042.03 188.054 1040.71 187.175C1039.38 186.297 1038.54 185.013 1038.19 183.325L1041.08 182.602C1041.36 183.67 1041.88 184.471 1042.64 185.005C1043.42 185.539 1044.43 185.806 1045.68 185.806C1047.1 185.806 1048.23 185.504 1049.07 184.901C1049.91 184.29 1050.33 183.558 1050.33 182.705C1050.33 182.016 1050.09 181.439 1049.61 180.974C1049.13 180.5 1048.39 180.147 1047.39 179.914L1044.08 179.139C1042.26 178.708 1040.93 178.041 1040.07 177.136C1039.23 176.223 1038.81 175.082 1038.81 173.713C1038.81 172.593 1039.12 171.602 1039.75 170.741C1040.39 169.88 1041.25 169.203 1042.35 168.713C1043.45 168.222 1044.7 167.976 1046.09 167.976C1048.06 167.976 1049.6 168.407 1050.72 169.268C1051.85 170.129 1052.65 171.266 1053.12 172.679ZM1062.57 188.08L1056.52 168.234H1059.73L1064.02 183.428H1064.22L1068.46 168.234H1071.72L1075.9 183.377H1076.11L1080.4 168.234H1083.6L1077.56 188.08H1074.56L1070.22 172.834H1069.91L1065.57 188.08H1062.57Z" fill="#008000"/>
<path d="M1045.5 36.3828H1160.71" stroke="#FF0000" stroke-width="3.03189"/>
<path d="M995.5 36.3828H1160.71" stroke="#FF0000" stroke-width="3.03189"/>
<path d="M1136.46 36.3828L1127.36 72.7656H1145.55L1136.46 36.3828Z" fill="#FF0000"/>
<path d="M1136.46 36.3828L1127.36 0H1145.55L1136.46 36.3828Z" fill="#FF0000"/>
<path d="M1187.99 30.9292V33.7716H1176.42V30.9292H1187.99ZM1201.94 45.9422C1199.99 45.9422 1198.33 45.4125 1196.96 44.353C1195.59 43.285 1194.55 41.7389 1193.82 39.7148C1193.1 37.682 1192.74 35.2272 1192.74 32.3504C1192.74 29.4907 1193.1 27.0488 1193.82 25.0247C1194.56 22.992 1195.61 21.4416 1196.98 20.3735C1198.36 19.2968 1200.01 18.7585 1201.94 18.7585C1203.87 18.7585 1205.52 19.2968 1206.89 20.3735C1208.26 21.4416 1209.32 22.992 1210.04 25.0247C1210.77 27.0488 1211.14 29.4907 1211.14 32.3504C1211.14 35.2272 1210.78 37.682 1210.05 39.7148C1209.33 41.7389 1208.28 43.285 1206.91 44.353C1205.54 45.4125 1203.89 45.9422 1201.94 45.9422ZM1201.94 43.0998C1203.87 43.0998 1205.37 42.1696 1206.43 40.3091C1207.5 38.4486 1208.04 35.7957 1208.04 32.3504C1208.04 30.0592 1207.79 28.1083 1207.3 26.4976C1206.82 24.8869 1206.12 23.6595 1205.21 22.8154C1204.3 21.9713 1203.21 21.5492 1201.94 21.5492C1200.03 21.5492 1198.53 22.4924 1197.46 24.3787C1196.38 26.2564 1195.84 28.9136 1195.84 32.3504C1195.84 34.6415 1196.08 36.5881 1196.56 38.1902C1197.05 39.7923 1197.74 41.0111 1198.64 41.8466C1199.56 42.6821 1200.66 43.0998 1201.94 43.0998ZM1217.4 45.7872C1216.76 45.7872 1216.21 45.5589 1215.76 45.1024C1215.3 44.6459 1215.07 44.099 1215.07 43.4616C1215.07 42.8242 1215.3 42.2772 1215.76 41.8207C1216.21 41.3642 1216.76 41.136 1217.4 41.136C1218.03 41.136 1218.58 41.3642 1219.04 41.8207C1219.49 42.2772 1219.72 42.8242 1219.72 43.4616C1219.72 43.8836 1219.62 44.2712 1219.4 44.6244C1219.19 44.9775 1218.91 45.2618 1218.56 45.4771C1218.22 45.6838 1217.83 45.7872 1217.4 45.7872ZM1232.85 45.9422C1230.9 45.9422 1229.24 45.4125 1227.88 44.353C1226.51 43.285 1225.46 41.7389 1224.74 39.7148C1224.01 37.682 1223.65 35.2272 1223.65 32.3504C1223.65 29.4907 1224.01 27.0488 1224.74 25.0247C1225.47 22.992 1226.52 21.4416 1227.89 20.3735C1229.27 19.2968 1230.92 18.7585 1232.85 18.7585C1234.78 18.7585 1236.43 19.2968 1237.8 20.3735C1239.18 21.4416 1240.23 22.992 1240.95 25.0247C1241.68 27.0488 1242.05 29.4907 1242.05 32.3504C1242.05 35.2272 1241.69 37.682 1240.96 39.7148C1240.24 41.7389 1239.19 43.285 1237.82 44.353C1236.45 45.4125 1234.8 45.9422 1232.85 45.9422ZM1232.85 43.0998C1234.78 43.0998 1236.28 42.1696 1237.35 40.3091C1238.41 38.4486 1238.95 35.7957 1238.95 32.3504C1238.95 30.0592 1238.7 28.1083 1238.21 26.4976C1237.73 24.8869 1237.03 23.6595 1236.12 22.8154C1235.21 21.9713 1234.12 21.5492 1232.85 21.5492C1230.94 21.5492 1229.44 22.4924 1228.37 24.3787C1227.29 26.2564 1226.75 28.9136 1226.75 32.3504C1226.75 34.6415 1226.99 36.5881 1227.47 38.1902C1227.96 39.7923 1228.65 41.0111 1229.55 41.8466C1230.47 42.6821 1231.57 43.0998 1232.85 43.0998ZM1261.07 30.1798L1258.33 30.955C1258.16 30.4985 1257.9 30.0549 1257.57 29.6242C1257.24 29.185 1256.79 28.8232 1256.22 28.539C1255.65 28.2547 1254.93 28.1126 1254.04 28.1126C1252.82 28.1126 1251.81 28.3925 1251 28.9524C1250.2 29.5036 1249.8 30.2056 1249.8 31.0584C1249.8 31.8163 1250.08 32.415 1250.63 32.8542C1251.18 33.2935 1252.04 33.6596 1253.21 33.9524L1256.16 34.676C1257.93 35.1066 1259.25 35.7655 1260.12 36.6527C1260.99 37.5313 1261.43 38.6639 1261.43 40.0507C1261.43 41.1876 1261.1 42.204 1260.45 43.0998C1259.8 43.9956 1258.9 44.7019 1257.73 45.2187C1256.57 45.7355 1255.22 45.9939 1253.68 45.9939C1251.65 45.9939 1249.98 45.5546 1248.65 44.676C1247.32 43.7975 1246.48 42.5141 1246.13 40.8259L1249.03 40.1024C1249.3 41.1704 1249.82 41.9715 1250.59 42.5055C1251.36 43.0395 1252.38 43.3065 1253.62 43.3065C1255.05 43.3065 1256.17 43.0051 1257.01 42.4021C1257.85 41.7906 1258.28 41.0584 1258.28 40.2057C1258.28 39.5167 1258.03 38.9396 1257.55 38.4744C1257.07 38.0007 1256.33 37.6476 1255.33 37.415L1252.02 36.6398C1250.21 36.2091 1248.87 35.5416 1248.02 34.6372C1247.17 33.7242 1246.75 32.5829 1246.75 31.2134C1246.75 30.0937 1247.07 29.1031 1247.69 28.2418C1248.33 27.3805 1249.2 26.7043 1250.29 26.2134C1251.39 25.7224 1252.64 25.4769 1254.04 25.4769C1256 25.4769 1257.54 25.9076 1258.66 26.7689C1259.79 27.6302 1260.59 28.7672 1261.07 30.1798ZM1270.51 45.5804L1264.47 25.7353H1267.67L1271.96 40.9292H1272.17L1276.41 25.7353H1279.66L1283.85 40.8776H1284.05L1288.34 25.7353H1291.55L1285.5 45.5804H1282.5L1278.16 30.3348H1277.85L1273.51 45.5804H1270.51Z" fill="#FF0000"/>
<rect x="1046.5" y="38.38" width="448" height="448" stroke="white" stroke-width="2" stroke-dasharray="10 10"/>
<path d="M91.325 380.443V362.213H197.305V380.443H91.325ZM77.605 416.663V398.893H212.145V416.663H77.605ZM46.775 454.463V436.013H242.525V454.463H46.775ZM74.445 330.263V313.163H152.755V330.263H74.445ZM134.525 324.643V313.163H157.705C162.498 319.316 168.308 325.279 175.135 331.053C181.962 336.826 189.502 342.189 197.755 347.143C206.002 352.089 214.625 356.513 223.625 360.413C232.625 364.313 241.702 367.613 250.855 370.313C249.202 371.513 247.325 373.089 245.225 375.043C243.125 376.989 241.098 379.013 239.145 381.113C237.198 383.213 235.625 385.163 234.425 386.963C222.425 382.616 210.575 377.216 198.875 370.763C187.175 364.316 176.338 357.156 166.365 349.283C156.392 341.403 147.802 333.189 140.595 324.643H134.525ZM129.575 315.413L148.925 322.843C141.578 332.743 132.655 341.893 122.155 350.293C111.655 358.693 100.442 366.116 88.515 372.563C76.5883 379.016 64.5517 384.643 52.405 389.443C51.3517 387.943 49.925 386.143 48.125 384.043C46.325 381.943 44.4517 379.879 42.505 377.853C40.5517 375.826 38.825 374.213 37.325 373.013C49.625 369.266 61.625 364.543 73.325 358.843C85.025 353.143 95.7117 346.616 105.385 339.263C115.065 331.916 123.128 323.966 129.575 315.413ZM133.175 448.843V370.543H155.005V448.843H133.175ZM45.205 289.993V270.413H244.105V289.993H45.205ZM93.125 308.663V253.313H114.275V308.663H93.125ZM173.675 309.793V253.313H194.825V309.793" fill="white"/>
<path d="M417.845 268.838V257.808H457.215V268.838H417.845ZM416.495 305.508V294.708H458.795V305.508H416.495ZM416.495 322.388V311.808H458.795V322.388H416.495ZM383.645 429.038V415.308H497.715V429.038H383.645ZM409.975 287.738V275.808H463.965V287.738H409.975ZM445.295 340.158H429.325V352.988H445.295V340.158ZM416.045 363.338V329.808H459.025V363.338H416.045ZM387.475 405.858V393.038H480.845V383.358H373.525V370.538H500.645V405.858H387.475ZM379.825 366.488V315.408H393.995V366.488H379.825ZM359.345 323.288L357.765 309.558C364.372 309.258 371.762 308.958 379.935 308.658C388.108 308.358 396.768 307.984 405.915 307.538V319.908C397.522 320.661 389.385 321.261 381.505 321.708C373.632 322.161 366.245 322.688 359.345 323.288ZM381.395 393.038H401.195C399.395 400.238 397.445 407.738 395.345 415.538C393.245 423.338 391.295 430.088 389.495 435.788L370.375 433.088C372.475 427.534 374.498 421.121 376.445 413.848C378.398 406.574 380.048 399.638 381.395 393.038ZM490.965 417.558V415.308H510.995C510.995 415.308 510.922 416.321 510.775 418.348C510.622 420.374 510.322 422.061 509.875 423.408C507.768 432.708 505.592 440.021 503.345 445.348C501.092 450.674 498.465 454.538 495.465 456.938C492.918 458.738 490.182 459.974 487.255 460.648C484.335 461.321 480.848 461.734 476.795 461.888C473.348 462.034 468.435 462.071 462.055 461.998C455.682 461.924 448.895 461.738 441.695 461.438C441.542 459.038 440.942 456.338 439.895 453.338C438.848 450.338 437.575 447.638 436.075 445.238C443.122 445.984 449.945 446.434 456.545 446.588C463.145 446.734 467.795 446.808 470.495 446.808C472.895 446.808 474.845 446.734 476.345 446.588C477.845 446.434 479.122 445.984 480.175 445.238C482.275 443.584 484.185 440.621 485.905 436.348C487.632 432.074 489.318 425.811 490.965 417.558ZM396.695 331.388L407.495 328.908C408.695 332.661 409.858 336.788 410.985 341.288C412.105 345.788 412.968 349.688 413.575 352.988L401.875 356.138C401.568 352.684 400.928 348.671 399.955 344.098C398.982 339.524 397.895 335.288 396.695 331.388ZM396.025 300.788L405.695 297.188C407.648 300.934 409.448 305.134 411.095 309.788C412.748 314.434 413.875 318.484 414.475 321.938L403.895 325.988C403.448 322.534 402.475 318.484 400.975 313.838C399.475 309.184 397.825 304.834 396.025 300.788ZM360.015 283.008L367.225 272.208C371.572 275.061 375.845 278.324 380.045 281.998C384.245 285.671 387.395 288.858 389.495 291.558L381.395 303.938C379.148 300.784 375.998 297.258 371.945 293.358C367.898 289.458 363.922 286.008 360.015 283.008ZM381.395 252.638L394.225 258.938C391.225 263.884 388.225 268.908 385.225 274.008C382.225 279.108 379.372 283.384 376.665 286.838L366.765 281.658C369.172 277.758 371.798 272.998 374.645 267.378C377.492 261.751 379.742 256.838 381.395 252.638ZM395.795 271.308L408.395 278.508C403.448 285.261 398.162 292.388 392.535 299.888C386.908 307.388 381.618 313.688 376.665 318.788L367.225 312.938C370.372 309.184 373.745 304.908 377.345 300.108C380.945 295.308 384.358 290.358 387.585 285.258C390.805 280.158 393.542 275.508 395.795 271.308ZM364.975 328.008L378.245 330.938C376.898 336.784 375.248 342.634 373.295 348.488C371.348 354.334 369.248 359.358 366.995 363.558C365.648 362.658 363.698 361.648 361.145 360.528C358.598 359.401 356.498 358.461 354.845 357.708C357.398 353.508 359.498 348.821 361.145 343.648C362.798 338.474 364.075 333.261 364.975 328.008ZM483.775 366.488V315.408H498.175V366.488H483.775ZM463.075 323.288L461.715 309.558C468.622 309.258 476.385 308.958 485.005 308.658C493.632 308.358 502.822 308.058 512.575 307.758L512.345 320.138C503.498 320.738 494.912 321.301 486.585 321.828C478.258 322.348 470.422 322.834 463.075 323.288ZM501.325 331.388L512.795 328.008C514.742 332.508 516.655 337.458 518.535 342.858C520.408 348.258 521.718 352.908 522.465 356.808L510.545 360.638C509.945 356.738 508.745 352.011 506.945 346.458C505.145 340.911 503.272 335.888 501.325 331.388ZM499.525 300.338L510.095 295.608C512.648 299.508 515.012 303.821 517.185 308.548C519.358 313.274 520.895 317.438 521.795 321.038L510.325 326.208C509.572 322.608 508.182 318.371 506.155 313.498C504.135 308.624 501.925 304.238 499.525 300.338ZM462.175 282.558L469.825 272.438C473.725 275.138 477.625 278.251 481.525 281.778C485.425 285.298 488.425 288.484 490.525 291.338L481.745 303.038C479.798 300.038 476.985 296.588 473.305 292.688C469.632 288.788 465.922 285.411 462.175 282.558ZM484.215 252.858L497.045 259.388C493.898 264.334 490.748 269.321 487.595 274.348C484.448 279.374 481.448 283.688 478.595 287.288L468.695 282.108C471.248 278.208 474.025 273.448 477.025 267.828C480.025 262.201 482.422 257.211 484.215 252.858ZM500.195 270.408L512.795 277.608C507.695 284.361 502.145 291.488 496.145 298.988C490.145 306.488 484.445 312.788 479.045 317.888L469.825 312.038C473.272 308.284 476.872 304.008 480.625 299.208C484.372 294.408 487.972 289.458 491.425 284.358C494.872 279.258 497.795 274.608 500.195 270.408ZM468.695 328.008L481.745 331.158C480.698 336.711 479.198 342.374 477.245 348.148C475.298 353.921 473.198 358.834 470.945 362.888C469.745 362.134 467.945 361.121 465.545 359.848C463.145 358.574 461.045 357.561 459.245 356.808C461.645 352.608 463.595 348.034 465.095 343.088C466.595 338.134 467.795 333.108 468.695 328.008ZM315.695 270.188L328.065 256.238C331.818 258.184 335.758 260.548 339.885 263.328C344.012 266.101 347.875 268.874 351.475 271.648C355.075 274.421 357.998 277.084 360.245 279.638L347.425 295.388C345.318 292.834 342.505 290.058 338.985 287.058C335.458 284.058 331.672 281.098 327.625 278.178C323.572 275.251 319.595 272.588 315.695 270.188ZM310.975 330.258L322.675 315.638C326.575 317.438 330.662 319.651 334.935 322.278C339.208 324.898 343.182 327.521 346.855 330.148C350.535 332.774 353.575 335.288 355.975 337.688L343.595 353.888C341.348 351.488 338.385 348.861 334.705 346.008C331.032 343.161 327.095 340.351 322.895 337.578C318.695 334.798 314.722 332.358 310.975 330.258ZM334.595 459.408L315.465 448.608C318.318 442.608 321.358 435.634 324.585 427.688C327.812 419.734 331.112 411.334 334.485 402.488C337.858 393.634 340.972 384.934 343.825 376.388L360.695 387.188C358.295 395.134 355.595 403.308 352.595 411.708C349.595 420.108 346.595 428.358 343.595 436.458C340.595 444.558 337.595 452.208 334.595 459.408Z" fill="white"/>
<path d="M277.5 237H4.5V520H277.5V237Z" stroke="white" stroke-width="2" stroke-dasharray="10 10"/>
<path d="M552.5 237H279.5V520H552.5V237Z" stroke="white" stroke-width="2" stroke-dasharray="10 10"/>
<path d="M6.03912 73.2613V51.2313H107.379V73.2613H68.8291V191.861H44.5891V73.2613" fill="white"/>
<path d="M192.817 103.744L191.717 105.214L190.618 106.314L189.517 107.044L188.048 109.254L187.307 109.984L186.577 110.354C185.777 111.454 185.044 112.311 184.377 112.924L179.597 118.434C169.437 111.881 161.024 108.604 154.358 108.604C147.504 108.604 142.454 112.001 139.207 118.794C139.327 122.774 140.918 125.714 143.978 127.614C145.324 127.981 146.304 128.348 146.917 128.714C149.304 129.081 151.264 129.571 152.798 130.184C175.991 131.898 188.964 141.198 191.717 158.084C191.837 158.818 191.897 159.538 191.897 160.244C191.897 160.951 191.897 161.641 191.897 162.314C191.897 174.614 186.698 183.854 176.298 190.034C168.831 193.401 161.334 195.084 153.808 195.084C139.488 195.084 125.198 188.994 110.938 176.814L111.668 175.344L113.508 173.504C114.728 172.038 115.828 170.938 116.808 170.204C117.054 169.778 117.301 169.534 117.548 169.474L118.277 168.364C118.524 167.938 118.771 167.694 119.017 167.634L119.378 166.904L120.118 166.534L124.887 161.024C133.947 169.591 143.434 173.874 153.347 173.874C157.507 173.874 161.731 173.141 166.018 171.674C167.118 170.208 168.218 169.104 169.318 168.364C169.684 166.898 169.868 165.521 169.868 164.234C169.868 161.054 168.828 158.394 166.748 156.254L158.298 153.314C133.084 151.781 119.378 141.011 117.178 121.004C118.831 100.871 130.214 90.0978 151.328 88.6844H152.608C168.828 88.6844 182.231 93.7044 192.817 103.744Z" fill="white"/>
<path d="M217.594 163.222V91.6219H239.624V155.152C239.864 155.452 239.984 155.819 239.984 156.252C240.231 156.432 240.354 156.615 240.354 156.802V156.982C240.781 159.735 241.394 162.185 242.194 164.332C246.414 170.205 251.831 173.142 258.444 173.142H258.714C266.914 170.935 272.667 166.405 275.974 159.552V158.452L277.444 154.042V91.6219H299.844V191.862H277.444V183.792C268.631 191.012 259.847 194.622 251.094 194.622C244.301 194.622 237.417 192.479 230.444 188.192C224.751 183.845 220.834 178.705 218.694 172.772L218.324 170.202C217.771 168.429 217.494 166.685 217.494 164.972V164.142C217.494 163.835 217.527 163.529 217.594 163.222Z" fill="white"/>
<path d="M416.672 132.749L417.042 138.249C417.289 138.555 417.412 138.925 417.412 139.359V150.369H350.212C351.619 162.855 357.982 170.199 369.302 172.399C371.142 172.585 372.949 172.679 374.722 172.679C383.962 172.679 391.825 169.649 398.312 163.589C399.112 164.935 400.092 166.039 401.252 166.899L401.622 167.999L402.722 169.099C403.575 169.892 404.309 170.642 404.922 171.349C405.535 172.049 406.025 172.765 406.392 173.499C406.819 173.745 407.065 173.992 407.132 174.239L412.272 180.109C400.639 189.842 388.245 194.709 375.092 194.709C372.825 194.709 370.529 194.555 368.202 194.249C365.875 193.942 363.552 193.515 361.232 192.969C340.052 185.929 328.422 170.749 326.342 147.429C326.342 147.129 326.329 146.519 326.302 145.599C326.269 144.679 326.252 144.095 326.252 143.849C326.252 111.969 340.602 93.8255 369.302 89.4188C397.822 90.3988 413.612 104.842 416.672 132.749ZM349.842 133.109H394.272V132.009C394.032 131.275 393.912 130.542 393.912 129.809V129.079C393.299 127.732 392.929 126.505 392.802 125.399C388.275 114.939 380.812 109.675 370.412 109.609C357.312 112.735 350.455 120.569 349.842 133.109Z" fill="white"/>
<path d="M523.1 109.254V110.354C523.894 111.821 524.384 113.288 524.57 114.754V191.504H502.17V126.504L501.8 124.304C498.74 115.064 493.6 110.444 486.38 110.444C484.18 110.444 481.734 110.904 479.04 111.824C472.92 114.451 468.514 118.611 465.82 124.304L464.35 130.544V191.504H442.32V91.2544H464.35V99.7044C471.204 93.5844 478.67 89.9111 486.75 88.6844H488.4C504.8 88.6844 516.367 95.5411 523.1 109.254Z" fill="white"/>
<path d="M601.383 52.3285V51.5985H626.723L627.093 54.1685L627.453 55.2685L628.193 57.8385L628.923 62.2485L630.023 65.9185L630.763 70.3285L631.863 73.9985L632.233 76.9285C632.659 77.9685 632.903 78.8252 632.963 79.4985L633.333 80.9685L634.063 83.1785V84.6485C634.309 84.8285 634.433 85.0118 634.433 85.1985V86.4785C635.106 87.8252 635.473 89.2952 635.533 90.8885L636.273 93.0885L637.003 95.6585L637.733 100.069L638.843 103.739L639.203 105.939L641.413 115.119C641.593 115.979 641.759 116.759 641.913 117.459C642.066 118.165 642.143 118.855 642.143 119.529L642.883 120.999V122.469L643.613 124.299V125.769L644.343 127.239V128.709C645.016 130.542 645.386 132.132 645.453 133.479L645.813 134.949C646.246 136.175 646.583 137.309 646.823 138.349C647.069 139.389 647.223 140.335 647.283 141.189L648.023 144.129L648.753 146.699L649.483 144.499L650.953 137.149L651.693 135.319L652.053 133.109L653.163 127.969L653.893 125.399V124.299L655.363 118.429L655.733 116.219L656.463 114.749L656.833 113.289L657.203 111.449V109.979L657.563 108.879L659.033 102.999L659.773 98.5985L660.133 97.1285L660.873 95.6585C660.993 93.6985 661.359 91.9852 661.973 90.5185L662.343 88.6785V87.5785L663.073 84.6485L663.443 83.5385L664.543 78.7685L664.913 76.5685L665.643 74.3585L666.013 72.5285L667.113 67.7485L667.483 65.9185L667.843 65.1785C667.909 64.5052 667.986 63.8485 668.073 63.2085C668.166 62.5685 668.336 62.0018 668.583 61.5085L668.953 60.4085V59.3085L669.313 57.8385L669.683 56.7385L670.783 51.5985H697.953V52.6985C698.813 54.8385 699.303 56.9185 699.423 58.9385L700.163 61.8785L700.523 62.9785L701.993 69.5885L702.733 72.5285C703.219 74.3018 703.463 75.7685 703.463 76.9285C703.889 77.9685 704.136 78.8252 704.203 79.4985L704.933 82.0785L705.303 84.6485L705.663 86.1085L706.033 87.2185C706.219 88.0118 706.373 88.7285 706.493 89.3685C706.613 90.0152 706.706 90.6418 706.773 91.2485C707.259 92.4152 707.596 93.4885 707.783 94.4685C707.963 95.4485 708.113 96.3352 708.233 97.1285L708.603 99.3285L709.343 101.169L709.703 103.369V104.469C710.316 105.942 710.683 107.289 710.803 108.509L711.173 110.719C711.786 112.185 712.153 113.529 712.273 114.749L712.643 116.589L713.743 120.629V122.099C713.989 122.645 714.113 123.255 714.113 123.929C714.786 125.342 715.153 126.569 715.213 127.609L715.583 129.439L715.953 131.649L716.313 133.109C716.926 135.009 717.293 136.722 717.413 138.249C717.659 138.435 717.783 138.622 717.783 138.809V140.089C718.643 142.229 719.133 144.309 719.253 146.329C719.619 146.209 719.863 145.965 719.983 145.599C720.289 144.065 720.596 142.735 720.903 141.609C721.209 140.475 721.516 139.479 721.823 138.619V137.149C722.616 134.949 723.106 132.992 723.293 131.279L724.023 128.709L725.493 122.829L725.863 119.899L726.593 117.329L726.963 116.219V115.119C727.389 113.959 727.726 112.902 727.973 111.949C728.219 111.002 728.373 110.102 728.433 109.249L729.163 106.679L732.103 94.5585L733.203 88.6785L733.943 85.7485C734.616 83.9685 734.983 82.4985 735.043 81.3385L735.413 79.4985L736.143 76.5685C736.696 74.7952 737.063 73.3252 737.243 72.1585L737.613 70.6885L738.713 65.5485L739.453 63.3485V62.2485L740.553 59.3085V57.8385L740.913 56.7385L742.023 51.5985H766.983L765.523 58.9385L764.413 63.3485L764.053 64.4485L762.953 69.5885L762.213 72.5285L761.483 75.0985L760.013 82.4385L759.273 85.0085L757.803 91.9885L757.073 94.5585L756.703 95.6585L755.973 99.6985L755.603 100.429L755.233 102.999C754.626 105.019 754.259 106.735 754.133 108.149L752.663 112.549L752.303 115.119L751.933 116.589L751.563 117.689L751.203 120.259L750.833 121.359L748.633 130.539L748.263 133.109L747.523 135.679L745.693 143.029L745.323 145.599L743.123 154.779L742.023 159.919C741.349 161.752 740.979 163.342 740.913 164.689L739.453 169.469V170.929C738.779 172.769 738.409 174.362 738.343 175.709C737.736 177.729 737.369 179.442 737.243 180.849L736.513 183.419L736.143 184.148L735.773 186.719C735.166 188.739 734.799 190.452 734.673 191.859H707.503L707.133 188.928C706.706 187.888 706.463 187.032 706.403 186.359L705.663 183.419L705.303 180.849L704.563 178.279C704.383 177.545 704.229 176.842 704.103 176.169C703.983 175.495 703.893 174.852 703.833 174.239L703.463 172.769L703.093 170.929C702.853 170.629 702.733 170.262 702.733 169.829L702.363 167.999L701.993 166.899C701.813 166.099 701.659 165.379 701.533 164.739C701.413 164.092 701.323 163.465 701.263 162.859C700.836 161.692 700.513 160.619 700.293 159.639C700.079 158.659 699.913 157.772 699.793 156.979L699.423 155.509L699.053 153.679C698.813 152.945 698.646 152.242 698.553 151.569C698.459 150.895 698.383 150.252 698.323 149.639C697.896 148.412 697.559 147.249 697.313 146.149C697.066 145.049 696.913 144.009 696.853 143.029C696.606 142.722 696.483 142.355 696.483 141.929L696.123 140.459L695.753 139.359C695.566 138.072 695.323 136.845 695.023 135.679L694.283 132.379L693.913 130.179L693.183 128.339L692.453 123.929L692.083 122.829V121.729C691.469 120.262 691.103 118.915 690.983 117.689L690.243 113.289L689.513 111.449L688.773 108.509V107.039C688.039 105.019 687.673 103.305 687.673 101.899C687.426 101.592 687.303 101.225 687.303 100.799L686.943 99.6985V98.5985C686.329 97.1918 685.963 95.7218 685.843 94.1885C685.229 92.2285 684.859 90.3918 684.733 88.6785L684.003 90.1485L683.633 92.3585L682.533 97.1285L681.803 101.169L681.433 102.269L679.963 108.509L679.593 109.979L678.863 113.649L678.493 115.119L677.763 119.159L677.393 120.259L675.923 127.239L675.193 129.809L674.823 132.379C674.149 134.212 673.783 135.802 673.723 137.149L673.353 137.889L672.983 140.089L672.623 141.189L670.783 150.369L670.413 151.469L668.953 158.449L668.583 159.919L668.213 161.749L667.843 162.859L666.383 169.829L665.643 172.769L664.913 176.439L664.543 177.179L663.803 180.479L663.443 181.949L663.073 184.519C662.646 186.052 662.403 187.275 662.343 188.189C662.096 188.802 661.926 189.385 661.833 189.939C661.739 190.485 661.663 191.005 661.603 191.499C660.749 191.619 659.969 191.725 659.263 191.819C658.563 191.912 657.876 191.959 657.203 191.959H656.283C655.976 191.959 655.669 191.925 655.363 191.859H634.063V190.398C633.209 188.192 632.719 186.108 632.593 184.148C632.353 183.842 632.233 183.475 632.233 183.049L631.863 181.219C630.516 176.872 629.659 173.199 629.293 170.199L628.923 169.099L627.093 162.119L626.723 159.179L623.783 147.799V146.329C623.169 144.922 622.803 143.455 622.683 141.929L621.953 139.719L621.213 137.149V136.049L619.383 128.709V127.609L619.013 126.139L618.273 124.669L617.913 121.729C617.419 120.262 617.019 118.915 616.713 117.689C616.406 116.469 616.193 115.369 616.073 114.389L615.703 113.289V112.179C615.463 111.879 615.343 111.512 615.343 111.079L614.603 108.149L614.233 107.039C613.993 105.759 613.766 104.599 613.553 103.559C613.333 102.512 613.073 101.592 612.773 100.799L612.403 98.2285C611.976 97.0085 611.639 95.8752 611.393 94.8285C611.146 93.7885 610.993 92.8418 610.933 91.9885L610.563 90.1485C610.323 89.8418 610.203 89.4752 610.203 89.0485L608.363 81.7085L607.633 79.1385L607.263 77.2985L606.893 75.8285L606.523 73.2585C606.036 71.9718 605.793 70.8718 605.793 69.9585V69.5885L605.053 67.7485L604.693 66.2885C604.446 64.5085 604.079 63.0385 603.593 61.8785V60.4085C603.346 60.1018 603.223 59.7352 603.223 59.3085" fill="white"/>
<path d="M854.151 100.43L855.251 102.64C858.124 106.187 859.961 109.857 860.761 113.65C861.008 115.243 861.191 116.73 861.311 118.11C861.431 119.483 861.491 120.69 861.491 121.73V170.2C863.758 174.667 867.064 177.36 871.411 178.28L870.671 179.38C870.424 179.807 870.181 180.05 869.941 180.11L869.571 181.22L868.841 181.95C868.228 183.297 867.491 184.397 866.631 185.25C865.778 187.517 864.678 189.233 863.331 190.4C862.778 191.62 862.258 192.673 861.771 193.56C861.278 194.447 860.818 195.227 860.391 195.9C853.231 194.067 847.601 190.763 843.501 185.99H842.401C834.508 191.683 826.368 194.53 817.981 194.53C813.454 194.53 808.988 193.763 804.581 192.23C791.421 187.517 783.464 178.95 780.711 166.53V166.07C780.711 142.383 794.571 130.54 822.291 130.54H822.571C823.124 130.3 823.738 130.18 824.411 130.18L825.511 129.81H828.081L829.181 129.44H830.281L839.461 128.34C839.581 127.667 839.641 127.053 839.641 126.5V124.67C839.641 114.45 834.228 109.34 823.401 109.34C815.874 109.34 805.561 111.88 792.461 116.96L790.991 113.65L790.261 111.45L789.521 110.72L789.161 109.98L788.421 107.78C787.748 106.68 787.258 105.577 786.951 104.47C785.671 102.757 784.814 101.043 784.381 99.3298L785.481 98.9698L786.221 98.5998L787.321 98.2298L788.051 97.4998H789.161C789.401 97.2532 789.614 97.1298 789.801 97.1298H789.891C792.098 95.9698 794.058 95.1132 795.771 94.5598L797.601 94.1898C798.948 93.5765 800.171 93.2098 801.271 93.0898L804.211 92.3598C806.351 91.4998 808.431 91.0098 810.451 90.8898L818.531 89.4198C819.758 89.2998 820.938 89.1932 822.071 89.0998C823.198 89.0065 824.314 88.9598 825.421 88.9598C837.108 88.9598 846.684 92.7832 854.151 100.43ZM830.651 147.07H828.451C827.898 147.19 827.361 147.28 826.841 147.34C826.321 147.4 825.814 147.43 825.321 147.43H824.771L823.301 147.8H822.201C821.894 148.047 821.528 148.17 821.101 148.17H820.001L814.131 149.64H813.021C811.308 150.62 809.841 151.23 808.621 151.47C804.641 155.263 802.651 158.937 802.651 162.49C802.651 165.73 804.274 168.913 807.521 172.04C812.228 174.913 816.818 176.35 821.291 176.35C826.978 176.35 832.424 174.057 837.631 169.47C838.118 168.057 838.604 167.077 839.091 166.53L839.461 165.43L839.091 163.96V146.7H831.751C831.444 146.947 831.078 147.07 830.651 147.07Z" fill="white"/>
<path d="M979.1 109.254V110.354C979.894 111.821 980.384 113.288 980.57 114.754V191.504H958.17V126.504L957.8 124.304C954.74 115.064 949.6 110.444 942.38 110.444C940.18 110.444 937.734 110.904 935.04 111.824C928.92 114.451 924.514 118.611 921.82 124.304L920.35 130.544V191.504H898.32V91.2544H920.35V99.7044C927.204 93.5844 934.67 89.9111 942.75 88.6844H944.4C960.8 88.6844 972.367 95.5411 979.1 109.254Z" fill="white"/>
<path d="M107.5 37H4.5V235H107.5V37Z" stroke="white" stroke-width="2" stroke-dasharray="10 10"/>
<path d="M202.5 37H109.5V235H202.5V37Z" stroke="white" stroke-width="2" stroke-dasharray="10 10"/>
<path d="M317.5 37H204.5V235H317.5V37Z" stroke="white" stroke-width="2" stroke-dasharray="10 10"/>
<path d="M426.5 37H319.5V235H426.5V37Z" stroke="white" stroke-width="2" stroke-dasharray="10 10"/>
<path d="M538.5 37H428.5V235H538.5V37Z" stroke="white" stroke-width="2" stroke-dasharray="10 10"/>
<path d="M588.5 37H540.5V235H588.5V37Z" stroke="white" stroke-width="2" stroke-dasharray="10 10"/>
<path d="M771.5 37H590.5V235H771.5V37Z" stroke="white" stroke-width="2" stroke-dasharray="10 10"/>
<path d="M882.5 37H773.5V235H882.5V37Z" stroke="white" stroke-width="2" stroke-dasharray="10 10"/>
<path d="M994.5 37H884.5V235H994.5V37Z" stroke="white" stroke-width="2" stroke-dasharray="10 10"/>
</svg>
