<svg width="1540" height="940" viewBox="0 0 1540 940" fill="none" xmlns="http://www.w3.org/2000/svg">
<g clip-path="url(#clip0_0_1)">
<path d="M1267.17 470C1287.43 488.914 1298.92 515.386 1298.92 543.1V632.5L1485.96 741.38C1489.81 743.62 1492.17 747.738 1492.17 752.19V778.08C1492.17 782.046 1490.29 785.777 1487.09 788.132C1483.9 790.487 1479.78 791.188 1475.99 790.02L1329.67 745H1298.42V757.5L1285.92 857.5L1358.35 879.78C1363.6 881.395 1367.17 886.243 1367.17 891.73V907.5C1367.17 914.404 1361.57 920 1354.67 920H1179.67C1172.77 920 1167.17 914.404 1167.17 907.5V891.73C1167.17 886.243 1170.75 881.395 1175.99 879.78L1248.42 857.5L1235.92 757.5V745H1204.67L1058.35 790.02C1054.56 791.188 1050.44 790.487 1047.25 788.132C1044.06 785.777 1042.17 782.046 1042.17 778.08V752.19C1042.17 747.738 1044.53 743.62 1048.38 741.38L1235.42 632.5V543.1C1235.42 515.386 1246.92 488.914 1267.17 470Z" fill="white"/>
<path d="M1267.17 20H1367.17L1492.17 145V420H1042.17V145L1167.17 20H1267.17ZM1135.92 345H1398.42C1447.51 277.748 1437.83 184.271 1376 128.51C1314.16 72.7491 1220.18 72.7491 1158.35 128.51C1096.51 184.271 1086.83 277.748 1135.92 345Z" fill="white"/>
<path d="M1267.17 470V597.335" stroke="#008000" stroke-width="3.35093"/>
<path d="M1267.17 420V597.335" stroke="#008000" stroke-width="3.35093"/>
<path d="M1267.17 570.528L1307.38 560.475V580.581L1267.17 570.528Z" fill="#008000"/>
<path d="M1267.17 570.528L1226.96 560.475V580.581L1267.17 570.528Z" fill="#008000"/>
<path d="M1227.22 638.376C1225.06 638.376 1223.23 637.791 1221.72 636.62C1220.2 635.439 1219.05 633.73 1218.25 631.493C1217.45 629.247 1217.05 626.534 1217.05 623.354C1217.05 620.193 1217.45 617.495 1218.25 615.257C1219.06 613.011 1220.22 611.297 1221.73 610.117C1223.26 608.927 1225.08 608.332 1227.22 608.332C1229.35 608.332 1231.17 608.927 1232.68 610.117C1234.21 611.297 1235.37 613.011 1236.17 615.257C1236.98 617.495 1237.38 620.193 1237.38 623.354C1237.38 626.534 1236.98 629.247 1236.18 631.493C1235.38 633.73 1234.23 635.439 1232.71 636.62C1231.2 637.791 1229.37 638.376 1227.22 638.376ZM1227.22 635.234C1229.35 635.234 1231 634.206 1232.18 632.15C1233.37 630.094 1233.96 627.162 1233.96 623.354C1233.96 620.822 1233.68 618.665 1233.14 616.885C1232.61 615.105 1231.84 613.749 1230.83 612.816C1229.83 611.883 1228.62 611.416 1227.22 611.416C1225.1 611.416 1223.45 612.459 1222.26 614.543C1221.07 616.619 1220.48 619.556 1220.48 623.354C1220.48 625.886 1220.74 628.038 1221.28 629.808C1221.81 631.579 1222.57 632.926 1223.57 633.849C1224.58 634.773 1225.8 635.234 1227.22 635.234ZM1244.3 638.205C1243.6 638.205 1242.99 637.952 1242.49 637.448C1241.98 636.943 1241.73 636.339 1241.73 635.634C1241.73 634.93 1241.98 634.325 1242.49 633.821C1242.99 633.316 1243.6 633.064 1244.3 633.064C1245.01 633.064 1245.61 633.316 1246.11 633.821C1246.62 634.325 1246.87 634.93 1246.87 635.634C1246.87 636.101 1246.75 636.529 1246.51 636.919C1246.29 637.31 1245.98 637.624 1245.59 637.862C1245.21 638.09 1244.78 638.205 1244.3 638.205ZM1261.38 638.376C1259.23 638.376 1257.4 637.791 1255.88 636.62C1254.37 635.439 1253.21 633.73 1252.41 631.493C1251.61 629.247 1251.21 626.534 1251.21 623.354C1251.21 620.193 1251.61 617.495 1252.41 615.257C1253.22 613.011 1254.38 611.297 1255.9 610.117C1257.42 608.927 1259.25 608.332 1261.38 608.332C1263.51 608.332 1265.33 608.927 1266.85 610.117C1268.37 611.297 1269.53 613.011 1270.33 615.257C1271.14 617.495 1271.55 620.193 1271.55 623.354C1271.55 626.534 1271.15 629.247 1270.35 631.493C1269.55 633.73 1268.39 635.439 1266.88 636.62C1265.36 637.791 1263.53 638.376 1261.38 638.376ZM1261.38 635.234C1263.51 635.234 1265.17 634.206 1266.35 632.15C1267.53 630.094 1268.12 627.162 1268.12 623.354C1268.12 620.822 1267.85 618.665 1267.31 616.885C1266.77 615.105 1266 613.749 1264.99 612.816C1263.99 611.883 1262.79 611.416 1261.38 611.416C1259.27 611.416 1257.61 612.459 1256.42 614.543C1255.23 616.619 1254.64 619.556 1254.64 623.354C1254.64 625.886 1254.91 628.038 1255.44 629.808C1255.97 631.579 1256.74 632.926 1257.74 633.849C1258.75 634.773 1259.96 635.234 1261.38 635.234ZM1292.57 620.955L1289.54 621.812C1289.35 621.307 1289.07 620.817 1288.7 620.341C1288.33 619.855 1287.84 619.456 1287.21 619.141C1286.58 618.827 1285.78 618.67 1284.8 618.67C1283.46 618.67 1282.34 618.98 1281.44 619.598C1280.56 620.208 1280.11 620.984 1280.11 621.926C1280.11 622.764 1280.42 623.425 1281.03 623.911C1281.64 624.396 1282.59 624.801 1283.88 625.125L1287.14 625.924C1289.1 626.4 1290.56 627.128 1291.52 628.109C1292.48 629.08 1292.97 630.332 1292.97 631.865C1292.97 633.121 1292.6 634.244 1291.88 635.234C1291.17 636.225 1290.17 637.005 1288.88 637.576C1287.6 638.148 1286.1 638.433 1284.4 638.433C1282.16 638.433 1280.31 637.948 1278.84 636.977C1277.38 636.006 1276.45 634.587 1276.06 632.721L1279.26 631.922C1279.56 633.102 1280.14 633.987 1280.99 634.578C1281.84 635.168 1282.96 635.463 1284.34 635.463C1285.91 635.463 1287.16 635.13 1288.08 634.463C1289.01 633.788 1289.48 632.978 1289.48 632.036C1289.48 631.274 1289.21 630.636 1288.68 630.122C1288.15 629.599 1287.33 629.209 1286.23 628.952L1282.57 628.095C1280.56 627.619 1279.09 626.881 1278.14 625.881C1277.21 624.872 1276.74 623.611 1276.74 622.097C1276.74 620.86 1277.09 619.765 1277.79 618.813C1278.49 617.861 1279.45 617.114 1280.66 616.571C1281.88 616.029 1283.26 615.757 1284.8 615.757C1286.97 615.757 1288.67 616.233 1289.91 617.185C1291.16 618.137 1292.04 619.394 1292.57 620.955ZM1303.01 637.976L1296.32 616.043H1299.87L1304.61 632.836H1304.84L1309.52 616.043H1313.12L1317.74 632.778H1317.97L1322.71 616.043H1326.25L1319.57 637.976H1316.26L1311.46 621.126H1311.12L1306.32 637.976H1303.01Z" fill="#008000"/>
<path d="M1267.17 470H1394.51" stroke="#FF0000" stroke-width="3.35093"/>
<path d="M1267.17 420H1394.51" stroke="#FF0000" stroke-width="3.35093"/>
<path d="M1367.7 470V420" stroke="#FF0000" stroke-width="3.35093"/>
<path d="M1367.7 470L1357.65 510.211H1377.75L1367.7 470Z" fill="#FF0000"/>
<path d="M1367.7 420L1357.65 379.789H1377.75L1367.7 420Z" fill="#FF0000"/>
<path d="M1424.66 439.289V442.431H1411.87V439.289H1424.66ZM1429.16 455.482V452.912L1438.81 442.345C1439.94 441.108 1440.88 440.032 1441.61 439.118C1442.34 438.195 1442.89 437.328 1443.24 436.519C1443.6 435.701 1443.78 434.844 1443.78 433.949C1443.78 432.921 1443.53 432.031 1443.04 431.279C1442.55 430.527 1441.89 429.946 1441.04 429.537C1440.19 429.127 1439.24 428.923 1438.18 428.923C1437.06 428.923 1436.08 429.156 1435.24 429.622C1434.41 430.079 1433.77 430.722 1433.31 431.55C1432.87 432.378 1432.64 433.349 1432.64 434.463H1429.27C1429.27 432.749 1429.67 431.245 1430.46 429.951C1431.25 428.656 1432.32 427.647 1433.69 426.923C1435.06 426.2 1436.59 425.838 1438.3 425.838C1440.01 425.838 1441.53 426.2 1442.85 426.923C1444.18 427.647 1445.21 428.623 1445.97 429.851C1446.72 431.079 1447.09 432.445 1447.09 433.949C1447.09 435.025 1446.9 436.077 1446.51 437.105C1446.13 438.123 1445.46 439.261 1444.51 440.518C1443.57 441.765 1442.26 443.288 1440.58 445.087L1434.01 452.112V452.341H1447.61V455.482H1429.16ZM1456.02 455.711C1455.31 455.711 1454.71 455.459 1454.2 454.954C1453.7 454.45 1453.45 453.845 1453.45 453.141C1453.45 452.436 1453.7 451.832 1454.2 451.327C1454.71 450.823 1455.31 450.57 1456.02 450.57C1456.72 450.57 1457.33 450.823 1457.83 451.327C1458.34 451.832 1458.59 452.436 1458.59 453.141C1458.59 453.607 1458.47 454.035 1458.23 454.426C1458 454.816 1457.69 455.13 1457.3 455.368C1456.92 455.597 1456.49 455.711 1456.02 455.711ZM1473.1 455.882C1470.95 455.882 1469.11 455.297 1467.6 454.126C1466.09 452.945 1464.93 451.237 1464.13 449C1463.33 446.753 1462.93 444.04 1462.93 440.86C1462.93 437.7 1463.33 435.001 1464.13 432.764C1464.94 430.517 1466.1 428.804 1467.61 427.623C1469.14 426.433 1470.96 425.838 1473.1 425.838C1475.23 425.838 1477.05 426.433 1478.57 427.623C1480.09 428.804 1481.25 430.517 1482.05 432.764C1482.86 435.001 1483.26 437.7 1483.26 440.86C1483.26 444.04 1482.86 446.753 1482.06 449C1481.26 451.237 1480.11 452.945 1478.59 454.126C1477.08 455.297 1475.25 455.882 1473.1 455.882ZM1473.1 452.741C1475.23 452.741 1476.89 451.713 1478.07 449.656C1479.25 447.6 1479.84 444.668 1479.84 440.86C1479.84 438.328 1479.57 436.172 1479.02 434.392C1478.49 432.611 1477.72 431.255 1476.71 430.322C1475.71 429.389 1474.51 428.923 1473.1 428.923C1470.98 428.923 1469.33 429.965 1468.14 432.05C1466.95 434.125 1466.36 437.062 1466.36 440.86C1466.36 443.392 1466.62 445.544 1467.16 447.315C1467.69 449.085 1468.46 450.432 1469.46 451.356C1470.46 452.279 1471.68 452.741 1473.1 452.741ZM1504.28 438.461L1501.26 439.318C1501.07 438.813 1500.78 438.323 1500.41 437.847C1500.05 437.362 1499.56 436.962 1498.93 436.648C1498.3 436.334 1497.5 436.177 1496.51 436.177C1495.17 436.177 1494.05 436.486 1493.16 437.105C1492.27 437.714 1491.83 438.49 1491.83 439.432C1491.83 440.27 1492.14 440.932 1492.75 441.417C1493.35 441.903 1494.31 442.307 1495.6 442.631L1498.86 443.431C1500.82 443.907 1502.28 444.635 1503.24 445.615C1504.2 446.586 1504.68 447.838 1504.68 449.371C1504.68 450.627 1504.32 451.751 1503.6 452.741C1502.88 453.731 1501.88 454.511 1500.6 455.083C1499.31 455.654 1497.82 455.939 1496.12 455.939C1493.88 455.939 1492.03 455.454 1490.56 454.483C1489.09 453.512 1488.17 452.093 1487.78 450.228L1490.97 449.428C1491.28 450.608 1491.86 451.494 1492.7 452.084C1493.56 452.674 1494.68 452.969 1496.06 452.969C1497.63 452.969 1498.88 452.636 1499.8 451.97C1500.73 451.294 1501.2 450.485 1501.2 449.542C1501.2 448.781 1500.93 448.143 1500.4 447.629C1499.87 447.105 1499.05 446.715 1497.94 446.458L1494.29 445.601C1492.28 445.125 1490.8 444.387 1489.86 443.388C1488.93 442.379 1488.46 441.117 1488.46 439.604C1488.46 438.366 1488.81 437.271 1489.5 436.319C1490.21 435.367 1491.16 434.62 1492.37 434.077C1493.59 433.535 1494.97 433.264 1496.51 433.264C1498.69 433.264 1500.39 433.739 1501.63 434.691C1502.87 435.643 1503.76 436.9 1504.28 438.461ZM1514.72 455.482L1508.04 433.549H1511.58L1516.32 450.342H1516.55L1521.24 433.549H1524.83L1529.46 450.285H1529.69L1534.43 433.549H1537.97L1531.29 455.482H1527.98L1523.18 438.633H1522.84L1518.04 455.482H1514.72Z" fill="#FF0000"/>
<rect x="1043.17" y="471" width="448" height="448" stroke="white" stroke-width="2" stroke-dasharray="10 10"/>
<path d="M87.8249 363.443V345.213H193.805V363.443H87.8249ZM74.1049 399.663V381.893H208.645V399.663H74.1049ZM43.2749 437.463V419.013H239.025V437.463H43.2749ZM70.9449 313.263V296.163H149.255V313.263H70.9449ZM131.025 307.643V296.163H154.205C158.998 302.316 164.808 308.279 171.635 314.053C178.461 319.826 186.001 325.189 194.255 330.143C202.501 335.089 211.125 339.513 220.125 343.413C229.125 347.313 238.201 350.613 247.355 353.313C245.701 354.513 243.825 356.089 241.725 358.043C239.625 359.989 237.598 362.013 235.645 364.113C233.698 366.213 232.125 368.163 230.925 369.963C218.925 365.616 207.075 360.216 195.375 353.763C183.675 347.316 172.838 340.156 162.865 332.283C152.892 324.403 144.302 316.189 137.095 307.643H131.025ZM126.075 298.413L145.425 305.843C138.078 315.743 129.155 324.893 118.655 333.293C108.155 341.693 96.9416 349.116 85.0149 355.563C73.0882 362.016 61.0516 367.643 48.9049 372.443C47.8516 370.943 46.4249 369.143 44.6249 367.043C42.8249 364.943 40.9516 362.879 39.0049 360.853C37.0516 358.826 35.3249 357.213 33.825 356.013C46.1249 352.266 58.1249 347.543 69.8249 341.843C81.5249 336.143 92.2116 329.616 101.885 322.263C111.565 314.916 119.628 306.966 126.075 298.413ZM129.675 431.843V353.543H151.505V431.843H129.675ZM41.7049 272.993V253.413H240.605V272.993H41.7049ZM89.6249 291.663V236.313H110.775V291.663H89.6249ZM170.175 292.793V236.313H191.325V292.793" fill="white"/>
<path d="M414.345 251.838V240.808H453.715V251.838H414.345ZM412.995 288.508V277.708H455.295V288.508H412.995ZM412.995 305.388V294.808H455.295V305.388H412.995ZM380.145 412.038V398.308H494.215V412.038H380.145ZM406.475 270.738V258.808H460.465V270.738H406.475ZM441.795 323.158H425.825V335.988H441.795V323.158ZM412.545 346.338V312.808H455.525V346.338H412.545ZM383.975 388.858V376.038H477.345V366.358H370.025V353.538H497.145V388.858H383.975ZM376.325 349.488V298.408H390.495V349.488H376.325ZM355.845 306.288L354.265 292.558C360.871 292.258 368.261 291.958 376.435 291.658C384.608 291.358 393.268 290.984 402.415 290.538V302.908C394.021 303.661 385.885 304.261 378.005 304.708C370.131 305.161 362.745 305.688 355.845 306.288ZM377.895 376.038H397.695C395.895 383.238 393.945 390.738 391.845 398.538C389.745 406.338 387.795 413.088 385.995 418.788L366.875 416.088C368.975 410.534 370.998 404.121 372.945 396.848C374.898 389.574 376.548 382.638 377.895 376.038ZM487.465 400.558V398.308H507.495C507.495 398.308 507.421 399.321 507.275 401.348C507.121 403.374 506.821 405.061 506.375 406.408C504.268 415.708 502.091 423.021 499.845 428.348C497.591 433.674 494.965 437.538 491.965 439.938C489.418 441.738 486.681 442.974 483.755 443.648C480.835 444.321 477.348 444.734 473.295 444.888C469.848 445.034 464.935 445.071 458.555 444.998C452.181 444.924 445.395 444.738 438.195 444.438C438.041 442.038 437.441 439.338 436.395 436.338C435.348 433.338 434.075 430.638 432.575 428.238C439.621 428.984 446.445 429.434 453.045 429.588C459.645 429.734 464.295 429.808 466.995 429.808C469.395 429.808 471.345 429.734 472.845 429.588C474.345 429.434 475.621 428.984 476.675 428.238C478.775 426.584 480.685 423.621 482.405 419.348C484.131 415.074 485.818 408.811 487.465 400.558ZM393.195 314.388L403.995 311.908C405.195 315.661 406.358 319.788 407.485 324.288C408.605 328.788 409.468 332.688 410.075 335.988L398.375 339.138C398.068 335.684 397.428 331.671 396.455 327.098C395.481 322.524 394.395 318.288 393.195 314.388ZM392.525 283.788L402.195 280.188C404.148 283.934 405.948 288.134 407.595 292.788C409.248 297.434 410.375 301.484 410.975 304.938L400.395 308.988C399.948 305.534 398.975 301.484 397.475 296.838C395.975 292.184 394.325 287.834 392.525 283.788ZM356.515 266.008L363.725 255.208C368.071 258.061 372.345 261.324 376.545 264.998C380.745 268.671 383.895 271.858 385.995 274.558L377.895 286.938C375.648 283.784 372.498 280.258 368.445 276.358C364.398 272.458 360.421 269.008 356.515 266.008ZM377.895 235.638L390.725 241.938C387.725 246.884 384.725 251.908 381.725 257.008C378.725 262.108 375.871 266.384 373.165 269.838L363.265 264.658C365.671 260.758 368.298 255.998 371.145 250.378C373.991 244.751 376.241 239.838 377.895 235.638ZM392.295 254.308L404.895 261.508C399.948 268.261 394.661 275.388 389.035 282.888C383.408 290.388 378.118 296.688 373.165 301.788L363.725 295.938C366.871 292.184 370.245 287.908 373.845 283.108C377.445 278.308 380.858 273.358 384.085 268.258C387.305 263.158 390.041 258.508 392.295 254.308ZM361.475 311.008L374.745 313.938C373.398 319.784 371.748 325.634 369.795 331.488C367.848 337.334 365.748 342.358 363.495 346.558C362.148 345.658 360.198 344.648 357.645 343.528C355.098 342.401 352.998 341.461 351.345 340.708C353.898 336.508 355.998 331.821 357.645 326.648C359.298 321.474 360.575 316.261 361.475 311.008ZM480.275 349.488V298.408H494.675V349.488H480.275ZM459.575 306.288L458.215 292.558C465.121 292.258 472.885 291.958 481.505 291.658C490.131 291.358 499.321 291.058 509.075 290.758L508.845 303.138C499.998 303.738 491.411 304.301 483.085 304.828C474.758 305.348 466.921 305.834 459.575 306.288ZM497.825 314.388L509.295 311.008C511.241 315.508 513.154 320.458 515.034 325.858C516.908 331.258 518.218 335.908 518.964 339.808L507.045 343.638C506.445 339.738 505.245 335.011 503.445 329.458C501.645 323.911 499.771 318.888 497.825 314.388ZM496.025 283.338L506.595 278.608C509.148 282.508 511.511 286.821 513.684 291.548C515.858 296.274 517.394 300.438 518.294 304.038L506.825 309.208C506.071 305.608 504.681 301.371 502.655 296.498C500.635 291.624 498.425 287.238 496.025 283.338ZM458.675 265.558L466.325 255.438C470.225 258.138 474.125 261.251 478.025 264.778C481.925 268.298 484.925 271.484 487.025 274.338L478.245 286.038C476.298 283.038 473.485 279.588 469.805 275.688C466.131 271.788 462.421 268.411 458.675 265.558ZM480.715 235.858L493.545 242.388C490.398 247.334 487.248 252.321 484.095 257.348C480.948 262.374 477.948 266.688 475.095 270.288L465.195 265.108C467.748 261.208 470.525 256.448 473.525 250.828C476.525 245.201 478.921 240.211 480.715 235.858ZM496.695 253.408L509.295 260.608C504.195 267.361 498.645 274.488 492.645 281.988C486.645 289.488 480.945 295.788 475.545 300.888L466.325 295.038C469.771 291.284 473.371 287.008 477.125 282.208C480.871 277.408 484.471 272.458 487.925 267.358C491.371 262.258 494.295 257.608 496.695 253.408ZM465.195 311.008L478.245 314.158C477.198 319.711 475.698 325.374 473.745 331.148C471.798 336.921 469.698 341.834 467.445 345.888C466.245 345.134 464.445 344.121 462.045 342.848C459.645 341.574 457.545 340.561 455.745 339.808C458.145 335.608 460.095 331.034 461.595 326.088C463.095 321.134 464.295 316.108 465.195 311.008ZM312.195 253.188L324.565 239.238C328.318 241.184 332.258 243.548 336.385 246.328C340.511 249.101 344.375 251.874 347.975 254.648C351.575 257.421 354.498 260.084 356.745 262.638L343.925 278.388C341.818 275.834 339.005 273.058 335.485 270.058C331.958 267.058 328.171 264.098 324.125 261.178C320.071 258.251 316.095 255.588 312.195 253.188ZM307.475 313.258L319.175 298.638C323.075 300.438 327.161 302.651 331.435 305.278C335.708 307.898 339.681 310.521 343.355 313.148C347.035 315.774 350.075 318.288 352.475 320.688L340.095 336.888C337.848 334.488 334.885 331.861 331.205 329.008C327.531 326.161 323.595 323.351 319.395 320.578C315.195 317.798 311.221 315.358 307.475 313.258ZM331.095 442.408L311.965 431.608C314.818 425.608 317.858 418.634 321.085 410.688C324.311 402.734 327.611 394.334 330.985 385.488C334.358 376.634 337.471 367.934 340.325 359.388L357.195 370.188C354.795 378.134 352.095 386.308 349.095 394.708C346.095 403.108 343.095 411.358 340.095 419.458C337.095 427.558 334.095 435.208 331.095 442.408Z" fill="white"/>
<path d="M274 220H1V503H274V220Z" stroke="white" stroke-width="2" stroke-dasharray="10 10"/>
<path d="M548.999 220H276V503H548.999V220Z" stroke="white" stroke-width="2" stroke-dasharray="10 10"/>
<path d="M2.53912 56.2613V34.2313H103.879V56.2613H65.3291V174.861H41.0891V56.2613" fill="white"/>
<path d="M189.317 86.7444L188.217 88.2144L187.117 89.3144L186.017 90.0444L184.547 92.2544L183.807 92.9844L183.077 93.3544C182.277 94.4544 181.544 95.3111 180.877 95.9244L176.097 101.434C165.937 94.8811 157.524 91.6044 150.857 91.6044C144.004 91.6044 138.954 95.0011 135.707 101.794C135.827 105.774 137.417 108.714 140.477 110.614C141.824 110.981 142.804 111.348 143.417 111.714C145.804 112.081 147.764 112.571 149.297 113.184C172.491 114.898 185.464 124.198 188.217 141.084C188.337 141.818 188.397 142.538 188.397 143.244C188.397 143.951 188.397 144.641 188.397 145.314C188.397 157.614 183.197 166.854 172.797 173.034C165.331 176.401 157.834 178.084 150.307 178.084C135.987 178.084 121.697 171.994 107.437 159.814L108.167 158.344L110.007 156.504C111.227 155.038 112.327 153.938 113.307 153.204C113.554 152.778 113.801 152.534 114.047 152.474L114.777 151.364C115.024 150.938 115.271 150.694 115.517 150.634L115.877 149.904L116.617 149.534L121.387 144.024C130.447 152.591 139.934 156.874 149.847 156.874C154.007 156.874 158.231 156.141 162.517 154.674C163.617 153.208 164.717 152.104 165.817 151.364C166.184 149.898 166.367 148.521 166.367 147.234C166.367 144.054 165.327 141.394 163.247 139.254L154.797 136.314C129.584 134.781 115.877 124.011 113.677 104.004C115.331 83.8711 126.714 73.0977 147.827 71.6844H149.107C165.327 71.6844 178.731 76.7044 189.317 86.7444Z" fill="white"/>
<path d="M214.094 146.222V74.6219H236.124V138.152C236.364 138.452 236.484 138.819 236.484 139.252C236.731 139.432 236.854 139.615 236.854 139.802V139.982C237.281 142.735 237.894 145.185 238.694 147.332C242.914 153.205 248.33 156.142 254.944 156.142H255.214C263.414 153.935 269.167 149.405 272.474 142.552V141.452L273.944 137.042V74.6219H296.344V174.862H273.944V166.792C265.13 174.012 256.347 177.622 247.594 177.622C240.801 177.622 233.917 175.479 226.944 171.192C221.251 166.845 217.334 161.705 215.194 155.772L214.824 153.202C214.271 151.429 213.994 149.685 213.994 147.972V147.142C213.994 146.835 214.027 146.529 214.094 146.222Z" fill="white"/>
<path d="M413.172 115.749L413.542 121.249C413.788 121.555 413.912 121.925 413.912 122.359V133.369H346.712C348.118 145.855 354.482 153.199 365.802 155.399C367.642 155.585 369.448 155.679 371.222 155.679C380.462 155.679 388.325 152.649 394.812 146.589C395.612 147.935 396.592 149.039 397.752 149.899L398.122 150.999L399.222 152.099C400.075 152.892 400.808 153.642 401.422 154.349C402.035 155.049 402.525 155.765 402.892 156.499C403.318 156.745 403.565 156.992 403.632 157.239L408.772 163.109C397.138 172.842 384.745 177.709 371.592 177.709C369.325 177.709 367.028 177.555 364.702 177.249C362.375 176.942 360.052 176.515 357.732 175.969C336.552 168.929 324.922 153.749 322.842 130.429C322.842 130.129 322.828 129.519 322.802 128.599C322.768 127.679 322.752 127.095 322.752 126.849C322.752 94.9688 337.102 76.8255 365.802 72.4188C394.322 73.3988 410.112 87.8421 413.172 115.749ZM346.342 116.109H390.772V115.009C390.532 114.275 390.412 113.542 390.412 112.809V112.079C389.798 110.732 389.428 109.505 389.302 108.399C384.775 97.9388 377.312 92.6755 366.912 92.6088C353.812 95.7355 346.955 103.569 346.342 116.109Z" fill="white"/>
<path d="M519.6 92.2544V93.3544C520.393 94.8211 520.883 96.2877 521.07 97.7544V174.504H498.67V109.504L498.3 107.304C495.24 98.0644 490.1 93.4444 482.88 93.4444C480.68 93.4444 478.233 93.9044 475.54 94.8244C469.42 97.4511 465.013 101.611 462.32 107.304L460.85 113.544V174.504H438.82V74.2544H460.85V82.7044C467.703 76.5844 475.17 72.9111 483.25 71.6844H484.9C501.3 71.6844 512.866 78.5411 519.6 92.2544Z" fill="white"/>
<path d="M597.882 35.3285V34.5985H623.222L623.592 37.1685L623.952 38.2685L624.692 40.8385L625.422 45.2485L626.522 48.9185L627.262 53.3285L628.362 56.9985L628.732 59.9285C629.159 60.9685 629.402 61.8252 629.462 62.4985L629.832 63.9685L630.562 66.1785V67.6485C630.809 67.8285 630.932 68.0118 630.932 68.1985V69.4785C631.605 70.8252 631.972 72.2952 632.032 73.8885L632.772 76.0885L633.502 78.6585L634.232 83.0685L635.342 86.7385L635.702 88.9385L637.912 98.1185C638.092 98.9785 638.259 99.7585 638.412 100.458C638.565 101.165 638.642 101.855 638.642 102.528L639.382 103.998V105.468L640.112 107.299V108.768L640.842 110.238V111.708C641.515 113.542 641.885 115.132 641.952 116.479L642.312 117.948C642.745 119.175 643.082 120.308 643.322 121.348C643.569 122.388 643.722 123.335 643.782 124.188L644.522 127.128L645.252 129.698L645.982 127.498L647.452 120.148L648.192 118.318L648.552 116.108L649.662 110.968L650.392 108.398V107.299L651.862 101.428L652.232 99.2185L652.962 97.7485L653.332 96.2885L653.702 94.4485V92.9785L654.062 91.8785L655.532 85.9985L656.272 81.5985L656.632 80.1285L657.372 78.6585C657.492 76.6985 657.859 74.9852 658.472 73.5185L658.842 71.6785V70.5785L659.572 67.6485L659.942 66.5385L661.042 61.7685L661.412 59.5685L662.142 57.3585L662.512 55.5285L663.612 50.7485L663.982 48.9185L664.342 48.1785C664.409 47.5052 664.485 46.8485 664.572 46.2085C664.665 45.5685 664.835 45.0018 665.082 44.5085L665.452 43.4085V42.3085L665.812 40.8385L666.182 39.7385L667.282 34.5985H694.452V35.6985C695.312 37.8385 695.802 39.9185 695.922 41.9385L696.662 44.8785L697.022 45.9785L698.492 52.5885L699.232 55.5285C699.719 57.3018 699.962 58.7685 699.962 59.9285C700.389 60.9685 700.635 61.8252 700.702 62.4985L701.432 65.0785L701.802 67.6485L702.162 69.1085L702.532 70.2185C702.719 71.0118 702.872 71.7285 702.992 72.3685C703.112 73.0152 703.205 73.6418 703.272 74.2485C703.759 75.4152 704.095 76.4885 704.282 77.4685C704.462 78.4485 704.612 79.3352 704.732 80.1285L705.102 82.3285L705.842 84.1685L706.202 86.3685V87.4685C706.815 88.9418 707.182 90.2885 707.302 91.5085L707.672 93.7185C708.285 95.1852 708.652 96.5285 708.772 97.7485L709.142 99.5885L710.242 103.628V105.098C710.489 105.645 710.612 106.255 710.612 106.928C711.285 108.342 711.652 109.568 711.712 110.608L712.082 112.438L712.452 114.648L712.812 116.108C713.425 118.008 713.792 119.722 713.912 121.248C714.159 121.435 714.282 121.622 714.282 121.808V123.088C715.142 125.228 715.632 127.308 715.752 129.328C716.119 129.208 716.362 128.965 716.482 128.598C716.789 127.065 717.095 125.735 717.402 124.608C717.709 123.475 718.015 122.478 718.322 121.618V120.148C719.115 117.948 719.605 115.992 719.792 114.278L720.522 111.708L721.992 105.828L722.362 102.898L723.092 100.328L723.462 99.2185V98.1185C723.889 96.9585 724.225 95.9018 724.472 94.9485C724.719 94.0018 724.872 93.1018 724.932 92.2485L725.662 89.6785L728.602 77.5585L729.702 71.6785L730.442 68.7485C731.115 66.9685 731.482 65.4985 731.542 64.3385L731.912 62.4985L732.642 59.5685C733.195 57.7952 733.562 56.3252 733.742 55.1585L734.112 53.6885L735.212 48.5485L735.952 46.3485V45.2485L737.052 42.3085V40.8385L737.412 39.7385L738.522 34.5985H763.482L762.022 41.9385L760.912 46.3485L760.552 47.4485L759.452 52.5885L758.712 55.5285L757.982 58.0985L756.512 65.4385L755.772 68.0085L754.302 74.9885L753.572 77.5585L753.202 78.6585L752.472 82.6985L752.102 83.4285L751.732 85.9985C751.125 88.0185 750.759 89.7352 750.632 91.1485L749.162 95.5485L748.802 98.1185L748.432 99.5885L748.062 100.688L747.702 103.258L747.332 104.358L745.132 113.538L744.762 116.108L744.022 118.678L742.192 126.028L741.822 128.598L739.622 137.778L738.522 142.918C737.849 144.752 737.479 146.342 737.412 147.688L735.952 152.468V153.928C735.279 155.768 734.909 157.362 734.842 158.709C734.235 160.729 733.869 162.442 733.742 163.848L733.012 166.418L732.642 167.148L732.272 169.718C731.665 171.738 731.299 173.452 731.172 174.858H704.002L703.632 171.928C703.205 170.888 702.962 170.032 702.902 169.358L702.162 166.418L701.802 163.848L701.062 161.278C700.882 160.545 700.729 159.842 700.602 159.168C700.482 158.495 700.392 157.852 700.332 157.238L699.962 155.768L699.592 153.928C699.352 153.628 699.232 153.262 699.232 152.828L698.862 150.998L698.492 149.898C698.312 149.098 698.159 148.378 698.032 147.738C697.912 147.092 697.822 146.465 697.762 145.858C697.335 144.692 697.012 143.618 696.792 142.638C696.579 141.658 696.412 140.772 696.292 139.979L695.922 138.508L695.552 136.678C695.312 135.945 695.145 135.242 695.052 134.568C694.959 133.895 694.882 133.252 694.822 132.638C694.395 131.412 694.059 130.248 693.812 129.148C693.565 128.048 693.412 127.008 693.352 126.028C693.105 125.722 692.982 125.355 692.982 124.928L692.622 123.458L692.252 122.358C692.065 121.072 691.822 119.845 691.522 118.678L690.782 115.378L690.412 113.178L689.682 111.338L688.952 106.928L688.582 105.828V104.729C687.969 103.262 687.602 101.915 687.482 100.688L686.742 96.2885L686.012 94.4485L685.272 91.5085V90.0385C684.539 88.0185 684.172 86.3052 684.172 84.8985C683.925 84.5918 683.802 84.2252 683.802 83.7985L683.442 82.6985V81.5985C682.829 80.1918 682.462 78.7218 682.342 77.1885C681.729 75.2285 681.359 73.3918 681.232 71.6785L680.502 73.1485L680.132 75.3585L679.032 80.1285L678.302 84.1685L677.932 85.2685L676.462 91.5085L676.092 92.9785L675.362 96.6485L674.992 98.1185L674.262 102.159L673.892 103.258L672.422 110.238L671.692 112.808L671.322 115.378C670.649 117.212 670.282 118.802 670.222 120.148L669.852 120.888L669.482 123.088L669.122 124.188L667.282 133.368L666.912 134.468L665.452 141.448L665.082 142.918L664.712 144.748L664.342 145.858L662.882 152.828L662.142 155.768L661.412 159.438L661.042 160.178L660.302 163.478L659.942 164.948L659.572 167.518C659.145 169.052 658.902 170.275 658.842 171.188C658.595 171.802 658.425 172.385 658.332 172.938C658.239 173.485 658.162 174.005 658.102 174.498C657.249 174.618 656.469 174.725 655.762 174.818C655.062 174.912 654.375 174.958 653.702 174.958H652.782C652.475 174.958 652.169 174.925 651.862 174.858H630.562V173.398C629.709 171.192 629.219 169.108 629.092 167.148C628.852 166.842 628.732 166.475 628.732 166.048L628.362 164.218C627.015 159.872 626.159 156.198 625.792 153.198L625.422 152.098L623.592 145.118L623.222 142.178L620.282 130.799V129.328C619.669 127.922 619.302 126.455 619.182 124.928L618.452 122.718L617.712 120.148V119.049L615.882 111.708V110.608L615.512 109.138L614.772 107.668L614.412 104.729C613.919 103.262 613.519 101.915 613.212 100.688C612.905 99.4685 612.692 98.3685 612.572 97.3885L612.202 96.2885V95.1785C611.962 94.8785 611.842 94.5118 611.842 94.0785L611.102 91.1485L610.732 90.0385C610.492 88.7585 610.265 87.5985 610.052 86.5585C609.832 85.5118 609.572 84.5918 609.272 83.7985L608.902 81.2285C608.475 80.0085 608.139 78.8752 607.892 77.8285C607.645 76.7885 607.492 75.8418 607.432 74.9885L607.062 73.1485C606.822 72.8418 606.702 72.4752 606.702 72.0485L604.862 64.7085L604.132 62.1385L603.762 60.2985L603.392 58.8285L603.022 56.2585C602.535 54.9718 602.292 53.8718 602.292 52.9585V52.5885L601.552 50.7485L601.192 49.2885C600.945 47.5085 600.579 46.0385 600.092 44.8785V43.4085C599.845 43.1018 599.722 42.7352 599.722 42.3085" fill="white"/>
<path d="M850.65 83.4298L851.75 85.6398C854.623 89.1865 856.46 92.8565 857.26 96.6498C857.507 98.2431 857.69 99.7298 857.81 101.11C857.93 102.483 857.99 103.69 857.99 104.73V153.2C860.257 157.666 863.563 160.36 867.91 161.28L867.17 162.38C866.923 162.806 866.68 163.05 866.44 163.11L866.07 164.22L865.34 164.95C864.727 166.296 863.99 167.396 863.13 168.25C862.277 170.516 861.177 172.233 859.83 173.4C859.277 174.62 858.757 175.673 858.27 176.56C857.777 177.446 857.317 178.226 856.89 178.9C849.73 177.066 844.1 173.763 840 168.99H838.9C831.007 174.683 822.867 177.53 814.48 177.53C809.953 177.53 805.487 176.763 801.08 175.23C787.92 170.516 779.963 161.95 777.21 149.53V149.07C777.21 125.383 791.07 113.54 818.79 113.54H819.07C819.623 113.3 820.237 113.18 820.91 113.18L822.01 112.81H824.58L825.68 112.44H826.78L835.96 111.34C836.08 110.666 836.14 110.053 836.14 109.5V107.67C836.14 97.4498 830.727 92.3398 819.9 92.3398C812.373 92.3398 802.06 94.8798 788.96 99.9598L787.49 96.6498L786.76 94.4498L786.02 93.7198L785.66 92.9798L784.92 90.7798C784.247 89.6798 783.757 88.5765 783.45 87.4698C782.17 85.7565 781.313 84.0431 780.88 82.3298L781.98 81.9698L782.72 81.5998L783.82 81.2298L784.55 80.4998H785.66C785.9 80.2531 786.113 80.1298 786.3 80.1298H786.39C788.597 78.9698 790.557 78.1131 792.27 77.5598L794.1 77.1898C795.447 76.5765 796.67 76.2098 797.77 76.0898L800.71 75.3598C802.85 74.4998 804.93 74.0098 806.95 73.8898L815.03 72.4198C816.257 72.2998 817.437 72.1931 818.57 72.0998C819.697 72.0065 820.813 71.9598 821.92 71.9598C833.607 71.9598 843.183 75.7831 850.65 83.4298ZM827.15 130.07H824.95C824.397 130.19 823.86 130.28 823.34 130.34C822.82 130.4 822.313 130.43 821.82 130.43H821.27L819.8 130.8H818.7C818.393 131.046 818.027 131.17 817.6 131.17H816.5L810.63 132.64H809.52C807.807 133.62 806.34 134.23 805.12 134.47C801.14 138.263 799.15 141.936 799.15 145.49C799.15 148.73 800.773 151.913 804.02 155.04C808.727 157.913 813.317 159.35 817.79 159.35C823.477 159.35 828.923 157.056 834.13 152.47C834.617 151.056 835.103 150.076 835.59 149.53L835.96 148.43L835.59 146.96V129.7H828.25C827.943 129.946 827.577 130.07 827.15 130.07Z" fill="white"/>
<path d="M975.599 92.2544V93.3544C976.393 94.8211 976.883 96.2877 977.069 97.7544V174.504H954.669V109.504L954.299 107.304C951.239 98.0644 946.099 93.4444 938.879 93.4444C936.679 93.4444 934.233 93.9044 931.539 94.8244C925.419 97.4511 921.013 101.611 918.319 107.304L916.849 113.544V174.504H894.819V74.2544H916.849V82.7044C923.703 76.5844 931.169 72.9111 939.249 71.6844H940.899C957.299 71.6844 968.866 78.5411 975.599 92.2544Z" fill="white"/>
<path d="M104 20H1V218H104V20Z" stroke="white" stroke-width="2" stroke-dasharray="10 10"/>
<path d="M199 20H106V218H199V20Z" stroke="white" stroke-width="2" stroke-dasharray="10 10"/>
<path d="M314 20H201V218H314V20Z" stroke="white" stroke-width="2" stroke-dasharray="10 10"/>
<path d="M423 20H316V218H423V20Z" stroke="white" stroke-width="2" stroke-dasharray="10 10"/>
<path d="M534.999 20H425V218H534.999V20Z" stroke="white" stroke-width="2" stroke-dasharray="10 10"/>
<path d="M584.999 20H536.999V218H584.999V20Z" stroke="white" stroke-width="2" stroke-dasharray="10 10"/>
<path d="M767.999 20H586.999V218H767.999V20Z" stroke="white" stroke-width="2" stroke-dasharray="10 10"/>
<path d="M878.999 20H769.999V218H878.999V20Z" stroke="white" stroke-width="2" stroke-dasharray="10 10"/>
<path d="M990.999 20H880.999V218H990.999V20Z" stroke="white" stroke-width="2" stroke-dasharray="10 10"/>
</g>
<defs>
<clipPath id="clip0_0_1">
<rect width="1540" height="940" fill="white"/>
</clipPath>
</defs>
</svg>
