<svg width="740" height="952" viewBox="0 0 740 952" fill="none" xmlns="http://www.w3.org/2000/svg">
<path d="M645 20L720 95V320V932H645H570V320V95L645 20Z" fill="white"/>
<path d="M20 395L70 345H545C558.807 345 570 333.807 570 320V470C570 456.193 558.807 445 545 445H70L20 395Z" fill="white"/>
<path d="M20 707C38.9145 686.745 65.3865 675.247 93.1 675.25H182.5L291.38 488.21C293.62 484.363 297.738 481.997 302.19 482H328.08C332.046 482.002 335.777 483.886 338.132 487.078C340.487 490.269 341.188 494.389 340.02 498.18L295 644.5V675.75H307.5L407.5 688.25L429.78 615.82C431.396 610.576 436.242 606.998 441.73 607H457.5C464.404 607 470 612.596 470 619.5V794.5C470 801.404 464.404 807 457.5 807H441.73C436.242 807.002 431.396 803.424 429.78 798.18L407.5 725.75L307.5 738.25H295V769.5L340.02 915.82C341.188 919.611 340.487 923.731 338.132 926.922C335.777 930.114 332.046 931.998 328.08 932H302.19C297.738 932.003 293.62 929.637 291.38 925.79L182.5 738.75H93.1C65.3865 738.753 38.9145 727.255 20 707Z" fill="white"/>
<path d="M470 482V576.318" stroke="#008000" stroke-width="2.48206"/>
<path d="M570 470V576.318" stroke="#008000" stroke-width="2.48206"/>
<path d="M470 556.462H570" stroke="#008000" stroke-width="2.48206"/>
<path d="M470 556.462L499.785 549.015V563.908L470 556.462Z" fill="#008000"/>
<path d="M569.785 556.462L540 549.015V563.908L569.785 556.462Z" fill="#008000"/>
<path d="M482.735 602.091V599.934L492.254 584.872H493.819V588.214H492.762L485.569 599.595V599.764H498.389V602.091H482.735ZM492.931 606.534V601.435V600.431V584.872H495.427V606.534H492.931ZM503.196 606.703C502.674 606.703 502.226 606.516 501.852 606.142C501.479 605.769 501.292 605.321 501.292 604.799C501.292 604.277 501.479 603.829 501.852 603.456C502.226 603.082 502.674 602.895 503.196 602.895C503.718 602.895 504.165 603.082 504.539 603.456C504.913 603.829 505.1 604.277 505.1 604.799C505.1 605.144 505.011 605.462 504.835 605.751C504.666 606.04 504.437 606.273 504.148 606.449C503.866 606.618 503.548 606.703 503.196 606.703ZM515.846 606.83C514.252 606.83 512.895 606.396 511.774 605.529C510.653 604.654 509.796 603.389 509.203 601.732C508.611 600.068 508.315 598.058 508.315 595.703C508.315 593.362 508.611 591.363 509.203 589.706C509.803 588.042 510.663 586.772 511.784 585.898C512.912 585.017 514.266 584.576 515.846 584.576C517.425 584.576 518.776 585.017 519.897 585.898C521.025 586.772 521.885 588.042 522.478 589.706C523.077 591.363 523.377 593.362 523.377 595.703C523.377 598.058 523.08 600.068 522.488 601.732C521.896 603.389 521.039 604.654 519.918 605.529C518.797 606.396 517.439 606.83 515.846 606.83ZM515.846 604.503C517.425 604.503 518.652 603.741 519.527 602.218C520.401 600.695 520.838 598.523 520.838 595.703C520.838 593.827 520.637 592.23 520.235 590.911C519.84 589.593 519.269 588.588 518.522 587.897C517.781 587.206 516.889 586.86 515.846 586.86C514.28 586.86 513.057 587.633 512.176 589.177C511.294 590.714 510.853 592.889 510.853 595.703C510.853 597.578 511.051 599.172 511.446 600.484C511.841 601.795 512.408 602.793 513.149 603.477C513.896 604.161 514.795 604.503 515.846 604.503ZM538.946 593.926L536.704 594.56C536.563 594.187 536.355 593.824 536.08 593.471C535.812 593.111 535.445 592.815 534.98 592.583C534.514 592.35 533.918 592.234 533.192 592.234C532.198 592.234 531.369 592.463 530.706 592.921C530.051 593.372 529.723 593.947 529.723 594.645C529.723 595.266 529.948 595.756 530.4 596.115C530.851 596.475 531.556 596.775 532.515 597.014L534.927 597.607C536.379 597.959 537.462 598.499 538.174 599.225C538.886 599.944 539.242 600.871 539.242 602.007C539.242 602.937 538.974 603.769 538.438 604.503C537.909 605.236 537.169 605.814 536.217 606.237C535.265 606.66 534.158 606.872 532.896 606.872C531.239 606.872 529.867 606.512 528.781 605.793C527.696 605.074 527.008 604.023 526.719 602.641L529.088 602.049C529.314 602.923 529.74 603.579 530.368 604.016C531.003 604.453 531.831 604.672 532.854 604.672C534.017 604.672 534.941 604.425 535.625 603.932C536.316 603.431 536.661 602.832 536.661 602.134C536.661 601.569 536.464 601.097 536.069 600.716C535.674 600.328 535.068 600.039 534.25 599.849L531.542 599.214C530.054 598.862 528.961 598.315 528.263 597.575C527.572 596.827 527.227 595.893 527.227 594.772C527.227 593.855 527.484 593.044 527.999 592.339C528.521 591.634 529.229 591.081 530.125 590.679C531.027 590.277 532.05 590.076 533.192 590.076C534.8 590.076 536.062 590.428 536.979 591.134C537.902 591.839 538.558 592.769 538.946 593.926ZM546.68 606.534L541.73 590.287H544.353L547.865 602.726H548.034L551.503 590.287H554.169L557.596 602.684H557.765L561.276 590.287H563.9L558.95 606.534H556.496L552.942 594.053H552.688L549.134 606.534H546.68Z" fill="#008000"/>
<path d="M20 482H114.318" stroke="#FF0000" stroke-width="2.48206"/>
<path d="M70 445H170" stroke="#FF0000" stroke-width="2.48206"/>
<path d="M94 482V445" stroke="#FF0000" stroke-width="2.48206"/>
<path d="M94.4462 482L87 511.785H101.892L94.4462 482Z" fill="#FF0000"/>
<path d="M94.4462 445L87 415.215H101.892L94.4462 445Z" fill="#FF0000"/>
<path d="M136.592 459.383V461.71H127.115V459.383H136.592ZM148.558 449.715V471.377H145.934V452.465H145.808L140.519 455.977V453.311L145.934 449.715H148.558ZM155.369 471.546C154.847 471.546 154.4 471.359 154.026 470.986C153.652 470.612 153.465 470.164 153.465 469.642C153.465 469.12 153.652 468.673 154.026 468.299C154.4 467.925 154.847 467.738 155.369 467.738C155.891 467.738 156.339 467.925 156.712 468.299C157.086 468.673 157.273 469.12 157.273 469.642C157.273 469.988 157.185 470.305 157.009 470.594C156.839 470.883 156.61 471.116 156.321 471.292C156.039 471.462 155.722 471.546 155.369 471.546ZM168.043 471.673C166.802 471.673 165.684 471.426 164.69 470.933C163.696 470.439 162.899 469.762 162.3 468.902C161.7 468.042 161.372 467.062 161.316 465.962H163.854C163.953 466.942 164.397 467.753 165.187 468.394C165.984 469.029 166.936 469.346 168.043 469.346C168.931 469.346 169.721 469.138 170.412 468.722C171.11 468.306 171.657 467.735 172.052 467.009C172.454 466.275 172.654 465.447 172.654 464.523C172.654 463.578 172.446 462.736 172.03 461.995C171.621 461.248 171.057 460.659 170.338 460.229C169.619 459.799 168.797 459.58 167.874 459.573C167.211 459.566 166.53 459.668 165.832 459.88C165.134 460.084 164.56 460.349 164.108 460.673L161.654 460.377L162.966 449.715H174.22V452.042H165.166L164.404 458.431H164.531C164.976 458.078 165.533 457.786 166.203 457.553C166.872 457.32 167.57 457.204 168.297 457.204C169.622 457.204 170.804 457.521 171.84 458.156C172.884 458.783 173.702 459.644 174.294 460.736C174.893 461.829 175.193 463.078 175.193 464.481C175.193 465.863 174.883 467.097 174.262 468.183C173.649 469.262 172.803 470.115 171.724 470.742C170.645 471.363 169.418 471.673 168.043 471.673ZM190.945 458.769L188.702 459.404C188.561 459.03 188.353 458.667 188.078 458.314C187.81 457.955 187.444 457.659 186.978 457.426C186.513 457.193 185.917 457.077 185.191 457.077C184.197 457.077 183.368 457.306 182.705 457.764C182.049 458.216 181.722 458.79 181.722 459.488C181.722 460.109 181.947 460.599 182.398 460.959C182.85 461.318 183.555 461.618 184.514 461.858L186.925 462.45C188.378 462.803 189.46 463.342 190.173 464.068C190.885 464.787 191.241 465.715 191.241 466.85C191.241 467.781 190.973 468.613 190.437 469.346C189.908 470.079 189.168 470.658 188.216 471.081C187.264 471.504 186.157 471.715 184.895 471.715C183.238 471.715 181.866 471.356 180.78 470.637C179.694 469.917 179.007 468.867 178.718 467.485L181.087 466.892C181.313 467.767 181.739 468.422 182.367 468.86C183.001 469.297 183.83 469.515 184.852 469.515C186.016 469.515 186.94 469.269 187.623 468.775C188.315 468.274 188.66 467.675 188.66 466.977C188.66 466.413 188.463 465.94 188.068 465.56C187.673 465.172 187.066 464.883 186.248 464.692L183.541 464.058C182.053 463.705 180.96 463.159 180.262 462.418C179.571 461.671 179.225 460.736 179.225 459.615C179.225 458.699 179.483 457.888 179.998 457.183C180.519 456.478 181.228 455.924 182.123 455.522C183.026 455.12 184.048 454.919 185.191 454.919C186.798 454.919 188.061 455.272 188.977 455.977C189.901 456.682 190.557 457.613 190.945 458.769ZM198.679 471.377L193.729 455.131H196.352L199.864 467.569H200.033L203.502 455.131H206.168L209.594 467.527H209.764L213.275 455.131H215.898L210.948 471.377H208.494L204.941 458.896H204.687L201.133 471.377H198.679Z" fill="#FF0000"/>
<rect x="21" y="483" width="448" height="448" stroke="white" stroke-width="2" stroke-dasharray="10 10"/>
</svg>
