<svg width="765" height="550" viewBox="0 0 765 550" fill="none" xmlns="http://www.w3.org/2000/svg">
<g clip-path="url(#clip0_0_1)">
<path d="M20 -469.5C20 -490.211 36.7893 -507 57.5 -507H707.5C728.211 -507 745 -490.211 745 -469.5V480.5C745 501.211 728.211 518 707.5 518H57.5C36.7893 518 20 501.211 20 480.5V-469.5Z" fill="white"/>
<path d="M38.75 -469.5C38.75 -479.855 47.1447 -488.25 57.5 -488.25H707.5C717.855 -488.25 726.25 -479.855 726.25 -469.5V480.5C726.25 490.855 717.855 499.25 707.5 499.25H57.5C47.1447 499.25 38.75 490.855 38.75 480.5V-469.5Z" fill="#0033A2"/>
<path d="M372 157.289L406.151 148.139L599.25 259.62C603.117 261.852 607.88 261.853 611.748 259.621C615.615 257.39 617.998 253.265 618 248.8V263.233V335.402V335.405C618.002 330.938 615.619 326.809 611.75 324.575L381.151 191.44L372 157.289Z" fill="white"/>
<path d="M655.5 -449.402L693 -411.902V-299.402V472.902H655.5H618V-299.402V-411.902L655.5 -449.402Z" fill="white"/>
<path d="M73.5195 41.189V30.169H124.189V41.189H104.909V100.489H92.7995V41.189" fill="white"/>
<path d="M166.909 56.4157L166.359 57.1557L165.809 57.7057L165.259 58.0757L164.519 59.1757L164.159 59.5457L163.789 59.7257C163.389 60.279 163.022 60.7057 162.689 61.0057L160.299 63.7657C155.219 60.4923 151.012 58.8557 147.679 58.8557C144.252 58.8557 141.729 60.5523 140.109 63.9457C140.169 65.939 140.962 67.409 142.489 68.3557C143.162 68.5357 143.652 68.719 143.959 68.9057C145.152 69.0857 146.132 69.329 146.899 69.6357C158.492 70.4957 164.979 75.149 166.359 83.5957C166.419 83.9623 166.449 84.319 166.449 84.6657C166.449 85.019 166.449 85.3657 166.449 85.7057C166.449 91.8523 163.849 96.4723 158.649 99.5657C154.915 101.246 151.165 102.086 147.399 102.086C140.239 102.086 133.095 99.0423 125.969 92.9557L126.339 92.2257L127.249 91.3057C127.862 90.5723 128.415 90.019 128.909 89.6457C129.029 89.4323 129.149 89.3123 129.269 89.2857L129.639 88.7357C129.759 88.5223 129.882 88.399 130.009 88.3657L130.189 87.9957L130.559 87.8157L132.949 85.0557C137.475 89.3423 142.215 91.4857 147.169 91.4857C149.249 91.4857 151.362 91.119 153.509 90.3857C154.055 89.6523 154.605 89.1023 155.159 88.7357C155.345 88.0023 155.439 87.3123 155.439 86.6657C155.439 85.0723 154.919 83.7423 153.879 82.6757L149.649 81.2057C137.042 80.439 130.189 75.0523 129.089 65.0457C129.915 54.979 135.605 49.5957 146.159 48.8957H146.809C154.915 48.8957 161.615 51.4023 166.909 56.4157Z" fill="white"/>
<path d="M179.287 86.1643V50.3643H190.307V82.1243C190.427 82.2776 190.487 82.4609 190.487 82.6743C190.614 82.7676 190.677 82.8576 190.677 82.9443V83.0443C190.89 84.4176 191.194 85.6409 191.587 86.7143C193.7 89.6476 196.41 91.1143 199.717 91.1143H199.857C203.957 90.0143 206.83 87.7509 208.477 84.3243V83.7743L209.217 81.5743V50.3643H220.417V100.484H209.217V96.4443C204.81 100.051 200.42 101.854 196.047 101.854C192.647 101.854 189.204 100.784 185.717 98.6443C182.87 96.4709 180.91 93.9009 179.837 90.9343L179.657 89.6443C179.384 88.7576 179.247 87.8876 179.247 87.0343V86.6243C179.247 86.4709 179.26 86.3176 179.287 86.1643Z" fill="white"/>
<path d="M278.836 70.9328L279.016 73.6828C279.136 73.8361 279.196 74.0195 279.196 74.2328V79.7428H245.606C246.306 85.9828 249.486 89.6561 255.146 90.7628C256.066 90.8495 256.969 90.8928 257.856 90.8928C262.476 90.8928 266.409 89.3794 269.656 86.3528C270.049 87.0261 270.539 87.5761 271.126 88.0028L271.306 88.5528L271.856 89.1028C272.283 89.5028 272.649 89.8795 272.956 90.2328C273.263 90.5861 273.509 90.9461 273.696 91.3128C273.909 91.4328 274.029 91.5528 274.056 91.6728L276.626 94.6128C270.813 99.4795 264.616 101.913 258.036 101.913C256.909 101.913 255.763 101.836 254.596 101.683C253.436 101.529 252.273 101.316 251.106 101.043C240.519 97.5228 234.706 89.9328 233.666 78.2728C233.666 78.1195 233.659 77.8128 233.646 77.3528C233.633 76.8995 233.626 76.6095 233.626 76.4828C233.626 60.5428 240.799 51.4695 255.146 49.2628C269.406 49.7561 277.303 56.9795 278.836 70.9328ZM245.416 71.1128H267.636V70.5628C267.509 70.1961 267.446 69.8295 267.446 69.4628V69.0928C267.139 68.4195 266.956 67.8095 266.896 67.2628C264.636 62.0295 260.903 59.3961 255.696 59.3628C249.149 60.9228 245.723 64.8395 245.416 71.1128Z" fill="white"/>
<path d="M332.05 59.1756V59.7256C332.45 60.4589 332.697 61.1922 332.79 61.9256V100.296H321.59V67.8056L321.4 66.7056C319.874 62.0789 317.304 59.7656 313.69 59.7656C312.59 59.7656 311.367 59.9956 310.02 60.4556C306.96 61.7756 304.757 63.8589 303.41 66.7056L302.68 69.8256V100.296H291.66V50.1756H302.68V54.3956C306.107 51.3356 309.84 49.5022 313.88 48.8956H314.7C322.9 48.8956 328.684 52.3222 332.05 59.1756Z" fill="white"/>
<path d="M371.191 30.7227V30.3527H383.861L384.041 31.6427L384.231 32.1927L384.591 33.4827L384.961 35.6827L385.511 37.5127L385.881 39.7227L386.431 41.5527L386.611 43.0227C386.825 43.5427 386.948 43.9727 386.981 44.3127L387.161 45.0427L387.531 46.1427V46.8827C387.651 46.976 387.711 47.066 387.711 47.1527V47.8027C388.051 48.476 388.238 49.2093 388.271 50.0027L388.631 51.1027L389.001 52.3927L389.371 54.5927L389.921 56.4227L390.101 57.5327L391.201 62.1227C391.295 62.5493 391.381 62.9393 391.461 63.2927C391.535 63.6393 391.571 63.9827 391.571 64.3227L391.941 65.0527V65.7927L392.301 66.7127V67.4427L392.671 68.1727V68.9127C393.011 69.8327 393.195 70.6293 393.221 71.3027L393.411 72.0327C393.625 72.646 393.791 73.2127 393.911 73.7327C394.031 74.2527 394.108 74.726 394.141 75.1527L394.511 76.6227L394.881 77.9027L395.241 76.8027L395.981 73.1327L396.341 72.2127L396.531 71.1127L397.081 68.5427L397.451 67.2627V66.7127L398.181 63.7727L398.361 62.6727L398.731 61.9327L398.911 61.2027L399.101 60.2827V59.5527L399.281 58.9927L400.021 56.0627L400.381 53.8527L400.571 53.1227L400.931 52.3927C400.998 51.4127 401.181 50.5527 401.481 49.8127L401.671 48.9027V48.3527L402.041 46.8827L402.221 46.3327L402.771 43.9427L402.951 42.8427L403.321 41.7427L403.501 40.8227L404.051 38.4327L404.241 37.5127L404.421 37.1527C404.455 36.8127 404.495 36.4827 404.541 36.1627C404.588 35.8427 404.671 35.5593 404.791 35.3127L404.971 34.7627V34.2127L405.161 33.4827L405.341 32.9227L405.891 30.3527H419.481V30.9027C419.908 31.976 420.151 33.0193 420.211 34.0327L420.581 35.4927L420.761 36.0527L421.501 39.3527L421.861 40.8227C422.108 41.7093 422.231 42.4427 422.231 43.0227C422.445 43.5427 422.568 43.9727 422.601 44.3127L422.961 45.5927L423.151 46.8827L423.331 47.6127L423.521 48.1627C423.608 48.5627 423.685 48.9227 423.751 49.2427C423.811 49.5627 423.855 49.876 423.881 50.1827C424.128 50.7627 424.298 51.2993 424.391 51.7927C424.485 52.2793 424.561 52.7227 424.621 53.1227L424.801 54.2227L425.171 55.1427L425.351 56.2427V56.7927C425.658 57.526 425.841 58.1993 425.901 58.8127L426.091 59.9127C426.391 60.646 426.575 61.3193 426.641 61.9327L426.821 62.8527L427.371 64.8727V65.6027C427.491 65.8827 427.551 66.1893 427.551 66.5227C427.891 67.2293 428.078 67.8427 428.111 68.3627L428.291 69.2827L428.471 70.3827L428.661 71.1127C428.968 72.0593 429.151 72.916 429.211 73.6827C429.331 73.776 429.391 73.8693 429.391 73.9627V74.6027C429.818 75.676 430.065 76.716 430.131 77.7227C430.311 77.6627 430.431 77.5393 430.491 77.3527C430.645 76.5927 430.798 75.9293 430.951 75.3627C431.105 74.796 431.258 74.2993 431.411 73.8727V73.1327C431.811 72.0327 432.055 71.0527 432.141 70.1927L432.511 68.9127L433.251 65.9727L433.431 64.5027L433.801 63.2227L433.981 62.6727V62.1227C434.195 61.536 434.365 61.006 434.491 60.5327C434.611 60.0593 434.685 59.6093 434.711 59.1827L435.081 57.8927L436.551 51.8327L437.101 48.9027L437.471 47.4327C437.805 46.546 437.988 45.8127 438.021 45.2327L438.201 44.3127L438.571 42.8427C438.845 41.956 439.028 41.2227 439.121 40.6427L439.301 39.9027L439.861 37.3327L440.221 36.2327V35.6827L440.771 34.2127V33.4827L440.961 32.9227L441.511 30.3527H453.991L453.261 34.0327L452.711 36.2327L452.521 36.7827L451.971 39.3527L451.611 40.8227L451.241 42.1027L450.501 45.7827L450.141 47.0627L449.401 50.5527L449.041 51.8327L448.851 52.3927L448.481 54.4027L448.301 54.7727L448.121 56.0627C447.815 57.0693 447.631 57.926 447.571 58.6327L446.831 60.8327L446.651 62.1227L446.461 62.8527L446.281 63.4027L446.101 64.6927L445.911 65.2427L444.811 69.8327L444.631 71.1127L444.261 72.4027L443.341 76.0727L443.161 77.3527L442.061 81.9427L441.511 84.5127C441.171 85.4327 440.988 86.2293 440.961 86.9027L440.221 89.2927V90.0227C439.888 90.9427 439.705 91.7393 439.671 92.4127C439.365 93.4193 439.181 94.276 439.121 94.9827L438.751 96.2627L438.571 96.6327L438.391 97.9227C438.085 98.9293 437.901 99.786 437.841 100.493H424.251L424.071 99.0227C423.858 98.5027 423.735 98.0727 423.701 97.7327L423.331 96.2627L423.151 94.9827L422.781 93.6927C422.688 93.326 422.611 92.976 422.551 92.6427C422.491 92.3027 422.445 91.9793 422.411 91.6727L422.231 90.9427L422.051 90.0227C421.925 89.8693 421.861 89.686 421.861 89.4727L421.681 88.5527L421.501 88.0027C421.408 87.6093 421.331 87.2493 421.271 86.9227C421.205 86.6027 421.158 86.2893 421.131 85.9827C420.918 85.4027 420.758 84.8693 420.651 84.3827C420.545 83.8893 420.458 83.446 420.391 83.0527L420.211 82.3127L420.031 81.3927C419.905 81.026 419.818 80.676 419.771 80.3427C419.731 80.0027 419.695 79.6793 419.661 79.3727C419.448 78.766 419.281 78.186 419.161 77.6327C419.035 77.0793 418.958 76.5593 418.931 76.0727C418.805 75.9193 418.741 75.736 418.741 75.5227L418.561 74.7827L418.381 74.2327C418.288 73.5927 418.165 72.9827 418.011 72.4027L417.641 70.7427L417.461 69.6427L417.091 68.7327L416.721 66.5227L416.541 65.9727V65.4227C416.235 64.6893 416.051 64.016 415.991 63.4027L415.621 61.2027L415.251 60.2827L414.891 58.8127V58.0827C414.525 57.0693 414.341 56.2127 414.341 55.5127C414.215 55.3593 414.151 55.176 414.151 54.9627L413.971 54.4027V53.8527C413.665 53.1527 413.481 52.4193 413.421 51.6527C413.115 50.6727 412.931 49.756 412.871 48.9027L412.501 49.6327L412.321 50.7327L411.771 53.1227L411.401 55.1427L411.211 55.6927L410.481 58.8127L410.301 59.5527L409.931 61.3827L409.751 62.1227L409.381 64.1427L409.201 64.6927L408.461 68.1727L408.091 69.4627L407.911 70.7427C407.578 71.6627 407.395 72.4593 407.361 73.1327L407.181 73.5027L406.991 74.6027L406.811 75.1527L405.891 79.7427L405.711 80.2927L404.971 83.7827L404.791 84.5127L404.611 85.4327L404.421 85.9827L403.691 89.4727L403.321 90.9427L402.951 92.7827L402.771 93.1427L402.401 94.8027L402.221 95.5327L402.041 96.8127C401.821 97.5793 401.698 98.1927 401.671 98.6527C401.545 98.9593 401.461 99.2493 401.421 99.5227C401.375 99.8027 401.335 100.063 401.301 100.303C400.875 100.369 400.485 100.423 400.131 100.463C399.778 100.509 399.435 100.533 399.101 100.533H398.641C398.488 100.533 398.335 100.519 398.181 100.493H387.531V99.7527C387.105 98.6527 386.861 97.6127 386.801 96.6327C386.675 96.4793 386.611 96.296 386.611 96.0827L386.431 95.1627C385.758 92.9893 385.328 91.1527 385.141 89.6527L384.961 89.1027L384.041 85.6227L383.861 84.1527L382.391 78.4627V77.7227C382.085 77.0227 381.901 76.2893 381.841 75.5227L381.471 74.4227L381.111 73.1327V72.5827L380.191 68.9127V68.3627L380.001 67.6227L379.641 66.8927L379.451 65.4227C379.211 64.6893 379.015 64.016 378.861 63.4027C378.708 62.7893 378.601 62.2393 378.541 61.7527L378.351 61.2027V60.6527C378.231 60.4993 378.171 60.316 378.171 60.1027L377.801 58.6327L377.621 58.0827C377.495 57.436 377.378 56.8527 377.271 56.3327C377.165 55.8127 377.035 55.356 376.881 54.9627L376.701 53.6727C376.488 53.0593 376.318 52.4927 376.191 51.9727C376.071 51.4527 375.995 50.9793 375.961 50.5527L375.781 49.6327C375.661 49.4793 375.601 49.296 375.601 49.0827L374.681 45.4127L374.311 44.1227L374.131 43.2127L373.951 42.4727L373.761 41.1927C373.515 40.546 373.391 39.9927 373.391 39.5327V39.3527L373.031 38.4327L372.841 37.7027C372.721 36.816 372.538 36.0793 372.291 35.4927V34.7627C372.171 34.6093 372.111 34.426 372.111 34.2127" fill="white"/>
<path d="M497.565 54.7734L498.125 55.8734C499.559 57.6534 500.475 59.4901 500.875 61.3834C500.995 62.1767 501.085 62.9201 501.145 63.6134C501.212 64.3001 501.245 64.9034 501.245 65.4234V89.6534C502.372 91.8934 504.022 93.2401 506.195 93.6934L505.835 94.2434C505.709 94.4634 505.585 94.5867 505.465 94.6134L505.285 95.1634L504.915 95.5334C504.609 96.2067 504.242 96.7567 503.815 97.1834C503.382 98.3167 502.829 99.1734 502.155 99.7534C501.882 100.367 501.622 100.897 501.375 101.343C501.135 101.783 500.909 102.173 500.695 102.513C497.115 101.593 494.299 99.9401 492.245 97.5534H491.695C487.749 100.4 483.679 101.823 479.485 101.823C477.219 101.823 474.985 101.44 472.785 100.673C466.205 98.3201 462.229 94.0367 460.855 87.8234V87.5934C460.855 75.7534 467.785 69.8334 481.645 69.8334H481.785C482.059 69.7067 482.362 69.6434 482.695 69.6434L483.245 69.4634H484.535L485.085 69.2834H485.635L490.225 68.7334C490.285 68.3934 490.315 68.0867 490.315 67.8134V66.8934C490.315 61.7801 487.609 59.2234 482.195 59.2234C478.429 59.2234 473.272 60.4934 466.725 63.0334L465.995 61.3834L465.625 60.2834L465.255 59.9134L465.075 59.5534L464.705 58.4434C464.372 57.8967 464.129 57.3467 463.975 56.7934C463.329 55.9401 462.899 55.0834 462.685 54.2234L463.235 54.0434L463.605 53.8534L464.155 53.6734L464.525 53.3034H465.075C465.195 53.1834 465.302 53.1234 465.395 53.1234H465.445C466.545 52.5434 467.522 52.1134 468.375 51.8334L469.295 51.6534C469.969 51.3467 470.582 51.1634 471.135 51.1034L472.605 50.7334C473.672 50.3067 474.712 50.0634 475.725 50.0034L479.765 49.2634C480.372 49.2034 480.959 49.1501 481.525 49.1034C482.092 49.0567 482.652 49.0334 483.205 49.0334C489.045 49.0334 493.832 50.9467 497.565 54.7734ZM485.815 78.0934H484.715C484.442 78.1534 484.175 78.2001 483.915 78.2334C483.655 78.2601 483.402 78.2734 483.155 78.2734H482.885L482.145 78.4634H481.595C481.442 78.5834 481.259 78.6434 481.045 78.6434H480.495L477.555 79.3734H477.005C476.152 79.8667 475.419 80.1734 474.805 80.2934C472.819 82.1934 471.825 84.0301 471.825 85.8034C471.825 87.4234 472.635 89.0134 474.255 90.5734C476.609 92.0134 478.902 92.7334 481.135 92.7334C483.982 92.7334 486.705 91.5867 489.305 89.2934C489.552 88.5867 489.799 88.0967 490.045 87.8234L490.225 87.2734L490.045 86.5334V77.9034H486.375C486.222 78.0301 486.035 78.0934 485.815 78.0934Z" fill="white"/>
<path d="M560.05 59.1756V59.7256C560.45 60.4589 560.697 61.1922 560.79 61.9256V100.296H549.59V67.8056L549.4 66.7056C547.874 62.0789 545.304 59.7656 541.69 59.7656C540.59 59.7656 539.367 59.9956 538.02 60.4556C534.96 61.7756 532.757 63.8589 531.41 66.7056L530.68 69.8256V100.296H519.66V50.1756H530.68V54.3956C534.107 51.3356 537.84 49.5022 541.88 48.8956H542.7C550.9 48.8956 556.684 52.3222 560.05 59.1756Z" fill="white"/>
<path d="M123.5 24.1386H73V122.139H123.5V24.1386Z" stroke="white" stroke-width="2" stroke-dasharray="5 5"/>
<path d="M171 24.1386H125.5V122.139H171V24.1386Z" stroke="white" stroke-width="2" stroke-dasharray="5 5"/>
<path d="M228.5 24.1386H173V122.139H228.5V24.1386Z" stroke="white" stroke-width="2" stroke-dasharray="5 5"/>
<path d="M283 24.1386H230.5V122.139H283V24.1386Z" stroke="white" stroke-width="2" stroke-dasharray="5 5"/>
<path d="M339 24.1386H285V122.139H339V24.1386Z" stroke="white" stroke-width="2" stroke-dasharray="5 5"/>
<path d="M364 24.1386H341V122.139H364V24.1386Z" stroke="white" stroke-width="2" stroke-dasharray="5 5"/>
<path d="M455.5 24.1386H366V122.139H455.5V24.1386Z" stroke="white" stroke-width="2" stroke-dasharray="5 5"/>
<path d="M511 24.1386H457.5V122.139H511V24.1386Z" stroke="white" stroke-width="2" stroke-dasharray="5 5"/>
<path d="M567 24.1386H513V122.139H567V24.1386Z" stroke="white" stroke-width="2" stroke-dasharray="5 5"/>
<path d="M71.9999 293.353C85.2539 289.311 99.5911 290.95 111.591 297.88L150.302 320.23L244.208 266.465C246.139 265.36 248.512 265.364 250.438 266.475L261.649 272.945C263.366 273.937 264.511 275.685 264.734 277.655C264.957 279.626 264.231 281.585 262.779 282.935L206.703 335.04L198.891 348.572L204.304 351.697L244.48 382.109L272.238 356.317C274.249 354.45 277.242 354.114 279.618 355.487L286.446 359.422C287.882 360.25 288.931 361.616 289.36 363.217C289.79 364.819 289.565 366.526 288.736 367.962L244.986 443.745C244.156 445.179 242.789 446.226 241.188 446.653C239.586 447.081 237.88 446.855 236.446 446.025L229.618 442.09C227.24 440.718 226.035 437.955 226.648 435.28L235.105 398.347L188.679 378.76L183.266 375.635L175.453 389.167L158.369 463.781C157.927 465.716 156.593 467.326 154.774 468.119C152.955 468.912 150.867 468.794 149.149 467.801L137.938 461.331C136.014 460.217 134.825 458.165 134.818 455.941L134.427 347.726L95.7156 325.376C83.7145 318.449 75.1263 306.853 71.9999 293.353Z" fill="white"/>
<path d="M116.163 194.804V185.694H169.153V194.804H116.163ZM109.303 212.914V204.024H176.573V212.914H109.303ZM93.8825 231.814V222.594H191.763V231.814H93.8825ZM107.723 169.714V161.164H146.873V169.714H107.723ZM137.763 166.904V161.164H149.353C151.753 164.237 154.659 167.217 158.073 170.104C161.486 172.997 165.253 175.68 169.373 178.154C173.499 180.627 177.813 182.841 182.313 184.794C186.813 186.741 191.349 188.391 195.923 189.744C195.103 190.344 194.166 191.131 193.113 192.104C192.066 193.077 191.053 194.091 190.073 195.144C189.099 196.191 188.313 197.164 187.713 198.064C181.713 195.891 175.789 193.191 169.943 189.964C164.089 186.737 158.669 183.157 153.683 179.224C148.696 175.284 144.403 171.177 140.803 166.904H137.763ZM135.293 162.294L144.963 166.004C141.289 170.951 136.826 175.524 131.573 179.724C126.326 183.924 120.719 187.637 114.753 190.864C108.793 194.091 102.776 196.904 96.7025 199.304C96.1758 198.55 95.4625 197.651 94.5625 196.604C93.6625 195.551 92.7258 194.517 91.7525 193.504C90.7792 192.497 89.9158 191.694 89.1625 191.094C95.3158 189.214 101.316 186.851 107.163 184.004C113.016 181.151 118.359 177.887 123.193 174.214C128.033 170.541 132.066 166.567 135.293 162.294ZM137.093 229.004V189.854H148.003V229.004H137.093ZM93.1025 149.574V139.794H192.553V149.574H93.1025ZM117.063 158.914V131.244H127.643V158.914H117.063ZM157.343 159.474V131.244H167.913V159.474" fill="white"/>
<path d="M279.428 139.006V133.496H299.108V139.006H279.428ZM278.748 157.346V151.946H299.898V157.346H278.748ZM278.748 165.776V160.496H299.898V165.776H278.748ZM262.328 219.106V212.246H319.358V219.106H262.328ZM275.488 148.456V142.496H302.488V148.456H275.488ZM293.148 174.666H285.158V181.076H293.148V174.666ZM278.518 186.256V169.496H300.008V186.256H278.518ZM264.238 207.516V201.106H310.918V196.266H257.258V189.856H320.828V207.516H264.238ZM260.408 187.826V162.296H267.498V187.826H260.408ZM250.178 166.226L249.388 159.366C252.688 159.22 256.381 159.07 260.468 158.916C264.554 158.77 268.884 158.583 273.458 158.356V164.546C269.258 164.92 265.191 165.22 261.257 165.446C257.317 165.666 253.624 165.926 250.178 166.226ZM261.198 201.106H271.097C270.197 204.706 269.224 208.456 268.178 212.356C267.124 216.256 266.148 219.63 265.248 222.476L255.688 221.126C256.734 218.353 257.748 215.146 258.728 211.506C259.701 207.873 260.524 204.406 261.198 201.106ZM315.988 213.366V212.246H325.998C325.998 212.246 325.961 212.75 325.888 213.756C325.814 214.77 325.664 215.616 325.438 216.296C324.384 220.943 323.294 224.596 322.168 227.256C321.048 229.923 319.738 231.856 318.238 233.056C316.964 233.956 315.594 234.573 314.128 234.906C312.668 235.246 310.924 235.453 308.898 235.526C307.171 235.606 304.714 235.626 301.528 235.586C298.341 235.546 294.948 235.453 291.348 235.306C291.274 234.106 290.974 232.756 290.448 231.256C289.921 229.756 289.284 228.406 288.538 227.206C292.064 227.58 295.478 227.803 298.778 227.876C302.078 227.956 304.401 227.996 305.748 227.996C306.948 227.996 307.921 227.956 308.668 227.876C309.421 227.803 310.061 227.58 310.588 227.206C311.634 226.38 312.591 224.896 313.458 222.756C314.318 220.623 315.161 217.493 315.988 213.366ZM268.847 170.276L274.248 169.046C274.848 170.92 275.428 172.98 275.988 175.226C276.554 177.48 276.988 179.43 277.288 181.076L271.438 182.656C271.284 180.93 270.964 178.923 270.478 176.636C269.991 174.35 269.447 172.23 268.847 170.276ZM268.507 154.976L273.347 153.176C274.321 155.056 275.221 157.156 276.048 159.476C276.874 161.803 277.438 163.83 277.738 165.556L272.448 167.576C272.221 165.856 271.734 163.833 270.988 161.506C270.234 159.18 269.407 157.003 268.507 154.976ZM250.508 146.096L254.108 140.696C256.288 142.116 258.424 143.746 260.518 145.586C262.624 147.426 264.201 149.02 265.248 150.366L261.198 156.556C260.071 154.983 258.498 153.22 256.478 151.266C254.451 149.32 252.461 147.596 250.508 146.096ZM261.198 130.906L267.608 134.056C266.108 136.53 264.608 139.043 263.108 141.596C261.608 144.143 260.184 146.28 258.838 148.006L253.888 145.416C255.088 143.47 256.401 141.09 257.828 138.276C259.248 135.463 260.371 133.006 261.198 130.906ZM268.398 140.246L274.698 143.846C272.224 147.22 269.581 150.78 266.768 154.526C263.954 158.28 261.311 161.43 258.838 163.976L254.108 161.056C255.688 159.183 257.378 157.046 259.178 154.646C260.978 152.246 262.681 149.77 264.288 147.216C265.901 144.67 267.271 142.346 268.398 140.246ZM252.988 168.596L259.628 170.056C258.948 172.983 258.121 175.906 257.148 178.826C256.174 181.753 255.124 184.266 253.998 186.366C253.324 185.92 252.348 185.413 251.068 184.846C249.794 184.286 248.748 183.82 247.928 183.446C249.201 181.346 250.248 179 251.068 176.406C251.894 173.82 252.534 171.216 252.988 168.596ZM312.388 187.826V162.296H319.588V187.826H312.388ZM302.038 166.226L301.358 159.366C304.811 159.22 308.694 159.07 313.008 158.916C317.321 158.77 321.914 158.62 326.788 158.466L326.668 164.656C322.248 164.956 317.954 165.236 313.788 165.496C309.628 165.763 305.711 166.006 302.038 166.226ZM321.158 170.276L326.898 168.596C327.871 170.843 328.828 173.316 329.768 176.016C330.701 178.716 331.358 181.043 331.738 182.996L325.778 184.906C325.478 182.953 324.878 180.59 323.978 177.816C323.078 175.043 322.138 172.53 321.158 170.276ZM320.258 154.756L325.548 152.396C326.821 154.343 328.001 156.496 329.088 158.856C330.181 161.223 330.951 163.306 331.398 165.106L325.658 167.696C325.284 165.896 324.591 163.776 323.578 161.336C322.564 158.896 321.458 156.703 320.258 154.756ZM301.588 145.866L305.408 140.806C307.361 142.153 309.311 143.71 311.258 145.476C313.211 147.236 314.711 148.83 315.758 150.256L311.378 156.106C310.398 154.606 308.991 152.88 307.158 150.926C305.318 148.98 303.461 147.293 301.588 145.866ZM312.608 131.016L319.028 134.276C317.448 136.756 315.871 139.25 314.298 141.756C312.724 144.27 311.224 146.426 309.798 148.226L304.848 145.646C306.121 143.693 307.508 141.31 309.008 138.496C310.508 135.683 311.708 133.19 312.608 131.016ZM320.598 139.796L326.898 143.396C324.351 146.77 321.578 150.33 318.578 154.076C315.578 157.83 312.728 160.98 310.028 163.526L305.408 160.606C307.134 158.733 308.934 156.596 310.808 154.196C312.688 151.796 314.488 149.32 316.208 146.766C317.934 144.22 319.398 141.896 320.598 139.796ZM304.848 168.596L311.378 170.166C310.851 172.94 310.101 175.77 309.128 178.656C308.148 181.55 307.098 184.006 305.978 186.026C305.378 185.653 304.478 185.146 303.278 184.506C302.078 183.873 301.028 183.37 300.128 182.996C301.321 180.896 302.294 178.606 303.048 176.126C303.794 173.653 304.394 171.143 304.848 168.596ZM228.348 139.676L234.538 132.706C236.411 133.68 238.378 134.86 240.438 136.246C242.504 137.633 244.438 139.02 246.238 140.406C248.038 141.8 249.501 143.133 250.628 144.406L244.208 152.276C243.161 151.003 241.754 149.616 239.988 148.116C238.228 146.616 236.334 145.136 234.308 143.676C232.288 142.21 230.301 140.876 228.348 139.676ZM225.988 169.716L231.838 162.406C233.784 163.306 235.828 164.413 237.968 165.726C240.108 167.04 242.094 168.35 243.928 169.656C245.768 170.97 247.288 172.226 248.488 173.426L242.298 181.526C241.171 180.326 239.691 179.016 237.858 177.596C236.018 176.17 234.048 174.763 231.948 173.376C229.848 171.99 227.861 170.77 225.988 169.716ZM237.798 234.296L228.238 228.896C229.664 225.896 231.181 222.406 232.788 218.426C234.401 214.453 236.051 210.253 237.738 205.826C239.431 201.406 240.988 197.056 242.408 192.776L250.848 198.176C249.648 202.156 248.298 206.246 246.798 210.446C245.298 214.646 243.798 218.77 242.298 222.816C240.798 226.87 239.298 230.696 237.798 234.296Z" fill="white"/>
<path d="M208.5 124.139H73V264.639H208.5V124.139Z" stroke="white" stroke-width="2" stroke-dasharray="5 5"/>
<path d="M346 124.139H210.5V264.639H346V124.139Z" stroke="white" stroke-width="2" stroke-dasharray="5 5"/>
</g>
<defs>
<clipPath id="clip0_0_1">
<rect width="765" height="550" fill="white"/>
</clipPath>
</defs>
</svg>
