<svg width="186" height="175" viewBox="0 0 186 175" fill="none" xmlns="http://www.w3.org/2000/svg">
<path d="M20 45H166V145H20V45Z" fill="white"/>
<path d="M26.25 51.25H159.75V138.75H26.25V51.25Z" fill="black"/>
<path d="M144.123 74.6966C144.89 77.1099 145.273 79.4332 145.273 81.6666C145.273 87.6999 142.383 92.4132 136.603 95.8066C142.597 99.7266 145.84 104.867 146.333 111.227C146.36 111.413 146.373 111.607 146.373 111.807C146.373 112.007 146.373 112.197 146.373 112.377C146.373 117.977 144.463 122.55 140.643 126.097C134.797 131.09 128.553 133.587 121.913 133.587C119.007 133.587 116.07 133.11 113.103 132.157C103.797 129.223 98.2866 123.41 96.5732 114.717V113.897C96.5732 105.757 99.8166 99.8499 106.303 96.1766C100.617 91.9499 97.7732 86.9299 97.7732 81.1166C97.7732 79.5899 97.9866 77.9399 98.4132 76.1666C101.653 67.4466 108.383 62.4266 118.603 61.1066C118.977 61.0799 119.337 61.0666 119.683 61.0666C120.037 61.0666 120.383 61.0666 120.723 61.0666C131.89 61.0666 139.69 65.6099 144.123 74.6966ZM109.793 82.7266V83.6866C111.787 89.1066 115.413 91.8166 120.673 91.8166C121.133 91.8166 121.6 91.7932 122.073 91.7466C122.547 91.6999 123.043 91.6466 123.563 91.5866C129.657 90.6999 132.9 87.5166 133.293 82.0366C132.527 75.2766 128.52 71.8966 121.273 71.8966C121.027 71.8966 120.773 71.8966 120.513 71.8966C120.253 71.8966 119.987 71.9099 119.713 71.9366C113.1 73.1632 109.793 76.7599 109.793 82.7266ZM108.693 112.887C109.98 119.553 113.973 122.887 120.673 122.887C121.007 122.887 121.337 122.88 121.663 122.867C121.983 122.853 122.31 122.83 122.643 122.797C129.99 122.31 133.907 118.7 134.393 111.967C133.2 104.867 128.84 101.317 121.313 101.317H120.443C112.977 102.263 109.06 106.12 108.693 112.887Z" fill="white"/>
<path d="M152.5 56H89.5V154H152.5V56Z" stroke="white" stroke-width="2" stroke-dasharray="5 5"/>
<path d="M32.5 57H44.1662V61.1663H36.6662V67.4163H42.5V71.5838H36.6662V77.8338H44.1662V82H32.5V57Z" fill="white"/>
<path d="M47.5 57H51.9137L53.75 62.2463L55.585 57H60L55.625 69.5L60 82H55.585L53.75 76.76L51.9137 82H47.5L51.875 69.5L47.5 57Z" fill="white"/>
<path d="M64.2876 57H67.5001V82H64.2876V57Z" fill="white"/>
<path d="M70.8338 57H82.5001V61.1663H78.7501V82H74.5838V61.1663H70.8338V57Z" fill="white"/>
<path d="M62.5 92V103.666H74.1662V97H80.8337V110.334H62.5V122H75.8337V115.334H82.5V132H75.8337V128.666H39.1662V132H32.5V115.334H39.1662V122H52.5V110.334H34.1662V97H40.8337V103.666H52.5V92H62.5Z" fill="white"/>
<path d="M82.5 55.9088V13.5459" stroke="#46C147" stroke-width="1.11481"/>
<path d="M88.5 53.9088V13.5459" stroke="#46C147" stroke-width="1.11481"/>
<path d="M88.5 22.4644H82.5" stroke="#46C147" stroke-width="1.11481"/>
<path d="M88.5 22.4644L101.878 25.8088V19.12L88.5 22.4644Z" fill="#46C147"/>
<path d="M82.5 22.4644L69.1222 25.8088V19.12L82.5 22.4644Z" fill="#46C147"/>
<path d="M75.1806 10.133C74.4648 10.133 73.8551 9.93824 73.3516 9.54869C72.848 9.15597 72.4632 8.58748 72.1972 7.84322C71.9311 7.09578 71.7981 6.19316 71.7981 5.13536C71.7981 4.08389 71.9311 3.18602 72.1972 2.44175C72.4664 1.69432 72.8527 1.12424 73.3563 0.731526C73.863 0.335641 74.4711 0.137698 75.1806 0.137698C75.89 0.137698 76.4965 0.335641 77 0.731526C77.5068 1.12424 77.8932 1.69432 78.1592 2.44175C78.4284 3.18602 78.563 4.08389 78.563 5.13536C78.563 6.19316 78.43 7.09578 78.1639 7.84322C77.8979 8.58748 77.5131 9.15597 77.0095 9.54869C76.506 9.93824 75.8963 10.133 75.1806 10.133ZM75.1806 9.08788C75.89 9.08788 76.4411 8.74583 76.8338 8.06174C77.2265 7.37765 77.4228 6.40219 77.4228 5.13536C77.4228 4.29291 77.3326 3.57557 77.1521 2.98332C76.9747 2.39108 76.7182 1.93977 76.3825 1.62939C76.0499 1.31902 75.6493 1.16383 75.1806 1.16383C74.4775 1.16383 73.928 1.51063 73.5321 2.20422C73.1362 2.89465 72.9383 3.87169 72.9383 5.13536C72.9383 5.9778 73.0269 6.69356 73.2043 7.28264C73.3816 7.87172 73.6366 8.31986 73.9691 8.62707C74.3049 8.93428 74.7087 9.08788 75.1806 9.08788ZM80.8647 10.076C80.6303 10.076 80.4292 9.99208 80.2613 9.82423C80.0935 9.65637 80.0096 9.45526 80.0096 9.2209C80.0096 8.98653 80.0935 8.78542 80.2613 8.61757C80.4292 8.44971 80.6303 8.36578 80.8647 8.36578C81.099 8.36578 81.3002 8.44971 81.468 8.61757C81.6359 8.78542 81.7198 8.98653 81.7198 9.2209C81.7198 9.37608 81.6802 9.5186 81.601 9.64845C81.525 9.7783 81.4221 9.88282 81.2922 9.96199C81.1656 10.038 81.023 10.076 80.8647 10.076ZM86.5571 10.133C85.9997 10.133 85.4977 10.0222 85.0512 9.80047C84.6046 9.57878 84.2467 9.27474 83.9775 8.88835C83.7083 8.50197 83.5611 8.06174 83.5357 7.56768H84.6759C84.7202 8.0079 84.9197 8.37212 85.2744 8.66032C85.6323 8.94536 86.0599 9.08788 86.5571 9.08788C86.9562 9.08788 87.3109 8.99445 87.6213 8.80759C87.9348 8.62073 88.1802 8.3642 88.3576 8.03799C88.5381 7.70861 88.6284 7.33648 88.6284 6.92159C88.6284 6.4972 88.535 6.11874 88.3481 5.78619C88.1644 5.45048 87.911 5.18603 87.588 4.99284C87.265 4.79965 86.896 4.70147 86.4811 4.6983C86.1834 4.69513 85.8778 4.74106 85.5642 4.83607C85.2507 4.92791 84.9926 5.04668 84.7899 5.19237L83.6877 5.05935L84.2768 0.270716H89.3315V1.31585H85.2649L84.9229 4.18523H84.9799C85.1794 4.02688 85.4296 3.89544 85.7305 3.79093C86.0314 3.68642 86.3449 3.63416 86.6711 3.63416C87.2665 3.63416 87.797 3.77668 88.2626 4.06172C88.7313 4.34359 89.0987 4.72997 89.3647 5.22087C89.6339 5.71177 89.7685 6.27234 89.7685 6.90259C89.7685 7.52334 89.6292 8.07758 89.3505 8.56531C89.0749 9.04987 88.6949 9.43309 88.2103 9.71496C87.7258 9.99367 87.1747 10.133 86.5571 10.133ZM96.8434 4.33725L95.8363 4.62229C95.7729 4.45443 95.6795 4.29133 95.556 4.13298C95.4356 3.97145 95.271 3.83844 95.0619 3.73392C94.8529 3.62941 94.5853 3.57715 94.2591 3.57715C93.8125 3.57715 93.4404 3.68008 93.1427 3.88594C92.8481 4.08864 92.7009 4.34675 92.7009 4.66029C92.7009 4.939 92.8022 5.15911 93.0049 5.32063C93.2076 5.48215 93.5243 5.61675 93.955 5.72444L95.0382 5.99047C95.6906 6.14882 96.1767 6.39111 96.4966 6.71732C96.8165 7.04036 96.9764 7.45683 96.9764 7.96673C96.9764 8.38479 96.8561 8.7585 96.6154 9.08788C96.3779 9.41726 96.0453 9.67696 95.6177 9.86698C95.1902 10.057 94.693 10.152 94.1261 10.152C93.3818 10.152 92.7658 9.9905 92.2781 9.66746C91.7903 9.34441 91.4815 8.87252 91.3517 8.25177L92.4158 7.98573C92.5172 8.37845 92.7088 8.67299 92.9907 8.86935C93.2757 9.06571 93.6478 9.16389 94.1071 9.16389C94.6296 9.16389 95.0445 9.05304 95.3517 8.83135C95.6621 8.60648 95.8173 8.33728 95.8173 8.02374C95.8173 7.77037 95.7286 7.55818 95.5512 7.38716C95.3739 7.21297 95.1015 7.08311 94.7341 6.9976L93.518 6.71257C92.8497 6.55421 92.3588 6.30876 92.0453 5.97622C91.7349 5.64051 91.5797 5.22087 91.5797 4.7173C91.5797 4.30558 91.6953 3.94137 91.9265 3.62466C92.1609 3.30795 92.4792 3.05933 92.8814 2.87881C93.2868 2.69829 93.746 2.60802 94.2591 2.60802C94.9812 2.60802 95.5481 2.76638 95.9598 3.08309C96.3747 3.3998 96.6692 3.81785 96.8434 4.33725ZM100.317 10L98.094 2.70304H99.2722L100.849 8.28977H100.925L102.484 2.70304H103.681L105.22 8.27077H105.296L106.873 2.70304H108.051L105.828 10H104.726L103.13 4.39426H103.016L101.419 10H100.317Z" fill="#46C147"/>
<path d="M88.5 55H130.863" stroke="#FF0000" stroke-width="1.11481"/>
<path d="M82.5 57H130.863" stroke="#FF0000" stroke-width="1.11481"/>
<path d="M121.944 55V57" stroke="#FF0000" stroke-width="1.11481"/>
<path d="M121.944 55L118.6 68.3778H125.289L121.944 55Z" fill="#FF0000"/>
<path d="M121.944 57L118.6 43.6222H125.289L121.944 57Z" fill="#FF0000"/>
<path d="M116.181 41.133C115.465 41.133 114.855 40.9382 114.352 40.5487C113.848 40.156 113.463 39.5875 113.197 38.8432C112.931 38.0958 112.798 37.1932 112.798 36.1354C112.798 35.0839 112.931 34.186 113.197 33.4418C113.466 32.6943 113.853 32.1242 114.356 31.7315C114.863 31.3356 115.471 31.1377 116.181 31.1377C116.89 31.1377 117.496 31.3356 118 31.7315C118.507 32.1242 118.893 32.6943 119.159 33.4418C119.428 34.186 119.563 35.0839 119.563 36.1354C119.563 37.1932 119.43 38.0958 119.164 38.8432C118.898 39.5875 118.513 40.156 118.01 40.5487C117.506 40.9382 116.896 41.133 116.181 41.133ZM116.181 40.0879C116.89 40.0879 117.441 39.7458 117.834 39.0617C118.226 38.3777 118.423 37.4022 118.423 36.1354C118.423 35.2929 118.333 34.5756 118.152 33.9833C117.975 33.3911 117.718 32.9398 117.382 32.6294C117.05 32.319 116.649 32.1638 116.181 32.1638C115.477 32.1638 114.928 32.5106 114.532 33.2042C114.136 33.8946 113.938 34.8717 113.938 36.1354C113.938 36.9778 114.027 37.6936 114.204 38.2826C114.382 38.8717 114.637 39.3199 114.969 39.6271C115.305 39.9343 115.709 40.0879 116.181 40.0879ZM121.865 41.076C121.63 41.076 121.429 40.9921 121.261 40.8242C121.093 40.6564 121.01 40.4553 121.01 40.2209C121.01 39.9865 121.093 39.7854 121.261 39.6176C121.429 39.4497 121.63 39.3658 121.865 39.3658C122.099 39.3658 122.3 39.4497 122.468 39.6176C122.636 39.7854 122.72 39.9865 122.72 40.2209C122.72 40.3761 122.68 40.5186 122.601 40.6485C122.525 40.7783 122.422 40.8828 122.292 40.962C122.166 41.038 122.023 41.076 121.865 41.076ZM124.713 41V40.1449L127.924 36.6294C128.301 36.2177 128.611 35.8598 128.855 35.5558C129.099 35.2486 129.28 34.9604 129.397 34.6912C129.517 34.4188 129.577 34.1338 129.577 33.8361C129.577 33.494 129.495 33.1979 129.33 32.9477C129.169 32.6975 128.947 32.5043 128.665 32.3681C128.383 32.2319 128.067 32.1638 127.715 32.1638C127.341 32.1638 127.015 32.2414 126.736 32.3966C126.461 32.5486 126.247 32.7624 126.095 33.0379C125.946 33.3135 125.872 33.6365 125.872 34.0071H124.751C124.751 33.437 124.882 32.9366 125.145 32.5059C125.408 32.0752 125.766 31.7394 126.219 31.4987C126.675 31.258 127.186 31.1377 127.753 31.1377C128.323 31.1377 128.828 31.258 129.269 31.4987C129.709 31.7394 130.054 32.0641 130.304 32.4726C130.554 32.8812 130.679 33.3357 130.679 33.8361C130.679 34.1939 130.615 34.5439 130.485 34.8859C130.358 35.2248 130.136 35.6033 129.82 36.0213C129.506 36.4362 129.071 36.943 128.513 37.5415L126.328 39.8789V39.9549H130.85V41H124.713ZM138 35.3373L136.993 35.6223C136.93 35.4544 136.836 35.2913 136.713 35.133C136.592 34.9715 136.428 34.8384 136.219 34.7339C136.01 34.6294 135.742 34.5772 135.416 34.5772C134.969 34.5772 134.597 34.6801 134.299 34.8859C134.005 35.0886 133.858 35.3468 133.858 35.6603C133.858 35.939 133.959 36.1591 134.162 36.3206C134.364 36.4822 134.681 36.6168 135.112 36.7244L136.195 36.9905C136.847 37.1488 137.334 37.3911 137.653 37.7173C137.973 38.0404 138.133 38.4568 138.133 38.9667C138.133 39.3848 138.013 39.7585 137.772 40.0879C137.535 40.4173 137.202 40.677 136.775 40.867C136.347 41.057 135.85 41.152 135.283 41.152C134.539 41.152 133.923 40.9905 133.435 40.6675C132.947 40.3444 132.638 39.8725 132.508 39.2518L133.573 38.9857C133.674 39.3785 133.866 39.673 134.147 39.8694C134.432 40.0657 134.805 40.1639 135.264 40.1639C135.786 40.1639 136.201 40.053 136.508 39.8313C136.819 39.6065 136.974 39.3373 136.974 39.0237C136.974 38.7704 136.885 38.5582 136.708 38.3872C136.531 38.213 136.258 38.0831 135.891 37.9976L134.675 37.7126C134.006 37.5542 133.516 37.3088 133.202 36.9762C132.892 36.6405 132.736 36.2209 132.736 35.7173C132.736 35.3056 132.852 34.9414 133.083 34.6247C133.318 34.3079 133.636 34.0593 134.038 33.8788C134.444 33.6983 134.903 33.608 135.416 33.608C136.138 33.608 136.705 33.7664 137.117 34.0831C137.531 34.3998 137.826 34.8179 138 35.3373ZM141.474 41L139.251 33.703H140.429L142.006 39.2898H142.082L143.64 33.703H144.838L146.377 39.2708H146.453L148.03 33.703H149.208L146.985 41H145.883L144.286 35.3943H144.172L142.576 41H141.474Z" fill="#FF0000"/>
</svg>
