<svg width="965" height="444" viewBox="0 0 965 444" fill="none" xmlns="http://www.w3.org/2000/svg">
<path d="M20 136.5C20 115.789 36.7893 99.0001 57.5 99.0001H907.5C928.211 99.0001 945 115.789 945 136.5V386.5C945 407.211 928.211 424 907.5 424H57.5C36.7893 424 20 407.211 20 386.5V136.5Z" fill="white"/>
<path d="M38.75 136.5C38.75 126.145 47.1447 117.75 57.5 117.75H907.5C917.855 117.75 926.25 126.145 926.25 136.5V386.5C926.25 396.855 917.855 405.25 907.5 405.25H57.5C47.1447 405.25 38.75 396.855 38.75 386.5V136.5Z" fill="#006928"/>
<path d="M888.353 184.897V255.608L852.998 290.963V243.822L758.717 338.103L735.147 314.533L829.428 220.252H782.287L817.643 184.897H888.353Z" fill="white"/>
<path d="M258.309 318.165V309.055H311.299V318.165H258.309ZM251.449 336.275V327.385H318.719V336.275H251.449ZM236.029 355.175V345.955H333.909V355.175H236.029ZM249.869 293.075V284.525H289.019V293.075H249.869ZM279.909 290.265V284.525H291.499C293.899 287.599 296.806 290.579 300.219 293.465C303.633 296.359 307.399 299.042 311.519 301.515C315.646 303.989 319.959 306.202 324.459 308.155C328.959 310.102 333.496 311.752 338.069 313.105C337.249 313.705 336.313 314.492 335.259 315.465C334.213 316.439 333.199 317.452 332.219 318.505C331.246 319.552 330.459 320.525 329.859 321.425C323.859 319.252 317.936 316.552 312.089 313.325C306.236 310.099 300.816 306.519 295.829 302.585C290.843 298.645 286.549 294.539 282.949 290.265H279.909ZM277.439 285.655L287.109 289.365C283.436 294.312 278.973 298.885 273.719 303.085C268.473 307.285 262.866 310.999 256.899 314.225C250.939 317.452 244.923 320.265 238.849 322.665C238.323 321.912 237.609 321.012 236.709 319.965C235.809 318.912 234.873 317.879 233.899 316.865C232.926 315.859 232.063 315.055 231.309 314.455C237.463 312.575 243.463 310.212 249.309 307.365C255.163 304.512 260.506 301.249 265.339 297.575C270.179 293.902 274.213 289.929 277.439 285.655ZM279.239 352.365V313.215H290.149V352.365H279.239ZM235.249 272.935V263.155H334.699V272.935H235.249ZM259.209 282.275V254.605H269.789V282.275H259.209ZM299.489 282.835V254.605H310.059V282.835" fill="white"/>
<path d="M421.574 262.368V256.858H441.254V262.368H421.574ZM420.894 280.708V275.308H442.044V280.708H420.894ZM420.894 289.138V283.858H442.044V289.138H420.894ZM404.474 342.468V335.608H461.504V342.468H404.474ZM417.634 271.818V265.858H444.634V271.818H417.634ZM435.294 298.028H427.304V304.438H435.294V298.028ZM420.664 309.618V292.858H442.154V309.618H420.664ZM406.384 330.878V324.468H453.064V319.628H399.404V313.218H462.974V330.878H406.384ZM402.554 311.188V285.658H409.644V311.188H402.554ZM392.324 289.588L391.534 282.728C394.834 282.581 398.528 282.431 402.614 282.278C406.701 282.131 411.031 281.945 415.604 281.718V287.908C411.404 288.281 407.338 288.581 403.404 288.808C399.464 289.028 395.771 289.288 392.324 289.588ZM403.344 324.468H413.244C412.344 328.068 411.371 331.818 410.324 335.718C409.271 339.618 408.294 342.991 407.394 345.838L397.834 344.488C398.881 341.715 399.894 338.508 400.874 334.868C401.848 331.235 402.671 327.768 403.344 324.468ZM458.134 336.728V335.608H468.144C468.144 335.608 468.108 336.111 468.034 337.118C467.961 338.131 467.811 338.978 467.584 339.658C466.531 344.305 465.441 347.958 464.314 350.618C463.194 353.285 461.884 355.218 460.384 356.418C459.111 357.318 457.741 357.935 456.274 358.268C454.814 358.608 453.071 358.815 451.044 358.888C449.318 358.968 446.861 358.988 443.674 358.948C440.488 358.908 437.094 358.815 433.494 358.668C433.421 357.468 433.121 356.118 432.594 354.618C432.068 353.118 431.431 351.768 430.684 350.568C434.211 350.941 437.624 351.165 440.924 351.238C444.224 351.318 446.548 351.358 447.894 351.358C449.094 351.358 450.068 351.318 450.814 351.238C451.568 351.165 452.208 350.941 452.734 350.568C453.781 349.741 454.738 348.258 455.604 346.118C456.464 343.985 457.308 340.855 458.134 336.728ZM410.994 293.638L416.394 292.408C416.994 294.281 417.574 296.341 418.134 298.588C418.701 300.841 419.134 302.791 419.434 304.438L413.584 306.018C413.431 304.291 413.111 302.285 412.624 299.998C412.138 297.711 411.594 295.591 410.994 293.638ZM410.654 278.338L415.494 276.538C416.468 278.418 417.368 280.518 418.194 282.838C419.021 285.165 419.584 287.191 419.884 288.918L414.594 290.938C414.368 289.218 413.881 287.195 413.134 284.868C412.381 282.541 411.554 280.365 410.654 278.338ZM392.654 269.458L396.254 264.058C398.434 265.478 400.571 267.108 402.664 268.948C404.771 270.788 406.348 272.381 407.394 273.728L403.344 279.918C402.218 278.345 400.644 276.581 398.624 274.628C396.598 272.681 394.608 270.958 392.654 269.458ZM403.344 254.268L409.754 257.418C408.254 259.891 406.754 262.405 405.254 264.958C403.754 267.505 402.331 269.641 400.984 271.368L396.034 268.778C397.234 266.831 398.548 264.451 399.974 261.638C401.394 258.825 402.518 256.368 403.344 254.268ZM410.544 263.608L416.844 267.208C414.371 270.581 411.728 274.141 408.914 277.888C406.101 281.641 403.458 284.791 400.984 287.338L396.254 284.418C397.834 282.545 399.524 280.408 401.324 278.008C403.124 275.608 404.828 273.131 406.434 270.578C408.048 268.031 409.418 265.708 410.544 263.608ZM395.134 291.958L401.774 293.418C401.094 296.345 400.268 299.268 399.294 302.188C398.321 305.115 397.271 307.628 396.144 309.728C395.471 309.281 394.494 308.775 393.214 308.208C391.941 307.648 390.894 307.181 390.074 306.808C391.348 304.708 392.394 302.361 393.214 299.768C394.041 297.181 394.681 294.578 395.134 291.958ZM454.534 311.188V285.658H461.734V311.188H454.534ZM444.184 289.588L443.504 282.728C446.958 282.581 450.841 282.431 455.154 282.278C459.468 282.131 464.061 281.981 468.934 281.828L468.814 288.018C464.394 288.318 460.101 288.598 455.934 288.858C451.774 289.125 447.858 289.368 444.184 289.588ZM463.304 293.638L469.044 291.958C470.018 294.205 470.974 296.678 471.914 299.378C472.848 302.078 473.504 304.405 473.884 306.358L467.924 308.268C467.624 306.315 467.024 303.951 466.124 301.178C465.224 298.405 464.284 295.891 463.304 293.638ZM462.404 278.118L467.694 275.758C468.968 277.705 470.148 279.858 471.234 282.218C472.328 284.585 473.098 286.668 473.544 288.468L467.804 291.058C467.431 289.258 466.738 287.138 465.724 284.698C464.711 282.258 463.604 280.065 462.404 278.118ZM443.734 269.228L447.554 264.168C449.508 265.515 451.458 267.071 453.404 268.838C455.358 270.598 456.858 272.191 457.904 273.618L453.524 279.468C452.544 277.968 451.138 276.241 449.304 274.288C447.464 272.341 445.608 270.655 443.734 269.228ZM454.754 254.378L461.174 257.638C459.594 260.118 458.018 262.611 456.444 265.118C454.871 267.631 453.371 269.788 451.944 271.588L446.994 269.008C448.268 267.055 449.654 264.671 451.154 261.858C452.654 259.045 453.854 256.551 454.754 254.378ZM462.744 263.158L469.044 266.758C466.498 270.131 463.724 273.691 460.724 277.438C457.724 281.191 454.874 284.341 452.174 286.888L447.554 283.968C449.281 282.095 451.081 279.958 452.954 277.558C454.834 275.158 456.634 272.681 458.354 270.128C460.081 267.581 461.544 265.258 462.744 263.158ZM446.994 291.958L453.524 293.528C452.998 296.301 452.248 299.131 451.274 302.018C450.294 304.911 449.244 307.368 448.124 309.388C447.524 309.015 446.624 308.508 445.424 307.868C444.224 307.235 443.174 306.731 442.274 306.358C443.468 304.258 444.441 301.968 445.194 299.488C445.941 297.015 446.541 294.505 446.994 291.958ZM370.494 263.038L376.684 256.068C378.558 257.041 380.524 258.221 382.584 259.608C384.651 260.995 386.584 262.381 388.384 263.768C390.184 265.161 391.648 266.495 392.774 267.768L386.354 275.638C385.308 274.365 383.901 272.978 382.134 271.478C380.374 269.978 378.481 268.498 376.454 267.038C374.434 265.571 372.448 264.238 370.494 263.038ZM368.134 293.078L373.984 285.768C375.931 286.668 377.974 287.775 380.114 289.088C382.254 290.401 384.241 291.711 386.074 293.018C387.914 294.331 389.434 295.588 390.634 296.788L384.444 304.888C383.318 303.688 381.838 302.378 380.004 300.958C378.164 299.531 376.194 298.125 374.094 296.738C371.994 295.351 370.008 294.131 368.134 293.078ZM379.944 357.658L370.384 352.258C371.811 349.258 373.328 345.768 374.934 341.788C376.548 337.815 378.198 333.615 379.884 329.188C381.578 324.768 383.134 320.418 384.554 316.138L392.994 321.538C391.794 325.518 390.444 329.608 388.944 333.808C387.444 338.008 385.944 342.131 384.444 346.178C382.944 350.231 381.444 354.058 379.944 357.658Z" fill="white"/>
<path d="M350.647 247.5H215.147V388H350.647V247.5Z" stroke="white" stroke-width="2" stroke-dasharray="5 5"/>
<path d="M488.147 247.5H352.647V388H488.147V247.5Z" stroke="white" stroke-width="2" stroke-dasharray="5 5"/>
<path d="M132.897 146.5H179.777C184.951 146.503 189.144 150.696 189.147 155.87V249.63C189.144 254.804 184.951 258.997 179.777 259H86.0168C80.843 258.997 76.6495 254.804 76.6468 249.63V155.87C76.6495 150.696 80.843 146.503 86.0168 146.5H132.897Z" fill="#FF0000"/>
<path d="M132.897 149.625H86.0218C82.57 149.625 79.7718 152.423 79.7718 155.875V249.625C79.7718 253.077 82.57 255.875 86.0218 255.875H179.772C183.224 255.875 186.022 253.077 186.022 249.625V155.875C186.022 152.423 183.224 149.625 179.772 149.625H132.897Z" fill="white"/>
<path d="M136.022 162.125H142.272L145.047 180.875H136.022V162.125Z" fill="#FF0000"/>
<path d="M129.772 162.125V180.875H120.747L123.522 162.125H129.772Z" fill="#FF0000"/>
<path d="M132.897 187.125H176.647V193.375H170.392C168.67 193.378 167.274 194.773 167.272 196.495V205.875H161.022L158.487 195.745C158.14 194.353 156.891 193.376 155.457 193.375H110.337C108.903 193.376 107.653 194.353 107.307 195.745L104.772 205.875H98.5218V196.495C98.519 194.773 97.1238 193.378 95.4018 193.375H89.1468V187.125H132.897Z" fill="#FF0000"/>
<path d="M136.022 199.625H147.822L151.647 246.5H136.022V199.625Z" fill="#FF0000"/>
<path d="M129.772 199.625V246.5H114.147L117.972 199.625H129.772Z" fill="#FF0000"/>
<path d="M215.666 164.55V153.53H266.336V164.55H247.056V223.85H234.946V164.55" fill="white"/>
<path d="M309.055 179.777L308.505 180.517L307.955 181.067L307.405 181.437L306.665 182.537L306.305 182.907L305.935 183.087C305.535 183.64 305.169 184.067 304.835 184.367L302.445 187.127C297.365 183.854 293.159 182.217 289.825 182.217C286.399 182.217 283.875 183.914 282.255 187.307C282.315 189.3 283.109 190.77 284.635 191.717C285.309 191.897 285.799 192.08 286.105 192.267C287.299 192.447 288.279 192.69 289.045 192.997C300.639 193.857 307.125 198.51 308.505 206.957C308.565 207.324 308.595 207.68 308.595 208.027C308.595 208.38 308.595 208.727 308.595 209.067C308.595 215.214 305.995 219.834 300.795 222.927C297.062 224.607 293.312 225.447 289.545 225.447C282.385 225.447 275.242 222.404 268.115 216.317L268.485 215.587L269.395 214.667C270.009 213.934 270.562 213.38 271.055 213.007C271.175 212.794 271.295 212.674 271.415 212.647L271.785 212.097C271.905 211.884 272.029 211.76 272.155 211.727L272.335 211.357L272.705 211.177L275.095 208.417C279.622 212.704 284.362 214.847 289.315 214.847C291.395 214.847 293.509 214.48 295.655 213.747C296.202 213.014 296.752 212.464 297.305 212.097C297.492 211.364 297.585 210.674 297.585 210.027C297.585 208.434 297.065 207.104 296.025 206.037L291.795 204.567C279.189 203.8 272.335 198.414 271.235 188.407C272.062 178.34 277.752 172.957 288.305 172.257H288.955C297.062 172.257 303.762 174.764 309.055 179.777Z" fill="white"/>
<path d="M321.434 209.526V173.726H332.454V205.486C332.574 205.639 332.634 205.822 332.634 206.036C332.761 206.129 332.824 206.219 332.824 206.306V206.406C333.037 207.779 333.341 209.002 333.734 210.076C335.847 213.009 338.557 214.476 341.864 214.476H342.004C346.104 213.376 348.977 211.112 350.624 207.686V207.136L351.364 204.936V173.726H362.564V223.846H351.364V219.806C346.957 223.412 342.567 225.216 338.194 225.216C334.794 225.216 331.351 224.146 327.864 222.006C325.017 219.832 323.057 217.262 321.984 214.296L321.804 213.006C321.531 212.119 321.394 211.249 321.394 210.396V209.986C321.394 209.832 321.407 209.679 321.434 209.526Z" fill="white"/>
<path d="M420.983 194.294L421.163 197.044C421.283 197.198 421.343 197.381 421.343 197.594V203.104H387.753C388.453 209.344 391.633 213.018 397.293 214.124C398.213 214.211 399.116 214.254 400.003 214.254C404.623 214.254 408.556 212.741 411.803 209.714C412.196 210.388 412.686 210.938 413.273 211.364L413.453 211.914L414.003 212.464C414.429 212.864 414.796 213.241 415.103 213.594C415.409 213.948 415.656 214.308 415.843 214.674C416.056 214.794 416.176 214.914 416.203 215.034L418.773 217.974C412.959 222.841 406.763 225.274 400.183 225.274C399.056 225.274 397.909 225.198 396.743 225.044C395.583 224.891 394.419 224.678 393.253 224.404C382.666 220.884 376.853 213.294 375.813 201.634C375.813 201.481 375.806 201.174 375.793 200.714C375.779 200.261 375.773 199.971 375.773 199.844C375.773 183.904 382.946 174.831 397.293 172.624C411.553 173.118 419.449 180.341 420.983 194.294ZM387.563 194.474H409.783V193.924C409.656 193.558 409.593 193.191 409.593 192.824V192.454C409.286 191.781 409.103 191.171 409.043 190.624C406.783 185.391 403.049 182.758 397.843 182.724C391.296 184.284 387.869 188.201 387.563 194.474Z" fill="white"/>
<path d="M474.197 182.537V183.087C474.597 183.82 474.844 184.554 474.937 185.287V223.657H463.737V191.167L463.547 190.067C462.02 185.44 459.45 183.127 455.837 183.127C454.737 183.127 453.514 183.357 452.167 183.817C449.107 185.137 446.904 187.22 445.557 190.067L444.827 193.187V223.657H433.807V173.537H444.827V177.757C448.254 174.697 451.987 172.864 456.027 172.257H456.847C465.047 172.257 470.83 175.684 474.197 182.537Z" fill="white"/>
<path d="M513.338 154.084V153.714H526.008L526.188 155.004L526.378 155.554L526.738 156.844L527.108 159.044L527.658 160.874L528.028 163.084L528.578 164.914L528.758 166.384C528.971 166.904 529.095 167.334 529.128 167.674L529.308 168.404L529.678 169.504V170.244C529.798 170.337 529.858 170.427 529.858 170.514V171.164C530.198 171.837 530.385 172.571 530.418 173.364L530.778 174.464L531.148 175.754L531.518 177.954L532.068 179.784L532.248 180.894L533.348 185.484C533.441 185.911 533.528 186.301 533.608 186.654C533.681 187.001 533.718 187.344 533.718 187.684L534.088 188.414V189.154L534.448 190.074V190.804L534.818 191.534V192.274C535.158 193.194 535.341 193.991 535.368 194.664L535.558 195.394C535.771 196.007 535.938 196.574 536.058 197.094C536.178 197.614 536.255 198.087 536.288 198.514L536.658 199.984L537.028 201.264L537.388 200.164L538.128 196.494L538.488 195.574L538.678 194.474L539.228 191.904L539.598 190.624V190.074L540.328 187.134L540.508 186.034L540.878 185.294L541.058 184.564L541.248 183.644V182.914L541.428 182.354L542.168 179.424L542.528 177.214L542.718 176.484L543.078 175.754C543.145 174.774 543.328 173.914 543.628 173.174L543.818 172.264V171.714L544.188 170.244L544.368 169.694L544.918 167.304L545.098 166.204L545.468 165.104L545.648 164.184L546.198 161.794L546.388 160.874L546.568 160.514C546.601 160.174 546.641 159.844 546.688 159.524C546.735 159.204 546.818 158.921 546.938 158.674L547.118 158.124V157.574L547.308 156.844L547.488 156.284L548.038 153.714H561.628V154.264C562.055 155.337 562.298 156.381 562.358 157.394L562.728 158.854L562.908 159.414L563.648 162.714L564.008 164.184C564.255 165.071 564.378 165.804 564.378 166.384C564.591 166.904 564.715 167.334 564.748 167.674L565.108 168.954L565.298 170.244L565.478 170.974L565.668 171.524C565.755 171.924 565.831 172.284 565.898 172.604C565.958 172.924 566.001 173.237 566.028 173.544C566.275 174.124 566.445 174.661 566.538 175.154C566.631 175.641 566.708 176.084 566.768 176.484L566.948 177.584L567.318 178.504L567.498 179.604V180.154C567.805 180.887 567.988 181.561 568.048 182.174L568.238 183.274C568.538 184.007 568.721 184.681 568.788 185.294L568.968 186.214L569.518 188.234V188.964C569.638 189.244 569.698 189.551 569.698 189.884C570.038 190.591 570.225 191.204 570.258 191.724L570.438 192.644L570.618 193.744L570.808 194.474C571.115 195.421 571.298 196.277 571.358 197.044C571.478 197.137 571.538 197.231 571.538 197.324V197.964C571.965 199.037 572.211 200.077 572.278 201.084C572.458 201.024 572.578 200.901 572.638 200.714C572.791 199.954 572.945 199.291 573.098 198.724C573.251 198.157 573.405 197.661 573.558 197.234V196.494C573.958 195.394 574.201 194.414 574.288 193.554L574.658 192.274L575.398 189.334L575.578 187.864L575.948 186.584L576.128 186.034V185.484C576.341 184.897 576.511 184.367 576.638 183.894C576.758 183.421 576.831 182.971 576.858 182.544L577.228 181.254L578.698 175.194L579.248 172.264L579.618 170.794C579.951 169.907 580.135 169.174 580.168 168.594L580.348 167.674L580.718 166.204C580.991 165.317 581.175 164.584 581.268 164.004L581.448 163.264L582.008 160.694L582.368 159.594V159.044L582.918 157.574V156.844L583.108 156.284L583.658 153.714H596.138L595.408 157.394L594.858 159.594L594.668 160.144L594.118 162.714L593.758 164.184L593.388 165.464L592.648 169.144L592.288 170.424L591.548 173.914L591.188 175.194L590.998 175.754L590.628 177.764L590.448 178.134L590.268 179.424C589.961 180.431 589.778 181.287 589.718 181.994L588.978 184.194L588.798 185.484L588.608 186.214L588.428 186.764L588.248 188.054L588.058 188.604L586.958 193.194L586.778 194.474L586.408 195.764L585.488 199.434L585.308 200.714L584.208 205.304L583.658 207.874C583.318 208.794 583.135 209.591 583.108 210.264L582.368 212.654V213.384C582.035 214.304 581.851 215.101 581.818 215.774C581.511 216.781 581.328 217.637 581.268 218.344L580.898 219.624L580.718 219.994L580.538 221.284C580.231 222.291 580.048 223.147 579.988 223.854H566.398L566.218 222.384C566.005 221.864 565.881 221.434 565.848 221.094L565.478 219.624L565.298 218.344L564.928 217.054C564.835 216.687 564.758 216.337 564.698 216.004C564.638 215.664 564.591 215.341 564.558 215.034L564.378 214.304L564.198 213.384C564.071 213.231 564.008 213.047 564.008 212.834L563.828 211.914L563.648 211.364C563.555 210.971 563.478 210.611 563.418 210.284C563.351 209.964 563.305 209.651 563.278 209.344C563.065 208.764 562.905 208.231 562.798 207.744C562.691 207.251 562.605 206.807 562.538 206.414L562.358 205.674L562.178 204.754C562.051 204.387 561.965 204.037 561.918 203.704C561.878 203.364 561.841 203.041 561.808 202.734C561.595 202.127 561.428 201.547 561.308 200.994C561.181 200.441 561.105 199.921 561.078 199.434C560.951 199.281 560.888 199.097 560.888 198.884L560.708 198.144L560.528 197.594C560.435 196.954 560.311 196.344 560.158 195.764L559.788 194.104L559.608 193.004L559.238 192.094L558.868 189.884L558.688 189.334V188.784C558.381 188.051 558.198 187.377 558.138 186.764L557.768 184.564L557.398 183.644L557.038 182.174V181.444C556.671 180.431 556.488 179.574 556.488 178.874C556.361 178.721 556.298 178.537 556.298 178.324L556.118 177.764V177.214C555.811 176.514 555.628 175.781 555.568 175.014C555.261 174.034 555.078 173.117 555.018 172.264L554.648 172.994L554.468 174.094L553.918 176.484L553.548 178.504L553.358 179.054L552.628 182.174L552.448 182.914L552.078 184.744L551.898 185.484L551.528 187.504L551.348 188.054L550.608 191.534L550.238 192.824L550.058 194.104C549.725 195.024 549.541 195.821 549.508 196.494L549.328 196.864L549.138 197.964L548.958 198.514L548.038 203.104L547.858 203.654L547.118 207.144L546.938 207.874L546.758 208.794L546.568 209.344L545.838 212.834L545.468 214.304L545.098 216.144L544.918 216.504L544.548 218.164L544.368 218.894L544.188 220.174C543.968 220.941 543.845 221.554 543.818 222.014C543.691 222.321 543.608 222.611 543.568 222.884C543.521 223.164 543.481 223.424 543.448 223.664C543.021 223.731 542.631 223.784 542.278 223.824C541.925 223.871 541.581 223.894 541.248 223.894H540.788C540.635 223.894 540.481 223.881 540.328 223.854H529.678V223.114C529.251 222.014 529.008 220.974 528.948 219.994C528.821 219.841 528.758 219.657 528.758 219.444L528.578 218.524C527.905 216.351 527.475 214.514 527.288 213.014L527.108 212.464L526.188 208.984L526.008 207.514L524.538 201.824V201.084C524.231 200.384 524.048 199.651 523.988 198.884L523.618 197.784L523.258 196.494V195.944L522.338 192.274V191.724L522.148 190.984L521.788 190.254L521.598 188.784C521.358 188.051 521.161 187.377 521.008 186.764C520.855 186.151 520.748 185.601 520.688 185.114L520.498 184.564V184.014C520.378 183.861 520.318 183.677 520.318 183.464L519.948 181.994L519.768 181.444C519.641 180.797 519.525 180.214 519.418 179.694C519.311 179.174 519.181 178.717 519.028 178.324L518.848 177.034C518.635 176.421 518.465 175.854 518.338 175.334C518.218 174.814 518.141 174.341 518.108 173.914L517.928 172.994C517.808 172.841 517.748 172.657 517.748 172.444L516.828 168.774L516.458 167.484L516.278 166.574L516.098 165.834L515.908 164.554C515.661 163.907 515.538 163.354 515.538 162.894V162.714L515.178 161.794L514.988 161.064C514.868 160.177 514.685 159.441 514.438 158.854V158.124C514.318 157.971 514.258 157.787 514.258 157.574" fill="white"/>
<path d="M639.712 178.135L640.272 179.235C641.706 181.015 642.622 182.851 643.022 184.745C643.142 185.538 643.232 186.281 643.292 186.975C643.359 187.661 643.392 188.265 643.392 188.785V213.015C644.519 215.255 646.169 216.601 648.342 217.055L647.982 217.605C647.856 217.825 647.732 217.948 647.612 217.975L647.432 218.525L647.062 218.895C646.756 219.568 646.389 220.118 645.962 220.545C645.529 221.678 644.976 222.535 644.302 223.115C644.029 223.728 643.769 224.258 643.522 224.705C643.282 225.145 643.056 225.535 642.842 225.875C639.262 224.955 636.446 223.301 634.392 220.915H633.842C629.896 223.761 625.826 225.185 621.632 225.185C619.366 225.185 617.132 224.801 614.932 224.035C608.352 221.681 604.376 217.398 603.002 211.185V210.955C603.002 199.115 609.932 193.195 623.792 193.195H623.932C624.206 193.068 624.509 193.005 624.842 193.005L625.392 192.825H626.682L627.232 192.645H627.782L632.372 192.095C632.432 191.755 632.462 191.448 632.462 191.175V190.255C632.462 185.141 629.756 182.585 624.342 182.585C620.576 182.585 615.419 183.855 608.872 186.395L608.142 184.745L607.772 183.645L607.402 183.275L607.222 182.915L606.852 181.805C606.519 181.258 606.276 180.708 606.122 180.155C605.476 179.301 605.046 178.445 604.832 177.585L605.382 177.405L605.752 177.215L606.302 177.035L606.672 176.665H607.222C607.342 176.545 607.449 176.485 607.542 176.485H607.592C608.692 175.905 609.669 175.475 610.522 175.195L611.442 175.015C612.116 174.708 612.729 174.525 613.282 174.465L614.752 174.095C615.819 173.668 616.859 173.425 617.872 173.365L621.912 172.625C622.519 172.565 623.106 172.511 623.672 172.465C624.239 172.418 624.799 172.395 625.352 172.395C631.192 172.395 635.979 174.308 639.712 178.135ZM627.962 201.455H626.862C626.589 201.515 626.322 201.561 626.062 201.595C625.802 201.621 625.549 201.635 625.302 201.635H625.032L624.292 201.825H623.742C623.589 201.945 623.406 202.005 623.192 202.005H622.642L619.702 202.735H619.152C618.299 203.228 617.566 203.535 616.952 203.655C614.966 205.555 613.972 207.391 613.972 209.165C613.972 210.785 614.782 212.375 616.402 213.935C618.756 215.375 621.049 216.095 623.282 216.095C626.129 216.095 628.852 214.948 631.452 212.655C631.699 211.948 631.946 211.458 632.192 211.185L632.372 210.635L632.192 209.895V201.265H628.522C628.369 201.391 628.182 201.455 627.962 201.455Z" fill="white"/>
<path d="M702.197 182.537V183.087C702.597 183.82 702.844 184.554 702.937 185.287V223.657H691.737V191.167L691.547 190.067C690.02 185.44 687.45 183.127 683.837 183.127C682.737 183.127 681.514 183.357 680.167 183.817C677.107 185.137 674.904 187.22 673.557 190.067L672.827 193.187V223.657H661.807V173.537H672.827V177.757C676.254 174.697 679.987 172.864 684.027 172.257H684.847C693.047 172.257 698.83 175.684 702.197 182.537Z" fill="white"/>
<path d="M265.647 147.5H215.147V245.5H265.647V147.5Z" stroke="white" stroke-width="2" stroke-dasharray="5 5"/>
<path d="M313.147 147.5H267.647V245.5H313.147V147.5Z" stroke="white" stroke-width="2" stroke-dasharray="5 5"/>
<path d="M370.647 147.5H315.147V245.5H370.647V147.5Z" stroke="white" stroke-width="2" stroke-dasharray="5 5"/>
<path d="M425.147 147.5H372.647V245.5H425.147V147.5Z" stroke="white" stroke-width="2" stroke-dasharray="5 5"/>
<path d="M481.147 147.5H427.147V245.5H481.147V147.5Z" stroke="white" stroke-width="2" stroke-dasharray="5 5"/>
<path d="M506.147 147.5H483.147V245.5H506.147V147.5Z" stroke="white" stroke-width="2" stroke-dasharray="5 5"/>
<path d="M597.647 147.5H508.147V245.5H597.647V147.5Z" stroke="white" stroke-width="2" stroke-dasharray="5 5"/>
<path d="M653.147 147.5H599.647V245.5H653.147V147.5Z" stroke="white" stroke-width="2" stroke-dasharray="5 5"/>
<path d="M709.147 147.5H655.147V245.5H709.147V147.5Z" stroke="white" stroke-width="2" stroke-dasharray="5 5"/>
<path d="M189.147 33V148.212" stroke="#46C147" stroke-width="3.03189"/>
<path d="M214.147 33V148.212" stroke="#46C147" stroke-width="3.03189"/>
<path d="M189 53H214" stroke="#46C147" stroke-width="3.03189"/>
<path d="M189 53.0957L225.383 44V62.1914L189 53.0957Z" fill="#46C147"/>
<path d="M214.383 53.0957L178 44V62.1914L214.383 53.0957Z" fill="#46C147"/>
<path d="M171.739 27V24.6744L180.473 15.1136C181.498 13.9939 182.342 13.0206 183.005 12.1937C183.669 11.3582 184.159 10.5744 184.478 9.84223C184.805 9.10148 184.969 8.32628 184.969 7.51663C184.969 6.58639 184.745 5.78104 184.297 5.10059C183.858 4.42014 183.255 3.89472 182.488 3.52435C181.722 3.15398 180.861 2.96879 179.904 2.96879C178.888 2.96879 178.001 3.17982 177.243 3.60187C176.494 4.01531 175.912 4.59671 175.499 5.34607C175.094 6.09543 174.892 6.97399 174.892 7.98175H171.842C171.842 6.43135 172.2 5.07044 172.915 3.89903C173.63 2.72761 174.603 1.8146 175.835 1.15999C177.075 0.505374 178.466 0.178067 180.008 0.178067C181.558 0.178067 182.932 0.505374 184.129 1.15999C185.327 1.8146 186.265 2.69747 186.946 3.80859C187.626 4.91971 187.967 6.15572 187.967 7.51663C187.967 8.48994 187.79 9.44171 187.437 10.372C187.092 11.2936 186.489 12.3229 185.628 13.4598C184.775 14.5882 183.591 15.9663 182.075 17.5942L176.132 23.9509V24.1576H188.432V27H171.739ZM207.876 11.5994L205.137 12.3746C204.965 11.918 204.711 11.4745 204.375 11.0438C204.048 10.6045 203.6 10.2428 203.031 9.95851C202.463 9.67427 201.735 9.53215 200.848 9.53215C199.633 9.53215 198.621 9.81209 197.812 10.372C197.011 10.9232 196.61 11.6252 196.61 12.4779C196.61 13.2359 196.886 13.8345 197.437 14.2738C197.988 14.7131 198.85 15.0791 200.021 15.372L202.967 16.0955C204.741 16.5262 206.063 17.1851 206.933 18.0723C207.803 18.9508 208.238 20.0835 208.238 21.4702C208.238 22.6072 207.911 23.6236 207.256 24.5194C206.61 25.4151 205.706 26.1214 204.543 26.6382C203.38 27.155 202.028 27.4134 200.486 27.4134C198.462 27.4134 196.787 26.9742 195.46 26.0956C194.134 25.217 193.294 23.9337 192.941 22.2454L195.835 21.5219C196.11 22.59 196.632 23.391 197.398 23.925C198.173 24.4591 199.185 24.7261 200.434 24.7261C201.856 24.7261 202.984 24.4246 203.819 23.8217C204.664 23.2101 205.086 22.478 205.086 21.6253C205.086 20.9362 204.844 20.3591 204.362 19.894C203.88 19.4203 203.139 19.0671 202.14 18.8346L198.832 18.0594C197.015 17.6287 195.68 16.9612 194.827 16.0568C193.983 15.1437 193.561 14.0025 193.561 12.633C193.561 11.5132 193.875 10.5227 194.504 9.66135C195.141 8.80002 196.007 8.12387 197.101 7.63291C198.204 7.14195 199.452 6.89647 200.848 6.89647C202.812 6.89647 204.353 7.32714 205.473 8.18847C206.602 9.0498 207.403 10.1868 207.876 11.5994ZM217.324 27L211.277 7.15487H214.482L218.771 22.3488H218.978L223.216 7.15487H226.471L230.657 22.2971H230.864L235.154 7.15487H238.358L232.311 27H229.314L224.973 11.7544H224.663L220.321 27H217.324Z" fill="#46C147"/>
<path d="M189.147 146.5H304.359" stroke="#FF0000" stroke-width="3.03189"/>
<path d="M214.147 146.5H304.359" stroke="#FF0000" stroke-width="3.03189"/>
<path d="M280.104 146.5L271.008 182.883H289.199L280.104 146.5Z" fill="#FF0000"/>
<path d="M280.104 146.5L271.008 110.117H289.199L280.104 146.5Z" fill="#FF0000"/>
<path d="M334.909 156.059C332.962 156.059 331.304 155.53 329.934 154.47C328.565 153.402 327.518 151.856 326.795 149.832C326.071 147.799 325.71 145.344 325.71 142.468C325.71 139.608 326.071 137.166 326.795 135.142C327.527 133.109 328.578 131.559 329.947 130.491C331.326 129.414 332.979 128.876 334.909 128.876C336.838 128.876 338.488 129.414 339.857 130.491C341.235 131.559 342.286 133.109 343.01 135.142C343.742 137.166 344.108 139.608 344.108 142.468C344.108 145.344 343.746 147.799 343.022 149.832C342.299 151.856 341.252 153.402 339.883 154.47C338.513 155.53 336.855 156.059 334.909 156.059ZM334.909 153.217C336.838 153.217 338.337 152.287 339.405 150.426C340.473 148.566 341.007 145.913 341.007 142.468C341.007 140.176 340.761 138.225 340.27 136.615C339.788 135.004 339.09 133.777 338.177 132.933C337.273 132.088 336.183 131.666 334.909 131.666C332.997 131.666 331.502 132.61 330.425 134.496C329.349 136.374 328.81 139.031 328.81 142.468C328.81 144.759 329.052 146.705 329.534 148.307C330.016 149.909 330.71 151.128 331.614 151.964C332.527 152.799 333.625 153.217 334.909 153.217ZM363.126 140.297L360.387 141.072C360.215 140.616 359.961 140.172 359.625 139.741C359.297 139.302 358.849 138.94 358.281 138.656C357.712 138.372 356.985 138.23 356.097 138.23C354.883 138.23 353.871 138.51 353.061 139.07C352.26 139.621 351.86 140.323 351.86 141.176C351.86 141.934 352.135 142.532 352.687 142.971C353.238 143.411 354.099 143.777 355.271 144.07L358.216 144.793C359.991 145.224 361.313 145.883 362.183 146.77C363.053 147.648 363.488 148.781 363.488 150.168C363.488 151.305 363.16 152.321 362.506 153.217C361.86 154.113 360.955 154.819 359.793 155.336C358.63 155.853 357.278 156.111 355.736 156.111C353.712 156.111 352.036 155.672 350.71 154.793C349.383 153.915 348.544 152.631 348.19 150.943L351.085 150.22C351.36 151.288 351.881 152.089 352.648 152.623C353.423 153.157 354.435 153.424 355.684 153.424C357.105 153.424 358.234 153.122 359.069 152.519C359.913 151.908 360.335 151.176 360.335 150.323C360.335 149.634 360.094 149.057 359.612 148.592C359.129 148.118 358.389 147.765 357.389 147.532L354.082 146.757C352.265 146.326 350.929 145.659 350.077 144.754C349.233 143.841 348.811 142.7 348.811 141.331C348.811 140.211 349.125 139.22 349.754 138.359C350.391 137.498 351.257 136.822 352.351 136.331C353.453 135.84 354.702 135.594 356.097 135.594C358.061 135.594 359.603 136.025 360.723 136.886C361.851 137.747 362.652 138.884 363.126 140.297ZM372.574 155.698L366.527 135.853H369.731L374.021 151.046H374.227L378.465 135.853H381.721L385.907 150.995H386.114L390.403 135.853H393.607L387.561 155.698H384.563L380.222 140.452H379.912L375.571 155.698H372.574Z" fill="#FF0000"/>
</svg>
