<svg width="820" height="600" viewBox="0 0 820 600" fill="none" xmlns="http://www.w3.org/2000/svg">
<g clip-path="url(#clip0_0_1)">
<path d="M0 48.2625C0 27.5518 16.7893 10.7625 37.5001 10.7625H687.501C708.212 10.7625 725.002 27.5518 725.002 48.2625V1048.26C725.002 1068.97 708.212 1085.76 687.501 1085.76H37.5001C16.7893 1085.76 0 1068.97 0 1048.26V48.2625Z" fill="white"/>
<path d="M18.7501 48.2622C18.7501 37.9069 27.1447 29.5122 37.5001 29.5122H687.501C697.857 29.5122 706.251 37.9069 706.251 48.2622V1048.26C706.251 1058.62 697.857 1067.01 687.501 1067.01H37.5001C27.1447 1067.01 18.7501 1058.62 18.7501 1048.26V48.2622Z" fill="#006928"/>
<path d="M610.107 60.3403H656.987C662.161 60.3431 666.355 64.5365 666.357 69.7103V163.47C666.355 168.644 662.161 172.838 656.987 172.84H563.227C558.053 172.838 553.86 168.644 553.857 163.47V69.7103C553.86 64.5365 558.053 60.3431 563.227 60.3403H610.107Z" fill="#FF0000"/>
<path d="M610.107 63.4653H563.232C559.78 63.4653 556.982 66.2635 556.982 69.7153V163.465C556.982 166.917 559.78 169.715 563.232 169.715H656.982C660.434 169.715 663.232 166.917 663.232 163.465V69.7153C663.232 66.2635 660.434 63.4653 656.982 63.4653H610.107Z" fill="white"/>
<path d="M613.232 75.9651H619.482L622.257 94.7151H613.232V75.9651Z" fill="#FF0000"/>
<path d="M606.982 75.9651V94.7151H597.957L600.732 75.9651H606.982Z" fill="#FF0000"/>
<path d="M610.107 100.966H653.857V107.216H647.602C645.88 107.218 644.485 108.614 644.482 110.336V119.716H638.232L635.697 109.586C635.351 108.194 634.101 107.217 632.667 107.216H587.547C586.113 107.217 584.864 108.194 584.517 109.586L581.982 119.716H575.732V110.336C575.729 108.614 574.334 107.218 572.612 107.216H566.357V100.966H610.107Z" fill="#FF0000"/>
<path d="M613.232 113.465H625.032L628.857 160.34H613.232V113.465Z" fill="#FF0000"/>
<path d="M606.982 113.465V160.34H591.357L595.182 113.465H606.982Z" fill="#FF0000"/>
<path d="M102.769 482.006V472.896H155.759V482.006H102.769ZM95.9087 500.116V491.226H163.179V500.116H95.9087ZM80.4887 519.016V509.796H178.369V519.016H80.4887ZM94.3287 456.916V448.366H133.479V456.916H94.3287ZM124.369 454.106V448.366H135.959C138.359 451.439 141.265 454.419 144.679 457.306C148.092 460.199 151.859 462.882 155.979 465.356C160.105 467.829 164.419 470.042 168.919 471.996C173.419 473.942 177.956 475.592 182.529 476.946C181.709 477.546 180.772 478.332 179.719 479.306C178.672 480.279 177.659 481.292 176.679 482.346C175.706 483.392 174.919 484.366 174.319 485.266C168.319 483.092 162.395 480.392 156.549 477.166C150.695 473.939 145.275 470.359 140.289 466.426C135.302 462.486 131.009 458.379 127.409 454.106H124.369ZM121.899 449.496L131.569 453.206C127.895 458.152 123.432 462.726 118.179 466.926C112.932 471.126 107.325 474.839 101.359 478.066C95.3987 481.292 89.382 484.106 83.3087 486.506C82.782 485.752 82.0687 484.852 81.1687 483.806C80.2687 482.752 79.332 481.719 78.3587 480.706C77.3853 479.699 76.522 478.896 75.7686 478.296C81.922 476.416 87.922 474.052 93.7687 471.206C99.622 468.352 104.965 465.089 109.799 461.416C114.639 457.742 118.672 453.769 121.899 449.496ZM123.699 516.206V477.056H134.609V516.206H123.699ZM79.7087 436.776V426.996H179.159V436.776H79.7087ZM103.669 446.116V418.446H114.249V446.116H103.669ZM143.949 446.676V418.446H154.519V446.676" fill="white"/>
<path d="M266.034 426.208V420.698H285.714V426.208H266.034ZM265.354 444.548V439.148H286.504V444.548H265.354ZM265.354 452.978V447.698H286.504V452.978H265.354ZM248.934 506.308V499.448H305.964V506.308H248.934ZM262.094 435.658V429.698H289.094V435.658H262.094ZM279.754 461.868H271.764V468.278H279.754V461.868ZM265.124 473.458V456.698H286.614V473.458H265.124ZM250.844 494.718V488.308H297.524V483.468H243.864V477.058H307.434V494.718H250.844ZM247.014 475.028V449.498H254.104V475.028H247.014ZM236.784 453.428L235.994 446.568C239.294 446.421 242.987 446.271 247.074 446.118C251.161 445.971 255.491 445.785 260.064 445.558V451.748C255.864 452.121 251.797 452.421 247.864 452.648C243.924 452.868 240.231 453.128 236.784 453.428ZM247.804 488.308H257.704C256.804 491.908 255.831 495.658 254.784 499.558C253.731 503.458 252.754 506.831 251.854 509.678L242.294 508.328C243.341 505.555 244.354 502.348 245.334 498.708C246.307 495.075 247.131 491.608 247.804 488.308ZM302.594 500.568V499.448H312.604C312.604 499.448 312.567 499.951 312.494 500.958C312.421 501.971 312.271 502.818 312.044 503.498C310.991 508.145 309.901 511.798 308.774 514.458C307.654 517.125 306.344 519.058 304.844 520.258C303.571 521.158 302.201 521.775 300.734 522.108C299.274 522.448 297.531 522.655 295.504 522.728C293.777 522.808 291.321 522.828 288.134 522.788C284.947 522.748 281.554 522.655 277.954 522.508C277.881 521.308 277.581 519.958 277.054 518.458C276.527 516.958 275.891 515.608 275.144 514.408C278.671 514.781 282.084 515.005 285.384 515.078C288.684 515.158 291.007 515.198 292.354 515.198C293.554 515.198 294.527 515.158 295.274 515.078C296.027 515.005 296.667 514.781 297.194 514.408C298.241 513.581 299.197 512.098 300.064 509.958C300.924 507.825 301.767 504.695 302.594 500.568ZM255.454 457.478L260.854 456.248C261.454 458.121 262.034 460.181 262.594 462.428C263.161 464.681 263.594 466.631 263.894 468.278L258.044 469.858C257.891 468.131 257.571 466.125 257.084 463.838C256.597 461.551 256.054 459.431 255.454 457.478ZM255.114 442.178L259.954 440.378C260.927 442.258 261.827 444.358 262.654 446.678C263.481 449.005 264.044 451.031 264.344 452.758L259.054 454.778C258.827 453.058 258.341 451.035 257.594 448.708C256.841 446.381 256.014 444.205 255.114 442.178ZM237.114 433.298L240.714 427.898C242.894 429.318 245.031 430.948 247.124 432.788C249.231 434.628 250.807 436.221 251.854 437.568L247.804 443.758C246.677 442.185 245.104 440.421 243.084 438.468C241.057 436.521 239.067 434.798 237.114 433.298ZM247.804 418.108L254.214 421.258C252.714 423.731 251.214 426.245 249.714 428.798C248.214 431.345 246.791 433.481 245.444 435.208L240.494 432.618C241.694 430.671 243.007 428.291 244.434 425.478C245.854 422.665 246.977 420.208 247.804 418.108ZM255.004 427.448L261.304 431.048C258.831 434.421 256.187 437.981 253.374 441.728C250.561 445.481 247.917 448.631 245.444 451.178L240.714 448.258C242.294 446.385 243.984 444.248 245.784 441.848C247.584 439.448 249.287 436.971 250.894 434.418C252.507 431.871 253.877 429.548 255.004 427.448ZM239.594 455.798L246.234 457.258C245.554 460.185 244.727 463.108 243.754 466.028C242.781 468.955 241.731 471.468 240.604 473.568C239.931 473.121 238.954 472.615 237.674 472.048C236.401 471.488 235.354 471.021 234.534 470.648C235.807 468.548 236.854 466.201 237.674 463.608C238.501 461.021 239.141 458.418 239.594 455.798ZM298.994 475.028V449.498H306.194V475.028H298.994ZM288.644 453.428L287.964 446.568C291.417 446.421 295.301 446.271 299.614 446.118C303.927 445.971 308.521 445.821 313.394 445.668L313.274 451.858C308.854 452.158 304.561 452.438 300.394 452.698C296.234 452.965 292.317 453.208 288.644 453.428ZM307.764 457.478L313.504 455.798C314.477 458.045 315.434 460.518 316.374 463.218C317.307 465.918 317.964 468.245 318.344 470.198L312.384 472.108C312.084 470.155 311.484 467.791 310.584 465.018C309.684 462.245 308.744 459.731 307.764 457.478ZM306.864 441.958L312.154 439.598C313.427 441.545 314.607 443.698 315.694 446.058C316.787 448.425 317.557 450.508 318.004 452.308L312.264 454.898C311.891 453.098 311.197 450.978 310.184 448.538C309.171 446.098 308.064 443.905 306.864 441.958ZM288.194 433.068L292.014 428.008C293.967 429.355 295.917 430.911 297.864 432.678C299.817 434.438 301.317 436.031 302.364 437.458L297.984 443.308C297.004 441.808 295.597 440.081 293.764 438.128C291.924 436.181 290.067 434.495 288.194 433.068ZM299.214 418.218L305.634 421.478C304.054 423.958 302.477 426.451 300.904 428.958C299.331 431.471 297.831 433.628 296.404 435.428L291.454 432.848C292.727 430.895 294.114 428.511 295.614 425.698C297.114 422.885 298.314 420.391 299.214 418.218ZM307.204 426.998L313.504 430.598C310.957 433.971 308.184 437.531 305.184 441.278C302.184 445.031 299.334 448.181 296.634 450.728L292.014 447.808C293.741 445.935 295.541 443.798 297.414 441.398C299.294 438.998 301.094 436.521 302.814 433.968C304.541 431.421 306.004 429.098 307.204 426.998ZM291.454 455.798L297.984 457.368C297.457 460.141 296.707 462.971 295.734 465.858C294.754 468.751 293.704 471.208 292.584 473.228C291.984 472.855 291.084 472.348 289.884 471.708C288.684 471.075 287.634 470.571 286.734 470.198C287.927 468.098 288.901 465.808 289.654 463.328C290.401 460.855 291.001 458.345 291.454 455.798ZM214.954 426.878L221.144 419.908C223.017 420.881 224.984 422.061 227.044 423.448C229.111 424.835 231.044 426.221 232.844 427.608C234.644 429.001 236.107 430.335 237.234 431.608L230.814 439.478C229.767 438.205 228.361 436.818 226.594 435.318C224.834 433.818 222.941 432.338 220.914 430.878C218.894 429.411 216.907 428.078 214.954 426.878ZM212.594 456.918L218.444 449.608C220.391 450.508 222.434 451.615 224.574 452.928C226.714 454.241 228.701 455.551 230.534 456.858C232.374 458.171 233.894 459.428 235.094 460.628L228.904 468.728C227.777 467.528 226.297 466.218 224.464 464.798C222.624 463.371 220.654 461.965 218.554 460.578C216.454 459.191 214.467 457.971 212.594 456.918ZM224.404 521.498L214.844 516.098C216.271 513.098 217.787 509.608 219.394 505.628C221.007 501.655 222.657 497.455 224.344 493.028C226.037 488.608 227.594 484.258 229.014 479.978L237.454 485.378C236.254 489.358 234.904 493.448 233.404 497.648C231.904 501.848 230.404 505.971 228.904 510.018C227.404 514.071 225.904 517.898 224.404 521.498Z" fill="white"/>
<path d="M195.106 411.34H59.6061V551.84H195.106V411.34Z" stroke="white" stroke-width="2" stroke-dasharray="5 5"/>
<path d="M332.607 411.34H197.106V551.84H332.607V411.34Z" stroke="white" stroke-width="2" stroke-dasharray="5 5"/>
<path d="M60.1256 85.8913V74.8713H110.796V85.8913H91.5157V145.191H79.4056V85.8913" fill="white"/>
<path d="M150.422 99.4756L150.982 100.576C152.415 102.356 153.332 104.192 153.732 106.086C153.852 106.879 153.942 107.622 154.002 108.316C154.068 109.002 154.102 109.606 154.102 110.126V134.356C155.228 136.596 156.878 137.942 159.052 138.396L158.692 138.946C158.565 139.166 158.442 139.289 158.322 139.316L158.142 139.866L157.772 140.236C157.465 140.909 157.098 141.459 156.672 141.886C156.238 143.019 155.685 143.876 155.012 144.456C154.738 145.069 154.478 145.599 154.232 146.046C153.992 146.486 153.765 146.876 153.552 147.216C149.972 146.296 147.155 144.642 145.102 142.256H144.552C140.605 145.102 136.535 146.526 132.342 146.526C130.075 146.526 127.842 146.142 125.642 145.376C119.062 143.022 115.085 138.739 113.712 132.526V132.296C113.712 120.456 120.642 114.536 134.502 114.536H134.642C134.915 114.409 135.218 114.346 135.552 114.346L136.102 114.166H137.392L137.942 113.986H138.492L143.082 113.436C143.142 113.096 143.172 112.789 143.172 112.516V111.596C143.172 106.482 140.465 103.926 135.052 103.926C131.285 103.926 126.128 105.196 119.582 107.736L118.852 106.086L118.482 104.986L118.112 104.616L117.932 104.256L117.562 103.146C117.228 102.599 116.985 102.049 116.832 101.496C116.185 100.642 115.755 99.7856 115.542 98.9256L116.092 98.7456L116.462 98.5556L117.012 98.3756L117.382 98.0056H117.932C118.052 97.8856 118.158 97.8256 118.252 97.8256H118.302C119.402 97.2456 120.378 96.8156 121.232 96.5356L122.152 96.3556C122.825 96.0489 123.438 95.8656 123.992 95.8056L125.462 95.4356C126.528 95.0089 127.568 94.7656 128.582 94.7056L132.622 93.9656C133.228 93.9056 133.815 93.8523 134.382 93.8056C134.948 93.7589 135.508 93.7356 136.062 93.7356C141.902 93.7356 146.688 95.6489 150.422 99.4756ZM138.672 122.796H137.572C137.298 122.856 137.032 122.902 136.772 122.936C136.512 122.962 136.258 122.976 136.012 122.976H135.742L135.002 123.166H134.452C134.298 123.286 134.115 123.346 133.902 123.346H133.352L130.412 124.076H129.862C129.008 124.569 128.275 124.876 127.662 124.996C125.675 126.896 124.682 128.732 124.682 130.506C124.682 132.126 125.492 133.716 127.112 135.276C129.465 136.716 131.758 137.436 133.992 137.436C136.838 137.436 139.562 136.289 142.162 133.996C142.408 133.289 142.655 132.799 142.902 132.526L143.082 131.976L142.902 131.236V122.606H139.232C139.078 122.732 138.892 122.796 138.672 122.796Z" fill="white"/>
<path d="M170.038 145.372V95.2521H181.238V145.372H170.038ZM182.338 80.5621V81.1621C182.338 83.7021 181.542 85.7655 179.948 87.3521C178.268 88.1788 176.722 88.5921 175.308 88.5921C172.862 88.5921 170.922 87.2621 169.488 84.6021C169.208 83.5288 169.068 82.5821 169.068 81.7621C169.068 78.6355 170.798 76.5221 174.258 75.4221H174.718C178.605 75.4221 181.145 77.1355 182.338 80.5621Z" fill="white"/>
<path d="M221.298 75.4252V75.0552H233.968L234.148 76.3452L234.338 76.8952L234.698 78.1852L235.068 80.3852L235.618 82.2152L235.988 84.4252L236.538 86.2552L236.718 87.7252C236.931 88.2452 237.055 88.6752 237.088 89.0152L237.268 89.7452L237.638 90.8452V91.5852C237.758 91.6785 237.818 91.7685 237.818 91.8552V92.5052C238.158 93.1785 238.345 93.9118 238.378 94.7052L238.738 95.8052L239.108 97.0952L239.478 99.2952L240.028 101.125L240.208 102.235L241.308 106.825C241.401 107.252 241.488 107.642 241.568 107.995C241.641 108.342 241.678 108.685 241.678 109.025L242.048 109.755V110.495L242.408 111.415V112.145L242.778 112.875V113.615C243.118 114.535 243.301 115.332 243.328 116.005L243.518 116.735C243.731 117.349 243.898 117.915 244.018 118.435C244.138 118.955 244.215 119.429 244.248 119.855L244.618 121.325L244.988 122.605L245.348 121.505L246.088 117.835L246.448 116.915L246.638 115.815L247.188 113.245L247.558 111.965V111.415L248.288 108.475L248.468 107.375L248.838 106.635L249.018 105.905L249.208 104.985V104.255L249.388 103.695L250.128 100.765L250.488 98.5552L250.678 97.8252L251.038 97.0952C251.105 96.1152 251.288 95.2552 251.588 94.5152L251.778 93.6052V93.0552L252.148 91.5852L252.328 91.0352L252.878 88.6452L253.058 87.5452L253.428 86.4452L253.608 85.5252L254.158 83.1352L254.348 82.2152L254.528 81.8552C254.561 81.5152 254.601 81.1852 254.648 80.8652C254.695 80.5452 254.778 80.2618 254.898 80.0152L255.078 79.4652V78.9152L255.268 78.1852L255.448 77.6252L255.998 75.0552H269.588V75.6052C270.015 76.6785 270.258 77.7218 270.318 78.7352L270.688 80.1952L270.868 80.7552L271.608 84.0552L271.968 85.5252C272.215 86.4118 272.338 87.1452 272.338 87.7252C272.551 88.2452 272.675 88.6752 272.708 89.0152L273.068 90.2952L273.258 91.5852L273.438 92.3152L273.628 92.8652C273.715 93.2652 273.791 93.6252 273.858 93.9452C273.918 94.2652 273.961 94.5785 273.988 94.8852C274.235 95.4652 274.405 96.0018 274.498 96.4952C274.591 96.9818 274.668 97.4252 274.728 97.8252L274.908 98.9252L275.278 99.8452L275.458 100.945V101.495C275.765 102.229 275.948 102.902 276.008 103.515L276.198 104.615C276.498 105.349 276.681 106.022 276.748 106.635L276.928 107.555L277.478 109.575V110.305C277.598 110.585 277.658 110.892 277.658 111.225C277.998 111.932 278.185 112.545 278.218 113.065L278.398 113.985L278.578 115.085L278.768 115.815C279.075 116.762 279.258 117.619 279.318 118.385C279.438 118.479 279.498 118.572 279.498 118.665V119.305C279.925 120.379 280.171 121.419 280.238 122.425C280.418 122.365 280.538 122.242 280.598 122.055C280.751 121.295 280.905 120.632 281.058 120.065C281.211 119.499 281.365 119.002 281.518 118.575V117.835C281.918 116.735 282.161 115.755 282.248 114.895L282.618 113.615L283.358 110.675L283.538 109.205L283.908 107.925L284.088 107.375V106.825C284.301 106.239 284.471 105.709 284.598 105.235C284.718 104.762 284.791 104.312 284.818 103.885L285.188 102.595L286.658 96.5352L287.208 93.6052L287.578 92.1352C287.911 91.2485 288.095 90.5152 288.128 89.9352L288.308 89.0152L288.678 87.5452C288.951 86.6585 289.135 85.9252 289.228 85.3452L289.408 84.6052L289.968 82.0352L290.328 80.9352V80.3852L290.878 78.9152V78.1852L291.068 77.6252L291.618 75.0552H304.098L303.368 78.7352L302.818 80.9352L302.628 81.4852L302.078 84.0552L301.718 85.5252L301.348 86.8052L300.608 90.4852L300.248 91.7652L299.508 95.2552L299.148 96.5352L298.958 97.0952L298.588 99.1052L298.408 99.4752L298.228 100.765C297.921 101.772 297.738 102.629 297.678 103.335L296.938 105.535L296.758 106.825L296.568 107.555L296.388 108.105L296.208 109.395L296.018 109.945L294.918 114.535L294.738 115.815L294.368 117.105L293.448 120.775L293.268 122.055L292.168 126.645L291.618 129.215C291.278 130.135 291.095 130.932 291.068 131.605L290.328 133.995V134.725C289.995 135.645 289.811 136.442 289.778 137.115C289.471 138.122 289.288 138.979 289.228 139.685L288.858 140.965L288.678 141.335L288.498 142.625C288.191 143.632 288.008 144.489 287.948 145.195H274.358L274.178 143.725C273.965 143.205 273.841 142.775 273.808 142.435L273.438 140.965L273.258 139.685L272.888 138.395C272.795 138.029 272.718 137.679 272.658 137.345C272.598 137.005 272.551 136.682 272.518 136.375L272.338 135.645L272.158 134.725C272.031 134.572 271.968 134.389 271.968 134.175L271.788 133.255L271.608 132.705C271.515 132.312 271.438 131.952 271.378 131.625C271.311 131.305 271.265 130.992 271.238 130.685C271.025 130.105 270.865 129.572 270.758 129.085C270.651 128.592 270.565 128.149 270.498 127.755L270.318 127.015L270.138 126.095C270.011 125.729 269.925 125.379 269.878 125.045C269.838 124.705 269.801 124.382 269.768 124.075C269.555 123.469 269.388 122.889 269.268 122.335C269.141 121.782 269.065 121.262 269.038 120.775C268.911 120.622 268.848 120.439 268.848 120.225L268.668 119.485L268.488 118.935C268.395 118.295 268.271 117.685 268.118 117.105L267.748 115.445L267.568 114.345L267.198 113.435L266.828 111.225L266.648 110.675V110.125C266.341 109.392 266.158 108.719 266.098 108.105L265.728 105.905L265.358 104.985L264.998 103.515V102.785C264.631 101.772 264.448 100.915 264.448 100.215C264.321 100.062 264.258 99.8785 264.258 99.6652L264.078 99.1052V98.5552C263.771 97.8552 263.588 97.1218 263.528 96.3552C263.221 95.3752 263.038 94.4585 262.978 93.6052L262.608 94.3352L262.428 95.4352L261.878 97.8252L261.508 99.8452L261.318 100.395L260.588 103.515L260.408 104.255L260.038 106.085L259.858 106.825L259.488 108.845L259.308 109.395L258.568 112.875L258.198 114.165L258.018 115.445C257.685 116.365 257.501 117.162 257.468 117.835L257.288 118.205L257.098 119.305L256.918 119.855L255.998 124.445L255.818 124.995L255.078 128.485L254.898 129.215L254.718 130.135L254.528 130.685L253.798 134.175L253.428 135.645L253.058 137.485L252.878 137.845L252.508 139.505L252.328 140.235L252.148 141.515C251.928 142.282 251.805 142.895 251.778 143.355C251.651 143.662 251.568 143.952 251.528 144.225C251.481 144.505 251.441 144.765 251.408 145.005C250.981 145.072 250.591 145.125 250.238 145.165C249.885 145.212 249.541 145.235 249.208 145.235H248.748C248.595 145.235 248.441 145.222 248.288 145.195H237.638V144.455C237.211 143.355 236.968 142.315 236.908 141.335C236.781 141.182 236.718 140.999 236.718 140.785L236.538 139.865C235.865 137.692 235.435 135.855 235.248 134.355L235.068 133.805L234.148 130.325L233.968 128.855L232.498 123.165V122.425C232.191 121.725 232.008 120.992 231.948 120.225L231.578 119.125L231.218 117.835V117.285L230.298 113.615V113.065L230.108 112.325L229.748 111.595L229.558 110.125C229.318 109.392 229.121 108.719 228.968 108.105C228.815 107.492 228.708 106.942 228.648 106.455L228.458 105.905V105.355C228.338 105.202 228.278 105.019 228.278 104.805L227.908 103.335L227.728 102.785C227.601 102.139 227.485 101.555 227.378 101.035C227.271 100.515 227.141 100.059 226.988 99.6652L226.808 98.3752C226.595 97.7618 226.425 97.1952 226.298 96.6752C226.178 96.1552 226.101 95.6818 226.068 95.2552L225.888 94.3352C225.768 94.1818 225.708 93.9985 225.708 93.7852L224.788 90.1152L224.418 88.8252L224.238 87.9152L224.058 87.1752L223.868 85.8952C223.621 85.2485 223.498 84.6952 223.498 84.2352V84.0552L223.138 83.1352L222.948 82.4052C222.828 81.5185 222.645 80.7818 222.398 80.1952V79.4652C222.278 79.3118 222.218 79.1285 222.218 78.9152" fill="white"/>
<path d="M347.672 99.4756L348.232 100.576C349.666 102.356 350.582 104.192 350.982 106.086C351.102 106.879 351.192 107.622 351.252 108.316C351.319 109.002 351.352 109.606 351.352 110.126V134.356C352.479 136.596 354.129 137.942 356.302 138.396L355.942 138.946C355.816 139.166 355.692 139.289 355.572 139.316L355.392 139.866L355.022 140.236C354.716 140.909 354.349 141.459 353.922 141.886C353.489 143.019 352.936 143.876 352.262 144.456C351.989 145.069 351.729 145.599 351.482 146.046C351.242 146.486 351.016 146.876 350.802 147.216C347.222 146.296 344.406 144.642 342.352 142.256H341.802C337.856 145.102 333.786 146.526 329.592 146.526C327.325 146.526 325.092 146.142 322.892 145.376C316.312 143.022 312.335 138.739 310.962 132.526V132.296C310.962 120.456 317.892 114.536 331.752 114.536H331.892C332.166 114.409 332.469 114.346 332.802 114.346L333.352 114.166H334.642L335.192 113.986H335.742L340.332 113.436C340.392 113.096 340.422 112.789 340.422 112.516V111.596C340.422 106.482 337.716 103.926 332.302 103.926C328.535 103.926 323.379 105.196 316.832 107.736L316.102 106.086L315.732 104.986L315.362 104.616L315.182 104.256L314.812 103.146C314.479 102.599 314.235 102.049 314.082 101.496C313.435 100.642 313.005 99.7856 312.792 98.9256L313.342 98.7456L313.712 98.5556L314.262 98.3756L314.632 98.0056H315.182C315.302 97.8856 315.409 97.8256 315.502 97.8256H315.552C316.652 97.2456 317.629 96.8156 318.482 96.5356L319.402 96.3556C320.075 96.0489 320.689 95.8656 321.242 95.8056L322.712 95.4356C323.779 95.0089 324.819 94.7656 325.832 94.7056L329.872 93.9656C330.479 93.9056 331.066 93.8523 331.632 93.8056C332.199 93.7589 332.759 93.7356 333.312 93.7356C339.152 93.7356 343.939 95.6489 347.672 99.4756ZM335.922 122.796H334.822C334.549 122.856 334.282 122.902 334.022 122.936C333.762 122.962 333.509 122.976 333.262 122.976H332.992L332.252 123.166H331.702C331.549 123.286 331.366 123.346 331.152 123.346H330.602L327.662 124.076H327.112C326.259 124.569 325.525 124.876 324.912 124.996C322.925 126.896 321.932 128.732 321.932 130.506C321.932 132.126 322.742 133.716 324.362 135.276C326.715 136.716 329.009 137.436 331.242 137.436C334.089 137.436 336.812 136.289 339.412 133.996C339.659 133.289 339.906 132.799 340.152 132.526L340.332 131.976L340.152 131.236V122.606H336.482C336.329 122.732 336.142 122.796 335.922 122.796Z" fill="white"/>
<path d="M369.039 145.372V95.2521H380.239V145.372H369.039ZM381.339 80.5621V81.1621C381.339 83.7021 380.542 85.7655 378.949 87.3521C377.269 88.1788 375.722 88.5921 374.309 88.5921C371.862 88.5921 369.922 87.2621 368.489 84.6021C368.209 83.5288 368.069 82.5821 368.069 81.7621C368.069 78.6355 369.799 76.5221 373.259 75.4221H373.719C377.605 75.4221 380.145 77.1355 381.339 80.5621Z" fill="white"/>
<path d="M110.106 68.8408H59.6061V166.841H110.106V68.8408Z" stroke="white" stroke-width="2" stroke-dasharray="5 5"/>
<path d="M162.106 68.8408H112.106V166.841H162.106V68.8408Z" stroke="white" stroke-width="2" stroke-dasharray="5 5"/>
<path d="M189.106 68.8408H164.106V166.841H189.106V68.8408Z" stroke="white" stroke-width="2" stroke-dasharray="5 5"/>
<path d="M214.106 68.8408H191.106V166.841H214.106V68.8408Z" stroke="white" stroke-width="2" stroke-dasharray="5 5"/>
<path d="M305.607 68.8408H216.106V166.841H305.607V68.8408Z" stroke="white" stroke-width="2" stroke-dasharray="5 5"/>
<path d="M361.107 68.8408H307.607V166.841H361.107V68.8408Z" stroke="white" stroke-width="2" stroke-dasharray="5 5"/>
<path d="M388.107 68.8408H363.107V166.841H388.107V68.8408Z" stroke="white" stroke-width="2" stroke-dasharray="5 5"/>
<path d="M610.107 360.341L647.607 397.841V510.341V1048.68H610.107H572.607V510.341V397.841L610.107 360.341Z" fill="white"/>
<path d="M78.3561 218.356V207.326H177.806V218.356H78.3561ZM123.696 214.306L134.376 211.716C136.783 220.569 140.03 228.819 144.116 236.466C148.203 244.119 153.226 250.813 159.186 256.546C165.153 262.286 172.073 266.806 179.946 270.106C179.046 270.853 178.09 271.826 177.076 273.026C176.063 274.226 175.106 275.446 174.206 276.686C173.306 277.926 172.556 279.033 171.956 280.006C163.63 276.106 156.373 270.949 150.186 264.536C144 258.123 138.77 250.679 134.496 242.206C130.223 233.733 126.623 224.433 123.696 214.306ZM122.006 175.946H133.596C133.596 181.266 133.463 186.983 133.196 193.096C132.936 199.209 132.356 205.493 131.456 211.946C130.556 218.393 129.093 224.843 127.066 231.296C125.046 237.743 122.233 243.966 118.626 249.966C115.033 255.966 110.423 261.536 104.796 266.676C99.1695 271.809 92.3062 276.289 84.2062 280.116C83.3062 278.689 82.1062 277.133 80.6061 275.446C79.1061 273.759 77.6061 272.353 76.1061 271.226C83.9062 267.706 90.4862 263.599 95.8462 258.906C101.213 254.219 105.563 249.119 108.896 243.606C112.236 238.099 114.806 232.383 116.606 226.456C118.406 220.529 119.683 214.603 120.436 208.676C121.183 202.756 121.633 197.019 121.786 191.466C121.933 185.919 122.006 180.746 122.006 175.946Z" fill="white"/>
<path d="M233.749 213.968V207.898H297.089V213.968H233.749ZM234.309 256.498V250.308H297.199V256.498H234.309ZM265.019 263.918V232.758H274.589V263.918H265.019ZM280.549 222.968H249.839V229.158H280.549V222.968ZM240.839 234.218V217.678H289.999V234.218H240.839ZM256.809 190.568L265.699 191.698C264.872 194.771 263.932 198.031 262.879 201.478C261.832 204.931 260.859 207.895 259.959 210.368H250.619C251.672 207.668 252.759 204.481 253.879 200.808C255.006 197.135 255.982 193.721 256.809 190.568ZM240.269 202.378V196.648H287.409V211.158H278.519V202.378H240.269ZM217.769 280.458V180.558H312.949V280.458H302.489V190.228H227.899V280.458H217.769ZM224.189 275.958V266.278H308.109V275.958H224.189ZM242.189 254.698V238.378H292.359V244.458H250.509V254.698" fill="white"/>
<path d="M195.106 168.841H59.6061V309.341H195.106V168.841Z" stroke="white" stroke-width="2" stroke-dasharray="5 5"/>
<path d="M332.607 168.841H197.106V309.341H332.607V168.841Z" stroke="white" stroke-width="2" stroke-dasharray="5 5"/>
<path d="M60.1256 328.391V317.371H110.796V328.391H91.5157V387.691H79.4056V328.391" fill="white"/>
<path d="M153.515 343.617L152.965 344.357L152.415 344.907L151.865 345.277L151.125 346.377L150.765 346.747L150.395 346.927C149.995 347.481 149.628 347.907 149.295 348.207L146.905 350.967C141.825 347.694 137.618 346.057 134.285 346.057C130.858 346.057 128.335 347.754 126.715 351.147C126.775 353.141 127.568 354.611 129.095 355.557C129.768 355.737 130.258 355.921 130.565 356.107C131.758 356.287 132.738 356.531 133.505 356.837C145.098 357.697 151.585 362.351 152.965 370.797C153.025 371.164 153.055 371.521 153.055 371.867C153.055 372.221 153.055 372.567 153.055 372.907C153.055 379.054 150.455 383.674 145.255 386.767C141.522 388.447 137.772 389.287 134.005 389.287C126.845 389.287 119.702 386.244 112.575 380.157L112.945 379.427L113.855 378.507C114.468 377.774 115.022 377.221 115.515 376.847C115.635 376.634 115.755 376.514 115.875 376.487L116.245 375.937C116.365 375.724 116.488 375.601 116.615 375.567L116.795 375.197L117.165 375.017L119.555 372.257C124.082 376.544 128.822 378.687 133.775 378.687C135.855 378.687 137.968 378.321 140.115 377.587C140.662 376.854 141.212 376.304 141.765 375.937C141.952 375.204 142.045 374.514 142.045 373.867C142.045 372.274 141.525 370.944 140.485 369.877L136.255 368.407C123.648 367.641 116.795 362.254 115.695 352.247C116.522 342.181 122.212 336.797 132.765 336.097H133.415C141.522 336.097 148.222 338.604 153.515 343.617Z" fill="white"/>
<path d="M165.893 373.366V337.566H176.913V369.326C177.033 369.479 177.093 369.663 177.093 369.876C177.22 369.969 177.283 370.059 177.283 370.146V370.246C177.497 371.619 177.8 372.843 178.193 373.916C180.307 376.849 183.017 378.316 186.323 378.316H186.463C190.563 377.216 193.437 374.953 195.083 371.526V370.976L195.823 368.776V337.566H207.024V387.686H195.823V383.646C191.417 387.253 187.027 389.056 182.653 389.056C179.253 389.056 175.81 387.986 172.323 385.846C169.477 383.673 167.517 381.103 166.443 378.136L166.263 376.846C165.99 375.959 165.853 375.089 165.853 374.236V373.826C165.853 373.673 165.867 373.519 165.893 373.366Z" fill="white"/>
<path d="M265.443 358.135L265.623 360.885C265.743 361.038 265.803 361.221 265.803 361.435V366.945H232.212C232.912 373.185 236.092 376.858 241.752 377.965C242.672 378.051 243.576 378.095 244.462 378.095C249.082 378.095 253.016 376.581 256.263 373.555C256.656 374.228 257.146 374.778 257.733 375.205L257.913 375.755L258.463 376.305C258.889 376.705 259.256 377.081 259.563 377.435C259.869 377.788 260.116 378.148 260.303 378.515C260.516 378.635 260.636 378.755 260.663 378.875L263.233 381.815C257.419 386.681 251.223 389.115 244.642 389.115C243.516 389.115 242.369 389.038 241.202 388.885C240.042 388.731 238.879 388.518 237.712 388.245C227.126 384.725 221.312 377.135 220.272 365.475C220.272 365.321 220.266 365.015 220.252 364.555C220.239 364.101 220.232 363.811 220.232 363.685C220.232 347.745 227.406 338.671 241.752 336.465C256.013 336.958 263.909 344.181 265.443 358.135ZM232.022 358.315H254.243V357.765C254.116 357.398 254.053 357.031 254.053 356.665V356.295C253.746 355.621 253.563 355.011 253.503 354.465C251.243 349.231 247.509 346.598 242.302 346.565C235.756 348.125 232.329 352.041 232.022 358.315Z" fill="white"/>
<path d="M318.657 346.377V346.927C319.057 347.661 319.304 348.394 319.397 349.127V387.497H308.197V355.007L308.007 353.907C306.48 349.281 303.91 346.967 300.297 346.967C299.197 346.967 297.973 347.197 296.627 347.657C293.567 348.977 291.363 351.061 290.017 353.907L289.287 357.027V387.497H278.267V337.377H289.287V341.597C292.713 338.537 296.447 336.704 300.487 336.097H301.307C309.507 336.097 315.29 339.524 318.657 346.377Z" fill="white"/>
<path d="M357.798 317.924V317.554H370.468L370.648 318.844L370.838 319.394L371.198 320.684L371.568 322.884L372.118 324.714L372.488 326.924L373.038 328.754L373.218 330.224C373.431 330.744 373.555 331.174 373.588 331.514L373.768 332.244L374.138 333.344V334.084C374.258 334.178 374.318 334.268 374.318 334.354V335.004C374.658 335.678 374.845 336.411 374.878 337.204L375.238 338.304L375.608 339.594L375.978 341.794L376.528 343.624L376.708 344.734L377.808 349.324C377.901 349.751 377.988 350.141 378.068 350.494C378.141 350.841 378.178 351.184 378.178 351.524L378.548 352.254V352.994L378.908 353.914V354.644L379.278 355.374V356.114C379.618 357.034 379.801 357.831 379.828 358.504L380.018 359.234C380.231 359.848 380.398 360.414 380.518 360.934C380.638 361.454 380.715 361.928 380.748 362.354L381.118 363.824L381.488 365.104L381.848 364.004L382.588 360.334L382.948 359.414L383.138 358.314L383.688 355.744L384.058 354.464V353.914L384.788 350.974L384.968 349.874L385.338 349.134L385.518 348.404L385.708 347.484V346.754L385.888 346.194L386.628 343.264L386.988 341.054L387.178 340.324L387.538 339.594C387.605 338.614 387.788 337.754 388.088 337.014L388.278 336.104V335.554L388.648 334.084L388.828 333.534L389.378 331.144L389.558 330.044L389.928 328.944L390.108 328.024L390.658 325.634L390.848 324.714L391.028 324.354C391.062 324.014 391.102 323.684 391.148 323.364C391.195 323.044 391.278 322.761 391.398 322.514L391.578 321.964V321.414L391.768 320.684L391.948 320.124L392.498 317.554H406.088V318.104C406.515 319.178 406.758 320.221 406.818 321.234L407.188 322.694L407.368 323.254L408.108 326.554L408.468 328.024C408.715 328.911 408.838 329.644 408.838 330.224C409.052 330.744 409.175 331.174 409.208 331.514L409.568 332.794L409.758 334.084L409.938 334.814L410.128 335.364C410.215 335.764 410.292 336.124 410.358 336.444C410.418 336.764 410.462 337.078 410.488 337.384C410.735 337.964 410.905 338.501 410.998 338.994C411.092 339.481 411.168 339.924 411.228 340.324L411.408 341.424L411.778 342.344L411.958 343.444V343.994C412.265 344.728 412.448 345.401 412.508 346.014L412.698 347.114C412.998 347.848 413.182 348.521 413.248 349.134L413.428 350.054L413.978 352.074V352.804C414.098 353.084 414.158 353.391 414.158 353.724C414.498 354.431 414.685 355.044 414.718 355.564L414.898 356.484L415.078 357.584L415.268 358.314C415.575 359.261 415.758 360.118 415.818 360.884C415.938 360.978 415.998 361.071 415.998 361.164V361.804C416.425 362.878 416.672 363.918 416.738 364.924C416.918 364.864 417.038 364.741 417.098 364.554C417.252 363.794 417.405 363.131 417.558 362.564C417.712 361.998 417.865 361.501 418.018 361.074V360.334C418.418 359.234 418.662 358.254 418.748 357.394L419.118 356.114L419.858 353.174L420.038 351.704L420.408 350.424L420.588 349.874V349.324C420.802 348.738 420.972 348.208 421.098 347.734C421.218 347.261 421.292 346.811 421.318 346.384L421.688 345.094L423.158 339.034L423.708 336.104L424.078 334.634C424.412 333.748 424.595 333.014 424.628 332.434L424.808 331.514L425.178 330.044C425.452 329.158 425.635 328.424 425.728 327.844L425.908 327.104L426.468 324.534L426.828 323.434V322.884L427.378 321.414V320.684L427.568 320.124L428.118 317.554H440.598L439.868 321.234L439.318 323.434L439.128 323.984L438.578 326.554L438.218 328.024L437.848 329.304L437.108 332.984L436.748 334.264L436.008 337.754L435.648 339.034L435.458 339.594L435.088 341.604L434.908 341.974L434.728 343.264C434.422 344.271 434.238 345.128 434.178 345.834L433.438 348.034L433.258 349.324L433.068 350.054L432.888 350.604L432.708 351.894L432.518 352.444L431.418 357.034L431.238 358.314L430.868 359.604L429.948 363.274L429.768 364.554L428.668 369.144L428.118 371.714C427.778 372.634 427.595 373.431 427.568 374.104L426.828 376.494V377.224C426.495 378.144 426.312 378.941 426.278 379.614C425.972 380.621 425.788 381.478 425.728 382.184L425.358 383.464L425.178 383.834L424.998 385.124C424.692 386.131 424.508 386.988 424.448 387.694H410.858L410.678 386.224C410.465 385.704 410.342 385.274 410.308 384.934L409.938 383.464L409.758 382.184L409.388 380.894C409.295 380.528 409.218 380.178 409.158 379.844C409.098 379.504 409.052 379.181 409.018 378.874L408.838 378.144L408.658 377.224C408.532 377.071 408.468 376.888 408.468 376.674L408.288 375.754L408.108 375.204C408.015 374.811 407.938 374.451 407.878 374.124C407.812 373.804 407.765 373.491 407.738 373.184C407.525 372.604 407.365 372.071 407.258 371.584C407.152 371.091 407.065 370.648 406.998 370.254L406.818 369.514L406.638 368.594C406.512 368.228 406.425 367.878 406.378 367.544C406.338 367.204 406.302 366.881 406.268 366.574C406.055 365.968 405.888 365.388 405.768 364.834C405.642 364.281 405.565 363.761 405.538 363.274C405.412 363.121 405.348 362.938 405.348 362.724L405.168 361.984L404.988 361.434C404.895 360.794 404.772 360.184 404.618 359.604L404.248 357.944L404.068 356.844L403.698 355.934L403.328 353.724L403.148 353.174V352.624C402.842 351.891 402.658 351.218 402.598 350.604L402.228 348.404L401.858 347.484L401.498 346.014V345.284C401.132 344.271 400.948 343.414 400.948 342.714C400.822 342.561 400.758 342.378 400.758 342.164L400.578 341.604V341.054C400.272 340.354 400.088 339.621 400.028 338.854C399.722 337.874 399.538 336.958 399.478 336.104L399.108 336.834L398.928 337.934L398.378 340.324L398.008 342.344L397.818 342.894L397.088 346.014L396.908 346.754L396.538 348.584L396.358 349.324L395.988 351.344L395.808 351.894L395.068 355.374L394.698 356.664L394.518 357.944C394.185 358.864 394.002 359.661 393.968 360.334L393.788 360.704L393.598 361.804L393.418 362.354L392.498 366.944L392.318 367.494L391.578 370.984L391.398 371.714L391.218 372.634L391.028 373.184L390.298 376.674L389.928 378.144L389.558 379.984L389.378 380.344L389.008 382.004L388.828 382.734L388.648 384.014C388.428 384.781 388.305 385.394 388.278 385.854C388.152 386.161 388.068 386.451 388.028 386.724C387.982 387.004 387.942 387.264 387.908 387.504C387.482 387.571 387.092 387.624 386.738 387.664C386.385 387.711 386.042 387.734 385.708 387.734H385.248C385.095 387.734 384.942 387.721 384.788 387.694H374.138V386.954C373.711 385.854 373.468 384.814 373.408 383.834C373.281 383.681 373.218 383.498 373.218 383.284L373.038 382.364C372.365 380.191 371.935 378.354 371.748 376.854L371.568 376.304L370.648 372.824L370.468 371.354L368.998 365.664V364.924C368.691 364.224 368.508 363.491 368.448 362.724L368.078 361.624L367.718 360.334V359.784L366.798 356.114V355.564L366.608 354.824L366.248 354.094L366.058 352.624C365.818 351.891 365.621 351.218 365.468 350.604C365.315 349.991 365.208 349.441 365.148 348.954L364.958 348.404V347.854C364.838 347.701 364.778 347.518 364.778 347.304L364.408 345.834L364.228 345.284C364.101 344.638 363.985 344.054 363.878 343.534C363.771 343.014 363.641 342.558 363.488 342.164L363.308 340.874C363.095 340.261 362.925 339.694 362.798 339.174C362.678 338.654 362.601 338.181 362.568 337.754L362.388 336.834C362.268 336.681 362.208 336.498 362.208 336.284L361.288 332.614L360.918 331.324L360.738 330.414L360.558 329.674L360.368 328.394C360.121 327.748 359.998 327.194 359.998 326.734V326.554L359.638 325.634L359.448 324.904C359.328 324.018 359.145 323.281 358.898 322.694V321.964C358.778 321.811 358.718 321.628 358.718 321.414" fill="white"/>
<path d="M484.172 341.975L484.732 343.075C486.166 344.855 487.083 346.692 487.483 348.585C487.603 349.378 487.693 350.122 487.753 350.815C487.819 351.502 487.853 352.105 487.853 352.625V376.855C488.979 379.095 490.629 380.442 492.803 380.895L492.443 381.445C492.316 381.665 492.193 381.788 492.073 381.815L491.893 382.365L491.523 382.735C491.216 383.408 490.849 383.958 490.423 384.385C489.989 385.518 489.436 386.375 488.763 386.955C488.489 387.568 488.229 388.098 487.983 388.545C487.743 388.985 487.516 389.375 487.303 389.715C483.722 388.795 480.906 387.142 478.852 384.755H478.302C474.356 387.602 470.286 389.025 466.092 389.025C463.826 389.025 461.592 388.642 459.392 387.875C452.812 385.522 448.836 381.238 447.462 375.025V374.795C447.462 362.955 454.392 357.035 468.252 357.035H468.392C468.666 356.908 468.969 356.845 469.302 356.845L469.852 356.665H471.142L471.692 356.485H472.242L476.832 355.935C476.892 355.595 476.922 355.288 476.922 355.015V354.095C476.922 348.982 474.216 346.425 468.802 346.425C465.036 346.425 459.879 347.695 453.332 350.235L452.602 348.585L452.232 347.485L451.862 347.115L451.682 346.755L451.312 345.645C450.979 345.098 450.736 344.548 450.582 343.995C449.936 343.142 449.506 342.285 449.292 341.425L449.842 341.245L450.212 341.055L450.762 340.875L451.132 340.505H451.682C451.802 340.385 451.909 340.325 452.002 340.325H452.052C453.152 339.745 454.129 339.315 454.982 339.035L455.902 338.855C456.576 338.548 457.189 338.365 457.742 338.305L459.212 337.935C460.279 337.508 461.319 337.265 462.332 337.205L466.372 336.465C466.979 336.405 467.566 336.352 468.132 336.305C468.699 336.258 469.259 336.235 469.812 336.235C475.652 336.235 480.439 338.148 484.172 341.975ZM472.422 365.295H471.322C471.049 365.355 470.782 365.402 470.522 365.435C470.262 365.462 470.009 365.475 469.762 365.475H469.492L468.752 365.665H468.202C468.049 365.785 467.866 365.845 467.652 365.845H467.102L464.162 366.575H463.612C462.759 367.068 462.026 367.375 461.412 367.495C459.426 369.395 458.432 371.232 458.432 373.005C458.432 374.625 459.242 376.215 460.862 377.775C463.216 379.215 465.509 379.935 467.742 379.935C470.589 379.935 473.312 378.788 475.912 376.495C476.159 375.788 476.406 375.298 476.652 375.025L476.832 374.475L476.652 373.735V365.105H472.982C472.829 365.232 472.642 365.295 472.422 365.295Z" fill="white"/>
<path d="M546.657 346.377V346.927C547.057 347.661 547.304 348.394 547.397 349.127V387.497H536.197V355.007L536.007 353.907C534.481 349.281 531.911 346.967 528.297 346.967C527.197 346.967 525.974 347.197 524.627 347.657C521.567 348.977 519.364 351.061 518.017 353.907L517.287 357.027V387.497H506.267V337.377H517.287V341.597C520.714 338.537 524.447 336.704 528.487 336.097H529.307C537.507 336.097 543.291 339.524 546.657 346.377Z" fill="white"/>
<path d="M110.106 311.34H59.6061V409.34H110.106V311.34Z" stroke="white" stroke-width="2" stroke-dasharray="5 5"/>
<path d="M157.606 311.34H112.106V409.34H157.606V311.34Z" stroke="white" stroke-width="2" stroke-dasharray="5 5"/>
<path d="M215.106 311.34H159.606V409.34H215.106V311.34Z" stroke="white" stroke-width="2" stroke-dasharray="5 5"/>
<path d="M269.607 311.34H217.106V409.34H269.607V311.34Z" stroke="white" stroke-width="2" stroke-dasharray="5 5"/>
<path d="M325.607 311.34H271.607V409.34H325.607V311.34Z" stroke="white" stroke-width="2" stroke-dasharray="5 5"/>
<path d="M350.607 311.34H327.607V409.34H350.607V311.34Z" stroke="white" stroke-width="2" stroke-dasharray="5 5"/>
<path d="M442.107 311.34H352.607V409.34H442.107V311.34Z" stroke="white" stroke-width="2" stroke-dasharray="5 5"/>
<path d="M497.607 311.34H444.107V409.34H497.607V311.34Z" stroke="white" stroke-width="2" stroke-dasharray="5 5"/>
<path d="M553.607 311.34H499.607V409.34H553.607V311.34Z" stroke="white" stroke-width="2" stroke-dasharray="5 5"/>
<path d="M610.107 197.84H666.357V235.34C667.467 270.423 644.097 301.583 610.107 310.34C576.117 301.583 552.747 270.423 553.857 235.34V197.84H610.107Z" fill="#E9B500"/>
<path d="M609.568 214.245C622.634 213.816 631.324 218.834 635.639 229.299C636.985 233.4 637.169 237.255 636.189 240.866C635.333 245.364 632.946 248.362 629.029 249.862C635.792 253.044 638.545 258.736 637.291 266.936C636.985 275.412 633.497 281.471 626.826 285.112C625.541 285.938 624.378 286.489 623.338 286.764C600.572 291.232 587.231 284.133 583.314 265.467C583.375 265.131 583.559 264.947 583.865 264.917L584.967 264.733H585.701C586.099 264.611 586.466 264.549 586.803 264.549C586.986 264.427 587.17 264.366 587.353 264.366H587.904C589.098 264.029 590.138 263.846 591.025 263.815L591.576 263.631H592.494C594.697 263.05 596.533 262.744 598.002 262.713C599.409 269.629 603.326 273.607 609.752 274.647C618.289 275.167 622.695 271.801 622.971 264.549C622.634 261.428 621.226 259.164 618.748 257.756H618.197L617.83 257.573L616.178 257.206H615.443L614.525 257.022H613.791H613.24H612.506L612.139 256.838H611.404H610.853H609.568H608.834L605.529 256.471V255.92V252.616V250.229V249.495V246.374V245.823V243.62C611.098 243.711 615.872 242.732 619.85 240.682C620.431 239.978 620.982 239.428 621.502 239.03C623.552 232.237 620.676 228.381 612.873 227.463C604.03 227.127 599.073 230.554 598.002 237.745C596.87 237.683 595.89 237.561 595.064 237.377H593.963C592.31 237.041 590.964 236.857 589.924 236.827L589.189 236.643H588.455L587.904 236.459H587.353L583.314 235.909C586.833 222.262 595.584 215.04 609.568 214.245Z" fill="black"/>
<path d="M610.107 171.762V473.762" stroke="#46C147" stroke-width="3.03189"/>
<path d="M610.107 450.719L646.49 441.623V459.815L610.107 450.719Z" fill="#46C147"/>
<path d="M610.107 450.719L573.724 441.623V459.815L610.107 450.719Z" fill="#46C147"/>
<path d="M584.371 511.821C582.424 511.821 580.766 511.291 579.397 510.232C578.027 509.164 576.981 507.617 576.257 505.593C575.533 503.561 575.172 501.106 575.172 498.229C575.172 495.369 575.533 492.927 576.257 490.903C576.989 488.871 578.04 487.32 579.409 486.252C580.788 485.175 582.441 484.637 584.371 484.637C586.3 484.637 587.95 485.175 589.319 486.252C590.697 487.32 591.748 488.871 592.472 490.903C593.204 492.927 593.57 495.369 593.57 498.229C593.57 501.106 593.208 503.561 592.485 505.593C591.761 507.617 590.714 509.164 589.345 510.232C587.975 511.291 586.317 511.821 584.371 511.821ZM584.371 508.978C586.3 508.978 587.799 508.048 588.867 506.188C589.935 504.327 590.469 501.674 590.469 498.229C590.469 495.938 590.224 493.987 589.733 492.376C589.25 490.765 588.553 489.538 587.64 488.694C586.735 487.85 585.646 487.428 584.371 487.428C582.459 487.428 580.964 488.371 579.888 490.257C578.811 492.135 578.273 494.792 578.273 498.229C578.273 500.52 578.514 502.467 578.996 504.069C579.478 505.671 580.172 506.89 581.076 507.725C581.989 508.561 583.087 508.978 584.371 508.978ZM612.588 496.058L609.849 496.834C609.677 496.377 609.423 495.933 609.087 495.503C608.759 495.063 608.312 494.702 607.743 494.417C607.175 494.133 606.447 493.991 605.56 493.991C604.345 493.991 603.333 494.271 602.523 494.831C601.722 495.382 601.322 496.084 601.322 496.937C601.322 497.695 601.597 498.293 602.149 498.733C602.7 499.172 603.561 499.538 604.733 499.831L607.678 500.554C609.453 500.985 610.775 501.644 611.645 502.531C612.515 503.41 612.95 504.542 612.95 505.929C612.95 507.066 612.623 508.083 611.968 508.978C611.322 509.874 610.417 510.58 609.255 511.097C608.092 511.614 606.74 511.872 605.198 511.872C603.174 511.872 601.498 511.433 600.172 510.555C598.845 509.676 598.006 508.393 597.653 506.704L600.547 505.981C600.822 507.049 601.343 507.85 602.11 508.384C602.885 508.918 603.897 509.185 605.146 509.185C606.567 509.185 607.696 508.884 608.531 508.281C609.375 507.669 609.797 506.937 609.797 506.084C609.797 505.395 609.556 504.818 609.074 504.353C608.591 503.879 607.851 503.526 606.852 503.294L603.544 502.518C601.727 502.088 600.392 501.42 599.539 500.516C598.695 499.603 598.273 498.461 598.273 497.092C598.273 495.972 598.587 494.982 599.216 494.12C599.853 493.259 600.719 492.583 601.813 492.092C602.915 491.601 604.164 491.355 605.56 491.355C607.523 491.355 609.065 491.786 610.185 492.647C611.313 493.509 612.114 494.646 612.588 496.058ZM622.036 511.459L615.989 491.614H619.193L623.483 506.808H623.69L627.927 491.614H631.183L635.369 506.756H635.576L639.865 491.614H643.07L637.023 511.459H634.026L629.684 496.213H629.374L625.033 511.459H622.036Z" fill="#46C147"/>
<path d="M610.107 172.84H725.32" stroke="#FF0000" stroke-width="3.03189"/>
<path d="M610.107 197.84H725.32" stroke="#FF0000" stroke-width="3.03189"/>
<path d="M701.064 172.84V197.84" stroke="#FF0000" stroke-width="3.03189"/>
<path d="M701.064 172.84L691.969 209.223H710.16L701.064 172.84Z" fill="#FF0000"/>
<path d="M701.064 197.84L691.969 161.458H710.16L701.064 197.84Z" fill="#FF0000"/>
<path d="M747.239 194.538V192.213L755.973 182.652C756.998 181.532 757.842 180.559 758.505 179.732C759.168 178.897 759.659 178.113 759.978 177.381C760.305 176.64 760.469 175.865 760.469 175.055C760.469 174.125 760.245 173.319 759.797 172.639C759.358 171.958 758.755 171.433 757.988 171.063C757.222 170.692 756.36 170.507 755.404 170.507C754.388 170.507 753.501 170.718 752.743 171.14C751.994 171.554 751.412 172.135 750.999 172.884C750.594 173.634 750.391 174.512 750.391 175.52H747.342C747.342 173.97 747.7 172.609 748.415 171.437C749.13 170.266 750.103 169.353 751.335 168.698C752.575 168.044 753.966 167.716 755.508 167.716C757.058 167.716 758.432 168.044 759.629 168.698C760.826 169.353 761.765 170.236 762.446 171.347C763.126 172.458 763.466 173.694 763.466 175.055C763.466 176.028 763.29 176.98 762.937 177.91C762.592 178.832 761.989 179.861 761.128 180.998C760.275 182.127 759.091 183.505 757.575 185.133L751.632 191.489V191.696H763.932V194.538H747.239ZM783.376 179.138L780.637 179.913C780.465 179.456 780.211 179.013 779.875 178.582C779.548 178.143 779.1 177.781 778.531 177.497C777.963 177.213 777.235 177.07 776.348 177.07C775.133 177.07 774.121 177.35 773.312 177.91C772.51 178.462 772.11 179.164 772.11 180.016C772.11 180.774 772.386 181.373 772.937 181.812C773.488 182.251 774.349 182.617 775.521 182.91L778.467 183.634C780.241 184.065 781.563 184.723 782.433 185.611C783.303 186.489 783.738 187.622 783.738 189.009C783.738 190.146 783.411 191.162 782.756 192.058C782.11 192.953 781.206 193.66 780.043 194.177C778.88 194.693 777.528 194.952 775.986 194.952C773.962 194.952 772.287 194.512 770.96 193.634C769.634 192.755 768.794 191.472 768.441 189.784L771.335 189.06C771.61 190.128 772.131 190.929 772.898 191.463C773.673 191.997 774.685 192.264 775.934 192.264C777.355 192.264 778.484 191.963 779.319 191.36C780.163 190.748 780.585 190.016 780.585 189.164C780.585 188.475 780.344 187.897 779.862 187.432C779.38 186.959 778.639 186.605 777.64 186.373L774.332 185.598C772.515 185.167 771.18 184.499 770.327 183.595C769.483 182.682 769.061 181.541 769.061 180.171C769.061 179.052 769.375 178.061 770.004 177.2C770.641 176.338 771.507 175.662 772.601 175.171C773.703 174.68 774.952 174.435 776.348 174.435C778.312 174.435 779.853 174.865 780.973 175.727C782.101 176.588 782.902 177.725 783.376 179.138ZM792.824 194.538L786.777 174.693H789.982L794.271 189.887H794.478L798.715 174.693H801.971L806.157 189.835H806.364L810.654 174.693H813.858L807.811 194.538H804.814L800.473 179.293H800.163L795.821 194.538H792.824Z" fill="#FF0000"/>
<path d="M610.107 313.064H725.32" stroke="#FF0000" stroke-width="3.03189"/>
<path d="M610.107 359.762H725.32" stroke="#FF0000" stroke-width="3.03189"/>
<path d="M701.064 313.064V338.064" stroke="#FF0000" stroke-width="3.03189"/>
<path d="M701.064 334.762L691.969 371.145H710.16L701.064 334.762Z" fill="#FF0000"/>
<path d="M701.064 338.064L691.969 301.682H710.16L701.064 338.064Z" fill="#FF0000"/>
<path d="M746.619 343.336V340.7L758.247 322.302H760.159V326.385H758.867L750.081 340.287V340.493H765.74V343.336H746.619ZM759.074 348.762V342.535V341.307V322.302H762.123V348.762H759.074ZM784.691 333.362L781.952 334.137C781.78 333.68 781.525 333.237 781.189 332.806C780.862 332.367 780.414 332.005 779.846 331.721C779.277 331.436 778.55 331.294 777.662 331.294C776.448 331.294 775.436 331.574 774.626 332.134C773.825 332.685 773.425 333.387 773.425 334.24C773.425 334.998 773.7 335.597 774.251 336.036C774.803 336.475 775.664 336.841 776.835 337.134L779.781 337.858C781.556 338.288 782.878 338.947 783.748 339.834C784.618 340.713 785.053 341.846 785.053 343.232C785.053 344.369 784.725 345.386 784.071 346.282C783.425 347.177 782.52 347.884 781.357 348.4C780.195 348.917 778.842 349.176 777.301 349.176C775.276 349.176 773.601 348.736 772.275 347.858C770.948 346.979 770.108 345.696 769.755 344.008L772.649 343.284C772.925 344.352 773.446 345.153 774.213 345.687C774.988 346.221 776 346.488 777.249 346.488C778.67 346.488 779.798 346.187 780.634 345.584C781.478 344.972 781.9 344.24 781.9 343.387C781.9 342.698 781.659 342.121 781.177 341.656C780.694 341.182 779.953 340.829 778.954 340.597L775.647 339.822C773.829 339.391 772.494 338.723 771.642 337.819C770.798 336.906 770.375 335.765 770.375 334.395C770.375 333.275 770.69 332.285 771.319 331.424C771.956 330.562 772.822 329.886 773.916 329.395C775.018 328.904 776.267 328.659 777.662 328.659C779.626 328.659 781.168 329.089 782.288 329.951C783.416 330.812 784.217 331.949 784.691 333.362ZM794.139 348.762L788.092 328.917H791.296L795.586 344.111H795.792L800.03 328.917H803.286L807.472 344.059H807.679L811.968 328.917H815.172L809.126 348.762H806.128L801.787 333.517H801.477L797.136 348.762H794.139Z" fill="#FF0000"/>
</g>
<defs>
<clipPath id="clip0_0_1">
<rect width="820" height="600" fill="white"/>
</clipPath>
</defs>
</svg>
