<svg width="900" height="488" viewBox="0 0 900 488" fill="none" xmlns="http://www.w3.org/2000/svg">
<g clip-path="url(#clip0_0_1)">
<path d="M0 100.5C0 79.7893 16.7894 63 37.5002 63H787.504C808.215 63 825.004 79.7893 825.004 100.5V550.5C825.004 571.211 808.215 588 787.504 588H37.5002C16.7894 588 0 571.211 0 550.5V100.5Z" fill="white"/>
<path d="M18.7501 100.5C18.7501 90.1447 27.1449 81.75 37.5002 81.75H787.504C797.859 81.75 806.254 90.1447 806.254 100.5V550.5C806.254 560.855 797.859 569.25 787.504 569.25H37.5002C27.1449 569.25 18.7501 560.855 18.7501 550.5V100.5Z" fill="#0033A2"/>
<path d="M58.2314 139C58.2314 128.645 66.626 120.25 76.9815 120.25H748.023C758.378 120.25 766.773 128.645 766.773 139V406.5C766.773 416.855 758.378 425.25 748.023 425.25H76.9815C66.626 425.25 58.2314 416.855 58.2314 406.5V139Z" fill="white"/>
<path d="M64.4814 139C64.4814 132.096 70.0778 126.5 76.9814 126.5H748.023C754.926 126.5 760.523 132.096 760.523 139V406.5C760.523 413.404 754.926 419 748.023 419H76.9814C70.0778 419 64.4814 413.404 64.4814 406.5V139Z" fill="#006928"/>
<path d="M139.894 329.415V320.305H192.885V329.415H139.894ZM133.034 347.525V338.635H200.305V347.525H133.034ZM117.614 366.425V357.205H215.495V366.425H117.614ZM131.454 304.325V295.775H170.604V304.325H131.454ZM161.494 301.515V295.775H173.084C175.484 298.849 178.391 301.829 181.805 304.715C185.218 307.609 188.985 310.292 193.105 312.765C197.231 315.239 201.545 317.452 206.045 319.405C210.545 321.352 215.081 323.002 219.655 324.355C218.835 324.955 217.898 325.742 216.845 326.715C215.798 327.689 214.785 328.702 213.805 329.755C212.831 330.802 212.045 331.775 211.445 332.675C205.445 330.502 199.521 327.802 193.675 324.575C187.821 321.349 182.401 317.769 177.415 313.835C172.428 309.895 168.134 305.789 164.534 301.515H161.494ZM159.024 296.905L168.694 300.615C165.021 305.562 160.558 310.135 155.304 314.335C150.058 318.535 144.451 322.249 138.484 325.475C132.524 328.702 126.508 331.515 120.434 333.915C119.908 333.162 119.194 332.262 118.294 331.215C117.394 330.162 116.458 329.129 115.484 328.115C114.511 327.109 113.648 326.305 112.894 325.705C119.048 323.825 125.048 321.462 130.894 318.615C136.748 315.762 142.091 312.499 146.924 308.825C151.764 305.152 155.798 301.179 159.024 296.905ZM160.824 363.615V324.465H171.734V363.615H160.824ZM116.834 284.185V274.405H216.285V284.185H116.834ZM140.794 293.525V265.855H151.374V293.525H140.794ZM181.075 294.085V265.855H191.645V294.085" fill="white"/>
<path d="M303.16 273.618V268.108H322.84V273.618H303.16ZM302.48 291.958V286.558H323.63V291.958H302.48ZM302.48 300.388V295.108H323.63V300.388H302.48ZM286.06 353.718V346.858H343.09V353.718H286.06ZM299.22 283.068V277.108H326.22V283.068H299.22ZM316.88 309.278H308.89V315.688H316.88V309.278ZM302.25 320.868V304.108H323.74V320.868H302.25ZM287.97 342.128V335.718H334.65V330.878H280.99V324.468H344.56V342.128H287.97ZM284.14 322.438V296.908H291.23V322.438H284.14ZM273.91 300.838L273.12 293.978C276.42 293.831 280.113 293.681 284.2 293.528C288.287 293.381 292.617 293.194 297.19 292.968V299.158C292.99 299.531 288.923 299.831 284.99 300.058C281.05 300.278 277.357 300.538 273.91 300.838ZM284.93 335.718H294.83C293.93 339.318 292.957 343.068 291.91 346.968C290.857 350.868 289.88 354.241 288.98 357.088L279.42 355.738C280.467 352.964 281.48 349.758 282.46 346.118C283.433 342.484 284.257 339.018 284.93 335.718ZM339.72 347.978V346.858H349.73C349.73 346.858 349.694 347.361 349.62 348.368C349.547 349.381 349.397 350.228 349.17 350.908C348.117 355.554 347.027 359.208 345.9 361.868C344.78 364.534 343.47 366.468 341.97 367.668C340.697 368.568 339.327 369.184 337.86 369.518C336.4 369.858 334.657 370.064 332.63 370.138C330.904 370.218 328.447 370.238 325.26 370.198C322.074 370.158 318.68 370.064 315.08 369.918C315.007 368.718 314.707 367.368 314.18 365.868C313.654 364.368 313.017 363.018 312.27 361.818C315.797 362.191 319.21 362.414 322.51 362.488C325.81 362.568 328.134 362.608 329.48 362.608C330.68 362.608 331.654 362.568 332.4 362.488C333.154 362.414 333.794 362.191 334.32 361.818C335.367 360.991 336.324 359.508 337.19 357.368C338.05 355.234 338.894 352.104 339.72 347.978ZM292.58 304.888L297.98 303.658C298.58 305.531 299.16 307.591 299.72 309.838C300.287 312.091 300.72 314.041 301.02 315.688L295.17 317.268C295.017 315.541 294.697 313.534 294.21 311.248C293.723 308.961 293.18 306.841 292.58 304.888ZM292.24 289.588L297.08 287.788C298.053 289.668 298.953 291.768 299.78 294.088C300.607 296.414 301.17 298.441 301.47 300.168L296.18 302.188C295.953 300.468 295.467 298.444 294.72 296.118C293.967 293.791 293.14 291.614 292.24 289.588ZM274.24 280.708L277.84 275.308C280.02 276.728 282.157 278.358 284.25 280.198C286.357 282.038 287.933 283.631 288.98 284.978L284.93 291.168C283.803 289.594 282.23 287.831 280.21 285.878C278.183 283.931 276.193 282.208 274.24 280.708ZM284.93 265.518L291.34 268.668C289.84 271.141 288.34 273.654 286.84 276.208C285.34 278.754 283.917 280.891 282.57 282.618L277.62 280.028C278.82 278.081 280.133 275.701 281.56 272.888C282.98 270.074 284.103 267.618 284.93 265.518ZM292.13 274.858L298.43 278.458C295.957 281.831 293.313 285.391 290.5 289.138C287.687 292.891 285.043 296.041 282.57 298.588L277.84 295.668C279.42 293.794 281.11 291.658 282.91 289.258C284.71 286.858 286.413 284.381 288.02 281.828C289.633 279.281 291.003 276.958 292.13 274.858ZM276.72 303.208L283.36 304.668C282.68 307.594 281.853 310.518 280.88 313.438C279.907 316.364 278.857 318.878 277.73 320.978C277.057 320.531 276.08 320.024 274.8 319.458C273.527 318.898 272.48 318.431 271.66 318.058C272.933 315.958 273.98 313.611 274.8 311.018C275.627 308.431 276.267 305.828 276.72 303.208ZM336.12 322.438V296.908H343.32V322.438H336.12ZM325.77 300.838L325.09 293.978C328.544 293.831 332.427 293.681 336.74 293.528C341.054 293.381 345.647 293.231 350.52 293.078L350.4 299.268C345.98 299.568 341.687 299.848 337.52 300.108C333.36 300.374 329.444 300.618 325.77 300.838ZM344.89 304.888L350.63 303.208C351.604 305.454 352.56 307.928 353.5 310.628C354.434 313.328 355.09 315.654 355.47 317.608L349.51 319.518C349.21 317.564 348.61 315.201 347.71 312.428C346.81 309.654 345.87 307.141 344.89 304.888ZM343.99 289.368L349.28 287.008C350.554 288.954 351.734 291.108 352.82 293.468C353.914 295.834 354.684 297.918 355.13 299.718L349.39 302.308C349.017 300.508 348.324 298.388 347.31 295.948C346.297 293.508 345.19 291.314 343.99 289.368ZM325.32 280.478L329.14 275.418C331.094 276.764 333.044 278.321 334.99 280.088C336.944 281.848 338.444 283.441 339.49 284.868L335.11 290.718C334.13 289.218 332.724 287.491 330.89 285.538C329.05 283.591 327.194 281.904 325.32 280.478ZM336.34 265.628L342.76 268.888C341.18 271.368 339.604 273.861 338.03 276.368C336.457 278.881 334.957 281.038 333.53 282.838L328.58 280.258C329.854 278.304 331.24 275.921 332.74 273.108C334.24 270.294 335.44 267.801 336.34 265.628ZM344.33 274.408L350.63 278.008C348.084 281.381 345.31 284.941 342.31 288.688C339.31 292.441 336.46 295.591 333.76 298.138L329.14 295.218C330.867 293.344 332.667 291.208 334.54 288.808C336.42 286.408 338.22 283.931 339.94 281.378C341.667 278.831 343.13 276.508 344.33 274.408ZM328.58 303.208L335.11 304.778C334.584 307.551 333.834 310.381 332.86 313.268C331.88 316.161 330.83 318.618 329.71 320.638C329.11 320.264 328.21 319.758 327.01 319.118C325.81 318.484 324.76 317.981 323.86 317.608C325.054 315.508 326.027 313.218 326.78 310.738C327.527 308.264 328.127 305.754 328.58 303.208ZM252.08 274.288L258.27 267.318C260.143 268.291 262.11 269.471 264.17 270.858C266.237 272.244 268.17 273.631 269.97 275.018C271.77 276.411 273.233 277.744 274.36 279.018L267.94 286.888C266.893 285.614 265.487 284.228 263.72 282.728C261.96 281.228 260.067 279.748 258.04 278.288C256.02 276.821 254.033 275.488 252.08 274.288ZM249.72 304.328L255.57 297.018C257.517 297.918 259.56 299.024 261.7 300.338C263.84 301.651 265.827 302.961 267.66 304.268C269.5 305.581 271.02 306.838 272.22 308.038L266.03 316.138C264.903 314.938 263.423 313.628 261.59 312.208C259.75 310.781 257.78 309.374 255.68 307.988C253.58 306.601 251.593 305.381 249.72 304.328ZM261.53 368.908L251.97 363.508C253.397 360.508 254.913 357.018 256.52 353.038C258.133 349.064 259.783 344.864 261.47 340.438C263.163 336.018 264.72 331.668 266.14 327.388L274.58 332.788C273.38 336.768 272.03 340.858 270.53 345.058C269.03 349.258 267.53 353.381 266.03 357.428C264.53 361.481 263.03 365.308 261.53 368.908Z" fill="white"/>
<path d="M232.232 258.75H96.7316V399.25H232.232V258.75Z" stroke="white" stroke-width="2" stroke-dasharray="5 5"/>
<path d="M369.733 258.75H234.232V399.25H369.733V258.75Z" stroke="white" stroke-width="2" stroke-dasharray="5 5"/>
<path d="M672.984 287.25H729.235V324.75C730.345 359.833 706.975 390.993 672.984 399.75C638.994 390.993 615.624 359.833 616.734 324.75V287.25H672.984Z" fill="#E9B500"/>
<path d="M669.074 303.654C683.731 303.379 692.789 309.621 696.246 322.381L696.797 322.748L696.981 323.666L697.164 324.4L697.348 325.135L697.531 325.502L697.899 327.154V328.072C698.021 328.256 698.082 328.439 698.082 328.623L698.449 330.643L698.817 333.764L699.184 336.701C700.224 359.589 692.758 372.563 676.785 375.623C661.118 377.826 651.51 372.93 647.961 360.936L651.816 359.65C651.939 359.497 652.061 359.436 652.184 359.467L653.836 358.732C654.601 358.518 655.213 358.273 655.672 357.998L656.223 357.814H656.773C656.896 357.661 657.018 357.6 657.141 357.631L657.691 357.447L660.629 356.162H661.363C663.352 361.67 667.33 363.934 673.297 362.955C679.631 361.517 683.364 357.539 684.496 351.021L684.68 348.084C676.479 353.347 668.218 354.51 659.895 351.572C651.602 347.962 647.196 341.964 646.676 333.58C644.932 315.068 652.398 305.092 669.074 303.654ZM670.543 316.873C665.739 318.066 662.618 320.82 661.18 325.135C659.925 333.978 663.291 339.118 671.277 340.557C679.662 339.7 683.701 335.232 683.395 327.154C681.773 320.116 677.489 316.689 670.543 316.873Z" fill="black"/>
<path d="M97.2511 175.8V164.78H147.921V175.8H128.641V235.1H116.531V175.8" fill="white"/>
<path d="M190.641 191.027L190.091 191.767L189.541 192.317L188.991 192.687L188.251 193.787L187.891 194.157L187.521 194.337C187.121 194.89 186.754 195.317 186.421 195.617L184.031 198.377C178.951 195.104 174.744 193.467 171.411 193.467C167.984 193.467 165.461 195.164 163.841 198.557C163.901 200.55 164.694 202.02 166.221 202.967C166.894 203.147 167.384 203.33 167.691 203.517C168.884 203.697 169.864 203.94 170.631 204.247C182.224 205.107 188.711 209.76 190.091 218.207C190.151 218.574 190.181 218.93 190.181 219.277C190.181 219.63 190.181 219.977 190.181 220.317C190.181 226.464 187.581 231.084 182.381 234.177C178.647 235.857 174.897 236.697 171.131 236.697C163.971 236.697 156.827 233.654 149.701 227.567L150.071 226.837L150.981 225.917C151.594 225.184 152.147 224.63 152.641 224.257C152.761 224.044 152.881 223.924 153.001 223.897L153.371 223.347C153.491 223.134 153.614 223.01 153.741 222.977L153.921 222.607L154.291 222.427L156.681 219.667C161.207 223.954 165.947 226.097 170.901 226.097C172.981 226.097 175.094 225.73 177.241 224.997C177.787 224.264 178.337 223.714 178.891 223.347C179.077 222.614 179.171 221.924 179.171 221.277C179.171 219.684 178.651 218.354 177.611 217.287L173.381 215.817C160.774 215.05 153.921 209.664 152.821 199.657C153.647 189.59 159.337 184.207 169.891 183.507H170.541C178.647 183.507 185.347 186.014 190.641 191.027Z" fill="white"/>
<path d="M203.019 220.776V184.976H214.039V216.736C214.159 216.889 214.219 217.072 214.219 217.286C214.346 217.379 214.409 217.469 214.409 217.556V217.656C214.623 219.029 214.926 220.252 215.319 221.326C217.433 224.259 220.143 225.726 223.449 225.726H223.589C227.689 224.626 230.563 222.362 232.209 218.936V218.386L232.949 216.186V184.976H244.149V235.096H232.949V231.056C228.543 234.662 224.153 236.466 219.779 236.466C216.379 236.466 212.936 235.396 209.449 233.256C206.603 231.082 204.643 228.512 203.569 225.546L203.389 224.256C203.116 223.369 202.979 222.499 202.979 221.646V221.236C202.979 221.082 202.993 220.929 203.019 220.776Z" fill="white"/>
<path d="M302.569 205.544L302.749 208.294C302.869 208.447 302.929 208.631 302.929 208.844V214.354H269.338C270.038 220.594 273.218 224.267 278.879 225.374C279.799 225.461 280.702 225.504 281.589 225.504C286.209 225.504 290.142 223.991 293.389 220.964C293.782 221.637 294.272 222.187 294.859 222.614L295.039 223.164L295.589 223.714C296.015 224.114 296.382 224.491 296.689 224.844C296.995 225.197 297.242 225.557 297.429 225.924C297.642 226.044 297.762 226.164 297.789 226.284L300.359 229.224C294.545 234.091 288.349 236.524 281.769 236.524C280.642 236.524 279.495 236.447 278.329 236.294C277.168 236.141 276.005 235.927 274.838 235.654C264.252 232.134 258.438 224.544 257.398 212.884C257.398 212.731 257.392 212.424 257.378 211.964C257.365 211.511 257.358 211.221 257.358 211.094C257.358 195.154 264.532 186.081 278.879 183.874C293.139 184.367 301.035 191.591 302.569 205.544ZM269.148 205.724H291.369V205.174C291.242 204.807 291.179 204.441 291.179 204.074V203.704C290.872 203.031 290.689 202.421 290.629 201.874C288.369 196.641 284.635 194.007 279.429 193.974C272.882 195.534 269.455 199.451 269.148 205.724Z" fill="white"/>
<path d="M355.783 193.787V194.337C356.183 195.07 356.43 195.804 356.523 196.537V234.907H345.323V202.417L345.133 201.317C343.606 196.69 341.036 194.377 337.423 194.377C336.323 194.377 335.1 194.607 333.753 195.067C330.693 196.387 328.49 198.47 327.143 201.317L326.413 204.437V234.907H315.393V184.787H326.413V189.007C329.84 185.947 333.573 184.114 337.613 183.507H338.433C346.633 183.507 352.416 186.934 355.783 193.787Z" fill="white"/>
<path d="M394.924 165.334V164.964H407.595L407.775 166.254L407.965 166.804L408.325 168.094L408.695 170.294L409.245 172.124L409.615 174.334L410.165 176.164L410.345 177.634C410.558 178.154 410.681 178.584 410.715 178.924L410.895 179.654L411.265 180.754V181.494C411.385 181.587 411.445 181.677 411.445 181.764V182.414C411.785 183.087 411.971 183.821 412.005 184.614L412.365 185.714L412.735 187.004L413.105 189.204L413.655 191.034L413.835 192.144L414.935 196.734C415.028 197.161 415.115 197.551 415.195 197.904C415.268 198.251 415.305 198.594 415.305 198.934L415.675 199.664V200.404L416.035 201.324V202.054L416.405 202.784V203.524C416.745 204.444 416.928 205.241 416.955 205.914L417.145 206.644C417.358 207.257 417.525 207.824 417.645 208.344C417.765 208.864 417.841 209.337 417.875 209.764L418.245 211.234L418.615 212.514L418.975 211.414L419.715 207.744L420.075 206.824L420.265 205.724L420.815 203.154L421.185 201.874V201.324L421.915 198.384L422.095 197.284L422.465 196.544L422.645 195.814L422.835 194.894V194.164L423.015 193.604L423.755 190.674L424.115 188.464L424.305 187.734L424.665 187.004C424.731 186.024 424.915 185.164 425.215 184.424L425.405 183.514V182.964L425.775 181.494L425.955 180.944L426.505 178.554L426.685 177.454L427.055 176.354L427.235 175.434L427.785 173.044L427.975 172.124L428.155 171.764C428.188 171.424 428.228 171.094 428.275 170.774C428.321 170.454 428.405 170.171 428.525 169.924L428.705 169.374V168.824L428.895 168.094L429.075 167.534L429.625 164.964H443.215V165.514C443.641 166.587 443.885 167.631 443.945 168.644L444.315 170.104L444.495 170.664L445.235 173.964L445.595 175.434C445.841 176.321 445.965 177.054 445.965 177.634C446.178 178.154 446.301 178.584 446.335 178.924L446.695 180.204L446.885 181.494L447.065 182.224L447.255 182.774C447.341 183.174 447.418 183.534 447.485 183.854C447.545 184.174 447.588 184.487 447.615 184.794C447.861 185.374 448.031 185.911 448.125 186.404C448.218 186.891 448.295 187.334 448.355 187.734L448.535 188.834L448.905 189.754L449.085 190.854V191.404C449.391 192.137 449.575 192.811 449.635 193.424L449.825 194.524C450.125 195.257 450.308 195.931 450.375 196.544L450.555 197.464L451.105 199.484V200.214C451.225 200.494 451.285 200.801 451.285 201.134C451.625 201.841 451.811 202.454 451.845 202.974L452.025 203.894L452.205 204.994L452.395 205.724C452.701 206.671 452.885 207.527 452.945 208.294C453.065 208.387 453.125 208.481 453.125 208.574V209.214C453.551 210.287 453.798 211.327 453.865 212.334C454.045 212.274 454.165 212.151 454.225 211.964C454.378 211.204 454.531 210.541 454.685 209.974C454.838 209.407 454.991 208.911 455.145 208.484V207.744C455.545 206.644 455.788 205.664 455.875 204.804L456.245 203.524L456.985 200.584L457.165 199.114L457.535 197.834L457.715 197.284V196.734C457.928 196.147 458.098 195.617 458.225 195.144C458.345 194.671 458.418 194.221 458.445 193.794L458.815 192.504L460.285 186.444L460.835 183.514L461.205 182.044C461.538 181.157 461.721 180.424 461.755 179.844L461.935 178.924L462.305 177.454C462.578 176.567 462.762 175.834 462.855 175.254L463.035 174.514L463.595 171.944L463.955 170.844V170.294L464.505 168.824V168.094L464.695 167.534L465.245 164.964H477.725L476.995 168.644L476.445 170.844L476.255 171.394L475.705 173.964L475.345 175.434L474.975 176.714L474.235 180.394L473.875 181.674L473.135 185.164L472.775 186.444L472.585 187.004L472.215 189.014L472.035 189.384L471.855 190.674C471.548 191.681 471.365 192.537 471.305 193.244L470.565 195.444L470.385 196.734L470.195 197.464L470.015 198.014L469.835 199.304L469.645 199.854L468.545 204.444L468.365 205.724L467.995 207.014L467.075 210.684L466.895 211.964L465.795 216.554L465.245 219.124C464.905 220.044 464.722 220.841 464.695 221.514L463.955 223.904V224.634C463.622 225.554 463.438 226.351 463.405 227.024C463.098 228.031 462.915 228.887 462.855 229.594L462.485 230.874L462.305 231.244L462.125 232.534C461.818 233.541 461.635 234.397 461.575 235.104H447.985L447.805 233.634C447.591 233.114 447.468 232.684 447.435 232.344L447.065 230.874L446.885 229.594L446.515 228.304C446.421 227.937 446.345 227.587 446.285 227.254C446.225 226.914 446.178 226.591 446.145 226.284L445.965 225.554L445.785 224.634C445.658 224.481 445.595 224.297 445.595 224.084L445.415 223.164L445.235 222.614C445.141 222.221 445.065 221.861 445.005 221.534C444.938 221.214 444.891 220.901 444.865 220.594C444.651 220.014 444.491 219.481 444.385 218.994C444.278 218.501 444.191 218.057 444.125 217.664L443.945 216.924L443.765 216.004C443.638 215.637 443.551 215.287 443.505 214.954C443.465 214.614 443.428 214.291 443.395 213.984C443.181 213.377 443.015 212.797 442.895 212.244C442.768 211.691 442.691 211.171 442.665 210.684C442.538 210.531 442.475 210.347 442.475 210.134L442.295 209.394L442.115 208.844C442.021 208.204 441.898 207.594 441.745 207.014L441.375 205.354L441.195 204.254L440.825 203.344L440.455 201.134L440.275 200.584V200.034C439.968 199.301 439.785 198.627 439.725 198.014L439.355 195.814L438.985 194.894L438.625 193.424V192.694C438.258 191.681 438.075 190.824 438.075 190.124C437.948 189.971 437.885 189.787 437.885 189.574L437.705 189.014V188.464C437.398 187.764 437.215 187.031 437.155 186.264C436.848 185.284 436.665 184.367 436.605 183.514L436.235 184.244L436.055 185.344L435.505 187.734L435.135 189.754L434.945 190.304L434.215 193.424L434.035 194.164L433.665 195.994L433.485 196.734L433.115 198.754L432.935 199.304L432.195 202.784L431.825 204.074L431.645 205.354C431.311 206.274 431.128 207.071 431.095 207.744L430.915 208.114L430.725 209.214L430.545 209.764L429.625 214.354L429.445 214.904L428.705 218.394L428.525 219.124L428.345 220.044L428.155 220.594L427.425 224.084L427.055 225.554L426.685 227.394L426.505 227.754L426.135 229.414L425.955 230.144L425.775 231.424C425.555 232.191 425.431 232.804 425.405 233.264C425.278 233.571 425.195 233.861 425.155 234.134C425.108 234.414 425.068 234.674 425.035 234.914C424.608 234.981 424.218 235.034 423.865 235.074C423.511 235.121 423.168 235.144 422.835 235.144H422.375C422.221 235.144 422.068 235.131 421.915 235.104H411.265V234.364C410.838 233.264 410.595 232.224 410.535 231.244C410.408 231.091 410.345 230.907 410.345 230.694L410.165 229.774C409.491 227.601 409.061 225.764 408.875 224.264L408.695 223.714L407.775 220.234L407.595 218.764L406.125 213.074V212.334C405.818 211.634 405.635 210.901 405.575 210.134L405.205 209.034L404.845 207.744V207.194L403.925 203.524V202.974L403.735 202.234L403.375 201.504L403.185 200.034C402.945 199.301 402.748 198.627 402.595 198.014C402.441 197.401 402.335 196.851 402.275 196.364L402.085 195.814V195.264C401.965 195.111 401.905 194.927 401.905 194.714L401.535 193.244L401.355 192.694C401.228 192.047 401.111 191.464 401.005 190.944C400.898 190.424 400.768 189.967 400.615 189.574L400.435 188.284C400.221 187.671 400.051 187.104 399.925 186.584C399.805 186.064 399.728 185.591 399.695 185.164L399.515 184.244C399.395 184.091 399.335 183.907 399.335 183.694L398.415 180.024L398.045 178.734L397.865 177.824L397.685 177.084L397.495 175.804C397.248 175.157 397.125 174.604 397.125 174.144V173.964L396.765 173.044L396.575 172.314C396.455 171.427 396.271 170.691 396.025 170.104V169.374C395.905 169.221 395.845 169.037 395.845 168.824" fill="white"/>
<path d="M521.299 189.385L521.859 190.485C523.293 192.265 524.209 194.101 524.609 195.995C524.729 196.788 524.819 197.531 524.879 198.225C524.946 198.911 524.979 199.515 524.979 200.035V224.265C526.106 226.505 527.756 227.851 529.929 228.305L529.569 228.855C529.443 229.075 529.319 229.198 529.199 229.225L529.019 229.775L528.649 230.145C528.343 230.818 527.976 231.368 527.549 231.795C527.116 232.928 526.563 233.785 525.889 234.365C525.616 234.978 525.356 235.508 525.109 235.955C524.869 236.395 524.643 236.785 524.429 237.125C520.849 236.205 518.033 234.551 515.979 232.165H515.429C511.483 235.011 507.412 236.435 503.219 236.435C500.952 236.435 498.719 236.051 496.519 235.285C489.939 232.931 485.962 228.648 484.589 222.435V222.205C484.589 210.365 491.519 204.445 505.379 204.445H505.519C505.792 204.318 506.096 204.255 506.429 204.255L506.979 204.075H508.269L508.819 203.895H509.369L513.959 203.345C514.019 203.005 514.049 202.698 514.049 202.425V201.505C514.049 196.391 511.343 193.835 505.929 193.835C502.162 193.835 497.006 195.105 490.459 197.645L489.729 195.995L489.359 194.895L488.989 194.525L488.809 194.165L488.439 193.055C488.106 192.508 487.862 191.958 487.709 191.405C487.062 190.551 486.632 189.695 486.419 188.835L486.969 188.655L487.339 188.465L487.889 188.285L488.259 187.915H488.809C488.929 187.795 489.036 187.735 489.129 187.735H489.179C490.279 187.155 491.256 186.725 492.109 186.445L493.029 186.265C493.702 185.958 494.316 185.775 494.869 185.715L496.339 185.345C497.406 184.918 498.446 184.675 499.459 184.615L503.499 183.875C504.106 183.815 504.692 183.761 505.259 183.715C505.826 183.668 506.386 183.645 506.939 183.645C512.779 183.645 517.566 185.558 521.299 189.385ZM509.549 212.705H508.449C508.176 212.765 507.909 212.811 507.649 212.845C507.389 212.871 507.136 212.885 506.889 212.885H506.619L505.879 213.075H505.329C505.176 213.195 504.992 213.255 504.779 213.255H504.229L501.289 213.985H500.739C499.886 214.478 499.152 214.785 498.539 214.905C496.552 216.805 495.559 218.641 495.559 220.415C495.559 222.035 496.369 223.625 497.989 225.185C500.342 226.625 502.636 227.345 504.869 227.345C507.716 227.345 510.439 226.198 513.039 223.905C513.286 223.198 513.533 222.708 513.779 222.435L513.959 221.885L513.779 221.145V212.515H510.109C509.956 212.641 509.769 212.705 509.549 212.705Z" fill="white"/>
<path d="M583.784 193.787V194.337C584.184 195.07 584.431 195.804 584.524 196.537V234.907H573.324V202.417L573.134 201.317C571.608 196.69 569.038 194.377 565.424 194.377C564.324 194.377 563.101 194.607 561.754 195.067C558.694 196.387 556.491 198.47 555.144 201.317L554.414 204.437V234.907H543.394V184.787H554.414V189.007C557.841 185.947 561.574 184.114 565.614 183.507H566.434C574.634 183.507 580.418 186.934 583.784 193.787Z" fill="white"/>
<path d="M147.232 158.75H96.7316V256.75H147.232V158.75Z" stroke="white" stroke-width="2" stroke-dasharray="5 5"/>
<path d="M194.732 158.75H149.232V256.75H194.732V158.75Z" stroke="white" stroke-width="2" stroke-dasharray="5 5"/>
<path d="M252.232 158.75H196.732V256.75H252.232V158.75Z" stroke="white" stroke-width="2" stroke-dasharray="5 5"/>
<path d="M306.733 158.75H254.232V256.75H306.733V158.75Z" stroke="white" stroke-width="2" stroke-dasharray="5 5"/>
<path d="M362.733 158.75H308.733V256.75H362.733V158.75Z" stroke="white" stroke-width="2" stroke-dasharray="5 5"/>
<path d="M387.733 158.75H364.733V256.75H387.733V158.75Z" stroke="white" stroke-width="2" stroke-dasharray="5 5"/>
<path d="M479.233 158.75H389.733V256.75H479.233V158.75Z" stroke="white" stroke-width="2" stroke-dasharray="5 5"/>
<path d="M534.734 158.75H481.234V256.75H534.734V158.75Z" stroke="white" stroke-width="2" stroke-dasharray="5 5"/>
<path d="M590.734 158.75H536.734V256.75H590.734V158.75Z" stroke="white" stroke-width="2" stroke-dasharray="5 5"/>
<path d="M672.984 157.75H719.865C725.038 157.753 729.232 161.946 729.235 167.12V260.88C729.232 266.054 725.038 270.247 719.865 270.25H626.104C620.93 270.247 616.737 266.054 616.734 260.88V167.12C616.737 161.946 620.93 157.753 626.104 157.75H672.984ZM672.984 160.875H626.109C622.657 160.875 619.859 163.673 619.859 167.125V260.875C619.859 264.327 622.657 267.125 626.109 267.125H719.86C723.312 267.125 726.11 264.327 726.11 260.875V166.765C726.11 163.457 723.532 160.721 720.23 160.525L672.984 160.875Z" fill="white"/>
<path d="M676.11 173.375H682.36L685.135 192.125H676.11V173.375Z" fill="white"/>
<path d="M669.859 173.375V192.125H660.834L663.609 173.375H669.859Z" fill="white"/>
<path d="M672.984 198.375H716.735V204.625H710.48C708.758 204.628 707.362 206.023 707.36 207.745V217.125H701.11L698.575 206.995C698.228 205.603 696.979 204.626 695.545 204.625H650.424C648.99 204.626 647.741 205.603 647.394 206.995L644.859 217.125H638.609V207.745C638.607 206.023 637.211 204.628 635.489 204.625H629.234V198.375H672.984Z" fill="white"/>
<path d="M676.11 210.875H687.91L691.735 257.75H676.11V210.875Z" fill="white"/>
<path d="M669.859 210.875V257.75H654.234L658.059 210.875H669.859Z" fill="white"/>
<path d="M672.984 287.25V402.462" stroke="#46C147" stroke-width="3.03189"/>
<path d="M672.984 270.25V429.25" stroke="#46C147" stroke-width="3.03189"/>
<path d="M672.984 405.096L709.367 396V414.191L672.984 405.096Z" fill="#46C147"/>
<path d="M672.984 405.096L636.601 396V414.191L672.984 405.096Z" fill="#46C147"/>
<path d="M647.373 455.362C645.426 455.362 643.768 454.832 642.399 453.773C641.029 452.705 639.983 451.158 639.259 449.134C638.536 447.102 638.174 444.647 638.174 441.77C638.174 438.91 638.536 436.468 639.259 434.444C639.991 432.412 641.042 430.861 642.412 429.793C643.79 428.716 645.443 428.178 647.373 428.178C649.302 428.178 650.952 428.716 652.321 429.793C653.699 430.861 654.75 432.412 655.474 434.444C656.206 436.468 656.572 438.91 656.572 441.77C656.572 444.647 656.21 447.102 655.487 449.134C654.763 451.158 653.717 452.705 652.347 453.773C650.978 454.832 649.319 455.362 647.373 455.362ZM647.373 452.519C649.302 452.519 650.801 451.589 651.869 449.729C652.937 447.868 653.471 445.215 653.471 441.77C653.471 439.479 653.226 437.528 652.735 435.917C652.252 434.306 651.555 433.079 650.642 432.235C649.737 431.391 648.648 430.969 647.373 430.969C645.461 430.969 643.966 431.912 642.89 433.798C641.813 435.676 641.275 438.333 641.275 441.77C641.275 444.061 641.516 446.008 641.998 447.61C642.48 449.212 643.174 450.431 644.078 451.266C644.991 452.102 646.089 452.519 647.373 452.519ZM675.59 439.599L672.851 440.375C672.679 439.918 672.425 439.474 672.089 439.044C671.762 438.605 671.314 438.243 670.745 437.959C670.177 437.674 669.449 437.532 668.562 437.532C667.347 437.532 666.335 437.812 665.525 438.372C664.724 438.923 664.324 439.625 664.324 440.478C664.324 441.236 664.6 441.835 665.151 442.274C665.702 442.713 666.563 443.079 667.735 443.372L670.681 444.096C672.455 444.526 673.777 445.185 674.647 446.072C675.517 446.951 675.952 448.083 675.952 449.47C675.952 450.607 675.625 451.624 674.97 452.519C674.324 453.415 673.42 454.121 672.257 454.638C671.094 455.155 669.742 455.413 668.2 455.413C666.176 455.413 664.5 454.974 663.174 454.096C661.848 453.217 661.008 451.934 660.655 450.245L663.549 449.522C663.824 450.59 664.345 451.391 665.112 451.925C665.887 452.459 666.899 452.726 668.148 452.726C669.569 452.726 670.698 452.425 671.533 451.822C672.377 451.21 672.799 450.478 672.799 449.625C672.799 448.936 672.558 448.359 672.076 447.894C671.594 447.42 670.853 447.067 669.854 446.835L666.546 446.059C664.729 445.629 663.394 444.961 662.541 444.057C661.697 443.144 661.275 442.002 661.275 440.633C661.275 439.513 661.589 438.523 662.218 437.661C662.855 436.8 663.721 436.124 664.815 435.633C665.917 435.142 667.166 434.896 668.562 434.896C670.525 434.896 672.067 435.327 673.187 436.188C674.315 437.05 675.116 438.187 675.59 439.599ZM685.038 455L678.991 435.155H682.195L686.485 450.349H686.692L690.929 435.155H694.185L698.371 450.297H698.578L702.867 435.155H706.072L700.025 455H697.028L692.687 439.754H692.376L688.035 455H685.038Z" fill="#46C147"/>
<path d="M672.985 287.25H788.197" stroke="#FF0000" stroke-width="3.03189"/>
<path d="M672.985 270.25H788.197" stroke="#FF0000" stroke-width="3.03189"/>
<path d="M763.942 287.25V270.25" stroke="#FF0000" stroke-width="3.03189"/>
<path d="M763.942 287.25L754.846 323.633H773.037L763.942 287.25Z" fill="#FF0000"/>
<path d="M763.942 270.25L754.846 233.867H773.037L763.942 270.25Z" fill="#FF0000"/>
<path d="M813.361 261.487V287.948H810.157V264.847H810.002L803.542 269.136V265.88L810.157 261.487H813.361ZM821.681 288.154C821.044 288.154 820.497 287.926 820.041 287.47C819.584 287.013 819.356 286.466 819.356 285.829C819.356 285.191 819.584 284.644 820.041 284.188C820.497 283.731 821.044 283.503 821.681 283.503C822.319 283.503 822.866 283.731 823.322 284.188C823.779 284.644 824.007 285.191 824.007 285.829C824.007 286.251 823.899 286.638 823.684 286.992C823.477 287.345 823.197 287.629 822.844 287.844C822.5 288.051 822.112 288.154 821.681 288.154ZM828.807 282.521V279.886L840.435 261.487H842.347V265.57H841.055L832.269 279.472V279.679H847.928V282.521H828.807ZM841.262 287.948V281.72V280.493V261.487H844.311V287.948H841.262ZM866.879 272.547L864.14 273.322C863.968 272.866 863.713 272.422 863.378 271.991C863.05 271.552 862.602 271.19 862.034 270.906C861.465 270.622 860.738 270.48 859.85 270.48C858.636 270.48 857.624 270.76 856.814 271.32C856.013 271.871 855.613 272.573 855.613 273.426C855.613 274.184 855.888 274.782 856.439 275.221C856.991 275.661 857.852 276.027 859.023 276.32L861.969 277.043C863.744 277.474 865.066 278.133 865.936 279.02C866.806 279.898 867.241 281.031 867.241 282.418C867.241 283.555 866.913 284.571 866.259 285.467C865.613 286.363 864.708 287.069 863.545 287.586C862.383 288.103 861.03 288.361 859.489 288.361C857.464 288.361 855.789 287.922 854.463 287.043C853.136 286.165 852.296 284.881 851.943 283.193L854.837 282.47C855.113 283.538 855.634 284.339 856.401 284.873C857.176 285.407 858.188 285.674 859.437 285.674C860.858 285.674 861.986 285.372 862.822 284.769C863.666 284.158 864.088 283.426 864.088 282.573C864.088 281.884 863.847 281.307 863.365 280.842C862.882 280.368 862.142 280.015 861.142 279.782L857.835 279.007C856.017 278.576 854.682 277.909 853.83 277.004C852.986 276.091 852.563 274.95 852.563 273.581C852.563 272.461 852.878 271.47 853.507 270.609C854.144 269.748 855.01 269.072 856.104 268.581C857.206 268.09 858.455 267.844 859.85 267.844C861.814 267.844 863.356 268.275 864.476 269.136C865.604 269.997 866.405 271.134 866.879 272.547ZM876.327 287.948L870.28 268.103H873.484L877.774 283.296H877.98L882.218 268.103H885.474L889.66 283.245H889.867L894.156 268.103H897.36L891.314 287.948H888.316L883.975 272.702H883.665L879.324 287.948H876.327Z" fill="#FF0000"/>
<path d="M616.082 43V158.212" stroke="#46C147" stroke-width="3.03189"/>
<path d="M591.082 43V158.212" stroke="#46C147" stroke-width="3.03189"/>
<path d="M616.082 65H591.082" stroke="#46C147" stroke-width="3.03189"/>
<path d="M616.082 65.0957L652.465 56V74.1914L616.082 65.0957Z" fill="#46C147"/>
<path d="M591.082 65.0957L554.699 56V74.1914L591.082 65.0957Z" fill="#46C147"/>
<path d="M568.742 35V32.6744L577.476 23.1136C578.501 21.9939 579.345 21.0206 580.008 20.1937C580.671 19.3582 581.162 18.5744 581.481 17.8422C581.808 17.1015 581.972 16.3263 581.972 15.5166C581.972 14.5864 581.748 13.781 581.3 13.1006C580.861 12.4201 580.258 11.8947 579.491 11.5243C578.725 11.154 577.863 10.9688 576.907 10.9688C575.891 10.9688 575.004 11.1798 574.246 11.6019C573.496 12.0153 572.915 12.5967 572.502 13.3461C572.097 14.0954 571.894 14.974 571.894 15.9818H568.845C568.845 14.4313 569.203 13.0704 569.918 11.899C570.633 10.7276 571.606 9.8146 572.838 9.15999C574.078 8.50537 575.469 8.17807 577.011 8.17807C578.561 8.17807 579.935 8.50537 581.132 9.15999C582.329 9.8146 583.268 10.6975 583.949 11.8086C584.629 12.9197 584.969 14.1557 584.969 15.5166C584.969 16.4899 584.793 17.4417 584.44 18.372C584.095 19.2936 583.492 20.3229 582.631 21.4598C581.778 22.5882 580.594 23.9663 579.078 25.5942L573.135 31.9509V32.1576H585.435V35H568.742ZM604.879 19.5994L602.14 20.3746C601.968 19.918 601.714 19.4745 601.378 19.0438C601.051 18.6045 600.603 18.2428 600.034 17.9585C599.466 17.6743 598.738 17.5322 597.851 17.5322C596.636 17.5322 595.624 17.8121 594.814 18.372C594.013 18.9232 593.613 19.6252 593.613 20.4779C593.613 21.2359 593.889 21.8345 594.44 22.2738C594.991 22.7131 595.852 23.0791 597.024 23.372L599.97 24.0955C601.744 24.5262 603.066 25.1851 603.936 26.0723C604.806 26.9508 605.241 28.0835 605.241 29.4702C605.241 30.6072 604.914 31.6236 604.259 32.5194C603.613 33.4151 602.709 34.1214 601.546 34.6382C600.383 35.155 599.031 35.4134 597.489 35.4134C595.465 35.4134 593.789 34.9742 592.463 34.0956C591.137 33.217 590.297 31.9337 589.944 30.2454L592.838 29.5219C593.113 30.59 593.634 31.391 594.401 31.925C595.176 32.4591 596.188 32.7261 597.437 32.7261C598.858 32.7261 599.987 32.4246 600.822 31.8217C601.666 31.2101 602.088 30.478 602.088 29.6253C602.088 28.9362 601.847 28.3591 601.365 27.894C600.883 27.4203 600.142 27.0671 599.143 26.8346L595.835 26.0594C594.018 25.6287 592.683 24.9612 591.83 24.0568C590.986 23.1437 590.564 22.0025 590.564 20.633C590.564 19.5132 590.878 18.5227 591.507 17.6614C592.144 16.8 593.01 16.1239 594.104 15.6329C595.206 15.142 596.455 14.8965 597.851 14.8965C599.815 14.8965 601.356 15.3271 602.476 16.1885C603.604 17.0498 604.405 18.1868 604.879 19.5994ZM614.327 35L608.28 15.1549H611.485L615.774 30.3488H615.981L620.218 15.1549H623.474L627.66 30.2971H627.867L632.157 15.1549H635.361L629.314 35H626.317L621.976 19.7544H621.665L617.324 35H614.327Z" fill="#46C147"/>
<path d="M616.003 158.383H731.216" stroke="#FF0000" stroke-width="3.03189"/>
<path d="M591.003 158.383H731.216" stroke="#FF0000" stroke-width="3.03189"/>
<path d="M706.96 158.383L697.865 194.766H716.056L706.96 158.383Z" fill="#FF0000"/>
<path d="M706.96 158.383L697.865 122H716.056L706.96 158.383Z" fill="#FF0000"/>
<path d="M708.37 114.362C706.423 114.362 704.765 113.832 703.395 112.773C702.026 111.705 700.979 110.158 700.256 108.134C699.532 106.102 699.171 103.647 699.171 100.77C699.171 97.9103 699.532 95.4684 700.256 93.4443C700.988 91.4115 702.039 89.8611 703.408 88.7931C704.786 87.7164 706.44 87.1781 708.37 87.1781C710.299 87.1781 711.948 87.7164 713.318 88.7931C714.696 89.8611 715.747 91.4115 716.47 93.4443C717.203 95.4684 717.569 97.9103 717.569 100.77C717.569 103.647 717.207 106.102 716.483 108.134C715.76 110.158 714.713 111.705 713.344 112.773C711.974 113.832 710.316 114.362 708.37 114.362ZM708.37 111.519C710.299 111.519 711.798 110.589 712.866 108.729C713.934 106.868 714.468 104.215 714.468 100.77C714.468 98.4788 714.222 96.5278 713.731 94.9172C713.249 93.3065 712.551 92.0791 711.638 91.2349C710.734 90.3908 709.644 89.9688 708.37 89.9688C706.457 89.9688 704.963 90.9119 703.886 92.7983C702.81 94.676 702.271 97.3332 702.271 100.77C702.271 103.061 702.513 105.008 702.995 106.61C703.477 108.212 704.171 109.431 705.075 110.266C705.988 111.102 707.086 111.519 708.37 111.519ZM736.587 98.5994L733.848 99.3746C733.676 98.918 733.422 98.4745 733.086 98.0438C732.758 97.6045 732.31 97.2428 731.742 96.9585C731.173 96.6743 730.446 96.5322 729.558 96.5322C728.344 96.5322 727.332 96.8121 726.522 97.372C725.721 97.9232 725.321 98.6252 725.321 99.4779C725.321 100.236 725.596 100.835 726.148 101.274C726.699 101.713 727.56 102.079 728.732 102.372L731.677 103.096C733.452 103.526 734.774 104.185 735.644 105.072C736.514 105.951 736.949 107.083 736.949 108.47C736.949 109.607 736.621 110.624 735.967 111.519C735.321 112.415 734.416 113.121 733.254 113.638C732.091 114.155 730.738 114.413 729.197 114.413C727.173 114.413 725.497 113.974 724.171 113.096C722.844 112.217 722.005 110.934 721.651 109.245L724.545 108.522C724.821 109.59 725.342 110.391 726.109 110.925C726.884 111.459 727.896 111.726 729.145 111.726C730.566 111.726 731.695 111.425 732.53 110.822C733.374 110.21 733.796 109.478 733.796 108.625C733.796 107.936 733.555 107.359 733.073 106.894C732.59 106.42 731.85 106.067 730.85 105.835L727.543 105.059C725.726 104.629 724.39 103.961 723.538 103.057C722.694 102.144 722.272 101.002 722.272 99.633C722.272 98.5132 722.586 97.5227 723.215 96.6614C723.852 95.8 724.718 95.1239 725.812 94.6329C726.914 94.142 728.163 93.8965 729.558 93.8965C731.522 93.8965 733.064 94.3271 734.184 95.1885C735.312 96.0498 736.113 97.1868 736.587 98.5994ZM746.035 114L739.988 94.1549H743.192L747.482 109.349H747.688L751.926 94.1549H755.182L759.368 109.297H759.575L763.864 94.1549H767.068L761.022 114H758.024L753.683 98.7544H753.373L749.032 114H746.035Z" fill="#FF0000"/>
</g>
<defs>
<clipPath id="clip0_0_1">
<rect width="900" height="488" fill="white"/>
</clipPath>
</defs>
</svg>
