<svg width="990" height="444" viewBox="0 0 990 444" fill="none" xmlns="http://www.w3.org/2000/svg">
<path d="M20.0001 136.5C20.0001 115.789 36.7894 99.0001 57.5001 99.0001H932.5C953.211 99.0001 970 115.789 970 136.5V386.5C970 407.211 953.211 424 932.5 424H57.5001C36.7894 424 20.0001 407.211 20.0001 386.5V136.5Z" fill="white"/>
<path d="M38.7501 136.5C38.7501 126.145 47.1447 117.75 57.5001 117.75H932.5C942.855 117.75 951.25 126.145 951.25 136.5V386.5C951.25 396.855 942.855 405.25 932.5 405.25H57.5001C47.1447 405.25 38.7501 396.855 38.7501 386.5V136.5Z" fill="#006928"/>
<path d="M76.6467 184.897H147.357L182.713 220.252H135.572L229.853 314.533L206.283 338.103L112.002 243.822V290.963L76.6467 255.608V184.897Z" fill="white"/>
<path d="M299.016 318.165V309.055H352.006V318.165H299.016ZM292.156 336.275V327.385H359.426V336.275H292.156ZM276.736 355.175V345.955H374.616V355.175H276.736ZM290.576 293.075V284.525H329.726V293.075H290.576ZM320.616 290.265V284.525H332.206C334.606 287.599 337.512 290.579 340.926 293.465C344.339 296.359 348.106 299.042 352.226 301.515C356.352 303.989 360.666 306.202 365.166 308.155C369.666 310.102 374.202 311.752 378.776 313.105C377.956 313.705 377.019 314.492 375.966 315.465C374.919 316.439 373.906 317.452 372.926 318.505C371.952 319.552 371.166 320.525 370.566 321.425C364.566 319.252 358.642 316.552 352.796 313.325C346.942 310.099 341.522 306.519 336.536 302.585C331.549 298.645 327.256 294.539 323.656 290.265H320.616ZM318.146 285.655L327.816 289.365C324.142 294.312 319.679 298.885 314.426 303.085C309.179 307.285 303.572 310.999 297.606 314.225C291.646 317.452 285.629 320.265 279.556 322.665C279.029 321.912 278.316 321.012 277.416 319.965C276.516 318.912 275.579 317.879 274.606 316.865C273.632 315.859 272.769 315.055 272.016 314.455C278.169 312.575 284.169 310.212 290.016 307.365C295.869 304.512 301.212 301.249 306.046 297.575C310.886 293.902 314.919 289.929 318.146 285.655ZM319.946 352.365V313.215H330.856V352.365H319.946ZM275.956 272.935V263.155H375.406V272.935H275.956ZM299.916 282.275V254.605H310.496V282.275H299.916ZM340.196 282.835V254.605H350.766V282.835" fill="white"/>
<path d="M462.281 262.368V256.858H481.961V262.368H462.281ZM461.601 280.708V275.308H482.751V280.708H461.601ZM461.601 289.138V283.858H482.751V289.138H461.601ZM445.181 342.468V335.608H502.211V342.468H445.181ZM458.341 271.818V265.858H485.341V271.818H458.341ZM476.001 298.028H468.011V304.438H476.001V298.028ZM461.371 309.618V292.858H482.861V309.618H461.371ZM447.091 330.878V324.468H493.771V319.628H440.111V313.218H503.681V330.878H447.091ZM443.261 311.188V285.658H450.351V311.188H443.261ZM433.031 289.588L432.241 282.728C435.541 282.581 439.234 282.431 443.321 282.278C447.407 282.131 451.737 281.945 456.311 281.718V287.908C452.111 288.281 448.044 288.581 444.111 288.808C440.171 289.028 436.477 289.288 433.031 289.588ZM444.051 324.468H453.951C453.051 328.068 452.077 331.818 451.031 335.718C449.977 339.618 449.001 342.991 448.101 345.838L438.541 344.488C439.587 341.715 440.601 338.508 441.581 334.868C442.554 331.235 443.377 327.768 444.051 324.468ZM498.841 336.728V335.608H508.851C508.851 335.608 508.814 336.111 508.741 337.118C508.667 338.131 508.517 338.978 508.291 339.658C507.237 344.305 506.147 347.958 505.021 350.618C503.901 353.285 502.591 355.218 501.091 356.418C499.817 357.318 498.447 357.935 496.981 358.268C495.521 358.608 493.777 358.815 491.751 358.888C490.024 358.968 487.567 358.988 484.381 358.948C481.194 358.908 477.801 358.815 474.201 358.668C474.127 357.468 473.827 356.118 473.301 354.618C472.774 353.118 472.137 351.768 471.391 350.568C474.917 350.941 478.331 351.165 481.631 351.238C484.931 351.318 487.254 351.358 488.601 351.358C489.801 351.358 490.774 351.318 491.521 351.238C492.274 351.165 492.914 350.941 493.441 350.568C494.487 349.741 495.444 348.258 496.311 346.118C497.171 343.985 498.014 340.855 498.841 336.728ZM451.701 293.638L457.101 292.408C457.701 294.281 458.281 296.341 458.841 298.588C459.407 300.841 459.841 302.791 460.141 304.438L454.291 306.018C454.137 304.291 453.817 302.285 453.331 299.998C452.844 297.711 452.301 295.591 451.701 293.638ZM451.361 278.338L456.201 276.538C457.174 278.418 458.074 280.518 458.901 282.838C459.727 285.165 460.291 287.191 460.591 288.918L455.301 290.938C455.074 289.218 454.587 287.195 453.841 284.868C453.087 282.541 452.261 280.365 451.361 278.338ZM433.361 269.458L436.961 264.058C439.141 265.478 441.277 267.108 443.371 268.948C445.477 270.788 447.054 272.381 448.101 273.728L444.051 279.918C442.924 278.345 441.351 276.581 439.331 274.628C437.304 272.681 435.314 270.958 433.361 269.458ZM444.051 254.268L450.461 257.418C448.961 259.891 447.461 262.405 445.961 264.958C444.461 267.505 443.037 269.641 441.691 271.368L436.741 268.778C437.941 266.831 439.254 264.451 440.681 261.638C442.101 258.825 443.224 256.368 444.051 254.268ZM451.251 263.608L457.551 267.208C455.077 270.581 452.434 274.141 449.621 277.888C446.807 281.641 444.164 284.791 441.691 287.338L436.961 284.418C438.541 282.545 440.231 280.408 442.031 278.008C443.831 275.608 445.534 273.131 447.141 270.578C448.754 268.031 450.124 265.708 451.251 263.608ZM435.841 291.958L442.481 293.418C441.801 296.345 440.974 299.268 440.001 302.188C439.027 305.115 437.977 307.628 436.851 309.728C436.177 309.281 435.201 308.775 433.921 308.208C432.647 307.648 431.601 307.181 430.781 306.808C432.054 304.708 433.101 302.361 433.921 299.768C434.747 297.181 435.387 294.578 435.841 291.958ZM495.241 311.188V285.658H502.441V311.188H495.241ZM484.891 289.588L484.211 282.728C487.664 282.581 491.547 282.431 495.861 282.278C500.174 282.131 504.767 281.981 509.641 281.828L509.521 288.018C505.101 288.318 500.807 288.598 496.641 288.858C492.481 289.125 488.564 289.368 484.891 289.588ZM504.011 293.638L509.751 291.958C510.724 294.205 511.681 296.678 512.621 299.378C513.554 302.078 514.211 304.405 514.591 306.358L508.631 308.268C508.331 306.315 507.731 303.951 506.831 301.178C505.931 298.405 504.991 295.891 504.011 293.638ZM503.111 278.118L508.401 275.758C509.674 277.705 510.854 279.858 511.941 282.218C513.034 284.585 513.804 286.668 514.251 288.468L508.511 291.058C508.137 289.258 507.444 287.138 506.431 284.698C505.417 282.258 504.311 280.065 503.111 278.118ZM484.441 269.228L488.261 264.168C490.214 265.515 492.164 267.071 494.111 268.838C496.064 270.598 497.564 272.191 498.611 273.618L494.231 279.468C493.251 277.968 491.844 276.241 490.011 274.288C488.171 272.341 486.314 270.655 484.441 269.228ZM495.461 254.378L501.881 257.638C500.301 260.118 498.724 262.611 497.151 265.118C495.577 267.631 494.077 269.788 492.651 271.588L487.701 269.008C488.974 267.055 490.361 264.671 491.861 261.858C493.361 259.045 494.561 256.551 495.461 254.378ZM503.451 263.158L509.751 266.758C507.204 270.131 504.431 273.691 501.431 277.438C498.431 281.191 495.581 284.341 492.881 286.888L488.261 283.968C489.987 282.095 491.787 279.958 493.661 277.558C495.541 275.158 497.341 272.681 499.061 270.128C500.787 267.581 502.251 265.258 503.451 263.158ZM487.701 291.958L494.231 293.528C493.704 296.301 492.954 299.131 491.981 302.018C491.001 304.911 489.951 307.368 488.831 309.388C488.231 309.015 487.331 308.508 486.131 307.868C484.931 307.235 483.881 306.731 482.981 306.358C484.174 304.258 485.147 301.968 485.901 299.488C486.647 297.015 487.247 294.505 487.701 291.958ZM411.201 263.038L417.391 256.068C419.264 257.041 421.231 258.221 423.291 259.608C425.357 260.995 427.291 262.381 429.091 263.768C430.891 265.161 432.354 266.495 433.481 267.768L427.061 275.638C426.014 274.365 424.607 272.978 422.841 271.478C421.081 269.978 419.187 268.498 417.161 267.038C415.141 265.571 413.154 264.238 411.201 263.038ZM408.841 293.078L414.691 285.768C416.637 286.668 418.681 287.775 420.821 289.088C422.961 290.401 424.947 291.711 426.781 293.018C428.621 294.331 430.141 295.588 431.341 296.788L425.151 304.888C424.024 303.688 422.544 302.378 420.711 300.958C418.871 299.531 416.901 298.125 414.801 296.738C412.701 295.351 410.714 294.131 408.841 293.078ZM420.651 357.658L411.091 352.258C412.517 349.258 414.034 345.768 415.641 341.788C417.254 337.815 418.904 333.615 420.591 329.188C422.284 324.768 423.841 320.418 425.261 316.138L433.701 321.538C432.501 325.518 431.151 329.608 429.651 333.808C428.151 338.008 426.651 342.131 425.151 346.178C423.651 350.231 422.151 354.058 420.651 357.658Z" fill="white"/>
<path d="M391.353 247.5H255.853V388H391.353V247.5Z" stroke="white" stroke-width="2" stroke-dasharray="5 5"/>
<path d="M528.853 247.5H393.353V388H528.853V247.5Z" stroke="white" stroke-width="2" stroke-dasharray="5 5"/>
<path d="M857.103 146.5H903.983C909.157 146.503 913.35 150.696 913.353 155.87V249.63C913.35 254.804 909.157 258.997 903.983 259H810.223C805.049 258.997 800.856 254.804 800.853 249.63V155.87C800.856 150.696 805.049 146.503 810.223 146.5H857.103Z" fill="#FF0000"/>
<path d="M857.103 149.625H810.228C806.776 149.625 803.978 152.423 803.978 155.875V249.625C803.978 253.077 806.776 255.875 810.228 255.875H903.978C907.43 255.875 910.228 253.077 910.228 249.625V155.875C910.228 152.423 907.43 149.625 903.978 149.625H857.103Z" fill="white"/>
<path d="M860.228 162.125H866.478L869.253 180.875H860.228V162.125Z" fill="#FF0000"/>
<path d="M853.978 162.125V180.875H844.953L847.728 162.125H853.978Z" fill="#FF0000"/>
<path d="M857.103 187.125H900.853V193.375H894.598C892.876 193.378 891.481 194.773 891.478 196.495V205.875H885.228L882.693 195.745C882.347 194.353 881.097 193.376 879.663 193.375H834.543C833.109 193.376 831.86 194.353 831.513 195.745L828.978 205.875H822.728V196.495C822.725 194.773 821.33 193.378 819.608 193.375H813.353V187.125H857.103Z" fill="#FF0000"/>
<path d="M860.228 199.625H872.028L875.853 246.5H860.228V199.625Z" fill="#FF0000"/>
<path d="M853.978 199.625V246.5H838.353L842.178 199.625H853.978Z" fill="#FF0000"/>
<path d="M256.373 164.55V153.53H307.043V164.55H287.763V223.85H275.653V164.55" fill="white"/>
<path d="M349.762 179.777L349.212 180.517L348.662 181.067L348.112 181.437L347.372 182.537L347.012 182.907L346.642 183.087C346.242 183.64 345.875 184.067 345.542 184.367L343.152 187.127C338.072 183.854 333.865 182.217 330.532 182.217C327.105 182.217 324.582 183.914 322.962 187.307C323.022 189.3 323.815 190.77 325.342 191.717C326.015 191.897 326.505 192.08 326.812 192.267C328.005 192.447 328.985 192.69 329.752 192.997C341.345 193.857 347.832 198.51 349.212 206.957C349.272 207.324 349.302 207.68 349.302 208.027C349.302 208.38 349.302 208.727 349.302 209.067C349.302 215.214 346.702 219.834 341.502 222.927C337.769 224.607 334.019 225.447 330.252 225.447C323.092 225.447 315.949 222.404 308.822 216.317L309.192 215.587L310.102 214.667C310.715 213.934 311.269 213.38 311.762 213.007C311.882 212.794 312.002 212.674 312.122 212.647L312.492 212.097C312.612 211.884 312.735 211.76 312.862 211.727L313.042 211.357L313.412 211.177L315.802 208.417C320.329 212.704 325.069 214.847 330.022 214.847C332.102 214.847 334.215 214.48 336.362 213.747C336.909 213.014 337.459 212.464 338.012 212.097C338.199 211.364 338.292 210.674 338.292 210.027C338.292 208.434 337.772 207.104 336.732 206.037L332.502 204.567C319.895 203.8 313.042 198.414 311.942 188.407C312.769 178.34 318.459 172.957 329.012 172.257H329.662C337.769 172.257 344.469 174.764 349.762 179.777Z" fill="white"/>
<path d="M362.14 209.526V173.726H373.16V205.486C373.28 205.639 373.34 205.822 373.34 206.036C373.467 206.129 373.53 206.219 373.53 206.306V206.406C373.744 207.779 374.047 209.002 374.44 210.076C376.554 213.009 379.264 214.476 382.57 214.476H382.71C386.81 213.376 389.684 211.112 391.33 207.686V207.136L392.07 204.936V173.726H403.27V223.846H392.07V219.806C387.664 223.412 383.274 225.216 378.9 225.216C375.5 225.216 372.057 224.146 368.57 222.006C365.724 219.832 363.764 217.262 362.69 214.296L362.51 213.006C362.237 212.119 362.1 211.249 362.1 210.396V209.986C362.1 209.832 362.114 209.679 362.14 209.526Z" fill="white"/>
<path d="M461.689 194.294L461.869 197.044C461.989 197.198 462.049 197.381 462.049 197.594V203.104H428.459C429.159 209.344 432.339 213.018 437.999 214.124C438.919 214.211 439.823 214.254 440.709 214.254C445.329 214.254 449.263 212.741 452.509 209.714C452.903 210.388 453.393 210.938 453.979 211.364L454.159 211.914L454.709 212.464C455.136 212.864 455.503 213.241 455.809 213.594C456.116 213.948 456.363 214.308 456.549 214.674C456.763 214.794 456.883 214.914 456.909 215.034L459.479 217.974C453.666 222.841 447.469 225.274 440.889 225.274C439.763 225.274 438.616 225.198 437.449 225.044C436.289 224.891 435.126 224.678 433.959 224.404C423.373 220.884 417.559 213.294 416.519 201.634C416.519 201.481 416.513 201.174 416.499 200.714C416.486 200.261 416.479 199.971 416.479 199.844C416.479 183.904 423.653 174.831 437.999 172.624C452.259 173.118 460.156 180.341 461.689 194.294ZM428.269 194.474H450.489V193.924C450.363 193.558 450.299 193.191 450.299 192.824V192.454C449.993 191.781 449.809 191.171 449.749 190.624C447.489 185.391 443.756 182.758 438.549 182.724C432.003 184.284 428.576 188.201 428.269 194.474Z" fill="white"/>
<path d="M514.903 182.537V183.087C515.303 183.82 515.55 184.554 515.643 185.287V223.657H504.443V191.167L504.253 190.067C502.727 185.44 500.157 183.127 496.543 183.127C495.443 183.127 494.22 183.357 492.873 183.817C489.813 185.137 487.61 187.22 486.263 190.067L485.533 193.187V223.657H474.513V173.537H485.533V177.757C488.96 174.697 492.693 172.864 496.733 172.257H497.553C505.753 172.257 511.537 175.684 514.903 182.537Z" fill="white"/>
<path d="M554.045 154.084V153.714H566.715L566.895 155.004L567.085 155.554L567.445 156.844L567.815 159.044L568.365 160.874L568.735 163.084L569.285 164.914L569.465 166.384C569.678 166.904 569.801 167.334 569.835 167.674L570.015 168.404L570.385 169.504V170.244C570.505 170.337 570.565 170.427 570.565 170.514V171.164C570.905 171.837 571.091 172.571 571.125 173.364L571.485 174.464L571.855 175.754L572.225 177.954L572.775 179.784L572.955 180.894L574.055 185.484C574.148 185.911 574.235 186.301 574.315 186.654C574.388 187.001 574.425 187.344 574.425 187.684L574.795 188.414V189.154L575.155 190.074V190.804L575.525 191.534V192.274C575.865 193.194 576.048 193.991 576.075 194.664L576.265 195.394C576.478 196.007 576.645 196.574 576.765 197.094C576.885 197.614 576.961 198.087 576.995 198.514L577.365 199.984L577.735 201.264L578.095 200.164L578.835 196.494L579.195 195.574L579.385 194.474L579.935 191.904L580.305 190.624V190.074L581.035 187.134L581.215 186.034L581.585 185.294L581.765 184.564L581.955 183.644V182.914L582.135 182.354L582.875 179.424L583.235 177.214L583.425 176.484L583.785 175.754C583.851 174.774 584.035 173.914 584.335 173.174L584.525 172.264V171.714L584.895 170.244L585.075 169.694L585.625 167.304L585.805 166.204L586.175 165.104L586.355 164.184L586.905 161.794L587.095 160.874L587.275 160.514C587.308 160.174 587.348 159.844 587.395 159.524C587.441 159.204 587.525 158.921 587.645 158.674L587.825 158.124V157.574L588.015 156.844L588.195 156.284L588.745 153.714H602.335V154.264C602.761 155.337 603.005 156.381 603.065 157.394L603.435 158.854L603.615 159.414L604.355 162.714L604.715 164.184C604.961 165.071 605.085 165.804 605.085 166.384C605.298 166.904 605.421 167.334 605.455 167.674L605.815 168.954L606.005 170.244L606.185 170.974L606.375 171.524C606.461 171.924 606.538 172.284 606.605 172.604C606.665 172.924 606.708 173.237 606.735 173.544C606.981 174.124 607.151 174.661 607.245 175.154C607.338 175.641 607.415 176.084 607.475 176.484L607.655 177.584L608.025 178.504L608.205 179.604V180.154C608.511 180.887 608.695 181.561 608.755 182.174L608.945 183.274C609.245 184.007 609.428 184.681 609.495 185.294L609.675 186.214L610.225 188.234V188.964C610.345 189.244 610.405 189.551 610.405 189.884C610.745 190.591 610.931 191.204 610.965 191.724L611.145 192.644L611.325 193.744L611.515 194.474C611.821 195.421 612.005 196.277 612.065 197.044C612.185 197.137 612.245 197.231 612.245 197.324V197.964C612.671 199.037 612.918 200.077 612.985 201.084C613.165 201.024 613.285 200.901 613.345 200.714C613.498 199.954 613.651 199.291 613.805 198.724C613.958 198.157 614.111 197.661 614.265 197.234V196.494C614.665 195.394 614.908 194.414 614.995 193.554L615.365 192.274L616.105 189.334L616.285 187.864L616.655 186.584L616.835 186.034V185.484C617.048 184.897 617.218 184.367 617.345 183.894C617.465 183.421 617.538 182.971 617.565 182.544L617.935 181.254L619.405 175.194L619.955 172.264L620.325 170.794C620.658 169.907 620.841 169.174 620.875 168.594L621.055 167.674L621.425 166.204C621.698 165.317 621.881 164.584 621.975 164.004L622.155 163.264L622.715 160.694L623.075 159.594V159.044L623.625 157.574V156.844L623.815 156.284L624.365 153.714H636.845L636.115 157.394L635.565 159.594L635.375 160.144L634.825 162.714L634.465 164.184L634.095 165.464L633.355 169.144L632.995 170.424L632.255 173.914L631.895 175.194L631.705 175.754L631.335 177.764L631.155 178.134L630.975 179.424C630.668 180.431 630.485 181.287 630.425 181.994L629.685 184.194L629.505 185.484L629.315 186.214L629.135 186.764L628.955 188.054L628.765 188.604L627.665 193.194L627.485 194.474L627.115 195.764L626.195 199.434L626.015 200.714L624.915 205.304L624.365 207.874C624.025 208.794 623.841 209.591 623.815 210.264L623.075 212.654V213.384C622.741 214.304 622.558 215.101 622.525 215.774C622.218 216.781 622.035 217.637 621.975 218.344L621.605 219.624L621.425 219.994L621.245 221.284C620.938 222.291 620.755 223.147 620.695 223.854H607.105L606.925 222.384C606.711 221.864 606.588 221.434 606.555 221.094L606.185 219.624L606.005 218.344L605.635 217.054C605.541 216.687 605.465 216.337 605.405 216.004C605.345 215.664 605.298 215.341 605.265 215.034L605.085 214.304L604.905 213.384C604.778 213.231 604.715 213.047 604.715 212.834L604.535 211.914L604.355 211.364C604.261 210.971 604.185 210.611 604.125 210.284C604.058 209.964 604.011 209.651 603.985 209.344C603.771 208.764 603.611 208.231 603.505 207.744C603.398 207.251 603.311 206.807 603.245 206.414L603.065 205.674L602.885 204.754C602.758 204.387 602.671 204.037 602.625 203.704C602.585 203.364 602.548 203.041 602.515 202.734C602.301 202.127 602.135 201.547 602.015 200.994C601.888 200.441 601.811 199.921 601.785 199.434C601.658 199.281 601.595 199.097 601.595 198.884L601.415 198.144L601.235 197.594C601.141 196.954 601.018 196.344 600.865 195.764L600.495 194.104L600.315 193.004L599.945 192.094L599.575 189.884L599.395 189.334V188.784C599.088 188.051 598.905 187.377 598.845 186.764L598.475 184.564L598.105 183.644L597.745 182.174V181.444C597.378 180.431 597.195 179.574 597.195 178.874C597.068 178.721 597.005 178.537 597.005 178.324L596.825 177.764V177.214C596.518 176.514 596.335 175.781 596.275 175.014C595.968 174.034 595.785 173.117 595.725 172.264L595.355 172.994L595.175 174.094L594.625 176.484L594.255 178.504L594.065 179.054L593.335 182.174L593.155 182.914L592.785 184.744L592.605 185.484L592.235 187.504L592.055 188.054L591.315 191.534L590.945 192.824L590.765 194.104C590.431 195.024 590.248 195.821 590.215 196.494L590.035 196.864L589.845 197.964L589.665 198.514L588.745 203.104L588.565 203.654L587.825 207.144L587.645 207.874L587.465 208.794L587.275 209.344L586.545 212.834L586.175 214.304L585.805 216.144L585.625 216.504L585.255 218.164L585.075 218.894L584.895 220.174C584.675 220.941 584.551 221.554 584.525 222.014C584.398 222.321 584.315 222.611 584.275 222.884C584.228 223.164 584.188 223.424 584.155 223.664C583.728 223.731 583.338 223.784 582.985 223.824C582.631 223.871 582.288 223.894 581.955 223.894H581.495C581.341 223.894 581.188 223.881 581.035 223.854H570.385V223.114C569.958 222.014 569.715 220.974 569.655 219.994C569.528 219.841 569.465 219.657 569.465 219.444L569.285 218.524C568.611 216.351 568.181 214.514 567.995 213.014L567.815 212.464L566.895 208.984L566.715 207.514L565.245 201.824V201.084C564.938 200.384 564.755 199.651 564.695 198.884L564.325 197.784L563.965 196.494V195.944L563.045 192.274V191.724L562.855 190.984L562.495 190.254L562.305 188.784C562.065 188.051 561.868 187.377 561.715 186.764C561.561 186.151 561.455 185.601 561.395 185.114L561.205 184.564V184.014C561.085 183.861 561.025 183.677 561.025 183.464L560.655 181.994L560.475 181.444C560.348 180.797 560.231 180.214 560.125 179.694C560.018 179.174 559.888 178.717 559.735 178.324L559.555 177.034C559.341 176.421 559.171 175.854 559.045 175.334C558.925 174.814 558.848 174.341 558.815 173.914L558.635 172.994C558.515 172.841 558.455 172.657 558.455 172.444L557.535 168.774L557.165 167.484L556.985 166.574L556.805 165.834L556.615 164.554C556.368 163.907 556.245 163.354 556.245 162.894V162.714L555.885 161.794L555.695 161.064C555.575 160.177 555.391 159.441 555.145 158.854V158.124C555.025 157.971 554.965 157.787 554.965 157.574" fill="white"/>
<path d="M680.419 178.135L680.979 179.235C682.412 181.015 683.329 182.851 683.729 184.745C683.849 185.538 683.939 186.281 683.999 186.975C684.065 187.661 684.099 188.265 684.099 188.785V213.015C685.225 215.255 686.875 216.601 689.049 217.055L688.689 217.605C688.562 217.825 688.439 217.948 688.319 217.975L688.139 218.525L687.769 218.895C687.462 219.568 687.095 220.118 686.669 220.545C686.235 221.678 685.682 222.535 685.009 223.115C684.735 223.728 684.475 224.258 684.229 224.705C683.989 225.145 683.762 225.535 683.549 225.875C679.969 224.955 677.152 223.301 675.099 220.915H674.549C670.602 223.761 666.532 225.185 662.339 225.185C660.072 225.185 657.839 224.801 655.639 224.035C649.059 221.681 645.082 217.398 643.709 211.185V210.955C643.709 199.115 650.639 193.195 664.499 193.195H664.639C664.912 193.068 665.215 193.005 665.549 193.005L666.099 192.825H667.389L667.939 192.645H668.489L673.079 192.095C673.139 191.755 673.169 191.448 673.169 191.175V190.255C673.169 185.141 670.462 182.585 665.049 182.585C661.282 182.585 656.125 183.855 649.579 186.395L648.849 184.745L648.479 183.645L648.109 183.275L647.929 182.915L647.559 181.805C647.225 181.258 646.982 180.708 646.829 180.155C646.182 179.301 645.752 178.445 645.539 177.585L646.089 177.405L646.459 177.215L647.009 177.035L647.379 176.665H647.929C648.049 176.545 648.155 176.485 648.249 176.485H648.299C649.399 175.905 650.375 175.475 651.229 175.195L652.149 175.015C652.822 174.708 653.435 174.525 653.989 174.465L655.459 174.095C656.525 173.668 657.565 173.425 658.579 173.365L662.619 172.625C663.225 172.565 663.812 172.511 664.379 172.465C664.945 172.418 665.505 172.395 666.059 172.395C671.899 172.395 676.685 174.308 680.419 178.135ZM668.669 201.455H667.569C667.295 201.515 667.029 201.561 666.769 201.595C666.509 201.621 666.255 201.635 666.009 201.635H665.739L664.999 201.825H664.449C664.295 201.945 664.112 202.005 663.899 202.005H663.349L660.409 202.735H659.859C659.005 203.228 658.272 203.535 657.659 203.655C655.672 205.555 654.679 207.391 654.679 209.165C654.679 210.785 655.489 212.375 657.109 213.935C659.462 215.375 661.755 216.095 663.989 216.095C666.835 216.095 669.559 214.948 672.159 212.655C672.405 211.948 672.652 211.458 672.899 211.185L673.079 210.635L672.899 209.895V201.265H669.229C669.075 201.391 668.889 201.455 668.669 201.455Z" fill="white"/>
<path d="M742.903 182.537V183.087C743.303 183.82 743.55 184.554 743.643 185.287V223.657H732.443V191.167L732.253 190.067C730.727 185.44 728.157 183.127 724.543 183.127C723.443 183.127 722.22 183.357 720.873 183.817C717.813 185.137 715.61 187.22 714.263 190.067L713.533 193.187V223.657H702.513V173.537H713.533V177.757C716.96 174.697 720.693 172.864 724.733 172.257H725.553C733.753 172.257 739.537 175.684 742.903 182.537Z" fill="white"/>
<path d="M306.353 147.5H255.853V245.5H306.353V147.5Z" stroke="white" stroke-width="2" stroke-dasharray="5 5"/>
<path d="M353.853 147.5H308.353V245.5H353.853V147.5Z" stroke="white" stroke-width="2" stroke-dasharray="5 5"/>
<path d="M411.353 147.5H355.853V245.5H411.353V147.5Z" stroke="white" stroke-width="2" stroke-dasharray="5 5"/>
<path d="M465.853 147.5H413.353V245.5H465.853V147.5Z" stroke="white" stroke-width="2" stroke-dasharray="5 5"/>
<path d="M521.853 147.5H467.853V245.5H521.853V147.5Z" stroke="white" stroke-width="2" stroke-dasharray="5 5"/>
<path d="M546.853 147.5H523.853V245.5H546.853V147.5Z" stroke="white" stroke-width="2" stroke-dasharray="5 5"/>
<path d="M638.353 147.5H548.853V245.5H638.353V147.5Z" stroke="white" stroke-width="2" stroke-dasharray="5 5"/>
<path d="M693.853 147.5H640.353V245.5H693.853V147.5Z" stroke="white" stroke-width="2" stroke-dasharray="5 5"/>
<path d="M749.853 147.5H695.853V245.5H749.853V147.5Z" stroke="white" stroke-width="2" stroke-dasharray="5 5"/>
<path d="M800.853 29V144.212" stroke="#46C147" stroke-width="3.03189"/>
<path d="M750.853 29V144.212" stroke="#46C147" stroke-width="3.03189"/>
<path d="M800.853 50H750.853" stroke="#46C147" stroke-width="3.03189"/>
<path d="M800.853 50.0957L837.236 41V59.1914L800.853 50.0957Z" fill="#46C147"/>
<path d="M750.853 50.0957L714.47 41V59.1914L750.853 50.0957Z" fill="#46C147"/>
<path d="M739.119 21.5736V18.9379L750.747 0.539827H752.659V4.62255H751.367L742.581 18.5245V18.7312H758.24V21.5736H739.119ZM751.574 27V20.7726V19.5452V0.539827H754.623V27H751.574ZM777.191 11.5994L774.452 12.3746C774.28 11.918 774.026 11.4745 773.69 11.0438C773.362 10.6045 772.914 10.2428 772.346 9.95851C771.777 9.67427 771.05 9.53215 770.162 9.53215C768.948 9.53215 767.936 9.81209 767.126 10.372C766.325 10.9232 765.925 11.6252 765.925 12.4779C765.925 13.2359 766.2 13.8345 766.752 14.2738C767.303 14.7131 768.164 15.0791 769.336 15.372L772.281 16.0955C774.056 16.5262 775.378 17.1851 776.248 18.0723C777.118 18.9508 777.553 20.0835 777.553 21.4702C777.553 22.6072 777.225 23.6236 776.571 24.5194C775.925 25.4151 775.02 26.1214 773.858 26.6382C772.695 27.155 771.342 27.4134 769.801 27.4134C767.777 27.4134 766.101 26.9742 764.775 26.0956C763.448 25.217 762.609 23.9337 762.255 22.2454L765.149 21.5219C765.425 22.59 765.946 23.391 766.713 23.925C767.488 24.4591 768.5 24.7261 769.749 24.7261C771.17 24.7261 772.299 24.4246 773.134 23.8217C773.978 23.2101 774.4 22.478 774.4 21.6253C774.4 20.9362 774.159 20.3591 773.677 19.894C773.194 19.4203 772.454 19.0671 771.454 18.8346L768.147 18.0594C766.329 17.6287 764.994 16.9612 764.142 16.0568C763.298 15.1437 762.876 14.0025 762.876 12.633C762.876 11.5132 763.19 10.5227 763.819 9.66135C764.456 8.80002 765.322 8.12387 766.416 7.63291C767.518 7.14195 768.767 6.89647 770.162 6.89647C772.126 6.89647 773.668 7.32714 774.788 8.18847C775.916 9.0498 776.717 10.1868 777.191 11.5994ZM786.639 27L780.592 7.15487H783.796L788.086 22.3488H788.292L792.53 7.15487H795.786L799.972 22.2971H800.179L804.468 7.15487H807.672L801.626 27H798.628L794.287 11.7544H793.977L789.636 27H786.639Z" fill="#46C147"/>
<path d="M800.853 146.5H916.065" stroke="#FF0000" stroke-width="3.03189"/>
<path d="M750.853 146.5H916.065" stroke="#FF0000" stroke-width="3.03189"/>
<path d="M891.81 146.5L882.714 182.883H900.906L891.81 146.5Z" fill="#FF0000"/>
<path d="M891.81 146.5L882.714 110.117H900.906L891.81 146.5Z" fill="#FF0000"/>
<path d="M914.37 122.362C912.423 122.362 910.765 121.832 909.395 120.773C908.026 119.705 906.979 118.158 906.256 116.134C905.532 114.102 905.171 111.647 905.171 108.77C905.171 105.91 905.532 103.468 906.256 101.444C906.988 99.4115 908.039 97.8611 909.408 96.7931C910.786 95.7164 912.44 95.1781 914.37 95.1781C916.299 95.1781 917.948 95.7164 919.318 96.7931C920.696 97.8611 921.747 99.4115 922.47 101.444C923.203 103.468 923.569 105.91 923.569 108.77C923.569 111.647 923.207 114.102 922.483 116.134C921.76 118.158 920.713 119.705 919.344 120.773C917.974 121.832 916.316 122.362 914.37 122.362ZM914.37 119.519C916.299 119.519 917.798 118.589 918.866 116.729C919.934 114.868 920.468 112.215 920.468 108.77C920.468 106.479 920.222 104.528 919.731 102.917C919.249 101.306 918.551 100.079 917.638 99.235C916.734 98.3908 915.644 97.9688 914.37 97.9688C912.457 97.9688 910.963 98.912 909.886 100.798C908.81 102.676 908.271 105.333 908.271 108.77C908.271 111.061 908.513 113.008 908.995 114.61C909.477 116.212 910.171 117.431 911.075 118.266C911.988 119.102 913.086 119.519 914.37 119.519ZM942.587 106.599L939.848 107.375C939.676 106.918 939.421 106.474 939.086 106.044C938.758 105.605 938.31 105.243 937.742 104.959C937.173 104.674 936.446 104.532 935.558 104.532C934.344 104.532 933.332 104.812 932.522 105.372C931.721 105.923 931.321 106.625 931.321 107.478C931.321 108.236 931.596 108.835 932.148 109.274C932.699 109.713 933.56 110.079 934.732 110.372L937.677 111.096C939.452 111.526 940.774 112.185 941.644 113.072C942.514 113.951 942.949 115.083 942.949 116.47C942.949 117.607 942.621 118.624 941.967 119.519C941.321 120.415 940.416 121.121 939.254 121.638C938.091 122.155 936.738 122.413 935.197 122.413C933.173 122.413 931.497 121.974 930.171 121.096C928.844 120.217 928.005 118.934 927.651 117.245L930.545 116.522C930.821 117.59 931.342 118.391 932.109 118.925C932.884 119.459 933.896 119.726 935.145 119.726C936.566 119.726 937.695 119.425 938.53 118.822C939.374 118.21 939.796 117.478 939.796 116.625C939.796 115.936 939.555 115.359 939.073 114.894C938.59 114.42 937.85 114.067 936.85 113.835L933.543 113.059C931.725 112.629 930.39 111.961 929.538 111.057C928.694 110.144 928.272 109.002 928.272 107.633C928.272 106.513 928.586 105.523 929.215 104.661C929.852 103.8 930.718 103.124 931.812 102.633C932.914 102.142 934.163 101.896 935.558 101.896C937.522 101.896 939.064 102.327 940.184 103.188C941.312 104.05 942.113 105.187 942.587 106.599ZM952.035 122L945.988 102.155H949.192L953.482 117.349H953.688L957.926 102.155H961.182L965.368 117.297H965.575L969.864 102.155H973.068L967.022 122H964.024L959.683 106.754H959.373L955.032 122H952.035Z" fill="#FF0000"/>
</svg>
