<svg width="865" height="600" viewBox="0 0 865 600" fill="none" xmlns="http://www.w3.org/2000/svg">
<g clip-path="url(#clip0_0_1)">
<path d="M10.3904 59.8106C10.3904 39.1 27.1797 22.3106 47.8904 22.3106H1597.89C1618.6 22.3106 1635.39 39.1 1635.39 59.8106V459.811C1635.39 480.521 1618.6 497.311 1597.89 497.311H47.8904C27.1797 497.311 10.3904 480.521 10.3904 459.811V59.8106Z" fill="white"/>
<path d="M29.1404 59.8106C29.1404 49.4553 37.5351 41.0606 47.8904 41.0606H1597.89C1608.25 41.0606 1616.64 49.4553 1616.64 59.8106V459.811C1616.64 470.166 1608.25 478.561 1597.89 478.561H47.8904C37.5351 478.561 29.1404 470.166 29.1404 459.811V59.8106Z" fill="#0033A2"/>
<path d="M413.641 361.811H451.141V411.811H526.141L413.641 461.811L301.141 411.811H376.141V361.811H413.641Z" fill="white"/>
<path d="M328.659 88.361V77.341H379.329V88.361H360.049V147.661H347.939V88.361" fill="white"/>
<path d="M422.049 103.588L421.499 104.328L420.949 104.878L420.399 105.248L419.659 106.348L419.299 106.718L418.929 106.898C418.529 107.451 418.162 107.878 417.829 108.178L415.439 110.938C410.359 107.664 406.152 106.028 402.819 106.028C399.392 106.028 396.869 107.724 395.249 111.118C395.309 113.111 396.102 114.581 397.629 115.528C398.302 115.708 398.792 115.891 399.099 116.078C400.292 116.258 401.272 116.501 402.039 116.808C413.632 117.668 420.119 122.321 421.499 130.768C421.559 131.134 421.589 131.491 421.589 131.838C421.589 132.191 421.589 132.538 421.589 132.878C421.589 139.024 418.989 143.644 413.789 146.738C410.056 148.418 406.306 149.258 402.539 149.258C395.379 149.258 388.236 146.214 381.109 140.128L381.479 139.398L382.389 138.478C383.002 137.744 383.556 137.191 384.049 136.818C384.169 136.604 384.289 136.484 384.409 136.458L384.779 135.908C384.899 135.694 385.022 135.571 385.149 135.538L385.329 135.168L385.699 134.988L388.089 132.228C392.616 136.514 397.356 138.658 402.309 138.658C404.389 138.658 406.502 138.291 408.649 137.558C409.196 136.824 409.746 136.274 410.299 135.908C410.486 135.174 410.579 134.484 410.579 133.838C410.579 132.244 410.059 130.914 409.019 129.848L404.789 128.378C392.182 127.611 385.329 122.224 384.229 112.218C385.056 102.151 390.746 96.7676 401.299 96.0676H401.949C410.056 96.0676 416.756 98.5743 422.049 103.588Z" fill="white"/>
<path d="M434.427 133.336V97.5363H445.447V129.296C445.567 129.45 445.627 129.633 445.627 129.846C445.754 129.94 445.817 130.03 445.817 130.116V130.216C446.031 131.59 446.334 132.813 446.727 133.886C448.841 136.82 451.551 138.286 454.857 138.286H454.997C459.097 137.186 461.971 134.923 463.617 131.496V130.946L464.357 128.746V97.5363H475.557V147.656H464.357V143.616C459.951 147.223 455.561 149.026 451.187 149.026C447.787 149.026 444.344 147.956 440.857 145.816C438.011 143.643 436.051 141.073 434.977 138.106L434.797 136.816C434.524 135.93 434.387 135.06 434.387 134.206V133.796C434.387 133.643 434.401 133.49 434.427 133.336Z" fill="white"/>
<path d="M533.976 118.105L534.156 120.855C534.276 121.008 534.336 121.191 534.336 121.405V126.915H500.746C501.446 133.155 504.626 136.828 510.286 137.935C511.206 138.021 512.11 138.065 512.996 138.065C517.616 138.065 521.55 136.551 524.796 133.525C525.19 134.198 525.68 134.748 526.266 135.175L526.446 135.725L526.996 136.275C527.423 136.675 527.79 137.051 528.096 137.405C528.403 137.758 528.65 138.118 528.836 138.485C529.05 138.605 529.17 138.725 529.196 138.845L531.766 141.785C525.953 146.651 519.756 149.085 513.176 149.085C512.05 149.085 510.903 149.008 509.736 148.855C508.576 148.701 507.413 148.488 506.246 148.215C495.66 144.695 489.846 137.105 488.806 125.445C488.806 125.291 488.8 124.985 488.786 124.525C488.773 124.071 488.766 123.781 488.766 123.655C488.766 107.715 495.94 98.6415 510.286 96.4348C524.546 96.9281 532.443 104.151 533.976 118.105ZM500.556 118.285H522.776V117.735C522.65 117.368 522.586 117.001 522.586 116.635V116.265C522.28 115.591 522.096 114.981 522.036 114.435C519.776 109.201 516.043 106.568 510.836 106.535C504.29 108.095 500.863 112.011 500.556 118.285Z" fill="white"/>
<path d="M587.19 106.348V106.898C587.59 107.631 587.837 108.364 587.93 109.098V147.468H576.73V114.978L576.54 113.878C575.014 109.251 572.444 106.938 568.83 106.938C567.73 106.938 566.507 107.168 565.16 107.628C562.1 108.948 559.897 111.031 558.55 113.878L557.82 116.998V147.468H546.8V97.3476H557.82V101.568C561.247 98.5076 564.98 96.6743 569.02 96.0676H569.84C578.04 96.0676 583.824 99.4943 587.19 106.348Z" fill="white"/>
<path d="M626.332 77.8946V77.5246H639.002L639.182 78.8146L639.372 79.3646L639.732 80.6546L640.102 82.8546L640.652 84.6846L641.022 86.8946L641.572 88.7246L641.752 90.1946C641.965 90.7146 642.088 91.1446 642.122 91.4846L642.302 92.2146L642.672 93.3146V94.0546C642.792 94.148 642.852 94.238 642.852 94.3246V94.9746C643.192 95.648 643.378 96.3813 643.412 97.1746L643.772 98.2746L644.142 99.5646L644.512 101.765L645.062 103.595L645.242 104.705L646.342 109.295C646.435 109.721 646.522 110.111 646.602 110.465C646.675 110.811 646.712 111.155 646.712 111.495L647.082 112.225V112.965L647.442 113.885V114.615L647.812 115.345V116.085C648.152 117.005 648.335 117.801 648.362 118.475L648.552 119.205C648.765 119.818 648.932 120.385 649.052 120.905C649.172 121.425 649.248 121.898 649.282 122.325L649.652 123.795L650.022 125.075L650.382 123.975L651.122 120.305L651.482 119.385L651.672 118.285L652.222 115.715L652.592 114.435V113.885L653.322 110.945L653.502 109.845L653.872 109.105L654.052 108.375L654.242 107.455V106.725L654.422 106.165L655.162 103.235L655.522 101.025L655.712 100.295L656.072 99.5646C656.138 98.5846 656.322 97.7246 656.622 96.9846L656.812 96.0746V95.5246L657.182 94.0546L657.362 93.5046L657.912 91.1146L658.092 90.0146L658.462 88.9146L658.642 87.9946L659.192 85.6046L659.382 84.6846L659.562 84.3246C659.595 83.9846 659.635 83.6546 659.682 83.3346C659.728 83.0146 659.812 82.7313 659.932 82.4846L660.112 81.9346V81.3846L660.302 80.6546L660.482 80.0946L661.032 77.5246H674.622V78.0746C675.048 79.148 675.292 80.1913 675.352 81.2046L675.722 82.6646L675.902 83.2246L676.642 86.5246L677.002 87.9946C677.248 88.8813 677.372 89.6146 677.372 90.1946C677.585 90.7146 677.708 91.1446 677.742 91.4846L678.102 92.7646L678.292 94.0546L678.472 94.7846L678.662 95.3346C678.748 95.7346 678.825 96.0946 678.892 96.4146C678.952 96.7346 678.995 97.048 679.022 97.3546C679.268 97.9346 679.438 98.4713 679.532 98.9646C679.625 99.4513 679.702 99.8946 679.762 100.295L679.942 101.395L680.312 102.315L680.492 103.415V103.965C680.798 104.698 680.982 105.371 681.042 105.985L681.232 107.085C681.532 107.818 681.715 108.491 681.782 109.105L681.962 110.025L682.512 112.045V112.775C682.632 113.055 682.692 113.361 682.692 113.695C683.032 114.401 683.218 115.015 683.252 115.535L683.432 116.455L683.612 117.555L683.802 118.285C684.108 119.231 684.292 120.088 684.352 120.855C684.472 120.948 684.532 121.041 684.532 121.135V121.775C684.958 122.848 685.205 123.888 685.272 124.895C685.452 124.835 685.572 124.711 685.632 124.525C685.785 123.765 685.938 123.101 686.092 122.535C686.245 121.968 686.398 121.471 686.552 121.045V120.305C686.952 119.205 687.195 118.225 687.282 117.365L687.652 116.085L688.392 113.145L688.572 111.675L688.942 110.395L689.122 109.845V109.295C689.335 108.708 689.505 108.178 689.632 107.705C689.752 107.231 689.825 106.781 689.852 106.355L690.222 105.065L691.692 99.0046L692.242 96.0746L692.612 94.6046C692.945 93.718 693.128 92.9846 693.162 92.4046L693.342 91.4846L693.712 90.0146C693.985 89.128 694.168 88.3946 694.262 87.8146L694.442 87.0746L695.002 84.5046L695.362 83.4046V82.8546L695.912 81.3846V80.6546L696.102 80.0946L696.652 77.5246H709.132L708.402 81.2046L707.852 83.4046L707.662 83.9546L707.112 86.5246L706.752 87.9946L706.382 89.2746L705.642 92.9546L705.282 94.2346L704.542 97.7246L704.182 99.0046L703.992 99.5646L703.622 101.575L703.442 101.945L703.262 103.235C702.955 104.241 702.772 105.098 702.712 105.805L701.972 108.005L701.792 109.295L701.602 110.025L701.422 110.575L701.242 111.865L701.052 112.415L699.952 117.005L699.772 118.285L699.402 119.575L698.482 123.245L698.302 124.525L697.202 129.115L696.652 131.685C696.312 132.605 696.128 133.401 696.102 134.075L695.362 136.465V137.195C695.028 138.115 694.845 138.911 694.812 139.585C694.505 140.591 694.322 141.448 694.262 142.155L693.892 143.435L693.712 143.805L693.532 145.095C693.225 146.101 693.042 146.958 692.982 147.665H679.392L679.212 146.195C678.998 145.675 678.875 145.245 678.842 144.905L678.472 143.435L678.292 142.155L677.922 140.865C677.828 140.498 677.752 140.148 677.692 139.815C677.632 139.475 677.585 139.151 677.552 138.845L677.372 138.115L677.192 137.195C677.065 137.041 677.002 136.858 677.002 136.645L676.822 135.725L676.642 135.175C676.548 134.781 676.472 134.421 676.412 134.095C676.345 133.775 676.298 133.461 676.272 133.155C676.058 132.575 675.898 132.041 675.792 131.555C675.685 131.061 675.598 130.618 675.532 130.225L675.352 129.485L675.172 128.565C675.045 128.198 674.958 127.848 674.912 127.515C674.872 127.175 674.835 126.851 674.802 126.545C674.588 125.938 674.422 125.358 674.302 124.805C674.175 124.251 674.098 123.731 674.072 123.245C673.945 123.091 673.882 122.908 673.882 122.695L673.702 121.955L673.522 121.405C673.428 120.765 673.305 120.155 673.152 119.575L672.782 117.915L672.602 116.815L672.232 115.905L671.862 113.695L671.682 113.145V112.595C671.375 111.861 671.192 111.188 671.132 110.575L670.762 108.375L670.392 107.455L670.032 105.985V105.255C669.665 104.241 669.482 103.385 669.482 102.685C669.355 102.531 669.292 102.348 669.292 102.135L669.112 101.575V101.025C668.805 100.325 668.622 99.5913 668.562 98.8246C668.255 97.8446 668.072 96.928 668.012 96.0746L667.642 96.8046L667.462 97.9046L666.912 100.295L666.542 102.315L666.352 102.865L665.622 105.985L665.442 106.725L665.072 108.555L664.892 109.295L664.522 111.315L664.342 111.865L663.602 115.345L663.232 116.635L663.052 117.915C662.718 118.835 662.535 119.631 662.502 120.305L662.322 120.675L662.132 121.775L661.952 122.325L661.032 126.915L660.852 127.465L660.112 130.955L659.932 131.685L659.752 132.605L659.562 133.155L658.832 136.645L658.462 138.115L658.092 139.955L657.912 140.315L657.542 141.975L657.362 142.705L657.182 143.985C656.962 144.751 656.838 145.365 656.812 145.825C656.685 146.131 656.602 146.421 656.562 146.695C656.515 146.975 656.475 147.235 656.442 147.475C656.015 147.541 655.625 147.595 655.272 147.635C654.918 147.681 654.575 147.705 654.242 147.705H653.782C653.628 147.705 653.475 147.691 653.322 147.665H642.672V146.925C642.245 145.825 642.002 144.785 641.942 143.805C641.815 143.651 641.752 143.468 641.752 143.255L641.572 142.335C640.898 140.161 640.468 138.325 640.282 136.825L640.102 136.275L639.182 132.795L639.002 131.325L637.532 125.635V124.895C637.225 124.195 637.042 123.461 636.982 122.695L636.612 121.595L636.252 120.305V119.755L635.332 116.085V115.535L635.142 114.795L634.782 114.065L634.592 112.595C634.352 111.861 634.155 111.188 634.002 110.575C633.848 109.961 633.742 109.411 633.682 108.925L633.492 108.375V107.825C633.372 107.671 633.312 107.488 633.312 107.275L632.942 105.805L632.762 105.255C632.635 104.608 632.518 104.025 632.412 103.505C632.305 102.985 632.175 102.528 632.022 102.135L631.842 100.845C631.628 100.231 631.458 99.6646 631.332 99.1446C631.212 98.6246 631.135 98.1513 631.102 97.7246L630.922 96.8046C630.802 96.6513 630.742 96.468 630.742 96.2546L629.822 92.5846L629.452 91.2946L629.272 90.3846L629.092 89.6446L628.902 88.3646C628.655 87.718 628.532 87.1646 628.532 86.7046V86.5246L628.172 85.6046L627.982 84.8746C627.862 83.988 627.678 83.2513 627.432 82.6646V81.9346C627.312 81.7813 627.252 81.598 627.252 81.3846" fill="white"/>
<path d="M752.706 101.945L753.266 103.045C754.699 104.825 755.616 106.662 756.016 108.555C756.136 109.349 756.226 110.092 756.286 110.785C756.352 111.472 756.386 112.075 756.386 112.595V136.825C757.512 139.065 759.162 140.412 761.336 140.865L760.976 141.415C760.849 141.635 760.726 141.759 760.606 141.785L760.426 142.335L760.056 142.705C759.749 143.379 759.382 143.929 758.956 144.355C758.522 145.489 757.969 146.345 757.296 146.925C757.022 147.539 756.762 148.069 756.516 148.515C756.276 148.955 756.049 149.345 755.836 149.685C752.256 148.765 749.439 147.112 747.386 144.725H746.836C742.889 147.572 738.819 148.995 734.626 148.995C732.359 148.995 730.126 148.612 727.926 147.845C721.346 145.492 717.369 141.209 715.996 134.995V134.765C715.996 122.925 722.926 117.005 736.786 117.005H736.926C737.199 116.879 737.502 116.815 737.836 116.815L738.386 116.635H739.676L740.226 116.455H740.776L745.366 115.905C745.426 115.565 745.456 115.259 745.456 114.985V114.065C745.456 108.952 742.749 106.395 737.336 106.395C733.569 106.395 728.412 107.665 721.866 110.205L721.136 108.555L720.766 107.455L720.396 107.085L720.216 106.725L719.846 105.615C719.512 105.069 719.269 104.519 719.116 103.965C718.469 103.112 718.039 102.255 717.826 101.395L718.376 101.215L718.746 101.025L719.296 100.845L719.666 100.475H720.216C720.336 100.355 720.442 100.295 720.536 100.295H720.586C721.686 99.7153 722.662 99.2853 723.516 99.0053L724.436 98.8253C725.109 98.5187 725.722 98.3353 726.276 98.2753L727.746 97.9053C728.812 97.4787 729.852 97.2353 730.866 97.1753L734.906 96.4353C735.512 96.3753 736.099 96.322 736.666 96.2753C737.232 96.2287 737.792 96.2053 738.346 96.2053C744.186 96.2053 748.972 98.1187 752.706 101.945ZM740.956 125.265H739.856C739.582 125.325 739.316 125.372 739.056 125.405C738.796 125.432 738.542 125.445 738.296 125.445H738.026L737.286 125.635H736.736C736.582 125.755 736.399 125.815 736.186 125.815H735.636L732.696 126.545H732.146C731.292 127.039 730.559 127.345 729.946 127.465C727.959 129.365 726.966 131.202 726.966 132.975C726.966 134.595 727.776 136.185 729.396 137.745C731.749 139.185 734.042 139.905 736.276 139.905C739.122 139.905 741.846 138.759 744.446 136.465C744.692 135.759 744.939 135.269 745.186 134.995L745.366 134.445L745.186 133.705V125.075H741.516C741.362 125.202 741.176 125.265 740.956 125.265Z" fill="white"/>
<path d="M815.19 106.348V106.898C815.59 107.631 815.837 108.364 815.93 109.098V147.468H804.73V114.978L804.54 113.878C803.014 109.251 800.444 106.938 796.83 106.938C795.73 106.938 794.507 107.168 793.16 107.628C790.1 108.948 787.897 111.031 786.55 113.878L785.82 116.998V147.468H774.8V97.3476H785.82V101.568C789.247 98.5076 792.98 96.6743 797.02 96.0676H797.84C806.04 96.0676 811.824 99.4943 815.19 106.348Z" fill="white"/>
<path d="M840.535 144.543C840.475 152.743 836.588 156.843 828.875 156.843H828.235V156.293L828.055 152.983C830.501 152.983 832.518 152.249 834.105 150.783C834.105 150.109 833.985 149.496 833.745 148.943C829.825 148.483 827.558 146.526 826.945 143.073C827.318 139.733 829.035 137.773 832.095 137.193C837.141 137.253 839.955 139.703 840.535 144.543Z" fill="white"/>
<path d="M378.64 71.3106H328.14V169.311H378.64V71.3106Z" stroke="white" stroke-width="2" stroke-dasharray="5 5"/>
<path d="M426.14 71.3106H380.64V169.311H426.14V71.3106Z" stroke="white" stroke-width="2" stroke-dasharray="5 5"/>
<path d="M483.64 71.3106H428.14V169.311H483.64V71.3106Z" stroke="white" stroke-width="2" stroke-dasharray="5 5"/>
<path d="M538.14 71.3106H485.64V169.311H538.14V71.3106Z" stroke="white" stroke-width="2" stroke-dasharray="5 5"/>
<path d="M594.14 71.3106H540.14V169.311H594.14V71.3106Z" stroke="white" stroke-width="2" stroke-dasharray="5 5"/>
<path d="M619.14 71.3106H596.14V169.311H619.14V71.3106Z" stroke="white" stroke-width="2" stroke-dasharray="5 5"/>
<path d="M710.64 71.3106H621.14V169.311H710.64V71.3106Z" stroke="white" stroke-width="2" stroke-dasharray="5 5"/>
<path d="M766.14 71.3106H712.64V169.311H766.14V71.3106Z" stroke="white" stroke-width="2" stroke-dasharray="5 5"/>
<path d="M822.14 71.3106H768.14V169.311H822.14V71.3106Z" stroke="white" stroke-width="2" stroke-dasharray="5 5"/>
<path d="M848.64 71.3106H824.14V169.311H848.64V71.3106Z" stroke="white" stroke-width="2" stroke-dasharray="5 5"/>
<path d="M873.64 71.3106H850.64V169.311H873.64V71.3106Z" stroke="white" stroke-width="2" stroke-dasharray="5 5"/>
<path d="M822.891 324.811H1597.89V337.311H47.8904V324.811H822.891Z" fill="white"/>
<path d="M619.429 349.311H675.679V386.811C676.789 421.893 653.419 453.053 619.429 461.811C585.439 453.053 562.069 421.893 563.179 386.811V349.311H619.429Z" fill="#E9B500"/>
<path d="M601.597 367.148L601.78 366.965H603.065H606.186H607.655H608.94H609.491H610.042H613.714H615.183H616.651H617.202H617.753H623.444H624.729H625.831H627.116H628.218H629.136H630.237H630.972H634.276H636.296H637.03H637.765H638.499H639.233H642.354H642.905H645.108V380.184H644.374H641.069H639.784H636.112H635.194H634.093H633.175H632.44H631.89H628.218H627.483H626.933H623.628H621.241H620.507H617.386H616.835H614.632L613.897 380.734L613.714 383.305L613.53 383.855L613.347 384.957L613.163 386.242L612.612 390.281C619.619 386.028 626.596 385.232 633.542 387.895C640.09 390.801 644.558 395.269 646.944 401.297C651.198 423.695 644.037 436.18 625.464 438.75C609.736 439.699 600.006 433.273 596.272 419.473L600.311 418.188H600.862C601.352 417.882 601.841 417.698 602.331 417.637L603.065 417.453L603.8 417.27L604.167 417.086L605.636 416.719L607.104 416.352C608.206 415.801 609.246 415.495 610.226 415.434C610.623 418.035 611.603 420.176 613.163 421.859C617.753 426.235 622.587 426.908 627.667 423.879C632.93 419.717 634.705 414.454 632.991 408.09C631.094 403.347 627.851 400.593 623.261 399.828C617.753 399.491 613.714 401.511 611.143 405.887L610.226 405.703H609.491C608.114 405.366 606.951 405.183 606.003 405.152L603.433 404.602H602.882C602.3 404.479 601.811 404.418 601.413 404.418L601.046 404.234H600.311L599.761 404.051H599.21L597.925 403.684L596.272 403.5V402.949L596.456 402.215V401.664L596.823 400.379L597.007 398.727L597.19 397.258L597.374 396.523L597.741 393.402C597.864 392.821 597.925 392.331 597.925 391.934L598.108 390.648L598.292 390.281C598.353 388.996 598.537 387.895 598.843 386.977V385.875C599.088 384.896 599.21 384.039 599.21 383.305L599.393 382.938L599.577 381.652V381.102C599.699 380.52 599.761 380.031 599.761 379.633L599.944 378.531L600.128 377.797V377.246C600.311 376.757 600.373 376.267 600.311 375.777L600.495 374.859L600.679 374.309V373.574L600.862 373.023L601.229 369.902C601.352 369.321 601.413 368.831 601.413 368.434L601.597 367.148Z" fill="black"/>
<path d="M566.303 241.976V232.866H619.293V241.976H566.303ZM559.443 260.086V251.196H626.713V260.086H559.443ZM544.023 278.986V269.766H641.903V278.986H544.023ZM557.863 216.886V208.336H597.013V216.886H557.863ZM587.903 214.076V208.336H599.493C601.893 211.409 604.8 214.389 608.213 217.276C611.626 220.169 615.393 222.852 619.513 225.326C623.64 227.799 627.953 230.012 632.453 231.966C636.953 233.912 641.49 235.562 646.063 236.916C645.243 237.516 644.306 238.302 643.253 239.276C642.206 240.249 641.193 241.262 640.213 242.316C639.24 243.362 638.453 244.336 637.853 245.236C631.853 243.062 625.93 240.362 620.083 237.136C614.23 233.909 608.81 230.329 603.823 226.396C598.836 222.456 594.543 218.349 590.943 214.076H587.903ZM585.433 209.466L595.103 213.176C591.43 218.122 586.966 222.696 581.713 226.896C576.466 231.096 570.86 234.809 564.893 238.036C558.933 241.262 552.916 244.076 546.843 246.476C546.316 245.722 545.603 244.822 544.703 243.776C543.803 242.722 542.866 241.689 541.893 240.676C540.92 239.669 540.056 238.866 539.303 238.266C545.456 236.386 551.456 234.022 557.303 231.176C563.156 228.322 568.5 225.059 573.333 221.386C578.173 217.712 582.206 213.739 585.433 209.466ZM587.233 276.176V237.026H598.143V276.176H587.233ZM543.243 196.746V186.966H642.693V196.746H543.243ZM567.203 206.086V178.416H577.783V206.086H567.203ZM607.483 206.646V178.416H618.053V206.646" fill="white"/>
<path d="M729.568 186.178V180.668H749.248V186.178H729.568ZM728.888 204.518V199.118H750.038V204.518H728.888ZM728.888 212.948V207.668H750.038V212.948H728.888ZM712.468 266.278V259.418H769.498V266.278H712.468ZM725.628 195.628V189.668H752.628V195.628H725.628ZM743.288 221.838H735.298V228.248H743.288V221.838ZM728.658 233.428V216.668H750.148V233.428H728.658ZM714.378 254.688V248.278H761.058V243.438H707.398V237.028H770.968V254.688H714.378ZM710.548 234.998V209.468H717.638V234.998H710.548ZM700.318 213.398L699.528 206.538C702.828 206.392 706.521 206.242 710.608 206.088C714.695 205.942 719.025 205.755 723.598 205.528V211.718C719.398 212.092 715.331 212.392 711.398 212.618C707.458 212.838 703.765 213.098 700.318 213.398ZM711.338 248.278H721.238C720.338 251.878 719.365 255.628 718.318 259.528C717.265 263.428 716.288 266.802 715.388 269.648L705.828 268.298C706.875 265.525 707.888 262.318 708.868 258.678C709.841 255.045 710.665 251.578 711.338 248.278ZM766.128 260.538V259.418H776.138C776.138 259.418 776.101 259.922 776.028 260.928C775.955 261.942 775.805 262.788 775.578 263.468C774.525 268.115 773.435 271.768 772.308 274.428C771.188 277.095 769.878 279.028 768.378 280.228C767.105 281.128 765.735 281.745 764.268 282.078C762.808 282.418 761.065 282.625 759.038 282.698C757.311 282.778 754.855 282.798 751.668 282.758C748.481 282.718 745.088 282.625 741.488 282.478C741.415 281.278 741.115 279.928 740.588 278.428C740.061 276.928 739.425 275.578 738.678 274.378C742.205 274.752 745.618 274.975 748.918 275.048C752.218 275.128 754.541 275.168 755.888 275.168C757.088 275.168 758.061 275.128 758.808 275.048C759.561 274.975 760.201 274.752 760.728 274.378C761.775 273.552 762.731 272.068 763.598 269.928C764.458 267.795 765.301 264.665 766.128 260.538ZM718.988 217.448L724.388 216.218C724.988 218.092 725.568 220.152 726.128 222.398C726.695 224.652 727.128 226.602 727.428 228.248L721.578 229.828C721.425 228.102 721.105 226.095 720.618 223.808C720.131 221.522 719.588 219.402 718.988 217.448ZM718.648 202.148L723.488 200.348C724.461 202.228 725.361 204.328 726.188 206.648C727.015 208.975 727.578 211.002 727.878 212.728L722.588 214.748C722.361 213.028 721.875 211.005 721.128 208.678C720.375 206.352 719.548 204.175 718.648 202.148ZM700.648 193.268L704.248 187.868C706.428 189.288 708.565 190.918 710.658 192.758C712.765 194.598 714.341 196.192 715.388 197.538L711.338 203.728C710.211 202.155 708.638 200.392 706.618 198.438C704.591 196.492 702.601 194.768 700.648 193.268ZM711.338 178.078L717.748 181.228C716.248 183.702 714.748 186.215 713.248 188.768C711.748 191.315 710.325 193.452 708.978 195.178L704.028 192.588C705.228 190.642 706.541 188.262 707.968 185.448C709.388 182.635 710.511 180.178 711.338 178.078ZM718.538 187.418L724.838 191.018C722.365 194.392 719.721 197.952 716.908 201.698C714.095 205.452 711.451 208.602 708.978 211.148L704.248 208.228C705.828 206.355 707.518 204.218 709.318 201.818C711.118 199.418 712.821 196.942 714.428 194.388C716.041 191.842 717.411 189.518 718.538 187.418ZM703.128 215.768L709.768 217.228C709.088 220.155 708.261 223.078 707.288 225.998C706.315 228.925 705.265 231.438 704.138 233.538C703.465 233.092 702.488 232.585 701.208 232.018C699.935 231.458 698.888 230.992 698.068 230.618C699.341 228.518 700.388 226.172 701.208 223.578C702.035 220.992 702.675 218.388 703.128 215.768ZM762.528 234.998V209.468H769.728V234.998H762.528ZM752.178 213.398L751.498 206.538C754.951 206.392 758.835 206.242 763.148 206.088C767.461 205.942 772.055 205.792 776.928 205.638L776.808 211.828C772.388 212.128 768.095 212.408 763.928 212.668C759.768 212.935 755.851 213.178 752.178 213.398ZM771.298 217.448L777.038 215.768C778.011 218.015 778.968 220.488 779.908 223.188C780.841 225.888 781.498 228.215 781.878 230.168L775.918 232.078C775.618 230.125 775.018 227.762 774.118 224.988C773.218 222.215 772.278 219.702 771.298 217.448ZM770.398 201.928L775.688 199.568C776.961 201.515 778.141 203.668 779.228 206.028C780.321 208.395 781.091 210.478 781.538 212.278L775.798 214.868C775.425 213.068 774.731 210.948 773.718 208.508C772.705 206.068 771.598 203.875 770.398 201.928ZM751.728 193.038L755.548 187.978C757.501 189.325 759.451 190.882 761.398 192.648C763.351 194.408 764.851 196.002 765.898 197.428L761.518 203.278C760.538 201.778 759.131 200.052 757.298 198.098C755.458 196.152 753.601 194.465 751.728 193.038ZM762.748 178.188L769.168 181.448C767.588 183.928 766.011 186.422 764.438 188.928C762.865 191.442 761.365 193.598 759.938 195.398L754.988 192.818C756.261 190.865 757.648 188.482 759.148 185.668C760.648 182.855 761.848 180.362 762.748 178.188ZM770.738 186.968L777.038 190.568C774.491 193.942 771.718 197.502 768.718 201.248C765.718 205.002 762.868 208.152 760.168 210.698L755.548 207.778C757.275 205.905 759.075 203.768 760.948 201.368C762.828 198.968 764.628 196.492 766.348 193.938C768.075 191.392 769.538 189.068 770.738 186.968ZM754.988 215.768L761.518 217.338C760.991 220.112 760.241 222.942 759.268 225.828C758.288 228.722 757.238 231.178 756.118 233.198C755.518 232.825 754.618 232.318 753.418 231.678C752.218 231.045 751.168 230.542 750.268 230.168C751.461 228.068 752.435 225.778 753.188 223.298C753.935 220.825 754.535 218.315 754.988 215.768ZM678.488 186.848L684.678 179.878C686.551 180.852 688.518 182.032 690.578 183.418C692.645 184.805 694.578 186.192 696.378 187.578C698.178 188.972 699.641 190.305 700.768 191.578L694.348 199.448C693.301 198.175 691.895 196.788 690.128 195.288C688.368 193.788 686.475 192.308 684.448 190.848C682.428 189.382 680.441 188.048 678.488 186.848ZM676.128 216.888L681.978 209.578C683.925 210.478 685.968 211.585 688.108 212.898C690.248 214.212 692.235 215.522 694.068 216.828C695.908 218.142 697.428 219.398 698.628 220.598L692.438 228.698C691.311 227.498 689.831 226.188 687.998 224.768C686.158 223.342 684.188 221.935 682.088 220.548C679.988 219.162 678.001 217.942 676.128 216.888ZM687.938 281.468L678.378 276.068C679.805 273.068 681.321 269.578 682.928 265.598C684.541 261.625 686.191 257.425 687.878 252.998C689.571 248.578 691.128 244.228 692.548 239.948L700.988 245.348C699.788 249.328 698.438 253.418 696.938 257.618C695.438 261.818 693.938 265.942 692.438 269.988C690.938 274.042 689.438 277.868 687.938 281.468Z" fill="white"/>
<path d="M810.372 229.113L812.072 229.343C815.158 229.769 818.478 231.069 822.032 233.243C825.978 235.629 827.952 238.459 827.952 241.733C827.952 243.199 827.508 244.363 826.622 245.223C825.762 245.983 824.858 246.363 823.912 246.363C822.378 246.363 821.245 245.753 820.512 244.533C820.052 243.766 819.518 242.479 818.912 240.673C818.145 238.379 816.888 236.393 815.142 234.713C813.548 233.179 812.048 232.093 810.642 231.453C809.328 230.839 808.672 230.319 808.672 229.893C808.672 229.339 809.085 229.063 809.912 229.063C810.005 229.063 810.158 229.079 810.372 229.113Z" fill="white"/>
<path d="M658.641 171.311H523.141V311.811H658.641V171.311Z" stroke="white" stroke-width="2" stroke-dasharray="5 5"/>
<path d="M796.14 171.311H660.64V311.811H796.14V171.311Z" stroke="white" stroke-width="2" stroke-dasharray="5 5"/>
<path d="M847.64 171.311H798.14V311.811H847.64V171.311Z" stroke="white" stroke-width="2" stroke-dasharray="5 5"/>
<path d="M985.14 171.311H849.64V311.811H985.14V171.311Z" stroke="white" stroke-width="2" stroke-dasharray="5 5"/>
<path d="M526.141 419.311V534.523" stroke="#46C147" stroke-width="3.03189"/>
<path d="M563.141 419.311V534.523" stroke="#46C147" stroke-width="3.03189"/>
<path d="M526.141 510.268H563.141" stroke="#46C147" stroke-width="3.03189"/>
<path d="M560.39 510.268L596.773 501.172V519.363L560.39 510.268Z" fill="#46C147"/>
<path d="M526.773 510.268L490.39 501.172V519.363L526.773 510.268Z" fill="#46C147"/>
<path d="M520.07 571.369C518.365 571.369 516.844 571.076 515.509 570.491C514.183 569.905 513.128 569.091 512.344 568.049C511.569 566.998 511.147 565.779 511.078 564.392H514.334C514.402 565.245 514.695 565.982 515.212 566.602C515.729 567.213 516.405 567.687 517.241 568.023C518.076 568.359 519.002 568.527 520.018 568.527C521.155 568.527 522.163 568.329 523.042 567.932C523.92 567.536 524.609 566.985 525.109 566.279C525.608 565.572 525.858 564.754 525.858 563.824C525.858 562.851 525.617 561.994 525.135 561.253C524.652 560.503 523.946 559.918 523.016 559.496C522.086 559.074 520.949 558.863 519.605 558.863H517.486V556.02H519.605C520.656 556.02 521.577 555.831 522.37 555.452C523.171 555.073 523.795 554.539 524.243 553.85C524.7 553.161 524.928 552.351 524.928 551.421C524.928 550.525 524.73 549.745 524.334 549.082C523.937 548.419 523.378 547.902 522.654 547.532C521.939 547.161 521.095 546.976 520.122 546.976C519.209 546.976 518.347 547.144 517.538 547.48C516.737 547.807 516.082 548.285 515.574 548.914C515.066 549.534 514.79 550.284 514.747 551.162H511.646C511.698 549.776 512.116 548.561 512.899 547.519C513.683 546.468 514.708 545.65 515.974 545.064C517.249 544.478 518.649 544.185 520.173 544.185C521.81 544.185 523.214 544.517 524.385 545.18C525.557 545.835 526.457 546.701 527.086 547.777C527.714 548.854 528.029 550.017 528.029 551.266C528.029 552.756 527.637 554.026 526.853 555.077C526.078 556.128 525.023 556.856 523.688 557.261V557.467C525.359 557.743 526.664 558.453 527.602 559.599C528.541 560.736 529.011 562.144 529.011 563.824C529.011 565.262 528.619 566.554 527.835 567.7C527.06 568.837 526 569.733 524.657 570.387C523.313 571.042 521.784 571.369 520.07 571.369ZM548.404 555.607L545.665 556.382C545.492 555.925 545.238 555.482 544.902 555.051C544.575 554.612 544.127 554.25 543.559 553.966C542.99 553.682 542.262 553.54 541.375 553.54C540.161 553.54 539.149 553.819 538.339 554.379C537.538 554.931 537.137 555.633 537.137 556.485C537.137 557.243 537.413 557.842 537.964 558.281C538.516 558.72 539.377 559.087 540.548 559.379L543.494 560.103C545.268 560.534 546.591 561.192 547.46 562.08C548.33 562.958 548.765 564.091 548.765 565.478C548.765 566.615 548.438 567.631 547.783 568.527C547.137 569.423 546.233 570.129 545.07 570.646C543.907 571.162 542.555 571.421 541.013 571.421C538.989 571.421 537.314 570.982 535.988 570.103C534.661 569.224 533.821 567.941 533.468 566.253L536.362 565.529C536.638 566.597 537.159 567.398 537.926 567.932C538.701 568.466 539.713 568.733 540.962 568.733C542.383 568.733 543.511 568.432 544.347 567.829C545.191 567.218 545.613 566.485 545.613 565.633C545.613 564.944 545.372 564.367 544.889 563.901C544.407 563.428 543.666 563.075 542.667 562.842L539.36 562.067C537.542 561.636 536.207 560.969 535.354 560.064C534.51 559.151 534.088 558.01 534.088 556.64C534.088 555.521 534.403 554.53 535.031 553.669C535.669 552.807 536.534 552.131 537.628 551.64C538.731 551.149 539.98 550.904 541.375 550.904C543.339 550.904 544.881 551.335 546.001 552.196C547.129 553.057 547.93 554.194 548.404 555.607ZM557.851 571.007L551.805 551.162H555.009L559.298 566.356H559.505L563.743 551.162H566.999L571.185 566.305H571.392L575.681 551.162H578.885L572.839 571.007H569.841L565.5 555.762H565.19L560.849 571.007H557.851Z" fill="#46C147"/>
<path d="M414.39 16.3107V506.311" stroke="#46C147" stroke-width="6" stroke-dasharray="12 24 36 24"/>
<path d="M352.607 550.311H339.291V543.653C337.52 543.313 336.15 542.488 335.18 541.179C334.234 539.869 333.761 538.11 333.761 535.903C333.761 534.448 333.979 533.187 334.416 532.119C334.877 531.052 335.519 530.203 336.344 529.573C337.169 528.918 338.151 528.481 339.291 528.263V524.333H341.692V528.117C342.468 528.141 343.196 528.226 343.875 528.372C344.579 528.517 345.209 528.724 345.767 528.99L345.149 530.846C344.615 530.579 344.057 530.385 343.475 530.264C342.917 530.118 342.323 530.033 341.692 530.009V541.87C342.25 541.846 342.857 541.773 343.511 541.652C344.166 541.506 344.797 541.312 345.403 541.069V542.961C345.015 543.131 344.603 543.277 344.166 543.398C343.754 543.519 343.329 543.616 342.893 543.689C342.481 543.738 342.08 543.774 341.692 543.798V548.128H352.607V550.311ZM336.017 535.83C336.017 537.383 336.283 538.656 336.817 539.651C337.351 540.645 338.175 541.312 339.291 541.652V530.191C338.175 530.506 337.351 531.149 336.817 532.119C336.283 533.09 336.017 534.327 336.017 535.83ZM365.442 526.693V523.85H385.288V526.693H376.967V550.311H373.763V526.693H365.442ZM387.759 550.311V530.466H390.704V533.463H390.911C391.273 532.481 391.927 531.684 392.875 531.073C393.822 530.461 394.89 530.155 396.079 530.155C396.303 530.155 396.583 530.16 396.919 530.168C397.255 530.177 397.509 530.19 397.681 530.207V533.308C397.578 533.282 397.341 533.243 396.971 533.192C396.609 533.131 396.225 533.101 395.821 533.101C394.856 533.101 393.995 533.304 393.237 533.708C392.487 534.105 391.893 534.656 391.454 535.362C391.023 536.06 390.808 536.857 390.808 537.752V550.311H387.759ZM407.135 550.776C405.878 550.776 404.737 550.539 403.712 550.065C402.687 549.583 401.873 548.889 401.27 547.985C400.667 547.072 400.365 545.97 400.365 544.678C400.365 543.541 400.589 542.619 401.037 541.913C401.485 541.198 402.084 540.638 402.833 540.233C403.582 539.828 404.409 539.527 405.314 539.329C406.227 539.122 407.144 538.958 408.066 538.838C409.271 538.683 410.249 538.566 410.998 538.489C411.756 538.403 412.308 538.261 412.652 538.063C413.005 537.864 413.182 537.52 413.182 537.029V536.926C413.182 535.651 412.833 534.66 412.135 533.954C411.446 533.248 410.4 532.895 408.996 532.895C407.54 532.895 406.399 533.213 405.572 533.851C404.745 534.488 404.164 535.168 403.828 535.892L400.934 534.858C401.451 533.652 402.14 532.714 403.001 532.042C403.871 531.361 404.818 530.888 405.843 530.621C406.877 530.345 407.893 530.207 408.892 530.207C409.53 530.207 410.262 530.285 411.089 530.44C411.924 530.586 412.73 530.892 413.505 531.357C414.289 531.822 414.939 532.524 415.456 533.463C415.973 534.402 416.231 535.659 416.231 537.236V550.311H413.182V547.623H413.027C412.82 548.054 412.476 548.515 411.993 549.006C411.511 549.497 410.869 549.914 410.068 550.259C409.267 550.604 408.29 550.776 407.135 550.776ZM407.6 548.037C408.806 548.037 409.823 547.8 410.65 547.326C411.485 546.852 412.114 546.241 412.536 545.492C412.967 544.742 413.182 543.954 413.182 543.127V540.336C413.053 540.491 412.768 540.634 412.329 540.763C411.898 540.883 411.399 540.991 410.83 541.086C410.271 541.172 409.724 541.249 409.19 541.318C408.664 541.379 408.238 541.43 407.911 541.473C407.118 541.577 406.377 541.745 405.688 541.977C405.008 542.201 404.457 542.541 404.035 542.998C403.621 543.446 403.414 544.057 403.414 544.833C403.414 545.892 403.806 546.693 404.59 547.236C405.383 547.77 406.386 548.037 407.6 548.037ZM430.634 530.466V533.05H419.936V530.466H430.634ZM423.14 550.311V527.726C423.14 526.59 423.407 525.642 423.941 524.884C424.475 524.126 425.168 523.558 426.021 523.179C426.874 522.8 427.774 522.61 428.721 522.61C429.471 522.61 430.082 522.67 430.556 522.791C431.03 522.912 431.383 523.024 431.615 523.127L430.737 525.763C430.582 525.711 430.367 525.646 430.091 525.569C429.824 525.491 429.471 525.453 429.031 525.453C428.024 525.453 427.296 525.707 426.848 526.215C426.409 526.723 426.189 527.468 426.189 528.45V550.311H423.14ZM443.744 530.466V533.05H433.046V530.466H443.744ZM436.251 550.311V527.726C436.251 526.59 436.518 525.642 437.052 524.884C437.586 524.126 438.279 523.558 439.132 523.179C439.984 522.8 440.885 522.61 441.832 522.61C442.581 522.61 443.193 522.67 443.667 522.791C444.14 522.912 444.494 523.024 444.726 523.127L443.848 525.763C443.692 525.711 443.477 525.646 443.202 525.569C442.935 525.491 442.581 525.453 442.142 525.453C441.134 525.453 440.406 525.707 439.959 526.215C439.519 526.723 439.3 527.468 439.3 528.45V550.311H436.251ZM448.017 550.311V530.466H451.067V550.311H448.017ZM449.568 527.158C448.974 527.158 448.461 526.956 448.03 526.551C447.608 526.146 447.397 525.659 447.397 525.091C447.397 524.522 447.608 524.036 448.03 523.631C448.461 523.226 448.974 523.024 449.568 523.024C450.162 523.024 450.67 523.226 451.092 523.631C451.523 524.036 451.738 524.522 451.738 525.091C451.738 525.659 451.523 526.146 451.092 526.551C450.67 526.956 450.162 527.158 449.568 527.158ZM464.713 550.724C462.853 550.724 461.251 550.285 459.907 549.406C458.563 548.528 457.53 547.318 456.806 545.776C456.083 544.234 455.721 542.473 455.721 540.491C455.721 538.476 456.091 536.697 456.832 535.156C457.581 533.605 458.624 532.395 459.959 531.525C461.302 530.646 462.87 530.207 464.662 530.207C466.057 530.207 467.315 530.466 468.434 530.982C469.554 531.499 470.471 532.223 471.186 533.153C471.901 534.083 472.345 535.168 472.517 536.409H469.468C469.235 535.504 468.719 534.703 467.917 534.006C467.125 533.299 466.057 532.946 464.713 532.946C463.525 532.946 462.482 533.256 461.587 533.876C460.7 534.488 460.006 535.354 459.507 536.473C459.016 537.584 458.77 538.889 458.77 540.388C458.77 541.921 459.011 543.256 459.494 544.393C459.985 545.53 460.674 546.413 461.561 547.042C462.457 547.671 463.507 547.985 464.713 547.985C465.506 547.985 466.225 547.847 466.871 547.572C467.517 547.296 468.064 546.9 468.512 546.383C468.96 545.866 469.278 545.246 469.468 544.523H472.517C472.345 545.694 471.918 546.749 471.238 547.688C470.566 548.618 469.675 549.359 468.563 549.91C467.461 550.453 466.178 550.724 464.713 550.724ZM364.882 594.311V567.85H368.086V591.468H380.386V594.311H364.882ZM390.774 594.776C389.516 594.776 388.375 594.539 387.35 594.065C386.325 593.583 385.511 592.889 384.908 591.985C384.305 591.072 384.004 589.97 384.004 588.678C384.004 587.541 384.228 586.619 384.676 585.913C385.123 585.198 385.722 584.638 386.471 584.233C387.221 583.828 388.048 583.527 388.952 583.329C389.865 583.122 390.782 582.958 391.704 582.838C392.91 582.683 393.887 582.566 394.637 582.489C395.395 582.403 395.946 582.261 396.291 582.063C396.644 581.864 396.82 581.52 396.82 581.029V580.926C396.82 579.651 396.471 578.66 395.774 577.954C395.085 577.248 394.038 576.895 392.634 576.895C391.179 576.895 390.037 577.213 389.21 577.851C388.384 578.488 387.802 579.168 387.466 579.892L384.572 578.858C385.089 577.652 385.778 576.714 386.639 576.042C387.509 575.361 388.457 574.888 389.482 574.621C390.515 574.345 391.532 574.207 392.531 574.207C393.168 574.207 393.9 574.285 394.727 574.44C395.563 574.586 396.368 574.892 397.143 575.357C397.927 575.822 398.577 576.524 399.094 577.463C399.611 578.402 399.869 579.659 399.869 581.236V594.311H396.82V591.623H396.665C396.459 592.054 396.114 592.515 395.632 593.006C395.149 593.497 394.508 593.914 393.707 594.259C392.906 594.604 391.928 594.776 390.774 594.776ZM391.239 592.037C392.445 592.037 393.461 591.8 394.288 591.326C395.123 590.852 395.752 590.241 396.174 589.492C396.605 588.742 396.82 587.954 396.82 587.127V584.336C396.691 584.491 396.407 584.634 395.968 584.763C395.537 584.883 395.037 584.991 394.469 585.086C393.909 585.172 393.362 585.249 392.828 585.318C392.303 585.379 391.876 585.43 391.549 585.473C390.757 585.577 390.016 585.745 389.327 585.977C388.646 586.201 388.095 586.541 387.673 586.998C387.26 587.446 387.053 588.057 387.053 588.833C387.053 589.892 387.445 590.693 388.229 591.236C389.021 591.77 390.024 592.037 391.239 592.037ZM408.484 582.373V594.311H405.435V574.466H408.38V577.566H408.639C409.104 576.559 409.81 575.749 410.758 575.137C411.705 574.517 412.928 574.207 414.427 574.207C415.771 574.207 416.946 574.483 417.954 575.034C418.962 575.577 419.746 576.404 420.306 577.515C420.866 578.617 421.145 580.013 421.145 581.701V594.311H418.096V581.907C418.096 580.348 417.691 579.134 416.882 578.264C416.072 577.385 414.961 576.946 413.548 576.946C412.575 576.946 411.705 577.157 410.939 577.579C410.181 578.001 409.582 578.617 409.143 579.427C408.703 580.236 408.484 581.218 408.484 582.373ZM435.038 594.724C433.126 594.724 431.476 594.302 430.089 593.458C428.711 592.605 427.647 591.417 426.898 589.892C426.157 588.359 425.787 586.576 425.787 584.543C425.787 582.51 426.157 580.719 426.898 579.168C427.647 577.609 428.69 576.395 430.025 575.525C431.368 574.646 432.936 574.207 434.728 574.207C435.761 574.207 436.782 574.379 437.79 574.724C438.797 575.068 439.715 575.628 440.542 576.404C441.368 577.17 442.027 578.187 442.518 579.453C443.009 580.719 443.255 582.278 443.255 584.13V585.422H427.958V582.786H440.154C440.154 581.666 439.93 580.667 439.482 579.789C439.043 578.91 438.414 578.217 437.596 577.708C436.786 577.2 435.83 576.946 434.728 576.946C433.513 576.946 432.462 577.248 431.575 577.851C430.697 578.445 430.02 579.22 429.547 580.176C429.073 581.132 428.836 582.157 428.836 583.251V585.008C428.836 586.507 429.094 587.777 429.611 588.82C430.137 589.853 430.865 590.641 431.795 591.184C432.725 591.718 433.806 591.985 435.038 591.985C435.839 591.985 436.562 591.873 437.208 591.649C437.863 591.417 438.427 591.072 438.901 590.616C439.375 590.15 439.741 589.573 439.999 588.884L442.945 589.711C442.635 590.71 442.114 591.589 441.381 592.347C440.649 593.096 439.745 593.682 438.668 594.104C437.592 594.517 436.381 594.724 435.038 594.724Z" fill="#46C147"/>
<path d="M450.39 362.691H565.602" stroke="#FF0000" stroke-width="3.03189"/>
<path d="M541.64 364.191V349.191" stroke="#FF0000" stroke-width="3.03189"/>
<path d="M487.39 350.691H565.602" stroke="#FF0000" stroke-width="3.03189"/>
<path d="M541.347 362.691L532.251 399.073H550.443L541.347 362.691Z" fill="#FF0000"/>
<path d="M541.347 350.693L532.251 314.311H550.443L541.347 350.693Z" fill="#FF0000"/>
<path d="M475.432 368.85V395.311H472.228V372.21H472.073L465.613 376.499V373.243L472.228 368.85H475.432ZM497.15 379.91L494.411 380.685C494.239 380.229 493.985 379.785 493.649 379.354C493.322 378.915 492.874 378.553 492.305 378.269C491.737 377.985 491.009 377.843 490.122 377.843C488.907 377.843 487.895 378.123 487.086 378.683C486.285 379.234 485.884 379.936 485.884 380.789C485.884 381.547 486.16 382.145 486.711 382.584C487.262 383.024 488.124 383.39 489.295 383.683L492.241 384.406C494.015 384.837 495.337 385.496 496.207 386.383C497.077 387.261 497.512 388.394 497.512 389.781C497.512 390.918 497.185 391.934 496.53 392.83C495.884 393.726 494.98 394.432 493.817 394.949C492.654 395.466 491.302 395.724 489.76 395.724C487.736 395.724 486.061 395.285 484.734 394.406C483.408 393.528 482.568 392.244 482.215 390.556L485.109 389.833C485.385 390.901 485.906 391.702 486.672 392.236C487.447 392.77 488.459 393.037 489.708 393.037C491.13 393.037 492.258 392.735 493.093 392.132C493.938 391.521 494.36 390.789 494.36 389.936C494.36 389.247 494.118 388.67 493.636 388.205C493.154 387.731 492.413 387.378 491.414 387.145L488.106 386.37C486.289 385.939 484.954 385.272 484.101 384.367C483.257 383.454 482.835 382.313 482.835 380.944C482.835 379.824 483.149 378.833 483.778 377.972C484.416 377.111 485.281 376.435 486.375 375.944C487.478 375.453 488.727 375.207 490.122 375.207C492.086 375.207 493.628 375.638 494.747 376.499C495.876 377.36 496.677 378.497 497.15 379.91ZM506.598 395.311L500.552 375.466H503.756L508.045 390.659H508.252L512.49 375.466H515.745L519.932 390.608H520.138L524.428 375.466H527.632L521.585 395.311H518.588L514.247 380.065H513.937L509.596 395.311H506.598Z" fill="#FF0000"/>
<path d="M675.391 351.691H790.603" stroke="#FF0000" stroke-width="3.03189"/>
<path d="M766.64 353.191V338.191" stroke="#FF0000" stroke-width="3.03189"/>
<path d="M712.391 339.691H790.603" stroke="#FF0000" stroke-width="3.03189"/>
<path d="M766.348 351.691L757.252 388.073H775.443L766.348 351.691Z" fill="#FF0000"/>
<path d="M766.348 339.693L757.252 303.311H775.443L766.348 339.693Z" fill="#FF0000"/>
<path d="M804.432 340.85V367.311H801.228V344.21H801.073L794.613 348.499V345.243L801.228 340.85H804.432ZM826.15 351.91L823.411 352.685C823.239 352.229 822.985 351.785 822.649 351.354C822.322 350.915 821.874 350.553 821.305 350.269C820.737 349.985 820.009 349.843 819.122 349.843C817.908 349.843 816.895 350.123 816.086 350.683C815.285 351.234 814.884 351.936 814.884 352.789C814.884 353.547 815.16 354.145 815.711 354.584C816.262 355.024 817.124 355.39 818.295 355.683L821.241 356.406C823.015 356.837 824.337 357.496 825.207 358.383C826.077 359.262 826.512 360.394 826.512 361.781C826.512 362.918 826.185 363.934 825.53 364.83C824.884 365.726 823.98 366.432 822.817 366.949C821.654 367.466 820.302 367.724 818.76 367.724C816.736 367.724 815.061 367.285 813.734 366.406C812.408 365.528 811.568 364.244 811.215 362.556L814.109 361.833C814.385 362.901 814.906 363.702 815.672 364.236C816.448 364.77 817.46 365.037 818.709 365.037C820.13 365.037 821.258 364.735 822.094 364.132C822.938 363.521 823.36 362.789 823.36 361.936C823.36 361.247 823.119 360.67 822.636 360.205C822.154 359.731 821.413 359.378 820.414 359.145L817.106 358.37C815.289 357.939 813.954 357.272 813.101 356.367C812.257 355.454 811.835 354.313 811.835 352.944C811.835 351.824 812.149 350.833 812.778 349.972C813.416 349.111 814.281 348.435 815.375 347.944C816.478 347.453 817.727 347.207 819.122 347.207C821.086 347.207 822.628 347.638 823.747 348.499C824.876 349.36 825.677 350.497 826.15 351.91ZM835.598 367.311L829.552 347.466H832.756L837.045 362.659H837.252L841.49 347.466H844.746L848.932 362.608H849.138L853.428 347.466H856.632L850.585 367.311H847.588L843.247 352.065H842.937L838.596 367.311H835.598Z" fill="#FF0000"/>
<path d="M565 323H645" stroke="#FF0000" stroke-width="3.03189"/>
<path d="M620.25 324.88V309.88" stroke="#FF0000" stroke-width="3.03189"/>
<path d="M566 311.38H644.212" stroke="#FF0000" stroke-width="3.03189"/>
<path d="M619.957 323.38L610.861 359.763H629.053L619.957 323.38Z" fill="#FF0000"/>
<path d="M619.957 311.383L610.861 275H629.053L619.957 311.383Z" fill="#FF0000"/>
<path d="M654.041 282.54V309H650.837V285.899H650.682L644.222 290.188V286.933L650.837 282.54H654.041ZM675.76 293.599L673.021 294.375C672.849 293.918 672.595 293.474 672.259 293.044C671.931 292.605 671.483 292.243 670.915 291.959C670.346 291.674 669.619 291.532 668.731 291.532C667.517 291.532 666.505 291.812 665.695 292.372C664.894 292.923 664.494 293.625 664.494 294.478C664.494 295.236 664.769 295.835 665.321 296.274C665.872 296.713 666.733 297.079 667.905 297.372L670.85 298.096C672.625 298.526 673.947 299.185 674.817 300.072C675.687 300.951 676.122 302.083 676.122 303.47C676.122 304.607 675.794 305.624 675.14 306.519C674.494 307.415 673.589 308.121 672.427 308.638C671.264 309.155 669.912 309.413 668.37 309.413C666.346 309.413 664.67 308.974 663.344 308.096C662.017 307.217 661.178 305.934 660.824 304.245L663.719 303.522C663.994 304.59 664.515 305.391 665.282 305.925C666.057 306.459 667.069 306.726 668.318 306.726C669.739 306.726 670.868 306.425 671.703 305.822C672.547 305.21 672.969 304.478 672.969 303.625C672.969 302.936 672.728 302.359 672.246 301.894C671.763 301.42 671.023 301.067 670.023 300.835L666.716 300.059C664.899 299.629 663.563 298.961 662.711 298.057C661.867 297.144 661.445 296.002 661.445 294.633C661.445 293.513 661.759 292.523 662.388 291.661C663.025 290.8 663.891 290.124 664.985 289.633C666.087 289.142 667.336 288.896 668.731 288.896C670.695 288.896 672.237 289.327 673.357 290.188C674.485 291.05 675.286 292.187 675.76 293.599ZM685.208 309L679.161 289.155H682.365L686.655 304.349H686.861L691.099 289.155H694.355L698.541 304.297H698.748L703.037 289.155H706.241L700.195 309H697.197L692.856 293.754H692.546L688.205 309H685.208Z" fill="#FF0000"/>
</g>
<defs>
<clipPath id="clip0_0_1">
<rect width="865" height="600" fill="white"/>
</clipPath>
</defs>
</svg>
