<svg width="825" height="750" viewBox="0 0 825 750" fill="none" xmlns="http://www.w3.org/2000/svg">
<g clip-path="url(#clip0_0_1)">
<path d="M0 226.942C0 206.239 16.7893 189.455 37.4999 189.455H1576.44C1597.15 189.455 1613.94 206.239 1613.94 226.942V601.805C1613.94 622.508 1597.15 639.291 1576.44 639.291H37.4999C16.7893 639.291 0 622.508 0 601.805V226.942Z" fill="white"/>
<path d="M18.7505 226.942C18.7505 216.59 27.1451 208.199 37.5005 208.199H1576.44C1586.8 208.199 1595.19 216.59 1595.19 226.942V601.805C1595.19 612.157 1586.8 620.548 1576.44 620.548H37.5005C27.1451 620.548 18.7505 612.157 18.7505 601.805V226.942Z" fill="#0033A2"/>
<path d="M785.068 414.373V601.805C785.068 612.157 776.674 620.548 766.318 620.548H816.318C805.963 620.548 797.568 612.157 797.568 601.805V226.942C797.568 216.59 805.963 208.199 816.318 208.199H766.318C776.674 208.199 785.068 216.59 785.068 226.942V414.373Z" fill="white"/>
<path d="M404.03 497.843H441.53V547.825H516.53L404.03 597.806L291.53 547.825H366.53V497.843H404.03Z" fill="white"/>
<path d="M161.424 261.48V250.464H212.094V261.48H192.814V320.758H180.704V261.48" fill="white"/>
<path d="M254.813 276.701L254.263 277.44L253.713 277.99L253.163 278.36L252.423 279.46L252.063 279.83L251.693 280.009C251.293 280.563 250.926 280.989 250.593 281.289L248.203 284.048C243.123 280.776 238.916 279.14 235.583 279.14C232.156 279.14 229.633 280.836 228.013 284.228C228.073 286.221 228.866 287.69 230.393 288.636C231.066 288.816 231.556 289 231.863 289.186C233.056 289.366 234.036 289.609 234.803 289.916C246.396 290.776 252.883 295.427 254.263 303.871C254.323 304.237 254.353 304.594 254.353 304.94C254.353 305.294 254.353 305.64 254.353 305.98C254.353 312.124 251.753 316.743 246.553 319.835C242.819 321.514 239.069 322.354 235.303 322.354C228.143 322.354 220.999 319.312 213.873 313.227L214.243 312.498L215.153 311.578C215.766 310.845 216.319 310.292 216.813 309.919C216.933 309.705 217.053 309.585 217.173 309.559L217.543 309.009C217.663 308.796 217.786 308.672 217.913 308.639L218.093 308.269L218.463 308.089L220.853 305.33C225.379 309.615 230.119 311.758 235.073 311.758C237.153 311.758 239.266 311.391 241.413 310.658C241.959 309.925 242.509 309.375 243.063 309.009C243.249 308.276 243.343 307.586 243.343 306.94C243.343 305.347 242.823 304.017 241.783 302.951L237.553 301.482C224.946 300.715 218.093 295.331 216.993 285.328C217.819 275.265 223.509 269.883 234.063 269.183H234.713C242.819 269.183 249.519 271.689 254.813 276.701Z" fill="white"/>
<path d="M267.192 306.439V270.652H278.212V302.4C278.332 302.553 278.392 302.737 278.392 302.95C278.518 303.043 278.582 303.133 278.582 303.22V303.32C278.795 304.692 279.098 305.915 279.492 306.988C281.605 309.921 284.315 311.387 287.622 311.387H287.762C291.862 310.287 294.735 308.025 296.382 304.599V304.049L297.122 301.85V270.652H308.322V320.753H297.122V316.715C292.715 320.32 288.325 322.123 283.952 322.123C280.552 322.123 277.108 321.053 273.622 318.914C270.775 316.741 268.815 314.172 267.742 311.207L267.562 309.917C267.288 309.031 267.152 308.161 267.152 307.308V306.898C267.152 306.745 267.165 306.592 267.192 306.439Z" fill="white"/>
<path d="M366.74 291.213L366.92 293.962C367.04 294.115 367.1 294.298 367.1 294.511V300.019H333.51C334.21 306.257 337.39 309.929 343.05 311.035C343.97 311.122 344.873 311.165 345.76 311.165C350.38 311.165 354.313 309.652 357.56 306.627C357.953 307.3 358.443 307.85 359.03 308.276L359.21 308.826L359.76 309.376C360.186 309.776 360.553 310.152 360.86 310.506C361.166 310.859 361.413 311.219 361.6 311.585C361.813 311.705 361.933 311.825 361.96 311.945L364.53 314.884C358.716 319.749 352.52 322.181 345.94 322.181C344.813 322.181 343.666 322.105 342.5 321.951C341.34 321.798 340.176 321.585 339.01 321.312C328.423 317.793 322.61 310.206 321.57 298.55C321.57 298.397 321.563 298.09 321.55 297.63C321.536 297.177 321.53 296.887 321.53 296.761C321.53 280.826 328.703 271.756 343.05 269.55C357.31 270.044 365.206 277.264 366.74 291.213ZM333.32 291.392H355.54V290.843C355.413 290.476 355.35 290.11 355.35 289.743V289.373C355.043 288.7 354.86 288.09 354.8 287.544C352.54 282.312 348.806 279.68 343.6 279.647C337.053 281.206 333.626 285.121 333.32 291.392Z" fill="white"/>
<path d="M419.954 279.46V280.009C420.354 280.743 420.601 281.476 420.694 282.209V320.565H409.494V288.087L409.304 286.987C407.777 282.362 405.208 280.049 401.594 280.049C400.494 280.049 399.271 280.279 397.924 280.739C394.864 282.059 392.661 284.141 391.314 286.987L390.584 290.106V320.565H379.564V270.463H390.584V274.681C394.011 271.623 397.744 269.79 401.784 269.183H402.604C410.804 269.183 416.587 272.609 419.954 279.46Z" fill="white"/>
<path d="M459.095 251.017V250.647H471.765L471.945 251.937L472.135 252.486L472.495 253.776L472.865 255.975L473.415 257.805L473.785 260.014L474.335 261.843L474.515 263.313C474.728 263.832 474.851 264.262 474.885 264.602L475.065 265.332L475.435 266.431V267.171C475.555 267.264 475.615 267.354 475.615 267.441V268.091C475.955 268.764 476.141 269.497 476.175 270.29L476.535 271.39L476.905 272.679L477.275 274.878L477.825 276.708L478.005 277.817L479.105 282.406C479.198 282.832 479.285 283.222 479.365 283.575C479.438 283.922 479.475 284.265 479.475 284.605L479.845 285.335V286.074L480.205 286.994V287.724L480.575 288.453V289.193C480.915 290.113 481.098 290.909 481.125 291.582L481.315 292.312C481.528 292.925 481.695 293.492 481.815 294.011C481.935 294.531 482.011 295.004 482.045 295.431L482.415 296.9L482.785 298.18L483.145 297.08L483.885 293.412L484.245 292.492L484.435 291.392L484.985 288.823L485.355 287.544V286.994L486.085 284.055L486.265 282.955L486.635 282.216L486.815 281.486L487.005 280.566V279.837L487.185 279.277L487.925 276.348L488.285 274.139L488.475 273.409L488.835 272.679C488.901 271.699 489.085 270.84 489.385 270.1L489.575 269.19V268.641L489.945 267.171L490.125 266.621L490.675 264.232L490.855 263.133L491.225 262.033L491.405 261.113L491.955 258.724L492.145 257.805L492.325 257.445C492.358 257.105 492.398 256.775 492.445 256.455C492.491 256.135 492.575 255.852 492.695 255.605L492.875 255.056V254.506L493.065 253.776L493.245 253.216L493.795 250.647H507.385V251.197C507.811 252.27 508.055 253.313 508.115 254.326L508.485 255.785L508.665 256.345L509.405 259.644L509.765 261.113C510.011 262 510.135 262.733 510.135 263.313C510.348 263.832 510.471 264.262 510.505 264.602L510.865 265.882L511.055 267.171L511.235 267.901L511.425 268.451C511.511 268.851 511.588 269.21 511.655 269.53C511.715 269.85 511.758 270.163 511.785 270.47C512.031 271.05 512.201 271.586 512.295 272.079C512.388 272.566 512.465 273.009 512.525 273.409L512.705 274.508L513.075 275.428L513.255 276.528V277.078C513.561 277.811 513.745 278.484 513.805 279.097L513.995 280.196C514.295 280.929 514.478 281.603 514.545 282.216L514.725 283.135L515.275 285.155V285.884C515.395 286.164 515.455 286.471 515.455 286.804C515.795 287.51 515.981 288.123 516.015 288.643L516.195 289.563L516.375 290.663L516.565 291.392C516.871 292.339 517.055 293.195 517.115 293.961C517.235 294.055 517.295 294.148 517.295 294.241V294.881C517.721 295.954 517.968 296.994 518.035 298C518.215 297.94 518.335 297.817 518.395 297.63C518.548 296.87 518.701 296.207 518.855 295.641C519.008 295.074 519.161 294.578 519.315 294.151V293.412C519.715 292.312 519.958 291.332 520.045 290.473L520.415 289.193L521.155 286.254L521.335 284.785L521.705 283.505L521.885 282.955V282.406C522.098 281.819 522.268 281.289 522.394 280.816C522.514 280.343 522.588 279.893 522.614 279.467L522.985 278.177L524.454 272.119L525.004 269.19L525.374 267.721C525.708 266.835 525.891 266.102 525.924 265.522L526.104 264.602L526.474 263.133C526.748 262.246 526.931 261.513 527.024 260.933L527.204 260.194L527.764 257.625L528.124 256.525V255.975L528.674 254.506V253.776L528.864 253.216L529.414 250.647H541.894L541.164 254.326L540.614 256.525L540.424 257.075L539.874 259.644L539.514 261.113L539.144 262.393L538.404 266.072L538.044 267.351L537.304 270.84L536.944 272.119L536.754 272.679L536.384 274.688L536.204 275.058L536.024 276.348C535.718 277.354 535.534 278.21 535.474 278.917L534.734 281.116L534.554 282.406L534.364 283.135L534.184 283.685L534.004 284.975L533.814 285.524L532.714 290.113L532.534 291.392L532.164 292.682L531.244 296.35L531.064 297.63L529.964 302.218L529.414 304.787C529.074 305.707 528.891 306.503 528.864 307.177L528.124 309.566V310.295C527.791 311.215 527.608 312.011 527.574 312.685C527.268 313.691 527.084 314.547 527.024 315.254L526.654 316.533L526.474 316.903L526.294 318.193C525.988 319.199 525.804 320.055 525.744 320.762H512.155L511.975 319.292C511.761 318.772 511.638 318.342 511.605 318.003L511.235 316.533L511.055 315.254L510.685 313.964C510.591 313.598 510.515 313.248 510.455 312.914C510.395 312.575 510.348 312.251 510.315 311.945L510.135 311.215L509.955 310.295C509.828 310.142 509.765 309.959 509.765 309.746L509.585 308.826L509.405 308.276C509.311 307.883 509.235 307.523 509.175 307.197C509.108 306.877 509.061 306.563 509.035 306.257C508.821 305.677 508.661 305.144 508.555 304.657C508.448 304.164 508.361 303.721 508.295 303.328L508.115 302.588L507.935 301.669C507.808 301.302 507.721 300.952 507.675 300.619C507.635 300.279 507.598 299.956 507.565 299.649C507.351 299.043 507.185 298.463 507.065 297.91C506.938 297.357 506.861 296.837 506.835 296.35C506.708 296.197 506.645 296.014 506.645 295.801L506.465 295.061L506.285 294.511C506.191 293.871 506.068 293.262 505.915 292.682L505.545 291.022L505.365 289.923L504.995 289.013L504.625 286.804L504.445 286.254V285.704C504.138 284.971 503.955 284.298 503.895 283.685L503.525 281.486L503.155 280.566L502.795 279.097V278.367C502.428 277.354 502.245 276.498 502.245 275.798C502.118 275.645 502.055 275.461 502.055 275.248L501.875 274.688V274.139C501.568 273.439 501.385 272.706 501.325 271.939C501.018 270.96 500.835 270.043 500.775 269.19L500.405 269.92L500.225 271.02L499.675 273.409L499.305 275.428L499.115 275.978L498.385 279.097L498.205 279.837L497.835 281.666L497.655 282.406L497.285 284.425L497.105 284.975L496.365 288.453L495.995 289.743L495.815 291.022C495.481 291.942 495.298 292.738 495.265 293.412L495.085 293.781L494.895 294.881L494.715 295.431L493.795 300.019L493.615 300.569L492.875 304.058L492.695 304.787L492.515 305.707L492.325 306.257L491.595 309.746L491.225 311.215L490.855 313.054L490.675 313.414L490.305 315.074L490.125 315.803L489.945 317.083C489.725 317.849 489.601 318.462 489.575 318.922C489.448 319.229 489.365 319.519 489.325 319.792C489.278 320.072 489.238 320.332 489.205 320.572C488.778 320.638 488.388 320.692 488.035 320.732C487.681 320.778 487.338 320.802 487.005 320.802H486.545C486.391 320.802 486.238 320.788 486.085 320.762H475.435V320.022C475.008 318.922 474.765 317.883 474.705 316.903C474.578 316.75 474.515 316.566 474.515 316.353L474.335 315.434C473.661 313.261 473.231 311.425 473.045 309.926L472.865 309.376L471.945 305.897L471.765 304.428L470.295 298.74V298C469.988 297.3 469.805 296.567 469.745 295.801L469.375 294.701L469.015 293.412V292.862L468.095 289.193V288.643L467.905 287.904L467.545 287.174L467.355 285.704C467.115 284.971 466.918 284.298 466.765 283.685C466.611 283.072 466.505 282.522 466.445 282.036L466.255 281.486V280.936C466.135 280.783 466.075 280.6 466.075 280.386L465.705 278.917L465.525 278.367C465.398 277.721 465.281 277.137 465.175 276.618C465.068 276.098 464.938 275.641 464.785 275.248L464.605 273.959C464.391 273.346 464.221 272.779 464.095 272.259C463.975 271.739 463.898 271.266 463.865 270.84L463.685 269.92C463.565 269.767 463.505 269.584 463.505 269.37L462.585 265.702L462.215 264.412L462.035 263.502L461.855 262.763L461.665 261.483C461.418 260.837 461.295 260.284 461.295 259.824V259.644L460.935 258.724L460.745 257.994C460.625 257.108 460.441 256.372 460.195 255.785V255.056C460.075 254.902 460.015 254.719 460.015 254.506" fill="white"/>
<path d="M585.469 275.059L586.029 276.159C587.462 277.938 588.379 279.774 588.779 281.667C588.899 282.46 588.989 283.203 589.049 283.896C589.116 284.582 589.149 285.185 589.149 285.705V309.926C590.276 312.165 591.926 313.512 594.099 313.965L593.739 314.515C593.612 314.735 593.489 314.858 593.369 314.884L593.189 315.434L592.819 315.804C592.512 316.477 592.146 317.027 591.719 317.454C591.286 318.586 590.732 319.443 590.059 320.023C589.786 320.636 589.526 321.165 589.279 321.612C589.039 322.052 588.812 322.442 588.599 322.782C585.019 321.862 582.202 320.209 580.149 317.823H579.599C575.652 320.669 571.582 322.092 567.389 322.092C565.122 322.092 562.889 321.709 560.689 320.942C554.109 318.59 550.132 314.308 548.759 308.097V307.867C548.759 296.031 555.689 290.113 569.549 290.113H569.689C569.962 289.987 570.266 289.924 570.599 289.924L571.149 289.744H572.439L572.989 289.564H573.539L578.129 289.014C578.189 288.674 578.219 288.367 578.219 288.094V287.175C578.219 282.063 575.512 279.507 570.099 279.507C566.332 279.507 561.176 280.777 554.629 283.316L553.899 281.667L553.529 280.567L553.159 280.197L552.979 279.837L552.609 278.728C552.276 278.181 552.032 277.631 551.879 277.078C551.232 276.225 550.802 275.369 550.589 274.509L551.139 274.329L551.509 274.139L552.059 273.959L552.429 273.59H552.979C553.099 273.47 553.206 273.41 553.299 273.41H553.349C554.449 272.83 555.426 272.4 556.279 272.12L557.199 271.94C557.872 271.634 558.486 271.45 559.039 271.39L560.509 271.02C561.576 270.594 562.616 270.351 563.629 270.291L567.669 269.551C568.276 269.491 568.862 269.438 569.429 269.391C569.996 269.344 570.556 269.321 571.109 269.321C576.949 269.321 581.736 271.234 585.469 275.059ZM573.719 298.37H572.619C572.346 298.43 572.079 298.477 571.819 298.51C571.559 298.537 571.306 298.55 571.059 298.55H570.789L570.049 298.74H569.499C569.346 298.86 569.162 298.92 568.949 298.92H568.399L565.459 299.65H564.909C564.056 300.143 563.322 300.45 562.709 300.57C560.722 302.469 559.729 304.305 559.729 306.078C559.729 307.697 560.539 309.286 562.159 310.846C564.512 312.285 566.806 313.005 569.039 313.005C571.886 313.005 574.609 311.859 577.209 309.566C577.456 308.86 577.702 308.37 577.949 308.097L578.129 307.547L577.949 306.807V298.181H574.279C574.126 298.307 573.939 298.37 573.719 298.37Z" fill="white"/>
<path d="M647.954 279.46V280.009C648.354 280.743 648.6 281.476 648.694 282.209V320.565H637.494V288.087L637.304 286.987C635.777 282.362 633.207 280.049 629.594 280.049C628.494 280.049 627.27 280.279 625.924 280.739C622.864 282.059 620.66 284.141 619.314 286.987L618.584 290.106V320.565H607.564V270.463H618.584V274.681C622.01 271.623 625.744 269.79 629.784 269.183H630.604C638.804 269.183 644.587 272.609 647.954 279.46Z" fill="white"/>
<path d="M211.405 244.435H160.905V342.4H211.405V244.435Z" stroke="white" stroke-width="2" stroke-dasharray="5 5"/>
<path d="M258.904 244.435H213.404V342.4H258.904V244.435Z" stroke="white" stroke-width="2" stroke-dasharray="5 5"/>
<path d="M316.404 244.435H260.905V342.4H316.404V244.435Z" stroke="white" stroke-width="2" stroke-dasharray="5 5"/>
<path d="M370.904 244.435H318.404V342.4H370.904V244.435Z" stroke="white" stroke-width="2" stroke-dasharray="5 5"/>
<path d="M426.904 244.435H372.904V342.4H426.904V244.435Z" stroke="white" stroke-width="2" stroke-dasharray="5 5"/>
<path d="M451.904 244.435H428.904V342.4H451.904V244.435Z" stroke="white" stroke-width="2" stroke-dasharray="5 5"/>
<path d="M543.404 244.435H453.904V342.4H543.404V244.435Z" stroke="white" stroke-width="2" stroke-dasharray="5 5"/>
<path d="M598.904 244.435H545.404V342.4H598.904V244.435Z" stroke="white" stroke-width="2" stroke-dasharray="5 5"/>
<path d="M654.904 244.435H600.904V342.4H654.904V244.435Z" stroke="white" stroke-width="2" stroke-dasharray="5 5"/>
<path d="M315.067 415.038V405.932H368.057V415.038H315.067ZM308.207 433.142V424.255H375.477V433.142H308.207ZM292.787 452.035V442.818H390.666V452.035H292.787ZM306.627 389.958V381.411H345.777V389.958H306.627ZM336.667 387.149V381.411H348.257C350.657 384.483 353.563 387.462 356.977 390.347C360.39 393.24 364.157 395.922 368.277 398.394C372.403 400.867 376.716 403.079 381.216 405.032C385.716 406.978 390.253 408.627 394.826 409.98C394.006 410.58 393.07 411.366 392.016 412.339C390.97 413.312 389.956 414.325 388.976 415.378C388.003 416.425 387.216 417.398 386.616 418.297C380.616 416.125 374.693 413.426 368.847 410.2C362.993 406.975 357.573 403.396 352.587 399.464C347.6 395.525 343.307 391.42 339.707 387.149H336.667ZM334.197 382.54L343.867 386.249C340.193 391.194 335.73 395.765 330.477 399.964C325.23 404.162 319.623 407.874 313.657 411.1C307.697 414.325 301.68 417.138 295.607 419.537C295.08 418.784 294.367 417.884 293.467 416.838C292.567 415.785 291.63 414.752 290.657 413.739C289.683 412.733 288.82 411.929 288.067 411.33C294.22 409.45 300.22 407.088 306.067 404.242C311.92 401.39 317.263 398.128 322.097 394.456C326.937 390.784 330.97 386.812 334.197 382.54ZM335.997 449.226V410.09H346.907V449.226H335.997ZM292.007 369.825V360.048H391.456V369.825H292.007ZM315.967 379.161V351.502H326.547V379.161H315.967ZM356.247 379.721V351.502H366.817V379.721" fill="white"/>
<path d="M478.332 359.261V353.753H498.012V359.261H478.332ZM477.652 377.595V372.197H498.802V377.595H477.652ZM477.652 386.022V380.743H498.802V386.022H477.652ZM461.232 439.332V432.475H518.262V439.332H461.232ZM474.392 368.708V362.75H501.392V368.708H474.392ZM492.052 394.908H484.062V401.316H492.052V394.908ZM477.422 406.494V389.74H498.912V406.494H477.422ZM463.142 427.746V421.339H509.822V416.5H456.162V410.093H519.732V427.746H463.142ZM459.312 408.064V382.543H466.402V408.064H459.312ZM449.082 386.471L448.292 379.614C451.592 379.467 455.285 379.317 459.372 379.164C463.458 379.017 467.788 378.831 472.362 378.604V384.792C468.162 385.165 464.095 385.465 460.162 385.692C456.222 385.912 452.528 386.172 449.082 386.471ZM460.102 421.339H470.002C469.102 424.937 468.128 428.686 467.082 432.585C466.028 436.483 465.052 439.855 464.152 442.701L454.592 441.351C455.638 438.579 456.652 435.374 457.632 431.735C458.605 428.103 459.428 424.637 460.102 421.339ZM514.892 433.594V432.475H524.902C524.902 432.475 524.865 432.978 524.792 433.984C524.718 434.997 524.568 435.843 524.342 436.523C523.288 441.168 522.198 444.82 521.072 447.479C519.952 450.145 518.642 452.077 517.142 453.277C515.868 454.177 514.498 454.793 513.032 455.126C511.572 455.466 509.828 455.673 507.802 455.746C506.075 455.826 503.618 455.846 500.432 455.806C497.245 455.766 493.852 455.673 490.252 455.526C490.178 454.327 489.878 452.977 489.352 451.478C488.825 449.978 488.188 448.629 487.442 447.429C490.968 447.802 494.382 448.026 497.682 448.099C500.982 448.179 503.305 448.219 504.652 448.219C505.852 448.219 506.825 448.179 507.572 448.099C508.325 448.026 508.965 447.802 509.492 447.429C510.538 446.603 511.495 445.12 512.362 442.981C513.222 440.848 514.065 437.719 514.892 433.594ZM467.752 390.52L473.152 389.29C473.752 391.163 474.332 393.222 474.892 395.468C475.458 397.721 475.892 399.67 476.192 401.316L470.342 402.895C470.188 401.169 469.868 399.163 469.382 396.878C468.895 394.592 468.352 392.473 467.752 390.52ZM467.412 375.225L472.252 373.426C473.225 375.305 474.125 377.405 474.952 379.724C475.778 382.05 476.342 384.076 476.642 385.802L471.352 387.821C471.125 386.102 470.638 384.079 469.892 381.753C469.138 379.427 468.312 377.251 467.412 375.225ZM449.412 366.349L453.012 360.951C455.192 362.37 457.328 364 459.422 365.839C461.528 367.678 463.105 369.271 464.152 370.617L460.102 376.805C458.975 375.232 457.402 373.469 455.382 371.517C453.355 369.571 451.365 367.848 449.412 366.349ZM460.102 351.164L466.512 354.313C465.012 356.786 463.512 359.298 462.012 361.85C460.512 364.396 459.088 366.532 457.742 368.258L452.792 365.669C453.992 363.723 455.305 361.344 456.732 358.532C458.152 355.719 459.275 353.264 460.102 351.164ZM467.302 360.501L473.602 364.1C471.128 367.472 468.485 371.03 465.672 374.776C462.858 378.528 460.215 381.676 457.742 384.222L453.012 381.303C454.592 379.431 456.282 377.295 458.082 374.896C459.882 372.496 461.585 370.021 463.192 367.468C464.805 364.923 466.175 362.6 467.302 360.501ZM451.892 388.841L458.532 390.3C457.852 393.226 457.025 396.148 456.052 399.067C455.078 401.992 454.028 404.505 452.902 406.604C452.228 406.158 451.252 405.651 449.972 405.085C448.698 404.525 447.652 404.058 446.832 403.685C448.105 401.586 449.152 399.24 449.972 396.648C450.798 394.062 451.438 391.46 451.892 388.841ZM511.292 408.064V382.543H518.492V408.064H511.292ZM500.942 386.471L500.262 379.614C503.715 379.467 507.598 379.317 511.912 379.164C516.225 379.017 520.818 378.868 525.692 378.714L525.572 384.902C521.152 385.202 516.858 385.482 512.692 385.742C508.532 386.008 504.615 386.251 500.942 386.471ZM520.062 390.52L525.802 388.841C526.775 391.086 527.732 393.559 528.672 396.258C529.605 398.957 530.262 401.283 530.642 403.235L524.682 405.145C524.382 403.192 523.782 400.829 522.882 398.057C521.982 395.285 521.042 392.772 520.062 390.52ZM519.162 375.006L524.452 372.646C525.725 374.592 526.905 376.745 527.992 379.104C529.085 381.47 529.855 383.552 530.302 385.352L524.562 387.941C524.188 386.142 523.495 384.022 522.482 381.583C521.468 379.144 520.362 376.952 519.162 375.006ZM500.492 366.119L504.312 361.061C506.265 362.407 508.215 363.963 510.162 365.729C512.115 367.488 513.615 369.081 514.662 370.507L510.282 376.355C509.302 374.856 507.895 373.13 506.062 371.177C504.222 369.231 502.365 367.545 500.492 366.119ZM511.512 351.274L517.932 354.533C516.352 357.012 514.775 359.505 513.202 362.01C511.628 364.523 510.128 366.679 508.702 368.478L503.752 365.899C505.025 363.946 506.412 361.564 507.912 358.752C509.412 355.939 510.612 353.447 511.512 351.274ZM519.502 360.051L525.802 363.65C523.255 367.022 520.482 370.581 517.482 374.326C514.482 378.078 511.632 381.227 508.932 383.772L504.312 380.853C506.038 378.981 507.838 376.845 509.712 374.446C511.592 372.047 513.392 369.571 515.112 367.018C516.838 364.473 518.302 362.15 519.502 360.051ZM503.752 388.841L510.282 390.41C509.755 393.182 509.005 396.011 508.032 398.897C507.052 401.789 506.002 404.245 504.882 406.264C504.282 405.891 503.382 405.384 502.182 404.745C500.982 404.112 499.932 403.608 499.032 403.235C500.225 401.136 501.198 398.847 501.952 396.368C502.698 393.895 503.298 391.386 503.752 388.841ZM427.252 359.931L433.442 352.964C435.315 353.937 437.282 355.116 439.342 356.502C441.408 357.888 443.342 359.275 445.142 360.661C446.942 362.054 448.405 363.386 449.532 364.659L443.112 372.526C442.065 371.254 440.658 369.867 438.892 368.368C437.132 366.869 435.238 365.389 433.212 363.93C431.192 362.463 429.205 361.131 427.252 359.931ZM424.892 389.96L430.742 382.653C432.688 383.552 434.732 384.659 436.872 385.972C439.012 387.284 440.998 388.594 442.832 389.9C444.672 391.213 446.192 392.469 447.392 393.669L441.202 401.766C440.075 400.566 438.595 399.257 436.762 397.837C434.922 396.411 432.952 395.005 430.852 393.619C428.752 392.233 426.765 391.013 424.892 389.96ZM436.702 454.517L427.142 449.119C428.569 446.12 430.085 442.631 431.692 438.652C433.305 434.68 434.955 430.482 436.642 426.057C438.335 421.639 439.892 417.29 441.312 413.012L449.752 418.41C448.552 422.388 447.202 426.477 445.702 430.675C444.202 434.874 442.702 438.996 441.202 443.041C439.702 447.093 438.202 450.918 436.702 454.517Z" fill="white"/>
<path d="M407.405 344.399H271.905V484.848H407.405V344.399Z" stroke="white" stroke-width="2" stroke-dasharray="5 5"/>
<path d="M544.904 344.399H409.405V484.848H544.904V344.399Z" stroke="white" stroke-width="2" stroke-dasharray="5 5"/>
<path d="M0.000488281 165.209V50.0392" stroke="#46C147" stroke-width="3.03189"/>
<path d="M790.904 165.209V50.0392" stroke="#46C147" stroke-width="3.03189"/>
<path d="M0.000488281 74.2855H788.999" stroke="#46C147" stroke-width="3.03189"/>
<path d="M0.000976562 74.2855L24.2561 68.2239V80.3471L0.000976562 74.2855Z" fill="#46C147"/>
<path d="M790.159 74.2855L765.904 68.2239V80.3471L790.159 74.2855Z" fill="#46C147"/>
<path d="M166.761 35.4719V32.6341L172.327 30.3056L174.037 23.8294L166.761 20.4095V17.5716L174.619 21.501L177.057 12.2234L179.313 12.8782L176.766 22.5561L183.897 26.1216V27.9407L174.255 32.1611L171.599 42.3846L169.344 41.7298L171.527 33.3617L166.761 35.4719ZM180.477 26.8856L176.184 24.8482L175.056 29.1413L180.477 26.8856ZM209.406 37H206.209V16.6235C205.439 17.3578 204.426 18.0921 203.171 18.8264C201.927 19.5607 200.808 20.1114 199.813 20.4785V17.3874C201.602 16.5466 203.165 15.528 204.503 14.3318C205.842 13.1357 206.789 11.975 207.346 10.8499H209.406V37ZM219.408 37V33.3582H223.05V37H219.408ZM244.546 33.9267V37H227.331C227.308 36.2302 227.432 35.49 227.704 34.7794C228.143 33.6069 228.841 32.4522 229.801 31.3152C230.772 30.1782 232.169 28.8636 233.993 27.3714C236.824 25.0501 238.736 23.2144 239.731 21.8642C240.726 20.5022 241.224 19.2172 241.224 18.0092C241.224 16.742 240.768 15.6761 239.856 14.8115C238.956 13.9351 237.777 13.4969 236.32 13.4969C234.781 13.4969 233.549 13.9588 232.625 14.8826C231.701 15.8063 231.234 17.0854 231.222 18.7198L227.935 18.3823C228.16 15.9307 229.007 14.0654 230.476 12.7863C231.944 11.4954 233.916 10.8499 236.391 10.8499C238.89 10.8499 240.868 11.5427 242.325 12.9284C243.782 14.3141 244.51 16.0314 244.51 18.0803C244.51 19.1225 244.297 20.1469 243.87 21.1536C243.444 22.1603 242.734 23.2203 241.739 24.3335C240.756 25.4468 239.115 26.9746 236.818 28.9169C234.899 30.5276 233.667 31.6231 233.123 32.2034C232.578 32.7719 232.128 33.3463 231.773 33.9267H244.546ZM247.992 30.1782L251.35 29.894C251.598 31.5284 252.173 32.7601 253.073 33.5891C253.985 34.4063 255.08 34.8149 256.359 34.8149C257.899 34.8149 259.202 34.2346 260.268 33.0739C261.333 31.9133 261.866 30.3737 261.866 28.455C261.866 26.6312 261.351 25.1922 260.321 24.1381C259.302 23.0841 257.964 22.557 256.306 22.557C255.276 22.557 254.346 22.7939 253.517 23.2676C252.688 23.7295 252.036 24.3335 251.563 25.0797L248.56 24.6888L251.083 11.3118H264.034V14.3674H253.641L252.238 21.3668C253.801 20.2772 255.441 19.7324 257.159 19.7324C259.433 19.7324 261.351 20.52 262.915 22.0952C264.478 23.6703 265.26 25.6955 265.26 28.1708C265.26 30.5276 264.573 32.5647 263.199 34.282C261.529 36.3901 259.249 37.4441 256.359 37.4441C253.991 37.4441 252.054 36.7809 250.55 35.4544C249.058 34.128 248.205 32.3693 247.992 30.1782ZM267.001 37L273.893 27.1937L267.516 18.1336H271.513L274.409 22.557C274.953 23.3979 275.392 24.1026 275.723 24.6711C276.244 23.8894 276.724 23.1966 277.162 22.5926L280.342 18.1336H284.162L277.642 27.0161L284.659 37H280.733L276.86 31.1375L275.83 29.5565L270.873 37H267.001ZM303.81 37V14.0298H295.229V10.9565H315.872V14.0298H307.256V37H303.81ZM317.631 37V18.1336H320.509V20.9937C321.243 19.6554 321.918 18.7731 322.534 18.3467C323.162 17.9204 323.849 17.7072 324.595 17.7072C325.672 17.7072 326.768 18.0507 327.881 18.7376L326.78 21.7043C325.998 21.2424 325.216 21.0115 324.435 21.0115C323.736 21.0115 323.108 21.2247 322.552 21.651C321.995 22.0656 321.598 22.6459 321.361 23.392C321.006 24.529 320.828 25.7725 320.828 27.1227V37H317.631ZM342.093 34.6728C340.909 35.6795 339.766 36.3901 338.665 36.8046C337.575 37.2191 336.402 37.4264 335.147 37.4264C333.075 37.4264 331.482 36.923 330.368 35.9163C329.255 34.8978 328.698 33.601 328.698 32.0258C328.698 31.102 328.906 30.2611 329.32 29.5032C329.747 28.7333 330.297 28.1175 330.972 27.6556C331.659 27.1937 332.429 26.8443 333.282 26.6075C333.909 26.4417 334.857 26.2818 336.124 26.1278C338.706 25.8199 340.607 25.4527 341.827 25.0264C341.839 24.5882 341.845 24.3099 341.845 24.1914C341.845 22.8887 341.543 21.9708 340.938 21.4379C340.121 20.7154 338.907 20.3542 337.297 20.3542C335.793 20.3542 334.679 20.6207 333.957 21.1536C333.246 21.6747 332.719 22.6044 332.376 23.9427L329.249 23.5164C329.533 22.1781 330.001 21.1003 330.653 20.2831C331.304 19.4541 332.245 18.8205 333.477 18.3823C334.709 17.9322 336.136 17.7072 337.759 17.7072C339.369 17.7072 340.678 17.8967 341.685 18.2757C342.691 18.6547 343.432 19.1343 343.905 19.7146C344.379 20.2831 344.711 21.0056 344.9 21.882C345.007 22.4268 345.06 23.4098 345.06 24.831V29.0946C345.06 32.0672 345.125 33.9503 345.255 34.7438C345.398 35.5255 345.67 36.2776 346.073 37H342.733C342.401 36.3368 342.188 35.561 342.093 34.6728ZM341.827 27.5313C340.666 28.005 338.925 28.4077 336.604 28.7393C335.289 28.9288 334.36 29.1419 333.815 29.3788C333.27 29.6157 332.849 29.9651 332.553 30.4269C332.257 30.877 332.109 31.3803 332.109 31.937C332.109 32.7897 332.429 33.5003 333.069 34.0688C333.72 34.6373 334.667 34.9215 335.911 34.9215C337.143 34.9215 338.238 34.655 339.198 34.1221C340.157 33.5773 340.862 32.8371 341.312 31.9014C341.655 31.179 341.827 30.1131 341.827 28.7037V27.5313ZM350.798 37V20.6207H347.973V18.1336H350.798V16.1261C350.798 14.8589 350.911 13.9173 351.136 13.3015C351.444 12.4724 351.982 11.8033 352.752 11.294C353.534 10.7729 354.623 10.5124 356.021 10.5124C356.921 10.5124 357.916 10.619 359.005 10.8321L358.526 13.6212C357.863 13.5028 357.235 13.4436 356.643 13.4436C355.672 13.4436 354.985 13.6509 354.582 14.0654C354.179 14.4799 353.978 15.2556 353.978 16.3926V18.1336H357.655V20.6207H353.978V37H350.798ZM360.249 37V20.6207H357.424V18.1336H360.249V16.1261C360.249 14.8589 360.362 13.9173 360.587 13.3015C360.895 12.4724 361.433 11.8033 362.203 11.294C362.985 10.7729 364.074 10.5124 365.472 10.5124C366.372 10.5124 367.367 10.619 368.456 10.8321L367.977 13.6212C367.314 13.5028 366.686 13.4436 366.094 13.4436C365.123 13.4436 364.436 13.6509 364.033 14.0654C363.63 14.4799 363.429 15.2556 363.429 16.3926V18.1336H367.106V20.6207H363.429V37H360.249ZM369.629 14.6339V10.9565H372.827V14.6339H369.629ZM369.629 37V18.1336H372.827V37H369.629ZM390.023 30.0894L393.168 30.498C392.824 32.6653 391.942 34.3649 390.521 35.5966C389.111 36.8164 387.376 37.4264 385.315 37.4264C382.734 37.4264 380.655 36.5855 379.08 34.9037C377.517 33.2101 376.735 30.7882 376.735 27.6378C376.735 25.6008 377.073 23.8184 377.748 22.2906C378.423 20.7628 379.447 19.6199 380.821 18.8619C382.207 18.0921 383.711 17.7072 385.333 17.7072C387.382 17.7072 389.058 18.2283 390.361 19.2705C391.664 20.3009 392.498 21.7695 392.866 23.6762L389.757 24.1559C389.461 22.8887 388.934 21.9353 388.176 21.2957C387.43 20.6562 386.524 20.3364 385.458 20.3364C383.847 20.3364 382.538 20.9167 381.532 22.0774C380.525 23.2262 380.022 25.0501 380.022 27.549C380.022 30.0835 380.507 31.9251 381.478 33.0739C382.449 34.2227 383.717 34.7971 385.28 34.7971C386.535 34.7971 387.583 34.4122 388.424 33.6424C389.265 32.8726 389.798 31.6883 390.023 30.0894ZM406.296 37V10.9565H409.742V33.9267H422.569V37H406.296ZM438.593 34.6728C437.408 35.6795 436.266 36.3901 435.164 36.8046C434.075 37.2191 432.902 37.4264 431.647 37.4264C429.574 37.4264 427.981 36.923 426.868 35.9163C425.755 34.8978 425.198 33.601 425.198 32.0258C425.198 31.102 425.405 30.2611 425.82 29.5032C426.246 28.7333 426.797 28.1175 427.472 27.6556C428.159 27.1937 428.929 26.8443 429.781 26.6075C430.409 26.4417 431.356 26.2818 432.624 26.1278C435.206 25.8199 437.106 25.4527 438.326 25.0264C438.338 24.5882 438.344 24.3099 438.344 24.1914C438.344 22.8887 438.042 21.9708 437.438 21.4379C436.621 20.7154 435.407 20.3542 433.796 20.3542C432.292 20.3542 431.179 20.6207 430.456 21.1536C429.746 21.6747 429.219 22.6044 428.875 23.9427L425.749 23.5164C426.033 22.1781 426.501 21.1003 427.152 20.2831C427.803 19.4541 428.745 18.8205 429.977 18.3823C431.208 17.9322 432.636 17.7072 434.258 17.7072C435.869 17.7072 437.177 17.8967 438.184 18.2757C439.191 18.6547 439.931 19.1343 440.405 19.7146C440.879 20.2831 441.21 21.0056 441.4 21.882C441.506 22.4268 441.56 23.4098 441.56 24.831V29.0946C441.56 32.0672 441.625 33.9503 441.755 34.7438C441.897 35.5255 442.169 36.2776 442.572 37H439.232C438.901 36.3368 438.688 35.561 438.593 34.6728ZM438.326 27.5313C437.166 28.005 435.425 28.4077 433.103 28.7393C431.789 28.9288 430.859 29.1419 430.314 29.3788C429.769 29.6157 429.349 29.9651 429.053 30.4269C428.757 30.877 428.609 31.3803 428.609 31.937C428.609 32.7897 428.929 33.5003 429.568 34.0688C430.22 34.6373 431.167 34.9215 432.411 34.9215C433.642 34.9215 434.738 34.655 435.697 34.1221C436.656 33.5773 437.361 32.8371 437.811 31.9014C438.155 31.179 438.326 30.1131 438.326 28.7037V27.5313ZM446.534 37V18.1336H449.412V20.8161C450.797 18.7435 452.799 17.7072 455.416 17.7072C456.553 17.7072 457.595 17.9145 458.543 18.329C459.502 18.7317 460.219 19.2646 460.692 19.9278C461.166 20.5911 461.498 21.3786 461.687 22.2906C461.806 22.8827 461.865 23.919 461.865 25.3994V37H458.667V25.5238C458.667 24.221 458.543 23.2499 458.294 22.6103C458.045 21.959 457.601 21.4438 456.962 21.0648C456.334 20.674 455.594 20.4785 454.741 20.4785C453.379 20.4785 452.201 20.9108 451.206 21.7754C450.223 22.64 449.731 24.2803 449.731 26.6963V37H446.534ZM479.701 30.9244L483.005 31.333C482.484 33.2634 481.519 34.7616 480.11 35.8275C478.7 36.8934 476.9 37.4264 474.709 37.4264C471.95 37.4264 469.758 36.5796 468.136 34.886C466.525 33.1805 465.72 30.7941 465.72 27.7267C465.72 24.5527 466.537 22.0892 468.171 20.3364C469.806 18.5836 471.926 17.7072 474.531 17.7072C477.054 17.7072 479.115 18.5658 480.714 20.2831C482.312 22.0004 483.112 24.4165 483.112 27.5313C483.112 27.7207 483.106 28.005 483.094 28.384H469.024C469.143 30.4566 469.729 32.0436 470.783 33.145C471.837 34.2464 473.152 34.7971 474.727 34.7971C475.899 34.7971 476.9 34.4892 477.729 33.8734C478.558 33.2575 479.215 32.2745 479.701 30.9244ZM469.202 25.7547H479.737C479.594 24.1677 479.192 22.9775 478.528 22.184C477.51 20.9523 476.189 20.3364 474.567 20.3364C473.098 20.3364 471.861 20.8279 470.854 21.8109C469.859 22.7939 469.308 24.1085 469.202 25.7547ZM502.12 37L495.21 10.9565H498.745L502.707 28.0287C503.133 29.817 503.5 31.5935 503.808 33.3582C504.471 30.575 504.862 28.9702 504.981 28.5439L509.937 10.9565H514.094L517.825 24.1381C518.76 27.4069 519.435 30.4802 519.85 33.3582C520.181 31.7119 520.614 29.8229 521.147 27.6911L525.233 10.9565H528.697L521.555 37H518.233L512.744 17.1565C512.282 15.4984 512.01 14.4799 511.927 14.1009C511.654 15.2971 511.4 16.3156 511.163 17.1565L505.638 37H502.12ZM531.539 14.6339V10.9565H534.737V14.6339H531.539ZM531.539 37V18.1336H534.737V37H531.539ZM551.862 37V34.6195C550.666 36.4907 548.908 37.4264 546.586 37.4264C545.082 37.4264 543.696 37.0118 542.429 36.1828C541.174 35.3538 540.197 34.1991 539.498 32.7186C538.811 31.2264 538.468 29.515 538.468 27.5845C538.468 25.7015 538.781 23.996 539.409 22.4682C540.037 20.9286 540.978 19.7502 542.234 18.933C543.489 18.1158 544.893 17.7072 546.444 17.7072C547.581 17.7072 548.594 17.95 549.482 18.4356C550.37 18.9093 551.093 19.5311 551.649 20.3009V10.9565H554.829V37H551.862ZM541.754 27.5845C541.754 30.0006 542.263 31.8067 543.282 33.0029C544.3 34.1991 545.503 34.7971 546.888 34.7971C548.286 34.7971 549.47 34.2287 550.441 33.0917C551.424 31.9429 551.916 30.196 551.916 27.851C551.916 25.2692 551.418 23.3742 550.423 22.1662C549.429 20.9582 548.203 20.3542 546.746 20.3542C545.325 20.3542 544.135 20.9345 543.175 22.0952C542.228 23.2558 541.754 25.0856 541.754 27.5845ZM566.856 34.1398L567.318 36.9645C566.418 37.154 565.613 37.2487 564.902 37.2487C563.741 37.2487 562.841 37.0651 562.202 36.698C561.562 36.3309 561.112 35.8512 560.852 35.259C560.591 34.655 560.461 33.3937 560.461 31.4751V20.6207H558.116V18.1336H560.461V13.4614L563.641 11.5427V18.1336H566.856V20.6207H563.641V31.6527C563.641 32.5647 563.694 33.1509 563.801 33.4115C563.919 33.672 564.103 33.8793 564.351 34.0332C564.612 34.1872 564.979 34.2642 565.453 34.2642C565.808 34.2642 566.276 34.2227 566.856 34.1398ZM570.001 37V10.9565H573.198V20.3009C574.69 18.5718 576.574 17.7072 578.847 17.7072C580.245 17.7072 581.459 17.9855 582.489 18.5422C583.52 19.087 584.254 19.8449 584.692 20.8161C585.142 21.7872 585.367 23.1966 585.367 25.0441V37H582.17V25.0441C582.17 23.4453 581.82 22.2847 581.121 21.5622C580.434 20.8279 579.457 20.4608 578.19 20.4608C577.243 20.4608 576.349 20.7095 575.508 21.2069C574.679 21.6925 574.086 22.3557 573.731 23.1966C573.376 24.0375 573.198 25.1981 573.198 26.6785V37H570.001Z" fill="#46C147"/>
<path d="M655.903 414.623V299.453" stroke="#46C147" stroke-width="3.03189"/>
<path d="M785.903 414.623V299.453" stroke="#46C147" stroke-width="3.03189"/>
<path d="M655.903 323.7H778.903" stroke="#46C147" stroke-width="3.03189"/>
<path d="M655.904 323.7L680.159 317.638V329.761L655.904 323.7Z" fill="#46C147"/>
<path d="M785.158 323.7L760.903 317.638V329.761L785.158 323.7Z" fill="#46C147"/>
<path d="M695.909 264.967V246.101H698.77V248.748C699.362 247.824 700.149 247.084 701.132 246.527C702.115 245.959 703.235 245.674 704.49 245.674C705.887 245.674 707.03 245.964 707.919 246.545C708.819 247.125 709.452 247.936 709.819 248.979C711.312 246.776 713.254 245.674 715.646 245.674C717.518 245.674 718.957 246.195 719.963 247.238C720.97 248.268 721.473 249.861 721.473 252.016V264.967H718.293V253.082C718.293 251.803 718.187 250.885 717.974 250.329C717.772 249.76 717.399 249.304 716.854 248.961C716.31 248.617 715.67 248.446 714.936 248.446C713.609 248.446 712.508 248.89 711.631 249.778C710.755 250.654 710.317 252.064 710.317 254.006V264.967H707.119V252.709C707.119 251.288 706.859 250.222 706.337 249.512C705.816 248.801 704.964 248.446 703.779 248.446C702.879 248.446 702.044 248.683 701.274 249.156C700.516 249.63 699.966 250.323 699.622 251.235C699.279 252.147 699.107 253.461 699.107 255.179V264.967H695.909ZM726.234 242.601V238.924H729.432V242.601H726.234ZM726.234 264.967V246.101H729.432V264.967H726.234ZM734.317 264.967V246.101H737.195V248.783C738.581 246.711 740.583 245.674 743.2 245.674C744.337 245.674 745.379 245.882 746.327 246.296C747.286 246.699 748.002 247.232 748.476 247.895C748.95 248.558 749.281 249.346 749.471 250.258C749.589 250.85 749.649 251.886 749.649 253.367V264.967H746.451V253.491C746.451 252.188 746.327 251.217 746.078 250.577C745.829 249.926 745.385 249.411 744.745 249.032C744.118 248.641 743.378 248.446 742.525 248.446C741.163 248.446 739.984 248.878 738.99 249.743C738.007 250.607 737.515 252.247 737.515 254.663V264.967H734.317ZM755.476 264.967V261.325H759.117V264.967H755.476ZM698.663 303.894V306.967H681.449C681.425 306.197 681.549 305.457 681.822 304.747C682.26 303.574 682.959 302.419 683.918 301.282C684.889 300.145 686.287 298.831 688.111 297.338C690.941 295.017 692.854 293.181 693.849 291.831C694.844 290.469 695.341 289.184 695.341 287.976C695.341 286.709 694.885 285.643 693.973 284.779C693.073 283.902 691.895 283.464 690.438 283.464C688.898 283.464 687.666 283.926 686.743 284.85C685.819 285.773 685.351 287.053 685.339 288.687L682.053 288.349C682.278 285.898 683.125 284.033 684.593 282.753C686.062 281.463 688.034 280.817 690.509 280.817C693.008 280.817 694.986 281.51 696.442 282.896C697.899 284.281 698.627 285.999 698.627 288.047C698.627 289.09 698.414 290.114 697.988 291.121C697.562 292.127 696.851 293.187 695.856 294.301C694.873 295.414 693.233 296.942 690.935 298.884C689.017 300.495 687.785 301.59 687.24 302.171C686.695 302.739 686.245 303.313 685.89 303.894H698.663ZM703.904 306.967V303.325H707.546V306.967H703.904ZM712.235 300.145L715.593 299.861C715.842 301.496 716.416 302.727 717.316 303.556C718.228 304.373 719.324 304.782 720.603 304.782C722.142 304.782 723.445 304.202 724.511 303.041C725.577 301.88 726.11 300.341 726.11 298.422C726.11 296.598 725.595 295.159 724.564 294.105C723.546 293.051 722.208 292.524 720.55 292.524C719.519 292.524 718.589 292.761 717.76 293.235C716.931 293.697 716.28 294.301 715.806 295.047L712.804 294.656L715.327 281.279H728.277V284.335H717.885L716.481 291.334C718.045 290.244 719.685 289.7 721.402 289.7C723.676 289.7 725.595 290.487 727.158 292.062C728.721 293.637 729.503 295.663 729.503 298.138C729.503 300.495 728.816 302.532 727.442 304.249C725.772 306.357 723.493 307.411 720.603 307.411C718.234 307.411 716.298 306.748 714.794 305.422C713.301 304.095 712.449 302.336 712.235 300.145ZM732.097 301.336L735.259 300.838C735.437 302.105 735.928 303.077 736.733 303.752C737.551 304.427 738.688 304.764 740.144 304.764C741.613 304.764 742.702 304.468 743.413 303.876C744.124 303.272 744.479 302.567 744.479 301.762C744.479 301.04 744.165 300.471 743.537 300.057C743.099 299.772 742.01 299.411 740.269 298.973C737.924 298.381 736.295 297.871 735.383 297.445C734.483 297.007 733.796 296.409 733.323 295.651C732.861 294.881 732.63 294.034 732.63 293.11C732.63 292.27 732.819 291.494 733.198 290.783C733.589 290.061 734.116 289.463 734.779 288.989C735.277 288.622 735.952 288.314 736.804 288.065C737.669 287.805 738.593 287.674 739.576 287.674C741.056 287.674 742.353 287.888 743.466 288.314C744.591 288.74 745.421 289.321 745.953 290.055C746.486 290.777 746.854 291.748 747.055 292.968L743.928 293.395C743.786 292.424 743.372 291.666 742.685 291.121C742.01 290.576 741.05 290.304 739.807 290.304C738.338 290.304 737.29 290.546 736.662 291.032C736.035 291.517 735.721 292.086 735.721 292.737C735.721 293.152 735.851 293.525 736.112 293.857C736.372 294.2 736.781 294.484 737.337 294.709C737.657 294.828 738.599 295.1 740.162 295.526C742.424 296.13 743.999 296.628 744.888 297.019C745.788 297.398 746.492 297.954 747.002 298.689C747.511 299.423 747.765 300.335 747.765 301.424C747.765 302.49 747.452 303.497 746.824 304.445C746.208 305.38 745.314 306.108 744.141 306.63C742.969 307.139 741.642 307.393 740.162 307.393C737.71 307.393 735.839 306.884 734.548 305.866C733.269 304.847 732.452 303.337 732.097 301.336ZM755.049 306.967L749.276 288.101H752.58L755.582 298.991L756.701 303.041C756.749 302.84 757.074 301.543 757.678 299.151L760.681 288.101H763.967L766.792 299.044L767.733 302.65L768.817 299.008L772.05 288.101H775.159L769.261 306.967H765.939L762.937 295.669L762.208 292.453L758.389 306.967H755.049Z" fill="#46C147"/>
<path d="M758.333 585.286L777.083 617.751" stroke="#04E3E3" stroke-width="3.03189"/>
<path d="M758.332 591.348C761.681 591.348 764.396 588.634 764.396 585.286C764.396 581.939 761.681 579.225 758.332 579.225C754.984 579.225 752.269 581.939 752.269 585.286C752.269 588.634 754.984 591.348 758.332 591.348Z" fill="#04E3E3"/>
<path d="M777.082 617.751V599.566L761.328 608.658L777.082 617.751Z" fill="#04E3E3"/>
<path d="M662.764 570.856V544.812H674.311C676.632 544.812 678.397 545.049 679.605 545.523C680.813 545.985 681.778 546.808 682.501 547.992C683.223 549.176 683.584 550.485 683.584 551.918C683.584 553.766 682.986 555.323 681.79 556.59C680.594 557.858 678.746 558.663 676.247 559.006C677.159 559.445 677.852 559.877 678.326 560.303C679.333 561.227 680.286 562.382 681.186 563.767L685.716 570.856H681.381L677.935 565.437C676.928 563.874 676.099 562.678 675.448 561.849C674.797 561.02 674.21 560.439 673.689 560.108C673.18 559.776 672.659 559.545 672.126 559.415C671.735 559.332 671.096 559.291 670.207 559.291H666.21V570.856H662.764ZM666.21 556.306H673.618C675.193 556.306 676.425 556.146 677.313 555.826C678.202 555.495 678.877 554.974 679.338 554.263C679.8 553.541 680.031 552.759 680.031 551.918C680.031 550.686 679.581 549.674 678.681 548.88C677.793 548.087 676.384 547.69 674.453 547.69H666.21V556.306ZM699.75 570.856H696.553V550.479C695.783 551.213 694.77 551.948 693.515 552.682C692.271 553.416 691.152 553.967 690.157 554.334V551.243C691.946 550.402 693.509 549.384 694.847 548.187C696.186 546.991 697.133 545.831 697.69 544.705H699.75V570.856ZM709.752 570.856V567.214H713.394V570.856H709.752ZM718.084 564.034L721.442 563.75C721.69 565.384 722.265 566.616 723.165 567.445C724.077 568.262 725.172 568.67 726.451 568.67C727.991 568.67 729.294 568.09 730.36 566.93C731.425 565.769 731.958 564.229 731.958 562.311C731.958 560.487 731.443 559.048 730.413 557.994C729.394 556.94 728.056 556.413 726.398 556.413C725.368 556.413 724.438 556.65 723.609 557.123C722.78 557.585 722.128 558.189 721.655 558.935L718.652 558.544L721.175 545.167H734.126V548.223H723.733L722.33 555.222C723.893 554.133 725.533 553.588 727.251 553.588C729.525 553.588 731.443 554.376 733.007 555.951C734.57 557.526 735.352 559.551 735.352 562.026C735.352 564.383 734.665 566.42 733.291 568.138C731.621 570.246 729.341 571.3 726.451 571.3C724.083 571.3 722.146 570.636 720.642 569.31C719.15 567.984 718.297 566.225 718.084 564.034ZM737.945 565.224L741.107 564.727C741.285 565.994 741.777 566.965 742.582 567.64C743.399 568.315 744.536 568.653 745.993 568.653C747.461 568.653 748.551 568.357 749.262 567.764C749.972 567.16 750.327 566.456 750.327 565.65C750.327 564.928 750.014 564.36 749.386 563.945C748.948 563.661 747.858 563.3 746.117 562.861C743.772 562.269 742.144 561.76 741.232 561.334C740.332 560.895 739.645 560.297 739.171 559.539C738.709 558.769 738.478 557.923 738.478 556.999C738.478 556.158 738.668 555.382 739.047 554.672C739.438 553.949 739.965 553.351 740.628 552.877C741.125 552.51 741.8 552.202 742.653 551.954C743.518 551.693 744.441 551.563 745.424 551.563C746.905 551.563 748.202 551.776 749.315 552.202C750.44 552.629 751.269 553.209 751.802 553.943C752.335 554.666 752.702 555.637 752.903 556.857L749.777 557.283C749.635 556.312 749.22 555.554 748.533 555.009C747.858 554.464 746.899 554.192 745.655 554.192C744.187 554.192 743.139 554.435 742.511 554.92C741.883 555.406 741.569 555.974 741.569 556.626C741.569 557.04 741.7 557.413 741.96 557.745C742.221 558.088 742.629 558.373 743.186 558.598C743.506 558.716 744.447 558.989 746.011 559.415C748.273 560.019 749.848 560.516 750.736 560.907C751.636 561.286 752.341 561.843 752.85 562.577C753.359 563.311 753.614 564.223 753.614 565.313C753.614 566.379 753.3 567.385 752.672 568.333C752.057 569.269 751.162 569.997 749.99 570.518C748.817 571.027 747.491 571.282 746.011 571.282C743.559 571.282 741.688 570.773 740.397 569.754C739.118 568.736 738.301 567.226 737.945 565.224ZM760.898 570.856L755.124 551.989H758.428L761.431 562.879L762.55 566.93C762.597 566.728 762.923 565.431 763.527 563.039L766.529 551.989H769.816L772.64 562.932L773.582 566.539L774.666 562.897L777.899 551.989H781.008L775.11 570.856H771.788L768.785 559.557L768.057 556.342L764.237 570.856H760.898Z" fill="#04E3E3"/>
<path d="M408.904 156.994V646.815" stroke="#46C147" stroke-width="6" stroke-dasharray="12 24 36 24"/>
<path d="M347.122 690.812H333.806V684.154C332.035 683.815 330.665 682.99 329.695 681.68C328.749 680.37 328.276 678.612 328.276 676.405C328.276 674.949 328.494 673.688 328.93 672.621C329.391 671.554 330.034 670.705 330.859 670.074C331.683 669.419 332.666 668.982 333.806 668.764V664.835H336.207V668.619C336.983 668.643 337.711 668.728 338.39 668.873C339.093 669.019 339.724 669.225 340.282 669.492L339.663 671.347C339.13 671.081 338.572 670.887 337.99 670.765C337.432 670.62 336.838 670.535 336.207 670.511V682.371C336.765 682.347 337.371 682.274 338.026 682.153C338.681 682.008 339.312 681.813 339.918 681.571V683.463C339.53 683.633 339.118 683.778 338.681 683.899C338.269 684.021 337.844 684.118 337.408 684.19C336.995 684.239 336.595 684.275 336.207 684.3V688.629H347.122V690.812ZM330.531 676.332C330.531 677.884 330.798 679.158 331.332 680.152C331.865 681.146 332.69 681.813 333.806 682.153V670.692C332.69 671.008 331.865 671.651 331.332 672.621C330.798 673.591 330.531 674.828 330.531 676.332ZM359.957 667.194V664.352H379.802V667.194H371.482V690.812H368.278V667.194H359.957ZM382.273 690.812V670.967H385.219V673.964H385.426C385.788 672.983 386.442 672.186 387.39 671.574C388.337 670.963 389.405 670.657 390.594 670.657C390.818 670.657 391.098 670.661 391.434 670.67C391.77 670.678 392.024 670.691 392.196 670.709V673.809C392.093 673.784 391.856 673.745 391.485 673.693C391.124 673.633 390.74 673.603 390.335 673.603C389.371 673.603 388.509 673.805 387.751 674.21C387.002 674.606 386.408 675.157 385.968 675.864C385.538 676.561 385.322 677.358 385.322 678.254V690.812H382.273ZM401.65 691.277C400.393 691.277 399.251 691.04 398.226 690.567C397.201 690.084 396.387 689.391 395.784 688.487C395.181 687.574 394.88 686.471 394.88 685.179C394.88 684.042 395.104 683.12 395.552 682.414C396 681.699 396.598 681.139 397.348 680.735C398.097 680.33 398.924 680.028 399.828 679.83C400.741 679.623 401.659 679.46 402.58 679.339C403.786 679.184 404.764 679.068 405.513 678.99C406.271 678.904 406.822 678.762 407.167 678.564C407.52 678.366 407.697 678.021 407.697 677.53V677.427C407.697 676.152 407.348 675.162 406.65 674.455C405.961 673.749 404.915 673.396 403.511 673.396C402.055 673.396 400.914 673.715 400.087 674.352C399.26 674.989 398.678 675.67 398.343 676.393L395.448 675.36C395.965 674.154 396.654 673.215 397.516 672.543C398.386 671.863 399.333 671.389 400.358 671.122C401.392 670.846 402.408 670.709 403.407 670.709C404.045 670.709 404.777 670.786 405.604 670.941C406.439 671.088 407.244 671.393 408.02 671.858C408.803 672.324 409.454 673.026 409.971 673.964C410.487 674.903 410.746 676.161 410.746 677.737V690.812H407.697V688.125H407.542C407.335 688.555 406.99 689.016 406.508 689.507C406.026 689.998 405.384 690.416 404.583 690.76C403.782 691.105 402.804 691.277 401.65 691.277ZM402.115 688.538C403.321 688.538 404.337 688.301 405.164 687.828C406 687.354 406.629 686.742 407.051 685.993C407.481 685.244 407.697 684.455 407.697 683.629V680.838C407.567 680.993 407.283 681.135 406.844 681.264C406.413 681.385 405.914 681.493 405.345 681.587C404.785 681.673 404.238 681.751 403.704 681.82C403.179 681.88 402.753 681.932 402.425 681.975C401.633 682.078 400.892 682.246 400.203 682.479C399.523 682.703 398.971 683.043 398.549 683.499C398.136 683.947 397.929 684.559 397.929 685.334C397.929 686.393 398.321 687.195 399.105 687.737C399.897 688.271 400.901 688.538 402.115 688.538ZM425.148 670.967V673.551H414.451V670.967H425.148ZM417.655 690.812V668.228C417.655 667.091 417.922 666.144 418.456 665.386C418.99 664.628 419.683 664.059 420.536 663.68C421.389 663.301 422.289 663.112 423.236 663.112C423.986 663.112 424.597 663.172 425.071 663.293C425.545 663.413 425.898 663.525 426.13 663.628L425.252 666.264C425.097 666.212 424.881 666.148 424.606 666.07C424.339 665.993 423.986 665.954 423.546 665.954C422.539 665.954 421.811 666.208 421.363 666.716C420.924 667.225 420.704 667.97 420.704 668.951V690.812H417.655ZM438.259 670.967V673.551H427.561V670.967H438.259ZM430.765 690.812V668.228C430.765 667.091 431.032 666.144 431.566 665.386C432.1 664.628 432.794 664.059 433.646 663.68C434.499 663.301 435.399 663.112 436.347 663.112C437.096 663.112 437.708 663.172 438.181 663.293C438.655 663.413 439.008 663.525 439.241 663.628L438.362 666.264C438.207 666.212 437.992 666.148 437.716 666.07C437.449 665.993 437.096 665.954 436.657 665.954C435.649 665.954 434.921 666.208 434.473 666.716C434.034 667.225 433.814 667.97 433.814 668.951V690.812H430.765ZM442.532 690.812V670.967H445.581V690.812H442.532ZM444.083 667.659C443.488 667.659 442.976 667.457 442.545 667.052C442.123 666.647 441.912 666.161 441.912 665.592C441.912 665.024 442.123 664.537 442.545 664.132C442.976 663.727 443.488 663.525 444.083 663.525C444.677 663.525 445.185 663.727 445.607 664.132C446.038 664.537 446.253 665.024 446.253 665.592C446.253 666.161 446.038 666.647 445.607 667.052C445.185 667.457 444.677 667.659 444.083 667.659ZM459.228 691.226C457.368 691.226 455.766 690.786 454.422 689.908C453.078 689.029 452.045 687.819 451.321 686.277C450.598 684.735 450.236 682.974 450.236 680.993C450.236 678.977 450.606 677.199 451.347 675.657C452.096 674.107 453.138 672.896 454.474 672.026C455.817 671.148 457.385 670.709 459.176 670.709C460.572 670.709 461.829 670.967 462.949 671.484C464.069 672.001 464.986 672.724 465.701 673.654C466.416 674.585 466.86 675.67 467.032 676.91H463.983C463.75 676.006 463.233 675.205 462.432 674.507C461.64 673.801 460.572 673.448 459.228 673.448C458.039 673.448 456.997 673.758 456.101 674.378C455.214 674.989 454.521 675.855 454.021 676.975C453.53 678.086 453.285 679.391 453.285 680.89C453.285 682.423 453.526 683.758 454.008 684.895C454.499 686.032 455.188 686.915 456.076 687.543C456.971 688.172 458.022 688.487 459.228 688.487C460.021 688.487 460.74 688.349 461.386 688.073C462.032 687.797 462.579 687.401 463.027 686.884C463.474 686.368 463.793 685.747 463.983 685.024H467.032C466.86 686.195 466.433 687.251 465.753 688.189C465.081 689.12 464.189 689.86 463.078 690.412C461.976 690.954 460.692 691.226 459.228 691.226ZM359.397 734.812V708.352H362.601V731.97H374.901V734.812H359.397ZM385.289 735.277C384.031 735.277 382.89 735.04 381.865 734.567C380.84 734.084 380.026 733.391 379.423 732.487C378.82 731.574 378.518 730.471 378.518 729.179C378.518 728.042 378.742 727.12 379.19 726.414C379.638 725.699 380.237 725.139 380.986 724.735C381.736 724.33 382.562 724.028 383.467 723.83C384.38 723.623 385.297 723.46 386.219 723.339C387.425 723.184 388.402 723.068 389.152 722.99C389.91 722.904 390.461 722.762 390.805 722.564C391.159 722.366 391.335 722.021 391.335 721.53V721.427C391.335 720.152 390.986 719.162 390.289 718.455C389.599 717.749 388.553 717.396 387.149 717.396C385.693 717.396 384.552 717.715 383.725 718.352C382.898 718.989 382.317 719.67 381.981 720.393L379.087 719.36C379.604 718.154 380.293 717.215 381.154 716.543C382.024 715.863 382.972 715.389 383.997 715.122C385.03 714.846 386.046 714.709 387.046 714.709C387.683 714.709 388.415 714.786 389.242 714.941C390.078 715.088 390.883 715.393 391.658 715.858C392.442 716.324 393.092 717.026 393.609 717.964C394.126 718.903 394.384 720.161 394.384 721.737V734.812H391.335V732.125H391.18C390.973 732.555 390.629 733.016 390.146 733.507C389.664 733.998 389.022 734.416 388.221 734.76C387.42 735.105 386.443 735.277 385.289 735.277ZM385.754 732.538C386.96 732.538 387.976 732.301 388.803 731.828C389.638 731.354 390.267 730.742 390.689 729.993C391.12 729.244 391.335 728.455 391.335 727.629V724.838C391.206 724.993 390.922 725.135 390.482 725.264C390.052 725.385 389.552 725.493 388.984 725.587C388.424 725.673 387.877 725.751 387.343 725.82C386.817 725.88 386.391 725.932 386.064 725.975C385.271 726.078 384.531 726.246 383.841 726.479C383.161 726.703 382.61 727.043 382.188 727.499C381.774 727.947 381.568 728.559 381.568 729.334C381.568 730.393 381.959 731.195 382.743 731.737C383.536 732.271 384.539 732.538 385.754 732.538ZM402.999 722.874V734.812H399.95V714.967H402.895V718.068H403.154C403.619 717.06 404.325 716.25 405.273 715.639C406.22 715.019 407.443 714.709 408.942 714.709C410.286 714.709 411.461 714.984 412.469 715.535C413.477 716.078 414.261 716.905 414.82 718.016C415.38 719.119 415.66 720.514 415.66 722.202V734.812H412.611V722.409C412.611 720.85 412.206 719.635 411.397 718.765C410.587 717.887 409.476 717.448 408.063 717.448C407.09 717.448 406.22 717.659 405.453 718.081C404.695 718.503 404.097 719.119 403.658 719.928C403.218 720.738 402.999 721.72 402.999 722.874ZM429.552 735.226C427.64 735.226 425.991 734.804 424.604 733.959C423.226 733.107 422.162 731.918 421.413 730.393C420.672 728.86 420.302 727.077 420.302 725.045C420.302 723.012 420.672 721.22 421.413 719.67C422.162 718.111 423.204 716.896 424.539 716.026C425.883 715.148 427.451 714.709 429.242 714.709C430.276 714.709 431.297 714.881 432.304 715.225C433.312 715.57 434.23 716.13 435.056 716.905C435.883 717.672 436.542 718.688 437.033 719.954C437.524 721.22 437.77 722.779 437.77 724.631V725.923H422.472V723.287H434.669C434.669 722.168 434.445 721.169 433.997 720.29C433.558 719.411 432.929 718.718 432.111 718.21C431.301 717.702 430.345 717.448 429.242 717.448C428.028 717.448 426.977 717.749 426.09 718.352C425.211 718.946 424.535 719.722 424.061 720.678C423.588 721.634 423.351 722.659 423.351 723.753V725.51C423.351 727.008 423.609 728.279 424.126 729.321C424.651 730.355 425.379 731.143 426.31 731.685C427.24 732.22 428.321 732.487 429.552 732.487C430.353 732.487 431.077 732.375 431.723 732.151C432.378 731.918 432.942 731.574 433.416 731.117C433.889 730.652 434.255 730.075 434.514 729.386L437.46 730.213C437.149 731.212 436.628 732.09 435.896 732.848C435.164 733.598 434.26 734.183 433.183 734.605C432.106 735.019 430.896 735.226 429.552 735.226Z" fill="#46C147"/>
<path d="M786.654 351.234V466.404" stroke="#46C147" stroke-width="3.03189"/>
<path d="M797.904 351.234V466.404" stroke="#46C147" stroke-width="3.03189"/>
<path d="M786.654 442.158H823.654" stroke="#46C147" stroke-width="3.03189"/>
<path d="M794.903 442.158L831.286 433.065V451.25L794.903 442.158Z" fill="#46C147"/>
<path d="M787.287 442.158L750.904 433.065V451.25L787.287 442.158Z" fill="#46C147"/>
<path d="M686.945 424.439V450.9H683.741V427.799H683.586L677.126 432.088V428.832L683.741 424.439H686.945ZM708.663 435.499L705.924 436.274C705.752 435.818 705.498 435.374 705.162 434.943C704.835 434.504 704.387 434.142 703.818 433.858C703.25 433.574 702.522 433.432 701.635 433.432C700.42 433.432 699.408 433.712 698.599 434.272C697.798 434.823 697.397 435.525 697.397 436.378C697.397 437.136 697.673 437.734 698.224 438.173C698.775 438.613 699.637 438.979 700.808 439.272L703.754 439.995C705.528 440.426 706.85 441.085 707.72 441.972C708.59 442.85 709.025 443.983 709.025 445.37C709.025 446.507 708.698 447.523 708.043 448.419C707.397 449.315 706.493 450.021 705.33 450.538C704.167 451.055 702.815 451.313 701.273 451.313C699.249 451.313 697.574 450.874 696.247 449.995C694.921 449.117 694.081 447.833 693.728 446.145L696.622 445.422C696.897 446.49 697.419 447.291 698.185 447.825C698.96 448.359 699.972 448.626 701.221 448.626C702.643 448.626 703.771 448.324 704.606 447.721C705.451 447.11 705.873 446.378 705.873 445.525C705.873 444.836 705.631 444.259 705.149 443.794C704.667 443.32 703.926 442.967 702.927 442.734L699.619 441.959C697.802 441.528 696.467 440.861 695.614 439.956C694.77 439.043 694.348 437.902 694.348 436.533C694.348 435.413 694.662 434.422 695.291 433.561C695.928 432.7 696.794 432.024 697.888 431.533C698.991 431.042 700.239 430.796 701.635 430.796C703.599 430.796 705.14 431.227 706.26 432.088C707.389 432.949 708.19 434.086 708.663 435.499ZM718.111 450.9L712.064 431.055H715.269L719.558 446.248H719.765L724.003 431.055H727.258L731.444 446.197H731.651L735.941 431.055H739.145L733.098 450.9H730.101L725.76 435.654H725.45L721.108 450.9H718.111Z" fill="#46C147"/>
</g>
<defs>
<clipPath id="clip0_0_1">
<rect width="825" height="750" fill="white"/>
</clipPath>
</defs>
</svg>
