<svg width="800" height="550" viewBox="0 0 800 550" fill="none" xmlns="http://www.w3.org/2000/svg">
<g clip-path="url(#clip0_0_1)">
<path d="M9.60962 58.8593C9.60962 38.1486 26.3989 21.3593 47.1096 21.3593H1597.11C1617.82 21.3593 1634.61 38.1486 1634.61 58.8593V458.859C1634.61 479.57 1617.82 496.359 1597.11 496.359H47.1096C26.3989 496.359 9.60962 479.57 9.60962 458.859V58.8593Z" fill="white"/>
<path d="M28.3596 58.8593C28.3596 48.504 36.7542 40.1093 47.1096 40.1093H1597.11C1607.47 40.1093 1615.86 48.504 1615.86 58.8593V458.859C1615.86 469.215 1607.47 477.609 1597.11 477.609H47.1096C36.7542 477.609 28.3596 469.215 28.3596 458.859V58.8593Z" fill="#0033A2"/>
<path d="M327.879 87.4097V76.3897H378.549V87.4097H359.269V146.71H347.159V87.4097" fill="white"/>
<path d="M421.268 102.636L420.718 103.376L420.168 103.926L419.618 104.296L418.878 105.396L418.518 105.766L418.148 105.946C417.748 106.5 417.382 106.926 417.048 107.226L414.658 109.986C409.578 106.713 405.372 105.076 402.038 105.076C398.612 105.076 396.088 106.773 394.468 110.166C394.528 112.16 395.322 113.63 396.848 114.576C397.522 114.756 398.012 114.94 398.318 115.126C399.512 115.306 400.492 115.55 401.258 115.856C412.852 116.716 419.338 121.37 420.718 129.816C420.778 130.183 420.808 130.54 420.808 130.886C420.808 131.24 420.808 131.586 420.808 131.926C420.808 138.073 418.208 142.693 413.008 145.786C409.275 147.466 405.525 148.306 401.758 148.306C394.598 148.306 387.455 145.263 380.328 139.176L380.698 138.446L381.608 137.526C382.222 136.793 382.775 136.24 383.268 135.866C383.388 135.653 383.508 135.533 383.628 135.506L383.998 134.956C384.118 134.743 384.242 134.62 384.368 134.586L384.548 134.216L384.918 134.036L387.308 131.276C391.835 135.563 396.575 137.706 401.528 137.706C403.608 137.706 405.722 137.34 407.868 136.606C408.415 135.873 408.965 135.323 409.518 134.956C409.705 134.223 409.798 133.533 409.798 132.886C409.798 131.293 409.278 129.963 408.238 128.896L404.008 127.426C391.402 126.66 384.548 121.273 383.448 111.266C384.275 101.2 389.965 95.8163 400.518 95.1163H401.168C409.275 95.1163 415.975 97.623 421.268 102.636Z" fill="white"/>
<path d="M433.647 132.385V96.585H444.667V128.345C444.787 128.498 444.847 128.682 444.847 128.895C444.973 128.988 445.037 129.078 445.037 129.165V129.265C445.25 130.638 445.553 131.862 445.947 132.935C448.06 135.868 450.77 137.335 454.077 137.335H454.217C458.317 136.235 461.19 133.972 462.837 130.545V129.995L463.577 127.795V96.585H474.777V146.705H463.577V142.665C459.17 146.272 454.78 148.075 450.407 148.075C447.007 148.075 443.563 147.005 440.077 144.865C437.23 142.692 435.27 140.122 434.197 137.155L434.017 135.865C433.743 134.978 433.607 134.108 433.607 133.255V132.845C433.607 132.692 433.62 132.538 433.647 132.385Z" fill="white"/>
<path d="M533.196 117.153L533.376 119.903C533.496 120.057 533.556 120.24 533.556 120.453V125.963H499.966C500.666 132.203 503.846 135.877 509.506 136.983C510.426 137.07 511.329 137.113 512.216 137.113C516.836 137.113 520.769 135.6 524.016 132.573C524.409 133.247 524.899 133.797 525.486 134.223L525.666 134.773L526.216 135.323C526.642 135.723 527.009 136.1 527.316 136.453C527.622 136.807 527.869 137.167 528.056 137.533C528.269 137.653 528.389 137.773 528.416 137.893L530.986 140.833C525.172 145.7 518.976 148.133 512.396 148.133C511.269 148.133 510.122 148.057 508.956 147.903C507.796 147.75 506.632 147.537 505.466 147.263C494.879 143.743 489.066 136.153 488.026 124.493C488.026 124.34 488.019 124.033 488.006 123.573C487.992 123.12 487.986 122.83 487.986 122.703C487.986 106.763 495.159 97.6902 509.506 95.4835C523.766 95.9768 531.662 103.2 533.196 117.153ZM499.776 117.333H521.996V116.783C521.869 116.417 521.806 116.05 521.806 115.683V115.313C521.499 114.64 521.316 114.03 521.256 113.483C518.996 108.25 515.262 105.617 510.056 105.583C503.509 107.143 500.082 111.06 499.776 117.333Z" fill="white"/>
<path d="M586.41 105.396V105.946C586.81 106.68 587.056 107.413 587.15 108.146V146.516H575.95V114.026L575.76 112.926C574.233 108.3 571.663 105.986 568.05 105.986C566.95 105.986 565.726 106.216 564.38 106.676C561.32 107.996 559.116 110.08 557.77 112.926L557.04 116.046V146.516H546.02V96.3963H557.04V100.616C560.466 97.5563 564.2 95.723 568.24 95.1163H569.06C577.26 95.1163 583.043 98.543 586.41 105.396Z" fill="white"/>
<path d="M625.551 76.9433V76.5733H638.221L638.401 77.8633L638.591 78.4133L638.951 79.7033L639.321 81.9033L639.871 83.7333L640.241 85.9433L640.791 87.7733L640.971 89.2433C641.184 89.7633 641.308 90.1933 641.341 90.5333L641.521 91.2633L641.891 92.3633V93.1033C642.011 93.1966 642.071 93.2866 642.071 93.3733V94.0233C642.411 94.6966 642.598 95.43 642.631 96.2233L642.991 97.3233L643.361 98.6133L643.731 100.813L644.281 102.643L644.461 103.753L645.561 108.343C645.654 108.77 645.741 109.16 645.821 109.513C645.894 109.86 645.931 110.203 645.931 110.543L646.301 111.273V112.013L646.661 112.933V113.663L647.031 114.393V115.133C647.371 116.053 647.554 116.85 647.581 117.523L647.771 118.253C647.984 118.867 648.151 119.433 648.271 119.953C648.391 120.473 648.468 120.947 648.501 121.373L648.871 122.843L649.241 124.123L649.601 123.023L650.341 119.353L650.701 118.433L650.891 117.333L651.441 114.763L651.811 113.483V112.933L652.541 109.993L652.721 108.893L653.091 108.153L653.271 107.423L653.461 106.503V105.773L653.641 105.213L654.381 102.283L654.741 100.073L654.931 99.3433L655.291 98.6133C655.358 97.6333 655.541 96.7733 655.841 96.0333L656.031 95.1233V94.5733L656.401 93.1033L656.581 92.5533L657.131 90.1633L657.311 89.0633L657.681 87.9633L657.861 87.0433L658.411 84.6533L658.601 83.7333L658.781 83.3733C658.814 83.0333 658.854 82.7033 658.901 82.3833C658.948 82.0633 659.031 81.78 659.151 81.5333L659.331 80.9833V80.4333L659.521 79.7033L659.701 79.1433L660.251 76.5733H673.841V77.1233C674.268 78.1966 674.511 79.24 674.571 80.2533L674.941 81.7133L675.121 82.2733L675.861 85.5733L676.221 87.0433C676.468 87.93 676.591 88.6633 676.591 89.2433C676.804 89.7633 676.928 90.1933 676.961 90.5333L677.321 91.8133L677.511 93.1033L677.691 93.8333L677.881 94.3833C677.968 94.7833 678.044 95.1433 678.111 95.4633C678.171 95.7833 678.214 96.0966 678.241 96.4033C678.488 96.9833 678.658 97.52 678.751 98.0133C678.844 98.5 678.921 98.9433 678.981 99.3433L679.161 100.443L679.531 101.363L679.711 102.463V103.013C680.018 103.747 680.201 104.42 680.261 105.033L680.451 106.133C680.751 106.867 680.934 107.54 681.001 108.153L681.181 109.073L681.731 111.093V111.823C681.851 112.103 681.911 112.41 681.911 112.743C682.251 113.45 682.438 114.063 682.471 114.583L682.651 115.503L682.831 116.603L683.021 117.333C683.328 118.28 683.511 119.137 683.571 119.903C683.691 119.997 683.751 120.09 683.751 120.183V120.823C684.178 121.897 684.424 122.937 684.491 123.943C684.671 123.883 684.791 123.76 684.851 123.573C685.004 122.813 685.158 122.15 685.311 121.583C685.464 121.017 685.618 120.52 685.771 120.093V119.353C686.171 118.253 686.414 117.273 686.501 116.413L686.871 115.133L687.611 112.193L687.791 110.723L688.161 109.443L688.341 108.893V108.343C688.554 107.757 688.724 107.227 688.851 106.753C688.971 106.28 689.044 105.83 689.071 105.403L689.441 104.113L690.911 98.0533L691.461 95.1233L691.831 93.6533C692.164 92.7666 692.348 92.0333 692.381 91.4533L692.561 90.5333L692.931 89.0633C693.204 88.1766 693.388 87.4433 693.481 86.8633L693.661 86.1233L694.221 83.5533L694.581 82.4533V81.9033L695.131 80.4333V79.7033L695.321 79.1433L695.871 76.5733H708.351L707.621 80.2533L707.071 82.4533L706.881 83.0033L706.331 85.5733L705.971 87.0433L705.601 88.3233L704.861 92.0033L704.501 93.2833L703.761 96.7733L703.401 98.0533L703.211 98.6133L702.841 100.623L702.661 100.993L702.481 102.283C702.174 103.29 701.991 104.147 701.931 104.853L701.191 107.053L701.011 108.343L700.821 109.073L700.641 109.623L700.461 110.913L700.271 111.463L699.171 116.053L698.991 117.333L698.621 118.623L697.701 122.293L697.521 123.573L696.421 128.163L695.871 130.733C695.531 131.653 695.348 132.45 695.321 133.123L694.581 135.513V136.243C694.248 137.163 694.064 137.96 694.031 138.633C693.724 139.64 693.541 140.497 693.481 141.203L693.111 142.483L692.931 142.853L692.751 144.143C692.444 145.15 692.261 146.007 692.201 146.713H678.611L678.431 145.243C678.218 144.723 678.094 144.293 678.061 143.953L677.691 142.483L677.511 141.203L677.141 139.913C677.048 139.547 676.971 139.197 676.911 138.863C676.851 138.523 676.804 138.2 676.771 137.893L676.591 137.163L676.411 136.243C676.284 136.09 676.221 135.907 676.221 135.693L676.041 134.773L675.861 134.223C675.768 133.83 675.691 133.47 675.631 133.143C675.564 132.823 675.518 132.51 675.491 132.203C675.278 131.623 675.118 131.09 675.011 130.603C674.904 130.11 674.818 129.667 674.751 129.273L674.571 128.533L674.391 127.613C674.264 127.247 674.178 126.897 674.131 126.563C674.091 126.223 674.054 125.9 674.021 125.593C673.808 124.987 673.641 124.407 673.521 123.853C673.394 123.3 673.318 122.78 673.291 122.293C673.164 122.14 673.101 121.957 673.101 121.743L672.921 121.003L672.741 120.453C672.648 119.813 672.524 119.203 672.371 118.623L672.001 116.963L671.821 115.863L671.451 114.953L671.081 112.743L670.901 112.193V111.643C670.594 110.91 670.411 110.237 670.351 109.623L669.981 107.423L669.611 106.503L669.251 105.033V104.303C668.884 103.29 668.701 102.433 668.701 101.733C668.574 101.58 668.511 101.397 668.511 101.183L668.331 100.623V100.073C668.024 99.3733 667.841 98.64 667.781 97.8733C667.474 96.8933 667.291 95.9766 667.231 95.1233L666.861 95.8533L666.681 96.9533L666.131 99.3433L665.761 101.363L665.571 101.913L664.841 105.033L664.661 105.773L664.291 107.603L664.111 108.343L663.741 110.363L663.561 110.913L662.821 114.393L662.451 115.683L662.271 116.963C661.938 117.883 661.754 118.68 661.721 119.353L661.541 119.723L661.351 120.823L661.171 121.373L660.251 125.963L660.071 126.513L659.331 130.003L659.151 130.733L658.971 131.653L658.781 132.203L658.051 135.693L657.681 137.163L657.311 139.003L657.131 139.363L656.761 141.023L656.581 141.753L656.401 143.033C656.181 143.8 656.058 144.413 656.031 144.873C655.904 145.18 655.821 145.47 655.781 145.743C655.734 146.023 655.694 146.283 655.661 146.523C655.234 146.59 654.844 146.643 654.491 146.683C654.138 146.73 653.794 146.753 653.461 146.753H653.001C652.848 146.753 652.694 146.74 652.541 146.713H641.891V145.973C641.464 144.873 641.221 143.833 641.161 142.853C641.034 142.7 640.971 142.517 640.971 142.303L640.791 141.383C640.118 139.21 639.688 137.373 639.501 135.873L639.321 135.323L638.401 131.843L638.221 130.373L636.751 124.683V123.943C636.444 123.243 636.261 122.51 636.201 121.743L635.831 120.643L635.471 119.353V118.803L634.551 115.133V114.583L634.361 113.843L634.001 113.113L633.811 111.643C633.571 110.91 633.374 110.237 633.221 109.623C633.068 109.01 632.961 108.46 632.901 107.973L632.711 107.423V106.873C632.591 106.72 632.531 106.537 632.531 106.323L632.161 104.853L631.981 104.303C631.854 103.657 631.738 103.073 631.631 102.553C631.524 102.033 631.394 101.577 631.241 101.183L631.061 99.8933C630.848 99.28 630.678 98.7133 630.551 98.1933C630.431 97.6733 630.354 97.2 630.321 96.7733L630.141 95.8533C630.021 95.7 629.961 95.5166 629.961 95.3033L629.041 91.6333L628.671 90.3433L628.491 89.4333L628.311 88.6933L628.121 87.4133C627.874 86.7666 627.751 86.2133 627.751 85.7533V85.5733L627.391 84.6533L627.201 83.9233C627.081 83.0366 626.898 82.3 626.651 81.7133V80.9833C626.531 80.83 626.471 80.6466 626.471 80.4333" fill="white"/>
<path d="M751.925 100.994L752.485 102.094C753.918 103.874 754.835 105.711 755.235 107.604C755.355 108.397 755.445 109.141 755.505 109.834C755.572 110.521 755.605 111.124 755.605 111.644V135.874C756.732 138.114 758.382 139.461 760.555 139.914L760.195 140.464C760.068 140.684 759.945 140.807 759.825 140.834L759.645 141.384L759.275 141.754C758.968 142.427 758.602 142.977 758.175 143.404C757.742 144.537 757.188 145.394 756.515 145.974C756.242 146.587 755.982 147.117 755.735 147.564C755.495 148.004 755.268 148.394 755.055 148.734C751.475 147.814 748.658 146.161 746.605 143.774H746.055C742.108 146.621 738.038 148.044 733.845 148.044C731.578 148.044 729.345 147.661 727.145 146.894C720.565 144.541 716.588 140.257 715.215 134.044V133.814C715.215 121.974 722.145 116.054 736.005 116.054H736.145C736.418 115.927 736.722 115.864 737.055 115.864L737.605 115.684H738.895L739.445 115.504H739.995L744.585 114.954C744.645 114.614 744.675 114.307 744.675 114.034V113.114C744.675 108.001 741.968 105.444 736.555 105.444C732.788 105.444 727.632 106.714 721.085 109.254L720.355 107.604L719.985 106.504L719.615 106.134L719.435 105.774L719.065 104.664C718.732 104.117 718.488 103.567 718.335 103.014C717.688 102.161 717.258 101.304 717.045 100.444L717.595 100.264L717.965 100.074L718.515 99.894L718.885 99.524H719.435C719.555 99.404 719.662 99.344 719.755 99.344H719.805C720.905 98.764 721.882 98.334 722.735 98.054L723.655 97.874C724.328 97.5673 724.942 97.384 725.495 97.324L726.965 96.954C728.032 96.5273 729.072 96.284 730.085 96.224L734.125 95.484C734.732 95.424 735.318 95.3707 735.885 95.324C736.452 95.2773 737.012 95.254 737.565 95.254C743.405 95.254 748.192 97.1673 751.925 100.994ZM740.175 124.314H739.075C738.802 124.374 738.535 124.421 738.275 124.454C738.015 124.481 737.762 124.494 737.515 124.494H737.245L736.505 124.684H735.955C735.802 124.804 735.618 124.864 735.405 124.864H734.855L731.915 125.594H731.365C730.512 126.087 729.778 126.394 729.165 126.514C727.178 128.414 726.185 130.251 726.185 132.024C726.185 133.644 726.995 135.234 728.615 136.794C730.968 138.234 733.262 138.954 735.495 138.954C738.342 138.954 741.065 137.807 743.665 135.514C743.912 134.807 744.158 134.317 744.405 134.044L744.585 133.494L744.405 132.754V124.124H740.735C740.582 124.251 740.395 124.314 740.175 124.314Z" fill="white"/>
<path d="M814.41 105.396V105.946C814.81 106.68 815.056 107.413 815.15 108.146V146.516H803.95V114.026L803.76 112.926C802.233 108.3 799.663 105.986 796.05 105.986C794.95 105.986 793.726 106.216 792.38 106.676C789.32 107.996 787.116 110.08 785.77 112.926L785.04 116.046V146.516H774.02V96.3963H785.04V100.616C788.466 97.5563 792.2 95.723 796.24 95.1163H797.06C805.26 95.1163 811.043 98.543 814.41 105.396Z" fill="white"/>
<path d="M377.86 70.3593H327.36V168.359H377.86V70.3593Z" stroke="white" stroke-width="2" stroke-dasharray="5 5"/>
<path d="M425.36 70.3593H379.86V168.359H425.36V70.3593Z" stroke="white" stroke-width="2" stroke-dasharray="5 5"/>
<path d="M482.859 70.3593H427.359V168.359H482.859V70.3593Z" stroke="white" stroke-width="2" stroke-dasharray="5 5"/>
<path d="M537.36 70.3593H484.86V168.359H537.36V70.3593Z" stroke="white" stroke-width="2" stroke-dasharray="5 5"/>
<path d="M593.36 70.3593H539.36V168.359H593.36V70.3593Z" stroke="white" stroke-width="2" stroke-dasharray="5 5"/>
<path d="M618.36 70.3593H595.36V168.359H618.36V70.3593Z" stroke="white" stroke-width="2" stroke-dasharray="5 5"/>
<path d="M709.86 70.3593H620.36V168.359H709.86V70.3593Z" stroke="white" stroke-width="2" stroke-dasharray="5 5"/>
<path d="M765.359 70.3593H711.859V168.359H765.359V70.3593Z" stroke="white" stroke-width="2" stroke-dasharray="5 5"/>
<path d="M821.359 70.3593H767.359V168.359H821.359V70.3593Z" stroke="white" stroke-width="2" stroke-dasharray="5 5"/>
<path d="M385.083 360.359H422.583V410.359H497.583L385.083 460.359L272.583 410.359H347.583V360.359H385.083Z" fill="white"/>
<path d="M590.871 348.359H647.121V385.859C648.231 420.942 624.861 452.102 590.871 460.859C556.881 452.102 533.511 420.942 534.621 385.859V348.359H590.871Z" fill="#E9B500"/>
<path d="M573.039 366.197L573.223 366.014H574.508H577.629H579.098H580.383H580.934H581.484H585.156H586.625H588.094H588.644H589.195H594.887H596.172H597.273H598.559H599.66H600.578H601.68H602.414H605.719H607.738H608.473H609.207H609.941H610.676H613.797H614.348H616.551V379.232H615.816H612.512H611.227H607.555H606.637H605.535H604.617H603.883H603.332H599.66H598.926H598.375H595.07H592.684H591.949H588.828H588.277H586.074L585.34 379.783L585.156 382.353L584.973 382.904L584.789 384.006L584.605 385.291L584.055 389.33C591.062 385.077 598.038 384.281 604.984 386.943C611.533 389.85 616 394.318 618.387 400.346C622.64 422.744 615.48 435.228 596.906 437.799C581.178 438.747 571.448 432.322 567.715 418.521L571.754 417.236H572.305C572.794 416.93 573.284 416.747 573.773 416.686L574.508 416.502L575.242 416.318L575.609 416.135L577.078 415.768L578.547 415.4C579.648 414.85 580.689 414.544 581.668 414.482C582.066 417.083 583.045 419.225 584.605 420.908C589.195 425.284 594.03 425.957 599.109 422.928C604.372 418.766 606.147 413.503 604.434 407.139C602.536 402.396 599.293 399.642 594.703 398.877C589.195 398.54 585.156 400.56 582.586 404.936L581.668 404.752H580.934C579.557 404.415 578.394 404.232 577.445 404.201L574.875 403.65H574.324C573.743 403.528 573.253 403.467 572.855 403.467L572.488 403.283H571.754L571.203 403.1H570.652L569.367 402.732L567.715 402.549V401.998L567.898 401.264V400.713L568.266 399.428L568.449 397.775L568.633 396.307L568.816 395.572L569.184 392.451C569.306 391.87 569.367 391.38 569.367 390.982L569.551 389.697L569.734 389.33C569.796 388.045 569.979 386.943 570.285 386.025V384.924C570.53 383.945 570.652 383.088 570.652 382.353L570.836 381.986L571.019 380.701V380.15C571.142 379.569 571.203 379.079 571.203 378.682L571.387 377.58L571.57 376.846V376.295C571.754 375.805 571.815 375.316 571.754 374.826L571.937 373.908L572.121 373.357V372.623L572.305 372.072L572.672 368.951C572.794 368.37 572.855 367.88 572.855 367.482L573.039 366.197Z" fill="black"/>
<path d="M565.522 241.025V231.915H618.512V241.025H565.522ZM558.662 259.135V250.245H625.932V259.135H558.662ZM543.242 278.035V268.815H641.122V278.035H543.242ZM557.082 215.935V207.385H596.232V215.935H557.082ZM587.122 213.125V207.385H598.712C601.112 210.458 604.019 213.438 607.432 216.325C610.845 219.218 614.612 221.901 618.732 224.375C622.859 226.848 627.172 229.061 631.672 231.015C636.172 232.961 640.709 234.611 645.282 235.965C644.462 236.565 643.525 237.351 642.472 238.325C641.425 239.298 640.412 240.311 639.432 241.365C638.459 242.411 637.672 243.385 637.072 244.285C631.072 242.111 625.149 239.411 619.302 236.185C613.449 232.958 608.029 229.378 603.042 225.445C598.055 221.505 593.762 217.398 590.162 213.125H587.122ZM584.652 208.515L594.322 212.225C590.649 217.171 586.185 221.745 580.932 225.945C575.685 230.145 570.079 233.858 564.112 237.085C558.152 240.311 552.135 243.125 546.062 245.525C545.535 244.771 544.822 243.871 543.922 242.825C543.022 241.771 542.085 240.738 541.112 239.725C540.139 238.718 539.275 237.915 538.522 237.315C544.675 235.435 550.675 233.071 556.522 230.225C562.375 227.371 567.719 224.108 572.552 220.435C577.392 216.761 581.425 212.788 584.652 208.515ZM586.452 275.225V236.075H597.362V275.225H586.452ZM542.462 195.795V186.015H641.912V195.795H542.462ZM566.422 205.135V177.465H577.002V205.135H566.422ZM606.702 205.695V177.465H617.272V205.695" fill="white"/>
<path d="M728.787 185.227V179.717H748.467V185.227H728.787ZM728.107 203.567V198.167H749.257V203.567H728.107ZM728.107 211.997V206.717H749.257V211.997H728.107ZM711.687 265.327V258.467H768.717V265.327H711.687ZM724.847 194.677V188.717H751.847V194.677H724.847ZM742.507 220.887H734.517V227.297H742.507V220.887ZM727.877 232.477V215.717H749.367V232.477H727.877ZM713.597 253.737V247.327H760.277V242.487H706.617V236.077H770.187V253.737H713.597ZM709.767 234.047V208.517H716.857V234.047H709.767ZM699.537 212.447L698.747 205.587C702.047 205.44 705.74 205.29 709.827 205.137C713.914 204.99 718.244 204.804 722.817 204.577V210.767C718.617 211.14 714.55 211.44 710.617 211.667C706.677 211.887 702.984 212.147 699.537 212.447ZM710.557 247.327H720.457C719.557 250.927 718.584 254.677 717.537 258.577C716.484 262.477 715.507 265.85 714.607 268.697L705.047 267.347C706.094 264.574 707.107 261.367 708.087 257.727C709.06 254.094 709.884 250.627 710.557 247.327ZM765.347 259.587V258.467H775.357C775.357 258.467 775.32 258.97 775.247 259.977C775.174 260.99 775.024 261.837 774.797 262.517C773.744 267.164 772.654 270.817 771.527 273.477C770.407 276.144 769.097 278.077 767.597 279.277C766.324 280.177 764.954 280.794 763.487 281.127C762.027 281.467 760.284 281.674 758.257 281.747C756.53 281.827 754.074 281.847 750.887 281.807C747.7 281.767 744.307 281.674 740.707 281.527C740.634 280.327 740.334 278.977 739.807 277.477C739.28 275.977 738.644 274.627 737.897 273.427C741.424 273.8 744.837 274.024 748.137 274.097C751.437 274.177 753.76 274.217 755.107 274.217C756.307 274.217 757.28 274.177 758.027 274.097C758.78 274.024 759.42 273.8 759.947 273.427C760.994 272.6 761.95 271.117 762.817 268.977C763.677 266.844 764.52 263.714 765.347 259.587ZM718.207 216.497L723.607 215.267C724.207 217.14 724.787 219.2 725.347 221.447C725.914 223.7 726.347 225.65 726.647 227.297L720.797 228.877C720.644 227.15 720.324 225.144 719.837 222.857C719.35 220.57 718.807 218.45 718.207 216.497ZM717.867 201.197L722.707 199.397C723.68 201.277 724.58 203.377 725.407 205.697C726.234 208.024 726.797 210.05 727.097 211.777L721.807 213.797C721.58 212.077 721.094 210.054 720.347 207.727C719.594 205.4 718.767 203.224 717.867 201.197ZM699.867 192.317L703.467 186.917C705.647 188.337 707.784 189.967 709.877 191.807C711.984 193.647 713.56 195.24 714.607 196.587L710.557 202.777C709.43 201.204 707.857 199.44 705.837 197.487C703.81 195.54 701.82 193.817 699.867 192.317ZM710.557 177.127L716.967 180.277C715.467 182.75 713.967 185.264 712.467 187.817C710.967 190.364 709.544 192.5 708.197 194.227L703.247 191.637C704.447 189.69 705.76 187.31 707.187 184.497C708.607 181.684 709.73 179.227 710.557 177.127ZM717.757 186.467L724.057 190.067C721.584 193.44 718.94 197 716.127 200.747C713.314 204.5 710.67 207.65 708.197 210.197L703.467 207.277C705.047 205.404 706.737 203.267 708.537 200.867C710.337 198.467 712.04 195.99 713.647 193.437C715.26 190.89 716.63 188.567 717.757 186.467ZM702.347 214.817L708.987 216.277C708.307 219.204 707.48 222.127 706.507 225.047C705.534 227.974 704.484 230.487 703.357 232.587C702.684 232.14 701.707 231.634 700.427 231.067C699.154 230.507 698.107 230.04 697.287 229.667C698.56 227.567 699.607 225.22 700.427 222.627C701.254 220.04 701.894 217.437 702.347 214.817ZM761.747 234.047V208.517H768.947V234.047H761.747ZM751.397 212.447L750.717 205.587C754.17 205.44 758.054 205.29 762.367 205.137C766.68 204.99 771.274 204.84 776.147 204.687L776.027 210.877C771.607 211.177 767.314 211.457 763.147 211.717C758.987 211.984 755.07 212.227 751.397 212.447ZM770.517 216.497L776.257 214.817C777.23 217.064 778.187 219.537 779.127 222.237C780.06 224.937 780.717 227.264 781.097 229.217L775.137 231.127C774.837 229.174 774.237 226.81 773.337 224.037C772.437 221.264 771.497 218.75 770.517 216.497ZM769.617 200.977L774.907 198.617C776.18 200.564 777.36 202.717 778.447 205.077C779.54 207.444 780.31 209.527 780.757 211.327L775.017 213.917C774.644 212.117 773.95 209.997 772.937 207.557C771.924 205.117 770.817 202.924 769.617 200.977ZM750.947 192.087L754.767 187.027C756.72 188.374 758.67 189.93 760.617 191.697C762.57 193.457 764.07 195.05 765.117 196.477L760.737 202.327C759.757 200.827 758.35 199.1 756.517 197.147C754.677 195.2 752.82 193.514 750.947 192.087ZM761.967 177.237L768.387 180.497C766.807 182.977 765.23 185.47 763.657 187.977C762.084 190.49 760.584 192.647 759.157 194.447L754.207 191.867C755.48 189.914 756.867 187.53 758.367 184.717C759.867 181.904 761.067 179.41 761.967 177.237ZM769.957 186.017L776.257 189.617C773.71 192.99 770.937 196.55 767.937 200.297C764.937 204.05 762.087 207.2 759.387 209.747L754.767 206.827C756.494 204.954 758.294 202.817 760.167 200.417C762.047 198.017 763.847 195.54 765.567 192.987C767.294 190.44 768.757 188.117 769.957 186.017ZM754.207 214.817L760.737 216.387C760.21 219.16 759.46 221.99 758.487 224.877C757.507 227.77 756.457 230.227 755.337 232.247C754.737 231.874 753.837 231.367 752.637 230.727C751.437 230.094 750.387 229.59 749.487 229.217C750.68 227.117 751.654 224.827 752.407 222.347C753.154 219.874 753.754 217.364 754.207 214.817ZM677.707 185.897L683.897 178.927C685.77 179.9 687.737 181.08 689.797 182.467C691.864 183.854 693.797 185.24 695.597 186.627C697.397 188.02 698.86 189.354 699.987 190.627L693.567 198.497C692.52 197.224 691.114 195.837 689.347 194.337C687.587 192.837 685.694 191.357 683.667 189.897C681.647 188.43 679.66 187.097 677.707 185.897ZM675.347 215.937L681.197 208.627C683.144 209.527 685.187 210.634 687.327 211.947C689.467 213.26 691.454 214.57 693.287 215.877C695.127 217.19 696.647 218.447 697.847 219.647L691.657 227.747C690.53 226.547 689.05 225.237 687.217 223.817C685.377 222.39 683.407 220.984 681.307 219.597C679.207 218.21 677.22 216.99 675.347 215.937ZM687.157 280.517L677.597 275.117C679.024 272.117 680.54 268.627 682.147 264.647C683.76 260.674 685.41 256.474 687.097 252.047C688.79 247.627 690.347 243.277 691.767 238.997L700.207 244.397C699.007 248.377 697.657 252.467 696.157 256.667C694.657 260.867 693.157 264.99 691.657 269.037C690.157 273.09 688.657 276.917 687.157 280.517Z" fill="white"/>
<path d="M657.86 170.359H522.36V310.859H657.86V170.359Z" stroke="white" stroke-width="2" stroke-dasharray="5 5"/>
<path d="M795.36 170.359H659.86V310.859H795.36V170.359Z" stroke="white" stroke-width="2" stroke-dasharray="5 5"/>
<path d="M846.859 170.359H797.359V310.859H846.859V170.359Z" stroke="white" stroke-width="2" stroke-dasharray="5 5"/>
<path d="M822.11 323.859H1597.11V336.359H47.1095V323.859H822.11Z" fill="white"/>
<path d="M497.583 360.359V423.57" stroke="#008000" stroke-width="1.66344"/>
<path d="M534.583 348.359V423.57" stroke="#008000" stroke-width="1.66344"/>
<path d="M497.583 410.262H534.583" stroke="#008000" stroke-width="1.66344"/>
<path d="M497.583 410.262L517.545 405.272V415.253L497.583 410.262Z" fill="#008000"/>
<path d="M534.583 410.262L514.622 405.272V415.253L534.583 410.262Z" fill="#008000"/>
<path d="M490.849 438.612L492.603 438.379C492.805 439.373 493.146 440.091 493.627 440.533C494.114 440.968 494.705 441.186 495.401 441.186C496.226 441.186 496.921 440.9 497.486 440.328C498.058 439.756 498.344 439.048 498.344 438.203C498.344 437.397 498.081 436.735 497.555 436.215C497.028 435.688 496.359 435.425 495.547 435.425C495.215 435.425 494.803 435.49 494.309 435.62L494.504 434.08C494.621 434.093 494.715 434.1 494.787 434.1C495.534 434.1 496.206 433.905 496.804 433.515C497.402 433.125 497.701 432.524 497.701 431.712C497.701 431.069 497.483 430.536 497.048 430.113C496.612 429.691 496.05 429.48 495.362 429.48C494.679 429.48 494.111 429.694 493.656 430.123C493.201 430.552 492.909 431.195 492.779 432.053L491.024 431.741C491.239 430.565 491.726 429.655 492.486 429.012C493.247 428.362 494.192 428.037 495.323 428.037C496.102 428.037 496.82 428.206 497.477 428.544C498.133 428.876 498.633 429.33 498.978 429.909C499.329 430.487 499.504 431.101 499.504 431.751C499.504 432.368 499.338 432.93 499.007 433.437C498.676 433.944 498.185 434.347 497.535 434.646C498.38 434.841 499.036 435.247 499.504 435.864C499.972 436.475 500.206 437.241 500.206 438.164C500.206 439.412 499.751 440.471 498.841 441.342C497.932 442.206 496.781 442.638 495.391 442.638C494.137 442.638 493.094 442.264 492.262 441.517C491.437 440.77 490.966 439.802 490.849 438.612ZM502.935 442.384V440.386H504.933V442.384H502.935ZM507.506 435.338C507.506 433.648 507.678 432.29 508.023 431.263C508.373 430.23 508.89 429.434 509.572 428.876C510.261 428.317 511.125 428.037 512.165 428.037C512.932 428.037 513.604 428.193 514.183 428.505C514.761 428.811 515.238 429.256 515.615 429.84C515.992 430.419 516.288 431.127 516.502 431.965C516.717 432.797 516.824 433.921 516.824 435.338C516.824 437.014 516.652 438.369 516.307 439.402C515.963 440.429 515.446 441.225 514.758 441.79C514.075 442.349 513.211 442.628 512.165 442.628C510.787 442.628 509.706 442.134 508.919 441.147C507.977 439.958 507.506 438.021 507.506 435.338ZM509.309 435.338C509.309 437.683 509.582 439.246 510.128 440.026C510.68 440.799 511.359 441.186 512.165 441.186C512.971 441.186 513.646 440.796 514.192 440.016C514.745 439.236 515.021 437.677 515.021 435.338C515.021 432.985 514.745 431.423 514.192 430.649C513.646 429.876 512.964 429.49 512.145 429.49C511.34 429.49 510.696 429.831 510.216 430.513C509.611 431.384 509.309 432.992 509.309 435.338ZM518.403 439.295L520.138 439.022C520.235 439.717 520.505 440.25 520.947 440.62C521.395 440.991 522.019 441.176 522.818 441.176C523.624 441.176 524.222 441.013 524.612 440.689C525.001 440.357 525.196 439.971 525.196 439.529C525.196 439.132 525.024 438.82 524.68 438.593C524.439 438.437 523.842 438.239 522.886 437.998C521.6 437.674 520.706 437.394 520.206 437.16C519.712 436.92 519.335 436.592 519.075 436.176C518.822 435.753 518.695 435.289 518.695 434.782C518.695 434.321 518.799 433.895 519.007 433.505C519.222 433.109 519.511 432.781 519.875 432.521C520.148 432.319 520.518 432.15 520.986 432.014C521.46 431.871 521.967 431.8 522.506 431.8C523.318 431.8 524.03 431.916 524.641 432.15C525.258 432.384 525.713 432.703 526.005 433.106C526.298 433.502 526.499 434.035 526.61 434.704L524.894 434.938C524.816 434.405 524.589 433.989 524.212 433.69C523.842 433.391 523.315 433.242 522.633 433.242C521.827 433.242 521.252 433.375 520.908 433.642C520.563 433.908 520.391 434.22 520.391 434.577C520.391 434.805 520.463 435.009 520.606 435.191C520.749 435.38 520.973 435.536 521.278 435.659C521.454 435.724 521.97 435.874 522.828 436.108C524.069 436.439 524.933 436.712 525.421 436.926C525.914 437.134 526.301 437.44 526.58 437.842C526.86 438.245 526.999 438.746 526.999 439.343C526.999 439.928 526.827 440.481 526.483 441C526.145 441.514 525.654 441.913 525.011 442.199C524.368 442.479 523.64 442.618 522.828 442.618C521.483 442.618 520.456 442.339 519.748 441.78C519.046 441.221 518.598 440.393 518.403 439.295ZM530.996 442.384L527.828 432.033H529.641L531.288 438.008L531.902 440.23C531.928 440.12 532.107 439.408 532.438 438.096L534.085 432.033H535.888L537.438 438.037L537.955 440.016L538.549 438.018L540.323 432.033H542.029L538.793 442.384H536.97L535.323 436.186L534.924 434.421L532.828 442.384H530.996Z" fill="#008000"/>
<path d="M497.583 360.359H560.794" stroke="#FF0000" stroke-width="1.66344"/>
<path d="M534.583 348.359H560.794" stroke="#FF0000" stroke-width="1.66344"/>
<path d="M547.486 360.359V348.359" stroke="#FF0000" stroke-width="1.66344"/>
<path d="M547.486 360.359L542.496 380.32H552.477L547.486 360.359Z" fill="#FF0000"/>
<path d="M547.486 348.359L542.496 328.398H552.477L547.486 348.359Z" fill="#FF0000"/>
<path d="M568.627 353.914V352.15H574.017V353.914H568.627ZM582.078 358.203H580.323V347.023C579.901 347.426 579.345 347.829 578.656 348.232C577.974 348.635 577.36 348.937 576.814 349.138V347.442C577.795 346.981 578.653 346.422 579.387 345.766C580.122 345.11 580.641 344.473 580.947 343.856H582.078V358.203ZM587.565 358.203V356.205H589.563V358.203H587.565ZM592.136 351.156C592.136 349.467 592.308 348.108 592.653 347.082C593.004 346.049 593.52 345.253 594.202 344.694C594.891 344.135 595.755 343.856 596.795 343.856C597.562 343.856 598.234 344.012 598.813 344.323C599.391 344.629 599.869 345.074 600.245 345.659C600.622 346.237 600.918 346.945 601.132 347.784C601.347 348.615 601.454 349.739 601.454 351.156C601.454 352.832 601.282 354.187 600.937 355.22C600.593 356.247 600.076 357.043 599.388 357.608C598.705 358.167 597.841 358.446 596.795 358.446C595.418 358.446 594.336 357.953 593.549 356.965C592.607 355.776 592.136 353.84 592.136 351.156ZM593.939 351.156C593.939 353.502 594.212 355.064 594.758 355.844C595.31 356.617 595.989 357.004 596.795 357.004C597.601 357.004 598.277 356.614 598.822 355.834C599.375 355.055 599.651 353.495 599.651 351.156C599.651 348.804 599.375 347.241 598.822 346.468C598.277 345.695 597.594 345.308 596.776 345.308C595.97 345.308 595.327 345.649 594.846 346.331C594.241 347.202 593.939 348.81 593.939 351.156ZM603.033 355.113L604.768 354.84C604.865 355.535 605.135 356.068 605.577 356.439C606.025 356.809 606.649 356.994 607.448 356.994C608.254 356.994 608.852 356.832 609.242 356.507C609.631 356.176 609.826 355.789 609.826 355.347C609.826 354.951 609.654 354.639 609.31 354.411C609.069 354.255 608.472 354.057 607.516 353.817C606.23 353.492 605.336 353.213 604.836 352.979C604.342 352.738 603.965 352.41 603.705 351.994C603.452 351.572 603.325 351.107 603.325 350.6C603.325 350.139 603.429 349.713 603.637 349.324C603.852 348.927 604.141 348.599 604.505 348.339C604.778 348.138 605.148 347.969 605.616 347.832C606.09 347.689 606.597 347.618 607.136 347.618C607.949 347.618 608.66 347.735 609.271 347.969C609.888 348.203 610.343 348.521 610.635 348.924C610.928 349.32 611.129 349.853 611.24 350.522L609.524 350.756C609.446 350.224 609.219 349.808 608.842 349.509C608.472 349.21 607.945 349.06 607.263 349.06C606.457 349.06 605.882 349.194 605.538 349.46C605.193 349.726 605.021 350.038 605.021 350.396C605.021 350.623 605.093 350.828 605.236 351.01C605.379 351.198 605.603 351.354 605.908 351.478C606.084 351.543 606.6 351.692 607.458 351.926C608.699 352.257 609.563 352.53 610.051 352.745C610.544 352.953 610.931 353.258 611.21 353.661C611.49 354.064 611.63 354.564 611.63 355.162C611.63 355.747 611.457 356.299 611.113 356.819C610.775 357.332 610.285 357.732 609.641 358.018C608.998 358.297 608.27 358.437 607.458 358.437C606.113 358.437 605.086 358.157 604.378 357.599C603.676 357.04 603.228 356.211 603.033 355.113ZM615.626 358.203L612.458 347.852H614.271L615.918 353.827L616.532 356.049C616.558 355.938 616.737 355.227 617.068 353.914L618.715 347.852H620.519L622.068 353.856L622.585 355.834L623.179 353.836L624.953 347.852H626.659L623.423 358.203H621.6L619.953 352.004L619.554 350.24L617.458 358.203H615.626Z" fill="#FF0000"/>
<path d="M648.609 351.961H711.82" stroke="#FF0000" stroke-width="1.66344"/>
<path d="M685.61 339.961H711.82" stroke="#FF0000" stroke-width="1.66344"/>
<path d="M698.513 351.961V339.961" stroke="#FF0000" stroke-width="1.66344"/>
<path d="M698.513 351.961L693.522 371.922H703.503L698.513 351.961Z" fill="#FF0000"/>
<path d="M698.513 339.961L693.522 320H703.503L698.513 339.961Z" fill="#FF0000"/>
<path d="M719.653 345.516V343.752H725.043V345.516H719.653ZM733.104 349.805H731.349V338.625C730.927 339.028 730.372 339.431 729.683 339.834C729.001 340.237 728.386 340.539 727.841 340.74V339.044C728.822 338.583 729.68 338.024 730.414 337.368C731.148 336.712 731.668 336.075 731.973 335.458H733.104V349.805ZM738.591 349.805V347.807H740.589V349.805H738.591ZM743.162 342.758C743.162 341.069 743.335 339.71 743.679 338.684C744.03 337.651 744.547 336.855 745.229 336.296C745.918 335.737 746.782 335.458 747.821 335.458C748.588 335.458 749.261 335.614 749.839 335.925C750.417 336.231 750.895 336.676 751.272 337.261C751.649 337.839 751.944 338.547 752.159 339.386C752.373 340.217 752.48 341.341 752.48 342.758C752.48 344.434 752.308 345.789 751.964 346.822C751.619 347.849 751.103 348.645 750.414 349.21C749.732 349.769 748.868 350.048 747.821 350.048C746.444 350.048 745.362 349.555 744.576 348.567C743.634 347.378 743.162 345.442 743.162 342.758ZM744.966 342.758C744.966 345.104 745.239 346.666 745.784 347.446C746.337 348.219 747.016 348.606 747.821 348.606C748.627 348.606 749.303 348.216 749.849 347.436C750.401 346.657 750.677 345.097 750.677 342.758C750.677 340.406 750.401 338.843 749.849 338.07C749.303 337.297 748.621 336.91 747.802 336.91C746.996 336.91 746.353 337.251 745.872 337.933C745.268 338.804 744.966 340.412 744.966 342.758ZM754.059 346.715L755.794 346.442C755.892 347.137 756.161 347.67 756.603 348.041C757.052 348.411 757.675 348.596 758.475 348.596C759.28 348.596 759.878 348.434 760.268 348.109C760.658 347.777 760.853 347.391 760.853 346.949C760.853 346.553 760.681 346.241 760.336 346.013C760.096 345.857 759.498 345.659 758.543 345.419C757.256 345.094 756.363 344.814 755.862 344.581C755.369 344.34 754.992 344.012 754.732 343.596C754.478 343.174 754.352 342.709 754.352 342.202C754.352 341.741 754.456 341.315 754.664 340.926C754.878 340.529 755.167 340.201 755.531 339.941C755.804 339.74 756.174 339.571 756.642 339.434C757.117 339.291 757.623 339.22 758.163 339.22C758.975 339.22 759.686 339.337 760.297 339.571C760.915 339.805 761.369 340.123 761.662 340.526C761.954 340.922 762.156 341.455 762.266 342.124L760.551 342.358C760.473 341.825 760.245 341.41 759.868 341.111C759.498 340.812 758.972 340.662 758.289 340.662C757.484 340.662 756.909 340.796 756.564 341.062C756.22 341.328 756.048 341.64 756.048 341.998C756.048 342.225 756.119 342.43 756.262 342.612C756.405 342.8 756.629 342.956 756.935 343.08C757.11 343.145 757.627 343.294 758.484 343.528C759.725 343.859 760.59 344.132 761.077 344.347C761.571 344.555 761.957 344.86 762.237 345.263C762.516 345.666 762.656 346.166 762.656 346.764C762.656 347.349 762.484 347.901 762.139 348.421C761.801 348.934 761.311 349.334 760.668 349.62C760.024 349.899 759.297 350.039 758.484 350.039C757.139 350.039 756.113 349.759 755.404 349.201C754.703 348.642 754.254 347.813 754.059 346.715ZM766.652 349.805L763.484 339.454H765.297L766.944 345.429L767.559 347.651C767.585 347.54 767.763 346.829 768.095 345.516L769.742 339.454H771.545L773.095 345.458L773.611 347.436L774.206 345.438L775.98 339.454H777.685L774.449 349.805H772.627L770.98 343.606L770.58 341.842L768.484 349.805H766.652Z" fill="#FF0000"/>
<path d="M385.11 27.3592V491.359" stroke="#008000" stroke-width="4" stroke-dasharray="16 8 4 8"/>
<path d="M363.991 511.359H357.403V508.065C356.527 507.897 355.849 507.489 355.369 506.841C354.901 506.193 354.667 505.323 354.667 504.231C354.667 503.511 354.775 502.887 354.991 502.359C355.219 501.831 355.537 501.411 355.945 501.099C356.353 500.775 356.839 500.559 357.403 500.451V498.507H358.591V500.379C358.975 500.391 359.335 500.433 359.671 500.505C360.019 500.577 360.331 500.679 360.607 500.811L360.301 501.729C360.037 501.597 359.761 501.501 359.473 501.441C359.197 501.369 358.903 501.327 358.591 501.315V507.183C358.867 507.171 359.167 507.135 359.491 507.075C359.815 507.003 360.127 506.907 360.427 506.787V507.723C360.235 507.807 360.031 507.879 359.815 507.939C359.611 507.999 359.401 508.047 359.185 508.083C358.981 508.107 358.783 508.125 358.591 508.137V510.279H363.991V511.359ZM355.783 504.195C355.783 504.963 355.915 505.593 356.179 506.085C356.443 506.577 356.851 506.907 357.403 507.075V501.405C356.851 501.561 356.443 501.879 356.179 502.359C355.915 502.839 355.783 503.451 355.783 504.195ZM373.752 511.359V499.995H369.507V498.475H379.72V499.995H375.457V511.359H373.752ZM380.59 511.359V502.025H382.014V503.44C382.377 502.778 382.711 502.342 383.016 502.131C383.326 501.92 383.666 501.814 384.035 501.814C384.569 501.814 385.111 501.984 385.661 502.324L385.116 503.792C384.73 503.563 384.343 503.449 383.956 503.449C383.611 503.449 383.3 503.555 383.025 503.766C382.749 503.971 382.553 504.258 382.436 504.627C382.26 505.189 382.172 505.805 382.172 506.473V511.359H380.59ZM392.693 510.208C392.107 510.706 391.541 511.058 390.996 511.263C390.457 511.468 389.877 511.57 389.256 511.57C388.231 511.57 387.443 511.321 386.892 510.823C386.341 510.319 386.066 509.678 386.066 508.898C386.066 508.441 386.168 508.025 386.373 507.65C386.584 507.269 386.857 506.965 387.191 506.736C387.53 506.508 387.911 506.335 388.333 506.218C388.644 506.136 389.112 506.057 389.739 505.98C391.017 505.828 391.957 505.646 392.561 505.435C392.567 505.219 392.569 505.081 392.569 505.022C392.569 504.378 392.42 503.924 392.121 503.66C391.717 503.303 391.116 503.124 390.319 503.124C389.575 503.124 389.025 503.256 388.667 503.519C388.316 503.777 388.055 504.237 387.885 504.899L386.338 504.688C386.479 504.026 386.71 503.493 387.032 503.089C387.355 502.679 387.82 502.365 388.43 502.148C389.039 501.926 389.745 501.814 390.548 501.814C391.345 501.814 391.992 501.908 392.49 502.096C392.988 502.283 393.355 502.52 393.589 502.808C393.823 503.089 393.987 503.446 394.081 503.88C394.134 504.149 394.16 504.636 394.16 505.339V507.448C394.16 508.919 394.193 509.85 394.257 510.243C394.327 510.63 394.462 511.002 394.661 511.359H393.009C392.845 511.031 392.739 510.647 392.693 510.208ZM392.561 506.675C391.986 506.909 391.125 507.108 389.977 507.272C389.326 507.366 388.866 507.472 388.597 507.589C388.327 507.706 388.119 507.879 387.973 508.107C387.826 508.33 387.753 508.579 387.753 508.854C387.753 509.276 387.911 509.628 388.228 509.909C388.55 510.19 389.019 510.331 389.634 510.331C390.243 510.331 390.785 510.199 391.26 509.935C391.735 509.666 392.083 509.3 392.306 508.837C392.476 508.479 392.561 507.952 392.561 507.255V506.675ZM396.999 511.359V503.256H395.602V502.025H396.999V501.032C396.999 500.405 397.055 499.939 397.166 499.635C397.319 499.225 397.585 498.893 397.966 498.642C398.353 498.384 398.892 498.255 399.583 498.255C400.028 498.255 400.521 498.308 401.06 498.413L400.822 499.793C400.494 499.734 400.184 499.705 399.891 499.705C399.41 499.705 399.07 499.808 398.871 500.013C398.672 500.218 398.572 500.601 398.572 501.164V502.025H400.392V503.256H398.572V511.359H396.999ZM401.675 511.359V503.256H400.277V502.025H401.675V501.032C401.675 500.405 401.731 499.939 401.842 499.635C401.994 499.225 402.261 498.893 402.642 498.642C403.028 498.384 403.568 498.255 404.259 498.255C404.704 498.255 405.196 498.308 405.736 498.413L405.498 499.793C405.17 499.734 404.86 499.705 404.567 499.705C404.086 499.705 403.746 499.808 403.547 500.013C403.348 500.218 403.248 500.601 403.248 501.164V502.025H405.068V503.256H403.248V511.359H401.675ZM406.316 500.294V498.475H407.898V500.294H406.316ZM406.316 511.359V502.025H407.898V511.359H406.316ZM416.405 507.94L417.961 508.142C417.791 509.215 417.355 510.056 416.652 510.665C415.954 511.268 415.096 511.57 414.076 511.57C412.799 511.57 411.771 511.154 410.991 510.322C410.218 509.484 409.831 508.286 409.831 506.727C409.831 505.72 409.998 504.838 410.332 504.082C410.666 503.326 411.173 502.761 411.853 502.386C412.538 502.005 413.282 501.814 414.085 501.814C415.099 501.814 415.928 502.072 416.572 502.588C417.217 503.098 417.63 503.824 417.812 504.767L416.274 505.005C416.127 504.378 415.866 503.906 415.491 503.59C415.122 503.273 414.674 503.115 414.147 503.115C413.35 503.115 412.702 503.402 412.204 503.976C411.706 504.545 411.457 505.447 411.457 506.684C411.457 507.937 411.697 508.849 412.178 509.417C412.658 509.985 413.285 510.269 414.059 510.269C414.68 510.269 415.198 510.079 415.614 509.698C416.03 509.317 416.294 508.731 416.405 507.94ZM369.894 532.359V519.475H371.599V530.839H377.944V532.359H369.894ZM385.872 531.208C385.286 531.706 384.721 532.058 384.176 532.263C383.637 532.468 383.057 532.57 382.436 532.57C381.41 532.57 380.622 532.321 380.071 531.823C379.521 531.319 379.245 530.678 379.245 529.898C379.245 529.441 379.348 529.025 379.553 528.65C379.764 528.269 380.036 527.965 380.37 527.736C380.71 527.508 381.091 527.335 381.513 527.218C381.823 527.136 382.292 527.057 382.919 526.98C384.196 526.828 385.137 526.646 385.74 526.435C385.746 526.219 385.749 526.081 385.749 526.022C385.749 525.378 385.6 524.924 385.301 524.66C384.897 524.303 384.296 524.124 383.499 524.124C382.755 524.124 382.204 524.256 381.847 524.519C381.495 524.777 381.235 525.237 381.065 525.899L379.518 525.688C379.658 525.026 379.89 524.493 380.212 524.089C380.534 523.679 381 523.365 381.61 523.148C382.219 522.926 382.925 522.814 383.728 522.814C384.525 522.814 385.172 522.908 385.67 523.096C386.168 523.283 386.534 523.52 386.769 523.808C387.003 524.089 387.167 524.446 387.261 524.88C387.314 525.149 387.34 525.636 387.34 526.339V528.448C387.34 529.919 387.372 530.85 387.437 531.243C387.507 531.63 387.642 532.002 387.841 532.359H386.189C386.025 532.031 385.919 531.647 385.872 531.208ZM385.74 527.675C385.166 527.909 384.305 528.108 383.156 528.272C382.506 528.366 382.046 528.472 381.777 528.589C381.507 528.706 381.299 528.879 381.152 529.107C381.006 529.33 380.933 529.579 380.933 529.854C380.933 530.276 381.091 530.628 381.407 530.909C381.73 531.19 382.198 531.331 382.814 531.331C383.423 531.331 383.965 531.199 384.44 530.935C384.914 530.666 385.263 530.3 385.486 529.837C385.655 529.479 385.74 528.952 385.74 528.255V527.675ZM389.801 532.359V523.025H391.225V524.352C391.91 523.327 392.901 522.814 394.195 522.814C394.758 522.814 395.274 522.917 395.742 523.122C396.217 523.321 396.571 523.585 396.806 523.913C397.04 524.241 397.204 524.631 397.298 525.082C397.357 525.375 397.386 525.888 397.386 526.62V532.359H395.804V526.682C395.804 526.037 395.742 525.557 395.619 525.24C395.496 524.918 395.277 524.663 394.96 524.475C394.65 524.282 394.283 524.185 393.861 524.185C393.188 524.185 392.605 524.399 392.112 524.827C391.626 525.255 391.383 526.066 391.383 527.262V532.359H389.801ZM406.21 529.353L407.845 529.556C407.587 530.511 407.11 531.252 406.412 531.779C405.715 532.307 404.824 532.57 403.74 532.57C402.375 532.57 401.291 532.151 400.488 531.313C399.692 530.47 399.293 529.289 399.293 527.771C399.293 526.201 399.697 524.982 400.506 524.115C401.315 523.248 402.363 522.814 403.652 522.814C404.901 522.814 405.92 523.239 406.711 524.089C407.502 524.938 407.898 526.134 407.898 527.675C407.898 527.768 407.895 527.909 407.889 528.097H400.928C400.986 529.122 401.277 529.907 401.798 530.452C402.319 530.997 402.97 531.269 403.749 531.269C404.329 531.269 404.824 531.117 405.235 530.812C405.645 530.508 405.97 530.021 406.21 529.353ZM401.016 526.796H406.228C406.157 526.011 405.958 525.422 405.63 525.029C405.126 524.42 404.473 524.115 403.67 524.115C402.944 524.115 402.331 524.358 401.833 524.845C401.341 525.331 401.069 525.981 401.016 526.796Z" fill="#008000"/>
</g>
<defs>
<clipPath id="clip0_0_1">
<rect width="800" height="550" fill="white"/>
</clipPath>
</defs>
</svg>
