<svg width="1065" height="566" viewBox="0 0 1065 566" fill="none" xmlns="http://www.w3.org/2000/svg">
<path d="M20 57.5C20 36.7893 36.7893 20 57.5 20H1007.5C1028.21 20 1045 36.7893 1045 57.5V432.5C1045 453.211 1028.21 470 1007.5 470H57.5C36.7893 470 20 453.211 20 432.5V57.5Z" fill="white"/>
<path d="M38.75 57.5C38.75 47.1446 47.1446 38.75 57.5 38.75H1007.5C1017.86 38.75 1026.25 47.1446 1026.25 57.5V432.5C1026.25 442.855 1017.86 451.25 1007.5 451.25H57.5C47.1446 451.25 38.75 442.855 38.75 432.5V57.5Z" fill="#0033A2"/>
<path d="M738.288 316H794.538V353.5C795.648 388.583 772.278 419.743 738.288 428.5C704.298 419.743 680.928 388.583 682.038 353.5V316H738.288Z" fill="#E9B500"/>
<path d="M720.456 333.838L720.639 333.654H721.925H725.046H726.514H727.8H728.35H728.901H732.573H734.042H735.51H736.061H736.612H742.303H743.589H744.69H745.975H747.077H747.995H749.096H749.831H753.135H755.155H755.889H756.624H757.358H758.093H761.214H761.764H763.968V346.873H763.233H759.928H758.643H754.971H754.053H752.952H752.034H751.3H750.749H747.077H746.343H745.792H742.487H740.1H739.366H736.245H735.694H733.491L732.757 347.424L732.573 349.994L732.389 350.545L732.206 351.647L732.022 352.932L731.471 356.971C738.479 352.717 745.455 351.922 752.401 354.584C758.949 357.491 763.417 361.958 765.803 367.986C770.057 390.385 762.897 402.869 744.323 405.439C728.595 406.388 718.865 399.962 715.132 386.162L719.171 384.877H719.721C720.211 384.571 720.701 384.387 721.19 384.326L721.925 384.143L722.659 383.959L723.026 383.775L724.495 383.408L725.964 383.041C727.065 382.49 728.106 382.184 729.085 382.123C729.482 384.724 730.462 386.866 732.022 388.549C736.612 392.924 741.447 393.598 746.526 390.568C751.789 386.407 753.564 381.144 751.85 374.779C749.953 370.036 746.71 367.283 742.12 366.518C736.612 366.181 732.573 368.201 730.003 372.576L729.085 372.393H728.35C726.973 372.056 725.811 371.872 724.862 371.842L722.292 371.291H721.741C721.16 371.169 720.67 371.107 720.272 371.107L719.905 370.924H719.171L718.62 370.74H718.069L716.784 370.373L715.132 370.189V369.639L715.315 368.904V368.354L715.682 367.068L715.866 365.416L716.05 363.947L716.233 363.213L716.6 360.092C716.723 359.51 716.784 359.021 716.784 358.623L716.968 357.338L717.151 356.971C717.212 355.686 717.396 354.584 717.702 353.666V352.564C717.947 351.585 718.069 350.729 718.069 349.994L718.253 349.627L718.436 348.342V347.791C718.559 347.21 718.62 346.72 718.62 346.322L718.803 345.221L718.987 344.486V343.936C719.171 343.446 719.232 342.956 719.171 342.467L719.354 341.549L719.538 340.998V340.264L719.721 339.713L720.089 336.592C720.211 336.01 720.272 335.521 720.272 335.123L720.456 333.838Z" fill="black"/>
<path d="M286.02 92.0504V81.0304H336.69V92.0504H317.41V151.35H305.3V92.0504" fill="white"/>
<path d="M379.409 107.277L378.859 108.017L378.309 108.567L377.759 108.937L377.019 110.037L376.659 110.407L376.289 110.587C375.889 111.14 375.522 111.567 375.189 111.867L372.799 114.627C367.719 111.354 363.512 109.717 360.179 109.717C356.752 109.717 354.229 111.414 352.609 114.807C352.669 116.8 353.462 118.27 354.989 119.217C355.662 119.397 356.152 119.58 356.459 119.767C357.652 119.947 358.632 120.19 359.399 120.497C370.992 121.357 377.479 126.01 378.859 134.457C378.919 134.824 378.949 135.18 378.949 135.527C378.949 135.88 378.949 136.227 378.949 136.567C378.949 142.714 376.349 147.334 371.149 150.427C367.415 152.107 363.665 152.947 359.899 152.947C352.739 152.947 345.595 149.904 338.469 143.817L338.839 143.087L339.749 142.167C340.362 141.434 340.915 140.88 341.409 140.507C341.529 140.294 341.649 140.174 341.769 140.147L342.139 139.597C342.259 139.384 342.382 139.26 342.509 139.227L342.689 138.857L343.059 138.677L345.449 135.917C349.975 140.204 354.715 142.347 359.669 142.347C361.749 142.347 363.862 141.98 366.009 141.247C366.555 140.514 367.105 139.964 367.659 139.597C367.845 138.864 367.939 138.174 367.939 137.527C367.939 135.934 367.419 134.604 366.379 133.537L362.149 132.067C349.542 131.3 342.689 125.914 341.589 115.907C342.415 105.84 348.105 100.457 358.659 99.757H359.309C367.415 99.757 374.115 102.264 379.409 107.277Z" fill="white"/>
<path d="M391.787 137.026V101.226H402.807V132.986C402.927 133.139 402.987 133.322 402.987 133.536C403.114 133.629 403.177 133.719 403.177 133.806V133.906C403.39 135.279 403.694 136.502 404.087 137.576C406.2 140.509 408.91 141.976 412.217 141.976H412.357C416.457 140.876 419.33 138.612 420.977 135.186V134.636L421.717 132.436V101.226H432.917V151.346H421.717V147.306C417.31 150.912 412.92 152.716 408.547 152.716C405.147 152.716 401.704 151.646 398.217 149.506C395.37 147.332 393.41 144.762 392.337 141.796L392.157 140.506C391.884 139.619 391.747 138.749 391.747 137.896V137.486C391.747 137.332 391.76 137.179 391.787 137.026Z" fill="white"/>
<path d="M491.336 121.794L491.516 124.544C491.636 124.698 491.696 124.881 491.696 125.094V130.604H458.106C458.806 136.844 461.986 140.518 467.646 141.624C468.566 141.711 469.469 141.754 470.356 141.754C474.976 141.754 478.909 140.241 482.156 137.214C482.549 137.888 483.039 138.438 483.626 138.864L483.806 139.414L484.356 139.964C484.783 140.364 485.149 140.741 485.456 141.094C485.763 141.448 486.009 141.808 486.196 142.174C486.409 142.294 486.529 142.414 486.556 142.534L489.126 145.474C483.313 150.341 477.116 152.774 470.536 152.774C469.409 152.774 468.263 152.698 467.096 152.544C465.936 152.391 464.773 152.178 463.606 151.904C453.019 148.384 447.206 140.794 446.166 129.134C446.166 128.981 446.159 128.674 446.146 128.214C446.133 127.761 446.126 127.471 446.126 127.344C446.126 111.404 453.299 102.331 467.646 100.124C481.906 100.618 489.803 107.841 491.336 121.794ZM457.916 121.974H480.136V121.424C480.009 121.058 479.946 120.691 479.946 120.324V119.954C479.639 119.281 479.456 118.671 479.396 118.124C477.136 112.891 473.403 110.258 468.196 110.224C461.649 111.784 458.223 115.701 457.916 121.974Z" fill="white"/>
<path d="M544.55 110.037V110.587C544.95 111.32 545.197 112.054 545.29 112.787V151.157H534.09V118.667L533.9 117.567C532.374 112.94 529.804 110.627 526.19 110.627C525.09 110.627 523.867 110.857 522.52 111.317C519.46 112.637 517.257 114.72 515.91 117.567L515.18 120.687V151.157H504.16V101.037H515.18V105.257C518.607 102.197 522.34 100.364 526.38 99.757H527.2C535.4 99.757 541.184 103.184 544.55 110.037Z" fill="white"/>
<path d="M583.691 81.584V81.214H596.361L596.541 82.504L596.731 83.054L597.091 84.344L597.461 86.544L598.011 88.374L598.381 90.584L598.931 92.414L599.111 93.884C599.325 94.404 599.448 94.834 599.481 95.174L599.661 95.904L600.031 97.004V97.744C600.151 97.8373 600.211 97.9273 600.211 98.014V98.664C600.551 99.3373 600.738 100.071 600.771 100.864L601.131 101.964L601.501 103.254L601.871 105.454L602.421 107.284L602.601 108.394L603.701 112.984C603.795 113.411 603.881 113.801 603.961 114.154C604.035 114.501 604.071 114.844 604.071 115.184L604.441 115.914V116.654L604.801 117.574V118.304L605.171 119.034V119.774C605.511 120.694 605.695 121.491 605.721 122.164L605.911 122.894C606.125 123.507 606.291 124.074 606.411 124.594C606.531 125.114 606.608 125.587 606.641 126.014L607.011 127.484L607.381 128.764L607.741 127.664L608.481 123.994L608.841 123.074L609.031 121.974L609.581 119.404L609.951 118.124V117.574L610.681 114.634L610.861 113.534L611.231 112.794L611.411 112.064L611.601 111.144V110.414L611.781 109.854L612.521 106.924L612.881 104.714L613.071 103.984L613.431 103.254C613.498 102.274 613.681 101.414 613.981 100.674L614.171 99.764V99.214L614.541 97.744L614.721 97.194L615.271 94.804L615.451 93.704L615.821 92.604L616.001 91.684L616.551 89.294L616.741 88.374L616.921 88.014C616.955 87.674 616.995 87.344 617.041 87.024C617.088 86.704 617.171 86.4207 617.291 86.174L617.471 85.624V85.074L617.661 84.344L617.841 83.784L618.391 81.214H631.981V81.764C632.408 82.8373 632.651 83.8807 632.711 84.894L633.081 86.354L633.261 86.914L634.001 90.214L634.361 91.684C634.608 92.5707 634.731 93.304 634.731 93.884C634.945 94.404 635.068 94.834 635.101 95.174L635.461 96.454L635.651 97.744L635.831 98.474L636.021 99.024C636.108 99.424 636.185 99.784 636.251 100.104C636.311 100.424 636.355 100.737 636.381 101.044C636.628 101.624 636.798 102.161 636.891 102.654C636.985 103.141 637.061 103.584 637.121 103.984L637.301 105.084L637.671 106.004L637.851 107.104V107.654C638.158 108.387 638.341 109.061 638.401 109.674L638.591 110.774C638.891 111.507 639.075 112.181 639.141 112.794L639.321 113.714L639.871 115.734V116.464C639.991 116.744 640.051 117.051 640.051 117.384C640.391 118.091 640.578 118.704 640.611 119.224L640.791 120.144L640.971 121.244L641.161 121.974C641.468 122.921 641.651 123.777 641.711 124.544C641.831 124.637 641.891 124.731 641.891 124.824V125.464C642.318 126.537 642.565 127.577 642.631 128.584C642.811 128.524 642.931 128.401 642.991 128.214C643.145 127.454 643.298 126.791 643.451 126.224C643.605 125.657 643.758 125.161 643.911 124.734V123.994C644.311 122.894 644.555 121.914 644.641 121.054L645.011 119.774L645.751 116.834L645.931 115.364L646.301 114.084L646.481 113.534V112.984C646.695 112.397 646.865 111.867 646.991 111.394C647.111 110.921 647.185 110.471 647.211 110.044L647.581 108.754L649.051 102.694L649.601 99.764L649.971 98.294C650.305 97.4073 650.488 96.674 650.521 96.094L650.701 95.174L651.071 93.704C651.345 92.8173 651.528 92.084 651.621 91.504L651.801 90.764L652.361 88.194L652.721 87.094V86.544L653.271 85.074V84.344L653.461 83.784L654.011 81.214H666.491L665.761 84.894L665.211 87.094L665.021 87.644L664.471 90.214L664.111 91.684L663.741 92.964L663.001 96.644L662.641 97.924L661.901 101.414L661.541 102.694L661.351 103.254L660.981 105.264L660.801 105.634L660.621 106.924C660.315 107.931 660.131 108.787 660.071 109.494L659.331 111.694L659.151 112.984L658.961 113.714L658.781 114.264L658.601 115.554L658.411 116.104L657.311 120.694L657.131 121.974L656.761 123.264L655.841 126.934L655.661 128.214L654.561 132.804L654.011 135.374C653.671 136.294 653.488 137.091 653.461 137.764L652.721 140.154V140.884C652.388 141.804 652.205 142.601 652.171 143.274C651.865 144.281 651.681 145.137 651.621 145.844L651.251 147.124L651.071 147.494L650.891 148.784C650.585 149.791 650.401 150.647 650.341 151.354H636.751L636.571 149.884C636.358 149.364 636.235 148.934 636.201 148.594L635.831 147.124L635.651 145.844L635.281 144.554C635.188 144.187 635.111 143.837 635.051 143.504C634.991 143.164 634.945 142.841 634.911 142.534L634.731 141.804L634.551 140.884C634.425 140.731 634.361 140.547 634.361 140.334L634.181 139.414L634.001 138.864C633.908 138.471 633.831 138.111 633.771 137.784C633.705 137.464 633.658 137.151 633.631 136.844C633.418 136.264 633.258 135.731 633.151 135.244C633.045 134.751 632.958 134.307 632.891 133.914L632.711 133.174L632.531 132.254C632.405 131.887 632.318 131.537 632.271 131.204C632.231 130.864 632.195 130.541 632.161 130.234C631.948 129.627 631.781 129.047 631.661 128.494C631.535 127.941 631.458 127.421 631.431 126.934C631.305 126.781 631.241 126.597 631.241 126.384L631.061 125.644L630.881 125.094C630.788 124.454 630.665 123.844 630.511 123.264L630.141 121.604L629.961 120.504L629.591 119.594L629.221 117.384L629.041 116.834V116.284C628.735 115.551 628.551 114.877 628.491 114.264L628.121 112.064L627.751 111.144L627.391 109.674V108.944C627.025 107.931 626.841 107.074 626.841 106.374C626.715 106.221 626.651 106.037 626.651 105.824L626.471 105.264V104.714C626.165 104.014 625.981 103.281 625.921 102.514C625.615 101.534 625.431 100.617 625.371 99.764L625.001 100.494L624.821 101.594L624.271 103.984L623.901 106.004L623.711 106.554L622.981 109.674L622.801 110.414L622.431 112.244L622.251 112.984L621.881 115.004L621.701 115.554L620.961 119.034L620.591 120.324L620.411 121.604C620.078 122.524 619.895 123.321 619.861 123.994L619.681 124.364L619.491 125.464L619.311 126.014L618.391 130.604L618.211 131.154L617.471 134.644L617.291 135.374L617.111 136.294L616.921 136.844L616.191 140.334L615.821 141.804L615.451 143.644L615.271 144.004L614.901 145.664L614.721 146.394L614.541 147.674C614.321 148.441 614.198 149.054 614.171 149.514C614.045 149.821 613.961 150.111 613.921 150.384C613.875 150.664 613.835 150.924 613.801 151.164C613.375 151.231 612.985 151.284 612.631 151.324C612.278 151.371 611.935 151.394 611.601 151.394H611.141C610.988 151.394 610.835 151.381 610.681 151.354H600.031V150.614C599.605 149.514 599.361 148.474 599.301 147.494C599.175 147.341 599.111 147.157 599.111 146.944L598.931 146.024C598.258 143.851 597.828 142.014 597.641 140.514L597.461 139.964L596.541 136.484L596.361 135.014L594.891 129.324V128.584C594.585 127.884 594.401 127.151 594.341 126.384L593.971 125.284L593.611 123.994V123.444L592.691 119.774V119.224L592.501 118.484L592.141 117.754L591.951 116.284C591.711 115.551 591.515 114.877 591.361 114.264C591.208 113.651 591.101 113.101 591.041 112.614L590.851 112.064V111.514C590.731 111.361 590.671 111.177 590.671 110.964L590.301 109.494L590.121 108.944C589.995 108.297 589.878 107.714 589.771 107.194C589.665 106.674 589.535 106.217 589.381 105.824L589.201 104.534C588.988 103.921 588.818 103.354 588.691 102.834C588.571 102.314 588.495 101.841 588.461 101.414L588.281 100.494C588.161 100.341 588.101 100.157 588.101 99.944L587.181 96.274L586.811 94.984L586.631 94.074L586.451 93.334L586.261 92.054C586.015 91.4073 585.891 90.854 585.891 90.394V90.214L585.531 89.294L585.341 88.564C585.221 87.6773 585.038 86.9407 584.791 86.354V85.624C584.671 85.4707 584.611 85.2873 584.611 85.074" fill="white"/>
<path d="M710.066 105.635L710.626 106.735C712.059 108.515 712.976 110.351 713.376 112.245C713.496 113.038 713.586 113.781 713.646 114.475C713.712 115.161 713.746 115.765 713.746 116.285V140.515C714.872 142.755 716.522 144.101 718.696 144.555L718.336 145.105C718.209 145.325 718.086 145.448 717.966 145.475L717.786 146.025L717.416 146.395C717.109 147.068 716.742 147.618 716.316 148.045C715.882 149.178 715.329 150.035 714.656 150.615C714.382 151.228 714.122 151.758 713.876 152.205C713.636 152.645 713.409 153.035 713.196 153.375C709.616 152.455 706.799 150.801 704.746 148.415H704.196C700.249 151.261 696.179 152.685 691.986 152.685C689.719 152.685 687.486 152.301 685.286 151.535C678.706 149.181 674.729 144.898 673.356 138.685V138.455C673.356 126.615 680.286 120.695 694.146 120.695H694.286C694.559 120.568 694.862 120.505 695.196 120.505L695.746 120.325H697.036L697.586 120.145H698.136L702.726 119.595C702.786 119.255 702.816 118.948 702.816 118.675V117.755C702.816 112.641 700.109 110.085 694.696 110.085C690.929 110.085 685.772 111.355 679.226 113.895L678.496 112.245L678.126 111.145L677.756 110.775L677.576 110.415L677.206 109.305C676.872 108.758 676.629 108.208 676.476 107.655C675.829 106.801 675.399 105.945 675.186 105.085L675.736 104.905L676.106 104.715L676.656 104.535L677.026 104.165H677.576C677.696 104.045 677.802 103.985 677.896 103.985H677.946C679.046 103.405 680.022 102.975 680.876 102.695L681.796 102.515C682.469 102.208 683.082 102.025 683.636 101.965L685.106 101.595C686.172 101.168 687.212 100.925 688.226 100.865L692.266 100.125C692.872 100.065 693.459 100.011 694.026 99.9647C694.592 99.918 695.152 99.8947 695.706 99.8947C701.546 99.8947 706.332 101.808 710.066 105.635ZM698.316 128.955H697.216C696.942 129.015 696.676 129.061 696.416 129.095C696.156 129.121 695.902 129.135 695.656 129.135H695.386L694.646 129.325H694.096C693.942 129.445 693.759 129.505 693.546 129.505H692.996L690.056 130.235H689.506C688.652 130.728 687.919 131.035 687.306 131.155C685.319 133.055 684.326 134.891 684.326 136.665C684.326 138.285 685.136 139.875 686.756 141.435C689.109 142.875 691.402 143.595 693.636 143.595C696.482 143.595 699.206 142.448 701.806 140.155C702.052 139.448 702.299 138.958 702.546 138.685L702.726 138.135L702.546 137.395V128.765H698.876C698.722 128.891 698.536 128.955 698.316 128.955Z" fill="white"/>
<path d="M772.55 110.037V110.587C772.95 111.32 773.197 112.054 773.29 112.787V151.157H762.09V118.667L761.9 117.567C760.374 112.94 757.804 110.627 754.19 110.627C753.09 110.627 751.867 110.857 750.52 111.317C747.46 112.637 745.257 114.72 743.91 117.567L743.18 120.687V151.157H732.16V101.037H743.18V105.257C746.607 102.197 750.34 100.364 754.38 99.757H755.2C763.4 99.757 769.184 103.184 772.55 110.037Z" fill="white"/>
<path d="M336 75H285.5V173H336V75Z" stroke="white" stroke-width="2" stroke-dasharray="5 5"/>
<path d="M383.5 75H338V173H383.5V75Z" stroke="white" stroke-width="2" stroke-dasharray="5 5"/>
<path d="M441 75H385.5V173H441V75Z" stroke="white" stroke-width="2" stroke-dasharray="5 5"/>
<path d="M495.5 75H443V173H495.5V75Z" stroke="white" stroke-width="2" stroke-dasharray="5 5"/>
<path d="M551.5 75H497.5V173H551.5V75Z" stroke="white" stroke-width="2" stroke-dasharray="5 5"/>
<path d="M576.5 75H553.5V173H576.5V75Z" stroke="white" stroke-width="2" stroke-dasharray="5 5"/>
<path d="M668 75H578.5V173H668V75Z" stroke="white" stroke-width="2" stroke-dasharray="5 5"/>
<path d="M723.5 75H670V173H723.5V75Z" stroke="white" stroke-width="2" stroke-dasharray="5 5"/>
<path d="M779.5 75H725.5V173H779.5V75Z" stroke="white" stroke-width="2" stroke-dasharray="5 5"/>
<path d="M532.5 328.5H570V378.5H645L532.5 428.5L420 378.5H495V328.5H532.5Z" fill="white"/>
<path d="M439.162 245.665V236.555H492.152V245.665H439.162ZM432.302 263.775V254.885H499.572V263.775H432.302ZM416.882 282.675V273.455H514.762V282.675H416.882ZM430.722 220.575V212.025H469.872V220.575H430.722ZM460.762 217.765V212.025H472.352C474.752 215.099 477.659 218.079 481.072 220.965C484.486 223.859 488.252 226.542 492.372 229.015C496.499 231.489 500.812 233.702 505.312 235.655C509.812 237.602 514.349 239.252 518.922 240.605C518.102 241.205 517.166 241.992 516.112 242.965C515.066 243.939 514.052 244.952 513.072 246.005C512.099 247.052 511.312 248.025 510.712 248.925C504.712 246.752 498.789 244.052 492.942 240.825C487.089 237.599 481.669 234.019 476.682 230.085C471.696 226.145 467.402 222.039 463.802 217.765H460.762ZM458.292 213.155L467.962 216.865C464.289 221.812 459.826 226.385 454.572 230.585C449.326 234.785 443.719 238.499 437.752 241.725C431.792 244.952 425.776 247.765 419.702 250.165C419.176 249.412 418.462 248.512 417.562 247.465C416.662 246.412 415.726 245.379 414.752 244.365C413.779 243.359 412.916 242.555 412.162 241.955C418.316 240.075 424.316 237.712 430.162 234.865C436.016 232.012 441.359 228.749 446.192 225.075C451.032 221.402 455.066 217.429 458.292 213.155ZM460.092 279.865V240.715H471.002V279.865H460.092ZM416.102 200.435V190.655H515.552V200.435H416.102ZM440.062 209.775V182.105H450.642V209.775H440.062ZM480.342 210.335V182.105H490.912V210.335" fill="white"/>
<path d="M602.427 189.868V184.358H622.107V189.868H602.427ZM601.747 208.208V202.808H622.897V208.208H601.747ZM601.747 216.638V211.358H622.897V216.638H601.747ZM585.327 269.968V263.108H642.357V269.968H585.327ZM598.487 199.318V193.358H625.487V199.318H598.487ZM616.147 225.528H608.157V231.938H616.147V225.528ZM601.517 237.118V220.358H623.007V237.118H601.517ZM587.237 258.378V251.968H633.917V247.128H580.257V240.718H643.827V258.378H587.237ZM583.407 238.688V213.158H590.497V238.688H583.407ZM573.177 217.088L572.387 210.228C575.687 210.081 579.381 209.931 583.467 209.778C587.554 209.631 591.884 209.444 596.457 209.218V215.408C592.257 215.781 588.191 216.081 584.257 216.308C580.317 216.528 576.624 216.788 573.177 217.088ZM584.197 251.968H594.097C593.197 255.568 592.224 259.318 591.177 263.218C590.124 267.118 589.147 270.491 588.247 273.338L578.687 271.988C579.734 269.214 580.747 266.008 581.727 262.368C582.701 258.734 583.524 255.268 584.197 251.968ZM638.987 264.228V263.108H648.997C648.997 263.108 648.961 263.611 648.887 264.618C648.814 265.631 648.664 266.478 648.437 267.158C647.384 271.804 646.294 275.458 645.167 278.118C644.047 280.784 642.737 282.718 641.237 283.918C639.964 284.818 638.594 285.434 637.127 285.768C635.667 286.108 633.924 286.314 631.897 286.388C630.171 286.468 627.714 286.488 624.527 286.448C621.341 286.408 617.947 286.314 614.347 286.168C614.274 284.968 613.974 283.618 613.447 282.118C612.921 280.618 612.284 279.268 611.537 278.068C615.064 278.441 618.477 278.664 621.777 278.738C625.077 278.818 627.401 278.858 628.747 278.858C629.947 278.858 630.921 278.818 631.667 278.738C632.421 278.664 633.061 278.441 633.587 278.068C634.634 277.241 635.591 275.758 636.457 273.618C637.317 271.484 638.161 268.354 638.987 264.228ZM591.847 221.138L597.247 219.908C597.847 221.781 598.427 223.841 598.987 226.088C599.554 228.341 599.987 230.291 600.287 231.938L594.437 233.518C594.284 231.791 593.964 229.784 593.477 227.498C592.991 225.211 592.447 223.091 591.847 221.138ZM591.507 205.838L596.347 204.038C597.321 205.918 598.221 208.018 599.047 210.338C599.874 212.664 600.437 214.691 600.737 216.418L595.447 218.438C595.221 216.718 594.734 214.694 593.987 212.368C593.234 210.041 592.407 207.864 591.507 205.838ZM573.507 196.958L577.107 191.558C579.287 192.978 581.424 194.608 583.517 196.448C585.624 198.288 587.201 199.881 588.247 201.228L584.197 207.418C583.071 205.844 581.497 204.081 579.477 202.128C577.451 200.181 575.461 198.458 573.507 196.958ZM584.197 181.768L590.607 184.918C589.107 187.391 587.607 189.904 586.107 192.458C584.607 195.004 583.184 197.141 581.837 198.868L576.887 196.278C578.087 194.331 579.401 191.951 580.827 189.138C582.247 186.324 583.371 183.868 584.197 181.768ZM591.397 191.108L597.697 194.708C595.224 198.081 592.581 201.641 589.767 205.388C586.954 209.141 584.311 212.291 581.837 214.838L577.107 211.918C578.687 210.044 580.377 207.908 582.177 205.508C583.977 203.108 585.681 200.631 587.287 198.078C588.901 195.531 590.271 193.208 591.397 191.108ZM575.987 219.458L582.627 220.918C581.947 223.844 581.121 226.768 580.147 229.688C579.174 232.614 578.124 235.128 576.997 237.228C576.324 236.781 575.347 236.274 574.067 235.708C572.794 235.148 571.747 234.681 570.927 234.308C572.201 232.208 573.247 229.861 574.067 227.268C574.894 224.681 575.534 222.078 575.987 219.458ZM635.387 238.688V213.158H642.587V238.688H635.387ZM625.037 217.088L624.357 210.228C627.811 210.081 631.694 209.931 636.007 209.778C640.321 209.631 644.914 209.481 649.787 209.328L649.667 215.518C645.247 215.818 640.954 216.098 636.787 216.358C632.627 216.624 628.711 216.868 625.037 217.088ZM644.157 221.138L649.897 219.458C650.871 221.704 651.827 224.178 652.767 226.878C653.701 229.578 654.357 231.904 654.737 233.858L648.777 235.768C648.477 233.814 647.877 231.451 646.977 228.678C646.077 225.904 645.137 223.391 644.157 221.138ZM643.257 205.618L648.547 203.258C649.821 205.204 651.001 207.358 652.087 209.718C653.181 212.084 653.951 214.168 654.397 215.968L648.657 218.558C648.284 216.758 647.591 214.638 646.577 212.198C645.564 209.758 644.457 207.564 643.257 205.618ZM624.587 196.728L628.407 191.668C630.361 193.014 632.311 194.571 634.257 196.338C636.211 198.098 637.711 199.691 638.757 201.118L634.377 206.968C633.397 205.468 631.991 203.741 630.157 201.788C628.317 199.841 626.461 198.154 624.587 196.728ZM635.607 181.878L642.027 185.138C640.447 187.618 638.871 190.111 637.297 192.618C635.724 195.131 634.224 197.288 632.797 199.088L627.847 196.508C629.121 194.554 630.507 192.171 632.007 189.358C633.507 186.544 634.707 184.051 635.607 181.878ZM643.597 190.658L649.897 194.258C647.351 197.631 644.577 201.191 641.577 204.938C638.577 208.691 635.727 211.841 633.027 214.388L628.407 211.468C630.134 209.594 631.934 207.458 633.807 205.058C635.687 202.658 637.487 200.181 639.207 197.628C640.934 195.081 642.397 192.758 643.597 190.658ZM627.847 219.458L634.377 221.028C633.851 223.801 633.101 226.631 632.127 229.518C631.147 232.411 630.097 234.868 628.977 236.888C628.377 236.514 627.477 236.008 626.277 235.368C625.077 234.734 624.027 234.231 623.127 233.858C624.321 231.758 625.294 229.468 626.047 226.988C626.794 224.514 627.394 222.004 627.847 219.458ZM551.347 190.538L557.537 183.568C559.411 184.541 561.377 185.721 563.437 187.108C565.504 188.494 567.437 189.881 569.237 191.268C571.037 192.661 572.501 193.994 573.627 195.268L567.207 203.138C566.161 201.864 564.754 200.478 562.987 198.978C561.227 197.478 559.334 195.998 557.307 194.538C555.287 193.071 553.301 191.738 551.347 190.538ZM548.987 220.578L554.837 213.268C556.784 214.168 558.827 215.274 560.967 216.588C563.107 217.901 565.094 219.211 566.927 220.518C568.767 221.831 570.287 223.088 571.487 224.288L565.297 232.388C564.171 231.188 562.691 229.878 560.857 228.458C559.017 227.031 557.047 225.624 554.947 224.238C552.847 222.851 550.861 221.631 548.987 220.578ZM560.797 285.158L551.237 279.758C552.664 276.758 554.181 273.268 555.787 269.288C557.401 265.314 559.051 261.114 560.737 256.688C562.431 252.268 563.987 247.918 565.407 243.638L573.847 249.038C572.647 253.018 571.297 257.108 569.797 261.308C568.297 265.508 566.797 269.631 565.297 273.678C563.797 277.731 562.297 281.558 560.797 285.158Z" fill="white"/>
<path d="M531.5 175H396V315.5H531.5V175Z" stroke="white" stroke-width="2" stroke-dasharray="5 5"/>
<path d="M669 175H533.5V315.5H669V175Z" stroke="white" stroke-width="2" stroke-dasharray="5 5"/>
<path d="M532.5 10V478" stroke="#46C147" stroke-width="6" stroke-dasharray="12 24 36 24"/>
<path d="M478.217 521H464.901V514.342C463.13 514.002 461.76 513.178 460.79 511.868C459.844 510.558 459.371 508.8 459.371 506.592C459.371 505.137 459.589 503.876 460.026 502.809C460.486 501.741 461.129 500.892 461.954 500.262C462.779 499.607 463.761 499.17 464.901 498.952V495.023H467.302V498.807C468.078 498.831 468.806 498.916 469.485 499.061C470.188 499.207 470.819 499.413 471.377 499.68L470.758 501.535C470.225 501.268 469.667 501.074 469.085 500.953C468.527 500.808 467.933 500.723 467.302 500.698V512.559C467.86 512.535 468.466 512.462 469.121 512.341C469.776 512.195 470.407 512.001 471.013 511.759V513.651C470.625 513.82 470.213 513.966 469.776 514.087C469.364 514.209 468.939 514.306 468.503 514.378C468.09 514.427 467.69 514.463 467.302 514.487V518.817H478.217V521ZM461.626 506.52C461.626 508.072 461.893 509.345 462.427 510.34C462.96 511.334 463.785 512.001 464.901 512.341V500.88C463.785 501.196 462.96 501.838 462.427 502.809C461.893 503.779 461.626 505.016 461.626 506.52ZM491.052 497.382V494.54H510.897V497.382H502.577V521H499.373V497.382H491.052ZM513.368 521V501.155H516.314V504.152H516.521C516.883 503.17 517.537 502.374 518.485 501.762C519.432 501.151 520.5 500.845 521.689 500.845C521.913 500.845 522.193 500.849 522.529 500.858C522.865 500.866 523.119 500.879 523.291 500.896V503.997C523.188 503.971 522.951 503.933 522.58 503.881C522.219 503.821 521.835 503.791 521.43 503.791C520.466 503.791 519.604 503.993 518.846 504.398C518.097 504.794 517.503 505.345 517.064 506.052C516.633 506.749 516.418 507.546 516.418 508.442V521H513.368ZM532.745 521.465C531.488 521.465 530.346 521.228 529.321 520.755C528.296 520.272 527.482 519.579 526.88 518.674C526.277 517.761 525.975 516.659 525.975 515.367C525.975 514.23 526.199 513.308 526.647 512.602C527.095 511.887 527.693 511.327 528.443 510.922C529.192 510.518 530.019 510.216 530.923 510.018C531.836 509.811 532.754 509.648 533.675 509.527C534.881 509.372 535.859 509.256 536.608 509.178C537.366 509.092 537.917 508.95 538.262 508.752C538.615 508.554 538.792 508.209 538.792 507.718V507.615C538.792 506.34 538.443 505.35 537.745 504.643C537.056 503.937 536.01 503.584 534.606 503.584C533.15 503.584 532.009 503.903 531.182 504.54C530.355 505.177 529.774 505.858 529.438 506.581L526.544 505.548C527.06 504.342 527.749 503.403 528.611 502.731C529.481 502.051 530.428 501.577 531.453 501.31C532.487 501.034 533.503 500.896 534.502 500.896C535.14 500.896 535.872 500.974 536.699 501.129C537.534 501.275 538.34 501.581 539.115 502.046C539.899 502.511 540.549 503.213 541.066 504.152C541.582 505.091 541.841 506.349 541.841 507.925V521H538.792V518.313H538.637C538.43 518.743 538.085 519.204 537.603 519.695C537.121 520.186 536.479 520.604 535.678 520.948C534.877 521.293 533.899 521.465 532.745 521.465ZM533.21 518.726C534.416 518.726 535.433 518.489 536.259 518.015C537.095 517.542 537.724 516.93 538.146 516.181C538.576 515.431 538.792 514.643 538.792 513.816V511.026C538.663 511.181 538.378 511.323 537.939 511.452C537.508 511.573 537.009 511.68 536.44 511.775C535.88 511.861 535.333 511.939 534.799 512.008C534.274 512.068 533.848 512.12 533.52 512.163C532.728 512.266 531.987 512.434 531.298 512.667C530.618 512.891 530.066 513.231 529.644 513.687C529.231 514.135 529.024 514.747 529.024 515.522C529.024 516.581 529.416 517.382 530.2 517.925C530.992 518.459 531.996 518.726 533.21 518.726ZM556.243 501.155V503.739H545.546V501.155H556.243ZM548.75 521V498.416C548.75 497.279 549.017 496.331 549.551 495.573C550.085 494.815 550.778 494.247 551.631 493.868C552.484 493.489 553.384 493.3 554.331 493.3C555.081 493.3 555.692 493.36 556.166 493.48C556.64 493.601 556.993 493.713 557.225 493.816L556.347 496.452C556.192 496.4 555.976 496.336 555.701 496.258C555.434 496.181 555.081 496.142 554.641 496.142C553.634 496.142 552.906 496.396 552.458 496.904C552.019 497.412 551.799 498.157 551.799 499.139V521H548.75ZM569.354 501.155V503.739H558.656V501.155H569.354ZM561.86 521V498.416C561.86 497.279 562.127 496.331 562.661 495.573C563.195 494.815 563.889 494.247 564.742 493.868C565.594 493.489 566.494 493.3 567.442 493.3C568.191 493.3 568.803 493.36 569.277 493.48C569.75 493.601 570.103 493.713 570.336 493.816L569.457 496.452C569.302 496.4 569.087 496.336 568.811 496.258C568.544 496.181 568.191 496.142 567.752 496.142C566.744 496.142 566.016 496.396 565.568 496.904C565.129 497.412 564.91 498.157 564.91 499.139V521H561.86ZM573.627 521V501.155H576.676V521H573.627ZM575.178 497.847C574.583 497.847 574.071 497.645 573.64 497.24C573.218 496.835 573.007 496.349 573.007 495.78C573.007 495.212 573.218 494.725 573.64 494.32C574.071 493.915 574.583 493.713 575.178 493.713C575.772 493.713 576.28 493.915 576.702 494.32C577.133 494.725 577.348 495.212 577.348 495.78C577.348 496.349 577.133 496.835 576.702 497.24C576.28 497.645 575.772 497.847 575.178 497.847ZM590.323 521.413C588.463 521.413 586.861 520.974 585.517 520.096C584.173 519.217 583.14 518.007 582.416 516.465C581.693 514.923 581.331 513.162 581.331 511.181C581.331 509.165 581.701 507.387 582.442 505.845C583.191 504.294 584.234 503.084 585.569 502.214C586.912 501.336 588.48 500.896 590.272 500.896C591.667 500.896 592.924 501.155 594.044 501.672C595.164 502.188 596.081 502.912 596.796 503.842C597.511 504.772 597.955 505.858 598.127 507.098H595.078C594.845 506.194 594.328 505.393 593.527 504.695C592.735 503.989 591.667 503.636 590.323 503.636C589.135 503.636 588.092 503.946 587.197 504.566C586.309 505.177 585.616 506.043 585.116 507.163C584.625 508.274 584.38 509.579 584.38 511.077C584.38 512.611 584.621 513.946 585.104 515.083C585.594 516.22 586.284 517.102 587.171 517.731C588.067 518.36 589.117 518.674 590.323 518.674C591.116 518.674 591.835 518.537 592.481 518.261C593.127 517.985 593.674 517.589 594.122 517.072C594.57 516.556 594.888 515.935 595.078 515.212H598.127C597.955 516.383 597.528 517.438 596.848 518.377C596.176 519.307 595.284 520.048 594.173 520.599C593.071 521.142 591.787 521.413 590.323 521.413ZM490.492 565V538.54H493.696V562.158H505.996V565H490.492ZM516.384 565.465C515.126 565.465 513.985 565.228 512.96 564.755C511.935 564.272 511.121 563.579 510.518 562.674C509.915 561.761 509.614 560.659 509.614 559.367C509.614 558.23 509.837 557.308 510.285 556.602C510.733 555.887 511.332 555.327 512.081 554.922C512.831 554.518 513.657 554.216 514.562 554.018C515.475 553.811 516.392 553.648 517.314 553.527C518.52 553.372 519.497 553.256 520.247 553.178C521.005 553.092 521.556 552.95 521.9 552.752C522.254 552.554 522.43 552.209 522.43 551.718V551.615C522.43 550.34 522.081 549.35 521.384 548.643C520.695 547.937 519.648 547.584 518.244 547.584C516.788 547.584 515.647 547.903 514.82 548.54C513.993 549.177 513.412 549.858 513.076 550.581L510.182 549.548C510.699 548.342 511.388 547.403 512.249 546.731C513.119 546.051 514.067 545.577 515.092 545.31C516.125 545.034 517.142 544.896 518.141 544.896C518.778 544.896 519.51 544.974 520.337 545.129C521.173 545.275 521.978 545.581 522.753 546.046C523.537 546.511 524.187 547.213 524.704 548.152C525.221 549.091 525.479 550.349 525.479 551.925V565H522.43V562.313H522.275C522.068 562.743 521.724 563.204 521.242 563.695C520.759 564.186 520.117 564.604 519.316 564.948C518.515 565.293 517.538 565.465 516.384 565.465ZM516.849 562.726C518.055 562.726 519.071 562.489 519.898 562.015C520.733 561.542 521.362 560.93 521.784 560.181C522.215 559.431 522.43 558.643 522.43 557.816V555.026C522.301 555.181 522.017 555.323 521.577 555.452C521.147 555.573 520.647 555.68 520.079 555.775C519.519 555.861 518.972 555.939 518.438 556.008C517.912 556.068 517.486 556.12 517.159 556.163C516.366 556.266 515.626 556.434 514.937 556.667C514.256 556.891 513.705 557.231 513.283 557.687C512.869 558.135 512.663 558.747 512.663 559.522C512.663 560.581 513.055 561.382 513.838 561.925C514.631 562.459 515.634 562.726 516.849 562.726ZM534.094 553.062V565H531.045V545.155H533.99V548.256H534.249C534.714 547.248 535.42 546.438 536.368 545.827C537.315 545.207 538.538 544.896 540.037 544.896C541.381 544.896 542.556 545.172 543.564 545.723C544.572 546.266 545.356 547.093 545.916 548.204C546.475 549.306 546.755 550.702 546.755 552.39V565H543.706V552.597C543.706 551.038 543.301 549.823 542.492 548.953C541.682 548.075 540.571 547.636 539.158 547.636C538.185 547.636 537.315 547.847 536.549 548.269C535.791 548.691 535.192 549.306 534.753 550.116C534.313 550.926 534.094 551.908 534.094 553.062ZM560.648 565.413C558.735 565.413 557.086 564.991 555.699 564.147C554.321 563.295 553.257 562.106 552.508 560.581C551.767 559.048 551.397 557.265 551.397 555.232C551.397 553.2 551.767 551.408 552.508 549.858C553.257 548.299 554.3 547.084 555.635 546.214C556.978 545.336 558.546 544.896 560.337 544.896C561.371 544.896 562.392 545.069 563.4 545.413C564.407 545.758 565.325 546.318 566.151 547.093C566.978 547.859 567.637 548.876 568.128 550.142C568.619 551.408 568.865 552.967 568.865 554.819V556.111H553.567V553.475H565.764C565.764 552.356 565.54 551.356 565.092 550.478C564.653 549.599 564.024 548.906 563.206 548.398C562.396 547.89 561.44 547.636 560.337 547.636C559.123 547.636 558.072 547.937 557.185 548.54C556.306 549.134 555.63 549.909 555.157 550.866C554.683 551.822 554.446 552.847 554.446 553.94V555.698C554.446 557.196 554.704 558.467 555.221 559.509C555.747 560.543 556.474 561.331 557.405 561.873C558.335 562.407 559.416 562.674 560.648 562.674C561.449 562.674 562.172 562.562 562.818 562.338C563.473 562.106 564.037 561.761 564.511 561.305C564.984 560.84 565.35 560.263 565.609 559.574L568.555 560.4C568.245 561.4 567.723 562.278 566.991 563.036C566.259 563.786 565.355 564.371 564.278 564.793C563.201 565.207 561.991 565.413 560.648 565.413Z" fill="#46C147"/>
<path d="M570 328.5H715" stroke="#FF0000" stroke-width="3.03189"/>
<path d="M670 316.5H715" stroke="#FF0000" stroke-width="3.03189"/>
<path d="M690 328.5V316.5" stroke="#FF0000" stroke-width="3.03189"/>
<path d="M689.096 328.5L680 364.883H698.191L689.096 328.5Z" fill="#FF0000"/>
<path d="M689.096 316.5L680 280.117H698.191L689.096 316.5Z" fill="#FF0000"/>
<path d="M720.041 284.54V311H716.837V287.899H716.682L710.222 292.188V288.933L716.837 284.54H720.041ZM741.76 295.599L739.021 296.375C738.849 295.918 738.595 295.474 738.259 295.044C737.931 294.605 737.483 294.243 736.915 293.959C736.346 293.674 735.619 293.532 734.731 293.532C733.517 293.532 732.505 293.812 731.695 294.372C730.894 294.923 730.494 295.625 730.494 296.478C730.494 297.236 730.769 297.835 731.321 298.274C731.872 298.713 732.733 299.079 733.905 299.372L736.85 300.096C738.625 300.526 739.947 301.185 740.817 302.072C741.687 302.951 742.122 304.083 742.122 305.47C742.122 306.607 741.794 307.624 741.14 308.519C740.494 309.415 739.589 310.121 738.427 310.638C737.264 311.155 735.912 311.413 734.37 311.413C732.346 311.413 730.67 310.974 729.344 310.096C728.017 309.217 727.178 307.934 726.824 306.245L729.719 305.522C729.994 306.59 730.515 307.391 731.282 307.925C732.057 308.459 733.069 308.726 734.318 308.726C735.739 308.726 736.868 308.425 737.703 307.822C738.547 307.21 738.969 306.478 738.969 305.625C738.969 304.936 738.728 304.359 738.246 303.894C737.763 303.42 737.023 303.067 736.023 302.835L732.716 302.059C730.899 301.629 729.563 300.961 728.711 300.057C727.867 299.144 727.445 298.002 727.445 296.633C727.445 295.513 727.759 294.523 728.388 293.661C729.025 292.8 729.891 292.124 730.985 291.633C732.087 291.142 733.336 290.896 734.731 290.896C736.695 290.896 738.237 291.327 739.357 292.188C740.485 293.05 741.286 294.187 741.76 295.599ZM751.208 311L745.161 291.155H748.365L752.655 306.349H752.861L757.099 291.155H760.355L764.541 306.297H764.748L769.037 291.155H772.241L766.195 311H763.197L758.856 295.754H758.546L754.205 311H751.208Z" fill="#FF0000"/>
</svg>
