<svg width="765" height="540" viewBox="0 0 765 540" fill="none" xmlns="http://www.w3.org/2000/svg">
<path d="M20 59.3368C20 38.6261 36.7893 21.8368 57.5 21.8368H707.5C728.211 21.8368 745 38.6261 745 59.3368V434.337C745 455.047 728.211 471.837 707.5 471.837H57.5C36.7893 471.837 20 455.047 20 434.337V59.3368Z" fill="white"/>
<path d="M38.75 59.3368C38.75 48.9814 47.1447 40.5868 57.5 40.5868H707.5C717.855 40.5868 726.25 48.9814 726.25 59.3368V434.337C726.25 444.692 717.855 453.087 707.5 453.087H57.5C47.1447 453.087 38.75 444.692 38.75 434.337V59.3368Z" fill="#0033A2"/>
<path d="M382.5 330.337H420V380.337H495L382.5 430.337L270 380.337H345V330.337H382.5Z" fill="white"/>
<path d="M136.02 93.8872V82.8672H186.689V93.8872H167.41V153.187H155.299V93.8872" fill="white"/>
<path d="M229.409 109.114L228.859 109.854L228.309 110.404L227.759 110.774L227.019 111.874L226.659 112.244L226.289 112.424C225.889 112.977 225.522 113.404 225.189 113.704L222.799 116.464C217.719 113.19 213.512 111.554 210.179 111.554C206.752 111.554 204.229 113.25 202.609 116.644C202.669 118.637 203.462 120.107 204.989 121.054C205.662 121.234 206.152 121.417 206.459 121.604C207.652 121.784 208.632 122.027 209.399 122.334C220.992 123.194 227.479 127.847 228.859 136.294C228.919 136.66 228.949 137.017 228.949 137.364C228.949 137.717 228.949 138.064 228.949 138.404C228.949 144.55 226.349 149.17 221.149 152.264C217.415 153.944 213.665 154.784 209.899 154.784C202.739 154.784 195.595 151.74 188.469 145.654L188.839 144.924L189.749 144.004C190.362 143.27 190.915 142.717 191.409 142.344C191.529 142.13 191.649 142.01 191.769 141.984L192.139 141.434C192.259 141.22 192.382 141.097 192.509 141.064L192.689 140.694L193.059 140.514L195.449 137.754C199.975 142.04 204.715 144.184 209.669 144.184C211.749 144.184 213.862 143.817 216.009 143.084C216.555 142.35 217.105 141.8 217.659 141.434C217.845 140.7 217.939 140.01 217.939 139.364C217.939 137.77 217.419 136.44 216.379 135.374L212.149 133.904C199.542 133.137 192.689 127.75 191.589 117.744C192.415 107.677 198.105 102.294 208.659 101.594H209.309C217.415 101.594 224.115 104.1 229.409 109.114Z" fill="white"/>
<path d="M241.787 138.863V103.062H252.807V134.823C252.927 134.976 252.987 135.159 252.987 135.373C253.114 135.466 253.177 135.556 253.177 135.643V135.743C253.39 137.116 253.694 138.339 254.087 139.413C256.2 142.346 258.91 143.813 262.217 143.813H262.357C266.457 142.713 269.33 140.449 270.977 137.023V136.473L271.717 134.273V103.062H282.917V153.183H271.717V149.143C267.31 152.749 262.92 154.553 258.547 154.553C255.147 154.553 251.704 153.483 248.217 151.343C245.37 149.169 243.41 146.599 242.337 143.633L242.157 142.343C241.884 141.456 241.747 140.586 241.747 139.733V139.323C241.747 139.169 241.76 139.016 241.787 138.863Z" fill="white"/>
<path d="M341.336 123.631L341.516 126.381C341.636 126.534 341.696 126.718 341.696 126.931V132.441H308.106C308.806 138.681 311.986 142.354 317.646 143.461C318.566 143.548 319.469 143.591 320.356 143.591C324.976 143.591 328.909 142.078 332.156 139.051C332.549 139.724 333.039 140.274 333.626 140.701L333.806 141.251L334.356 141.801C334.783 142.201 335.149 142.578 335.456 142.931C335.763 143.284 336.009 143.644 336.196 144.011C336.409 144.131 336.529 144.251 336.556 144.371L339.126 147.311C333.313 152.178 327.116 154.611 320.536 154.611C319.409 154.611 318.263 154.534 317.096 154.381C315.936 154.228 314.773 154.014 313.606 153.741C303.019 150.221 297.206 142.631 296.166 130.971C296.166 130.818 296.159 130.511 296.146 130.051C296.133 129.598 296.126 129.308 296.126 129.181C296.126 113.241 303.299 104.168 317.646 101.961C331.906 102.454 339.803 109.678 341.336 123.631ZM307.916 123.811H330.136V123.261C330.009 122.894 329.946 122.528 329.946 122.161V121.791C329.639 121.118 329.456 120.508 329.396 119.961C327.136 114.728 323.403 112.094 318.196 112.061C311.649 113.621 308.223 117.538 307.916 123.811Z" fill="white"/>
<path d="M394.55 111.874V112.424C394.95 113.157 395.197 113.89 395.29 114.624V152.994H384.09V120.504L383.9 119.404C382.374 114.777 379.804 112.464 376.19 112.464C375.09 112.464 373.867 112.694 372.52 113.154C369.46 114.474 367.257 116.557 365.91 119.404L365.18 122.524V152.994H354.16V102.874H365.18V107.094C368.607 104.034 372.34 102.2 376.38 101.594H377.2C385.4 101.594 391.184 105.02 394.55 111.874Z" fill="white"/>
<path d="M433.691 83.4208V83.0508H446.361L446.541 84.3408L446.731 84.8908L447.091 86.1808L447.461 88.3808L448.011 90.2108L448.381 92.4208L448.931 94.2508L449.111 95.7208C449.325 96.2408 449.448 96.6708 449.481 97.0108L449.661 97.7408L450.031 98.8408V99.5808C450.151 99.6741 450.211 99.7641 450.211 99.8508V100.501C450.551 101.174 450.738 101.907 450.771 102.701L451.131 103.801L451.501 105.091L451.871 107.291L452.421 109.121L452.601 110.231L453.701 114.821C453.795 115.247 453.881 115.637 453.961 115.991C454.035 116.337 454.071 116.681 454.071 117.021L454.441 117.751V118.491L454.801 119.411V120.141L455.171 120.871V121.611C455.511 122.531 455.695 123.327 455.721 124.001L455.911 124.731C456.125 125.344 456.291 125.911 456.411 126.431C456.531 126.951 456.608 127.424 456.641 127.851L457.011 129.321L457.381 130.601L457.741 129.501L458.481 125.831L458.841 124.911L459.031 123.811L459.581 121.241L459.951 119.961V119.411L460.681 116.471L460.861 115.371L461.231 114.631L461.411 113.901L461.601 112.981V112.251L461.781 111.691L462.521 108.761L462.881 106.551L463.071 105.821L463.431 105.091C463.498 104.111 463.681 103.251 463.981 102.511L464.171 101.601V101.051L464.541 99.5808L464.721 99.0308L465.271 96.6408L465.451 95.5408L465.821 94.4408L466.001 93.5208L466.551 91.1308L466.741 90.2108L466.921 89.8508C466.955 89.5108 466.995 89.1808 467.041 88.8608C467.088 88.5408 467.171 88.2575 467.291 88.0108L467.471 87.4608V86.9108L467.661 86.1808L467.841 85.6208L468.391 83.0508H481.981V83.6008C482.408 84.6741 482.651 85.7175 482.711 86.7308L483.081 88.1908L483.261 88.7508L484.001 92.0508L484.361 93.5208C484.608 94.4075 484.731 95.1408 484.731 95.7208C484.945 96.2408 485.068 96.6708 485.101 97.0108L485.461 98.2908L485.651 99.5808L485.831 100.311L486.021 100.861C486.108 101.261 486.185 101.621 486.251 101.941C486.311 102.261 486.355 102.574 486.381 102.881C486.628 103.461 486.798 103.997 486.891 104.491C486.985 104.977 487.061 105.421 487.121 105.821L487.301 106.921L487.671 107.841L487.851 108.941V109.491C488.158 110.224 488.341 110.897 488.401 111.511L488.591 112.611C488.891 113.344 489.075 114.017 489.141 114.631L489.321 115.551L489.871 117.571V118.301C489.991 118.581 490.051 118.887 490.051 119.221C490.391 119.927 490.578 120.541 490.611 121.061L490.791 121.981L490.971 123.081L491.161 123.811C491.468 124.757 491.651 125.614 491.711 126.381C491.831 126.474 491.891 126.567 491.891 126.661V127.301C492.318 128.374 492.565 129.414 492.631 130.421C492.811 130.361 492.931 130.237 492.991 130.051C493.145 129.291 493.298 128.627 493.451 128.061C493.605 127.494 493.758 126.997 493.911 126.571V125.831C494.311 124.731 494.555 123.751 494.641 122.891L495.011 121.611L495.751 118.671L495.931 117.201L496.301 115.921L496.481 115.371V114.821C496.695 114.234 496.865 113.704 496.991 113.231C497.111 112.757 497.185 112.307 497.211 111.881L497.581 110.591L499.051 104.531L499.601 101.601L499.971 100.131C500.305 99.2441 500.488 98.5108 500.521 97.9308L500.701 97.0108L501.071 95.5408C501.345 94.6541 501.528 93.9208 501.621 93.3408L501.801 92.6008L502.361 90.0308L502.721 88.9308V88.3808L503.271 86.9108V86.1808L503.461 85.6208L504.011 83.0508H516.491L515.761 86.7308L515.211 88.9308L515.021 89.4808L514.471 92.0508L514.111 93.5208L513.741 94.8008L513.001 98.4808L512.641 99.7608L511.901 103.251L511.541 104.531L511.351 105.091L510.981 107.101L510.801 107.471L510.621 108.761C510.315 109.767 510.131 110.624 510.071 111.331L509.331 113.531L509.151 114.821L508.961 115.551L508.781 116.101L508.601 117.391L508.411 117.941L507.311 122.531L507.131 123.811L506.761 125.101L505.841 128.771L505.661 130.051L504.561 134.641L504.011 137.211C503.671 138.131 503.488 138.927 503.461 139.601L502.721 141.991V142.721C502.388 143.641 502.205 144.437 502.171 145.111C501.865 146.117 501.681 146.974 501.621 147.681L501.251 148.961L501.071 149.331L500.891 150.621C500.585 151.627 500.401 152.484 500.341 153.191H486.751L486.571 151.721C486.358 151.201 486.235 150.771 486.201 150.431L485.831 148.961L485.651 147.681L485.281 146.391C485.188 146.024 485.111 145.674 485.051 145.341C484.991 145.001 484.945 144.677 484.911 144.371L484.731 143.641L484.551 142.721C484.425 142.567 484.361 142.384 484.361 142.171L484.181 141.251L484.001 140.701C483.908 140.307 483.831 139.947 483.771 139.621C483.705 139.301 483.658 138.987 483.631 138.681C483.418 138.101 483.258 137.567 483.151 137.081C483.045 136.587 482.958 136.144 482.891 135.751L482.711 135.011L482.531 134.091C482.405 133.724 482.318 133.374 482.271 133.041C482.231 132.701 482.195 132.377 482.161 132.071C481.948 131.464 481.781 130.884 481.661 130.331C481.535 129.777 481.458 129.257 481.431 128.771C481.305 128.617 481.241 128.434 481.241 128.221L481.061 127.481L480.881 126.931C480.788 126.291 480.665 125.681 480.511 125.101L480.141 123.441L479.961 122.341L479.591 121.431L479.221 119.221L479.041 118.671V118.121C478.735 117.387 478.551 116.714 478.491 116.101L478.121 113.901L477.751 112.981L477.391 111.511V110.781C477.025 109.767 476.841 108.911 476.841 108.211C476.715 108.057 476.651 107.874 476.651 107.661L476.471 107.101V106.551C476.165 105.851 475.981 105.117 475.921 104.351C475.615 103.371 475.431 102.454 475.371 101.601L475.001 102.331L474.821 103.431L474.271 105.821L473.901 107.841L473.711 108.391L472.981 111.511L472.801 112.251L472.431 114.081L472.251 114.821L471.881 116.841L471.701 117.391L470.961 120.871L470.591 122.161L470.411 123.441C470.078 124.361 469.895 125.157 469.861 125.831L469.681 126.201L469.491 127.301L469.311 127.851L468.391 132.441L468.211 132.991L467.471 136.481L467.291 137.211L467.111 138.131L466.921 138.681L466.191 142.171L465.821 143.641L465.451 145.481L465.271 145.841L464.901 147.501L464.721 148.231L464.541 149.511C464.321 150.277 464.198 150.891 464.171 151.351C464.045 151.657 463.961 151.947 463.921 152.221C463.875 152.501 463.835 152.761 463.801 153.001C463.375 153.067 462.985 153.121 462.631 153.161C462.278 153.207 461.935 153.231 461.601 153.231H461.141C460.988 153.231 460.835 153.217 460.681 153.191H450.031V152.451C449.605 151.351 449.361 150.311 449.301 149.331C449.175 149.177 449.111 148.994 449.111 148.781L448.931 147.861C448.258 145.687 447.828 143.851 447.641 142.351L447.461 141.801L446.541 138.321L446.361 136.851L444.891 131.161V130.421C444.585 129.721 444.401 128.987 444.341 128.221L443.971 127.121L443.611 125.831V125.281L442.691 121.611V121.061L442.501 120.321L442.141 119.591L441.951 118.121C441.711 117.387 441.515 116.714 441.361 116.101C441.208 115.487 441.101 114.937 441.041 114.451L440.851 113.901V113.351C440.731 113.197 440.671 113.014 440.671 112.801L440.301 111.331L440.121 110.781C439.995 110.134 439.878 109.551 439.771 109.031C439.665 108.511 439.535 108.054 439.381 107.661L439.201 106.371C438.988 105.757 438.818 105.191 438.691 104.671C438.571 104.151 438.495 103.677 438.461 103.251L438.281 102.331C438.161 102.177 438.101 101.994 438.101 101.781L437.181 98.1108L436.811 96.8208L436.631 95.9108L436.451 95.1708L436.261 93.8908C436.015 93.2441 435.891 92.6908 435.891 92.2308V92.0508L435.531 91.1308L435.341 90.4008C435.221 89.5141 435.038 88.7775 434.791 88.1908V87.4608C434.671 87.3075 434.611 87.1241 434.611 86.9108" fill="white"/>
<path d="M560.066 107.472L560.626 108.572C562.059 110.352 562.976 112.188 563.376 114.082C563.496 114.875 563.586 115.618 563.646 116.312C563.712 116.998 563.746 117.602 563.746 118.122V142.352C564.872 144.592 566.522 145.938 568.696 146.392L568.336 146.942C568.209 147.162 568.086 147.285 567.966 147.312L567.786 147.862L567.416 148.232C567.109 148.905 566.742 149.455 566.316 149.882C565.882 151.015 565.329 151.872 564.656 152.452C564.382 153.065 564.122 153.595 563.876 154.042C563.636 154.482 563.409 154.872 563.196 155.212C559.616 154.292 556.799 152.638 554.746 150.252H554.196C550.249 153.098 546.179 154.522 541.986 154.522C539.719 154.522 537.486 154.138 535.286 153.372C528.706 151.018 524.729 146.735 523.356 140.522V140.292C523.356 128.452 530.286 122.532 544.146 122.532H544.286C544.559 122.405 544.862 122.342 545.196 122.342L545.746 122.162H547.036L547.586 121.982H548.136L552.726 121.432C552.786 121.092 552.816 120.785 552.816 120.512V119.592C552.816 114.478 550.109 111.922 544.696 111.922C540.929 111.922 535.772 113.192 529.226 115.732L528.496 114.082L528.126 112.982L527.756 112.612L527.576 112.252L527.206 111.142C526.872 110.595 526.629 110.045 526.476 109.492C525.829 108.638 525.399 107.782 525.186 106.922L525.736 106.742L526.106 106.552L526.656 106.372L527.026 106.002H527.576C527.696 105.882 527.802 105.822 527.896 105.822H527.946C529.046 105.242 530.022 104.812 530.876 104.532L531.796 104.352C532.469 104.045 533.082 103.862 533.636 103.802L535.106 103.432C536.172 103.005 537.212 102.762 538.226 102.702L542.266 101.962C542.872 101.902 543.459 101.848 544.026 101.802C544.592 101.755 545.152 101.732 545.706 101.732C551.546 101.732 556.332 103.645 560.066 107.472ZM548.316 130.792H547.216C546.942 130.852 546.676 130.898 546.416 130.932C546.156 130.958 545.902 130.972 545.656 130.972H545.386L544.646 131.162H544.096C543.942 131.282 543.759 131.342 543.546 131.342H542.996L540.056 132.072H539.506C538.652 132.565 537.919 132.872 537.306 132.992C535.319 134.892 534.326 136.728 534.326 138.502C534.326 140.122 535.136 141.712 536.756 143.272C539.109 144.712 541.402 145.432 543.636 145.432C546.482 145.432 549.206 144.285 551.806 141.992C552.052 141.285 552.299 140.795 552.546 140.522L552.726 139.972L552.546 139.232V130.602H548.876C548.722 130.728 548.536 130.792 548.316 130.792Z" fill="white"/>
<path d="M622.55 111.874V112.424C622.95 113.157 623.197 113.89 623.29 114.624V152.994H612.09V120.504L611.9 119.404C610.374 114.777 607.804 112.464 604.19 112.464C603.09 112.464 601.867 112.694 600.52 113.154C597.46 114.474 595.257 116.557 593.91 119.404L593.18 122.524V152.994H582.16V102.874H593.18V107.094C596.607 104.034 600.34 102.2 604.38 101.594H605.2C613.4 101.594 619.184 105.02 622.55 111.874Z" fill="white"/>
<path d="M186 76.8368H135.5V174.837H186V76.8368Z" stroke="white" stroke-width="2" stroke-dasharray="5 5"/>
<path d="M233.5 76.8368H188V174.837H233.5V76.8368Z" stroke="white" stroke-width="2" stroke-dasharray="5 5"/>
<path d="M291 76.8368H235.5V174.837H291V76.8368Z" stroke="white" stroke-width="2" stroke-dasharray="5 5"/>
<path d="M345.5 76.8368H293V174.837H345.5V76.8368Z" stroke="white" stroke-width="2" stroke-dasharray="5 5"/>
<path d="M401.5 76.8368H347.5V174.837H401.5V76.8368Z" stroke="white" stroke-width="2" stroke-dasharray="5 5"/>
<path d="M426.5 76.8368H403.5V174.837H426.5V76.8368Z" stroke="white" stroke-width="2" stroke-dasharray="5 5"/>
<path d="M518 76.8368H428.5V174.837H518V76.8368Z" stroke="white" stroke-width="2" stroke-dasharray="5 5"/>
<path d="M573.5 76.8368H520V174.837H573.5V76.8368Z" stroke="white" stroke-width="2" stroke-dasharray="5 5"/>
<path d="M629.5 76.8368H575.5V174.837H629.5V76.8368Z" stroke="white" stroke-width="2" stroke-dasharray="5 5"/>
<path d="M289.163 247.502V238.392H342.153V247.502H289.163ZM282.303 265.612V256.722H349.573V265.612H282.303ZM266.883 284.512V275.292H364.763V284.512H266.883ZM280.723 222.412V213.862H319.873V222.412H280.723ZM310.763 219.602V213.862H322.353C324.753 216.935 327.659 219.915 331.073 222.802C334.486 225.695 338.253 228.379 342.373 230.852C346.499 233.325 350.813 235.539 355.313 237.492C359.813 239.439 364.349 241.089 368.923 242.442C368.103 243.042 367.166 243.829 366.113 244.802C365.066 245.775 364.053 246.789 363.073 247.842C362.099 248.889 361.313 249.862 360.713 250.762C354.713 248.589 348.789 245.889 342.943 242.662C337.089 239.435 331.669 235.855 326.683 231.922C321.696 227.982 317.403 223.875 313.803 219.602H310.763ZM308.293 214.992L317.963 218.702C314.289 223.649 309.826 228.222 304.573 232.422C299.326 236.622 293.719 240.335 287.753 243.562C281.793 246.789 275.776 249.602 269.703 252.002C269.176 251.249 268.463 250.349 267.563 249.302C266.663 248.249 265.726 247.215 264.753 246.202C263.779 245.195 262.916 244.392 262.163 243.792C268.316 241.912 274.316 239.549 280.163 236.702C286.016 233.849 291.359 230.585 296.193 226.912C301.033 223.239 305.066 219.265 308.293 214.992ZM310.093 281.702V242.552H321.003V281.702H310.093ZM266.103 202.272V192.492H365.553V202.272H266.103ZM290.063 211.612V183.942H300.643V211.612H290.063ZM330.343 212.172V183.942H340.913V212.172" fill="white"/>
<path d="M452.428 191.705V186.195H472.108V191.705H452.428ZM451.748 210.045V204.645H472.898V210.045H451.748ZM451.748 218.475V213.195H472.898V218.475H451.748ZM435.328 271.805V264.945H492.358V271.805H435.328ZM448.488 201.155V195.195H475.488V201.155H448.488ZM466.148 227.365H458.158V233.775H466.148V227.365ZM451.518 238.955V222.195H473.008V238.955H451.518ZM437.238 260.215V253.805H483.918V248.965H430.258V242.555H493.828V260.215H437.238ZM433.408 240.525V214.995H440.498V240.525H433.408ZM423.178 218.925L422.388 212.065C425.688 211.918 429.381 211.768 433.468 211.615C437.554 211.468 441.884 211.281 446.458 211.055V217.245C442.258 217.618 438.191 217.918 434.257 218.145C430.317 218.365 426.624 218.625 423.178 218.925ZM434.198 253.805H444.097C443.197 257.405 442.224 261.155 441.178 265.055C440.124 268.955 439.148 272.328 438.248 275.175L428.688 273.825C429.734 271.051 430.748 267.845 431.728 264.205C432.701 260.571 433.524 257.105 434.198 253.805ZM488.988 266.065V264.945H498.998C498.998 264.945 498.961 265.448 498.888 266.455C498.814 267.468 498.664 268.315 498.438 268.995C497.384 273.641 496.294 277.295 495.168 279.955C494.048 282.621 492.738 284.555 491.238 285.755C489.964 286.655 488.594 287.271 487.128 287.605C485.668 287.945 483.924 288.151 481.898 288.225C480.171 288.305 477.714 288.325 474.528 288.285C471.341 288.245 467.948 288.151 464.348 288.005C464.274 286.805 463.974 285.455 463.448 283.955C462.921 282.455 462.284 281.105 461.538 279.905C465.064 280.278 468.478 280.501 471.778 280.575C475.078 280.655 477.401 280.695 478.748 280.695C479.948 280.695 480.921 280.655 481.668 280.575C482.421 280.501 483.061 280.278 483.588 279.905C484.634 279.078 485.591 277.595 486.458 275.455C487.318 273.321 488.161 270.191 488.988 266.065ZM441.847 222.975L447.248 221.745C447.848 223.618 448.428 225.678 448.988 227.925C449.554 230.178 449.988 232.128 450.288 233.775L444.438 235.355C444.284 233.628 443.964 231.621 443.478 229.335C442.991 227.048 442.447 224.928 441.847 222.975ZM441.507 207.675L446.347 205.875C447.321 207.755 448.221 209.855 449.048 212.175C449.874 214.501 450.438 216.528 450.738 218.255L445.448 220.275C445.221 218.555 444.734 216.531 443.988 214.205C443.234 211.878 442.407 209.701 441.507 207.675ZM423.508 198.795L427.108 193.395C429.288 194.815 431.424 196.445 433.518 198.285C435.624 200.125 437.201 201.718 438.248 203.065L434.198 209.255C433.071 207.681 431.498 205.918 429.478 203.965C427.451 202.018 425.461 200.295 423.508 198.795ZM434.198 183.605L440.608 186.755C439.108 189.228 437.608 191.741 436.108 194.295C434.608 196.841 433.184 198.978 431.838 200.705L426.888 198.115C428.088 196.168 429.401 193.788 430.828 190.975C432.248 188.161 433.371 185.705 434.198 183.605ZM441.398 192.945L447.698 196.545C445.224 199.918 442.581 203.478 439.768 207.225C436.954 210.978 434.311 214.128 431.838 216.675L427.108 213.755C428.688 211.881 430.378 209.745 432.178 207.345C433.978 204.945 435.681 202.468 437.288 199.915C438.901 197.368 440.271 195.045 441.398 192.945ZM425.988 221.295L432.628 222.755C431.948 225.681 431.121 228.605 430.148 231.525C429.174 234.451 428.124 236.965 426.998 239.065C426.324 238.618 425.348 238.111 424.068 237.545C422.794 236.985 421.748 236.518 420.928 236.145C422.201 234.045 423.248 231.698 424.068 229.105C424.894 226.518 425.534 223.915 425.988 221.295ZM485.388 240.525V214.995H492.588V240.525H485.388ZM475.038 218.925L474.358 212.065C477.811 211.918 481.694 211.768 486.008 211.615C490.321 211.468 494.914 211.318 499.788 211.165L499.668 217.355C495.248 217.655 490.954 217.935 486.788 218.195C482.628 218.461 478.711 218.705 475.038 218.925ZM494.158 222.975L499.898 221.295C500.871 223.541 501.828 226.015 502.768 228.715C503.701 231.415 504.358 233.741 504.738 235.695L498.778 237.605C498.478 235.651 497.878 233.288 496.978 230.515C496.078 227.741 495.138 225.228 494.158 222.975ZM493.258 207.455L498.548 205.095C499.821 207.041 501.001 209.195 502.088 211.555C503.181 213.921 503.951 216.005 504.398 217.805L498.658 220.395C498.284 218.595 497.591 216.475 496.578 214.035C495.564 211.595 494.458 209.401 493.258 207.455ZM474.588 198.565L478.408 193.505C480.361 194.851 482.311 196.408 484.258 198.175C486.211 199.935 487.711 201.528 488.758 202.955L484.378 208.805C483.398 207.305 481.991 205.578 480.158 203.625C478.318 201.678 476.461 199.991 474.588 198.565ZM485.608 183.715L492.028 186.975C490.448 189.455 488.871 191.948 487.298 194.455C485.724 196.968 484.224 199.125 482.798 200.925L477.848 198.345C479.121 196.391 480.508 194.008 482.008 191.195C483.508 188.381 484.708 185.888 485.608 183.715ZM493.598 192.495L499.898 196.095C497.351 199.468 494.578 203.028 491.578 206.775C488.578 210.528 485.728 213.678 483.028 216.225L478.408 213.305C480.134 211.431 481.934 209.295 483.808 206.895C485.688 204.495 487.488 202.018 489.208 199.465C490.934 196.918 492.398 194.595 493.598 192.495ZM477.848 221.295L484.378 222.865C483.851 225.638 483.101 228.468 482.128 231.355C481.148 234.248 480.098 236.705 478.978 238.725C478.378 238.351 477.478 237.845 476.278 237.205C475.078 236.571 474.028 236.068 473.128 235.695C474.321 233.595 475.294 231.305 476.048 228.825C476.794 226.351 477.394 223.841 477.848 221.295ZM401.348 192.375L407.538 185.405C409.411 186.378 411.378 187.558 413.438 188.945C415.504 190.331 417.438 191.718 419.238 193.105C421.038 194.498 422.501 195.831 423.628 197.105L417.208 204.975C416.161 203.701 414.754 202.315 412.988 200.815C411.228 199.315 409.334 197.835 407.308 196.375C405.288 194.908 403.301 193.575 401.348 192.375ZM398.988 222.415L404.838 215.105C406.784 216.005 408.828 217.111 410.968 218.425C413.108 219.738 415.094 221.048 416.928 222.355C418.768 223.668 420.288 224.925 421.488 226.125L415.298 234.225C414.171 233.025 412.691 231.715 410.858 230.295C409.018 228.868 407.048 227.461 404.948 226.075C402.848 224.688 400.861 223.468 398.988 222.415ZM410.798 286.995L401.238 281.595C402.664 278.595 404.181 275.105 405.788 271.125C407.401 267.151 409.051 262.951 410.738 258.525C412.431 254.105 413.988 249.755 415.408 245.475L423.848 250.875C422.648 254.855 421.298 258.945 419.798 263.145C418.298 267.345 416.798 271.468 415.298 275.515C413.798 279.568 412.298 283.395 410.798 286.995Z" fill="white"/>
<path d="M381.5 176.837H246V317.337H381.5V176.837Z" stroke="white" stroke-width="2" stroke-dasharray="5 5"/>
<path d="M519 176.837H383.5V317.337H519V176.837Z" stroke="white" stroke-width="2" stroke-dasharray="5 5"/>
<path d="M382.5 19.8367V483.837" stroke="#008000" stroke-width="4" stroke-dasharray="16 8 4 8"/>
<path d="M361.381 503.837H354.793V500.543C353.917 500.375 353.239 499.967 352.759 499.319C352.291 498.671 352.057 497.801 352.057 496.709C352.057 495.989 352.165 495.365 352.381 494.837C352.609 494.309 352.927 493.889 353.335 493.577C353.743 493.253 354.229 493.037 354.793 492.929V490.985H355.981V492.857C356.365 492.869 356.725 492.911 357.061 492.983C357.409 493.055 357.721 493.157 357.997 493.289L357.691 494.207C357.427 494.075 357.151 493.979 356.863 493.919C356.587 493.847 356.293 493.805 355.981 493.793V499.661C356.257 499.649 356.557 499.613 356.881 499.553C357.205 499.481 357.517 499.385 357.817 499.265V500.201C357.625 500.285 357.421 500.357 357.205 500.417C357.001 500.477 356.791 500.525 356.575 500.561C356.371 500.585 356.173 500.603 355.981 500.615V502.757H361.381V503.837ZM353.173 496.673C353.173 497.441 353.305 498.071 353.569 498.563C353.833 499.055 354.241 499.385 354.793 499.553V493.883C354.241 494.039 353.833 494.357 353.569 494.837C353.305 495.317 353.173 495.929 353.173 496.673ZM371.143 503.837V492.473H366.897V490.952H377.11V492.473H372.848V503.837H371.143ZM377.98 503.837V494.503H379.404V495.918C379.768 495.256 380.102 494.819 380.406 494.608C380.717 494.397 381.057 494.292 381.426 494.292C381.959 494.292 382.501 494.462 383.052 494.802L382.507 496.269C382.12 496.041 381.733 495.927 381.347 495.927C381.001 495.927 380.69 496.032 380.415 496.243C380.14 496.448 379.943 496.735 379.826 497.104C379.65 497.667 379.562 498.282 379.562 498.95V503.837H377.98ZM390.083 502.685C389.497 503.183 388.932 503.535 388.387 503.74C387.848 503.945 387.268 504.048 386.646 504.048C385.621 504.048 384.833 503.799 384.282 503.301C383.731 502.797 383.456 502.155 383.456 501.376C383.456 500.919 383.559 500.503 383.764 500.128C383.975 499.747 384.247 499.442 384.581 499.214C384.921 498.985 385.302 498.812 385.724 498.695C386.034 498.613 386.503 498.534 387.13 498.458C388.407 498.306 389.348 498.124 389.951 497.913C389.957 497.696 389.96 497.558 389.96 497.5C389.96 496.855 389.811 496.401 389.512 496.138C389.107 495.78 388.507 495.601 387.71 495.601C386.966 495.601 386.415 495.733 386.058 495.997C385.706 496.255 385.445 496.715 385.275 497.377L383.729 497.166C383.869 496.504 384.101 495.971 384.423 495.566C384.745 495.156 385.211 494.843 385.82 494.626C386.43 494.403 387.136 494.292 387.938 494.292C388.735 494.292 389.383 494.386 389.881 494.573C390.379 494.761 390.745 494.998 390.979 495.285C391.214 495.566 391.378 495.924 391.472 496.357C391.524 496.627 391.551 497.113 391.551 497.816V499.926C391.551 501.396 391.583 502.328 391.647 502.721C391.718 503.107 391.853 503.479 392.052 503.837H390.399C390.235 503.509 390.13 503.125 390.083 502.685ZM389.951 499.152C389.377 499.387 388.516 499.586 387.367 499.75C386.717 499.844 386.257 499.949 385.987 500.066C385.718 500.183 385.51 500.356 385.363 500.585C385.217 500.807 385.144 501.056 385.144 501.332C385.144 501.754 385.302 502.105 385.618 502.387C385.94 502.668 386.409 502.808 387.024 502.808C387.634 502.808 388.176 502.677 388.65 502.413C389.125 502.143 389.474 501.777 389.696 501.314C389.866 500.957 389.951 500.43 389.951 499.732V499.152ZM394.39 503.837V495.733H392.992V494.503H394.39V493.51C394.39 492.883 394.445 492.417 394.557 492.112C394.709 491.702 394.976 491.371 395.356 491.119C395.743 490.861 396.282 490.732 396.974 490.732C397.419 490.732 397.911 490.785 398.45 490.89L398.213 492.27C397.885 492.212 397.574 492.182 397.281 492.182C396.801 492.182 396.461 492.285 396.262 492.49C396.062 492.695 395.963 493.079 395.963 493.641V494.503H397.782V495.733H395.963V503.837H394.39ZM399.065 503.837V495.733H397.668V494.503H399.065V493.51C399.065 492.883 399.121 492.417 399.232 492.112C399.385 491.702 399.651 491.371 400.032 491.119C400.419 490.861 400.958 490.732 401.649 490.732C402.095 490.732 402.587 490.785 403.126 490.89L402.889 492.27C402.561 492.212 402.25 492.182 401.957 492.182C401.477 492.182 401.137 492.285 400.938 492.49C400.738 492.695 400.639 493.079 400.639 493.641V494.503H402.458V495.733H400.639V503.837H399.065ZM403.706 492.771V490.952H405.288V492.771H403.706ZM403.706 503.837V494.503H405.288V503.837H403.706ZM413.796 500.418L415.352 500.62C415.182 501.692 414.745 502.533 414.042 503.142C413.345 503.746 412.486 504.048 411.467 504.048C410.189 504.048 409.161 503.632 408.382 502.8C407.608 501.962 407.222 500.764 407.222 499.205C407.222 498.197 407.389 497.315 407.723 496.559C408.057 495.804 408.563 495.238 409.243 494.863C409.929 494.482 410.673 494.292 411.476 494.292C412.489 494.292 413.318 494.55 413.963 495.065C414.607 495.575 415.021 496.302 415.202 497.245L413.664 497.482C413.518 496.855 413.257 496.384 412.882 496.067C412.513 495.751 412.064 495.593 411.537 495.593C410.74 495.593 410.093 495.88 409.595 496.454C409.097 497.022 408.848 497.925 408.848 499.161C408.848 500.415 409.088 501.326 409.568 501.894C410.049 502.463 410.676 502.747 411.449 502.747C412.07 502.747 412.589 502.556 413.005 502.176C413.421 501.795 413.685 501.209 413.796 500.418ZM367.284 524.837V511.952H368.989V523.316H375.335V524.837H367.284ZM383.263 523.685C382.677 524.183 382.111 524.535 381.566 524.74C381.027 524.945 380.447 525.048 379.826 525.048C378.801 525.048 378.013 524.799 377.462 524.301C376.911 523.797 376.636 523.155 376.636 522.376C376.636 521.919 376.738 521.503 376.943 521.128C377.154 520.747 377.427 520.442 377.761 520.214C378.101 519.985 378.481 519.812 378.903 519.695C379.214 519.613 379.683 519.534 380.31 519.458C381.587 519.306 382.527 519.124 383.131 518.913C383.137 518.696 383.14 518.558 383.14 518.5C383.14 517.855 382.99 517.401 382.691 517.138C382.287 516.78 381.687 516.601 380.89 516.601C380.146 516.601 379.595 516.733 379.237 516.997C378.886 517.255 378.625 517.715 378.455 518.377L376.908 518.166C377.049 517.504 377.28 516.971 377.603 516.566C377.925 516.156 378.391 515.843 379 515.626C379.609 515.403 380.315 515.292 381.118 515.292C381.915 515.292 382.562 515.386 383.061 515.573C383.559 515.761 383.925 515.998 384.159 516.285C384.394 516.566 384.558 516.924 384.651 517.357C384.704 517.627 384.73 518.113 384.73 518.816V520.926C384.73 522.396 384.763 523.328 384.827 523.721C384.897 524.107 385.032 524.479 385.231 524.837H383.579C383.415 524.509 383.31 524.125 383.263 523.685ZM383.131 520.152C382.557 520.387 381.695 520.586 380.547 520.75C379.896 520.844 379.437 520.949 379.167 521.066C378.897 521.183 378.689 521.356 378.543 521.585C378.396 521.807 378.323 522.056 378.323 522.332C378.323 522.754 378.481 523.105 378.798 523.387C379.12 523.668 379.589 523.808 380.204 523.808C380.813 523.808 381.355 523.677 381.83 523.413C382.305 523.143 382.653 522.777 382.876 522.314C383.046 521.957 383.131 521.43 383.131 520.732V520.152ZM387.191 524.837V515.503H388.615V516.83C389.301 515.805 390.291 515.292 391.586 515.292C392.148 515.292 392.664 515.394 393.133 515.599C393.607 515.799 393.962 516.062 394.196 516.39C394.431 516.719 394.595 517.108 394.688 517.559C394.747 517.852 394.776 518.365 394.776 519.098V524.837H393.194V519.159C393.194 518.514 393.133 518.034 393.01 517.718C392.887 517.395 392.667 517.14 392.351 516.953C392.04 516.76 391.674 516.663 391.252 516.663C390.578 516.663 389.995 516.877 389.503 517.305C389.017 517.732 388.773 518.544 388.773 519.739V524.837H387.191ZM403.601 521.831L405.235 522.033C404.978 522.988 404.5 523.729 403.803 524.257C403.105 524.784 402.215 525.048 401.131 525.048C399.766 525.048 398.682 524.629 397.879 523.791C397.082 522.947 396.684 521.766 396.684 520.249C396.684 518.679 397.088 517.46 397.896 516.593C398.705 515.725 399.754 515.292 401.043 515.292C402.291 515.292 403.311 515.717 404.102 516.566C404.893 517.416 405.288 518.611 405.288 520.152C405.288 520.246 405.285 520.387 405.279 520.574H398.318C398.377 521.599 398.667 522.385 399.188 522.93C399.71 523.474 400.36 523.747 401.14 523.747C401.72 523.747 402.215 523.595 402.625 523.29C403.035 522.985 403.36 522.499 403.601 521.831ZM398.406 519.273H403.618C403.548 518.488 403.349 517.899 403.021 517.507C402.517 516.897 401.863 516.593 401.061 516.593C400.334 516.593 399.722 516.836 399.224 517.322C398.731 517.808 398.459 518.459 398.406 519.273Z" fill="#008000"/>
<path d="M382.5 330.337H429.321" stroke="#FF0000" stroke-width="1.23212"/>
<path d="M382.5 318.337H429.321" stroke="#FF0000" stroke-width="1.23212"/>
<path d="M419.464 330.337V318.337" stroke="#FF0000" stroke-width="1.23212"/>
<path d="M419.464 330.337L415.767 345.122H423.16L419.464 330.337Z" fill="#FF0000"/>
<path d="M419.464 318.337L415.767 303.551H423.16L419.464 318.337Z" fill="#FF0000"/>
<path d="M435.664 329.4V326.931H440.516V329.4H435.664ZM447.731 332.837H445.262V323.529C444.359 324.373 443.296 324.997 442.071 325.401V323.16C442.716 322.949 443.416 322.551 444.172 321.965C444.928 321.373 445.446 320.684 445.728 319.899H447.731V332.837ZM451.959 332.837V330.367H454.429V332.837H451.959ZM460.616 319.899C461.864 319.899 462.84 320.345 463.543 321.235C464.381 322.29 464.8 324.039 464.8 326.482C464.8 328.92 464.378 330.672 463.534 331.738C462.837 332.617 461.864 333.056 460.616 333.056C459.362 333.056 458.352 332.576 457.584 331.615C456.816 330.648 456.433 328.929 456.433 326.456C456.433 324.03 456.855 322.284 457.698 321.218C458.396 320.339 459.368 319.899 460.616 319.899ZM460.616 321.947C460.317 321.947 460.051 322.044 459.816 322.237C459.582 322.425 459.4 322.764 459.272 323.257C459.102 323.895 459.017 324.971 459.017 326.482C459.017 327.994 459.093 329.034 459.245 329.602C459.397 330.165 459.588 330.54 459.816 330.727C460.051 330.915 460.317 331.009 460.616 331.009C460.915 331.009 461.182 330.915 461.416 330.727C461.65 330.534 461.832 330.191 461.961 329.699C462.131 329.066 462.216 327.994 462.216 326.482C462.216 324.971 462.14 323.933 461.987 323.371C461.835 322.803 461.642 322.425 461.407 322.237C461.179 322.044 460.915 321.947 460.616 321.947ZM466.118 330.174L468.597 329.796C468.702 330.276 468.916 330.642 469.238 330.894C469.561 331.14 470.012 331.264 470.592 331.264C471.23 331.264 471.711 331.146 472.033 330.912C472.25 330.748 472.358 330.528 472.358 330.253C472.358 330.065 472.3 329.91 472.183 329.787C472.06 329.67 471.784 329.561 471.356 329.462C469.364 329.022 468.102 328.621 467.568 328.258C466.83 327.754 466.461 327.054 466.461 326.157C466.461 325.348 466.78 324.669 467.419 324.118C468.058 323.567 469.048 323.292 470.39 323.292C471.667 323.292 472.616 323.5 473.237 323.916C473.858 324.332 474.286 324.947 474.521 325.762L472.191 326.192C472.092 325.829 471.901 325.551 471.62 325.357C471.345 325.164 470.949 325.067 470.434 325.067C469.783 325.067 469.317 325.158 469.036 325.34C468.849 325.469 468.755 325.636 468.755 325.841C468.755 326.016 468.837 326.166 469.001 326.289C469.224 326.453 469.991 326.684 471.304 326.983C472.622 327.282 473.542 327.648 474.064 328.082C474.579 328.521 474.837 329.134 474.837 329.919C474.837 330.774 474.48 331.51 473.765 332.125C473.05 332.74 471.992 333.048 470.592 333.048C469.32 333.048 468.313 332.79 467.568 332.274C466.83 331.759 466.347 331.058 466.118 330.174ZM478.748 332.837L475.795 323.503H478.194L479.943 329.62L481.552 323.503H483.934L485.489 329.62L487.273 323.503H489.708L486.711 332.837H484.338L482.73 326.834L481.147 332.837H478.748Z" fill="#FF0000"/>
<path d="M596.288 318H652.538V355.5C653.648 390.583 630.278 421.743 596.288 430.5C562.298 421.743 538.928 390.583 540.038 355.5V318H596.288Z" fill="#E9B500"/>
<path d="M578.456 335.838L578.64 335.654H579.925H583.046H584.515H585.8H586.35H586.901H590.573H592.042H593.511H594.061H594.612H600.304H601.589H602.69H603.975H605.077H605.995H607.097H607.831H611.136H613.155H613.89H614.624H615.358H616.093H619.214H619.765H621.968V348.873H621.233H617.929H616.643H612.972H612.054H610.952H610.034H609.3H608.749H605.077H604.343H603.792H600.487H598.1H597.366H594.245H593.694H591.491L590.757 349.424L590.573 351.994L590.39 352.545L590.206 353.647L590.022 354.932L589.472 358.971C596.479 354.717 603.455 353.922 610.401 356.584C616.949 359.491 621.417 363.958 623.804 369.986C628.057 392.385 620.897 404.869 602.323 407.44C586.595 408.388 576.865 401.962 573.132 388.162L577.171 386.877H577.722C578.211 386.571 578.701 386.387 579.19 386.326L579.925 386.143L580.659 385.959L581.026 385.775L582.495 385.408L583.964 385.041C585.065 384.49 586.106 384.184 587.085 384.123C587.483 386.724 588.462 388.866 590.022 390.549C594.612 394.924 599.447 395.598 604.526 392.568C609.789 388.407 611.564 383.144 609.85 376.779C607.953 372.036 604.71 369.283 600.12 368.518C594.612 368.181 590.573 370.201 588.003 374.576L587.085 374.393H586.35C584.973 374.056 583.811 373.872 582.862 373.842L580.292 373.291H579.741C579.16 373.169 578.67 373.107 578.272 373.107L577.905 372.924H577.171L576.62 372.74H576.069L574.784 372.373L573.132 372.19V371.639L573.315 370.904V370.354L573.682 369.068L573.866 367.416L574.05 365.947L574.233 365.213L574.6 362.092C574.723 361.51 574.784 361.021 574.784 360.623L574.968 359.338L575.151 358.971C575.212 357.686 575.396 356.584 575.702 355.666V354.565C575.947 353.585 576.069 352.729 576.069 351.994L576.253 351.627L576.436 350.342V349.791C576.559 349.21 576.62 348.72 576.62 348.322L576.804 347.221L576.987 346.486V345.936C577.171 345.446 577.232 344.956 577.171 344.467L577.354 343.549L577.538 342.998V342.264L577.722 341.713L578.089 338.592C578.211 338.01 578.272 337.521 578.272 337.123L578.456 335.838Z" fill="black"/>
</svg>
