<svg width="775" height="700" viewBox="0 0 775 700" fill="none" xmlns="http://www.w3.org/2000/svg">
<g clip-path="url(#clip0_0_1)">
<path d="M-77 129.375C-77 108.664 -60.2107 91.875 -39.5 91.875H1210.5C1231.21 91.875 1248 108.664 1248 129.375V654.377C1248 675.088 1231.21 691.877 1210.5 691.877H-39.5C-60.2107 691.877 -77 675.088 -77 654.377V129.375Z" fill="white"/>
<path d="M-58.25 129.375C-58.25 119.02 -49.8553 110.625 -39.5 110.625H1210.5C1220.86 110.625 1229.25 119.02 1229.25 129.375V654.377C1229.25 664.732 1220.86 673.127 1210.5 673.127H-39.5C-49.8553 673.127 -58.25 664.732 -58.25 654.377V129.375Z" fill="#0033A2"/>
<path d="M255.61 450.376L305.61 500.376V550.376L272.277 517.043V650.377H238.943V517.043L205.61 550.376V500.376L255.61 450.376Z" fill="white"/>
<path d="M182.592 315.545V306.435H228.745V315.545H182.592ZM176.617 333.655V324.765H235.207V333.655H176.617ZM163.187 352.555V343.335H248.437V352.555H163.187ZM175.241 290.455V281.905H209.339V290.455H175.241ZM201.405 287.645V281.905H211.499C213.59 284.979 216.121 287.959 219.094 290.845C222.067 293.739 225.348 296.422 228.936 298.895C232.53 301.369 236.287 303.582 240.207 305.535C244.126 307.482 248.077 309.132 252.06 310.485C251.346 311.085 250.53 311.872 249.613 312.845C248.701 313.819 247.819 314.832 246.965 315.885C246.118 316.932 245.432 317.905 244.91 318.805C239.684 316.632 234.525 313.932 229.433 310.705C224.335 307.479 219.614 303.899 215.271 299.965C210.927 296.025 207.188 291.919 204.053 287.645H201.405ZM199.254 283.035L207.676 286.745C204.477 291.692 200.589 296.265 196.014 300.465C191.444 304.665 186.561 308.379 181.364 311.605C176.173 314.832 170.933 317.645 165.643 320.045C165.184 319.292 164.563 318.392 163.779 317.345C162.995 316.292 162.179 315.259 161.332 314.245C160.484 313.239 159.732 312.435 159.076 311.835C164.435 309.955 169.661 307.592 174.753 304.745C179.851 301.892 184.505 298.629 188.715 294.955C192.93 291.282 196.443 287.309 199.254 283.035ZM200.821 349.745V310.595H210.324V349.745H200.821ZM162.507 270.315V260.535H249.125V270.315H162.507ZM183.376 279.655V251.985H192.591V279.655H183.376ZM218.458 280.215V251.985H227.665V280.215" fill="white"/>
<path d="M324.791 259.748V254.238H341.931V259.748H324.791ZM324.198 278.088V272.688H342.619V278.088H324.198ZM324.198 286.518V281.238H342.619V286.518H324.198ZM309.897 339.848V332.988H359.568V339.848H309.897ZM321.359 269.198V263.238H344.875V269.198H321.359ZM336.74 295.408H329.781V301.818H336.74V295.408ZM323.998 306.998V290.238H342.715V306.998H323.998ZM311.561 328.258V321.848H352.217V317.008H305.481V310.598H360.849V328.258H311.561ZM308.225 308.568V283.038H314.4V308.568H308.225ZM299.315 286.968L298.627 280.108C301.501 279.961 304.718 279.811 308.277 279.658C311.836 279.511 315.608 279.325 319.591 279.098V285.288C315.933 285.661 312.391 285.961 308.965 286.188C305.534 286.408 302.317 286.668 299.315 286.968ZM308.913 321.848H317.536C316.752 325.448 315.904 329.198 314.992 333.098C314.075 336.998 313.224 340.371 312.44 343.218L304.114 341.868C305.026 339.095 305.908 335.888 306.762 332.248C307.609 328.615 308.326 325.148 308.913 321.848ZM356.633 334.108V332.988H365.352C365.352 332.988 365.32 333.491 365.256 334.498C365.192 335.511 365.061 336.358 364.864 337.038C363.946 341.685 362.997 345.338 362.016 347.998C361.04 350.665 359.899 352.598 358.593 353.798C357.484 354.698 356.291 355.315 355.013 355.648C353.742 355.988 352.223 356.195 350.458 356.268C348.954 356.348 346.815 356.368 344.039 356.328C341.264 356.288 338.308 356.195 335.173 356.048C335.109 354.848 334.847 353.498 334.389 351.998C333.93 350.498 333.376 349.148 332.725 347.948C335.797 348.321 338.77 348.545 341.644 348.618C344.518 348.698 346.542 348.738 347.715 348.738C348.76 348.738 349.607 348.698 350.258 348.618C350.914 348.545 351.471 348.321 351.93 347.948C352.842 347.121 353.675 345.638 354.43 343.498C355.179 341.365 355.913 338.235 356.633 334.108ZM315.576 291.018L320.279 289.788C320.802 291.661 321.307 293.721 321.795 295.968C322.288 298.221 322.666 300.171 322.927 301.818L317.832 303.398C317.698 301.671 317.419 299.665 316.996 297.378C316.572 295.091 316.098 292.971 315.576 291.018ZM315.28 275.718L319.495 273.918C320.343 275.798 321.127 277.898 321.847 280.218C322.567 282.545 323.057 284.571 323.319 286.298L318.711 288.318C318.514 286.598 318.09 284.575 317.44 282.248C316.784 279.921 316.064 277.745 315.28 275.718ZM299.602 266.838L302.738 261.438C304.636 262.858 306.497 264.488 308.321 266.328C310.156 268.168 311.529 269.761 312.44 271.108L308.913 277.298C307.932 275.725 306.561 273.961 304.802 272.008C303.037 270.061 301.304 268.338 299.602 266.838ZM308.913 251.648L314.496 254.798C313.189 257.271 311.883 259.785 310.576 262.338C309.27 264.885 308.03 267.021 306.857 268.748L302.546 266.158C303.591 264.211 304.735 261.831 305.978 259.018C307.215 256.205 308.193 253.748 308.913 251.648ZM315.184 260.988L320.671 264.588C318.517 267.961 316.215 271.521 313.764 275.268C311.314 279.021 309.012 282.171 306.857 284.718L302.738 281.798C304.114 279.925 305.586 277.788 307.154 275.388C308.721 272.988 310.205 270.511 311.604 267.958C313.009 265.411 314.203 263.088 315.184 260.988ZM301.762 289.338L307.546 290.798C306.953 293.725 306.233 296.648 305.386 299.568C304.538 302.495 303.623 305.008 302.642 307.108C302.056 306.661 301.205 306.155 300.09 305.588C298.981 305.028 298.069 304.561 297.355 304.188C298.464 302.088 299.376 299.741 300.09 297.148C300.81 294.561 301.367 291.958 301.762 289.338ZM353.498 308.568V283.038H359.769V308.568H353.498ZM344.483 286.968L343.891 280.108C346.899 279.961 350.281 279.811 354.038 279.658C357.795 279.511 361.795 279.361 366.04 279.208L365.935 285.398C362.086 285.698 358.346 285.978 354.717 286.238C351.094 286.505 347.683 286.748 344.483 286.968ZM361.136 291.018L366.136 289.338C366.983 291.585 367.816 294.058 368.635 296.758C369.448 299.458 370.02 301.785 370.351 303.738L365.16 305.648C364.899 303.695 364.376 301.331 363.592 298.558C362.808 295.785 361.99 293.271 361.136 291.018ZM360.352 275.498L364.96 273.138C366.069 275.085 367.096 277.238 368.043 279.598C368.995 281.965 369.666 284.048 370.055 285.848L365.056 288.438C364.73 286.638 364.126 284.518 363.244 282.078C362.361 279.638 361.397 277.445 360.352 275.498ZM344.091 266.608L347.418 261.548C349.12 262.895 350.818 264.451 352.514 266.218C354.215 267.978 355.521 269.571 356.433 270.998L352.618 276.848C351.765 275.348 350.539 273.621 348.943 271.668C347.34 269.721 345.723 268.035 344.091 266.608ZM353.689 251.758L359.281 255.018C357.905 257.498 356.532 259.991 355.161 262.498C353.791 265.011 352.485 267.168 351.242 268.968L346.931 266.388C348.04 264.435 349.247 262.051 350.554 259.238C351.86 256.425 352.906 253.931 353.689 251.758ZM360.648 260.538L366.136 264.138C363.917 267.511 361.502 271.071 358.889 274.818C356.276 278.571 353.794 281.721 351.442 284.268L347.418 281.348C348.922 279.475 350.49 277.338 352.122 274.938C353.759 272.538 355.327 270.061 356.825 267.508C358.329 264.961 359.603 262.638 360.648 260.538ZM346.931 289.338L352.618 290.908C352.159 293.681 351.506 296.511 350.658 299.398C349.805 302.291 348.89 304.748 347.915 306.768C347.392 306.395 346.608 305.888 345.563 305.248C344.518 304.615 343.604 304.111 342.82 303.738C343.859 301.638 344.707 299.348 345.363 296.868C346.013 294.395 346.536 291.885 346.931 289.338ZM280.302 260.418L285.693 253.448C287.325 254.421 289.037 255.601 290.832 256.988C292.632 258.375 294.316 259.761 295.883 261.148C297.451 262.541 298.726 263.875 299.707 265.148L294.115 273.018C293.204 271.745 291.978 270.358 290.44 268.858C288.907 267.358 287.258 265.878 285.493 264.418C283.733 262.951 282.003 261.618 280.302 260.418ZM278.246 290.458L283.341 283.148C285.037 284.048 286.816 285.155 288.68 286.468C290.544 287.781 292.275 289.091 293.871 290.398C295.474 291.711 296.798 292.968 297.843 294.168L292.452 302.268C291.47 301.068 290.181 299.758 288.585 298.338C286.982 296.911 285.266 295.505 283.437 294.118C281.608 292.731 279.878 291.511 278.246 290.458ZM288.532 355.038L280.206 349.638C281.448 346.638 282.769 343.148 284.169 339.168C285.574 335.195 287.011 330.995 288.48 326.568C289.955 322.148 291.311 317.798 292.547 313.518L299.898 318.918C298.853 322.898 297.677 326.988 296.371 331.188C295.065 335.388 293.758 339.511 292.452 343.558C291.145 347.611 289.839 351.438 288.532 355.038Z" fill="white"/>
<path d="M263.015 244.88H144.999V385.38H263.015V244.88Z" stroke="white" stroke-width="2" stroke-dasharray="5 5"/>
<path d="M382.773 244.88H264.757V385.38H382.773V244.88Z" stroke="white" stroke-width="2" stroke-dasharray="5 5"/>
<path d="M21.3785 150.499H22.0231H22.6589H23.1379H23.7824H26.6566H27.3011H30.1753H31.1334H32.2569H35.4534H36.7337H38.014H39.2943H40.566H43.7711H44.2502H44.7292H49.685H50.7998H51.7666H52.8814H53.8395H54.6408H55.5989H56.2434H59.1176H60.8769H61.5214H62.1573H62.7931H63.4376H66.155H66.634H68.5502V164.459H67.5921H67.1131H63.9166H61.835H61.1992H58.3163H57.6805H57.036H56.4002H53.6827H53.2037H51.2876V220.819H49.206H48.5614H45.6873H45.0514H44.4069H43.7711H41.0537H40.566H38.6498V219.529V218.979V218.069V217.519V216.779V216.229V212.559V211.819V208.519V207.419V206.129V202.459V200.989V199.519V198.049V196.589V192.909V192.359V191.809V186.119V184.839V183.729V182.449V181.349V180.429V179.329V178.589V175.289V173.269V172.529V171.799V171.069V170.329V167.209V166.659V164.459H37.6918H37.2127H34.0163H31.9347H31.2989H28.416H27.7802H27.1356H26.4998H23.7824H23.3034H21.3785V160.779V159.869V159.319V158.579V157.849V157.109V156.379V153.259V152.709" fill="white"/>
<path d="M88.8336 169.575C96.9859 169.022 103.753 171.532 109.136 177.105L108.657 177.655L108.178 178.205C107.835 178.752 107.516 179.179 107.22 179.485L106.584 180.225L106.105 180.775C105.623 181.509 105.141 182.059 104.659 182.425L104.502 182.795L104.18 183.345L103.866 183.525L101.785 186.285C94.8288 179.645 89.4462 178.972 85.6371 184.265C85.6081 185.672 85.8723 186.895 86.4297 187.935L87.0742 188.115L87.5533 188.485H88.0323L88.5113 188.665L89.7917 188.855L92.3523 189.585C98.1878 189.645 102.932 191.725 106.584 195.825C109.65 201.059 110.288 206.322 108.5 211.615C106.741 216.209 104.023 219.269 100.348 220.795C88.3807 224.682 78.3588 222.235 70.282 213.455C70.7871 212.689 71.2662 212.075 71.7191 211.615L72.3636 211.255C73.0313 210.215 73.7775 209.419 74.602 208.865L75.081 208.125L75.4033 207.765L75.7168 207.395L76.0391 207.025L76.3613 206.845L76.6836 206.665C77.4559 205.532 78.202 204.675 78.922 204.095C84.2523 210.122 89.6349 212.202 95.0697 210.335L95.2265 209.965C95.9755 209.412 96.562 208.739 96.9859 207.945C97.0962 206.079 96.5649 204.672 95.392 203.725H94.9129L94.5907 203.355H94.1117L93.6326 203.175L93.3104 202.805C91.6846 202.499 90.352 202.132 89.3126 201.705C79.9062 201.212 74.6281 196.439 73.4784 187.385C73.612 176.492 78.7304 170.555 88.8336 169.575Z" fill="white"/>
<path d="M117.712 170.694H118.348H119.149H119.794H120.587H121.231H122.032H124.105H124.75H127.467H128.748H129.862L130.028 203.554C132.821 209.734 136.871 211.081 142.178 207.594C143.775 206.127 144.892 204.414 145.531 202.454V201.904V198.234V196.944V195.664V194.924V194.014V191.624V190.884V187.764V187.214V185.014V184.274V183.544V182.994V179.684V177.304V176.564V173.444V172.894V170.694H148.736H149.529H150.008H150.652H151.288H151.933H152.568H155.286H155.765H157.69V220.814H154.493H153.692H153.213H152.568H151.933H151.288H150.652H147.935H147.456H145.531V217.514C139.19 222.774 132.85 223.384 126.509 219.344C123.629 217.231 121.495 214.721 120.108 211.814L119.794 211.634L119.628 211.084L119.472 210.534C119.234 209.921 119.074 209.431 118.993 209.064L118.827 208.514C118.322 206.614 118.003 205.084 117.869 203.924L117.712 199.884V198.594V197.494V194.374V193.824V191.624V189.234V188.504V185.384V184.834V182.624V180.604V179.684V177.304V176.564V173.444V172.894" fill="white"/>
<path d="M184.599 169.657C197.628 169.444 205.038 176.724 206.826 191.497L207.305 193.887V195.177C207.514 197.351 207.566 199.124 207.462 200.497L206.983 200.317H206.504H203.307H202.828H202.349H197.385H196.27H195.312H194.188H193.23H192.429H191.471H190.835H187.952H186.193H185.557H184.912H184.277H183.641H180.915H180.436H178.519C179.106 205.637 181.504 208.817 185.714 209.857C190.963 210.777 195.335 209.247 198.83 205.267L200.111 206.927C200.616 207.321 200.988 207.747 201.226 208.207L201.548 208.397L201.705 208.757C202.239 209.217 202.666 209.647 202.985 210.047L203.307 210.597C203.493 210.717 203.598 210.841 203.621 210.967L203.943 211.147L204.265 211.517L204.422 211.877L204.744 212.067L204.901 212.427C205.435 212.887 205.862 213.317 206.181 213.717C201.147 221.064 194.22 223.817 185.4 221.977C174.606 219.864 168.474 212.337 167.005 199.397C166.047 182.997 171.912 173.084 184.599 169.657ZM187.316 181.037C182.41 181.924 179.53 184.924 178.676 190.037H179.643H180.758H182.839H187.795H190.034H190.513H191.314H191.793H192.429H192.908H196.113C194.911 184.524 191.979 181.524 187.316 181.037Z" fill="white"/>
<path d="M238.824 169.532C246.128 169.259 251.83 172.685 255.929 179.812L256.095 180.372L256.252 180.922L256.408 181.472C256.676 181.992 256.838 182.482 256.896 182.942L257.532 185.142V185.692C257.904 187.892 258.063 189.665 258.011 191.012V220.942H254.815H254.013H253.534H252.898H252.254H251.618H250.974H248.256H247.777H245.861V220.392V219.472V218.922V218.192V217.642V213.962V211.392V209.372V208.462V207.902V207.172V206.622V202.952V202.212V200.192V198.362V195.052V194.502V193.952V193.222V189.912V189.182C245.594 188.415 245.434 187.742 245.382 187.162C244.099 184.589 242.392 182.935 240.261 182.202C235.836 182.082 232.585 184.042 230.506 188.082L230.192 189.362V220.942H226.987H226.195H225.707H225.071H224.435H223.791H223.155H220.438H219.958H218.034V220.392V219.472V218.922V218.192V217.642V213.962V212.682V211.942V211.032V210.292V209.372V206.992V206.252V203.132V202.582V200.382V199.092V197.812V196.712V195.422V194.322V193.032V191.932V188.812V187.712V186.792V185.692V184.962V181.652V179.632V178.902V178.162V177.432V176.692V173.572V173.022V170.822H221.23H222.031H222.51H223.155H223.791H224.435H225.071H227.788H228.268H230.192C230.134 172.075 230.187 173.115 230.349 173.942C233.014 171.522 235.839 170.052 238.824 169.532Z" fill="white"/>
<path d="M290.671 150.955H291.472H292.43H293.232H293.711H294.512H295.148H295.627H296.428H297.229H297.708H299.624H300.103C301.543 150.862 302.772 150.922 303.788 151.135V151.685L304.423 154.815L304.58 155.915C304.691 156.095 304.746 156.278 304.746 156.465L304.903 157.015L305.059 157.385L305.225 158.295L305.704 161.235L305.861 161.605V162.155C306.261 163.255 306.476 164.295 306.505 165.275L306.819 166.375V166.925C307.219 168.032 307.434 169.072 307.463 170.045L307.785 170.965L307.942 171.885L308.099 172.985C308.581 174.638 308.848 176.045 308.9 177.205C309.249 178.158 309.461 179.015 309.536 179.775C309.699 180.542 309.806 181.215 309.858 181.795C310.259 182.928 310.474 183.972 310.503 184.925C310.741 185.625 310.901 186.235 310.982 186.755C311.139 187.522 311.243 188.195 311.295 188.775C311.644 189.935 311.859 190.915 311.94 191.715L312.097 192.635L312.576 194.465L312.741 195.755L313.377 198.325L313.534 197.405L313.699 196.855V196.305L313.856 195.755C314.042 194.435 314.257 193.332 314.501 192.445V191.715L314.657 191.165L315.136 188.775V188.225L315.293 187.495L315.459 186.935L315.615 186.385V185.835L315.938 184.555V184.005C316.094 183.298 316.202 182.685 316.26 182.165C316.446 181.552 316.55 181.002 316.573 180.515C316.922 179.075 317.137 177.852 317.218 176.845L317.375 175.925L317.532 175.375L318.498 170.045L318.655 169.135L318.812 168.585C318.945 167.632 319.105 166.835 319.291 166.195V165.645L319.613 164.175L320.258 160.505L320.414 160.135L320.737 157.935L320.893 157.385V156.835L321.373 154.995C321.477 153.835 321.637 152.855 321.852 152.055L322.017 150.955H322.81H323.768H324.412H327.286H329.046H329.69H330.326H330.971H331.606H334.324H334.803H336.728L336.884 152.245L337.207 153.525V154.265C337.602 155.945 337.866 157.352 337.999 158.485L338.487 161.055L338.966 163.255L339.123 164.175L339.28 165.455L339.445 166.565L339.602 167.665L339.924 168.585L340.081 169.685L340.238 170.605V171.155C340.348 171.335 340.403 171.518 340.403 171.705C340.618 172.438 340.725 173.112 340.725 173.725C340.83 173.905 340.882 174.088 340.882 174.275L341.039 174.635V175.185L341.361 176.655L341.683 178.865L341.997 179.965L342.163 181.065V181.615L342.485 183.085L342.642 184.185C342.961 185.165 343.121 186.082 343.121 186.935L343.277 187.675C343.573 188.595 343.733 189.392 343.756 190.065L343.922 190.615L344.079 192.085L344.401 193.545L344.558 194.655C344.987 196.062 345.202 197.285 345.202 198.325L345.681 197.225V196.485L345.995 195.015L346.16 194.465L346.317 193.915C346.422 192.908 346.581 192.052 346.796 191.345L347.118 189.875L347.275 188.775L347.441 188.405L347.597 187.125L348.233 184.555L348.399 183.265L348.721 181.985L348.878 180.695L349.2 179.415L349.357 178.675L349.679 177.205L350.637 172.615L350.794 171.515L351.116 170.045L351.438 168.765L351.595 167.665L351.917 166.565L352.074 165.825V165.095L352.231 164.355L352.396 163.805L352.553 163.435L352.875 161.235L353.198 159.765L353.511 158.485V157.935L353.677 157.385L353.833 156.835V156.275L354.156 154.995L354.313 154.445V153.895C354.684 152.762 354.899 151.782 354.957 150.955H355.593H358.467H360.226H360.871H361.507H362.151H362.787H365.504H365.983H367.908V151.505L367.743 152.605L367.264 154.075L367.107 155.365L366.628 157.935L366.463 158.485C366.224 159.892 365.96 161.055 365.67 161.975C365.641 162.675 365.533 163.285 365.348 163.805L364.39 168.585L364.224 169.135V169.685L364.067 170.785L363.745 172.255C363.478 173.108 363.318 173.842 363.266 174.455L363.109 174.825L362.953 176.105C362.685 177.118 362.523 177.975 362.465 178.675C362.227 179.382 362.067 179.995 361.986 180.515L361.829 181.245L361.672 181.795C361.643 182.502 361.536 183.115 361.35 183.635L361.193 184.735L361.028 185.475L360.871 185.835L360.705 187.125L360.07 189.695L359.591 192.815L359.268 194.285L358.955 195.565L358.789 196.675L358.633 197.405L358.467 197.955L358.31 198.325L357.988 200.525L357.509 202.915L357.352 203.465C357.137 204.905 356.87 206.068 356.551 206.955V207.685C356.284 208.605 356.124 209.402 356.072 210.075L355.915 210.625L355.75 211.175L355.436 212.645L355.271 213.925L354.635 216.495L354.469 217.785L353.833 221.085H352.875H352.396H349.2H348.399H347.92H347.118H346.474H345.995H345.202H344.401H343.922H341.997H341.518C340.078 221.179 338.853 221.119 337.843 220.905V220.355L337.686 219.985V219.435L337.52 218.885L337.207 216.685L336.405 212.455L336.24 211.175C335.816 209.488 335.552 208.082 335.447 206.955L335.125 205.485L334.803 204.015L334.646 202.725L334.489 201.445L334.167 200.345V199.605L333.688 197.405V196.855C333.235 195.168 332.968 193.762 332.887 192.635L332.564 191.525V190.615C332.46 190.428 332.408 190.245 332.408 190.065L332.251 189.695L331.606 185.655L331.45 184.925L330.971 181.985L330.648 180.515L330.492 179.775V179.045L330.326 178.315L330.004 177.025V176.475L329.69 175.005L329.368 173.725L329.211 174.275L329.046 175.375L328.889 176.105L328.732 177.205L328.088 180.695L327.765 181.985V182.535L327.13 185.475L326.973 186.935L326.651 188.405L326.328 189.875L326.172 191.345L325.849 192.815L325.527 195.015C325.155 196.395 324.943 197.558 324.891 198.505L324.569 199.605L324.412 200.525V201.075C324.226 201.782 324.119 202.395 324.09 202.915C323.904 203.528 323.797 204.078 323.768 204.565L323.454 205.485L323.132 208.055L322.975 208.975L322.81 209.705L322.174 213.015L321.695 215.585L321.529 216.685L321.216 218.155L320.737 221.085H319.77H319.291H316.094H315.293H314.814H314.022H313.377H312.898H312.097H311.295H310.816H308.9H308.421C306.981 221.179 305.756 221.119 304.746 220.905L304.58 219.435C304.104 217.782 303.84 216.375 303.788 215.215C303.625 214.755 303.518 214.325 303.465 213.925L303.143 212.455L302.821 210.995L302.507 209.705L302.342 208.235L302.185 207.505C301.866 206.492 301.706 205.635 301.706 204.935L301.549 204.195L300.748 201.075V200.345C300.347 199.118 300.133 198.015 300.103 197.035C299.703 195.935 299.491 194.958 299.468 194.105L299.145 192.995L298.989 191.525C298.878 191.345 298.823 191.162 298.823 190.975L298.031 187.305L297.708 185.835V185.285C297.389 184.398 297.229 183.605 297.229 182.905C297.067 182.445 296.959 182.015 296.907 181.615L296.585 180.335L296.428 179.045C296.138 178.125 295.978 177.328 295.949 176.655C295.467 175.068 295.2 173.722 295.148 172.615L294.825 171.705L294.669 170.785L294.512 169.685L294.346 168.765C294.242 168.425 294.19 168.118 294.19 167.845L293.867 167.115L293.388 164.175C293.121 163.255 292.962 162.458 292.909 161.785C292.671 161.085 292.564 160.475 292.587 159.955C292.111 158.515 291.847 157.228 291.794 156.095C291.527 155.362 291.368 154.688 291.315 154.075L291.15 153.525V152.975C290.883 152.242 290.723 151.568 290.671 150.955Z" fill="white"/>
<path d="M390.389 169.044C397.694 168.491 403.77 170.571 408.618 175.284L408.784 175.654C409.208 176.267 409.527 176.877 409.742 177.484C410.299 178.437 410.671 179.294 410.857 180.054V180.794C411.176 181.987 411.336 183.027 411.336 183.914V201.904C411.231 204.937 411.339 207.447 411.658 209.434C412.965 210.994 414.457 211.974 416.135 212.374L415.813 212.924L415.499 213.844L415.177 214.574L415.02 215.124L414.855 215.674L414.541 216.224L413.897 218.064L413.574 218.614L413.417 219.164L413.261 219.714L413.095 220.084L411.98 222.834C407.237 222.867 403.666 221.154 401.267 217.694C396.709 222.894 391.06 224.181 384.318 221.554C378.106 219.594 374.479 215.247 373.44 208.514C373.492 198.634 377.545 192.881 385.599 191.254C386.023 190.947 386.447 190.764 386.87 190.704H387.349C387.512 190.584 387.675 190.524 387.837 190.524L388.316 190.344L391.19 189.794L392.471 189.604L392.95 189.424L395.667 189.234C397.107 188.994 398.28 188.934 399.186 189.054C399.587 182.234 396.335 179.907 389.431 182.074L388.952 182.264L387.672 182.444L386.557 182.994L386.078 183.184L384.475 183.734C383.651 184.374 382.905 184.801 382.237 185.014C381.331 185.814 380.425 186.364 379.519 186.664L378.396 184.284L378.082 184.094L377.917 183.544L377.603 183.184L377.438 182.634C376.747 181.714 376.268 180.854 376.001 180.054C375.577 179.601 375.31 179.114 375.199 178.594C374.508 177.827 374.082 177.031 373.919 176.204L374.241 176.024L374.72 175.654L375.043 175.464C375.763 174.917 376.401 174.491 376.959 174.184C377.388 173.844 377.815 173.661 378.239 173.634L378.561 173.264C379.548 172.744 380.399 172.377 381.113 172.164L381.436 171.794H381.915C382.42 171.427 382.847 171.184 383.195 171.064H383.674C384.394 170.637 385.088 170.391 385.756 170.324C387.219 169.624 388.604 169.257 389.91 169.224L390.389 169.044ZM398.707 199.154L398.071 199.334H397.583C396.945 199.547 396.413 199.671 395.989 199.704H395.51C395.348 199.824 395.188 199.884 395.031 199.884L394.387 200.074H393.908L393.272 200.254L392.314 200.434C392.151 200.561 391.992 200.624 391.835 200.624L391.19 200.804L390.711 200.984C389.219 201.417 388.046 201.847 387.193 202.274C386.072 203.987 385.753 205.761 386.235 207.594C388.9 211.881 392.738 212.617 397.749 209.804L399.029 207.594L399.186 206.864V206.134V205.574V204.664V204.114V203.374V202.824V199.154" fill="white"/>
<path d="M444.807 169.532C452.112 169.259 457.814 172.685 461.913 179.812L462.079 180.372L462.235 180.922L462.392 181.472C462.659 181.992 462.822 182.482 462.88 182.942L463.516 185.142V185.692C463.887 187.892 464.047 189.665 463.995 191.012V220.942H460.798H459.997H459.518H458.882H458.238H457.602H456.957H454.24H453.761H451.845V220.392V219.472V218.922V218.192V217.642V213.962V211.392V209.372V208.462V207.902V207.172V206.622V202.952V202.212V200.192V198.362V195.052V194.502V193.952V193.222V189.912V189.182C451.578 188.415 451.418 187.742 451.366 187.162C450.082 184.589 448.375 182.935 446.244 182.202C441.82 182.082 438.568 184.042 436.49 188.082L436.176 189.362V220.942H432.971H432.178H431.691H431.055H430.419H429.774H429.139H426.421H425.942H424.017V220.392V219.472V218.922V218.192V217.642V213.962V212.682V211.942V211.032V210.292V209.372V206.992V206.252V203.132V202.582V200.382V199.092V197.812V196.712V195.422V194.322V193.032V191.932V188.812V187.712V186.792V185.692V184.962V181.652V179.632V178.902V178.162V177.432V176.692V173.572V173.022V170.822H427.214H428.015H428.494H429.139H429.774H430.419H431.055H433.772H434.251H436.176C436.118 172.075 436.17 173.115 436.333 173.942C438.998 171.522 441.823 170.052 444.807 169.532Z" fill="white"/>
<path d="M68.4516 146.875H20.9839V244.875H68.4516V146.875Z" stroke="white" stroke-width="2" stroke-dasharray="5 5"/>
<path d="M111.129 146.875H70.1935V244.875H111.129V146.875Z" stroke="white" stroke-width="2" stroke-dasharray="5 5"/>
<path d="M163.387 146.875H112.871V244.875H163.387V146.875Z" stroke="white" stroke-width="2" stroke-dasharray="5 5"/>
<path d="M211.29 146.875H165.129V244.875H211.29V146.875Z" stroke="white" stroke-width="2" stroke-dasharray="5 5"/>
<path d="M263.113 146.875H213.032V244.875H263.113V146.875Z" stroke="white" stroke-width="2" stroke-dasharray="5 5"/>
<path d="M284.887 146.875H264.855V244.875H284.887V146.875Z" stroke="white" stroke-width="2" stroke-dasharray="5 5"/>
<path d="M368.935 146.875H286.629V244.875H368.935V146.875Z" stroke="white" stroke-width="2" stroke-dasharray="5 5"/>
<path d="M417.274 146.875H370.677V244.875H417.274V146.875Z" stroke="white" stroke-width="2" stroke-dasharray="5 5"/>
<path d="M469.097 146.875H419.016V244.875H469.097V146.875Z" stroke="white" stroke-width="2" stroke-dasharray="5 5"/>
<path d="M542 203.491H560.75V130.5H523.25V203.491H542ZM542 352.328H560.75V253.103H523.25V352.328H542ZM542 501.164H560.75V401.94H523.25V501.164H542ZM542 650H560.75V550.776H523.25V650H542Z" fill="white"/>
<path d="M561.25 653H628.34" stroke="#FF0000" stroke-width="2.24575"/>
<path d="M561.25 554.949H628.338" stroke="#FF0000" stroke-width="2.24575"/>
<path d="M610.372 652.949V554.949" stroke="#FF0000" stroke-width="2.24575"/>
<path d="M610.372 653L603.635 679.949H617.11L610.372 653Z" fill="#FF0000"/>
<path d="M610.372 554.949L603.635 528H617.11L610.372 554.949Z" fill="#FF0000"/>
<path d="M637.214 614.362C635.44 614.362 633.872 614.047 632.511 613.419C631.159 612.781 630.104 611.907 629.346 610.796C628.588 609.676 628.214 608.402 628.222 606.972C628.214 605.852 628.433 604.819 628.881 603.871C629.329 602.915 629.94 602.119 630.716 601.481C631.499 600.836 632.373 600.426 633.338 600.254V600.099C632.072 599.772 631.064 599.061 630.315 597.967C629.566 596.865 629.195 595.612 629.204 594.208C629.195 592.864 629.536 591.663 630.225 590.604C630.914 589.544 631.861 588.709 633.067 588.097C634.281 587.486 635.663 587.18 637.214 587.18C638.747 587.18 640.116 587.486 641.322 588.097C642.528 588.709 643.475 589.544 644.164 590.604C644.862 591.663 645.215 592.864 645.224 594.208C645.215 595.612 644.832 596.865 644.074 597.967C643.324 599.061 642.33 599.772 641.089 600.099V600.254C642.045 600.426 642.907 600.836 643.673 601.481C644.44 602.119 645.051 602.915 645.508 603.871C645.964 604.819 646.197 605.852 646.205 606.972C646.197 608.402 645.809 609.676 645.043 610.796C644.285 611.907 643.23 612.781 641.878 613.419C640.534 614.047 638.979 614.362 637.214 614.362ZM637.214 611.52C638.411 611.52 639.444 611.326 640.314 610.938C641.184 610.551 641.856 610.004 642.33 609.297C642.803 608.591 643.045 607.764 643.053 606.817C643.045 605.818 642.786 604.935 642.278 604.169C641.77 603.402 641.077 602.799 640.198 602.36C639.328 601.921 638.333 601.701 637.214 601.701C636.086 601.701 635.078 601.921 634.191 602.36C633.312 602.799 632.619 603.402 632.111 604.169C631.611 604.935 631.366 605.818 631.374 606.817C631.366 607.764 631.594 608.591 632.059 609.297C632.533 610.004 633.209 610.551 634.087 610.938C634.966 611.326 636.008 611.52 637.214 611.52ZM637.214 598.962C638.161 598.962 639.001 598.773 639.733 598.394C640.474 598.015 641.055 597.485 641.477 596.805C641.899 596.124 642.114 595.328 642.123 594.415C642.114 593.519 641.903 592.74 641.49 592.076C641.077 591.405 640.504 590.888 639.772 590.526C639.04 590.156 638.187 589.971 637.214 589.971C636.223 589.971 635.358 590.156 634.617 590.526C633.876 590.888 633.304 591.405 632.899 592.076C632.494 592.74 632.296 593.519 632.305 594.415C632.296 595.328 632.498 596.124 632.912 596.805C633.334 597.485 633.915 598.015 634.656 598.394C635.396 598.773 636.249 598.962 637.214 598.962ZM665.264 598.601L662.525 599.376C662.353 598.919 662.099 598.476 661.763 598.045C661.436 597.606 660.988 597.244 660.42 596.96C659.851 596.676 659.123 596.533 658.236 596.533C657.022 596.533 656.01 596.813 655.2 597.373C654.399 597.924 653.999 598.626 653.999 599.479C653.999 600.237 654.274 600.836 654.826 601.275C655.377 601.714 656.238 602.08 657.409 602.373L660.355 603.096C662.129 603.527 663.451 604.186 664.321 605.073C665.191 605.951 665.626 607.084 665.626 608.471C665.626 609.608 665.299 610.624 664.644 611.52C663.998 612.415 663.094 613.122 661.931 613.638C660.768 614.155 659.416 614.413 657.875 614.413C655.851 614.413 654.175 613.974 652.849 613.096C651.523 612.217 650.683 610.934 650.33 609.246L653.224 608.522C653.499 609.59 654.02 610.391 654.787 610.925C655.562 611.459 656.574 611.726 657.823 611.726C659.244 611.726 660.372 611.425 661.208 610.822C662.052 610.21 662.474 609.478 662.474 608.626C662.474 607.937 662.233 607.36 661.75 606.895C661.268 606.421 660.527 606.068 659.528 605.835L656.221 605.06C654.404 604.629 653.069 603.962 652.216 603.058C651.372 602.145 650.95 601.003 650.95 599.634C650.95 598.514 651.264 597.524 651.893 596.663C652.53 595.801 653.396 595.125 654.49 594.634C655.592 594.143 656.841 593.898 658.236 593.898C660.2 593.898 661.742 594.329 662.861 595.19C663.99 596.051 664.791 597.188 665.264 598.601ZM674.711 614L668.665 594.156H671.869L676.158 609.349H676.365L680.602 594.156H683.858L688.044 609.297H688.25L692.54 594.156H695.743L689.697 614H686.7L682.359 598.756H682.049L677.708 614H674.711Z" fill="#FF0000"/>
<path d="M522.808 555H455.718" stroke="#FF0000" stroke-width="2.24575"/>
<path d="M522.808 503H455.72" stroke="#FF0000" stroke-width="2.24575"/>
<path d="M473.686 499.949V554.949" stroke="#FF0000" stroke-width="2.24575"/>
<path d="M473.686 555L480.423 581.949H466.949L473.686 555Z" fill="#FF0000"/>
<path d="M473.686 503.949L480.423 477H466.949L473.686 503.949Z" fill="#FF0000"/>
<path d="M396.119 536.574V533.939L407.746 515.542H409.658V519.624H408.366L399.581 533.525V533.732H415.239V536.574H396.119ZM408.573 542V535.773V534.546V515.542H411.622V542H408.573ZM434.188 526.601L431.449 527.376C431.277 526.919 431.023 526.476 430.687 526.045C430.36 525.606 429.912 525.244 429.343 524.96C428.775 524.676 428.047 524.533 427.16 524.533C425.946 524.533 424.934 524.813 424.124 525.373C423.323 525.924 422.922 526.626 422.922 527.479C422.922 528.237 423.198 528.836 423.749 529.275C424.301 529.714 425.162 530.08 426.333 530.373L429.279 531.096C431.053 531.527 432.375 532.186 433.245 533.073C434.115 533.951 434.55 535.084 434.55 536.471C434.55 537.608 434.222 538.624 433.568 539.52C432.922 540.415 432.017 541.122 430.855 541.638C429.692 542.155 428.34 542.413 426.798 542.413C424.774 542.413 423.099 541.974 421.773 541.096C420.446 540.217 419.607 538.934 419.253 537.246L422.147 536.522C422.423 537.59 422.944 538.391 423.711 538.925C424.486 539.459 425.498 539.726 426.747 539.726C428.168 539.726 429.296 539.425 430.131 538.822C430.975 538.21 431.397 537.478 431.397 536.626C431.397 535.937 431.156 535.36 430.674 534.895C430.192 534.421 429.451 534.068 428.452 533.835L425.145 533.06C423.327 532.629 421.992 531.962 421.14 531.058C420.296 530.145 419.874 529.003 419.874 527.634C419.874 526.514 420.188 525.524 420.817 524.663C421.454 523.801 422.32 523.125 423.413 522.634C424.516 522.143 425.765 521.898 427.16 521.898C429.124 521.898 430.665 522.329 431.785 523.19C432.913 524.051 433.714 525.188 434.188 526.601ZM443.635 542L437.589 522.156H440.793L445.082 537.349H445.289L449.526 522.156H452.782L456.967 537.297H457.174L461.463 522.156H464.667L458.621 542H455.624L451.283 526.756H450.973L446.632 542H443.635Z" fill="#FF0000"/>
<path d="M388.718 673H523.718" stroke="#FF0000" stroke-width="2.24575"/>
<path d="M388.718 654H523.718" stroke="#FF0000" stroke-width="2.24575"/>
<path d="M406.686 639.949V694.949" stroke="#FF0000" stroke-width="2.24575"/>
<path d="M406.686 673L413.423 699.949H399.949L406.686 673Z" fill="#FF0000"/>
<path d="M406.686 654.949L413.423 628H399.949L406.686 654.949Z" fill="#FF0000"/>
<path d="M299.041 643.542V670H295.837V646.901H295.682L289.222 651.19V647.934L295.837 643.542H299.041ZM307.36 670.207C306.723 670.207 306.176 669.978 305.72 669.522C305.263 669.066 305.035 668.519 305.035 667.881C305.035 667.244 305.263 666.697 305.72 666.241C306.176 665.784 306.723 665.556 307.36 665.556C307.998 665.556 308.545 665.784 309.001 666.241C309.458 666.697 309.686 667.244 309.686 667.881C309.686 668.303 309.578 668.691 309.363 669.044C309.156 669.397 308.876 669.681 308.523 669.897C308.179 670.103 307.791 670.207 307.36 670.207ZM322.841 670.362C321.325 670.362 319.96 670.06 318.745 669.457C317.531 668.855 316.558 668.028 315.826 666.977C315.094 665.926 314.693 664.729 314.624 663.385H317.725C317.845 664.583 318.388 665.573 319.352 666.357C320.326 667.132 321.488 667.52 322.841 667.52C323.926 667.52 324.89 667.265 325.734 666.757C326.587 666.249 327.255 665.552 327.737 664.664C328.228 663.769 328.473 662.757 328.473 661.628C328.473 660.474 328.219 659.445 327.711 658.541C327.212 657.628 326.523 656.909 325.644 656.383C324.766 655.858 323.762 655.591 322.634 655.582C321.824 655.574 320.993 655.699 320.141 655.957C319.288 656.207 318.586 656.53 318.035 656.926L315.038 656.564L316.639 643.542H330.385V646.384H319.327L318.396 654.187H318.552C319.094 653.756 319.775 653.399 320.593 653.115C321.411 652.831 322.264 652.688 323.151 652.688C324.77 652.688 326.212 653.076 327.479 653.851C328.753 654.618 329.752 655.668 330.476 657.003C331.208 658.338 331.574 659.863 331.574 661.577C331.574 663.265 331.195 664.772 330.437 666.098C329.688 667.416 328.654 668.458 327.336 669.225C326.019 669.983 324.52 670.362 322.841 670.362ZM350.814 654.601L348.075 655.376C347.902 654.919 347.648 654.476 347.313 654.045C346.985 653.606 346.537 653.244 345.969 652.96C345.4 652.676 344.673 652.533 343.786 652.533C342.571 652.533 341.559 652.813 340.75 653.373C339.949 653.924 339.548 654.626 339.548 655.479C339.548 656.237 339.824 656.836 340.375 657.275C340.926 657.714 341.787 658.08 342.959 658.373L345.904 659.096C347.679 659.527 349.001 660.186 349.87 661.073C350.74 661.951 351.175 663.084 351.175 664.471C351.175 665.608 350.848 666.624 350.193 667.52C349.548 668.415 348.643 669.122 347.48 669.638C346.318 670.155 344.966 670.413 343.424 670.413C341.4 670.413 339.725 669.974 338.398 669.096C337.072 668.217 336.232 666.934 335.879 665.246L338.773 664.522C339.049 665.59 339.57 666.391 340.336 666.925C341.111 667.459 342.123 667.726 343.372 667.726C344.793 667.726 345.922 667.425 346.757 666.822C347.601 666.21 348.023 665.478 348.023 664.626C348.023 663.937 347.782 663.36 347.3 662.895C346.817 662.421 346.077 662.068 345.078 661.835L341.77 661.06C339.953 660.629 338.618 659.962 337.765 659.058C336.921 658.145 336.499 657.003 336.499 655.634C336.499 654.514 336.814 653.524 337.442 652.663C338.08 651.801 338.945 651.125 340.039 650.634C341.142 650.143 342.39 649.898 343.786 649.898C345.749 649.898 347.291 650.329 348.411 651.19C349.539 652.051 350.34 653.188 350.814 654.601ZM360.261 670L354.215 650.156H357.418L361.708 665.349H361.914L366.152 650.156H369.407L373.593 665.297H373.8L378.089 650.156H381.293L375.247 670H372.249L367.909 654.756H367.599L363.258 670H360.261Z" fill="#FF0000"/>
<path d="M388.718 131H523.718" stroke="#FF0000" stroke-width="2.24575"/>
<path d="M388.718 112H523.718" stroke="#FF0000" stroke-width="2.24575"/>
<path d="M406.686 97.9491V152.949" stroke="#FF0000" stroke-width="2.24575"/>
<path d="M406.686 131L413.423 157.949H399.949L406.686 131Z" fill="#FF0000"/>
<path d="M406.686 112.949L413.423 86H399.949L406.686 112.949Z" fill="#FF0000"/>
<path d="M299.041 101.542V128H295.837V104.901H295.682L289.222 109.19V105.934L295.837 101.542H299.041ZM307.36 128.207C306.723 128.207 306.176 127.978 305.72 127.522C305.263 127.066 305.035 126.519 305.035 125.881C305.035 125.244 305.263 124.697 305.72 124.241C306.176 123.784 306.723 123.556 307.36 123.556C307.998 123.556 308.545 123.784 309.001 124.241C309.458 124.697 309.686 125.244 309.686 125.881C309.686 126.303 309.578 126.691 309.363 127.044C309.156 127.397 308.876 127.681 308.523 127.897C308.179 128.103 307.791 128.207 307.36 128.207ZM322.841 128.362C321.325 128.362 319.96 128.06 318.745 127.457C317.531 126.855 316.558 126.028 315.826 124.977C315.094 123.926 314.693 122.729 314.624 121.385H317.725C317.845 122.583 318.388 123.573 319.352 124.357C320.326 125.132 321.488 125.52 322.841 125.52C323.926 125.52 324.89 125.265 325.734 124.757C326.587 124.249 327.255 123.552 327.737 122.664C328.228 121.769 328.473 120.757 328.473 119.628C328.473 118.474 328.219 117.445 327.711 116.541C327.212 115.628 326.523 114.909 325.644 114.383C324.766 113.858 323.762 113.591 322.634 113.582C321.824 113.574 320.993 113.699 320.141 113.957C319.288 114.207 318.586 114.53 318.035 114.926L315.038 114.564L316.639 101.542H330.385V104.384H319.327L318.396 112.187H318.552C319.094 111.756 319.775 111.399 320.593 111.115C321.411 110.831 322.264 110.688 323.151 110.688C324.77 110.688 326.212 111.076 327.479 111.851C328.753 112.618 329.752 113.668 330.476 115.003C331.208 116.338 331.574 117.863 331.574 119.577C331.574 121.265 331.195 122.772 330.437 124.098C329.688 125.416 328.654 126.458 327.336 127.225C326.019 127.983 324.52 128.362 322.841 128.362ZM350.814 112.601L348.075 113.376C347.902 112.919 347.648 112.476 347.313 112.045C346.985 111.606 346.537 111.244 345.969 110.96C345.4 110.676 344.673 110.533 343.786 110.533C342.571 110.533 341.559 110.813 340.75 111.373C339.949 111.924 339.548 112.626 339.548 113.479C339.548 114.237 339.824 114.836 340.375 115.275C340.926 115.714 341.787 116.08 342.959 116.373L345.904 117.096C347.679 117.527 349.001 118.186 349.87 119.073C350.74 119.951 351.175 121.084 351.175 122.471C351.175 123.608 350.848 124.624 350.193 125.52C349.548 126.415 348.643 127.122 347.48 127.638C346.318 128.155 344.966 128.413 343.424 128.413C341.4 128.413 339.725 127.974 338.398 127.096C337.072 126.217 336.232 124.934 335.879 123.246L338.773 122.522C339.049 123.59 339.57 124.391 340.336 124.925C341.111 125.459 342.123 125.726 343.372 125.726C344.793 125.726 345.922 125.425 346.757 124.822C347.601 124.21 348.023 123.478 348.023 122.626C348.023 121.937 347.782 121.36 347.3 120.895C346.817 120.421 346.077 120.068 345.078 119.835L341.77 119.06C339.953 118.629 338.618 117.962 337.765 117.058C336.921 116.145 336.499 115.003 336.499 113.634C336.499 112.514 336.814 111.524 337.442 110.663C338.08 109.801 338.945 109.125 340.039 108.634C341.142 108.143 342.39 107.898 343.786 107.898C345.749 107.898 347.291 108.329 348.411 109.19C349.539 110.051 350.34 111.188 350.814 112.601ZM360.261 128L354.215 108.156H357.418L361.708 123.349H361.914L366.152 108.156H369.407L373.593 123.297H373.8L378.089 108.156H381.293L375.247 128H372.249L367.909 112.756H367.599L363.258 128H360.261Z" fill="#FF0000"/>
<path d="M612.269 163.93V152.91H662.939V163.93H643.659V223.23H631.549V163.93" fill="white"/>
<path d="M702.566 177.515L703.126 178.615C704.559 180.395 705.476 182.231 705.876 184.125C705.996 184.918 706.086 185.661 706.146 186.355C706.212 187.041 706.246 187.645 706.246 188.165V212.395C707.372 214.635 709.022 215.981 711.196 216.435L710.836 216.985C710.709 217.205 710.586 217.328 710.466 217.355L710.286 217.905L709.916 218.275C709.609 218.948 709.242 219.498 708.816 219.925C708.382 221.058 707.829 221.915 707.156 222.495C706.882 223.108 706.622 223.638 706.376 224.085C706.136 224.525 705.909 224.915 705.696 225.255C702.116 224.335 699.299 222.681 697.246 220.295H696.696C692.749 223.141 688.679 224.565 684.486 224.565C682.219 224.565 679.986 224.181 677.786 223.415C671.206 221.061 667.229 216.778 665.856 210.565V210.335C665.856 198.495 672.786 192.575 686.646 192.575H686.786C687.059 192.448 687.362 192.385 687.696 192.385L688.246 192.205H689.536L690.086 192.025H690.636L695.226 191.475C695.286 191.135 695.316 190.828 695.316 190.555V189.635C695.316 184.521 692.609 181.965 687.196 181.965C683.429 181.965 678.272 183.235 671.726 185.775L670.996 184.125L670.626 183.025L670.256 182.655L670.076 182.295L669.706 181.185C669.372 180.638 669.129 180.088 668.976 179.535C668.329 178.681 667.899 177.825 667.686 176.965L668.236 176.785L668.606 176.595L669.156 176.415L669.526 176.045H670.076C670.196 175.925 670.302 175.865 670.396 175.865H670.446C671.546 175.285 672.522 174.855 673.376 174.575L674.296 174.395C674.969 174.088 675.582 173.905 676.136 173.845L677.606 173.475C678.672 173.048 679.712 172.805 680.726 172.745L684.766 172.005C685.372 171.945 685.959 171.891 686.526 171.845C687.092 171.798 687.652 171.775 688.206 171.775C694.046 171.775 698.832 173.688 702.566 177.515ZM690.816 200.835H689.716C689.442 200.895 689.176 200.941 688.916 200.975C688.656 201.001 688.402 201.015 688.156 201.015H687.886L687.146 201.205H686.596C686.442 201.325 686.259 201.385 686.046 201.385H685.496L682.556 202.115H682.006C681.152 202.608 680.419 202.915 679.806 203.035C677.819 204.935 676.826 206.771 676.826 208.545C676.826 210.165 677.636 211.755 679.256 213.315C681.609 214.755 683.902 215.475 686.136 215.475C688.982 215.475 691.706 214.328 694.306 212.035C694.552 211.328 694.799 210.838 695.046 210.565L695.226 210.015L695.046 209.275V200.645H691.376C691.222 200.771 691.036 200.835 690.816 200.835Z" fill="white"/>
<path d="M722.182 223.411V173.291H733.382V223.411H722.182ZM734.482 158.601V159.201C734.482 161.741 733.685 163.805 732.092 165.391C730.412 166.218 728.865 166.631 727.452 166.631C725.005 166.631 723.065 165.301 721.632 162.641C721.352 161.568 721.212 160.621 721.212 159.801C721.212 156.675 722.942 154.561 726.402 153.461H726.862C730.748 153.461 733.288 155.175 734.482 158.601Z" fill="white"/>
<path d="M773.441 153.464V153.094H786.111L786.291 154.384L786.481 154.934L786.841 156.224L787.211 158.424L787.761 160.254L788.131 162.464L788.681 164.294L788.861 165.764C789.075 166.284 789.198 166.714 789.231 167.054L789.411 167.784L789.781 168.884V169.624C789.901 169.717 789.961 169.807 789.961 169.894V170.544C790.301 171.217 790.488 171.951 790.521 172.744L790.881 173.844L791.251 175.134L791.621 177.334L792.171 179.164L792.351 180.274L793.451 184.864C793.545 185.291 793.631 185.681 793.711 186.034C793.785 186.381 793.821 186.724 793.821 187.064L794.191 187.794V188.534L794.551 189.454V190.184L794.921 190.914V191.654C795.261 192.574 795.445 193.371 795.471 194.044L795.661 194.774C795.875 195.387 796.041 195.954 796.161 196.474C796.281 196.994 796.358 197.467 796.391 197.894L796.761 199.364L797.131 200.644L797.491 199.544L798.231 195.874L798.591 194.954L798.781 193.854L799.331 191.284L799.701 190.004V189.454L800.431 186.514L800.611 185.414L800.981 184.674L801.161 183.944L801.351 183.024V182.294L801.531 181.734L802.271 178.804L802.631 176.594L802.821 175.864L803.181 175.134C803.248 174.154 803.431 173.294 803.731 172.554L803.921 171.644V171.094L804.291 169.624L804.471 169.074L805.021 166.684L805.201 165.584L805.571 164.484L805.751 163.564L806.301 161.174L806.491 160.254L806.671 159.894C806.705 159.554 806.745 159.224 806.791 158.904C806.838 158.584 806.921 158.301 807.041 158.054L807.221 157.504V156.954L807.411 156.224L807.591 155.664L808.141 153.094H821.731V153.644C822.158 154.717 822.401 155.761 822.461 156.774L822.831 158.234L823.011 158.794L823.751 162.094L824.111 163.564C824.358 164.451 824.481 165.184 824.481 165.764C824.695 166.284 824.818 166.714 824.851 167.054L825.211 168.334L825.401 169.624L825.581 170.354L825.771 170.904C825.858 171.304 825.935 171.664 826.001 171.984C826.061 172.304 826.105 172.617 826.131 172.924C826.378 173.504 826.548 174.041 826.641 174.534C826.735 175.021 826.811 175.464 826.871 175.864L827.051 176.964L827.421 177.884L827.601 178.984V179.534C827.908 180.267 828.091 180.941 828.151 181.554L828.341 182.654C828.641 183.387 828.825 184.061 828.891 184.674L829.071 185.594L829.621 187.614V188.344C829.741 188.624 829.801 188.931 829.801 189.264C830.141 189.971 830.328 190.584 830.361 191.104L830.541 192.024L830.721 193.124L830.911 193.854C831.218 194.801 831.401 195.657 831.461 196.424C831.581 196.517 831.641 196.611 831.641 196.704V197.344C832.068 198.417 832.315 199.457 832.381 200.464C832.561 200.404 832.681 200.281 832.741 200.094C832.895 199.334 833.048 198.671 833.201 198.104C833.355 197.537 833.508 197.041 833.661 196.614V195.874C834.061 194.774 834.305 193.794 834.391 192.934L834.761 191.654L835.501 188.714L835.681 187.244L836.051 185.964L836.231 185.414V184.864C836.445 184.277 836.615 183.747 836.741 183.274C836.861 182.801 836.935 182.351 836.961 181.924L837.331 180.634L838.801 174.574L839.351 171.644L839.721 170.174C840.055 169.287 840.238 168.554 840.271 167.974L840.451 167.054L840.821 165.584C841.095 164.697 841.278 163.964 841.371 163.384L841.551 162.644L842.111 160.074L842.471 158.974V158.424L843.021 156.954V156.224L843.211 155.664L843.761 153.094H856.241L855.511 156.774L854.961 158.974L854.771 159.524L854.221 162.094L853.861 163.564L853.491 164.844L852.751 168.524L852.391 169.804L851.651 173.294L851.291 174.574L851.101 175.134L850.731 177.144L850.551 177.514L850.371 178.804C850.065 179.811 849.881 180.667 849.821 181.374L849.081 183.574L848.901 184.864L848.711 185.594L848.531 186.144L848.351 187.434L848.161 187.984L847.061 192.574L846.881 193.854L846.511 195.144L845.591 198.814L845.411 200.094L844.311 204.684L843.761 207.254C843.421 208.174 843.238 208.971 843.211 209.644L842.471 212.034V212.764C842.138 213.684 841.955 214.481 841.921 215.154C841.615 216.161 841.431 217.017 841.371 217.724L841.001 219.004L840.821 219.374L840.641 220.664C840.335 221.671 840.151 222.527 840.091 223.234H826.501L826.321 221.764C826.108 221.244 825.985 220.814 825.951 220.474L825.581 219.004L825.401 217.724L825.031 216.434C824.938 216.067 824.861 215.717 824.801 215.384C824.741 215.044 824.695 214.721 824.661 214.414L824.481 213.684L824.301 212.764C824.175 212.611 824.111 212.427 824.111 212.214L823.931 211.294L823.751 210.744C823.658 210.351 823.581 209.991 823.521 209.664C823.455 209.344 823.408 209.031 823.381 208.724C823.168 208.144 823.008 207.611 822.901 207.124C822.795 206.631 822.708 206.187 822.641 205.794L822.461 205.054L822.281 204.134C822.155 203.767 822.068 203.417 822.021 203.084C821.981 202.744 821.945 202.421 821.911 202.114C821.698 201.507 821.531 200.927 821.411 200.374C821.285 199.821 821.208 199.301 821.181 198.814C821.055 198.661 820.991 198.477 820.991 198.264L820.811 197.524L820.631 196.974C820.538 196.334 820.415 195.724 820.261 195.144L819.891 193.484L819.711 192.384L819.341 191.474L818.971 189.264L818.791 188.714V188.164C818.485 187.431 818.301 186.757 818.241 186.144L817.871 183.944L817.501 183.024L817.141 181.554V180.824C816.775 179.811 816.591 178.954 816.591 178.254C816.465 178.101 816.401 177.917 816.401 177.704L816.221 177.144V176.594C815.915 175.894 815.731 175.161 815.671 174.394C815.365 173.414 815.181 172.497 815.121 171.644L814.751 172.374L814.571 173.474L814.021 175.864L813.651 177.884L813.461 178.434L812.731 181.554L812.551 182.294L812.181 184.124L812.001 184.864L811.631 186.884L811.451 187.434L810.711 190.914L810.341 192.204L810.161 193.484C809.828 194.404 809.645 195.201 809.611 195.874L809.431 196.244L809.241 197.344L809.061 197.894L808.141 202.484L807.961 203.034L807.221 206.524L807.041 207.254L806.861 208.174L806.671 208.724L805.941 212.214L805.571 213.684L805.201 215.524L805.021 215.884L804.651 217.544L804.471 218.274L804.291 219.554C804.071 220.321 803.948 220.934 803.921 221.394C803.795 221.701 803.711 221.991 803.671 222.264C803.625 222.544 803.585 222.804 803.551 223.044C803.125 223.111 802.735 223.164 802.381 223.204C802.028 223.251 801.685 223.274 801.351 223.274H800.891C800.738 223.274 800.585 223.261 800.431 223.234H789.781V222.494C789.355 221.394 789.111 220.354 789.051 219.374C788.925 219.221 788.861 219.037 788.861 218.824L788.681 217.904C788.008 215.731 787.578 213.894 787.391 212.394L787.211 211.844L786.291 208.364L786.111 206.894L784.641 201.204V200.464C784.335 199.764 784.151 199.031 784.091 198.264L783.721 197.164L783.361 195.874V195.324L782.441 191.654V191.104L782.251 190.364L781.891 189.634L781.701 188.164C781.461 187.431 781.265 186.757 781.111 186.144C780.958 185.531 780.851 184.981 780.791 184.494L780.601 183.944V183.394C780.481 183.241 780.421 183.057 780.421 182.844L780.051 181.374L779.871 180.824C779.745 180.177 779.628 179.594 779.521 179.074C779.415 178.554 779.285 178.097 779.131 177.704L778.951 176.414C778.738 175.801 778.568 175.234 778.441 174.714C778.321 174.194 778.245 173.721 778.211 173.294L778.031 172.374C777.911 172.221 777.851 172.037 777.851 171.824L776.931 168.154L776.561 166.864L776.381 165.954L776.201 165.214L776.011 163.934C775.765 163.287 775.641 162.734 775.641 162.274V162.094L775.281 161.174L775.091 160.444C774.971 159.557 774.788 158.821 774.541 158.234V157.504C774.421 157.351 774.361 157.167 774.361 156.954" fill="white"/>
<path d="M662.25 146.88H611.75V244.88H662.25V146.88Z" stroke="white" stroke-width="2" stroke-dasharray="5 5"/>
<path d="M714.25 146.88H664.25V244.88H714.25V146.88Z" stroke="white" stroke-width="2" stroke-dasharray="5 5"/>
<path d="M741.25 146.88H716.25V244.88H741.25V146.88Z" stroke="white" stroke-width="2" stroke-dasharray="5 5"/>
<path d="M766.25 146.88H743.25V244.88H766.25V146.88Z" stroke="white" stroke-width="2" stroke-dasharray="5 5"/>
<path d="M857.75 146.88H768.25V244.88H857.75V146.88Z" stroke="white" stroke-width="2" stroke-dasharray="5 5"/>
<path d="M657.5 294.395V283.365H756.95V294.395H657.5ZM702.84 290.345L713.52 287.755C715.927 296.609 719.174 304.859 723.26 312.505C727.347 320.159 732.37 326.852 738.33 332.585C744.297 338.325 751.217 342.845 759.09 346.145C758.19 346.892 757.234 347.865 756.22 349.065C755.207 350.265 754.25 351.485 753.35 352.725C752.45 353.965 751.7 355.072 751.1 356.045C742.774 352.145 735.517 346.989 729.33 340.575C723.144 334.162 717.914 326.719 713.64 318.245C709.367 309.772 705.767 300.472 702.84 290.345ZM701.15 251.985H712.74C712.74 257.305 712.607 263.022 712.34 269.135C712.08 275.249 711.5 281.532 710.6 287.985C709.7 294.432 708.237 300.882 706.21 307.335C704.19 313.782 701.377 320.005 697.77 326.005C694.177 332.005 689.567 337.575 683.94 342.715C678.314 347.849 671.45 352.329 663.35 356.155C662.45 354.729 661.25 353.172 659.75 351.485C658.25 349.799 656.75 348.392 655.25 347.265C663.05 343.745 669.63 339.639 674.99 334.945C680.357 330.259 684.707 325.159 688.04 319.645C691.38 314.139 693.95 308.422 695.75 302.495C697.55 296.569 698.827 290.642 699.58 284.715C700.327 278.795 700.777 273.059 700.93 267.505C701.077 261.959 701.15 256.785 701.15 251.985Z" fill="white"/>
<path d="M774.25 244.88H638.75V385.38H774.25V244.88Z" stroke="white" stroke-width="2" stroke-dasharray="5 5"/>
<path d="M473 144.623V49.4534" stroke="#46C147" stroke-width="3.03189"/>
<path d="M523 144.623V49.4534" stroke="#46C147" stroke-width="3.03189"/>
<path d="M474 73.6997H519" stroke="#46C147" stroke-width="3.03189"/>
<path d="M518 73.6997L542.255 67.6381V79.7613L518 73.6997Z" fill="#46C147"/>
<path d="M473.255 73.6997L449 67.6381V79.7613L473.255 73.6997Z" fill="#46C147"/>
<path d="M391.759 52.9267V56H374.544C374.521 55.2302 374.645 54.49 374.917 53.7794C375.356 52.6069 376.054 51.4522 377.014 50.3152C377.985 49.1782 379.382 47.8636 381.206 46.3714C384.037 44.0501 385.95 42.2144 386.944 40.8642C387.939 39.5022 388.437 38.2172 388.437 37.0092C388.437 35.742 387.981 34.6761 387.069 33.8115C386.169 32.9351 384.99 32.4969 383.534 32.4969C381.994 32.4969 380.762 32.9588 379.838 33.8826C378.915 34.8063 378.447 36.0854 378.435 37.7198L375.148 37.3823C375.373 34.9307 376.22 33.0654 377.689 31.7863C379.157 30.4954 381.129 29.8499 383.605 29.8499C386.104 29.8499 388.081 30.5427 389.538 31.9284C390.995 33.3141 391.723 35.0314 391.723 37.0803C391.723 38.1225 391.51 39.1469 391.084 40.1536C390.657 41.1603 389.947 42.2203 388.952 43.3335C387.969 44.4468 386.329 45.9746 384.031 47.9169C382.112 49.5276 380.881 50.6231 380.336 51.2034C379.791 51.7719 379.341 52.3463 378.986 52.9267H391.759ZM396.999 56V52.3582H400.641V56H396.999ZM405.331 49.1782L408.689 48.894C408.937 50.5284 409.512 51.7601 410.412 52.5891C411.324 53.4063 412.419 53.8149 413.699 53.8149C415.238 53.8149 416.541 53.2346 417.607 52.0739C418.673 50.9133 419.206 49.3737 419.206 47.455C419.206 45.6312 418.69 44.1922 417.66 43.1381C416.642 42.0841 415.303 41.557 413.645 41.557C412.615 41.557 411.685 41.7939 410.856 42.2676C410.027 42.7295 409.376 43.3335 408.902 44.0797L405.9 43.6888L408.422 30.3118H421.373V33.3674H410.98L409.577 40.3668C411.14 39.2772 412.781 38.7324 414.498 38.7324C416.772 38.7324 418.69 39.52 420.254 41.0952C421.817 42.6703 422.599 44.6955 422.599 47.1708C422.599 49.5276 421.912 51.5647 420.538 53.282C418.868 55.3901 416.588 56.4441 413.699 56.4441C411.33 56.4441 409.393 55.7809 407.889 54.4544C406.397 53.128 405.544 51.3693 405.331 49.1782ZM425.192 50.3685L428.355 49.8711C428.532 51.1383 429.024 52.1095 429.829 52.7845C430.646 53.4596 431.783 53.7971 433.24 53.7971C434.709 53.7971 435.798 53.5011 436.509 52.9089C437.219 52.3049 437.575 51.6002 437.575 50.7949C437.575 50.0724 437.261 49.5039 436.633 49.0894C436.195 48.8052 435.105 48.4439 433.364 48.0057C431.019 47.4136 429.391 46.9043 428.479 46.478C427.579 46.0398 426.892 45.4417 426.418 44.6837C425.956 43.9139 425.725 43.0671 425.725 42.1433C425.725 41.3024 425.915 40.5267 426.294 39.8161C426.685 39.0936 427.212 38.4955 427.875 38.0218C428.372 37.6547 429.047 37.3467 429.9 37.098C430.765 36.8375 431.689 36.7072 432.672 36.7072C434.152 36.7072 435.449 36.9204 436.562 37.3467C437.687 37.7731 438.516 38.3534 439.049 39.0877C439.582 39.8102 439.949 40.7813 440.151 42.0012L437.024 42.4275C436.882 41.4564 436.467 40.6984 435.78 40.1536C435.105 39.6088 434.146 39.3364 432.902 39.3364C431.434 39.3364 430.386 39.5792 429.758 40.0648C429.13 40.5504 428.817 41.1188 428.817 41.7702C428.817 42.1847 428.947 42.5578 429.207 42.8894C429.468 43.2329 429.877 43.5171 430.433 43.7421C430.753 43.8606 431.694 44.133 433.258 44.5593C435.52 45.1633 437.095 45.6608 437.983 46.0516C438.883 46.4306 439.588 46.9872 440.097 47.7215C440.607 48.4558 440.861 49.3677 440.861 50.4573C440.861 51.5232 440.547 52.5299 439.92 53.4774C439.304 54.413 438.41 55.1414 437.237 55.6625C436.065 56.1717 434.738 56.4264 433.258 56.4264C430.806 56.4264 428.935 55.9171 427.644 54.8986C426.365 53.88 425.548 52.37 425.192 50.3685ZM448.145 56L442.371 37.1336H445.676L448.678 48.0235L449.797 52.0739C449.844 51.8726 450.17 50.5758 450.774 48.1834L453.776 37.1336H457.063L459.888 48.0768L460.829 51.6831L461.913 48.0413L465.146 37.1336H468.255L462.357 56H459.035L456.033 44.7015L455.304 41.486L451.485 56H448.145Z" fill="#46C147"/>
<path d="M562 146.623V31.4534" stroke="#46C147" stroke-width="3.03189"/>
<path d="M612 146.623V31.4534" stroke="#46C147" stroke-width="3.03189"/>
<path d="M563 55.6997H608" stroke="#46C147" stroke-width="3.03189"/>
<path d="M607 55.6997L631.255 49.6381V61.7613L607 55.6997Z" fill="#46C147"/>
<path d="M562.255 55.6997L538 49.6381V61.7613L562.255 55.6997Z" fill="#46C147"/>
<path d="M634.759 34.9267V38H617.544C617.521 37.2302 617.645 36.49 617.918 35.7794C618.356 34.6069 619.054 33.4522 620.014 32.3152C620.985 31.1782 622.382 29.8636 624.206 28.3714C627.037 26.0501 628.95 24.2144 629.944 22.8642C630.939 21.5022 631.437 20.2172 631.437 19.0092C631.437 17.742 630.981 16.6761 630.069 15.8115C629.169 14.9351 627.99 14.4969 626.534 14.4969C624.994 14.4969 623.762 14.9588 622.838 15.8826C621.915 16.8063 621.447 18.0854 621.435 19.7198L618.148 19.3823C618.373 16.9307 619.22 15.0654 620.689 13.7863C622.157 12.4954 624.129 11.8499 626.605 11.8499C629.104 11.8499 631.081 12.5427 632.538 13.9284C633.995 15.3141 634.723 17.0314 634.723 19.0803C634.723 20.1225 634.51 21.1469 634.084 22.1536C633.657 23.1603 632.947 24.2203 631.952 25.3335C630.969 26.4468 629.329 27.9746 627.031 29.9169C625.112 31.5276 623.881 32.6231 623.336 33.2034C622.791 33.7719 622.341 34.3463 621.986 34.9267H634.759ZM639.999 38V34.3582H643.641V38H639.999ZM648.331 31.1782L651.689 30.894C651.938 32.5284 652.512 33.7601 653.412 34.5891C654.324 35.4063 655.419 35.8149 656.699 35.8149C658.238 35.8149 659.541 35.2346 660.607 34.0739C661.673 32.9133 662.206 31.3737 662.206 29.455C662.206 27.6312 661.69 26.1922 660.66 25.1381C659.642 24.0841 658.303 23.557 656.645 23.557C655.615 23.557 654.685 23.7939 653.856 24.2676C653.027 24.7295 652.376 25.3335 651.902 26.0797L648.9 25.6888L651.422 12.3118H664.373V15.3674H653.98L652.577 22.3668C654.14 21.2772 655.781 20.7324 657.498 20.7324C659.772 20.7324 661.69 21.52 663.254 23.0952C664.817 24.6703 665.599 26.6955 665.599 29.1708C665.599 31.5276 664.912 33.5647 663.538 35.282C661.868 37.3901 659.588 38.4441 656.699 38.4441C654.33 38.4441 652.393 37.7809 650.889 36.4544C649.397 35.128 648.544 33.3693 648.331 31.1782ZM668.192 32.3685L671.355 31.8711C671.532 33.1383 672.024 34.1095 672.829 34.7845C673.646 35.4596 674.783 35.7971 676.24 35.7971C677.709 35.7971 678.798 35.5011 679.509 34.9089C680.219 34.3049 680.575 33.6002 680.575 32.7949C680.575 32.0724 680.261 31.5039 679.633 31.0894C679.195 30.8052 678.105 30.4439 676.364 30.0057C674.019 29.4136 672.391 28.9043 671.479 28.478C670.579 28.0398 669.892 27.4417 669.418 26.6837C668.956 25.9139 668.725 25.0671 668.725 24.1433C668.725 23.3024 668.915 22.5267 669.294 21.8161C669.685 21.0936 670.212 20.4955 670.875 20.0218C671.372 19.6547 672.047 19.3467 672.9 19.098C673.765 18.8375 674.689 18.7072 675.672 18.7072C677.152 18.7072 678.449 18.9204 679.562 19.3467C680.687 19.7731 681.516 20.3534 682.049 21.0877C682.582 21.8102 682.949 22.7813 683.151 24.0012L680.024 24.4275C679.882 23.4564 679.467 22.6984 678.78 22.1536C678.105 21.6088 677.146 21.3364 675.903 21.3364C674.434 21.3364 673.386 21.5792 672.758 22.0648C672.13 22.5504 671.817 23.1188 671.817 23.7702C671.817 24.1847 671.947 24.5578 672.207 24.8894C672.468 25.2329 672.877 25.5171 673.433 25.7421C673.753 25.8606 674.694 26.133 676.258 26.5593C678.52 27.1633 680.095 27.6608 680.983 28.0516C681.883 28.4306 682.588 28.9872 683.097 29.7215C683.607 30.4558 683.861 31.3677 683.861 32.4573C683.861 33.5232 683.547 34.5299 682.92 35.4774C682.304 36.413 681.41 37.1414 680.237 37.6625C679.065 38.1717 677.738 38.4264 676.258 38.4264C673.806 38.4264 671.935 37.9171 670.644 36.8986C669.365 35.88 668.548 34.37 668.192 32.3685ZM691.145 38L685.371 19.1336H688.676L691.678 30.0235L692.797 34.0739C692.844 33.8726 693.17 32.5758 693.774 30.1834L696.776 19.1336H700.063L702.888 30.0768L703.829 33.6831L704.913 30.0413L708.146 19.1336H711.255L705.357 38H702.035L699.033 26.7015L698.304 23.486L694.485 38H691.145Z" fill="#46C147"/>
<path d="M524.75 376.1V412.1" stroke="#46C147" stroke-width="3.03189"/>
<path d="M560 376.1V412.1" stroke="#46C147" stroke-width="3.03189"/>
<path d="M524.751 390.258H561.75" stroke="#46C147" stroke-width="3.03189"/>
<path d="M557 390.258L593.383 381.166V399.35L557 390.258Z" fill="#46C147"/>
<path d="M525.384 390.258L489.001 381.166V399.35L525.384 390.258Z" fill="#46C147"/>
<path d="M424.68 399.362C422.974 399.362 421.454 399.069 420.119 398.483C418.793 397.897 417.737 397.084 416.954 396.041C416.178 394.99 415.756 393.772 415.687 392.385H418.943C419.012 393.238 419.305 393.974 419.822 394.594C420.339 395.206 421.015 395.68 421.85 396.015C422.686 396.351 423.612 396.519 424.628 396.519C425.765 396.519 426.773 396.321 427.651 395.925C428.53 395.529 429.219 394.978 429.719 394.271C430.218 393.565 430.468 392.747 430.468 391.816C430.468 390.843 430.227 389.986 429.744 389.245C429.262 388.496 428.556 387.91 427.625 387.488C426.695 387.066 425.558 386.855 424.215 386.855H422.096V384.013H424.215C425.265 384.013 426.187 383.823 426.979 383.444C427.781 383.065 428.405 382.531 428.853 381.842C429.309 381.153 429.538 380.344 429.538 379.413C429.538 378.517 429.34 377.738 428.943 377.075C428.547 376.412 427.987 375.895 427.264 375.524C426.549 375.154 425.705 374.969 424.731 374.969C423.818 374.969 422.957 375.137 422.147 375.473C421.346 375.8 420.692 376.278 420.184 376.907C419.675 377.527 419.4 378.276 419.357 379.155H416.256C416.308 377.768 416.725 376.554 417.509 375.511C418.293 374.461 419.318 373.642 420.584 373.057C421.859 372.471 423.259 372.178 424.783 372.178C426.42 372.178 427.824 372.51 428.995 373.173C430.166 373.828 431.067 374.693 431.695 375.77C432.324 376.846 432.638 378.009 432.638 379.258C432.638 380.748 432.247 382.019 431.463 383.07C430.688 384.12 429.632 384.848 428.297 385.253V385.46C429.968 385.735 431.273 386.446 432.212 387.592C433.151 388.729 433.62 390.137 433.62 391.816C433.62 393.255 433.228 394.547 432.445 395.692C431.669 396.829 430.61 397.725 429.266 398.38C427.923 399.034 426.394 399.362 424.68 399.362ZM453.013 383.599L450.274 384.375C450.102 383.918 449.848 383.474 449.512 383.044C449.185 382.605 448.737 382.243 448.168 381.959C447.6 381.674 446.872 381.532 445.985 381.532C444.77 381.532 443.758 381.812 442.949 382.372C442.148 382.923 441.747 383.625 441.747 384.478C441.747 385.236 442.023 385.835 442.574 386.274C443.125 386.713 443.987 387.079 445.158 387.372L448.104 388.096C449.878 388.526 451.2 389.185 452.07 390.072C452.94 390.951 453.375 392.083 453.375 393.47C453.375 394.607 453.048 395.624 452.393 396.519C451.747 397.415 450.843 398.121 449.68 398.638C448.517 399.155 447.165 399.413 445.623 399.413C443.599 399.413 441.924 398.974 440.597 398.096C439.271 397.217 438.431 395.934 438.078 394.245L440.972 393.522C441.247 394.59 441.769 395.391 442.535 395.925C443.31 396.459 444.322 396.726 445.571 396.726C446.993 396.726 448.121 396.425 448.956 395.822C449.801 395.21 450.223 394.478 450.223 393.625C450.223 392.936 449.981 392.359 449.499 391.894C449.017 391.42 448.276 391.067 447.277 390.835L443.969 390.059C442.152 389.629 440.817 388.961 439.964 388.057C439.12 387.144 438.698 386.002 438.698 384.633C438.698 383.513 439.012 382.523 439.641 381.661C440.278 380.8 441.144 380.124 442.238 379.633C443.341 379.142 444.589 378.896 445.985 378.896C447.949 378.896 449.49 379.327 450.61 380.188C451.739 381.05 452.54 382.187 453.013 383.599ZM462.461 399L456.414 379.155H459.619L463.908 394.349H464.115L468.353 379.155H471.608L475.794 394.297H476.001L480.291 379.155H483.495L477.448 399H474.451L470.11 383.754H469.8L465.458 399H462.461Z" fill="#46C147"/>
</g>
<defs>
<clipPath id="clip0_0_1">
<rect width="775" height="700" fill="white"/>
</clipPath>
</defs>
</svg>
