<svg width="800" height="450" viewBox="0 0 800 450" fill="none" xmlns="http://www.w3.org/2000/svg">
<g clip-path="url(#clip0_0_1)">
<path d="M-584 152.5C-584 131.789 -567.211 115 -546.5 115H603.502C624.213 115 641.002 131.789 641.002 152.5V402.5C641.002 423.211 624.213 440 603.502 440H-546.5C-567.211 440 -584 423.211 -584 402.5V152.5Z" fill="white"/>
<path d="M-565.25 152.5C-565.25 142.145 -556.855 133.75 -546.5 133.75H603.502C613.858 133.75 622.252 142.145 622.252 152.5V402.5C622.252 412.855 613.858 421.25 603.502 421.25H-546.5C-556.855 421.25 -565.25 412.855 -565.25 402.5V152.5Z" fill="#0033A2"/>
<path d="M82.3413 288.163V270.943H92.6913V288.163H82.3413ZM56.1313 304.583V283.323H120.931V304.583H111.141V292.433H65.6913V304.583H56.1313ZM64.7913 312.793V303.573H112.041V312.793H64.7913ZM57.5913 333.163V323.593H120.931V333.163H57.5913ZM71.6513 327.983H81.7813C81.4813 333.983 80.918 339.439 80.0913 344.353C79.2646 349.266 77.8946 353.673 75.9813 357.573C74.0746 361.473 71.338 364.866 67.7713 367.753C64.2113 370.639 59.5813 373.059 53.8813 375.013C53.5813 374.186 53.0946 373.246 52.4212 372.193C51.7412 371.146 51.0279 370.136 50.2812 369.163C49.5279 368.183 48.7779 367.393 48.0312 366.793C53.1313 365.146 57.1813 363.159 60.1813 360.833C63.1813 358.506 65.4879 355.769 67.1013 352.623C68.7146 349.469 69.8213 345.833 70.4213 341.713C71.0213 337.586 71.4313 333.009 71.6513 327.983ZM92.4713 360.833V326.973H102.481V360.833C102.481 362.333 102.611 363.269 102.871 363.643C103.138 364.023 103.758 364.213 104.731 364.213C105.031 364.213 105.595 364.213 106.421 364.213C107.241 364.213 108.085 364.213 108.951 364.213C109.811 364.213 110.391 364.213 110.691 364.213C111.445 364.213 112.008 363.913 112.381 363.313C112.755 362.713 113.018 361.416 113.171 359.423C113.318 357.436 113.428 354.456 113.501 350.483C114.181 351.083 115.045 351.646 116.091 352.173C117.145 352.699 118.251 353.166 119.411 353.573C120.571 353.986 121.601 354.306 122.501 354.533C122.201 359.559 121.678 363.479 120.931 366.293C120.178 369.106 119.091 371.056 117.671 372.143C116.245 373.229 114.295 373.773 111.821 373.773C111.368 373.773 110.748 373.773 109.961 373.773C109.175 373.773 108.331 373.773 107.431 373.773C106.531 373.773 105.688 373.773 104.901 373.773C104.115 373.773 103.495 373.773 103.041 373.773C100.195 373.773 98.0013 373.379 96.4613 372.593C94.9213 371.806 93.8713 370.473 93.3113 368.593C92.7513 366.719 92.4713 364.133 92.4713 360.833ZM22.6012 375.123V275.443H49.0412V285.013H31.9412V375.123H22.6012ZM45.8912 278.483V275.443H47.5812L49.1512 274.993L56.1313 279.043C55.0779 282.196 53.9513 285.553 52.7513 289.113C51.5512 292.679 50.3346 296.186 49.1012 299.633C47.8612 303.086 46.6412 306.313 45.4412 309.313C49.2679 313.813 51.7812 318.013 52.9813 321.913C54.1813 325.813 54.7813 329.486 54.7813 332.933C54.7813 336.159 54.4246 338.936 53.7113 341.263C52.9979 343.583 51.7779 345.343 50.0512 346.543C49.2312 347.143 48.3146 347.613 47.3012 347.953C46.2879 348.293 45.1812 348.573 43.9812 348.793C41.8079 349.019 39.3312 349.059 36.5512 348.913C36.4779 347.633 36.2346 346.113 35.8212 344.353C35.4079 342.593 34.8279 341.073 34.0812 339.793C35.2012 339.873 36.2512 339.913 37.2312 339.913C38.2046 339.913 39.1046 339.913 39.9312 339.913C41.3579 339.833 42.4812 339.493 43.3012 338.893C44.0546 338.293 44.5812 337.356 44.8812 336.083C45.1812 334.809 45.3312 333.346 45.3312 331.693C45.3312 328.846 44.7312 325.623 43.5312 322.023C42.3312 318.423 39.8946 314.559 36.2212 310.433C37.1946 307.886 38.1312 305.149 39.0312 302.223C39.9312 299.296 40.8112 296.353 41.6712 293.393C42.5379 290.426 43.3246 287.649 44.0312 285.063C44.7446 282.476 45.3646 280.283 45.8912 278.483Z" fill="white"/>
<path d="M0.276123 263.5H-135.224V404H0.276123V263.5Z" stroke="white" stroke-width="2" stroke-dasharray="5 5"/>
<path d="M137.776 263.5H2.27612V404H137.776V263.5Z" stroke="white" stroke-width="2" stroke-dasharray="5 5"/>
<path d="M532.202 177.5C523.523 177.742 516.612 184.848 516.612 193.531C516.612 202.214 523.523 209.32 532.202 209.562C540.882 209.32 547.792 202.214 547.792 193.531C547.792 184.848 540.882 177.742 532.202 177.5Z" fill="white"/>
<path d="M562.202 230.6C556.225 220.61 545.132 214.837 533.52 215.674C521.908 216.512 511.758 223.818 507.277 234.563L501.252 252.575L480.777 271.313L486.565 280.675L510.302 260.513L517.602 252.5L520.215 283.538L501.965 333.375L499.502 377.5H511.965L520.215 332.5L539.265 298.538L549.265 322.575L583.627 368.925L593.227 358.775L573.79 327.738L551.64 243.05L558.227 249.563L568.227 290.038L578.152 285.988L570.777 244.05L562.202 230.6Z" fill="white"/>
<path d="M13.8264 198.537V199.087C14.2264 199.82 14.473 200.554 14.5664 201.287V239.657H3.36634V207.167L3.17634 206.067C1.64967 201.44 -0.920338 199.127 -4.53368 199.127C-5.63368 199.127 -6.85702 199.357 -8.20369 199.817C-11.2637 201.137 -13.467 203.22 -14.8137 206.067L-15.5437 209.187V239.657H-26.5637V189.537H-15.5437V193.757C-12.117 190.697 -8.38369 188.864 -4.34368 188.257H-3.52368C4.67634 188.257 10.4597 191.684 13.8264 198.537Z" fill="white"/>
<path d="M58.63 193.398V189.908H69.65V240.948L69.46 242.968L69.28 243.338L69.1 244.438L68.36 246.638L67.81 247.738L67.08 248.838C66.1933 250.398 65.1533 251.621 63.96 252.508L63.22 253.428L59.37 255.268C55.2966 256.274 51.3633 256.778 47.57 256.778C40.6833 256.778 34.3333 255.111 28.5199 251.778L28.8899 251.048L29.8099 249.028L30.5399 247.188L30.7299 246.638L31.0899 245.908C31.4566 244.988 31.8233 244.251 32.1899 243.698L32.5599 242.418C37.4866 244.924 42.0599 246.178 46.28 246.178C50.1066 246.178 53.6733 245.168 56.98 243.148L57.16 242.598C57.9266 241.524 58.4166 240.484 58.63 239.478V231.768C54.6833 234.701 50.5833 236.168 46.33 236.168C44.4366 236.168 42.4799 235.864 40.4599 235.258C33.6933 232.591 29.4066 228.061 27.5999 221.668C27.0799 220.014 26.6899 218.394 26.4299 216.808C26.1699 215.214 26.0399 213.651 26.0399 212.118C26.0399 207.778 27.1133 203.678 29.2599 199.818C32.7133 193.424 37.7299 189.754 44.31 188.808H44.9999C50.3266 188.808 54.87 190.338 58.63 193.398ZM46.97 199.818H46.15L42.1099 201.288C39.0766 204.688 37.5599 208.408 37.5599 212.448C37.5599 213.121 37.6066 213.808 37.6999 214.508C38.4999 221.454 42.1733 225.064 48.72 225.338C55.2333 224.511 58.49 220.518 58.49 213.358V212.668C58.49 212.428 58.4766 212.184 58.45 211.938C58.2633 203.831 54.53 199.731 47.25 199.638C47.13 199.758 47.0366 199.818 46.97 199.818Z" fill="white"/>
<path d="M106.296 180.55V169.53H156.966V180.55H137.686V239.85H125.576V180.55" fill="white"/>
<path d="M165.937 240.031V170.081H177.137V193.951C181.143 190.338 185.473 188.531 190.127 188.531C190.8 188.531 191.48 188.571 192.167 188.651C192.853 188.725 193.533 188.838 194.207 188.991C200.607 190.611 204.77 194.285 206.697 200.011L206.877 201.291C207.003 201.631 207.067 201.998 207.067 202.391V240.031H195.867V207.351L195.497 205.881V205.331L194.947 204.051C194.453 203.311 194.147 202.698 194.027 202.211C192.407 200.771 190.753 199.791 189.067 199.271C183.833 199.365 180.1 201.631 177.867 206.071V206.621C177.713 207.048 177.57 207.438 177.437 207.791C177.297 208.138 177.197 208.481 177.137 208.821V240.031" fill="white"/>
<path d="M263.613 210.294L263.793 213.044C263.913 213.198 263.973 213.381 263.973 213.594V219.104H230.383C231.083 225.344 234.263 229.018 239.923 230.124C240.843 230.211 241.746 230.254 242.633 230.254C247.253 230.254 251.186 228.741 254.433 225.714C254.826 226.388 255.316 226.938 255.903 227.364L256.083 227.914L256.633 228.464C257.059 228.864 257.426 229.241 257.733 229.594C258.039 229.948 258.286 230.308 258.473 230.674C258.686 230.794 258.806 230.914 258.833 231.034L261.403 233.974C255.589 238.841 249.393 241.274 242.813 241.274C241.686 241.274 240.539 241.198 239.373 241.044C238.213 240.891 237.049 240.678 235.883 240.404C225.296 236.884 219.483 229.294 218.443 217.634C218.443 217.481 218.436 217.174 218.423 216.714C218.409 216.261 218.403 215.971 218.403 215.844C218.403 199.904 225.576 190.831 239.923 188.624C254.183 189.118 262.079 196.341 263.613 210.294ZM230.193 210.474H252.413V209.924C252.286 209.558 252.223 209.191 252.223 208.824V208.454C251.916 207.781 251.733 207.171 251.673 206.624C249.413 201.391 245.679 198.758 240.473 198.724C233.926 200.284 230.499 204.201 230.193 210.474Z" fill="white"/>
<path d="M309.842 194.135L310.402 195.235C311.836 197.015 312.752 198.851 313.152 200.745C313.272 201.538 313.362 202.281 313.422 202.975C313.489 203.661 313.522 204.265 313.522 204.785V229.015C314.649 231.255 316.299 232.601 318.472 233.055L318.112 233.605C317.986 233.825 317.862 233.948 317.742 233.975L317.562 234.525L317.192 234.895C316.886 235.568 316.519 236.118 316.092 236.545C315.659 237.678 315.106 238.535 314.432 239.115C314.159 239.728 313.899 240.258 313.652 240.705C313.412 241.145 313.186 241.535 312.972 241.875C309.392 240.955 306.576 239.301 304.522 236.915H303.972C300.026 239.761 295.956 241.185 291.762 241.185C289.496 241.185 287.262 240.801 285.062 240.035C278.482 237.681 274.505 233.398 273.132 227.185V226.955C273.132 215.115 280.062 209.195 293.922 209.195H294.062C294.336 209.068 294.639 209.005 294.972 209.005L295.522 208.825H296.812L297.362 208.645H297.912L302.502 208.095C302.562 207.755 302.592 207.448 302.592 207.175V206.255C302.592 201.141 299.886 198.585 294.472 198.585C290.706 198.585 285.549 199.855 279.002 202.395L278.272 200.745L277.902 199.645L277.532 199.275L277.352 198.915L276.982 197.805C276.649 197.258 276.405 196.708 276.252 196.155C275.605 195.301 275.175 194.445 274.962 193.585L275.512 193.405L275.882 193.215L276.432 193.035L276.802 192.665H277.352C277.472 192.545 277.579 192.485 277.672 192.485H277.722C278.822 191.905 279.799 191.475 280.652 191.195L281.572 191.015C282.245 190.708 282.859 190.525 283.412 190.465L284.882 190.095C285.949 189.668 286.989 189.425 288.002 189.365L292.042 188.625C292.649 188.565 293.236 188.511 293.802 188.465C294.369 188.418 294.929 188.395 295.482 188.395C301.322 188.395 306.109 190.308 309.842 194.135ZM298.092 217.455H296.992C296.719 217.515 296.452 217.561 296.192 217.595C295.932 217.621 295.679 217.635 295.432 217.635H295.162L294.422 217.825H293.872C293.719 217.945 293.536 218.005 293.322 218.005H292.772L289.832 218.735H289.282C288.429 219.228 287.696 219.535 287.082 219.655C285.095 221.555 284.102 223.391 284.102 225.165C284.102 226.785 284.912 228.375 286.532 229.935C288.886 231.375 291.179 232.095 293.412 232.095C296.259 232.095 298.982 230.948 301.582 228.655C301.829 227.948 302.076 227.458 302.322 227.185L302.502 226.635L302.322 225.895V217.265H298.652C298.499 217.391 298.312 217.455 298.092 217.455Z" fill="white"/>
<path d="M347.551 170.634V189.734H360.761V199.274H347.551V224.984C347.551 225.564 347.564 226.091 347.591 226.564C347.624 227.037 347.671 227.487 347.731 227.914C349.504 229.507 351.601 230.304 354.021 230.304C355.701 230.304 357.521 229.937 359.481 229.204L359.661 229.754V230.854C359.721 231.127 359.767 231.394 359.801 231.654C359.834 231.914 359.851 232.167 359.851 232.414V232.874C359.971 233.214 360.054 233.544 360.101 233.864C360.147 234.184 360.184 234.467 360.211 234.714L360.761 239.304C358.867 239.757 357.087 240.107 355.421 240.354C353.754 240.601 352.184 240.724 350.711 240.724C344.744 240.724 340.447 238.781 337.821 234.894L337.631 234.524L337.261 233.424C336.927 232.631 336.684 231.897 336.531 231.224V230.674C336.471 230.027 336.424 229.437 336.391 228.904C336.364 228.371 336.351 227.874 336.351 227.414V199.274H327.531V189.734H336.351V173.754L337.081 173.394L338.551 173.024L339.101 172.654L340.021 172.474C340.174 172.347 340.357 172.284 340.571 172.284C340.724 172.164 340.907 172.104 341.121 172.104C341.274 171.984 341.457 171.924 341.671 171.924L342.221 171.554L343.691 171.184C343.811 171.064 343.917 171.004 344.011 171.004H344.061C344.181 170.884 344.287 170.824 344.381 170.824H344.421L347.181 169.714C347.427 170.021 347.551 170.327 347.551 170.634Z" fill="white"/>
<path d="M396.861 188.624H399.241V200.374C399.001 200.348 398.741 200.334 398.461 200.334H397.681C391.594 200.334 387.221 202.858 384.561 207.904L384.011 210.844L383.821 212.124V239.664H372.621V189.734H383.821V192.534C383.821 193.388 383.884 194.104 384.011 194.684C387.557 190.644 391.841 188.624 396.861 188.624Z" fill="white"/>
<path d="M450.613 210.294L450.793 213.044C450.913 213.198 450.973 213.381 450.973 213.594V219.104H417.383C418.083 225.344 421.263 229.018 426.923 230.124C427.843 230.211 428.746 230.254 429.633 230.254C434.253 230.254 438.186 228.741 441.433 225.714C441.826 226.388 442.316 226.938 442.903 227.364L443.083 227.914L443.633 228.464C444.06 228.864 444.426 229.241 444.733 229.594C445.04 229.948 445.286 230.308 445.473 230.674C445.686 230.794 445.806 230.914 445.833 231.034L448.403 233.974C442.59 238.841 436.393 241.274 429.813 241.274C428.686 241.274 427.54 241.198 426.373 241.044C425.213 240.891 424.05 240.678 422.883 240.404C412.296 236.884 406.483 229.294 405.443 217.634C405.443 217.481 405.436 217.174 405.423 216.714C405.41 216.261 405.403 215.971 405.403 215.844C405.403 199.904 412.576 190.831 426.923 188.624C441.183 189.118 449.08 196.341 450.613 210.294ZM417.193 210.474H439.413V209.924C439.286 209.558 439.223 209.191 439.223 208.824V208.454C438.916 207.781 438.733 207.171 438.673 206.624C436.413 201.391 432.68 198.758 427.473 198.724C420.926 200.284 417.5 204.201 417.193 210.474Z" fill="white"/>
<path d="M20.7762 163.5H-33.2239V261.5H20.7762V163.5Z" stroke="white" stroke-width="2" stroke-dasharray="5 5"/>
<path d="M77.7763 163.5H22.7762V261.5H77.7763V163.5Z" stroke="white" stroke-width="2" stroke-dasharray="5 5"/>
<path d="M102.776 163.5H79.7762V261.5H102.776V163.5Z" stroke="white" stroke-width="2" stroke-dasharray="5 5"/>
<path d="M157.276 163.5H104.776V261.5H157.276V163.5Z" stroke="white" stroke-width="2" stroke-dasharray="5 5"/>
<path d="M213.277 163.5H159.276V261.5H213.277V163.5Z" stroke="white" stroke-width="2" stroke-dasharray="5 5"/>
<path d="M267.777 163.5H215.277V261.5H267.777V163.5Z" stroke="white" stroke-width="2" stroke-dasharray="5 5"/>
<path d="M323.277 163.5H269.777V261.5H323.277V163.5Z" stroke="white" stroke-width="2" stroke-dasharray="5 5"/>
<path d="M363.777 163.5H325.277V261.5H363.777V163.5Z" stroke="white" stroke-width="2" stroke-dasharray="5 5"/>
<path d="M400.277 163.5H365.777V261.5H400.277V163.5Z" stroke="white" stroke-width="2" stroke-dasharray="5 5"/>
<path d="M454.777 163.5H402.277V261.5H454.777V163.5Z" stroke="white" stroke-width="2" stroke-dasharray="5 5"/>
<path d="M455.782 160.697V45.4846" stroke="#46C147" stroke-width="3.03189"/>
<path d="M480.782 175.697V45.4846" stroke="#46C147" stroke-width="3.03189"/>
<path d="M480.777 69.7398H455.777" stroke="#46C147" stroke-width="3.03189"/>
<path d="M480.777 69.7398L517.16 78.8355V60.6441L480.777 69.7398Z" fill="#46C147"/>
<path d="M455.777 69.7398L419.394 78.8355V60.6441L455.777 69.7398Z" fill="#46C147"/>
<path d="M433.741 35V32.6744L442.475 23.1136C443.5 21.9938 444.344 21.0205 445.007 20.1936C445.67 19.3581 446.161 18.5743 446.48 17.8422C446.807 17.1015 446.971 16.3263 446.971 15.5166C446.971 14.5864 446.747 13.781 446.299 13.1006C445.86 12.4201 445.257 11.8947 444.49 11.5243C443.724 11.1539 442.863 10.9688 441.906 10.9688C440.89 10.9688 440.003 11.1798 439.245 11.6018C438.496 12.0153 437.914 12.5967 437.501 13.346C437.096 14.0954 436.893 14.974 436.893 15.9817H433.844C433.844 14.4313 434.202 13.0704 434.917 11.899C435.632 10.7276 436.605 9.81457 437.837 9.15996C439.077 8.50534 440.468 8.17804 442.01 8.17804C443.56 8.17804 444.934 8.50534 446.131 9.15996C447.329 9.81457 448.267 10.6974 448.948 11.8086C449.628 12.9197 449.969 14.1557 449.969 15.5166C449.969 16.4899 449.792 17.4417 449.439 18.3719C449.094 19.2935 448.491 20.3228 447.63 21.4598C446.777 22.5882 445.593 23.9663 444.077 25.5942L438.134 31.9508V32.1576H450.434V35H433.741ZM469.878 19.5993L467.139 20.3745C466.967 19.918 466.713 19.4744 466.377 19.0438C466.05 18.6045 465.602 18.2427 465.033 17.9585C464.465 17.6742 463.737 17.5321 462.85 17.5321C461.635 17.5321 460.623 17.8121 459.814 18.3719C459.013 18.9232 458.612 19.6252 458.612 20.4779C458.612 21.2359 458.888 21.8345 459.439 22.2738C459.99 22.713 460.851 23.0791 462.023 23.372L464.969 24.0955C466.743 24.5262 468.065 25.1851 468.935 26.0722C469.805 26.9508 470.24 28.0835 470.24 29.4702C470.24 30.6072 469.913 31.6235 469.258 32.5193C468.612 33.4151 467.708 34.1214 466.545 34.6382C465.382 35.155 464.03 35.4134 462.488 35.4134C460.464 35.4134 458.789 34.9741 457.462 34.0956C456.136 33.217 455.296 31.9336 454.943 30.2454L457.837 29.5219C458.112 30.5899 458.634 31.391 459.4 31.925C460.175 32.459 461.187 32.726 462.436 32.726C463.858 32.726 464.986 32.4246 465.821 31.8216C466.665 31.2101 467.088 30.478 467.088 29.6252C467.088 28.9362 466.846 28.3591 466.364 27.894C465.882 27.4202 465.141 27.0671 464.142 26.8345L460.834 26.0593C459.017 25.6287 457.682 24.9611 456.829 24.0567C455.985 23.1437 455.563 22.0024 455.563 20.6329C455.563 19.5132 455.877 18.5227 456.506 17.6613C457.143 16.8 458.009 16.1238 459.103 15.6329C460.205 15.1419 461.454 14.8964 462.85 14.8964C464.814 14.8964 466.355 15.3271 467.475 16.1884C468.603 17.0498 469.405 18.1867 469.878 19.5993ZM479.326 35L473.279 15.1548H476.484L480.773 30.3488H480.98L485.218 15.1548H488.473L492.659 30.2971H492.866L497.156 15.1548H500.36L494.313 35H491.316L486.975 19.7544H486.665L482.323 35H479.326Z" fill="#46C147"/>
<path d="M593.227 277.5H708.439" stroke="#FF0000" stroke-width="3.03189"/>
<path d="M622.252 277.5H708.44" stroke="#FF0000" stroke-width="3.03189"/>
<path d="M684.184 277.5L675.089 313.883H693.28L684.184 277.5Z" fill="#FF0000"/>
<path d="M684.184 277.5L675.089 241.117H693.28L684.184 277.5Z" fill="#FF0000"/>
<path d="M733.37 287.059C731.423 287.059 729.765 286.53 728.395 285.47C727.026 284.402 725.979 282.856 725.256 280.832C724.532 278.799 724.171 276.344 724.171 273.468C724.171 270.608 724.532 268.166 725.256 266.142C725.988 264.109 727.039 262.559 728.408 261.491C729.786 260.414 731.44 259.876 733.37 259.876C735.299 259.876 736.948 260.414 738.318 261.491C739.696 262.559 740.747 264.109 741.47 266.142C742.203 268.166 742.569 270.608 742.569 273.468C742.569 276.344 742.207 278.799 741.483 280.832C740.76 282.856 739.713 284.402 738.344 285.47C736.974 286.53 735.316 287.059 733.37 287.059ZM733.37 284.217C735.299 284.217 736.798 283.287 737.866 281.426C738.934 279.566 739.468 276.913 739.468 273.468C739.468 271.176 739.222 269.225 738.731 267.615C738.249 266.004 737.551 264.777 736.638 263.933C735.734 263.088 734.644 262.666 733.37 262.666C731.457 262.666 729.963 263.61 728.886 265.496C727.81 267.374 727.271 270.031 727.271 273.468C727.271 275.759 727.513 277.705 727.995 279.307C728.477 280.909 729.171 282.128 730.075 282.964C730.988 283.799 732.086 284.217 733.37 284.217ZM761.587 271.297L758.848 272.072C758.676 271.616 758.421 271.172 758.086 270.741C757.758 270.302 757.31 269.94 756.742 269.656C756.173 269.372 755.446 269.23 754.558 269.23C753.344 269.23 752.332 269.51 751.522 270.07C750.721 270.621 750.321 271.323 750.321 272.176C750.321 272.934 750.596 273.532 751.148 273.971C751.699 274.411 752.56 274.777 753.732 275.07L756.677 275.793C758.452 276.224 759.774 276.883 760.644 277.77C761.514 278.648 761.949 279.781 761.949 281.168C761.949 282.305 761.621 283.321 760.967 284.217C760.321 285.113 759.416 285.819 758.254 286.336C757.091 286.853 755.738 287.111 754.197 287.111C752.172 287.111 750.497 286.672 749.171 285.793C747.844 284.915 747.004 283.631 746.651 281.943L749.545 281.22C749.821 282.288 750.342 283.089 751.109 283.623C751.884 284.157 752.896 284.424 754.145 284.424C755.566 284.424 756.694 284.122 757.53 283.519C758.374 282.908 758.796 282.176 758.796 281.323C758.796 280.634 758.555 280.057 758.073 279.592C757.59 279.118 756.85 278.765 755.85 278.532L752.543 277.757C750.725 277.326 749.39 276.659 748.538 275.754C747.694 274.841 747.272 273.7 747.272 272.331C747.272 271.211 747.586 270.22 748.215 269.359C748.852 268.498 749.718 267.822 750.812 267.331C751.914 266.84 753.163 266.594 754.558 266.594C756.522 266.594 758.064 267.025 759.184 267.886C760.312 268.747 761.113 269.884 761.587 271.297ZM771.035 286.698L764.988 266.853H768.192L772.482 282.046H772.688L776.926 266.853H780.182L784.368 281.995H784.575L788.864 266.853H792.068L786.022 286.698H783.024L778.683 271.452H778.373L774.032 286.698H771.035Z" fill="#FF0000"/>
</g>
<defs>
<clipPath id="clip0_0_1">
<rect width="800" height="450" fill="white"/>
</clipPath>
</defs>
</svg>
