<svg width="790" height="715" viewBox="0 0 790 715" fill="none" xmlns="http://www.w3.org/2000/svg">
<path d="M20 57.4999C20 36.7893 36.7893 19.9999 57.5 19.9999H732.5C753.211 19.9999 770 36.7893 770 57.4999V657.5C770 678.211 753.211 695 732.5 695H57.5C36.7893 695 20 678.211 20 657.5V57.4999Z" fill="white"/>
<path d="M38.75 57.4999C38.75 47.1446 47.1447 38.7499 57.5 38.7499H732.5C742.855 38.7499 751.25 47.1446 751.25 57.4999V657.5C751.25 667.855 742.855 676.25 732.5 676.25H57.5C47.1447 676.25 38.75 667.855 38.75 657.5V57.4999Z" fill="#0033A2"/>
<path d="M116.163 249.19V240.08H169.153V249.19H116.163ZM109.303 267.3V258.41H176.573V267.3H109.303ZM93.8825 286.2V276.98H191.763V286.2H93.8825ZM107.723 224.1V215.55H146.873V224.1H107.723ZM137.763 221.29V215.55H149.353C151.753 218.624 154.659 221.604 158.073 224.49C161.486 227.384 165.253 230.067 169.373 232.54C173.499 235.014 177.813 237.227 182.313 239.18C186.813 241.127 191.349 242.777 195.923 244.13C195.103 244.73 194.166 245.517 193.113 246.49C192.066 247.464 191.053 248.477 190.073 249.53C189.099 250.577 188.313 251.55 187.713 252.45C181.713 250.277 175.789 247.577 169.943 244.35C164.089 241.124 158.669 237.544 153.683 233.61C148.696 229.67 144.403 225.564 140.803 221.29H137.763ZM135.293 216.68L144.963 220.39C141.289 225.337 136.826 229.91 131.573 234.11C126.326 238.31 120.719 242.024 114.753 245.25C108.793 248.477 102.776 251.29 96.7025 253.69C96.1758 252.937 95.4625 252.037 94.5625 250.99C93.6625 249.937 92.7258 248.904 91.7525 247.89C90.7792 246.884 89.9158 246.08 89.1625 245.48C95.3158 243.6 101.316 241.237 107.163 238.39C113.016 235.537 118.359 232.274 123.193 228.6C128.033 224.927 132.066 220.954 135.293 216.68ZM137.093 283.39V244.24H148.003V283.39H137.093ZM93.1025 203.96V194.18H192.553V203.96H93.1025ZM117.063 213.3V185.63H127.643V213.3H117.063ZM157.343 213.86V185.63H167.913V213.86" fill="white"/>
<path d="M279.427 193.393V187.883H299.107V193.393H279.427ZM278.747 211.733V206.333H299.897V211.733H278.747ZM278.747 220.163V214.883H299.897V220.163H278.747ZM262.327 273.493V266.633H319.357V273.493H262.327ZM275.487 202.843V196.883H302.487V202.843H275.487ZM293.147 229.053H285.157V235.463H293.147V229.053ZM278.517 240.643V223.883H300.007V240.643H278.517ZM264.237 261.903V255.493H310.917V250.653H257.257V244.243H320.827V261.903H264.237ZM260.407 242.213V216.683H267.497V242.213H260.407ZM250.177 220.613L249.387 213.753C252.687 213.606 256.381 213.456 260.467 213.303C264.554 213.156 268.884 212.97 273.457 212.743V218.933C269.257 219.306 265.191 219.606 261.257 219.833C257.317 220.053 253.624 220.313 250.177 220.613ZM261.197 255.493H271.097C270.197 259.093 269.224 262.843 268.177 266.743C267.124 270.643 266.147 274.016 265.247 276.863L255.687 275.513C256.734 272.74 257.747 269.533 258.727 265.893C259.701 262.26 260.524 258.793 261.197 255.493ZM315.987 267.753V266.633H325.997C325.997 266.633 325.961 267.136 325.887 268.143C325.814 269.156 325.664 270.003 325.437 270.683C324.384 275.33 323.294 278.983 322.167 281.643C321.047 284.31 319.737 286.243 318.237 287.443C316.964 288.343 315.594 288.96 314.127 289.293C312.667 289.633 310.924 289.84 308.897 289.913C307.171 289.993 304.714 290.013 301.527 289.973C298.341 289.933 294.947 289.84 291.347 289.693C291.274 288.493 290.974 287.143 290.447 285.643C289.921 284.143 289.284 282.793 288.537 281.593C292.064 281.966 295.477 282.19 298.777 282.263C302.077 282.343 304.401 282.383 305.747 282.383C306.947 282.383 307.921 282.343 308.667 282.263C309.421 282.19 310.061 281.966 310.587 281.593C311.634 280.766 312.591 279.283 313.457 277.143C314.317 275.01 315.161 271.88 315.987 267.753ZM268.847 224.663L274.247 223.433C274.847 225.306 275.427 227.366 275.987 229.613C276.554 231.866 276.987 233.816 277.287 235.463L271.437 237.043C271.284 235.316 270.964 233.31 270.477 231.023C269.991 228.736 269.447 226.616 268.847 224.663ZM268.507 209.363L273.347 207.563C274.321 209.443 275.221 211.543 276.047 213.863C276.874 216.19 277.437 218.216 277.737 219.943L272.447 221.963C272.221 220.243 271.734 218.22 270.987 215.893C270.234 213.566 269.407 211.39 268.507 209.363ZM250.507 200.483L254.107 195.083C256.287 196.503 258.424 198.133 260.517 199.973C262.624 201.813 264.201 203.406 265.247 204.753L261.197 210.943C260.071 209.37 258.497 207.606 256.477 205.653C254.451 203.706 252.461 201.983 250.507 200.483ZM261.197 185.293L267.607 188.443C266.107 190.916 264.607 193.43 263.107 195.983C261.607 198.53 260.184 200.666 258.837 202.393L253.887 199.803C255.087 197.856 256.401 195.476 257.827 192.663C259.247 189.85 260.371 187.393 261.197 185.293ZM268.397 194.633L274.697 198.233C272.224 201.606 269.581 205.166 266.767 208.913C263.954 212.666 261.311 215.816 258.837 218.363L254.107 215.443C255.687 213.57 257.377 211.433 259.177 209.033C260.977 206.633 262.681 204.156 264.287 201.603C265.901 199.056 267.271 196.733 268.397 194.633ZM252.987 222.983L259.627 224.443C258.947 227.37 258.121 230.293 257.147 233.213C256.174 236.14 255.124 238.653 253.997 240.753C253.324 240.306 252.347 239.8 251.067 239.233C249.794 238.673 248.747 238.206 247.927 237.833C249.201 235.733 250.247 233.386 251.067 230.793C251.894 228.206 252.534 225.603 252.987 222.983ZM312.387 242.213V216.683H319.587V242.213H312.387ZM302.037 220.613L301.357 213.753C304.811 213.606 308.694 213.456 313.007 213.303C317.321 213.156 321.914 213.006 326.787 212.853L326.667 219.043C322.247 219.343 317.954 219.623 313.787 219.883C309.627 220.15 305.711 220.393 302.037 220.613ZM321.157 224.663L326.897 222.983C327.871 225.23 328.827 227.703 329.767 230.403C330.701 233.103 331.357 235.43 331.737 237.383L325.777 239.293C325.477 237.34 324.877 234.976 323.977 232.203C323.077 229.43 322.137 226.916 321.157 224.663ZM320.257 209.143L325.547 206.783C326.821 208.73 328.001 210.883 329.087 213.243C330.181 215.61 330.951 217.693 331.397 219.493L325.657 222.083C325.284 220.283 324.591 218.163 323.577 215.723C322.564 213.283 321.457 211.09 320.257 209.143ZM301.587 200.253L305.407 195.193C307.361 196.54 309.311 198.096 311.257 199.863C313.211 201.623 314.711 203.216 315.757 204.643L311.377 210.493C310.397 208.993 308.991 207.266 307.157 205.313C305.317 203.366 303.461 201.68 301.587 200.253ZM312.607 185.403L319.027 188.663C317.447 191.143 315.871 193.636 314.297 196.143C312.724 198.656 311.224 200.813 309.797 202.613L304.847 200.033C306.121 198.08 307.507 195.696 309.007 192.883C310.507 190.07 311.707 187.576 312.607 185.403ZM320.597 194.183L326.897 197.783C324.351 201.156 321.577 204.716 318.577 208.463C315.577 212.216 312.727 215.366 310.027 217.913L305.407 214.993C307.134 213.12 308.934 210.983 310.807 208.583C312.687 206.183 314.487 203.706 316.207 201.153C317.934 198.606 319.397 196.283 320.597 194.183ZM304.847 222.983L311.377 224.553C310.851 227.326 310.101 230.156 309.127 233.043C308.147 235.936 307.097 238.393 305.977 240.413C305.377 240.04 304.477 239.533 303.277 238.893C302.077 238.26 301.027 237.756 300.127 237.383C301.321 235.283 302.294 232.993 303.047 230.513C303.794 228.04 304.394 225.53 304.847 222.983ZM228.347 194.063L234.537 187.093C236.411 188.066 238.377 189.246 240.437 190.633C242.504 192.02 244.437 193.406 246.237 194.793C248.037 196.186 249.501 197.52 250.627 198.793L244.207 206.663C243.161 205.39 241.754 204.003 239.987 202.503C238.227 201.003 236.334 199.523 234.307 198.063C232.287 196.596 230.301 195.263 228.347 194.063ZM225.987 224.103L231.837 216.793C233.784 217.693 235.827 218.8 237.967 220.113C240.107 221.426 242.094 222.736 243.927 224.043C245.767 225.356 247.287 226.613 248.487 227.813L242.297 235.913C241.171 234.713 239.691 233.403 237.857 231.983C236.017 230.556 234.047 229.15 231.947 227.763C229.847 226.376 227.861 225.156 225.987 224.103ZM237.797 288.683L228.237 283.283C229.664 280.283 231.181 276.793 232.787 272.813C234.401 268.84 236.051 264.64 237.737 260.213C239.431 255.793 240.987 251.443 242.407 247.163L250.847 252.563C249.647 256.543 248.297 260.633 246.797 264.833C245.297 269.033 243.797 273.156 242.297 277.203C240.797 281.256 239.297 285.083 237.797 288.683Z" fill="white"/>
<path d="M208.5 178.525H73V319.025H208.5V178.525Z" stroke="white" stroke-width="2" stroke-dasharray="5 5"/>
<path d="M346 178.525H210.5V319.025H346V178.525Z" stroke="white" stroke-width="2" stroke-dasharray="5 5"/>
<path d="M680.5 340.306L718 377.806V490.306V649.975H680.5H643V490.306V377.806L680.5 340.306Z" fill="white"/>
<path d="M343.849 349.151L378 340L624.25 482.168C628.117 484.4 632.88 484.401 636.748 482.169C640.615 479.937 642.998 475.813 643 471.348V485.781V557.95V557.953C643.002 553.485 640.619 549.357 636.75 547.123L353 383.301L343.849 349.151Z" fill="white"/>
<path d="M73.5195 95.5756V84.5556H124.189V95.5756H104.91V154.876H92.7995V95.5756" fill="white"/>
<path d="M166.909 110.802L166.359 111.542L165.809 112.092L165.259 112.462L164.519 113.562L164.159 113.932L163.789 114.112C163.389 114.666 163.022 115.092 162.689 115.392L160.299 118.152C155.219 114.879 151.012 113.242 147.679 113.242C144.252 113.242 141.729 114.939 140.109 118.332C140.169 120.326 140.962 121.796 142.489 122.742C143.162 122.922 143.652 123.106 143.959 123.292C145.152 123.472 146.132 123.716 146.899 124.022C158.492 124.882 164.979 129.536 166.359 137.982C166.419 138.349 166.449 138.706 166.449 139.052C166.449 139.406 166.449 139.752 166.449 140.092C166.449 146.239 163.849 150.859 158.649 153.952C154.915 155.632 151.165 156.472 147.399 156.472C140.239 156.472 133.095 153.429 125.969 147.342L126.339 146.612L127.249 145.692C127.862 144.959 128.415 144.406 128.909 144.032C129.029 143.819 129.149 143.699 129.269 143.672L129.639 143.122C129.759 142.909 129.882 142.786 130.009 142.752L130.189 142.382L130.559 142.202L132.949 139.442C137.475 143.729 142.215 145.872 147.169 145.872C149.249 145.872 151.362 145.506 153.509 144.772C154.055 144.039 154.605 143.489 155.159 143.122C155.345 142.389 155.439 141.699 155.439 141.052C155.439 139.459 154.919 138.129 153.879 137.062L149.649 135.592C137.042 134.826 130.189 129.439 129.089 119.432C129.915 109.366 135.605 103.982 146.159 103.282H146.809C154.915 103.282 161.615 105.789 166.909 110.802Z" fill="white"/>
<path d="M179.287 140.551V104.751H190.307V136.511C190.427 136.664 190.487 136.848 190.487 137.061C190.614 137.154 190.677 137.244 190.677 137.331V137.431C190.89 138.804 191.194 140.028 191.587 141.101C193.7 144.034 196.41 145.501 199.717 145.501H199.857C203.957 144.401 206.83 142.138 208.477 138.711V138.161L209.217 135.961V104.751H220.417V154.871H209.217V150.831C204.81 154.438 200.42 156.241 196.047 156.241C192.647 156.241 189.204 155.171 185.717 153.031C182.87 150.858 180.91 148.288 179.837 145.321L179.657 144.031C179.384 143.144 179.247 142.274 179.247 141.421V141.011C179.247 140.858 179.26 140.704 179.287 140.551Z" fill="white"/>
<path d="M278.836 125.319L279.016 128.069C279.136 128.223 279.196 128.406 279.196 128.619V134.129H245.606C246.306 140.369 249.486 144.043 255.146 145.149C256.066 145.236 256.969 145.279 257.856 145.279C262.476 145.279 266.409 143.766 269.656 140.739C270.049 141.413 270.539 141.963 271.126 142.389L271.306 142.939L271.856 143.489C272.283 143.889 272.649 144.266 272.956 144.619C273.263 144.973 273.509 145.333 273.696 145.699C273.909 145.819 274.029 145.939 274.056 146.059L276.626 148.999C270.813 153.866 264.616 156.299 258.036 156.299C256.909 156.299 255.763 156.223 254.596 156.069C253.436 155.916 252.273 155.703 251.106 155.429C240.519 151.909 234.706 144.319 233.666 132.659C233.666 132.506 233.659 132.199 233.646 131.739C233.633 131.286 233.626 130.996 233.626 130.869C233.626 114.929 240.799 105.856 255.146 103.649C269.406 104.143 277.303 111.366 278.836 125.319ZM245.416 125.499H267.636V124.949C267.509 124.583 267.446 124.216 267.446 123.849V123.479C267.139 122.806 266.956 122.196 266.896 121.649C264.636 116.416 260.903 113.783 255.696 113.749C249.149 115.309 245.723 119.226 245.416 125.499Z" fill="white"/>
<path d="M332.05 113.562V114.112C332.45 114.846 332.697 115.579 332.79 116.312V154.682H321.59V122.192L321.4 121.092C319.874 116.466 317.304 114.152 313.69 114.152C312.59 114.152 311.367 114.382 310.02 114.842C306.96 116.162 304.757 118.246 303.41 121.092L302.68 124.212V154.682H291.66V104.562H302.68V108.782C306.107 105.722 309.84 103.889 313.88 103.282H314.7C322.9 103.282 328.684 106.709 332.05 113.562Z" fill="white"/>
<path d="M371.191 85.1092V84.7392H383.861L384.041 86.0292L384.231 86.5792L384.591 87.8692L384.961 90.0692L385.511 91.8992L385.881 94.1092L386.431 95.9392L386.611 97.4092C386.825 97.9292 386.948 98.3592 386.981 98.6992L387.161 99.4292L387.531 100.529V101.269C387.651 101.363 387.711 101.453 387.711 101.539V102.189C388.051 102.863 388.238 103.596 388.271 104.389L388.631 105.489L389.001 106.779L389.371 108.979L389.921 110.809L390.101 111.919L391.201 116.509C391.295 116.936 391.381 117.326 391.461 117.679C391.535 118.026 391.571 118.369 391.571 118.709L391.941 119.439V120.179L392.301 121.099V121.829L392.671 122.559V123.299C393.011 124.219 393.195 125.016 393.221 125.689L393.411 126.419C393.625 127.033 393.791 127.599 393.911 128.119C394.031 128.639 394.108 129.113 394.141 129.539L394.511 131.009L394.881 132.289L395.241 131.189L395.981 127.519L396.341 126.599L396.531 125.499L397.081 122.929L397.451 121.649V121.099L398.181 118.159L398.361 117.059L398.731 116.319L398.911 115.589L399.101 114.669V113.939L399.281 113.379L400.021 110.449L400.381 108.239L400.571 107.509L400.931 106.779C400.998 105.799 401.181 104.939 401.481 104.199L401.671 103.289V102.739L402.041 101.269L402.221 100.719L402.771 98.3292L402.951 97.2292L403.321 96.1292L403.501 95.2092L404.051 92.8192L404.241 91.8992L404.421 91.5392C404.455 91.1992 404.495 90.8692 404.541 90.5492C404.588 90.2292 404.671 89.9459 404.791 89.6992L404.971 89.1492V88.5992L405.161 87.8692L405.341 87.3092L405.891 84.7392H419.481V85.2892C419.908 86.3625 420.151 87.4059 420.211 88.4192L420.581 89.8792L420.761 90.4392L421.501 93.7392L421.861 95.2092C422.108 96.0959 422.231 96.8292 422.231 97.4092C422.445 97.9292 422.568 98.3592 422.601 98.6992L422.961 99.9792L423.151 101.269L423.331 101.999L423.521 102.549C423.608 102.949 423.685 103.309 423.751 103.629C423.811 103.949 423.855 104.263 423.881 104.569C424.128 105.149 424.298 105.686 424.391 106.179C424.485 106.666 424.561 107.109 424.621 107.509L424.801 108.609L425.171 109.529L425.351 110.629V111.179C425.658 111.913 425.841 112.586 425.901 113.199L426.091 114.299C426.391 115.033 426.575 115.706 426.641 116.319L426.821 117.239L427.371 119.259V119.989C427.491 120.269 427.551 120.576 427.551 120.909C427.891 121.616 428.078 122.229 428.111 122.749L428.291 123.669L428.471 124.769L428.661 125.499C428.968 126.446 429.151 127.303 429.211 128.069C429.331 128.163 429.391 128.256 429.391 128.349V128.989C429.818 130.063 430.065 131.103 430.131 132.109C430.311 132.049 430.431 131.926 430.491 131.739C430.645 130.979 430.798 130.316 430.951 129.749C431.105 129.183 431.258 128.686 431.411 128.259V127.519C431.811 126.419 432.055 125.439 432.141 124.579L432.511 123.299L433.251 120.359L433.431 118.889L433.801 117.609L433.981 117.059V116.509C434.195 115.923 434.365 115.393 434.491 114.919C434.611 114.446 434.685 113.996 434.711 113.569L435.081 112.279L436.551 106.219L437.101 103.289L437.471 101.819C437.805 100.933 437.988 100.199 438.021 99.6192L438.201 98.6992L438.571 97.2292C438.845 96.3425 439.028 95.6092 439.121 95.0292L439.301 94.2892L439.861 91.7192L440.221 90.6192V90.0692L440.771 88.5992V87.8692L440.961 87.3092L441.511 84.7392H453.991L453.261 88.4192L452.711 90.6192L452.521 91.1692L451.971 93.7392L451.611 95.2092L451.241 96.4892L450.501 100.169L450.141 101.449L449.401 104.939L449.041 106.219L448.851 106.779L448.481 108.789L448.301 109.159L448.121 110.449C447.815 111.456 447.631 112.313 447.571 113.019L446.831 115.219L446.651 116.509L446.461 117.239L446.281 117.789L446.101 119.079L445.911 119.629L444.811 124.219L444.631 125.499L444.261 126.789L443.341 130.459L443.161 131.739L442.061 136.329L441.511 138.899C441.171 139.819 440.988 140.616 440.961 141.289L440.221 143.679V144.409C439.888 145.329 439.705 146.126 439.671 146.799C439.365 147.806 439.181 148.663 439.121 149.369L438.751 150.649L438.571 151.019L438.391 152.309C438.085 153.316 437.901 154.173 437.841 154.879H424.251L424.071 153.409C423.858 152.889 423.735 152.459 423.701 152.119L423.331 150.649L423.151 149.369L422.781 148.079C422.688 147.713 422.611 147.363 422.551 147.029C422.491 146.689 422.445 146.366 422.411 146.059L422.231 145.329L422.051 144.409C421.925 144.256 421.861 144.073 421.861 143.859L421.681 142.939L421.501 142.389C421.408 141.996 421.331 141.636 421.271 141.309C421.205 140.989 421.158 140.676 421.131 140.369C420.918 139.789 420.758 139.256 420.651 138.769C420.545 138.276 420.458 137.833 420.391 137.439L420.211 136.699L420.031 135.779C419.905 135.413 419.818 135.063 419.771 134.729C419.731 134.389 419.695 134.066 419.661 133.759C419.448 133.153 419.281 132.573 419.161 132.019C419.035 131.466 418.958 130.946 418.931 130.459C418.805 130.306 418.741 130.123 418.741 129.909L418.561 129.169L418.381 128.619C418.288 127.979 418.165 127.369 418.011 126.789L417.641 125.129L417.461 124.029L417.091 123.119L416.721 120.909L416.541 120.359V119.809C416.235 119.076 416.051 118.403 415.991 117.789L415.621 115.589L415.251 114.669L414.891 113.199V112.469C414.525 111.456 414.341 110.599 414.341 109.899C414.215 109.746 414.151 109.563 414.151 109.349L413.971 108.789V108.239C413.665 107.539 413.481 106.806 413.421 106.039C413.115 105.059 412.931 104.143 412.871 103.289L412.501 104.019L412.321 105.119L411.771 107.509L411.401 109.529L411.211 110.079L410.481 113.199L410.301 113.939L409.931 115.769L409.751 116.509L409.381 118.529L409.201 119.079L408.461 122.559L408.091 123.849L407.911 125.129C407.578 126.049 407.395 126.846 407.361 127.519L407.181 127.889L406.991 128.989L406.811 129.539L405.891 134.129L405.711 134.679L404.971 138.169L404.791 138.899L404.611 139.819L404.421 140.369L403.691 143.859L403.321 145.329L402.951 147.169L402.771 147.529L402.401 149.189L402.221 149.919L402.041 151.199C401.821 151.966 401.698 152.579 401.671 153.039C401.545 153.346 401.461 153.636 401.421 153.909C401.375 154.189 401.335 154.449 401.301 154.689C400.875 154.756 400.485 154.809 400.131 154.849C399.778 154.896 399.435 154.919 399.101 154.919H398.641C398.488 154.919 398.335 154.906 398.181 154.879H387.531V154.139C387.105 153.039 386.861 151.999 386.801 151.019C386.675 150.866 386.611 150.683 386.611 150.469L386.431 149.549C385.758 147.376 385.328 145.539 385.141 144.039L384.961 143.489L384.041 140.009L383.861 138.539L382.391 132.849V132.109C382.085 131.409 381.901 130.676 381.841 129.909L381.471 128.809L381.111 127.519V126.969L380.191 123.299V122.749L380.001 122.009L379.641 121.279L379.451 119.809C379.211 119.076 379.015 118.403 378.861 117.789C378.708 117.176 378.601 116.626 378.541 116.139L378.351 115.589V115.039C378.231 114.886 378.171 114.703 378.171 114.489L377.801 113.019L377.621 112.469C377.495 111.823 377.378 111.239 377.271 110.719C377.165 110.199 377.035 109.743 376.881 109.349L376.701 108.059C376.488 107.446 376.318 106.879 376.191 106.359C376.071 105.839 375.995 105.366 375.961 104.939L375.781 104.019C375.661 103.866 375.601 103.683 375.601 103.469L374.681 99.7992L374.311 98.5092L374.131 97.5992L373.951 96.8592L373.761 95.5792C373.515 94.9325 373.391 94.3792 373.391 93.9192V93.7392L373.031 92.8192L372.841 92.0892C372.721 91.2025 372.538 90.4659 372.291 89.8792V89.1492C372.171 88.9959 372.111 88.8125 372.111 88.5992" fill="white"/>
<path d="M497.565 109.16L498.125 110.26C499.559 112.04 500.475 113.877 500.875 115.77C500.995 116.563 501.085 117.307 501.145 118C501.212 118.687 501.245 119.29 501.245 119.81V144.04C502.372 146.28 504.022 147.627 506.195 148.08L505.835 148.63C505.709 148.85 505.585 148.973 505.465 149L505.285 149.55L504.915 149.92C504.609 150.593 504.242 151.143 503.815 151.57C503.382 152.703 502.829 153.56 502.155 154.14C501.882 154.753 501.622 155.283 501.375 155.73C501.135 156.17 500.909 156.56 500.695 156.9C497.115 155.98 494.299 154.327 492.245 151.94H491.695C487.749 154.787 483.679 156.21 479.485 156.21C477.219 156.21 474.985 155.827 472.785 155.06C466.205 152.707 462.229 148.423 460.855 142.21V141.98C460.855 130.14 467.785 124.22 481.645 124.22H481.785C482.059 124.093 482.362 124.03 482.695 124.03L483.245 123.85H484.535L485.085 123.67H485.635L490.225 123.12C490.285 122.78 490.315 122.473 490.315 122.2V121.28C490.315 116.167 487.609 113.61 482.195 113.61C478.429 113.61 473.272 114.88 466.725 117.42L465.995 115.77L465.625 114.67L465.255 114.3L465.075 113.94L464.705 112.83C464.372 112.283 464.129 111.733 463.975 111.18C463.329 110.327 462.899 109.47 462.685 108.61L463.235 108.43L463.605 108.24L464.155 108.06L464.525 107.69H465.075C465.195 107.57 465.302 107.51 465.395 107.51H465.445C466.545 106.93 467.522 106.5 468.375 106.22L469.295 106.04C469.969 105.733 470.582 105.55 471.135 105.49L472.605 105.12C473.672 104.693 474.712 104.45 475.725 104.39L479.765 103.65C480.372 103.59 480.959 103.537 481.525 103.49C482.092 103.443 482.652 103.42 483.205 103.42C489.045 103.42 493.832 105.333 497.565 109.16ZM485.815 132.48H484.715C484.442 132.54 484.175 132.587 483.915 132.62C483.655 132.647 483.402 132.66 483.155 132.66H482.885L482.145 132.85H481.595C481.442 132.97 481.259 133.03 481.045 133.03H480.495L477.555 133.76H477.005C476.152 134.253 475.419 134.56 474.805 134.68C472.819 136.58 471.825 138.417 471.825 140.19C471.825 141.81 472.635 143.4 474.255 144.96C476.609 146.4 478.902 147.12 481.135 147.12C483.982 147.12 486.705 145.973 489.305 143.68C489.552 142.973 489.799 142.483 490.045 142.21L490.225 141.66L490.045 140.92V132.29H486.375C486.222 132.417 486.035 132.48 485.815 132.48Z" fill="white"/>
<path d="M560.05 113.562V114.112C560.45 114.846 560.697 115.579 560.79 116.312V154.682H549.59V122.192L549.4 121.092C547.874 116.466 545.304 114.152 541.69 114.152C540.59 114.152 539.367 114.382 538.02 114.842C534.96 116.162 532.757 118.246 531.41 121.092L530.68 124.212V154.682H519.66V104.562H530.68V108.782C534.107 105.722 537.84 103.889 541.88 103.282H542.7C550.9 103.282 556.684 106.709 560.05 113.562Z" fill="white"/>
<path d="M123.5 78.5252H73V176.525H123.5V78.5252Z" stroke="white" stroke-width="2" stroke-dasharray="5 5"/>
<path d="M171 78.5252H125.5V176.525H171V78.5252Z" stroke="white" stroke-width="2" stroke-dasharray="5 5"/>
<path d="M228.5 78.5252H173V176.525H228.5V78.5252Z" stroke="white" stroke-width="2" stroke-dasharray="5 5"/>
<path d="M283 78.5252H230.5V176.525H283V78.5252Z" stroke="white" stroke-width="2" stroke-dasharray="5 5"/>
<path d="M339 78.5252H285V176.525H339V78.5252Z" stroke="white" stroke-width="2" stroke-dasharray="5 5"/>
<path d="M364 78.5252H341V176.525H364V78.5252Z" stroke="white" stroke-width="2" stroke-dasharray="5 5"/>
<path d="M455.5 78.5252H366V176.525H455.5V78.5252Z" stroke="white" stroke-width="2" stroke-dasharray="5 5"/>
<path d="M511 78.5252H457.5V176.525H511V78.5252Z" stroke="white" stroke-width="2" stroke-dasharray="5 5"/>
<path d="M567 78.5252H513V176.525H567V78.5252Z" stroke="white" stroke-width="2" stroke-dasharray="5 5"/>
<path d="M644 370.586V266.343" stroke="#46C147" stroke-width="2.74323"/>
<path d="M378 337.305V266.343" stroke="#46C147" stroke-width="2.74323"/>
<path d="M643 288.289H378" stroke="#46C147" stroke-width="2.74323"/>
<path d="M643 288.289L610.081 296.519V280.059L643 288.289Z" fill="#46C147"/>
<path d="M378 288.289L410.919 296.519V280.059L378 288.289Z" fill="#46C147"/>
<path d="M462.572 254.219V257H446.997C446.975 256.303 447.088 255.634 447.334 254.991C447.731 253.93 448.363 252.885 449.231 251.856C450.109 250.828 451.374 249.638 453.024 248.288C455.585 246.188 457.316 244.527 458.216 243.305C459.116 242.073 459.566 240.91 459.566 239.817C459.566 238.671 459.154 237.706 458.328 236.924C457.514 236.131 456.448 235.735 455.13 235.735C453.737 235.735 452.622 236.152 451.786 236.988C450.951 237.824 450.527 238.981 450.517 240.46L447.543 240.155C447.747 237.937 448.513 236.249 449.842 235.092C451.17 233.924 452.954 233.34 455.194 233.34C457.455 233.34 459.245 233.966 460.563 235.22C461.881 236.474 462.54 238.028 462.54 239.882C462.54 240.825 462.347 241.751 461.961 242.662C461.575 243.573 460.932 244.532 460.032 245.539C459.143 246.547 457.659 247.929 455.58 249.686C453.844 251.144 452.729 252.135 452.237 252.66C451.744 253.174 451.336 253.694 451.015 254.219H462.572ZM476.588 257H473.695V238.564C472.998 239.228 472.082 239.892 470.946 240.557C469.821 241.221 468.808 241.719 467.908 242.051V239.255C469.526 238.494 470.941 237.572 472.152 236.49C473.363 235.408 474.22 234.358 474.724 233.34H476.588V257ZM485.638 257V253.705H488.933V257H485.638ZM508.382 254.219V257H492.806C492.785 256.303 492.897 255.634 493.144 254.991C493.54 253.93 494.173 252.885 495.041 251.856C495.919 250.828 497.184 249.638 498.834 248.288C501.395 246.188 503.126 244.527 504.026 243.305C504.926 242.073 505.376 240.91 505.376 239.817C505.376 238.671 504.963 237.706 504.138 236.924C503.324 236.131 502.258 235.735 500.94 235.735C499.547 235.735 498.432 236.152 497.596 236.988C496.761 237.824 496.337 238.981 496.327 240.46L493.353 240.155C493.557 237.937 494.323 236.249 495.651 235.092C496.98 233.924 498.764 233.34 501.004 233.34C503.265 233.34 505.055 233.966 506.373 235.22C507.691 236.474 508.35 238.028 508.35 239.882C508.35 240.825 508.157 241.751 507.771 242.662C507.385 243.573 506.742 244.532 505.842 245.539C504.953 246.547 503.469 247.929 501.39 249.686C499.654 251.144 498.539 252.135 498.046 252.66C497.553 253.174 497.146 253.694 496.825 254.219H508.382ZM511.5 250.828L514.538 250.571C514.763 252.049 515.283 253.164 516.097 253.914C516.922 254.653 517.913 255.023 519.071 255.023C520.464 255.023 521.643 254.498 522.607 253.448C523.571 252.398 524.054 251.005 524.054 249.269C524.054 247.618 523.587 246.316 522.655 245.363C521.734 244.409 520.523 243.932 519.023 243.932C518.09 243.932 517.249 244.146 516.499 244.575C515.749 244.993 515.159 245.539 514.731 246.215L512.014 245.861L514.297 233.758H526.015V236.522H516.611L515.342 242.855C516.756 241.869 518.24 241.376 519.794 241.376C521.851 241.376 523.587 242.089 525.002 243.514C526.416 244.939 527.124 246.772 527.124 249.011C527.124 251.144 526.502 252.987 525.259 254.541C523.748 256.448 521.685 257.402 519.071 257.402C516.928 257.402 515.176 256.802 513.815 255.602C512.464 254.401 511.693 252.81 511.5 250.828ZM529.47 251.905L532.331 251.455C532.492 252.601 532.937 253.48 533.666 254.091C534.405 254.701 535.434 255.007 536.752 255.007C538.08 255.007 539.066 254.739 539.709 254.203C540.352 253.657 540.674 253.019 540.674 252.29C540.674 251.637 540.39 251.122 539.822 250.747C539.425 250.49 538.439 250.163 536.864 249.767C534.743 249.231 533.269 248.77 532.444 248.385C531.63 247.988 531.008 247.447 530.579 246.761C530.162 246.065 529.953 245.298 529.953 244.463C529.953 243.702 530.124 243 530.467 242.357C530.821 241.703 531.297 241.162 531.897 240.733C532.348 240.401 532.958 240.123 533.73 239.898C534.512 239.662 535.348 239.544 536.237 239.544C537.577 239.544 538.75 239.737 539.758 240.123C540.776 240.508 541.526 241.034 542.008 241.698C542.49 242.352 542.822 243.23 543.004 244.334L540.175 244.72C540.047 243.841 539.672 243.155 539.05 242.662C538.439 242.169 537.571 241.923 536.446 241.923C535.118 241.923 534.169 242.143 533.601 242.582C533.033 243.021 532.749 243.536 532.749 244.125C532.749 244.5 532.867 244.838 533.103 245.138C533.339 245.448 533.708 245.706 534.212 245.909C534.501 246.016 535.353 246.263 536.768 246.649C538.815 247.195 540.24 247.645 541.043 247.999C541.858 248.342 542.495 248.845 542.956 249.51C543.417 250.174 543.647 250.999 543.647 251.985C543.647 252.949 543.363 253.86 542.795 254.718C542.238 255.564 541.429 256.223 540.368 256.695C539.307 257.155 538.107 257.386 536.768 257.386C534.55 257.386 532.857 256.925 531.689 256.003C530.531 255.082 529.792 253.716 529.47 251.905ZM550.238 257L545.014 239.93H548.003L550.72 249.783L551.732 253.448C551.775 253.266 552.07 252.092 552.616 249.928L555.333 239.93H558.306L560.862 249.831L561.714 253.094L562.695 249.799L565.62 239.93H568.433L563.096 257H560.091L557.374 246.777L556.715 243.868L553.259 257H550.238Z" fill="#46C147"/>
<path d="M644 374V444" stroke="#46C147" stroke-width="2.74323"/>
<path d="M719 377.806V448.768" stroke="#46C147" stroke-width="2.74323"/>
<path d="M644 426.822H705" stroke="#46C147" stroke-width="2.74323"/>
<path d="M644 426.822L676.919 418.592V435.052L644 426.822Z" fill="#46C147"/>
<path d="M718.919 426.822L686 418.592V435.052L718.919 426.822Z" fill="#46C147"/>
<path d="M667.379 462.318L664.502 462.543C664.245 461.407 663.88 460.582 663.409 460.067C662.627 459.242 661.662 458.83 660.516 458.83C659.594 458.83 658.785 459.087 658.088 459.601C657.178 460.266 656.46 461.235 655.935 462.511C655.41 463.786 655.136 465.602 655.115 467.96C655.811 466.899 656.663 466.111 657.671 465.597C658.678 465.082 659.733 464.825 660.837 464.825C662.766 464.825 664.405 465.538 665.756 466.963C667.117 468.378 667.797 470.21 667.797 472.46C667.797 473.939 667.475 475.316 666.833 476.591C666.2 477.856 665.327 478.825 664.213 479.5C663.098 480.176 661.834 480.513 660.419 480.513C658.008 480.513 656.042 479.629 654.52 477.861C652.998 476.082 652.238 473.157 652.238 469.085C652.238 464.531 653.079 461.219 654.761 459.151C656.229 457.351 658.206 456.451 660.692 456.451C662.546 456.451 664.063 456.971 665.241 458.01C666.431 459.049 667.143 460.485 667.379 462.318ZM655.565 472.476C655.565 473.473 655.774 474.427 656.192 475.337C656.62 476.248 657.215 476.945 657.976 477.427C658.737 477.898 659.535 478.134 660.371 478.134C661.593 478.134 662.643 477.641 663.521 476.655C664.4 475.67 664.839 474.33 664.839 472.637C664.839 471.008 664.405 469.728 663.537 468.795C662.669 467.852 661.576 467.381 660.258 467.381C658.951 467.381 657.842 467.852 656.931 468.795C656.02 469.728 655.565 470.955 655.565 472.476ZM670.337 475.016L673.198 474.566C673.358 475.712 673.803 476.591 674.532 477.202C675.271 477.813 676.3 478.118 677.618 478.118C678.947 478.118 679.933 477.85 680.575 477.314C681.218 476.768 681.54 476.13 681.54 475.402C681.54 474.748 681.256 474.234 680.688 473.859C680.292 473.601 679.306 473.275 677.73 472.878C675.609 472.342 674.135 471.882 673.31 471.496C672.496 471.099 671.874 470.558 671.446 469.872C671.028 469.176 670.819 468.41 670.819 467.574C670.819 466.813 670.99 466.111 671.333 465.468C671.687 464.815 672.164 464.273 672.764 463.845C673.214 463.513 673.825 463.234 674.596 463.009C675.378 462.773 676.214 462.655 677.104 462.655C678.443 462.655 679.616 462.848 680.624 463.234C681.642 463.62 682.392 464.145 682.874 464.809C683.356 465.463 683.688 466.342 683.871 467.445L681.042 467.831C680.913 466.952 680.538 466.267 679.916 465.774C679.306 465.281 678.438 465.034 677.313 465.034C675.984 465.034 675.035 465.254 674.468 465.693C673.9 466.133 673.616 466.647 673.616 467.236C673.616 467.611 673.733 467.949 673.969 468.249C674.205 468.56 674.575 468.817 675.078 469.02C675.368 469.128 676.22 469.374 677.634 469.76C679.681 470.306 681.106 470.756 681.91 471.11C682.724 471.453 683.362 471.957 683.822 472.621C684.283 473.285 684.514 474.11 684.514 475.096C684.514 476.061 684.23 476.972 683.662 477.829C683.104 478.675 682.295 479.334 681.235 479.806C680.174 480.267 678.973 480.497 677.634 480.497C675.416 480.497 673.723 480.036 672.555 479.115C671.397 478.193 670.658 476.827 670.337 475.016ZM691.104 480.111L685.88 463.041H688.869L691.586 472.894L692.599 476.559C692.641 476.377 692.936 475.203 693.483 473.039L696.199 463.041H699.173L701.728 472.942L702.58 476.205L703.561 472.91L706.486 463.041H709.299L703.963 480.111H700.957L698.24 469.888L697.581 466.979L694.126 480.111H691.104Z" fill="#46C147"/>
<path d="M518.331 478.518L578.953 513.518" stroke="#46C147" stroke-width="2.74323"/>
<path d="M546.296 437.693L607.751 473.174" stroke="#46C147" stroke-width="2.74323"/>
<path d="M564.076 504.929L594.576 452.102" stroke="#46C147" stroke-width="2.74323"/>
<path d="M586.245 466.531L595.578 433.908L609.832 442.138L586.245 466.531Z" fill="#46C147"/>
<path d="M566.205 501.243L542.618 525.636L556.872 533.866L566.205 501.243Z" fill="#46C147"/>
<path d="M614.715 523.798L609.829 520.977L604.718 529.83L602.421 528.504L594.574 511.557L595.755 509.51L608.979 517.145L610.571 514.389L612.867 515.715L611.276 518.471L616.162 521.292L614.715 523.798ZM607.533 519.651L598.331 514.339L603.844 526.04L607.533 519.651ZM614.651 513.719L615.691 511.017C616.765 511.451 617.748 511.505 618.641 511.179C619.54 510.844 620.319 510.106 620.978 508.965C621.642 507.814 621.903 506.826 621.761 506.002C621.609 505.171 621.217 504.574 620.586 504.21C620.02 503.883 619.433 503.872 618.824 504.176C618.403 504.391 617.627 505.081 616.496 506.247C614.971 507.817 613.836 508.862 613.089 509.384C612.338 509.891 611.559 510.159 610.751 510.187C609.939 510.201 609.171 509.999 608.447 509.581C607.788 509.2 607.266 508.701 606.88 508.083C606.491 507.449 606.261 506.766 606.19 506.032C606.127 505.476 606.191 504.808 606.382 504.027C606.569 503.232 606.885 502.449 607.33 501.679C607.999 500.519 608.753 499.599 609.591 498.92C610.434 498.231 611.264 497.844 612.08 497.758C612.887 497.668 613.814 497.819 614.861 498.213L613.781 500.856C612.956 500.528 612.174 500.51 611.437 500.802C610.704 501.084 610.057 501.713 609.494 502.687C608.83 503.838 608.546 504.769 608.642 505.481C608.739 506.192 609.042 506.695 609.553 506.99C609.878 507.177 610.229 507.244 610.607 507.19C610.994 507.141 611.401 506.95 611.829 506.615C612.067 506.418 612.706 505.804 613.747 504.772C615.244 503.272 616.346 502.263 617.055 501.744C617.759 501.21 618.514 500.91 619.319 500.843C620.125 500.776 620.955 500.989 621.809 501.482C622.644 501.964 623.291 502.666 623.749 503.586C624.204 504.492 624.37 505.522 624.248 506.677C624.116 507.826 623.716 508.98 623.046 510.14C621.937 512.061 620.691 513.297 619.309 513.848C617.933 514.389 616.38 514.347 614.651 513.719ZM629.447 498.282L612.052 494.271L613.547 491.682L623.438 494.256L627.118 495.212C626.982 495.083 626.113 494.241 624.511 492.686L617.211 485.334L618.698 482.759L628.551 485.497L631.803 486.39L629.439 483.894L622.355 476.426L623.761 473.989L635.876 487.146L634.374 489.749L624.162 486.99L621.313 486.106L630.958 495.665L629.447 498.282Z" fill="#46C147"/>
<path d="M678 340.306H353" stroke="#FF0000" stroke-width="2.74323"/>
<path d="M366 344.525V340.306" stroke="#FF0000" stroke-width="2.74323"/>
<path d="M366.23 344.525L358 377.444H374.459L366.23 344.525Z" fill="#FF0000"/>
<path d="M366.23 340.306L358 307.387H374.459L366.23 340.306Z" fill="#FF0000"/>
<path d="M281.366 337.449C281.366 334.662 281.65 332.423 282.218 330.73C282.797 329.026 283.649 327.713 284.774 326.792C285.91 325.87 287.335 325.409 289.049 325.409C290.314 325.409 291.423 325.667 292.377 326.181C293.33 326.685 294.118 327.419 294.74 328.383C295.361 329.337 295.849 330.505 296.202 331.887C296.556 333.259 296.733 335.112 296.733 337.449C296.733 340.213 296.449 342.447 295.881 344.151C295.313 345.844 294.461 347.157 293.325 348.089C292.2 349.011 290.775 349.472 289.049 349.472C286.778 349.472 284.994 348.657 283.697 347.028C282.143 345.067 281.366 341.874 281.366 337.449ZM284.34 337.449C284.34 341.317 284.79 343.894 285.69 345.18C286.601 346.455 287.721 347.093 289.049 347.093C290.378 347.093 291.493 346.45 292.393 345.164C293.304 343.878 293.759 341.306 293.759 337.449C293.759 333.569 293.304 330.992 292.393 329.717C291.493 328.442 290.367 327.804 289.017 327.804C287.689 327.804 286.628 328.367 285.835 329.492C284.838 330.928 284.34 333.58 284.34 337.449ZM299.337 343.974L302.198 343.524C302.358 344.671 302.803 345.55 303.532 346.16C304.271 346.771 305.3 347.077 306.618 347.077C307.947 347.077 308.933 346.809 309.575 346.273C310.218 345.726 310.54 345.089 310.54 344.36C310.54 343.707 310.256 343.192 309.688 342.817C309.292 342.56 308.306 342.233 306.73 341.837C304.609 341.301 303.135 340.84 302.31 340.454C301.496 340.058 300.874 339.517 300.446 338.831C300.028 338.134 299.819 337.368 299.819 336.532C299.819 335.772 299.99 335.07 300.333 334.427C300.687 333.773 301.164 333.232 301.764 332.803C302.214 332.471 302.825 332.192 303.596 331.967C304.378 331.732 305.214 331.614 306.104 331.614C307.443 331.614 308.616 331.807 309.624 332.192C310.642 332.578 311.392 333.103 311.874 333.768C312.356 334.421 312.688 335.3 312.871 336.404L310.042 336.79C309.913 335.911 309.538 335.225 308.916 334.732C308.306 334.239 307.438 333.993 306.313 333.993C304.984 333.993 304.035 334.212 303.468 334.652C302.9 335.091 302.616 335.605 302.616 336.195C302.616 336.57 302.733 336.907 302.969 337.207C303.205 337.518 303.575 337.775 304.078 337.979C304.368 338.086 305.22 338.333 306.634 338.718C308.681 339.265 310.106 339.715 310.91 340.069C311.724 340.411 312.362 340.915 312.822 341.579C313.283 342.244 313.514 343.069 313.514 344.055C313.514 345.019 313.23 345.93 312.662 346.787C312.104 347.634 311.295 348.293 310.235 348.764C309.174 349.225 307.973 349.456 306.634 349.456C304.416 349.456 302.723 348.995 301.555 348.073C300.397 347.152 299.658 345.785 299.337 343.974ZM320.104 349.07L314.88 332H317.869L320.586 341.853L321.599 345.518C321.641 345.335 321.936 344.162 322.483 341.997L325.199 332H328.173L330.728 341.901L331.58 345.164L332.561 341.869L335.486 332H338.299L332.963 349.07H329.957L327.24 338.847L326.581 335.938L323.126 349.07H320.104Z" fill="#FF0000"/>
</svg>
