<svg width="740" height="550" viewBox="0 0 740 550" fill="none" xmlns="http://www.w3.org/2000/svg">
<g clip-path="url(#clip0_0_1)">
<path d="M20 -339.5C20 -360.211 36.7894 -377 57.5 -377H682.5C703.211 -377 720 -360.211 720 -339.5V485.5C720 506.211 703.211 523 682.5 523H57.5C36.7894 523 20 506.211 20 485.5V-339.5Z" fill="white"/>
<path d="M38.75 -339.5C38.75 -349.855 47.1447 -358.25 57.5 -358.25H682.5C692.855 -358.25 701.25 -349.855 701.25 -339.5V485.5C701.25 495.855 692.855 504.25 682.5 504.25H57.5C47.1447 504.25 38.75 495.855 38.75 485.5V-339.5Z" fill="#0033A2"/>
<path d="M627 -267.377L664.5 -229.877V-117.377V475.877H627H589.5V-117.377V-229.877L627 -267.377Z" fill="white"/>
<path d="M146.75 225.639V214.609H246.2V225.639H146.75ZM192.09 221.589L202.77 218.999C205.177 227.852 208.423 236.102 212.51 243.749C216.597 251.402 221.62 258.095 227.58 263.829C233.547 269.569 240.467 274.089 248.34 277.389C247.44 278.135 246.483 279.109 245.47 280.309C244.457 281.509 243.5 282.729 242.6 283.969C241.7 285.209 240.95 286.315 240.35 287.289C232.023 283.389 224.767 278.232 218.58 271.819C212.393 265.405 207.163 257.962 202.89 249.489C198.617 241.015 195.017 231.715 192.09 221.589ZM190.4 183.229H201.99C201.99 188.549 201.857 194.265 201.59 200.379C201.33 206.492 200.75 212.775 199.85 219.229C198.95 225.675 197.487 232.125 195.46 238.579C193.44 245.025 190.627 251.249 187.02 257.249C183.427 263.249 178.817 268.819 173.19 273.959C167.563 279.092 160.7 283.572 152.6 287.399C151.7 285.972 150.5 284.415 149 282.729C147.5 281.042 146 279.635 144.5 278.509C152.3 274.989 158.88 270.882 164.24 266.189C169.607 261.502 173.957 256.402 177.29 250.889C180.63 245.382 183.2 239.665 185 233.739C186.8 227.812 188.077 221.885 188.83 215.959C189.577 210.039 190.027 204.302 190.18 198.749C190.327 193.202 190.4 188.029 190.4 183.229Z" fill="white"/>
<path d="M302.142 221.251V215.181H365.482V221.251H302.142ZM302.702 263.781V257.591H365.592V263.781H302.702ZM333.412 271.201V240.041H342.982V271.201H333.412ZM348.942 230.251H318.232V236.441H348.942V230.251ZM309.232 241.501V224.961H358.392V241.501H309.232ZM325.202 197.851L334.092 198.981C333.266 202.054 332.326 205.314 331.272 208.761C330.226 212.214 329.252 215.178 328.352 217.651H319.012C320.066 214.951 321.152 211.764 322.272 208.091C323.399 204.418 324.376 201.004 325.202 197.851ZM308.662 209.661V203.931H355.802V218.441H346.912V209.661H308.662ZM286.162 287.741V187.841H381.342V287.741H370.882V197.511H296.292V287.741H286.162ZM292.582 283.241V273.561H376.502V283.241H292.582ZM310.582 261.981V245.661H360.752V251.741H318.902V261.981" fill="white"/>
<path d="M263.5 176.123H128V316.623H263.5V176.123Z" stroke="white" stroke-width="2" stroke-dasharray="5 5"/>
<path d="M401 176.123H265.5V316.623H401V176.123Z" stroke="white" stroke-width="2" stroke-dasharray="5 5"/>
<path d="M427 258.473L461.151 249.322L570.75 312.595C574.617 314.827 579.381 314.828 583.248 312.596C587.115 310.364 589.498 306.239 589.5 301.775V316.208V388.377V388.38C589.502 383.912 587.119 379.783 583.25 377.55L436.151 292.623L427 258.473Z" fill="white"/>
<path d="M128.519 93.1738V82.1538H179.189V93.1738H159.909V152.474H147.799V93.1738" fill="white"/>
<path d="M218.815 106.758L219.375 107.858C220.809 109.638 221.725 111.475 222.125 113.368C222.245 114.161 222.335 114.905 222.395 115.598C222.462 116.285 222.495 116.888 222.495 117.408V141.638C223.622 143.878 225.272 145.225 227.445 145.678L227.085 146.228C226.959 146.448 226.835 146.571 226.715 146.598L226.535 147.148L226.165 147.518C225.859 148.191 225.492 148.741 225.065 149.168C224.632 150.301 224.079 151.158 223.405 151.738C223.132 152.351 222.872 152.881 222.625 153.328C222.385 153.768 222.159 154.158 221.945 154.498C218.365 153.578 215.549 151.925 213.495 149.538H212.945C208.999 152.385 204.929 153.808 200.735 153.808C198.469 153.808 196.235 153.425 194.035 152.658C187.455 150.305 183.479 146.021 182.105 139.808V139.578C182.105 127.738 189.035 121.818 202.895 121.818H203.035C203.309 121.691 203.612 121.628 203.945 121.628L204.495 121.448H205.785L206.335 121.268H206.885L211.475 120.718C211.535 120.378 211.565 120.071 211.565 119.798V118.878C211.565 113.765 208.859 111.208 203.445 111.208C199.679 111.208 194.522 112.478 187.975 115.018L187.245 113.368L186.875 112.268L186.505 111.898L186.325 111.538L185.955 110.428C185.622 109.881 185.379 109.331 185.225 108.778C184.579 107.925 184.149 107.068 183.935 106.208L184.485 106.028L184.855 105.838L185.405 105.658L185.775 105.288H186.325C186.445 105.168 186.552 105.108 186.645 105.108H186.695C187.795 104.528 188.772 104.098 189.625 103.818L190.545 103.638C191.219 103.331 191.832 103.148 192.385 103.088L193.855 102.718C194.922 102.291 195.962 102.048 196.975 101.988L201.015 101.248C201.622 101.188 202.209 101.135 202.775 101.088C203.342 101.041 203.902 101.018 204.455 101.018C210.295 101.018 215.082 102.931 218.815 106.758ZM207.065 130.078H205.965C205.692 130.138 205.425 130.185 205.165 130.218C204.905 130.245 204.652 130.258 204.405 130.258H204.135L203.395 130.448H202.845C202.692 130.568 202.509 130.628 202.295 130.628H201.745L198.805 131.358H198.255C197.402 131.851 196.669 132.158 196.055 132.278C194.069 134.178 193.075 136.015 193.075 137.788C193.075 139.408 193.885 140.998 195.505 142.558C197.859 143.998 200.152 144.718 202.385 144.718C205.232 144.718 207.955 143.571 210.555 141.278C210.802 140.571 211.049 140.081 211.295 139.808L211.475 139.258L211.295 138.518V129.888H207.625C207.472 130.015 207.285 130.078 207.065 130.078Z" fill="white"/>
<path d="M238.432 152.655V102.535H249.632V152.655H238.432ZM250.732 87.8446V88.4446C250.732 90.9846 249.935 93.0479 248.342 94.6346C246.662 95.4612 245.115 95.8746 243.702 95.8746C241.255 95.8746 239.315 94.5446 237.882 91.8846C237.602 90.8112 237.462 89.8646 237.462 89.0446C237.462 85.9179 239.192 83.8046 242.652 82.7046H243.112C246.999 82.7046 249.539 84.4179 250.732 87.8446Z" fill="white"/>
<path d="M289.691 82.7074V82.3374H302.361L302.541 83.6274L302.731 84.1774L303.091 85.4674L303.461 87.6674L304.011 89.4974L304.381 91.7074L304.931 93.5374L305.111 95.0074C305.325 95.5274 305.448 95.9574 305.481 96.2974L305.661 97.0274L306.031 98.1274V98.8674C306.151 98.9607 306.211 99.0507 306.211 99.1374V99.7874C306.551 100.461 306.738 101.194 306.771 101.987L307.131 103.087L307.501 104.377L307.871 106.577L308.421 108.407L308.601 109.517L309.701 114.107C309.795 114.534 309.881 114.924 309.961 115.277C310.035 115.624 310.071 115.967 310.071 116.307L310.441 117.037V117.777L310.801 118.697V119.427L311.171 120.157V120.897C311.511 121.817 311.695 122.614 311.721 123.287L311.911 124.017C312.125 124.631 312.291 125.197 312.411 125.717C312.531 126.237 312.608 126.711 312.641 127.137L313.011 128.607L313.381 129.887L313.741 128.787L314.481 125.117L314.841 124.197L315.031 123.097L315.581 120.527L315.951 119.247V118.697L316.681 115.757L316.861 114.657L317.231 113.917L317.411 113.187L317.601 112.267V111.537L317.781 110.977L318.521 108.047L318.881 105.837L319.071 105.107L319.431 104.377C319.498 103.397 319.681 102.537 319.981 101.797L320.171 100.887V100.337L320.541 98.8674L320.721 98.3174L321.271 95.9274L321.451 94.8274L321.821 93.7274L322.001 92.8074L322.551 90.4174L322.741 89.4974L322.921 89.1374C322.955 88.7974 322.995 88.4674 323.041 88.1474C323.088 87.8274 323.171 87.544 323.291 87.2974L323.471 86.7474V86.1974L323.661 85.4674L323.841 84.9074L324.391 82.3374H337.981V82.8874C338.408 83.9607 338.651 85.004 338.711 86.0174L339.081 87.4774L339.261 88.0374L340.001 91.3374L340.361 92.8074C340.608 93.694 340.731 94.4274 340.731 95.0074C340.945 95.5274 341.068 95.9574 341.101 96.2974L341.461 97.5774L341.651 98.8674L341.831 99.5974L342.021 100.147C342.108 100.547 342.185 100.907 342.251 101.227C342.311 101.547 342.355 101.861 342.381 102.167C342.628 102.747 342.798 103.284 342.891 103.777C342.985 104.264 343.061 104.707 343.121 105.107L343.301 106.207L343.671 107.127L343.851 108.227V108.777C344.158 109.511 344.341 110.184 344.401 110.797L344.591 111.897C344.891 112.631 345.075 113.304 345.141 113.917L345.321 114.837L345.871 116.857V117.587C345.991 117.867 346.051 118.174 346.051 118.507C346.391 119.214 346.578 119.827 346.611 120.347L346.791 121.267L346.971 122.367L347.161 123.097C347.468 124.044 347.651 124.901 347.711 125.667C347.831 125.761 347.891 125.854 347.891 125.947V126.587C348.318 127.661 348.565 128.701 348.631 129.707C348.811 129.647 348.931 129.524 348.991 129.337C349.145 128.577 349.298 127.914 349.451 127.347C349.605 126.781 349.758 126.284 349.911 125.857V125.117C350.311 124.017 350.555 123.037 350.641 122.177L351.011 120.897L351.751 117.957L351.931 116.487L352.301 115.207L352.481 114.657V114.107C352.695 113.521 352.865 112.991 352.991 112.517C353.111 112.044 353.185 111.594 353.211 111.167L353.581 109.877L355.051 103.817L355.601 100.887L355.971 99.4174C356.305 98.5307 356.488 97.7974 356.521 97.2174L356.701 96.2974L357.071 94.8274C357.345 93.9407 357.528 93.2074 357.621 92.6274L357.801 91.8874L358.361 89.3174L358.721 88.2174V87.6674L359.271 86.1974V85.4674L359.461 84.9074L360.011 82.3374H372.491L371.761 86.0174L371.211 88.2174L371.021 88.7674L370.471 91.3374L370.111 92.8074L369.741 94.0874L369.001 97.7674L368.641 99.0474L367.901 102.537L367.541 103.817L367.351 104.377L366.981 106.387L366.801 106.757L366.621 108.047C366.315 109.054 366.131 109.911 366.071 110.617L365.331 112.817L365.151 114.107L364.961 114.837L364.781 115.387L364.601 116.677L364.411 117.227L363.311 121.817L363.131 123.097L362.761 124.387L361.841 128.057L361.661 129.337L360.561 133.927L360.011 136.497C359.671 137.417 359.488 138.214 359.461 138.887L358.721 141.277V142.007C358.388 142.927 358.205 143.724 358.171 144.397C357.865 145.404 357.681 146.261 357.621 146.967L357.251 148.247L357.071 148.617L356.891 149.907C356.585 150.914 356.401 151.771 356.341 152.477H342.751L342.571 151.007C342.358 150.487 342.235 150.057 342.201 149.717L341.831 148.247L341.651 146.967L341.281 145.677C341.188 145.311 341.111 144.961 341.051 144.627C340.991 144.287 340.945 143.964 340.911 143.657L340.731 142.927L340.551 142.007C340.425 141.854 340.361 141.671 340.361 141.457L340.181 140.537L340.001 139.987C339.908 139.594 339.831 139.234 339.771 138.907C339.705 138.587 339.658 138.274 339.631 137.967C339.418 137.387 339.258 136.854 339.151 136.367C339.045 135.874 338.958 135.431 338.891 135.037L338.711 134.297L338.531 133.377C338.405 133.011 338.318 132.661 338.271 132.327C338.231 131.987 338.195 131.664 338.161 131.357C337.948 130.751 337.781 130.171 337.661 129.617C337.535 129.064 337.458 128.544 337.431 128.057C337.305 127.904 337.241 127.721 337.241 127.507L337.061 126.767L336.881 126.217C336.788 125.577 336.665 124.967 336.511 124.387L336.141 122.727L335.961 121.627L335.591 120.717L335.221 118.507L335.041 117.957V117.407C334.735 116.674 334.551 116.001 334.491 115.387L334.121 113.187L333.751 112.267L333.391 110.797V110.067C333.025 109.054 332.841 108.197 332.841 107.497C332.715 107.344 332.651 107.161 332.651 106.947L332.471 106.387V105.837C332.165 105.137 331.981 104.404 331.921 103.637C331.615 102.657 331.431 101.741 331.371 100.887L331.001 101.617L330.821 102.717L330.271 105.107L329.901 107.127L329.711 107.677L328.981 110.797L328.801 111.537L328.431 113.367L328.251 114.107L327.881 116.127L327.701 116.677L326.961 120.157L326.591 121.447L326.411 122.727C326.078 123.647 325.895 124.444 325.861 125.117L325.681 125.487L325.491 126.587L325.311 127.137L324.391 131.727L324.211 132.277L323.471 135.767L323.291 136.497L323.111 137.417L322.921 137.967L322.191 141.457L321.821 142.927L321.451 144.767L321.271 145.127L320.901 146.787L320.721 147.517L320.541 148.797C320.321 149.564 320.198 150.177 320.171 150.637C320.045 150.944 319.961 151.234 319.921 151.507C319.875 151.787 319.835 152.047 319.801 152.287C319.375 152.354 318.985 152.407 318.631 152.447C318.278 152.494 317.935 152.517 317.601 152.517H317.141C316.988 152.517 316.835 152.504 316.681 152.477H306.031V151.737C305.605 150.637 305.361 149.597 305.301 148.617C305.175 148.464 305.111 148.281 305.111 148.067L304.931 147.147C304.258 144.974 303.828 143.137 303.641 141.637L303.461 141.087L302.541 137.607L302.361 136.137L300.891 130.447V129.707C300.585 129.007 300.401 128.274 300.341 127.507L299.971 126.407L299.611 125.117V124.567L298.691 120.897V120.347L298.501 119.607L298.141 118.877L297.951 117.407C297.711 116.674 297.515 116.001 297.361 115.387C297.208 114.774 297.101 114.224 297.041 113.737L296.851 113.187V112.637C296.731 112.484 296.671 112.301 296.671 112.087L296.301 110.617L296.121 110.067C295.995 109.421 295.878 108.837 295.771 108.317C295.665 107.797 295.535 107.341 295.381 106.947L295.201 105.657C294.988 105.044 294.818 104.477 294.691 103.957C294.571 103.437 294.495 102.964 294.461 102.537L294.281 101.617C294.161 101.464 294.101 101.281 294.101 101.067L293.181 97.3974L292.811 96.1074L292.631 95.1974L292.451 94.4574L292.261 93.1774C292.015 92.5307 291.891 91.9774 291.891 91.5174V91.3374L291.531 90.4174L291.341 89.6874C291.221 88.8007 291.038 88.064 290.791 87.4774V86.7474C290.671 86.594 290.611 86.4107 290.611 86.1974" fill="white"/>
<path d="M416.065 106.758L416.625 107.858C418.059 109.638 418.975 111.475 419.375 113.368C419.495 114.161 419.585 114.905 419.645 115.598C419.712 116.285 419.745 116.888 419.745 117.408V141.638C420.872 143.878 422.522 145.225 424.695 145.678L424.335 146.228C424.209 146.448 424.085 146.571 423.965 146.598L423.785 147.148L423.415 147.518C423.109 148.191 422.742 148.741 422.315 149.168C421.882 150.301 421.329 151.158 420.655 151.738C420.382 152.351 420.122 152.881 419.875 153.328C419.635 153.768 419.409 154.158 419.195 154.498C415.615 153.578 412.799 151.925 410.745 149.538H410.195C406.249 152.385 402.179 153.808 397.985 153.808C395.719 153.808 393.485 153.425 391.285 152.658C384.705 150.305 380.729 146.021 379.355 139.808V139.578C379.355 127.738 386.285 121.818 400.145 121.818H400.285C400.559 121.691 400.862 121.628 401.195 121.628L401.745 121.448H403.035L403.585 121.268H404.135L408.725 120.718C408.785 120.378 408.815 120.071 408.815 119.798V118.878C408.815 113.765 406.109 111.208 400.695 111.208C396.929 111.208 391.772 112.478 385.225 115.018L384.495 113.368L384.125 112.268L383.755 111.898L383.575 111.538L383.205 110.428C382.872 109.881 382.629 109.331 382.475 108.778C381.829 107.925 381.399 107.068 381.185 106.208L381.735 106.028L382.105 105.838L382.655 105.658L383.025 105.288H383.575C383.695 105.168 383.802 105.108 383.895 105.108H383.945C385.045 104.528 386.022 104.098 386.875 103.818L387.795 103.638C388.469 103.331 389.082 103.148 389.635 103.088L391.105 102.718C392.172 102.291 393.212 102.048 394.225 101.988L398.265 101.248C398.872 101.188 399.459 101.135 400.025 101.088C400.592 101.041 401.152 101.018 401.705 101.018C407.545 101.018 412.332 102.931 416.065 106.758ZM404.315 130.078H403.215C402.942 130.138 402.675 130.185 402.415 130.218C402.155 130.245 401.902 130.258 401.655 130.258H401.385L400.645 130.448H400.095C399.942 130.568 399.759 130.628 399.545 130.628H398.995L396.055 131.358H395.505C394.652 131.851 393.919 132.158 393.305 132.278C391.319 134.178 390.325 136.015 390.325 137.788C390.325 139.408 391.135 140.998 392.755 142.558C395.109 143.998 397.402 144.718 399.635 144.718C402.482 144.718 405.205 143.571 407.805 141.278C408.052 140.571 408.299 140.081 408.545 139.808L408.725 139.258L408.545 138.518V129.888H404.875C404.722 130.015 404.535 130.078 404.315 130.078Z" fill="white"/>
<path d="M437.432 152.655V102.535H448.632V152.655H437.432ZM449.732 87.8446V88.4446C449.732 90.9846 448.935 93.0479 447.342 94.6346C445.662 95.4612 444.115 95.8746 442.702 95.8746C440.255 95.8746 438.315 94.5446 436.882 91.8846C436.602 90.8112 436.462 89.8646 436.462 89.0446C436.462 85.9179 438.192 83.8046 441.652 82.7046H442.112C445.999 82.7046 448.539 84.4179 449.732 87.8446Z" fill="white"/>
<path d="M178.5 76.1234H128V174.123H178.5V76.1234Z" stroke="white" stroke-width="2" stroke-dasharray="5 5"/>
<path d="M230.5 76.1234H180.5V174.123H230.5V76.1234Z" stroke="white" stroke-width="2" stroke-dasharray="5 5"/>
<path d="M257.5 76.1234H232.5V174.123H257.5V76.1234Z" stroke="white" stroke-width="2" stroke-dasharray="5 5"/>
<path d="M282.5 76.1234H259.5V174.123H282.5V76.1234Z" stroke="white" stroke-width="2" stroke-dasharray="5 5"/>
<path d="M374 76.1234H284.5V174.123H374V76.1234Z" stroke="white" stroke-width="2" stroke-dasharray="5 5"/>
<path d="M429.5 76.1234H376V174.123H429.5V76.1234Z" stroke="white" stroke-width="2" stroke-dasharray="5 5"/>
<path d="M456.5 76.1234H431.5V174.123H456.5V76.1234Z" stroke="white" stroke-width="2" stroke-dasharray="5 5"/>
<path d="M436.151 292.623H491.151" stroke="#FF0000" stroke-width="2.74323"/>
<path d="M402 317.623H494" stroke="#FF0000" stroke-width="2.74323"/>
<path d="M472 292.623V317.623" stroke="#FF0000" stroke-width="2.74323"/>
<path d="M472.23 310L464 342.919H480.459L472.23 310Z" fill="#FF0000"/>
<path d="M472.23 302.919L464 270H480.459L472.23 302.919Z" fill="#FF0000"/>
<path d="M464.572 369.219V372H448.997C448.975 371.303 449.088 370.634 449.334 369.991C449.731 368.93 450.363 367.885 451.231 366.856C452.11 365.828 453.374 364.638 455.024 363.288C457.585 361.188 459.316 359.527 460.216 358.305C461.116 357.073 461.566 355.91 461.566 354.817C461.566 353.671 461.154 352.706 460.328 351.924C459.514 351.131 458.448 350.735 457.13 350.735C455.737 350.735 454.622 351.152 453.787 351.988C452.951 352.824 452.527 353.981 452.517 355.46L449.543 355.155C449.747 352.937 450.513 351.249 451.842 350.092C453.17 348.924 454.955 348.34 457.194 348.34C459.455 348.34 461.245 348.966 462.563 350.22C463.881 351.474 464.54 353.028 464.54 354.882C464.54 355.825 464.347 356.751 463.961 357.662C463.575 358.573 462.932 359.532 462.032 360.539C461.143 361.547 459.659 362.929 457.58 364.686C455.844 366.144 454.73 367.135 454.237 367.66C453.744 368.174 453.336 368.694 453.015 369.219H464.572ZM467.337 366.905L470.198 366.455C470.358 367.601 470.803 368.48 471.532 369.091C472.271 369.701 473.3 370.007 474.618 370.007C475.947 370.007 476.933 369.739 477.576 369.203C478.218 368.657 478.54 368.019 478.54 367.29C478.54 366.637 478.256 366.122 477.688 365.747C477.292 365.49 476.306 365.163 474.73 364.767C472.609 364.231 471.135 363.77 470.31 363.384C469.496 362.988 468.874 362.447 468.446 361.761C468.028 361.065 467.819 360.298 467.819 359.463C467.819 358.702 467.99 358 468.333 357.357C468.687 356.703 469.164 356.162 469.764 355.733C470.214 355.401 470.825 355.123 471.596 354.898C472.378 354.662 473.214 354.544 474.104 354.544C475.443 354.544 476.616 354.737 477.624 355.123C478.642 355.508 479.392 356.033 479.874 356.698C480.356 357.352 480.688 358.23 480.871 359.334L478.042 359.72C477.913 358.841 477.538 358.155 476.916 357.662C476.306 357.169 475.438 356.923 474.313 356.923C472.984 356.923 472.035 357.143 471.468 357.582C470.9 358.021 470.616 358.536 470.616 359.125C470.616 359.5 470.733 359.838 470.969 360.138C471.205 360.448 471.575 360.706 472.078 360.909C472.368 361.016 473.22 361.263 474.634 361.649C476.681 362.195 478.106 362.645 478.91 362.999C479.724 363.342 480.362 363.845 480.822 364.51C481.283 365.174 481.514 365.999 481.514 366.985C481.514 367.949 481.23 368.86 480.662 369.718C480.104 370.564 479.295 371.223 478.235 371.695C477.174 372.155 475.973 372.386 474.634 372.386C472.416 372.386 470.723 371.925 469.555 371.003C468.397 370.082 467.658 368.716 467.337 366.905ZM488.104 372L482.88 354.93H485.87L488.586 364.783L489.599 368.448C489.641 368.266 489.936 367.092 490.483 364.928L493.199 354.93H496.173L498.728 364.831L499.58 368.094L500.561 364.799L503.486 354.93H506.299L500.963 372H497.957L495.24 361.777L494.581 358.868L491.126 372H488.104Z" fill="#FF0000"/>
<path d="M427 287.535V183.292" stroke="#46C147" stroke-width="2.74323"/>
<path d="M589.5 287.535V183.292" stroke="#46C147" stroke-width="2.74323"/>
<path d="M427 205.237H589.5" stroke="#46C147" stroke-width="2.74323"/>
<path d="M427 205.237L448.946 199.751V210.724L427 205.237Z" fill="#46C147"/>
<path d="M589.5 205.237L567.554 199.751V210.724L589.5 205.237Z" fill="#46C147"/>
<path d="M477.264 168H474.371V149.563C473.674 150.228 472.758 150.892 471.622 151.557C470.497 152.221 469.485 152.719 468.584 153.051V150.255C470.203 149.494 471.617 148.572 472.828 147.49C474.039 146.408 474.896 145.358 475.4 144.34H477.264V168ZM484.706 161.779L487.6 161.394C487.932 163.033 488.494 164.217 489.287 164.946C490.091 165.664 491.066 166.023 492.213 166.023C493.574 166.023 494.72 165.551 495.652 164.608C496.595 163.665 497.067 162.497 497.067 161.104C497.067 159.776 496.633 158.683 495.765 157.825C494.897 156.957 493.793 156.523 492.454 156.523C491.907 156.523 491.227 156.631 490.412 156.845L490.734 154.305C490.927 154.327 491.082 154.337 491.2 154.337C492.432 154.337 493.541 154.016 494.527 153.373C495.513 152.73 496.006 151.739 496.006 150.399C496.006 149.338 495.647 148.46 494.929 147.763C494.211 147.067 493.284 146.718 492.148 146.718C491.023 146.718 490.086 147.072 489.335 147.779C488.585 148.487 488.103 149.547 487.889 150.962L484.996 150.448C485.349 148.508 486.153 147.008 487.407 145.947C488.66 144.875 490.22 144.34 492.084 144.34C493.37 144.34 494.554 144.618 495.636 145.175C496.719 145.722 497.544 146.472 498.112 147.426C498.69 148.379 498.98 149.392 498.98 150.464C498.98 151.482 498.706 152.409 498.16 153.244C497.613 154.08 496.804 154.745 495.733 155.237C497.126 155.559 498.208 156.229 498.98 157.247C499.751 158.254 500.137 159.518 500.137 161.04C500.137 163.097 499.387 164.844 497.887 166.28C496.386 167.705 494.49 168.418 492.197 168.418C490.128 168.418 488.409 167.802 487.037 166.569C485.676 165.337 484.899 163.74 484.706 161.779ZM502.661 162.905L505.522 162.455C505.682 163.601 506.127 164.48 506.856 165.091C507.595 165.701 508.624 166.007 509.942 166.007C511.271 166.007 512.257 165.739 512.899 165.203C513.542 164.657 513.864 164.019 513.864 163.29C513.864 162.637 513.58 162.122 513.012 161.747C512.615 161.49 511.63 161.163 510.054 160.767C507.933 160.231 506.459 159.77 505.634 159.384C504.82 158.988 504.198 158.447 503.77 157.761C503.352 157.065 503.143 156.298 503.143 155.462C503.143 154.702 503.314 154 503.657 153.357C504.011 152.703 504.488 152.162 505.088 151.733C505.538 151.401 506.149 151.123 506.92 150.898C507.702 150.662 508.538 150.544 509.428 150.544C510.767 150.544 511.94 150.737 512.948 151.123C513.966 151.508 514.716 152.033 515.198 152.698C515.68 153.351 516.012 154.23 516.195 155.334L513.366 155.72C513.237 154.841 512.862 154.155 512.24 153.662C511.63 153.169 510.762 152.923 509.636 152.923C508.308 152.923 507.359 153.143 506.791 153.582C506.224 154.021 505.94 154.536 505.94 155.125C505.94 155.5 506.057 155.838 506.293 156.138C506.529 156.448 506.899 156.706 507.402 156.909C507.692 157.016 508.543 157.263 509.958 157.649C512.005 158.195 513.43 158.645 514.234 158.999C515.048 159.342 515.686 159.845 516.146 160.51C516.607 161.174 516.837 161.999 516.837 162.985C516.837 163.949 516.554 164.86 515.986 165.717C515.428 166.564 514.619 167.223 513.558 167.695C512.498 168.155 511.297 168.386 509.958 168.386C507.74 168.386 506.047 167.925 504.879 167.003C503.721 166.082 502.982 164.716 502.661 162.905ZM523.428 168L518.204 150.93H521.193L523.91 160.783L524.923 164.448C524.965 164.265 525.26 163.092 525.807 160.928L528.523 150.93H531.497L534.052 160.831L534.904 164.094L535.885 160.799L538.81 150.93H541.623L536.287 168H533.281L530.564 157.777L529.905 154.868L526.45 168H523.428Z" fill="#46C147"/>
<path d="M487 321.22L577.277 373.341" stroke="#46C147" stroke-width="2.74323"/>
<path d="M512 277.919L602.277 330.04" stroke="#46C147" stroke-width="2.74323"/>
<path d="M558.271 362.368L583.271 319.067" stroke="#46C147" stroke-width="2.74323"/>
<path d="M558.271 362.368L573.996 346.106L564.493 340.62L558.271 362.368Z" fill="#46C147"/>
<path d="M583.271 319.067L577.05 340.816L567.547 335.33L583.271 319.067Z" fill="#46C147"/>
<path d="M612.893 386.236L608.007 383.415L602.896 392.268L600.599 390.942L592.751 373.995L593.933 371.949L607.157 379.584L608.748 376.827L611.045 378.153L609.454 380.91L614.34 383.731L612.893 386.236ZM605.71 382.089L596.509 376.777L602.021 388.478L605.71 382.089ZM612.828 376.158L613.869 373.455C614.942 373.889 615.926 373.943 616.819 373.617C617.718 373.283 618.496 372.544 619.155 371.403C619.82 370.252 620.081 369.264 619.938 368.44C619.786 367.61 619.395 367.012 618.764 366.648C618.198 366.321 617.61 366.31 617.002 366.614C616.581 366.829 615.805 367.52 614.674 368.685C613.149 370.255 612.013 371.301 611.266 371.822C610.516 372.329 609.736 372.597 608.928 372.625C608.116 372.639 607.348 372.437 606.624 372.019C605.965 371.639 605.443 371.139 605.058 370.521C604.669 369.888 604.438 369.204 604.367 368.47C604.305 367.914 604.369 367.246 604.56 366.465C604.747 365.67 605.062 364.887 605.507 364.117C606.177 362.957 606.931 362.037 607.768 361.358C608.611 360.669 609.441 360.282 610.258 360.197C611.065 360.106 611.992 360.257 613.039 360.652L611.958 363.294C611.133 362.966 610.352 362.948 609.614 363.24C608.882 363.523 608.234 364.151 607.672 365.125C607.007 366.276 606.723 367.207 606.82 367.919C606.916 368.63 607.22 369.133 607.73 369.428C608.055 369.616 608.406 369.682 608.784 369.628C609.171 369.579 609.579 369.388 610.007 369.053C610.244 368.856 610.884 368.242 611.925 367.21C613.422 365.711 614.524 364.701 615.232 364.182C615.936 363.648 616.691 363.348 617.497 363.281C618.303 363.214 619.132 363.427 619.986 363.92C620.821 364.402 621.468 365.104 621.927 366.024C622.381 366.93 622.547 367.96 622.425 369.115C622.294 370.264 621.893 371.418 621.224 372.578C620.115 374.499 618.869 375.735 617.487 376.286C616.11 376.828 614.557 376.785 612.828 376.158ZM627.624 360.72L610.229 356.709L611.724 354.12L621.615 356.694L625.295 357.65C625.159 357.522 624.29 356.68 622.689 355.124L615.389 347.773L616.876 345.197L626.728 347.935L629.98 348.828L627.617 346.332L620.532 338.864L621.939 336.428L634.054 349.584L632.551 352.187L622.34 349.428L619.49 348.545L629.135 358.103L627.624 360.72Z" fill="#46C147"/>
<path d="M590 130V234.243" stroke="#46C147" stroke-width="2.74323"/>
<path d="M663 130V234.243" stroke="#46C147" stroke-width="2.74323"/>
<path d="M589 212.297H639" stroke="#46C147" stroke-width="2.74323"/>
<path d="M586 212.297L607.946 217.784V206.811L586 212.297Z" fill="#46C147"/>
<path d="M662.946 212.297L641 217.784V206.811L662.946 212.297Z" fill="#46C147"/>
<path d="M612.379 253.741L609.502 253.966C609.245 252.83 608.88 252.005 608.409 251.491C607.627 250.666 606.662 250.253 605.516 250.253C604.594 250.253 603.785 250.51 603.088 251.025C602.178 251.689 601.46 252.659 600.935 253.934C600.41 255.209 600.136 257.026 600.115 259.383C600.811 258.322 601.663 257.535 602.671 257.02C603.678 256.506 604.733 256.249 605.837 256.249C607.766 256.249 609.405 256.961 610.756 258.386C612.117 259.801 612.797 261.633 612.797 263.884C612.797 265.362 612.475 266.739 611.833 268.015C611.2 269.279 610.327 270.249 609.213 270.924C608.098 271.599 606.834 271.937 605.419 271.937C603.008 271.937 601.042 271.052 599.52 269.284C597.998 267.506 597.238 264.58 597.238 260.508C597.238 255.954 598.079 252.643 599.761 250.575C601.229 248.774 603.206 247.874 605.692 247.874C607.546 247.874 609.063 248.394 610.241 249.433C611.431 250.473 612.143 251.909 612.379 253.741ZM600.565 263.9C600.565 264.896 600.774 265.85 601.192 266.761C601.62 267.672 602.215 268.368 602.976 268.85C603.737 269.322 604.535 269.558 605.371 269.558C606.593 269.558 607.643 269.065 608.521 268.079C609.4 267.093 609.839 265.754 609.839 264.06C609.839 262.432 609.405 261.151 608.537 260.219C607.669 259.276 606.576 258.804 605.258 258.804C603.951 258.804 602.842 259.276 601.931 260.219C601.02 261.151 600.565 262.378 600.565 263.9ZM615.337 266.439L618.198 265.989C618.358 267.136 618.803 268.015 619.532 268.625C620.271 269.236 621.3 269.542 622.618 269.542C623.947 269.542 624.933 269.274 625.575 268.738C626.218 268.191 626.54 267.554 626.54 266.825C626.54 266.171 626.256 265.657 625.688 265.282C625.292 265.025 624.306 264.698 622.73 264.302C620.609 263.766 619.135 263.305 618.31 262.919C617.496 262.523 616.874 261.982 616.446 261.296C616.028 260.599 615.819 259.833 615.819 258.997C615.819 258.236 615.99 257.535 616.333 256.892C616.687 256.238 617.164 255.697 617.764 255.268C618.214 254.936 618.825 254.657 619.596 254.432C620.378 254.197 621.214 254.079 622.104 254.079C623.443 254.079 624.616 254.272 625.624 254.657C626.642 255.043 627.392 255.568 627.874 256.233C628.356 256.886 628.688 257.765 628.871 258.869L626.042 259.254C625.913 258.376 625.538 257.69 624.916 257.197C624.306 256.704 623.438 256.458 622.313 256.458C620.984 256.458 620.035 256.677 619.468 257.117C618.9 257.556 618.616 258.07 618.616 258.66C618.616 259.035 618.733 259.372 618.969 259.672C619.205 259.983 619.575 260.24 620.078 260.444C620.368 260.551 621.22 260.797 622.634 261.183C624.681 261.73 626.106 262.18 626.91 262.533C627.724 262.876 628.362 263.38 628.822 264.044C629.283 264.709 629.514 265.534 629.514 266.52C629.514 267.484 629.23 268.395 628.662 269.252C628.104 270.099 627.295 270.758 626.235 271.229C625.174 271.69 623.973 271.92 622.634 271.92C620.416 271.92 618.723 271.46 617.555 270.538C616.397 269.617 615.658 268.25 615.337 266.439ZM636.104 271.535L630.88 254.464H633.869L636.586 264.318L637.599 267.982C637.641 267.8 637.936 266.627 638.483 264.462L641.199 254.464H644.173L646.728 264.366L647.58 267.629L648.561 264.334L651.486 254.464H654.299L648.963 271.535H645.957L643.24 261.312L642.581 258.403L639.126 271.535H636.104Z" fill="#46C147"/>
</g>
<defs>
<clipPath id="clip0_0_1">
<rect width="740" height="550" fill="white"/>
</clipPath>
</defs>
</svg>
