<svg width="640" height="740" viewBox="0 0 640 740" fill="none" xmlns="http://www.w3.org/2000/svg">
<g clip-path="url(#clip0_0_1)">
<path d="M20 57.5001C20 36.7894 36.7893 20.0001 57.5 20.0001H582.5C603.211 20.0001 620 36.7894 620 57.5001V682.5C620 703.211 603.211 720 582.5 720H57.5C36.7893 720 20 703.211 20 682.5V57.5001Z" fill="white"/>
<path d="M38.75 57.5001C38.75 47.1447 47.1446 38.7501 57.5 38.7501H582.5C592.855 38.7501 601.25 47.1447 601.25 57.5001V682.5C601.25 692.855 592.855 701.25 582.5 701.25H57.5C47.1446 701.25 38.75 692.855 38.75 682.5V57.5001Z" fill="#0033A2"/>
<path d="M109.25 310L146.75 347.5V460V685H109.25H71.7501V460V347.5L109.25 310Z" fill="white"/>
<path d="M311.875 460C368.829 460 415 506.171 415 563.125C415 620.079 368.829 666.25 311.875 666.25C254.921 666.25 208.75 620.079 208.75 563.125C208.75 506.171 254.921 460 311.875 460Z" fill="white"/>
<path d="M311.875 463.125C367.104 463.125 411.875 507.896 411.875 563.125C411.875 618.353 367.104 663.125 311.875 663.125C256.647 663.125 211.875 618.353 211.875 563.125C211.875 507.896 256.647 463.125 311.875 463.125Z" fill="#E00000"/>
<path d="M311.875 544.375H393.13C398.304 544.378 402.497 548.571 402.5 553.745V572.505C402.497 577.679 398.304 581.872 393.13 581.875H230.62C225.446 581.872 221.253 577.679 221.25 572.505V553.745C221.253 548.571 225.446 544.378 230.62 544.375H311.875Z" fill="white"/>
<path d="M73.7695 85.5505V74.5305H124.44V85.5505H105.16V144.85H93.0495V85.5505" fill="white"/>
<path d="M167.159 100.777L166.609 101.517L166.059 102.067L165.509 102.437L164.769 103.537L164.409 103.907L164.039 104.087C163.639 104.64 163.272 105.067 162.939 105.367L160.549 108.127C155.469 104.854 151.262 103.217 147.929 103.217C144.502 103.217 141.979 104.914 140.359 108.307C140.419 110.3 141.212 111.77 142.739 112.717C143.412 112.897 143.902 113.08 144.209 113.267C145.402 113.447 146.382 113.69 147.149 113.997C158.742 114.857 165.229 119.51 166.609 127.957C166.669 128.324 166.699 128.68 166.699 129.027C166.699 129.38 166.699 129.727 166.699 130.067C166.699 136.214 164.099 140.834 158.899 143.927C155.165 145.607 151.415 146.447 147.649 146.447C140.489 146.447 133.345 143.404 126.219 137.317L126.589 136.587L127.499 135.667C128.112 134.934 128.665 134.38 129.159 134.007C129.279 133.794 129.399 133.674 129.519 133.647L129.889 133.097C130.009 132.884 130.132 132.76 130.259 132.727L130.439 132.357L130.809 132.177L133.199 129.417C137.725 133.704 142.465 135.847 147.419 135.847C149.499 135.847 151.612 135.48 153.759 134.747C154.305 134.014 154.855 133.464 155.409 133.097C155.595 132.364 155.689 131.674 155.689 131.027C155.689 129.434 155.169 128.104 154.129 127.037L149.899 125.567C137.292 124.8 130.439 119.414 129.339 109.407C130.165 99.3404 135.855 93.9571 146.409 93.2571H147.059C155.165 93.2571 161.865 95.7637 167.159 100.777Z" fill="white"/>
<path d="M179.537 130.526V94.7258H190.557V126.486C190.677 126.639 190.737 126.822 190.737 127.036C190.864 127.129 190.927 127.219 190.927 127.306V127.406C191.14 128.779 191.444 130.002 191.837 131.076C193.95 134.009 196.66 135.476 199.967 135.476H200.107C204.207 134.376 207.08 132.112 208.727 128.686V128.136L209.467 125.936V94.7258H220.667V144.846H209.467V140.806C205.06 144.412 200.67 146.216 196.297 146.216C192.897 146.216 189.454 145.146 185.967 143.006C183.12 140.832 181.16 138.262 180.087 135.296L179.907 134.006C179.634 133.119 179.497 132.249 179.497 131.396V130.986C179.497 130.832 179.51 130.679 179.537 130.526Z" fill="white"/>
<path d="M279.086 115.294L279.266 118.044C279.386 118.198 279.446 118.381 279.446 118.594V124.104H245.856C246.556 130.344 249.736 134.018 255.396 135.124C256.316 135.211 257.219 135.254 258.106 135.254C262.726 135.254 266.659 133.741 269.906 130.714C270.299 131.388 270.789 131.938 271.376 132.364L271.556 132.914L272.106 133.464C272.533 133.864 272.899 134.241 273.206 134.594C273.513 134.948 273.759 135.308 273.946 135.674C274.159 135.794 274.279 135.914 274.306 136.034L276.876 138.974C271.063 143.841 264.866 146.274 258.286 146.274C257.159 146.274 256.013 146.198 254.846 146.044C253.686 145.891 252.523 145.678 251.356 145.404C240.769 141.884 234.956 134.294 233.916 122.634C233.916 122.481 233.909 122.174 233.896 121.714C233.883 121.261 233.876 120.971 233.876 120.844C233.876 104.904 241.049 95.831 255.396 93.6243C269.656 94.1176 277.553 101.341 279.086 115.294ZM245.666 115.474H267.886V114.924C267.759 114.558 267.696 114.191 267.696 113.824V113.454C267.389 112.781 267.206 112.171 267.146 111.624C264.886 106.391 261.153 103.758 255.946 103.724C249.399 105.284 245.973 109.201 245.666 115.474Z" fill="white"/>
<path d="M332.3 103.537V104.087C332.7 104.82 332.947 105.554 333.04 106.287V144.657H321.84V112.167L321.65 111.067C320.124 106.44 317.554 104.127 313.94 104.127C312.84 104.127 311.617 104.357 310.27 104.817C307.21 106.137 305.007 108.22 303.66 111.067L302.93 114.187V144.657H291.91V94.5371H302.93V98.7571C306.357 95.6971 310.09 93.8637 314.13 93.2571H314.95C323.15 93.2571 328.934 96.6837 332.3 103.537Z" fill="white"/>
<path d="M371.441 75.0841V74.7141H384.111L384.291 76.0041L384.481 76.5541L384.841 77.8441L385.211 80.0441L385.761 81.8741L386.131 84.0841L386.681 85.9141L386.861 87.3841C387.075 87.9041 387.198 88.3341 387.231 88.6741L387.411 89.4041L387.781 90.5041V91.2441C387.901 91.3374 387.961 91.4274 387.961 91.5141V92.1641C388.301 92.8374 388.488 93.5707 388.521 94.3641L388.881 95.4641L389.251 96.7541L389.621 98.9541L390.171 100.784L390.351 101.894L391.451 106.484C391.545 106.911 391.631 107.301 391.711 107.654C391.785 108.001 391.821 108.344 391.821 108.684L392.191 109.414V110.154L392.551 111.074V111.804L392.921 112.534V113.274C393.261 114.194 393.445 114.991 393.471 115.664L393.661 116.394C393.875 117.007 394.041 117.574 394.161 118.094C394.281 118.614 394.358 119.087 394.391 119.514L394.761 120.984L395.131 122.264L395.491 121.164L396.231 117.494L396.591 116.574L396.781 115.474L397.331 112.904L397.701 111.624V111.074L398.431 108.134L398.611 107.034L398.981 106.294L399.161 105.564L399.351 104.644V103.914L399.531 103.354L400.271 100.424L400.631 98.2141L400.821 97.4841L401.181 96.7541C401.248 95.7741 401.431 94.9141 401.731 94.1741L401.921 93.2641V92.7141L402.291 91.2441L402.471 90.6941L403.021 88.3041L403.201 87.2041L403.571 86.1041L403.751 85.1841L404.301 82.7941L404.491 81.8741L404.671 81.5141C404.705 81.1741 404.745 80.8441 404.791 80.5241C404.838 80.2041 404.921 79.9207 405.041 79.6741L405.221 79.1241V78.5741L405.411 77.8441L405.591 77.2841L406.141 74.7141H419.731V75.2641C420.158 76.3374 420.401 77.3807 420.461 78.3941L420.831 79.8541L421.011 80.4141L421.751 83.7141L422.111 85.1841C422.358 86.0707 422.481 86.8041 422.481 87.3841C422.695 87.9041 422.818 88.3341 422.851 88.6741L423.211 89.9541L423.401 91.2441L423.581 91.9741L423.771 92.5241C423.858 92.9241 423.935 93.2841 424.001 93.6041C424.061 93.9241 424.105 94.2374 424.131 94.5441C424.378 95.1241 424.548 95.6607 424.641 96.1541C424.735 96.6407 424.811 97.0841 424.871 97.4841L425.051 98.5841L425.421 99.5041L425.601 100.604V101.154C425.908 101.887 426.091 102.561 426.151 103.174L426.341 104.274C426.641 105.007 426.825 105.681 426.891 106.294L427.071 107.214L427.621 109.234V109.964C427.741 110.244 427.801 110.551 427.801 110.884C428.141 111.591 428.328 112.204 428.361 112.724L428.541 113.644L428.721 114.744L428.911 115.474C429.218 116.421 429.401 117.277 429.461 118.044C429.581 118.137 429.641 118.231 429.641 118.324V118.964C430.068 120.037 430.315 121.077 430.381 122.084C430.561 122.024 430.681 121.901 430.741 121.714C430.895 120.954 431.048 120.291 431.201 119.724C431.355 119.157 431.508 118.661 431.661 118.234V117.494C432.061 116.394 432.305 115.414 432.391 114.554L432.761 113.274L433.501 110.334L433.681 108.864L434.051 107.584L434.231 107.034V106.484C434.445 105.897 434.615 105.367 434.741 104.894C434.861 104.421 434.935 103.971 434.961 103.544L435.331 102.254L436.801 96.1941L437.351 93.2641L437.721 91.7941C438.055 90.9074 438.238 90.1741 438.271 89.5941L438.451 88.6741L438.821 87.2041C439.095 86.3174 439.278 85.5841 439.371 85.0041L439.551 84.2641L440.111 81.6941L440.471 80.5941V80.0441L441.021 78.5741V77.8441L441.211 77.2841L441.761 74.7141H454.241L453.511 78.3941L452.961 80.5941L452.771 81.1441L452.221 83.7141L451.861 85.1841L451.491 86.4641L450.751 90.1441L450.391 91.4241L449.651 94.9141L449.291 96.1941L449.101 96.7541L448.731 98.7641L448.551 99.1341L448.371 100.424C448.065 101.431 447.881 102.287 447.821 102.994L447.081 105.194L446.901 106.484L446.711 107.214L446.531 107.764L446.351 109.054L446.161 109.604L445.061 114.194L444.881 115.474L444.511 116.764L443.591 120.434L443.411 121.714L442.311 126.304L441.761 128.874C441.421 129.794 441.238 130.591 441.211 131.264L440.471 133.654V134.384C440.138 135.304 439.955 136.101 439.921 136.774C439.615 137.781 439.431 138.637 439.371 139.344L439.001 140.624L438.821 140.994L438.641 142.284C438.335 143.291 438.151 144.147 438.091 144.854H424.501L424.321 143.384C424.108 142.864 423.985 142.434 423.951 142.094L423.581 140.624L423.401 139.344L423.031 138.054C422.938 137.687 422.861 137.337 422.801 137.004C422.741 136.664 422.695 136.341 422.661 136.034L422.481 135.304L422.301 134.384C422.175 134.231 422.111 134.047 422.111 133.834L421.931 132.914L421.751 132.364C421.658 131.971 421.581 131.611 421.521 131.284C421.455 130.964 421.408 130.651 421.381 130.344C421.168 129.764 421.008 129.231 420.901 128.744C420.795 128.251 420.708 127.807 420.641 127.414L420.461 126.674L420.281 125.754C420.155 125.387 420.068 125.037 420.021 124.704C419.981 124.364 419.945 124.041 419.911 123.734C419.698 123.127 419.531 122.547 419.411 121.994C419.285 121.441 419.208 120.921 419.181 120.434C419.055 120.281 418.991 120.097 418.991 119.884L418.811 119.144L418.631 118.594C418.538 117.954 418.415 117.344 418.261 116.764L417.891 115.104L417.711 114.004L417.341 113.094L416.971 110.884L416.791 110.334V109.784C416.485 109.051 416.301 108.377 416.241 107.764L415.871 105.564L415.501 104.644L415.141 103.174V102.444C414.775 101.431 414.591 100.574 414.591 99.8741C414.465 99.7207 414.401 99.5374 414.401 99.3241L414.221 98.7641V98.2141C413.915 97.5141 413.731 96.7807 413.671 96.0141C413.365 95.0341 413.181 94.1174 413.121 93.2641L412.751 93.9941L412.571 95.0941L412.021 97.4841L411.651 99.5041L411.461 100.054L410.731 103.174L410.551 103.914L410.181 105.744L410.001 106.484L409.631 108.504L409.451 109.054L408.711 112.534L408.341 113.824L408.161 115.104C407.828 116.024 407.645 116.821 407.611 117.494L407.431 117.864L407.241 118.964L407.061 119.514L406.141 124.104L405.961 124.654L405.221 128.144L405.041 128.874L404.861 129.794L404.671 130.344L403.941 133.834L403.571 135.304L403.201 137.144L403.021 137.504L402.651 139.164L402.471 139.894L402.291 141.174C402.071 141.941 401.948 142.554 401.921 143.014C401.795 143.321 401.711 143.611 401.671 143.884C401.625 144.164 401.585 144.424 401.551 144.664C401.125 144.731 400.735 144.784 400.381 144.824C400.028 144.871 399.685 144.894 399.351 144.894H398.891C398.738 144.894 398.585 144.881 398.431 144.854H387.781V144.114C387.355 143.014 387.111 141.974 387.051 140.994C386.925 140.841 386.861 140.657 386.861 140.444L386.681 139.524C386.008 137.351 385.578 135.514 385.391 134.014L385.211 133.464L384.291 129.984L384.111 128.514L382.641 122.824V122.084C382.335 121.384 382.151 120.651 382.091 119.884L381.721 118.784L381.361 117.494V116.944L380.441 113.274V112.724L380.251 111.984L379.891 111.254L379.701 109.784C379.461 109.051 379.265 108.377 379.111 107.764C378.958 107.151 378.851 106.601 378.791 106.114L378.601 105.564V105.014C378.481 104.861 378.421 104.677 378.421 104.464L378.051 102.994L377.871 102.444C377.745 101.797 377.628 101.214 377.521 100.694C377.415 100.174 377.285 99.7174 377.131 99.3241L376.951 98.0341C376.738 97.4207 376.568 96.8541 376.441 96.3341C376.321 95.8141 376.245 95.3407 376.211 94.9141L376.031 93.9941C375.911 93.8407 375.851 93.6574 375.851 93.4441L374.931 89.7741L374.561 88.4841L374.381 87.5741L374.201 86.8341L374.011 85.5541C373.765 84.9074 373.641 84.3541 373.641 83.8941V83.7141L373.281 82.7941L373.091 82.0641C372.971 81.1774 372.788 80.4407 372.541 79.8541V79.1241C372.421 78.9707 372.361 78.7874 372.361 78.5741" fill="white"/>
<path d="M497.816 99.1348L498.376 100.235C499.809 102.015 500.726 103.851 501.126 105.745C501.246 106.538 501.336 107.281 501.396 107.975C501.462 108.661 501.496 109.265 501.496 109.785V134.015C502.622 136.255 504.272 137.601 506.446 138.055L506.086 138.605C505.959 138.825 505.836 138.948 505.716 138.975L505.536 139.525L505.166 139.895C504.859 140.568 504.492 141.118 504.066 141.545C503.632 142.678 503.079 143.535 502.406 144.115C502.132 144.728 501.872 145.258 501.626 145.705C501.386 146.145 501.159 146.535 500.946 146.875C497.366 145.955 494.549 144.301 492.496 141.915H491.946C487.999 144.761 483.929 146.185 479.736 146.185C477.469 146.185 475.236 145.801 473.036 145.035C466.456 142.681 462.479 138.398 461.106 132.185V131.955C461.106 120.115 468.036 114.195 481.896 114.195H482.036C482.309 114.068 482.612 114.005 482.946 114.005L483.496 113.825H484.786L485.336 113.645H485.886L490.476 113.095C490.536 112.755 490.566 112.448 490.566 112.175V111.255C490.566 106.141 487.859 103.585 482.446 103.585C478.679 103.585 473.522 104.855 466.976 107.395L466.246 105.745L465.876 104.645L465.506 104.275L465.326 103.915L464.956 102.805C464.622 102.258 464.379 101.708 464.226 101.155C463.579 100.301 463.149 99.4448 462.936 98.5848L463.486 98.4048L463.856 98.2148L464.406 98.0348L464.776 97.6648H465.326C465.446 97.5448 465.552 97.4848 465.646 97.4848H465.696C466.796 96.9048 467.772 96.4748 468.626 96.1948L469.546 96.0148C470.219 95.7081 470.832 95.5248 471.386 95.4648L472.856 95.0948C473.922 94.6681 474.962 94.4248 475.976 94.3648L480.016 93.6248C480.622 93.5648 481.209 93.5115 481.776 93.4648C482.342 93.4181 482.902 93.3948 483.456 93.3948C489.296 93.3948 494.082 95.3081 497.816 99.1348ZM486.066 122.455H484.966C484.692 122.515 484.426 122.561 484.166 122.595C483.906 122.621 483.652 122.635 483.406 122.635H483.136L482.396 122.825H481.846C481.692 122.945 481.509 123.005 481.296 123.005H480.746L477.806 123.735H477.256C476.402 124.228 475.669 124.535 475.056 124.655C473.069 126.555 472.076 128.391 472.076 130.165C472.076 131.785 472.886 133.375 474.506 134.935C476.859 136.375 479.152 137.095 481.386 137.095C484.232 137.095 486.956 135.948 489.556 133.655C489.802 132.948 490.049 132.458 490.296 132.185L490.476 131.635L490.296 130.895V122.265H486.626C486.472 122.391 486.286 122.455 486.066 122.455Z" fill="white"/>
<path d="M560.3 103.537V104.087C560.7 104.82 560.947 105.554 561.04 106.287V144.657H549.84V112.167L549.65 111.067C548.124 106.44 545.554 104.127 541.94 104.127C540.84 104.127 539.617 104.357 538.27 104.817C535.21 106.137 533.007 108.22 531.66 111.067L530.93 114.187V144.657H519.91V94.5371H530.93V98.7571C534.357 95.6971 538.09 93.8637 542.13 93.2571H542.95C551.15 93.2571 556.934 96.6837 560.3 103.537Z" fill="white"/>
<path d="M123.75 68.5001H73.25V166.5H123.75V68.5001Z" stroke="white" stroke-width="2" stroke-dasharray="5 5"/>
<path d="M171.25 68.5001H125.75V166.5H171.25V68.5001Z" stroke="white" stroke-width="2" stroke-dasharray="5 5"/>
<path d="M228.75 68.5001H173.25V166.5H228.75V68.5001Z" stroke="white" stroke-width="2" stroke-dasharray="5 5"/>
<path d="M283.25 68.5001H230.75V166.5H283.25V68.5001Z" stroke="white" stroke-width="2" stroke-dasharray="5 5"/>
<path d="M339.25 68.5001H285.25V166.5H339.25V68.5001Z" stroke="white" stroke-width="2" stroke-dasharray="5 5"/>
<path d="M364.25 68.5001H341.25V166.5H364.25V68.5001Z" stroke="white" stroke-width="2" stroke-dasharray="5 5"/>
<path d="M455.75 68.5001H366.25V166.5H455.75V68.5001Z" stroke="white" stroke-width="2" stroke-dasharray="5 5"/>
<path d="M511.25 68.5001H457.75V166.5H511.25V68.5001Z" stroke="white" stroke-width="2" stroke-dasharray="5 5"/>
<path d="M567.25 68.5001H513.25V166.5H567.25V68.5001Z" stroke="white" stroke-width="2" stroke-dasharray="5 5"/>
<path d="M196.75 560V585H159.25C152.346 585 146.75 590.596 146.75 597.5V522.5C146.75 529.403 152.346 535 159.25 535H196.75V560Z" fill="white"/>
<path d="M116.413 239.165V230.055H169.403V239.165H116.413ZM109.553 257.275V248.385H176.823V257.275H109.553ZM94.1325 276.175V266.955H192.013V276.175H94.1325ZM107.973 214.075V205.525H147.123V214.075H107.973ZM138.013 211.265V205.525H149.603C152.003 208.599 154.909 211.579 158.323 214.465C161.736 217.359 165.503 220.042 169.623 222.515C173.749 224.989 178.063 227.202 182.563 229.155C187.063 231.102 191.599 232.752 196.173 234.105C195.353 234.705 194.416 235.492 193.363 236.465C192.316 237.439 191.303 238.452 190.323 239.505C189.349 240.552 188.563 241.525 187.963 242.425C181.963 240.252 176.039 237.552 170.193 234.325C164.339 231.099 158.919 227.519 153.933 223.585C148.946 219.645 144.653 215.539 141.053 211.265H138.013ZM135.543 206.655L145.213 210.365C141.539 215.312 137.076 219.885 131.823 224.085C126.576 228.285 120.969 231.999 115.003 235.225C109.043 238.452 103.026 241.265 96.9525 243.665C96.4259 242.912 95.7125 242.012 94.8125 240.965C93.9125 239.912 92.9759 238.879 92.0025 237.865C91.0292 236.859 90.1659 236.055 89.4125 235.455C95.5659 233.575 101.566 231.212 107.413 228.365C113.266 225.512 118.609 222.249 123.443 218.575C128.283 214.902 132.316 210.929 135.543 206.655ZM137.343 273.365V234.215H148.253V273.365H137.343ZM93.3525 193.935V184.155H192.803V193.935H93.3525ZM117.313 203.275V175.605H127.893V203.275H117.313ZM157.593 203.835V175.605H168.163V203.835" fill="white"/>
<path d="M279.678 183.368V177.858H299.358V183.368H279.678ZM278.998 201.708V196.308H300.148V201.708H278.998ZM278.998 210.138V204.858H300.148V210.138H278.998ZM262.578 263.468V256.608H319.608V263.468H262.578ZM275.738 192.818V186.858H302.738V192.818H275.738ZM293.398 219.028H285.408V225.438H293.398V219.028ZM278.768 230.618V213.858H300.258V230.618H278.768ZM264.488 251.878V245.468H311.168V240.628H257.508V234.218H321.078V251.878H264.488ZM260.658 232.188V206.658H267.748V232.188H260.658ZM250.428 210.588L249.638 203.728C252.938 203.581 256.631 203.431 260.718 203.278C264.804 203.131 269.134 202.945 273.708 202.718V208.908C269.508 209.281 265.441 209.581 261.508 209.808C257.568 210.028 253.874 210.288 250.428 210.588ZM261.448 245.468H271.348C270.448 249.068 269.474 252.818 268.428 256.718C267.374 260.618 266.398 263.991 265.498 266.838L255.938 265.488C256.984 262.715 257.998 259.508 258.978 255.868C259.951 252.235 260.774 248.768 261.448 245.468ZM316.238 257.728V256.608H326.248C326.248 256.608 326.211 257.111 326.138 258.118C326.064 259.131 325.914 259.978 325.688 260.658C324.634 265.305 323.544 268.958 322.418 271.618C321.298 274.285 319.988 276.218 318.488 277.418C317.214 278.318 315.844 278.935 314.378 279.268C312.918 279.608 311.174 279.815 309.148 279.888C307.421 279.968 304.964 279.988 301.778 279.948C298.591 279.908 295.198 279.815 291.598 279.668C291.524 278.468 291.224 277.118 290.698 275.618C290.171 274.118 289.534 272.768 288.788 271.568C292.314 271.941 295.728 272.165 299.028 272.238C302.328 272.318 304.651 272.358 305.998 272.358C307.198 272.358 308.171 272.318 308.918 272.238C309.671 272.165 310.311 271.941 310.838 271.568C311.884 270.741 312.841 269.258 313.708 267.118C314.568 264.985 315.411 261.855 316.238 257.728ZM269.098 214.638L274.498 213.408C275.098 215.281 275.678 217.341 276.238 219.588C276.804 221.841 277.238 223.791 277.538 225.438L271.688 227.018C271.534 225.291 271.214 223.285 270.728 220.998C270.241 218.711 269.698 216.591 269.098 214.638ZM268.758 199.338L273.598 197.538C274.571 199.418 275.471 201.518 276.298 203.838C277.124 206.165 277.688 208.191 277.988 209.918L272.698 211.938C272.471 210.218 271.984 208.195 271.238 205.868C270.484 203.541 269.658 201.365 268.758 199.338ZM250.758 190.458L254.358 185.058C256.538 186.478 258.674 188.108 260.768 189.948C262.874 191.788 264.451 193.381 265.498 194.728L261.448 200.918C260.321 199.345 258.748 197.581 256.728 195.628C254.701 193.681 252.711 191.958 250.758 190.458ZM261.448 175.268L267.858 178.418C266.358 180.891 264.858 183.405 263.358 185.958C261.858 188.505 260.434 190.641 259.088 192.368L254.138 189.778C255.338 187.831 256.651 185.451 258.078 182.638C259.498 179.825 260.621 177.368 261.448 175.268ZM268.648 184.608L274.948 188.208C272.474 191.581 269.831 195.141 267.018 198.888C264.204 202.641 261.561 205.791 259.088 208.338L254.358 205.418C255.938 203.545 257.628 201.408 259.428 199.008C261.228 196.608 262.931 194.131 264.538 191.578C266.151 189.031 267.521 186.708 268.648 184.608ZM253.238 212.958L259.878 214.418C259.198 217.345 258.371 220.268 257.398 223.188C256.424 226.115 255.374 228.628 254.248 230.728C253.574 230.281 252.598 229.775 251.318 229.208C250.044 228.648 248.998 228.181 248.178 227.808C249.451 225.708 250.498 223.361 251.318 220.768C252.144 218.181 252.784 215.578 253.238 212.958ZM312.638 232.188V206.658H319.838V232.188H312.638ZM302.288 210.588L301.608 203.728C305.061 203.581 308.944 203.431 313.258 203.278C317.571 203.131 322.164 202.981 327.038 202.828L326.918 209.018C322.498 209.318 318.204 209.598 314.038 209.858C309.878 210.125 305.961 210.368 302.288 210.588ZM321.408 214.638L327.148 212.958C328.121 215.205 329.078 217.678 330.018 220.378C330.951 223.078 331.608 225.405 331.988 227.358L326.028 229.268C325.728 227.315 325.128 224.951 324.228 222.178C323.328 219.405 322.388 216.891 321.408 214.638ZM320.508 199.118L325.798 196.758C327.071 198.705 328.251 200.858 329.338 203.218C330.431 205.585 331.201 207.668 331.648 209.468L325.908 212.058C325.534 210.258 324.841 208.138 323.828 205.698C322.814 203.258 321.708 201.065 320.508 199.118ZM301.838 190.228L305.658 185.168C307.611 186.515 309.561 188.071 311.508 189.838C313.461 191.598 314.961 193.191 316.008 194.618L311.628 200.468C310.648 198.968 309.241 197.241 307.408 195.288C305.568 193.341 303.711 191.655 301.838 190.228ZM312.858 175.378L319.278 178.638C317.698 181.118 316.121 183.611 314.548 186.118C312.974 188.631 311.474 190.788 310.048 192.588L305.098 190.008C306.371 188.055 307.758 185.671 309.258 182.858C310.758 180.045 311.958 177.551 312.858 175.378ZM320.848 184.158L327.148 187.758C324.601 191.131 321.828 194.691 318.828 198.438C315.828 202.191 312.978 205.341 310.278 207.888L305.658 204.968C307.384 203.095 309.184 200.958 311.058 198.558C312.938 196.158 314.738 193.681 316.458 191.128C318.184 188.581 319.648 186.258 320.848 184.158ZM305.098 212.958L311.628 214.528C311.101 217.301 310.351 220.131 309.378 223.018C308.398 225.911 307.348 228.368 306.228 230.388C305.628 230.015 304.728 229.508 303.528 228.868C302.328 228.235 301.278 227.731 300.378 227.358C301.571 225.258 302.544 222.968 303.298 220.488C304.044 218.015 304.644 215.505 305.098 212.958ZM228.598 184.038L234.788 177.068C236.661 178.041 238.628 179.221 240.688 180.608C242.754 181.995 244.688 183.381 246.488 184.768C248.288 186.161 249.751 187.495 250.878 188.768L244.458 196.638C243.411 195.365 242.004 193.978 240.238 192.478C238.478 190.978 236.584 189.498 234.558 188.038C232.538 186.571 230.551 185.238 228.598 184.038ZM226.238 214.078L232.088 206.768C234.034 207.668 236.078 208.775 238.218 210.088C240.358 211.401 242.344 212.711 244.178 214.018C246.018 215.331 247.538 216.588 248.738 217.788L242.548 225.888C241.421 224.688 239.941 223.378 238.108 221.958C236.268 220.531 234.298 219.125 232.198 217.738C230.098 216.351 228.111 215.131 226.238 214.078ZM238.048 278.658L228.488 273.258C229.914 270.258 231.431 266.768 233.038 262.788C234.651 258.815 236.301 254.615 237.988 250.188C239.681 245.768 241.238 241.418 242.658 237.138L251.098 242.538C249.898 246.518 248.548 250.608 247.048 254.808C245.548 259.008 244.048 263.131 242.548 267.178C241.048 271.231 239.548 275.058 238.048 278.658Z" fill="white"/>
<path d="M208.75 168.5H73.25V309H208.75V168.5Z" stroke="white" stroke-width="2" stroke-dasharray="5 5"/>
<path d="M346.25 168.5H210.75V309H346.25V168.5Z" stroke="white" stroke-width="2" stroke-dasharray="5 5"/>
<path d="M208.75 379.697V536.697" stroke="#46C147" stroke-width="3.03189"/>
<path d="M196.75 499.822V381.485" stroke="#46C147" stroke-width="3.03189"/>
<path d="M208.75 405.74H196.75" stroke="#46C147" stroke-width="3.03189"/>
<path d="M208.75 405.74L245.133 414.836V396.644L208.75 405.74Z" fill="#46C147"/>
<path d="M196.75 405.74L160.367 414.836V396.644L196.75 405.74Z" fill="#46C147"/>
<path d="M178.555 372H175.357V351.624C174.587 352.358 173.575 353.092 172.319 353.826C171.076 354.561 169.956 355.111 168.962 355.479V352.387C170.75 351.547 172.313 350.528 173.652 349.332C174.99 348.136 175.937 346.975 176.494 345.85H178.555V372ZM186.371 366.369L189.533 365.871C189.711 367.138 190.203 368.109 191.008 368.785C191.825 369.46 192.962 369.797 194.419 369.797C195.887 369.797 196.977 369.501 197.688 368.909C198.398 368.305 198.754 367.6 198.754 366.795C198.754 366.072 198.44 365.504 197.812 365.089C197.374 364.805 196.284 364.444 194.543 364.006C192.198 363.414 190.57 362.904 189.658 362.478C188.758 362.04 188.071 361.442 187.597 360.684C187.135 359.914 186.904 359.067 186.904 358.143C186.904 357.302 187.094 356.527 187.473 355.816C187.864 355.094 188.391 354.496 189.054 354.022C189.551 353.655 190.226 353.347 191.079 353.098C191.944 352.837 192.867 352.707 193.85 352.707C195.331 352.707 196.628 352.92 197.741 353.347C198.866 353.773 199.695 354.353 200.228 355.088C200.761 355.81 201.128 356.781 201.329 358.001L198.203 358.428C198.061 357.456 197.646 356.698 196.959 356.154C196.284 355.609 195.325 355.336 194.081 355.336C192.613 355.336 191.565 355.579 190.937 356.065C190.309 356.55 189.995 357.119 189.995 357.77C189.995 358.185 190.126 358.558 190.386 358.889C190.647 359.233 191.055 359.517 191.612 359.742C191.932 359.861 192.873 360.133 194.437 360.559C196.699 361.163 198.274 361.661 199.162 362.052C200.062 362.431 200.767 362.987 201.276 363.722C201.785 364.456 202.04 365.368 202.04 366.457C202.04 367.523 201.726 368.53 201.098 369.477C200.483 370.413 199.588 371.141 198.416 371.662C197.243 372.172 195.917 372.426 194.437 372.426C191.985 372.426 190.114 371.917 188.823 370.899C187.544 369.88 186.727 368.37 186.371 366.369ZM209.324 372L203.55 353.134H206.854L209.857 364.024L210.976 368.074C211.023 367.873 211.349 366.576 211.953 364.183L214.955 353.134H218.242L221.066 364.077L222.008 367.683L223.092 364.041L226.325 353.134H229.434L223.536 372H220.214L217.211 360.701L216.483 357.486L212.664 372H209.324Z" fill="#46C147"/>
<path d="M196.383 466.61V536.61" stroke="#46C147" stroke-width="3.03189"/>
<path d="M148 463.485V536.485" stroke="#46C147" stroke-width="3.03189"/>
<path d="M142.383 487.74H196.383" stroke="#46C147" stroke-width="3.03189"/>
<path d="M196.383 487.74L232.766 496.836V478.644L196.383 487.74Z" fill="#46C147"/>
<path d="M148.383 487.74L112 496.836V478.644L148.383 487.74Z" fill="#46C147"/>
<path d="M90.7604 469V462.764H79.4619V459.833L91.3467 442.956H93.9581V459.833H97.4756V462.764H93.9581V469H90.7604ZM90.7604 459.833V448.091L82.6063 459.833H90.7604ZM100.371 463.368L103.533 462.871C103.711 464.138 104.203 465.109 105.008 465.785C105.825 466.46 106.962 466.797 108.419 466.797C109.887 466.797 110.977 466.501 111.688 465.909C112.398 465.305 112.754 464.6 112.754 463.795C112.754 463.072 112.44 462.504 111.812 462.089C111.374 461.805 110.284 461.444 108.543 461.006C106.198 460.414 104.57 459.904 103.658 459.478C102.758 459.04 102.071 458.442 101.597 457.684C101.135 456.914 100.904 456.067 100.904 455.143C100.904 454.302 101.094 453.527 101.473 452.816C101.864 452.094 102.391 451.496 103.054 451.022C103.551 450.655 104.226 450.347 105.079 450.098C105.944 449.837 106.867 449.707 107.85 449.707C109.331 449.707 110.628 449.92 111.741 450.347C112.866 450.773 113.695 451.353 114.228 452.088C114.761 452.81 115.128 453.781 115.329 455.001L112.203 455.428C112.061 454.456 111.646 453.698 110.959 453.154C110.284 452.609 109.325 452.336 108.081 452.336C106.613 452.336 105.565 452.579 104.937 453.065C104.309 453.55 103.995 454.119 103.995 454.77C103.995 455.185 104.126 455.558 104.386 455.889C104.647 456.233 105.055 456.517 105.612 456.742C105.932 456.861 106.873 457.133 108.437 457.559C110.699 458.163 112.274 458.661 113.162 459.052C114.062 459.431 114.767 459.987 115.276 460.722C115.785 461.456 116.04 462.368 116.04 463.457C116.04 464.523 115.726 465.53 115.098 466.477C114.483 467.413 113.588 468.141 112.416 468.662C111.243 469.172 109.917 469.426 108.437 469.426C105.985 469.426 104.114 468.917 102.823 467.899C101.544 466.88 100.727 465.37 100.371 463.368ZM123.324 469L117.55 450.134H120.854L123.857 461.024L124.976 465.074C125.023 464.873 125.349 463.576 125.953 461.183L128.955 450.134H132.242L135.066 461.077L136.008 464.683L137.092 461.041L140.325 450.134H143.434L137.536 469H134.214L131.211 457.701L130.483 454.486L126.664 469H123.324Z" fill="#46C147"/>
<path d="M311.875 460H427.087" stroke="#FF0000" stroke-width="3.03189"/>
<path d="M347.25 310H427.087" stroke="#FF0000" stroke-width="3.03189"/>
<path d="M402.832 460V310" stroke="#FF0000" stroke-width="3.03189"/>
<path d="M402.832 460L393.736 496.383H411.928L402.832 460Z" fill="#FF0000"/>
<path d="M402.832 310L393.736 273.617H411.928L402.832 310Z" fill="#FF0000"/>
<path d="M431.247 385.381V382.166H441.071V385.381H431.247ZM455.763 393.198H452.565V372.821C451.795 373.555 450.783 374.29 449.527 375.024C448.284 375.758 447.164 376.309 446.17 376.676V373.585C447.958 372.744 449.521 371.726 450.86 370.53C452.198 369.333 453.145 368.173 453.702 367.048H455.763V393.198ZM480.776 390.124V393.198H463.562C463.538 392.428 463.662 391.688 463.935 390.977C464.373 389.805 465.072 388.65 466.031 387.513C467.002 386.376 468.4 385.061 470.223 383.569C473.054 381.248 474.967 379.412 475.962 378.062C476.956 376.7 477.454 375.415 477.454 374.207C477.454 372.94 476.998 371.874 476.086 371.009C475.186 370.133 474.007 369.695 472.551 369.695C471.011 369.695 469.779 370.156 468.856 371.08C467.932 372.004 467.464 373.283 467.452 374.917L464.166 374.58C464.391 372.128 465.237 370.263 466.706 368.984C468.175 367.693 470.146 367.048 472.622 367.048C475.121 367.048 477.099 367.74 478.555 369.126C480.012 370.512 480.74 372.229 480.74 374.278C480.74 375.32 480.527 376.345 480.101 377.351C479.674 378.358 478.964 379.418 477.969 380.531C476.986 381.644 475.346 383.172 473.048 385.115C471.129 386.725 469.898 387.821 469.353 388.401C468.808 388.97 468.358 389.544 468.003 390.124H480.776ZM486.017 393.198V389.556H489.658V393.198H486.017ZM494.348 380.354C494.348 377.274 494.662 374.799 495.29 372.928C495.929 371.045 496.871 369.594 498.115 368.575C499.37 367.557 500.945 367.048 502.84 367.048C504.238 367.048 505.463 367.332 506.517 367.9C507.571 368.457 508.442 369.268 509.129 370.334C509.816 371.388 510.355 372.679 510.745 374.207C511.136 375.723 511.332 377.772 511.332 380.354C511.332 383.409 511.018 385.878 510.39 387.762C509.762 389.633 508.821 391.084 507.566 392.114C506.322 393.133 504.747 393.642 502.84 393.642C500.329 393.642 498.357 392.742 496.924 390.942C495.207 388.774 494.348 385.245 494.348 380.354ZM497.635 380.354C497.635 384.629 498.132 387.477 499.127 388.899C500.134 390.308 501.371 391.013 502.84 391.013C504.309 391.013 505.54 390.302 506.535 388.881C507.542 387.46 508.045 384.617 508.045 380.354C508.045 376.066 507.542 373.218 506.535 371.809C505.54 370.399 504.297 369.695 502.805 369.695C501.336 369.695 500.163 370.316 499.287 371.56C498.186 373.147 497.635 376.078 497.635 380.354ZM514.21 387.566L517.372 387.069C517.549 388.336 518.041 389.307 518.846 389.982C519.663 390.657 520.8 390.995 522.257 390.995C523.726 390.995 524.815 390.699 525.526 390.107C526.237 389.503 526.592 388.798 526.592 387.993C526.592 387.27 526.278 386.702 525.65 386.287C525.212 386.003 524.123 385.642 522.382 385.203C520.037 384.611 518.408 384.102 517.496 383.676C516.596 383.237 515.909 382.639 515.435 381.881C514.974 381.112 514.743 380.265 514.743 379.341C514.743 378.5 514.932 377.724 515.311 377.014C515.702 376.291 516.229 375.693 516.892 375.219C517.39 374.852 518.065 374.544 518.917 374.296C519.782 374.035 520.706 373.905 521.689 373.905C523.169 373.905 524.466 374.118 525.579 374.544C526.704 374.971 527.533 375.551 528.066 376.285C528.599 377.008 528.966 377.979 529.168 379.199L526.041 379.625C525.899 378.654 525.484 377.896 524.798 377.351C524.123 376.806 523.163 376.534 521.92 376.534C520.451 376.534 519.403 376.777 518.775 377.262C518.148 377.748 517.834 378.317 517.834 378.968C517.834 379.382 517.964 379.755 518.225 380.087C518.485 380.431 518.894 380.715 519.45 380.94C519.77 381.058 520.712 381.331 522.275 381.757C524.537 382.361 526.112 382.858 527 383.249C527.901 383.628 528.605 384.185 529.114 384.919C529.624 385.653 529.878 386.565 529.878 387.655C529.878 388.721 529.565 389.728 528.937 390.675C528.321 391.611 527.427 392.339 526.254 392.86C525.082 393.369 523.755 393.624 522.275 393.624C519.823 393.624 517.952 393.115 516.661 392.096C515.382 391.078 514.565 389.568 514.21 387.566ZM537.162 393.198L531.388 374.331H534.693L537.695 385.221L538.814 389.272C538.862 389.07 539.187 387.773 539.791 385.381L542.794 374.331H546.08L548.905 385.274L549.846 388.881L550.93 385.239L554.163 374.331H557.272L551.374 393.198H548.052L545.05 381.899L544.321 378.684L540.502 393.198H537.162Z" fill="#FF0000"/>
</g>
<defs>
<clipPath id="clip0_0_1">
<rect width="640" height="740" fill="white"/>
</clipPath>
</defs>
</svg>
