<svg width="1054" height="365" viewBox="0 0 1054 365" fill="none" xmlns="http://www.w3.org/2000/svg">
<path d="M100.094 38.7499C106.794 27.1461 119.175 19.9985 132.574 19.9999H913.953C934.664 19.9999 951.453 36.7892 951.453 57.4999V307.5C951.453 328.211 934.664 345 913.953 345H132.574C119.175 345.001 106.794 337.854 100.094 326.25L22.5149 191.88C19.1617 186.076 19.1617 178.924 22.5149 173.12L100.094 38.7499Z" fill="white"/>
<path d="M116.334 48.12C119.685 42.32 125.876 38.7482 132.574 38.7499H916.848C927.204 38.7499 935.598 47.1446 935.598 57.4999V307.5C935.598 317.855 927.204 326.25 916.848 326.25H132.574C125.876 326.252 119.685 322.68 116.334 316.88L38.7499 182.5L116.334 48.12Z" fill="#0033A2"/>
<path d="M165.42 57.4999H252.023L175.871 182.5L252.023 310H165.42L89.2682 182.5L165.42 57.4999Z" fill="white"/>
<path d="M314.935 239.165V230.055H367.925V239.165H314.935ZM308.075 257.275V248.385H375.345V257.275H308.075ZM292.655 276.175V266.955H390.535V276.175H292.655ZM306.495 214.075V205.525H345.645V214.075H306.495ZM336.535 211.265V205.525H348.125C350.525 208.599 353.432 211.579 356.845 214.465C360.259 217.359 364.025 220.042 368.145 222.515C372.272 224.989 376.585 227.202 381.085 229.155C385.585 231.102 390.122 232.752 394.695 234.105C393.875 234.705 392.939 235.492 391.885 236.465C390.839 237.439 389.825 238.452 388.845 239.505C387.872 240.552 387.085 241.525 386.485 242.425C380.485 240.252 374.562 237.552 368.715 234.325C362.862 231.099 357.442 227.519 352.455 223.585C347.469 219.645 343.175 215.539 339.575 211.265H336.535ZM334.065 206.655L343.735 210.365C340.062 215.312 335.599 219.885 330.345 224.085C325.099 228.285 319.492 231.999 313.525 235.225C307.565 238.452 301.549 241.265 295.475 243.665C294.949 242.912 294.235 242.012 293.335 240.965C292.435 239.912 291.499 238.879 290.525 237.865C289.552 236.859 288.689 236.055 287.935 235.455C294.089 233.575 300.089 231.212 305.935 228.365C311.789 225.512 317.132 222.249 321.965 218.575C326.805 214.902 330.839 210.929 334.065 206.655ZM335.865 273.365V234.215H346.775V273.365H335.865ZM291.875 193.935V184.155H391.325V193.935H291.875ZM315.835 203.275V175.605H326.415V203.275H315.835ZM356.115 203.835V175.605H366.685V203.835" fill="white"/>
<path d="M478.2 183.368V177.858H497.88V183.368H478.2ZM477.52 201.708V196.308H498.67V201.708H477.52ZM477.52 210.138V204.858H498.67V210.138H477.52ZM461.1 263.468V256.608H518.13V263.468H461.1ZM474.26 192.818V186.858H501.26V192.818H474.26ZM491.92 219.028H483.93V225.438H491.92V219.028ZM477.29 230.618V213.858H498.78V230.618H477.29ZM463.01 251.878V245.468H509.69V240.628H456.03V234.218H519.6V251.878H463.01ZM459.18 232.188V206.658H466.27V232.188H459.18ZM448.95 210.588L448.16 203.728C451.46 203.581 455.154 203.431 459.24 203.278C463.327 203.131 467.657 202.944 472.23 202.718V208.908C468.03 209.281 463.964 209.581 460.03 209.808C456.09 210.028 452.397 210.288 448.95 210.588ZM459.97 245.468H469.87C468.97 249.068 467.997 252.818 466.95 256.718C465.897 260.618 464.92 263.991 464.02 266.838L454.46 265.488C455.507 262.714 456.52 259.508 457.5 255.868C458.474 252.234 459.297 248.768 459.97 245.468ZM514.76 257.728V256.608H524.77C524.77 256.608 524.734 257.111 524.66 258.118C524.587 259.131 524.437 259.978 524.21 260.658C523.157 265.304 522.067 268.958 520.94 271.618C519.82 274.284 518.51 276.218 517.01 277.418C515.737 278.318 514.367 278.934 512.9 279.268C511.44 279.608 509.697 279.814 507.67 279.888C505.944 279.968 503.487 279.988 500.3 279.948C497.114 279.908 493.72 279.814 490.12 279.668C490.047 278.468 489.747 277.118 489.22 275.618C488.694 274.118 488.057 272.768 487.31 271.568C490.837 271.941 494.25 272.164 497.55 272.238C500.85 272.318 503.174 272.358 504.52 272.358C505.72 272.358 506.694 272.318 507.44 272.238C508.194 272.164 508.834 271.941 509.36 271.568C510.407 270.741 511.364 269.258 512.23 267.118C513.09 264.984 513.934 261.854 514.76 257.728ZM467.62 214.638L473.02 213.408C473.62 215.281 474.2 217.341 474.76 219.588C475.327 221.841 475.76 223.791 476.06 225.438L470.21 227.018C470.057 225.291 469.737 223.284 469.25 220.998C468.764 218.711 468.22 216.591 467.62 214.638ZM467.28 199.338L472.12 197.538C473.094 199.418 473.994 201.518 474.82 203.838C475.647 206.164 476.21 208.191 476.51 209.918L471.22 211.938C470.994 210.218 470.507 208.194 469.76 205.868C469.007 203.541 468.18 201.364 467.28 199.338ZM449.28 190.458L452.88 185.058C455.06 186.478 457.197 188.108 459.29 189.948C461.397 191.788 462.974 193.381 464.02 194.728L459.97 200.918C458.844 199.344 457.27 197.581 455.25 195.628C453.224 193.681 451.234 191.958 449.28 190.458ZM459.97 175.268L466.38 178.418C464.88 180.891 463.38 183.404 461.88 185.958C460.38 188.504 458.957 190.641 457.61 192.368L452.66 189.778C453.86 187.831 455.174 185.451 456.6 182.638C458.02 179.824 459.144 177.368 459.97 175.268ZM467.17 184.608L473.47 188.208C470.997 191.581 468.354 195.141 465.54 198.888C462.727 202.641 460.084 205.791 457.61 208.338L452.88 205.418C454.46 203.544 456.15 201.408 457.95 199.008C459.75 196.608 461.454 194.131 463.06 191.578C464.674 189.031 466.044 186.708 467.17 184.608ZM451.76 212.958L458.4 214.418C457.72 217.344 456.894 220.268 455.92 223.188C454.947 226.114 453.897 228.628 452.77 230.728C452.097 230.281 451.12 229.774 449.84 229.208C448.567 228.648 447.52 228.181 446.7 227.808C447.974 225.708 449.02 223.361 449.84 220.768C450.667 218.181 451.307 215.578 451.76 212.958ZM511.16 232.188V206.658H518.36V232.188H511.16ZM500.81 210.588L500.13 203.728C503.584 203.581 507.467 203.431 511.78 203.278C516.094 203.131 520.687 202.981 525.56 202.828L525.44 209.018C521.02 209.318 516.727 209.598 512.56 209.858C508.4 210.124 504.484 210.368 500.81 210.588ZM519.93 214.638L525.67 212.958C526.644 215.204 527.6 217.678 528.54 220.378C529.474 223.078 530.13 225.404 530.51 227.358L524.55 229.268C524.25 227.314 523.65 224.951 522.75 222.178C521.85 219.404 520.91 216.891 519.93 214.638ZM519.03 199.118L524.32 196.758C525.594 198.704 526.774 200.858 527.86 203.218C528.954 205.584 529.724 207.668 530.17 209.468L524.43 212.058C524.057 210.258 523.364 208.138 522.35 205.698C521.337 203.258 520.23 201.064 519.03 199.118ZM500.36 190.228L504.18 185.168C506.134 186.514 508.084 188.071 510.03 189.838C511.984 191.598 513.484 193.191 514.53 194.618L510.15 200.468C509.17 198.968 507.764 197.241 505.93 195.288C504.09 193.341 502.234 191.654 500.36 190.228ZM511.38 175.378L517.8 178.638C516.22 181.118 514.644 183.611 513.07 186.118C511.497 188.631 509.997 190.788 508.57 192.588L503.62 190.008C504.894 188.054 506.28 185.671 507.78 182.858C509.28 180.044 510.48 177.551 511.38 175.378ZM519.37 184.158L525.67 187.758C523.124 191.131 520.35 194.691 517.35 198.438C514.35 202.191 511.5 205.341 508.8 207.888L504.18 204.968C505.907 203.094 507.707 200.958 509.58 198.558C511.46 196.158 513.26 193.681 514.98 191.128C516.707 188.581 518.17 186.258 519.37 184.158ZM503.62 212.958L510.15 214.528C509.624 217.301 508.874 220.131 507.9 223.018C506.92 225.911 505.87 228.368 504.75 230.388C504.15 230.014 503.25 229.508 502.05 228.868C500.85 228.234 499.8 227.731 498.9 227.358C500.094 225.258 501.067 222.968 501.82 220.488C502.567 218.014 503.167 215.504 503.62 212.958ZM427.12 184.038L433.31 177.068C435.184 178.041 437.15 179.221 439.21 180.608C441.277 181.994 443.21 183.381 445.01 184.768C446.81 186.161 448.274 187.494 449.4 188.768L442.98 196.638C441.934 195.364 440.527 193.978 438.76 192.478C437 190.978 435.107 189.498 433.08 188.038C431.06 186.571 429.074 185.238 427.12 184.038ZM424.76 214.078L430.61 206.768C432.557 207.668 434.6 208.774 436.74 210.088C438.88 211.401 440.867 212.711 442.7 214.018C444.54 215.331 446.06 216.588 447.26 217.788L441.07 225.888C439.944 224.688 438.464 223.378 436.63 221.958C434.79 220.531 432.82 219.124 430.72 217.738C428.62 216.351 426.634 215.131 424.76 214.078ZM436.57 278.658L427.01 273.258C428.437 270.258 429.954 266.768 431.56 262.788C433.174 258.814 434.824 254.614 436.51 250.188C438.204 245.768 439.76 241.418 441.18 237.138L449.62 242.538C448.42 246.518 447.07 250.608 445.57 254.808C444.07 259.008 442.57 263.131 441.07 267.178C439.57 271.231 438.07 275.058 436.57 278.658Z" fill="white"/>
<path d="M407.273 168.5H271.773V309H407.273V168.5Z" stroke="white" stroke-width="2" stroke-dasharray="5 5"/>
<path d="M544.773 168.5H409.273V309H544.773V168.5Z" stroke="white" stroke-width="2" stroke-dasharray="5 5"/>
<path d="M848.061 132.5H904.311V170C905.421 205.082 882.051 236.243 848.061 245C814.071 236.243 790.7 205.082 791.811 170V132.5H848.061Z" fill="#E9B500"/>
<path d="M844.15 148.904C858.807 148.629 867.865 154.871 871.322 167.631L871.873 167.998L872.057 168.916L872.24 169.65L872.424 170.385L872.607 170.752L872.975 172.404V173.322C873.097 173.506 873.158 173.689 873.158 173.873L873.525 175.892L873.893 179.014L874.26 181.951C875.3 204.839 867.834 217.813 851.861 220.873C836.195 223.076 826.587 218.18 823.037 206.185L826.893 204.9C827.015 204.747 827.137 204.686 827.26 204.717L828.912 203.982C829.677 203.768 830.289 203.523 830.748 203.248L831.299 203.064H831.85C831.972 202.911 832.094 202.85 832.217 202.881L832.768 202.697L835.705 201.412H836.439C838.428 206.92 842.406 209.184 848.373 208.205C854.707 206.767 858.44 202.789 859.572 196.271L859.756 193.334C851.555 198.597 843.294 199.76 834.971 196.822C826.678 193.212 822.272 187.214 821.752 178.83C820.008 160.318 827.474 150.342 844.15 148.904ZM845.619 162.123C840.815 163.316 837.694 166.07 836.256 170.385C835.001 179.228 838.367 184.368 846.353 185.807C854.738 184.95 858.777 180.482 858.471 172.404C856.849 165.366 852.565 161.939 845.619 162.123Z" fill="black"/>
<path d="M272.292 85.5504V74.5304H322.962V85.5504H303.682V144.85H291.572V85.5504" fill="white"/>
<path d="M365.681 100.777L365.131 101.517L364.581 102.067L364.031 102.437L363.291 103.537L362.931 103.907L362.561 104.087C362.161 104.64 361.795 105.067 361.461 105.367L359.071 108.127C353.991 104.854 349.785 103.217 346.451 103.217C343.025 103.217 340.501 104.914 338.881 108.307C338.941 110.3 339.735 111.77 341.261 112.717C341.935 112.897 342.425 113.08 342.731 113.267C343.925 113.447 344.905 113.69 345.671 113.997C357.265 114.857 363.751 119.51 365.131 127.957C365.191 128.324 365.221 128.68 365.221 129.027C365.221 129.38 365.221 129.727 365.221 130.067C365.221 136.214 362.621 140.834 357.421 143.927C353.688 145.607 349.938 146.447 346.171 146.447C339.011 146.447 331.868 143.404 324.741 137.317L325.111 136.587L326.021 135.667C326.635 134.934 327.188 134.38 327.681 134.007C327.801 133.794 327.921 133.674 328.041 133.647L328.411 133.097C328.531 132.884 328.655 132.76 328.781 132.727L328.961 132.357L329.331 132.177L331.721 129.417C336.248 133.704 340.988 135.847 345.941 135.847C348.021 135.847 350.135 135.48 352.281 134.747C352.828 134.014 353.378 133.464 353.931 133.097C354.118 132.364 354.211 131.674 354.211 131.027C354.211 129.434 353.691 128.104 352.651 127.037L348.421 125.567C335.815 124.8 328.961 119.414 327.861 109.407C328.688 99.3403 334.378 93.957 344.931 93.257H345.581C353.688 93.257 360.388 95.7636 365.681 100.777Z" fill="white"/>
<path d="M378.06 130.526V94.7257H389.08V126.486C389.2 126.639 389.26 126.822 389.26 127.036C389.386 127.129 389.45 127.219 389.45 127.306V127.406C389.663 128.779 389.966 130.002 390.36 131.076C392.473 134.009 395.183 135.476 398.49 135.476H398.63C402.73 134.376 405.603 132.112 407.25 128.686V128.136L407.99 125.936V94.7257H419.19V144.846H407.99V140.806C403.583 144.412 399.193 146.216 394.82 146.216C391.42 146.216 387.976 145.146 384.49 143.006C381.643 140.832 379.683 138.262 378.61 135.296L378.43 134.006C378.156 133.119 378.02 132.249 378.02 131.396V130.986C378.02 130.832 378.033 130.679 378.06 130.526Z" fill="white"/>
<path d="M477.609 115.294L477.789 118.044C477.909 118.198 477.969 118.381 477.969 118.594V124.104H444.379C445.079 130.344 448.259 134.018 453.919 135.124C454.839 135.211 455.742 135.254 456.629 135.254C461.249 135.254 465.182 133.741 468.429 130.714C468.822 131.388 469.312 131.938 469.899 132.364L470.079 132.914L470.629 133.464C471.055 133.864 471.422 134.241 471.729 134.594C472.035 134.948 472.282 135.308 472.469 135.674C472.682 135.794 472.802 135.914 472.829 136.034L475.399 138.974C469.585 143.841 463.389 146.274 456.809 146.274C455.682 146.274 454.535 146.198 453.369 146.044C452.209 145.891 451.045 145.678 449.879 145.404C439.292 141.884 433.479 134.294 432.439 122.634C432.439 122.481 432.432 122.174 432.419 121.714C432.405 121.261 432.399 120.971 432.399 120.844C432.399 104.904 439.572 95.8308 453.919 93.6242C468.179 94.1175 476.075 101.341 477.609 115.294ZM444.189 115.474H466.409V114.924C466.282 114.558 466.219 114.191 466.219 113.824V113.454C465.912 112.781 465.729 112.171 465.669 111.624C463.409 106.391 459.675 103.758 454.469 103.724C447.922 105.284 444.495 109.201 444.189 115.474Z" fill="white"/>
<path d="M530.823 103.537V104.087C531.223 104.82 531.47 105.554 531.563 106.287V144.657H520.363V112.167L520.173 111.067C518.646 106.44 516.076 104.127 512.463 104.127C511.363 104.127 510.14 104.357 508.793 104.817C505.733 106.137 503.53 108.22 502.183 111.067L501.453 114.187V144.657H490.433V94.537H501.453V98.757C504.88 95.697 508.613 93.8636 512.653 93.257H513.473C521.673 93.257 527.456 96.6836 530.823 103.537Z" fill="white"/>
<path d="M569.964 75.084V74.714H582.634L582.814 76.004L583.004 76.554L583.364 77.844L583.734 80.044L584.284 81.874L584.654 84.084L585.204 85.914L585.384 87.384C585.597 87.904 585.721 88.334 585.754 88.674L585.934 89.404L586.304 90.504V91.244C586.424 91.3373 586.484 91.4273 586.484 91.514V92.164C586.824 92.8373 587.011 93.5706 587.044 94.364L587.404 95.464L587.774 96.754L588.144 98.954L588.694 100.784L588.874 101.894L589.974 106.484C590.067 106.911 590.154 107.301 590.234 107.654C590.307 108.001 590.344 108.344 590.344 108.684L590.714 109.414V110.154L591.074 111.074V111.804L591.444 112.534V113.274C591.784 114.194 591.967 114.991 591.994 115.664L592.184 116.394C592.397 117.007 592.564 117.574 592.684 118.094C592.804 118.614 592.881 119.087 592.914 119.514L593.284 120.984L593.654 122.264L594.014 121.164L594.754 117.494L595.114 116.574L595.304 115.474L595.854 112.904L596.224 111.624V111.074L596.954 108.134L597.134 107.034L597.504 106.294L597.684 105.564L597.874 104.644V103.914L598.054 103.354L598.794 100.424L599.154 98.214L599.344 97.484L599.704 96.754C599.771 95.774 599.954 94.914 600.254 94.174L600.444 93.264V92.714L600.814 91.244L600.994 90.694L601.544 88.304L601.724 87.204L602.094 86.104L602.274 85.184L602.824 82.794L603.014 81.874L603.194 81.514C603.227 81.174 603.267 80.844 603.314 80.524C603.361 80.204 603.444 79.9206 603.564 79.674L603.744 79.124V78.574L603.934 77.844L604.114 77.284L604.664 74.714H618.254V75.264C618.681 76.3373 618.924 77.3806 618.984 78.394L619.354 79.854L619.534 80.414L620.274 83.714L620.634 85.184C620.881 86.0706 621.004 86.804 621.004 87.384C621.217 87.904 621.341 88.334 621.374 88.674L621.734 89.954L621.924 91.244L622.104 91.974L622.294 92.524C622.381 92.924 622.457 93.284 622.524 93.604C622.584 93.924 622.627 94.2373 622.654 94.544C622.901 95.124 623.071 95.6606 623.164 96.154C623.257 96.6406 623.334 97.084 623.394 97.484L623.574 98.584L623.944 99.504L624.124 100.604V101.154C624.431 101.887 624.614 102.561 624.674 103.174L624.864 104.274C625.164 105.007 625.347 105.681 625.414 106.294L625.594 107.214L626.144 109.234V109.964C626.264 110.244 626.324 110.551 626.324 110.884C626.664 111.591 626.851 112.204 626.884 112.724L627.064 113.644L627.244 114.744L627.434 115.474C627.741 116.421 627.924 117.277 627.984 118.044C628.104 118.137 628.164 118.231 628.164 118.324V118.964C628.591 120.037 628.837 121.077 628.904 122.084C629.084 122.024 629.204 121.901 629.264 121.714C629.417 120.954 629.571 120.291 629.724 119.724C629.877 119.157 630.031 118.661 630.184 118.234V117.494C630.584 116.394 630.827 115.414 630.914 114.554L631.284 113.274L632.024 110.334L632.204 108.864L632.574 107.584L632.754 107.034V106.484C632.967 105.897 633.137 105.367 633.264 104.894C633.384 104.421 633.457 103.971 633.484 103.544L633.854 102.254L635.324 96.194L635.874 93.264L636.244 91.794C636.577 90.9073 636.761 90.174 636.794 89.594L636.974 88.674L637.344 87.204C637.617 86.3173 637.801 85.584 637.894 85.004L638.074 84.264L638.634 81.694L638.994 80.594V80.044L639.544 78.574V77.844L639.734 77.284L640.284 74.714H652.764L652.034 78.394L651.484 80.594L651.294 81.144L650.744 83.714L650.384 85.184L650.014 86.464L649.274 90.144L648.914 91.424L648.174 94.914L647.814 96.194L647.624 96.754L647.254 98.764L647.074 99.134L646.894 100.424C646.587 101.431 646.404 102.287 646.344 102.994L645.604 105.194L645.424 106.484L645.234 107.214L645.054 107.764L644.874 109.054L644.684 109.604L643.584 114.194L643.404 115.474L643.034 116.764L642.114 120.434L641.934 121.714L640.834 126.304L640.284 128.874C639.944 129.794 639.761 130.591 639.734 131.264L638.994 133.654V134.384C638.661 135.304 638.477 136.101 638.444 136.774C638.137 137.781 637.954 138.637 637.894 139.344L637.524 140.624L637.344 140.994L637.164 142.284C636.857 143.291 636.674 144.147 636.614 144.854H623.024L622.844 143.384C622.631 142.864 622.507 142.434 622.474 142.094L622.104 140.624L621.924 139.344L621.554 138.054C621.461 137.687 621.384 137.337 621.324 137.004C621.264 136.664 621.217 136.341 621.184 136.034L621.004 135.304L620.824 134.384C620.697 134.231 620.634 134.047 620.634 133.834L620.454 132.914L620.274 132.364C620.181 131.971 620.104 131.611 620.044 131.284C619.977 130.964 619.931 130.651 619.904 130.344C619.691 129.764 619.531 129.231 619.424 128.744C619.317 128.251 619.231 127.807 619.164 127.414L618.984 126.674L618.804 125.754C618.677 125.387 618.591 125.037 618.544 124.704C618.504 124.364 618.467 124.041 618.434 123.734C618.221 123.127 618.054 122.547 617.934 121.994C617.807 121.441 617.731 120.921 617.704 120.434C617.577 120.281 617.514 120.097 617.514 119.884L617.334 119.144L617.154 118.594C617.061 117.954 616.937 117.344 616.784 116.764L616.414 115.104L616.234 114.004L615.864 113.094L615.494 110.884L615.314 110.334V109.784C615.007 109.051 614.824 108.377 614.764 107.764L614.394 105.564L614.024 104.644L613.664 103.174V102.444C613.297 101.431 613.114 100.574 613.114 99.874C612.987 99.7206 612.924 99.5373 612.924 99.324L612.744 98.764V98.214C612.437 97.514 612.254 96.7806 612.194 96.014C611.887 95.034 611.704 94.1173 611.644 93.264L611.274 93.994L611.094 95.094L610.544 97.484L610.174 99.504L609.984 100.054L609.254 103.174L609.074 103.914L608.704 105.744L608.524 106.484L608.154 108.504L607.974 109.054L607.234 112.534L606.864 113.824L606.684 115.104C606.351 116.024 606.167 116.821 606.134 117.494L605.954 117.864L605.764 118.964L605.584 119.514L604.664 124.104L604.484 124.654L603.744 128.144L603.564 128.874L603.384 129.794L603.194 130.344L602.464 133.834L602.094 135.304L601.724 137.144L601.544 137.504L601.174 139.164L600.994 139.894L600.814 141.174C600.594 141.941 600.471 142.554 600.444 143.014C600.317 143.321 600.234 143.611 600.194 143.884C600.147 144.164 600.107 144.424 600.074 144.664C599.647 144.731 599.257 144.784 598.904 144.824C598.551 144.871 598.207 144.894 597.874 144.894H597.414C597.261 144.894 597.107 144.881 596.954 144.854H586.304V144.114C585.877 143.014 585.634 141.974 585.574 140.994C585.447 140.841 585.384 140.657 585.384 140.444L585.204 139.524C584.531 137.351 584.101 135.514 583.914 134.014L583.734 133.464L582.814 129.984L582.634 128.514L581.164 122.824V122.084C580.857 121.384 580.674 120.651 580.614 119.884L580.244 118.784L579.884 117.494V116.944L578.964 113.274V112.724L578.774 111.984L578.414 111.254L578.224 109.784C577.984 109.051 577.787 108.377 577.634 107.764C577.481 107.151 577.374 106.601 577.314 106.114L577.124 105.564V105.014C577.004 104.861 576.944 104.677 576.944 104.464L576.574 102.994L576.394 102.444C576.267 101.797 576.151 101.214 576.044 100.694C575.937 100.174 575.807 99.7173 575.654 99.324L575.474 98.034C575.261 97.4206 575.091 96.854 574.964 96.334C574.844 95.814 574.767 95.3406 574.734 94.914L574.554 93.994C574.434 93.8406 574.374 93.6573 574.374 93.444L573.454 89.774L573.084 88.484L572.904 87.574L572.724 86.834L572.534 85.554C572.287 84.9073 572.164 84.354 572.164 83.894V83.714L571.804 82.794L571.614 82.064C571.494 81.1773 571.311 80.4406 571.064 79.854V79.124C570.944 78.9706 570.884 78.7873 570.884 78.574" fill="white"/>
<path d="M696.338 99.1347L696.898 100.235C698.331 102.015 699.248 103.851 699.648 105.745C699.768 106.538 699.858 107.281 699.918 107.975C699.985 108.661 700.018 109.265 700.018 109.785V134.015C701.145 136.255 702.795 137.601 704.968 138.055L704.608 138.605C704.481 138.825 704.358 138.948 704.238 138.975L704.058 139.525L703.688 139.895C703.381 140.568 703.015 141.118 702.588 141.545C702.155 142.678 701.601 143.535 700.928 144.115C700.655 144.728 700.395 145.258 700.148 145.705C699.908 146.145 699.681 146.535 699.468 146.875C695.888 145.955 693.071 144.301 691.018 141.915H690.468C686.521 144.761 682.451 146.185 678.258 146.185C675.991 146.185 673.758 145.801 671.558 145.035C664.978 142.681 661.001 138.398 659.628 132.185V131.955C659.628 120.115 666.558 114.195 680.418 114.195H680.558C680.831 114.068 681.135 114.005 681.468 114.005L682.018 113.825H683.308L683.858 113.645H684.408L688.998 113.095C689.058 112.755 689.088 112.448 689.088 112.175V111.255C689.088 106.141 686.381 103.585 680.968 103.585C677.201 103.585 672.045 104.855 665.498 107.395L664.768 105.745L664.398 104.645L664.028 104.275L663.848 103.915L663.478 102.805C663.145 102.258 662.901 101.708 662.748 101.155C662.101 100.301 661.671 99.4447 661.458 98.5847L662.008 98.4047L662.378 98.2147L662.928 98.0347L663.298 97.6647H663.848C663.968 97.5447 664.075 97.4847 664.168 97.4847H664.218C665.318 96.9047 666.295 96.4747 667.148 96.1947L668.068 96.0147C668.741 95.708 669.355 95.5247 669.908 95.4647L671.378 95.0947C672.445 94.668 673.485 94.4247 674.498 94.3647L678.538 93.6247C679.145 93.5647 679.731 93.5114 680.298 93.4647C680.865 93.418 681.425 93.3947 681.978 93.3947C687.818 93.3947 692.605 95.308 696.338 99.1347ZM684.588 122.455H683.488C683.215 122.515 682.948 122.561 682.688 122.595C682.428 122.621 682.175 122.635 681.928 122.635H681.658L680.918 122.825H680.368C680.215 122.945 680.031 123.005 679.818 123.005H679.268L676.328 123.735H675.778C674.925 124.228 674.191 124.535 673.578 124.655C671.591 126.555 670.598 128.391 670.598 130.165C670.598 131.785 671.408 133.375 673.028 134.935C675.381 136.375 677.675 137.095 679.908 137.095C682.755 137.095 685.478 135.948 688.078 133.655C688.325 132.948 688.571 132.458 688.818 132.185L688.998 131.635L688.818 130.895V122.265H685.148C684.995 122.391 684.808 122.455 684.588 122.455Z" fill="white"/>
<path d="M758.823 103.537V104.087C759.223 104.82 759.47 105.554 759.563 106.287V144.657H748.363V112.167L748.173 111.067C746.646 106.44 744.076 104.127 740.463 104.127C739.363 104.127 738.14 104.357 736.793 104.817C733.733 106.137 731.53 108.22 730.183 111.067L729.453 114.187V144.657H718.433V94.537H729.453V98.757C732.88 95.697 736.613 93.8636 740.653 93.257H741.473C749.673 93.257 755.456 96.6836 758.823 103.537Z" fill="white"/>
<path d="M322.273 68.5H271.773V166.5H322.273V68.5Z" stroke="white" stroke-width="2" stroke-dasharray="5 5"/>
<path d="M369.773 68.5H324.273V166.5H369.773V68.5Z" stroke="white" stroke-width="2" stroke-dasharray="5 5"/>
<path d="M427.273 68.5H371.773V166.5H427.273V68.5Z" stroke="white" stroke-width="2" stroke-dasharray="5 5"/>
<path d="M481.773 68.5H429.273V166.5H481.773V68.5Z" stroke="white" stroke-width="2" stroke-dasharray="5 5"/>
<path d="M537.773 68.5H483.773V166.5H537.773V68.5Z" stroke="white" stroke-width="2" stroke-dasharray="5 5"/>
<path d="M562.773 68.5H539.773V166.5H562.773V68.5Z" stroke="white" stroke-width="2" stroke-dasharray="5 5"/>
<path d="M654.273 68.5H564.773V166.5H654.273V68.5Z" stroke="white" stroke-width="2" stroke-dasharray="5 5"/>
<path d="M709.773 68.5H656.273V166.5H709.773V68.5Z" stroke="white" stroke-width="2" stroke-dasharray="5 5"/>
<path d="M765.773 68.5H711.773V166.5H765.773V68.5Z" stroke="white" stroke-width="2" stroke-dasharray="5 5"/>
<path d="M791.773 132.5V247.712" stroke="#46C147" stroke-width="3.03189"/>
<path d="M766.773 67.5V247.712" stroke="#46C147" stroke-width="3.03189"/>
<path d="M791.773 223.457H766.773" stroke="#46C147" stroke-width="3.03189"/>
<path d="M791.773 223.457L828.155 214.361V232.553L791.773 223.457Z" fill="#46C147"/>
<path d="M766.773 223.457L730.39 214.361V232.553L766.773 223.457Z" fill="#46C147"/>
<path d="M743.739 284.197V281.871L752.473 272.31C753.498 271.191 754.342 270.217 755.005 269.39C755.669 268.555 756.159 267.771 756.478 267.039C756.805 266.298 756.969 265.523 756.969 264.713C756.969 263.783 756.745 262.978 756.297 262.297C755.858 261.617 755.255 261.091 754.488 260.721C753.722 260.351 752.861 260.165 751.904 260.165C750.888 260.165 750.001 260.376 749.243 260.799C748.494 261.212 747.912 261.793 747.499 262.543C747.094 263.292 746.892 264.171 746.892 265.178H743.842C743.842 263.628 744.2 262.267 744.915 261.096C745.63 259.924 746.603 259.011 747.835 258.357C749.075 257.702 750.466 257.375 752.008 257.375C753.558 257.375 754.932 257.702 756.129 258.357C757.327 259.011 758.265 259.894 758.946 261.005C759.626 262.116 759.967 263.352 759.967 264.713C759.967 265.687 759.79 266.638 759.437 267.569C759.092 268.49 758.489 269.52 757.628 270.656C756.775 271.785 755.591 273.163 754.075 274.791L748.132 281.148V281.354H760.432V284.197H743.739ZM779.876 268.796L777.137 269.571C776.965 269.115 776.711 268.671 776.375 268.24C776.048 267.801 775.6 267.439 775.031 267.155C774.463 266.871 773.735 266.729 772.848 266.729C771.633 266.729 770.621 267.009 769.812 267.569C769.011 268.12 768.61 268.822 768.61 269.675C768.61 270.433 768.886 271.031 769.437 271.47C769.988 271.91 770.85 272.276 772.021 272.569L774.967 273.292C776.741 273.723 778.063 274.382 778.933 275.269C779.803 276.147 780.238 277.28 780.238 278.667C780.238 279.804 779.911 280.82 779.256 281.716C778.61 282.612 777.706 283.318 776.543 283.835C775.38 284.352 774.028 284.61 772.486 284.61C770.462 284.61 768.787 284.171 767.46 283.292C766.134 282.414 765.294 281.13 764.941 279.442L767.835 278.719C768.11 279.787 768.632 280.588 769.398 281.122C770.173 281.656 771.185 281.923 772.434 281.923C773.856 281.923 774.984 281.621 775.819 281.018C776.664 280.407 777.086 279.675 777.086 278.822C777.086 278.133 776.844 277.556 776.362 277.091C775.88 276.617 775.139 276.264 774.14 276.031L770.832 275.256C769.015 274.825 767.68 274.158 766.827 273.253C765.983 272.34 765.561 271.199 765.561 269.83C765.561 268.71 765.875 267.719 766.504 266.858C767.141 265.997 768.007 265.321 769.101 264.83C770.204 264.339 771.452 264.093 772.848 264.093C774.812 264.093 776.353 264.524 777.473 265.385C778.602 266.246 779.403 267.383 779.876 268.796ZM789.324 284.197L783.277 264.352H786.482L790.771 279.545H790.978L795.216 264.352H798.471L802.657 279.494H802.864L807.154 264.352H810.358L804.311 284.197H801.314L796.973 268.951H796.663L792.321 284.197H789.324Z" fill="#46C147"/>
<path d="M825 132.5H940.212" stroke="#FF0000" stroke-width="3.03189"/>
<path d="M765 67.5H940" stroke="#FF0000" stroke-width="3.03189"/>
<path d="M916 132.5V67.5" stroke="#FF0000" stroke-width="3.03189"/>
<path d="M916.096 132.5L907 168.883H925.191L916.096 132.5Z" fill="#FF0000"/>
<path d="M916.096 67.5L907 31.1172H925.191L916.096 67.5Z" fill="#FF0000"/>
<path d="M964.008 109.559C962.492 109.559 961.127 109.258 959.912 108.655C958.698 108.052 957.724 107.225 956.992 106.174C956.26 105.124 955.86 103.926 955.791 102.583H958.892C959.012 103.78 959.555 104.77 960.519 105.554C961.493 106.329 962.656 106.717 964.008 106.717C965.093 106.717 966.058 106.463 966.902 105.955C967.755 105.447 968.422 104.749 968.905 103.862C969.395 102.966 969.641 101.954 969.641 100.825C969.641 99.6713 969.387 98.642 968.879 97.7376C968.379 96.8246 967.69 96.1054 966.811 95.5799C965.933 95.0545 964.929 94.7875 963.801 94.7789C962.991 94.7703 962.16 94.8952 961.308 95.1536C960.455 95.4034 959.753 95.7264 959.202 96.1226L956.204 95.7608L957.806 82.7375H971.553V85.5799H960.494L959.563 93.3835H959.718C960.261 92.9529 960.941 92.5954 961.76 92.3112C962.578 92.0269 963.431 91.8848 964.318 91.8848C965.937 91.8848 967.38 92.2724 968.646 93.0476C969.921 93.8142 970.92 94.865 971.644 96.2001C972.376 97.5352 972.742 99.0597 972.742 100.774C972.742 102.462 972.363 103.969 971.605 105.296C970.855 106.614 969.822 107.656 968.504 108.422C967.186 109.18 965.687 109.559 964.008 109.559ZM979.153 109.404C978.516 109.404 977.969 109.176 977.512 108.72C977.056 108.263 976.828 107.716 976.828 107.079C976.828 106.441 977.056 105.894 977.512 105.438C977.969 104.981 978.516 104.753 979.153 104.753C979.791 104.753 980.338 104.981 980.794 105.438C981.251 105.894 981.479 106.441 981.479 107.079C981.479 107.501 981.371 107.888 981.156 108.242C980.949 108.595 980.669 108.879 980.316 109.094C979.972 109.301 979.584 109.404 979.153 109.404ZM986.899 109.198V106.872L995.633 97.3112C996.658 96.1915 997.502 95.2182 998.165 94.3913C998.828 93.5558 999.319 92.772 999.638 92.0399C999.965 91.2991 1000.13 90.5239 1000.13 89.7143C1000.13 88.784 999.905 87.9787 999.457 87.2982C999.018 86.6178 998.415 86.0924 997.648 85.722C996.882 85.3516 996.02 85.1664 995.064 85.1664C994.048 85.1664 993.161 85.3774 992.403 85.7995C991.653 86.2129 991.072 86.7943 990.659 87.5437C990.254 88.2931 990.051 89.1716 990.051 90.1794H987.002C987.002 88.629 987.36 87.2681 988.075 86.0967C988.789 84.9252 989.763 84.0122 990.994 83.3576C992.235 82.703 993.626 82.3757 995.168 82.3757C996.718 82.3757 998.092 82.703 999.289 83.3576C1000.49 84.0122 1001.43 84.8951 1002.11 86.0062C1002.79 87.1173 1003.13 88.3534 1003.13 89.7143C1003.13 90.6876 1002.95 91.6393 1002.6 92.5696C1002.25 93.4912 1001.65 94.5205 1000.79 95.6575C999.935 96.7858 998.751 98.1639 997.235 99.7919L991.292 106.149V106.355H1003.59V109.198H986.899ZM1023.04 93.797L1020.3 94.5722C1020.12 94.1157 1019.87 93.6721 1019.53 93.2414C1019.21 92.8021 1018.76 92.4404 1018.19 92.1561C1017.62 91.8719 1016.89 91.7298 1016.01 91.7298C1014.79 91.7298 1013.78 92.0097 1012.97 92.5696C1012.17 93.1208 1011.77 93.8228 1011.77 94.6755C1011.77 95.4335 1012.05 96.0321 1012.6 96.4714C1013.15 96.9107 1014.01 97.2768 1015.18 97.5696L1018.13 98.2931C1019.9 98.7238 1021.22 99.3827 1022.09 100.27C1022.96 101.148 1023.4 102.281 1023.4 103.668C1023.4 104.805 1023.07 105.821 1022.42 106.717C1021.77 107.613 1020.87 108.319 1019.7 108.836C1018.54 109.353 1017.19 109.611 1015.65 109.611C1013.62 109.611 1011.95 109.172 1010.62 108.293C1009.29 107.415 1008.45 106.131 1008.1 104.443L1010.99 103.72C1011.27 104.788 1011.79 105.589 1012.56 106.123C1013.33 106.657 1014.35 106.924 1015.59 106.924C1017.02 106.924 1018.14 106.622 1018.98 106.019C1019.82 105.408 1020.25 104.676 1020.25 103.823C1020.25 103.134 1020 102.557 1019.52 102.092C1019.04 101.618 1018.3 101.265 1017.3 101.032L1013.99 100.257C1012.17 99.8263 1010.84 99.1588 1009.99 98.2544C1009.14 97.3414 1008.72 96.2001 1008.72 94.8306C1008.72 93.7109 1009.04 92.7203 1009.66 91.859C1010.3 90.9977 1011.17 90.3215 1012.26 89.8305C1013.36 89.3396 1014.61 89.0941 1016.01 89.0941C1017.97 89.0941 1019.51 89.5248 1020.63 90.3861C1021.76 91.2474 1022.56 92.3844 1023.04 93.797ZM1032.48 109.198L1026.44 89.3525H1029.64L1033.93 104.546H1034.14L1038.38 89.3525H1041.63L1045.82 104.495H1046.02L1050.31 89.3525H1053.52L1047.47 109.198H1044.47L1040.13 93.952H1039.82L1035.48 109.198H1032.48Z" fill="#FF0000"/>
</svg>
