<svg width="1015" height="615" viewBox="0 0 1015 615" fill="none" xmlns="http://www.w3.org/2000/svg">
<path d="M20 57.5C20 36.7893 36.7893 20 57.5 20H957.5C978.211 20 995 36.7893 995 57.5V557.5C995 578.211 978.211 595 957.5 595H57.5C36.7893 595 20 578.211 20 557.5V57.5Z" fill="white"/>
<path d="M38.75 57.5C38.75 47.1447 47.1447 38.75 57.5 38.75H957.5C967.855 38.75 976.25 47.1447 976.25 57.5V557.5C976.25 567.855 967.855 576.25 957.5 576.25H57.5C47.1447 576.25 38.75 567.855 38.75 557.5V57.5Z" fill="#0033A2"/>
<path d="M116.162 479.433V470.323H169.152V479.433H116.162ZM109.302 497.543V488.653H176.572V497.543H109.302ZM93.8824 516.443V507.223H191.762V516.443H93.8824ZM107.722 454.343V445.793H146.872V454.343H107.722ZM137.762 451.533V445.793H149.352C151.752 448.867 154.659 451.847 158.072 454.733C161.486 457.627 165.252 460.31 169.372 462.783C173.499 465.257 177.812 467.47 182.312 469.423C186.812 471.37 191.349 473.02 195.922 474.373C195.102 474.973 194.166 475.76 193.112 476.733C192.066 477.707 191.052 478.72 190.072 479.773C189.099 480.82 188.312 481.793 187.712 482.693C181.712 480.52 175.789 477.82 169.942 474.593C164.089 471.367 158.669 467.787 153.682 463.853C148.696 459.913 144.402 455.807 140.802 451.533H137.762ZM135.292 446.923L144.962 450.633C141.289 455.58 136.826 460.153 131.572 464.353C126.326 468.553 120.719 472.267 114.752 475.493C108.792 478.72 102.776 481.533 96.7024 483.933C96.1758 483.18 95.4624 482.28 94.5624 481.233C93.6624 480.18 92.7258 479.147 91.7524 478.133C90.7791 477.127 89.9158 476.323 89.1624 475.723C95.3158 473.843 101.316 471.48 107.162 468.633C113.016 465.78 118.359 462.517 123.192 458.843C128.032 455.17 132.066 451.197 135.292 446.923ZM137.092 513.633V474.483H148.002V513.633H137.092ZM93.1024 434.203V424.423H192.552V434.203H93.1024ZM117.062 443.543V415.873H127.642V443.543H117.062ZM157.342 444.103V415.873H167.912V444.103" fill="white"/>
<path d="M279.427 423.636V418.126H299.107V423.636H279.427ZM278.747 441.976V436.576H299.897V441.976H278.747ZM278.747 450.406V445.126H299.897V450.406H278.747ZM262.327 503.736V496.876H319.357V503.736H262.327ZM275.487 433.086V427.126H302.487V433.086H275.487ZM293.147 459.296H285.157V465.706H293.147V459.296ZM278.517 470.886V454.126H300.007V470.886H278.517ZM264.237 492.146V485.736H310.917V480.896H257.257V474.486H320.827V492.146H264.237ZM260.407 472.456V446.926H267.497V472.456H260.407ZM250.177 450.856L249.387 443.996C252.687 443.849 256.381 443.699 260.467 443.546C264.554 443.399 268.884 443.213 273.457 442.986V449.176C269.257 449.549 265.191 449.849 261.257 450.076C257.317 450.296 253.624 450.556 250.177 450.856ZM261.197 485.736H271.097C270.197 489.336 269.224 493.086 268.177 496.986C267.124 500.886 266.147 504.259 265.247 507.106L255.687 505.756C256.734 502.983 257.747 499.776 258.727 496.136C259.701 492.503 260.524 489.036 261.197 485.736ZM315.987 497.996V496.876H325.997C325.997 496.876 325.961 497.379 325.887 498.386C325.814 499.399 325.664 500.246 325.437 500.926C324.384 505.573 323.294 509.226 322.167 511.886C321.047 514.553 319.737 516.486 318.237 517.686C316.964 518.586 315.594 519.203 314.127 519.536C312.667 519.876 310.924 520.083 308.897 520.156C307.171 520.236 304.714 520.256 301.527 520.216C298.341 520.176 294.947 520.083 291.347 519.936C291.274 518.736 290.974 517.386 290.447 515.886C289.921 514.386 289.284 513.036 288.537 511.836C292.064 512.209 295.477 512.433 298.777 512.506C302.077 512.586 304.401 512.626 305.747 512.626C306.947 512.626 307.921 512.586 308.667 512.506C309.421 512.433 310.061 512.209 310.587 511.836C311.634 511.009 312.591 509.526 313.457 507.386C314.317 505.253 315.161 502.123 315.987 497.996ZM268.847 454.906L274.247 453.676C274.847 455.549 275.427 457.609 275.987 459.856C276.554 462.109 276.987 464.059 277.287 465.706L271.437 467.286C271.284 465.559 270.964 463.553 270.477 461.266C269.991 458.979 269.447 456.859 268.847 454.906ZM268.507 439.606L273.347 437.806C274.321 439.686 275.221 441.786 276.047 444.106C276.874 446.433 277.437 448.459 277.737 450.186L272.447 452.206C272.221 450.486 271.734 448.463 270.987 446.136C270.234 443.809 269.407 441.633 268.507 439.606ZM250.507 430.726L254.107 425.326C256.287 426.746 258.424 428.376 260.517 430.216C262.624 432.056 264.201 433.649 265.247 434.996L261.197 441.186C260.071 439.613 258.497 437.849 256.477 435.896C254.451 433.949 252.461 432.226 250.507 430.726ZM261.197 415.536L267.607 418.686C266.107 421.159 264.607 423.673 263.107 426.226C261.607 428.773 260.184 430.909 258.837 432.636L253.887 430.046C255.087 428.099 256.401 425.719 257.827 422.906C259.247 420.093 260.371 417.636 261.197 415.536ZM268.397 424.876L274.697 428.476C272.224 431.849 269.581 435.409 266.767 439.156C263.954 442.909 261.311 446.059 258.837 448.606L254.107 445.686C255.687 443.813 257.377 441.676 259.177 439.276C260.977 436.876 262.681 434.399 264.287 431.846C265.901 429.299 267.271 426.976 268.397 424.876ZM252.987 453.226L259.627 454.686C258.947 457.613 258.121 460.536 257.147 463.456C256.174 466.383 255.124 468.896 253.997 470.996C253.324 470.549 252.347 470.043 251.067 469.476C249.794 468.916 248.747 468.449 247.927 468.076C249.201 465.976 250.247 463.629 251.067 461.036C251.894 458.449 252.534 455.846 252.987 453.226ZM312.387 472.456V446.926H319.587V472.456H312.387ZM302.037 450.856L301.357 443.996C304.811 443.849 308.694 443.699 313.007 443.546C317.321 443.399 321.914 443.249 326.787 443.096L326.667 449.286C322.247 449.586 317.954 449.866 313.787 450.126C309.627 450.393 305.711 450.636 302.037 450.856ZM321.157 454.906L326.897 453.226C327.871 455.473 328.827 457.946 329.767 460.646C330.701 463.346 331.357 465.673 331.737 467.626L325.777 469.536C325.477 467.583 324.877 465.219 323.977 462.446C323.077 459.673 322.137 457.159 321.157 454.906ZM320.257 439.386L325.547 437.026C326.821 438.973 328.001 441.126 329.087 443.486C330.181 445.853 330.951 447.936 331.397 449.736L325.657 452.326C325.284 450.526 324.591 448.406 323.577 445.966C322.564 443.526 321.457 441.333 320.257 439.386ZM301.587 430.496L305.407 425.436C307.361 426.783 309.311 428.339 311.257 430.106C313.211 431.866 314.711 433.459 315.757 434.886L311.377 440.736C310.397 439.236 308.991 437.509 307.157 435.556C305.317 433.609 303.461 431.923 301.587 430.496ZM312.607 415.646L319.027 418.906C317.447 421.386 315.871 423.879 314.297 426.386C312.724 428.899 311.224 431.056 309.797 432.856L304.847 430.276C306.121 428.323 307.507 425.939 309.007 423.126C310.507 420.313 311.707 417.819 312.607 415.646ZM320.597 424.426L326.897 428.026C324.351 431.399 321.577 434.959 318.577 438.706C315.577 442.459 312.727 445.609 310.027 448.156L305.407 445.236C307.134 443.363 308.934 441.226 310.807 438.826C312.687 436.426 314.487 433.949 316.207 431.396C317.934 428.849 319.397 426.526 320.597 424.426ZM304.847 453.226L311.377 454.796C310.851 457.569 310.101 460.399 309.127 463.286C308.147 466.179 307.097 468.636 305.977 470.656C305.377 470.283 304.477 469.776 303.277 469.136C302.077 468.503 301.027 467.999 300.127 467.626C301.321 465.526 302.294 463.236 303.047 460.756C303.794 458.283 304.394 455.773 304.847 453.226ZM228.347 424.306L234.537 417.336C236.411 418.309 238.377 419.489 240.437 420.876C242.504 422.263 244.437 423.649 246.237 425.036C248.037 426.429 249.501 427.763 250.627 429.036L244.207 436.906C243.161 435.633 241.754 434.246 239.987 432.746C238.227 431.246 236.334 429.766 234.307 428.306C232.287 426.839 230.301 425.506 228.347 424.306ZM225.987 454.346L231.837 447.036C233.784 447.936 235.827 449.043 237.967 450.356C240.107 451.669 242.094 452.979 243.927 454.286C245.767 455.599 247.287 456.856 248.487 458.056L242.297 466.156C241.171 464.956 239.691 463.646 237.857 462.226C236.017 460.799 234.047 459.393 231.947 458.006C229.847 456.619 227.861 455.399 225.987 454.346ZM237.797 518.926L228.237 513.526C229.664 510.526 231.181 507.036 232.787 503.056C234.401 499.083 236.051 494.883 237.737 490.456C239.431 486.036 240.987 481.686 242.407 477.406L250.847 482.806C249.647 486.786 248.297 490.876 246.797 495.076C245.297 499.276 243.797 503.399 242.297 507.446C240.797 511.499 239.297 515.326 237.797 518.926Z" fill="white"/>
<path d="M208.5 408.768H72.9999V549.268H208.5V408.768Z" stroke="white" stroke-width="2" stroke-dasharray="5 5"/>
<path d="M346 408.768H210.5V549.268H346V408.768Z" stroke="white" stroke-width="2" stroke-dasharray="5 5"/>
<path d="M386.712 177.268H442.962V214.768C444.072 249.851 420.702 281.011 386.712 289.768C352.722 281.011 329.352 249.851 330.462 214.768V177.268H386.712Z" fill="#E9B500"/>
<path d="M382.802 193.672C397.459 193.397 406.516 199.639 409.974 212.399L410.525 212.766L410.708 213.684L410.892 214.418L411.075 215.153L411.259 215.52L411.626 217.172V218.09C411.749 218.274 411.81 218.458 411.81 218.641L412.177 220.661L412.544 223.782L412.911 226.719C413.952 249.607 406.486 262.581 390.513 265.641C374.846 267.844 365.238 262.948 361.689 250.954L365.544 249.668C365.666 249.515 365.789 249.454 365.911 249.485L367.564 248.751C368.329 248.536 368.941 248.292 369.4 248.016L369.95 247.833H370.501C370.624 247.68 370.746 247.618 370.868 247.649L371.419 247.465L374.357 246.18H375.091C377.08 251.688 381.058 253.952 387.025 252.973C393.359 251.535 397.092 247.557 398.224 241.04L398.407 238.102C390.207 243.365 381.945 244.528 373.622 241.59C365.33 237.98 360.924 231.982 360.403 223.598C358.659 205.086 366.125 195.111 382.802 193.672ZM384.271 206.891C379.467 208.084 376.346 210.838 374.907 215.153C373.653 223.996 377.019 229.137 385.005 230.575C393.389 229.718 397.428 225.25 397.122 217.172C395.5 210.135 391.217 206.708 384.271 206.891Z" fill="black"/>
<path d="M468 264.768L493 239.768H855.5C862.404 239.768 868 234.172 868 227.268V302.268C868 295.365 862.404 289.768 855.5 289.768H493L468 264.768Z" fill="white"/>
<path d="M705.5 307.768H755.5L818 370.268V507.768H593V370.268L655.5 307.768H705.5ZM639.875 470.268H771.125C795.671 436.642 790.83 389.904 759.912 362.023C728.995 334.143 682.005 334.143 651.088 362.023C620.17 389.904 615.329 436.642 639.875 470.268Z" fill="white"/>
<path d="M905.5 75.2319L943 112.732V225.232V552.268H905.5H868V225.232V112.732L905.5 75.2319Z" fill="white"/>
<path d="M73.5195 325.818V314.798H124.189V325.818H104.909V385.118H92.7995V325.818" fill="white"/>
<path d="M166.909 341.045L166.359 341.785L165.809 342.335L165.259 342.705L164.519 343.805L164.159 344.175L163.789 344.355C163.389 344.908 163.022 345.335 162.689 345.635L160.299 348.395C155.219 345.122 151.012 343.485 147.679 343.485C144.252 343.485 141.729 345.182 140.109 348.575C140.169 350.568 140.962 352.038 142.489 352.985C143.162 353.165 143.652 353.348 143.959 353.535C145.152 353.715 146.132 353.958 146.899 354.265C158.492 355.125 164.979 359.778 166.359 368.225C166.419 368.592 166.449 368.948 166.449 369.295C166.449 369.648 166.449 369.995 166.449 370.335C166.449 376.482 163.849 381.102 158.649 384.195C154.915 385.875 151.165 386.715 147.399 386.715C140.239 386.715 133.095 383.672 125.969 377.585L126.339 376.855L127.249 375.935C127.862 375.202 128.415 374.648 128.909 374.275C129.029 374.062 129.149 373.942 129.269 373.915L129.639 373.365C129.759 373.152 129.882 373.028 130.009 372.995L130.189 372.625L130.559 372.445L132.949 369.685C137.475 373.972 142.215 376.115 147.169 376.115C149.249 376.115 151.362 375.748 153.509 375.015C154.055 374.282 154.605 373.732 155.159 373.365C155.345 372.632 155.439 371.942 155.439 371.295C155.439 369.702 154.919 368.372 153.879 367.305L149.649 365.835C137.042 365.068 130.189 359.682 129.089 349.675C129.915 339.608 135.605 334.225 146.159 333.525H146.809C154.915 333.525 161.615 336.032 166.909 341.045Z" fill="white"/>
<path d="M179.287 370.794V334.994H190.307V366.754C190.427 366.907 190.487 367.09 190.487 367.304C190.614 367.397 190.677 367.487 190.677 367.574V367.674C190.89 369.047 191.194 370.27 191.587 371.344C193.7 374.277 196.41 375.744 199.717 375.744H199.857C203.957 374.644 206.83 372.38 208.477 368.954V368.404L209.217 366.204V334.994H220.417V385.114H209.217V381.074C204.81 384.68 200.42 386.484 196.047 386.484C192.647 386.484 189.204 385.414 185.717 383.274C182.87 381.1 180.91 378.53 179.837 375.564L179.657 374.274C179.384 373.387 179.247 372.517 179.247 371.664V371.254C179.247 371.1 179.26 370.947 179.287 370.794Z" fill="white"/>
<path d="M278.836 355.562L279.016 358.312C279.136 358.466 279.196 358.649 279.196 358.862V364.372H245.606C246.306 370.612 249.486 374.286 255.146 375.392C256.066 375.479 256.969 375.522 257.856 375.522C262.476 375.522 266.409 374.009 269.656 370.982C270.049 371.656 270.539 372.206 271.126 372.632L271.306 373.182L271.856 373.732C272.283 374.132 272.649 374.509 272.956 374.862C273.263 375.216 273.509 375.576 273.696 375.942C273.909 376.062 274.029 376.182 274.056 376.302L276.626 379.242C270.813 384.109 264.616 386.542 258.036 386.542C256.909 386.542 255.763 386.466 254.596 386.312C253.436 386.159 252.273 385.946 251.106 385.672C240.519 382.152 234.706 374.562 233.666 362.902C233.666 362.749 233.659 362.442 233.646 361.982C233.633 361.529 233.626 361.239 233.626 361.112C233.626 345.172 240.799 336.099 255.146 333.892C269.406 334.386 277.303 341.609 278.836 355.562ZM245.416 355.742H267.636V355.192C267.509 354.826 267.446 354.459 267.446 354.092V353.722C267.139 353.049 266.956 352.439 266.896 351.892C264.636 346.659 260.903 344.026 255.696 343.992C249.149 345.552 245.723 349.469 245.416 355.742Z" fill="white"/>
<path d="M332.05 343.805V344.355C332.45 345.088 332.697 345.822 332.79 346.555V384.925H321.59V352.435L321.4 351.335C319.874 346.708 317.304 344.395 313.69 344.395C312.59 344.395 311.367 344.625 310.02 345.085C306.96 346.405 304.757 348.488 303.41 351.335L302.68 354.455V384.925H291.66V334.805H302.68V339.025C306.107 335.965 309.84 334.132 313.88 333.525H314.7C322.9 333.525 328.684 336.952 332.05 343.805Z" fill="white"/>
<path d="M371.191 315.352V314.982H383.861L384.041 316.272L384.231 316.822L384.591 318.112L384.961 320.312L385.511 322.142L385.881 324.352L386.431 326.182L386.611 327.652C386.825 328.172 386.948 328.602 386.981 328.942L387.161 329.672L387.531 330.772V331.512C387.651 331.605 387.711 331.695 387.711 331.782V332.432C388.051 333.105 388.238 333.839 388.271 334.632L388.631 335.732L389.001 337.022L389.371 339.222L389.921 341.052L390.101 342.162L391.201 346.752C391.295 347.179 391.381 347.569 391.461 347.922C391.535 348.269 391.571 348.612 391.571 348.952L391.941 349.682V350.422L392.301 351.342V352.072L392.671 352.802V353.542C393.011 354.462 393.195 355.259 393.221 355.932L393.411 356.662C393.625 357.275 393.791 357.842 393.911 358.362C394.031 358.882 394.108 359.355 394.141 359.782L394.511 361.252L394.881 362.532L395.241 361.432L395.981 357.762L396.341 356.842L396.531 355.742L397.081 353.172L397.451 351.892V351.342L398.181 348.402L398.361 347.302L398.731 346.562L398.911 345.832L399.101 344.912V344.182L399.281 343.622L400.021 340.692L400.381 338.482L400.571 337.752L400.931 337.022C400.998 336.042 401.181 335.182 401.481 334.442L401.671 333.532V332.982L402.041 331.512L402.221 330.962L402.771 328.572L402.951 327.472L403.321 326.372L403.501 325.452L404.051 323.062L404.241 322.142L404.421 321.782C404.455 321.442 404.495 321.112 404.541 320.792C404.588 320.472 404.671 320.189 404.791 319.942L404.971 319.392V318.842L405.161 318.112L405.341 317.552L405.891 314.982H419.481V315.532C419.908 316.605 420.151 317.649 420.211 318.662L420.581 320.122L420.761 320.682L421.501 323.982L421.861 325.452C422.108 326.339 422.231 327.072 422.231 327.652C422.445 328.172 422.568 328.602 422.601 328.942L422.961 330.222L423.151 331.512L423.331 332.242L423.521 332.792C423.608 333.192 423.685 333.552 423.751 333.872C423.811 334.192 423.855 334.505 423.881 334.812C424.128 335.392 424.298 335.929 424.391 336.422C424.485 336.909 424.561 337.352 424.621 337.752L424.801 338.852L425.171 339.772L425.351 340.872V341.422C425.658 342.155 425.841 342.829 425.901 343.442L426.091 344.542C426.391 345.275 426.575 345.949 426.641 346.562L426.821 347.482L427.371 349.502V350.232C427.491 350.512 427.551 350.819 427.551 351.152C427.891 351.859 428.078 352.472 428.111 352.992L428.291 353.912L428.471 355.012L428.661 355.742C428.968 356.689 429.151 357.545 429.211 358.312C429.331 358.405 429.391 358.499 429.391 358.592V359.232C429.818 360.305 430.065 361.345 430.131 362.352C430.311 362.292 430.431 362.169 430.491 361.982C430.645 361.222 430.798 360.559 430.951 359.992C431.105 359.425 431.258 358.929 431.411 358.502V357.762C431.811 356.662 432.055 355.682 432.141 354.822L432.511 353.542L433.251 350.602L433.431 349.132L433.801 347.852L433.981 347.302V346.752C434.195 346.165 434.365 345.635 434.491 345.162C434.611 344.689 434.685 344.239 434.711 343.812L435.081 342.522L436.551 336.462L437.101 333.532L437.471 332.062C437.805 331.175 437.988 330.442 438.021 329.862L438.201 328.942L438.571 327.472C438.845 326.585 439.028 325.852 439.121 325.272L439.301 324.532L439.861 321.962L440.221 320.862V320.312L440.771 318.842V318.112L440.961 317.552L441.511 314.982H453.991L453.261 318.662L452.711 320.862L452.521 321.412L451.971 323.982L451.611 325.452L451.241 326.732L450.501 330.412L450.141 331.692L449.401 335.182L449.041 336.462L448.851 337.022L448.481 339.032L448.301 339.402L448.121 340.692C447.815 341.699 447.631 342.555 447.571 343.262L446.831 345.462L446.651 346.752L446.461 347.482L446.281 348.032L446.101 349.322L445.911 349.872L444.811 354.462L444.631 355.742L444.261 357.032L443.341 360.702L443.161 361.982L442.061 366.572L441.511 369.142C441.171 370.062 440.988 370.859 440.961 371.532L440.221 373.922V374.652C439.888 375.572 439.705 376.369 439.671 377.042C439.365 378.049 439.181 378.905 439.121 379.612L438.751 380.892L438.571 381.262L438.391 382.552C438.085 383.559 437.901 384.415 437.841 385.122H424.251L424.071 383.652C423.858 383.132 423.735 382.702 423.701 382.362L423.331 380.892L423.151 379.612L422.781 378.322C422.688 377.955 422.611 377.605 422.551 377.272C422.491 376.932 422.445 376.609 422.411 376.302L422.231 375.572L422.051 374.652C421.925 374.499 421.861 374.315 421.861 374.102L421.681 373.182L421.501 372.632C421.408 372.239 421.331 371.879 421.271 371.552C421.205 371.232 421.158 370.919 421.131 370.612C420.918 370.032 420.758 369.499 420.651 369.012C420.545 368.519 420.458 368.075 420.391 367.682L420.211 366.942L420.031 366.022C419.905 365.655 419.818 365.305 419.771 364.972C419.731 364.632 419.695 364.309 419.661 364.002C419.448 363.395 419.281 362.815 419.161 362.262C419.035 361.709 418.958 361.189 418.931 360.702C418.805 360.549 418.741 360.365 418.741 360.152L418.561 359.412L418.381 358.862C418.288 358.222 418.165 357.612 418.011 357.032L417.641 355.372L417.461 354.272L417.091 353.362L416.721 351.152L416.541 350.602V350.052C416.235 349.319 416.051 348.645 415.991 348.032L415.621 345.832L415.251 344.912L414.891 343.442V342.712C414.525 341.699 414.341 340.842 414.341 340.142C414.215 339.989 414.151 339.805 414.151 339.592L413.971 339.032V338.482C413.665 337.782 413.481 337.049 413.421 336.282C413.115 335.302 412.931 334.385 412.871 333.532L412.501 334.262L412.321 335.362L411.771 337.752L411.401 339.772L411.211 340.322L410.481 343.442L410.301 344.182L409.931 346.012L409.751 346.752L409.381 348.772L409.201 349.322L408.461 352.802L408.091 354.092L407.911 355.372C407.578 356.292 407.395 357.089 407.361 357.762L407.181 358.132L406.991 359.232L406.811 359.782L405.891 364.372L405.711 364.922L404.971 368.412L404.791 369.142L404.611 370.062L404.421 370.612L403.691 374.102L403.321 375.572L402.951 377.412L402.771 377.772L402.401 379.432L402.221 380.162L402.041 381.442C401.821 382.209 401.698 382.822 401.671 383.282C401.545 383.589 401.461 383.879 401.421 384.152C401.375 384.432 401.335 384.692 401.301 384.932C400.875 384.999 400.485 385.052 400.131 385.092C399.778 385.139 399.435 385.162 399.101 385.162H398.641C398.488 385.162 398.335 385.149 398.181 385.122H387.531V384.382C387.105 383.282 386.861 382.242 386.801 381.262C386.675 381.109 386.611 380.925 386.611 380.712L386.431 379.792C385.758 377.619 385.328 375.782 385.141 374.282L384.961 373.732L384.041 370.252L383.861 368.782L382.391 363.092V362.352C382.085 361.652 381.901 360.919 381.841 360.152L381.471 359.052L381.111 357.762V357.212L380.191 353.542V352.992L380.001 352.252L379.641 351.522L379.451 350.052C379.211 349.319 379.015 348.645 378.861 348.032C378.708 347.419 378.601 346.869 378.541 346.382L378.351 345.832V345.282C378.231 345.129 378.171 344.945 378.171 344.732L377.801 343.262L377.621 342.712C377.495 342.065 377.378 341.482 377.271 340.962C377.165 340.442 377.035 339.985 376.881 339.592L376.701 338.302C376.488 337.689 376.318 337.122 376.191 336.602C376.071 336.082 375.995 335.609 375.961 335.182L375.781 334.262C375.661 334.109 375.601 333.925 375.601 333.712L374.681 330.042L374.311 328.752L374.131 327.842L373.951 327.102L373.761 325.822C373.515 325.175 373.391 324.622 373.391 324.162V323.982L373.031 323.062L372.841 322.332C372.721 321.445 372.538 320.709 372.291 320.122V319.392C372.171 319.239 372.111 319.055 372.111 318.842" fill="white"/>
<path d="M497.565 339.403L498.125 340.503C499.559 342.283 500.475 344.119 500.875 346.013C500.995 346.806 501.085 347.549 501.145 348.243C501.212 348.929 501.245 349.533 501.245 350.053V374.283C502.372 376.523 504.022 377.869 506.195 378.323L505.835 378.873C505.709 379.093 505.585 379.216 505.465 379.243L505.285 379.793L504.915 380.163C504.609 380.836 504.242 381.386 503.815 381.813C503.382 382.946 502.829 383.803 502.155 384.383C501.882 384.996 501.622 385.526 501.375 385.973C501.135 386.413 500.909 386.803 500.695 387.143C497.115 386.223 494.299 384.569 492.245 382.183H491.695C487.749 385.029 483.679 386.453 479.485 386.453C477.219 386.453 474.985 386.069 472.785 385.303C466.205 382.949 462.229 378.666 460.855 372.453V372.223C460.855 360.383 467.785 354.463 481.645 354.463H481.785C482.059 354.336 482.362 354.273 482.695 354.273L483.245 354.093H484.535L485.085 353.913H485.635L490.225 353.363C490.285 353.023 490.315 352.716 490.315 352.443V351.523C490.315 346.409 487.609 343.853 482.195 343.853C478.429 343.853 473.272 345.123 466.725 347.663L465.995 346.013L465.625 344.913L465.255 344.543L465.075 344.183L464.705 343.073C464.372 342.526 464.129 341.976 463.975 341.423C463.329 340.569 462.899 339.713 462.685 338.853L463.235 338.673L463.605 338.483L464.155 338.303L464.525 337.933H465.075C465.195 337.813 465.302 337.753 465.395 337.753H465.445C466.545 337.173 467.522 336.743 468.375 336.463L469.295 336.283C469.969 335.976 470.582 335.793 471.135 335.733L472.605 335.363C473.672 334.936 474.712 334.693 475.725 334.633L479.765 333.893C480.372 333.833 480.959 333.779 481.525 333.733C482.092 333.686 482.652 333.663 483.205 333.663C489.045 333.663 493.832 335.576 497.565 339.403ZM485.815 362.723H484.715C484.442 362.783 484.175 362.829 483.915 362.863C483.655 362.889 483.402 362.903 483.155 362.903H482.885L482.145 363.093H481.595C481.442 363.213 481.259 363.273 481.045 363.273H480.495L477.555 364.003H477.005C476.152 364.496 475.419 364.803 474.805 364.923C472.819 366.823 471.825 368.659 471.825 370.433C471.825 372.053 472.635 373.643 474.255 375.203C476.609 376.643 478.902 377.363 481.135 377.363C483.982 377.363 486.705 376.216 489.305 373.923C489.552 373.216 489.799 372.726 490.045 372.453L490.225 371.903L490.045 371.163V362.533H486.375C486.222 362.659 486.035 362.723 485.815 362.723Z" fill="white"/>
<path d="M560.05 343.805V344.355C560.45 345.088 560.697 345.822 560.79 346.555V384.925H549.59V352.435L549.4 351.335C547.874 346.708 545.304 344.395 541.69 344.395C540.59 344.395 539.367 344.625 538.02 345.085C534.96 346.405 532.757 348.488 531.41 351.335L530.68 354.455V384.925H519.66V334.805H530.68V339.025C534.107 335.965 537.84 334.132 541.88 333.525H542.7C550.9 333.525 556.684 336.952 560.05 343.805Z" fill="white"/>
<path d="M123.5 308.768H73V406.768H123.5V308.768Z" stroke="white" stroke-width="2" stroke-dasharray="5 5"/>
<path d="M171 308.768H125.5V406.768H171V308.768Z" stroke="white" stroke-width="2" stroke-dasharray="5 5"/>
<path d="M228.5 308.768H173V406.768H228.5V308.768Z" stroke="white" stroke-width="2" stroke-dasharray="5 5"/>
<path d="M283 308.768H230.5V406.768H283V308.768Z" stroke="white" stroke-width="2" stroke-dasharray="5 5"/>
<path d="M339 308.768H285V406.768H339V308.768Z" stroke="white" stroke-width="2" stroke-dasharray="5 5"/>
<path d="M364 308.768H341V406.768H364V308.768Z" stroke="white" stroke-width="2" stroke-dasharray="5 5"/>
<path d="M455.5 308.768H366V406.768H455.5V308.768Z" stroke="white" stroke-width="2" stroke-dasharray="5 5"/>
<path d="M511 308.768H457.5V406.768H511V308.768Z" stroke="white" stroke-width="2" stroke-dasharray="5 5"/>
<path d="M567 308.768H513V406.768H567V308.768Z" stroke="white" stroke-width="2" stroke-dasharray="5 5"/>
<path d="M443 235.697V120.485" stroke="#46C147" stroke-width="3.03189"/>
<path d="M468 260.697V120.485" stroke="#46C147" stroke-width="3.03189"/>
<path d="M443 144.74H468" stroke="#46C147" stroke-width="3.03189"/>
<path d="M443 144.74L479.383 153.836V135.644L443 144.74Z" fill="#46C147"/>
<path d="M468 144.74L431.617 153.836V135.644L468 144.74Z" fill="#46C147"/>
<path d="M422.739 110V107.674L431.473 98.1136C432.498 96.9939 433.342 96.0206 434.005 95.1937C434.669 94.3582 435.159 93.5744 435.478 92.8422C435.805 92.1015 435.969 91.3263 435.969 90.5166C435.969 89.5864 435.745 88.781 435.297 88.1006C434.858 87.4201 434.255 86.8947 433.488 86.5243C432.722 86.154 431.861 85.9688 430.904 85.9688C429.888 85.9688 429.001 86.1798 428.243 86.6019C427.494 87.0153 426.912 87.5967 426.499 88.3461C426.094 89.0954 425.892 89.974 425.892 90.9818H422.842C422.842 89.4313 423.2 88.0704 423.915 86.899C424.63 85.7276 425.603 84.8146 426.835 84.16C428.075 83.5054 429.466 83.1781 431.008 83.1781C432.558 83.1781 433.932 83.5054 435.129 84.16C436.327 84.8146 437.265 85.6975 437.946 86.8086C438.626 87.9197 438.967 89.1557 438.967 90.5166C438.967 91.4899 438.79 92.4417 438.437 93.372C438.092 94.2936 437.489 95.3229 436.628 96.4598C435.775 97.5882 434.591 98.9663 433.075 100.594L427.132 106.951V107.158H439.432V110H422.739ZM458.876 94.5994L456.137 95.3746C455.965 94.918 455.711 94.4745 455.375 94.0438C455.048 93.6045 454.6 93.2428 454.031 92.9585C453.463 92.6743 452.735 92.5322 451.848 92.5322C450.633 92.5322 449.621 92.8121 448.812 93.372C448.011 93.9232 447.61 94.6252 447.61 95.4779C447.61 96.2359 447.886 96.8345 448.437 97.2738C448.988 97.7131 449.85 98.0791 451.021 98.372L453.967 99.0955C455.741 99.5262 457.063 100.185 457.933 101.072C458.803 101.951 459.238 103.083 459.238 104.47C459.238 105.607 458.911 106.624 458.256 107.519C457.61 108.415 456.706 109.121 455.543 109.638C454.38 110.155 453.028 110.413 451.486 110.413C449.462 110.413 447.787 109.974 446.46 109.096C445.134 108.217 444.294 106.934 443.941 105.245L446.835 104.522C447.11 105.59 447.632 106.391 448.398 106.925C449.173 107.459 450.185 107.726 451.434 107.726C452.856 107.726 453.984 107.425 454.819 106.822C455.664 106.21 456.086 105.478 456.086 104.625C456.086 103.936 455.844 103.359 455.362 102.894C454.88 102.42 454.139 102.067 453.14 101.835L449.832 101.059C448.015 100.629 446.68 99.9612 445.827 99.0568C444.983 98.1437 444.561 97.0025 444.561 95.633C444.561 94.5132 444.875 93.5227 445.504 92.6614C446.141 91.8 447.007 91.1239 448.101 90.6329C449.204 90.142 450.452 89.8965 451.848 89.8965C453.812 89.8965 455.353 90.3271 456.473 91.1885C457.602 92.0498 458.403 93.1868 458.876 94.5994ZM468.324 110L462.277 90.1549H465.482L469.771 105.349H469.978L474.216 90.1549H477.471L481.657 105.297H481.864L486.154 90.1549H489.358L483.311 110H480.314L475.973 94.7544H475.663L471.321 110H468.324Z" fill="#46C147"/>
<path d="M443 289.768H558.212" stroke="#FF0000" stroke-width="3.03189"/>
<path d="M493 289.768H558.212" stroke="#FF0000" stroke-width="3.03189"/>
<path d="M533.957 289.768L524.861 326.151H543.053L533.957 289.768Z" fill="#FF0000"/>
<path d="M533.957 289.768L524.861 253.385H543.053L533.957 289.768Z" fill="#FF0000"/>
<path d="M572.37 283.362C570.423 283.362 568.765 282.832 567.395 281.773C566.026 280.705 564.979 279.158 564.256 277.134C563.532 275.102 563.171 272.647 563.171 269.77C563.171 266.91 563.532 264.468 564.256 262.444C564.988 260.412 566.039 258.861 567.408 257.793C568.786 256.716 570.44 256.178 572.37 256.178C574.299 256.178 575.948 256.716 577.318 257.793C578.696 258.861 579.747 260.412 580.47 262.444C581.203 264.468 581.569 266.91 581.569 269.77C581.569 272.647 581.207 275.102 580.483 277.134C579.76 279.158 578.713 280.705 577.344 281.773C575.974 282.832 574.316 283.362 572.37 283.362ZM572.37 280.519C574.299 280.519 575.798 279.589 576.866 277.729C577.934 275.868 578.468 273.215 578.468 269.77C578.468 267.479 578.222 265.528 577.731 263.917C577.249 262.306 576.551 261.079 575.638 260.235C574.734 259.391 573.644 258.969 572.37 258.969C570.457 258.969 568.963 259.912 567.886 261.798C566.81 263.676 566.271 266.333 566.271 269.77C566.271 272.061 566.513 274.008 566.995 275.61C567.477 277.212 568.171 278.431 569.075 279.266C569.988 280.102 571.086 280.519 572.37 280.519ZM600.587 267.599L597.848 268.375C597.676 267.918 597.422 267.474 597.086 267.044C596.758 266.605 596.31 266.243 595.742 265.959C595.173 265.674 594.446 265.532 593.558 265.532C592.344 265.532 591.332 265.812 590.522 266.372C589.721 266.923 589.321 267.625 589.321 268.478C589.321 269.236 589.596 269.835 590.148 270.274C590.699 270.713 591.56 271.079 592.732 271.372L595.677 272.096C597.452 272.526 598.774 273.185 599.644 274.072C600.514 274.951 600.949 276.083 600.949 277.47C600.949 278.607 600.621 279.624 599.967 280.519C599.321 281.415 598.416 282.121 597.254 282.638C596.091 283.155 594.738 283.413 593.197 283.413C591.173 283.413 589.497 282.974 588.171 282.096C586.844 281.217 586.005 279.934 585.651 278.245L588.545 277.522C588.821 278.59 589.342 279.391 590.109 279.925C590.884 280.459 591.896 280.726 593.145 280.726C594.566 280.726 595.695 280.425 596.53 279.822C597.374 279.21 597.796 278.478 597.796 277.625C597.796 276.936 597.555 276.359 597.073 275.894C596.59 275.42 595.85 275.067 594.85 274.835L591.543 274.059C589.726 273.629 588.39 272.961 587.538 272.057C586.694 271.144 586.272 270.002 586.272 268.633C586.272 267.513 586.586 266.523 587.215 265.661C587.852 264.8 588.718 264.124 589.812 263.633C590.914 263.142 592.163 262.896 593.558 262.896C595.522 262.896 597.064 263.327 598.184 264.188C599.312 265.05 600.113 266.187 600.587 267.599ZM610.035 283L603.988 263.155H607.192L611.482 278.349H611.688L615.926 263.155H619.182L623.368 278.297H623.575L627.864 263.155H631.068L625.022 283H622.024L617.683 267.754H617.373L613.032 283H610.035Z" fill="#FF0000"/>
</svg>
