<svg width="868" height="490" viewBox="0 0 868 490" fill="none" xmlns="http://www.w3.org/2000/svg">
<g clip-path="url(#clip0_0_1)">
<path d="M136.176 38.7499C142.875 27.1461 155.257 19.9985 168.656 19.9999H809.753C830.463 19.9999 847.253 36.7892 847.253 57.4999V432.5C847.253 453.211 830.463 470 809.753 470H168.656C155.257 470.001 142.875 462.854 136.176 451.25L22.5121 254.38C19.1627 248.579 19.1627 241.431 22.5121 235.63L136.176 38.7499Z" fill="white"/>
<path d="M152.419 48.12C155.77 42.32 161.96 38.7482 168.659 38.7499H812.651C823.006 38.7499 831.401 47.1446 831.401 57.4999V432.5C831.401 442.855 823.006 451.25 812.651 451.25H168.659C161.96 451.252 155.77 447.68 152.419 441.88L38.7501 245L152.419 48.12Z" fill="#0033A2"/>
<path d="M198.798 57.4999H285.401L175.871 245L285.401 428.75H198.798L89.2681 245L198.798 57.4999Z" fill="white"/>
<path d="M441.651 316.25H497.901V353.75C499.011 388.833 475.641 419.993 441.651 428.75C407.661 419.993 384.291 388.833 385.401 353.75V316.25H441.651Z" fill="#E9B500"/>
<path d="M437.741 332.654C452.397 332.379 461.455 338.621 464.912 351.381L465.463 351.748L465.647 352.666L465.83 353.4L466.014 354.135L466.198 354.502L466.565 356.154V357.072C466.687 357.256 466.748 357.439 466.748 357.623L467.116 359.643L467.483 362.764L467.85 365.701C468.89 388.589 461.424 401.563 445.451 404.623C429.785 406.826 420.177 401.93 416.627 389.936L420.483 388.65C420.605 388.497 420.728 388.436 420.85 388.467L422.502 387.732C423.267 387.518 423.879 387.273 424.338 386.998L424.889 386.814H425.44C425.562 386.661 425.685 386.6 425.807 386.631L426.358 386.447L429.295 385.162H430.03C432.019 390.67 435.996 392.934 441.963 391.955C448.297 390.517 452.03 386.539 453.162 380.021L453.346 377.084C445.146 382.347 436.884 383.51 428.561 380.572C420.269 376.962 415.862 370.964 415.342 362.58C413.598 344.068 421.064 334.092 437.741 332.654ZM439.209 345.873C434.405 347.066 431.284 349.82 429.846 354.135C428.591 362.978 431.957 368.118 439.944 369.557C448.328 368.7 452.367 364.232 452.061 356.154C450.439 349.116 446.155 345.689 439.209 345.873Z" fill="black"/>
<path d="M305.67 91.8003V80.7803H356.34V91.8003H337.06V151.1H324.95V91.8003" fill="white"/>
<path d="M399.059 107.027L398.509 107.767L397.959 108.317L397.409 108.687L396.669 109.787L396.309 110.157L395.939 110.337C395.539 110.89 395.173 111.317 394.839 111.617L392.449 114.377C387.369 111.104 383.163 109.467 379.829 109.467C376.403 109.467 373.879 111.164 372.259 114.557C372.319 116.55 373.113 118.02 374.639 118.967C375.313 119.147 375.803 119.33 376.109 119.517C377.303 119.697 378.283 119.94 379.049 120.247C390.643 121.107 397.129 125.76 398.509 134.207C398.569 134.574 398.599 134.93 398.599 135.277C398.599 135.63 398.599 135.977 398.599 136.317C398.599 142.464 395.999 147.084 390.799 150.177C387.066 151.857 383.316 152.697 379.549 152.697C372.389 152.697 365.246 149.654 358.119 143.567L358.489 142.837L359.399 141.917C360.013 141.184 360.566 140.63 361.059 140.257C361.179 140.044 361.299 139.924 361.419 139.897L361.789 139.347C361.909 139.134 362.033 139.01 362.159 138.977L362.339 138.607L362.709 138.427L365.099 135.667C369.626 139.954 374.366 142.097 379.319 142.097C381.399 142.097 383.513 141.73 385.659 140.997C386.206 140.264 386.756 139.714 387.309 139.347C387.496 138.614 387.589 137.924 387.589 137.277C387.589 135.684 387.069 134.354 386.029 133.287L381.799 131.817C369.193 131.05 362.339 125.664 361.239 115.657C362.066 105.59 367.756 100.207 378.309 99.507H378.959C387.066 99.507 393.766 102.014 399.059 107.027Z" fill="white"/>
<path d="M411.438 136.776V100.976H422.458V132.736C422.578 132.889 422.638 133.072 422.638 133.286C422.765 133.379 422.828 133.469 422.828 133.556V133.656C423.041 135.029 423.345 136.252 423.738 137.326C425.851 140.259 428.561 141.726 431.868 141.726H432.008C436.108 140.626 438.981 138.362 440.628 134.936V134.386L441.368 132.186V100.976H452.568V151.096H441.368V147.056C436.961 150.662 432.571 152.466 428.198 152.466C424.798 152.466 421.355 151.396 417.868 149.256C415.021 147.082 413.061 144.512 411.988 141.546L411.808 140.256C411.535 139.369 411.398 138.499 411.398 137.646V137.236C411.398 137.082 411.411 136.929 411.438 136.776Z" fill="white"/>
<path d="M510.987 121.544L511.167 124.294C511.287 124.447 511.347 124.631 511.347 124.844V130.354H477.757C478.457 136.594 481.637 140.267 487.297 141.374C488.217 141.461 489.12 141.504 490.007 141.504C494.627 141.504 498.56 139.991 501.807 136.964C502.2 137.637 502.69 138.187 503.277 138.614L503.457 139.164L504.007 139.714C504.433 140.114 504.8 140.491 505.107 140.844C505.413 141.197 505.66 141.557 505.847 141.924C506.06 142.044 506.18 142.164 506.207 142.284L508.777 145.224C502.963 150.091 496.767 152.524 490.187 152.524C489.06 152.524 487.913 152.447 486.747 152.294C485.587 152.141 484.423 151.927 483.257 151.654C472.67 148.134 466.857 140.544 465.817 128.884C465.817 128.731 465.81 128.424 465.797 127.964C465.783 127.511 465.777 127.221 465.777 127.094C465.777 111.154 472.95 102.081 487.297 99.8741C501.557 100.367 509.453 107.591 510.987 121.544ZM477.567 121.724H499.787V121.174C499.66 120.807 499.597 120.441 499.597 120.074V119.704C499.29 119.031 499.107 118.421 499.047 117.874C496.787 112.641 493.053 110.007 487.847 109.974C481.3 111.534 477.873 115.451 477.567 121.724Z" fill="white"/>
<path d="M564.201 109.787V110.337C564.601 111.07 564.848 111.804 564.941 112.537V150.907H553.741V118.417L553.551 117.317C552.024 112.69 549.454 110.377 545.841 110.377C544.741 110.377 543.518 110.607 542.171 111.067C539.111 112.387 536.908 114.47 535.561 117.317L534.831 120.437V150.907H523.811V100.787H534.831V105.007C538.258 101.947 541.991 100.114 546.031 99.507H546.851C555.051 99.507 560.834 102.934 564.201 109.787Z" fill="white"/>
<path d="M603.342 81.3339V80.9639H616.012L616.192 82.2539L616.382 82.8039L616.742 84.0939L617.112 86.2939L617.662 88.1239L618.032 90.3339L618.582 92.1639L618.762 93.6339C618.975 94.1539 619.099 94.5839 619.132 94.9239L619.312 95.6539L619.682 96.7539V97.4939C619.802 97.5873 619.862 97.6773 619.862 97.7639V98.4139C620.202 99.0873 620.389 99.8206 620.422 100.614L620.782 101.714L621.152 103.004L621.522 105.204L622.072 107.034L622.252 108.144L623.352 112.734C623.445 113.161 623.532 113.551 623.612 113.904C623.685 114.251 623.722 114.594 623.722 114.934L624.092 115.664V116.404L624.452 117.324V118.054L624.822 118.784V119.524C625.162 120.444 625.345 121.241 625.372 121.914L625.562 122.644C625.775 123.257 625.942 123.824 626.062 124.344C626.182 124.864 626.259 125.337 626.292 125.764L626.662 127.234L627.032 128.514L627.392 127.414L628.132 123.744L628.492 122.824L628.682 121.724L629.232 119.154L629.602 117.874V117.324L630.332 114.384L630.512 113.284L630.882 112.544L631.062 111.814L631.252 110.894V110.164L631.432 109.604L632.172 106.674L632.532 104.464L632.722 103.734L633.082 103.004C633.149 102.024 633.332 101.164 633.632 100.424L633.822 99.5139V98.9639L634.192 97.4939L634.372 96.9439L634.922 94.5539L635.102 93.4539L635.472 92.3539L635.652 91.4339L636.202 89.0439L636.392 88.1239L636.572 87.7639C636.605 87.4239 636.645 87.0939 636.692 86.7739C636.739 86.4539 636.822 86.1706 636.942 85.9239L637.122 85.3739V84.8239L637.312 84.0939L637.492 83.5339L638.042 80.9639H651.632V81.5139C652.059 82.5873 652.302 83.6306 652.362 84.6439L652.732 86.1039L652.912 86.6639L653.652 89.9639L654.012 91.4339C654.259 92.3206 654.382 93.0539 654.382 93.6339C654.595 94.1539 654.719 94.5839 654.752 94.9239L655.112 96.2039L655.302 97.4939L655.482 98.2239L655.672 98.7739C655.759 99.1739 655.835 99.5339 655.902 99.8539C655.962 100.174 656.005 100.487 656.032 100.794C656.279 101.374 656.449 101.911 656.542 102.404C656.635 102.891 656.712 103.334 656.772 103.734L656.952 104.834L657.322 105.754L657.502 106.854V107.404C657.809 108.137 657.992 108.811 658.052 109.424L658.242 110.524C658.542 111.257 658.725 111.931 658.792 112.544L658.972 113.464L659.522 115.484V116.214C659.642 116.494 659.702 116.801 659.702 117.134C660.042 117.841 660.229 118.454 660.262 118.974L660.442 119.894L660.622 120.994L660.812 121.724C661.119 122.671 661.302 123.527 661.362 124.294C661.482 124.387 661.542 124.481 661.542 124.574V125.214C661.969 126.287 662.215 127.327 662.282 128.334C662.462 128.274 662.582 128.151 662.642 127.964C662.795 127.204 662.949 126.541 663.102 125.974C663.255 125.407 663.409 124.911 663.562 124.484V123.744C663.962 122.644 664.205 121.664 664.292 120.804L664.662 119.524L665.402 116.584L665.582 115.114L665.952 113.834L666.132 113.284V112.734C666.346 112.147 666.515 111.617 666.642 111.144C666.762 110.671 666.835 110.221 666.862 109.794L667.232 108.504L668.702 102.444L669.252 99.5139L669.622 98.0439C669.955 97.1573 670.139 96.4239 670.172 95.8439L670.352 94.9239L670.722 93.4539C670.995 92.5673 671.179 91.8339 671.272 91.2539L671.452 90.5139L672.012 87.9439L672.372 86.8439V86.2939L672.922 84.8239V84.0939L673.112 83.5339L673.662 80.9639H686.142L685.412 84.6439L684.862 86.8439L684.672 87.3939L684.122 89.9639L683.762 91.4339L683.392 92.7139L682.652 96.3939L682.292 97.6739L681.552 101.164L681.192 102.444L681.002 103.004L680.632 105.014L680.452 105.384L680.272 106.674C679.965 107.681 679.782 108.537 679.722 109.244L678.982 111.444L678.802 112.734L678.612 113.464L678.432 114.014L678.252 115.304L678.062 115.854L676.962 120.444L676.782 121.724L676.412 123.014L675.492 126.684L675.312 127.964L674.212 132.554L673.662 135.124C673.322 136.044 673.139 136.841 673.112 137.514L672.372 139.904V140.634C672.039 141.554 671.855 142.351 671.822 143.024C671.515 144.031 671.332 144.887 671.272 145.594L670.902 146.874L670.722 147.244L670.542 148.534C670.235 149.541 670.052 150.397 669.992 151.104H656.402L656.222 149.634C656.009 149.114 655.885 148.684 655.852 148.344L655.482 146.874L655.302 145.594L654.932 144.304C654.839 143.937 654.762 143.587 654.702 143.254C654.642 142.914 654.595 142.591 654.562 142.284L654.382 141.554L654.202 140.634C654.075 140.481 654.012 140.297 654.012 140.084L653.832 139.164L653.652 138.614C653.559 138.221 653.482 137.861 653.422 137.534C653.355 137.214 653.309 136.901 653.282 136.594C653.069 136.014 652.909 135.481 652.802 134.994C652.695 134.501 652.609 134.057 652.542 133.664L652.362 132.924L652.182 132.004C652.055 131.637 651.969 131.287 651.922 130.954C651.882 130.614 651.845 130.291 651.812 129.984C651.599 129.377 651.432 128.797 651.312 128.244C651.185 127.691 651.109 127.171 651.082 126.684C650.955 126.531 650.892 126.347 650.892 126.134L650.712 125.394L650.532 124.844C650.439 124.204 650.315 123.594 650.162 123.014L649.792 121.354L649.612 120.254L649.242 119.344L648.872 117.134L648.692 116.584V116.034C648.385 115.301 648.202 114.627 648.142 114.014L647.772 111.814L647.402 110.894L647.042 109.424V108.694C646.675 107.681 646.492 106.824 646.492 106.124C646.365 105.971 646.302 105.787 646.302 105.574L646.122 105.014V104.464C645.815 103.764 645.632 103.031 645.572 102.264C645.265 101.284 645.082 100.367 645.022 99.5139L644.652 100.244L644.472 101.344L643.922 103.734L643.552 105.754L643.362 106.304L642.632 109.424L642.452 110.164L642.082 111.994L641.902 112.734L641.532 114.754L641.352 115.304L640.612 118.784L640.242 120.074L640.062 121.354C639.729 122.274 639.545 123.071 639.512 123.744L639.332 124.114L639.142 125.214L638.962 125.764L638.042 130.354L637.862 130.904L637.122 134.394L636.942 135.124L636.762 136.044L636.572 136.594L635.842 140.084L635.472 141.554L635.102 143.394L634.922 143.754L634.552 145.414L634.372 146.144L634.192 147.424C633.972 148.191 633.849 148.804 633.822 149.264C633.695 149.571 633.612 149.861 633.572 150.134C633.525 150.414 633.485 150.674 633.452 150.914C633.025 150.981 632.635 151.034 632.282 151.074C631.929 151.121 631.585 151.144 631.252 151.144H630.792C630.639 151.144 630.485 151.131 630.332 151.104H619.682V150.364C619.255 149.264 619.012 148.224 618.952 147.244C618.825 147.091 618.762 146.907 618.762 146.694L618.582 145.774C617.909 143.601 617.479 141.764 617.292 140.264L617.112 139.714L616.192 136.234L616.012 134.764L614.542 129.074V128.334C614.235 127.634 614.052 126.901 613.992 126.134L613.622 125.034L613.262 123.744V123.194L612.342 119.524V118.974L612.152 118.234L611.792 117.504L611.602 116.034C611.362 115.301 611.165 114.627 611.012 114.014C610.859 113.401 610.752 112.851 610.692 112.364L610.502 111.814V111.264C610.382 111.111 610.322 110.927 610.322 110.714L609.952 109.244L609.772 108.694C609.645 108.047 609.529 107.464 609.422 106.944C609.315 106.424 609.185 105.967 609.032 105.574L608.852 104.284C608.639 103.671 608.469 103.104 608.342 102.584C608.222 102.064 608.145 101.591 608.112 101.164L607.932 100.244C607.812 100.091 607.752 99.9073 607.752 99.6939L606.832 96.0239L606.462 94.7339L606.282 93.8239L606.102 93.0839L605.912 91.8039C605.665 91.1573 605.542 90.6039 605.542 90.1439V89.9639L605.182 89.0439L604.992 88.3139C604.872 87.4273 604.689 86.6906 604.442 86.1039V85.3739C604.322 85.2206 604.262 85.0373 604.262 84.8239" fill="white"/>
<path d="M729.716 105.385L730.276 106.485C731.71 108.265 732.626 110.101 733.026 111.995C733.146 112.788 733.236 113.531 733.296 114.225C733.363 114.911 733.396 115.515 733.396 116.035V140.265C734.523 142.505 736.173 143.851 738.346 144.305L737.986 144.855C737.86 145.075 737.736 145.198 737.616 145.225L737.436 145.775L737.066 146.145C736.76 146.818 736.393 147.368 735.966 147.795C735.533 148.928 734.98 149.785 734.306 150.365C734.033 150.978 733.773 151.508 733.526 151.955C733.286 152.395 733.06 152.785 732.846 153.125C729.266 152.205 726.45 150.551 724.396 148.165H723.846C719.9 151.011 715.83 152.435 711.636 152.435C709.37 152.435 707.136 152.051 704.936 151.285C698.356 148.931 694.38 144.648 693.006 138.435V138.205C693.006 126.365 699.936 120.445 713.796 120.445H713.936C714.21 120.318 714.513 120.255 714.846 120.255L715.396 120.075H716.686L717.236 119.895H717.786L722.376 119.345C722.436 119.005 722.466 118.698 722.466 118.425V117.505C722.466 112.391 719.76 109.835 714.346 109.835C710.58 109.835 705.423 111.105 698.876 113.645L698.146 111.995L697.776 110.895L697.406 110.525L697.226 110.165L696.856 109.055C696.523 108.508 696.28 107.958 696.126 107.405C695.48 106.551 695.05 105.695 694.836 104.835L695.386 104.655L695.756 104.465L696.306 104.285L696.676 103.915H697.226C697.346 103.795 697.453 103.735 697.546 103.735H697.596C698.696 103.155 699.673 102.725 700.526 102.445L701.446 102.265C702.12 101.958 702.733 101.775 703.286 101.715L704.756 101.345C705.823 100.918 706.863 100.675 707.876 100.615L711.916 99.8747C712.523 99.8147 713.11 99.7613 713.676 99.7147C714.243 99.668 714.803 99.6447 715.356 99.6447C721.196 99.6447 725.983 101.558 729.716 105.385ZM717.966 128.705H716.866C716.593 128.765 716.326 128.811 716.066 128.845C715.806 128.871 715.553 128.885 715.306 128.885H715.036L714.296 129.075H713.746C713.593 129.195 713.41 129.255 713.196 129.255H712.646L709.706 129.985H709.156C708.303 130.478 707.57 130.785 706.956 130.905C704.97 132.805 703.976 134.641 703.976 136.415C703.976 138.035 704.786 139.625 706.406 141.185C708.76 142.625 711.053 143.345 713.286 143.345C716.133 143.345 718.856 142.198 721.456 139.905C721.703 139.198 721.95 138.708 722.196 138.435L722.376 137.885L722.196 137.145V128.515H718.526C718.373 128.641 718.186 128.705 717.966 128.705Z" fill="white"/>
<path d="M792.201 109.787V110.337C792.601 111.07 792.848 111.804 792.941 112.537V150.907H781.741V118.417L781.551 117.317C780.024 112.69 777.454 110.377 773.841 110.377C772.741 110.377 771.518 110.607 770.171 111.067C767.111 112.387 764.908 114.47 763.561 117.317L762.831 120.437V150.907H751.811V100.787H762.831V105.007C766.258 101.947 769.991 100.114 774.031 99.507H774.851C783.051 99.507 788.834 102.934 792.201 109.787Z" fill="white"/>
<path d="M355.651 74.7499H305.151V172.75H355.651V74.7499Z" stroke="white" stroke-width="2" stroke-dasharray="5 5"/>
<path d="M403.151 74.7499H357.651V172.75H403.151V74.7499Z" stroke="white" stroke-width="2" stroke-dasharray="5 5"/>
<path d="M460.651 74.7499H405.151V172.75H460.651V74.7499Z" stroke="white" stroke-width="2" stroke-dasharray="5 5"/>
<path d="M515.151 74.7499H462.651V172.75H515.151V74.7499Z" stroke="white" stroke-width="2" stroke-dasharray="5 5"/>
<path d="M571.151 74.7499H517.151V172.75H571.151V74.7499Z" stroke="white" stroke-width="2" stroke-dasharray="5 5"/>
<path d="M596.151 74.7499H573.151V172.75H596.151V74.7499Z" stroke="white" stroke-width="2" stroke-dasharray="5 5"/>
<path d="M687.651 74.7499H598.151V172.75H687.651V74.7499Z" stroke="white" stroke-width="2" stroke-dasharray="5 5"/>
<path d="M743.151 74.7499H689.651V172.75H743.151V74.7499Z" stroke="white" stroke-width="2" stroke-dasharray="5 5"/>
<path d="M799.151 74.7499H745.151V172.75H799.151V74.7499Z" stroke="white" stroke-width="2" stroke-dasharray="5 5"/>
<path d="M348.313 245.415V236.305H401.303V245.415H348.313ZM341.453 263.525V254.635H408.723V263.525H341.453ZM326.033 282.425V273.205H423.913V282.425H326.033ZM339.873 220.325V211.775H379.023V220.325H339.873ZM369.913 217.515V211.775H381.503C383.903 214.849 386.81 217.829 390.223 220.715C393.637 223.609 397.403 226.292 401.523 228.765C405.65 231.239 409.963 233.452 414.463 235.405C418.963 237.352 423.5 239.002 428.073 240.355C427.253 240.955 426.317 241.742 425.263 242.715C424.217 243.689 423.203 244.702 422.223 245.755C421.25 246.802 420.463 247.775 419.863 248.675C413.863 246.502 407.94 243.802 402.093 240.575C396.24 237.349 390.82 233.769 385.833 229.835C380.847 225.895 376.553 221.789 372.953 217.515H369.913ZM367.443 212.905L377.113 216.615C373.44 221.562 368.977 226.135 363.723 230.335C358.477 234.535 352.87 238.249 346.903 241.475C340.943 244.702 334.927 247.515 328.853 249.915C328.327 249.162 327.613 248.262 326.713 247.215C325.813 246.162 324.877 245.129 323.903 244.115C322.93 243.109 322.067 242.305 321.313 241.705C327.467 239.825 333.467 237.462 339.313 234.615C345.167 231.762 350.51 228.499 355.343 224.825C360.183 221.152 364.217 217.179 367.443 212.905ZM369.243 279.615V240.465H380.153V279.615H369.243ZM325.253 200.185V190.405H424.703V200.185H325.253ZM349.213 209.525V181.855H359.793V209.525H349.213ZM389.493 210.085V181.855H400.063V210.085" fill="white"/>
<path d="M511.578 189.618V184.108H531.258V189.618H511.578ZM510.898 207.958V202.558H532.048V207.958H510.898ZM510.898 216.388V211.108H532.048V216.388H510.898ZM494.478 269.718V262.858H551.508V269.718H494.478ZM507.638 199.068V193.108H534.638V199.068H507.638ZM525.298 225.278H517.308V231.688H525.298V225.278ZM510.668 236.868V220.108H532.158V236.868H510.668ZM496.388 258.128V251.718H543.068V246.878H489.408V240.468H552.978V258.128H496.388ZM492.558 238.438V212.908H499.648V238.438H492.558ZM482.328 216.838L481.538 209.978C484.838 209.831 488.532 209.681 492.618 209.528C496.705 209.381 501.035 209.194 505.608 208.968V215.158C501.408 215.531 497.342 215.831 493.408 216.058C489.468 216.278 485.775 216.538 482.328 216.838ZM493.348 251.718H503.248C502.348 255.318 501.375 259.068 500.328 262.968C499.275 266.868 498.298 270.241 497.398 273.088L487.838 271.738C488.885 268.964 489.898 265.758 490.878 262.118C491.852 258.484 492.675 255.018 493.348 251.718ZM548.138 263.978V262.858H558.148C558.148 262.858 558.112 263.361 558.038 264.368C557.965 265.381 557.815 266.228 557.588 266.908C556.535 271.554 555.445 275.208 554.318 277.868C553.198 280.534 551.888 282.468 550.388 283.668C549.115 284.568 547.745 285.184 546.278 285.518C544.818 285.858 543.075 286.064 541.048 286.138C539.322 286.218 536.865 286.238 533.678 286.198C530.492 286.158 527.098 286.064 523.498 285.918C523.425 284.718 523.125 283.368 522.598 281.868C522.072 280.368 521.435 279.018 520.688 277.818C524.215 278.191 527.628 278.414 530.928 278.488C534.228 278.568 536.552 278.608 537.898 278.608C539.098 278.608 540.072 278.568 540.818 278.488C541.572 278.414 542.212 278.191 542.738 277.818C543.785 276.991 544.742 275.508 545.608 273.368C546.468 271.234 547.312 268.104 548.138 263.978ZM500.998 220.888L506.398 219.658C506.998 221.531 507.578 223.591 508.138 225.838C508.705 228.091 509.138 230.041 509.438 231.688L503.588 233.268C503.435 231.541 503.115 229.534 502.628 227.248C502.142 224.961 501.598 222.841 500.998 220.888ZM500.658 205.588L505.498 203.788C506.472 205.668 507.372 207.768 508.198 210.088C509.025 212.414 509.588 214.441 509.888 216.168L504.598 218.188C504.372 216.468 503.885 214.444 503.138 212.118C502.385 209.791 501.558 207.614 500.658 205.588ZM482.658 196.708L486.258 191.308C488.438 192.728 490.575 194.358 492.668 196.198C494.775 198.038 496.352 199.631 497.398 200.978L493.348 207.168C492.222 205.594 490.648 203.831 488.628 201.878C486.602 199.931 484.612 198.208 482.658 196.708ZM493.348 181.518L499.758 184.668C498.258 187.141 496.758 189.654 495.258 192.208C493.758 194.754 492.335 196.891 490.988 198.618L486.038 196.028C487.238 194.081 488.552 191.701 489.978 188.888C491.398 186.074 492.522 183.618 493.348 181.518ZM500.548 190.858L506.848 194.458C504.375 197.831 501.732 201.391 498.918 205.138C496.105 208.891 493.462 212.041 490.988 214.588L486.258 211.668C487.838 209.794 489.528 207.658 491.328 205.258C493.128 202.858 494.832 200.381 496.438 197.828C498.052 195.281 499.422 192.958 500.548 190.858ZM485.138 219.208L491.778 220.668C491.098 223.594 490.272 226.518 489.298 229.438C488.325 232.364 487.275 234.878 486.148 236.978C485.475 236.531 484.498 236.024 483.218 235.458C481.945 234.898 480.898 234.431 480.078 234.058C481.352 231.958 482.398 229.611 483.218 227.018C484.045 224.431 484.685 221.828 485.138 219.208ZM544.538 238.438V212.908H551.738V238.438H544.538ZM534.188 216.838L533.508 209.978C536.962 209.831 540.845 209.681 545.158 209.528C549.472 209.381 554.065 209.231 558.938 209.078L558.818 215.268C554.398 215.568 550.105 215.848 545.938 216.108C541.778 216.374 537.862 216.618 534.188 216.838ZM553.308 220.888L559.048 219.208C560.022 221.454 560.978 223.928 561.918 226.628C562.852 229.328 563.508 231.654 563.888 233.608L557.928 235.518C557.628 233.564 557.028 231.201 556.128 228.428C555.228 225.654 554.288 223.141 553.308 220.888ZM552.408 205.368L557.698 203.008C558.972 204.954 560.152 207.108 561.238 209.468C562.332 211.834 563.102 213.918 563.548 215.718L557.808 218.308C557.435 216.508 556.742 214.388 555.728 211.948C554.715 209.508 553.608 207.314 552.408 205.368ZM533.738 196.478L537.558 191.418C539.512 192.764 541.462 194.321 543.408 196.088C545.362 197.848 546.862 199.441 547.908 200.868L543.528 206.718C542.548 205.218 541.142 203.491 539.308 201.538C537.468 199.591 535.612 197.904 533.738 196.478ZM544.758 181.628L551.178 184.888C549.598 187.368 548.022 189.861 546.448 192.368C544.875 194.881 543.375 197.038 541.948 198.838L536.998 196.258C538.272 194.304 539.658 191.921 541.158 189.108C542.658 186.294 543.858 183.801 544.758 181.628ZM552.748 190.408L559.048 194.008C556.502 197.381 553.728 200.941 550.728 204.688C547.728 208.441 544.878 211.591 542.178 214.138L537.558 211.218C539.285 209.344 541.085 207.208 542.958 204.808C544.838 202.408 546.638 199.931 548.358 197.378C550.085 194.831 551.548 192.508 552.748 190.408ZM536.998 219.208L543.528 220.778C543.002 223.551 542.252 226.381 541.278 229.268C540.298 232.161 539.248 234.618 538.128 236.638C537.528 236.264 536.628 235.758 535.428 235.118C534.228 234.484 533.178 233.981 532.278 233.608C533.472 231.508 534.445 229.218 535.198 226.738C535.945 224.264 536.545 221.754 536.998 219.208ZM460.498 190.288L466.688 183.318C468.562 184.291 470.528 185.471 472.588 186.858C474.655 188.244 476.588 189.631 478.388 191.018C480.188 192.411 481.652 193.744 482.778 195.018L476.358 202.888C475.312 201.614 473.905 200.228 472.138 198.728C470.378 197.228 468.485 195.748 466.458 194.288C464.438 192.821 462.452 191.488 460.498 190.288ZM458.138 220.328L463.988 213.018C465.935 213.918 467.978 215.024 470.118 216.338C472.258 217.651 474.245 218.961 476.078 220.268C477.918 221.581 479.438 222.838 480.638 224.038L474.448 232.138C473.322 230.938 471.842 229.628 470.008 228.208C468.168 226.781 466.198 225.374 464.098 223.988C461.998 222.601 460.012 221.381 458.138 220.328ZM469.948 284.908L460.388 279.508C461.815 276.508 463.332 273.018 464.938 269.038C466.552 265.064 468.202 260.864 469.888 256.438C471.582 252.018 473.138 247.668 474.558 243.388L482.998 248.788C481.798 252.768 480.448 256.858 478.948 261.058C477.448 265.258 475.948 269.381 474.448 273.428C472.948 277.481 471.448 281.308 469.948 284.908Z" fill="white"/>
<path d="M440.651 174.75H305.151V315.25H440.651V174.75Z" stroke="white" stroke-width="2" stroke-dasharray="5 5"/>
<path d="M578.151 174.75H442.651V315.25H578.151V174.75Z" stroke="white" stroke-width="2" stroke-dasharray="5 5"/>
<path d="M441.651 316.25V431.462" stroke="#46C147" stroke-width="3.03189"/>
<path d="M441.651 316.25V441.25" stroke="#46C147" stroke-width="3.03189"/>
<path d="M441.651 407.207L478.033 398.111V416.303L441.651 407.207Z" fill="#46C147"/>
<path d="M441.651 407.207L405.268 398.111V416.303L441.651 407.207Z" fill="#46C147"/>
<path d="M417.37 472.362C415.423 472.362 413.765 471.832 412.395 470.773C411.026 469.705 409.979 468.158 409.256 466.134C408.532 464.102 408.171 461.647 408.171 458.77C408.171 455.91 408.532 453.468 409.256 451.444C409.988 449.412 411.039 447.861 412.408 446.793C413.786 445.716 415.44 445.178 417.37 445.178C419.299 445.178 420.948 445.716 422.318 446.793C423.696 447.861 424.747 449.412 425.47 451.444C426.203 453.468 426.569 455.91 426.569 458.77C426.569 461.647 426.207 464.102 425.483 466.134C424.76 468.158 423.713 469.705 422.344 470.773C420.974 471.832 419.316 472.362 417.37 472.362ZM417.37 469.519C419.299 469.519 420.798 468.589 421.866 466.729C422.934 464.868 423.468 462.215 423.468 458.77C423.468 456.479 423.222 454.528 422.731 452.917C422.249 451.306 421.551 450.079 420.638 449.235C419.734 448.391 418.644 447.969 417.37 447.969C415.457 447.969 413.963 448.912 412.886 450.798C411.81 452.676 411.271 455.333 411.271 458.77C411.271 461.061 411.513 463.008 411.995 464.61C412.477 466.212 413.171 467.431 414.075 468.266C414.988 469.102 416.086 469.519 417.37 469.519ZM445.587 456.599L442.848 457.375C442.676 456.918 442.421 456.474 442.086 456.044C441.758 455.605 441.31 455.243 440.742 454.959C440.173 454.674 439.446 454.532 438.558 454.532C437.344 454.532 436.332 454.812 435.522 455.372C434.721 455.923 434.321 456.625 434.321 457.478C434.321 458.236 434.596 458.835 435.148 459.274C435.699 459.713 436.56 460.079 437.732 460.372L440.677 461.096C442.452 461.526 443.774 462.185 444.644 463.072C445.514 463.951 445.949 465.083 445.949 466.47C445.949 467.607 445.621 468.624 444.967 469.519C444.321 470.415 443.416 471.121 442.254 471.638C441.091 472.155 439.738 472.413 438.197 472.413C436.173 472.413 434.497 471.974 433.171 471.096C431.844 470.217 431.005 468.934 430.651 467.245L433.545 466.522C433.821 467.59 434.342 468.391 435.109 468.925C435.884 469.459 436.896 469.726 438.145 469.726C439.566 469.726 440.695 469.425 441.53 468.822C442.374 468.21 442.796 467.478 442.796 466.625C442.796 465.936 442.555 465.359 442.073 464.894C441.59 464.42 440.85 464.067 439.85 463.835L436.543 463.059C434.725 462.629 433.39 461.961 432.538 461.057C431.694 460.144 431.272 459.002 431.272 457.633C431.272 456.513 431.586 455.523 432.215 454.661C432.852 453.8 433.718 453.124 434.812 452.633C435.914 452.142 437.163 451.896 438.558 451.896C440.522 451.896 442.064 452.327 443.184 453.188C444.312 454.05 445.113 455.187 445.587 456.599ZM455.035 472L448.988 452.155H452.192L456.482 467.349H456.688L460.926 452.155H464.182L468.368 467.297H468.575L472.864 452.155H476.068L470.022 472H467.024L462.683 456.754H462.373L458.032 472H455.035Z" fill="#46C147"/>
<path d="M441.651 316.25H556.863" stroke="#FF0000" stroke-width="3.03189"/>
<path d="M441.651 316.25H556.863" stroke="#FF0000" stroke-width="3.03189"/>
<path d="M532.608 316.25L523.512 352.633H541.703L532.608 316.25Z" fill="#FF0000"/>
<path d="M532.608 316.25L523.512 279.867H541.703L532.608 316.25Z" fill="#FF0000"/>
<path d="M587.413 325.809C585.466 325.809 583.808 325.28 582.438 324.22C581.069 323.152 580.022 321.606 579.299 319.582C578.575 317.549 578.214 315.094 578.214 312.218C578.214 309.358 578.575 306.916 579.299 304.892C580.031 302.859 581.082 301.309 582.451 300.241C583.83 299.164 585.483 298.626 587.413 298.626C589.342 298.626 590.992 299.164 592.361 300.241C593.739 301.309 594.79 302.859 595.514 304.892C596.246 306.916 596.612 309.358 596.612 312.218C596.612 315.094 596.25 317.549 595.526 319.582C594.803 321.606 593.756 323.152 592.387 324.22C591.017 325.28 589.359 325.809 587.413 325.809ZM587.413 322.967C589.342 322.967 590.841 322.037 591.909 320.176C592.977 318.316 593.511 315.663 593.511 312.218C593.511 309.926 593.265 307.975 592.774 306.365C592.292 304.754 591.594 303.527 590.681 302.683C589.777 301.838 588.687 301.416 587.413 301.416C585.501 301.416 584.006 302.36 582.929 304.246C581.853 306.124 581.314 308.781 581.314 312.218C581.314 314.509 581.556 316.455 582.038 318.057C582.52 319.659 583.214 320.878 584.118 321.714C585.031 322.549 586.129 322.967 587.413 322.967ZM615.63 310.047L612.891 310.822C612.719 310.366 612.465 309.922 612.129 309.491C611.801 309.052 611.353 308.69 610.785 308.406C610.216 308.122 609.489 307.98 608.601 307.98C607.387 307.98 606.375 308.26 605.565 308.82C604.764 309.371 604.364 310.073 604.364 310.926C604.364 311.684 604.639 312.282 605.191 312.721C605.742 313.161 606.603 313.527 607.775 313.82L610.72 314.543C612.495 314.974 613.817 315.633 614.687 316.52C615.557 317.398 615.992 318.531 615.992 319.918C615.992 321.055 615.664 322.071 615.01 322.967C614.364 323.863 613.459 324.569 612.297 325.086C611.134 325.603 609.782 325.861 608.24 325.861C606.216 325.861 604.54 325.422 603.214 324.543C601.887 323.665 601.048 322.381 600.694 320.693L603.589 319.97C603.864 321.038 604.385 321.839 605.152 322.373C605.927 322.907 606.939 323.174 608.188 323.174C609.609 323.174 610.738 322.872 611.573 322.269C612.417 321.658 612.839 320.926 612.839 320.073C612.839 319.384 612.598 318.807 612.116 318.342C611.633 317.868 610.893 317.515 609.893 317.282L606.586 316.507C604.769 316.076 603.433 315.409 602.581 314.504C601.737 313.591 601.315 312.45 601.315 311.081C601.315 309.961 601.629 308.97 602.258 308.109C602.895 307.248 603.761 306.572 604.855 306.081C605.957 305.59 607.206 305.344 608.601 305.344C610.565 305.344 612.107 305.775 613.227 306.636C614.355 307.497 615.156 308.634 615.63 310.047ZM625.078 325.448L619.031 305.603H622.235L626.525 320.796H626.731L630.969 305.603H634.225L638.411 320.745H638.618L642.907 305.603H646.111L640.065 325.448H637.067L632.726 310.202H632.416L628.075 325.448H625.078Z" fill="#FF0000"/>
</g>
<defs>
<clipPath id="clip0_0_1">
<rect width="867.253" height="490" fill="white"/>
</clipPath>
</defs>
</svg>
