<svg width="1042" height="479" viewBox="0 0 1042 479" fill="none" xmlns="http://www.w3.org/2000/svg">
<path d="M20 142.5C20 121.789 36.7893 105 57.5 105H907.5C928.211 105 945 121.789 945 142.5V392.5C945 413.211 928.211 430 907.5 430H57.5C36.7893 430 20 413.211 20 392.5V142.5Z" fill="white"/>
<path d="M38.75 142.5C38.75 132.145 47.1447 123.75 57.5 123.75H907.5C917.855 123.75 926.25 132.145 926.25 142.5V392.5C926.25 402.855 917.855 411.25 907.5 411.25H57.5C47.1447 411.25 38.75 402.855 38.75 392.5V142.5Z" fill="#0033A2"/>
<path d="M888.391 190.897V261.607L853.036 296.963V249.822L758.755 344.103L735.185 320.533L829.466 226.252H782.325L817.68 190.897H888.391Z" fill="white"/>
<path d="M120.771 324.165V315.055H173.761V324.165H120.771ZM113.911 342.275V333.385H181.181V342.275H113.911ZM98.4913 361.175V351.955H196.371V361.175H98.4913ZM112.331 299.075V290.525H151.481V299.075H112.331ZM142.371 296.265V290.525H153.961C156.361 293.599 159.268 296.579 162.681 299.465C166.095 302.359 169.861 305.042 173.981 307.515C178.108 309.989 182.421 312.202 186.921 314.155C191.421 316.102 195.958 317.752 200.531 319.105C199.711 319.705 198.775 320.492 197.721 321.465C196.675 322.439 195.661 323.452 194.681 324.505C193.708 325.552 192.921 326.525 192.321 327.425C186.321 325.252 180.398 322.552 174.551 319.325C168.698 316.099 163.278 312.519 158.291 308.585C153.305 304.645 149.011 300.539 145.411 296.265H142.371ZM139.901 291.655L149.571 295.365C145.898 300.312 141.435 304.885 136.181 309.085C130.935 313.285 125.328 316.999 119.361 320.225C113.401 323.452 107.385 326.265 101.311 328.665C100.785 327.912 100.071 327.012 99.1713 325.965C98.2713 324.912 97.3347 323.879 96.3613 322.865C95.388 321.859 94.5247 321.055 93.7713 320.455C99.9247 318.575 105.925 316.212 111.771 313.365C117.625 310.512 122.968 307.249 127.801 303.575C132.641 299.902 136.675 295.929 139.901 291.655ZM141.701 358.365V319.215H152.611V358.365H141.701ZM97.7113 278.935V269.155H197.161V278.935H97.7113ZM121.671 288.275V260.605H132.251V288.275H121.671ZM161.951 288.835V260.605H172.521V288.835" fill="white"/>
<path d="M284.036 268.368V262.858H303.716V268.368H284.036ZM283.356 286.708V281.308H304.506V286.708H283.356ZM283.356 295.138V289.858H304.506V295.138H283.356ZM266.936 348.468V341.608H323.966V348.468H266.936ZM280.096 277.818V271.858H307.096V277.818H280.096ZM297.756 304.028H289.766V310.438H297.756V304.028ZM283.126 315.618V298.858H304.616V315.618H283.126ZM268.846 336.878V330.468H315.526V325.628H261.866V319.218H325.436V336.878H268.846ZM265.016 317.188V291.658H272.106V317.188H265.016ZM254.786 295.588L253.996 288.728C257.296 288.581 260.99 288.431 265.076 288.278C269.163 288.131 273.493 287.944 278.066 287.718V293.908C273.866 294.281 269.8 294.581 265.866 294.808C261.926 295.028 258.233 295.288 254.786 295.588ZM265.806 330.468H275.706C274.806 334.068 273.833 337.818 272.786 341.718C271.733 345.618 270.756 348.991 269.856 351.838L260.296 350.488C261.343 347.714 262.356 344.508 263.336 340.868C264.31 337.234 265.133 333.768 265.806 330.468ZM320.596 342.728V341.608H330.606C330.606 341.608 330.57 342.111 330.496 343.118C330.423 344.131 330.273 344.978 330.046 345.658C328.993 350.304 327.903 353.958 326.776 356.618C325.656 359.284 324.346 361.218 322.846 362.418C321.573 363.318 320.203 363.934 318.736 364.268C317.276 364.608 315.533 364.814 313.506 364.888C311.78 364.968 309.323 364.988 306.136 364.948C302.95 364.908 299.556 364.814 295.956 364.668C295.883 363.468 295.583 362.118 295.056 360.618C294.53 359.118 293.893 357.768 293.146 356.568C296.673 356.941 300.086 357.164 303.386 357.238C306.686 357.318 309.01 357.358 310.356 357.358C311.556 357.358 312.53 357.318 313.276 357.238C314.03 357.164 314.67 356.941 315.196 356.568C316.243 355.741 317.2 354.258 318.066 352.118C318.926 349.984 319.77 346.854 320.596 342.728ZM273.456 299.638L278.856 298.408C279.456 300.281 280.036 302.341 280.596 304.588C281.163 306.841 281.596 308.791 281.896 310.438L276.046 312.018C275.893 310.291 275.573 308.284 275.086 305.998C274.6 303.711 274.056 301.591 273.456 299.638ZM273.116 284.338L277.956 282.538C278.93 284.418 279.83 286.518 280.656 288.838C281.483 291.164 282.046 293.191 282.346 294.918L277.056 296.938C276.83 295.218 276.343 293.194 275.596 290.868C274.843 288.541 274.016 286.364 273.116 284.338ZM255.116 275.458L258.716 270.058C260.896 271.478 263.033 273.108 265.126 274.948C267.233 276.788 268.81 278.381 269.856 279.728L265.806 285.918C264.68 284.344 263.106 282.581 261.086 280.628C259.06 278.681 257.07 276.958 255.116 275.458ZM265.806 260.268L272.216 263.418C270.716 265.891 269.216 268.404 267.716 270.958C266.216 273.504 264.793 275.641 263.446 277.368L258.496 274.778C259.696 272.831 261.01 270.451 262.436 267.638C263.856 264.824 264.98 262.368 265.806 260.268ZM273.006 269.608L279.306 273.208C276.833 276.581 274.19 280.141 271.376 283.888C268.563 287.641 265.92 290.791 263.446 293.338L258.716 290.418C260.296 288.544 261.986 286.408 263.786 284.008C265.586 281.608 267.29 279.131 268.896 276.578C270.51 274.031 271.88 271.708 273.006 269.608ZM257.596 297.958L264.236 299.418C263.556 302.344 262.73 305.268 261.756 308.188C260.783 311.114 259.733 313.628 258.606 315.728C257.933 315.281 256.956 314.774 255.676 314.208C254.403 313.648 253.356 313.181 252.536 312.808C253.81 310.708 254.856 308.361 255.676 305.768C256.503 303.181 257.143 300.578 257.596 297.958ZM316.996 317.188V291.658H324.196V317.188H316.996ZM306.646 295.588L305.966 288.728C309.42 288.581 313.303 288.431 317.616 288.278C321.93 288.131 326.523 287.981 331.396 287.828L331.276 294.018C326.856 294.318 322.563 294.598 318.396 294.858C314.236 295.124 310.32 295.368 306.646 295.588ZM325.766 299.638L331.506 297.958C332.48 300.204 333.436 302.678 334.376 305.378C335.31 308.078 335.966 310.404 336.346 312.358L330.386 314.268C330.086 312.314 329.486 309.951 328.586 307.178C327.686 304.404 326.746 301.891 325.766 299.638ZM324.866 284.118L330.156 281.758C331.43 283.704 332.61 285.858 333.696 288.218C334.79 290.584 335.56 292.668 336.006 294.468L330.266 297.058C329.893 295.258 329.2 293.138 328.186 290.698C327.173 288.258 326.066 286.064 324.866 284.118ZM306.196 275.228L310.016 270.168C311.97 271.514 313.92 273.071 315.866 274.838C317.82 276.598 319.32 278.191 320.366 279.618L315.986 285.468C315.006 283.968 313.6 282.241 311.766 280.288C309.926 278.341 308.07 276.654 306.196 275.228ZM317.216 260.378L323.636 263.638C322.056 266.118 320.48 268.611 318.906 271.118C317.333 273.631 315.833 275.788 314.406 277.588L309.456 275.008C310.73 273.054 312.116 270.671 313.616 267.858C315.116 265.044 316.316 262.551 317.216 260.378ZM325.206 269.158L331.506 272.758C328.96 276.131 326.186 279.691 323.186 283.438C320.186 287.191 317.336 290.341 314.636 292.888L310.016 289.968C311.743 288.094 313.543 285.958 315.416 283.558C317.296 281.158 319.096 278.681 320.816 276.128C322.543 273.581 324.006 271.258 325.206 269.158ZM309.456 297.958L315.986 299.528C315.46 302.301 314.71 305.131 313.736 308.018C312.756 310.911 311.706 313.368 310.586 315.388C309.986 315.014 309.086 314.508 307.886 313.868C306.686 313.234 305.636 312.731 304.736 312.358C305.93 310.258 306.903 307.968 307.656 305.488C308.403 303.014 309.003 300.504 309.456 297.958ZM232.956 269.038L239.146 262.068C241.02 263.041 242.986 264.221 245.046 265.608C247.113 266.994 249.046 268.381 250.846 269.768C252.646 271.161 254.11 272.494 255.236 273.768L248.816 281.638C247.77 280.364 246.363 278.978 244.596 277.478C242.836 275.978 240.943 274.498 238.916 273.038C236.896 271.571 234.91 270.238 232.956 269.038ZM230.596 299.078L236.446 291.768C238.393 292.668 240.436 293.774 242.576 295.088C244.716 296.401 246.703 297.711 248.536 299.018C250.376 300.331 251.896 301.588 253.096 302.788L246.906 310.888C245.78 309.688 244.3 308.378 242.466 306.958C240.626 305.531 238.656 304.124 236.556 302.738C234.456 301.351 232.47 300.131 230.596 299.078ZM242.406 363.658L232.846 358.258C234.273 355.258 235.79 351.768 237.396 347.788C239.01 343.814 240.66 339.614 242.346 335.188C244.04 330.768 245.596 326.418 247.016 322.138L255.456 327.538C254.256 331.518 252.906 335.608 251.406 339.808C249.906 344.008 248.406 348.131 246.906 352.178C245.406 356.231 243.906 360.058 242.406 363.658Z" fill="white"/>
<path d="M213.109 253.5H77.6088V394H213.109V253.5Z" stroke="white" stroke-width="2" stroke-dasharray="5 5"/>
<path d="M350.609 253.5H215.109V394H350.609V253.5Z" stroke="white" stroke-width="2" stroke-dasharray="5 5"/>
<path d="M653.897 217.5H710.147V255C711.257 290.083 687.887 321.243 653.897 330C619.907 321.243 596.537 290.083 597.647 255V217.5H653.897Z" fill="#E9B500"/>
<path d="M636.065 235.338L636.248 235.154H637.533H640.655H642.123H643.408H643.959H644.51H648.182H649.651H651.119H651.67H652.221H657.912H659.197H660.299H661.584H662.686H663.604H664.705H665.44H668.744H670.764H671.498H672.233H672.967H673.701H676.822H677.373H679.576V248.373H678.842H675.537H674.252H670.58H669.662H668.561H667.643H666.908H666.358H662.686H661.951H661.401H658.096H655.709H654.975H651.854H651.303H649.1L648.365 248.924L648.182 251.494L647.998 252.045L647.815 253.146L647.631 254.432L647.08 258.471C654.087 254.217 661.064 253.422 668.01 256.084C674.558 258.991 679.026 263.458 681.412 269.486C685.666 291.885 678.505 304.369 659.932 306.939C644.204 307.888 634.474 301.462 630.74 287.662L634.78 286.377H635.33C635.82 286.071 636.309 285.887 636.799 285.826L637.533 285.643L638.268 285.459L638.635 285.275L640.104 284.908L641.572 284.541C642.674 283.99 643.714 283.684 644.694 283.623C645.091 286.224 646.071 288.366 647.631 290.049C652.221 294.424 657.056 295.098 662.135 292.068C667.398 287.907 669.173 282.644 667.459 276.279C665.562 271.536 662.319 268.783 657.729 268.018C652.221 267.681 648.182 269.701 645.612 274.076L644.694 273.893H643.959C642.582 273.556 641.42 273.372 640.471 273.342L637.901 272.791H637.35C636.768 272.669 636.279 272.607 635.881 272.607L635.514 272.424H634.78L634.229 272.24H633.678L632.393 271.873L630.74 271.689V271.139L630.924 270.404V269.854L631.291 268.568L631.475 266.916L631.658 265.447L631.842 264.713L632.209 261.592C632.332 261.01 632.393 260.521 632.393 260.123L632.576 258.838L632.76 258.471C632.821 257.186 633.005 256.084 633.311 255.166V254.064C633.556 253.085 633.678 252.228 633.678 251.494L633.862 251.127L634.045 249.842V249.291C634.168 248.71 634.229 248.22 634.229 247.822L634.412 246.721L634.596 245.986V245.436C634.78 244.946 634.841 244.456 634.78 243.967L634.963 243.049L635.147 242.498V241.764L635.33 241.213L635.697 238.092C635.82 237.51 635.881 237.021 635.881 236.623L636.065 235.338Z" fill="black"/>
<path d="M78.1283 170.55V159.53H128.798V170.55H109.518V229.85H97.4083V170.55" fill="white"/>
<path d="M171.518 185.777L170.968 186.517L170.418 187.067L169.868 187.437L169.128 188.537L168.768 188.907L168.398 189.087C167.998 189.64 167.631 190.067 167.298 190.367L164.908 193.127C159.828 189.854 155.621 188.217 152.288 188.217C148.861 188.217 146.338 189.914 144.718 193.307C144.778 195.3 145.571 196.77 147.098 197.717C147.771 197.897 148.261 198.08 148.568 198.267C149.761 198.447 150.741 198.69 151.508 198.997C163.101 199.857 169.588 204.51 170.968 212.957C171.028 213.324 171.058 213.68 171.058 214.027C171.058 214.38 171.058 214.727 171.058 215.067C171.058 221.214 168.458 225.834 163.258 228.927C159.524 230.607 155.774 231.447 152.008 231.447C144.848 231.447 137.704 228.404 130.578 222.317L130.948 221.587L131.858 220.667C132.471 219.934 133.024 219.38 133.518 219.007C133.638 218.794 133.758 218.674 133.878 218.647L134.248 218.097C134.368 217.884 134.491 217.76 134.618 217.727L134.798 217.357L135.168 217.177L137.558 214.417C142.084 218.704 146.824 220.847 151.778 220.847C153.858 220.847 155.971 220.48 158.118 219.747C158.664 219.014 159.214 218.464 159.768 218.097C159.954 217.364 160.048 216.674 160.048 216.027C160.048 214.434 159.528 213.104 158.488 212.037L154.258 210.567C141.651 209.8 134.798 204.414 133.698 194.407C134.524 184.34 140.214 178.957 150.768 178.257H151.418C159.524 178.257 166.224 180.764 171.518 185.777Z" fill="white"/>
<path d="M183.896 215.526V179.726H194.916V211.486C195.036 211.639 195.096 211.822 195.096 212.036C195.223 212.129 195.286 212.219 195.286 212.306V212.406C195.499 213.779 195.803 215.002 196.196 216.076C198.309 219.009 201.019 220.476 204.326 220.476H204.466C208.566 219.376 211.439 217.112 213.086 213.686V213.136L213.826 210.936V179.726H225.026V229.846H213.826V225.806C209.419 229.412 205.029 231.216 200.656 231.216C197.256 231.216 193.813 230.146 190.326 228.006C187.479 225.832 185.519 223.262 184.446 220.296L184.266 219.006C183.993 218.119 183.856 217.249 183.856 216.396V215.986C183.856 215.832 183.869 215.679 183.896 215.526Z" fill="white"/>
<path d="M283.445 200.294L283.625 203.044C283.745 203.198 283.805 203.381 283.805 203.594V209.104H250.215C250.915 215.344 254.095 219.018 259.755 220.124C260.675 220.211 261.578 220.254 262.465 220.254C267.085 220.254 271.018 218.741 274.265 215.714C274.658 216.388 275.148 216.938 275.735 217.364L275.915 217.914L276.465 218.464C276.891 218.864 277.258 219.241 277.565 219.594C277.871 219.948 278.118 220.308 278.305 220.674C278.518 220.794 278.638 220.914 278.665 221.034L281.235 223.974C275.421 228.841 269.225 231.274 262.645 231.274C261.518 231.274 260.371 231.198 259.205 231.044C258.045 230.891 256.881 230.678 255.715 230.404C245.128 226.884 239.315 219.294 238.275 207.634C238.275 207.481 238.268 207.174 238.255 206.714C238.241 206.261 238.235 205.971 238.235 205.844C238.235 189.904 245.408 180.831 259.755 178.624C274.015 179.118 281.911 186.341 283.445 200.294ZM250.025 200.474H272.245V199.924C272.118 199.558 272.055 199.191 272.055 198.824V198.454C271.748 197.781 271.565 197.171 271.505 196.624C269.245 191.391 265.511 188.758 260.305 188.724C253.758 190.284 250.331 194.201 250.025 200.474Z" fill="white"/>
<path d="M336.659 188.537V189.087C337.059 189.82 337.306 190.554 337.399 191.287V229.657H326.199V197.167L326.009 196.067C324.482 191.44 321.912 189.127 318.299 189.127C317.199 189.127 315.976 189.357 314.629 189.817C311.569 191.137 309.366 193.22 308.019 196.067L307.289 199.187V229.657H296.269V179.537H307.289V183.757C310.716 180.697 314.449 178.864 318.489 178.257H319.309C327.509 178.257 333.292 181.684 336.659 188.537Z" fill="white"/>
<path d="M375.8 160.084V159.714H388.47L388.65 161.004L388.84 161.554L389.2 162.844L389.57 165.044L390.12 166.874L390.49 169.084L391.04 170.914L391.22 172.384C391.434 172.904 391.557 173.334 391.59 173.674L391.77 174.404L392.14 175.504V176.244C392.26 176.337 392.32 176.427 392.32 176.514V177.164C392.66 177.837 392.847 178.571 392.88 179.364L393.24 180.464L393.61 181.754L393.98 183.954L394.53 185.784L394.71 186.894L395.81 191.484C395.904 191.911 395.99 192.301 396.07 192.654C396.144 193.001 396.18 193.344 396.18 193.684L396.55 194.414V195.154L396.91 196.074V196.804L397.28 197.534V198.274C397.62 199.194 397.804 199.991 397.83 200.664L398.02 201.394C398.234 202.007 398.4 202.574 398.52 203.094C398.64 203.614 398.717 204.087 398.75 204.514L399.12 205.984L399.49 207.264L399.85 206.164L400.59 202.494L400.95 201.574L401.14 200.474L401.69 197.904L402.06 196.624V196.074L402.79 193.134L402.97 192.034L403.34 191.294L403.52 190.564L403.71 189.644V188.914L403.89 188.354L404.63 185.424L404.99 183.214L405.18 182.484L405.54 181.754C405.607 180.774 405.79 179.914 406.09 179.174L406.28 178.264V177.714L406.65 176.244L406.83 175.694L407.38 173.304L407.56 172.204L407.93 171.104L408.11 170.184L408.66 167.794L408.85 166.874L409.03 166.514C409.064 166.174 409.104 165.844 409.15 165.524C409.197 165.204 409.28 164.921 409.4 164.674L409.58 164.124V163.574L409.77 162.844L409.95 162.284L410.5 159.714H424.09V160.264C424.517 161.337 424.76 162.381 424.82 163.394L425.19 164.854L425.37 165.414L426.11 168.714L426.47 170.184C426.717 171.071 426.84 171.804 426.84 172.384C427.054 172.904 427.177 173.334 427.21 173.674L427.57 174.954L427.76 176.244L427.94 176.974L428.13 177.524C428.217 177.924 428.294 178.284 428.36 178.604C428.42 178.924 428.464 179.237 428.49 179.544C428.737 180.124 428.907 180.661 429 181.154C429.094 181.641 429.17 182.084 429.23 182.484L429.41 183.584L429.78 184.504L429.96 185.604V186.154C430.267 186.887 430.45 187.561 430.51 188.174L430.7 189.274C431 190.007 431.184 190.681 431.25 191.294L431.43 192.214L431.98 194.234V194.964C432.1 195.244 432.16 195.551 432.16 195.884C432.5 196.591 432.687 197.204 432.72 197.724L432.9 198.644L433.08 199.744L433.27 200.474C433.577 201.421 433.76 202.277 433.82 203.044C433.94 203.137 434 203.231 434 203.324V203.964C434.427 205.037 434.674 206.077 434.74 207.084C434.92 207.024 435.04 206.901 435.1 206.714C435.254 205.954 435.407 205.291 435.56 204.724C435.714 204.157 435.867 203.661 436.02 203.234V202.494C436.42 201.394 436.664 200.414 436.75 199.554L437.12 198.274L437.86 195.334L438.04 193.864L438.41 192.584L438.59 192.034V191.484C438.804 190.897 438.974 190.367 439.1 189.894C439.22 189.421 439.294 188.971 439.32 188.544L439.69 187.254L441.16 181.194L441.71 178.264L442.08 176.794C442.414 175.907 442.597 175.174 442.63 174.594L442.81 173.674L443.18 172.204C443.454 171.317 443.637 170.584 443.73 170.004L443.91 169.264L444.47 166.694L444.83 165.594V165.044L445.38 163.574V162.844L445.57 162.284L446.12 159.714H458.6L457.87 163.394L457.32 165.594L457.13 166.144L456.58 168.714L456.22 170.184L455.85 171.464L455.11 175.144L454.75 176.424L454.01 179.914L453.65 181.194L453.46 181.754L453.09 183.764L452.91 184.134L452.73 185.424C452.424 186.431 452.24 187.287 452.18 187.994L451.44 190.194L451.26 191.484L451.07 192.214L450.89 192.764L450.71 194.054L450.52 194.604L449.42 199.194L449.24 200.474L448.87 201.764L447.95 205.434L447.77 206.714L446.67 211.304L446.12 213.874C445.78 214.794 445.597 215.591 445.57 216.264L444.83 218.654V219.384C444.497 220.304 444.314 221.101 444.28 221.774C443.974 222.781 443.79 223.637 443.73 224.344L443.36 225.624L443.18 225.994L443 227.284C442.694 228.291 442.51 229.147 442.45 229.854H428.86L428.68 228.384C428.467 227.864 428.344 227.434 428.31 227.094L427.94 225.624L427.76 224.344L427.39 223.054C427.297 222.687 427.22 222.337 427.16 222.004C427.1 221.664 427.054 221.341 427.02 221.034L426.84 220.304L426.66 219.384C426.534 219.231 426.47 219.047 426.47 218.834L426.29 217.914L426.11 217.364C426.017 216.971 425.94 216.611 425.88 216.284C425.814 215.964 425.767 215.651 425.74 215.344C425.527 214.764 425.367 214.231 425.26 213.744C425.154 213.251 425.067 212.807 425 212.414L424.82 211.674L424.64 210.754C424.514 210.387 424.427 210.037 424.38 209.704C424.34 209.364 424.304 209.041 424.27 208.734C424.057 208.127 423.89 207.547 423.77 206.994C423.644 206.441 423.567 205.921 423.54 205.434C423.414 205.281 423.35 205.097 423.35 204.884L423.17 204.144L422.99 203.594C422.897 202.954 422.774 202.344 422.62 201.764L422.25 200.104L422.07 199.004L421.7 198.094L421.33 195.884L421.15 195.334V194.784C420.844 194.051 420.66 193.377 420.6 192.764L420.23 190.564L419.86 189.644L419.5 188.174V187.444C419.134 186.431 418.95 185.574 418.95 184.874C418.824 184.721 418.76 184.537 418.76 184.324L418.58 183.764V183.214C418.274 182.514 418.09 181.781 418.03 181.014C417.724 180.034 417.54 179.117 417.48 178.264L417.11 178.994L416.93 180.094L416.38 182.484L416.01 184.504L415.82 185.054L415.09 188.174L414.91 188.914L414.54 190.744L414.36 191.484L413.99 193.504L413.81 194.054L413.07 197.534L412.7 198.824L412.52 200.104C412.187 201.024 412.004 201.821 411.97 202.494L411.79 202.864L411.6 203.964L411.42 204.514L410.5 209.104L410.32 209.654L409.58 213.144L409.4 213.874L409.22 214.794L409.03 215.344L408.3 218.834L407.93 220.304L407.56 222.144L407.38 222.504L407.01 224.164L406.83 224.894L406.65 226.174C406.43 226.941 406.307 227.554 406.28 228.014C406.154 228.321 406.07 228.611 406.03 228.884C405.984 229.164 405.944 229.424 405.91 229.664C405.484 229.731 405.094 229.784 404.74 229.824C404.387 229.871 404.044 229.894 403.71 229.894H403.25C403.097 229.894 402.944 229.881 402.79 229.854H392.14V229.114C391.714 228.014 391.47 226.974 391.41 225.994C391.284 225.841 391.22 225.657 391.22 225.444L391.04 224.524C390.367 222.351 389.937 220.514 389.75 219.014L389.57 218.464L388.65 214.984L388.47 213.514L387 207.824V207.084C386.694 206.384 386.51 205.651 386.45 204.884L386.08 203.784L385.72 202.494V201.944L384.8 198.274V197.724L384.61 196.984L384.25 196.254L384.06 194.784C383.82 194.051 383.624 193.377 383.47 192.764C383.317 192.151 383.21 191.601 383.15 191.114L382.96 190.564V190.014C382.84 189.861 382.78 189.677 382.78 189.464L382.41 187.994L382.23 187.444C382.104 186.797 381.987 186.214 381.88 185.694C381.774 185.174 381.644 184.717 381.49 184.324L381.31 183.034C381.097 182.421 380.927 181.854 380.8 181.334C380.68 180.814 380.604 180.341 380.57 179.914L380.39 178.994C380.27 178.841 380.21 178.657 380.21 178.444L379.29 174.774L378.92 173.484L378.74 172.574L378.56 171.834L378.37 170.554C378.124 169.907 378 169.354 378 168.894V168.714L377.64 167.794L377.45 167.064C377.33 166.177 377.147 165.441 376.9 164.854V164.124C376.78 163.971 376.72 163.787 376.72 163.574" fill="white"/>
<path d="M502.174 184.135L502.734 185.235C504.168 187.015 505.084 188.851 505.484 190.745C505.604 191.538 505.694 192.281 505.754 192.975C505.821 193.661 505.854 194.265 505.854 194.785V219.015C506.981 221.255 508.631 222.601 510.804 223.055L510.444 223.605C510.318 223.825 510.194 223.948 510.074 223.975L509.894 224.525L509.524 224.895C509.218 225.568 508.851 226.118 508.424 226.545C507.991 227.678 507.438 228.535 506.764 229.115C506.491 229.728 506.231 230.258 505.984 230.705C505.744 231.145 505.518 231.535 505.304 231.875C501.724 230.955 498.908 229.301 496.854 226.915H496.304C492.358 229.761 488.288 231.185 484.094 231.185C481.828 231.185 479.594 230.801 477.394 230.035C470.814 227.681 466.838 223.398 465.464 217.185V216.955C465.464 205.115 472.394 199.195 486.254 199.195H486.394C486.668 199.068 486.971 199.005 487.304 199.005L487.854 198.825H489.144L489.694 198.645H490.244L494.834 198.095C494.894 197.755 494.924 197.448 494.924 197.175V196.255C494.924 191.141 492.218 188.585 486.804 188.585C483.038 188.585 477.881 189.855 471.334 192.395L470.604 190.745L470.234 189.645L469.864 189.275L469.684 188.915L469.314 187.805C468.981 187.258 468.738 186.708 468.584 186.155C467.938 185.301 467.508 184.445 467.294 183.585L467.844 183.405L468.214 183.215L468.764 183.035L469.134 182.665H469.684C469.804 182.545 469.911 182.485 470.004 182.485H470.054C471.154 181.905 472.131 181.475 472.984 181.195L473.904 181.015C474.578 180.708 475.191 180.525 475.744 180.465L477.214 180.095C478.281 179.668 479.321 179.425 480.334 179.365L484.374 178.625C484.981 178.565 485.568 178.511 486.134 178.465C486.701 178.418 487.261 178.395 487.814 178.395C493.654 178.395 498.441 180.308 502.174 184.135ZM490.424 207.455H489.324C489.051 207.515 488.784 207.561 488.524 207.595C488.264 207.621 488.011 207.635 487.764 207.635H487.494L486.754 207.825H486.204C486.051 207.945 485.868 208.005 485.654 208.005H485.104L482.164 208.735H481.614C480.761 209.228 480.028 209.535 479.414 209.655C477.428 211.555 476.434 213.391 476.434 215.165C476.434 216.785 477.244 218.375 478.864 219.935C481.218 221.375 483.511 222.095 485.744 222.095C488.591 222.095 491.314 220.948 493.914 218.655C494.161 217.948 494.408 217.458 494.654 217.185L494.834 216.635L494.654 215.895V207.265H490.984C490.831 207.391 490.644 207.455 490.424 207.455Z" fill="white"/>
<path d="M564.659 188.537V189.087C565.059 189.82 565.306 190.554 565.399 191.287V229.657H554.199V197.167L554.009 196.067C552.482 191.44 549.912 189.127 546.299 189.127C545.199 189.127 543.976 189.357 542.629 189.817C539.569 191.137 537.366 193.22 536.019 196.067L535.289 199.187V229.657H524.269V179.537H535.289V183.757C538.716 180.697 542.449 178.864 546.489 178.257H547.309C555.509 178.257 561.292 181.684 564.659 188.537Z" fill="white"/>
<path d="M128.109 153.5H77.6088V251.5H128.109V153.5Z" stroke="white" stroke-width="2" stroke-dasharray="5 5"/>
<path d="M175.609 153.5H130.109V251.5H175.609V153.5Z" stroke="white" stroke-width="2" stroke-dasharray="5 5"/>
<path d="M233.109 153.5H177.609V251.5H233.109V153.5Z" stroke="white" stroke-width="2" stroke-dasharray="5 5"/>
<path d="M287.609 153.5H235.109V251.5H287.609V153.5Z" stroke="white" stroke-width="2" stroke-dasharray="5 5"/>
<path d="M343.609 153.5H289.609V251.5H343.609V153.5Z" stroke="white" stroke-width="2" stroke-dasharray="5 5"/>
<path d="M368.609 153.5H345.609V251.5H368.609V153.5Z" stroke="white" stroke-width="2" stroke-dasharray="5 5"/>
<path d="M460.109 153.5H370.609V251.5H460.109V153.5Z" stroke="white" stroke-width="2" stroke-dasharray="5 5"/>
<path d="M515.609 153.5H462.109V251.5H515.609V153.5Z" stroke="white" stroke-width="2" stroke-dasharray="5 5"/>
<path d="M571.609 153.5H517.609V251.5H571.609V153.5Z" stroke="white" stroke-width="2" stroke-dasharray="5 5"/>
<path d="M572.61 152.697V37.4847" stroke="#46C147" stroke-width="3.03189"/>
<path d="M597.61 217.697V37.4847" stroke="#46C147" stroke-width="3.03189"/>
<path d="M597.609 61.7399H572.609" stroke="#46C147" stroke-width="3.03189"/>
<path d="M597.609 61.7399L633.992 70.8356V52.6442L597.609 61.7399Z" fill="#46C147"/>
<path d="M572.609 61.7399L536.226 70.8356V52.6442L572.609 61.7399Z" fill="#46C147"/>
<path d="M547.739 27V24.6744L556.473 15.1136C557.498 13.9939 558.342 13.0206 559.005 12.1937C559.669 11.3582 560.159 10.5744 560.478 9.84223C560.805 9.10148 560.969 8.32628 560.969 7.51663C560.969 6.58639 560.745 5.78104 560.297 5.10059C559.858 4.42014 559.255 3.89472 558.488 3.52435C557.722 3.15398 556.861 2.96879 555.904 2.96879C554.888 2.96879 554.001 3.17982 553.243 3.60187C552.494 4.01531 551.912 4.59671 551.499 5.34607C551.094 6.09543 550.892 6.97399 550.892 7.98175H547.842C547.842 6.43135 548.2 5.07044 548.915 3.89903C549.63 2.72761 550.603 1.8146 551.835 1.15999C553.075 0.505374 554.466 0.178067 556.008 0.178067C557.558 0.178067 558.932 0.505374 560.129 1.15999C561.327 1.8146 562.265 2.69747 562.946 3.80859C563.626 4.91971 563.967 6.15572 563.967 7.51663C563.967 8.48994 563.79 9.44171 563.437 10.372C563.092 11.2936 562.489 12.3229 561.628 13.4598C560.775 14.5882 559.591 15.9663 558.075 17.5942L552.132 23.9509V24.1576H564.432V27H547.739ZM583.876 11.5994L581.137 12.3746C580.965 11.918 580.711 11.4745 580.375 11.0438C580.048 10.6045 579.6 10.2428 579.031 9.95851C578.463 9.67427 577.735 9.53215 576.848 9.53215C575.633 9.53215 574.621 9.81209 573.812 10.372C573.011 10.9232 572.61 11.6252 572.61 12.4779C572.61 13.2359 572.886 13.8345 573.437 14.2738C573.988 14.7131 574.85 15.0791 576.021 15.372L578.967 16.0955C580.741 16.5262 582.063 17.1851 582.933 18.0723C583.803 18.9508 584.238 20.0835 584.238 21.4702C584.238 22.6072 583.911 23.6236 583.256 24.5194C582.61 25.4151 581.706 26.1214 580.543 26.6382C579.38 27.155 578.028 27.4134 576.486 27.4134C574.462 27.4134 572.787 26.9742 571.46 26.0956C570.134 25.217 569.294 23.9337 568.941 22.2454L571.835 21.5219C572.11 22.59 572.632 23.391 573.398 23.925C574.173 24.4591 575.185 24.7261 576.434 24.7261C577.856 24.7261 578.984 24.4246 579.819 23.8217C580.664 23.2101 581.086 22.478 581.086 21.6253C581.086 20.9362 580.844 20.3591 580.362 19.894C579.88 19.4203 579.139 19.0671 578.14 18.8346L574.832 18.0594C573.015 17.6287 571.68 16.9612 570.827 16.0568C569.983 15.1437 569.561 14.0025 569.561 12.633C569.561 11.5132 569.875 10.5227 570.504 9.66135C571.141 8.80002 572.007 8.12387 573.101 7.63291C574.204 7.14195 575.452 6.89647 576.848 6.89647C578.812 6.89647 580.353 7.32714 581.473 8.18847C582.602 9.0498 583.403 10.1868 583.876 11.5994ZM593.324 27L587.277 7.15487H590.482L594.771 22.3488H594.978L599.216 7.15487H602.471L606.657 22.2971H606.864L611.154 7.15487H614.358L608.311 27H605.314L600.973 11.7544H600.663L596.321 27H593.324Z" fill="#46C147"/>
<path d="M735.382 326V441.212" stroke="#46C147" stroke-width="3.03189"/>
<path d="M710.382 261V441.212" stroke="#46C147" stroke-width="3.03189"/>
<path d="M710.383 416.957H735.383" stroke="#46C147" stroke-width="3.03189"/>
<path d="M710.383 416.957L674 407.861V426.052L710.383 416.957Z" fill="#46C147"/>
<path d="M735.383 416.957L771.766 407.861V426.052L735.383 416.957Z" fill="#46C147"/>
<path d="M694.731 477.697V475.371L703.465 465.81C704.49 464.691 705.334 463.717 705.997 462.89C706.66 462.055 707.151 461.271 707.47 460.539C707.797 459.798 707.961 459.023 707.961 458.213C707.961 457.283 707.737 456.478 707.289 455.797C706.85 455.117 706.247 454.591 705.48 454.221C704.714 453.851 703.852 453.665 702.896 453.665C701.88 453.665 700.993 453.877 700.235 454.299C699.485 454.712 698.904 455.293 698.49 456.043C698.086 456.792 697.883 457.671 697.883 458.678H694.834C694.834 457.128 695.191 455.767 695.906 454.596C696.621 453.424 697.595 452.511 698.826 451.857C700.067 451.202 701.458 450.875 702.999 450.875C704.55 450.875 705.924 451.202 707.121 451.857C708.318 452.511 709.257 453.394 709.938 454.505C710.618 455.616 710.958 456.852 710.958 458.213C710.958 459.187 710.782 460.138 710.428 461.069C710.084 461.99 709.481 463.02 708.62 464.157C707.767 465.285 706.583 466.663 705.067 468.291L699.123 474.648V474.854H711.423V477.697H694.731ZM730.868 462.296L728.129 463.071C727.957 462.615 727.703 462.171 727.367 461.74C727.039 461.301 726.591 460.939 726.023 460.655C725.454 460.371 724.727 460.229 723.839 460.229C722.625 460.229 721.613 460.509 720.803 461.069C720.002 461.62 719.602 462.322 719.602 463.175C719.602 463.933 719.877 464.531 720.429 464.97C720.98 465.41 721.841 465.776 723.013 466.069L725.958 466.792C727.733 467.223 729.055 467.882 729.925 468.769C730.795 469.648 731.23 470.78 731.23 472.167C731.23 473.304 730.902 474.32 730.248 475.216C729.602 476.112 728.697 476.818 727.535 477.335C726.372 477.852 725.019 478.11 723.478 478.11C721.454 478.11 719.778 477.671 718.452 476.792C717.125 475.914 716.286 474.63 715.932 472.942L718.826 472.219C719.102 473.287 719.623 474.088 720.39 474.622C721.165 475.156 722.177 475.423 723.426 475.423C724.847 475.423 725.976 475.121 726.811 474.518C727.655 473.907 728.077 473.175 728.077 472.322C728.077 471.633 727.836 471.056 727.354 470.591C726.871 470.117 726.131 469.764 725.131 469.531L721.824 468.756C720.007 468.325 718.671 467.658 717.819 466.753C716.975 465.84 716.553 464.699 716.553 463.33C716.553 462.21 716.867 461.219 717.496 460.358C718.133 459.497 718.999 458.821 720.093 458.33C721.195 457.839 722.444 457.593 723.839 457.593C725.803 457.593 727.345 458.024 728.465 458.885C729.593 459.746 730.394 460.883 730.868 462.296ZM740.316 477.697L734.269 457.852H737.473L741.763 473.045H741.969L746.207 457.852H749.463L753.649 472.994H753.856L758.145 457.852H761.349L755.303 477.697H752.305L747.964 462.451H747.654L743.313 477.697H740.316Z" fill="#46C147"/>
<path d="M597.609 217.5H712.821" stroke="#FF0000" stroke-width="3.03189"/>
<path d="M572.609 152.5H712.821" stroke="#FF0000" stroke-width="3.03189"/>
<path d="M680 217.5V152.5" stroke="#FF0000" stroke-width="3.03189"/>
<path d="M679.096 217.5L670 253.883H688.191L679.096 217.5Z" fill="#FF0000"/>
<path d="M679.096 152.5L670 116.117H688.191L679.096 152.5Z" fill="#FF0000"/>
<path d="M712.008 189.362C710.492 189.362 709.127 189.06 707.912 188.457C706.698 187.854 705.724 187.028 704.992 185.977C704.26 184.926 703.86 183.729 703.791 182.385H706.892C707.012 183.582 707.555 184.573 708.519 185.357C709.493 186.132 710.656 186.519 712.008 186.519C713.093 186.519 714.058 186.265 714.902 185.757C715.755 185.249 716.422 184.551 716.905 183.664C717.395 182.768 717.641 181.756 717.641 180.628C717.641 179.474 717.387 178.444 716.879 177.54C716.379 176.627 715.69 175.908 714.811 175.382C713.933 174.857 712.929 174.59 711.801 174.581C710.991 174.573 710.16 174.698 709.308 174.956C708.455 175.206 707.753 175.529 707.202 175.925L704.204 175.563L705.806 162.54H719.553V165.382H708.494L707.563 173.186H707.718C708.261 172.755 708.941 172.398 709.76 172.114C710.578 171.829 711.431 171.687 712.318 171.687C713.937 171.687 715.38 172.075 716.646 172.85C717.921 173.617 718.92 174.667 719.644 176.002C720.376 177.338 720.742 178.862 720.742 180.576C720.742 182.264 720.363 183.772 719.605 185.098C718.855 186.416 717.822 187.458 716.504 188.225C715.186 188.983 713.687 189.362 712.008 189.362ZM727.153 189.207C726.516 189.207 725.969 188.978 725.512 188.522C725.056 188.065 724.828 187.519 724.828 186.881C724.828 186.244 725.056 185.697 725.512 185.24C725.969 184.784 726.516 184.556 727.153 184.556C727.791 184.556 728.338 184.784 728.794 185.24C729.251 185.697 729.479 186.244 729.479 186.881C729.479 187.303 729.371 187.691 729.156 188.044C728.949 188.397 728.669 188.681 728.316 188.897C727.972 189.103 727.584 189.207 727.153 189.207ZM734.899 189V186.674L743.633 177.114C744.658 175.994 745.502 175.021 746.165 174.194C746.828 173.358 747.319 172.574 747.638 171.842C747.965 171.101 748.129 170.326 748.129 169.517C748.129 168.586 747.905 167.781 747.457 167.101C747.018 166.42 746.415 165.895 745.648 165.524C744.882 165.154 744.02 164.969 743.064 164.969C742.048 164.969 741.161 165.18 740.403 165.602C739.653 166.015 739.072 166.597 738.659 167.346C738.254 168.095 738.051 168.974 738.051 169.982H735.002C735.002 168.431 735.36 167.07 736.075 165.899C736.789 164.728 737.763 163.815 738.994 163.16C740.235 162.505 741.626 162.178 743.168 162.178C744.718 162.178 746.092 162.505 747.289 163.16C748.486 163.815 749.425 164.697 750.106 165.809C750.786 166.92 751.126 168.156 751.126 169.517C751.126 170.49 750.95 171.442 750.597 172.372C750.252 173.294 749.649 174.323 748.788 175.46C747.935 176.588 746.751 177.966 745.235 179.594L739.292 185.951V186.158H751.591V189H734.899ZM771.036 173.599L768.297 174.375C768.125 173.918 767.871 173.474 767.535 173.044C767.207 172.605 766.76 172.243 766.191 171.959C765.623 171.674 764.895 171.532 764.008 171.532C762.793 171.532 761.781 171.812 760.971 172.372C760.17 172.923 759.77 173.625 759.77 174.478C759.77 175.236 760.045 175.835 760.597 176.274C761.148 176.713 762.009 177.079 763.181 177.372L766.127 178.096C767.901 178.526 769.223 179.185 770.093 180.072C770.963 180.951 771.398 182.083 771.398 183.47C771.398 184.607 771.071 185.624 770.416 186.519C769.77 187.415 768.866 188.121 767.703 188.638C766.54 189.155 765.188 189.413 763.646 189.413C761.622 189.413 759.946 188.974 758.62 188.096C757.294 187.217 756.454 185.934 756.101 184.245L758.995 183.522C759.27 184.59 759.791 185.391 760.558 185.925C761.333 186.459 762.345 186.726 763.594 186.726C765.015 186.726 766.144 186.425 766.979 185.822C767.823 185.21 768.245 184.478 768.245 183.625C768.245 182.936 768.004 182.359 767.522 181.894C767.04 181.42 766.299 181.067 765.3 180.835L761.992 180.059C760.175 179.629 758.84 178.961 757.987 178.057C757.143 177.144 756.721 176.002 756.721 174.633C756.721 173.513 757.035 172.523 757.664 171.661C758.301 170.8 759.167 170.124 760.261 169.633C761.363 169.142 762.612 168.896 764.008 168.896C765.971 168.896 767.513 169.327 768.633 170.188C769.761 171.05 770.562 172.187 771.036 173.599ZM780.484 189L774.437 169.155H777.641L781.931 184.349H782.138L786.375 169.155H789.631L793.817 184.297H794.024L798.313 169.155H801.518L795.471 189H792.474L788.133 173.754H787.822L783.481 189H780.484Z" fill="#FF0000"/>
<path d="M885 261H961" stroke="#FF0000" stroke-width="3.03189"/>
<path d="M932.487 257.883L923.391 294.266H941.583L932.487 257.883Z" fill="#FF0000"/>
<path d="M932.487 261.383L923.391 225H941.583L932.487 261.383Z" fill="#FF0000"/>
<path d="M982.37 276.362C980.423 276.362 978.765 275.832 977.395 274.773C976.026 273.705 974.979 272.158 974.256 270.134C973.532 268.102 973.171 265.647 973.171 262.77C973.171 259.91 973.532 257.468 974.256 255.444C974.988 253.412 976.039 251.861 977.408 250.793C978.786 249.716 980.44 249.178 982.37 249.178C984.299 249.178 985.948 249.716 987.318 250.793C988.696 251.861 989.747 253.412 990.47 255.444C991.203 257.468 991.569 259.91 991.569 262.77C991.569 265.647 991.207 268.102 990.483 270.134C989.76 272.158 988.713 273.705 987.344 274.773C985.974 275.832 984.316 276.362 982.37 276.362ZM982.37 273.519C984.299 273.519 985.798 272.589 986.866 270.729C987.934 268.868 988.468 266.215 988.468 262.77C988.468 260.479 988.222 258.528 987.731 256.917C987.249 255.306 986.551 254.079 985.638 253.235C984.734 252.391 983.644 251.969 982.37 251.969C980.457 251.969 978.963 252.912 977.886 254.798C976.81 256.676 976.271 259.333 976.271 262.77C976.271 265.061 976.513 267.008 976.995 268.61C977.477 270.212 978.171 271.431 979.075 272.266C979.988 273.102 981.086 273.519 982.37 273.519ZM1010.59 260.599L1007.85 261.375C1007.68 260.918 1007.42 260.474 1007.09 260.044C1006.76 259.605 1006.31 259.243 1005.74 258.959C1005.17 258.674 1004.45 258.532 1003.56 258.532C1002.34 258.532 1001.33 258.812 1000.52 259.372C999.721 259.923 999.321 260.625 999.321 261.478C999.321 262.236 999.596 262.835 1000.15 263.274C1000.7 263.713 1001.56 264.079 1002.73 264.372L1005.68 265.096C1007.45 265.526 1008.77 266.185 1009.64 267.072C1010.51 267.951 1010.95 269.083 1010.95 270.47C1010.95 271.607 1010.62 272.624 1009.97 273.519C1009.32 274.415 1008.42 275.121 1007.25 275.638C1006.09 276.155 1004.74 276.413 1003.2 276.413C1001.17 276.413 999.497 275.974 998.171 275.096C996.844 274.217 996.005 272.934 995.651 271.245L998.545 270.522C998.821 271.59 999.342 272.391 1000.11 272.925C1000.88 273.459 1001.9 273.726 1003.14 273.726C1004.57 273.726 1005.69 273.425 1006.53 272.822C1007.37 272.21 1007.8 271.478 1007.8 270.625C1007.8 269.936 1007.56 269.359 1007.07 268.894C1006.59 268.42 1005.85 268.067 1004.85 267.835L1001.54 267.059C999.725 266.629 998.39 265.961 997.538 265.057C996.694 264.144 996.272 263.002 996.272 261.633C996.272 260.513 996.586 259.523 997.215 258.661C997.852 257.8 998.718 257.124 999.812 256.633C1000.91 256.142 1002.16 255.896 1003.56 255.896C1005.52 255.896 1007.06 256.327 1008.18 257.188C1009.31 258.05 1010.11 259.187 1010.59 260.599ZM1020.03 276L1013.99 256.155H1017.19L1021.48 271.349H1021.69L1025.93 256.155H1029.18L1033.37 271.297H1033.57L1037.86 256.155H1041.07L1035.02 276H1032.02L1027.68 260.754H1027.37L1023.03 276H1020.03Z" fill="#FF0000"/>
<rect x="736.18" y="191.9" width="151.21" height="151.21" stroke="white" stroke-width="2" stroke-dasharray="10 10"/>
</svg>
