<svg width="675" height="700" viewBox="0 0 675 700" fill="none" xmlns="http://www.w3.org/2000/svg">
<g clip-path="url(#clip0_0_1)">
<path d="M9.89008 59.3751C9.89008 38.6644 26.6794 21.875 47.3901 21.875H1297.39C1318.1 21.875 1334.89 38.6644 1334.89 59.3751V584.377C1334.89 605.088 1318.1 621.877 1297.39 621.877H47.3901C26.6794 621.877 9.89008 605.088 9.89008 584.377V59.3751Z" fill="black"/>
<path d="M28.6401 59.3751C28.6401 49.0197 37.0348 40.6251 47.3901 40.6251H1297.39C1307.75 40.6251 1316.14 49.0197 1316.14 59.3751V584.377C1316.14 594.732 1307.75 603.127 1297.39 603.127H47.3901C37.0348 603.127 28.6401 594.732 28.6401 584.377V59.3751Z" fill="white"/>
<path d="M319.39 380.376L369.39 430.376V480.376L336.057 447.043V580.377H302.723V447.043L269.39 480.376V430.376L319.39 380.376Z" fill="black"/>
<path d="M106.803 247.541V238.431H159.793V247.541H106.803ZM99.9426 265.651V256.761H167.213V265.651H99.9426ZM84.5226 284.551V275.331H182.403V284.551H84.5226ZM98.3626 222.451V213.901H137.513V222.451H98.3626ZM128.403 219.641V213.901H139.993C142.393 216.974 145.299 219.954 148.713 222.841C152.126 225.734 155.893 228.417 160.013 230.891C164.139 233.364 168.453 235.578 172.953 237.531C177.453 239.478 181.989 241.128 186.563 242.481C185.743 243.081 184.806 243.868 183.753 244.841C182.706 245.814 181.693 246.828 180.713 247.881C179.739 248.928 178.953 249.901 178.353 250.801C172.353 248.628 166.429 245.928 160.583 242.701C154.729 239.474 149.309 235.894 144.323 231.961C139.336 228.021 135.043 223.914 131.443 219.641H128.403ZM125.933 215.031L135.603 218.741C131.929 223.687 127.466 228.261 122.213 232.461C116.966 236.661 111.359 240.374 105.393 243.601C99.4326 246.828 93.4159 249.641 87.3426 252.041C86.8159 251.288 86.1026 250.388 85.2026 249.341C84.3026 248.288 83.3659 247.254 82.3926 246.241C81.4192 245.234 80.5559 244.431 79.8026 243.831C85.9559 241.951 91.9559 239.588 97.8026 236.741C103.656 233.888 108.999 230.624 113.833 226.951C118.673 223.277 122.706 219.304 125.933 215.031ZM127.733 281.741V242.591H138.643V281.741H127.733ZM83.7426 202.311V192.531H183.193V202.311H83.7426ZM107.703 211.651V183.981H118.283V211.651H107.703ZM147.983 212.211V183.981H158.553V212.211" fill="black"/>
<path d="M270.068 191.743V186.233H289.748V191.743H270.068ZM269.388 210.083V204.683H290.538V210.083H269.388ZM269.388 218.513V213.233H290.538V218.513H269.388ZM252.968 271.844V264.984H309.998V271.844H252.968ZM266.128 201.193V195.233H293.128V201.193H266.128ZM283.788 227.403H275.798V233.813H283.788V227.403ZM269.158 238.994V222.233H290.648V238.994H269.158ZM254.878 260.254V253.844H301.558V249.004H247.898V242.594H311.468V260.254H254.878ZM251.048 240.564V215.033H258.138V240.564H251.048ZM240.818 218.963L240.028 212.103C243.328 211.957 247.021 211.807 251.108 211.653C255.194 211.507 259.524 211.32 264.098 211.093V217.283C259.898 217.657 255.831 217.957 251.898 218.183C247.958 218.403 244.264 218.663 240.818 218.963ZM251.838 253.844H261.738C260.838 257.444 259.864 261.194 258.818 265.094C257.764 268.994 256.788 272.367 255.888 275.214L246.328 273.864C247.374 271.09 248.388 267.884 249.368 264.244C250.341 260.61 251.164 257.144 251.838 253.844ZM306.628 266.104V264.984H316.638C316.638 264.984 316.601 265.487 316.528 266.494C316.454 267.507 316.304 268.354 316.078 269.034C315.024 273.68 313.934 277.334 312.808 279.994C311.688 282.66 310.378 284.594 308.878 285.794C307.604 286.694 306.234 287.31 304.768 287.644C303.308 287.984 301.564 288.19 299.538 288.264C297.811 288.344 295.354 288.364 292.168 288.324C288.981 288.284 285.588 288.19 281.988 288.044C281.914 286.844 281.614 285.494 281.088 283.994C280.561 282.494 279.924 281.144 279.178 279.944C282.704 280.317 286.118 280.54 289.418 280.614C292.718 280.694 295.041 280.734 296.388 280.734C297.588 280.734 298.561 280.694 299.308 280.614C300.061 280.54 300.701 280.317 301.228 279.944C302.274 279.117 303.231 277.634 304.098 275.494C304.958 273.36 305.801 270.23 306.628 266.104ZM259.488 223.013L264.888 221.783C265.488 223.657 266.068 225.717 266.628 227.963C267.194 230.217 267.628 232.167 267.928 233.813L262.078 235.393C261.924 233.667 261.604 231.66 261.118 229.373C260.631 227.087 260.088 224.967 259.488 223.013ZM259.148 207.713L263.988 205.913C264.961 207.793 265.861 209.893 266.688 212.213C267.514 214.54 268.078 216.567 268.378 218.293L263.088 220.313C262.861 218.593 262.374 216.57 261.628 214.243C260.874 211.917 260.048 209.74 259.148 207.713ZM241.148 198.833L244.748 193.433C246.928 194.853 249.064 196.483 251.158 198.323C253.264 200.163 254.841 201.757 255.888 203.103L251.838 209.293C250.711 207.72 249.138 205.957 247.118 204.003C245.091 202.057 243.101 200.333 241.148 198.833ZM251.838 183.643L258.248 186.793C256.748 189.267 255.248 191.78 253.748 194.333C252.248 196.88 250.824 199.017 249.478 200.743L244.528 198.153C245.728 196.207 247.041 193.827 248.468 191.013C249.888 188.2 251.011 185.743 251.838 183.643ZM259.038 192.983L265.338 196.583C262.864 199.957 260.221 203.517 257.408 207.263C254.594 211.017 251.951 214.167 249.478 216.713L244.748 213.793C246.328 211.92 248.018 209.783 249.818 207.383C251.618 204.983 253.321 202.507 254.928 199.953C256.541 197.407 257.911 195.083 259.038 192.983ZM243.628 221.333L250.268 222.793C249.588 225.72 248.761 228.643 247.788 231.563C246.814 234.49 245.764 237.004 244.638 239.104C243.964 238.657 242.988 238.15 241.708 237.584C240.434 237.024 239.388 236.557 238.568 236.184C239.841 234.083 240.888 231.737 241.708 229.143C242.534 226.557 243.174 223.953 243.628 221.333ZM303.028 240.564V215.033H310.228V240.564H303.028ZM292.678 218.963L291.998 212.103C295.451 211.957 299.334 211.807 303.648 211.653C307.961 211.507 312.554 211.357 317.428 211.203L317.308 217.393C312.888 217.693 308.594 217.973 304.428 218.233C300.268 218.5 296.351 218.743 292.678 218.963ZM311.798 223.013L317.538 221.333C318.511 223.58 319.468 226.053 320.408 228.753C321.341 231.453 321.998 233.78 322.378 235.734L316.418 237.644C316.118 235.69 315.518 233.327 314.618 230.553C313.718 227.78 312.778 225.267 311.798 223.013ZM310.898 207.493L316.188 205.133C317.461 207.08 318.641 209.233 319.728 211.593C320.821 213.96 321.591 216.043 322.038 217.843L316.298 220.433C315.924 218.633 315.231 216.513 314.218 214.073C313.204 211.633 312.098 209.44 310.898 207.493ZM292.228 198.603L296.048 193.543C298.001 194.89 299.951 196.447 301.898 198.213C303.851 199.973 305.351 201.567 306.398 202.993L302.018 208.843C301.038 207.343 299.631 205.617 297.798 203.663C295.958 201.717 294.101 200.03 292.228 198.603ZM303.248 183.753L309.668 187.013C308.088 189.493 306.511 191.987 304.938 194.493C303.364 197.007 301.864 199.163 300.438 200.963L295.488 198.383C296.761 196.43 298.148 194.047 299.648 191.233C301.148 188.42 302.348 185.927 303.248 183.753ZM311.238 192.533L317.538 196.133C314.991 199.507 312.218 203.067 309.218 206.813C306.218 210.567 303.368 213.717 300.668 216.263L296.048 213.343C297.774 211.47 299.574 209.333 301.448 206.933C303.328 204.533 305.128 202.057 306.848 199.503C308.574 196.957 310.038 194.633 311.238 192.533ZM295.488 221.333L302.018 222.903C301.491 225.677 300.741 228.507 299.768 231.393C298.788 234.287 297.738 236.744 296.618 238.764C296.018 238.39 295.118 237.884 293.918 237.244C292.718 236.61 291.668 236.107 290.768 235.734C291.961 233.633 292.934 231.343 293.688 228.863C294.434 226.39 295.034 223.88 295.488 221.333ZM218.988 192.413L225.178 185.443C227.051 186.417 229.018 187.597 231.078 188.983C233.144 190.37 235.078 191.757 236.878 193.143C238.678 194.537 240.141 195.87 241.268 197.143L234.848 205.013C233.801 203.74 232.394 202.353 230.628 200.853C228.868 199.353 226.974 197.873 224.948 196.413C222.928 194.947 220.941 193.613 218.988 192.413ZM216.628 222.453L222.478 215.143C224.424 216.043 226.468 217.15 228.608 218.463C230.748 219.777 232.734 221.087 234.568 222.393C236.408 223.707 237.928 224.963 239.128 226.163L232.938 234.263C231.811 233.063 230.331 231.753 228.498 230.333C226.658 228.907 224.688 227.5 222.588 226.113C220.488 224.727 218.501 223.507 216.628 222.453ZM228.438 287.034L218.878 281.634C220.304 278.634 221.821 275.144 223.428 271.164C225.041 267.19 226.691 262.99 228.378 258.564C230.071 254.144 231.628 249.794 233.048 245.514L241.488 250.914C240.288 254.894 238.938 258.984 237.438 263.184C235.938 267.384 234.438 271.507 232.938 275.554C231.438 279.607 229.938 283.434 228.438 287.034Z" fill="black"/>
<path d="M199.14 176.875H63.6401V317.376H199.14V176.875Z" stroke="black" stroke-width="2" stroke-dasharray="5 5"/>
<path d="M336.64 176.875H201.14V317.376H336.64V176.875Z" stroke="black" stroke-width="2" stroke-dasharray="5 5"/>
<path d="M64.0932 80.4985H64.8332H65.5632H66.1132H66.8532H70.1532H70.8932H74.1932H75.2932H76.5832H80.2532H81.7232H83.1932H84.6632H86.1232H89.8032H90.3532H90.9032H96.5932H97.8732H98.9832H100.263H101.363H102.283H103.383H104.123H107.423H109.443H110.183H110.913H111.643H112.383H115.503H116.053H118.253V94.4586H117.153H116.603H112.933H110.543H109.813H106.503H105.773H105.033H104.303H101.183H100.633H98.4332V150.819H96.0432H95.3032H92.0032H91.2732H90.5332H89.8032H86.6832H86.1232H83.9232V149.529V148.979V148.069V147.519V146.779V146.229V142.559V141.819V138.519V137.419V136.129V132.459V130.989V129.519V128.049V126.589V122.909V122.359V121.809V116.119V114.839V113.729V112.449V111.349V110.429V109.329V108.589V105.289V103.269V102.529V101.799V101.069V100.329V97.2086V96.6586V94.4586H82.8232H82.2732H78.6032H76.2132H75.4832H72.1732H71.4432H70.7032H69.9732H66.8532H66.3032H64.0932V90.7786V89.8686V89.3186V88.5786V87.8486V87.1086V86.3786V83.2585V82.7085" fill="black"/>
<path d="M141.542 99.5752C150.902 99.0218 158.672 101.532 164.852 107.105L164.302 107.655L163.752 108.205C163.358 108.752 162.992 109.179 162.652 109.485L161.922 110.225L161.372 110.775C160.818 111.509 160.265 112.059 159.712 112.425L159.532 112.795L159.162 113.345L158.802 113.525L156.412 116.285C148.425 109.645 142.245 108.972 137.872 114.265C137.838 115.672 138.142 116.895 138.782 117.935L139.522 118.115L140.072 118.485H140.622L141.172 118.665L142.642 118.855L145.582 119.585C152.282 119.645 157.728 121.725 161.922 125.825C165.442 131.059 166.175 136.322 164.122 141.615C162.102 146.209 158.982 149.269 154.762 150.795C141.022 154.682 129.515 152.235 120.242 143.455C120.822 142.689 121.372 142.075 121.892 141.615L122.632 141.255C123.398 140.215 124.255 139.419 125.202 138.865L125.752 138.125L126.122 137.765L126.482 137.395L126.852 137.025L127.222 136.845L127.592 136.665C128.478 135.532 129.335 134.675 130.162 134.095C136.282 140.122 142.462 142.202 148.702 140.335L148.882 139.965C149.742 139.412 150.415 138.739 150.902 137.945C151.028 136.079 150.418 134.672 149.072 133.725H148.522L148.152 133.355H147.602L147.052 133.175L146.682 132.805C144.815 132.499 143.285 132.132 142.092 131.705C131.292 131.212 125.232 126.439 123.912 117.385C124.065 106.492 129.942 100.555 141.542 99.5752Z" fill="black"/>
<path d="M174.699 100.694H175.429H176.349H177.089H177.999H178.739H179.659H182.039H182.779H185.899H187.369H188.649L188.839 133.554C192.045 139.734 196.695 141.081 202.789 137.594C204.622 136.127 205.905 134.414 206.639 132.454V131.904V128.234V126.944V125.664V124.924V124.014V121.624V120.884V117.764V117.214V115.014V114.274V113.544V112.994V109.684V107.304V106.564V103.444V102.894V100.694H210.319H211.229H211.779H212.519H213.249H213.989H214.719H217.839H218.389H220.599V150.814H216.929H216.009H215.459H214.719H213.989H213.249H212.519H209.399H208.849H206.639V147.514C199.359 152.774 192.079 153.384 184.799 149.344C181.492 147.231 179.042 144.721 177.449 141.814L177.089 141.634L176.899 141.084L176.719 140.534C176.445 139.921 176.262 139.431 176.169 139.064L175.979 138.514C175.399 136.614 175.032 135.084 174.879 133.924L174.699 129.884V128.594V127.494V124.374V123.824V121.624V119.234V118.504V115.384V114.834V112.624V110.604V109.684V107.304V106.564V103.444V102.894" fill="black"/>
<path d="M251.494 99.6573C266.454 99.4439 274.961 106.724 277.014 121.497L277.564 123.887V125.177C277.804 127.351 277.864 129.124 277.744 130.497L277.194 130.317H276.644H272.974H272.424H271.874H266.174H264.894H263.794H262.504H261.404H260.484H259.384H258.654H255.344H253.324H252.594H251.854H251.124H250.394H247.264H246.714H244.514C245.188 135.637 247.941 138.817 252.774 139.857C258.801 140.777 263.821 139.247 267.834 135.267L269.304 136.927C269.884 137.321 270.311 137.747 270.584 138.207L270.954 138.397L271.134 138.757C271.748 139.217 272.238 139.647 272.604 140.047L272.974 140.597C273.188 140.717 273.308 140.841 273.334 140.967L273.704 141.147L274.074 141.517L274.254 141.877L274.624 142.067L274.804 142.427C275.418 142.887 275.908 143.317 276.274 143.717C270.494 151.064 262.541 153.817 252.414 151.977C240.021 149.864 232.981 142.337 231.294 129.397C230.194 112.997 236.928 103.084 251.494 99.6573ZM254.614 111.037C248.981 111.924 245.674 114.924 244.694 120.037H245.804H247.084H249.474H255.164H257.734H258.284H259.204H259.754H260.484H261.034H264.714C263.334 114.524 259.968 111.524 254.614 111.037Z" fill="black"/>
<path d="M313.752 99.532C322.139 99.2586 328.686 102.685 333.392 109.812L333.582 110.372L333.762 110.922L333.942 111.472C334.249 111.992 334.436 112.482 334.502 112.942L335.232 115.142V115.692C335.659 117.892 335.842 119.665 335.782 121.012V150.942H332.112H331.192H330.642H329.912H329.172H328.442H327.702H324.582H324.032H321.832V150.392V149.472V148.922V148.192V147.642V143.962V141.392V139.372V138.462V137.902V137.172V136.622V132.952V132.212V130.192V128.362V125.052V124.502V123.952V123.222V119.912V119.182C321.526 118.415 321.342 117.742 321.282 117.162C319.809 114.589 317.849 112.935 315.402 112.202C310.322 112.082 306.589 114.042 304.202 118.082L303.842 119.362V150.942H300.162H299.252H298.692H297.962H297.232H296.492H295.762H292.642H292.092H289.882V150.392V149.472V148.922V148.192V147.642V143.962V142.682V141.942V141.032V140.292V139.372V136.992V136.252V133.132V132.582V130.382V129.092V127.812V126.712V125.422V124.322V123.032V121.932V118.812V117.712V116.792V115.692V114.962V111.652V109.632V108.902V108.162V107.432V106.692V103.572V103.022V100.822H293.552H294.472H295.022H295.762H296.492H297.232H297.962H301.082H301.632H303.842C303.776 102.075 303.836 103.115 304.022 103.942C307.082 101.522 310.326 100.052 313.752 99.532Z" fill="black"/>
<path d="M373.281 80.955H374.201H375.301H376.221H376.771H377.691H378.421H378.971H379.891H380.811H381.361H383.561H384.111C385.764 80.8616 387.174 80.9216 388.341 81.135V81.685L389.071 84.815L389.251 85.915C389.377 86.095 389.441 86.2783 389.441 86.465L389.621 87.015L389.801 87.385L389.991 88.295L390.541 91.235L390.721 91.605V92.155C391.181 93.255 391.427 94.295 391.461 95.275L391.821 96.375V96.925C392.281 98.0317 392.527 99.0717 392.561 100.045L392.931 100.965L393.111 101.885L393.291 102.985C393.844 104.638 394.151 106.045 394.211 107.205C394.611 108.158 394.854 109.015 394.941 109.775C395.127 110.542 395.251 111.215 395.311 111.795C395.771 112.928 396.017 113.972 396.051 114.925C396.324 115.625 396.507 116.235 396.601 116.755C396.781 117.522 396.901 118.195 396.961 118.775C397.361 119.935 397.607 120.915 397.701 121.715L397.881 122.635L398.431 124.465L398.621 125.755L399.351 128.325L399.531 127.405L399.721 126.855V126.305L399.901 125.755C400.114 124.435 400.361 123.332 400.641 122.445V121.715L400.821 121.165L401.371 118.775V118.225L401.551 117.495L401.741 116.935L401.921 116.385V115.835L402.291 114.555V114.005C402.471 113.298 402.594 112.685 402.661 112.165C402.874 111.552 402.994 111.002 403.021 110.515C403.421 109.075 403.667 107.852 403.761 106.845L403.941 105.925L404.121 105.375L405.231 100.045L405.411 99.135L405.591 98.585C405.744 97.6317 405.927 96.835 406.141 96.195V95.645L406.511 94.175L407.251 90.505L407.431 90.135L407.801 87.935L407.981 87.385V86.835L408.531 84.995C408.651 83.835 408.834 82.855 409.081 82.055L409.271 80.955H410.181H411.281H412.021H415.321H417.341H418.081H418.811H419.551H420.281H423.401H423.951H426.161L426.341 82.245L426.711 83.525V84.265C427.164 85.945 427.467 87.3516 427.621 88.485L428.181 91.055L428.731 93.255L428.911 94.175L429.091 95.455L429.281 96.565L429.461 97.665L429.831 98.585L430.011 99.685L430.191 100.605V101.155C430.317 101.335 430.381 101.518 430.381 101.705C430.627 102.438 430.751 103.112 430.751 103.725C430.871 103.905 430.931 104.088 430.931 104.275L431.111 104.635V105.185L431.481 106.655L431.851 108.865L432.211 109.965L432.401 111.065V111.615L432.771 113.085L432.951 114.185C433.317 115.165 433.501 116.082 433.501 116.935L433.681 117.675C434.021 118.595 434.204 119.392 434.231 120.065L434.421 120.615L434.601 122.085L434.971 123.545L435.151 124.655C435.644 126.062 435.891 127.285 435.891 128.325L436.441 127.225V126.485L436.801 125.015L436.991 124.465L437.171 123.915C437.291 122.908 437.474 122.052 437.721 121.345L438.091 119.875L438.271 118.775L438.461 118.405L438.641 117.125L439.371 114.555L439.561 113.265L439.931 111.985L440.111 110.695L440.481 109.415L440.661 108.675L441.031 107.205L442.131 102.615L442.311 101.515L442.681 100.045L443.051 98.765L443.231 97.665L443.601 96.565L443.781 95.825V95.095L443.961 94.355L444.151 93.805L444.331 93.435L444.701 91.235L445.071 89.765L445.431 88.485V87.935L445.621 87.385L445.801 86.835V86.275L446.171 84.995L446.351 84.445V83.895C446.777 82.7616 447.024 81.7816 447.091 80.955H447.821H451.121H453.141H453.881H454.611H455.351H456.081H459.201H459.751H461.961V81.505L461.771 82.605L461.221 84.075L461.041 85.365L460.491 87.935L460.301 88.485C460.027 89.8917 459.724 91.055 459.391 91.975C459.357 92.675 459.234 93.285 459.021 93.805L457.921 98.585L457.731 99.135V99.685L457.551 100.785L457.181 102.255C456.874 103.108 456.691 103.842 456.631 104.455L456.451 104.825L456.271 106.105C455.964 107.118 455.777 107.975 455.711 108.675C455.437 109.382 455.254 109.995 455.161 110.515L454.981 111.245L454.801 111.795C454.767 112.502 454.644 113.115 454.431 113.635L454.251 114.735L454.061 115.475L453.881 115.835L453.691 117.125L452.961 119.695L452.411 122.815L452.041 124.285L451.681 125.565L451.491 126.675L451.311 127.405L451.121 127.955L450.941 128.325L450.571 130.525L450.021 132.915L449.841 133.465C449.594 134.905 449.287 136.068 448.921 136.955V137.685C448.614 138.605 448.431 139.402 448.371 140.075L448.191 140.625L448.001 141.175L447.641 142.645L447.451 143.925L446.721 146.495L446.531 147.785L445.801 151.085H444.701H444.151H440.481H439.561H439.011H438.091H437.351H436.801H435.891H434.971H434.421H432.211H431.661C430.007 151.179 428.601 151.119 427.441 150.905V150.355L427.261 149.985V149.435L427.071 148.885L426.711 146.685L425.791 142.455L425.601 141.175C425.114 139.488 424.811 138.082 424.691 136.955L424.321 135.485L423.951 134.015L423.771 132.725L423.591 131.445L423.221 130.345V129.605L422.671 127.405V126.855C422.151 125.168 421.844 123.762 421.751 122.635L421.381 121.525V120.615C421.261 120.428 421.201 120.245 421.201 120.065L421.021 119.695L420.281 115.655L420.101 114.925L419.551 111.985L419.181 110.515L419.001 109.775V109.045L418.811 108.315L418.441 107.025V106.475L418.081 105.005L417.711 103.725L417.531 104.275L417.341 105.375L417.161 106.105L416.981 107.205L416.241 110.695L415.871 111.985V112.535L415.141 115.475L414.961 116.935L414.591 118.405L414.221 119.875L414.041 121.345L413.671 122.815L413.301 125.015C412.874 126.395 412.631 127.558 412.571 128.505L412.201 129.605L412.021 130.525V131.075C411.807 131.782 411.684 132.395 411.651 132.915C411.437 133.528 411.314 134.078 411.281 134.565L410.921 135.485L410.551 138.055L410.371 138.975L410.181 139.705L409.451 143.015L408.901 145.585L408.711 146.685L408.351 148.155L407.801 151.085H406.691H406.141H402.471H401.551H401.001H400.091H399.351H398.801H397.881H396.961H396.411H394.211H393.661C392.007 151.179 390.601 151.119 389.441 150.905L389.251 149.435C388.704 147.782 388.401 146.375 388.341 145.215C388.154 144.755 388.031 144.325 387.971 143.925L387.601 142.455L387.231 140.995L386.871 139.705L386.681 138.235L386.501 137.505C386.134 136.492 385.951 135.635 385.951 134.935L385.771 134.195L384.851 131.075V130.345C384.391 129.118 384.144 128.015 384.111 127.035C383.651 125.935 383.407 124.958 383.381 124.105L383.011 122.995L382.831 121.525C382.704 121.345 382.641 121.162 382.641 120.975L381.731 117.305L381.361 115.835V115.285C380.994 114.398 380.811 113.605 380.811 112.905C380.624 112.445 380.501 112.015 380.441 111.615L380.071 110.335L379.891 109.045C379.557 108.125 379.374 107.328 379.341 106.655C378.787 105.068 378.481 103.722 378.421 102.615L378.051 101.705L377.871 100.785L377.691 99.685L377.501 98.765C377.381 98.425 377.321 98.1183 377.321 97.845L376.951 97.115L376.401 94.175C376.094 93.255 375.911 92.4583 375.851 91.785C375.577 91.085 375.454 90.475 375.481 89.955C374.934 88.515 374.631 87.2283 374.571 86.095C374.264 85.3616 374.081 84.6883 374.021 84.075L373.831 83.525V82.975C373.524 82.2416 373.341 81.5683 373.281 80.955Z" fill="black"/>
<path d="M487.772 99.0439C496.159 98.4905 503.135 100.571 508.702 105.284L508.892 105.654C509.379 106.267 509.745 106.877 509.992 107.484C510.632 108.437 511.059 109.294 511.272 110.054V110.794C511.639 111.987 511.822 113.027 511.822 113.914V131.904C511.702 134.937 511.825 137.447 512.192 139.434C513.692 140.994 515.405 141.974 517.332 142.374L516.962 142.924L516.602 143.844L516.232 144.574L516.052 145.124L515.862 145.674L515.502 146.224L514.762 148.064L514.392 148.614L514.212 149.164L514.032 149.714L513.842 150.084L512.562 152.834C507.115 152.867 503.015 151.154 500.262 147.694C495.029 152.894 488.542 154.181 480.802 151.554C473.669 149.594 469.505 145.247 468.312 138.514C468.372 128.634 473.025 122.881 482.272 121.254C482.759 120.947 483.245 120.764 483.732 120.704H484.282C484.469 120.584 484.655 120.524 484.842 120.524L485.392 120.344L488.692 119.794L490.162 119.604L490.712 119.424L493.832 119.234C495.485 118.994 496.832 118.934 497.872 119.054C498.332 112.234 494.599 109.907 486.672 112.074L486.122 112.264L484.652 112.444L483.372 112.994L482.822 113.184L480.982 113.734C480.035 114.374 479.179 114.801 478.412 115.014C477.372 115.814 476.332 116.364 475.292 116.664L474.002 114.284L473.642 114.094L473.452 113.544L473.092 113.184L472.902 112.634C472.109 111.714 471.559 110.854 471.252 110.054C470.765 109.601 470.459 109.114 470.332 108.594C469.539 107.827 469.049 107.031 468.862 106.204L469.232 106.024L469.782 105.654L470.152 105.464C470.979 104.917 471.712 104.491 472.352 104.184C472.845 103.844 473.335 103.661 473.822 103.634L474.192 103.264C475.325 102.744 476.302 102.377 477.122 102.164L477.492 101.794H478.042C478.622 101.427 479.112 101.184 479.512 101.064H480.062C480.889 100.637 481.685 100.391 482.452 100.324C484.132 99.6239 485.722 99.2572 487.222 99.2239L487.772 99.0439ZM497.322 129.154L496.592 129.334H496.032C495.299 129.547 494.689 129.671 494.202 129.704H493.652C493.465 129.824 493.282 129.884 493.102 129.884L492.362 130.074H491.812L491.082 130.254L489.982 130.434C489.795 130.561 489.612 130.624 489.432 130.624L488.692 130.804L488.142 130.984C486.429 131.417 485.082 131.847 484.102 132.274C482.815 133.987 482.449 135.761 483.002 137.594C486.062 141.881 490.469 142.617 496.222 139.804L497.692 137.594L497.872 136.864V136.134V135.574V134.664V134.114V133.374V132.824V129.154" fill="black"/>
<path d="M550.252 99.532C558.639 99.2586 565.185 102.685 569.892 109.812L570.082 110.372L570.262 110.922L570.442 111.472C570.749 111.992 570.935 112.482 571.002 112.942L571.732 115.142V115.692C572.159 117.892 572.342 119.665 572.282 121.012V150.942H568.612H567.692H567.142H566.412H565.672H564.942H564.202H561.082H560.532H558.332V150.392V149.472V148.922V148.192V147.642V143.962V141.392V139.372V138.462V137.902V137.172V136.622V132.952V132.212V130.192V128.362V125.052V124.502V123.952V123.222V119.912V119.182C558.025 118.415 557.842 117.742 557.782 117.162C556.309 114.589 554.349 112.935 551.902 112.202C546.822 112.082 543.089 114.042 540.702 118.082L540.342 119.362V150.942H536.662H535.752H535.192H534.462H533.732H532.992H532.262H529.142H528.592H526.382V150.392V149.472V148.922V148.192V147.642V143.962V142.682V141.942V141.032V140.292V139.372V136.992V136.252V133.132V132.582V130.382V129.092V127.812V126.712V125.422V124.322V123.032V121.932V118.812V117.712V116.792V115.692V114.962V111.652V109.632V108.902V108.162V107.432V106.692V103.572V103.022V100.822H530.052H530.972H531.522H532.262H532.992H533.732H534.462H537.582H538.132H540.342C540.275 102.075 540.335 103.115 540.522 103.942C543.582 101.522 546.825 100.052 550.252 99.532Z" fill="black"/>
<path d="M118.14 76.8752H63.6401V174.875H118.14V76.8752Z" stroke="black" stroke-width="2" stroke-dasharray="5 5"/>
<path d="M167.14 76.8752H120.14V174.875H167.14V76.8752Z" stroke="black" stroke-width="2" stroke-dasharray="5 5"/>
<path d="M227.14 76.8752H169.14V174.875H227.14V76.8752Z" stroke="black" stroke-width="2" stroke-dasharray="5 5"/>
<path d="M282.14 76.8752H229.14V174.875H282.14V76.8752Z" stroke="black" stroke-width="2" stroke-dasharray="5 5"/>
<path d="M341.64 76.8752H284.14V174.875H341.64V76.8752Z" stroke="black" stroke-width="2" stroke-dasharray="5 5"/>
<path d="M366.64 76.8752H343.64V174.875H366.64V76.8752Z" stroke="black" stroke-width="2" stroke-dasharray="5 5"/>
<path d="M463.14 76.8752H368.64V174.875H463.14V76.8752Z" stroke="black" stroke-width="2" stroke-dasharray="5 5"/>
<path d="M518.64 76.8752H465.14V174.875H518.64V76.8752Z" stroke="black" stroke-width="2" stroke-dasharray="5 5"/>
<path d="M578.14 76.8752H520.64V174.875H578.14V76.8752Z" stroke="black" stroke-width="2" stroke-dasharray="5 5"/>
<path d="M628.89 134.375H647.64V71.8751H610.14V134.375H628.89ZM628.89 284.376H647.64V184.375H610.14V284.376H628.89ZM628.89 434.376H647.64V334.376H610.14V434.376H628.89ZM628.89 584.377H647.64V484.376H610.14V584.377H628.89Z" fill="black"/>
<path d="M319.39 580.377V665.715" stroke="#008000" stroke-width="2.24575"/>
<path d="M319.39 603.127V665.715" stroke="#008000" stroke-width="2.24575"/>
<path d="M319.39 647.749L346.339 641.012V654.487L319.39 647.749Z" fill="#008000"/>
<path d="M319.39 647.749L292.441 641.012V654.487L319.39 647.749Z" fill="#008000"/>
<path d="M292.612 693.083C291.17 693.083 289.942 692.691 288.928 691.906C287.913 691.115 287.138 689.969 286.602 688.47C286.066 686.964 285.798 685.146 285.798 683.015C285.798 680.897 286.066 679.088 286.602 677.589C287.145 676.083 287.923 674.935 288.937 674.144C289.958 673.346 291.183 672.948 292.612 672.948C294.041 672.948 295.263 673.346 296.278 674.144C297.298 674.935 298.077 676.083 298.613 677.589C299.155 679.088 299.426 680.897 299.426 683.015C299.426 685.146 299.158 686.964 298.622 688.47C298.086 689.969 297.311 691.115 296.297 691.906C295.282 692.691 294.054 693.083 292.612 693.083ZM292.612 690.977C294.041 690.977 295.151 690.288 295.943 688.91C296.734 687.532 297.129 685.567 297.129 683.015C297.129 681.318 296.947 679.873 296.584 678.68C296.226 677.487 295.71 676.578 295.033 675.953C294.364 675.327 293.556 675.015 292.612 675.015C291.196 675.015 290.089 675.713 289.291 677.111C288.494 678.501 288.095 680.47 288.095 683.015C288.095 684.712 288.274 686.154 288.631 687.341C288.988 688.528 289.502 689.43 290.172 690.049C290.848 690.668 291.662 690.977 292.612 690.977ZM304.063 692.968C303.591 692.968 303.185 692.799 302.847 692.461C302.509 692.123 302.34 691.718 302.34 691.245C302.34 690.773 302.509 690.368 302.847 690.03C303.185 689.692 303.591 689.523 304.063 689.523C304.535 689.523 304.94 689.692 305.278 690.03C305.616 690.368 305.785 690.773 305.785 691.245C305.785 691.558 305.706 691.845 305.546 692.107C305.393 692.368 305.186 692.579 304.924 692.738C304.669 692.891 304.382 692.968 304.063 692.968ZM315.508 693.083C314.066 693.083 312.838 692.691 311.824 691.906C310.809 691.115 310.034 689.969 309.498 688.47C308.962 686.964 308.695 685.146 308.695 683.015C308.695 680.897 308.962 679.088 309.498 677.589C310.041 676.083 310.819 674.935 311.833 674.144C312.854 673.346 314.079 672.948 315.508 672.948C316.937 672.948 318.159 673.346 319.174 674.144C320.194 674.935 320.973 676.083 321.509 677.589C322.051 679.088 322.322 680.897 322.322 683.015C322.322 685.146 322.054 686.964 321.518 688.47C320.982 689.969 320.207 691.115 319.193 691.906C318.178 692.691 316.95 693.083 315.508 693.083ZM315.508 690.977C316.937 690.977 318.048 690.288 318.839 688.91C319.63 687.532 320.025 685.567 320.025 683.015C320.025 681.318 319.844 679.873 319.48 678.68C319.123 677.487 318.606 676.578 317.93 675.953C317.26 675.327 316.453 675.015 315.508 675.015C314.092 675.015 312.985 675.713 312.188 677.111C311.39 678.501 310.991 680.47 310.991 683.015C310.991 684.712 311.17 686.154 311.527 687.341C311.885 688.528 312.398 689.43 313.068 690.049C313.744 690.668 314.558 690.977 315.508 690.977ZM336.409 681.408L334.38 681.982C334.253 681.644 334.064 681.315 333.816 680.996C333.573 680.671 333.241 680.403 332.82 680.192C332.399 679.982 331.86 679.876 331.203 679.876C330.303 679.876 329.554 680.084 328.954 680.498C328.361 680.907 328.064 681.427 328.064 682.058C328.064 682.62 328.268 683.063 328.677 683.389C329.085 683.714 329.723 683.985 330.591 684.202L332.773 684.738C334.087 685.057 335.066 685.545 335.71 686.202C336.355 686.853 336.677 687.692 336.677 688.719C336.677 689.561 336.435 690.314 335.95 690.977C335.471 691.641 334.801 692.164 333.94 692.547C333.079 692.93 332.077 693.121 330.935 693.121C329.436 693.121 328.195 692.796 327.212 692.145C326.23 691.494 325.608 690.544 325.346 689.293L327.49 688.757C327.694 689.548 328.08 690.142 328.648 690.537C329.222 690.933 329.972 691.131 330.897 691.131C331.949 691.131 332.785 690.907 333.404 690.461C334.029 690.008 334.342 689.465 334.342 688.834C334.342 688.323 334.163 687.896 333.806 687.551C333.449 687.201 332.9 686.939 332.16 686.767L329.71 686.193C328.364 685.874 327.375 685.379 326.743 684.709C326.118 684.033 325.806 683.188 325.806 682.173C325.806 681.344 326.038 680.61 326.504 679.972C326.976 679.334 327.617 678.833 328.428 678.47C329.244 678.106 330.169 677.924 331.203 677.924C332.658 677.924 333.8 678.243 334.629 678.881C335.465 679.519 336.058 680.361 336.409 681.408ZM343.407 692.815L338.928 678.115H341.302L344.479 689.37H344.632L347.771 678.115H350.183L353.283 689.331H353.436L356.614 678.115H358.987L354.508 692.815H352.288L349.073 681.522H348.843L345.627 692.815H343.407Z" fill="#008000"/>
<path d="M319.39 380.376H404.729" stroke="#FF0000" stroke-width="2.24575"/>
<path d="M337.64 318.376H404.729" stroke="#FF0000" stroke-width="2.24575"/>
<path d="M386.762 380.376V318.376" stroke="#FF0000" stroke-width="2.24575"/>
<path d="M386.762 380.376L380.025 407.325H393.5L386.762 380.376Z" fill="#FF0000"/>
<path d="M386.762 318.376L380.025 291.427H393.5L386.762 318.376Z" fill="#FF0000"/>
<path d="M424.937 345.412V347.517H416.362V345.412H424.937ZM427.952 356.264V354.541L434.421 347.46C435.18 346.63 435.805 345.909 436.297 345.297C436.788 344.678 437.151 344.097 437.387 343.555C437.63 343.006 437.751 342.432 437.751 341.832C437.751 341.143 437.585 340.547 437.254 340.043C436.928 339.539 436.482 339.15 435.914 338.875C435.346 338.601 434.708 338.464 434 338.464C433.247 338.464 432.59 338.62 432.028 338.933C431.473 339.239 431.043 339.67 430.736 340.225C430.437 340.78 430.287 341.43 430.287 342.177H428.028C428.028 341.029 428.293 340.021 428.822 339.153C429.352 338.285 430.073 337.609 430.985 337.124C431.904 336.639 432.934 336.397 434.076 336.397C435.225 336.397 436.242 336.639 437.129 337.124C438.016 337.609 438.711 338.263 439.215 339.086C439.719 339.909 439.971 340.824 439.971 341.832C439.971 342.553 439.841 343.258 439.579 343.947C439.324 344.63 438.877 345.392 438.239 346.235C437.608 347.07 436.73 348.091 435.607 349.297L431.205 354.005V354.158H440.316V356.264H427.952ZM445.953 356.417C445.48 356.417 445.075 356.248 444.737 355.91C444.399 355.572 444.23 355.167 444.23 354.694C444.23 354.222 444.399 353.817 444.737 353.479C445.075 353.141 445.48 352.972 445.953 352.972C446.425 352.972 446.83 353.141 447.168 353.479C447.506 353.817 447.675 354.222 447.675 354.694C447.675 355.007 447.595 355.294 447.436 355.556C447.283 355.817 447.075 356.028 446.814 356.187C446.559 356.34 446.272 356.417 445.953 356.417ZM457.42 356.532C456.297 356.532 455.286 356.309 454.386 355.862C453.487 355.415 452.766 354.803 452.223 354.025C451.681 353.246 451.384 352.359 451.333 351.364H453.63C453.719 352.251 454.121 352.985 454.836 353.565C455.557 354.139 456.418 354.426 457.42 354.426C458.224 354.426 458.938 354.238 459.563 353.862C460.195 353.485 460.689 352.969 461.047 352.312C461.41 351.648 461.592 350.898 461.592 350.063C461.592 349.208 461.404 348.445 461.028 347.775C460.658 347.099 460.147 346.566 459.496 346.177C458.846 345.788 458.102 345.59 457.267 345.584C456.667 345.577 456.051 345.67 455.42 345.861C454.788 346.046 454.268 346.286 453.86 346.579L451.64 346.311L452.826 336.665H463.009V338.77H454.817L454.128 344.55H454.243C454.644 344.231 455.148 343.967 455.755 343.756C456.361 343.545 456.992 343.44 457.649 343.44C458.849 343.44 459.918 343.727 460.855 344.301C461.8 344.869 462.54 345.648 463.076 346.637C463.618 347.625 463.889 348.755 463.889 350.024C463.889 351.275 463.608 352.391 463.047 353.374C462.492 354.35 461.726 355.122 460.75 355.69C459.774 356.251 458.664 356.532 457.42 356.532ZM478.141 344.857L476.112 345.431C475.985 345.093 475.796 344.764 475.548 344.445C475.305 344.12 474.973 343.852 474.552 343.641C474.131 343.431 473.592 343.325 472.935 343.325C472.035 343.325 471.286 343.533 470.686 343.947C470.093 344.356 469.796 344.876 469.796 345.507C469.796 346.069 470 346.512 470.409 346.837C470.817 347.163 471.455 347.434 472.323 347.651L474.504 348.187C475.819 348.506 476.798 348.994 477.442 349.651C478.087 350.302 478.409 351.141 478.409 352.168C478.409 353.01 478.167 353.763 477.682 354.426C477.203 355.09 476.533 355.613 475.672 355.996C474.811 356.379 473.809 356.57 472.667 356.57C471.168 356.57 469.927 356.245 468.944 355.594C467.962 354.943 467.34 353.993 467.078 352.742L469.222 352.206C469.426 352.997 469.812 353.591 470.38 353.986C470.954 354.382 471.704 354.58 472.629 354.58C473.681 354.58 474.517 354.356 475.136 353.91C475.761 353.457 476.074 352.914 476.074 352.283C476.074 351.772 475.895 351.345 475.538 351C475.181 350.65 474.632 350.388 473.892 350.216L471.442 349.641C470.096 349.322 469.107 348.828 468.475 348.158C467.85 347.482 467.538 346.637 467.538 345.622C467.538 344.793 467.77 344.059 468.236 343.421C468.708 342.783 469.349 342.282 470.16 341.919C470.976 341.555 471.901 341.373 472.935 341.373C474.39 341.373 475.532 341.692 476.361 342.33C477.197 342.968 477.79 343.81 478.141 344.857ZM485.139 356.264L480.66 341.564H483.034L486.211 352.819H486.364L489.503 341.564H491.915L495.015 352.78H495.168L498.346 341.564H500.719L496.24 356.264H494.02L490.804 344.971H490.575L487.359 356.264H485.139Z" fill="#FF0000"/>
<rect x="270.39" y="381.38" width="98" height="198" stroke="black" stroke-width="2" stroke-dasharray="10 10"/>
</g>
<defs>
<clipPath id="clip0_0_1">
<rect width="675" height="700" fill="white"/>
</clipPath>
</defs>
</svg>
