<svg width="675" height="700" viewBox="0 0 675 700" fill="none" xmlns="http://www.w3.org/2000/svg">
<g clip-path="url(#clip0_0_1)">
<path d="M9.89008 59.3751C9.89008 38.6644 26.6794 21.875 47.3901 21.875H1297.39C1318.1 21.875 1334.89 38.6644 1334.89 59.3751V584.377C1334.89 605.088 1318.1 621.877 1297.39 621.877H47.3901C26.6794 621.877 9.89008 605.088 9.89008 584.377V59.3751Z" fill="white"/>
<path d="M28.6401 59.3751C28.6401 49.0197 37.0348 40.6251 47.3901 40.6251H1297.39C1307.75 40.6251 1316.14 49.0197 1316.14 59.3751V584.377C1316.14 594.732 1307.75 603.127 1297.39 603.127H47.3901C37.0348 603.127 28.6401 594.732 28.6401 584.377V59.3751Z" fill="#0033A2"/>
<path d="M342.5 380.376L392.5 430.376V480.376L359.167 447.043V580.377H325.833V447.043L292.5 480.376V430.376L342.5 380.376Z" fill="white"/>
<path d="M249.162 245.545V236.435H302.152V245.545H249.162ZM242.302 263.655V254.765H309.572V263.655H242.302ZM226.882 282.555V273.335H324.762V282.555H226.882ZM240.722 220.455V211.905H279.872V220.455H240.722ZM270.762 217.645V211.905H282.352C284.752 214.979 287.659 217.959 291.072 220.845C294.486 223.739 298.252 226.422 302.372 228.895C306.499 231.369 310.812 233.582 315.312 235.535C319.812 237.482 324.349 239.132 328.922 240.485C328.102 241.085 327.166 241.872 326.112 242.845C325.066 243.819 324.052 244.832 323.072 245.885C322.099 246.932 321.312 247.905 320.712 248.805C314.712 246.632 308.789 243.932 302.942 240.705C297.089 237.479 291.669 233.899 286.682 229.965C281.696 226.025 277.402 221.919 273.802 217.645H270.762ZM268.292 213.035L277.962 216.745C274.289 221.692 269.826 226.265 264.572 230.465C259.326 234.665 253.719 238.379 247.752 241.605C241.792 244.832 235.776 247.645 229.702 250.045C229.176 249.292 228.462 248.392 227.562 247.345C226.662 246.292 225.726 245.259 224.752 244.245C223.779 243.239 222.916 242.435 222.162 241.835C228.316 239.955 234.316 237.592 240.162 234.745C246.016 231.892 251.359 228.629 256.192 224.955C261.032 221.282 265.066 217.309 268.292 213.035ZM270.092 279.745V240.595H281.002V279.745H270.092ZM226.102 200.315V190.535H325.552V200.315H226.102ZM250.062 209.655V181.985H260.642V209.655H250.062ZM290.342 210.215V181.985H300.912V210.215" fill="white"/>
<path d="M412.428 189.748V184.238H432.108V189.748H412.428ZM411.748 208.088V202.688H432.898V208.088H411.748ZM411.748 216.518V211.238H432.898V216.518H411.748ZM395.328 269.848V262.988H452.358V269.848H395.328ZM408.488 199.198V193.238H435.488V199.198H408.488ZM426.148 225.408H418.158V231.818H426.148V225.408ZM411.518 236.998V220.238H433.008V236.998H411.518ZM397.238 258.258V251.848H443.918V247.008H390.258V240.598H453.828V258.258H397.238ZM393.408 238.568V213.038H400.498V238.568H393.408ZM383.178 216.968L382.388 210.108C385.688 209.961 389.381 209.811 393.468 209.658C397.554 209.511 401.884 209.325 406.458 209.098V215.288C402.258 215.661 398.191 215.961 394.258 216.188C390.318 216.408 386.624 216.668 383.178 216.968ZM394.198 251.848H404.098C403.198 255.448 402.224 259.198 401.178 263.098C400.124 266.998 399.148 270.371 398.248 273.218L388.688 271.868C389.734 269.095 390.748 265.888 391.728 262.248C392.701 258.615 393.524 255.148 394.198 251.848ZM448.988 264.108V262.988H458.998C458.998 262.988 458.961 263.491 458.888 264.498C458.814 265.511 458.664 266.358 458.438 267.038C457.384 271.685 456.294 275.338 455.168 277.998C454.048 280.665 452.738 282.598 451.238 283.798C449.964 284.698 448.594 285.315 447.128 285.648C445.668 285.988 443.924 286.195 441.898 286.268C440.171 286.348 437.714 286.368 434.528 286.328C431.341 286.288 427.948 286.195 424.348 286.048C424.274 284.848 423.974 283.498 423.448 281.998C422.921 280.498 422.284 279.148 421.538 277.948C425.064 278.321 428.478 278.545 431.778 278.618C435.078 278.698 437.401 278.738 438.748 278.738C439.948 278.738 440.921 278.698 441.668 278.618C442.421 278.545 443.061 278.321 443.588 277.948C444.634 277.121 445.591 275.638 446.458 273.498C447.318 271.365 448.161 268.235 448.988 264.108ZM401.848 221.018L407.248 219.788C407.848 221.661 408.428 223.721 408.988 225.968C409.554 228.221 409.988 230.171 410.288 231.818L404.438 233.398C404.284 231.671 403.964 229.665 403.478 227.378C402.991 225.091 402.448 222.971 401.848 221.018ZM401.508 205.718L406.348 203.918C407.321 205.798 408.221 207.898 409.048 210.218C409.874 212.545 410.438 214.571 410.738 216.298L405.448 218.318C405.221 216.598 404.734 214.575 403.988 212.248C403.234 209.921 402.408 207.745 401.508 205.718ZM383.508 196.838L387.108 191.438C389.288 192.858 391.424 194.488 393.518 196.328C395.624 198.168 397.201 199.761 398.248 201.108L394.198 207.298C393.071 205.725 391.498 203.961 389.478 202.008C387.451 200.061 385.461 198.338 383.508 196.838ZM394.198 181.648L400.608 184.798C399.108 187.271 397.608 189.785 396.108 192.338C394.608 194.885 393.184 197.021 391.838 198.748L386.888 196.158C388.088 194.211 389.401 191.831 390.828 189.018C392.248 186.205 393.371 183.748 394.198 181.648ZM401.398 190.988L407.698 194.588C405.224 197.961 402.581 201.521 399.768 205.268C396.954 209.021 394.311 212.171 391.838 214.718L387.108 211.798C388.688 209.925 390.378 207.788 392.178 205.388C393.978 202.988 395.681 200.511 397.288 197.958C398.901 195.411 400.271 193.088 401.398 190.988ZM385.988 219.338L392.628 220.798C391.948 223.725 391.121 226.648 390.148 229.568C389.174 232.495 388.124 235.008 386.998 237.108C386.324 236.661 385.348 236.155 384.068 235.588C382.794 235.028 381.748 234.561 380.928 234.188C382.201 232.088 383.248 229.741 384.068 227.148C384.894 224.561 385.534 221.958 385.988 219.338ZM445.388 238.568V213.038H452.588V238.568H445.388ZM435.038 216.968L434.358 210.108C437.811 209.961 441.694 209.811 446.008 209.658C450.321 209.511 454.914 209.361 459.788 209.208L459.668 215.398C455.248 215.698 450.954 215.978 446.788 216.238C442.628 216.505 438.711 216.748 435.038 216.968ZM454.158 221.018L459.898 219.338C460.871 221.585 461.828 224.058 462.768 226.758C463.701 229.458 464.358 231.785 464.738 233.738L458.778 235.648C458.478 233.695 457.878 231.331 456.978 228.558C456.078 225.785 455.138 223.271 454.158 221.018ZM453.258 205.498L458.548 203.138C459.821 205.085 461.001 207.238 462.088 209.598C463.181 211.965 463.951 214.048 464.398 215.848L458.658 218.438C458.284 216.638 457.591 214.518 456.578 212.078C455.564 209.638 454.458 207.445 453.258 205.498ZM434.588 196.608L438.408 191.548C440.361 192.895 442.311 194.451 444.258 196.218C446.211 197.978 447.711 199.571 448.758 200.998L444.378 206.848C443.398 205.348 441.991 203.621 440.158 201.668C438.318 199.721 436.461 198.035 434.588 196.608ZM445.608 181.758L452.028 185.018C450.448 187.498 448.871 189.991 447.298 192.498C445.724 195.011 444.224 197.168 442.798 198.968L437.848 196.388C439.121 194.435 440.508 192.051 442.008 189.238C443.508 186.425 444.708 183.931 445.608 181.758ZM453.598 190.538L459.898 194.138C457.351 197.511 454.578 201.071 451.578 204.818C448.578 208.571 445.728 211.721 443.028 214.268L438.408 211.348C440.134 209.475 441.934 207.338 443.808 204.938C445.688 202.538 447.488 200.061 449.208 197.508C450.934 194.961 452.398 192.638 453.598 190.538ZM437.848 219.338L444.378 220.908C443.851 223.681 443.101 226.511 442.128 229.398C441.148 232.291 440.098 234.748 438.978 236.768C438.378 236.395 437.478 235.888 436.278 235.248C435.078 234.615 434.028 234.111 433.128 233.738C434.321 231.638 435.294 229.348 436.048 226.868C436.794 224.395 437.394 221.885 437.848 219.338ZM361.348 190.418L367.538 183.448C369.411 184.421 371.378 185.601 373.438 186.988C375.504 188.375 377.438 189.761 379.238 191.148C381.038 192.541 382.501 193.875 383.628 195.148L377.208 203.018C376.161 201.745 374.754 200.358 372.988 198.858C371.228 197.358 369.334 195.878 367.308 194.418C365.288 192.951 363.301 191.618 361.348 190.418ZM358.988 220.458L364.838 213.148C366.784 214.048 368.828 215.155 370.968 216.468C373.108 217.781 375.094 219.091 376.928 220.398C378.768 221.711 380.288 222.968 381.488 224.168L375.298 232.268C374.171 231.068 372.691 229.758 370.858 228.338C369.018 226.911 367.048 225.505 364.948 224.118C362.848 222.731 360.861 221.511 358.988 220.458ZM370.798 285.038L361.238 279.638C362.664 276.638 364.181 273.148 365.788 269.168C367.401 265.195 369.051 260.995 370.738 256.568C372.431 252.148 373.988 247.798 375.408 243.518L383.848 248.918C382.648 252.898 381.298 256.988 379.798 261.188C378.298 265.388 376.798 269.511 375.298 273.558C373.798 277.611 372.298 281.438 370.798 285.038Z" fill="white"/>
<path d="M341.5 174.88H206V315.38H341.5V174.88Z" stroke="white" stroke-width="2" stroke-dasharray="5 5"/>
<path d="M479 174.88H343.5V315.38H479V174.88Z" stroke="white" stroke-width="2" stroke-dasharray="5 5"/>
<path d="M64.0932 80.4985H64.8332H65.5632H66.1132H66.8532H70.1532H70.8932H74.1932H75.2932H76.5832H80.2532H81.7232H83.1932H84.6632H86.1232H89.8032H90.3532H90.9032H96.5932H97.8732H98.9832H100.263H101.363H102.283H103.383H104.123H107.423H109.443H110.183H110.913H111.643H112.383H115.503H116.053H118.253V94.4586H117.153H116.603H112.933H110.543H109.813H106.503H105.773H105.033H104.303H101.183H100.633H98.4332V150.819H96.0432H95.3032H92.0032H91.2732H90.5332H89.8032H86.6832H86.1232H83.9232V149.529V148.979V148.069V147.519V146.779V146.229V142.559V141.819V138.519V137.419V136.129V132.459V130.989V129.519V128.049V126.589V122.909V122.359V121.809V116.119V114.839V113.729V112.449V111.349V110.429V109.329V108.589V105.289V103.269V102.529V101.799V101.069V100.329V97.2086V96.6586V94.4586H82.8232H82.2732H78.6032H76.2132H75.4832H72.1732H71.4432H70.7032H69.9732H66.8532H66.3032H64.0932V90.7786V89.8686V89.3186V88.5786V87.8486V87.1086V86.3786V83.2585V82.7085" fill="white"/>
<path d="M141.542 99.5752C150.902 99.0218 158.672 101.532 164.852 107.105L164.302 107.655L163.752 108.205C163.358 108.752 162.992 109.179 162.652 109.485L161.922 110.225L161.372 110.775C160.818 111.509 160.265 112.059 159.712 112.425L159.532 112.795L159.162 113.345L158.802 113.525L156.412 116.285C148.425 109.645 142.245 108.972 137.872 114.265C137.838 115.672 138.142 116.895 138.782 117.935L139.522 118.115L140.072 118.485H140.622L141.172 118.665L142.642 118.855L145.582 119.585C152.282 119.645 157.728 121.725 161.922 125.825C165.442 131.059 166.175 136.322 164.122 141.615C162.102 146.209 158.982 149.269 154.762 150.795C141.022 154.682 129.515 152.235 120.242 143.455C120.822 142.689 121.372 142.075 121.892 141.615L122.632 141.255C123.398 140.215 124.255 139.419 125.202 138.865L125.752 138.125L126.122 137.765L126.482 137.395L126.852 137.025L127.222 136.845L127.592 136.665C128.478 135.532 129.335 134.675 130.162 134.095C136.282 140.122 142.462 142.202 148.702 140.335L148.882 139.965C149.742 139.412 150.415 138.739 150.902 137.945C151.028 136.079 150.418 134.672 149.072 133.725H148.522L148.152 133.355H147.602L147.052 133.175L146.682 132.805C144.815 132.499 143.285 132.132 142.092 131.705C131.292 131.212 125.232 126.439 123.912 117.385C124.065 106.492 129.942 100.555 141.542 99.5752Z" fill="white"/>
<path d="M174.699 100.694H175.429H176.349H177.089H177.999H178.739H179.659H182.039H182.779H185.899H187.369H188.649L188.839 133.554C192.045 139.734 196.695 141.081 202.789 137.594C204.622 136.127 205.905 134.414 206.639 132.454V131.904V128.234V126.944V125.664V124.924V124.014V121.624V120.884V117.764V117.214V115.014V114.274V113.544V112.994V109.684V107.304V106.564V103.444V102.894V100.694H210.319H211.229H211.779H212.519H213.249H213.989H214.719H217.839H218.389H220.599V150.814H216.929H216.009H215.459H214.719H213.989H213.249H212.519H209.399H208.849H206.639V147.514C199.359 152.774 192.079 153.384 184.799 149.344C181.492 147.231 179.042 144.721 177.449 141.814L177.089 141.634L176.899 141.084L176.719 140.534C176.445 139.921 176.262 139.431 176.169 139.064L175.979 138.514C175.399 136.614 175.032 135.084 174.879 133.924L174.699 129.884V128.594V127.494V124.374V123.824V121.624V119.234V118.504V115.384V114.834V112.624V110.604V109.684V107.304V106.564V103.444V102.894" fill="white"/>
<path d="M251.494 99.6573C266.454 99.4439 274.961 106.724 277.014 121.497L277.564 123.887V125.177C277.804 127.351 277.864 129.124 277.744 130.497L277.194 130.317H276.644H272.974H272.424H271.874H266.174H264.894H263.794H262.504H261.404H260.484H259.384H258.654H255.344H253.324H252.594H251.854H251.124H250.394H247.264H246.714H244.514C245.188 135.637 247.941 138.817 252.774 139.857C258.801 140.777 263.821 139.247 267.834 135.267L269.304 136.927C269.884 137.321 270.311 137.747 270.584 138.207L270.954 138.397L271.134 138.757C271.748 139.217 272.238 139.647 272.604 140.047L272.974 140.597C273.188 140.717 273.308 140.841 273.334 140.967L273.704 141.147L274.074 141.517L274.254 141.877L274.624 142.067L274.804 142.427C275.418 142.887 275.908 143.317 276.274 143.717C270.494 151.064 262.541 153.817 252.414 151.977C240.021 149.864 232.981 142.337 231.294 129.397C230.194 112.997 236.928 103.084 251.494 99.6573ZM254.614 111.037C248.981 111.924 245.674 114.924 244.694 120.037H245.804H247.084H249.474H255.164H257.734H258.284H259.204H259.754H260.484H261.034H264.714C263.334 114.524 259.968 111.524 254.614 111.037Z" fill="white"/>
<path d="M313.752 99.532C322.139 99.2586 328.686 102.685 333.392 109.812L333.582 110.372L333.762 110.922L333.942 111.472C334.249 111.992 334.436 112.482 334.502 112.942L335.232 115.142V115.692C335.659 117.892 335.842 119.665 335.782 121.012V150.942H332.112H331.192H330.642H329.912H329.172H328.442H327.702H324.582H324.032H321.832V150.392V149.472V148.922V148.192V147.642V143.962V141.392V139.372V138.462V137.902V137.172V136.622V132.952V132.212V130.192V128.362V125.052V124.502V123.952V123.222V119.912V119.182C321.526 118.415 321.342 117.742 321.282 117.162C319.809 114.589 317.849 112.935 315.402 112.202C310.322 112.082 306.589 114.042 304.202 118.082L303.842 119.362V150.942H300.162H299.252H298.692H297.962H297.232H296.492H295.762H292.642H292.092H289.882V150.392V149.472V148.922V148.192V147.642V143.962V142.682V141.942V141.032V140.292V139.372V136.992V136.252V133.132V132.582V130.382V129.092V127.812V126.712V125.422V124.322V123.032V121.932V118.812V117.712V116.792V115.692V114.962V111.652V109.632V108.902V108.162V107.432V106.692V103.572V103.022V100.822H293.552H294.472H295.022H295.762H296.492H297.232H297.962H301.082H301.632H303.842C303.776 102.075 303.836 103.115 304.022 103.942C307.082 101.522 310.326 100.052 313.752 99.532Z" fill="white"/>
<path d="M373.281 80.955H374.201H375.301H376.221H376.771H377.691H378.421H378.971H379.891H380.811H381.361H383.561H384.111C385.764 80.8616 387.174 80.9216 388.341 81.135V81.685L389.071 84.815L389.251 85.915C389.377 86.095 389.441 86.2783 389.441 86.465L389.621 87.015L389.801 87.385L389.991 88.295L390.541 91.235L390.721 91.605V92.155C391.181 93.255 391.427 94.295 391.461 95.275L391.821 96.375V96.925C392.281 98.0317 392.527 99.0717 392.561 100.045L392.931 100.965L393.111 101.885L393.291 102.985C393.844 104.638 394.151 106.045 394.211 107.205C394.611 108.158 394.854 109.015 394.941 109.775C395.127 110.542 395.251 111.215 395.311 111.795C395.771 112.928 396.017 113.972 396.051 114.925C396.324 115.625 396.507 116.235 396.601 116.755C396.781 117.522 396.901 118.195 396.961 118.775C397.361 119.935 397.607 120.915 397.701 121.715L397.881 122.635L398.431 124.465L398.621 125.755L399.351 128.325L399.531 127.405L399.721 126.855V126.305L399.901 125.755C400.114 124.435 400.361 123.332 400.641 122.445V121.715L400.821 121.165L401.371 118.775V118.225L401.551 117.495L401.741 116.935L401.921 116.385V115.835L402.291 114.555V114.005C402.471 113.298 402.594 112.685 402.661 112.165C402.874 111.552 402.994 111.002 403.021 110.515C403.421 109.075 403.667 107.852 403.761 106.845L403.941 105.925L404.121 105.375L405.231 100.045L405.411 99.135L405.591 98.585C405.744 97.6317 405.927 96.835 406.141 96.195V95.645L406.511 94.175L407.251 90.505L407.431 90.135L407.801 87.935L407.981 87.385V86.835L408.531 84.995C408.651 83.835 408.834 82.855 409.081 82.055L409.271 80.955H410.181H411.281H412.021H415.321H417.341H418.081H418.811H419.551H420.281H423.401H423.951H426.161L426.341 82.245L426.711 83.525V84.265C427.164 85.945 427.467 87.3516 427.621 88.485L428.181 91.055L428.731 93.255L428.911 94.175L429.091 95.455L429.281 96.565L429.461 97.665L429.831 98.585L430.011 99.685L430.191 100.605V101.155C430.317 101.335 430.381 101.518 430.381 101.705C430.627 102.438 430.751 103.112 430.751 103.725C430.871 103.905 430.931 104.088 430.931 104.275L431.111 104.635V105.185L431.481 106.655L431.851 108.865L432.211 109.965L432.401 111.065V111.615L432.771 113.085L432.951 114.185C433.317 115.165 433.501 116.082 433.501 116.935L433.681 117.675C434.021 118.595 434.204 119.392 434.231 120.065L434.421 120.615L434.601 122.085L434.971 123.545L435.151 124.655C435.644 126.062 435.891 127.285 435.891 128.325L436.441 127.225V126.485L436.801 125.015L436.991 124.465L437.171 123.915C437.291 122.908 437.474 122.052 437.721 121.345L438.091 119.875L438.271 118.775L438.461 118.405L438.641 117.125L439.371 114.555L439.561 113.265L439.931 111.985L440.111 110.695L440.481 109.415L440.661 108.675L441.031 107.205L442.131 102.615L442.311 101.515L442.681 100.045L443.051 98.765L443.231 97.665L443.601 96.565L443.781 95.825V95.095L443.961 94.355L444.151 93.805L444.331 93.435L444.701 91.235L445.071 89.765L445.431 88.485V87.935L445.621 87.385L445.801 86.835V86.275L446.171 84.995L446.351 84.445V83.895C446.777 82.7616 447.024 81.7816 447.091 80.955H447.821H451.121H453.141H453.881H454.611H455.351H456.081H459.201H459.751H461.961V81.505L461.771 82.605L461.221 84.075L461.041 85.365L460.491 87.935L460.301 88.485C460.027 89.8917 459.724 91.055 459.391 91.975C459.357 92.675 459.234 93.285 459.021 93.805L457.921 98.585L457.731 99.135V99.685L457.551 100.785L457.181 102.255C456.874 103.108 456.691 103.842 456.631 104.455L456.451 104.825L456.271 106.105C455.964 107.118 455.777 107.975 455.711 108.675C455.437 109.382 455.254 109.995 455.161 110.515L454.981 111.245L454.801 111.795C454.767 112.502 454.644 113.115 454.431 113.635L454.251 114.735L454.061 115.475L453.881 115.835L453.691 117.125L452.961 119.695L452.411 122.815L452.041 124.285L451.681 125.565L451.491 126.675L451.311 127.405L451.121 127.955L450.941 128.325L450.571 130.525L450.021 132.915L449.841 133.465C449.594 134.905 449.287 136.068 448.921 136.955V137.685C448.614 138.605 448.431 139.402 448.371 140.075L448.191 140.625L448.001 141.175L447.641 142.645L447.451 143.925L446.721 146.495L446.531 147.785L445.801 151.085H444.701H444.151H440.481H439.561H439.011H438.091H437.351H436.801H435.891H434.971H434.421H432.211H431.661C430.007 151.179 428.601 151.119 427.441 150.905V150.355L427.261 149.985V149.435L427.071 148.885L426.711 146.685L425.791 142.455L425.601 141.175C425.114 139.488 424.811 138.082 424.691 136.955L424.321 135.485L423.951 134.015L423.771 132.725L423.591 131.445L423.221 130.345V129.605L422.671 127.405V126.855C422.151 125.168 421.844 123.762 421.751 122.635L421.381 121.525V120.615C421.261 120.428 421.201 120.245 421.201 120.065L421.021 119.695L420.281 115.655L420.101 114.925L419.551 111.985L419.181 110.515L419.001 109.775V109.045L418.811 108.315L418.441 107.025V106.475L418.081 105.005L417.711 103.725L417.531 104.275L417.341 105.375L417.161 106.105L416.981 107.205L416.241 110.695L415.871 111.985V112.535L415.141 115.475L414.961 116.935L414.591 118.405L414.221 119.875L414.041 121.345L413.671 122.815L413.301 125.015C412.874 126.395 412.631 127.558 412.571 128.505L412.201 129.605L412.021 130.525V131.075C411.807 131.782 411.684 132.395 411.651 132.915C411.437 133.528 411.314 134.078 411.281 134.565L410.921 135.485L410.551 138.055L410.371 138.975L410.181 139.705L409.451 143.015L408.901 145.585L408.711 146.685L408.351 148.155L407.801 151.085H406.691H406.141H402.471H401.551H401.001H400.091H399.351H398.801H397.881H396.961H396.411H394.211H393.661C392.007 151.179 390.601 151.119 389.441 150.905L389.251 149.435C388.704 147.782 388.401 146.375 388.341 145.215C388.154 144.755 388.031 144.325 387.971 143.925L387.601 142.455L387.231 140.995L386.871 139.705L386.681 138.235L386.501 137.505C386.134 136.492 385.951 135.635 385.951 134.935L385.771 134.195L384.851 131.075V130.345C384.391 129.118 384.144 128.015 384.111 127.035C383.651 125.935 383.407 124.958 383.381 124.105L383.011 122.995L382.831 121.525C382.704 121.345 382.641 121.162 382.641 120.975L381.731 117.305L381.361 115.835V115.285C380.994 114.398 380.811 113.605 380.811 112.905C380.624 112.445 380.501 112.015 380.441 111.615L380.071 110.335L379.891 109.045C379.557 108.125 379.374 107.328 379.341 106.655C378.787 105.068 378.481 103.722 378.421 102.615L378.051 101.705L377.871 100.785L377.691 99.685L377.501 98.765C377.381 98.425 377.321 98.1183 377.321 97.845L376.951 97.115L376.401 94.175C376.094 93.255 375.911 92.4583 375.851 91.785C375.577 91.085 375.454 90.475 375.481 89.955C374.934 88.515 374.631 87.2283 374.571 86.095C374.264 85.3616 374.081 84.6883 374.021 84.075L373.831 83.525V82.975C373.524 82.2416 373.341 81.5683 373.281 80.955Z" fill="white"/>
<path d="M487.772 99.0439C496.159 98.4905 503.135 100.571 508.702 105.284L508.892 105.654C509.379 106.267 509.745 106.877 509.992 107.484C510.632 108.437 511.059 109.294 511.272 110.054V110.794C511.639 111.987 511.822 113.027 511.822 113.914V131.904C511.702 134.937 511.825 137.447 512.192 139.434C513.692 140.994 515.405 141.974 517.332 142.374L516.962 142.924L516.602 143.844L516.232 144.574L516.052 145.124L515.862 145.674L515.502 146.224L514.762 148.064L514.392 148.614L514.212 149.164L514.032 149.714L513.842 150.084L512.562 152.834C507.115 152.867 503.015 151.154 500.262 147.694C495.029 152.894 488.542 154.181 480.802 151.554C473.669 149.594 469.505 145.247 468.312 138.514C468.372 128.634 473.025 122.881 482.272 121.254C482.759 120.947 483.245 120.764 483.732 120.704H484.282C484.469 120.584 484.655 120.524 484.842 120.524L485.392 120.344L488.692 119.794L490.162 119.604L490.712 119.424L493.832 119.234C495.485 118.994 496.832 118.934 497.872 119.054C498.332 112.234 494.599 109.907 486.672 112.074L486.122 112.264L484.652 112.444L483.372 112.994L482.822 113.184L480.982 113.734C480.035 114.374 479.179 114.801 478.412 115.014C477.372 115.814 476.332 116.364 475.292 116.664L474.002 114.284L473.642 114.094L473.452 113.544L473.092 113.184L472.902 112.634C472.109 111.714 471.559 110.854 471.252 110.054C470.765 109.601 470.459 109.114 470.332 108.594C469.539 107.827 469.049 107.031 468.862 106.204L469.232 106.024L469.782 105.654L470.152 105.464C470.979 104.917 471.712 104.491 472.352 104.184C472.845 103.844 473.335 103.661 473.822 103.634L474.192 103.264C475.325 102.744 476.302 102.377 477.122 102.164L477.492 101.794H478.042C478.622 101.427 479.112 101.184 479.512 101.064H480.062C480.889 100.637 481.685 100.391 482.452 100.324C484.132 99.6239 485.722 99.2572 487.222 99.2239L487.772 99.0439ZM497.322 129.154L496.592 129.334H496.032C495.299 129.547 494.689 129.671 494.202 129.704H493.652C493.465 129.824 493.282 129.884 493.102 129.884L492.362 130.074H491.812L491.082 130.254L489.982 130.434C489.795 130.561 489.612 130.624 489.432 130.624L488.692 130.804L488.142 130.984C486.429 131.417 485.082 131.847 484.102 132.274C482.815 133.987 482.449 135.761 483.002 137.594C486.062 141.881 490.469 142.617 496.222 139.804L497.692 137.594L497.872 136.864V136.134V135.574V134.664V134.114V133.374V132.824V129.154" fill="white"/>
<path d="M550.252 99.532C558.639 99.2586 565.185 102.685 569.892 109.812L570.082 110.372L570.262 110.922L570.442 111.472C570.749 111.992 570.935 112.482 571.002 112.942L571.732 115.142V115.692C572.159 117.892 572.342 119.665 572.282 121.012V150.942H568.612H567.692H567.142H566.412H565.672H564.942H564.202H561.082H560.532H558.332V150.392V149.472V148.922V148.192V147.642V143.962V141.392V139.372V138.462V137.902V137.172V136.622V132.952V132.212V130.192V128.362V125.052V124.502V123.952V123.222V119.912V119.182C558.025 118.415 557.842 117.742 557.782 117.162C556.309 114.589 554.349 112.935 551.902 112.202C546.822 112.082 543.089 114.042 540.702 118.082L540.342 119.362V150.942H536.662H535.752H535.192H534.462H533.732H532.992H532.262H529.142H528.592H526.382V150.392V149.472V148.922V148.192V147.642V143.962V142.682V141.942V141.032V140.292V139.372V136.992V136.252V133.132V132.582V130.382V129.092V127.812V126.712V125.422V124.322V123.032V121.932V118.812V117.712V116.792V115.692V114.962V111.652V109.632V108.902V108.162V107.432V106.692V103.572V103.022V100.822H530.052H530.972H531.522H532.262H532.992H533.732H534.462H537.582H538.132H540.342C540.275 102.075 540.335 103.115 540.522 103.942C543.582 101.522 546.825 100.052 550.252 99.532Z" fill="white"/>
<path d="M118.14 76.8752H63.6401V174.875H118.14V76.8752Z" stroke="white" stroke-width="2" stroke-dasharray="5 5"/>
<path d="M167.14 76.8752H120.14V174.875H167.14V76.8752Z" stroke="white" stroke-width="2" stroke-dasharray="5 5"/>
<path d="M227.14 76.8752H169.14V174.875H227.14V76.8752Z" stroke="white" stroke-width="2" stroke-dasharray="5 5"/>
<path d="M282.14 76.8752H229.14V174.875H282.14V76.8752Z" stroke="white" stroke-width="2" stroke-dasharray="5 5"/>
<path d="M341.64 76.8752H284.14V174.875H341.64V76.8752Z" stroke="white" stroke-width="2" stroke-dasharray="5 5"/>
<path d="M366.64 76.8752H343.64V174.875H366.64V76.8752Z" stroke="white" stroke-width="2" stroke-dasharray="5 5"/>
<path d="M463.14 76.8752H368.64V174.875H463.14V76.8752Z" stroke="white" stroke-width="2" stroke-dasharray="5 5"/>
<path d="M518.64 76.8752H465.14V174.875H518.64V76.8752Z" stroke="white" stroke-width="2" stroke-dasharray="5 5"/>
<path d="M578.14 76.8752H520.64V174.875H578.14V76.8752Z" stroke="white" stroke-width="2" stroke-dasharray="5 5"/>
<path d="M628.89 134.375H647.64V71.8751H610.14V134.375H628.89ZM628.89 284.376H647.64V184.375H610.14V284.376H628.89ZM628.89 434.376H647.64V334.376H610.14V434.376H628.89ZM628.89 584.377H647.64V484.376H610.14V584.377H628.89Z" fill="white"/>
<path d="M342.489 580.377V665.715" stroke="#008000" stroke-width="2.24575"/>
<path d="M342.489 603.127V665.715" stroke="#008000" stroke-width="2.24575"/>
<path d="M342.489 647.749L369.438 641.012V654.487L342.489 647.749Z" fill="#008000"/>
<path d="M342.489 647.749L315.54 641.012V654.487L342.489 647.749Z" fill="#008000"/>
<path d="M325.52 693.083C324.079 693.083 322.85 692.691 321.836 691.906C320.822 691.115 320.046 689.969 319.511 688.47C318.975 686.964 318.707 685.146 318.707 683.015C318.707 680.897 318.975 679.088 319.511 677.589C320.053 676.083 320.831 674.935 321.846 674.144C322.866 673.346 324.091 672.948 325.52 672.948C326.95 672.948 328.171 673.346 329.186 674.144C330.207 674.935 330.985 676.083 331.521 677.589C332.063 679.088 332.334 680.897 332.334 683.015C332.334 685.146 332.066 686.964 331.53 688.47C330.994 689.969 330.219 691.115 329.205 691.906C328.19 692.691 326.962 693.083 325.52 693.083ZM325.52 690.977C326.95 690.977 328.06 690.288 328.851 688.91C329.642 687.532 330.037 685.567 330.037 683.015C330.037 681.318 329.856 679.873 329.492 678.68C329.135 677.487 328.618 676.578 327.942 675.953C327.272 675.327 326.465 675.015 325.52 675.015C324.104 675.015 322.997 675.713 322.2 677.111C321.402 678.501 321.003 680.47 321.003 683.015C321.003 684.712 321.182 686.154 321.539 687.341C321.897 688.528 322.41 689.43 323.08 690.049C323.756 690.668 324.57 690.977 325.52 690.977ZM346.421 681.408L344.392 681.982C344.265 681.644 344.077 681.315 343.828 680.996C343.585 680.671 343.254 680.403 342.832 680.192C342.411 679.982 341.872 679.876 341.215 679.876C340.316 679.876 339.566 680.084 338.966 680.498C338.373 680.907 338.076 681.427 338.076 682.058C338.076 682.62 338.28 683.063 338.689 683.389C339.097 683.714 339.735 683.985 340.603 684.202L342.785 684.738C344.099 685.057 345.078 685.545 345.723 686.202C346.367 686.853 346.689 687.692 346.689 688.719C346.689 689.561 346.447 690.314 345.962 690.977C345.483 691.641 344.813 692.164 343.952 692.547C343.091 692.93 342.089 693.121 340.947 693.121C339.448 693.121 338.207 692.796 337.224 692.145C336.242 691.494 335.62 690.544 335.358 689.293L337.502 688.757C337.706 689.548 338.092 690.142 338.66 690.537C339.234 690.933 339.984 691.131 340.909 691.131C341.962 691.131 342.797 690.907 343.416 690.461C344.041 690.008 344.354 689.465 344.354 688.834C344.354 688.323 344.175 687.896 343.818 687.551C343.461 687.201 342.912 686.939 342.172 686.767L339.722 686.193C338.376 685.874 337.387 685.379 336.756 684.709C336.13 684.033 335.818 683.188 335.818 682.173C335.818 681.344 336.051 680.61 336.516 679.972C336.988 679.334 337.63 678.833 338.44 678.47C339.257 678.106 340.182 677.924 341.215 677.924C342.67 677.924 343.812 678.243 344.641 678.881C345.477 679.519 346.07 680.361 346.421 681.408ZM353.419 692.815L348.94 678.115H351.314L354.491 689.37H354.644L357.783 678.115H360.195L363.295 689.331H363.449L366.626 678.115H368.999L364.52 692.815H362.3L359.085 681.522H358.855L355.639 692.815H353.419Z" fill="#008000"/>
<path d="M391 380.376H476.338" stroke="#FF0000" stroke-width="2.24575"/>
<path d="M409.25 318.376H476.338" stroke="#FF0000" stroke-width="2.24575"/>
<path d="M458.372 380.376V318.376" stroke="#FF0000" stroke-width="2.24575"/>
<path d="M458.372 380.376L451.635 407.325H465.109L458.372 380.376Z" fill="#FF0000"/>
<path d="M458.372 318.376L451.635 291.427H465.109L458.372 318.376Z" fill="#FF0000"/>
<path d="M488.087 356.264V354.541L494.556 347.46C495.315 346.63 495.941 345.909 496.432 345.297C496.923 344.678 497.287 344.097 497.523 343.555C497.765 343.006 497.887 342.432 497.887 341.832C497.887 341.143 497.721 340.547 497.389 340.043C497.064 339.539 496.617 339.15 496.049 338.875C495.481 338.601 494.843 338.464 494.135 338.464C493.382 338.464 492.725 338.62 492.164 338.933C491.609 339.239 491.178 339.67 490.872 340.225C490.572 340.78 490.422 341.43 490.422 342.177H488.164C488.164 341.029 488.428 340.021 488.958 339.153C489.487 338.285 490.208 337.609 491.121 337.124C492.039 336.639 493.07 336.397 494.212 336.397C495.36 336.397 496.378 336.639 497.265 337.124C498.151 337.609 498.847 338.263 499.351 339.086C499.855 339.909 500.107 340.824 500.107 341.832C500.107 342.553 499.976 343.258 499.714 343.947C499.459 344.63 499.013 345.392 498.375 346.235C497.743 347.07 496.866 348.091 495.743 349.297L491.341 354.005V354.158H500.451V356.264H488.087ZM506.088 356.417C505.616 356.417 505.211 356.248 504.873 355.91C504.535 355.572 504.365 355.167 504.365 354.694C504.365 354.222 504.535 353.817 504.873 353.479C505.211 353.141 505.616 352.972 506.088 352.972C506.56 352.972 506.965 353.141 507.303 353.479C507.642 353.817 507.811 354.222 507.811 354.694C507.811 355.007 507.731 355.294 507.571 355.556C507.418 355.817 507.211 356.028 506.949 356.187C506.694 356.34 506.407 356.417 506.088 356.417ZM517.555 356.532C516.432 356.532 515.421 356.309 514.522 355.862C513.622 355.415 512.901 354.803 512.359 354.025C511.816 353.246 511.52 352.359 511.469 351.364H513.766C513.855 352.251 514.257 352.985 514.971 353.565C515.692 354.139 516.554 354.426 517.555 354.426C518.359 354.426 519.074 354.238 519.699 353.862C520.331 353.485 520.825 352.969 521.182 352.312C521.546 351.648 521.728 350.898 521.728 350.063C521.728 349.208 521.54 348.445 521.163 347.775C520.793 347.099 520.283 346.566 519.632 346.177C518.981 345.788 518.238 345.59 517.402 345.584C516.802 345.577 516.187 345.67 515.555 345.861C514.923 346.046 514.404 346.286 513.995 346.579L511.775 346.311L512.962 336.665H523.144V338.77H514.952L514.263 344.55H514.378C514.78 344.231 515.284 343.967 515.89 343.756C516.496 343.545 517.128 343.44 517.785 343.44C518.984 343.44 520.053 343.727 520.991 344.301C521.935 344.869 522.675 345.648 523.211 346.637C523.753 347.625 524.025 348.755 524.025 350.024C524.025 351.275 523.744 352.391 523.182 353.374C522.627 354.35 521.862 355.122 520.886 355.69C519.909 356.251 518.799 356.532 517.555 356.532ZM538.277 344.857L536.248 345.431C536.12 345.093 535.932 344.764 535.683 344.445C535.441 344.12 535.109 343.852 534.688 343.641C534.267 343.431 533.728 343.325 533.07 343.325C532.171 343.325 531.421 343.533 530.822 343.947C530.228 344.356 529.932 344.876 529.932 345.507C529.932 346.069 530.136 346.512 530.544 346.837C530.952 347.163 531.59 347.434 532.458 347.651L534.64 348.187C535.954 348.506 536.934 348.994 537.578 349.651C538.222 350.302 538.545 351.141 538.545 352.168C538.545 353.01 538.302 353.763 537.817 354.426C537.339 355.09 536.669 355.613 535.807 355.996C534.946 356.379 533.945 356.57 532.803 356.57C531.303 356.57 530.062 356.245 529.08 355.594C528.097 354.943 527.475 353.993 527.214 352.742L529.357 352.206C529.562 352.997 529.948 353.591 530.515 353.986C531.09 354.382 531.839 354.58 532.764 354.58C533.817 354.58 534.653 354.356 535.272 353.91C535.897 353.457 536.209 352.914 536.209 352.283C536.209 351.772 536.031 351.345 535.674 351C535.316 350.65 534.768 350.388 534.027 350.216L531.578 349.641C530.231 349.322 529.243 348.828 528.611 348.158C527.986 347.482 527.673 346.637 527.673 345.622C527.673 344.793 527.906 344.059 528.372 343.421C528.844 342.783 529.485 342.282 530.295 341.919C531.112 341.555 532.037 341.373 533.07 341.373C534.525 341.373 535.667 341.692 536.497 342.33C537.332 342.968 537.926 343.81 538.277 344.857ZM545.275 356.264L540.796 341.564H543.169L546.346 352.819H546.5L549.638 341.564H552.05L555.151 352.78H555.304L558.481 341.564H560.854L556.376 356.264H554.155L550.94 344.971H550.71L547.495 356.264H545.275Z" fill="#FF0000"/>
<rect x="293.5" y="381.38" width="98" height="198" stroke="white" stroke-width="2" stroke-dasharray="10 10"/>
</g>
<defs>
<clipPath id="clip0_0_1">
<rect width="675" height="700" fill="white"/>
</clipPath>
</defs>
</svg>
