<svg width="1740" height="715" viewBox="0 0 1740 715" fill="none" xmlns="http://www.w3.org/2000/svg">
<path d="M20.0001 95C20.0001 53.5786 53.5787 20 95.0001 20H1645C1686.42 20 1720 53.5786 1720 95V620C1720 661.421 1686.42 695 1645 695H95.0001C53.5787 695 20.0001 661.421 20.0001 620V95Z" fill="black"/>
<path d="M57.5001 95C57.5001 74.2893 74.2894 57.5 95.0001 57.5H1645C1665.71 57.5 1682.5 74.2893 1682.5 95V620C1682.5 640.711 1665.71 657.5 1645 657.5H95.0001C74.2894 657.5 57.5001 640.711 57.5001 620V95Z" fill="white"/>
<path d="M1324.08 377.5H1436.58V452.5C1438.8 522.665 1392.06 584.985 1324.08 602.5C1256.1 584.985 1209.36 522.665 1211.58 452.5V377.5H1324.08Z" fill="#E9B500"/>
<path d="M1288.41 413.176L1288.78 412.809H1291.35H1297.59H1300.53H1303.1H1304.2H1305.3H1312.65H1315.58H1318.52H1319.62H1320.72H1332.11H1334.68H1336.88H1339.45H1341.65H1343.49H1345.69H1347.16H1353.77H1357.81H1359.28H1360.75H1362.22H1363.69H1369.93H1371.03H1375.44V439.246H1373.97H1367.36H1364.79H1357.44H1355.61H1353.4H1351.57H1350.1H1349H1341.65H1340.19H1339.08H1332.47H1327.7H1326.23H1319.99H1318.89H1314.48L1313.01 440.348L1312.65 445.488L1312.28 446.59L1311.91 448.793L1311.54 451.363L1310.44 459.441C1324.46 450.935 1338.41 449.344 1352.3 454.668C1365.4 460.482 1374.33 469.417 1379.11 481.473C1387.61 526.27 1373.29 551.238 1336.15 556.379C1304.69 558.276 1285.23 545.425 1277.76 517.824L1285.84 515.254H1286.94C1287.92 514.642 1288.9 514.275 1289.88 514.152L1291.35 513.785L1292.82 513.418L1293.55 513.051L1296.49 512.316L1299.43 511.582C1301.63 510.481 1303.71 509.869 1305.67 509.746C1306.46 514.948 1308.42 519.232 1311.54 522.598C1320.72 531.349 1330.39 532.695 1340.55 526.637C1351.08 518.314 1354.63 507.788 1351.2 495.059C1347.41 485.573 1340.92 480.065 1331.74 478.535C1320.72 477.862 1312.65 481.901 1307.51 490.652L1305.67 490.285H1304.2C1301.45 489.612 1299.12 489.245 1297.22 489.184L1292.08 488.082H1290.98C1289.82 487.837 1288.84 487.715 1288.04 487.715L1287.31 487.348H1285.84L1284.74 486.981H1283.64L1281.07 486.246L1277.76 485.879V484.777L1278.13 483.309V482.207L1278.86 479.637L1279.23 476.332L1279.6 473.395L1279.97 471.926L1280.7 465.684C1280.95 464.521 1281.07 463.542 1281.07 462.746L1281.44 460.176L1281.8 459.441C1281.92 456.871 1282.29 454.668 1282.9 452.832V450.629C1283.39 448.671 1283.64 446.957 1283.64 445.488L1284.01 444.754L1284.37 442.184V441.082C1284.62 439.919 1284.74 438.94 1284.74 438.145L1285.11 435.941L1285.47 434.473V433.371C1285.84 432.392 1285.96 431.413 1285.84 430.434L1286.21 428.598L1286.58 427.496V426.027L1286.94 424.926L1287.68 418.684C1287.92 417.521 1288.04 416.542 1288.04 415.746L1288.41 413.176Z" fill="black"/>
<path d="M216.325 471.943V453.713H322.305V471.943H216.325ZM202.605 508.163V490.393H337.145V508.163H202.605ZM171.775 545.963V527.513H367.525V545.963H171.775ZM199.445 421.763V404.663H277.755V421.763H199.445ZM259.525 416.143V404.663H282.705C287.498 410.816 293.308 416.779 300.135 422.553C306.962 428.326 314.502 433.689 322.755 438.643C331.002 443.589 339.625 448.013 348.625 451.913C357.625 455.813 366.702 459.113 375.855 461.813C374.202 463.013 372.325 464.589 370.225 466.543C368.125 468.489 366.098 470.513 364.145 472.613C362.198 474.713 360.625 476.663 359.425 478.463C347.425 474.116 335.575 468.716 323.875 462.263C312.175 455.816 301.338 448.656 291.365 440.783C281.392 432.903 272.802 424.689 265.595 416.143H259.525ZM254.575 406.913L273.925 414.343C266.578 424.243 257.655 433.393 247.155 441.793C236.655 450.193 225.442 457.616 213.515 464.063C201.588 470.516 189.552 476.143 177.405 480.943C176.352 479.443 174.925 477.643 173.125 475.543C171.325 473.443 169.452 471.379 167.505 469.353C165.552 467.326 163.825 465.713 162.325 464.513C174.625 460.766 186.625 456.043 198.325 450.343C210.025 444.643 220.712 438.116 230.385 430.763C240.065 423.416 248.128 415.466 254.575 406.913ZM258.175 540.343V462.043H280.005V540.343H258.175ZM170.205 381.493V361.913H369.105V381.493H170.205ZM218.125 400.163V344.813H239.275V400.163H218.125ZM298.675 401.293V344.813H319.825V401.293" fill="black"/>
<path d="M542.845 360.338V349.308H582.215V360.338H542.845ZM541.495 397.008V386.208H583.795V397.008H541.495ZM541.495 413.888V403.308H583.795V413.888H541.495ZM508.645 520.538V506.808H622.715V520.538H508.645ZM534.975 379.238V367.308H588.965V379.238H534.975ZM570.295 431.658H554.325V444.488H570.295V431.658ZM541.045 454.838V421.308H584.025V454.838H541.045ZM512.475 497.358V484.538H605.845V474.858H498.525V462.038H625.645V497.358H512.475ZM504.825 457.988V406.908H518.995V457.988H504.825ZM484.345 414.788L482.765 401.058C489.372 400.758 496.762 400.458 504.935 400.158C513.108 399.858 521.768 399.484 530.915 399.038V411.408C522.522 412.161 514.385 412.761 506.505 413.208C498.632 413.661 491.245 414.188 484.345 414.788ZM506.395 484.538H526.195C524.395 491.738 522.445 499.238 520.345 507.038C518.245 514.838 516.295 521.588 514.495 527.288L495.375 524.588C497.475 519.034 499.498 512.621 501.445 505.348C503.398 498.074 505.048 491.138 506.395 484.538ZM615.965 509.058V506.808H635.995C635.995 506.808 635.922 507.821 635.775 509.848C635.622 511.874 635.322 513.561 634.875 514.908C632.768 524.208 630.592 531.521 628.345 536.848C626.092 542.174 623.465 546.038 620.465 548.438C617.918 550.238 615.182 551.474 612.255 552.148C609.335 552.821 605.848 553.234 601.795 553.388C598.348 553.534 593.435 553.571 587.055 553.498C580.682 553.424 573.895 553.238 566.695 552.938C566.542 550.538 565.942 547.838 564.895 544.838C563.848 541.838 562.575 539.138 561.075 536.738C568.122 537.484 574.945 537.934 581.545 538.088C588.145 538.234 592.795 538.308 595.495 538.308C597.895 538.308 599.845 538.234 601.345 538.088C602.845 537.934 604.122 537.484 605.175 536.738C607.275 535.084 609.185 532.121 610.905 527.848C612.632 523.574 614.318 517.311 615.965 509.058ZM521.695 422.888L532.495 420.408C533.695 424.161 534.858 428.288 535.985 432.788C537.105 437.288 537.968 441.188 538.575 444.488L526.875 447.638C526.568 444.184 525.928 440.171 524.955 435.598C523.982 431.024 522.895 426.788 521.695 422.888ZM521.025 392.288L530.695 388.688C532.648 392.434 534.448 396.634 536.095 401.288C537.748 405.934 538.875 409.984 539.475 413.438L528.895 417.488C528.448 414.034 527.475 409.984 525.975 405.338C524.475 400.684 522.825 396.334 521.025 392.288ZM485.015 374.508L492.225 363.708C496.572 366.561 500.845 369.824 505.045 373.498C509.245 377.171 512.395 380.358 514.495 383.058L506.395 395.438C504.148 392.284 500.998 388.758 496.945 384.858C492.898 380.958 488.922 377.508 485.015 374.508ZM506.395 344.138L519.225 350.438C516.225 355.384 513.225 360.408 510.225 365.508C507.225 370.608 504.372 374.884 501.665 378.338L491.765 373.158C494.172 369.258 496.798 364.498 499.645 358.878C502.492 353.251 504.742 348.338 506.395 344.138ZM520.795 362.808L533.395 370.008C528.448 376.761 523.162 383.888 517.535 391.388C511.908 398.888 506.618 405.188 501.665 410.288L492.225 404.438C495.372 400.684 498.745 396.408 502.345 391.608C505.945 386.808 509.358 381.858 512.585 376.758C515.805 371.658 518.542 367.008 520.795 362.808ZM489.975 419.508L503.245 422.438C501.898 428.284 500.248 434.134 498.295 439.988C496.348 445.834 494.248 450.858 491.995 455.058C490.648 454.158 488.698 453.148 486.145 452.028C483.598 450.901 481.498 449.961 479.845 449.208C482.398 445.008 484.498 440.321 486.145 435.148C487.798 429.974 489.075 424.761 489.975 419.508ZM608.775 457.988V406.908H623.175V457.988H608.775ZM588.075 414.788L586.715 401.058C593.622 400.758 601.385 400.458 610.005 400.158C618.632 399.858 627.822 399.558 637.575 399.258L637.345 411.638C628.498 412.238 619.912 412.801 611.585 413.328C603.258 413.848 595.422 414.334 588.075 414.788ZM626.325 422.888L637.795 419.508C639.742 424.008 641.655 428.958 643.535 434.358C645.408 439.758 646.718 444.408 647.465 448.308L635.545 452.138C634.945 448.238 633.745 443.511 631.945 437.958C630.145 432.411 628.272 427.388 626.325 422.888ZM624.525 391.838L635.095 387.108C637.648 391.008 640.012 395.321 642.185 400.048C644.358 404.774 645.895 408.938 646.795 412.538L635.325 417.708C634.572 414.108 633.182 409.871 631.155 404.998C629.135 400.124 626.925 395.738 624.525 391.838ZM587.175 374.058L594.825 363.938C598.725 366.638 602.625 369.751 606.525 373.278C610.425 376.798 613.425 379.984 615.525 382.838L606.745 394.538C604.798 391.538 601.985 388.088 598.305 384.188C594.632 380.288 590.922 376.911 587.175 374.058ZM609.215 344.358L622.045 350.888C618.898 355.834 615.748 360.821 612.595 365.848C609.448 370.874 606.448 375.188 603.595 378.788L593.695 373.608C596.248 369.708 599.025 364.948 602.025 359.328C605.025 353.701 607.422 348.711 609.215 344.358ZM625.195 361.908L637.795 369.108C632.695 375.861 627.145 382.988 621.145 390.488C615.145 397.988 609.445 404.288 604.045 409.388L594.825 403.538C598.272 399.784 601.872 395.508 605.625 390.708C609.372 385.908 612.972 380.958 616.425 375.858C619.872 370.758 622.795 366.108 625.195 361.908ZM593.695 419.508L606.745 422.658C605.698 428.211 604.198 433.874 602.245 439.648C600.298 445.421 598.198 450.334 595.945 454.388C594.745 453.634 592.945 452.621 590.545 451.348C588.145 450.074 586.045 449.061 584.245 448.308C586.645 444.108 588.595 439.534 590.095 434.588C591.595 429.634 592.795 424.608 593.695 419.508ZM440.695 361.688L453.065 347.738C456.818 349.684 460.758 352.048 464.885 354.828C469.012 357.601 472.875 360.374 476.475 363.148C480.075 365.921 482.998 368.584 485.245 371.138L472.425 386.888C470.318 384.334 467.505 381.558 463.985 378.558C460.458 375.558 456.672 372.598 452.625 369.678C448.572 366.751 444.595 364.088 440.695 361.688ZM435.975 421.758L447.675 407.138C451.575 408.938 455.662 411.151 459.935 413.778C464.208 416.398 468.182 419.021 471.855 421.648C475.535 424.274 478.575 426.788 480.975 429.188L468.595 445.388C466.348 442.988 463.385 440.361 459.705 437.508C456.032 434.661 452.095 431.851 447.895 429.078C443.695 426.298 439.722 423.858 435.975 421.758ZM459.595 550.908L440.465 540.108C443.318 534.108 446.358 527.134 449.585 519.188C452.812 511.234 456.112 502.834 459.485 493.988C462.858 485.134 465.972 476.434 468.825 467.888L485.695 478.688C483.295 486.634 480.595 494.808 477.595 503.208C474.595 511.608 471.595 519.858 468.595 527.958C465.595 536.058 462.595 543.708 459.595 550.908Z" fill="black"/>
<path d="M402.5 328.5H129.5V611.5H402.5V328.5Z" stroke="black" stroke-width="2" stroke-dasharray="10 10"/>
<path d="M677.5 328.5H404.5V611.5H677.5V328.5Z" stroke="black" stroke-width="2" stroke-dasharray="10 10"/>
<path d="M130.906 137.868H132.376H133.836H134.946H136.406H143.016H144.486H151.096H153.296H155.876H163.216H166.156H169.086H172.026H174.966H182.306H183.406H184.516H195.896H198.466H200.666H203.236H205.446H207.276H209.476H210.946H217.556H221.596H223.066H224.536H226.006H227.476H233.716H234.816H239.226V165.768H237.016H235.916H228.576H223.796H222.336H215.726H214.256H212.786H211.316H205.076H203.976H199.566V278.498H194.796H193.326H186.716H185.246H183.776H182.306H176.066H174.966H170.556V275.928V274.828V272.988V271.888V270.418V269.318V261.978V260.508V253.898V251.698V249.128V241.778V238.838V235.908V232.968V230.028V222.688V221.588V220.488V209.098V206.528V204.328V201.758V199.558V197.718V195.518V194.048V187.438V183.398V181.928V180.458V178.988V177.518V171.278V170.178V165.768H168.356H167.256H159.906H155.136H153.666H147.056H145.586H144.126H142.656H136.406H135.306H130.906V158.428V156.588V155.488V154.018V152.558V151.088V149.618V143.378V142.268" fill="black"/>
<path d="M285.803 176.016C304.53 174.916 320.073 179.936 332.433 191.076L331.333 192.176L330.233 193.276C329.433 194.376 328.697 195.232 328.023 195.846L326.553 197.316L325.453 198.416C324.353 199.882 323.253 200.982 322.153 201.716L321.783 202.456L321.053 203.556L320.313 203.926L315.543 209.436C299.57 196.156 287.207 194.809 278.453 205.396C278.393 208.209 279.007 210.656 280.293 212.736L281.763 213.106L282.863 213.836H283.963L285.063 214.206L288.003 214.576L293.883 216.036C307.283 216.162 318.173 220.326 326.553 228.526C333.593 238.992 335.063 249.519 330.963 260.106C326.923 269.286 320.68 275.406 312.233 278.466C284.76 286.232 261.75 281.336 243.203 263.776C244.37 262.242 245.473 261.019 246.513 260.106L247.983 259.366C249.51 257.286 251.223 255.696 253.123 254.596L254.223 253.126L254.953 252.396L255.693 251.656L256.423 250.926L257.163 250.556L257.893 250.186C259.667 247.926 261.38 246.212 263.033 245.046C275.273 257.106 287.637 261.269 300.123 257.536L300.483 256.796C302.197 255.696 303.543 254.349 304.523 252.756C304.77 249.022 303.547 246.209 300.853 244.316H299.753L299.023 243.576H297.913L296.813 243.216L296.083 242.476C292.35 241.862 289.29 241.129 286.903 240.276C265.297 239.296 253.18 229.749 250.553 211.636C250.86 189.849 262.61 177.976 285.803 176.016Z" fill="black"/>
<path d="M352.117 178.259H353.587H355.417H356.887H358.727H360.197H362.027H366.797H368.267H374.517H377.447H380.017L380.387 243.989C386.814 256.349 396.117 259.039 408.297 252.059C411.964 249.125 414.534 245.699 416.007 241.779V240.679V233.339V230.769V228.199V226.729V224.889V220.119V218.649V212.409V211.309V206.899V205.429V203.959V202.859V196.249V191.479V190.009V183.769V182.659V178.259H423.347H425.187H426.287H427.757H429.227H430.697H432.157H438.407H439.507H443.907V278.499H436.567H434.727H433.627H432.157H430.697H429.227H427.757H421.517H420.407H416.007V271.889C401.441 282.415 386.874 283.639 372.307 275.559C365.701 271.339 360.807 266.322 357.627 260.509L356.887 260.139L356.517 259.039L356.157 257.939C355.604 256.712 355.234 255.732 355.047 254.999L354.687 253.899C353.521 250.105 352.784 247.045 352.477 244.719L352.117 236.639V234.069V231.869V225.629V224.519V220.119V215.339V213.879V207.629V206.529V202.129V198.089V196.249V191.479V190.009V183.769V182.659" fill="black"/>
<path d="M505.699 176.188C535.625 175.755 552.639 190.318 556.739 219.878L557.849 224.648V227.218C558.335 231.565 558.455 235.115 558.209 237.868L557.109 237.508H556.009H548.669H547.559H546.459H535.079H532.509H530.309H527.739H525.529H523.699H521.489H520.019H513.419H509.379H507.909H506.439H504.969H503.499H497.259H496.159H491.749C493.095 248.155 498.602 254.518 508.269 256.598C520.329 258.432 530.365 255.372 538.379 247.418L541.319 250.718C542.485 251.518 543.342 252.375 543.889 253.288L544.629 253.658L544.989 254.398C546.215 255.312 547.195 256.168 547.929 256.968L548.669 258.068C549.095 258.315 549.339 258.558 549.399 258.798L550.129 259.168L550.869 259.898L551.239 260.638L551.969 261.008L552.339 261.738C553.559 262.658 554.535 263.515 555.269 264.308C543.709 278.995 527.799 284.502 507.539 280.828C482.752 276.608 468.675 261.555 465.309 235.668C463.109 202.868 476.572 183.042 505.699 176.188ZM511.949 198.948C500.689 200.722 494.079 206.718 492.119 216.938H494.319H496.889H501.669H513.049H518.189H519.289H521.129H522.229H523.699H524.799H532.139C529.385 205.925 522.655 199.928 511.949 198.948Z" fill="black"/>
<path d="M630.224 175.939C646.991 175.386 660.088 182.239 669.514 196.499L669.884 197.599L670.244 198.699L670.614 199.809C671.228 200.849 671.594 201.826 671.714 202.739L673.184 207.149V208.249C674.038 212.656 674.404 216.206 674.284 218.899V278.749H666.944H665.104H664.004H662.534H661.064H659.594H658.134H651.884H650.784H646.384V277.649V275.809V274.709V273.239V272.139V264.799V259.659V255.619V253.779V252.679V251.209V250.109V242.769V241.299V237.259V233.589V226.979V225.879V224.769V223.309V216.699V215.229C645.771 213.696 645.401 212.349 645.274 211.189C642.341 206.049 638.424 202.742 633.524 201.269C623.371 201.029 615.908 204.946 611.134 213.019L610.394 215.589V278.749H603.054H601.214H600.114H598.644H597.174H595.704H594.234H587.994H586.894H582.484V277.649V275.809V274.709V273.239V272.139V264.799V262.229V260.759V258.919V257.449V255.619V250.839V249.379V243.129V242.029V237.629V235.059V232.489V230.279V227.709V225.509V222.939V220.739V214.489V212.289V210.449V208.249V206.779V200.169V196.129V194.659V193.199V191.729V190.259V184.019V182.909V178.509H589.834H591.664H592.774H594.234H595.704H597.174H598.644H604.884H605.984H610.394C610.274 181.016 610.398 183.096 610.764 184.749C616.884 179.916 623.371 176.979 630.224 175.939Z" fill="black"/>
<path d="M749.281 138.773H751.121H753.321H755.161H756.261H758.091H759.561H760.661H762.501H764.341H765.441H769.841H770.951C774.251 138.593 777.065 138.716 779.391 139.143V140.243L780.861 146.483L781.231 148.693C781.471 149.06 781.591 149.426 781.591 149.793L781.961 150.893L782.331 151.623L782.701 153.463L783.801 159.333L784.161 160.073V161.173C785.081 163.38 785.571 165.46 785.631 167.413L786.371 169.623V170.723C787.285 172.923 787.775 175.003 787.841 176.963L788.571 178.803L788.941 180.633L789.301 182.833C790.408 186.14 791.021 188.956 791.141 191.283C791.935 193.183 792.425 194.896 792.611 196.423C792.978 197.956 793.221 199.303 793.341 200.463C794.261 202.73 794.751 204.81 794.811 206.703C795.365 208.11 795.731 209.333 795.911 210.373C796.278 211.906 796.525 213.253 796.651 214.413C797.445 216.74 797.935 218.7 798.121 220.293L798.481 222.123L799.591 225.803L799.951 228.373L801.421 233.513L801.791 231.673L802.161 230.573V229.473L802.521 228.373C802.955 225.74 803.445 223.536 803.991 221.763V220.293L804.361 219.193L805.461 214.413V213.313L805.831 211.843L806.201 210.743L806.561 209.643V208.543L807.301 205.973V204.873C807.668 203.46 807.911 202.233 808.031 201.193C808.458 199.973 808.705 198.873 808.771 197.893C809.565 195.02 810.051 192.573 810.231 190.553L810.601 188.713L810.971 187.613L813.171 176.963L813.541 175.123L813.911 174.023C814.218 172.13 814.585 170.54 815.011 169.253V168.153L815.741 165.213L817.211 157.873L817.581 157.133L818.311 152.733L818.681 151.623V150.523L819.781 146.853C820.028 144.526 820.395 142.57 820.881 140.983L821.251 138.773H823.091H825.291H826.761H833.371H837.411H838.881H840.341H841.811H843.281H849.521H850.631H855.031L855.401 141.343L856.131 143.913V145.383C857.051 148.75 857.665 151.566 857.971 153.833L859.071 158.973L860.171 163.373L860.541 165.213L860.911 167.783L861.271 169.983L861.641 172.193L862.381 174.023L862.741 176.233L863.111 178.063V179.163C863.358 179.53 863.481 179.896 863.481 180.263C863.968 181.736 864.211 183.083 864.211 184.303C864.458 184.67 864.581 185.04 864.581 185.413L864.951 186.143V187.243L865.681 190.183L866.411 194.583L867.151 196.793L867.521 198.993V200.093L868.251 203.033L868.621 205.233C869.355 207.193 869.721 209.03 869.721 210.743L870.091 212.213C870.765 214.046 871.131 215.636 871.191 216.983L871.551 218.083L871.921 221.023L872.661 223.963L873.021 226.163C874.001 228.983 874.491 231.433 874.491 233.513L875.591 231.303V229.833L876.331 226.903L876.701 225.803L877.061 224.693C877.308 222.673 877.675 220.96 878.161 219.553L878.901 216.623L879.271 214.413L879.631 213.683L880.001 211.113L881.471 205.973L881.841 203.403L882.571 200.833L882.941 198.263L883.671 195.693L884.041 194.223L884.771 191.283L886.981 182.103L887.341 179.903L888.081 176.963L888.811 174.393L889.181 172.193L889.911 169.983L890.281 168.513V167.053L890.651 165.583L891.021 164.483L891.381 163.743L892.121 159.333L892.851 156.403L893.591 153.833V152.733L893.951 151.623L894.321 150.523V149.423L895.051 146.853L895.421 145.753V144.653C896.281 142.386 896.771 140.426 896.891 138.773H898.361H904.971H909.011H910.481H911.951H913.411H914.881H921.131H922.231H926.631V139.873L926.271 142.083L925.161 145.013L924.801 147.583L923.701 152.733L923.331 153.833C922.778 156.646 922.165 158.97 921.491 160.803C921.431 162.21 921.188 163.436 920.761 164.483L918.551 174.023L918.191 175.123V176.233L917.821 178.433L917.091 181.373C916.478 183.086 916.108 184.553 915.981 185.773L915.621 186.513L915.251 189.083C914.638 191.103 914.271 192.816 914.151 194.223C913.598 195.63 913.231 196.853 913.051 197.893L912.681 199.363L912.311 200.463C912.251 201.87 912.008 203.093 911.581 204.133L911.211 206.333L910.841 207.803L910.481 208.543L910.111 211.113L908.641 216.253L907.541 222.493L906.801 225.433L906.071 228.003L905.701 230.203L905.341 231.673L904.971 232.773L904.601 233.513L903.871 237.913L902.771 242.693L902.401 243.793C901.908 246.666 901.295 248.99 900.561 250.763V252.233C899.948 254.073 899.581 255.666 899.461 257.013L899.091 258.113L898.731 259.213L897.991 262.153L897.631 264.723L896.161 269.863L895.791 272.433L894.321 279.043H892.121H891.021H883.671H881.841H880.731H878.901H877.431H876.331H874.491H872.661H871.551H867.151H866.051C862.745 279.223 859.928 279.1 857.601 278.673V277.573L857.231 276.833V275.733L856.871 274.633L856.131 270.233L854.301 261.783L853.931 259.213C852.951 255.846 852.338 253.03 852.091 250.763L851.361 247.833L850.631 244.893L850.261 242.323L849.891 239.753L849.161 237.553V236.083L848.051 231.673V230.573C847.011 227.206 846.401 224.39 846.221 222.123L845.481 219.923V218.083C845.241 217.716 845.121 217.35 845.121 216.983L844.751 216.253L843.281 208.173L842.911 206.703L841.811 200.833L841.081 197.893L840.711 196.423V194.953L840.341 193.483L839.611 190.913V189.813L838.881 186.873L838.141 184.303L837.771 185.413L837.411 187.613L837.041 189.083L836.671 191.283L835.201 198.263L834.471 200.833V201.933L833.001 207.803L832.631 210.743L831.901 213.683L831.161 216.623L830.801 219.553L830.061 222.493L829.331 226.903C828.471 229.656 827.981 231.98 827.861 233.873L827.131 236.083L826.761 237.913V239.013C826.335 240.426 826.088 241.653 826.021 242.693C825.595 243.913 825.351 245.013 825.291 245.993L824.551 247.833L823.821 252.973L823.451 254.803L823.091 256.273L821.621 262.883L820.521 268.023L820.151 270.233L819.411 273.163L818.311 279.043H816.111H815.011H807.661H805.831H804.731H802.891H801.421H800.321H798.481H796.651H795.551H791.141H790.041C786.735 279.223 783.918 279.1 781.591 278.673L781.231 275.733C780.125 272.433 779.511 269.62 779.391 267.293C779.025 266.373 778.781 265.516 778.661 264.723L777.921 261.783L777.191 258.843L776.451 256.273L776.091 253.333L775.721 251.873C774.988 249.853 774.621 248.14 774.621 246.733L774.251 245.263L772.411 239.013V237.553C771.498 235.1 771.011 232.896 770.951 230.943C770.031 228.736 769.541 226.776 769.481 225.063L768.741 222.863L768.381 219.923C768.135 219.556 768.011 219.19 768.011 218.823L766.171 211.483L765.441 208.543V207.443C764.708 205.663 764.341 204.07 764.341 202.663C763.975 201.75 763.728 200.893 763.601 200.093L762.871 197.523L762.501 194.953C761.828 193.12 761.461 191.53 761.401 190.183C760.301 187.003 759.688 184.31 759.561 182.103L758.831 180.263L758.461 178.433L758.091 176.233L757.731 174.393C757.485 173.72 757.361 173.106 757.361 172.553L756.631 171.083L755.521 165.213C754.915 163.38 754.548 161.79 754.421 160.443C753.875 159.036 753.631 157.81 753.691 156.763C752.591 153.89 751.978 151.32 751.851 149.053C751.238 147.586 750.871 146.24 750.751 145.013L750.381 143.913V142.813C749.768 141.346 749.401 140 749.281 138.773Z" fill="black"/>
<path d="M978.274 174.953C995.04 173.853 1008.99 178.013 1020.13 187.433L1020.49 188.173C1021.47 189.393 1022.21 190.616 1022.7 191.843C1023.98 193.743 1024.84 195.456 1025.27 196.983V198.453C1026.01 200.84 1026.37 202.92 1026.37 204.693V240.683C1026.13 246.736 1026.37 251.753 1027.1 255.733C1030.1 258.853 1033.53 260.813 1037.38 261.613L1036.65 262.713L1035.91 264.543L1035.18 266.013L1034.81 267.113L1034.45 268.223L1033.71 269.323L1032.24 272.993L1031.51 274.093L1031.14 275.193L1030.77 276.293L1030.41 277.033L1027.84 282.543C1016.95 282.603 1008.75 279.173 1003.23 272.253C992.774 282.66 979.8 285.233 964.314 279.973C950.054 276.053 941.73 267.36 939.344 253.893C939.47 234.126 948.774 222.623 967.254 219.383C968.234 218.77 969.214 218.403 970.194 218.283H971.294C971.66 218.036 972.027 217.913 972.394 217.913L973.494 217.543L980.104 216.443L983.044 216.073L984.144 215.713L990.384 215.343C993.69 214.856 996.384 214.733 998.464 214.973C999.384 201.326 991.917 196.676 976.064 201.023L974.964 201.393L972.024 201.753L969.454 202.863L968.354 203.223L964.684 204.323C962.784 205.61 961.07 206.466 959.544 206.893C957.464 208.486 955.384 209.59 953.304 210.203L950.734 205.433L949.994 205.063L949.634 203.963L948.894 203.223L948.524 202.123C946.937 200.29 945.837 198.576 945.224 196.983C944.244 196.063 943.63 195.083 943.384 194.043C941.797 192.516 940.82 190.926 940.454 189.273L941.184 188.903L942.284 188.173L943.024 187.803C944.67 186.703 946.137 185.846 947.424 185.233C948.404 184.56 949.384 184.193 950.364 184.133L951.094 183.393C953.36 182.353 955.32 181.62 956.974 181.193L957.704 180.463H958.804C959.97 179.73 960.95 179.24 961.744 178.993H962.844C964.497 178.133 966.09 177.643 967.624 177.523C970.99 176.116 974.17 175.383 977.164 175.323L978.274 174.953ZM997.364 235.173L995.894 235.543H994.794C993.327 235.97 992.104 236.213 991.124 236.273H990.024C989.65 236.52 989.28 236.643 988.914 236.643L987.454 237.003H986.344L984.884 237.373L982.674 237.743C982.307 237.99 981.94 238.113 981.574 238.113L980.104 238.473L979.004 238.843C975.577 239.703 972.884 240.56 970.924 241.413C968.357 244.84 967.624 248.39 968.724 252.063C974.844 260.63 983.657 262.1 995.164 256.473L998.094 252.063L998.464 250.593V249.123V248.023V246.183V245.083V243.613V242.513V235.173" fill="black"/>
<path d="M1103.22 175.939C1119.99 175.386 1133.09 182.239 1142.51 196.499L1142.88 197.599L1143.24 198.699L1143.61 199.809C1144.23 200.849 1144.59 201.826 1144.71 202.739L1146.18 207.149V208.249C1147.04 212.656 1147.4 216.206 1147.28 218.899V278.749H1139.94H1138.1H1137H1135.53H1134.06H1132.59H1131.13H1124.88H1123.78H1119.38V277.649V275.809V274.709V273.239V272.139V264.799V259.659V255.619V253.779V252.679V251.209V250.109V242.769V241.299V237.259V233.589V226.979V225.879V224.769V223.309V216.699V215.229C1118.77 213.696 1118.4 212.349 1118.27 211.189C1115.34 206.049 1111.42 202.742 1106.52 201.269C1096.37 201.029 1088.91 204.946 1084.13 213.019L1083.39 215.589V278.749H1076.05H1074.21H1073.11H1071.64H1070.17H1068.7H1067.23H1060.99H1059.89H1055.48V277.649V275.809V274.709V273.239V272.139V264.799V262.229V260.759V258.919V257.449V255.619V250.839V249.379V243.129V242.029V237.629V235.059V232.489V230.279V227.709V225.509V222.939V220.739V214.489V212.289V210.449V208.249V206.779V200.169V196.129V194.659V193.199V191.729V190.259V184.019V182.909V178.509H1062.83H1064.66H1065.77H1067.23H1068.7H1070.17H1071.64H1077.88H1078.98H1083.39C1083.27 181.016 1083.4 183.096 1083.76 184.749C1089.88 179.916 1096.37 176.979 1103.22 175.939Z" fill="black"/>
<path d="M240.5 128.5H129.5V326.5H240.5V128.5Z" stroke="black" stroke-width="2" stroke-dasharray="10 10"/>
<path d="M338.5 128.5H242.5V326.5H338.5V128.5Z" stroke="black" stroke-width="2" stroke-dasharray="10 10"/>
<path d="M458.5 128.5H340.5V326.5H458.5V128.5Z" stroke="black" stroke-width="2" stroke-dasharray="10 10"/>
<path d="M568.5 128.5H460.5V326.5H568.5V128.5Z" stroke="black" stroke-width="2" stroke-dasharray="10 10"/>
<path d="M687.5 128.5H570.5V326.5H687.5V128.5Z" stroke="black" stroke-width="2" stroke-dasharray="10 10"/>
<path d="M737.5 128.5H689.5V326.5H737.5V128.5Z" stroke="black" stroke-width="2" stroke-dasharray="10 10"/>
<path d="M930.5 128.5H739.5V326.5H930.5V128.5Z" stroke="black" stroke-width="2" stroke-dasharray="10 10"/>
<path d="M1041.5 128.5H932.5V326.5H1041.5V128.5Z" stroke="black" stroke-width="2" stroke-dasharray="10 10"/>
<path d="M1160.5 128.5H1043.5V326.5H1160.5V128.5Z" stroke="black" stroke-width="2" stroke-dasharray="10 10"/>
<path d="M1611.5 227.5L1511.5 327.5H1411.5L1478.17 260.833H1211.5V194.167H1478.17L1411.5 127.5H1511.5L1611.5 227.5Z" fill="black"/>
<path d="M1211.5 127.5V204.492" stroke="#008000" stroke-width="2.02611"/>
<path d="M1161.5 127.5V204.492" stroke="#008000" stroke-width="2.02611"/>
<path d="M1211.5 188.283H1161.5" stroke="#008000" stroke-width="2.02611"/>
<path d="M1211.5 188.283L1235.81 182.205V194.362L1211.5 188.283Z" fill="#008000"/>
<path d="M1161.5 188.283L1137.19 182.205V194.362L1161.5 188.283Z" fill="#008000"/>
<path d="M1160.16 218.693V220.593H1152.42V218.693H1160.16ZM1162.88 228.484V226.93L1168.71 220.541C1169.4 219.793 1169.96 219.142 1170.41 218.59C1170.85 218.032 1171.18 217.508 1171.39 217.018C1171.61 216.523 1171.72 216.005 1171.72 215.464C1171.72 214.843 1171.57 214.305 1171.27 213.85C1170.98 213.395 1170.57 213.044 1170.06 212.796C1169.55 212.549 1168.97 212.425 1168.33 212.425C1167.65 212.425 1167.06 212.566 1166.56 212.848C1166.05 213.125 1165.67 213.513 1165.39 214.014C1165.12 214.515 1164.98 215.102 1164.98 215.775H1162.95C1162.95 214.739 1163.19 213.83 1163.66 213.047C1164.14 212.264 1164.79 211.654 1165.61 211.216C1166.44 210.779 1167.37 210.56 1168.4 210.56C1169.44 210.56 1170.36 210.779 1171.16 211.216C1171.96 211.654 1172.58 212.244 1173.04 212.986C1173.49 213.729 1173.72 214.555 1173.72 215.464C1173.72 216.115 1173.6 216.751 1173.37 217.372C1173.14 217.988 1172.73 218.676 1172.16 219.436C1171.59 220.19 1170.8 221.111 1169.78 222.199L1165.81 226.447V226.585H1174.03V228.484H1162.88ZM1179.12 228.623C1178.69 228.623 1178.33 228.47 1178.02 228.165C1177.72 227.86 1177.56 227.494 1177.56 227.068C1177.56 226.643 1177.72 226.277 1178.02 225.972C1178.33 225.667 1178.69 225.514 1179.12 225.514C1179.54 225.514 1179.91 225.667 1180.21 225.972C1180.52 226.277 1180.67 226.643 1180.67 227.068C1180.67 227.351 1180.6 227.61 1180.46 227.846C1180.32 228.082 1180.13 228.271 1179.89 228.415C1179.66 228.554 1179.41 228.623 1179.12 228.623ZM1189.44 228.726C1188.14 228.726 1187.04 228.372 1186.12 227.664C1185.2 226.95 1184.51 225.917 1184.02 224.565C1183.54 223.206 1183.3 221.566 1183.3 219.643C1183.3 217.732 1183.54 216.1 1184.02 214.748C1184.51 213.389 1185.21 212.353 1186.13 211.639C1187.05 210.92 1188.15 210.56 1189.44 210.56C1190.73 210.56 1191.84 210.92 1192.75 211.639C1193.67 212.353 1194.37 213.389 1194.86 214.748C1195.35 216.1 1195.59 217.732 1195.59 219.643C1195.59 221.566 1195.35 223.206 1194.87 224.565C1194.38 225.917 1193.68 226.95 1192.77 227.664C1191.85 228.372 1190.75 228.726 1189.44 228.726ZM1189.44 226.827C1190.73 226.827 1191.74 226.205 1192.45 224.962C1193.16 223.718 1193.52 221.946 1193.52 219.643C1193.52 218.112 1193.36 216.808 1193.03 215.732C1192.7 214.656 1192.24 213.835 1191.63 213.271C1191.02 212.707 1190.3 212.425 1189.44 212.425C1188.17 212.425 1187.17 213.055 1186.45 214.316C1185.73 215.571 1185.37 217.347 1185.37 219.643C1185.37 221.174 1185.53 222.475 1185.85 223.546C1186.17 224.616 1186.64 225.431 1187.24 225.989C1187.85 226.548 1188.59 226.827 1189.44 226.827ZM1208.3 218.193L1206.47 218.711C1206.36 218.406 1206.19 218.109 1205.96 217.821C1205.74 217.528 1205.44 217.286 1205.06 217.096C1204.68 216.906 1204.2 216.811 1203.6 216.811C1202.79 216.811 1202.12 216.998 1201.57 217.372C1201.04 217.741 1200.77 218.21 1200.77 218.78C1200.77 219.286 1200.96 219.686 1201.32 219.98C1201.69 220.273 1202.27 220.518 1203.05 220.714L1205.02 221.197C1206.21 221.485 1207.09 221.925 1207.67 222.518C1208.25 223.105 1208.54 223.862 1208.54 224.789C1208.54 225.549 1208.32 226.228 1207.89 226.827C1207.45 227.425 1206.85 227.897 1206.07 228.243C1205.3 228.588 1204.39 228.761 1203.36 228.761C1202.01 228.761 1200.89 228.467 1200 227.88C1199.12 227.293 1198.56 226.435 1198.32 225.307L1200.25 224.824C1200.44 225.537 1200.79 226.073 1201.3 226.43C1201.82 226.786 1202.49 226.965 1203.33 226.965C1204.28 226.965 1205.03 226.763 1205.59 226.36C1206.15 225.952 1206.44 225.463 1206.44 224.893C1206.44 224.432 1206.27 224.047 1205.95 223.736C1205.63 223.419 1205.14 223.183 1204.47 223.028L1202.26 222.51C1201.04 222.222 1200.15 221.776 1199.58 221.171C1199.02 220.561 1198.73 219.799 1198.73 218.883C1198.73 218.135 1198.94 217.473 1199.36 216.898C1199.79 216.322 1200.37 215.87 1201.1 215.542C1201.84 215.214 1202.67 215.05 1203.6 215.05C1204.92 215.05 1205.95 215.338 1206.69 215.913C1207.45 216.489 1207.98 217.249 1208.3 218.193ZM1214.61 228.484L1210.57 215.223H1212.71L1215.58 225.376H1215.72L1218.55 215.223H1220.73L1223.52 225.342H1223.66L1226.53 215.223H1228.67L1224.63 228.484H1222.63L1219.73 218.296H1219.52L1216.62 228.484H1214.61Z" fill="#008000"/>
<path d="M1211.5 127.5H1288.49" stroke="#FF0000" stroke-width="2.02611"/>
<path d="M1161.5 127.5H1288.49" stroke="#FF0000" stroke-width="2.02611"/>
<path d="M1272.28 127.5L1266.21 151.813H1278.36L1272.28 127.5Z" fill="#FF0000"/>
<path d="M1272.08 127.313L1266 103H1278.16L1272.08 127.313Z" fill="#FF0000"/>
<path d="M1187.34 478.726C1186.04 478.726 1184.93 478.372 1184.02 477.664C1183.1 476.951 1182.4 475.917 1181.92 474.565C1181.44 473.206 1181.19 471.566 1181.19 469.643C1181.19 467.732 1181.44 466.1 1181.92 464.748C1182.41 463.389 1183.11 462.353 1184.03 461.64C1184.95 460.92 1186.05 460.56 1187.34 460.56C1188.63 460.56 1189.73 460.92 1190.65 461.64C1191.57 462.353 1192.27 463.389 1192.75 464.748C1193.24 466.1 1193.49 467.732 1193.49 469.643C1193.49 471.566 1193.25 473.206 1192.76 474.565C1192.28 475.917 1191.58 476.951 1190.67 477.664C1189.75 478.372 1188.64 478.726 1187.34 478.726ZM1187.34 476.827C1188.63 476.827 1189.63 476.205 1190.35 474.962C1191.06 473.719 1191.42 471.946 1191.42 469.643C1191.42 468.112 1191.25 466.808 1190.92 465.732C1190.6 464.656 1190.14 463.835 1189.53 463.271C1188.92 462.707 1188.19 462.425 1187.34 462.425C1186.06 462.425 1185.06 463.056 1184.35 464.316C1183.63 465.571 1183.27 467.347 1183.27 469.643C1183.27 471.174 1183.43 472.475 1183.75 473.546C1184.07 474.616 1184.53 475.431 1185.14 475.989C1185.75 476.548 1186.48 476.827 1187.34 476.827ZM1197.67 478.623C1197.25 478.623 1196.88 478.47 1196.58 478.165C1196.27 477.86 1196.12 477.494 1196.12 477.069C1196.12 476.643 1196.27 476.277 1196.58 475.972C1196.88 475.667 1197.25 475.514 1197.67 475.514C1198.1 475.514 1198.46 475.667 1198.77 475.972C1199.07 476.277 1199.23 476.643 1199.23 477.069C1199.23 477.351 1199.15 477.61 1199.01 477.846C1198.87 478.082 1198.68 478.272 1198.45 478.415C1198.22 478.554 1197.96 478.623 1197.67 478.623ZM1208 478.726C1206.7 478.726 1205.59 478.372 1204.67 477.664C1203.76 476.951 1203.06 475.917 1202.58 474.565C1202.09 473.206 1201.85 471.566 1201.85 469.643C1201.85 467.732 1202.09 466.1 1202.58 464.748C1203.06 463.389 1203.77 462.353 1204.68 461.64C1205.6 460.92 1206.71 460.56 1208 460.56C1209.29 460.56 1210.39 460.92 1211.3 461.64C1212.23 462.353 1212.93 463.389 1213.41 464.748C1213.9 466.1 1214.15 467.732 1214.15 469.643C1214.15 471.566 1213.9 473.206 1213.42 474.565C1212.94 475.917 1212.24 476.951 1211.32 477.664C1210.41 478.372 1209.3 478.726 1208 478.726ZM1208 476.827C1209.29 476.827 1210.29 476.205 1211 474.962C1211.72 473.719 1212.07 471.946 1212.07 469.643C1212.07 468.112 1211.91 466.808 1211.58 465.732C1211.26 464.656 1210.79 463.835 1210.18 463.271C1209.58 462.707 1208.85 462.425 1208 462.425C1206.72 462.425 1205.72 463.056 1205 464.316C1204.28 465.571 1203.92 467.347 1203.92 469.643C1203.92 471.174 1204.08 472.475 1204.41 473.546C1204.73 474.616 1205.19 475.431 1205.8 475.989C1206.41 476.548 1207.14 476.827 1208 476.827ZM1226.85 468.193L1225.02 468.711C1224.91 468.406 1224.74 468.109 1224.51 467.821C1224.3 467.528 1224 467.286 1223.62 467.096C1223.24 466.906 1222.75 466.811 1222.16 466.811C1221.35 466.811 1220.67 466.998 1220.13 467.373C1219.59 467.741 1219.33 468.21 1219.33 468.78C1219.33 469.286 1219.51 469.686 1219.88 469.98C1220.25 470.274 1220.82 470.518 1221.61 470.714L1223.57 471.197C1224.76 471.485 1225.64 471.926 1226.22 472.518C1226.81 473.105 1227.1 473.862 1227.1 474.789C1227.1 475.549 1226.88 476.228 1226.44 476.827C1226.01 477.425 1225.4 477.897 1224.63 478.243C1223.85 478.588 1222.95 478.761 1221.92 478.761C1220.56 478.761 1219.44 478.467 1218.56 477.88C1217.67 477.293 1217.11 476.435 1216.87 475.307L1218.81 474.824C1218.99 475.537 1219.34 476.073 1219.85 476.43C1220.37 476.786 1221.05 476.965 1221.88 476.965C1222.83 476.965 1223.59 476.763 1224.14 476.361C1224.71 475.952 1224.99 475.463 1224.99 474.893C1224.99 474.432 1224.83 474.047 1224.51 473.736C1224.18 473.419 1223.69 473.183 1223.02 473.028L1220.81 472.51C1219.6 472.222 1218.7 471.776 1218.13 471.171C1217.57 470.561 1217.29 469.799 1217.29 468.883C1217.29 468.135 1217.5 467.473 1217.92 466.898C1218.34 466.322 1218.92 465.87 1219.65 465.542C1220.39 465.214 1221.23 465.05 1222.16 465.05C1223.47 465.05 1224.5 465.338 1225.25 465.913C1226 466.489 1226.54 467.249 1226.85 468.193ZM1233.17 478.484L1229.13 465.223H1231.27L1234.14 475.376H1234.27L1237.11 465.223H1239.28L1242.08 475.342H1242.22L1245.08 465.223H1247.22L1243.18 478.484H1241.18L1238.28 468.296H1238.07L1235.17 478.484H1233.17Z" fill="#008000"/>
<path d="M1211.76 377.313V454.306" stroke="#008000" stroke-width="2.02611"/>
<path d="M1211.76 327.313V454.306" stroke="#008000" stroke-width="2.02611"/>
<path d="M1211.76 438.097L1236.07 432.018V444.175L1211.76 438.097Z" fill="#008000"/>
<path d="M1211.76 438.097L1187.44 432.018V444.175L1211.76 438.097Z" fill="#008000"/>
<path d="M1187.6 478.54C1186.3 478.54 1185.19 478.186 1184.27 477.478C1183.36 476.764 1182.66 475.731 1182.18 474.378C1181.69 473.02 1181.45 471.379 1181.45 469.457C1181.45 467.546 1181.69 465.914 1182.18 464.561C1182.67 463.203 1183.37 462.167 1184.28 461.453C1185.2 460.733 1186.31 460.374 1187.6 460.374C1188.89 460.374 1189.99 460.733 1190.9 461.453C1191.83 462.167 1192.53 463.203 1193.01 464.561C1193.5 465.914 1193.75 467.546 1193.75 469.457C1193.75 471.379 1193.5 473.02 1193.02 474.378C1192.54 475.731 1191.84 476.764 1190.92 477.478C1190.01 478.186 1188.9 478.54 1187.6 478.54ZM1187.6 476.64C1188.89 476.64 1189.89 476.018 1190.6 474.775C1191.32 473.532 1191.67 471.759 1191.67 469.457C1191.67 467.926 1191.51 466.622 1191.18 465.545C1190.86 464.469 1190.39 463.649 1189.78 463.085C1189.18 462.521 1188.45 462.239 1187.6 462.239C1186.32 462.239 1185.32 462.869 1184.6 464.129C1183.88 465.384 1183.52 467.16 1183.52 469.457C1183.52 470.988 1183.68 472.289 1184.01 473.359C1184.33 474.43 1184.79 475.244 1185.4 475.803C1186.01 476.361 1186.74 476.64 1187.6 476.64ZM1197.93 478.436C1197.5 478.436 1197.14 478.283 1196.83 477.978C1196.53 477.673 1196.37 477.308 1196.37 476.882C1196.37 476.456 1196.53 476.09 1196.83 475.785C1197.14 475.48 1197.5 475.328 1197.93 475.328C1198.35 475.328 1198.72 475.48 1199.03 475.785C1199.33 476.09 1199.48 476.456 1199.48 476.882C1199.48 477.164 1199.41 477.423 1199.27 477.659C1199.13 477.895 1198.94 478.085 1198.71 478.229C1198.48 478.367 1198.22 478.436 1197.93 478.436ZM1208.25 478.54C1206.95 478.54 1205.85 478.186 1204.93 477.478C1204.02 476.764 1203.32 475.731 1202.83 474.378C1202.35 473.02 1202.11 471.379 1202.11 469.457C1202.11 467.546 1202.35 465.914 1202.83 464.561C1203.32 463.203 1204.02 462.167 1204.94 461.453C1205.86 460.733 1206.97 460.374 1208.25 460.374C1209.54 460.374 1210.65 460.733 1211.56 461.453C1212.48 462.167 1213.18 463.203 1213.67 464.561C1214.16 465.914 1214.4 467.546 1214.4 469.457C1214.4 471.379 1214.16 473.02 1213.68 474.378C1213.19 475.731 1212.49 476.764 1211.58 477.478C1210.66 478.186 1209.56 478.54 1208.25 478.54ZM1208.25 476.64C1209.54 476.64 1210.55 476.018 1211.26 474.775C1211.97 473.532 1212.33 471.759 1212.33 469.457C1212.33 467.926 1212.17 466.622 1211.84 465.545C1211.52 464.469 1211.05 463.649 1210.44 463.085C1209.83 462.521 1209.11 462.239 1208.25 462.239C1206.98 462.239 1205.98 462.869 1205.26 464.129C1204.54 465.384 1204.18 467.16 1204.18 469.457C1204.18 470.988 1204.34 472.289 1204.66 473.359C1204.99 474.43 1205.45 475.244 1206.05 475.803C1206.66 476.361 1207.4 476.64 1208.25 476.64ZM1227.11 468.006L1225.28 468.524C1225.17 468.219 1225 467.923 1224.77 467.635C1224.55 467.341 1224.25 467.1 1223.87 466.91C1223.49 466.72 1223.01 466.625 1222.41 466.625C1221.6 466.625 1220.93 466.812 1220.39 467.186C1219.85 467.554 1219.58 468.023 1219.58 468.593C1219.58 469.1 1219.77 469.5 1220.14 469.793C1220.5 470.087 1221.08 470.332 1221.86 470.527L1223.83 471.011C1225.02 471.299 1225.9 471.739 1226.48 472.332C1227.06 472.919 1227.35 473.676 1227.35 474.602C1227.35 475.362 1227.13 476.041 1226.7 476.64C1226.27 477.239 1225.66 477.711 1224.88 478.056C1224.11 478.401 1223.2 478.574 1222.17 478.574C1220.82 478.574 1219.7 478.281 1218.81 477.693C1217.93 477.106 1217.37 476.249 1217.13 475.121L1219.06 474.637C1219.25 475.351 1219.6 475.886 1220.11 476.243C1220.63 476.6 1221.3 476.778 1222.14 476.778C1223.09 476.778 1223.84 476.577 1224.4 476.174C1224.96 475.765 1225.25 475.276 1225.25 474.706C1225.25 474.246 1225.09 473.86 1224.76 473.549C1224.44 473.233 1223.95 472.997 1223.28 472.841L1221.07 472.323C1219.85 472.035 1218.96 471.589 1218.39 470.985C1217.83 470.375 1217.55 469.612 1217.55 468.697C1217.55 467.949 1217.76 467.287 1218.18 466.711C1218.6 466.135 1219.18 465.684 1219.91 465.355C1220.65 465.027 1221.48 464.863 1222.41 464.863C1223.73 464.863 1224.76 465.151 1225.51 465.727C1226.26 466.302 1226.79 467.062 1227.11 468.006ZM1233.43 478.298L1229.38 465.036H1231.53L1234.39 475.19H1234.53L1237.36 465.036H1239.54L1242.34 475.155H1242.47L1245.34 465.036H1247.48L1243.44 478.298H1241.44L1238.54 468.11H1238.33L1235.43 478.298H1233.43Z" fill="#008000"/>
<path d="M1435.76 377.313H1512.75" stroke="#FF0000" stroke-width="2.02611"/>
<path d="M1435.76 327.313H1512.75" stroke="#FF0000" stroke-width="2.02611"/>
<path d="M1496.54 377.313V327.313" stroke="#FF0000" stroke-width="2.02611"/>
<path d="M1496.54 377.313L1490.46 401.627H1502.62L1496.54 377.313Z" fill="#FF0000"/>
<path d="M1496.54 327.313L1490.46 303H1502.62L1496.54 327.313Z" fill="#FF0000"/>
<path d="M1530.98 348.28V350.179H1523.25V348.28H1530.98ZM1533.7 358.071V356.516L1539.54 350.127C1540.22 349.379 1540.79 348.729 1541.23 348.176C1541.67 347.618 1542 347.094 1542.21 346.605C1542.43 346.11 1542.54 345.592 1542.54 345.05C1542.54 344.429 1542.39 343.891 1542.09 343.436C1541.8 342.981 1541.4 342.63 1540.88 342.383C1540.37 342.135 1539.8 342.011 1539.16 342.011C1538.48 342.011 1537.89 342.152 1537.38 342.434C1536.88 342.711 1536.49 343.099 1536.21 343.6C1535.94 344.101 1535.81 344.688 1535.81 345.361H1533.77C1533.77 344.325 1534.01 343.416 1534.49 342.633C1534.96 341.85 1535.62 341.24 1536.44 340.803C1537.27 340.365 1538.2 340.146 1539.23 340.146C1540.26 340.146 1541.18 340.365 1541.98 340.803C1542.78 341.24 1543.41 341.83 1543.86 342.573C1544.32 343.315 1544.55 344.141 1544.55 345.05C1544.55 345.701 1544.43 346.337 1544.19 346.959C1543.96 347.574 1543.56 348.262 1542.98 349.022C1542.41 349.776 1541.62 350.697 1540.61 351.785L1536.64 356.033V356.171H1544.86V358.071H1533.7ZM1549.94 358.209C1549.52 358.209 1549.15 358.056 1548.85 357.751C1548.54 357.446 1548.39 357.081 1548.39 356.655C1548.39 356.229 1548.54 355.863 1548.85 355.558C1549.15 355.253 1549.52 355.1 1549.94 355.1C1550.37 355.1 1550.73 355.253 1551.04 355.558C1551.34 355.863 1551.5 356.229 1551.5 356.655C1551.5 356.937 1551.42 357.196 1551.28 357.432C1551.14 357.668 1550.95 357.858 1550.72 358.001C1550.49 358.14 1550.23 358.209 1549.94 358.209ZM1560.27 358.312C1558.97 358.312 1557.86 357.958 1556.94 357.25C1556.03 356.537 1555.33 355.503 1554.85 354.151C1554.36 352.792 1554.12 351.152 1554.12 349.229C1554.12 347.318 1554.36 345.687 1554.85 344.334C1555.34 342.975 1556.04 341.939 1556.95 341.226C1557.87 340.506 1558.98 340.146 1560.27 340.146C1561.56 340.146 1562.66 340.506 1563.57 341.226C1564.5 341.939 1565.2 342.975 1565.68 344.334C1566.17 345.687 1566.42 347.318 1566.42 349.229C1566.42 351.152 1566.17 352.792 1565.69 354.151C1565.21 355.503 1564.51 356.537 1563.59 357.25C1562.68 357.958 1561.57 358.312 1560.27 358.312ZM1560.27 356.413C1561.56 356.413 1562.56 355.791 1563.27 354.548C1563.99 353.305 1564.34 351.532 1564.34 349.229C1564.34 347.698 1564.18 346.395 1563.85 345.318C1563.53 344.242 1563.06 343.422 1562.45 342.857C1561.85 342.293 1561.12 342.011 1560.27 342.011C1558.99 342.011 1557.99 342.642 1557.27 343.902C1556.55 345.157 1556.19 346.933 1556.19 349.229C1556.19 350.76 1556.35 352.061 1556.68 353.132C1557 354.203 1557.46 355.017 1558.07 355.575C1558.68 356.134 1559.41 356.413 1560.27 356.413ZM1579.12 347.779L1577.29 348.297C1577.18 347.992 1577.01 347.695 1576.78 347.408C1576.57 347.114 1576.27 346.872 1575.89 346.682C1575.51 346.492 1575.02 346.397 1574.43 346.397C1573.62 346.397 1572.94 346.584 1572.4 346.959C1571.86 347.327 1571.6 347.796 1571.6 348.366C1571.6 348.872 1571.78 349.273 1572.15 349.566C1572.52 349.86 1573.09 350.104 1573.88 350.3L1575.84 350.783C1577.03 351.071 1577.91 351.512 1578.49 352.104C1579.08 352.692 1579.37 353.448 1579.37 354.375C1579.37 355.135 1579.15 355.814 1578.71 356.413C1578.28 357.011 1577.67 357.483 1576.9 357.829C1576.12 358.174 1575.22 358.347 1574.19 358.347C1572.83 358.347 1571.71 358.053 1570.83 357.466C1569.94 356.879 1569.38 356.021 1569.14 354.893L1571.08 354.41C1571.26 355.123 1571.61 355.659 1572.12 356.016C1572.64 356.373 1573.32 356.551 1574.15 356.551C1575.1 356.551 1575.86 356.35 1576.41 355.947C1576.98 355.538 1577.26 355.049 1577.26 354.479C1577.26 354.018 1577.1 353.633 1576.78 353.322C1576.45 353.005 1575.96 352.769 1575.29 352.614L1573.08 352.096C1571.87 351.808 1570.97 351.362 1570.4 350.758C1569.84 350.147 1569.56 349.385 1569.56 348.47C1569.56 347.721 1569.77 347.059 1570.19 346.484C1570.61 345.908 1571.19 345.456 1571.92 345.128C1572.66 344.8 1573.5 344.636 1574.43 344.636C1575.74 344.636 1576.77 344.924 1577.52 345.499C1578.27 346.075 1578.81 346.835 1579.12 347.779ZM1585.44 358.071L1581.4 344.809H1583.54L1586.41 354.962H1586.54L1589.38 344.809H1591.55L1594.35 354.928H1594.49L1597.35 344.809H1599.49L1595.45 358.071H1593.45L1590.55 347.882H1590.34L1587.44 358.071H1585.44Z" fill="#FF0000"/>
<rect x="1212.25" y="128.5" width="398" height="198" stroke="black" stroke-width="2" stroke-dasharray="10 10"/>
<path d="M1308.7 133.312C1307.4 133.312 1306.29 132.958 1305.38 132.25C1304.46 131.537 1303.76 130.503 1303.28 129.151C1302.8 127.792 1302.56 126.152 1302.56 124.229C1302.56 122.318 1302.8 120.687 1303.28 119.334C1303.77 117.975 1304.47 116.939 1305.39 116.226C1306.31 115.506 1307.41 115.146 1308.7 115.146C1309.99 115.146 1311.09 115.506 1312.01 116.226C1312.93 116.939 1313.63 117.975 1314.12 119.334C1314.61 120.687 1314.85 122.318 1314.85 124.229C1314.85 126.152 1314.61 127.792 1314.12 129.151C1313.64 130.503 1312.94 131.537 1312.03 132.25C1311.11 132.958 1310 133.312 1308.7 133.312ZM1308.7 131.413C1309.99 131.413 1310.99 130.791 1311.71 129.548C1312.42 128.305 1312.78 126.532 1312.78 124.229C1312.78 122.698 1312.61 121.395 1312.29 120.318C1311.96 119.242 1311.5 118.422 1310.89 117.857C1310.28 117.293 1309.55 117.011 1308.7 117.011C1307.42 117.011 1306.43 117.642 1305.71 118.902C1304.99 120.157 1304.63 121.933 1304.63 124.229C1304.63 125.76 1304.79 127.061 1305.11 128.132C1305.43 129.203 1305.9 130.017 1306.5 130.575C1307.11 131.134 1307.85 131.413 1308.7 131.413ZM1319.03 133.209C1318.61 133.209 1318.24 133.056 1317.94 132.751C1317.63 132.446 1317.48 132.081 1317.48 131.655C1317.48 131.229 1317.63 130.863 1317.94 130.558C1318.24 130.253 1318.61 130.1 1319.03 130.1C1319.46 130.1 1319.82 130.253 1320.13 130.558C1320.43 130.863 1320.59 131.229 1320.59 131.655C1320.59 131.937 1320.52 132.196 1320.37 132.432C1320.23 132.668 1320.05 132.858 1319.81 133.001C1319.58 133.14 1319.32 133.209 1319.03 133.209ZM1329.36 133.312C1328.06 133.312 1326.95 132.958 1326.04 132.25C1325.12 131.537 1324.42 130.503 1323.94 129.151C1323.45 127.792 1323.21 126.152 1323.21 124.229C1323.21 122.318 1323.45 120.687 1323.94 119.334C1324.43 117.975 1325.13 116.939 1326.04 116.226C1326.97 115.506 1328.07 115.146 1329.36 115.146C1330.65 115.146 1331.75 115.506 1332.67 116.226C1333.59 116.939 1334.29 117.975 1334.77 119.334C1335.26 120.687 1335.51 122.318 1335.51 124.229C1335.51 126.152 1335.27 127.792 1334.78 129.151C1334.3 130.503 1333.6 131.537 1332.68 132.25C1331.77 132.958 1330.66 133.312 1329.36 133.312ZM1329.36 131.413C1330.65 131.413 1331.65 130.791 1332.36 129.548C1333.08 128.305 1333.43 126.532 1333.43 124.229C1333.43 122.698 1333.27 121.395 1332.94 120.318C1332.62 119.242 1332.15 118.422 1331.54 117.857C1330.94 117.293 1330.21 117.011 1329.36 117.011C1328.08 117.011 1327.08 117.642 1326.36 118.902C1325.64 120.157 1325.28 121.933 1325.28 124.229C1325.28 125.76 1325.45 127.061 1325.77 128.132C1326.09 129.203 1326.55 130.017 1327.16 130.575C1327.77 131.134 1328.5 131.413 1329.36 131.413ZM1348.22 122.779L1346.39 123.297C1346.27 122.992 1346.1 122.695 1345.88 122.408C1345.66 122.114 1345.36 121.872 1344.98 121.682C1344.6 121.492 1344.11 121.397 1343.52 121.397C1342.71 121.397 1342.03 121.584 1341.49 121.959C1340.95 122.327 1340.69 122.796 1340.69 123.366C1340.69 123.872 1340.87 124.273 1341.24 124.566C1341.61 124.86 1342.18 125.104 1342.97 125.3L1344.94 125.783C1346.12 126.071 1347 126.512 1347.59 127.104C1348.17 127.692 1348.46 128.448 1348.46 129.375C1348.46 130.135 1348.24 130.814 1347.8 131.413C1347.37 132.011 1346.77 132.483 1345.99 132.829C1345.21 133.174 1344.31 133.347 1343.28 133.347C1341.92 133.347 1340.81 133.053 1339.92 132.466C1339.03 131.879 1338.47 131.021 1338.24 129.893L1340.17 129.41C1340.35 130.123 1340.7 130.659 1341.21 131.016C1341.73 131.373 1342.41 131.551 1343.24 131.551C1344.19 131.551 1344.95 131.35 1345.51 130.947C1346.07 130.538 1346.35 130.049 1346.35 129.479C1346.35 129.018 1346.19 128.633 1345.87 128.322C1345.55 128.005 1345.05 127.769 1344.38 127.614L1342.17 127.096C1340.96 126.808 1340.07 126.362 1339.5 125.758C1338.93 125.147 1338.65 124.385 1338.65 123.47C1338.65 122.721 1338.86 122.059 1339.28 121.484C1339.71 120.908 1340.28 120.456 1341.02 120.128C1341.75 119.8 1342.59 119.636 1343.52 119.636C1344.83 119.636 1345.86 119.924 1346.61 120.499C1347.36 121.075 1347.9 121.835 1348.22 122.779ZM1354.53 133.071L1350.49 119.809H1352.63L1355.5 129.962H1355.63L1358.47 119.809H1360.64L1363.44 129.928H1363.58L1366.44 119.809H1368.59L1364.55 133.071H1362.54L1359.64 122.882H1359.43L1356.53 133.071H1354.53Z" fill="#FF0000"/>
</svg>
