<svg width="914" height="458" viewBox="0 0 914 458" fill="none" xmlns="http://www.w3.org/2000/svg">
<path d="M20 138.5C20 117.789 36.7893 101 57.5 101H807.5C828.211 101 845 117.789 845 138.5V388.5C845 409.211 828.211 426 807.5 426H57.5C36.7893 426 20 409.211 20 388.5V138.5Z" fill="white"/>
<path d="M38.75 138.5C38.75 128.145 47.1446 119.75 57.5 119.75H807.5C817.855 119.75 826.25 128.145 826.25 138.5V388.5C826.25 398.855 817.855 407.25 807.5 407.25H57.5C47.1446 407.25 38.75 398.855 38.75 388.5V138.5Z" fill="#0033A2"/>
<path d="M116.163 320.165V311.055H169.153V320.165H116.163ZM109.303 338.275V329.385H176.573V338.275H109.303ZM93.8825 357.175V347.955H191.763V357.175H93.8825ZM107.723 295.075V286.525H146.873V295.075H107.723ZM137.763 292.265V286.525H149.353C151.753 289.599 154.659 292.579 158.073 295.465C161.486 298.359 165.253 301.042 169.373 303.515C173.499 305.989 177.813 308.202 182.313 310.155C186.813 312.102 191.349 313.752 195.923 315.105C195.103 315.705 194.166 316.492 193.113 317.465C192.066 318.439 191.053 319.452 190.073 320.505C189.099 321.552 188.313 322.525 187.713 323.425C181.713 321.252 175.789 318.552 169.943 315.325C164.089 312.099 158.669 308.519 153.683 304.585C148.696 300.645 144.403 296.539 140.803 292.265H137.763ZM135.293 287.655L144.963 291.365C141.289 296.312 136.826 300.885 131.573 305.085C126.326 309.285 120.719 312.999 114.753 316.225C108.793 319.452 102.776 322.265 96.7025 324.665C96.1759 323.912 95.4625 323.012 94.5625 321.965C93.6625 320.912 92.7259 319.879 91.7525 318.865C90.7792 317.859 89.9159 317.055 89.1625 316.455C95.3159 314.575 101.316 312.212 107.163 309.365C113.016 306.512 118.359 303.249 123.193 299.575C128.033 295.902 132.066 291.929 135.293 287.655ZM137.093 354.365V315.215H148.003V354.365H137.093ZM93.1025 274.935V265.155H192.553V274.935H93.1025ZM117.063 284.275V256.605H127.643V284.275H117.063ZM157.343 284.835V256.605H167.913V284.835" fill="white"/>
<path d="M279.428 264.368V258.858H299.108V264.368H279.428ZM278.748 282.708V277.308H299.898V282.708H278.748ZM278.748 291.138V285.858H299.898V291.138H278.748ZM262.328 344.468V337.608H319.358V344.468H262.328ZM275.488 273.818V267.858H302.488V273.818H275.488ZM293.148 300.028H285.158V306.438H293.148V300.028ZM278.518 311.618V294.858H300.008V311.618H278.518ZM264.238 332.878V326.468H310.918V321.628H257.258V315.218H320.828V332.878H264.238ZM260.408 313.188V287.658H267.498V313.188H260.408ZM250.178 291.588L249.388 284.728C252.688 284.581 256.381 284.431 260.468 284.278C264.554 284.131 268.884 283.944 273.458 283.718V289.908C269.258 290.281 265.191 290.581 261.258 290.808C257.318 291.028 253.624 291.288 250.178 291.588ZM261.198 326.468H271.098C270.198 330.068 269.224 333.818 268.178 337.718C267.124 341.618 266.148 344.991 265.248 347.838L255.688 346.488C256.734 343.714 257.748 340.508 258.728 336.868C259.701 333.234 260.524 329.768 261.198 326.468ZM315.988 338.728V337.608H325.998C325.998 337.608 325.961 338.111 325.888 339.118C325.814 340.131 325.664 340.978 325.438 341.658C324.384 346.304 323.294 349.958 322.168 352.618C321.048 355.284 319.738 357.218 318.238 358.418C316.964 359.318 315.594 359.934 314.128 360.268C312.668 360.608 310.924 360.814 308.898 360.888C307.171 360.968 304.714 360.988 301.528 360.948C298.341 360.908 294.948 360.814 291.348 360.668C291.274 359.468 290.974 358.118 290.448 356.618C289.921 355.118 289.284 353.768 288.538 352.568C292.064 352.941 295.478 353.164 298.778 353.238C302.078 353.318 304.401 353.358 305.748 353.358C306.948 353.358 307.921 353.318 308.668 353.238C309.421 353.164 310.061 352.941 310.588 352.568C311.634 351.741 312.591 350.258 313.458 348.118C314.318 345.984 315.161 342.854 315.988 338.728ZM268.848 295.638L274.248 294.408C274.848 296.281 275.428 298.341 275.988 300.588C276.554 302.841 276.988 304.791 277.288 306.438L271.438 308.018C271.284 306.291 270.964 304.284 270.478 301.998C269.991 299.711 269.448 297.591 268.848 295.638ZM268.508 280.338L273.348 278.538C274.321 280.418 275.221 282.518 276.048 284.838C276.874 287.164 277.438 289.191 277.738 290.918L272.448 292.938C272.221 291.218 271.734 289.194 270.988 286.868C270.234 284.541 269.408 282.364 268.508 280.338ZM250.508 271.458L254.108 266.058C256.288 267.478 258.424 269.108 260.518 270.948C262.624 272.788 264.201 274.381 265.248 275.728L261.198 281.918C260.071 280.344 258.498 278.581 256.478 276.628C254.451 274.681 252.461 272.958 250.508 271.458ZM261.198 256.268L267.608 259.418C266.108 261.891 264.608 264.404 263.108 266.958C261.608 269.504 260.184 271.641 258.838 273.368L253.888 270.778C255.088 268.831 256.401 266.451 257.828 263.638C259.248 260.824 260.371 258.368 261.198 256.268ZM268.398 265.608L274.698 269.208C272.224 272.581 269.581 276.141 266.768 279.888C263.954 283.641 261.311 286.791 258.838 289.338L254.108 286.418C255.688 284.544 257.378 282.408 259.178 280.008C260.978 277.608 262.681 275.131 264.288 272.578C265.901 270.031 267.271 267.708 268.398 265.608ZM252.988 293.958L259.628 295.418C258.948 298.344 258.121 301.268 257.148 304.188C256.174 307.114 255.124 309.628 253.998 311.728C253.324 311.281 252.348 310.774 251.068 310.208C249.794 309.648 248.748 309.181 247.928 308.808C249.201 306.708 250.248 304.361 251.068 301.768C251.894 299.181 252.534 296.578 252.988 293.958ZM312.388 313.188V287.658H319.588V313.188H312.388ZM302.038 291.588L301.358 284.728C304.811 284.581 308.694 284.431 313.008 284.278C317.321 284.131 321.914 283.981 326.788 283.828L326.668 290.018C322.248 290.318 317.954 290.598 313.788 290.858C309.628 291.124 305.711 291.368 302.038 291.588ZM321.158 295.638L326.898 293.958C327.871 296.204 328.828 298.678 329.768 301.378C330.701 304.078 331.358 306.404 331.738 308.358L325.778 310.268C325.478 308.314 324.878 305.951 323.978 303.178C323.078 300.404 322.138 297.891 321.158 295.638ZM320.258 280.118L325.548 277.758C326.821 279.704 328.001 281.858 329.088 284.218C330.181 286.584 330.951 288.668 331.398 290.468L325.658 293.058C325.284 291.258 324.591 289.138 323.578 286.698C322.564 284.258 321.458 282.064 320.258 280.118ZM301.588 271.228L305.408 266.168C307.361 267.514 309.311 269.071 311.258 270.838C313.211 272.598 314.711 274.191 315.758 275.618L311.378 281.468C310.398 279.968 308.991 278.241 307.158 276.288C305.318 274.341 303.461 272.654 301.588 271.228ZM312.608 256.378L319.028 259.638C317.448 262.118 315.871 264.611 314.298 267.118C312.724 269.631 311.224 271.788 309.798 273.588L304.848 271.008C306.121 269.054 307.508 266.671 309.008 263.858C310.508 261.044 311.708 258.551 312.608 256.378ZM320.598 265.158L326.898 268.758C324.351 272.131 321.578 275.691 318.578 279.438C315.578 283.191 312.728 286.341 310.028 288.888L305.408 285.968C307.134 284.094 308.934 281.958 310.808 279.558C312.688 277.158 314.488 274.681 316.208 272.128C317.934 269.581 319.398 267.258 320.598 265.158ZM304.848 293.958L311.378 295.528C310.851 298.301 310.101 301.131 309.128 304.018C308.148 306.911 307.098 309.368 305.978 311.388C305.378 311.014 304.478 310.508 303.278 309.868C302.078 309.234 301.028 308.731 300.128 308.358C301.321 306.258 302.294 303.968 303.048 301.488C303.794 299.014 304.394 296.504 304.848 293.958ZM228.348 265.038L234.538 258.068C236.411 259.041 238.378 260.221 240.438 261.608C242.504 262.994 244.438 264.381 246.238 265.768C248.038 267.161 249.501 268.494 250.628 269.768L244.208 277.638C243.161 276.364 241.754 274.978 239.988 273.478C238.228 271.978 236.334 270.498 234.308 269.038C232.288 267.571 230.301 266.238 228.348 265.038ZM225.988 295.078L231.838 287.768C233.784 288.668 235.828 289.774 237.968 291.088C240.108 292.401 242.094 293.711 243.928 295.018C245.768 296.331 247.288 297.588 248.488 298.788L242.298 306.888C241.171 305.688 239.691 304.378 237.858 302.958C236.018 301.531 234.048 300.124 231.948 298.738C229.848 297.351 227.861 296.131 225.988 295.078ZM237.798 359.658L228.238 354.258C229.664 351.258 231.181 347.768 232.788 343.788C234.401 339.814 236.051 335.614 237.738 331.188C239.431 326.768 240.988 322.418 242.408 318.138L250.848 323.538C249.648 327.518 248.298 331.608 246.798 335.808C245.298 340.008 243.798 344.131 242.298 348.178C240.798 352.231 239.298 356.058 237.798 359.658Z" fill="white"/>
<path d="M208.5 249.5H73V390H208.5V249.5Z" stroke="white" stroke-width="2" stroke-dasharray="5 5"/>
<path d="M346 249.5H210.5V390H346V249.5Z" stroke="white" stroke-width="2" stroke-dasharray="5 5"/>
<path d="M649.288 273.5H705.538V311C706.648 346.083 683.278 377.243 649.288 386C615.298 377.243 591.928 346.083 593.038 311V273.5H649.288Z" fill="#E9B500"/>
<path d="M631.456 291.338L631.639 291.154H632.925H636.046H637.514H638.8H639.35H639.901H643.573H645.042H646.51H647.061H647.612H653.304H654.589H655.69H656.975H658.077H658.995H660.096H660.831H664.135H666.155H666.889H667.624H668.358H669.093H672.214H672.764H674.968V304.373H674.233H670.929H669.643H665.971H665.054H663.952H663.034H662.3H661.749H658.077H657.343H656.792H653.487H651.1H650.366H647.245H646.694H644.491L643.757 304.924L643.573 307.494L643.389 308.045L643.206 309.146L643.022 310.432L642.471 314.471C649.479 310.217 656.455 309.422 663.401 312.084C669.949 314.991 674.417 319.458 676.804 325.486C681.057 347.885 673.897 360.369 655.323 362.939C639.595 363.888 629.865 357.462 626.132 343.662L630.171 342.377H630.721C631.211 342.071 631.701 341.887 632.19 341.826L632.925 341.643L633.659 341.459L634.026 341.275L635.495 340.908L636.964 340.541C638.065 339.99 639.106 339.684 640.085 339.623C640.483 342.224 641.462 344.366 643.022 346.049C647.612 350.424 652.447 351.098 657.526 348.068C662.789 343.907 664.564 338.644 662.85 332.279C660.953 327.536 657.71 324.783 653.12 324.018C647.612 323.681 643.573 325.701 641.003 330.076L640.085 329.893H639.35C637.973 329.556 636.811 329.372 635.862 329.342L633.292 328.791H632.741C632.16 328.669 631.67 328.607 631.272 328.607L630.905 328.424H630.171L629.62 328.24H629.069L627.784 327.873L626.132 327.689V327.139L626.315 326.404V325.854L626.682 324.568L626.866 322.916L627.05 321.447L627.233 320.713L627.6 317.592C627.723 317.01 627.784 316.521 627.784 316.123L627.968 314.838L628.151 314.471C628.212 313.186 628.396 312.084 628.702 311.166V310.064C628.947 309.085 629.069 308.228 629.069 307.494L629.253 307.127L629.436 305.842V305.291C629.559 304.71 629.62 304.22 629.62 303.822L629.803 302.721L629.987 301.986V301.435C630.171 300.946 630.232 300.456 630.171 299.967L630.354 299.049L630.538 298.498V297.764L630.721 297.213L631.089 294.092C631.211 293.51 631.272 293.021 631.272 292.623L631.456 291.338Z" fill="black"/>
<path d="M73.5195 166.55V155.53H124.19V166.55H104.91V225.85H92.7995V166.55" fill="white"/>
<path d="M166.909 181.777L166.359 182.517L165.809 183.067L165.259 183.437L164.519 184.537L164.159 184.907L163.789 185.087C163.389 185.64 163.022 186.067 162.689 186.367L160.299 189.127C155.219 185.854 151.012 184.217 147.679 184.217C144.252 184.217 141.729 185.914 140.109 189.307C140.169 191.3 140.962 192.77 142.489 193.717C143.162 193.897 143.652 194.08 143.959 194.267C145.152 194.447 146.132 194.69 146.899 194.997C158.492 195.857 164.979 200.51 166.359 208.957C166.419 209.324 166.449 209.68 166.449 210.027C166.449 210.38 166.449 210.727 166.449 211.067C166.449 217.214 163.849 221.834 158.649 224.927C154.915 226.607 151.165 227.447 147.399 227.447C140.239 227.447 133.095 224.404 125.969 218.317L126.339 217.587L127.249 216.667C127.862 215.934 128.415 215.38 128.909 215.007C129.029 214.794 129.149 214.674 129.269 214.647L129.639 214.097C129.759 213.884 129.882 213.76 130.009 213.727L130.189 213.357L130.559 213.177L132.949 210.417C137.475 214.704 142.215 216.847 147.169 216.847C149.249 216.847 151.362 216.48 153.509 215.747C154.055 215.014 154.605 214.464 155.159 214.097C155.345 213.364 155.439 212.674 155.439 212.027C155.439 210.434 154.919 209.104 153.879 208.037L149.649 206.567C137.042 205.8 130.189 200.414 129.089 190.407C129.915 180.34 135.605 174.957 146.159 174.257H146.809C154.915 174.257 161.615 176.764 166.909 181.777Z" fill="white"/>
<path d="M179.287 211.526V175.726H190.307V207.486C190.427 207.639 190.487 207.822 190.487 208.036C190.614 208.129 190.677 208.219 190.677 208.306V208.406C190.89 209.779 191.194 211.002 191.587 212.076C193.7 215.009 196.41 216.476 199.717 216.476H199.857C203.957 215.376 206.83 213.112 208.477 209.686V209.136L209.217 206.936V175.726H220.417V225.846H209.217V221.806C204.81 225.412 200.42 227.216 196.047 227.216C192.647 227.216 189.204 226.146 185.717 224.006C182.87 221.832 180.91 219.262 179.837 216.296L179.657 215.006C179.384 214.119 179.247 213.249 179.247 212.396V211.986C179.247 211.832 179.26 211.679 179.287 211.526Z" fill="white"/>
<path d="M278.836 196.294L279.016 199.044C279.136 199.198 279.196 199.381 279.196 199.594V205.104H245.606C246.306 211.344 249.486 215.018 255.146 216.124C256.066 216.211 256.969 216.254 257.856 216.254C262.476 216.254 266.409 214.741 269.656 211.714C270.049 212.388 270.539 212.938 271.126 213.364L271.306 213.914L271.856 214.464C272.283 214.864 272.649 215.241 272.956 215.594C273.263 215.948 273.509 216.308 273.696 216.674C273.909 216.794 274.029 216.914 274.056 217.034L276.626 219.974C270.813 224.841 264.616 227.274 258.036 227.274C256.909 227.274 255.763 227.198 254.596 227.044C253.436 226.891 252.273 226.678 251.106 226.404C240.519 222.884 234.706 215.294 233.666 203.634C233.666 203.481 233.659 203.174 233.646 202.714C233.633 202.261 233.626 201.971 233.626 201.844C233.626 185.904 240.799 176.831 255.146 174.624C269.406 175.118 277.303 182.341 278.836 196.294ZM245.416 196.474H267.636V195.924C267.509 195.558 267.446 195.191 267.446 194.824V194.454C267.139 193.781 266.956 193.171 266.896 192.624C264.636 187.391 260.903 184.758 255.696 184.724C249.149 186.284 245.723 190.201 245.416 196.474Z" fill="white"/>
<path d="M332.05 184.537V185.087C332.45 185.82 332.697 186.554 332.79 187.287V225.657H321.59V193.167L321.4 192.067C319.874 187.44 317.304 185.127 313.69 185.127C312.59 185.127 311.367 185.357 310.02 185.817C306.96 187.137 304.757 189.22 303.41 192.067L302.68 195.187V225.657H291.66V175.537H302.68V179.757C306.107 176.697 309.84 174.864 313.88 174.257H314.7C322.9 174.257 328.684 177.684 332.05 184.537Z" fill="white"/>
<path d="M371.191 156.084V155.714H383.861L384.041 157.004L384.231 157.554L384.591 158.844L384.961 161.044L385.511 162.874L385.881 165.084L386.431 166.914L386.611 168.384C386.825 168.904 386.948 169.334 386.981 169.674L387.161 170.404L387.531 171.504V172.244C387.651 172.337 387.711 172.427 387.711 172.514V173.164C388.051 173.837 388.238 174.571 388.271 175.364L388.631 176.464L389.001 177.754L389.371 179.954L389.921 181.784L390.101 182.894L391.201 187.484C391.295 187.911 391.381 188.301 391.461 188.654C391.535 189.001 391.571 189.344 391.571 189.684L391.941 190.414V191.154L392.301 192.074V192.804L392.671 193.534V194.274C393.011 195.194 393.195 195.991 393.221 196.664L393.411 197.394C393.625 198.007 393.791 198.574 393.911 199.094C394.031 199.614 394.108 200.087 394.141 200.514L394.511 201.984L394.881 203.264L395.241 202.164L395.981 198.494L396.341 197.574L396.531 196.474L397.081 193.904L397.451 192.624V192.074L398.181 189.134L398.361 188.034L398.731 187.294L398.911 186.564L399.101 185.644V184.914L399.281 184.354L400.021 181.424L400.381 179.214L400.571 178.484L400.931 177.754C400.998 176.774 401.181 175.914 401.481 175.174L401.671 174.264V173.714L402.041 172.244L402.221 171.694L402.771 169.304L402.951 168.204L403.321 167.104L403.501 166.184L404.051 163.794L404.241 162.874L404.421 162.514C404.455 162.174 404.495 161.844 404.541 161.524C404.588 161.204 404.671 160.921 404.791 160.674L404.971 160.124V159.574L405.161 158.844L405.341 158.284L405.891 155.714H419.481V156.264C419.908 157.337 420.151 158.381 420.211 159.394L420.581 160.854L420.761 161.414L421.501 164.714L421.861 166.184C422.108 167.071 422.231 167.804 422.231 168.384C422.445 168.904 422.568 169.334 422.601 169.674L422.961 170.954L423.151 172.244L423.331 172.974L423.521 173.524C423.608 173.924 423.685 174.284 423.751 174.604C423.811 174.924 423.855 175.237 423.881 175.544C424.128 176.124 424.298 176.661 424.391 177.154C424.485 177.641 424.561 178.084 424.621 178.484L424.801 179.584L425.171 180.504L425.351 181.604V182.154C425.658 182.887 425.841 183.561 425.901 184.174L426.091 185.274C426.391 186.007 426.575 186.681 426.641 187.294L426.821 188.214L427.371 190.234V190.964C427.491 191.244 427.551 191.551 427.551 191.884C427.891 192.591 428.078 193.204 428.111 193.724L428.291 194.644L428.471 195.744L428.661 196.474C428.968 197.421 429.151 198.277 429.211 199.044C429.331 199.137 429.391 199.231 429.391 199.324V199.964C429.818 201.037 430.065 202.077 430.131 203.084C430.311 203.024 430.431 202.901 430.491 202.714C430.645 201.954 430.798 201.291 430.951 200.724C431.105 200.157 431.258 199.661 431.411 199.234V198.494C431.811 197.394 432.055 196.414 432.141 195.554L432.511 194.274L433.251 191.334L433.431 189.864L433.801 188.584L433.981 188.034V187.484C434.195 186.897 434.365 186.367 434.491 185.894C434.611 185.421 434.685 184.971 434.711 184.544L435.081 183.254L436.551 177.194L437.101 174.264L437.471 172.794C437.805 171.907 437.988 171.174 438.021 170.594L438.201 169.674L438.571 168.204C438.845 167.317 439.028 166.584 439.121 166.004L439.301 165.264L439.861 162.694L440.221 161.594V161.044L440.771 159.574V158.844L440.961 158.284L441.511 155.714H453.991L453.261 159.394L452.711 161.594L452.521 162.144L451.971 164.714L451.611 166.184L451.241 167.464L450.501 171.144L450.141 172.424L449.401 175.914L449.041 177.194L448.851 177.754L448.481 179.764L448.301 180.134L448.121 181.424C447.815 182.431 447.631 183.287 447.571 183.994L446.831 186.194L446.651 187.484L446.461 188.214L446.281 188.764L446.101 190.054L445.911 190.604L444.811 195.194L444.631 196.474L444.261 197.764L443.341 201.434L443.161 202.714L442.061 207.304L441.511 209.874C441.171 210.794 440.988 211.591 440.961 212.264L440.221 214.654V215.384C439.888 216.304 439.705 217.101 439.671 217.774C439.365 218.781 439.181 219.637 439.121 220.344L438.751 221.624L438.571 221.994L438.391 223.284C438.085 224.291 437.901 225.147 437.841 225.854H424.251L424.071 224.384C423.858 223.864 423.735 223.434 423.701 223.094L423.331 221.624L423.151 220.344L422.781 219.054C422.688 218.687 422.611 218.337 422.551 218.004C422.491 217.664 422.445 217.341 422.411 217.034L422.231 216.304L422.051 215.384C421.925 215.231 421.861 215.047 421.861 214.834L421.681 213.914L421.501 213.364C421.408 212.971 421.331 212.611 421.271 212.284C421.205 211.964 421.158 211.651 421.131 211.344C420.918 210.764 420.758 210.231 420.651 209.744C420.545 209.251 420.458 208.807 420.391 208.414L420.211 207.674L420.031 206.754C419.905 206.387 419.818 206.037 419.771 205.704C419.731 205.364 419.695 205.041 419.661 204.734C419.448 204.127 419.281 203.547 419.161 202.994C419.035 202.441 418.958 201.921 418.931 201.434C418.805 201.281 418.741 201.097 418.741 200.884L418.561 200.144L418.381 199.594C418.288 198.954 418.165 198.344 418.011 197.764L417.641 196.104L417.461 195.004L417.091 194.094L416.721 191.884L416.541 191.334V190.784C416.235 190.051 416.051 189.377 415.991 188.764L415.621 186.564L415.251 185.644L414.891 184.174V183.444C414.525 182.431 414.341 181.574 414.341 180.874C414.215 180.721 414.151 180.537 414.151 180.324L413.971 179.764V179.214C413.665 178.514 413.481 177.781 413.421 177.014C413.115 176.034 412.931 175.117 412.871 174.264L412.501 174.994L412.321 176.094L411.771 178.484L411.401 180.504L411.211 181.054L410.481 184.174L410.301 184.914L409.931 186.744L409.751 187.484L409.381 189.504L409.201 190.054L408.461 193.534L408.091 194.824L407.911 196.104C407.578 197.024 407.395 197.821 407.361 198.494L407.181 198.864L406.991 199.964L406.811 200.514L405.891 205.104L405.711 205.654L404.971 209.144L404.791 209.874L404.611 210.794L404.421 211.344L403.691 214.834L403.321 216.304L402.951 218.144L402.771 218.504L402.401 220.164L402.221 220.894L402.041 222.174C401.821 222.941 401.698 223.554 401.671 224.014C401.545 224.321 401.461 224.611 401.421 224.884C401.375 225.164 401.335 225.424 401.301 225.664C400.875 225.731 400.485 225.784 400.131 225.824C399.778 225.871 399.435 225.894 399.101 225.894H398.641C398.488 225.894 398.335 225.881 398.181 225.854H387.531V225.114C387.105 224.014 386.861 222.974 386.801 221.994C386.675 221.841 386.611 221.657 386.611 221.444L386.431 220.524C385.758 218.351 385.328 216.514 385.141 215.014L384.961 214.464L384.041 210.984L383.861 209.514L382.391 203.824V203.084C382.085 202.384 381.901 201.651 381.841 200.884L381.471 199.784L381.111 198.494V197.944L380.191 194.274V193.724L380.001 192.984L379.641 192.254L379.451 190.784C379.211 190.051 379.015 189.377 378.861 188.764C378.708 188.151 378.601 187.601 378.541 187.114L378.351 186.564V186.014C378.231 185.861 378.171 185.677 378.171 185.464L377.801 183.994L377.621 183.444C377.495 182.797 377.378 182.214 377.271 181.694C377.165 181.174 377.035 180.717 376.881 180.324L376.701 179.034C376.488 178.421 376.318 177.854 376.191 177.334C376.071 176.814 375.995 176.341 375.961 175.914L375.781 174.994C375.661 174.841 375.601 174.657 375.601 174.444L374.681 170.774L374.311 169.484L374.131 168.574L373.951 167.834L373.761 166.554C373.515 165.907 373.391 165.354 373.391 164.894V164.714L373.031 163.794L372.841 163.064C372.721 162.177 372.538 161.441 372.291 160.854V160.124C372.171 159.971 372.111 159.787 372.111 159.574" fill="white"/>
<path d="M497.566 180.135L498.126 181.235C499.559 183.015 500.476 184.851 500.876 186.745C500.996 187.538 501.086 188.281 501.146 188.975C501.212 189.661 501.246 190.265 501.246 190.785V215.015C502.372 217.255 504.022 218.601 506.196 219.055L505.836 219.605C505.709 219.825 505.586 219.948 505.466 219.975L505.286 220.525L504.916 220.895C504.609 221.568 504.242 222.118 503.816 222.545C503.382 223.678 502.829 224.535 502.156 225.115C501.882 225.728 501.622 226.258 501.376 226.705C501.136 227.145 500.909 227.535 500.696 227.875C497.116 226.955 494.299 225.301 492.246 222.915H491.696C487.749 225.761 483.679 227.185 479.486 227.185C477.219 227.185 474.986 226.801 472.786 226.035C466.206 223.681 462.229 219.398 460.856 213.185V212.955C460.856 201.115 467.786 195.195 481.646 195.195H481.786C482.059 195.068 482.362 195.005 482.696 195.005L483.246 194.825H484.536L485.086 194.645H485.636L490.226 194.095C490.286 193.755 490.316 193.448 490.316 193.175V192.255C490.316 187.141 487.609 184.585 482.196 184.585C478.429 184.585 473.272 185.855 466.726 188.395L465.996 186.745L465.626 185.645L465.256 185.275L465.076 184.915L464.706 183.805C464.372 183.258 464.129 182.708 463.976 182.155C463.329 181.301 462.899 180.445 462.686 179.585L463.236 179.405L463.606 179.215L464.156 179.035L464.526 178.665H465.076C465.196 178.545 465.302 178.485 465.396 178.485H465.446C466.546 177.905 467.522 177.475 468.376 177.195L469.296 177.015C469.969 176.708 470.582 176.525 471.136 176.465L472.606 176.095C473.672 175.668 474.712 175.425 475.726 175.365L479.766 174.625C480.372 174.565 480.959 174.511 481.526 174.465C482.092 174.418 482.652 174.395 483.206 174.395C489.046 174.395 493.832 176.308 497.566 180.135ZM485.816 203.455H484.716C484.442 203.515 484.176 203.561 483.916 203.595C483.656 203.621 483.402 203.635 483.156 203.635H482.886L482.146 203.825H481.596C481.442 203.945 481.259 204.005 481.046 204.005H480.496L477.556 204.735H477.006C476.152 205.228 475.419 205.535 474.806 205.655C472.819 207.555 471.826 209.391 471.826 211.165C471.826 212.785 472.636 214.375 474.256 215.935C476.609 217.375 478.902 218.095 481.136 218.095C483.982 218.095 486.706 216.948 489.306 214.655C489.552 213.948 489.799 213.458 490.046 213.185L490.226 212.635L490.046 211.895V203.265H486.376C486.222 203.391 486.036 203.455 485.816 203.455Z" fill="white"/>
<path d="M560.05 184.537V185.087C560.45 185.82 560.697 186.554 560.79 187.287V225.657H549.59V193.167L549.4 192.067C547.874 187.44 545.304 185.127 541.69 185.127C540.59 185.127 539.367 185.357 538.02 185.817C534.96 187.137 532.757 189.22 531.41 192.067L530.68 195.187V225.657H519.66V175.537H530.68V179.757C534.107 176.697 537.84 174.864 541.88 174.257H542.7C550.9 174.257 556.684 177.684 560.05 184.537Z" fill="white"/>
<path d="M123.5 149.5H73V247.5H123.5V149.5Z" stroke="white" stroke-width="2" stroke-dasharray="5 5"/>
<path d="M171 149.5H125.5V247.5H171V149.5Z" stroke="white" stroke-width="2" stroke-dasharray="5 5"/>
<path d="M228.5 149.5H173V247.5H228.5V149.5Z" stroke="white" stroke-width="2" stroke-dasharray="5 5"/>
<path d="M283 149.5H230.5V247.5H283V149.5Z" stroke="white" stroke-width="2" stroke-dasharray="5 5"/>
<path d="M339 149.5H285V247.5H339V149.5Z" stroke="white" stroke-width="2" stroke-dasharray="5 5"/>
<path d="M364 149.5H341V247.5H364V149.5Z" stroke="white" stroke-width="2" stroke-dasharray="5 5"/>
<path d="M455.5 149.5H366V247.5H455.5V149.5Z" stroke="white" stroke-width="2" stroke-dasharray="5 5"/>
<path d="M511 149.5H457.5V247.5H511V149.5Z" stroke="white" stroke-width="2" stroke-dasharray="5 5"/>
<path d="M567 149.5H513V247.5H567V149.5Z" stroke="white" stroke-width="2" stroke-dasharray="5 5"/>
<path d="M793 198.5L743 248.5H693L726.333 215.167H593V181.833H726.333L693 148.5H743L793 198.5Z" fill="white"/>
<rect x="594" y="149.5" width="198" height="98" stroke="white" stroke-width="2" stroke-dasharray="10 10"/>
<path d="M593 31V146.212" stroke="#46C147" stroke-width="3.03189"/>
<path d="M568 31V146.212" stroke="#46C147" stroke-width="3.03189"/>
<path d="M593 59H568" stroke="#46C147" stroke-width="3.03189"/>
<path d="M593 59.0957L629.383 50V68.1914L593 59.0957Z" fill="#46C147"/>
<path d="M568 59.0957L531.617 50V68.1914L568 59.0957Z" fill="#46C147"/>
<path d="M548.739 27V24.6744L557.473 15.1136C558.498 13.9939 559.342 13.0206 560.005 12.1937C560.669 11.3582 561.159 10.5744 561.478 9.84223C561.805 9.10148 561.969 8.32628 561.969 7.51663C561.969 6.58639 561.745 5.78104 561.297 5.10059C560.858 4.42014 560.255 3.89472 559.488 3.52435C558.722 3.15398 557.861 2.96879 556.904 2.96879C555.888 2.96879 555.001 3.17982 554.243 3.60187C553.494 4.01531 552.912 4.59671 552.499 5.34607C552.094 6.09543 551.892 6.97399 551.892 7.98175H548.842C548.842 6.43135 549.2 5.07044 549.915 3.89903C550.63 2.72761 551.603 1.8146 552.835 1.15999C554.075 0.505374 555.466 0.178067 557.008 0.178067C558.558 0.178067 559.932 0.505374 561.129 1.15999C562.327 1.8146 563.265 2.69747 563.946 3.80859C564.626 4.91971 564.967 6.15572 564.967 7.51663C564.967 8.48994 564.79 9.44171 564.437 10.372C564.092 11.2936 563.489 12.3229 562.628 13.4598C561.775 14.5882 560.591 15.9663 559.075 17.5942L553.132 23.9509V24.1576H565.432V27H548.739ZM584.876 11.5994L582.137 12.3746C581.965 11.918 581.711 11.4745 581.375 11.0438C581.048 10.6045 580.6 10.2428 580.031 9.95851C579.463 9.67427 578.735 9.53215 577.848 9.53215C576.633 9.53215 575.621 9.81209 574.812 10.372C574.011 10.9232 573.61 11.6252 573.61 12.4779C573.61 13.2359 573.886 13.8345 574.437 14.2738C574.988 14.7131 575.85 15.0791 577.021 15.372L579.967 16.0955C581.741 16.5262 583.063 17.1851 583.933 18.0723C584.803 18.9508 585.238 20.0835 585.238 21.4702C585.238 22.6072 584.911 23.6236 584.256 24.5194C583.61 25.4151 582.706 26.1214 581.543 26.6382C580.38 27.155 579.028 27.4134 577.486 27.4134C575.462 27.4134 573.787 26.9742 572.46 26.0956C571.134 25.217 570.294 23.9337 569.941 22.2454L572.835 21.5219C573.11 22.59 573.632 23.391 574.398 23.925C575.173 24.4591 576.185 24.7261 577.434 24.7261C578.856 24.7261 579.984 24.4246 580.819 23.8217C581.664 23.2101 582.086 22.478 582.086 21.6253C582.086 20.9362 581.844 20.3591 581.362 19.894C580.88 19.4203 580.139 19.0671 579.14 18.8346L575.832 18.0594C574.015 17.6287 572.68 16.9612 571.827 16.0568C570.983 15.1437 570.561 14.0025 570.561 12.633C570.561 11.5132 570.875 10.5227 571.504 9.66135C572.141 8.80002 573.007 8.12387 574.101 7.63291C575.204 7.14195 576.452 6.89647 577.848 6.89647C579.812 6.89647 581.353 7.32714 582.473 8.18847C583.602 9.0498 584.403 10.1868 584.876 11.5994ZM594.324 27L588.277 7.15487H591.482L595.771 22.3488H595.978L600.216 7.15487H603.471L607.657 22.2971H607.864L612.154 7.15487H615.358L609.311 27H606.314L601.973 11.7544H601.663L597.321 27H594.324Z" fill="#46C147"/>
<path d="M593 148.5H708.212" stroke="#FF0000" stroke-width="3.03189"/>
<path d="M568 148.5H708.212" stroke="#FF0000" stroke-width="3.03189"/>
<path d="M683.957 148.5L674.861 184.883H693.052L683.957 148.5Z" fill="#FF0000"/>
<path d="M683.957 148.5L674.861 112.117H693.052L683.957 148.5Z" fill="#FF0000"/>
<path d="M738.762 158.059C736.815 158.059 735.157 157.53 733.788 156.47C732.418 155.402 731.372 153.856 730.648 151.832C729.925 149.799 729.563 147.344 729.563 144.467C729.563 141.608 729.925 139.166 730.648 137.142C731.38 135.109 732.431 133.559 733.801 132.491C735.179 131.414 736.833 130.876 738.762 130.876C740.691 130.876 742.341 131.414 743.71 132.491C745.088 133.559 746.139 135.109 746.863 137.142C747.595 139.166 747.961 141.608 747.961 144.467C747.961 147.344 747.599 149.799 746.876 151.832C746.152 153.856 745.106 155.402 743.736 156.47C742.367 157.53 740.709 158.059 738.762 158.059ZM738.762 155.217C740.691 155.217 742.19 154.287 743.258 152.426C744.326 150.566 744.86 147.913 744.86 144.467C744.86 142.176 744.615 140.225 744.124 138.615C743.641 137.004 742.944 135.777 742.031 134.933C741.126 134.088 740.037 133.666 738.762 133.666C736.85 133.666 735.355 134.61 734.279 136.496C733.202 138.374 732.664 141.031 732.664 144.467C732.664 146.759 732.905 148.705 733.387 150.307C733.87 151.909 734.563 153.128 735.467 153.964C736.38 154.799 737.479 155.217 738.762 155.217ZM766.979 142.297L764.24 143.072C764.068 142.616 763.814 142.172 763.478 141.741C763.151 141.302 762.703 140.94 762.134 140.656C761.566 140.372 760.838 140.23 759.951 140.23C758.736 140.23 757.724 140.51 756.915 141.07C756.113 141.621 755.713 142.323 755.713 143.175C755.713 143.933 755.989 144.532 756.54 144.971C757.091 145.411 757.952 145.777 759.124 146.07L762.07 146.793C763.844 147.224 765.166 147.883 766.036 148.77C766.906 149.648 767.341 150.781 767.341 152.168C767.341 153.305 767.014 154.321 766.359 155.217C765.713 156.113 764.809 156.819 763.646 157.336C762.483 157.853 761.131 158.111 759.589 158.111C757.565 158.111 755.89 157.672 754.563 156.793C753.237 155.915 752.397 154.631 752.044 152.943L754.938 152.219C755.213 153.288 755.734 154.089 756.501 154.623C757.276 155.157 758.288 155.424 759.537 155.424C760.958 155.424 762.087 155.122 762.922 154.519C763.766 153.908 764.188 153.176 764.188 152.323C764.188 151.634 763.947 151.057 763.465 150.592C762.983 150.118 762.242 149.765 761.243 149.532L757.935 148.757C756.118 148.326 754.783 147.659 753.93 146.754C753.086 145.841 752.664 144.7 752.664 143.331C752.664 142.211 752.978 141.22 753.607 140.359C754.244 139.498 755.11 138.821 756.204 138.33C757.306 137.84 758.555 137.594 759.951 137.594C761.915 137.594 763.456 138.025 764.576 138.886C765.704 139.747 766.505 140.884 766.979 142.297ZM776.427 157.698L770.38 137.852H773.585L777.874 153.046H778.081L782.318 137.852H785.574L789.76 152.995H789.967L794.257 137.852H797.461L791.414 157.698H788.417L784.076 142.452H783.766L779.424 157.698H776.427Z" fill="#FF0000"/>
<path d="M593.521 309V424.212" stroke="#46C147" stroke-width="3.03189"/>
<path d="M593.521 273V413.212" stroke="#46C147" stroke-width="3.03189"/>
<path d="M593.521 399.957L629.904 390.861V409.052L593.521 399.957Z" fill="#46C147"/>
<path d="M593.521 399.957L557.139 390.861V409.052L593.521 399.957Z" fill="#46C147"/>
<path d="M571.37 457.362C569.423 457.362 567.765 456.832 566.395 455.773C565.026 454.705 563.979 453.158 563.256 451.134C562.532 449.102 562.171 446.647 562.171 443.77C562.171 440.91 562.532 438.468 563.256 436.444C563.988 434.412 565.039 432.861 566.408 431.793C567.786 430.716 569.44 430.178 571.37 430.178C573.299 430.178 574.948 430.716 576.318 431.793C577.696 432.861 578.747 434.412 579.47 436.444C580.203 438.468 580.569 440.91 580.569 443.77C580.569 446.647 580.207 449.102 579.483 451.134C578.76 453.158 577.713 454.705 576.344 455.773C574.974 456.832 573.316 457.362 571.37 457.362ZM571.37 454.519C573.299 454.519 574.798 453.589 575.866 451.729C576.934 449.868 577.468 447.215 577.468 443.77C577.468 441.479 577.222 439.528 576.731 437.917C576.249 436.306 575.551 435.079 574.638 434.235C573.734 433.391 572.644 432.969 571.37 432.969C569.457 432.969 567.963 433.912 566.886 435.798C565.81 437.676 565.271 440.333 565.271 443.77C565.271 446.061 565.513 448.008 565.995 449.61C566.477 451.212 567.171 452.431 568.075 453.266C568.988 454.102 570.086 454.519 571.37 454.519ZM599.587 441.599L596.848 442.375C596.676 441.918 596.421 441.474 596.086 441.044C595.758 440.605 595.31 440.243 594.742 439.959C594.173 439.674 593.446 439.532 592.558 439.532C591.344 439.532 590.332 439.812 589.522 440.372C588.721 440.923 588.321 441.625 588.321 442.478C588.321 443.236 588.596 443.835 589.148 444.274C589.699 444.713 590.56 445.079 591.732 445.372L594.677 446.096C596.452 446.526 597.774 447.185 598.644 448.072C599.514 448.951 599.949 450.083 599.949 451.47C599.949 452.607 599.621 453.624 598.967 454.519C598.321 455.415 597.416 456.121 596.254 456.638C595.091 457.155 593.738 457.413 592.197 457.413C590.173 457.413 588.497 456.974 587.171 456.096C585.844 455.217 585.005 453.934 584.651 452.245L587.545 451.522C587.821 452.59 588.342 453.391 589.109 453.925C589.884 454.459 590.896 454.726 592.145 454.726C593.566 454.726 594.695 454.425 595.53 453.822C596.374 453.21 596.796 452.478 596.796 451.625C596.796 450.936 596.555 450.359 596.073 449.894C595.59 449.42 594.85 449.067 593.85 448.835L590.543 448.059C588.725 447.629 587.39 446.961 586.538 446.057C585.694 445.144 585.272 444.002 585.272 442.633C585.272 441.513 585.586 440.523 586.215 439.661C586.852 438.8 587.718 438.124 588.812 437.633C589.914 437.142 591.163 436.896 592.558 436.896C594.522 436.896 596.064 437.327 597.184 438.188C598.312 439.05 599.113 440.187 599.587 441.599ZM609.035 457L602.988 437.155H606.192L610.482 452.349H610.688L614.926 437.155H618.182L622.368 452.297H622.575L626.864 437.155H630.068L624.022 457H621.024L616.683 441.754H616.373L612.032 457H609.035Z" fill="#46C147"/>
<path d="M716 272.383H831.212" stroke="#FF0000" stroke-width="3.03189"/>
<path d="M716 247.383H831.212" stroke="#FF0000" stroke-width="3.03189"/>
<path d="M806.957 272.383V247.383" stroke="#FF0000" stroke-width="3.03189"/>
<path d="M806.957 272.383L797.861 308.765H816.052L806.957 272.383Z" fill="#FF0000"/>
<path d="M806.957 247.383L797.861 211H816.052L806.957 247.383Z" fill="#FF0000"/>
<path d="M847.073 269.08V266.755L855.807 257.194C856.832 256.074 857.676 255.101 858.34 254.274C859.003 253.439 859.494 252.655 859.813 251.923C860.14 251.182 860.304 250.407 860.304 249.597C860.304 248.667 860.08 247.861 859.632 247.181C859.192 246.501 858.589 245.975 857.823 245.605C857.056 245.234 856.195 245.049 855.239 245.049C854.223 245.049 853.335 245.26 852.577 245.682C851.828 246.096 851.247 246.677 850.833 247.427C850.428 248.176 850.226 249.054 850.226 250.062H847.177C847.177 248.512 847.534 247.151 848.249 245.979C848.964 244.808 849.937 243.895 851.169 243.24C852.409 242.586 853.8 242.259 855.342 242.259C856.893 242.259 858.266 242.586 859.464 243.24C860.661 243.895 861.6 244.778 862.28 245.889C862.961 247 863.301 248.236 863.301 249.597C863.301 250.57 863.124 251.522 862.771 252.452C862.427 253.374 861.824 254.403 860.962 255.54C860.11 256.669 858.925 258.047 857.409 259.675L851.466 266.031V266.238H863.766V269.08H847.073ZM883.211 253.68L880.472 254.455C880.299 253.998 880.045 253.555 879.709 253.124C879.382 252.685 878.934 252.323 878.366 252.039C877.797 251.755 877.069 251.613 876.182 251.613C874.968 251.613 873.956 251.893 873.146 252.452C872.345 253.004 871.944 253.706 871.944 254.558C871.944 255.316 872.22 255.915 872.771 256.354C873.323 256.794 874.184 257.16 875.355 257.452L878.301 258.176C880.075 258.607 881.398 259.266 882.268 260.153C883.137 261.031 883.572 262.164 883.572 263.551C883.572 264.688 883.245 265.704 882.591 266.6C881.945 267.496 881.04 268.202 879.877 268.719C878.715 269.235 877.362 269.494 875.82 269.494C873.796 269.494 872.121 269.055 870.795 268.176C869.468 267.297 868.628 266.014 868.275 264.326L871.169 263.602C871.445 264.67 871.966 265.471 872.733 266.005C873.508 266.54 874.52 266.807 875.769 266.807C877.19 266.807 878.318 266.505 879.154 265.902C879.998 265.291 880.42 264.558 880.42 263.706C880.42 263.017 880.179 262.44 879.696 261.974C879.214 261.501 878.473 261.148 877.474 260.915L874.167 260.14C872.349 259.709 871.014 259.042 870.162 258.137C869.317 257.224 868.895 256.083 868.895 254.713C868.895 253.594 869.21 252.603 869.839 251.742C870.476 250.88 871.342 250.204 872.435 249.713C873.538 249.222 874.787 248.977 876.182 248.977C878.146 248.977 879.688 249.408 880.808 250.269C881.936 251.13 882.737 252.267 883.211 253.68ZM892.658 269.08L886.612 249.235H889.816L894.106 264.429H894.312L898.55 249.235H901.806L905.992 264.378H906.199L910.488 249.235H913.692L907.646 269.08H904.648L900.307 253.835H899.997L895.656 269.08H892.658Z" fill="#FF0000"/>
</svg>
