<svg width="1690" height="715" viewBox="0 0 1690 715" fill="none" xmlns="http://www.w3.org/2000/svg">
<path d="M2.50006 95C2.50006 53.5786 37.3662 20 80.3756 20H1508.09C1551.1 20 1585.97 53.5786 1585.97 95V620C1585.97 661.421 1551.1 695 1508.09 695H80.3756C37.3662 695 2.50006 661.421 2.50006 620V95Z" fill="black"/>
<path d="M41.4378 95C41.4378 74.2893 58.8709 57.5 80.3756 57.5H1508.09C1529.6 57.5 1547.03 74.2893 1547.03 95V620C1547.03 640.711 1529.6 657.5 1508.09 657.5H80.3756C58.8709 657.5 41.4378 640.711 41.4378 620V95Z" fill="white"/>
<path d="M200.638 471.943V453.713H310.681V471.943H200.638ZM186.392 508.163V490.393H326.09V508.163H186.392ZM154.38 545.963V527.513H357.635V545.963H154.38ZM183.111 421.763V404.663H264.423V421.763H183.111ZM245.494 416.143V404.663H269.563C274.54 410.816 280.573 416.779 287.661 422.553C294.75 428.326 302.579 433.689 311.148 438.643C319.711 443.589 328.665 448.013 338.01 451.913C347.355 455.813 356.78 459.113 366.284 461.813C364.568 463.013 362.619 464.589 360.438 466.543C358.258 468.489 356.154 470.513 354.125 472.613C352.104 474.713 350.47 476.663 349.224 478.463C336.764 474.116 324.46 468.716 312.311 462.263C300.163 455.816 288.911 448.656 278.555 440.783C268.199 432.903 259.28 424.689 251.797 416.143H245.494ZM240.354 406.913L260.446 414.343C252.818 424.243 243.553 433.393 232.65 441.793C221.747 450.193 210.104 457.616 197.72 464.063C185.336 470.516 172.838 476.143 160.226 480.943C159.132 479.443 157.651 477.643 155.782 475.543C153.913 473.443 151.967 471.379 149.946 469.353C147.918 467.326 146.125 465.713 144.568 464.513C157.339 460.766 169.799 456.043 181.948 450.343C194.096 444.643 205.193 438.116 215.237 430.763C225.288 423.416 233.661 415.466 240.354 406.913ZM244.092 540.343V462.043H266.759V540.343H244.092ZM152.75 381.493V361.913H359.276V381.493H152.75ZM202.507 400.163V344.813H224.468V400.163H202.507ZM286.145 401.293V344.813H308.106V401.293" fill="black"/>
<path d="M539.677 360.338V349.308H580.556V360.338H539.677ZM538.275 397.008V386.208H582.197V397.008H538.275ZM538.275 413.888V403.308H582.197V413.888H538.275ZM504.166 520.538V506.808H622.609V520.538H504.166ZM531.505 379.238V367.308H587.565V379.238H531.505ZM568.179 431.658H551.597V444.488H568.179V431.658ZM537.808 454.838V421.308H582.436V454.838H537.808ZM508.142 497.358V484.538H605.092V474.858H493.658V462.038H625.651V497.358H508.142ZM500.199 457.988V406.908H514.912V457.988H500.199ZM478.934 414.788L477.293 401.058C484.153 400.758 491.827 400.458 500.313 400.158C508.8 399.858 517.792 399.484 527.289 399.038V411.408C518.574 412.161 510.126 412.761 501.943 413.208C493.768 413.661 486.098 414.188 478.934 414.788ZM501.829 484.538H522.388C520.519 491.738 518.495 499.238 516.314 507.038C514.134 514.838 512.109 521.588 510.24 527.288L490.387 524.588C492.567 519.034 494.668 512.621 496.689 505.348C498.718 498.074 500.431 491.138 501.829 484.538ZM615.6 509.058V506.808H636.398C636.398 506.808 636.322 507.821 636.17 509.848C636.01 511.874 635.699 513.561 635.235 514.908C633.048 524.208 630.788 531.521 628.455 536.848C626.115 542.174 623.388 546.038 620.273 548.438C617.628 550.238 614.787 551.474 611.748 552.148C608.716 552.821 605.096 553.234 600.887 553.388C597.308 553.534 592.206 553.571 585.582 553.498C578.964 553.424 571.917 553.238 564.441 552.938C564.282 550.538 563.659 547.838 562.572 544.838C561.485 541.838 560.163 539.138 558.606 536.738C565.923 537.484 573.007 537.934 579.861 538.088C586.714 538.234 591.542 538.308 594.345 538.308C596.837 538.308 598.862 538.234 600.42 538.088C601.977 537.934 603.303 537.484 604.396 536.738C606.577 535.084 608.56 532.121 610.346 527.848C612.139 523.574 613.89 517.311 615.6 509.058ZM517.716 422.888L528.93 420.408C530.176 424.161 531.384 428.288 532.554 432.788C533.717 437.288 534.613 441.188 535.243 444.488L523.094 447.638C522.776 444.184 522.111 440.171 521.101 435.598C520.09 431.024 518.962 426.788 517.716 422.888ZM517.02 392.288L527.061 388.688C529.089 392.434 530.958 396.634 532.668 401.288C534.385 405.934 535.555 409.984 536.178 413.438L525.192 417.488C524.728 414.034 523.717 409.984 522.16 405.338C520.602 400.684 518.889 396.334 517.02 392.288ZM479.63 374.508L487.116 363.708C491.629 366.561 496.066 369.824 500.428 373.498C504.789 377.171 508.059 380.358 510.24 383.058L501.829 395.438C499.496 392.284 496.226 388.758 492.017 384.858C487.815 380.958 483.686 377.508 479.63 374.508ZM501.829 344.138L515.151 350.438C512.036 355.384 508.921 360.408 505.806 365.508C502.691 370.608 499.728 374.884 496.918 378.338L486.638 373.158C489.137 369.258 491.865 364.498 494.82 358.878C497.776 353.251 500.113 348.338 501.829 344.138ZM516.781 362.808L529.864 370.008C524.728 376.761 519.239 383.888 513.396 391.388C507.554 398.888 502.061 405.188 496.918 410.288L487.116 404.438C490.383 400.684 493.886 396.408 497.624 391.608C501.362 386.808 504.906 381.858 508.257 376.758C511.6 371.658 514.442 367.008 516.781 362.808ZM484.78 419.508L498.558 422.438C497.16 428.284 495.447 434.134 493.419 439.988C491.397 445.834 489.217 450.858 486.877 455.058C485.479 454.158 483.454 453.148 480.803 452.028C478.159 450.901 475.978 449.961 474.261 449.208C476.913 445.008 479.093 440.321 480.803 435.148C482.52 429.974 483.845 424.761 484.78 419.508ZM608.135 457.988V406.908H623.087V457.988H608.135ZM586.641 414.788L585.229 401.058C592.4 400.758 600.461 400.458 609.412 400.158C618.369 399.858 627.911 399.558 638.039 399.258L637.8 411.638C628.614 412.238 619.698 412.801 611.052 413.328C602.406 413.848 594.269 414.334 586.641 414.788ZM626.357 422.888L638.267 419.508C640.288 424.008 642.275 428.958 644.227 434.358C646.172 439.758 647.533 444.408 648.308 448.308L635.931 452.138C635.308 448.238 634.062 443.511 632.193 437.958C630.324 432.411 628.379 427.388 626.357 422.888ZM624.488 391.838L635.464 387.108C638.115 391.008 640.569 395.321 642.825 400.048C645.082 404.774 646.678 408.938 647.612 412.538L635.702 417.708C634.92 414.108 633.477 409.871 631.373 404.998C629.275 400.124 626.98 395.738 624.488 391.838ZM585.706 374.058L593.65 363.938C597.699 366.638 601.749 369.751 605.798 373.278C609.848 376.798 612.963 379.984 615.143 382.838L606.027 394.538C604.005 391.538 601.084 388.088 597.263 384.188C593.449 380.288 589.597 376.911 585.706 374.058ZM608.591 344.358L621.913 350.888C618.646 355.834 615.375 360.821 612.101 365.848C608.834 370.874 605.719 375.188 602.756 378.788L592.476 373.608C595.128 369.708 598.011 364.948 601.126 359.328C604.241 353.701 606.729 348.711 608.591 344.358ZM625.184 361.908L638.267 369.108C632.972 375.861 627.209 382.988 620.979 390.488C614.749 397.988 608.83 404.288 603.223 409.388L593.65 403.538C597.228 399.784 600.967 395.508 604.864 390.708C608.754 385.908 612.492 380.958 616.078 375.858C619.657 370.758 622.692 366.108 625.184 361.908ZM592.476 419.508L606.027 422.658C604.94 428.211 603.382 433.874 601.354 439.648C599.333 445.421 597.152 450.334 594.813 454.388C593.567 453.634 591.698 452.621 589.206 451.348C586.714 450.074 584.533 449.061 582.664 448.308C585.156 444.108 587.181 439.534 588.738 434.588C590.296 429.634 591.542 424.608 592.476 419.508ZM433.61 361.688L446.455 347.738C450.352 349.684 454.443 352.048 458.728 354.828C463.013 357.601 467.024 360.374 470.762 363.148C474.5 365.921 477.536 368.584 479.868 371.138L466.557 386.888C464.369 384.334 461.448 381.558 457.793 378.558C454.131 375.558 450.2 372.598 445.998 369.678C441.789 366.751 437.66 364.088 433.61 361.688ZM428.709 421.758L440.858 407.138C444.907 408.938 449.151 411.151 453.588 413.778C458.025 416.398 462.151 419.021 465.965 421.648C469.786 424.274 472.943 426.788 475.435 429.188L462.58 445.388C460.247 442.988 457.17 440.361 453.349 437.508C449.535 434.661 445.447 431.851 441.086 429.078C436.725 426.298 432.6 423.858 428.709 421.758ZM453.235 550.908L433.371 540.108C436.334 534.108 439.491 527.134 442.841 519.188C446.192 511.234 449.618 502.834 453.121 493.988C456.623 485.134 459.856 476.434 462.819 467.888L480.336 478.688C477.844 486.634 475.04 494.808 471.925 503.208C468.81 511.608 465.695 519.858 462.58 527.958C459.465 536.058 456.35 543.708 453.235 550.908Z" fill="black"/>
<path d="M393.951 328.5H110.484V611.5H393.951V328.5Z" stroke="black" stroke-width="2" stroke-dasharray="10 10"/>
<path d="M679.494 328.5H396.028V611.5H679.494V328.5Z" stroke="black" stroke-width="2" stroke-dasharray="10 10"/>
<path d="M1421.65 165.82L1479.02 295.999L1440.13 388.717L1401.88 301.931L1298.15 549.18L1233.97 524.206L1337.69 276.957L1247.58 313.796L1286.48 221.078L1421.65 165.82Z" fill="black"/>
<path d="M111.944 137.868H113.471H114.987H116.139H117.655H124.519H126.045H132.908H135.193H137.872H145.493H148.546H151.588H154.641H157.694H165.315H166.457H167.61H179.426H182.095H184.379H187.047H189.342H191.242H193.527H195.053H201.916H206.111H207.638H209.164H210.69H212.217H218.696H219.838H224.417V165.768H222.123H220.98H213.359H208.396H206.88H200.016H198.49H196.964H195.437H188.958H187.816H183.237V278.498H178.284H176.757H169.894H168.368H166.841H165.315H158.836H157.694H153.114V275.928V274.828V272.988V271.888V270.418V269.318V261.978V260.508V253.898V251.698V249.128V241.778V238.838V235.908V232.968V230.028V222.688V221.588V220.488V209.098V206.528V204.328V201.758V199.558V197.718V195.518V194.048V187.438V183.398V181.928V180.458V178.988V177.518V171.278V170.178V165.768H150.83H149.688H142.056H137.103H135.577H128.713H127.187H125.671H124.145H117.655H116.513H111.944V158.428V156.588V155.488V154.018V152.558V151.088V149.618V143.378V142.268" fill="black"/>
<path d="M272.78 176.016C292.225 174.916 308.364 179.936 321.198 191.076L320.056 192.176L318.913 193.276C318.083 194.376 317.318 195.232 316.619 195.846L315.092 197.316L313.95 198.416C312.808 199.882 311.666 200.982 310.524 201.716L310.139 202.456L309.381 203.556L308.613 203.926L303.66 209.436C287.074 196.156 274.237 194.809 265.148 205.396C265.086 208.209 265.723 210.656 267.059 212.736L268.585 213.106L269.727 213.836H270.869L272.012 214.206L275.064 214.576L281.17 216.036C295.083 216.162 306.391 220.326 315.092 228.526C322.402 238.992 323.929 249.519 319.671 260.106C315.476 269.286 308.994 275.406 300.223 278.466C271.697 286.232 247.804 281.336 228.547 263.776C229.758 262.242 230.904 261.019 231.984 260.106L233.51 259.366C235.095 257.286 236.874 255.696 238.847 254.596L239.989 253.126L240.747 252.396L241.515 251.656L242.273 250.926L243.042 250.556L243.8 250.186C245.641 247.926 247.42 246.212 249.137 245.046C261.846 257.106 274.684 261.269 287.649 257.536L288.023 256.796C289.802 255.696 291.2 254.349 292.218 252.756C292.474 249.022 291.204 246.209 288.407 244.316H287.265L286.507 243.576H285.354L284.212 243.216L283.454 242.476C279.578 241.862 276.4 241.129 273.922 240.276C251.487 239.296 238.906 229.749 236.178 211.636C236.497 189.849 248.697 177.976 272.78 176.016Z" fill="black"/>
<path d="M341.636 178.259H343.163H345.063H346.589H348.5H350.026H351.926H356.879H358.406H364.895H367.938H370.606L370.99 243.989C377.663 256.349 387.323 259.039 399.97 252.059C403.778 249.125 406.446 245.699 407.976 241.779V240.679V233.339V230.769V228.199V226.729V224.889V220.119V218.649V212.409V211.309V206.899V205.429V203.959V202.859V196.249V191.479V190.009V183.769V182.659V178.259H415.597H417.508H418.65H420.176H421.703H423.229H424.745H431.235H432.377H436.946V278.499H429.324H427.414H426.271H424.745H423.229H421.703H420.176H413.697H412.545H407.976V271.889C392.851 282.415 377.726 283.639 362.601 275.559C355.741 271.339 350.66 266.322 347.358 260.509L346.589 260.139L346.205 259.039L345.831 257.939C345.257 256.712 344.873 255.732 344.679 254.999L344.305 253.899C343.094 250.105 342.329 247.045 342.01 244.719L341.636 236.639V234.069V231.869V225.629V224.519V220.119V215.339V213.879V207.629V206.529V202.129V198.089V196.249V191.479V190.009V183.769V182.659" fill="black"/>
<path d="M501.106 176.188C532.18 175.755 549.846 190.318 554.103 219.878L555.256 224.648V227.218C555.761 231.565 555.885 235.115 555.629 237.868L554.487 237.508H553.345H545.724H544.571H543.429H531.613H528.944H526.66H523.991H521.696H519.796H517.502H515.975H509.122H504.927H503.401H501.875H500.348H498.822H492.343H491.2H486.621C488.02 248.155 493.737 254.518 503.775 256.598C516.297 258.432 526.719 255.372 535.039 247.418L538.092 250.718C539.303 251.518 540.193 252.375 540.76 253.288L541.529 253.658L541.903 254.398C543.176 255.312 544.194 256.168 544.955 256.968L545.724 258.068C546.167 258.315 546.419 258.558 546.482 258.798L547.24 259.168L548.008 259.898L548.392 260.638L549.15 261.008L549.534 261.738C550.801 262.658 551.815 263.515 552.577 264.308C540.573 278.995 524.053 284.502 503.017 280.828C477.28 276.608 462.663 261.555 459.168 235.668C456.883 202.868 470.863 183.042 501.106 176.188ZM507.596 198.948C495.904 200.722 489.041 206.718 487.005 216.938H489.29H491.958H496.922H508.738H514.075H515.217H517.128H518.27H519.796H520.938H528.56C525.701 205.925 518.713 199.928 507.596 198.948Z" fill="black"/>
<path d="M630.406 175.939C647.816 175.386 661.415 182.239 671.203 196.499L671.587 197.599L671.961 198.699L672.345 199.809C672.982 200.849 673.362 201.826 673.487 202.739L675.013 207.149V208.249C675.899 212.656 676.28 216.206 676.155 218.899V278.749H668.534H666.624H665.481H663.955H662.429H660.902H659.386H652.897H651.754H647.186V277.649V275.809V274.709V273.239V272.139V264.799V259.659V255.619V253.779V252.679V251.209V250.109V242.769V241.299V237.259V233.589V226.979V225.879V224.769V223.309V216.699V215.229C646.549 213.696 646.165 212.349 646.033 211.189C642.987 206.049 638.921 202.742 633.833 201.269C623.29 201.029 615.541 204.946 610.584 213.019L609.816 215.589V278.749H602.195H600.284H599.142H597.615H596.089H594.563H593.036H586.557H585.415H580.836V277.649V275.809V274.709V273.239V272.139V264.799V262.229V260.759V258.919V257.449V255.619V250.839V249.379V243.129V242.029V237.629V235.059V232.489V230.279V227.709V225.509V222.939V220.739V214.489V212.289V210.449V208.249V206.779V200.169V196.129V194.659V193.199V191.729V190.259V184.019V182.909V178.509H588.468H590.368H591.52H593.036H594.563H596.089H597.615H604.095H605.237H609.816C609.691 181.016 609.819 183.096 610.2 184.749C616.555 179.916 623.29 176.979 630.406 175.939Z" fill="black"/>
<path d="M754.028 138.773H755.938H758.223H760.133H761.275H763.176H764.702H765.844H767.755H769.665H770.807H775.376H776.529C779.955 138.593 782.876 138.716 785.292 139.143V140.243L786.819 146.483L787.203 148.693C787.452 149.06 787.577 149.426 787.577 149.793L787.961 150.893L788.345 151.623L788.729 153.463L789.871 159.333L790.245 160.073V161.173C791.2 163.38 791.709 165.46 791.771 167.413L792.54 169.623V170.723C793.488 172.923 793.997 175.003 794.066 176.963L794.824 178.803L795.208 180.633L795.582 182.833C796.731 186.14 797.368 188.956 797.493 191.283C798.316 193.183 798.825 194.896 799.019 196.423C799.4 197.956 799.652 199.303 799.777 200.463C800.732 202.73 801.241 204.81 801.303 206.703C801.878 208.11 802.259 209.333 802.446 210.373C802.826 211.906 803.082 213.253 803.214 214.413C804.038 216.74 804.546 218.7 804.74 220.293L805.114 222.123L806.267 225.803L806.64 228.373L808.167 233.513L808.551 231.673L808.935 230.573V229.473L809.309 228.373C809.759 225.74 810.268 223.536 810.835 221.763V220.293L811.22 219.193L812.362 214.413V213.313L812.746 211.843L813.13 210.743L813.504 209.643V208.543L814.272 205.973V204.873C814.653 203.46 814.906 202.233 815.03 201.193C815.473 199.973 815.729 198.873 815.799 197.893C816.622 195.02 817.128 192.573 817.315 190.553L817.699 188.713L818.083 187.613L820.367 176.963L820.751 175.123L821.136 174.023C821.454 172.13 821.835 170.54 822.278 169.253V168.153L823.036 165.213L824.562 157.873L824.946 157.133L825.704 152.733L826.089 151.623V150.523L827.231 146.853C827.487 144.526 827.868 142.57 828.373 140.983L828.757 138.773H830.668H832.952H834.478H841.342H845.537H847.063H848.579H850.105H851.632H858.111H859.264H863.832L864.216 141.343L864.974 143.913V145.383C865.93 148.75 866.567 151.566 866.885 153.833L868.027 158.973L869.169 163.373L869.553 165.213L869.938 167.783L870.311 169.983L870.696 172.193L871.464 174.023L871.838 176.233L872.222 178.063V179.163C872.478 179.53 872.606 179.896 872.606 180.263C873.112 181.736 873.364 183.083 873.364 184.303C873.62 184.67 873.748 185.04 873.748 185.413L874.133 186.143V187.243L874.891 190.183L875.649 194.583L876.417 196.793L876.801 198.993V200.093L877.559 203.033L877.943 205.233C878.705 207.193 879.085 209.03 879.085 210.743L879.47 212.213C880.169 214.046 880.549 215.636 880.612 216.983L880.986 218.083L881.37 221.023L882.138 223.963L882.512 226.163C883.53 228.983 884.038 231.433 884.038 233.513L885.18 231.303V229.833L885.949 226.903L886.333 225.803L886.707 224.693C886.963 222.673 887.344 220.96 887.849 219.553L888.617 216.623L889.002 214.413L889.375 213.683L889.76 211.113L891.286 205.973L891.67 203.403L892.428 200.833L892.812 198.263L893.57 195.693L893.954 194.223L894.712 191.283L897.007 182.103L897.381 179.903L898.149 176.963L898.907 174.393L899.292 172.193L900.05 169.983L900.434 168.513V167.053L900.818 165.583L901.202 164.483L901.576 163.743L902.344 159.333L903.102 156.403L903.871 153.833V152.733L904.244 151.623L904.629 150.523V149.423L905.387 146.853L905.771 145.753V144.653C906.664 142.386 907.173 140.426 907.297 138.773H908.823H915.687H919.882H921.408H922.935H924.451H925.977H932.467H933.609H938.177V139.873L937.804 142.083L936.651 145.013L936.277 147.583L935.135 152.733L934.751 153.833C934.176 156.646 933.539 158.97 932.84 160.803C932.778 162.21 932.525 163.436 932.082 164.483L929.788 174.023L929.414 175.123V176.233L929.03 178.433L928.272 181.373C927.635 183.086 927.251 184.553 927.119 185.773L926.745 186.513L926.361 189.083C925.724 191.103 925.343 192.816 925.219 194.223C924.644 195.63 924.264 196.853 924.077 197.893L923.693 199.363L923.308 200.463C923.246 201.87 922.993 203.093 922.55 204.133L922.166 206.333L921.782 207.803L921.408 208.543L921.024 211.113L919.498 216.253L918.355 222.493L917.587 225.433L916.829 228.003L916.445 230.203L916.071 231.673L915.687 232.773L915.303 233.513L914.545 237.913L913.403 242.693L913.018 243.793C912.506 246.666 911.869 248.99 911.108 250.763V252.233C910.471 254.073 910.09 255.666 909.966 257.013L909.581 258.113L909.208 259.213L908.439 262.153L908.066 264.723L906.539 269.863L906.155 272.433L904.629 279.043H902.344H901.202H893.57H891.67H890.518H888.617H887.091H885.949H884.038H882.138H880.986H876.417H875.275C871.841 279.223 868.917 279.1 866.501 278.673V277.573L866.117 276.833V275.733L865.743 274.633L864.974 270.233L863.074 261.783L862.69 259.213C861.672 255.846 861.036 253.03 860.779 250.763L860.022 247.833L859.264 244.893L858.879 242.323L858.495 239.753L857.737 237.553V236.083L856.585 231.673V230.573C855.505 227.206 854.871 224.39 854.684 222.123L853.916 219.923V218.083C853.667 217.716 853.542 217.35 853.542 216.983L853.158 216.253L851.632 208.173L851.248 206.703L850.105 200.833L849.347 197.893L848.963 196.423V194.953L848.579 193.483L847.821 190.913V189.813L847.063 186.873L846.295 184.303L845.91 185.413L845.537 187.613L845.152 189.083L844.768 191.283L843.242 198.263L842.484 200.833V201.933L840.958 207.803L840.573 210.743L839.815 213.683L839.047 216.623L838.673 219.553L837.905 222.493L837.147 226.903C836.254 229.656 835.745 231.98 835.621 233.873L834.863 236.083L834.478 237.913V239.013C834.035 240.426 833.779 241.653 833.71 242.693C833.267 243.913 833.014 245.013 832.952 245.993L832.184 247.833L831.426 252.973L831.041 254.803L830.668 256.273L829.141 262.883L827.999 268.023L827.615 270.233L826.847 273.163L825.704 279.043H823.42H822.278H814.646H812.746H811.604H809.693H808.167H807.025H805.114H803.214H802.072H797.493H796.351C792.917 279.223 789.992 279.1 787.577 278.673L787.203 275.733C786.054 272.433 785.417 269.62 785.292 267.293C784.911 266.373 784.659 265.516 784.534 264.723L783.766 261.783L783.008 258.843L782.239 256.273L781.866 253.333L781.481 251.873C780.72 249.853 780.339 248.14 780.339 246.733L779.955 245.263L778.045 239.013V237.553C777.096 235.1 776.591 232.896 776.529 230.943C775.573 228.736 775.065 226.776 775.002 225.063L774.234 222.863L773.86 219.923C773.604 219.556 773.476 219.19 773.476 218.823L771.565 211.483L770.807 208.543V207.443C770.046 205.663 769.665 204.07 769.665 202.663C769.284 201.75 769.028 200.893 768.897 200.093L768.139 197.523L767.755 194.953C767.055 193.12 766.675 191.53 766.612 190.183C765.47 187.003 764.833 184.31 764.702 182.103L763.944 180.263L763.56 178.433L763.176 176.233L762.802 174.393C762.546 173.72 762.418 173.106 762.418 172.553L761.66 171.083L760.507 165.213C759.877 163.38 759.496 161.79 759.365 160.443C758.797 159.036 758.545 157.81 758.607 156.763C757.465 153.89 756.828 151.32 756.696 149.053C756.059 147.586 755.679 146.24 755.554 145.013L755.17 143.913V142.813C754.533 141.346 754.152 140 754.028 138.773Z" fill="black"/>
<path d="M991.8 174.953C1009.21 173.853 1023.7 178.013 1035.26 187.433L1035.64 188.173C1036.66 189.393 1037.42 190.616 1037.93 191.843C1039.26 193.743 1040.15 195.456 1040.6 196.983V198.453C1041.36 200.84 1041.74 202.92 1041.74 204.693V240.683C1041.49 246.736 1041.74 251.753 1042.5 255.733C1045.62 258.853 1049.17 260.813 1053.18 261.613L1052.42 262.713L1051.65 264.543L1050.89 266.013L1050.51 267.113L1050.13 268.223L1049.37 269.323L1047.84 272.993L1047.08 274.093L1046.7 275.193L1046.31 276.293L1045.94 277.033L1043.27 282.543C1031.96 282.603 1023.44 279.173 1017.72 272.253C1006.86 282.66 993.385 285.233 977.305 279.973C962.498 276.053 953.855 267.36 951.377 253.893C951.509 234.126 961.169 222.623 980.357 219.383C981.375 218.77 982.392 218.403 983.41 218.283H984.552C984.933 218.036 985.314 217.913 985.694 217.913L986.837 217.543L993.7 216.443L996.753 216.073L997.895 215.713L1004.37 215.343C1007.81 214.856 1010.6 214.733 1012.76 214.973C1013.72 201.326 1005.97 196.676 989.505 201.023L988.363 201.393L985.31 201.753L982.642 202.863L981.499 203.223L977.689 204.323C975.716 205.61 973.937 206.466 972.352 206.893C970.192 208.486 968.032 209.59 965.872 210.203L963.204 205.433L962.436 205.063L962.062 203.963L961.293 203.223L960.909 202.123C959.262 200.29 958.12 198.576 957.483 196.983C956.465 196.063 955.828 195.083 955.572 194.043C953.925 192.516 952.91 190.926 952.53 189.273L953.288 188.903L954.43 188.173L955.198 187.803C956.908 186.703 958.431 185.846 959.767 185.233C960.785 184.56 961.802 184.193 962.82 184.133L963.578 183.393C965.931 182.353 967.966 181.62 969.683 181.193L970.441 180.463H971.583C972.795 179.73 973.812 179.24 974.636 178.993H975.778C977.495 178.133 979.149 177.643 980.741 177.523C984.237 176.116 987.539 175.383 990.647 175.323L991.8 174.953ZM1011.62 235.173L1010.1 235.543H1008.95C1007.43 235.97 1006.16 236.213 1005.14 236.273H1004C1003.61 236.52 1003.23 236.643 1002.85 236.643L1001.33 237.003H1000.18L998.663 237.373L996.368 237.743C995.988 237.99 995.607 238.113 995.226 238.113L993.7 238.473L992.558 238.843C989 239.703 986.203 240.56 984.168 241.413C981.503 244.84 980.741 248.39 981.884 252.063C988.238 260.63 997.39 262.1 1009.34 256.473L1012.38 252.063L1012.76 250.593V249.123V248.023V246.183V245.083V243.613V242.513V235.173" fill="black"/>
<path d="M1121.54 175.939C1138.95 175.386 1152.55 182.239 1162.34 196.499L1162.72 197.599L1163.1 198.699L1163.48 199.809C1164.12 200.849 1164.5 201.826 1164.62 202.739L1166.15 207.149V208.249C1167.03 212.656 1167.41 216.206 1167.29 218.899V278.749H1159.67H1157.76H1156.62H1155.09H1153.56H1152.04H1150.52H1144.03H1142.89H1138.32V277.649V275.809V274.709V273.239V272.139V264.799V259.659V255.619V253.779V252.679V251.209V250.109V242.769V241.299V237.259V233.589V226.979V225.879V224.769V223.309V216.699V215.229C1137.68 213.696 1137.3 212.349 1137.17 211.189C1134.12 206.049 1130.06 202.742 1124.97 201.269C1114.42 201.029 1106.68 204.946 1101.72 213.019L1100.95 215.589V278.749H1093.33H1091.42H1090.28H1088.75H1087.22H1085.7H1084.17H1077.69H1076.55H1071.97V277.649V275.809V274.709V273.239V272.139V264.799V262.229V260.759V258.919V257.449V255.619V250.839V249.379V243.129V242.029V237.629V235.059V232.489V230.279V227.709V225.509V222.939V220.739V214.489V212.289V210.449V208.249V206.779V200.169V196.129V194.659V193.199V191.729V190.259V184.019V182.909V178.509H1079.6H1081.5H1082.66H1084.17H1085.7H1087.22H1088.75H1095.23H1096.37H1100.95C1100.83 181.016 1100.95 183.096 1101.33 184.749C1107.69 179.916 1114.42 176.979 1121.54 175.939Z" fill="black"/>
<path d="M225.74 128.5H110.484V326.5H225.74V128.5Z" stroke="black" stroke-width="2" stroke-dasharray="10 10"/>
<path d="M327.497 128.5H227.817V326.5H327.497V128.5Z" stroke="black" stroke-width="2" stroke-dasharray="10 10"/>
<path d="M452.098 128.5H329.574V326.5H452.098V128.5Z" stroke="black" stroke-width="2" stroke-dasharray="10 10"/>
<path d="M566.315 128.5H454.175V326.5H566.315V128.5Z" stroke="black" stroke-width="2" stroke-dasharray="10 10"/>
<path d="M689.878 128.5H568.392V326.5H689.878V128.5Z" stroke="black" stroke-width="2" stroke-dasharray="10 10"/>
<path d="M741.795 128.5H691.954V326.5H741.795V128.5Z" stroke="black" stroke-width="2" stroke-dasharray="10 10"/>
<path d="M942.194 128.5H743.871V326.5H942.194V128.5Z" stroke="black" stroke-width="2" stroke-dasharray="10 10"/>
<path d="M1057.45 128.5H944.271V326.5H1057.45V128.5Z" stroke="black" stroke-width="2" stroke-dasharray="10 10"/>
<path d="M1181.01 128.5H1059.53V326.5H1181.01V128.5Z" stroke="black" stroke-width="2" stroke-dasharray="10 10"/>
<path d="M1233.97 165.82V260.138" stroke="#008000" stroke-width="2.48206"/>
<path d="M1182.05 127.5V260.138" stroke="#008000" stroke-width="2.48206"/>
<path d="M1233.97 240.281H1182.05" stroke="#008000" stroke-width="2.48206"/>
<path d="M1233.97 240.282L1264.89 232.835V247.728L1233.97 240.282Z" fill="#008000"/>
<path d="M1182.05 240.282L1151.12 232.835V247.728L1182.05 240.282Z" fill="#008000"/>
<path d="M1166.22 290.354V287.054L1173.93 279.914C1174.59 279.279 1175.14 278.708 1175.58 278.201C1176.03 277.693 1176.37 277.196 1176.61 276.709C1176.84 276.216 1176.96 275.683 1176.96 275.112C1176.96 274.478 1176.81 273.931 1176.52 273.473C1176.23 273.007 1175.84 272.651 1175.34 272.404C1174.84 272.151 1174.27 272.024 1173.64 272.024C1172.97 272.024 1172.39 272.158 1171.9 272.426C1171.41 272.694 1171.03 273.078 1170.76 273.578C1170.49 274.079 1170.36 274.675 1170.36 275.366H1166.01C1166.01 273.949 1166.33 272.718 1166.97 271.675C1167.61 270.631 1168.51 269.824 1169.67 269.253C1170.83 268.681 1172.16 268.396 1173.67 268.396C1175.22 268.396 1176.57 268.671 1177.72 269.221C1178.87 269.764 1179.77 270.518 1180.42 271.484C1181.06 272.45 1181.38 273.557 1181.38 274.805C1181.38 275.623 1181.22 276.431 1180.89 277.228C1180.57 278.024 1180.01 278.909 1179.19 279.882C1178.37 280.848 1177.22 282.008 1175.73 283.362L1172.57 286.461V286.609H1181.66V290.354H1166.22ZM1187.66 290.629C1186.96 290.629 1186.36 290.382 1185.86 289.888C1185.37 289.387 1185.12 288.788 1185.12 288.09C1185.12 287.399 1185.37 286.807 1185.86 286.313C1186.36 285.82 1186.96 285.573 1187.66 285.573C1188.33 285.573 1188.93 285.82 1189.43 286.313C1189.94 286.807 1190.2 287.399 1190.2 288.09C1190.2 288.555 1190.08 288.982 1189.84 289.37C1189.6 289.751 1189.3 290.057 1188.92 290.29C1188.54 290.516 1188.12 290.629 1187.66 290.629ZM1201.47 290.829C1199.65 290.822 1198.09 290.375 1196.78 289.486C1195.47 288.598 1194.47 287.311 1193.76 285.626C1193.07 283.94 1192.72 281.913 1192.73 279.544C1192.73 277.182 1193.08 275.169 1193.77 273.504C1194.48 271.84 1195.48 270.575 1196.79 269.707C1198.1 268.833 1199.66 268.396 1201.47 268.396C1203.29 268.396 1204.84 268.833 1206.15 269.707C1207.46 270.582 1208.47 271.851 1209.17 273.515C1209.88 275.172 1210.23 277.182 1210.22 279.544C1210.22 281.92 1209.87 283.951 1209.16 285.636C1208.47 287.321 1207.46 288.608 1206.16 289.497C1204.85 290.385 1203.29 290.829 1201.47 290.829ZM1201.47 287.032C1202.71 287.032 1203.71 286.408 1204.45 285.16C1205.19 283.912 1205.55 282.04 1205.55 279.544C1205.55 277.901 1205.38 276.533 1205.04 275.44C1204.71 274.347 1204.23 273.526 1203.62 272.976C1203.01 272.426 1202.3 272.151 1201.47 272.151C1200.24 272.151 1199.25 272.768 1198.51 274.002C1197.77 275.236 1197.4 277.083 1197.39 279.544C1197.39 281.208 1197.56 282.597 1197.89 283.711C1198.23 284.818 1198.7 285.65 1199.32 286.207C1199.93 286.757 1200.65 287.032 1201.47 287.032ZM1227.05 278.74L1222.92 278.994C1222.85 278.641 1222.7 278.324 1222.47 278.042C1222.23 277.753 1221.93 277.524 1221.55 277.354C1221.17 277.178 1220.72 277.09 1220.2 277.09C1219.5 277.09 1218.92 277.238 1218.44 277.534C1217.96 277.823 1217.72 278.211 1217.72 278.698C1217.72 279.086 1217.87 279.413 1218.18 279.681C1218.49 279.949 1219.03 280.164 1219.78 280.327L1222.72 280.919C1224.3 281.243 1225.48 281.765 1226.25 282.484C1227.03 283.203 1227.42 284.148 1227.42 285.319C1227.42 286.384 1227.1 287.318 1226.48 288.122C1225.85 288.926 1225 289.553 1223.92 290.004C1222.84 290.449 1221.59 290.671 1220.18 290.671C1218.03 290.671 1216.32 290.223 1215.04 289.328C1213.77 288.425 1213.03 287.198 1212.81 285.647L1217.24 285.414C1217.38 286.07 1217.7 286.57 1218.21 286.916C1218.73 287.254 1219.39 287.424 1220.19 287.424C1220.98 287.424 1221.62 287.272 1222.1 286.969C1222.58 286.659 1222.83 286.26 1222.84 285.774C1222.83 285.365 1222.66 285.03 1222.32 284.769C1221.98 284.501 1221.46 284.296 1220.75 284.155L1217.94 283.595C1216.35 283.278 1215.17 282.728 1214.4 281.945C1213.63 281.162 1213.24 280.164 1213.24 278.952C1213.24 277.908 1213.53 277.009 1214.09 276.254C1214.66 275.5 1215.46 274.918 1216.49 274.509C1217.53 274.1 1218.74 273.896 1220.13 273.896C1222.18 273.896 1223.8 274.329 1224.97 275.197C1226.16 276.064 1226.85 277.245 1227.05 278.74ZM1233.46 290.354L1229.04 274.107H1233.6L1236.11 285.023H1236.26L1238.88 274.107H1243.36L1246.02 284.959H1246.16L1248.64 274.107H1253.18L1248.77 290.354H1244L1241.21 280.136H1241.01L1238.22 290.354H1233.46Z" fill="#008000"/>
<path d="M1479.02 357.5H1576.96" stroke="#FF0000" stroke-width="2.48206"/>
<path d="M1547.03 357.5H1576.96" stroke="#FF0000" stroke-width="2.48206"/>
<path d="M1556.34 357.5L1548.61 387.285H1564.07L1556.34 357.5Z" fill="#FF0000"/>
<path d="M1556.34 357.5L1548.61 327.715H1564.07L1556.34 357.5Z" fill="#FF0000"/>
<path d="M1603.51 365.853C1601.69 365.846 1600.13 365.398 1598.81 364.51C1597.51 363.621 1596.5 362.334 1595.8 360.649C1595.1 358.964 1594.76 356.937 1594.76 354.567C1594.76 352.205 1595.11 350.192 1595.81 348.528C1596.52 346.864 1597.52 345.598 1598.82 344.731C1600.14 343.856 1601.7 343.419 1603.51 343.419C1605.32 343.419 1606.88 343.856 1608.19 344.731C1609.5 345.605 1610.51 346.874 1611.21 348.538C1611.92 350.196 1612.26 352.205 1612.26 354.567C1612.26 356.944 1611.9 358.974 1611.2 360.66C1610.5 362.345 1609.5 363.632 1608.2 364.52C1606.89 365.409 1605.33 365.853 1603.51 365.853ZM1603.51 362.056C1604.75 362.056 1605.74 361.432 1606.48 360.184C1607.22 358.936 1607.59 357.063 1607.58 354.567C1607.58 352.924 1607.41 351.556 1607.07 350.463C1606.74 349.371 1606.27 348.549 1605.66 347.999C1605.05 347.449 1604.34 347.174 1603.51 347.174C1602.28 347.174 1601.29 347.791 1600.55 349.025C1599.81 350.259 1599.43 352.106 1599.43 354.567C1599.43 356.231 1599.59 357.621 1599.92 358.735C1600.26 359.842 1600.74 360.674 1601.35 361.231C1601.97 361.781 1602.69 362.056 1603.51 362.056ZM1617.33 365.652C1616.63 365.652 1616.03 365.405 1615.53 364.912C1615.03 364.411 1614.79 363.812 1614.79 363.113C1614.79 362.422 1615.03 361.83 1615.53 361.337C1616.03 360.843 1616.63 360.596 1617.33 360.596C1618 360.596 1618.6 360.843 1619.1 361.337C1619.61 361.83 1619.86 362.422 1619.86 363.113C1619.86 363.579 1619.74 364.005 1619.51 364.393C1619.27 364.774 1618.97 365.081 1618.58 365.313C1618.2 365.539 1617.78 365.652 1617.33 365.652ZM1631.14 365.853C1629.32 365.846 1627.76 365.398 1626.45 364.51C1625.14 363.621 1624.14 362.334 1623.43 360.649C1622.73 358.964 1622.39 356.937 1622.4 354.567C1622.4 352.205 1622.74 350.192 1623.44 348.528C1624.15 346.864 1625.15 345.598 1626.46 344.731C1627.77 343.856 1629.33 343.419 1631.14 343.419C1632.95 343.419 1634.51 343.856 1635.82 344.731C1637.13 345.605 1638.14 346.874 1638.84 348.538C1639.55 350.196 1639.9 352.205 1639.89 354.567C1639.89 356.944 1639.54 358.974 1638.83 360.66C1638.13 362.345 1637.13 363.632 1635.83 364.52C1634.52 365.409 1632.96 365.853 1631.14 365.853ZM1631.14 362.056C1632.38 362.056 1633.37 361.432 1634.11 360.184C1634.85 358.936 1635.22 357.063 1635.21 354.567C1635.21 352.924 1635.05 351.556 1634.71 350.463C1634.38 349.371 1633.9 348.549 1633.29 347.999C1632.68 347.449 1631.97 347.174 1631.14 347.174C1629.91 347.174 1628.92 347.791 1628.18 349.025C1627.44 350.259 1627.07 352.106 1627.06 354.567C1627.06 356.231 1627.23 357.621 1627.56 358.735C1627.9 359.842 1628.37 360.674 1628.98 361.231C1629.6 361.781 1630.32 362.056 1631.14 362.056ZM1656.71 353.763L1652.59 354.017C1652.52 353.665 1652.37 353.347 1652.14 353.065C1651.9 352.776 1651.6 352.547 1651.21 352.378C1650.84 352.202 1650.39 352.113 1649.87 352.113C1649.17 352.113 1648.58 352.262 1648.11 352.558C1647.63 352.847 1647.39 353.235 1647.39 353.721C1647.39 354.109 1647.54 354.437 1647.85 354.705C1648.16 354.973 1648.69 355.188 1649.45 355.35L1652.39 355.942C1653.97 356.267 1655.15 356.788 1655.92 357.508C1656.7 358.227 1657.09 359.172 1657.09 360.342C1657.09 361.407 1656.77 362.341 1656.14 363.145C1655.52 363.949 1654.67 364.577 1653.58 365.028C1652.51 365.472 1651.26 365.694 1649.85 365.694C1647.7 365.694 1645.99 365.247 1644.71 364.351C1643.44 363.448 1642.7 362.221 1642.48 360.67L1646.91 360.438C1647.04 361.093 1647.37 361.594 1647.88 361.939C1648.4 362.278 1649.06 362.447 1649.86 362.447C1650.65 362.447 1651.29 362.296 1651.76 361.992C1652.25 361.682 1652.5 361.284 1652.51 360.797C1652.5 360.388 1652.33 360.053 1651.99 359.792C1651.65 359.524 1651.13 359.32 1650.42 359.179L1647.61 358.618C1646.02 358.301 1644.84 357.751 1644.06 356.968C1643.3 356.186 1642.91 355.188 1642.91 353.975C1642.91 352.931 1643.19 352.032 1643.76 351.278C1644.33 350.523 1645.13 349.942 1646.16 349.533C1647.2 349.124 1648.41 348.919 1649.8 348.919C1651.85 348.919 1653.46 349.353 1654.64 350.22C1655.83 351.087 1656.52 352.269 1656.71 353.763ZM1663.13 365.377L1658.71 349.131H1663.26L1665.78 360.046H1665.93L1668.55 349.131H1673.03L1675.69 359.983H1675.83L1678.31 349.131H1682.85L1678.44 365.377H1673.67L1670.88 355.16H1670.68L1667.89 365.377H1663.13Z" fill="#FF0000"/>
<rect x="1234.97" y="166.82" width="243.06" height="381.36" stroke="black" stroke-width="2" stroke-dasharray="10 10"/>
</svg>
