<svg width="920" height="431" viewBox="0 0 920 431" fill="none" xmlns="http://www.w3.org/2000/svg">
<path d="M20 123.5C20 102.789 36.7893 86 57.5 86H732.5C753.211 86 770 102.789 770 123.5V373.5C770 394.211 753.211 411 732.5 411H57.5C36.7893 411 20 394.211 20 373.5V123.5Z" fill="white"/>
<path d="M38.75 123.5C38.75 113.145 47.1447 104.75 57.5 104.75H732.5C742.855 104.75 751.25 113.145 751.25 123.5V373.5C751.25 383.855 742.855 392.25 732.5 392.25H57.5C47.1447 392.25 38.75 383.855 38.75 373.5V123.5Z" fill="#0033A2"/>
<path d="M119.165 305.165V296.055H172.155V305.165H119.165ZM112.305 323.275V314.385H179.575V323.275H112.305ZM96.8853 342.175V332.955H194.765V342.175H96.8853ZM110.725 280.075V271.525H149.875V280.075H110.725ZM140.765 277.265V271.525H152.355C154.755 274.599 157.662 277.579 161.075 280.465C164.489 283.359 168.255 286.042 172.375 288.515C176.502 290.989 180.815 293.202 185.315 295.155C189.815 297.102 194.352 298.752 198.925 300.105C198.105 300.705 197.169 301.492 196.115 302.465C195.069 303.439 194.055 304.452 193.075 305.505C192.102 306.552 191.315 307.525 190.715 308.425C184.715 306.252 178.792 303.552 172.945 300.325C167.092 297.099 161.672 293.519 156.685 289.585C151.699 285.645 147.405 281.539 143.805 277.265H140.765ZM138.295 272.655L147.965 276.365C144.292 281.312 139.829 285.885 134.575 290.085C129.329 294.285 123.722 297.999 117.755 301.225C111.795 304.452 105.779 307.265 99.7053 309.665C99.1786 308.912 98.4653 308.012 97.5653 306.965C96.6653 305.912 95.7286 304.879 94.7553 303.865C93.7819 302.859 92.9186 302.055 92.1653 301.455C98.3186 299.575 104.319 297.212 110.165 294.365C116.019 291.512 121.362 288.249 126.195 284.575C131.035 280.902 135.069 276.929 138.295 272.655ZM140.095 339.365V300.215H151.005V339.365H140.095ZM96.1053 259.935V250.155H195.555V259.935H96.1053ZM120.065 269.275V241.605H130.645V269.275H120.065ZM160.345 269.835V241.605H170.915V269.835" fill="white"/>
<path d="M282.43 249.368V243.858H302.11V249.368H282.43ZM281.75 267.708V262.308H302.9V267.708H281.75ZM281.75 276.138V270.858H302.9V276.138H281.75ZM265.33 329.468V322.608H322.36V329.468H265.33ZM278.49 258.818V252.858H305.49V258.818H278.49ZM296.15 285.028H288.16V291.438H296.15V285.028ZM281.52 296.618V279.858H303.01V296.618H281.52ZM267.24 317.878V311.468H313.92V306.628H260.26V300.218H323.83V317.878H267.24ZM263.41 298.188V272.658H270.5V298.188H263.41ZM253.18 276.588L252.39 269.728C255.69 269.581 259.384 269.431 263.47 269.278C267.557 269.131 271.887 268.944 276.46 268.718V274.908C272.26 275.281 268.194 275.581 264.26 275.808C260.32 276.028 256.627 276.288 253.18 276.588ZM264.2 311.468H274.1C273.2 315.068 272.227 318.818 271.18 322.718C270.127 326.618 269.15 329.991 268.25 332.838L258.69 331.488C259.737 328.714 260.75 325.508 261.73 321.868C262.704 318.234 263.527 314.768 264.2 311.468ZM318.99 323.728V322.608H329C329 322.608 328.964 323.111 328.89 324.118C328.817 325.131 328.667 325.978 328.44 326.658C327.387 331.304 326.297 334.958 325.17 337.618C324.05 340.284 322.74 342.218 321.24 343.418C319.967 344.318 318.597 344.934 317.13 345.268C315.67 345.608 313.927 345.814 311.9 345.888C310.174 345.968 307.717 345.988 304.53 345.948C301.344 345.908 297.95 345.814 294.35 345.668C294.277 344.468 293.977 343.118 293.45 341.618C292.924 340.118 292.287 338.768 291.54 337.568C295.067 337.941 298.48 338.164 301.78 338.238C305.08 338.318 307.404 338.358 308.75 338.358C309.95 338.358 310.924 338.318 311.67 338.238C312.424 338.164 313.064 337.941 313.59 337.568C314.637 336.741 315.594 335.258 316.46 333.118C317.32 330.984 318.164 327.854 318.99 323.728ZM271.85 280.638L277.25 279.408C277.85 281.281 278.43 283.341 278.99 285.588C279.557 287.841 279.99 289.791 280.29 291.438L274.44 293.018C274.287 291.291 273.967 289.284 273.48 286.998C272.994 284.711 272.45 282.591 271.85 280.638ZM271.51 265.338L276.35 263.538C277.324 265.418 278.224 267.518 279.05 269.838C279.877 272.164 280.44 274.191 280.74 275.918L275.45 277.938C275.224 276.218 274.737 274.194 273.99 271.868C273.237 269.541 272.41 267.364 271.51 265.338ZM253.51 256.458L257.11 251.058C259.29 252.478 261.427 254.108 263.52 255.948C265.627 257.788 267.204 259.381 268.25 260.728L264.2 266.918C263.074 265.344 261.5 263.581 259.48 261.628C257.454 259.681 255.464 257.958 253.51 256.458ZM264.2 241.268L270.61 244.418C269.11 246.891 267.61 249.404 266.11 251.958C264.61 254.504 263.187 256.641 261.84 258.368L256.89 255.778C258.09 253.831 259.404 251.451 260.83 248.638C262.25 245.824 263.374 243.368 264.2 241.268ZM271.4 250.608L277.7 254.208C275.227 257.581 272.584 261.141 269.77 264.888C266.957 268.641 264.314 271.791 261.84 274.338L257.11 271.418C258.69 269.544 260.38 267.408 262.18 265.008C263.98 262.608 265.684 260.131 267.29 257.578C268.904 255.031 270.274 252.708 271.4 250.608ZM255.99 278.958L262.63 280.418C261.95 283.344 261.124 286.268 260.15 289.188C259.177 292.114 258.127 294.628 257 296.728C256.327 296.281 255.35 295.774 254.07 295.208C252.797 294.648 251.75 294.181 250.93 293.808C252.204 291.708 253.25 289.361 254.07 286.768C254.897 284.181 255.537 281.578 255.99 278.958ZM315.39 298.188V272.658H322.59V298.188H315.39ZM305.04 276.588L304.36 269.728C307.814 269.581 311.697 269.431 316.01 269.278C320.324 269.131 324.917 268.981 329.79 268.828L329.67 275.018C325.25 275.318 320.957 275.598 316.79 275.858C312.63 276.124 308.714 276.368 305.04 276.588ZM324.16 280.638L329.9 278.958C330.874 281.204 331.83 283.678 332.77 286.378C333.704 289.078 334.36 291.404 334.74 293.358L328.78 295.268C328.48 293.314 327.88 290.951 326.98 288.178C326.08 285.404 325.14 282.891 324.16 280.638ZM323.26 265.118L328.55 262.758C329.824 264.704 331.004 266.858 332.09 269.218C333.184 271.584 333.954 273.668 334.4 275.468L328.66 278.058C328.287 276.258 327.594 274.138 326.58 271.698C325.567 269.258 324.46 267.064 323.26 265.118ZM304.59 256.228L308.41 251.168C310.364 252.514 312.314 254.071 314.26 255.838C316.214 257.598 317.714 259.191 318.76 260.618L314.38 266.468C313.4 264.968 311.994 263.241 310.16 261.288C308.32 259.341 306.464 257.654 304.59 256.228ZM315.61 241.378L322.03 244.638C320.45 247.118 318.874 249.611 317.3 252.118C315.727 254.631 314.227 256.788 312.8 258.588L307.85 256.008C309.124 254.054 310.51 251.671 312.01 248.858C313.51 246.044 314.71 243.551 315.61 241.378ZM323.6 250.158L329.9 253.758C327.354 257.131 324.58 260.691 321.58 264.438C318.58 268.191 315.73 271.341 313.03 273.888L308.41 270.968C310.137 269.094 311.937 266.958 313.81 264.558C315.69 262.158 317.49 259.681 319.21 257.128C320.937 254.581 322.4 252.258 323.6 250.158ZM307.85 278.958L314.38 280.528C313.854 283.301 313.104 286.131 312.13 289.018C311.15 291.911 310.1 294.368 308.98 296.388C308.38 296.014 307.48 295.508 306.28 294.868C305.08 294.234 304.03 293.731 303.13 293.358C304.324 291.258 305.297 288.968 306.05 286.488C306.797 284.014 307.397 281.504 307.85 278.958ZM231.35 250.038L237.54 243.068C239.414 244.041 241.38 245.221 243.44 246.608C245.507 247.994 247.44 249.381 249.24 250.768C251.04 252.161 252.504 253.494 253.63 254.768L247.21 262.638C246.164 261.364 244.757 259.978 242.99 258.478C241.23 256.978 239.337 255.498 237.31 254.038C235.29 252.571 233.304 251.238 231.35 250.038ZM228.99 280.078L234.84 272.768C236.787 273.668 238.83 274.774 240.97 276.088C243.11 277.401 245.097 278.711 246.93 280.018C248.77 281.331 250.29 282.588 251.49 283.788L245.3 291.888C244.174 290.688 242.694 289.378 240.86 287.958C239.02 286.531 237.05 285.124 234.95 283.738C232.85 282.351 230.864 281.131 228.99 280.078ZM240.8 344.658L231.24 339.258C232.667 336.258 234.184 332.768 235.79 328.788C237.404 324.814 239.054 320.614 240.74 316.188C242.434 311.768 243.99 307.418 245.41 303.138L253.85 308.538C252.65 312.518 251.3 316.608 249.8 320.808C248.3 325.008 246.8 329.131 245.3 333.178C243.8 337.231 242.3 341.058 240.8 344.658Z" fill="white"/>
<path d="M211.503 234.5H76.0028V375H211.503V234.5Z" stroke="white" stroke-width="2" stroke-dasharray="5 5"/>
<path d="M349.003 234.5H213.503V375H349.003V234.5Z" stroke="white" stroke-width="2" stroke-dasharray="5 5"/>
<path d="M687.938 152.923L714.997 218.251L695.863 264.445L677.823 220.893L626.799 344.077L596.003 331.321L647.027 208.137L603.475 226.177L622.609 179.983L687.938 152.923Z" fill="white"/>
<path d="M76.5223 151.55V140.53H127.192V151.55H107.912V210.85H95.8023V151.55" fill="white"/>
<path d="M169.912 166.777L169.362 167.517L168.812 168.067L168.262 168.437L167.522 169.537L167.162 169.907L166.792 170.087C166.392 170.64 166.025 171.067 165.692 171.367L163.302 174.127C158.222 170.854 154.015 169.217 150.682 169.217C147.255 169.217 144.732 170.914 143.112 174.307C143.172 176.3 143.965 177.77 145.492 178.717C146.165 178.897 146.655 179.08 146.962 179.267C148.155 179.447 149.135 179.69 149.902 179.997C161.495 180.857 167.982 185.51 169.362 193.957C169.422 194.324 169.452 194.68 169.452 195.027C169.452 195.38 169.452 195.727 169.452 196.067C169.452 202.214 166.852 206.834 161.652 209.927C157.918 211.607 154.168 212.447 150.402 212.447C143.242 212.447 136.098 209.404 128.972 203.317L129.342 202.587L130.252 201.667C130.865 200.934 131.418 200.38 131.912 200.007C132.032 199.794 132.152 199.674 132.272 199.647L132.642 199.097C132.762 198.884 132.885 198.76 133.012 198.727L133.192 198.357L133.562 198.177L135.952 195.417C140.478 199.704 145.218 201.847 150.172 201.847C152.252 201.847 154.365 201.48 156.512 200.747C157.058 200.014 157.608 199.464 158.162 199.097C158.348 198.364 158.442 197.674 158.442 197.027C158.442 195.434 157.922 194.104 156.882 193.037L152.652 191.567C140.045 190.8 133.192 185.414 132.092 175.407C132.918 165.34 138.608 159.957 149.162 159.257H149.812C157.918 159.257 164.618 161.764 169.912 166.777Z" fill="white"/>
<path d="M182.29 196.526V160.726H193.31V192.486C193.43 192.639 193.49 192.822 193.49 193.036C193.617 193.129 193.68 193.219 193.68 193.306V193.406C193.893 194.779 194.197 196.002 194.59 197.076C196.703 200.009 199.413 201.476 202.72 201.476H202.86C206.96 200.376 209.833 198.112 211.48 194.686V194.136L212.22 191.936V160.726H223.42V210.846H212.22V206.806C207.813 210.412 203.423 212.216 199.05 212.216C195.65 212.216 192.207 211.146 188.72 209.006C185.873 206.832 183.913 204.262 182.84 201.296L182.66 200.006C182.387 199.119 182.25 198.249 182.25 197.396V196.986C182.25 196.832 182.263 196.679 182.29 196.526Z" fill="white"/>
<path d="M281.839 181.294L282.019 184.044C282.139 184.197 282.199 184.381 282.199 184.594V190.104H248.609C249.309 196.344 252.489 200.017 258.149 201.124C259.069 201.211 259.972 201.254 260.859 201.254C265.479 201.254 269.412 199.741 272.659 196.714C273.052 197.387 273.542 197.937 274.129 198.364L274.309 198.914L274.859 199.464C275.285 199.864 275.652 200.241 275.959 200.594C276.265 200.947 276.512 201.307 276.699 201.674C276.912 201.794 277.032 201.914 277.059 202.034L279.629 204.974C273.815 209.841 267.619 212.274 261.039 212.274C259.912 212.274 258.765 212.197 257.599 212.044C256.439 211.891 255.275 211.677 254.109 211.404C243.522 207.884 237.709 200.294 236.669 188.634C236.669 188.481 236.662 188.174 236.649 187.714C236.635 187.261 236.629 186.971 236.629 186.844C236.629 170.904 243.802 161.831 258.149 159.624C272.409 160.117 280.305 167.341 281.839 181.294ZM248.419 181.474H270.639V180.924C270.512 180.557 270.449 180.191 270.449 179.824V179.454C270.142 178.781 269.959 178.171 269.899 177.624C267.639 172.391 263.905 169.757 258.699 169.724C252.152 171.284 248.725 175.201 248.419 181.474Z" fill="white"/>
<path d="M335.053 169.537V170.087C335.453 170.82 335.7 171.554 335.793 172.287V210.657H324.593V178.167L324.403 177.067C322.876 172.44 320.306 170.127 316.693 170.127C315.593 170.127 314.37 170.357 313.023 170.817C309.963 172.137 307.76 174.22 306.413 177.067L305.683 180.187V210.657H294.663V160.537H305.683V164.757C309.11 161.697 312.843 159.864 316.883 159.257H317.703C325.903 159.257 331.686 162.684 335.053 169.537Z" fill="white"/>
<path d="M374.194 141.084V140.714H386.864L387.044 142.004L387.234 142.554L387.594 143.844L387.964 146.044L388.514 147.874L388.884 150.084L389.434 151.914L389.614 153.384C389.828 153.904 389.951 154.334 389.984 154.674L390.164 155.404L390.534 156.504V157.244C390.654 157.337 390.714 157.427 390.714 157.514V158.164C391.054 158.837 391.241 159.571 391.274 160.364L391.634 161.464L392.004 162.754L392.374 164.954L392.924 166.784L393.104 167.894L394.204 172.484C394.298 172.911 394.384 173.301 394.464 173.654C394.538 174.001 394.574 174.344 394.574 174.684L394.944 175.414V176.154L395.304 177.074V177.804L395.674 178.534V179.274C396.014 180.194 396.198 180.991 396.224 181.664L396.414 182.394C396.628 183.007 396.794 183.574 396.914 184.094C397.034 184.614 397.111 185.087 397.144 185.514L397.514 186.984L397.884 188.264L398.244 187.164L398.984 183.494L399.344 182.574L399.534 181.474L400.084 178.904L400.454 177.624V177.074L401.184 174.134L401.364 173.034L401.734 172.294L401.914 171.564L402.104 170.644V169.914L402.284 169.354L403.024 166.424L403.384 164.214L403.574 163.484L403.934 162.754C404.001 161.774 404.184 160.914 404.484 160.174L404.674 159.264V158.714L405.044 157.244L405.224 156.694L405.774 154.304L405.954 153.204L406.324 152.104L406.504 151.184L407.054 148.794L407.244 147.874L407.424 147.514C407.458 147.174 407.498 146.844 407.544 146.524C407.591 146.204 407.674 145.921 407.794 145.674L407.974 145.124V144.574L408.164 143.844L408.344 143.284L408.894 140.714H422.484V141.264C422.911 142.337 423.154 143.381 423.214 144.394L423.584 145.854L423.764 146.414L424.504 149.714L424.864 151.184C425.111 152.071 425.234 152.804 425.234 153.384C425.448 153.904 425.571 154.334 425.604 154.674L425.964 155.954L426.154 157.244L426.334 157.974L426.524 158.524C426.611 158.924 426.688 159.284 426.754 159.604C426.814 159.924 426.858 160.237 426.884 160.544C427.131 161.124 427.301 161.661 427.394 162.154C427.488 162.641 427.564 163.084 427.624 163.484L427.804 164.584L428.174 165.504L428.354 166.604V167.154C428.661 167.887 428.844 168.561 428.904 169.174L429.094 170.274C429.394 171.007 429.578 171.681 429.644 172.294L429.824 173.214L430.374 175.234V175.964C430.494 176.244 430.554 176.551 430.554 176.884C430.894 177.591 431.081 178.204 431.114 178.724L431.294 179.644L431.474 180.744L431.664 181.474C431.971 182.421 432.154 183.277 432.214 184.044C432.334 184.137 432.394 184.231 432.394 184.324V184.964C432.821 186.037 433.068 187.077 433.134 188.084C433.314 188.024 433.434 187.901 433.494 187.714C433.648 186.954 433.801 186.291 433.954 185.724C434.108 185.157 434.261 184.661 434.414 184.234V183.494C434.814 182.394 435.058 181.414 435.144 180.554L435.514 179.274L436.254 176.334L436.434 174.864L436.804 173.584L436.984 173.034V172.484C437.198 171.897 437.368 171.367 437.494 170.894C437.614 170.421 437.688 169.971 437.714 169.544L438.084 168.254L439.554 162.194L440.104 159.264L440.474 157.794C440.808 156.907 440.991 156.174 441.024 155.594L441.204 154.674L441.574 153.204C441.848 152.317 442.031 151.584 442.124 151.004L442.304 150.264L442.864 147.694L443.224 146.594V146.044L443.774 144.574V143.844L443.964 143.284L444.514 140.714H456.994L456.264 144.394L455.714 146.594L455.524 147.144L454.974 149.714L454.614 151.184L454.244 152.464L453.504 156.144L453.144 157.424L452.404 160.914L452.044 162.194L451.854 162.754L451.484 164.764L451.304 165.134L451.124 166.424C450.818 167.431 450.634 168.287 450.574 168.994L449.834 171.194L449.654 172.484L449.464 173.214L449.284 173.764L449.104 175.054L448.914 175.604L447.814 180.194L447.634 181.474L447.264 182.764L446.344 186.434L446.164 187.714L445.064 192.304L444.514 194.874C444.174 195.794 443.991 196.591 443.964 197.264L443.224 199.654V200.384C442.891 201.304 442.708 202.101 442.674 202.774C442.368 203.781 442.184 204.637 442.124 205.344L441.754 206.624L441.574 206.994L441.394 208.284C441.088 209.291 440.904 210.147 440.844 210.854H427.254L427.074 209.384C426.861 208.864 426.738 208.434 426.704 208.094L426.334 206.624L426.154 205.344L425.784 204.054C425.691 203.687 425.614 203.337 425.554 203.004C425.494 202.664 425.448 202.341 425.414 202.034L425.234 201.304L425.054 200.384C424.928 200.231 424.864 200.047 424.864 199.834L424.684 198.914L424.504 198.364C424.411 197.971 424.334 197.611 424.274 197.284C424.208 196.964 424.161 196.651 424.134 196.344C423.921 195.764 423.761 195.231 423.654 194.744C423.548 194.251 423.461 193.807 423.394 193.414L423.214 192.674L423.034 191.754C422.908 191.387 422.821 191.037 422.774 190.704C422.734 190.364 422.698 190.041 422.664 189.734C422.451 189.127 422.284 188.547 422.164 187.994C422.038 187.441 421.961 186.921 421.934 186.434C421.808 186.281 421.744 186.097 421.744 185.884L421.564 185.144L421.384 184.594C421.291 183.954 421.168 183.344 421.014 182.764L420.644 181.104L420.464 180.004L420.094 179.094L419.724 176.884L419.544 176.334V175.784C419.238 175.051 419.054 174.377 418.994 173.764L418.624 171.564L418.254 170.644L417.894 169.174V168.444C417.528 167.431 417.344 166.574 417.344 165.874C417.218 165.721 417.154 165.537 417.154 165.324L416.974 164.764V164.214C416.668 163.514 416.484 162.781 416.424 162.014C416.118 161.034 415.934 160.117 415.874 159.264L415.504 159.994L415.324 161.094L414.774 163.484L414.404 165.504L414.214 166.054L413.484 169.174L413.304 169.914L412.934 171.744L412.754 172.484L412.384 174.504L412.204 175.054L411.464 178.534L411.094 179.824L410.914 181.104C410.581 182.024 410.398 182.821 410.364 183.494L410.184 183.864L409.994 184.964L409.814 185.514L408.894 190.104L408.714 190.654L407.974 194.144L407.794 194.874L407.614 195.794L407.424 196.344L406.694 199.834L406.324 201.304L405.954 203.144L405.774 203.504L405.404 205.164L405.224 205.894L405.044 207.174C404.824 207.941 404.701 208.554 404.674 209.014C404.548 209.321 404.464 209.611 404.424 209.884C404.378 210.164 404.338 210.424 404.304 210.664C403.878 210.731 403.488 210.784 403.134 210.824C402.781 210.871 402.438 210.894 402.104 210.894H401.644C401.491 210.894 401.338 210.881 401.184 210.854H390.534V210.114C390.108 209.014 389.864 207.974 389.804 206.994C389.678 206.841 389.614 206.657 389.614 206.444L389.434 205.524C388.761 203.351 388.331 201.514 388.144 200.014L387.964 199.464L387.044 195.984L386.864 194.514L385.394 188.824V188.084C385.088 187.384 384.904 186.651 384.844 185.884L384.474 184.784L384.114 183.494V182.944L383.194 179.274V178.724L383.004 177.984L382.644 177.254L382.454 175.784C382.214 175.051 382.018 174.377 381.864 173.764C381.711 173.151 381.604 172.601 381.544 172.114L381.354 171.564V171.014C381.234 170.861 381.174 170.677 381.174 170.464L380.804 168.994L380.624 168.444C380.498 167.797 380.381 167.214 380.274 166.694C380.168 166.174 380.038 165.717 379.884 165.324L379.704 164.034C379.491 163.421 379.321 162.854 379.194 162.334C379.074 161.814 378.998 161.341 378.964 160.914L378.784 159.994C378.664 159.841 378.604 159.657 378.604 159.444L377.684 155.774L377.314 154.484L377.134 153.574L376.954 152.834L376.764 151.554C376.518 150.907 376.394 150.354 376.394 149.894V149.714L376.034 148.794L375.844 148.064C375.724 147.177 375.541 146.441 375.294 145.854V145.124C375.174 144.971 375.114 144.787 375.114 144.574" fill="white"/>
<path d="M500.568 165.135L501.128 166.235C502.562 168.015 503.478 169.851 503.878 171.745C503.998 172.538 504.088 173.281 504.148 173.975C504.215 174.661 504.248 175.265 504.248 175.785V200.015C505.375 202.255 507.025 203.601 509.198 204.055L508.838 204.605C508.712 204.825 508.588 204.948 508.468 204.975L508.288 205.525L507.918 205.895C507.612 206.568 507.245 207.118 506.818 207.545C506.385 208.678 505.832 209.535 505.158 210.115C504.885 210.728 504.625 211.258 504.378 211.705C504.138 212.145 503.912 212.535 503.698 212.875C500.118 211.955 497.302 210.301 495.248 207.915H494.698C490.752 210.761 486.682 212.185 482.488 212.185C480.222 212.185 477.988 211.801 475.788 211.035C469.208 208.681 465.232 204.398 463.858 198.185V197.955C463.858 186.115 470.788 180.195 484.648 180.195H484.788C485.062 180.068 485.365 180.005 485.698 180.005L486.248 179.825H487.538L488.088 179.645H488.638L493.228 179.095C493.288 178.755 493.318 178.448 493.318 178.175V177.255C493.318 172.141 490.612 169.585 485.198 169.585C481.432 169.585 476.275 170.855 469.728 173.395L468.998 171.745L468.628 170.645L468.258 170.275L468.078 169.915L467.708 168.805C467.375 168.258 467.132 167.708 466.978 167.155C466.332 166.301 465.902 165.445 465.688 164.585L466.238 164.405L466.608 164.215L467.158 164.035L467.528 163.665H468.078C468.198 163.545 468.305 163.485 468.398 163.485H468.448C469.548 162.905 470.525 162.475 471.378 162.195L472.298 162.015C472.972 161.708 473.585 161.525 474.138 161.465L475.608 161.095C476.675 160.668 477.715 160.425 478.728 160.365L482.768 159.625C483.375 159.565 483.962 159.511 484.528 159.465C485.095 159.418 485.655 159.395 486.208 159.395C492.048 159.395 496.835 161.308 500.568 165.135ZM488.818 188.455H487.718C487.445 188.515 487.178 188.561 486.918 188.595C486.658 188.621 486.405 188.635 486.158 188.635H485.888L485.148 188.825H484.598C484.445 188.945 484.262 189.005 484.048 189.005H483.498L480.558 189.735H480.008C479.155 190.228 478.422 190.535 477.808 190.655C475.822 192.555 474.828 194.391 474.828 196.165C474.828 197.785 475.638 199.375 477.258 200.935C479.612 202.375 481.905 203.095 484.138 203.095C486.985 203.095 489.708 201.948 492.308 199.655C492.555 198.948 492.802 198.458 493.048 198.185L493.228 197.635L493.048 196.895V188.265H489.378C489.225 188.391 489.038 188.455 488.818 188.455Z" fill="white"/>
<path d="M563.053 169.537V170.087C563.453 170.82 563.7 171.554 563.793 172.287V210.657H552.593V178.167L552.403 177.067C550.876 172.44 548.306 170.127 544.693 170.127C543.593 170.127 542.37 170.357 541.023 170.817C537.963 172.137 535.76 174.22 534.413 177.067L533.683 180.187V210.657H522.663V160.537H533.683V164.757C537.11 161.697 540.843 159.864 544.883 159.257H545.703C553.903 159.257 559.686 162.684 563.053 169.537Z" fill="white"/>
<path d="M126.503 134.5H76.0028V232.5H126.503V134.5Z" stroke="white" stroke-width="2" stroke-dasharray="5 5"/>
<path d="M174.003 134.5H128.503V232.5H174.003V134.5Z" stroke="white" stroke-width="2" stroke-dasharray="5 5"/>
<path d="M231.503 134.5H176.003V232.5H231.503V134.5Z" stroke="white" stroke-width="2" stroke-dasharray="5 5"/>
<path d="M286.003 134.5H233.503V232.5H286.003V134.5Z" stroke="white" stroke-width="2" stroke-dasharray="5 5"/>
<path d="M342.003 134.5H288.003V232.5H342.003V134.5Z" stroke="white" stroke-width="2" stroke-dasharray="5 5"/>
<path d="M367.003 134.5H344.003V232.5H367.003V134.5Z" stroke="white" stroke-width="2" stroke-dasharray="5 5"/>
<path d="M458.503 134.5H369.003V232.5H458.503V134.5Z" stroke="white" stroke-width="2" stroke-dasharray="5 5"/>
<path d="M514.003 134.5H460.503V232.5H514.003V134.5Z" stroke="white" stroke-width="2" stroke-dasharray="5 5"/>
<path d="M570.003 134.5H516.003V232.5H570.003V134.5Z" stroke="white" stroke-width="2" stroke-dasharray="5 5"/>
<path d="M596.003 38V153.212" stroke="#46C147" stroke-width="3.03189"/>
<path d="M571.003 38V172.635" stroke="#46C147" stroke-width="3.03189"/>
<path d="M596.003 59H571.003" stroke="#46C147" stroke-width="3.03189"/>
<path d="M596.003 59.0957L632.385 50V68.1914L596.003 59.0957Z" fill="#46C147"/>
<path d="M571.003 59.0957L534.62 50V68.1914L571.003 59.0957Z" fill="#46C147"/>
<path d="M544.739 27V24.6744L553.473 15.1136C554.498 13.9939 555.342 13.0206 556.005 12.1937C556.669 11.3582 557.159 10.5744 557.478 9.84223C557.805 9.10148 557.969 8.32628 557.969 7.51663C557.969 6.58639 557.745 5.78104 557.297 5.10059C556.858 4.42014 556.255 3.89472 555.488 3.52435C554.722 3.15398 553.861 2.96879 552.904 2.96879C551.888 2.96879 551.001 3.17982 550.243 3.60187C549.494 4.01531 548.912 4.59671 548.499 5.34607C548.094 6.09543 547.892 6.97399 547.892 7.98175H544.842C544.842 6.43135 545.2 5.07044 545.915 3.89903C546.63 2.72761 547.603 1.8146 548.835 1.15999C550.075 0.505374 551.466 0.178067 553.008 0.178067C554.558 0.178067 555.932 0.505374 557.129 1.15999C558.327 1.8146 559.265 2.69747 559.946 3.80859C560.626 4.91971 560.967 6.15572 560.967 7.51663C560.967 8.48994 560.79 9.44171 560.437 10.372C560.092 11.2936 559.489 12.3229 558.628 13.4598C557.775 14.5882 556.591 15.9663 555.075 17.5942L549.132 23.9509V24.1576H561.432V27H544.739ZM580.876 11.5994L578.137 12.3746C577.965 11.918 577.711 11.4745 577.375 11.0438C577.048 10.6045 576.6 10.2428 576.031 9.95851C575.463 9.67427 574.735 9.53215 573.848 9.53215C572.633 9.53215 571.621 9.81209 570.812 10.372C570.011 10.9232 569.61 11.6252 569.61 12.4779C569.61 13.2359 569.886 13.8345 570.437 14.2738C570.988 14.7131 571.85 15.0791 573.021 15.372L575.967 16.0955C577.741 16.5262 579.063 17.1851 579.933 18.0723C580.803 18.9508 581.238 20.0835 581.238 21.4702C581.238 22.6072 580.911 23.6236 580.256 24.5194C579.61 25.4151 578.706 26.1214 577.543 26.6382C576.38 27.155 575.028 27.4134 573.486 27.4134C571.462 27.4134 569.787 26.9742 568.46 26.0956C567.134 25.217 566.294 23.9337 565.941 22.2454L568.835 21.5219C569.11 22.59 569.632 23.391 570.398 23.925C571.173 24.4591 572.185 24.7261 573.434 24.7261C574.856 24.7261 575.984 24.4246 576.819 23.8217C577.664 23.2101 578.086 22.478 578.086 21.6253C578.086 20.9362 577.844 20.3591 577.362 19.894C576.88 19.4203 576.139 19.0671 575.14 18.8346L571.832 18.0594C570.015 17.6287 568.68 16.9612 567.827 16.0568C566.983 15.1437 566.561 14.0025 566.561 12.633C566.561 11.5132 566.875 10.5227 567.504 9.66135C568.141 8.80002 569.007 8.12387 570.101 7.63291C571.204 7.14195 572.452 6.89647 573.848 6.89647C575.812 6.89647 577.353 7.32714 578.473 8.18847C579.602 9.0498 580.403 10.1868 580.876 11.5994ZM590.324 27L584.277 7.15487H587.482L591.771 22.3488H591.978L596.216 7.15487H599.471L603.657 22.2971H603.864L608.154 7.15487H611.358L605.311 27H602.314L597.973 11.7544H597.663L593.321 27H590.324Z" fill="#46C147"/>
<path d="M714.997 248.5H830.209" stroke="#FF0000" stroke-width="3.03189"/>
<path d="M751.25 248.5H830.209" stroke="#FF0000" stroke-width="3.03189"/>
<path d="M805.954 248.5L796.858 284.883H815.05L805.954 248.5Z" fill="#FF0000"/>
<path d="M805.954 248.5L796.858 212.117H815.05L805.954 248.5Z" fill="#FF0000"/>
<path d="M860.759 258.059C858.812 258.059 857.154 257.53 855.785 256.47C854.415 255.402 853.369 253.856 852.645 251.832C851.922 249.799 851.56 247.344 851.56 244.468C851.56 241.608 851.922 239.166 852.645 237.142C853.377 235.109 854.428 233.559 855.798 232.491C857.176 231.414 858.83 230.876 860.759 230.876C862.688 230.876 864.338 231.414 865.707 232.491C867.086 233.559 868.136 235.109 868.86 237.142C869.592 239.166 869.958 241.608 869.958 244.468C869.958 247.344 869.596 249.799 868.873 251.832C868.149 253.856 867.103 255.402 865.733 256.47C864.364 257.53 862.706 258.059 860.759 258.059ZM860.759 255.217C862.688 255.217 864.187 254.287 865.255 252.426C866.323 250.566 866.857 247.913 866.857 244.468C866.857 242.176 866.612 240.225 866.121 238.615C865.639 237.004 864.941 235.777 864.028 234.933C863.123 234.088 862.034 233.666 860.759 233.666C858.847 233.666 857.352 234.61 856.276 236.496C855.199 238.374 854.661 241.031 854.661 244.468C854.661 246.759 854.902 248.705 855.384 250.307C855.867 251.909 856.56 253.128 857.464 253.964C858.377 254.799 859.476 255.217 860.759 255.217ZM888.976 242.297L886.237 243.072C886.065 242.616 885.811 242.172 885.475 241.741C885.148 241.302 884.7 240.94 884.131 240.656C883.563 240.372 882.835 240.23 881.948 240.23C880.733 240.23 879.721 240.51 878.912 241.07C878.111 241.621 877.71 242.323 877.71 243.176C877.71 243.934 877.986 244.532 878.537 244.971C879.088 245.411 879.95 245.777 881.121 246.07L884.067 246.793C885.841 247.224 887.163 247.883 888.033 248.77C888.903 249.648 889.338 250.781 889.338 252.168C889.338 253.305 889.011 254.321 888.356 255.217C887.71 256.113 886.806 256.819 885.643 257.336C884.48 257.853 883.128 258.111 881.586 258.111C879.562 258.111 877.887 257.672 876.56 256.793C875.234 255.915 874.394 254.631 874.041 252.943L876.935 252.22C877.211 253.288 877.732 254.089 878.498 254.623C879.273 255.157 880.286 255.424 881.534 255.424C882.956 255.424 884.084 255.122 884.919 254.519C885.764 253.908 886.186 253.176 886.186 252.323C886.186 251.634 885.944 251.057 885.462 250.592C884.98 250.118 884.239 249.765 883.24 249.532L879.932 248.757C878.115 248.326 876.78 247.659 875.927 246.754C875.083 245.841 874.661 244.7 874.661 243.331C874.661 242.211 874.975 241.22 875.604 240.359C876.242 239.498 877.107 238.822 878.201 238.331C879.304 237.84 880.553 237.594 881.948 237.594C883.912 237.594 885.454 238.025 886.573 238.886C887.702 239.747 888.503 240.884 888.976 242.297ZM898.424 257.698L892.378 237.853H895.582L899.871 253.046H900.078L904.316 237.853H907.571L911.758 252.995H911.964L916.254 237.853H919.458L913.411 257.698H910.414L906.073 242.452H905.763L901.422 257.698H898.424Z" fill="#FF0000"/>
<rect x="596" y="152.92" width="118.99" height="191.15" stroke="white" stroke-width="2" stroke-dasharray="10 10"/>
</svg>
