<svg width="975" height="1015" viewBox="0 0 975 1015" fill="none" xmlns="http://www.w3.org/2000/svg">
<g clip-path="url(#clip0_0_1)">
<path d="M-895 57.5C-895 36.7893 -878.211 20 -857.5 20H817.5C838.211 20 855 36.7893 855 57.5V957.5C855 978.211 838.211 995 817.5 995H-857.5C-878.211 995 -895 978.211 -895 957.5V57.5Z" fill="white"/>
<path d="M-876.25 57.5C-876.25 47.1447 -867.855 38.75 -857.5 38.75H817.5C827.855 38.75 836.25 47.1447 836.25 57.5V957.5C836.25 967.855 827.855 976.25 817.5 976.25H-857.5C-867.855 976.25 -876.25 967.855 -876.25 957.5V57.5Z" fill="#0033A2"/>
<path d="M87.981 96.25C87.981 85.8947 96.3756 77.5 106.731 77.5H777.769C788.124 77.5 796.519 85.8947 796.519 96.25V363.75C796.519 374.105 788.124 382.5 777.769 382.5H106.731C96.3756 382.5 87.981 374.105 87.981 363.75V96.25Z" fill="white"/>
<path d="M94.231 96.25C94.231 89.3465 99.8273 83.75 106.731 83.75H777.769C784.672 83.75 790.269 89.3465 790.269 96.25V363.75C790.269 370.654 784.672 376.25 777.769 376.25H106.731C99.8273 376.25 94.231 370.654 94.231 363.75V96.25Z" fill="#006928"/>
<path d="M169.143 286.665V277.555H222.133V286.665H169.143ZM162.283 304.775V295.885H229.553V304.775H162.283ZM146.863 323.675V314.455H244.743V323.675H146.863ZM160.703 261.575V253.025H199.853V261.575H160.703ZM190.743 258.765V253.025H202.333C204.733 256.099 207.64 259.079 211.053 261.965C214.467 264.859 218.233 267.542 222.353 270.015C226.48 272.489 230.793 274.702 235.293 276.655C239.793 278.602 244.33 280.252 248.903 281.605C248.083 282.205 247.147 282.992 246.093 283.965C245.047 284.939 244.033 285.952 243.053 287.005C242.08 288.052 241.293 289.025 240.693 289.925C234.693 287.752 228.77 285.052 222.923 281.825C217.07 278.599 211.65 275.019 206.663 271.085C201.677 267.145 197.383 263.039 193.783 258.765H190.743ZM188.273 254.155L197.943 257.865C194.27 262.812 189.807 267.385 184.553 271.585C179.307 275.785 173.7 279.499 167.733 282.725C161.773 285.952 155.757 288.765 149.683 291.165C149.157 290.412 148.443 289.512 147.543 288.465C146.643 287.412 145.707 286.379 144.733 285.365C143.76 284.359 142.897 283.555 142.143 282.955C148.297 281.075 154.297 278.712 160.143 275.865C165.997 273.012 171.34 269.749 176.173 266.075C181.013 262.402 185.047 258.429 188.273 254.155ZM190.073 320.865V281.715H200.983V320.865H190.073ZM146.083 241.435V231.655H245.533V241.435H146.083ZM170.043 250.775V223.105H180.623V250.775H170.043ZM210.323 251.335V223.105H220.893V251.335" fill="white"/>
<path d="M332.408 230.868V225.358H352.088V230.868H332.408ZM331.728 249.208V243.808H352.878V249.208H331.728ZM331.728 257.638V252.358H352.878V257.638H331.728ZM315.308 310.968V304.108H372.338V310.968H315.308ZM328.468 240.318V234.358H355.468V240.318H328.468ZM346.128 266.528H338.138V272.938H346.128V266.528ZM331.498 278.118V261.358H352.988V278.118H331.498ZM317.218 299.378V292.968H363.898V288.128H310.238V281.718H373.808V299.378H317.218ZM313.388 279.688V254.158H320.478V279.688H313.388ZM303.158 258.088L302.368 251.228C305.668 251.081 309.362 250.931 313.448 250.778C317.535 250.631 321.865 250.444 326.438 250.218V256.408C322.238 256.781 318.172 257.081 314.238 257.308C310.298 257.528 306.605 257.788 303.158 258.088ZM314.178 292.968H324.078C323.178 296.568 322.205 300.318 321.158 304.218C320.105 308.118 319.128 311.491 318.228 314.338L308.668 312.988C309.715 310.214 310.728 307.008 311.708 303.368C312.682 299.734 313.505 296.268 314.178 292.968ZM368.968 305.228V304.108H378.978C378.978 304.108 378.942 304.611 378.868 305.618C378.795 306.631 378.645 307.478 378.418 308.158C377.365 312.804 376.275 316.458 375.148 319.118C374.028 321.784 372.718 323.718 371.218 324.918C369.945 325.818 368.575 326.434 367.108 326.768C365.648 327.108 363.905 327.314 361.878 327.388C360.152 327.468 357.695 327.488 354.508 327.448C351.322 327.408 347.928 327.314 344.328 327.168C344.255 325.968 343.955 324.618 343.428 323.118C342.902 321.618 342.265 320.268 341.518 319.068C345.045 319.441 348.458 319.664 351.758 319.738C355.058 319.818 357.382 319.858 358.728 319.858C359.928 319.858 360.902 319.818 361.648 319.738C362.402 319.664 363.042 319.441 363.568 319.068C364.615 318.241 365.572 316.758 366.438 314.618C367.298 312.484 368.142 309.354 368.968 305.228ZM321.828 262.138L327.228 260.908C327.828 262.781 328.408 264.841 328.968 267.088C329.535 269.341 329.968 271.291 330.268 272.938L324.418 274.518C324.265 272.791 323.945 270.784 323.458 268.498C322.972 266.211 322.428 264.091 321.828 262.138ZM321.488 246.838L326.328 245.038C327.302 246.918 328.202 249.018 329.028 251.338C329.855 253.664 330.418 255.691 330.718 257.418L325.428 259.438C325.202 257.718 324.715 255.694 323.968 253.368C323.215 251.041 322.388 248.864 321.488 246.838ZM303.488 237.958L307.088 232.558C309.268 233.978 311.405 235.608 313.498 237.448C315.605 239.288 317.182 240.881 318.228 242.228L314.178 248.418C313.052 246.844 311.478 245.081 309.458 243.128C307.432 241.181 305.442 239.458 303.488 237.958ZM314.178 222.768L320.588 225.918C319.088 228.391 317.588 230.904 316.088 233.458C314.588 236.004 313.165 238.141 311.818 239.868L306.868 237.278C308.068 235.331 309.382 232.951 310.808 230.138C312.228 227.324 313.352 224.868 314.178 222.768ZM321.378 232.108L327.678 235.708C325.205 239.081 322.562 242.641 319.748 246.388C316.935 250.141 314.292 253.291 311.818 255.838L307.088 252.918C308.668 251.044 310.358 248.908 312.158 246.508C313.958 244.108 315.662 241.631 317.268 239.078C318.882 236.531 320.252 234.208 321.378 232.108ZM305.968 260.458L312.608 261.918C311.928 264.844 311.102 267.768 310.128 270.688C309.155 273.614 308.105 276.128 306.978 278.228C306.305 277.781 305.328 277.274 304.048 276.708C302.775 276.148 301.728 275.681 300.908 275.308C302.182 273.208 303.228 270.861 304.048 268.268C304.875 265.681 305.515 263.078 305.968 260.458ZM365.368 279.688V254.158H372.568V279.688H365.368ZM355.018 258.088L354.338 251.228C357.792 251.081 361.675 250.931 365.988 250.778C370.302 250.631 374.895 250.481 379.768 250.328L379.648 256.518C375.228 256.818 370.935 257.098 366.768 257.358C362.608 257.624 358.692 257.868 355.018 258.088ZM374.138 262.138L379.878 260.458C380.852 262.704 381.808 265.178 382.748 267.878C383.682 270.578 384.338 272.904 384.718 274.858L378.758 276.768C378.458 274.814 377.858 272.451 376.958 269.678C376.058 266.904 375.118 264.391 374.138 262.138ZM373.238 246.618L378.528 244.258C379.802 246.204 380.982 248.358 382.068 250.718C383.162 253.084 383.932 255.168 384.378 256.968L378.638 259.558C378.265 257.758 377.572 255.638 376.558 253.198C375.545 250.758 374.438 248.564 373.238 246.618ZM354.568 237.728L358.388 232.668C360.342 234.014 362.292 235.571 364.238 237.338C366.192 239.098 367.692 240.691 368.738 242.118L364.358 247.968C363.378 246.468 361.972 244.741 360.138 242.788C358.298 240.841 356.442 239.154 354.568 237.728ZM365.588 222.878L372.008 226.138C370.428 228.618 368.852 231.111 367.278 233.618C365.705 236.131 364.205 238.288 362.778 240.088L357.828 237.508C359.102 235.554 360.488 233.171 361.988 230.358C363.488 227.544 364.688 225.051 365.588 222.878ZM373.578 231.658L379.878 235.258C377.332 238.631 374.558 242.191 371.558 245.938C368.558 249.691 365.708 252.841 363.008 255.388L358.388 252.468C360.115 250.594 361.915 248.458 363.788 246.058C365.668 243.658 367.468 241.181 369.188 238.628C370.915 236.081 372.378 233.758 373.578 231.658ZM357.828 260.458L364.358 262.028C363.832 264.801 363.082 267.631 362.108 270.518C361.128 273.411 360.078 275.868 358.958 277.888C358.358 277.514 357.458 277.008 356.258 276.368C355.058 275.734 354.008 275.231 353.108 274.858C354.302 272.758 355.275 270.468 356.028 267.988C356.775 265.514 357.375 263.004 357.828 260.458ZM281.328 231.538L287.518 224.568C289.392 225.541 291.358 226.721 293.418 228.108C295.485 229.494 297.418 230.881 299.218 232.268C301.018 233.661 302.482 234.994 303.608 236.268L297.188 244.138C296.142 242.864 294.735 241.478 292.968 239.978C291.208 238.478 289.315 236.998 287.288 235.538C285.268 234.071 283.282 232.738 281.328 231.538ZM278.968 261.578L284.818 254.268C286.765 255.168 288.808 256.274 290.948 257.588C293.088 258.901 295.075 260.211 296.908 261.518C298.748 262.831 300.268 264.088 301.468 265.288L295.278 273.388C294.152 272.188 292.672 270.878 290.838 269.458C288.998 268.031 287.028 266.624 284.928 265.238C282.828 263.851 280.842 262.631 278.968 261.578ZM290.778 326.158L281.218 320.758C282.645 317.758 284.162 314.268 285.768 310.288C287.382 306.314 289.032 302.114 290.718 297.688C292.412 293.268 293.968 288.918 295.388 284.638L303.828 290.038C302.628 294.018 301.278 298.108 299.778 302.308C298.278 306.508 296.778 310.631 295.278 314.678C293.778 318.731 292.278 322.558 290.778 326.158Z" fill="white"/>
<path d="M261.481 216H125.981V356.5H261.481V216Z" stroke="white" stroke-width="2" stroke-dasharray="5 5"/>
<path d="M398.981 216H263.481V356.5H398.981V216Z" stroke="white" stroke-width="2" stroke-dasharray="5 5"/>
<path d="M702.23 244.5H758.48V282C759.59 317.083 736.22 348.243 702.23 357C668.24 348.243 644.87 317.083 645.98 282V244.5H702.23Z" fill="#E9B500"/>
<path d="M698.32 260.904C712.977 260.629 722.035 266.871 725.492 279.631L726.043 279.998L726.227 280.916L726.41 281.65L726.594 282.385L726.777 282.752L727.145 284.404V285.322C727.267 285.506 727.328 285.689 727.328 285.873L727.695 287.892L728.063 291.014L728.43 293.951C729.47 316.839 722.004 329.813 706.031 332.873C690.365 335.076 680.757 330.18 677.207 318.185L681.063 316.9C681.185 316.747 681.307 316.686 681.43 316.717L683.082 315.982C683.847 315.768 684.459 315.523 684.918 315.248L685.469 315.064H686.02C686.142 314.911 686.264 314.85 686.387 314.881L686.938 314.697L689.875 313.412H690.609C692.598 318.92 696.576 321.184 702.543 320.205C708.877 318.767 712.61 314.789 713.742 308.271L713.926 305.334C705.725 310.597 697.464 311.76 689.141 308.822C680.848 305.212 676.442 299.214 675.922 290.83C674.178 272.318 681.644 262.342 698.32 260.904ZM699.789 274.123C694.985 275.316 691.864 278.07 690.426 282.385C689.171 291.228 692.537 296.368 700.524 297.807C708.908 296.95 712.947 292.482 712.641 284.404C711.019 277.366 706.735 273.939 699.789 274.123Z" fill="black"/>
<path d="M442.25 750L492.25 800V850L458.917 816.667V950H425.583V816.667L392.25 850V800L442.25 750Z" fill="white"/>
<path d="M126.5 133.05V122.03H177.17V133.05H157.89V192.35H145.78V133.05" fill="white"/>
<path d="M219.889 148.277L219.339 149.017L218.789 149.567L218.239 149.937L217.499 151.037L217.139 151.407L216.769 151.587C216.369 152.14 216.003 152.567 215.669 152.867L213.279 155.627C208.199 152.354 203.993 150.717 200.659 150.717C197.233 150.717 194.709 152.414 193.089 155.807C193.149 157.8 193.943 159.27 195.469 160.217C196.143 160.397 196.633 160.58 196.939 160.767C198.133 160.947 199.113 161.19 199.879 161.497C211.473 162.357 217.959 167.01 219.339 175.457C219.399 175.824 219.429 176.18 219.429 176.527C219.429 176.88 219.429 177.227 219.429 177.567C219.429 183.714 216.829 188.334 211.629 191.427C207.896 193.107 204.146 193.947 200.379 193.947C193.219 193.947 186.076 190.904 178.949 184.817L179.319 184.087L180.229 183.167C180.843 182.434 181.396 181.88 181.889 181.507C182.009 181.294 182.129 181.174 182.249 181.147L182.619 180.597C182.739 180.384 182.863 180.26 182.989 180.227L183.169 179.857L183.539 179.677L185.929 176.917C190.456 181.204 195.196 183.347 200.149 183.347C202.229 183.347 204.343 182.98 206.489 182.247C207.036 181.514 207.586 180.964 208.139 180.597C208.326 179.864 208.419 179.174 208.419 178.527C208.419 176.934 207.899 175.604 206.859 174.537L202.629 173.067C190.023 172.3 183.169 166.914 182.069 156.907C182.896 146.84 188.586 141.457 199.139 140.757H199.789C207.896 140.757 214.596 143.264 219.889 148.277Z" fill="white"/>
<path d="M232.268 178.026V142.226H243.288V173.986C243.408 174.139 243.468 174.322 243.468 174.536C243.594 174.629 243.658 174.719 243.658 174.806V174.906C243.871 176.279 244.174 177.502 244.568 178.576C246.681 181.509 249.391 182.976 252.698 182.976H252.838C256.938 181.876 259.811 179.612 261.458 176.186V175.636L262.198 173.436V142.226H273.398V192.346H262.198V188.306C257.791 191.912 253.401 193.716 249.028 193.716C245.628 193.716 242.184 192.646 238.698 190.506C235.851 188.332 233.891 185.762 232.818 182.796L232.638 181.506C232.364 180.619 232.228 179.749 232.228 178.896V178.486C232.228 178.332 232.241 178.179 232.268 178.026Z" fill="white"/>
<path d="M331.817 162.794L331.997 165.544C332.117 165.698 332.177 165.881 332.177 166.094V171.604H298.587C299.287 177.844 302.467 181.518 308.127 182.624C309.047 182.711 309.951 182.754 310.837 182.754C315.457 182.754 319.391 181.241 322.637 178.214C323.031 178.888 323.521 179.438 324.107 179.864L324.287 180.414L324.837 180.964C325.264 181.364 325.631 181.741 325.937 182.094C326.244 182.448 326.491 182.808 326.677 183.174C326.891 183.294 327.011 183.414 327.037 183.534L329.607 186.474C323.794 191.341 317.597 193.774 311.017 193.774C309.891 193.774 308.744 193.698 307.577 193.544C306.417 193.391 305.254 193.178 304.087 192.904C293.501 189.384 287.687 181.794 286.647 170.134C286.647 169.981 286.641 169.674 286.627 169.214C286.614 168.761 286.607 168.471 286.607 168.344C286.607 152.404 293.781 143.331 308.127 141.124C322.387 141.618 330.284 148.841 331.817 162.794ZM298.397 162.974H320.617V162.424C320.491 162.058 320.427 161.691 320.427 161.324V160.954C320.121 160.281 319.937 159.671 319.877 159.124C317.617 153.891 313.884 151.258 308.677 151.224C302.131 152.784 298.704 156.701 298.397 162.974Z" fill="white"/>
<path d="M385.031 151.037V151.587C385.431 152.32 385.677 153.054 385.771 153.787V192.157H374.571V159.667L374.381 158.567C372.854 153.94 370.284 151.627 366.671 151.627C365.571 151.627 364.347 151.857 363.001 152.317C359.941 153.637 357.737 155.72 356.391 158.567L355.661 161.687V192.157H344.641V142.037H355.661V146.257C359.087 143.197 362.821 141.364 366.861 140.757H367.681C375.881 140.757 381.664 144.184 385.031 151.037Z" fill="white"/>
<path d="M424.172 122.584V122.214H436.842L437.022 123.504L437.212 124.054L437.572 125.344L437.942 127.544L438.492 129.374L438.862 131.584L439.412 133.414L439.592 134.884C439.806 135.404 439.929 135.834 439.962 136.174L440.142 136.904L440.512 138.004V138.744C440.632 138.837 440.692 138.927 440.692 139.014V139.664C441.032 140.337 441.219 141.071 441.252 141.864L441.612 142.964L441.982 144.254L442.352 146.454L442.902 148.284L443.082 149.394L444.182 153.984C444.276 154.411 444.362 154.801 444.442 155.154C444.516 155.501 444.552 155.844 444.552 156.184L444.922 156.914V157.654L445.282 158.574V159.304L445.652 160.034V160.774C445.992 161.694 446.176 162.491 446.202 163.164L446.392 163.894C446.606 164.507 446.772 165.074 446.892 165.594C447.012 166.114 447.089 166.587 447.122 167.014L447.492 168.484L447.862 169.764L448.222 168.664L448.962 164.994L449.322 164.074L449.512 162.974L450.062 160.404L450.432 159.124V158.574L451.162 155.634L451.342 154.534L451.712 153.794L451.892 153.064L452.082 152.144V151.414L452.262 150.854L453.002 147.924L453.362 145.714L453.552 144.984L453.912 144.254C453.979 143.274 454.162 142.414 454.462 141.674L454.652 140.764V140.214L455.022 138.744L455.202 138.194L455.752 135.804L455.932 134.704L456.302 133.604L456.482 132.684L457.032 130.294L457.222 129.374L457.402 129.014C457.436 128.674 457.476 128.344 457.522 128.024C457.569 127.704 457.652 127.421 457.772 127.174L457.952 126.624V126.074L458.142 125.344L458.322 124.784L458.872 122.214H472.462V122.764C472.889 123.837 473.132 124.881 473.192 125.894L473.562 127.354L473.742 127.914L474.482 131.214L474.842 132.684C475.089 133.571 475.212 134.304 475.212 134.884C475.426 135.404 475.549 135.834 475.582 136.174L475.942 137.454L476.132 138.744L476.312 139.474L476.502 140.024C476.589 140.424 476.666 140.784 476.732 141.104C476.792 141.424 476.836 141.737 476.862 142.044C477.109 142.624 477.279 143.161 477.372 143.654C477.466 144.141 477.542 144.584 477.602 144.984L477.782 146.084L478.152 147.004L478.332 148.104V148.654C478.639 149.387 478.822 150.061 478.882 150.674L479.072 151.774C479.372 152.507 479.556 153.181 479.622 153.794L479.802 154.714L480.352 156.734V157.464C480.472 157.744 480.532 158.051 480.532 158.384C480.872 159.091 481.059 159.704 481.092 160.224L481.272 161.144L481.452 162.244L481.642 162.974C481.949 163.921 482.132 164.777 482.192 165.544C482.312 165.637 482.372 165.731 482.372 165.824V166.464C482.799 167.537 483.046 168.577 483.112 169.584C483.292 169.524 483.412 169.401 483.472 169.214C483.626 168.454 483.779 167.791 483.932 167.224C484.086 166.657 484.239 166.161 484.392 165.734V164.994C484.792 163.894 485.036 162.914 485.122 162.054L485.492 160.774L486.232 157.834L486.412 156.364L486.782 155.084L486.962 154.534V153.984C487.176 153.397 487.346 152.867 487.472 152.394C487.592 151.921 487.666 151.471 487.692 151.044L488.062 149.754L489.532 143.694L490.082 140.764L490.452 139.294C490.786 138.407 490.969 137.674 491.002 137.094L491.182 136.174L491.552 134.704C491.826 133.817 492.009 133.084 492.102 132.504L492.282 131.764L492.842 129.194L493.202 128.094V127.544L493.752 126.074V125.344L493.942 124.784L494.492 122.214H506.972L506.242 125.894L505.692 128.094L505.502 128.644L504.952 131.214L504.592 132.684L504.222 133.964L503.482 137.644L503.122 138.924L502.382 142.414L502.022 143.694L501.832 144.254L501.462 146.264L501.282 146.634L501.102 147.924C500.796 148.931 500.612 149.787 500.552 150.494L499.812 152.694L499.632 153.984L499.442 154.714L499.262 155.264L499.082 156.554L498.892 157.104L497.792 161.694L497.612 162.974L497.242 164.264L496.322 167.934L496.142 169.214L495.042 173.804L494.492 176.374C494.152 177.294 493.969 178.091 493.942 178.764L493.202 181.154V181.884C492.869 182.804 492.686 183.601 492.652 184.274C492.346 185.281 492.162 186.137 492.102 186.844L491.732 188.124L491.552 188.494L491.372 189.784C491.066 190.791 490.882 191.647 490.822 192.354H477.232L477.052 190.884C476.839 190.364 476.716 189.934 476.682 189.594L476.312 188.124L476.132 186.844L475.762 185.554C475.669 185.187 475.592 184.837 475.532 184.504C475.472 184.164 475.426 183.841 475.392 183.534L475.212 182.804L475.032 181.884C474.906 181.731 474.842 181.547 474.842 181.334L474.662 180.414L474.482 179.864C474.389 179.471 474.312 179.111 474.252 178.784C474.186 178.464 474.139 178.151 474.112 177.844C473.899 177.264 473.739 176.731 473.632 176.244C473.526 175.751 473.439 175.307 473.372 174.914L473.192 174.174L473.012 173.254C472.886 172.887 472.799 172.537 472.752 172.204C472.712 171.864 472.676 171.541 472.642 171.234C472.429 170.627 472.262 170.047 472.142 169.494C472.016 168.941 471.939 168.421 471.912 167.934C471.786 167.781 471.722 167.597 471.722 167.384L471.542 166.644L471.362 166.094C471.269 165.454 471.146 164.844 470.992 164.264L470.622 162.604L470.442 161.504L470.072 160.594L469.702 158.384L469.522 157.834V157.284C469.216 156.551 469.032 155.877 468.972 155.264L468.602 153.064L468.232 152.144L467.872 150.674V149.944C467.506 148.931 467.322 148.074 467.322 147.374C467.196 147.221 467.132 147.037 467.132 146.824L466.952 146.264V145.714C466.646 145.014 466.462 144.281 466.402 143.514C466.096 142.534 465.912 141.617 465.852 140.764L465.482 141.494L465.302 142.594L464.752 144.984L464.382 147.004L464.192 147.554L463.462 150.674L463.282 151.414L462.912 153.244L462.732 153.984L462.362 156.004L462.182 156.554L461.442 160.034L461.072 161.324L460.892 162.604C460.559 163.524 460.376 164.321 460.342 164.994L460.162 165.364L459.972 166.464L459.792 167.014L458.872 171.604L458.692 172.154L457.952 175.644L457.772 176.374L457.592 177.294L457.402 177.844L456.672 181.334L456.302 182.804L455.932 184.644L455.752 185.004L455.382 186.664L455.202 187.394L455.022 188.674C454.802 189.441 454.679 190.054 454.652 190.514C454.526 190.821 454.442 191.111 454.402 191.384C454.356 191.664 454.316 191.924 454.282 192.164C453.856 192.231 453.466 192.284 453.112 192.324C452.759 192.371 452.416 192.394 452.082 192.394H451.622C451.469 192.394 451.316 192.381 451.162 192.354H440.512V191.614C440.086 190.514 439.842 189.474 439.782 188.494C439.656 188.341 439.592 188.157 439.592 187.944L439.412 187.024C438.739 184.851 438.309 183.014 438.122 181.514L437.942 180.964L437.022 177.484L436.842 176.014L435.372 170.324V169.584C435.066 168.884 434.882 168.151 434.822 167.384L434.452 166.284L434.092 164.994V164.444L433.172 160.774V160.224L432.982 159.484L432.622 158.754L432.432 157.284C432.192 156.551 431.996 155.877 431.842 155.264C431.689 154.651 431.582 154.101 431.522 153.614L431.332 153.064V152.514C431.212 152.361 431.152 152.177 431.152 151.964L430.782 150.494L430.602 149.944C430.476 149.297 430.359 148.714 430.252 148.194C430.146 147.674 430.016 147.217 429.862 146.824L429.682 145.534C429.469 144.921 429.299 144.354 429.172 143.834C429.052 143.314 428.976 142.841 428.942 142.414L428.762 141.494C428.642 141.341 428.582 141.157 428.582 140.944L427.662 137.274L427.292 135.984L427.112 135.074L426.932 134.334L426.742 133.054C426.496 132.407 426.372 131.854 426.372 131.394V131.214L426.012 130.294L425.822 129.564C425.702 128.677 425.519 127.941 425.272 127.354V126.624C425.152 126.471 425.092 126.287 425.092 126.074" fill="white"/>
<path d="M550.547 146.635L551.107 147.735C552.54 149.515 553.457 151.351 553.857 153.245C553.977 154.038 554.067 154.781 554.127 155.475C554.193 156.161 554.227 156.765 554.227 157.285V181.515C555.353 183.755 557.003 185.101 559.177 185.555L558.817 186.105C558.69 186.325 558.567 186.448 558.447 186.475L558.267 187.025L557.897 187.395C557.59 188.068 557.223 188.618 556.797 189.045C556.363 190.178 555.81 191.035 555.137 191.615C554.863 192.228 554.603 192.758 554.357 193.205C554.117 193.645 553.89 194.035 553.677 194.375C550.097 193.455 547.28 191.801 545.227 189.415H544.677C540.73 192.261 536.66 193.685 532.467 193.685C530.2 193.685 527.967 193.301 525.767 192.535C519.187 190.181 515.21 185.898 513.837 179.685V179.455C513.837 167.615 520.767 161.695 534.627 161.695H534.767C535.04 161.568 535.343 161.505 535.677 161.505L536.227 161.325H537.517L538.067 161.145H538.617L543.207 160.595C543.267 160.255 543.297 159.948 543.297 159.675V158.755C543.297 153.641 540.59 151.085 535.177 151.085C531.41 151.085 526.253 152.355 519.707 154.895L518.977 153.245L518.607 152.145L518.237 151.775L518.057 151.415L517.687 150.305C517.353 149.758 517.11 149.208 516.957 148.655C516.31 147.801 515.88 146.945 515.667 146.085L516.217 145.905L516.587 145.715L517.137 145.535L517.507 145.165H518.057C518.177 145.045 518.283 144.985 518.377 144.985H518.427C519.527 144.405 520.503 143.975 521.357 143.695L522.277 143.515C522.95 143.208 523.563 143.025 524.117 142.965L525.587 142.595C526.653 142.168 527.693 141.925 528.707 141.865L532.747 141.125C533.353 141.065 533.94 141.011 534.507 140.965C535.073 140.918 535.633 140.895 536.187 140.895C542.027 140.895 546.813 142.808 550.547 146.635ZM538.797 169.955H537.697C537.423 170.015 537.157 170.061 536.897 170.095C536.637 170.121 536.383 170.135 536.137 170.135H535.867L535.127 170.325H534.577C534.423 170.445 534.24 170.505 534.027 170.505H533.477L530.537 171.235H529.987C529.133 171.728 528.4 172.035 527.787 172.155C525.8 174.055 524.807 175.891 524.807 177.665C524.807 179.285 525.617 180.875 527.237 182.435C529.59 183.875 531.883 184.595 534.117 184.595C536.963 184.595 539.687 183.448 542.287 181.155C542.533 180.448 542.78 179.958 543.027 179.685L543.207 179.135L543.027 178.395V169.765H539.357C539.203 169.891 539.017 169.955 538.797 169.955Z" fill="white"/>
<path d="M613.031 151.037V151.587C613.431 152.32 613.677 153.054 613.771 153.787V192.157H602.571V159.667L602.381 158.567C600.854 153.94 598.284 151.627 594.671 151.627C593.571 151.627 592.347 151.857 591.001 152.317C587.941 153.637 585.737 155.72 584.391 158.567L583.661 161.687V192.157H572.641V142.037H583.661V146.257C587.087 143.197 590.821 141.364 594.861 140.757H595.681C603.881 140.757 609.664 144.184 613.031 151.037Z" fill="white"/>
<path d="M176.481 116H125.981V214H176.481V116Z" stroke="white" stroke-width="2" stroke-dasharray="5 5"/>
<path d="M223.981 116H178.481V214H223.981V116Z" stroke="white" stroke-width="2" stroke-dasharray="5 5"/>
<path d="M281.481 116H225.981V214H281.481V116Z" stroke="white" stroke-width="2" stroke-dasharray="5 5"/>
<path d="M335.981 116H283.481V214H335.981V116Z" stroke="white" stroke-width="2" stroke-dasharray="5 5"/>
<path d="M391.981 116H337.981V214H391.981V116Z" stroke="white" stroke-width="2" stroke-dasharray="5 5"/>
<path d="M416.981 116H393.981V214H416.981V116Z" stroke="white" stroke-width="2" stroke-dasharray="5 5"/>
<path d="M508.481 116H418.981V214H508.481V116Z" stroke="white" stroke-width="2" stroke-dasharray="5 5"/>
<path d="M563.981 116H510.481V214H563.981V116Z" stroke="white" stroke-width="2" stroke-dasharray="5 5"/>
<path d="M619.981 116H565.981V214H619.981V116Z" stroke="white" stroke-width="2" stroke-dasharray="5 5"/>
<path d="M702.231 115H749.111C754.285 115.003 758.479 119.196 758.481 124.37V218.13C758.479 223.304 754.285 227.497 749.111 227.5H655.351C650.177 227.497 645.984 223.304 645.981 218.13V124.37C645.984 119.196 650.177 115.003 655.351 115H702.231ZM702.231 118.125H655.356C651.904 118.125 649.106 120.923 649.106 124.375V218.125C649.106 221.577 651.904 224.375 655.356 224.375H749.106C752.558 224.375 755.356 221.577 755.356 218.125V124.015C755.357 120.707 752.779 117.971 749.476 117.775L702.231 118.125Z" fill="white"/>
<path d="M705.356 130.625H711.606L714.381 149.375H705.356V130.625Z" fill="white"/>
<path d="M699.106 130.625V149.375H690.081L692.856 130.625H699.106Z" fill="white"/>
<path d="M702.231 155.625H745.981V161.875H739.726C738.004 161.878 736.609 163.273 736.606 164.995V174.375H730.356L727.821 164.245C727.475 162.853 726.225 161.876 724.791 161.875H679.671C678.237 161.876 676.988 162.853 676.641 164.245L674.106 174.375H667.856V164.995C667.853 163.273 666.458 161.878 664.736 161.875H658.481V155.625H702.231Z" fill="white"/>
<path d="M705.356 168.125H717.156L720.981 215H705.356V168.125Z" fill="white"/>
<path d="M699.106 168.125V215H683.481L687.306 168.125H699.106Z" fill="white"/>
<path d="M38.2311 207.5H56.9811V107.5H19.4811V207.5H38.2311ZM38.2311 357.5H56.9811V257.5H19.4811V357.5H38.2311ZM38.2311 507.5H56.9811V407.5H19.4811V507.5H38.2311ZM38.2311 657.5H56.9811V557.5H19.4811V657.5H38.2311ZM38.2311 807.5H56.9811V707.5H19.4811V807.5H38.2311ZM38.2311 957.5H56.9811V857.5H19.4811V957.5H38.2311Z" fill="white"/>
<path d="M278.519 425.55V414.53H329.189V425.55H309.909V484.85H297.799V425.55" fill="white"/>
<path d="M368.816 439.135L369.376 440.235C370.809 442.015 371.726 443.851 372.126 445.745C372.246 446.538 372.336 447.281 372.396 447.975C372.462 448.661 372.496 449.265 372.496 449.785V474.015C373.622 476.255 375.272 477.601 377.446 478.055L377.086 478.605C376.959 478.825 376.836 478.948 376.716 478.975L376.536 479.525L376.166 479.895C375.859 480.568 375.492 481.118 375.066 481.545C374.632 482.678 374.079 483.535 373.406 484.115C373.132 484.728 372.872 485.258 372.626 485.705C372.386 486.145 372.159 486.535 371.946 486.875C368.366 485.955 365.549 484.301 363.496 481.915H362.946C358.999 484.761 354.929 486.185 350.736 486.185C348.469 486.185 346.236 485.801 344.036 485.035C337.456 482.681 333.479 478.398 332.106 472.185V471.955C332.106 460.115 339.036 454.195 352.896 454.195H353.036C353.309 454.068 353.612 454.005 353.946 454.005L354.496 453.825H355.786L356.336 453.645H356.886L361.476 453.095C361.536 452.755 361.566 452.448 361.566 452.175V451.255C361.566 446.141 358.859 443.585 353.446 443.585C349.679 443.585 344.522 444.855 337.976 447.395L337.246 445.745L336.876 444.645L336.506 444.275L336.326 443.915L335.956 442.805C335.622 442.258 335.379 441.708 335.226 441.155C334.579 440.301 334.149 439.445 333.936 438.585L334.486 438.405L334.856 438.215L335.406 438.035L335.776 437.665H336.326C336.446 437.545 336.552 437.485 336.646 437.485H336.696C337.796 436.905 338.772 436.475 339.626 436.195L340.546 436.015C341.219 435.708 341.832 435.525 342.386 435.465L343.856 435.095C344.922 434.668 345.962 434.425 346.976 434.365L351.016 433.625C351.622 433.565 352.209 433.511 352.776 433.465C353.342 433.418 353.902 433.395 354.456 433.395C360.296 433.395 365.082 435.308 368.816 439.135ZM357.066 462.455H355.966C355.692 462.515 355.426 462.561 355.166 462.595C354.906 462.621 354.652 462.635 354.406 462.635H354.136L353.396 462.825H352.846C352.692 462.945 352.509 463.005 352.296 463.005H351.746L348.806 463.735H348.256C347.402 464.228 346.669 464.535 346.056 464.655C344.069 466.555 343.076 468.391 343.076 470.165C343.076 471.785 343.886 473.375 345.506 474.935C347.859 476.375 350.152 477.095 352.386 477.095C355.232 477.095 357.956 475.948 360.556 473.655C360.802 472.948 361.049 472.458 361.296 472.185L361.476 471.635L361.296 470.895V462.265H357.626C357.472 462.391 357.286 462.455 357.066 462.455Z" fill="white"/>
<path d="M388.432 485.031V434.911H399.632V485.031H388.432ZM400.732 420.221V420.821C400.732 423.361 399.935 425.425 398.342 427.011C396.662 427.838 395.115 428.251 393.702 428.251C391.255 428.251 389.315 426.921 387.882 424.261C387.602 423.188 387.462 422.241 387.462 421.421C387.462 418.295 389.192 416.181 392.652 415.081H393.112C396.998 415.081 399.538 416.795 400.732 420.221Z" fill="white"/>
<path d="M439.691 415.084V414.714H452.361L452.541 416.004L452.731 416.554L453.091 417.844L453.461 420.044L454.011 421.874L454.381 424.084L454.931 425.914L455.111 427.384C455.324 427.904 455.448 428.334 455.481 428.674L455.661 429.404L456.031 430.504V431.244C456.151 431.337 456.211 431.427 456.211 431.514V432.164C456.551 432.837 456.738 433.571 456.771 434.364L457.131 435.464L457.501 436.754L457.871 438.954L458.421 440.784L458.601 441.894L459.701 446.484C459.794 446.911 459.881 447.301 459.961 447.654C460.034 448.001 460.071 448.344 460.071 448.684L460.441 449.414V450.154L460.801 451.074V451.804L461.171 452.534V453.274C461.511 454.194 461.694 454.991 461.721 455.664L461.911 456.394C462.124 457.007 462.291 457.574 462.411 458.094C462.531 458.614 462.608 459.087 462.641 459.514L463.011 460.984L463.381 462.264L463.741 461.164L464.481 457.494L464.841 456.574L465.031 455.474L465.581 452.904L465.951 451.624V451.074L466.681 448.134L466.861 447.034L467.231 446.294L467.411 445.564L467.601 444.644V443.914L467.781 443.354L468.521 440.424L468.881 438.214L469.071 437.484L469.431 436.754C469.498 435.774 469.681 434.914 469.981 434.174L470.171 433.264V432.714L470.541 431.244L470.721 430.694L471.271 428.304L471.451 427.204L471.821 426.104L472.001 425.184L472.551 422.794L472.741 421.874L472.921 421.514C472.954 421.174 472.995 420.844 473.041 420.524C473.088 420.204 473.171 419.921 473.291 419.674L473.471 419.124V418.574L473.661 417.844L473.841 417.284L474.391 414.714H487.981V415.264C488.408 416.337 488.651 417.381 488.711 418.394L489.081 419.854L489.261 420.414L490.001 423.714L490.361 425.184C490.608 426.071 490.731 426.804 490.731 427.384C490.945 427.904 491.068 428.334 491.101 428.674L491.461 429.954L491.651 431.244L491.831 431.974L492.021 432.524C492.108 432.924 492.185 433.284 492.251 433.604C492.311 433.924 492.355 434.237 492.381 434.544C492.628 435.124 492.798 435.661 492.891 436.154C492.985 436.641 493.061 437.084 493.121 437.484L493.301 438.584L493.671 439.504L493.851 440.604V441.154C494.158 441.887 494.341 442.561 494.401 443.174L494.591 444.274C494.891 445.007 495.075 445.681 495.141 446.294L495.321 447.214L495.871 449.234V449.964C495.991 450.244 496.051 450.551 496.051 450.884C496.391 451.591 496.578 452.204 496.611 452.724L496.791 453.644L496.971 454.744L497.161 455.474C497.468 456.421 497.651 457.277 497.711 458.044C497.831 458.137 497.891 458.231 497.891 458.324V458.964C498.318 460.037 498.565 461.077 498.631 462.084C498.811 462.024 498.931 461.901 498.991 461.714C499.145 460.954 499.298 460.291 499.451 459.724C499.605 459.157 499.758 458.661 499.911 458.234V457.494C500.311 456.394 500.555 455.414 500.641 454.554L501.011 453.274L501.751 450.334L501.931 448.864L502.301 447.584L502.481 447.034V446.484C502.695 445.897 502.865 445.367 502.991 444.894C503.111 444.421 503.185 443.971 503.211 443.544L503.581 442.254L505.051 436.194L505.601 433.264L505.971 431.794C506.305 430.907 506.488 430.174 506.521 429.594L506.701 428.674L507.071 427.204C507.345 426.317 507.528 425.584 507.621 425.004L507.801 424.264L508.361 421.694L508.721 420.594V420.044L509.271 418.574V417.844L509.461 417.284L510.011 414.714H522.491L521.761 418.394L521.211 420.594L521.021 421.144L520.471 423.714L520.111 425.184L519.741 426.464L519.001 430.144L518.641 431.424L517.901 434.914L517.541 436.194L517.351 436.754L516.981 438.764L516.801 439.134L516.621 440.424C516.315 441.431 516.131 442.287 516.071 442.994L515.331 445.194L515.151 446.484L514.961 447.214L514.781 447.764L514.601 449.054L514.411 449.604L513.311 454.194L513.131 455.474L512.761 456.764L511.841 460.434L511.661 461.714L510.561 466.304L510.011 468.874C509.671 469.794 509.488 470.591 509.461 471.264L508.721 473.654V474.384C508.388 475.304 508.204 476.101 508.171 476.774C507.864 477.781 507.681 478.637 507.621 479.344L507.251 480.624L507.071 480.994L506.891 482.284C506.585 483.291 506.401 484.147 506.341 484.854H492.751L492.571 483.384C492.358 482.864 492.235 482.434 492.201 482.094L491.831 480.624L491.651 479.344L491.281 478.054C491.188 477.687 491.111 477.337 491.051 477.004C490.991 476.664 490.945 476.341 490.911 476.034L490.731 475.304L490.551 474.384C490.425 474.231 490.361 474.047 490.361 473.834L490.181 472.914L490.001 472.364C489.908 471.971 489.831 471.611 489.771 471.284C489.705 470.964 489.658 470.651 489.631 470.344C489.418 469.764 489.258 469.231 489.151 468.744C489.045 468.251 488.958 467.807 488.891 467.414L488.711 466.674L488.531 465.754C488.405 465.387 488.318 465.037 488.271 464.704C488.231 464.364 488.195 464.041 488.161 463.734C487.948 463.127 487.781 462.547 487.661 461.994C487.535 461.441 487.458 460.921 487.431 460.434C487.305 460.281 487.241 460.097 487.241 459.884L487.061 459.144L486.881 458.594C486.788 457.954 486.665 457.344 486.511 456.764L486.141 455.104L485.961 454.004L485.591 453.094L485.221 450.884L485.041 450.334V449.784C484.735 449.051 484.551 448.377 484.491 447.764L484.121 445.564L483.751 444.644L483.391 443.174V442.444C483.025 441.431 482.841 440.574 482.841 439.874C482.715 439.721 482.651 439.537 482.651 439.324L482.471 438.764V438.214C482.165 437.514 481.981 436.781 481.921 436.014C481.614 435.034 481.431 434.117 481.371 433.264L481.001 433.994L480.821 435.094L480.271 437.484L479.901 439.504L479.711 440.054L478.981 443.174L478.801 443.914L478.431 445.744L478.251 446.484L477.881 448.504L477.701 449.054L476.961 452.534L476.591 453.824L476.411 455.104C476.078 456.024 475.895 456.821 475.861 457.494L475.681 457.864L475.491 458.964L475.311 459.514L474.391 464.104L474.211 464.654L473.471 468.144L473.291 468.874L473.111 469.794L472.921 470.344L472.191 473.834L471.821 475.304L471.451 477.144L471.271 477.504L470.901 479.164L470.721 479.894L470.541 481.174C470.321 481.941 470.198 482.554 470.171 483.014C470.044 483.321 469.961 483.611 469.921 483.884C469.874 484.164 469.834 484.424 469.801 484.664C469.374 484.731 468.984 484.784 468.631 484.824C468.278 484.871 467.934 484.894 467.601 484.894H467.141C466.988 484.894 466.834 484.881 466.681 484.854H456.031V484.114C455.604 483.014 455.361 481.974 455.301 480.994C455.174 480.841 455.111 480.657 455.111 480.444L454.931 479.524C454.258 477.351 453.828 475.514 453.641 474.014L453.461 473.464L452.541 469.984L452.361 468.514L450.891 462.824V462.084C450.584 461.384 450.401 460.651 450.341 459.884L449.971 458.784L449.611 457.494V456.944L448.691 453.274V452.724L448.501 451.984L448.141 451.254L447.951 449.784C447.711 449.051 447.514 448.377 447.361 447.764C447.208 447.151 447.101 446.601 447.041 446.114L446.851 445.564V445.014C446.731 444.861 446.671 444.677 446.671 444.464L446.301 442.994L446.121 442.444C445.994 441.797 445.878 441.214 445.771 440.694C445.664 440.174 445.534 439.717 445.381 439.324L445.201 438.034C444.988 437.421 444.818 436.854 444.691 436.334C444.571 435.814 444.494 435.341 444.461 434.914L444.281 433.994C444.161 433.841 444.101 433.657 444.101 433.444L443.181 429.774L442.811 428.484L442.631 427.574L442.451 426.834L442.261 425.554C442.014 424.907 441.891 424.354 441.891 423.894V423.714L441.531 422.794L441.341 422.064C441.221 421.177 441.038 420.441 440.791 419.854V419.124C440.671 418.971 440.611 418.787 440.611 418.574" fill="white"/>
<path d="M566.065 439.135L566.625 440.235C568.059 442.015 568.975 443.851 569.375 445.745C569.495 446.538 569.585 447.281 569.645 447.975C569.712 448.661 569.745 449.265 569.745 449.785V474.015C570.872 476.255 572.522 477.601 574.695 478.055L574.335 478.605C574.209 478.825 574.085 478.948 573.965 478.975L573.785 479.525L573.415 479.895C573.109 480.568 572.742 481.118 572.315 481.545C571.882 482.678 571.329 483.535 570.655 484.115C570.382 484.728 570.122 485.258 569.875 485.705C569.635 486.145 569.409 486.535 569.195 486.875C565.615 485.955 562.799 484.301 560.745 481.915H560.195C556.249 484.761 552.179 486.185 547.985 486.185C545.719 486.185 543.485 485.801 541.285 485.035C534.705 482.681 530.729 478.398 529.355 472.185V471.955C529.355 460.115 536.285 454.195 550.145 454.195H550.285C550.559 454.068 550.862 454.005 551.195 454.005L551.745 453.825H553.035L553.585 453.645H554.135L558.725 453.095C558.785 452.755 558.815 452.448 558.815 452.175V451.255C558.815 446.141 556.109 443.585 550.695 443.585C546.929 443.585 541.772 444.855 535.225 447.395L534.495 445.745L534.125 444.645L533.755 444.275L533.575 443.915L533.205 442.805C532.872 442.258 532.629 441.708 532.475 441.155C531.829 440.301 531.399 439.445 531.185 438.585L531.735 438.405L532.105 438.215L532.655 438.035L533.025 437.665H533.575C533.695 437.545 533.802 437.485 533.895 437.485H533.945C535.045 436.905 536.022 436.475 536.875 436.195L537.795 436.015C538.469 435.708 539.082 435.525 539.635 435.465L541.105 435.095C542.172 434.668 543.212 434.425 544.225 434.365L548.265 433.625C548.872 433.565 549.459 433.511 550.025 433.465C550.592 433.418 551.152 433.395 551.705 433.395C557.545 433.395 562.332 435.308 566.065 439.135ZM554.315 462.455H553.215C552.942 462.515 552.675 462.561 552.415 462.595C552.155 462.621 551.902 462.635 551.655 462.635H551.385L550.645 462.825H550.095C549.942 462.945 549.759 463.005 549.545 463.005H548.995L546.055 463.735H545.505C544.652 464.228 543.919 464.535 543.305 464.655C541.319 466.555 540.325 468.391 540.325 470.165C540.325 471.785 541.135 473.375 542.755 474.935C545.109 476.375 547.402 477.095 549.635 477.095C552.482 477.095 555.205 475.948 557.805 473.655C558.052 472.948 558.299 472.458 558.545 472.185L558.725 471.635L558.545 470.895V462.265H554.875C554.722 462.391 554.535 462.455 554.315 462.455Z" fill="white"/>
<path d="M587.432 485.031V434.911H598.632V485.031H587.432ZM599.732 420.221V420.821C599.732 423.361 598.935 425.425 597.342 427.011C595.662 427.838 594.115 428.251 592.702 428.251C590.255 428.251 588.315 426.921 586.882 424.261C586.602 423.188 586.462 422.241 586.462 421.421C586.462 418.295 588.192 416.181 591.652 415.081H592.112C595.998 415.081 598.538 416.795 599.732 420.221Z" fill="white"/>
<path d="M328.5 408.5H278V506.5H328.5V408.5Z" stroke="white" stroke-width="2" stroke-dasharray="5 5"/>
<path d="M380.5 408.5H330.5V506.5H380.5V408.5Z" stroke="white" stroke-width="2" stroke-dasharray="5 5"/>
<path d="M407.5 408.5H382.5V506.5H407.5V408.5Z" stroke="white" stroke-width="2" stroke-dasharray="5 5"/>
<path d="M432.5 408.5H409.5V506.5H432.5V408.5Z" stroke="white" stroke-width="2" stroke-dasharray="5 5"/>
<path d="M524 408.5H434.5V506.5H524V408.5Z" stroke="white" stroke-width="2" stroke-dasharray="5 5"/>
<path d="M579.5 408.5H526V506.5H579.5V408.5Z" stroke="white" stroke-width="2" stroke-dasharray="5 5"/>
<path d="M606.5 408.5H581.5V506.5H606.5V408.5Z" stroke="white" stroke-width="2" stroke-dasharray="5 5"/>
<path d="M324.5 558.015V546.985H423.95V558.015H324.5ZM369.84 553.965L380.52 551.375C382.927 560.229 386.174 568.479 390.26 576.125C394.347 583.779 399.37 590.472 405.33 596.205C411.297 601.945 418.217 606.465 426.09 609.765C425.19 610.512 424.234 611.485 423.22 612.685C422.207 613.885 421.25 615.105 420.35 616.345C419.45 617.585 418.7 618.692 418.1 619.665C409.774 615.765 402.517 610.609 396.33 604.195C390.144 597.782 384.914 590.339 380.64 581.865C376.367 573.392 372.767 564.092 369.84 553.965ZM368.15 515.605H379.74C379.74 520.925 379.607 526.642 379.34 532.755C379.08 538.869 378.5 545.152 377.6 551.605C376.7 558.052 375.237 564.502 373.21 570.955C371.19 577.402 368.377 583.625 364.77 589.625C361.177 595.625 356.567 601.195 350.94 606.335C345.314 611.469 338.45 615.949 330.35 619.775C329.45 618.349 328.25 616.792 326.75 615.105C325.25 613.419 323.75 612.012 322.25 610.885C330.05 607.365 336.63 603.259 341.99 598.565C347.357 593.879 351.707 588.779 355.04 583.265C358.38 577.759 360.95 572.042 362.75 566.115C364.55 560.189 365.827 554.262 366.58 548.335C367.327 542.415 367.777 536.679 367.93 531.125C368.077 525.579 368.15 520.405 368.15 515.605Z" fill="white"/>
<path d="M479.892 553.628V547.558H543.232V553.628H479.892ZM480.452 596.158V589.968H543.342V596.158H480.452ZM511.162 603.578V572.418H520.732V603.578H511.162ZM526.692 562.628H495.982V568.818H526.692V562.628ZM486.982 573.878V557.338H536.142V573.878H486.982ZM502.952 530.228L511.842 531.358C511.015 534.431 510.075 537.691 509.022 541.138C507.975 544.591 507.002 547.554 506.102 550.028H496.762C497.815 547.328 498.902 544.141 500.022 540.468C501.149 536.794 502.125 533.381 502.952 530.228ZM486.412 542.038V536.308H533.552V550.818H524.662V542.038H486.412ZM463.912 620.118V520.218H559.092V620.118H548.632V529.888H474.042V620.118H463.912ZM470.332 615.618V605.938H554.252V615.618H470.332ZM488.332 594.358V578.038H538.502V584.118H496.652V594.358" fill="white"/>
<path d="M441.25 508.5H305.75V649H441.25V508.5Z" stroke="white" stroke-width="2" stroke-dasharray="5 5"/>
<path d="M578.75 508.5H443.25V649H578.75V508.5Z" stroke="white" stroke-width="2" stroke-dasharray="5 5"/>
<path d="M445 382.883H560.212" stroke="#FF0000" stroke-width="3.03189"/>
<path d="M445 409H560.212" stroke="#FF0000" stroke-width="3.03189"/>
<path d="M535.956 384.383V406.383" stroke="#FF0000" stroke-width="3.03189"/>
<path d="M535.956 403L526.861 439.383H545.052L535.956 403Z" fill="#FF0000"/>
<path d="M535.956 390.383L526.861 354H545.052L535.956 390.383Z" fill="#FF0000"/>
<path d="M566.758 373V370.674L575.492 361.114C576.517 359.994 577.361 359.021 578.024 358.194C578.687 357.358 579.178 356.574 579.497 355.842C579.824 355.101 579.988 354.326 579.988 353.517C579.988 352.586 579.764 351.781 579.316 351.101C578.877 350.42 578.274 349.895 577.507 349.524C576.741 349.154 575.879 348.969 574.923 348.969C573.907 348.969 573.02 349.18 572.262 349.602C571.512 350.015 570.931 350.597 570.518 351.346C570.113 352.095 569.91 352.974 569.91 353.982H566.861C566.861 352.431 567.219 351.07 567.933 349.899C568.648 348.728 569.622 347.815 570.853 347.16C572.094 346.505 573.485 346.178 575.027 346.178C576.577 346.178 577.951 346.505 579.148 347.16C580.345 347.815 581.284 348.697 581.965 349.809C582.645 350.92 582.985 352.156 582.985 353.517C582.985 354.49 582.809 355.442 582.456 356.372C582.111 357.294 581.508 358.323 580.647 359.46C579.794 360.588 578.61 361.966 577.094 363.594L571.151 369.951V370.158H583.45V373H566.758ZM602.895 357.599L600.156 358.375C599.984 357.918 599.73 357.474 599.394 357.044C599.066 356.605 598.619 356.243 598.05 355.959C597.482 355.674 596.754 355.532 595.867 355.532C594.652 355.532 593.64 355.812 592.83 356.372C592.029 356.923 591.629 357.625 591.629 358.478C591.629 359.236 591.904 359.835 592.456 360.274C593.007 360.713 593.868 361.079 595.04 361.372L597.985 362.096C599.76 362.526 601.082 363.185 601.952 364.072C602.822 364.951 603.257 366.083 603.257 367.47C603.257 368.607 602.929 369.624 602.275 370.519C601.629 371.415 600.724 372.121 599.562 372.638C598.399 373.155 597.047 373.413 595.505 373.413C593.481 373.413 591.805 372.974 590.479 372.096C589.152 371.217 588.313 369.934 587.96 368.245L590.854 367.522C591.129 368.59 591.65 369.391 592.417 369.925C593.192 370.459 594.204 370.726 595.453 370.726C596.874 370.726 598.003 370.425 598.838 369.822C599.682 369.21 600.104 368.478 600.104 367.625C600.104 366.936 599.863 366.359 599.381 365.894C598.898 365.42 598.158 365.067 597.159 364.835L593.851 364.059C592.034 363.629 590.699 362.961 589.846 362.057C589.002 361.144 588.58 360.002 588.58 358.633C588.58 357.513 588.894 356.523 589.523 355.661C590.16 354.8 591.026 354.124 592.12 353.633C593.222 353.142 594.471 352.896 595.867 352.896C597.83 352.896 599.372 353.327 600.492 354.188C601.62 355.05 602.421 356.187 602.895 357.599ZM612.343 373L606.296 353.155H609.5L613.79 368.349H613.997L618.234 353.155H621.49L625.676 368.297H625.883L630.172 353.155H633.377L627.33 373H624.333L619.991 357.754H619.681L615.34 373H612.343Z" fill="#FF0000"/>
</g>
<defs>
<clipPath id="clip0_0_1">
<rect width="975" height="1015" fill="white"/>
</clipPath>
</defs>
</svg>
