<svg width="975" height="1015" viewBox="0 0 975 1015" fill="none" xmlns="http://www.w3.org/2000/svg">
<g clip-path="url(#clip0_0_1)">
<path d="M10.8939 57.5C10.8939 36.7893 27.6832 20 48.3939 20H1723.39C1744.1 20 1760.89 36.7893 1760.89 57.5V957.5C1760.89 978.211 1744.1 995 1723.39 995H48.3939C27.6832 995 10.8939 978.211 10.8939 957.5V57.5Z" fill="white"/>
<path d="M29.6439 57.5C29.6439 47.1447 38.0386 38.75 48.3939 38.75H1723.39C1733.75 38.75 1742.14 47.1447 1742.14 57.5V957.5C1742.14 967.855 1733.75 976.25 1723.39 976.25H48.3939C38.0386 976.25 29.6439 967.855 29.6439 957.5V57.5Z" fill="#0033A2"/>
<path d="M69.3749 339C69.3749 332.096 74.9713 326.5 81.8749 326.5H881.875C888.778 326.5 894.375 332.096 894.375 339V706.5C894.375 713.404 888.778 719 881.875 719H81.8749C74.9713 719 69.3749 713.404 69.3749 706.5V339Z" fill="white"/>
<path d="M700.625 385.25C790.371 385.25 863.125 446.811 863.125 522.75C863.125 598.689 790.371 660.25 700.625 660.25C610.879 660.25 538.125 598.689 538.125 522.75C538.125 446.811 610.879 385.25 700.625 385.25Z" fill="#FF0101"/>
<path d="M700.625 435.25H713.125V485.25C733.125 485.283 749.625 464.383 750.625 437.75H778.125C776.956 478.192 748.194 510.273 713.125 510.25V535.25C748.194 535.227 776.956 567.308 778.125 607.75H750.625C749.625 581.117 733.125 560.217 713.125 560.25V610.25H688.125V560.25C668.125 560.217 651.625 581.117 650.625 607.75H623.125C624.294 567.308 653.056 535.227 688.125 535.25V510.25C653.056 510.273 624.294 478.192 623.125 437.75H650.625C651.625 464.383 668.125 485.283 688.125 485.25V435.25H700.625Z" fill="white"/>
<path d="M235.394 96.0504V85.0304H286.064V96.0504H266.784V155.35H254.674V96.0504" fill="white"/>
<path d="M328.784 111.277L328.234 112.017L327.684 112.567L327.134 112.937L326.394 114.037L326.034 114.407L325.664 114.587C325.264 115.14 324.897 115.567 324.564 115.867L322.174 118.627C317.094 115.354 312.887 113.717 309.554 113.717C306.127 113.717 303.604 115.414 301.984 118.807C302.044 120.8 302.837 122.27 304.364 123.217C305.037 123.397 305.527 123.58 305.834 123.767C307.027 123.947 308.007 124.19 308.774 124.497C320.367 125.357 326.854 130.01 328.234 138.457C328.294 138.824 328.324 139.18 328.324 139.527C328.324 139.88 328.324 140.227 328.324 140.567C328.324 146.714 325.724 151.334 320.524 154.427C316.79 156.107 313.04 156.947 309.274 156.947C302.114 156.947 294.97 153.904 287.844 147.817L288.214 147.087L289.124 146.167C289.737 145.434 290.29 144.88 290.784 144.507C290.904 144.294 291.024 144.174 291.144 144.147L291.514 143.597C291.634 143.384 291.757 143.26 291.884 143.227L292.064 142.857L292.434 142.677L294.824 139.917C299.35 144.204 304.09 146.347 309.044 146.347C311.124 146.347 313.237 145.98 315.384 145.247C315.93 144.514 316.48 143.964 317.034 143.597C317.22 142.864 317.314 142.174 317.314 141.527C317.314 139.934 316.794 138.604 315.754 137.537L311.524 136.067C298.917 135.3 292.064 129.914 290.964 119.907C291.79 109.84 297.48 104.457 308.034 103.757H308.684C316.79 103.757 323.49 106.264 328.784 111.277Z" fill="white"/>
<path d="M341.162 141.026V105.226H352.182V136.986C352.302 137.139 352.362 137.322 352.362 137.536C352.489 137.629 352.552 137.719 352.552 137.806V137.906C352.765 139.279 353.069 140.502 353.462 141.576C355.575 144.509 358.285 145.976 361.592 145.976H361.732C365.832 144.876 368.705 142.612 370.352 139.186V138.636L371.092 136.436V105.226H382.292V155.346H371.092V151.306C366.685 154.912 362.295 156.716 357.922 156.716C354.522 156.716 351.079 155.646 347.592 153.506C344.745 151.332 342.785 148.762 341.712 145.796L341.532 144.506C341.259 143.619 341.122 142.749 341.122 141.896V141.486C341.122 141.332 341.135 141.179 341.162 141.026Z" fill="white"/>
<path d="M440.711 125.794L440.891 128.544C441.011 128.698 441.071 128.881 441.071 129.094V134.604H407.481C408.181 140.844 411.361 144.518 417.021 145.624C417.941 145.711 418.844 145.754 419.731 145.754C424.351 145.754 428.284 144.241 431.531 141.214C431.924 141.888 432.414 142.438 433.001 142.864L433.181 143.414L433.731 143.964C434.157 144.364 434.524 144.741 434.831 145.094C435.137 145.448 435.384 145.808 435.571 146.174C435.784 146.294 435.904 146.414 435.931 146.534L438.501 149.474C432.687 154.341 426.491 156.774 419.911 156.774C418.784 156.774 417.637 156.698 416.471 156.544C415.311 156.391 414.147 156.178 412.981 155.904C402.394 152.384 396.581 144.794 395.541 133.134C395.541 132.981 395.534 132.674 395.521 132.214C395.507 131.761 395.501 131.471 395.501 131.344C395.501 115.404 402.674 106.331 417.021 104.124C431.281 104.618 439.177 111.841 440.711 125.794ZM407.291 125.974H429.511V125.424C429.384 125.058 429.321 124.691 429.321 124.324V123.954C429.014 123.281 428.831 122.671 428.771 122.124C426.511 116.891 422.777 114.258 417.571 114.224C411.024 115.784 407.597 119.701 407.291 125.974Z" fill="white"/>
<path d="M493.925 114.037V114.587C494.325 115.32 494.572 116.054 494.665 116.787V155.157H483.465V122.667L483.275 121.567C481.748 116.94 479.178 114.627 475.565 114.627C474.465 114.627 473.242 114.857 471.895 115.317C468.835 116.637 466.632 118.72 465.285 121.567L464.555 124.687V155.157H453.535V105.037H464.555V109.257C467.982 106.197 471.715 104.364 475.755 103.757H476.575C484.775 103.757 490.558 107.184 493.925 114.037Z" fill="white"/>
<path d="M533.066 85.584V85.214H545.736L545.916 86.504L546.106 87.054L546.466 88.344L546.836 90.544L547.386 92.374L547.756 94.584L548.306 96.414L548.486 97.884C548.7 98.404 548.823 98.834 548.856 99.174L549.036 99.904L549.406 101.004V101.744C549.526 101.837 549.586 101.927 549.586 102.014V102.664C549.926 103.337 550.113 104.071 550.146 104.864L550.506 105.964L550.876 107.254L551.246 109.454L551.796 111.284L551.976 112.394L553.076 116.984C553.17 117.411 553.256 117.801 553.336 118.154C553.41 118.501 553.446 118.844 553.446 119.184L553.816 119.914V120.654L554.176 121.574V122.304L554.546 123.034V123.774C554.886 124.694 555.07 125.491 555.096 126.164L555.286 126.894C555.5 127.507 555.666 128.074 555.786 128.594C555.906 129.114 555.983 129.587 556.016 130.014L556.386 131.484L556.756 132.764L557.116 131.664L557.856 127.994L558.216 127.074L558.406 125.974L558.956 123.404L559.326 122.124V121.574L560.056 118.634L560.236 117.534L560.606 116.794L560.786 116.064L560.976 115.144V114.414L561.156 113.854L561.896 110.924L562.256 108.714L562.446 107.984L562.806 107.254C562.873 106.274 563.056 105.414 563.356 104.674L563.546 103.764V103.214L563.916 101.744L564.096 101.194L564.646 98.804L564.826 97.704L565.196 96.604L565.376 95.684L565.926 93.294L566.116 92.374L566.296 92.014C566.33 91.674 566.37 91.344 566.416 91.024C566.463 90.704 566.546 90.4207 566.666 90.174L566.846 89.624V89.074L567.036 88.344L567.216 87.784L567.766 85.214H581.356V85.764C581.783 86.8373 582.026 87.8807 582.086 88.894L582.456 90.354L582.636 90.914L583.376 94.214L583.736 95.684C583.983 96.5707 584.106 97.304 584.106 97.884C584.32 98.404 584.443 98.834 584.476 99.174L584.836 100.454L585.026 101.744L585.206 102.474L585.396 103.024C585.483 103.424 585.56 103.784 585.626 104.104C585.686 104.424 585.73 104.737 585.756 105.044C586.003 105.624 586.173 106.161 586.266 106.654C586.36 107.141 586.436 107.584 586.496 107.984L586.676 109.084L587.046 110.004L587.226 111.104V111.654C587.533 112.387 587.716 113.061 587.776 113.674L587.966 114.774C588.266 115.507 588.45 116.181 588.516 116.794L588.696 117.714L589.246 119.734V120.464C589.366 120.744 589.426 121.051 589.426 121.384C589.766 122.091 589.953 122.704 589.986 123.224L590.166 124.144L590.346 125.244L590.536 125.974C590.843 126.921 591.026 127.777 591.086 128.544C591.206 128.637 591.266 128.731 591.266 128.824V129.464C591.693 130.537 591.94 131.577 592.006 132.584C592.186 132.524 592.306 132.401 592.366 132.214C592.52 131.454 592.673 130.791 592.826 130.224C592.98 129.657 593.133 129.161 593.286 128.734V127.994C593.686 126.894 593.93 125.914 594.016 125.054L594.386 123.774L595.126 120.834L595.306 119.364L595.676 118.084L595.856 117.534V116.984C596.07 116.397 596.24 115.867 596.366 115.394C596.486 114.921 596.56 114.471 596.586 114.044L596.956 112.754L598.426 106.694L598.976 103.764L599.346 102.294C599.68 101.407 599.863 100.674 599.896 100.094L600.076 99.174L600.446 97.704C600.72 96.8173 600.903 96.084 600.996 95.504L601.176 94.764L601.736 92.194L602.096 91.094V90.544L602.646 89.074V88.344L602.836 87.784L603.386 85.214H615.866L615.136 88.894L614.586 91.094L614.396 91.644L613.846 94.214L613.486 95.684L613.116 96.964L612.376 100.644L612.016 101.924L611.276 105.414L610.916 106.694L610.726 107.254L610.356 109.264L610.176 109.634L609.996 110.924C609.69 111.931 609.506 112.787 609.446 113.494L608.706 115.694L608.526 116.984L608.336 117.714L608.156 118.264L607.976 119.554L607.786 120.104L606.686 124.694L606.506 125.974L606.136 127.264L605.216 130.934L605.036 132.214L603.936 136.804L603.386 139.374C603.046 140.294 602.863 141.091 602.836 141.764L602.096 144.154V144.884C601.763 145.804 601.58 146.601 601.546 147.274C601.24 148.281 601.056 149.137 600.996 149.844L600.626 151.124L600.446 151.494L600.266 152.784C599.96 153.791 599.776 154.647 599.716 155.354H586.126L585.946 153.884C585.733 153.364 585.61 152.934 585.576 152.594L585.206 151.124L585.026 149.844L584.656 148.554C584.563 148.187 584.486 147.837 584.426 147.504C584.366 147.164 584.32 146.841 584.286 146.534L584.106 145.804L583.926 144.884C583.8 144.731 583.736 144.547 583.736 144.334L583.556 143.414L583.376 142.864C583.283 142.471 583.206 142.111 583.146 141.784C583.08 141.464 583.033 141.151 583.006 140.844C582.793 140.264 582.633 139.731 582.526 139.244C582.42 138.751 582.333 138.307 582.266 137.914L582.086 137.174L581.906 136.254C581.78 135.887 581.693 135.537 581.646 135.204C581.606 134.864 581.57 134.541 581.536 134.234C581.323 133.627 581.156 133.047 581.036 132.494C580.91 131.941 580.833 131.421 580.806 130.934C580.68 130.781 580.616 130.597 580.616 130.384L580.436 129.644L580.256 129.094C580.163 128.454 580.04 127.844 579.886 127.264L579.516 125.604L579.336 124.504L578.966 123.594L578.596 121.384L578.416 120.834V120.284C578.11 119.551 577.926 118.877 577.866 118.264L577.496 116.064L577.126 115.144L576.766 113.674V112.944C576.4 111.931 576.216 111.074 576.216 110.374C576.09 110.221 576.026 110.037 576.026 109.824L575.846 109.264V108.714C575.54 108.014 575.356 107.281 575.296 106.514C574.99 105.534 574.806 104.617 574.746 103.764L574.376 104.494L574.196 105.594L573.646 107.984L573.276 110.004L573.086 110.554L572.356 113.674L572.176 114.414L571.806 116.244L571.626 116.984L571.256 119.004L571.076 119.554L570.336 123.034L569.966 124.324L569.786 125.604C569.453 126.524 569.27 127.321 569.236 127.994L569.056 128.364L568.866 129.464L568.686 130.014L567.766 134.604L567.586 135.154L566.846 138.644L566.666 139.374L566.486 140.294L566.296 140.844L565.566 144.334L565.196 145.804L564.826 147.644L564.646 148.004L564.276 149.664L564.096 150.394L563.916 151.674C563.696 152.441 563.573 153.054 563.546 153.514C563.42 153.821 563.336 154.111 563.296 154.384C563.25 154.664 563.21 154.924 563.176 155.164C562.75 155.231 562.36 155.284 562.006 155.324C561.653 155.371 561.31 155.394 560.976 155.394H560.516C560.363 155.394 560.21 155.381 560.056 155.354H549.406V154.614C548.98 153.514 548.736 152.474 548.676 151.494C548.55 151.341 548.486 151.157 548.486 150.944L548.306 150.024C547.633 147.851 547.203 146.014 547.016 144.514L546.836 143.964L545.916 140.484L545.736 139.014L544.266 133.324V132.584C543.96 131.884 543.776 131.151 543.716 130.384L543.346 129.284L542.986 127.994V127.444L542.066 123.774V123.224L541.876 122.484L541.516 121.754L541.326 120.284C541.086 119.551 540.89 118.877 540.736 118.264C540.583 117.651 540.476 117.101 540.416 116.614L540.226 116.064V115.514C540.106 115.361 540.046 115.177 540.046 114.964L539.676 113.494L539.496 112.944C539.37 112.297 539.253 111.714 539.146 111.194C539.04 110.674 538.91 110.217 538.756 109.824L538.576 108.534C538.363 107.921 538.193 107.354 538.066 106.834C537.946 106.314 537.87 105.841 537.836 105.414L537.656 104.494C537.536 104.341 537.476 104.157 537.476 103.944L536.556 100.274L536.186 98.984L536.006 98.074L535.826 97.334L535.636 96.054C535.39 95.4073 535.266 94.854 535.266 94.394V94.214L534.906 93.294L534.716 92.564C534.596 91.6773 534.413 90.9407 534.166 90.354V89.624C534.046 89.4707 533.986 89.2873 533.986 89.074" fill="white"/>
<path d="M659.44 109.635L660 110.735C661.434 112.515 662.35 114.351 662.75 116.245C662.87 117.038 662.96 117.781 663.02 118.475C663.087 119.161 663.12 119.765 663.12 120.285V144.515C664.247 146.755 665.897 148.101 668.07 148.555L667.71 149.105C667.584 149.325 667.46 149.448 667.34 149.475L667.16 150.025L666.79 150.395C666.484 151.068 666.117 151.618 665.69 152.045C665.257 153.178 664.704 154.035 664.03 154.615C663.757 155.228 663.497 155.758 663.25 156.205C663.01 156.645 662.784 157.035 662.57 157.375C658.99 156.455 656.174 154.801 654.12 152.415H653.57C649.624 155.261 645.554 156.685 641.36 156.685C639.094 156.685 636.86 156.301 634.66 155.535C628.08 153.181 624.104 148.898 622.73 142.685V142.455C622.73 130.615 629.66 124.695 643.52 124.695H643.66C643.934 124.568 644.237 124.505 644.57 124.505L645.12 124.325H646.41L646.96 124.145H647.51L652.1 123.595C652.16 123.255 652.19 122.948 652.19 122.675V121.755C652.19 116.641 649.484 114.085 644.07 114.085C640.304 114.085 635.147 115.355 628.6 117.895L627.87 116.245L627.5 115.145L627.13 114.775L626.95 114.415L626.58 113.305C626.247 112.758 626.004 112.208 625.85 111.655C625.204 110.801 624.774 109.945 624.56 109.085L625.11 108.905L625.48 108.715L626.03 108.535L626.4 108.165H626.95C627.07 108.045 627.177 107.985 627.27 107.985H627.32C628.42 107.405 629.397 106.975 630.25 106.695L631.17 106.515C631.844 106.208 632.457 106.025 633.01 105.965L634.48 105.595C635.547 105.168 636.587 104.925 637.6 104.865L641.64 104.125C642.247 104.065 642.834 104.011 643.4 103.965C643.967 103.918 644.527 103.895 645.08 103.895C650.92 103.895 655.707 105.808 659.44 109.635ZM647.69 132.955H646.59C646.317 133.015 646.05 133.061 645.79 133.095C645.53 133.121 645.277 133.135 645.03 133.135H644.76L644.02 133.325H643.47C643.317 133.445 643.134 133.505 642.92 133.505H642.37L639.43 134.235H638.88C638.027 134.728 637.294 135.035 636.68 135.155C634.694 137.055 633.7 138.891 633.7 140.665C633.7 142.285 634.51 143.875 636.13 145.435C638.484 146.875 640.777 147.595 643.01 147.595C645.857 147.595 648.58 146.448 651.18 144.155C651.427 143.448 651.674 142.958 651.92 142.685L652.1 142.135L651.92 141.395V132.765H648.25C648.097 132.891 647.91 132.955 647.69 132.955Z" fill="white"/>
<path d="M721.925 114.037V114.587C722.325 115.32 722.572 116.054 722.665 116.787V155.157H711.465V122.667L711.275 121.567C709.748 116.94 707.178 114.627 703.565 114.627C702.465 114.627 701.242 114.857 699.895 115.317C696.835 116.637 694.632 118.72 693.285 121.567L692.555 124.687V155.157H681.535V105.037H692.555V109.257C695.982 106.197 699.715 104.364 703.755 103.757H704.575C712.775 103.757 718.558 107.184 721.925 114.037Z" fill="white"/>
<path d="M285.375 79H234.875V177H285.375V79Z" stroke="white" stroke-width="2" stroke-dasharray="5 5"/>
<path d="M332.875 79H287.375V177H332.875V79Z" stroke="white" stroke-width="2" stroke-dasharray="5 5"/>
<path d="M390.375 79H334.875V177H390.375V79Z" stroke="white" stroke-width="2" stroke-dasharray="5 5"/>
<path d="M444.875 79H392.375V177H444.875V79Z" stroke="white" stroke-width="2" stroke-dasharray="5 5"/>
<path d="M500.875 79H446.875V177H500.875V79Z" stroke="white" stroke-width="2" stroke-dasharray="5 5"/>
<path d="M525.875 79H502.875V177H525.875V79Z" stroke="white" stroke-width="2" stroke-dasharray="5 5"/>
<path d="M617.375 79H527.875V177H617.375V79Z" stroke="white" stroke-width="2" stroke-dasharray="5 5"/>
<path d="M672.875 79H619.375V177H672.875V79Z" stroke="white" stroke-width="2" stroke-dasharray="5 5"/>
<path d="M728.875 79H674.875V177H728.875V79Z" stroke="white" stroke-width="2" stroke-dasharray="5 5"/>
<path d="M136.748 460.859C149.381 460.552 159.661 464.409 167.588 472.429L167.218 472.789L165.388 474.259L165.018 474.809L164.468 475.359L163.738 475.729L163.178 476.279L162.628 476.829L162.268 477.379L161.528 477.749C161.101 478.329 160.734 478.759 160.428 479.039L159.328 479.769L159.148 480.139L158.778 480.319C158.131 481.119 157.518 481.732 156.938 482.159C149.231 475.852 141.278 473.832 133.078 476.099C132.618 476.526 132.128 476.832 131.608 477.019C130.934 477.719 130.321 478.269 129.768 478.669L129.588 479.039L128.668 481.239C128.728 483.686 129.524 485.642 131.058 487.109L134.178 488.219L137.108 488.769C138.028 489.076 138.824 489.259 139.498 489.319L140.238 489.499L140.968 489.689L141.698 489.869L142.438 490.049L143.358 490.419H143.908L144.638 490.599L145.558 490.969L146.288 491.149H146.838C147.544 491.429 148.158 491.612 148.678 491.699L150.148 492.069C150.728 492.342 151.218 492.526 151.618 492.619L152.168 492.809L154.558 493.719L154.918 494.089C156.111 494.642 157.091 495.256 157.858 495.929C158.071 496.049 158.194 496.169 158.228 496.289L158.588 496.479C159.141 496.872 159.571 497.239 159.878 497.579C160.644 498.159 161.258 498.709 161.718 499.229C166.184 505.442 167.284 511.869 165.018 518.509C162.598 525.302 158.314 529.769 152.168 531.909C133.041 537.782 117.434 534.049 105.348 520.709L105.898 519.979L106.638 519.609C106.851 519.336 107.094 519.152 107.368 519.059C107.861 518.419 108.411 517.992 109.018 517.779C109.238 517.499 109.484 517.312 109.758 517.219C109.971 516.946 110.214 516.762 110.488 516.669L110.858 516.119L111.408 515.759L111.778 515.389L112.328 515.019L112.878 514.839L113.248 514.289L113.608 514.099L113.978 513.739L114.348 513.549L114.718 513.369L117.288 511.169C125.394 519.122 134.451 521.996 144.458 519.789L145.008 519.429L145.558 519.239L145.738 518.879L148.498 517.039C148.924 515.999 149.351 515.142 149.778 514.469C150.144 511.136 149.104 508.506 146.658 506.579L145.928 506.389L145.378 506.029L144.638 505.839L143.168 505.469H142.618L141.888 505.289L141.518 505.109C140.384 504.922 139.404 504.676 138.578 504.369H138.028L137.478 504.189L136.008 503.819C134.481 503.639 133.198 503.332 132.158 502.899C120.191 501.339 113.581 495.099 112.328 484.179C112.601 470.379 120.741 462.606 136.748 460.859Z" fill="black"/>
<path d="M198.549 462.557C198.796 462.83 198.919 463.134 198.919 463.467V482.197H199.649H201.669H202.589H204.969H205.709H208.829H210.299H211.579V493.767H210.849H208.829H207.909H205.519H204.789H201.669H201.119H198.919V518.737L199.279 519.837C201.639 522.224 205.372 522.467 210.479 520.567L210.669 521.307L211.579 524.237L211.769 524.797L211.949 526.257L212.499 527.547V528.097C212.772 528.864 212.956 529.537 213.049 530.117L213.599 531.957C205.979 534.344 198.759 534.83 191.939 533.417C189.859 532.377 188.206 531.154 186.979 529.747C186.092 528.16 185.482 526.814 185.149 525.707V524.427C184.929 523.754 184.866 523.14 184.959 522.587V521.857V521.117V520.567V517.267V514.877V514.147V511.027V510.467V508.267V505.887V505.147V501.847V501.107V500.377V499.637V496.517V495.967V493.767H184.229H183.489H182.759H179.639H179.089H176.879V492.847V492.117V491.197V488.807V488.077V484.957V484.397V482.197H177.619H178.349H179.089H182.209H183.679H184.959V479.077V478.347V475.217V473.207V472.467V469.347V468.797V466.597L185.699 466.407L186.059 466.227L187.719 465.857C188.419 465.55 189.029 465.367 189.549 465.307L191.939 464.577L192.859 464.387L194.689 463.657C196.249 463.35 197.536 462.984 198.549 462.557Z" fill="black"/>
<path d="M239.257 480.919C247.644 480.365 254.62 482.445 260.187 487.159L260.377 487.529C260.864 488.142 261.23 488.752 261.477 489.359C262.117 490.312 262.544 491.169 262.757 491.929V492.669C263.124 493.862 263.307 494.902 263.307 495.789V513.779C263.187 516.812 263.31 519.322 263.677 521.309C265.177 522.869 266.89 523.849 268.817 524.249L268.447 524.799L268.087 525.719L267.717 526.449L267.537 526.999L267.347 527.549L266.987 528.099L266.247 529.939L265.877 530.489L265.697 531.039L265.517 531.589L265.327 531.959L264.047 534.709C258.6 534.742 254.5 533.029 251.747 529.569C246.514 534.769 240.027 536.055 232.287 533.429C225.154 531.469 220.99 527.122 219.797 520.389C219.857 510.509 224.51 504.755 233.757 503.129C234.244 502.822 234.73 502.639 235.217 502.579H235.767C235.954 502.459 236.14 502.399 236.327 502.399L236.877 502.219L240.177 501.669L241.647 501.479L242.197 501.299L245.317 501.109C246.97 500.869 248.317 500.809 249.357 500.929C249.817 494.109 246.084 491.782 238.157 493.949L237.607 494.139L236.137 494.319L234.857 494.869L234.307 495.059L232.467 495.609C231.52 496.249 230.664 496.675 229.897 496.889C228.857 497.689 227.817 498.239 226.777 498.539L225.487 496.159L225.127 495.969L224.937 495.419L224.577 495.059L224.387 494.509C223.594 493.589 223.044 492.729 222.737 491.929C222.25 491.475 221.944 490.989 221.817 490.469C221.024 489.702 220.534 488.905 220.347 488.079L220.717 487.899L221.267 487.529L221.637 487.339C222.464 486.792 223.197 486.365 223.837 486.059C224.33 485.719 224.82 485.535 225.307 485.509L225.677 485.139C226.81 484.619 227.787 484.252 228.607 484.039L228.977 483.669H229.527C230.107 483.302 230.597 483.059 230.997 482.939H231.547C232.374 482.512 233.17 482.265 233.937 482.199C235.617 481.499 237.207 481.132 238.707 481.099L239.257 480.919ZM248.807 511.029L248.077 511.209H247.517C246.784 511.422 246.174 511.545 245.687 511.579H245.137C244.95 511.699 244.767 511.759 244.587 511.759L243.847 511.949H243.297L242.567 512.129L241.467 512.309C241.28 512.435 241.097 512.499 240.917 512.499L240.177 512.679L239.627 512.859C237.914 513.292 236.567 513.722 235.587 514.149C234.3 515.862 233.934 517.635 234.487 519.469C237.547 523.755 241.954 524.492 247.707 521.679L249.177 519.469L249.357 518.739V518.009V517.449V516.539V515.989V515.249V514.699V511.029" fill="black"/>
<path d="M296.049 462.557C296.296 462.83 296.419 463.134 296.419 463.467V482.197H297.149H299.169H300.089H302.469H303.209H306.329H307.799H309.079V493.767H308.349H306.329H305.409H303.019H302.289H299.169H298.619H296.419V518.737L296.779 519.837C299.139 522.224 302.872 522.467 307.979 520.567L308.169 521.307L309.079 524.237L309.269 524.797L309.449 526.257L309.999 527.547V528.097C310.272 528.864 310.456 529.537 310.549 530.117L311.099 531.957C303.479 534.344 296.259 534.83 289.439 533.417C287.359 532.377 285.706 531.154 284.479 529.747C283.592 528.16 282.982 526.814 282.649 525.707V524.427C282.429 523.754 282.366 523.14 282.459 522.587V521.857V521.117V520.567V517.267V514.877V514.147V511.027V510.467V508.267V505.887V505.147V501.847V501.107V500.377V499.637V496.517V495.967V493.767H281.729H280.989H280.259H277.139H276.589H274.379V492.847V492.117V491.197V488.807V488.077V484.957V484.397V482.197H275.119H275.849H276.589H279.709H281.179H282.459V479.077V478.347V475.217V473.207V472.467V469.347V468.797V466.597L283.199 466.407L283.559 466.227L285.219 465.857C285.919 465.55 286.529 465.367 287.049 465.307L289.439 464.577L290.359 464.387L292.189 463.657C293.749 463.35 295.036 462.984 296.049 462.557Z" fill="black"/>
<path d="M324.177 462.223C329.23 462.129 332.353 464.333 333.547 468.833C333.633 472.293 332.47 474.986 330.057 476.913C324.517 479.113 320.6 477.766 318.307 472.873C317.08 467.366 319.037 463.816 324.177 462.223ZM318.857 482.783H321.977H322.707H323.627H326.017H326.747H329.867H331.337H332.627V532.903H330.057H328.037H327.117H326.567H325.837H325.277H321.607H321.057H318.857V532.353V531.433V530.883V530.153V529.603V525.933V524.643V523.913V522.993V522.253V521.343V518.953V518.223V515.093V514.543V512.343V511.063V509.773V508.673V507.383V506.283V505.003V503.903V500.773V499.673V498.753V497.653V496.923V493.613V491.593V490.863V490.133V489.393V488.663V485.543V484.993" fill="black"/>
<path d="M365.386 480.572C377.446 480.479 385.526 485.496 389.626 495.622C390.052 496.176 390.356 496.729 390.536 497.282C393.169 507.929 391.886 517.292 386.686 525.372C379.372 533.786 370.682 536.539 360.616 533.632C350.029 530.019 344.276 522.492 343.356 511.052C342.436 493.546 349.779 483.386 365.386 480.572ZM366.126 492.872C359.452 495.746 356.512 500.886 357.306 508.292C357.126 516.159 360.369 520.809 367.036 522.242C375.056 521.696 378.669 515.822 377.876 504.622C376.922 496.882 373.006 492.966 366.126 492.872Z" fill="black"/>
<path d="M428.737 481.407C437.124 481.133 443.671 484.56 448.377 491.687L448.567 492.247L448.747 492.797L448.927 493.347C449.234 493.867 449.421 494.357 449.487 494.817L450.217 497.017V497.567C450.644 499.767 450.827 501.54 450.767 502.887V532.817H447.097H446.177H445.627H444.897H444.157H443.427H442.687H439.567H439.017H436.817V532.267V531.347V530.797V530.067V529.517V525.837V523.267V521.247V520.337V519.777V519.047V518.497V514.827V514.087V512.067V510.237V506.927V506.377V505.827V505.097V501.787V501.057C436.511 500.29 436.327 499.617 436.267 499.037C434.794 496.463 432.834 494.81 430.387 494.077C425.307 493.957 421.574 495.917 419.187 499.957L418.827 501.237V532.817H415.147H414.237H413.677H412.947H412.217H411.477H410.747H407.627H407.077H404.867V532.267V531.347V530.797V530.067V529.517V525.837V524.557V523.817V522.907V522.167V521.247V518.867V518.127V515.007V514.457V512.257V510.967V509.687V508.587V507.297V506.197V504.907V503.807V500.687V499.587V498.667V497.567V496.837V493.527V491.507V490.777V490.037V489.307V488.567V485.447V484.897V482.697H408.537H409.457H410.007H410.747H411.477H412.217H412.947H416.067H416.617H418.827C418.761 483.95 418.821 484.99 419.007 485.817C422.067 483.397 425.311 481.927 428.737 481.407Z" fill="black"/>
<path d="M172.625 458.75H101.625V556.75H172.625V458.75Z" stroke="black" stroke-width="2" stroke-dasharray="5 5"/>
<path d="M214.625 458.75H174.625V556.75H214.625V458.75Z" stroke="black" stroke-width="2" stroke-dasharray="5 5"/>
<path d="M270.125 458.75H216.625V556.75H270.125V458.75Z" stroke="black" stroke-width="2" stroke-dasharray="5 5"/>
<path d="M312.125 458.75H272.125V556.75H312.125V458.75Z" stroke="black" stroke-width="2" stroke-dasharray="5 5"/>
<path d="M339.625 458.75H314.125V556.75H339.625V458.75Z" stroke="black" stroke-width="2" stroke-dasharray="5 5"/>
<path d="M397.125 458.75H341.625V556.75H397.125V458.75Z" stroke="black" stroke-width="2" stroke-dasharray="5 5"/>
<path d="M456.625 458.75H399.125V556.75H456.625V458.75Z" stroke="black" stroke-width="2" stroke-dasharray="5 5"/>
<path d="M120.375 608.265V597.235H219.825V608.265H120.375ZM165.715 604.215L176.395 601.625C178.802 610.479 182.048 618.729 186.135 626.375C190.222 634.029 195.245 640.722 201.205 646.455C207.172 652.195 214.092 656.715 221.965 660.015C221.065 660.762 220.108 661.735 219.095 662.935C218.082 664.135 217.125 665.355 216.225 666.595C215.325 667.835 214.575 668.942 213.975 669.915C205.648 666.015 198.392 660.859 192.205 654.445C186.018 648.032 180.788 640.589 176.515 632.115C172.242 623.642 168.642 614.342 165.715 604.215ZM164.025 565.855H175.615C175.615 571.175 175.482 576.892 175.215 583.005C174.955 589.119 174.375 595.402 173.475 601.855C172.575 608.302 171.112 614.752 169.085 621.205C167.065 627.652 164.252 633.875 160.645 639.875C157.052 645.875 152.442 651.445 146.815 656.585C141.188 661.719 134.325 666.199 126.225 670.025C125.325 668.599 124.125 667.042 122.625 665.355C121.125 663.669 119.625 662.262 118.125 661.135C125.925 657.615 132.505 653.509 137.865 648.815C143.232 644.129 147.582 639.029 150.915 633.515C154.255 628.009 156.825 622.292 158.625 616.365C160.425 610.439 161.702 604.512 162.455 598.585C163.202 592.665 163.652 586.929 163.805 581.375C163.952 575.829 164.025 570.655 164.025 565.855Z" fill="black"/>
<path d="M275.767 603.878V597.808H339.107V603.878H275.767ZM276.327 646.408V640.218H339.217V646.408H276.327ZM307.037 653.828V622.668H316.607V653.828H307.037ZM322.567 612.878H291.857V619.068H322.567V612.878ZM282.857 624.128V607.588H332.017V624.128H282.857ZM298.827 580.478L307.717 581.608C306.891 584.681 305.951 587.941 304.897 591.388C303.851 594.841 302.877 597.804 301.977 600.278H292.637C293.691 597.578 294.777 594.391 295.897 590.718C297.024 587.044 298.001 583.631 298.827 580.478ZM282.287 592.288V586.558H329.427V601.068H320.537V592.288H282.287ZM259.787 670.368V570.468H354.967V670.368H344.507V580.138H269.917V670.368H259.787ZM266.207 665.868V656.188H350.127V665.868H266.207ZM284.207 644.608V628.288H334.377V634.368H292.527V644.608" fill="black"/>
<path d="M395.935 597.473V587.573H439.365V597.473H395.935ZM412.925 592.523V567.323H422.935V592.523H412.925ZM465.575 598.143V588.023H498.085V598.143H465.575ZM446.445 664.863V654.843H488.075V664.863H446.445ZM460.285 623.683V565.743H471.195V623.683H460.285ZM441.725 670.143V619.293H493.695V669.693H482.785V629.193H452.075V670.143H441.725ZM395.825 658.783L393.575 648.093C397.475 647.419 401.935 646.559 406.955 645.513C411.982 644.459 417.328 643.313 422.995 642.073C428.655 640.839 434.262 639.623 439.815 638.423L440.935 648.213C435.688 649.486 430.402 650.759 425.075 652.033C419.748 653.306 414.592 654.506 409.605 655.633C404.618 656.759 400.025 657.809 395.825 658.783ZM399.535 603.213L408.195 601.523C409.175 605.649 410.018 610.036 410.725 614.683C411.438 619.336 412.002 623.873 412.415 628.293C412.828 632.719 413.072 636.696 413.145 640.223L403.925 641.913C403.925 638.386 403.735 634.409 403.355 629.983C402.982 625.556 402.478 620.999 401.845 616.313C401.205 611.626 400.435 607.259 399.535 603.213ZM425.295 600.393L435.765 602.193C435.165 606.919 434.452 611.889 433.625 617.103C432.798 622.316 431.935 627.303 431.035 632.063C430.135 636.829 429.272 641.049 428.445 644.723L419.565 642.813C420.158 640.033 420.738 636.883 421.305 633.363C421.865 629.836 422.408 626.139 422.935 622.273C423.462 618.413 423.932 614.609 424.345 610.863C424.758 607.109 425.075 603.619 425.295 600.393Z" fill="black"/>
<path d="M237.125 558.75H101.625V699.25H237.125V558.75Z" stroke="black" stroke-width="2" stroke-dasharray="5 5"/>
<path d="M374.625 558.75H239.125V699.25H374.625V558.75Z" stroke="black" stroke-width="2" stroke-dasharray="5 5"/>
<path d="M512.125 558.75H376.625V699.25H512.125V558.75Z" stroke="black" stroke-width="2" stroke-dasharray="5 5"/>
<path d="M102.078 362.373H102.818H103.548H104.098H104.838H108.138H108.878H112.178H113.278H114.568H118.238H119.708H121.178H122.648H124.108H127.788H128.338H128.888H134.578H135.858H136.968H138.248H139.348H140.268H141.368H142.108H145.408H147.428H148.168H148.898H149.628H150.368H153.488H154.038H156.238V376.333H155.138H154.588H150.918H148.528H147.798H144.488H143.758H143.018H142.288H139.168H138.618H136.418V432.693H134.028H133.288H129.988H129.258H128.518H127.788H124.668H124.108H121.908V431.403V430.853V429.943V429.393V428.653V428.103V424.433V423.693V420.393V419.293V418.003V414.333V412.863V411.393V409.923V408.463V404.783V404.233V403.683V397.993V396.713V395.603V394.323V393.223V392.303V391.203V390.463V387.163V385.143V384.403V383.673V382.943V382.203V379.083V378.533V376.333H120.808H120.258H116.588H114.198H113.468H110.158H109.428H108.688H107.958H104.838H104.288H102.078V372.653V371.743V371.193V370.453V369.723V368.983V368.253V365.133V364.583" fill="black"/>
<path d="M179.007 380.919C187.394 380.365 194.37 382.445 199.937 387.159L200.127 387.529C200.614 388.142 200.98 388.752 201.227 389.359C201.867 390.312 202.294 391.169 202.507 391.929V392.669C202.874 393.862 203.057 394.902 203.057 395.789V413.779C202.937 416.812 203.06 419.322 203.427 421.309C204.927 422.869 206.64 423.849 208.567 424.249L208.197 424.799L207.837 425.719L207.467 426.449L207.287 426.999L207.097 427.549L206.737 428.099L205.997 429.939L205.627 430.489L205.447 431.039L205.267 431.589L205.077 431.959L203.797 434.709C198.35 434.742 194.25 433.029 191.497 429.569C186.264 434.769 179.777 436.055 172.037 433.429C164.904 431.469 160.74 427.122 159.547 420.389C159.607 410.509 164.26 404.755 173.507 403.129C173.994 402.822 174.48 402.639 174.967 402.579H175.517C175.704 402.459 175.89 402.399 176.077 402.399L176.627 402.219L179.927 401.669L181.397 401.479L181.947 401.299L185.067 401.109C186.72 400.869 188.067 400.809 189.107 400.929C189.567 394.109 185.834 391.782 177.907 393.949L177.357 394.139L175.887 394.319L174.607 394.869L174.057 395.059L172.217 395.609C171.27 396.249 170.414 396.675 169.647 396.889C168.607 397.689 167.567 398.239 166.527 398.539L165.237 396.159L164.877 395.969L164.687 395.419L164.327 395.059L164.137 394.509C163.344 393.589 162.794 392.729 162.487 391.929C162 391.475 161.694 390.989 161.567 390.469C160.774 389.702 160.284 388.905 160.097 388.079L160.467 387.899L161.017 387.529L161.387 387.339C162.214 386.792 162.947 386.365 163.587 386.059C164.08 385.719 164.57 385.535 165.057 385.509L165.427 385.139C166.56 384.619 167.537 384.252 168.357 384.039L168.727 383.669H169.277C169.857 383.302 170.347 383.059 170.747 382.939H171.297C172.124 382.512 172.92 382.265 173.687 382.199C175.367 381.499 176.957 381.132 178.457 381.099L179.007 380.919ZM188.557 411.029L187.827 411.209H187.267C186.534 411.422 185.924 411.545 185.437 411.579H184.887C184.7 411.699 184.517 411.759 184.337 411.759L183.597 411.949H183.047L182.317 412.129L181.217 412.309C181.03 412.435 180.847 412.499 180.667 412.499L179.927 412.679L179.377 412.859C177.664 413.292 176.317 413.722 175.337 414.149C174.05 415.862 173.684 417.635 174.237 419.469C177.297 423.755 181.704 424.492 187.457 421.679L188.927 419.469L189.107 418.739V418.009V417.449V416.539V415.989V415.249V414.699V411.029" fill="black"/>
<path d="M220.176 362.223C225.23 362.129 228.353 364.333 229.546 368.833C229.633 372.293 228.47 374.986 226.056 376.913C220.516 379.113 216.6 377.766 214.306 372.873C213.08 367.366 215.036 363.816 220.176 362.223ZM214.856 382.783H217.976H218.706H219.626H222.016H222.746H225.866H227.336H228.626V432.903H226.056H224.036H223.116H222.566H221.836H221.276H217.606H217.056H214.856V432.353V431.433V430.883V430.153V429.603V425.933V424.643V423.913V422.993V422.253V421.343V418.953V418.223V415.093V414.543V412.343V411.063V409.773V408.673V407.383V406.283V405.003V403.903V400.773V399.673V398.753V397.653V396.923V393.613V391.593V390.863V390.133V389.393V388.663V385.543V384.993" fill="black"/>
<path d="M267.266 362.83H268.186H269.286H270.206H270.756H271.676H272.406H272.956H273.876H274.796H275.346H277.546H278.096C279.749 362.736 281.159 362.796 282.326 363.01V363.56L283.056 366.69L283.236 367.79C283.362 367.97 283.426 368.153 283.426 368.34L283.606 368.89L283.786 369.26L283.976 370.17L284.526 373.11L284.706 373.48V374.03C285.166 375.13 285.412 376.17 285.446 377.15L285.806 378.25V378.8C286.266 379.906 286.512 380.946 286.546 381.92L286.916 382.84L287.096 383.76L287.276 384.86C287.829 386.513 288.136 387.92 288.196 389.08C288.596 390.033 288.839 390.89 288.926 391.65C289.112 392.416 289.236 393.09 289.296 393.67C289.756 394.803 290.002 395.846 290.036 396.8C290.309 397.5 290.492 398.11 290.586 398.63C290.766 399.396 290.886 400.07 290.946 400.65C291.346 401.81 291.592 402.79 291.686 403.59L291.866 404.51L292.416 406.34L292.606 407.63L293.336 410.2L293.516 409.28L293.706 408.73V408.18L293.886 407.63C294.099 406.31 294.346 405.206 294.626 404.32V403.59L294.806 403.04L295.356 400.65V400.1L295.536 399.37L295.726 398.81L295.906 398.26V397.71L296.276 396.43V395.88C296.456 395.173 296.579 394.56 296.646 394.04C296.859 393.426 296.979 392.876 297.006 392.39C297.406 390.95 297.652 389.726 297.746 388.72L297.926 387.8L298.106 387.25L299.216 381.92L299.396 381.01L299.576 380.46C299.729 379.506 299.912 378.71 300.126 378.07V377.52L300.496 376.05L301.236 372.38L301.416 372.01L301.786 369.81L301.966 369.26V368.71L302.516 366.87C302.636 365.71 302.819 364.73 303.066 363.93L303.256 362.83H304.166H305.266H306.006H309.306H311.326H312.066H312.796H313.536H314.266H317.386H317.936H320.146L320.326 364.12L320.696 365.4V366.14C321.149 367.82 321.452 369.226 321.606 370.36L322.166 372.93L322.716 375.13L322.896 376.05L323.076 377.33L323.266 378.44L323.446 379.54L323.816 380.46L323.996 381.56L324.176 382.48V383.03C324.302 383.21 324.366 383.393 324.366 383.58C324.612 384.313 324.736 384.986 324.736 385.6C324.856 385.78 324.916 385.963 324.916 386.15L325.096 386.51V387.06L325.466 388.53L325.836 390.74L326.196 391.84L326.386 392.94V393.49L326.756 394.96L326.936 396.06C327.302 397.04 327.486 397.956 327.486 398.81L327.666 399.55C328.006 400.47 328.189 401.266 328.216 401.94L328.406 402.49L328.586 403.96L328.956 405.42L329.136 406.53C329.629 407.936 329.876 409.16 329.876 410.2L330.426 409.1V408.36L330.786 406.89L330.976 406.34L331.156 405.79C331.276 404.783 331.459 403.926 331.706 403.22L332.076 401.75L332.256 400.65L332.446 400.28L332.626 399L333.356 396.43L333.546 395.14L333.916 393.86L334.096 392.57L334.466 391.29L334.646 390.55L335.016 389.08L336.116 384.49L336.296 383.39L336.666 381.92L337.036 380.64L337.216 379.54L337.586 378.44L337.766 377.7V376.97L337.946 376.23L338.136 375.68L338.316 375.31L338.686 373.11L339.056 371.64L339.416 370.36V369.81L339.606 369.26L339.786 368.71V368.15L340.156 366.87L340.336 366.32V365.77C340.762 364.636 341.009 363.656 341.076 362.83H341.806H345.106H347.126H347.866H348.596H349.336H350.066H353.186H353.736H355.946V363.38L355.756 364.48L355.206 365.95L355.026 367.24L354.476 369.81L354.286 370.36C354.012 371.766 353.709 372.93 353.376 373.85C353.342 374.55 353.219 375.16 353.006 375.68L351.906 380.46L351.716 381.01V381.56L351.536 382.66L351.166 384.13C350.859 384.983 350.676 385.716 350.616 386.33L350.436 386.7L350.256 387.98C349.949 388.993 349.762 389.85 349.696 390.55C349.422 391.256 349.239 391.87 349.146 392.39L348.966 393.12L348.786 393.67C348.752 394.376 348.629 394.99 348.416 395.51L348.236 396.61L348.046 397.35L347.866 397.71L347.676 399L346.946 401.57L346.396 404.69L346.026 406.16L345.666 407.44L345.476 408.55L345.296 409.28L345.106 409.83L344.926 410.2L344.556 412.4L344.006 414.79L343.826 415.34C343.579 416.78 343.272 417.943 342.906 418.83V419.56C342.599 420.48 342.416 421.276 342.356 421.95L342.176 422.5L341.986 423.05L341.626 424.52L341.436 425.8L340.706 428.37L340.516 429.66L339.786 432.96H338.686H338.136H334.466H333.546H332.996H332.076H331.336H330.786H329.876H328.956H328.406H326.196H325.646C323.992 433.053 322.586 432.993 321.426 432.78V432.23L321.246 431.86V431.31L321.056 430.76L320.696 428.56L319.776 424.33L319.586 423.05C319.099 421.363 318.796 419.956 318.676 418.83L318.306 417.36L317.936 415.89L317.756 414.6L317.576 413.32L317.206 412.22V411.48L316.656 409.28V408.73C316.136 407.043 315.829 405.636 315.736 404.51L315.366 403.4V402.49C315.246 402.303 315.186 402.12 315.186 401.94L315.006 401.57L314.266 397.53L314.086 396.8L313.536 393.86L313.166 392.39L312.986 391.65V390.92L312.796 390.19L312.426 388.9V388.35L312.066 386.88L311.696 385.6L311.516 386.15L311.326 387.25L311.146 387.98L310.966 389.08L310.226 392.57L309.856 393.86V394.41L309.126 397.35L308.946 398.81L308.576 400.28L308.206 401.75L308.026 403.22L307.656 404.69L307.286 406.89C306.859 408.27 306.616 409.433 306.556 410.38L306.186 411.48L306.006 412.4V412.95C305.792 413.656 305.669 414.27 305.636 414.79C305.422 415.403 305.299 415.953 305.266 416.44L304.906 417.36L304.536 419.93L304.356 420.85L304.166 421.58L303.436 424.89L302.886 427.46L302.696 428.56L302.336 430.03L301.786 432.96H300.676H300.126H296.456H295.536H294.986H294.076H293.336H292.786H291.866H290.946H290.396H288.196H287.646C285.992 433.053 284.586 432.993 283.426 432.78L283.236 431.31C282.689 429.656 282.386 428.25 282.326 427.09C282.139 426.63 282.016 426.2 281.956 425.8L281.586 424.33L281.216 422.87L280.856 421.58L280.666 420.11L280.486 419.38C280.119 418.366 279.936 417.51 279.936 416.81L279.756 416.07L278.836 412.95V412.22C278.376 410.993 278.129 409.89 278.096 408.91C277.636 407.81 277.392 406.833 277.366 405.98L276.996 404.87L276.816 403.4C276.689 403.22 276.626 403.036 276.626 402.85L275.716 399.18L275.346 397.71V397.16C274.979 396.273 274.796 395.48 274.796 394.78C274.609 394.32 274.486 393.89 274.426 393.49L274.056 392.21L273.876 390.92C273.542 390 273.359 389.203 273.326 388.53C272.772 386.943 272.466 385.596 272.406 384.49L272.036 383.58L271.856 382.66L271.676 381.56L271.486 380.64C271.366 380.3 271.306 379.993 271.306 379.72L270.936 378.99L270.386 376.05C270.079 375.13 269.896 374.333 269.836 373.66C269.562 372.96 269.439 372.35 269.466 371.83C268.919 370.39 268.616 369.103 268.556 367.97C268.249 367.236 268.066 366.563 268.006 365.95L267.816 365.4V364.85C267.509 364.116 267.326 363.443 267.266 362.83Z" fill="black"/>
<path d="M381.757 380.919C390.144 380.365 397.12 382.445 402.687 387.159L402.877 387.529C403.364 388.142 403.73 388.752 403.977 389.359C404.617 390.312 405.044 391.169 405.257 391.929V392.669C405.624 393.862 405.807 394.902 405.807 395.789V413.779C405.687 416.812 405.81 419.322 406.177 421.309C407.677 422.869 409.39 423.849 411.317 424.249L410.947 424.799L410.587 425.719L410.217 426.449L410.037 426.999L409.847 427.549L409.487 428.099L408.747 429.939L408.377 430.489L408.197 431.039L408.017 431.589L407.827 431.959L406.547 434.709C401.1 434.742 397 433.029 394.247 429.569C389.014 434.769 382.527 436.055 374.787 433.429C367.654 431.469 363.49 427.122 362.297 420.389C362.357 410.509 367.01 404.755 376.257 403.129C376.744 402.822 377.23 402.639 377.717 402.579H378.267C378.454 402.459 378.64 402.399 378.827 402.399L379.377 402.219L382.677 401.669L384.147 401.479L384.697 401.299L387.817 401.109C389.47 400.869 390.817 400.809 391.857 400.929C392.317 394.109 388.584 391.782 380.657 393.949L380.107 394.139L378.637 394.319L377.357 394.869L376.807 395.059L374.967 395.609C374.02 396.249 373.164 396.675 372.397 396.889C371.357 397.689 370.317 398.239 369.277 398.539L367.987 396.159L367.627 395.969L367.437 395.419L367.077 395.059L366.887 394.509C366.094 393.589 365.544 392.729 365.237 391.929C364.75 391.475 364.444 390.989 364.317 390.469C363.524 389.702 363.034 388.905 362.847 388.079L363.217 387.899L363.767 387.529L364.137 387.339C364.964 386.792 365.697 386.365 366.337 386.059C366.83 385.719 367.32 385.535 367.807 385.509L368.177 385.139C369.31 384.619 370.287 384.252 371.107 384.039L371.477 383.669H372.027C372.607 383.302 373.097 383.059 373.497 382.939H374.047C374.874 382.512 375.67 382.265 376.437 382.199C378.117 381.499 379.707 381.132 381.207 381.099L381.757 380.919ZM391.307 411.029L390.577 411.209H390.017C389.284 411.422 388.674 411.545 388.187 411.579H387.637C387.45 411.699 387.267 411.759 387.087 411.759L386.347 411.949H385.797L385.067 412.129L383.967 412.309C383.78 412.435 383.597 412.499 383.417 412.499L382.677 412.679L382.127 412.859C380.414 413.292 379.067 413.722 378.087 414.149C376.8 415.862 376.434 417.635 376.987 419.469C380.047 423.755 384.454 424.492 390.207 421.679L391.677 419.469L391.857 418.739V418.009V417.449V416.539V415.989V415.249V414.699V411.029" fill="black"/>
<path d="M424.677 362.223C429.73 362.129 432.853 364.333 434.047 368.833C434.133 372.293 432.97 374.986 430.557 376.913C425.017 379.113 421.1 377.766 418.807 372.873C417.58 367.366 419.537 363.816 424.677 362.223ZM419.357 382.783H422.477H423.207H424.127H426.517H427.247H430.367H431.837H433.127V432.903H430.557H428.537H427.617H427.067H426.337H425.777H422.107H421.557H419.357V432.353V431.433V430.883V430.153V429.603V425.933V424.643V423.913V422.993V422.253V421.343V418.953V418.223V415.093V414.543V412.343V411.063V409.773V408.673V407.383V406.283V405.003V403.903V400.773V399.673V398.753V397.653V396.923V393.613V391.593V390.863V390.133V389.393V388.663V385.543V384.993" fill="black"/>
<path d="M156.125 358.75H101.625V456.75H156.125V358.75Z" stroke="black" stroke-width="2" stroke-dasharray="5 5"/>
<path d="M208.125 358.75H158.125V456.75H208.125V358.75Z" stroke="black" stroke-width="2" stroke-dasharray="5 5"/>
<path d="M235.625 358.75H210.125V456.75H235.625V358.75Z" stroke="black" stroke-width="2" stroke-dasharray="5 5"/>
<path d="M260.625 358.75H237.625V456.75H260.625V358.75Z" stroke="black" stroke-width="2" stroke-dasharray="5 5"/>
<path d="M357.125 358.75H262.625V456.75H357.125V358.75Z" stroke="black" stroke-width="2" stroke-dasharray="5 5"/>
<path d="M412.625 358.75H359.125V456.75H412.625V358.75Z" stroke="black" stroke-width="2" stroke-dasharray="5 5"/>
<path d="M440.125 358.75H414.625V456.75H440.125V358.75Z" stroke="black" stroke-width="2" stroke-dasharray="5 5"/>
<path d="M944.125 207.5H962.875V107.5H925.375V207.5H944.125ZM944.125 357.5H962.875V257.5H925.375V357.5H944.125ZM944.125 507.5H962.875V407.5H925.375V507.5H944.125ZM944.125 657.5H962.875V557.5H925.375V657.5H944.125ZM944.125 807.5H962.875V707.5H925.375V807.5H944.125ZM944.125 957.5H962.875V857.5H925.375V957.5H944.125Z" fill="white"/>
<path d="M388.537 249.665V240.555H441.527V249.665H388.537ZM381.677 267.775V258.885H448.947V267.775H381.677ZM366.257 286.675V277.455H464.137V286.675H366.257ZM380.097 224.575V216.025H419.247V224.575H380.097ZM410.137 221.765V216.025H421.727C424.127 219.099 427.034 222.079 430.447 224.965C433.861 227.859 437.627 230.542 441.747 233.015C445.874 235.489 450.187 237.702 454.687 239.655C459.187 241.602 463.724 243.252 468.297 244.605C467.477 245.205 466.541 245.992 465.487 246.965C464.441 247.939 463.427 248.952 462.447 250.005C461.474 251.052 460.687 252.025 460.087 252.925C454.087 250.752 448.164 248.052 442.317 244.825C436.464 241.599 431.044 238.019 426.057 234.085C421.071 230.145 416.777 226.039 413.177 221.765H410.137ZM407.667 217.155L417.337 220.865C413.664 225.812 409.201 230.385 403.947 234.585C398.701 238.785 393.094 242.499 387.127 245.725C381.167 248.952 375.151 251.765 369.077 254.165C368.551 253.412 367.837 252.512 366.937 251.465C366.037 250.412 365.101 249.379 364.127 248.365C363.154 247.359 362.291 246.555 361.537 245.955C367.691 244.075 373.691 241.712 379.537 238.865C385.391 236.012 390.734 232.749 395.567 229.075C400.407 225.402 404.441 221.429 407.667 217.155ZM409.467 283.865V244.715H420.377V283.865H409.467ZM365.477 204.435V194.655H464.927V204.435H365.477ZM389.437 213.775V186.105H400.017V213.775H389.437ZM429.717 214.335V186.105H440.287V214.335" fill="white"/>
<path d="M551.802 193.868V188.358H571.482V193.868H551.802ZM551.122 212.208V206.808H572.273V212.208H551.122ZM551.122 220.638V215.358H572.273V220.638H551.122ZM534.702 273.968V267.108H591.733V273.968H534.702ZM547.862 203.318V197.358H574.862V203.318H547.862ZM565.522 229.528H557.532V235.938H565.522V229.528ZM550.892 241.118V224.358H572.383V241.118H550.892ZM536.612 262.378V255.968H583.292V251.128H529.632V244.718H593.203V262.378H536.612ZM532.782 242.688V217.158H539.872V242.688H532.782ZM522.552 221.088L521.762 214.228C525.062 214.081 528.756 213.931 532.842 213.778C536.929 213.631 541.259 213.444 545.832 213.218V219.408C541.632 219.781 537.566 220.081 533.632 220.308C529.692 220.528 525.999 220.788 522.552 221.088ZM533.572 255.968H543.472C542.572 259.568 541.599 263.318 540.552 267.218C539.499 271.118 538.522 274.491 537.622 277.338L528.062 275.988C529.109 273.214 530.122 270.008 531.102 266.368C532.076 262.734 532.899 259.268 533.572 255.968ZM588.362 268.228V267.108H598.373C598.373 267.108 598.336 267.611 598.263 268.618C598.189 269.631 598.039 270.478 597.813 271.158C596.759 275.804 595.669 279.458 594.542 282.118C593.422 284.784 592.112 286.718 590.612 287.918C589.339 288.818 587.969 289.434 586.502 289.768C585.042 290.108 583.299 290.314 581.273 290.388C579.546 290.468 577.089 290.488 573.902 290.448C570.716 290.408 567.322 290.314 563.722 290.168C563.649 288.968 563.349 287.618 562.822 286.118C562.296 284.618 561.659 283.268 560.912 282.068C564.439 282.441 567.852 282.664 571.152 282.738C574.452 282.818 576.776 282.858 578.122 282.858C579.322 282.858 580.296 282.818 581.042 282.738C581.796 282.664 582.436 282.441 582.962 282.068C584.009 281.241 584.966 279.758 585.832 277.618C586.692 275.484 587.536 272.354 588.362 268.228ZM541.222 225.138L546.622 223.908C547.222 225.781 547.802 227.841 548.362 230.088C548.929 232.341 549.362 234.291 549.662 235.938L543.812 237.518C543.659 235.791 543.339 233.784 542.852 231.498C542.366 229.211 541.822 227.091 541.222 225.138ZM540.882 209.838L545.722 208.038C546.696 209.918 547.596 212.018 548.422 214.338C549.249 216.664 549.812 218.691 550.112 220.418L544.822 222.438C544.596 220.718 544.109 218.694 543.362 216.368C542.609 214.041 541.782 211.864 540.882 209.838ZM522.882 200.958L526.482 195.558C528.662 196.978 530.799 198.608 532.892 200.448C534.999 202.288 536.576 203.881 537.622 205.228L533.572 211.418C532.446 209.844 530.872 208.081 528.852 206.128C526.826 204.181 524.836 202.458 522.882 200.958ZM533.572 185.768L539.982 188.918C538.482 191.391 536.982 193.904 535.482 196.458C533.982 199.004 532.559 201.141 531.212 202.868L526.262 200.278C527.462 198.331 528.776 195.951 530.202 193.138C531.622 190.324 532.746 187.868 533.572 185.768ZM540.772 195.108L547.072 198.708C544.599 202.081 541.956 205.641 539.142 209.388C536.329 213.141 533.686 216.291 531.212 218.838L526.482 215.918C528.062 214.044 529.752 211.908 531.552 209.508C533.352 207.108 535.056 204.631 536.662 202.078C538.276 199.531 539.646 197.208 540.772 195.108ZM525.362 223.458L532.002 224.918C531.322 227.844 530.496 230.768 529.522 233.688C528.549 236.614 527.499 239.128 526.372 241.228C525.699 240.781 524.722 240.274 523.442 239.708C522.169 239.148 521.122 238.681 520.302 238.308C521.576 236.208 522.622 233.861 523.442 231.268C524.269 228.681 524.909 226.078 525.362 223.458ZM584.762 242.688V217.158H591.962V242.688H584.762ZM574.412 221.088L573.732 214.228C577.186 214.081 581.069 213.931 585.383 213.778C589.696 213.631 594.289 213.481 599.163 213.328L599.043 219.518C594.622 219.818 590.329 220.098 586.163 220.358C582.003 220.624 578.086 220.868 574.412 221.088ZM593.533 225.138L599.273 223.458C600.246 225.704 601.202 228.178 602.142 230.878C603.076 233.578 603.733 235.904 604.113 237.858L598.153 239.768C597.853 237.814 597.253 235.451 596.353 232.678C595.453 229.904 594.513 227.391 593.533 225.138ZM592.633 209.618L597.923 207.258C599.196 209.204 600.376 211.358 601.462 213.718C602.556 216.084 603.326 218.168 603.773 219.968L598.033 222.558C597.659 220.758 596.966 218.638 595.953 216.198C594.939 213.758 593.833 211.564 592.633 209.618ZM573.962 200.728L577.783 195.668C579.736 197.014 581.686 198.571 583.633 200.338C585.586 202.098 587.086 203.691 588.133 205.118L583.752 210.968C582.772 209.468 581.366 207.741 579.533 205.788C577.693 203.841 575.836 202.154 573.962 200.728ZM584.983 185.878L591.402 189.138C589.822 191.618 588.246 194.111 586.673 196.618C585.099 199.131 583.599 201.288 582.173 203.088L577.222 200.508C578.496 198.554 579.883 196.171 581.383 193.358C582.883 190.544 584.083 188.051 584.983 185.878ZM592.972 194.658L599.273 198.258C596.726 201.631 593.953 205.191 590.953 208.938C587.953 212.691 585.102 215.841 582.402 218.388L577.783 215.468C579.509 213.594 581.309 211.458 583.182 209.058C585.062 206.658 586.862 204.181 588.582 201.628C590.309 199.081 591.772 196.758 592.972 194.658ZM577.222 223.458L583.752 225.028C583.226 227.801 582.476 230.631 581.502 233.518C580.522 236.411 579.473 238.868 578.353 240.888C577.753 240.514 576.852 240.008 575.652 239.368C574.452 238.734 573.402 238.231 572.502 237.858C573.696 235.758 574.669 233.468 575.423 230.988C576.169 228.514 576.769 226.004 577.222 223.458ZM500.722 194.538L506.912 187.568C508.786 188.541 510.752 189.721 512.812 191.108C514.879 192.494 516.812 193.881 518.612 195.268C520.412 196.661 521.876 197.994 523.002 199.268L516.582 207.138C515.536 205.864 514.129 204.478 512.362 202.978C510.602 201.478 508.709 199.998 506.682 198.538C504.662 197.071 502.676 195.738 500.722 194.538ZM498.362 224.578L504.212 217.268C506.159 218.168 508.202 219.274 510.342 220.588C512.482 221.901 514.469 223.211 516.302 224.518C518.142 225.831 519.662 227.088 520.862 228.288L514.672 236.388C513.546 235.188 512.066 233.878 510.232 232.458C508.392 231.031 506.422 229.624 504.322 228.238C502.222 226.851 500.236 225.631 498.362 224.578ZM510.172 289.158L500.612 283.758C502.039 280.758 503.556 277.268 505.162 273.288C506.776 269.314 508.426 265.114 510.112 260.688C511.806 256.268 513.362 251.918 514.782 247.638L523.222 253.038C522.022 257.018 520.672 261.108 519.172 265.308C517.672 269.508 516.172 273.631 514.672 277.678C513.172 281.731 511.672 285.558 510.172 289.158Z" fill="white"/>
<path d="M480.875 179H345.375V319.5H480.875V179Z" stroke="white" stroke-width="2" stroke-dasharray="5 5"/>
<path d="M618.375 179H482.875V319.5H618.375V179Z" stroke="white" stroke-width="2" stroke-dasharray="5 5"/>
<path d="M481.875 750L531.875 800V850L498.542 816.667V950H465.208V816.667L431.875 850V800L481.875 750Z" fill="white"/>
<path d="M481.875 319H597.087" stroke="#FF0000" stroke-width="3.03189"/>
<path d="M481.875 326.5H597.087" stroke="#FF0000" stroke-width="3.03189"/>
<path d="M572.832 320.5V326.5" stroke="#FF0000" stroke-width="3.03189"/>
<path d="M572.832 320.5L563.736 356.883H581.927L572.832 320.5Z" fill="#FF0000"/>
<path d="M572.832 326.5L563.736 290.117H581.927L572.832 326.5Z" fill="#FF0000"/>
<path d="M612.264 357.362C610.317 357.362 608.659 356.832 607.289 355.773C605.92 354.705 604.873 353.158 604.15 351.134C603.426 349.102 603.065 346.647 603.065 343.77C603.065 340.91 603.426 338.468 604.15 336.444C604.882 334.412 605.933 332.861 607.302 331.793C608.68 330.716 610.334 330.178 612.264 330.178C614.193 330.178 615.842 330.716 617.212 331.793C618.59 332.861 619.641 334.412 620.364 336.444C621.097 338.468 621.463 340.91 621.463 343.77C621.463 346.647 621.101 349.102 620.377 351.134C619.654 353.158 618.607 354.705 617.238 355.773C615.868 356.832 614.21 357.362 612.264 357.362ZM612.264 354.519C614.193 354.519 615.692 353.589 616.76 351.729C617.828 349.868 618.362 347.215 618.362 343.77C618.362 341.479 618.116 339.528 617.625 337.917C617.143 336.306 616.445 335.079 615.532 334.235C614.628 333.391 613.538 332.969 612.264 332.969C610.351 332.969 608.857 333.912 607.78 335.798C606.704 337.676 606.165 340.333 606.165 343.77C606.165 346.061 606.406 348.008 606.889 349.61C607.371 351.212 608.065 352.431 608.969 353.266C609.882 354.102 610.98 354.519 612.264 354.519ZM627.722 357.207C627.085 357.207 626.538 356.978 626.082 356.522C625.625 356.065 625.397 355.519 625.397 354.881C625.397 354.244 625.625 353.697 626.082 353.24C626.538 352.784 627.085 352.556 627.722 352.556C628.36 352.556 628.907 352.784 629.363 353.24C629.82 353.697 630.048 354.244 630.048 354.881C630.048 355.303 629.94 355.691 629.725 356.044C629.518 356.397 629.238 356.681 628.885 356.897C628.541 357.103 628.153 357.207 627.722 357.207ZM643.204 357.362C641.688 357.362 640.323 357.06 639.108 356.457C637.894 355.854 636.92 355.028 636.188 353.977C635.456 352.926 635.056 351.729 634.987 350.385H638.087C638.208 351.582 638.751 352.573 639.715 353.357C640.689 354.132 641.851 354.519 643.204 354.519C644.289 354.519 645.254 354.265 646.098 353.757C646.951 353.249 647.618 352.551 648.1 351.664C648.591 350.768 648.837 349.756 648.837 348.628C648.837 347.474 648.583 346.444 648.075 345.54C647.575 344.627 646.886 343.908 646.007 343.382C645.129 342.857 644.125 342.59 642.997 342.581C642.187 342.573 641.356 342.698 640.503 342.956C639.651 343.206 638.949 343.529 638.397 343.925L635.4 343.563L637.002 330.54H650.749V333.382H639.689L638.759 341.186H638.914C639.457 340.755 640.137 340.398 640.956 340.114C641.774 339.829 642.627 339.687 643.514 339.687C645.133 339.687 646.576 340.075 647.842 340.85C649.117 341.617 650.116 342.667 650.839 344.002C651.572 345.338 651.938 346.862 651.938 348.576C651.938 350.264 651.559 351.772 650.801 353.098C650.051 354.416 649.018 355.458 647.7 356.225C646.382 356.983 644.883 357.362 643.204 357.362ZM671.179 341.599L668.44 342.375C668.267 341.918 668.013 341.474 667.677 341.044C667.35 340.605 666.902 340.243 666.334 339.959C665.765 339.674 665.037 339.532 664.15 339.532C662.936 339.532 661.924 339.812 661.114 340.372C660.313 340.923 659.913 341.625 659.913 342.478C659.913 343.236 660.188 343.835 660.739 344.274C661.291 344.713 662.152 345.079 663.323 345.372L666.269 346.096C668.044 346.526 669.366 347.185 670.236 348.072C671.106 348.951 671.541 350.083 671.541 351.47C671.541 352.607 671.213 353.624 670.559 354.519C669.913 355.415 669.008 356.121 667.845 356.638C666.683 357.155 665.33 357.413 663.789 357.413C661.764 357.413 660.089 356.974 658.763 356.096C657.436 355.217 656.596 353.934 656.243 352.245L659.137 351.522C659.413 352.59 659.934 353.391 660.701 353.925C661.476 354.459 662.488 354.726 663.737 354.726C665.158 354.726 666.286 354.425 667.122 353.822C667.966 353.21 668.388 352.478 668.388 351.625C668.388 350.936 668.147 350.359 667.665 349.894C667.182 349.42 666.441 349.067 665.442 348.835L662.135 348.059C660.317 347.629 658.982 346.961 658.13 346.057C657.285 345.144 656.863 344.002 656.863 342.633C656.863 341.513 657.178 340.523 657.807 339.661C658.444 338.8 659.31 338.124 660.403 337.633C661.506 337.142 662.755 336.896 664.15 336.896C666.114 336.896 667.656 337.327 668.776 338.188C669.904 339.05 670.705 340.187 671.179 341.599ZM680.627 357L674.58 337.155H677.784L682.074 352.349H682.28L686.518 337.155H689.774L693.96 352.297H694.167L698.456 337.155H701.66L695.614 357H692.616L688.275 341.754H687.965L683.624 357H680.627Z" fill="#FF0000"/>
</g>
<defs>
<clipPath id="clip0_0_1">
<rect width="975" height="1015" fill="white"/>
</clipPath>
</defs>
</svg>
