<svg width="832" height="940" viewBox="0 0 832 940" fill="none" xmlns="http://www.w3.org/2000/svg">
<path d="M20 57.5C20 36.7893 36.7893 20 57.5 20H682.5C703.211 20 720 36.7893 720 57.5V882.5C720 903.211 703.211 920 682.5 920H57.5C36.7893 920 20 903.211 20 882.5V57.5Z" fill="white"/>
<path d="M38.75 57.5C38.75 47.1447 47.1447 38.75 57.5 38.75H682.5C692.855 38.75 701.25 47.1447 701.25 57.5V882.5C701.25 892.855 692.855 901.25 682.5 901.25H57.5C47.1447 901.25 38.75 892.855 38.75 882.5V57.5Z" fill="#0033A2"/>
<path d="M627.25 129.623L664.75 167.123V279.623V872.877H627.25H589.75V279.623V167.123L627.25 129.623Z" fill="white"/>
<path d="M427.25 655.473L461.401 646.322L571 709.595C574.867 711.827 579.631 711.828 583.498 709.596C587.365 707.364 589.748 703.24 589.75 698.775V713.208V785.377V785.38C589.752 780.912 587.369 776.783 583.5 774.55L436.401 689.623L427.25 655.473Z" fill="white"/>
<path d="M119.412 251.289V242.179H172.402V251.289H119.412ZM112.552 269.399V260.509H179.822V269.399H112.552ZM97.1325 288.299V279.079H195.012V288.299H97.1325ZM110.972 226.199V217.649H150.122V226.199H110.972ZM141.012 223.389V217.649H152.602C155.002 220.722 157.909 223.702 161.322 226.589C164.736 229.482 168.502 232.165 172.622 234.639C176.749 237.112 181.062 239.325 185.562 241.279C190.062 243.225 194.599 244.875 199.172 246.229C198.352 246.829 197.416 247.615 196.362 248.589C195.316 249.562 194.302 250.575 193.322 251.629C192.349 252.675 191.562 253.649 190.962 254.549C184.962 252.375 179.039 249.675 173.192 246.449C167.339 243.222 161.919 239.642 156.932 235.709C151.946 231.769 147.652 227.662 144.052 223.389H141.012ZM138.542 218.779L148.212 222.489C144.539 227.435 140.076 232.009 134.822 236.209C129.576 240.409 123.969 244.122 118.002 247.349C112.042 250.575 106.026 253.389 99.9525 255.789C99.4258 255.035 98.7125 254.135 97.8125 253.089C96.9125 252.035 95.9758 251.002 95.0025 249.989C94.0291 248.982 93.1658 248.179 92.4125 247.579C98.5658 245.699 104.566 243.335 110.412 240.489C116.266 237.635 121.609 234.372 126.442 230.699C131.282 227.025 135.316 223.052 138.542 218.779ZM140.342 285.489V246.339H151.252V285.489H140.342ZM96.3525 206.059V196.279H195.802V206.059H96.3525ZM120.312 215.399V187.729H130.892V215.399H120.312ZM160.592 215.959V187.729H171.162V215.959" fill="white"/>
<path d="M282.678 195.491V189.981H302.358V195.491H282.678ZM281.998 213.831V208.431H303.148V213.831H281.998ZM281.998 222.261V216.981H303.148V222.261H281.998ZM265.578 275.591V268.731H322.608V275.591H265.578ZM278.738 204.941V198.981H305.738V204.941H278.738ZM296.398 231.151H288.408V237.561H296.398V231.151ZM281.768 242.741V225.981H303.258V242.741H281.768ZM267.488 264.001V257.591H314.168V252.751H260.508V246.341H324.078V264.001H267.488ZM263.658 244.311V218.781H270.748V244.311H263.658ZM253.428 222.711L252.638 215.851C255.938 215.705 259.631 215.555 263.718 215.401C267.804 215.255 272.134 215.068 276.708 214.841V221.031C272.508 221.405 268.441 221.705 264.508 221.931C260.568 222.151 256.874 222.411 253.428 222.711ZM264.448 257.591H274.348C273.448 261.191 272.474 264.941 271.428 268.841C270.374 272.741 269.398 276.115 268.498 278.961L258.938 277.611C259.984 274.838 260.998 271.631 261.978 267.991C262.951 264.358 263.774 260.891 264.448 257.591ZM319.238 269.851V268.731H329.248C329.248 268.731 329.211 269.235 329.138 270.241C329.064 271.255 328.914 272.101 328.688 272.781C327.634 277.428 326.544 281.081 325.418 283.741C324.298 286.408 322.988 288.341 321.488 289.541C320.214 290.441 318.844 291.058 317.378 291.391C315.918 291.731 314.174 291.938 312.148 292.011C310.421 292.091 307.964 292.111 304.778 292.071C301.591 292.031 298.198 291.938 294.598 291.791C294.524 290.591 294.224 289.241 293.698 287.741C293.171 286.241 292.534 284.891 291.788 283.691C295.314 284.065 298.728 284.288 302.028 284.361C305.328 284.441 307.651 284.481 308.998 284.481C310.198 284.481 311.171 284.441 311.918 284.361C312.671 284.288 313.311 284.065 313.838 283.691C314.884 282.865 315.841 281.381 316.708 279.241C317.568 277.108 318.411 273.978 319.238 269.851ZM272.098 226.761L277.498 225.531C278.098 227.405 278.678 229.465 279.238 231.711C279.804 233.965 280.238 235.915 280.538 237.561L274.688 239.141C274.534 237.415 274.214 235.408 273.728 233.121C273.241 230.835 272.698 228.715 272.098 226.761ZM271.758 211.461L276.598 209.661C277.571 211.541 278.471 213.641 279.298 215.961C280.124 218.288 280.688 220.315 280.988 222.041L275.698 224.061C275.471 222.341 274.984 220.318 274.238 217.991C273.484 215.665 272.658 213.488 271.758 211.461ZM253.758 202.581L257.358 197.181C259.538 198.601 261.674 200.231 263.768 202.071C265.874 203.911 267.451 205.505 268.498 206.851L264.448 213.041C263.321 211.468 261.748 209.705 259.728 207.751C257.701 205.805 255.711 204.081 253.758 202.581ZM264.448 187.391L270.858 190.541C269.358 193.015 267.858 195.528 266.358 198.081C264.858 200.628 263.434 202.765 262.088 204.491L257.138 201.901C258.338 199.955 259.651 197.575 261.078 194.761C262.498 191.948 263.621 189.491 264.448 187.391ZM271.648 196.731L277.948 200.331C275.474 203.705 272.831 207.265 270.018 211.011C267.204 214.765 264.561 217.915 262.088 220.461L257.358 217.541C258.938 215.668 260.628 213.531 262.428 211.131C264.228 208.731 265.931 206.255 267.538 203.701C269.151 201.155 270.521 198.831 271.648 196.731ZM256.238 225.081L262.878 226.541C262.198 229.468 261.371 232.391 260.398 235.311C259.424 238.238 258.374 240.751 257.248 242.851C256.574 242.405 255.598 241.898 254.318 241.331C253.044 240.771 251.998 240.305 251.178 239.931C252.451 237.831 253.498 235.485 254.318 232.891C255.144 230.305 255.784 227.701 256.238 225.081ZM315.638 244.311V218.781H322.838V244.311H315.638ZM305.288 222.711L304.608 215.851C308.061 215.705 311.944 215.555 316.258 215.401C320.571 215.255 325.164 215.105 330.038 214.951L329.918 221.141C325.498 221.441 321.204 221.721 317.038 221.981C312.878 222.248 308.961 222.491 305.288 222.711ZM324.408 226.761L330.148 225.081C331.121 227.328 332.078 229.801 333.018 232.501C333.951 235.201 334.608 237.528 334.988 239.481L329.028 241.391C328.728 239.438 328.128 237.075 327.228 234.301C326.328 231.528 325.388 229.015 324.408 226.761ZM323.508 211.241L328.798 208.881C330.071 210.828 331.251 212.981 332.338 215.341C333.431 217.708 334.201 219.791 334.648 221.591L328.908 224.181C328.534 222.381 327.841 220.261 326.828 217.821C325.814 215.381 324.708 213.188 323.508 211.241ZM304.838 202.351L308.658 197.291C310.611 198.638 312.561 200.195 314.508 201.961C316.461 203.721 317.961 205.315 319.008 206.741L314.628 212.591C313.648 211.091 312.241 209.365 310.408 207.411C308.568 205.465 306.711 203.778 304.838 202.351ZM315.858 187.501L322.278 190.761C320.698 193.241 319.121 195.735 317.548 198.241C315.974 200.755 314.474 202.911 313.048 204.711L308.098 202.131C309.371 200.178 310.758 197.795 312.258 194.981C313.758 192.168 314.958 189.675 315.858 187.501ZM323.848 196.281L330.148 199.881C327.601 203.255 324.828 206.815 321.828 210.561C318.828 214.315 315.978 217.465 313.278 220.011L308.658 217.091C310.384 215.218 312.184 213.081 314.058 210.681C315.938 208.281 317.738 205.805 319.458 203.251C321.184 200.705 322.648 198.381 323.848 196.281ZM308.098 225.081L314.628 226.651C314.101 229.425 313.351 232.255 312.378 235.141C311.398 238.035 310.348 240.491 309.228 242.511C308.628 242.138 307.728 241.631 306.528 240.991C305.328 240.358 304.278 239.855 303.378 239.481C304.571 237.381 305.544 235.091 306.298 232.611C307.044 230.138 307.644 227.628 308.098 225.081ZM231.598 196.161L237.788 189.191C239.661 190.165 241.628 191.345 243.688 192.731C245.754 194.118 247.688 195.505 249.488 196.891C251.288 198.285 252.751 199.618 253.878 200.891L247.458 208.761C246.411 207.488 245.004 206.101 243.238 204.601C241.478 203.101 239.584 201.621 237.558 200.161C235.538 198.695 233.551 197.361 231.598 196.161ZM229.238 226.201L235.088 218.891C237.034 219.791 239.078 220.898 241.218 222.211C243.358 223.525 245.344 224.835 247.178 226.141C249.018 227.455 250.538 228.711 251.738 229.911L245.548 238.011C244.421 236.811 242.941 235.501 241.108 234.081C239.268 232.655 237.298 231.248 235.198 229.861C233.098 228.475 231.111 227.255 229.238 226.201ZM241.048 290.781L231.488 285.381C232.914 282.381 234.431 278.891 236.038 274.911C237.651 270.938 239.301 266.738 240.988 262.311C242.681 257.891 244.238 253.541 245.658 249.261L254.098 254.661C252.898 258.641 251.548 262.731 250.048 266.931C248.548 271.131 247.048 275.255 245.548 279.301C244.048 283.355 242.548 287.181 241.048 290.781Z" fill="white"/>
<path d="M211.75 180.623H76.25V321.123H211.75V180.623Z" stroke="white" stroke-width="2" stroke-dasharray="5 5"/>
<path d="M349.25 180.623H213.75V321.123H349.25V180.623Z" stroke="white" stroke-width="2" stroke-dasharray="5 5"/>
<path d="M128.77 490.174V479.154H179.44V490.174H160.16V549.474H148.05V490.174" fill="white"/>
<path d="M219.065 503.758L219.625 504.858C221.059 506.638 221.975 508.475 222.375 510.368C222.495 511.161 222.585 511.905 222.645 512.598C222.712 513.285 222.745 513.888 222.745 514.408V538.638C223.872 540.878 225.522 542.225 227.695 542.678L227.335 543.228C227.209 543.448 227.085 543.571 226.965 543.598L226.785 544.148L226.415 544.518C226.109 545.191 225.742 545.741 225.315 546.168C224.882 547.301 224.329 548.158 223.655 548.738C223.382 549.351 223.122 549.881 222.875 550.328C222.635 550.768 222.409 551.158 222.195 551.498C218.615 550.578 215.799 548.925 213.745 546.538H213.195C209.249 549.385 205.179 550.808 200.985 550.808C198.719 550.808 196.485 550.425 194.285 549.658C187.705 547.305 183.729 543.021 182.355 536.808V536.578C182.355 524.738 189.285 518.818 203.145 518.818H203.285C203.559 518.691 203.862 518.628 204.195 518.628L204.745 518.448H206.035L206.585 518.268H207.135L211.725 517.718C211.785 517.378 211.815 517.071 211.815 516.798V515.878C211.815 510.765 209.109 508.208 203.695 508.208C199.929 508.208 194.772 509.478 188.225 512.018L187.495 510.368L187.125 509.268L186.755 508.898L186.575 508.538L186.205 507.428C185.872 506.881 185.629 506.331 185.475 505.778C184.829 504.925 184.399 504.068 184.185 503.208L184.735 503.028L185.105 502.838L185.655 502.658L186.025 502.288H186.575C186.695 502.168 186.802 502.108 186.895 502.108H186.945C188.045 501.528 189.022 501.098 189.875 500.818L190.795 500.638C191.469 500.331 192.082 500.148 192.635 500.088L194.105 499.718C195.172 499.291 196.212 499.048 197.225 498.988L201.265 498.248C201.872 498.188 202.459 498.135 203.025 498.088C203.592 498.041 204.152 498.018 204.705 498.018C210.545 498.018 215.332 499.931 219.065 503.758ZM207.315 527.078H206.215C205.942 527.138 205.675 527.185 205.415 527.218C205.155 527.245 204.902 527.258 204.655 527.258H204.385L203.645 527.448H203.095C202.942 527.568 202.759 527.628 202.545 527.628H201.995L199.055 528.358H198.505C197.652 528.851 196.919 529.158 196.305 529.278C194.319 531.178 193.325 533.015 193.325 534.788C193.325 536.408 194.135 537.998 195.755 539.558C198.109 540.998 200.402 541.718 202.635 541.718C205.482 541.718 208.205 540.571 210.805 538.278C211.052 537.571 211.299 537.081 211.545 536.808L211.725 536.258L211.545 535.518V526.888H207.875C207.722 527.015 207.535 527.078 207.315 527.078Z" fill="white"/>
<path d="M238.682 549.655V499.535H249.882V549.655H238.682ZM250.982 484.845V485.445C250.982 487.985 250.185 490.048 248.592 491.635C246.912 492.461 245.365 492.875 243.952 492.875C241.505 492.875 239.565 491.545 238.132 488.885C237.852 487.811 237.712 486.865 237.712 486.045C237.712 482.918 239.442 480.805 242.902 479.705H243.362C247.249 479.705 249.789 481.418 250.982 484.845Z" fill="white"/>
<path d="M289.941 479.707V479.337H302.611L302.791 480.627L302.981 481.177L303.341 482.467L303.711 484.667L304.261 486.497L304.631 488.707L305.181 490.537L305.361 492.007C305.575 492.527 305.698 492.957 305.731 493.297L305.911 494.027L306.281 495.127V495.867C306.401 495.961 306.461 496.051 306.461 496.137V496.787C306.801 497.461 306.988 498.194 307.021 498.987L307.381 500.087L307.751 501.377L308.121 503.577L308.671 505.407L308.851 506.517L309.951 511.107C310.045 511.534 310.131 511.924 310.211 512.277C310.285 512.624 310.321 512.967 310.321 513.307L310.691 514.037V514.777L311.051 515.697V516.427L311.421 517.157V517.897C311.761 518.817 311.945 519.614 311.971 520.287L312.161 521.017C312.375 521.631 312.541 522.197 312.661 522.717C312.781 523.237 312.858 523.711 312.891 524.137L313.261 525.607L313.631 526.887L313.991 525.787L314.731 522.117L315.091 521.197L315.281 520.097L315.831 517.527L316.201 516.247V515.697L316.931 512.757L317.111 511.657L317.481 510.917L317.661 510.187L317.851 509.267V508.537L318.031 507.977L318.771 505.047L319.131 502.837L319.321 502.107L319.681 501.377C319.748 500.397 319.931 499.537 320.231 498.797L320.421 497.887V497.337L320.791 495.867L320.971 495.317L321.521 492.927L321.701 491.827L322.071 490.727L322.251 489.807L322.801 487.417L322.991 486.497L323.171 486.137C323.205 485.797 323.245 485.467 323.291 485.147C323.338 484.827 323.421 484.544 323.541 484.297L323.721 483.747V483.197L323.911 482.467L324.091 481.907L324.641 479.337H338.231V479.887C338.658 480.961 338.901 482.004 338.961 483.017L339.331 484.477L339.511 485.037L340.251 488.337L340.611 489.807C340.858 490.694 340.981 491.427 340.981 492.007C341.195 492.527 341.318 492.957 341.351 493.297L341.711 494.577L341.901 495.867L342.081 496.597L342.271 497.147C342.358 497.547 342.435 497.907 342.501 498.227C342.561 498.547 342.605 498.861 342.631 499.167C342.878 499.747 343.048 500.284 343.141 500.777C343.235 501.264 343.311 501.707 343.371 502.107L343.551 503.207L343.921 504.127L344.101 505.227V505.777C344.408 506.511 344.591 507.184 344.651 507.797L344.841 508.897C345.141 509.631 345.325 510.304 345.391 510.917L345.571 511.837L346.121 513.857V514.587C346.241 514.867 346.301 515.174 346.301 515.507C346.641 516.214 346.828 516.827 346.861 517.347L347.041 518.267L347.221 519.367L347.411 520.097C347.718 521.044 347.901 521.901 347.961 522.667C348.081 522.761 348.141 522.854 348.141 522.947V523.587C348.568 524.661 348.815 525.701 348.881 526.707C349.061 526.647 349.181 526.524 349.241 526.337C349.395 525.577 349.548 524.914 349.701 524.347C349.855 523.781 350.008 523.284 350.161 522.857V522.117C350.561 521.017 350.805 520.037 350.891 519.177L351.261 517.897L352.001 514.957L352.181 513.487L352.551 512.207L352.731 511.657V511.107C352.945 510.521 353.115 509.991 353.241 509.517C353.361 509.044 353.435 508.594 353.461 508.167L353.831 506.877L355.301 500.817L355.851 497.887L356.221 496.417C356.555 495.531 356.738 494.797 356.771 494.217L356.951 493.297L357.321 491.827C357.595 490.941 357.778 490.207 357.871 489.627L358.051 488.887L358.611 486.317L358.971 485.217V484.667L359.521 483.197V482.467L359.711 481.907L360.261 479.337H372.741L372.011 483.017L371.461 485.217L371.271 485.767L370.721 488.337L370.361 489.807L369.991 491.087L369.251 494.767L368.891 496.047L368.151 499.537L367.791 500.817L367.601 501.377L367.231 503.387L367.051 503.757L366.871 505.047C366.565 506.054 366.381 506.911 366.321 507.617L365.581 509.817L365.401 511.107L365.211 511.837L365.031 512.387L364.851 513.677L364.661 514.227L363.561 518.817L363.381 520.097L363.011 521.387L362.091 525.057L361.911 526.337L360.811 530.927L360.261 533.497C359.921 534.417 359.738 535.214 359.711 535.887L358.971 538.277V539.007C358.638 539.927 358.455 540.724 358.421 541.397C358.115 542.404 357.931 543.261 357.871 543.967L357.501 545.247L357.321 545.617L357.141 546.907C356.835 547.914 356.651 548.771 356.591 549.477H343.001L342.821 548.007C342.608 547.487 342.485 547.057 342.451 546.717L342.081 545.247L341.901 543.967L341.531 542.677C341.438 542.311 341.361 541.961 341.301 541.627C341.241 541.287 341.195 540.964 341.161 540.657L340.981 539.927L340.801 539.007C340.675 538.854 340.611 538.671 340.611 538.457L340.431 537.537L340.251 536.987C340.158 536.594 340.081 536.234 340.021 535.907C339.955 535.587 339.908 535.274 339.881 534.967C339.668 534.387 339.508 533.854 339.401 533.367C339.295 532.874 339.208 532.431 339.141 532.037L338.961 531.297L338.781 530.377C338.655 530.011 338.568 529.661 338.521 529.327C338.481 528.987 338.445 528.664 338.411 528.357C338.198 527.751 338.031 527.171 337.911 526.617C337.785 526.064 337.708 525.544 337.681 525.057C337.555 524.904 337.491 524.721 337.491 524.507L337.311 523.767L337.131 523.217C337.038 522.577 336.915 521.967 336.761 521.387L336.391 519.727L336.211 518.627L335.841 517.717L335.471 515.507L335.291 514.957V514.407C334.985 513.674 334.801 513.001 334.741 512.387L334.371 510.187L334.001 509.267L333.641 507.797V507.067C333.275 506.054 333.091 505.197 333.091 504.497C332.965 504.344 332.901 504.161 332.901 503.947L332.721 503.387V502.837C332.415 502.137 332.231 501.404 332.171 500.637C331.865 499.657 331.681 498.741 331.621 497.887L331.251 498.617L331.071 499.717L330.521 502.107L330.151 504.127L329.961 504.677L329.231 507.797L329.051 508.537L328.681 510.367L328.501 511.107L328.131 513.127L327.951 513.677L327.211 517.157L326.841 518.447L326.661 519.727C326.328 520.647 326.145 521.444 326.111 522.117L325.931 522.487L325.741 523.587L325.561 524.137L324.641 528.727L324.461 529.277L323.721 532.767L323.541 533.497L323.361 534.417L323.171 534.967L322.441 538.457L322.071 539.927L321.701 541.767L321.521 542.127L321.151 543.787L320.971 544.517L320.791 545.797C320.571 546.564 320.448 547.177 320.421 547.637C320.295 547.944 320.211 548.234 320.171 548.507C320.125 548.787 320.085 549.047 320.051 549.287C319.625 549.354 319.235 549.407 318.881 549.447C318.528 549.494 318.185 549.517 317.851 549.517H317.391C317.238 549.517 317.085 549.504 316.931 549.477H306.281V548.737C305.855 547.637 305.611 546.597 305.551 545.617C305.425 545.464 305.361 545.281 305.361 545.067L305.181 544.147C304.508 541.974 304.078 540.137 303.891 538.637L303.711 538.087L302.791 534.607L302.611 533.137L301.141 527.447V526.707C300.835 526.007 300.651 525.274 300.591 524.507L300.221 523.407L299.861 522.117V521.567L298.941 517.897V517.347L298.751 516.607L298.391 515.877L298.201 514.407C297.961 513.674 297.765 513.001 297.611 512.387C297.458 511.774 297.351 511.224 297.291 510.737L297.101 510.187V509.637C296.981 509.484 296.921 509.301 296.921 509.087L296.551 507.617L296.371 507.067C296.245 506.421 296.128 505.837 296.021 505.317C295.915 504.797 295.785 504.341 295.631 503.947L295.451 502.657C295.238 502.044 295.068 501.477 294.941 500.957C294.821 500.437 294.745 499.964 294.711 499.537L294.531 498.617C294.411 498.464 294.351 498.281 294.351 498.067L293.431 494.397L293.061 493.107L292.881 492.197L292.701 491.457L292.511 490.177C292.265 489.531 292.141 488.977 292.141 488.517V488.337L291.781 487.417L291.591 486.687C291.471 485.801 291.288 485.064 291.041 484.477V483.747C290.921 483.594 290.861 483.411 290.861 483.197" fill="white"/>
<path d="M416.315 503.758L416.875 504.858C418.309 506.638 419.225 508.475 419.625 510.368C419.745 511.161 419.835 511.905 419.895 512.598C419.962 513.285 419.995 513.888 419.995 514.408V538.638C421.122 540.878 422.772 542.225 424.945 542.678L424.585 543.228C424.459 543.448 424.335 543.571 424.215 543.598L424.035 544.148L423.665 544.518C423.359 545.191 422.992 545.741 422.565 546.168C422.132 547.301 421.579 548.158 420.905 548.738C420.632 549.351 420.372 549.881 420.125 550.328C419.885 550.768 419.659 551.158 419.445 551.498C415.865 550.578 413.049 548.925 410.995 546.538H410.445C406.499 549.385 402.429 550.808 398.235 550.808C395.969 550.808 393.735 550.425 391.535 549.658C384.955 547.305 380.979 543.021 379.605 536.808V536.578C379.605 524.738 386.535 518.818 400.395 518.818H400.535C400.809 518.691 401.112 518.628 401.445 518.628L401.995 518.448H403.285L403.835 518.268H404.385L408.975 517.718C409.035 517.378 409.065 517.071 409.065 516.798V515.878C409.065 510.765 406.359 508.208 400.945 508.208C397.179 508.208 392.022 509.478 385.475 512.018L384.745 510.368L384.375 509.268L384.005 508.898L383.825 508.538L383.455 507.428C383.122 506.881 382.879 506.331 382.725 505.778C382.079 504.925 381.649 504.068 381.435 503.208L381.985 503.028L382.355 502.838L382.905 502.658L383.275 502.288H383.825C383.945 502.168 384.052 502.108 384.145 502.108H384.195C385.295 501.528 386.272 501.098 387.125 500.818L388.045 500.638C388.719 500.331 389.332 500.148 389.885 500.088L391.355 499.718C392.422 499.291 393.462 499.048 394.475 498.988L398.515 498.248C399.122 498.188 399.709 498.135 400.275 498.088C400.842 498.041 401.402 498.018 401.955 498.018C407.795 498.018 412.582 499.931 416.315 503.758ZM404.565 527.078H403.465C403.192 527.138 402.925 527.185 402.665 527.218C402.405 527.245 402.152 527.258 401.905 527.258H401.635L400.895 527.448H400.345C400.192 527.568 400.009 527.628 399.795 527.628H399.245L396.305 528.358H395.755C394.902 528.851 394.169 529.158 393.555 529.278C391.569 531.178 390.575 533.015 390.575 534.788C390.575 536.408 391.385 537.998 393.005 539.558C395.359 540.998 397.652 541.718 399.885 541.718C402.732 541.718 405.455 540.571 408.055 538.278C408.302 537.571 408.549 537.081 408.795 536.808L408.975 536.258L408.795 535.518V526.888H405.125C404.972 527.015 404.785 527.078 404.565 527.078Z" fill="white"/>
<path d="M437.682 549.655V499.535H448.882V549.655H437.682ZM449.982 484.845V485.445C449.982 487.985 449.185 490.048 447.592 491.635C445.912 492.461 444.365 492.875 442.952 492.875C440.505 492.875 438.565 491.545 437.132 488.885C436.852 487.811 436.712 486.865 436.712 486.045C436.712 482.918 438.442 480.805 441.902 479.705H442.362C446.249 479.705 448.789 481.418 449.982 484.845Z" fill="white"/>
<path d="M178.75 473.123H128.25V571.123H178.75V473.123Z" stroke="white" stroke-width="2" stroke-dasharray="5 5"/>
<path d="M230.75 473.123H180.75V571.123H230.75V473.123Z" stroke="white" stroke-width="2" stroke-dasharray="5 5"/>
<path d="M257.75 473.123H232.75V571.123H257.75V473.123Z" stroke="white" stroke-width="2" stroke-dasharray="5 5"/>
<path d="M282.75 473.123H259.75V571.123H282.75V473.123Z" stroke="white" stroke-width="2" stroke-dasharray="5 5"/>
<path d="M374.25 473.123H284.75V571.123H374.25V473.123Z" stroke="white" stroke-width="2" stroke-dasharray="5 5"/>
<path d="M429.75 473.123H376.25V571.123H429.75V473.123Z" stroke="white" stroke-width="2" stroke-dasharray="5 5"/>
<path d="M456.75 473.123H431.75V571.123H456.75V473.123Z" stroke="white" stroke-width="2" stroke-dasharray="5 5"/>
<path d="M76.7695 97.6738V86.6538H127.44V97.6738H108.16V156.974H96.0495V97.6738" fill="white"/>
<path d="M170.159 112.9L169.609 113.64L169.059 114.19L168.509 114.56L167.769 115.66L167.409 116.03L167.039 116.21C166.639 116.764 166.272 117.19 165.939 117.49L163.549 120.25C158.469 116.977 154.262 115.34 150.929 115.34C147.502 115.34 144.979 117.037 143.359 120.43C143.419 122.424 144.212 123.894 145.739 124.84C146.412 125.02 146.902 125.204 147.209 125.39C148.402 125.57 149.382 125.814 150.149 126.12C161.742 126.98 168.229 131.634 169.609 140.08C169.669 140.447 169.699 140.804 169.699 141.15C169.699 141.504 169.699 141.85 169.699 142.19C169.699 148.337 167.099 152.957 161.899 156.05C158.165 157.73 154.415 158.57 150.649 158.57C143.489 158.57 136.345 155.527 129.219 149.44L129.589 148.71L130.499 147.79C131.112 147.057 131.665 146.504 132.159 146.13C132.279 145.917 132.399 145.797 132.519 145.77L132.889 145.22C133.009 145.007 133.132 144.884 133.259 144.85L133.439 144.48L133.809 144.3L136.199 141.54C140.725 145.827 145.465 147.97 150.419 147.97C152.499 147.97 154.612 147.604 156.759 146.87C157.305 146.137 157.855 145.587 158.409 145.22C158.595 144.487 158.689 143.797 158.689 143.15C158.689 141.557 158.169 140.227 157.129 139.16L152.899 137.69C140.292 136.924 133.439 131.537 132.339 121.53C133.165 111.464 138.855 106.08 149.409 105.38H150.059C158.165 105.38 164.865 107.887 170.159 112.9Z" fill="white"/>
<path d="M182.537 142.649V106.849H193.557V138.609C193.677 138.762 193.737 138.946 193.737 139.159C193.864 139.252 193.927 139.342 193.927 139.429V139.529C194.14 140.902 194.444 142.126 194.837 143.199C196.95 146.132 199.66 147.599 202.967 147.599H203.107C207.207 146.499 210.08 144.236 211.727 140.809V140.259L212.467 138.059V106.849H223.667V156.969H212.467V152.929C208.06 156.536 203.67 158.339 199.297 158.339C195.897 158.339 192.454 157.269 188.967 155.129C186.12 152.956 184.16 150.386 183.087 147.419L182.907 146.129C182.634 145.242 182.497 144.372 182.497 143.519V143.109C182.497 142.956 182.51 142.802 182.537 142.649Z" fill="white"/>
<path d="M282.086 127.418L282.266 130.168C282.386 130.321 282.446 130.504 282.446 130.718V136.228H248.856C249.556 142.468 252.736 146.141 258.396 147.248C259.316 147.334 260.219 147.378 261.106 147.378C265.726 147.378 269.659 145.864 272.906 142.838C273.299 143.511 273.789 144.061 274.376 144.488L274.556 145.038L275.106 145.588C275.533 145.988 275.899 146.364 276.206 146.718C276.513 147.071 276.759 147.431 276.946 147.798C277.159 147.918 277.279 148.038 277.306 148.158L279.876 151.098C274.063 155.964 267.866 158.398 261.286 158.398C260.159 158.398 259.013 158.321 257.846 158.168C256.686 158.014 255.523 157.801 254.356 157.528C243.769 154.008 237.956 146.418 236.916 134.758C236.916 134.604 236.909 134.298 236.896 133.838C236.883 133.384 236.876 133.094 236.876 132.968C236.876 117.028 244.049 107.954 258.396 105.748C272.656 106.241 280.553 113.464 282.086 127.418ZM248.666 127.598H270.886V127.048C270.759 126.681 270.696 126.314 270.696 125.948V125.578C270.389 124.904 270.206 124.294 270.146 123.748C267.886 118.514 264.153 115.881 258.946 115.848C252.399 117.408 248.973 121.324 248.666 127.598Z" fill="white"/>
<path d="M335.3 115.66V116.21C335.7 116.944 335.947 117.677 336.04 118.41V156.78H324.84V124.29L324.65 123.19C323.123 118.564 320.553 116.25 316.94 116.25C315.84 116.25 314.617 116.48 313.27 116.94C310.21 118.26 308.007 120.344 306.66 123.19L305.93 126.31V156.78H294.91V106.66H305.93V110.88C309.357 107.82 313.09 105.987 317.13 105.38H317.95C326.15 105.38 331.933 108.807 335.3 115.66Z" fill="white"/>
<path d="M374.441 87.2074V86.8374H387.111L387.291 88.1274L387.481 88.6774L387.841 89.9674L388.211 92.1674L388.761 93.9974L389.131 96.2074L389.681 98.0374L389.861 99.5074C390.075 100.027 390.198 100.457 390.231 100.797L390.411 101.527L390.781 102.627V103.367C390.901 103.461 390.961 103.551 390.961 103.637V104.287C391.301 104.961 391.488 105.694 391.521 106.487L391.881 107.587L392.251 108.877L392.621 111.077L393.171 112.907L393.351 114.017L394.451 118.607C394.545 119.034 394.631 119.424 394.711 119.777C394.785 120.124 394.821 120.467 394.821 120.807L395.191 121.537V122.277L395.551 123.197V123.927L395.921 124.657V125.397C396.261 126.317 396.445 127.114 396.471 127.787L396.661 128.517C396.875 129.131 397.041 129.697 397.161 130.217C397.281 130.737 397.358 131.211 397.391 131.637L397.761 133.107L398.131 134.387L398.491 133.287L399.231 129.617L399.591 128.697L399.781 127.597L400.331 125.027L400.701 123.747V123.197L401.431 120.257L401.611 119.157L401.981 118.417L402.161 117.687L402.351 116.767V116.037L402.531 115.477L403.271 112.547L403.631 110.337L403.821 109.607L404.181 108.877C404.248 107.897 404.431 107.037 404.731 106.297L404.921 105.387V104.837L405.291 103.367L405.471 102.817L406.021 100.427L406.201 99.3274L406.571 98.2274L406.751 97.3074L407.301 94.9174L407.491 93.9974L407.671 93.6374C407.705 93.2974 407.745 92.9674 407.791 92.6474C407.838 92.3274 407.921 92.0441 408.041 91.7974L408.221 91.2474V90.6974L408.411 89.9674L408.591 89.4074L409.141 86.8374H422.731V87.3874C423.158 88.4607 423.401 89.5041 423.461 90.5174L423.831 91.9774L424.011 92.5374L424.751 95.8374L425.111 97.3074C425.358 98.1941 425.481 98.9274 425.481 99.5074C425.695 100.027 425.818 100.457 425.851 100.797L426.211 102.077L426.401 103.367L426.581 104.097L426.771 104.647C426.858 105.047 426.935 105.407 427.001 105.727C427.061 106.047 427.105 106.361 427.131 106.667C427.378 107.247 427.548 107.784 427.641 108.277C427.735 108.764 427.811 109.207 427.871 109.607L428.051 110.707L428.421 111.627L428.601 112.727V113.277C428.908 114.011 429.091 114.684 429.151 115.297L429.341 116.397C429.641 117.131 429.825 117.804 429.891 118.417L430.071 119.337L430.621 121.357V122.087C430.741 122.367 430.801 122.674 430.801 123.007C431.141 123.714 431.328 124.327 431.361 124.847L431.541 125.767L431.721 126.867L431.911 127.597C432.218 128.544 432.401 129.401 432.461 130.167C432.581 130.261 432.641 130.354 432.641 130.447V131.087C433.068 132.161 433.315 133.201 433.381 134.207C433.561 134.147 433.681 134.024 433.741 133.837C433.895 133.077 434.048 132.414 434.201 131.847C434.355 131.281 434.508 130.784 434.661 130.357V129.617C435.061 128.517 435.305 127.537 435.391 126.677L435.761 125.397L436.501 122.457L436.681 120.987L437.051 119.707L437.231 119.157V118.607C437.445 118.021 437.615 117.491 437.741 117.017C437.861 116.544 437.935 116.094 437.961 115.667L438.331 114.377L439.801 108.317L440.351 105.387L440.721 103.917C441.055 103.031 441.238 102.297 441.271 101.717L441.451 100.797L441.821 99.3274C442.095 98.4407 442.278 97.7074 442.371 97.1274L442.551 96.3874L443.111 93.8174L443.471 92.7174V92.1674L444.021 90.6974V89.9674L444.211 89.4074L444.761 86.8374H457.241L456.511 90.5174L455.961 92.7174L455.771 93.2674L455.221 95.8374L454.861 97.3074L454.491 98.5874L453.751 102.267L453.391 103.547L452.651 107.037L452.291 108.317L452.101 108.877L451.731 110.887L451.551 111.257L451.371 112.547C451.065 113.554 450.881 114.411 450.821 115.117L450.081 117.317L449.901 118.607L449.711 119.337L449.531 119.887L449.351 121.177L449.161 121.727L448.061 126.317L447.881 127.597L447.511 128.887L446.591 132.557L446.411 133.837L445.311 138.427L444.761 140.997C444.421 141.917 444.238 142.714 444.211 143.387L443.471 145.777V146.507C443.138 147.427 442.955 148.224 442.921 148.897C442.615 149.904 442.431 150.761 442.371 151.467L442.001 152.747L441.821 153.117L441.641 154.407C441.335 155.414 441.151 156.271 441.091 156.977H427.501L427.321 155.507C427.108 154.987 426.985 154.557 426.951 154.217L426.581 152.747L426.401 151.467L426.031 150.177C425.938 149.811 425.861 149.461 425.801 149.127C425.741 148.787 425.695 148.464 425.661 148.157L425.481 147.427L425.301 146.507C425.175 146.354 425.111 146.171 425.111 145.957L424.931 145.037L424.751 144.487C424.658 144.094 424.581 143.734 424.521 143.407C424.455 143.087 424.408 142.774 424.381 142.467C424.168 141.887 424.008 141.354 423.901 140.867C423.795 140.374 423.708 139.931 423.641 139.537L423.461 138.797L423.281 137.877C423.155 137.511 423.068 137.161 423.021 136.827C422.981 136.487 422.945 136.164 422.911 135.857C422.698 135.251 422.531 134.671 422.411 134.117C422.285 133.564 422.208 133.044 422.181 132.557C422.055 132.404 421.991 132.221 421.991 132.007L421.811 131.267L421.631 130.717C421.538 130.077 421.415 129.467 421.261 128.887L420.891 127.227L420.711 126.127L420.341 125.217L419.971 123.007L419.791 122.457V121.907C419.485 121.174 419.301 120.501 419.241 119.887L418.871 117.687L418.501 116.767L418.141 115.297V114.567C417.775 113.554 417.591 112.697 417.591 111.997C417.465 111.844 417.401 111.661 417.401 111.447L417.221 110.887V110.337C416.915 109.637 416.731 108.904 416.671 108.137C416.365 107.157 416.181 106.241 416.121 105.387L415.751 106.117L415.571 107.217L415.021 109.607L414.651 111.627L414.461 112.177L413.731 115.297L413.551 116.037L413.181 117.867L413.001 118.607L412.631 120.627L412.451 121.177L411.711 124.657L411.341 125.947L411.161 127.227C410.828 128.147 410.645 128.944 410.611 129.617L410.431 129.987L410.241 131.087L410.061 131.637L409.141 136.227L408.961 136.777L408.221 140.267L408.041 140.997L407.861 141.917L407.671 142.467L406.941 145.957L406.571 147.427L406.201 149.267L406.021 149.627L405.651 151.287L405.471 152.017L405.291 153.297C405.071 154.064 404.948 154.677 404.921 155.137C404.795 155.444 404.711 155.734 404.671 156.007C404.625 156.287 404.585 156.547 404.551 156.787C404.125 156.854 403.735 156.907 403.381 156.947C403.028 156.994 402.685 157.017 402.351 157.017H401.891C401.738 157.017 401.585 157.004 401.431 156.977H390.781V156.237C390.355 155.137 390.111 154.097 390.051 153.117C389.925 152.964 389.861 152.781 389.861 152.567L389.681 151.647C389.008 149.474 388.578 147.637 388.391 146.137L388.211 145.587L387.291 142.107L387.111 140.637L385.641 134.947V134.207C385.335 133.507 385.151 132.774 385.091 132.007L384.721 130.907L384.361 129.617V129.067L383.441 125.397V124.847L383.251 124.107L382.891 123.377L382.701 121.907C382.461 121.174 382.265 120.501 382.111 119.887C381.958 119.274 381.851 118.724 381.791 118.237L381.601 117.687V117.137C381.481 116.984 381.421 116.801 381.421 116.587L381.051 115.117L380.871 114.567C380.745 113.921 380.628 113.337 380.521 112.817C380.415 112.297 380.285 111.841 380.131 111.447L379.951 110.157C379.738 109.544 379.568 108.977 379.441 108.457C379.321 107.937 379.245 107.464 379.211 107.037L379.031 106.117C378.911 105.964 378.851 105.781 378.851 105.567L377.931 101.897L377.561 100.607L377.381 99.6974L377.201 98.9574L377.011 97.6774C376.765 97.0307 376.641 96.4774 376.641 96.0174V95.8374L376.281 94.9174L376.091 94.1874C375.971 93.3007 375.788 92.5641 375.541 91.9774V91.2474C375.421 91.0941 375.361 90.9107 375.361 90.6974" fill="white"/>
<path d="M500.815 111.258L501.375 112.358C502.809 114.138 503.725 115.975 504.125 117.868C504.245 118.661 504.335 119.405 504.395 120.098C504.462 120.785 504.495 121.388 504.495 121.908V146.138C505.622 148.378 507.272 149.725 509.445 150.178L509.085 150.728C508.959 150.948 508.835 151.071 508.715 151.098L508.535 151.648L508.165 152.018C507.859 152.691 507.492 153.241 507.065 153.668C506.632 154.801 506.079 155.658 505.405 156.238C505.132 156.851 504.872 157.381 504.625 157.828C504.385 158.268 504.159 158.658 503.945 158.998C500.365 158.078 497.549 156.425 495.495 154.038H494.945C490.999 156.885 486.929 158.308 482.735 158.308C480.469 158.308 478.235 157.925 476.035 157.158C469.455 154.805 465.479 150.521 464.105 144.308V144.078C464.105 132.238 471.035 126.318 484.895 126.318H485.035C485.309 126.191 485.612 126.128 485.945 126.128L486.495 125.948H487.785L488.335 125.768H488.885L493.475 125.218C493.535 124.878 493.565 124.571 493.565 124.298V123.378C493.565 118.265 490.859 115.708 485.445 115.708C481.679 115.708 476.522 116.978 469.975 119.518L469.245 117.868L468.875 116.768L468.505 116.398L468.325 116.038L467.955 114.928C467.622 114.381 467.379 113.831 467.225 113.278C466.579 112.425 466.149 111.568 465.935 110.708L466.485 110.528L466.855 110.338L467.405 110.158L467.775 109.788H468.325C468.445 109.668 468.552 109.608 468.645 109.608H468.695C469.795 109.028 470.772 108.598 471.625 108.318L472.545 108.138C473.219 107.831 473.832 107.648 474.385 107.588L475.855 107.218C476.922 106.791 477.962 106.548 478.975 106.488L483.015 105.748C483.622 105.688 484.209 105.635 484.775 105.588C485.342 105.541 485.902 105.518 486.455 105.518C492.295 105.518 497.082 107.431 500.815 111.258ZM489.065 134.578H487.965C487.692 134.638 487.425 134.685 487.165 134.718C486.905 134.745 486.652 134.758 486.405 134.758H486.135L485.395 134.948H484.845C484.692 135.068 484.509 135.128 484.295 135.128H483.745L480.805 135.858H480.255C479.402 136.351 478.669 136.658 478.055 136.778C476.069 138.678 475.075 140.515 475.075 142.288C475.075 143.908 475.885 145.498 477.505 147.058C479.859 148.498 482.152 149.218 484.385 149.218C487.232 149.218 489.955 148.071 492.555 145.778C492.802 145.071 493.049 144.581 493.295 144.308L493.475 143.758L493.295 143.018V134.388H489.625C489.472 134.515 489.285 134.578 489.065 134.578Z" fill="white"/>
<path d="M563.3 115.66V116.21C563.7 116.944 563.947 117.677 564.04 118.41V156.78H552.84V124.29L552.65 123.19C551.124 118.564 548.554 116.25 544.94 116.25C543.84 116.25 542.617 116.48 541.27 116.94C538.21 118.26 536.007 120.344 534.66 123.19L533.93 126.31V156.78H522.91V106.66H533.93V110.88C537.357 107.82 541.09 105.987 545.13 105.38H545.95C554.15 105.38 559.934 108.807 563.3 115.66Z" fill="white"/>
<path d="M126.75 80.6234H76.25V178.623H126.75V80.6234Z" stroke="white" stroke-width="2" stroke-dasharray="5 5"/>
<path d="M174.25 80.6234H128.75V178.623H174.25V80.6234Z" stroke="white" stroke-width="2" stroke-dasharray="5 5"/>
<path d="M231.75 80.6234H176.25V178.623H231.75V80.6234Z" stroke="white" stroke-width="2" stroke-dasharray="5 5"/>
<path d="M286.25 80.6234H233.75V178.623H286.25V80.6234Z" stroke="white" stroke-width="2" stroke-dasharray="5 5"/>
<path d="M342.25 80.6234H288.25V178.623H342.25V80.6234Z" stroke="white" stroke-width="2" stroke-dasharray="5 5"/>
<path d="M367.25 80.6234H344.25V178.623H367.25V80.6234Z" stroke="white" stroke-width="2" stroke-dasharray="5 5"/>
<path d="M458.75 80.6234H369.25V178.623H458.75V80.6234Z" stroke="white" stroke-width="2" stroke-dasharray="5 5"/>
<path d="M514.25 80.6234H460.75V178.623H514.25V80.6234Z" stroke="white" stroke-width="2" stroke-dasharray="5 5"/>
<path d="M570.25 80.6234H516.25V178.623H570.25V80.6234Z" stroke="white" stroke-width="2" stroke-dasharray="5 5"/>
<path d="M147 622.639V611.609H246.45V622.639H147ZM192.34 618.589L203.02 615.999C205.427 624.852 208.673 633.102 212.76 640.749C216.847 648.402 221.87 655.095 227.83 660.829C233.797 666.569 240.717 671.089 248.59 674.389C247.69 675.135 246.733 676.109 245.72 677.309C244.707 678.509 243.75 679.729 242.85 680.969C241.95 682.209 241.2 683.315 240.6 684.289C232.273 680.389 225.017 675.232 218.83 668.819C212.643 662.405 207.413 654.962 203.14 646.489C198.867 638.015 195.267 628.715 192.34 618.589ZM190.65 580.229H202.24C202.24 585.549 202.107 591.265 201.84 597.379C201.58 603.492 201 609.775 200.1 616.229C199.2 622.675 197.737 629.125 195.71 635.579C193.69 642.025 190.877 648.249 187.27 654.249C183.677 660.249 179.067 665.819 173.44 670.959C167.813 676.092 160.95 680.572 152.85 684.399C151.95 682.972 150.75 681.415 149.25 679.729C147.75 678.042 146.25 676.635 144.75 675.509C152.55 671.989 159.13 667.882 164.49 663.189C169.857 658.502 174.207 653.402 177.54 647.889C180.88 642.382 183.45 636.665 185.25 630.739C187.05 624.812 188.327 618.885 189.08 612.959C189.827 607.039 190.277 601.302 190.43 595.749C190.577 590.202 190.65 585.029 190.65 580.229Z" fill="white"/>
<path d="M302.392 618.251V612.181H365.732V618.251H302.392ZM302.952 660.781V654.591H365.842V660.781H302.952ZM333.662 668.201V637.041H343.232V668.201H333.662ZM349.192 627.251H318.482V633.441H349.192V627.251ZM309.482 638.501V621.961H358.642V638.501H309.482ZM325.452 594.851L334.342 595.981C333.516 599.054 332.576 602.314 331.522 605.761C330.476 609.214 329.502 612.178 328.602 614.651H319.262C320.316 611.951 321.402 608.764 322.522 605.091C323.649 601.418 324.626 598.004 325.452 594.851ZM308.912 606.661V600.931H356.052V615.441H347.162V606.661H308.912ZM286.412 684.741V584.841H381.592V684.741H371.132V594.511H296.542V684.741H286.412ZM292.832 680.241V670.561H376.752V680.241H292.832ZM310.832 658.981V642.661H361.002V648.741H319.152V658.981" fill="white"/>
<path d="M263.75 573.123H128.25V713.623H263.75V573.123Z" stroke="white" stroke-width="2" stroke-dasharray="5 5"/>
<path d="M401.25 573.123H265.75V713.623H401.25V573.123Z" stroke="white" stroke-width="2" stroke-dasharray="5 5"/>
<path d="M437 685.5V789.743" stroke="#46C147" stroke-width="2.74323"/>
<path d="M402 668V789.743" stroke="#46C147" stroke-width="2.74323"/>
<path d="M405 767.797H427" stroke="#46C147" stroke-width="2.74323"/>
<path d="M424 767.797L456.919 759.567V776.027L424 767.797Z" fill="#46C147"/>
<path d="M413.919 767.797L381 759.567V776.027L413.919 767.797Z" fill="#46C147"/>
<path d="M380.478 823.086V820.982L388.381 812.331C389.308 811.318 390.072 810.438 390.672 809.69C391.272 808.934 391.716 808.224 392.005 807.562C392.301 806.892 392.449 806.19 392.449 805.458C392.449 804.616 392.246 803.887 391.841 803.272C391.443 802.656 390.898 802.181 390.204 801.846C389.511 801.51 388.731 801.343 387.866 801.343C386.947 801.343 386.144 801.534 385.458 801.916C384.78 802.29 384.254 802.816 383.88 803.494C383.514 804.172 383.331 804.967 383.331 805.879H380.572C380.572 804.476 380.895 803.244 381.542 802.185C382.189 801.125 383.07 800.299 384.184 799.706C385.306 799.114 386.565 798.818 387.96 798.818C389.363 798.818 390.606 799.114 391.689 799.706C392.772 800.299 393.622 801.097 394.237 802.103C394.853 803.108 395.161 804.226 395.161 805.458C395.161 806.338 395.001 807.2 394.682 808.041C394.37 808.875 393.824 809.806 393.045 810.835C392.273 811.856 391.202 813.103 389.83 814.576L384.453 820.327V820.514H395.582V823.086H380.478ZM413.175 809.152L410.697 809.853C410.541 809.44 410.311 809.039 410.007 808.649C409.711 808.252 409.306 807.924 408.791 807.667C408.277 807.41 407.618 807.281 406.816 807.281C405.717 807.281 404.801 807.535 404.069 808.041C403.344 808.54 402.981 809.175 402.981 809.947C402.981 810.633 403.231 811.174 403.73 811.572C404.228 811.969 405.008 812.3 406.067 812.565L408.733 813.22C410.338 813.61 411.534 814.206 412.322 815.008C413.109 815.803 413.502 816.828 413.502 818.083C413.502 819.112 413.206 820.031 412.614 820.842C412.029 821.652 411.211 822.291 410.159 822.759C409.107 823.226 407.883 823.46 406.488 823.46C404.657 823.46 403.141 823.063 401.941 822.268C400.741 821.473 399.981 820.312 399.661 818.784L402.28 818.13C402.529 819.096 403.001 819.821 403.694 820.304C404.396 820.787 405.312 821.029 406.442 821.029C407.727 821.029 408.748 820.756 409.504 820.21C410.268 819.657 410.65 818.995 410.65 818.223C410.65 817.6 410.432 817.078 409.995 816.657C409.559 816.228 408.889 815.909 407.985 815.698L404.992 814.997C403.348 814.607 402.14 814.003 401.368 813.185C400.604 812.359 400.223 811.326 400.223 810.087C400.223 809.074 400.507 808.178 401.076 807.398C401.653 806.619 402.436 806.007 403.426 805.563C404.423 805.119 405.553 804.897 406.816 804.897C408.593 804.897 409.988 805.286 411.001 806.066C412.022 806.845 412.746 807.874 413.175 809.152ZM421.723 823.086L416.252 805.13H419.151L423.032 818.878H423.22L427.054 805.13H430L433.787 818.831H433.974L437.855 805.13H440.754L435.284 823.086H432.571L428.644 809.292H428.363L424.435 823.086H421.723Z" fill="#46C147"/>
<path d="M437 688.846H504" stroke="#FF0000" stroke-width="2.74323"/>
<path d="M357 713.846H506" stroke="#FF0000" stroke-width="2.74323"/>
<path d="M483.297 688.846V713.846" stroke="#FF0000" stroke-width="2.74323"/>
<path d="M483.297 711L475.067 743.919H491.527L483.297 711Z" fill="#FF0000"/>
<path d="M483.297 695.919L475.067 663H491.527L483.297 695.919Z" fill="#FF0000"/>
<path d="M524.525 690V672.044H527.19V674.85H527.424C527.798 673.891 528.402 673.147 529.236 672.617C530.07 672.079 531.071 671.81 532.24 671.81C533.425 671.81 534.411 672.079 535.198 672.617C535.993 673.147 536.612 673.891 537.057 674.85H537.244C537.703 673.922 538.393 673.186 539.313 672.64C540.232 672.087 541.335 671.81 542.621 671.81C544.226 671.81 545.54 672.313 546.561 673.318C547.581 674.316 548.092 675.871 548.092 677.983V690H545.333V677.983C545.333 676.658 544.971 675.711 544.246 675.142C543.521 674.573 542.668 674.289 541.686 674.289C540.423 674.289 539.445 674.671 538.752 675.434C538.058 676.19 537.711 677.149 537.711 678.31V690H534.906V677.702C534.906 676.681 534.574 675.859 533.912 675.236C533.25 674.604 532.396 674.289 531.352 674.289C530.635 674.289 529.965 674.48 529.341 674.862C528.726 675.243 528.227 675.773 527.845 676.451C527.471 677.122 527.284 677.897 527.284 678.778V690H524.525ZM553.136 690V672.044H555.895V690H553.136ZM554.539 669.052C554.001 669.052 553.537 668.869 553.148 668.502C552.766 668.136 552.575 667.696 552.575 667.181C552.575 666.667 552.766 666.227 553.148 665.86C553.537 665.494 554.001 665.311 554.539 665.311C555.077 665.311 555.536 665.494 555.918 665.86C556.308 666.227 556.503 666.667 556.503 667.181C556.503 667.696 556.308 668.136 555.918 668.502C555.536 668.869 555.077 669.052 554.539 669.052ZM563.707 679.199V690H560.948V672.044H563.613V674.85H563.847C564.268 673.938 564.907 673.205 565.764 672.652C566.621 672.091 567.728 671.81 569.084 671.81C570.3 671.81 571.364 672.06 572.275 672.559C573.187 673.05 573.896 673.798 574.403 674.803C574.91 675.801 575.163 677.063 575.163 678.591V690H572.404V678.778C572.404 677.367 572.038 676.268 571.305 675.481C570.573 674.686 569.567 674.289 568.289 674.289C567.409 674.289 566.621 674.48 565.928 674.862C565.242 675.243 564.7 675.801 564.303 676.533C563.905 677.266 563.707 678.154 563.707 679.199ZM582.215 690.187C581.638 690.187 581.143 689.981 580.73 689.567C580.317 689.154 580.111 688.66 580.111 688.083C580.111 687.506 580.317 687.011 580.73 686.598C581.143 686.185 581.638 685.979 582.215 685.979C582.791 685.979 583.286 686.185 583.699 686.598C584.112 687.011 584.319 687.506 584.319 688.083C584.319 688.465 584.222 688.815 584.027 689.135C583.84 689.454 583.586 689.712 583.267 689.906C582.955 690.094 582.604 690.187 582.215 690.187ZM524.478 730V727.896L532.381 719.245C533.308 718.232 534.072 717.352 534.672 716.603C535.272 715.847 535.716 715.138 536.005 714.476C536.301 713.806 536.449 713.104 536.449 712.372C536.449 711.53 536.246 710.801 535.841 710.186C535.443 709.57 534.898 709.095 534.204 708.759C533.511 708.424 532.731 708.257 531.866 708.257C530.947 708.257 530.144 708.448 529.458 708.83C528.78 709.204 528.254 709.73 527.88 710.408C527.514 711.086 527.331 711.881 527.331 712.792H524.572C524.572 711.39 524.895 710.158 525.542 709.098C526.189 708.039 527.07 707.212 528.184 706.62C529.306 706.028 530.565 705.732 531.96 705.732C533.363 705.732 534.606 706.028 535.689 706.62C536.772 707.212 537.622 708.011 538.237 709.017C538.853 710.022 539.161 711.14 539.161 712.372C539.161 713.252 539.001 714.113 538.682 714.955C538.37 715.789 537.824 716.72 537.045 717.749C536.273 718.77 535.202 720.017 533.83 721.49L528.453 727.241V727.428H539.582V730H524.478ZM557.175 716.066L554.697 716.767C554.541 716.354 554.311 715.953 554.007 715.563C553.711 715.165 553.306 714.838 552.791 714.581C552.277 714.324 551.618 714.195 550.816 714.195C549.717 714.195 548.801 714.449 548.069 714.955C547.344 715.454 546.981 716.089 546.981 716.861C546.981 717.546 547.231 718.088 547.73 718.485C548.228 718.883 549.008 719.214 550.067 719.479L552.733 720.134C554.338 720.523 555.534 721.12 556.322 721.922C557.109 722.717 557.502 723.742 557.502 724.997C557.502 726.025 557.206 726.945 556.614 727.756C556.029 728.566 555.211 729.205 554.159 729.673C553.107 730.14 551.883 730.374 550.488 730.374C548.657 730.374 547.141 729.977 545.941 729.182C544.741 728.387 543.981 727.226 543.661 725.698L546.28 725.043C546.529 726.01 547.001 726.735 547.694 727.218C548.396 727.701 549.312 727.943 550.442 727.943C551.727 727.943 552.748 727.67 553.504 727.124C554.268 726.571 554.65 725.909 554.65 725.137C554.65 724.514 554.432 723.991 553.995 723.571C553.559 723.142 552.889 722.822 551.985 722.612L548.992 721.911C547.348 721.521 546.14 720.917 545.368 720.099C544.604 719.273 544.223 718.24 544.223 717.001C544.223 715.988 544.507 715.091 545.076 714.312C545.653 713.533 546.436 712.921 547.426 712.477C548.423 712.033 549.553 711.81 550.816 711.81C552.593 711.81 553.988 712.2 555.001 712.979C556.022 713.759 556.746 714.788 557.175 716.066ZM565.723 730L560.252 712.044H563.151L567.032 725.792H567.22L571.054 712.044H574L577.787 725.745H577.974L581.855 712.044H584.754L579.284 730H576.571L572.644 716.206H572.363L568.435 730H565.723Z" fill="#FF0000"/>
<path d="M458 471V575.243" stroke="#46C147" stroke-width="2.74323"/>
<path d="M589 166V575.243" stroke="#46C147" stroke-width="2.74323"/>
<path d="M481 553.297H587" stroke="#46C147" stroke-width="2.74323"/>
<path d="M458 553.297L490.919 545.067V561.527L458 553.297Z" fill="#46C147"/>
<path d="M589 553.297L556.081 545.067V561.527L589 553.297Z" fill="#46C147"/>
<path d="M492.153 595V577.044H494.818V579.85H495.052C495.426 578.891 496.03 578.147 496.864 577.617C497.698 577.079 498.699 576.81 499.868 576.81C501.053 576.81 502.038 577.079 502.826 577.617C503.621 578.147 504.24 578.891 504.684 579.85H504.871C505.331 578.922 506.021 578.186 506.94 577.64C507.86 577.087 508.963 576.81 510.249 576.81C511.854 576.81 513.167 577.313 514.188 578.318C515.209 579.316 515.72 580.871 515.72 582.983V595H512.961V582.983C512.961 581.658 512.598 580.711 511.874 580.142C511.149 579.573 510.295 579.289 509.314 579.289C508.051 579.289 507.073 579.671 506.379 580.434C505.686 581.19 505.339 582.149 505.339 583.31V595H502.533V582.702C502.533 581.681 502.202 580.859 501.54 580.236C500.877 579.604 500.024 579.289 498.98 579.289C498.263 579.289 497.592 579.48 496.969 579.862C496.353 580.243 495.855 580.773 495.473 581.451C495.099 582.122 494.912 582.897 494.912 583.778V595H492.153ZM520.764 595V577.044H523.523V595H520.764ZM522.167 574.052C521.629 574.052 521.165 573.869 520.775 573.502C520.394 573.136 520.203 572.696 520.203 572.181C520.203 571.667 520.394 571.227 520.775 570.86C521.165 570.494 521.629 570.311 522.167 570.311C522.704 570.311 523.164 570.494 523.546 570.86C523.936 571.227 524.13 571.667 524.13 572.181C524.13 572.696 523.936 573.136 523.546 573.502C523.164 573.869 522.704 574.052 522.167 574.052ZM531.334 584.199V595H528.576V577.044H531.241V579.85H531.475C531.896 578.938 532.535 578.205 533.392 577.652C534.249 577.091 535.356 576.81 536.712 576.81C537.928 576.81 538.991 577.06 539.903 577.559C540.815 578.05 541.524 578.798 542.031 579.803C542.537 580.801 542.791 582.063 542.791 583.591V595H540.032V583.778C540.032 582.367 539.665 581.268 538.933 580.481C538.2 579.686 537.195 579.289 535.917 579.289C535.036 579.289 534.249 579.48 533.555 579.862C532.87 580.243 532.328 580.801 531.931 581.533C531.533 582.266 531.334 583.154 531.334 584.199ZM549.842 595.187C549.266 595.187 548.771 594.981 548.358 594.567C547.945 594.154 547.738 593.66 547.738 593.083C547.738 592.506 547.945 592.011 548.358 591.598C548.771 591.185 549.266 590.979 549.842 590.979C550.419 590.979 550.914 591.185 551.327 591.598C551.74 592.011 551.947 592.506 551.947 593.083C551.947 593.465 551.849 593.815 551.654 594.135C551.467 594.454 551.214 594.712 550.895 594.906C550.583 595.094 550.232 595.187 549.842 595.187ZM491.384 630.09V627.705L501.905 611.059H503.635V614.753H502.466L494.517 627.331V627.518H508.685V630.09H491.384ZM502.653 635V629.365V628.255V611.059H505.412V635H502.653ZM525.831 621.066L523.353 621.767C523.197 621.354 522.967 620.953 522.663 620.563C522.367 620.165 521.962 619.838 521.448 619.581C520.933 619.324 520.275 619.195 519.472 619.195C518.373 619.195 517.457 619.449 516.725 619.955C516 620.454 515.638 621.089 515.638 621.861C515.638 622.546 515.887 623.088 516.386 623.485C516.885 623.883 517.664 624.214 518.724 624.479L521.389 625.134C522.995 625.523 524.191 626.12 524.978 626.922C525.765 627.717 526.159 628.742 526.159 629.997C526.159 631.025 525.863 631.945 525.27 632.756C524.686 633.566 523.867 634.205 522.815 634.673C521.763 635.14 520.54 635.374 519.145 635.374C517.313 635.374 515.798 634.977 514.597 634.182C513.397 633.387 512.637 632.226 512.318 630.698L514.936 630.043C515.186 631.01 515.657 631.735 516.351 632.218C517.052 632.701 517.968 632.943 519.098 632.943C520.384 632.943 521.405 632.67 522.161 632.124C522.924 631.571 523.306 630.909 523.306 630.137C523.306 629.514 523.088 628.991 522.652 628.571C522.215 628.142 521.545 627.822 520.641 627.612L517.648 626.911C516.004 626.521 514.796 625.917 514.025 625.099C513.261 624.273 512.879 623.24 512.879 622.001C512.879 620.988 513.163 620.091 513.732 619.312C514.309 618.533 515.092 617.921 516.082 617.477C517.08 617.033 518.21 616.81 519.472 616.81C521.249 616.81 522.644 617.2 523.657 617.979C524.678 618.759 525.403 619.788 525.831 621.066ZM534.38 635L528.909 617.044H531.808L535.689 630.792H535.876L539.71 617.044H542.656L546.444 630.745H546.631L550.512 617.044H553.411L547.94 635H545.228L541.3 621.206H541.019L537.092 635H534.38Z" fill="#46C147"/>
<path d="M459 470.919H519" stroke="#FF0000" stroke-width="2.74323"/>
<path d="M352 320.919H519" stroke="#FF0000" stroke-width="2.74323"/>
<path d="M488.796 470.919V320.919" stroke="#FF0000" stroke-width="2.74323"/>
<path d="M488.796 470.919L480.566 503.838H497.026L488.796 470.919Z" fill="#FF0000"/>
<path d="M488.796 320.919L480.566 288H497.026L488.796 320.919Z" fill="#FF0000"/>
<path d="M504.524 382V364.044H507.189V366.85H507.423C507.797 365.891 508.401 365.147 509.235 364.617C510.069 364.079 511.07 363.81 512.239 363.81C513.424 363.81 514.41 364.079 515.197 364.617C515.992 365.147 516.611 365.891 517.056 366.85H517.243C517.702 365.922 518.392 365.186 519.312 364.64C520.231 364.087 521.334 363.81 522.62 363.81C524.225 363.81 525.539 364.313 526.559 365.318C527.58 366.316 528.091 367.871 528.091 369.983V382H525.332V369.983C525.332 368.658 524.97 367.711 524.245 367.142C523.52 366.573 522.667 366.289 521.685 366.289C520.422 366.289 519.444 366.671 518.751 367.434C518.057 368.19 517.71 369.149 517.71 370.31V382H514.905V369.702C514.905 368.681 514.573 367.859 513.911 367.236C513.249 366.604 512.395 366.289 511.351 366.289C510.634 366.289 509.964 366.48 509.34 366.862C508.725 367.243 508.226 367.773 507.844 368.451C507.47 369.122 507.283 369.897 507.283 370.778V382H504.524ZM533.135 382V364.044H535.894V382H533.135ZM534.538 361.052C534 361.052 533.536 360.869 533.147 360.502C532.765 360.136 532.574 359.696 532.574 359.181C532.574 358.667 532.765 358.227 533.147 357.86C533.536 357.494 534 357.311 534.538 357.311C535.076 357.311 535.535 357.494 535.917 357.86C536.307 358.227 536.502 358.667 536.502 359.181C536.502 359.696 536.307 360.136 535.917 360.502C535.535 360.869 535.076 361.052 534.538 361.052ZM543.706 371.199V382H540.947V364.044H543.612V366.85H543.846C544.267 365.938 544.906 365.205 545.763 364.652C546.62 364.091 547.727 363.81 549.083 363.81C550.299 363.81 551.363 364.06 552.274 364.559C553.186 365.05 553.895 365.798 554.402 366.803C554.909 367.801 555.162 369.063 555.162 370.591V382H552.403V370.778C552.403 369.367 552.037 368.268 551.304 367.481C550.572 366.686 549.566 366.289 548.288 366.289C547.407 366.289 546.62 366.48 545.927 366.862C545.241 367.243 544.699 367.801 544.302 368.533C543.904 369.266 543.706 370.154 543.706 371.199ZM562.214 382.187C561.637 382.187 561.142 381.981 560.729 381.567C560.316 381.154 560.11 380.66 560.11 380.083C560.11 379.506 560.316 379.011 560.729 378.598C561.142 378.185 561.637 377.979 562.214 377.979C562.79 377.979 563.285 378.185 563.698 378.598C564.111 379.011 564.318 379.506 564.318 380.083C564.318 380.465 564.221 380.815 564.026 381.135C563.839 381.454 563.585 381.712 563.266 381.906C562.954 382.094 562.603 382.187 562.214 382.187ZM512.894 398.059V422H509.995V401.098H509.855L504.01 404.979V402.034L509.995 398.059H512.894ZM519.779 422V419.896L527.682 411.245C528.609 410.232 529.373 409.352 529.973 408.603C530.573 407.847 531.017 407.138 531.306 406.476C531.602 405.806 531.75 405.104 531.75 404.372C531.75 403.53 531.547 402.801 531.142 402.186C530.744 401.57 530.199 401.095 529.505 400.759C528.812 400.424 528.032 400.257 527.167 400.257C526.248 400.257 525.445 400.448 524.759 400.83C524.081 401.204 523.555 401.73 523.181 402.408C522.815 403.086 522.632 403.881 522.632 404.792H519.873C519.873 403.39 520.196 402.158 520.843 401.098C521.49 400.039 522.371 399.212 523.485 398.62C524.607 398.028 525.866 397.732 527.261 397.732C528.664 397.732 529.907 398.028 530.99 398.62C532.073 399.212 532.923 400.011 533.538 401.017C534.154 402.022 534.462 403.14 534.462 404.372C534.462 405.252 534.302 406.113 533.983 406.955C533.671 407.789 533.125 408.72 532.346 409.749C531.574 410.77 530.503 412.017 529.131 413.49L523.754 419.241V419.428H534.883V422H519.779ZM552.476 408.066L549.998 408.767C549.842 408.354 549.612 407.953 549.308 407.563C549.012 407.165 548.607 406.838 548.092 406.581C547.578 406.324 546.919 406.195 546.117 406.195C545.018 406.195 544.102 406.449 543.37 406.955C542.645 407.454 542.282 408.089 542.282 408.861C542.282 409.546 542.532 410.088 543.031 410.485C543.529 410.883 544.309 411.214 545.369 411.479L548.034 412.134C549.639 412.523 550.836 413.12 551.623 413.922C552.41 414.717 552.803 415.742 552.803 416.997C552.803 418.025 552.507 418.945 551.915 419.756C551.33 420.566 550.512 421.205 549.46 421.673C548.408 422.14 547.184 422.374 545.789 422.374C543.958 422.374 542.442 421.977 541.242 421.182C540.042 420.387 539.282 419.226 538.962 417.698L541.581 417.043C541.83 418.01 542.302 418.735 542.996 419.218C543.697 419.701 544.613 419.943 545.743 419.943C547.029 419.943 548.049 419.67 548.805 419.124C549.569 418.571 549.951 417.909 549.951 417.137C549.951 416.514 549.733 415.991 549.296 415.571C548.86 415.142 548.19 414.822 547.286 414.612L544.293 413.911C542.649 413.521 541.441 412.917 540.669 412.099C539.905 411.273 539.524 410.24 539.524 409.001C539.524 407.988 539.808 407.091 540.377 406.312C540.954 405.533 541.737 404.921 542.727 404.477C543.724 404.033 544.854 403.81 546.117 403.81C547.894 403.81 549.289 404.2 550.302 404.979C551.323 405.759 552.047 406.788 552.476 408.066ZM561.024 422L555.553 404.044H558.453L562.334 417.792H562.521L566.355 404.044H569.301L573.088 417.745H573.275L577.156 404.044H580.055L574.585 422H571.873L567.945 408.206H567.664L563.736 422H561.024Z" fill="#FF0000"/>
<path d="M589 129.623V244.835" stroke="#46C147" stroke-width="3.03189"/>
<path d="M570.383 129.623V244.835" stroke="#46C147" stroke-width="3.03189"/>
<path d="M616.383 220.58H570.383" stroke="#46C147" stroke-width="3.03189"/>
<path d="M589 220.58L625.383 211.485V229.676L589 220.58Z" fill="#46C147"/>
<path d="M570.383 220.58L534 211.485V229.676L570.383 220.58Z" fill="#46C147"/>
<path d="M556.845 254.86V281.32H553.641V258.219H553.486L547.026 262.509V259.253L553.641 254.86H556.845ZM565.165 281.527C564.528 281.527 563.981 281.299 563.525 280.842C563.068 280.386 562.84 279.839 562.84 279.201C562.84 278.564 563.068 278.017 563.525 277.56C563.981 277.104 564.528 276.876 565.165 276.876C565.803 276.876 566.35 277.104 566.806 277.56C567.263 278.017 567.491 278.564 567.491 279.201C567.491 279.623 567.383 280.011 567.168 280.364C566.961 280.717 566.681 281.001 566.328 281.217C565.984 281.423 565.596 281.527 565.165 281.527ZM580.647 281.682C579.131 281.682 577.766 281.38 576.551 280.777C575.337 280.174 574.363 279.348 573.631 278.297C572.899 277.246 572.499 276.049 572.43 274.705H575.531C575.651 275.902 576.194 276.893 577.158 277.677C578.132 278.452 579.295 278.839 580.647 278.839C581.732 278.839 582.697 278.585 583.541 278.077C584.394 277.569 585.061 276.871 585.544 275.984C586.034 275.088 586.28 274.076 586.28 272.948C586.28 271.794 586.026 270.764 585.518 269.86C585.018 268.947 584.329 268.228 583.45 267.702C582.572 267.177 581.568 266.91 580.44 266.901C579.63 266.893 578.799 267.018 577.947 267.276C577.094 267.526 576.392 267.849 575.841 268.245L572.843 267.883L574.445 254.86H588.192V257.702H577.133L576.202 265.506H576.357C576.9 265.075 577.581 264.718 578.399 264.434C579.217 264.149 580.07 264.007 580.957 264.007C582.576 264.007 584.019 264.395 585.285 265.17C586.56 265.937 587.559 266.987 588.283 268.323C589.015 269.658 589.381 271.182 589.381 272.896C589.381 274.584 589.002 276.092 588.244 277.418C587.494 278.736 586.461 279.778 585.143 280.545C583.825 281.303 582.326 281.682 580.647 281.682ZM608.622 265.919L605.883 266.695C605.711 266.238 605.456 265.795 605.121 265.364C604.793 264.925 604.345 264.563 603.777 264.279C603.208 263.994 602.481 263.852 601.593 263.852C600.379 263.852 599.367 264.132 598.557 264.692C597.756 265.243 597.356 265.945 597.356 266.798C597.356 267.556 597.631 268.155 598.183 268.594C598.734 269.033 599.595 269.399 600.767 269.692L603.712 270.416C605.487 270.846 606.809 271.505 607.679 272.392C608.549 273.271 608.984 274.404 608.984 275.79C608.984 276.927 608.656 277.944 608.002 278.839C607.356 279.735 606.451 280.442 605.289 280.958C604.126 281.475 602.773 281.734 601.232 281.734C599.208 281.734 597.532 281.294 596.206 280.416C594.879 279.537 594.04 278.254 593.686 276.566L596.58 275.842C596.856 276.91 597.377 277.711 598.144 278.245C598.919 278.779 599.931 279.046 601.18 279.046C602.601 279.046 603.73 278.745 604.565 278.142C605.409 277.53 605.831 276.798 605.831 275.945C605.831 275.256 605.59 274.679 605.108 274.214C604.625 273.74 603.885 273.387 602.885 273.155L599.578 272.379C597.76 271.949 596.425 271.281 595.573 270.377C594.729 269.464 594.307 268.323 594.307 266.953C594.307 265.833 594.621 264.843 595.25 263.981C595.887 263.12 596.753 262.444 597.847 261.953C598.949 261.462 600.198 261.217 601.593 261.217C603.557 261.217 605.099 261.647 606.219 262.509C607.347 263.37 608.148 264.507 608.622 265.919ZM618.07 281.32L612.023 261.475H615.227L619.517 276.669H619.723L623.961 261.475H627.217L631.403 276.617H631.61L635.899 261.475H639.103L633.057 281.32H630.059L625.718 266.074H625.408L621.067 281.32H618.07Z" fill="#46C147"/>
<path d="M627.25 129.623H742.462" stroke="#FF0000" stroke-width="3.03189"/>
<path d="M571.25 129.623H742.462" stroke="#FF0000" stroke-width="3.03189"/>
<path d="M718.207 129.623L709.111 166.006H727.302L718.207 129.623Z" fill="#FF0000"/>
<path d="M718.207 129.623L709.111 93.2406H727.302L718.207 129.623Z" fill="#FF0000"/>
<path d="M773.012 139.183C771.065 139.183 769.407 138.653 768.038 137.594C766.668 136.526 765.622 134.98 764.898 132.955C764.175 130.923 763.813 128.468 763.813 125.591C763.813 122.731 764.175 120.29 764.898 118.265C765.63 116.233 766.681 114.682 768.051 113.614C769.429 112.538 771.082 111.999 773.012 111.999C774.941 111.999 776.591 112.538 777.96 113.614C779.338 114.682 780.389 116.233 781.113 118.265C781.845 120.29 782.211 122.731 782.211 125.591C782.211 128.468 781.849 130.923 781.126 132.955C780.402 134.98 779.356 136.526 777.986 137.594C776.617 138.653 774.958 139.183 773.012 139.183ZM773.012 136.34C774.941 136.34 776.44 135.41 777.508 133.55C778.576 131.689 779.11 129.036 779.11 125.591C779.11 123.3 778.865 121.349 778.374 119.738C777.891 118.128 777.194 116.9 776.281 116.056C775.376 115.212 774.287 114.79 773.012 114.79C771.1 114.79 769.605 115.733 768.529 117.619C767.452 119.497 766.914 122.154 766.914 125.591C766.914 127.882 767.155 129.829 767.637 131.431C768.12 133.033 768.813 134.252 769.717 135.087C770.63 135.923 771.728 136.34 773.012 136.34ZM801.229 123.42L798.49 124.196C798.318 123.739 798.064 123.296 797.728 122.865C797.401 122.426 796.953 122.064 796.384 121.78C795.816 121.495 795.088 121.353 794.201 121.353C792.986 121.353 791.974 121.633 791.164 122.193C790.363 122.744 789.963 123.446 789.963 124.299C789.963 125.057 790.239 125.656 790.79 126.095C791.341 126.534 792.202 126.9 793.374 127.193L796.32 127.917C798.094 128.347 799.416 129.006 800.286 129.893C801.156 130.772 801.591 131.905 801.591 133.291C801.591 134.428 801.264 135.445 800.609 136.34C799.963 137.236 799.059 137.943 797.896 138.459C796.733 138.976 795.381 139.235 793.839 139.235C791.815 139.235 790.139 138.795 788.813 137.917C787.487 137.038 786.647 135.755 786.294 134.067L789.188 133.343C789.463 134.411 789.984 135.212 790.751 135.746C791.526 136.28 792.538 136.547 793.787 136.547C795.208 136.547 796.337 136.246 797.172 135.643C798.016 135.031 798.438 134.299 798.438 133.446C798.438 132.757 798.197 132.18 797.715 131.715C797.233 131.241 796.492 130.888 795.493 130.656L792.185 129.88C790.368 129.45 789.033 128.782 788.18 127.878C787.336 126.965 786.914 125.824 786.914 124.454C786.914 123.334 787.228 122.344 787.857 121.482C788.494 120.621 789.36 119.945 790.454 119.454C791.556 118.963 792.805 118.718 794.201 118.718C796.165 118.718 797.706 119.148 798.826 120.01C799.954 120.871 800.755 122.008 801.229 123.42ZM810.677 138.821L804.63 118.976H807.835L812.124 134.17H812.331L816.568 118.976H819.824L824.01 134.118H824.217L828.507 118.976H831.711L825.664 138.821H822.667L818.326 123.575H818.015L813.674 138.821H810.677Z" fill="#FF0000"/>
</svg>
