<svg width="1015" height="1015" viewBox="0 0 1015 1015" fill="none" xmlns="http://www.w3.org/2000/svg">
<path d="M20.0001 57.5001C20.0001 36.7894 36.7894 20.0001 57.5001 20.0001H957.5C978.211 20.0001 995 36.7894 995 57.5001V957.5C995 978.211 978.211 995 957.5 995H57.5001C36.7894 995 20.0001 978.211 20.0001 957.5V57.5001Z" fill="white"/>
<path d="M38.7501 57.5001C38.7501 47.1447 47.1447 38.7501 57.5001 38.7501H957.5C967.855 38.7501 976.25 47.1447 976.25 57.5001V957.5C976.25 967.855 967.855 976.25 957.5 976.25H57.5001C47.1447 976.25 38.7501 967.855 38.7501 957.5V57.5001Z" fill="#0033A2"/>
<path d="M491.006 488.378V479.268H543.996V488.378H491.006ZM484.146 506.488V497.598H551.416V506.488H484.146ZM468.726 525.388V516.168H566.606V525.388H468.726ZM482.566 463.288V454.738H521.716V463.288H482.566ZM512.606 460.478V454.738H524.196C526.596 457.811 529.503 460.791 532.916 463.678C536.33 466.571 540.096 469.254 544.216 471.728C548.343 474.201 552.656 476.414 557.156 478.368C561.656 480.314 566.193 481.964 570.766 483.318C569.946 483.918 569.01 484.704 567.956 485.678C566.91 486.651 565.896 487.664 564.916 488.718C563.943 489.764 563.156 490.738 562.556 491.638C556.556 489.464 550.633 486.764 544.786 483.538C538.933 480.311 533.513 476.731 528.526 472.798C523.54 468.858 519.246 464.751 515.646 460.478H512.606ZM510.136 455.868L519.806 459.578C516.133 464.524 511.67 469.098 506.416 473.298C501.17 477.498 495.563 481.211 489.596 484.438C483.636 487.664 477.62 490.478 471.546 492.878C471.02 492.124 470.306 491.224 469.406 490.178C468.506 489.124 467.57 488.091 466.596 487.078C465.623 486.071 464.76 485.268 464.006 484.668C470.16 482.788 476.16 480.424 482.006 477.578C487.86 474.724 493.203 471.461 498.036 467.788C502.876 464.114 506.91 460.141 510.136 455.868ZM511.936 522.578V483.428H522.846V522.578H511.936ZM467.946 443.148V433.368H567.396V443.148H467.946ZM491.906 452.488V424.818H502.486V452.488H491.906ZM532.186 453.048V424.818H542.756V453.048" fill="white"/>
<path d="M654.271 432.58V427.07H673.951V432.58H654.271ZM653.591 450.92V445.52H674.741V450.92H653.591ZM653.591 459.35V454.07H674.741V459.35H653.591ZM637.171 512.68V505.82H694.201V512.68H637.171ZM650.331 442.03V436.07H677.331V442.03H650.331ZM667.991 468.24H660.001V474.65H667.991V468.24ZM653.361 479.83V463.07H674.851V479.83H653.361ZM639.081 501.09V494.68H685.761V489.84H632.101V483.43H695.671V501.09H639.081ZM635.251 481.4V455.87H642.341V481.4H635.251ZM625.021 459.8L624.231 452.94C627.531 452.794 631.225 452.644 635.311 452.49C639.398 452.344 643.728 452.157 648.301 451.93V458.12C644.101 458.494 640.035 458.794 636.101 459.02C632.161 459.24 628.468 459.5 625.021 459.8ZM636.041 494.68H645.941C645.041 498.28 644.068 502.03 643.021 505.93C641.968 509.83 640.991 513.204 640.091 516.05L630.531 514.7C631.578 511.927 632.591 508.72 633.571 505.08C634.545 501.447 635.368 497.98 636.041 494.68ZM690.831 506.94V505.82H700.841C700.841 505.82 700.805 506.324 700.731 507.33C700.658 508.344 700.508 509.19 700.281 509.87C699.228 514.517 698.138 518.17 697.011 520.83C695.891 523.497 694.581 525.43 693.081 526.63C691.808 527.53 690.438 528.147 688.971 528.48C687.511 528.82 685.768 529.027 683.741 529.1C682.015 529.18 679.558 529.2 676.371 529.16C673.185 529.12 669.791 529.027 666.191 528.88C666.118 527.68 665.818 526.33 665.291 524.83C664.765 523.33 664.128 521.98 663.381 520.78C666.908 521.154 670.321 521.377 673.621 521.45C676.921 521.53 679.245 521.57 680.591 521.57C681.791 521.57 682.765 521.53 683.511 521.45C684.265 521.377 684.905 521.154 685.431 520.78C686.478 519.954 687.435 518.47 688.301 516.33C689.161 514.197 690.005 511.067 690.831 506.94ZM643.691 463.85L649.091 462.62C649.691 464.494 650.271 466.554 650.831 468.8C651.398 471.054 651.831 473.004 652.131 474.65L646.281 476.23C646.128 474.504 645.808 472.497 645.321 470.21C644.835 467.924 644.291 465.804 643.691 463.85ZM643.351 448.55L648.191 446.75C649.165 448.63 650.065 450.73 650.891 453.05C651.718 455.377 652.281 457.404 652.581 459.13L647.291 461.15C647.065 459.43 646.578 457.407 645.831 455.08C645.078 452.754 644.251 450.577 643.351 448.55ZM625.351 439.67L628.951 434.27C631.131 435.69 633.268 437.32 635.361 439.16C637.468 441 639.045 442.594 640.091 443.94L636.041 450.13C634.915 448.557 633.341 446.794 631.321 444.84C629.295 442.894 627.305 441.17 625.351 439.67ZM636.041 424.48L642.451 427.63C640.951 430.104 639.451 432.617 637.951 435.17C636.451 437.717 635.028 439.854 633.681 441.58L628.731 438.99C629.931 437.044 631.245 434.664 632.671 431.85C634.091 429.037 635.215 426.58 636.041 424.48ZM643.241 433.82L649.541 437.42C647.068 440.794 644.425 444.354 641.611 448.1C638.798 451.854 636.155 455.004 633.681 457.55L628.951 454.63C630.531 452.757 632.221 450.62 634.021 448.22C635.821 445.82 637.525 443.344 639.131 440.79C640.745 438.244 642.115 435.92 643.241 433.82ZM627.831 462.17L634.471 463.63C633.791 466.557 632.965 469.48 631.991 472.4C631.018 475.327 629.968 477.84 628.841 479.94C628.168 479.494 627.191 478.987 625.911 478.42C624.638 477.86 623.591 477.394 622.771 477.02C624.045 474.92 625.091 472.574 625.911 469.98C626.738 467.394 627.378 464.79 627.831 462.17ZM687.231 481.4V455.87H694.431V481.4H687.231ZM676.881 459.8L676.201 452.94C679.655 452.794 683.538 452.644 687.851 452.49C692.165 452.344 696.758 452.194 701.631 452.04L701.511 458.23C697.091 458.53 692.798 458.81 688.631 459.07C684.471 459.337 680.555 459.58 676.881 459.8ZM696.001 463.85L701.741 462.17C702.715 464.417 703.671 466.89 704.611 469.59C705.545 472.29 706.201 474.617 706.581 476.57L700.621 478.48C700.321 476.527 699.721 474.164 698.821 471.39C697.921 468.617 696.981 466.104 696.001 463.85ZM695.101 448.33L700.391 445.97C701.665 447.917 702.845 450.07 703.931 452.43C705.025 454.797 705.795 456.88 706.241 458.68L700.501 461.27C700.128 459.47 699.435 457.35 698.421 454.91C697.408 452.47 696.301 450.277 695.101 448.33ZM676.431 439.44L680.251 434.38C682.205 435.727 684.155 437.284 686.101 439.05C688.055 440.81 689.555 442.404 690.601 443.83L686.221 449.68C685.241 448.18 683.835 446.454 682.001 444.5C680.161 442.554 678.305 440.867 676.431 439.44ZM687.451 424.59L693.871 427.85C692.291 430.33 690.715 432.824 689.141 435.33C687.568 437.844 686.068 440 684.641 441.8L679.691 439.22C680.965 437.267 682.351 434.884 683.851 432.07C685.351 429.257 686.551 426.764 687.451 424.59ZM695.441 433.37L701.741 436.97C699.195 440.344 696.421 443.904 693.421 447.65C690.421 451.404 687.571 454.554 684.871 457.1L680.251 454.18C681.978 452.307 683.778 450.17 685.651 447.77C687.531 445.37 689.331 442.894 691.051 440.34C692.778 437.794 694.241 435.47 695.441 433.37ZM679.691 462.17L686.221 463.74C685.695 466.514 684.945 469.344 683.971 472.23C682.991 475.124 681.941 477.58 680.821 479.6C680.221 479.227 679.321 478.72 678.121 478.08C676.921 477.447 675.871 476.944 674.971 476.57C676.165 474.47 677.138 472.18 677.891 469.7C678.638 467.227 679.238 464.717 679.691 462.17ZM603.191 433.25L609.381 426.28C611.255 427.254 613.221 428.434 615.281 429.82C617.348 431.207 619.281 432.594 621.081 433.98C622.881 435.374 624.345 436.707 625.471 437.98L619.051 445.85C618.005 444.577 616.598 443.19 614.831 441.69C613.071 440.19 611.178 438.71 609.151 437.25C607.131 435.784 605.145 434.45 603.191 433.25ZM600.831 463.29L606.681 455.98C608.628 456.88 610.671 457.987 612.811 459.3C614.951 460.614 616.938 461.924 618.771 463.23C620.611 464.544 622.131 465.8 623.331 467L617.141 475.1C616.015 473.9 614.535 472.59 612.701 471.17C610.861 469.744 608.891 468.337 606.791 466.95C604.691 465.564 602.705 464.344 600.831 463.29ZM612.641 527.87L603.081 522.47C604.508 519.47 606.025 515.98 607.631 512C609.245 508.027 610.895 503.827 612.581 499.4C614.275 494.98 615.831 490.63 617.251 486.35L625.691 491.75C624.491 495.73 623.141 499.82 621.641 504.02C620.141 508.22 618.641 512.344 617.141 516.39C615.641 520.444 614.141 524.27 612.641 527.87Z" fill="white"/>
<path d="M583.344 417.713H447.844V558.213H583.344V417.713Z" stroke="white" stroke-width="2" stroke-dasharray="5 5"/>
<path d="M720.844 417.713H585.344V558.213H720.844V417.713Z" stroke="white" stroke-width="2" stroke-dasharray="5 5"/>
<path d="M322.156 692.25L347.156 667.25V448.181C347.156 417.735 358.268 388.336 378.406 365.501C357.4 389.32 330.309 406.974 300.035 416.57C296.393 435.208 295.423 454.27 297.156 473.181V667.25L322.156 692.25Z" fill="white"/>
<path d="M291.906 860.765V849.735H391.356V860.765H291.906ZM337.246 856.715L347.926 854.125C350.333 862.979 353.58 871.229 357.666 878.875C361.753 886.529 366.776 893.222 372.736 898.955C378.703 904.695 385.623 909.215 393.496 912.515C392.596 913.262 391.64 914.235 390.626 915.435C389.613 916.635 388.656 917.855 387.756 919.095C386.856 920.335 386.106 921.442 385.506 922.415C377.18 918.515 369.923 913.359 363.736 906.945C357.55 900.532 352.32 893.089 348.046 884.615C343.773 876.142 340.173 866.842 337.246 856.715ZM335.556 818.355H347.146C347.146 823.675 347.013 829.392 346.746 835.505C346.486 841.619 345.906 847.902 345.006 854.355C344.106 860.802 342.643 867.252 340.616 873.705C338.596 880.152 335.783 886.375 332.176 892.375C328.583 898.375 323.973 903.945 318.346 909.085C312.72 914.219 305.856 918.699 297.756 922.525C296.856 921.099 295.656 919.542 294.156 917.855C292.656 916.169 291.156 914.762 289.656 913.635C297.456 910.115 304.036 906.009 309.396 901.315C314.763 896.629 319.113 891.529 322.446 886.015C325.786 880.509 328.356 874.792 330.156 868.865C331.956 862.939 333.233 857.012 333.986 851.085C334.733 845.165 335.183 839.429 335.336 833.875C335.483 828.329 335.556 823.155 335.556 818.355Z" fill="white"/>
<path d="M447.299 856.378V850.308H510.639V856.378H447.299ZM447.859 898.908V892.718H510.749V898.908H447.859ZM478.569 906.328V875.168H488.139V906.328H478.569ZM494.099 865.378H463.389V871.568H494.099V865.378ZM454.389 876.628V860.088H503.549V876.628H454.389ZM470.359 832.978L479.249 834.108C478.422 837.181 477.482 840.441 476.429 843.888C475.382 847.341 474.409 850.304 473.509 852.778H464.169C465.222 850.078 466.309 846.891 467.429 843.218C468.555 839.544 469.532 836.131 470.359 832.978ZM453.819 844.788V839.058H500.959V853.568H492.069V844.788H453.819ZM431.319 922.868V822.968H526.499V922.868H516.039V832.638H441.449V922.868H431.319ZM437.739 918.368V908.688H521.659V918.368H437.739ZM455.739 897.108V880.788H505.909V886.868H464.059V897.108" fill="white"/>
<path d="M408.656 811.25H273.156V951.75H408.656V811.25Z" stroke="white" stroke-width="2" stroke-dasharray="5 5"/>
<path d="M546.156 811.25H410.656V951.75H546.156V811.25Z" stroke="white" stroke-width="2" stroke-dasharray="5 5"/>
<path d="M546.019 275.9L518.831 298.713C483.936 293.672 450.714 280.501 421.844 260.263C423.889 226.281 415.978 192.441 399.081 162.888C425.358 208.842 471.025 240.432 523.294 248.813L546.019 275.9Z" fill="white"/>
<path d="M448.363 334.763V323.743H499.033V334.763H479.753V394.063H467.643V334.763" fill="white"/>
<path d="M541.752 349.99L541.202 350.73L540.652 351.28L540.102 351.65L539.362 352.75L539.002 353.12L538.632 353.3C538.232 353.853 537.866 354.28 537.532 354.58L535.142 357.34C530.062 354.066 525.856 352.43 522.522 352.43C519.096 352.43 516.572 354.126 514.952 357.52C515.012 359.513 515.806 360.983 517.332 361.93C518.006 362.11 518.496 362.293 518.802 362.48C519.996 362.66 520.976 362.903 521.742 363.21C533.336 364.07 539.822 368.723 541.202 377.17C541.262 377.536 541.292 377.893 541.292 378.24C541.292 378.593 541.292 378.94 541.292 379.28C541.292 385.426 538.692 390.046 533.492 393.14C529.759 394.82 526.009 395.66 522.242 395.66C515.082 395.66 507.939 392.616 500.812 386.53L501.182 385.8L502.092 384.88C502.706 384.146 503.259 383.593 503.752 383.22C503.872 383.006 503.992 382.886 504.112 382.86L504.482 382.31C504.602 382.096 504.726 381.973 504.852 381.94L505.032 381.57L505.402 381.39L507.792 378.63C512.319 382.916 517.059 385.06 522.012 385.06C524.092 385.06 526.206 384.693 528.352 383.96C528.899 383.226 529.449 382.676 530.002 382.31C530.189 381.576 530.282 380.886 530.282 380.24C530.282 378.646 529.762 377.316 528.722 376.25L524.492 374.78C511.886 374.013 505.032 368.626 503.932 358.62C504.759 348.553 510.449 343.17 521.002 342.47H521.652C529.759 342.47 536.459 344.976 541.752 349.99Z" fill="white"/>
<path d="M554.131 379.738V343.938H565.151V375.698C565.271 375.852 565.331 376.035 565.331 376.248C565.458 376.342 565.521 376.432 565.521 376.518V376.618C565.734 377.992 566.038 379.215 566.431 380.288C568.544 383.222 571.254 384.688 574.561 384.688H574.701C578.801 383.588 581.674 381.325 583.321 377.898V377.348L584.061 375.148V343.938H595.261V394.058H584.061V390.018C579.654 393.625 575.264 395.428 570.891 395.428C567.491 395.428 564.048 394.358 560.561 392.218C557.714 390.045 555.754 387.475 554.681 384.508L554.501 383.218C554.228 382.332 554.091 381.462 554.091 380.608V380.198C554.091 380.045 554.104 379.892 554.131 379.738Z" fill="white"/>
<path d="M653.68 364.507L653.86 367.257C653.98 367.41 654.04 367.593 654.04 367.807V373.317H620.45C621.15 379.557 624.33 383.23 629.99 384.337C630.91 384.423 631.813 384.467 632.7 384.467C637.32 384.467 641.253 382.953 644.5 379.927C644.893 380.6 645.383 381.15 645.97 381.577L646.15 382.127L646.7 382.677C647.126 383.077 647.493 383.453 647.8 383.807C648.106 384.16 648.353 384.52 648.54 384.887C648.753 385.007 648.873 385.127 648.9 385.247L651.47 388.187C645.656 393.053 639.46 395.487 632.88 395.487C631.753 395.487 630.606 395.41 629.44 395.257C628.28 395.103 627.116 394.89 625.95 394.617C615.363 391.097 609.55 383.507 608.51 371.847C608.51 371.693 608.503 371.387 608.49 370.927C608.476 370.473 608.47 370.183 608.47 370.057C608.47 354.117 615.643 345.043 629.99 342.837C644.25 343.33 652.146 350.553 653.68 364.507ZM620.26 364.687H642.48V364.137C642.353 363.77 642.29 363.403 642.29 363.037V362.667C641.983 361.993 641.8 361.383 641.74 360.837C639.48 355.603 635.746 352.97 630.54 352.937C623.993 354.497 620.566 358.413 620.26 364.687Z" fill="white"/>
<path d="M706.894 352.75V353.3C707.294 354.033 707.541 354.766 707.634 355.5V393.87H696.434V361.38L696.244 360.28C694.717 355.653 692.147 353.34 688.534 353.34C687.434 353.34 686.211 353.57 684.864 354.03C681.804 355.35 679.601 357.433 678.254 360.28L677.524 363.4V393.87H666.504V343.75H677.524V347.97C680.951 344.91 684.684 343.076 688.724 342.47H689.544C697.744 342.47 703.527 345.896 706.894 352.75Z" fill="white"/>
<path d="M746.035 324.297V323.927H758.705L758.885 325.217L759.075 325.767L759.435 327.057L759.805 329.257L760.355 331.087L760.725 333.297L761.275 335.127L761.455 336.597C761.668 337.117 761.792 337.547 761.825 337.887L762.005 338.617L762.375 339.717V340.457C762.495 340.55 762.555 340.64 762.555 340.727V341.377C762.895 342.05 763.082 342.783 763.115 343.577L763.475 344.677L763.845 345.967L764.215 348.167L764.765 349.997L764.945 351.107L766.045 355.697C766.138 356.123 766.225 356.513 766.305 356.867C766.378 357.213 766.415 357.557 766.415 357.897L766.785 358.627V359.367L767.145 360.287V361.017L767.515 361.747V362.487C767.855 363.407 768.038 364.203 768.065 364.877L768.255 365.607C768.468 366.22 768.635 366.787 768.755 367.307C768.875 367.827 768.952 368.3 768.985 368.727L769.355 370.197L769.725 371.477L770.085 370.377L770.825 366.707L771.185 365.787L771.375 364.687L771.925 362.117L772.295 360.837V360.287L773.025 357.347L773.205 356.247L773.575 355.507L773.755 354.777L773.945 353.857V353.127L774.125 352.567L774.865 349.637L775.225 347.427L775.415 346.697L775.775 345.967C775.842 344.987 776.025 344.127 776.325 343.387L776.515 342.477V341.927L776.885 340.457L777.065 339.907L777.615 337.517L777.795 336.417L778.165 335.317L778.345 334.397L778.895 332.007L779.085 331.087L779.265 330.727C779.298 330.387 779.338 330.057 779.385 329.737C779.432 329.417 779.515 329.133 779.635 328.887L779.815 328.337V327.787L780.005 327.057L780.185 326.497L780.735 323.927H794.325V324.477C794.752 325.55 794.995 326.593 795.055 327.607L795.425 329.067L795.605 329.627L796.345 332.927L796.705 334.397C796.952 335.283 797.075 336.017 797.075 336.597C797.288 337.117 797.412 337.547 797.445 337.887L797.805 339.167L797.995 340.457L798.175 341.187L798.365 341.737C798.452 342.137 798.528 342.497 798.595 342.817C798.655 343.137 798.698 343.45 798.725 343.757C798.972 344.337 799.142 344.873 799.235 345.367C799.328 345.853 799.405 346.297 799.465 346.697L799.645 347.797L800.015 348.717L800.195 349.817V350.367C800.502 351.1 800.685 351.773 800.745 352.387L800.935 353.487C801.235 354.22 801.418 354.893 801.485 355.507L801.665 356.427L802.215 358.447V359.177C802.335 359.457 802.395 359.763 802.395 360.097C802.735 360.803 802.922 361.417 802.955 361.937L803.135 362.857L803.315 363.957L803.505 364.687C803.812 365.633 803.995 366.49 804.055 367.257C804.175 367.35 804.235 367.443 804.235 367.537V368.177C804.662 369.25 804.908 370.29 804.975 371.297C805.155 371.237 805.275 371.113 805.335 370.927C805.488 370.167 805.642 369.503 805.795 368.937C805.948 368.37 806.102 367.873 806.255 367.447V366.707C806.655 365.607 806.898 364.627 806.985 363.767L807.355 362.487L808.095 359.547L808.275 358.077L808.645 356.797L808.825 356.247V355.697C809.038 355.11 809.208 354.58 809.335 354.107C809.455 353.633 809.528 353.183 809.555 352.757L809.925 351.467L811.395 345.407L811.945 342.477L812.315 341.007C812.648 340.12 812.832 339.387 812.865 338.807L813.045 337.887L813.415 336.417C813.688 335.53 813.872 334.797 813.965 334.217L814.145 333.477L814.705 330.907L815.065 329.807V329.257L815.615 327.787V327.057L815.805 326.497L816.355 323.927H828.835L828.105 327.607L827.555 329.807L827.365 330.357L826.815 332.927L826.455 334.397L826.085 335.677L825.345 339.357L824.985 340.637L824.245 344.127L823.885 345.407L823.695 345.967L823.325 347.977L823.145 348.347L822.965 349.637C822.658 350.643 822.475 351.5 822.415 352.207L821.675 354.407L821.495 355.697L821.305 356.427L821.125 356.977L820.945 358.267L820.755 358.817L819.655 363.407L819.475 364.687L819.105 365.977L818.185 369.647L818.005 370.927L816.905 375.517L816.355 378.087C816.015 379.007 815.832 379.803 815.805 380.477L815.065 382.867V383.597C814.732 384.517 814.548 385.313 814.515 385.987C814.208 386.993 814.025 387.85 813.965 388.557L813.595 389.837L813.415 390.207L813.235 391.497C812.928 392.503 812.745 393.36 812.685 394.067H799.095L798.915 392.597C798.702 392.077 798.578 391.647 798.545 391.307L798.175 389.837L797.995 388.557L797.625 387.267C797.532 386.9 797.455 386.55 797.395 386.217C797.335 385.877 797.288 385.553 797.255 385.247L797.075 384.517L796.895 383.597C796.768 383.443 796.705 383.26 796.705 383.047L796.525 382.127L796.345 381.577C796.252 381.183 796.175 380.823 796.115 380.497C796.048 380.177 796.002 379.863 795.975 379.557C795.762 378.977 795.602 378.443 795.495 377.957C795.388 377.463 795.302 377.02 795.235 376.627L795.055 375.887L794.875 374.967C794.748 374.6 794.662 374.25 794.615 373.917C794.575 373.577 794.538 373.253 794.505 372.947C794.292 372.34 794.125 371.76 794.005 371.207C793.878 370.653 793.802 370.133 793.775 369.647C793.648 369.493 793.585 369.31 793.585 369.097L793.405 368.357L793.225 367.807C793.132 367.167 793.008 366.557 792.855 365.977L792.485 364.317L792.305 363.217L791.935 362.307L791.565 360.097L791.385 359.547V358.997C791.078 358.263 790.895 357.59 790.835 356.977L790.465 354.777L790.095 353.857L789.735 352.387V351.657C789.368 350.643 789.185 349.787 789.185 349.087C789.058 348.933 788.995 348.75 788.995 348.537L788.815 347.977V347.427C788.508 346.727 788.325 345.993 788.265 345.227C787.958 344.247 787.775 343.33 787.715 342.477L787.345 343.207L787.165 344.307L786.615 346.697L786.245 348.717L786.055 349.267L785.325 352.387L785.145 353.127L784.775 354.957L784.595 355.697L784.225 357.717L784.045 358.267L783.305 361.747L782.935 363.037L782.755 364.317C782.422 365.237 782.238 366.033 782.205 366.707L782.025 367.077L781.835 368.177L781.655 368.727L780.735 373.317L780.555 373.867L779.815 377.357L779.635 378.087L779.455 379.007L779.265 379.557L778.535 383.047L778.165 384.517L777.795 386.357L777.615 386.717L777.245 388.377L777.065 389.107L776.885 390.387C776.665 391.153 776.542 391.767 776.515 392.227C776.388 392.533 776.305 392.823 776.265 393.097C776.218 393.377 776.178 393.637 776.145 393.877C775.718 393.943 775.328 393.997 774.975 394.037C774.622 394.083 774.278 394.107 773.945 394.107H773.485C773.332 394.107 773.178 394.093 773.025 394.067H762.375V393.327C761.948 392.227 761.705 391.187 761.645 390.207C761.518 390.053 761.455 389.87 761.455 389.657L761.275 388.737C760.602 386.563 760.172 384.727 759.985 383.227L759.805 382.677L758.885 379.197L758.705 377.727L757.235 372.037V371.297C756.928 370.597 756.745 369.863 756.685 369.097L756.315 367.997L755.955 366.707V366.157L755.035 362.487V361.937L754.845 361.197L754.485 360.467L754.295 358.997C754.055 358.263 753.858 357.59 753.705 356.977C753.552 356.363 753.445 355.813 753.385 355.327L753.195 354.777V354.227C753.075 354.073 753.015 353.89 753.015 353.677L752.645 352.207L752.465 351.657C752.338 351.01 752.222 350.427 752.115 349.907C752.008 349.387 751.878 348.93 751.725 348.537L751.545 347.247C751.332 346.633 751.162 346.067 751.035 345.547C750.915 345.027 750.838 344.553 750.805 344.127L750.625 343.207C750.505 343.053 750.445 342.87 750.445 342.657L749.525 338.987L749.155 337.697L748.975 336.787L748.795 336.047L748.605 334.767C748.358 334.12 748.235 333.567 748.235 333.107V332.927L747.875 332.007L747.685 331.277C747.565 330.39 747.382 329.653 747.135 329.067V328.337C747.015 328.183 746.955 328 746.955 327.787" fill="white"/>
<path d="M872.409 348.347L872.969 349.447C874.403 351.227 875.319 353.064 875.719 354.957C875.839 355.751 875.929 356.494 875.989 357.187C876.056 357.874 876.089 358.477 876.089 358.997V383.227C877.216 385.467 878.866 386.814 881.039 387.267L880.679 387.817C880.553 388.037 880.429 388.161 880.309 388.187L880.129 388.737L879.759 389.107C879.453 389.781 879.086 390.331 878.659 390.757C878.226 391.891 877.673 392.747 876.999 393.327C876.726 393.941 876.466 394.471 876.219 394.917C875.979 395.357 875.753 395.747 875.539 396.087C871.959 395.167 869.143 393.514 867.089 391.127H866.539C862.593 393.974 858.523 395.397 854.329 395.397C852.063 395.397 849.829 395.014 847.629 394.247C841.049 391.894 837.073 387.611 835.699 381.397V381.167C835.699 369.327 842.629 363.407 856.489 363.407H856.629C856.903 363.281 857.206 363.217 857.539 363.217L858.089 363.037H859.379L859.929 362.857H860.479L865.069 362.307C865.129 361.967 865.159 361.661 865.159 361.387V360.467C865.159 355.354 862.453 352.797 857.039 352.797C853.273 352.797 848.116 354.067 841.569 356.607L840.839 354.957L840.469 353.857L840.099 353.487L839.919 353.127L839.549 352.017C839.216 351.471 838.973 350.921 838.819 350.367C838.173 349.514 837.743 348.657 837.529 347.797L838.079 347.617L838.449 347.427L838.999 347.247L839.369 346.877H839.919C840.039 346.757 840.146 346.697 840.239 346.697H840.289C841.389 346.117 842.366 345.687 843.219 345.407L844.139 345.227C844.813 344.921 845.426 344.737 845.979 344.677L847.449 344.307C848.516 343.881 849.556 343.637 850.569 343.577L854.609 342.837C855.216 342.777 855.803 342.724 856.369 342.677C856.936 342.631 857.496 342.607 858.049 342.607C863.889 342.607 868.676 344.521 872.409 348.347ZM860.659 371.667H859.559C859.286 371.727 859.019 371.774 858.759 371.807C858.499 371.834 858.246 371.847 857.999 371.847H857.729L856.989 372.037H856.439C856.286 372.157 856.103 372.217 855.889 372.217H855.339L852.399 372.947H851.849C850.996 373.441 850.263 373.747 849.649 373.867C847.663 375.767 846.669 377.604 846.669 379.377C846.669 380.997 847.479 382.587 849.099 384.147C851.453 385.587 853.746 386.307 855.979 386.307C858.826 386.307 861.549 385.161 864.149 382.867C864.396 382.161 864.643 381.671 864.889 381.397L865.069 380.847L864.889 380.107V371.477H861.219C861.066 371.604 860.879 371.667 860.659 371.667Z" fill="white"/>
<path d="M934.894 352.75V353.3C935.294 354.033 935.541 354.766 935.634 355.5V393.87H924.434V361.38L924.244 360.28C922.717 355.653 920.147 353.34 916.534 353.34C915.434 353.34 914.211 353.57 912.864 354.03C909.804 355.35 907.601 357.433 906.254 360.28L905.524 363.4V393.87H894.504V343.75H905.524V347.97C908.951 344.91 912.684 343.076 916.724 342.47H917.544C925.744 342.47 931.527 345.896 934.894 352.75Z" fill="white"/>
<path d="M498.344 317.713H447.844V415.713H498.344V317.713Z" stroke="white" stroke-width="2" stroke-dasharray="5 5"/>
<path d="M545.844 317.713H500.344V415.713H545.844V317.713Z" stroke="white" stroke-width="2" stroke-dasharray="5 5"/>
<path d="M603.344 317.713H547.844V415.713H603.344V317.713Z" stroke="white" stroke-width="2" stroke-dasharray="5 5"/>
<path d="M657.844 317.713H605.344V415.713H657.844V317.713Z" stroke="white" stroke-width="2" stroke-dasharray="5 5"/>
<path d="M713.844 317.713H659.844V415.713H713.844V317.713Z" stroke="white" stroke-width="2" stroke-dasharray="5 5"/>
<path d="M738.844 317.713H715.844V415.713H738.844V317.713Z" stroke="white" stroke-width="2" stroke-dasharray="5 5"/>
<path d="M830.344 317.713H740.844V415.713H830.344V317.713Z" stroke="white" stroke-width="2" stroke-dasharray="5 5"/>
<path d="M885.844 317.713H832.344V415.713H885.844V317.713Z" stroke="white" stroke-width="2" stroke-dasharray="5 5"/>
<path d="M941.844 317.713H887.844V415.713H941.844V317.713Z" stroke="white" stroke-width="2" stroke-dasharray="5 5"/>
<path d="M172.156 812.25V473.356C172.156 437.786 157.002 403.901 130.49 380.188C154.161 401.36 183.147 415.691 214.341 421.646C219.198 438.467 221.826 455.852 222.156 473.356V812.25H172.156Z" fill="white"/>
<path d="M247.156 74.7501C338.943 74.7503 415.133 145.667 421.706 237.218C428.279 328.769 363.002 409.842 272.156 422.955V372.225C337.402 358.908 380.753 296.78 370.736 230.947C360.719 165.114 300.851 118.691 234.598 125.383C168.344 132.074 118.968 189.531 122.317 256.037C125.666 322.544 180.565 374.749 247.156 374.75V424.75C150.506 424.75 72.1562 346.4 72.1562 249.75C72.1562 153.1 150.506 74.7501 247.156 74.7501Z" fill="white"/>
<path d="M322.156 692.25L347.156 667.25V448.181C347.156 417.735 358.268 388.336 378.406 365.501C357.4 389.32 330.309 406.974 300.035 416.57C296.393 435.208 295.423 454.27 297.156 473.181V667.25L322.156 692.25Z" fill="white"/>
<path d="M273.676 731.3V720.28H324.346V731.3H305.066V790.6H292.956V731.3" fill="white"/>
<path d="M363.972 744.885L364.532 745.985C365.965 747.765 366.882 749.601 367.282 751.495C367.402 752.288 367.492 753.031 367.552 753.725C367.618 754.411 367.652 755.015 367.652 755.535V779.765C368.778 782.005 370.428 783.351 372.602 783.805L372.242 784.355C372.115 784.575 371.992 784.698 371.872 784.725L371.692 785.275L371.322 785.645C371.015 786.318 370.648 786.868 370.222 787.295C369.788 788.428 369.235 789.285 368.562 789.865C368.288 790.478 368.028 791.008 367.782 791.455C367.542 791.895 367.315 792.285 367.102 792.625C363.522 791.705 360.705 790.051 358.652 787.665H358.102C354.155 790.511 350.085 791.935 345.892 791.935C343.625 791.935 341.392 791.551 339.192 790.785C332.612 788.431 328.635 784.148 327.262 777.935V777.705C327.262 765.865 334.192 759.945 348.052 759.945H348.192C348.465 759.818 348.768 759.755 349.102 759.755L349.652 759.575H350.942L351.492 759.395H352.042L356.632 758.845C356.692 758.505 356.722 758.198 356.722 757.925V757.005C356.722 751.891 354.015 749.335 348.602 749.335C344.835 749.335 339.678 750.605 333.132 753.145L332.402 751.495L332.032 750.395L331.662 750.025L331.482 749.665L331.112 748.555C330.778 748.008 330.535 747.458 330.382 746.905C329.735 746.051 329.305 745.195 329.092 744.335L329.642 744.155L330.012 743.965L330.562 743.785L330.932 743.415H331.482C331.602 743.295 331.708 743.235 331.802 743.235H331.852C332.952 742.655 333.928 742.225 334.782 741.945L335.702 741.765C336.375 741.458 336.988 741.275 337.542 741.215L339.012 740.845C340.078 740.418 341.118 740.175 342.132 740.115L346.172 739.375C346.778 739.315 347.365 739.261 347.932 739.215C348.498 739.168 349.058 739.145 349.612 739.145C355.452 739.145 360.238 741.058 363.972 744.885ZM352.222 768.205H351.122C350.848 768.265 350.582 768.311 350.322 768.345C350.062 768.371 349.808 768.385 349.562 768.385H349.292L348.552 768.575H348.002C347.848 768.695 347.665 768.755 347.452 768.755H346.902L343.962 769.485H343.412C342.558 769.978 341.825 770.285 341.212 770.405C339.225 772.305 338.232 774.141 338.232 775.915C338.232 777.535 339.042 779.125 340.662 780.685C343.015 782.125 345.308 782.845 347.542 782.845C350.388 782.845 353.112 781.698 355.712 779.405C355.958 778.698 356.205 778.208 356.452 777.935L356.632 777.385L356.452 776.645V768.015H352.782C352.628 768.141 352.442 768.205 352.222 768.205Z" fill="white"/>
<path d="M383.588 790.781V740.661H394.788V790.781H383.588ZM395.888 725.971V726.571C395.888 729.111 395.091 731.175 393.498 732.761C391.818 733.588 390.271 734.001 388.858 734.001C386.411 734.001 384.471 732.671 383.038 730.011C382.758 728.938 382.618 727.991 382.618 727.171C382.618 724.045 384.348 721.931 387.808 720.831H388.268C392.155 720.831 394.695 722.545 395.888 725.971Z" fill="white"/>
<path d="M434.848 720.834V720.464H447.518L447.698 721.754L447.888 722.304L448.248 723.594L448.618 725.794L449.168 727.624L449.538 729.834L450.088 731.664L450.268 733.134C450.481 733.654 450.604 734.084 450.638 734.424L450.818 735.154L451.188 736.254V736.994C451.308 737.087 451.368 737.177 451.368 737.264V737.914C451.708 738.587 451.894 739.321 451.928 740.114L452.288 741.214L452.658 742.504L453.028 744.704L453.578 746.534L453.758 747.644L454.858 752.234C454.951 752.661 455.038 753.051 455.118 753.404C455.191 753.751 455.228 754.094 455.228 754.434L455.598 755.164V755.904L455.958 756.824V757.554L456.328 758.284V759.024C456.668 759.944 456.851 760.741 456.878 761.414L457.068 762.144C457.281 762.757 457.448 763.324 457.568 763.844C457.688 764.364 457.764 764.837 457.798 765.264L458.168 766.734L458.538 768.014L458.898 766.914L459.638 763.244L459.998 762.324L460.188 761.224L460.738 758.654L461.108 757.374V756.824L461.838 753.884L462.018 752.784L462.388 752.044L462.568 751.314L462.758 750.394V749.664L462.938 749.104L463.678 746.174L464.038 743.964L464.228 743.234L464.588 742.504C464.654 741.524 464.838 740.664 465.138 739.924L465.328 739.014V738.464L465.698 736.994L465.878 736.444L466.428 734.054L466.608 732.954L466.978 731.854L467.158 730.934L467.708 728.544L467.898 727.624L468.078 727.264C468.111 726.924 468.151 726.594 468.198 726.274C468.244 725.954 468.328 725.671 468.448 725.424L468.628 724.874V724.324L468.818 723.594L468.998 723.034L469.548 720.464H483.138V721.014C483.564 722.087 483.808 723.131 483.868 724.144L484.238 725.604L484.418 726.164L485.158 729.464L485.518 730.934C485.764 731.821 485.888 732.554 485.888 733.134C486.101 733.654 486.224 734.084 486.258 734.424L486.618 735.704L486.808 736.994L486.988 737.724L487.178 738.274C487.264 738.674 487.341 739.034 487.408 739.354C487.468 739.674 487.511 739.987 487.538 740.294C487.784 740.874 487.954 741.411 488.048 741.904C488.141 742.391 488.218 742.834 488.278 743.234L488.458 744.334L488.828 745.254L489.008 746.354V746.904C489.314 747.637 489.498 748.311 489.558 748.924L489.748 750.024C490.048 750.757 490.231 751.431 490.298 752.044L490.478 752.964L491.028 754.984V755.714C491.148 755.994 491.208 756.301 491.208 756.634C491.548 757.341 491.734 757.954 491.768 758.474L491.948 759.394L492.128 760.494L492.318 761.224C492.624 762.171 492.808 763.027 492.868 763.794C492.988 763.887 493.048 763.981 493.048 764.074V764.714C493.474 765.787 493.721 766.827 493.788 767.834C493.968 767.774 494.088 767.651 494.148 767.464C494.301 766.704 494.454 766.041 494.608 765.474C494.761 764.907 494.914 764.411 495.068 763.984V763.244C495.468 762.144 495.711 761.164 495.798 760.304L496.168 759.024L496.908 756.084L497.088 754.614L497.458 753.334L497.638 752.784V752.234C497.851 751.647 498.021 751.117 498.148 750.644C498.268 750.171 498.341 749.721 498.368 749.294L498.738 748.004L500.208 741.944L500.758 739.014L501.128 737.544C501.461 736.657 501.644 735.924 501.678 735.344L501.858 734.424L502.228 732.954C502.501 732.067 502.684 731.334 502.778 730.754L502.958 730.014L503.518 727.444L503.878 726.344V725.794L504.428 724.324V723.594L504.618 723.034L505.168 720.464H517.648L516.918 724.144L516.368 726.344L516.178 726.894L515.628 729.464L515.268 730.934L514.898 732.214L514.158 735.894L513.798 737.174L513.058 740.664L512.698 741.944L512.508 742.504L512.138 744.514L511.958 744.884L511.778 746.174C511.471 747.181 511.288 748.037 511.228 748.744L510.488 750.944L510.308 752.234L510.118 752.964L509.938 753.514L509.758 754.804L509.568 755.354L508.468 759.944L508.288 761.224L507.918 762.514L506.998 766.184L506.818 767.464L505.718 772.054L505.168 774.624C504.828 775.544 504.644 776.341 504.618 777.014L503.878 779.404V780.134C503.544 781.054 503.361 781.851 503.328 782.524C503.021 783.531 502.838 784.387 502.778 785.094L502.408 786.374L502.228 786.744L502.048 788.034C501.741 789.041 501.558 789.897 501.498 790.604H487.908L487.728 789.134C487.514 788.614 487.391 788.184 487.358 787.844L486.988 786.374L486.808 785.094L486.438 783.804C486.344 783.437 486.268 783.087 486.208 782.754C486.148 782.414 486.101 782.091 486.068 781.784L485.888 781.054L485.708 780.134C485.581 779.981 485.518 779.797 485.518 779.584L485.338 778.664L485.158 778.114C485.064 777.721 484.988 777.361 484.928 777.034C484.861 776.714 484.814 776.401 484.788 776.094C484.574 775.514 484.414 774.981 484.308 774.494C484.201 774.001 484.114 773.557 484.048 773.164L483.868 772.424L483.688 771.504C483.561 771.137 483.474 770.787 483.428 770.454C483.388 770.114 483.351 769.791 483.318 769.484C483.104 768.877 482.938 768.297 482.818 767.744C482.691 767.191 482.614 766.671 482.588 766.184C482.461 766.031 482.398 765.847 482.398 765.634L482.218 764.894L482.038 764.344C481.944 763.704 481.821 763.094 481.668 762.514L481.298 760.854L481.118 759.754L480.748 758.844L480.378 756.634L480.198 756.084V755.534C479.891 754.801 479.708 754.127 479.648 753.514L479.278 751.314L478.908 750.394L478.548 748.924V748.194C478.181 747.181 477.998 746.324 477.998 745.624C477.871 745.471 477.808 745.287 477.808 745.074L477.628 744.514V743.964C477.321 743.264 477.138 742.531 477.078 741.764C476.771 740.784 476.588 739.867 476.528 739.014L476.158 739.744L475.978 740.844L475.428 743.234L475.058 745.254L474.868 745.804L474.138 748.924L473.958 749.664L473.588 751.494L473.408 752.234L473.038 754.254L472.858 754.804L472.118 758.284L471.748 759.574L471.568 760.854C471.234 761.774 471.051 762.571 471.018 763.244L470.838 763.614L470.648 764.714L470.468 765.264L469.548 769.854L469.368 770.404L468.628 773.894L468.448 774.624L468.268 775.544L468.078 776.094L467.348 779.584L466.978 781.054L466.608 782.894L466.428 783.254L466.058 784.914L465.878 785.644L465.698 786.924C465.478 787.691 465.354 788.304 465.328 788.764C465.201 789.071 465.118 789.361 465.078 789.634C465.031 789.914 464.991 790.174 464.958 790.414C464.531 790.481 464.141 790.534 463.788 790.574C463.434 790.621 463.091 790.644 462.758 790.644H462.298C462.144 790.644 461.991 790.631 461.838 790.604H451.188V789.864C450.761 788.764 450.518 787.724 450.458 786.744C450.331 786.591 450.268 786.407 450.268 786.194L450.088 785.274C449.414 783.101 448.984 781.264 448.798 779.764L448.618 779.214L447.698 775.734L447.518 774.264L446.048 768.574V767.834C445.741 767.134 445.558 766.401 445.498 765.634L445.128 764.534L444.768 763.244V762.694L443.848 759.024V758.474L443.658 757.734L443.298 757.004L443.108 755.534C442.868 754.801 442.671 754.127 442.518 753.514C442.364 752.901 442.258 752.351 442.198 751.864L442.008 751.314V750.764C441.888 750.611 441.828 750.427 441.828 750.214L441.458 748.744L441.278 748.194C441.151 747.547 441.034 746.964 440.928 746.444C440.821 745.924 440.691 745.467 440.538 745.074L440.358 743.784C440.144 743.171 439.974 742.604 439.848 742.084C439.728 741.564 439.651 741.091 439.618 740.664L439.438 739.744C439.318 739.591 439.258 739.407 439.258 739.194L438.338 735.524L437.968 734.234L437.788 733.324L437.608 732.584L437.418 731.304C437.171 730.657 437.048 730.104 437.048 729.644V729.464L436.688 728.544L436.498 727.814C436.378 726.927 436.194 726.191 435.948 725.604V724.874C435.828 724.721 435.768 724.537 435.768 724.324" fill="white"/>
<path d="M561.222 744.885L561.782 745.985C563.215 747.765 564.132 749.601 564.532 751.495C564.652 752.288 564.742 753.031 564.802 753.725C564.868 754.411 564.902 755.015 564.902 755.535V779.765C566.028 782.005 567.678 783.351 569.852 783.805L569.492 784.355C569.365 784.575 569.242 784.698 569.122 784.725L568.942 785.275L568.572 785.645C568.265 786.318 567.898 786.868 567.472 787.295C567.038 788.428 566.485 789.285 565.812 789.865C565.538 790.478 565.278 791.008 565.032 791.455C564.792 791.895 564.565 792.285 564.352 792.625C560.772 791.705 557.955 790.051 555.902 787.665H555.352C551.405 790.511 547.335 791.935 543.142 791.935C540.875 791.935 538.642 791.551 536.442 790.785C529.862 788.431 525.885 784.148 524.512 777.935V777.705C524.512 765.865 531.442 759.945 545.302 759.945H545.442C545.715 759.818 546.018 759.755 546.352 759.755L546.902 759.575H548.192L548.742 759.395H549.292L553.882 758.845C553.942 758.505 553.972 758.198 553.972 757.925V757.005C553.972 751.891 551.265 749.335 545.852 749.335C542.085 749.335 536.928 750.605 530.382 753.145L529.652 751.495L529.282 750.395L528.912 750.025L528.732 749.665L528.362 748.555C528.028 748.008 527.785 747.458 527.632 746.905C526.985 746.051 526.555 745.195 526.342 744.335L526.892 744.155L527.262 743.965L527.812 743.785L528.182 743.415H528.732C528.852 743.295 528.958 743.235 529.052 743.235H529.102C530.202 742.655 531.178 742.225 532.032 741.945L532.952 741.765C533.625 741.458 534.238 741.275 534.792 741.215L536.262 740.845C537.328 740.418 538.368 740.175 539.382 740.115L543.422 739.375C544.028 739.315 544.615 739.261 545.182 739.215C545.748 739.168 546.308 739.145 546.862 739.145C552.702 739.145 557.488 741.058 561.222 744.885ZM549.472 768.205H548.372C548.098 768.265 547.832 768.311 547.572 768.345C547.312 768.371 547.058 768.385 546.812 768.385H546.542L545.802 768.575H545.252C545.098 768.695 544.915 768.755 544.702 768.755H544.152L541.212 769.485H540.662C539.808 769.978 539.075 770.285 538.462 770.405C536.475 772.305 535.482 774.141 535.482 775.915C535.482 777.535 536.292 779.125 537.912 780.685C540.265 782.125 542.558 782.845 544.792 782.845C547.638 782.845 550.362 781.698 552.962 779.405C553.208 778.698 553.455 778.208 553.702 777.935L553.882 777.385L553.702 776.645V768.015H550.032C549.878 768.141 549.692 768.205 549.472 768.205Z" fill="white"/>
<path d="M582.588 790.781V740.661H593.788V790.781H582.588ZM594.888 725.971V726.571C594.888 729.111 594.091 731.175 592.498 732.761C590.818 733.588 589.271 734.001 587.858 734.001C585.411 734.001 583.471 732.671 582.038 730.011C581.758 728.938 581.618 727.991 581.618 727.171C581.618 724.045 583.348 721.931 586.808 720.831H587.268C591.155 720.831 593.695 722.545 594.888 725.971Z" fill="white"/>
<path d="M323.656 714.25H273.156V812.25H323.656V714.25Z" stroke="white" stroke-width="2" stroke-dasharray="5 5"/>
<path d="M375.656 714.25H325.656V812.25H375.656V714.25Z" stroke="white" stroke-width="2" stroke-dasharray="5 5"/>
<path d="M402.656 714.25H377.656V812.25H402.656V714.25Z" stroke="white" stroke-width="2" stroke-dasharray="5 5"/>
<path d="M427.656 714.25H404.656V812.25H427.656V714.25Z" stroke="white" stroke-width="2" stroke-dasharray="5 5"/>
<path d="M519.156 714.25H429.656V812.25H519.156V714.25Z" stroke="white" stroke-width="2" stroke-dasharray="5 5"/>
<path d="M574.656 714.25H521.156V812.25H574.656V714.25Z" stroke="white" stroke-width="2" stroke-dasharray="5 5"/>
<path d="M601.656 714.25H576.656V812.25H601.656V714.25Z" stroke="white" stroke-width="2" stroke-dasharray="5 5"/>
<path d="M446.844 316.713V431.925" stroke="#46C147" stroke-width="3.03189"/>
<path d="M421.844 260.263V431.925" stroke="#46C147" stroke-width="3.03189"/>
<path d="M446.844 407.669H421.844" stroke="#46C147" stroke-width="3.03189"/>
<path d="M446.844 407.669L483.227 398.574V416.765L446.844 407.669Z" fill="#46C147"/>
<path d="M421.844 407.669L385.461 398.574V416.765L421.844 407.669Z" fill="#46C147"/>
<path d="M377.739 468.409V466.084L386.473 456.523C387.498 455.403 388.342 454.43 389.005 453.603C389.669 452.767 390.159 451.984 390.478 451.251C390.805 450.511 390.969 449.736 390.969 448.926C390.969 447.996 390.745 447.19 390.297 446.51C389.858 445.829 389.255 445.304 388.488 444.934C387.722 444.563 386.861 444.378 385.904 444.378C384.888 444.378 384.001 444.589 383.243 445.011C382.494 445.425 381.912 446.006 381.499 446.755C381.094 447.505 380.892 448.383 380.892 449.391H377.842C377.842 447.841 378.2 446.48 378.915 445.308C379.63 444.137 380.603 443.224 381.835 442.569C383.075 441.915 384.466 441.587 386.008 441.587C387.558 441.587 388.932 441.915 390.129 442.569C391.327 443.224 392.265 444.107 392.946 445.218C393.626 446.329 393.967 447.565 393.967 448.926C393.967 449.899 393.79 450.851 393.437 451.781C393.092 452.703 392.489 453.732 391.628 454.869C390.775 455.997 389.591 457.376 388.075 459.003L382.132 465.36V465.567H394.432V468.409H377.739ZM413.876 453.009L411.137 453.784C410.965 453.327 410.711 452.884 410.375 452.453C410.048 452.014 409.6 451.652 409.031 451.368C408.463 451.084 407.735 450.941 406.848 450.941C405.633 450.941 404.621 451.221 403.812 451.781C403.011 452.332 402.61 453.034 402.61 453.887C402.61 454.645 402.886 455.244 403.437 455.683C403.988 456.122 404.85 456.488 406.021 456.781L408.967 457.505C410.741 457.935 412.063 458.594 412.933 459.482C413.803 460.36 414.238 461.493 414.238 462.879C414.238 464.016 413.911 465.033 413.256 465.929C412.61 466.824 411.706 467.531 410.543 468.047C409.38 468.564 408.028 468.823 406.486 468.823C404.462 468.823 402.787 468.383 401.46 467.505C400.134 466.626 399.294 465.343 398.941 463.655L401.835 462.931C402.11 463.999 402.632 464.8 403.398 465.334C404.173 465.868 405.185 466.135 406.434 466.135C407.856 466.135 408.984 465.834 409.819 465.231C410.664 464.619 411.086 463.887 411.086 463.035C411.086 462.345 410.844 461.768 410.362 461.303C409.88 460.83 409.139 460.476 408.14 460.244L404.832 459.469C403.015 459.038 401.68 458.37 400.827 457.466C399.983 456.553 399.561 455.412 399.561 454.042C399.561 452.922 399.875 451.932 400.504 451.071C401.141 450.209 402.007 449.533 403.101 449.042C404.204 448.551 405.452 448.306 406.848 448.306C408.812 448.306 410.353 448.736 411.473 449.598C412.602 450.459 413.403 451.596 413.876 453.009ZM423.324 468.409L417.277 448.564H420.482L424.771 463.758H424.978L429.216 448.564H432.471L436.657 463.706H436.864L441.154 448.564H444.358L438.311 468.409H435.314L430.973 453.164H430.663L426.321 468.409H423.324Z" fill="#46C147"/>
<path d="M446.844 316.713H562.056" stroke="#FF0000" stroke-width="3.03189"/>
<path d="M518.831 298.713H562.056" stroke="#FF0000" stroke-width="3.03189"/>
<path d="M537.801 316.713V298.713" stroke="#FF0000" stroke-width="3.03189"/>
<path d="M537.801 316.712L528.705 353.095H546.896L537.801 316.712Z" fill="#FF0000"/>
<path d="M537.801 298.713L528.705 262.33H546.896L537.801 298.713Z" fill="#FF0000"/>
<path d="M587.22 290.45V316.91H584.015V293.809H583.86L577.4 298.099V294.843L584.015 290.45H587.22ZM595.54 317.117C594.903 317.117 594.356 316.889 593.899 316.432C593.443 315.976 593.214 315.429 593.214 314.791C593.214 314.154 593.443 313.607 593.899 313.15C594.356 312.694 594.903 312.466 595.54 312.466C596.177 312.466 596.724 312.694 597.181 313.15C597.637 313.607 597.866 314.154 597.866 314.791C597.866 315.213 597.758 315.601 597.543 315.954C597.336 316.307 597.056 316.591 596.703 316.807C596.358 317.014 595.971 317.117 595.54 317.117ZM611.021 317.272C609.506 317.272 608.14 316.97 606.926 316.368C605.711 315.765 604.738 314.938 604.006 313.887C603.274 312.836 602.873 311.639 602.804 310.295H605.905C606.026 311.492 606.568 312.483 607.533 313.267C608.506 314.042 609.669 314.43 611.021 314.43C612.107 314.43 613.071 314.175 613.916 313.667C614.768 313.159 615.436 312.461 615.918 311.574C616.409 310.678 616.655 309.666 616.655 308.538C616.655 307.384 616.401 306.355 615.892 305.45C615.393 304.537 614.704 303.818 613.825 303.292C612.947 302.767 611.943 302.5 610.815 302.491C610.005 302.483 609.174 302.608 608.321 302.866C607.468 303.116 606.766 303.439 606.215 303.835L603.218 303.473L604.82 290.45H618.567V293.292H607.507L606.577 301.096H606.732C607.275 300.665 607.955 300.308 608.773 300.024C609.592 299.739 610.444 299.597 611.332 299.597C612.951 299.597 614.394 299.985 615.66 300.76C616.935 301.527 617.934 302.578 618.657 303.913C619.389 305.248 619.755 306.772 619.755 308.486C619.755 310.175 619.376 311.682 618.618 313.008C617.869 314.326 616.835 315.368 615.518 316.135C614.2 316.893 612.701 317.272 611.021 317.272ZM638.997 301.51L636.257 302.285C636.085 301.828 635.831 301.385 635.495 300.954C635.168 300.515 634.72 300.153 634.152 299.869C633.583 299.584 632.855 299.442 631.968 299.442C630.754 299.442 629.741 299.722 628.932 300.282C628.131 300.833 627.73 301.535 627.73 302.388C627.73 303.146 628.006 303.745 628.557 304.184C629.108 304.623 629.97 304.989 631.141 305.282L634.087 306.006C635.861 306.436 637.183 307.095 638.053 307.982C638.923 308.861 639.358 309.994 639.358 311.38C639.358 312.517 639.031 313.534 638.376 314.43C637.73 315.325 636.826 316.032 635.663 316.548C634.5 317.065 633.148 317.324 631.606 317.324C629.582 317.324 627.907 316.884 626.58 316.006C625.254 315.127 624.414 313.844 624.061 312.156L626.955 311.432C627.231 312.5 627.752 313.301 628.518 313.835C629.294 314.369 630.306 314.636 631.555 314.636C632.976 314.636 634.104 314.335 634.94 313.732C635.784 313.12 636.206 312.388 636.206 311.535C636.206 310.846 635.965 310.269 635.482 309.804C635 309.33 634.259 308.977 633.26 308.745L629.953 307.97C628.135 307.539 626.8 306.871 625.947 305.967C625.103 305.054 624.681 303.913 624.681 302.543C624.681 301.423 624.996 300.433 625.624 299.572C626.262 298.71 627.127 298.034 628.221 297.543C629.324 297.052 630.573 296.807 631.968 296.807C633.932 296.807 635.474 297.237 636.593 298.099C637.722 298.96 638.523 300.097 638.997 301.51ZM648.444 316.91L642.398 297.065H645.602L649.891 312.259H650.098L654.336 297.065H657.592L661.778 312.207H661.984L666.274 297.065H669.478L663.431 316.91H660.434L656.093 301.665H655.783L651.442 316.91H648.444Z" fill="#FF0000"/>
<path d="M273.844 714.45V829.662" stroke="#46C147" stroke-width="3.03189"/>
<path d="M248.844 262V833" stroke="#46C147" stroke-width="3.03189"/>
<path d="M273.844 805.407H248.844" stroke="#46C147" stroke-width="3.03189"/>
<path d="M273.844 805.407L310.227 796.311V814.503L273.844 805.407Z" fill="#46C147"/>
<path d="M248.844 805.407L212.461 796.311V814.503L248.844 805.407Z" fill="#46C147"/>
<path d="M204.739 866.147V863.821L213.473 854.26C214.498 853.141 215.342 852.167 216.005 851.34C216.669 850.505 217.159 849.721 217.478 848.989C217.805 848.248 217.969 847.473 217.969 846.663C217.969 845.733 217.745 844.928 217.297 844.247C216.858 843.567 216.255 843.041 215.488 842.671C214.722 842.301 213.861 842.115 212.904 842.115C211.888 842.115 211.001 842.326 210.243 842.749C209.494 843.162 208.912 843.743 208.499 844.493C208.094 845.242 207.892 846.121 207.892 847.128H204.842C204.842 845.578 205.2 844.217 205.915 843.046C206.63 841.874 207.603 840.961 208.835 840.307C210.075 839.652 211.466 839.325 213.008 839.325C214.558 839.325 215.932 839.652 217.129 840.307C218.327 840.961 219.265 841.844 219.946 842.955C220.626 844.066 220.967 845.302 220.967 846.663C220.967 847.637 220.79 848.588 220.437 849.519C220.092 850.44 219.489 851.47 218.628 852.607C217.775 853.735 216.591 855.113 215.075 856.741L209.132 863.098V863.304H221.432V866.147H204.739ZM240.876 850.746L238.137 851.521C237.965 851.065 237.711 850.621 237.375 850.19C237.048 849.751 236.6 849.389 236.031 849.105C235.463 848.821 234.735 848.679 233.848 848.679C232.633 848.679 231.621 848.959 230.812 849.519C230.011 850.07 229.61 850.772 229.61 851.625C229.61 852.383 229.886 852.981 230.437 853.42C230.988 853.86 231.85 854.226 233.021 854.519L235.967 855.242C237.741 855.673 239.063 856.332 239.933 857.219C240.803 858.098 241.238 859.23 241.238 860.617C241.238 861.754 240.911 862.77 240.256 863.666C239.61 864.562 238.706 865.268 237.543 865.785C236.38 866.302 235.028 866.56 233.486 866.56C231.462 866.56 229.787 866.121 228.46 865.242C227.134 864.364 226.294 863.08 225.941 861.392L228.835 860.669C229.11 861.737 229.632 862.538 230.398 863.072C231.173 863.606 232.185 863.873 233.434 863.873C234.856 863.873 235.984 863.571 236.819 862.968C237.664 862.357 238.086 861.625 238.086 860.772C238.086 860.083 237.844 859.506 237.362 859.041C236.88 858.567 236.139 858.214 235.14 857.981L231.832 857.206C230.015 856.775 228.68 856.108 227.827 855.203C226.983 854.29 226.561 853.149 226.561 851.78C226.561 850.66 226.875 849.669 227.504 848.808C228.141 847.947 229.007 847.271 230.101 846.78C231.204 846.289 232.452 846.043 233.848 846.043C235.812 846.043 237.353 846.474 238.473 847.335C239.602 848.196 240.403 849.333 240.876 850.746ZM250.324 866.147L244.277 846.302H247.482L251.771 861.495H251.978L256.216 846.302H259.471L263.657 861.444H263.864L268.154 846.302H271.358L265.311 866.147H262.314L257.973 850.901H257.663L253.321 866.147H250.324Z" fill="#46C147"/>
<path d="M322 696.38H437.212" stroke="#FF0000" stroke-width="3.03189"/>
<path d="M395 714.38H438.224" stroke="#FF0000" stroke-width="3.03189"/>
<path d="M414 714.383V696.383" stroke="#FF0000" stroke-width="3.03189"/>
<path d="M414.096 714.383L405 750.765H423.191L414.096 714.383Z" fill="#FF0000"/>
<path d="M414.096 696.383L405 660H423.191L414.096 696.383Z" fill="#FF0000"/>
<path d="M453.041 683.54V710H449.837V686.899H449.682L443.222 691.188V687.933L449.837 683.54H453.041ZM461.362 710.207C460.725 710.207 460.178 709.978 459.721 709.522C459.265 709.065 459.036 708.519 459.036 707.881C459.036 707.244 459.265 706.697 459.721 706.24C460.178 705.784 460.725 705.556 461.362 705.556C461.999 705.556 462.546 705.784 463.003 706.24C463.459 706.697 463.688 707.244 463.688 707.881C463.688 708.303 463.58 708.691 463.365 709.044C463.158 709.397 462.878 709.681 462.525 709.897C462.18 710.103 461.793 710.207 461.362 710.207ZM476.843 710.362C475.327 710.362 473.962 710.06 472.748 709.457C471.533 708.854 470.56 708.028 469.828 706.977C469.096 705.926 468.695 704.729 468.626 703.385H471.727C471.848 704.582 472.39 705.573 473.355 706.357C474.328 707.132 475.491 707.519 476.843 707.519C477.929 707.519 478.893 707.265 479.737 706.757C480.59 706.249 481.258 705.551 481.74 704.664C482.231 703.768 482.476 702.756 482.476 701.628C482.476 700.474 482.222 699.444 481.714 698.54C481.215 697.627 480.526 696.908 479.647 696.382C478.768 695.857 477.765 695.59 476.637 695.581C475.827 695.573 474.996 695.698 474.143 695.956C473.29 696.206 472.588 696.529 472.037 696.925L469.04 696.563L470.642 683.54H484.389V686.382H473.329L472.399 694.186H472.554C473.097 693.755 473.777 693.398 474.595 693.114C475.414 692.829 476.266 692.687 477.153 692.687C478.773 692.687 480.215 693.075 481.482 693.85C482.756 694.617 483.756 695.667 484.479 697.002C485.211 698.338 485.577 699.862 485.577 701.576C485.577 703.264 485.198 704.772 484.44 706.098C483.691 707.416 482.657 708.458 481.339 709.225C480.022 709.983 478.523 710.362 476.843 710.362ZM504.818 694.599L502.079 695.375C501.907 694.918 501.653 694.474 501.317 694.044C500.99 693.605 500.542 693.243 499.973 692.959C499.405 692.674 498.677 692.532 497.79 692.532C496.575 692.532 495.563 692.812 494.754 693.372C493.953 693.923 493.552 694.625 493.552 695.478C493.552 696.236 493.828 696.835 494.379 697.274C494.93 697.713 495.792 698.079 496.963 698.372L499.909 699.096C501.683 699.526 503.005 700.185 503.875 701.072C504.745 701.951 505.18 703.083 505.18 704.47C505.18 705.607 504.853 706.624 504.198 707.519C503.552 708.415 502.648 709.121 501.485 709.638C500.322 710.155 498.97 710.413 497.428 710.413C495.404 710.413 493.729 709.974 492.402 709.096C491.076 708.217 490.236 706.934 489.883 705.245L492.777 704.522C493.053 705.59 493.574 706.391 494.34 706.925C495.115 707.459 496.128 707.726 497.376 707.726C498.798 707.726 499.926 707.425 500.761 706.822C501.606 706.21 502.028 705.478 502.028 704.625C502.028 703.936 501.786 703.359 501.304 702.894C500.822 702.42 500.081 702.067 499.082 701.835L495.774 701.059C493.957 700.629 492.622 699.961 491.769 699.057C490.925 698.144 490.503 697.002 490.503 695.633C490.503 694.513 490.817 693.523 491.446 692.661C492.084 691.8 492.949 691.124 494.043 690.633C495.146 690.142 496.395 689.896 497.79 689.896C499.754 689.896 501.296 690.327 502.415 691.188C503.544 692.05 504.345 693.187 504.818 694.599ZM514.266 710L508.22 690.155H511.424L515.713 705.349H515.92L520.158 690.155H523.413L527.6 705.297H527.806L532.096 690.155H535.3L529.253 710H526.256L521.915 694.754H521.605L517.264 710H514.266Z" fill="#FF0000"/>
<path d="M605 715H720.212" stroke="#FF0000" stroke-width="3.03189"/>
<path d="M676.987 558.383H720.212" stroke="#FF0000" stroke-width="3.03189"/>
<path d="M695.957 716.383V558.383" stroke="#FF0000" stroke-width="3.03189"/>
<path d="M695.957 715L686.861 751.383H705.052L695.957 715Z" fill="#FF0000"/>
<path d="M695.957 558.383L686.861 522H705.052L695.957 558.383Z" fill="#FF0000"/>
<path d="M736.125 626V606.155H739.071V609.256H739.329C739.743 608.196 740.41 607.374 741.332 606.788C742.253 606.194 743.36 605.896 744.652 605.896C745.961 605.896 747.051 606.194 747.921 606.788C748.8 607.374 749.484 608.196 749.975 609.256H750.182C750.69 608.231 751.452 607.417 752.469 606.814C753.485 606.202 754.704 605.896 756.125 605.896C757.9 605.896 759.351 606.452 760.479 607.563C761.608 608.666 762.172 610.384 762.172 612.718V626H759.123V612.718C759.123 611.254 758.722 610.207 757.921 609.579C757.12 608.95 756.177 608.636 755.092 608.636C753.696 608.636 752.615 609.058 751.849 609.902C751.082 610.737 750.699 611.797 750.699 613.08V626H747.598V612.408C747.598 611.28 747.232 610.371 746.5 609.682C745.768 608.984 744.825 608.636 743.67 608.636C742.878 608.636 742.137 608.847 741.448 609.269C740.768 609.691 740.216 610.276 739.794 611.026C739.381 611.766 739.174 612.623 739.174 613.597V626H736.125ZM767.747 626V606.155H770.796V626H767.747ZM769.297 602.847C768.703 602.847 768.19 602.645 767.76 602.24C767.338 601.835 767.127 601.349 767.127 600.78C767.127 600.212 767.338 599.725 767.76 599.32C768.19 598.915 768.703 598.713 769.297 598.713C769.891 598.713 770.4 598.915 770.822 599.32C771.252 599.725 771.468 600.212 771.468 600.78C771.468 601.349 771.252 601.835 770.822 602.24C770.4 602.645 769.891 602.847 769.297 602.847ZM779.43 614.062V626H776.381V606.155H779.326V609.256H779.585C780.05 608.248 780.756 607.438 781.704 606.827C782.651 606.207 783.874 605.896 785.373 605.896C786.717 605.896 787.892 606.172 788.9 606.723C789.908 607.266 790.692 608.093 791.251 609.204C791.811 610.306 792.091 611.702 792.091 613.39V626H789.042V613.597C789.042 612.038 788.637 610.823 787.828 609.953C787.018 609.075 785.907 608.636 784.494 608.636C783.521 608.636 782.651 608.847 781.884 609.269C781.127 609.691 780.528 610.306 780.089 611.116C779.649 611.926 779.43 612.908 779.43 614.062ZM799.885 626.207C799.248 626.207 798.701 625.978 798.244 625.522C797.788 625.065 797.56 624.519 797.56 623.881C797.56 623.244 797.788 622.697 798.244 622.24C798.701 621.784 799.248 621.556 799.885 621.556C800.523 621.556 801.07 621.784 801.526 622.24C801.983 622.697 802.211 623.244 802.211 623.881C802.211 624.303 802.103 624.691 801.888 625.044C801.681 625.397 801.401 625.681 801.048 625.897C800.704 626.103 800.316 626.207 799.885 626.207ZM745.376 643.54V670H742.172V646.899H742.017L735.557 651.188V647.933L742.172 643.54H745.376ZM752.986 670V667.674L761.72 658.114C762.745 656.994 763.589 656.021 764.252 655.194C764.915 654.358 765.406 653.574 765.725 652.842C766.052 652.101 766.216 651.326 766.216 650.517C766.216 649.586 765.992 648.781 765.544 648.101C765.105 647.42 764.502 646.895 763.735 646.524C762.969 646.154 762.107 645.969 761.151 645.969C760.135 645.969 759.248 646.18 758.49 646.602C757.74 647.015 757.159 647.597 756.745 648.346C756.341 649.095 756.138 649.974 756.138 650.982H753.089C753.089 649.431 753.446 648.07 754.161 646.899C754.876 645.728 755.85 644.815 757.081 644.16C758.322 643.505 759.713 643.178 761.254 643.178C762.805 643.178 764.179 643.505 765.376 644.16C766.573 644.815 767.512 645.697 768.193 646.809C768.873 647.92 769.213 649.156 769.213 650.517C769.213 651.49 769.037 652.442 768.683 653.372C768.339 654.294 767.736 655.323 766.875 656.46C766.022 657.588 764.838 658.966 763.322 660.594L757.378 666.951V667.158H769.678V670H752.986ZM789.123 654.599L786.384 655.375C786.212 654.918 785.958 654.474 785.622 654.044C785.294 653.605 784.846 653.243 784.278 652.959C783.709 652.674 782.982 652.532 782.094 652.532C780.88 652.532 779.868 652.812 779.058 653.372C778.257 653.923 777.857 654.625 777.857 655.478C777.857 656.236 778.132 656.835 778.684 657.274C779.235 657.713 780.096 658.079 781.268 658.372L784.213 659.096C785.988 659.526 787.31 660.185 788.18 661.072C789.05 661.951 789.485 663.083 789.485 664.47C789.485 665.607 789.157 666.624 788.503 667.519C787.857 668.415 786.952 669.121 785.79 669.638C784.627 670.155 783.274 670.413 781.733 670.413C779.709 670.413 778.033 669.974 776.707 669.096C775.38 668.217 774.541 666.934 774.187 665.245L777.081 664.522C777.357 665.59 777.878 666.391 778.645 666.925C779.42 667.459 780.432 667.726 781.681 667.726C783.102 667.726 784.231 667.425 785.066 666.822C785.91 666.21 786.332 665.478 786.332 664.625C786.332 663.936 786.091 663.359 785.609 662.894C785.126 662.42 784.386 662.067 783.386 661.835L780.079 661.059C778.261 660.629 776.926 659.961 776.074 659.057C775.23 658.144 774.808 657.002 774.808 655.633C774.808 654.513 775.122 653.523 775.751 652.661C776.388 651.8 777.254 651.124 778.348 650.633C779.45 650.142 780.699 649.896 782.094 649.896C784.058 649.896 785.6 650.327 786.72 651.188C787.848 652.05 788.649 653.187 789.123 654.599ZM798.571 670L792.524 650.155H795.728L800.018 665.349H800.224L804.462 650.155H807.718L811.904 665.297H812.111L816.4 650.155H819.604L813.558 670H810.56L806.219 654.754H805.909L801.568 670H798.571Z" fill="#FF0000"/>
</svg>
