<svg width="1763" height="600" viewBox="0 0 1763 600" fill="none" xmlns="http://www.w3.org/2000/svg">
<path d="M20 142.5C20 121.789 36.7893 105 57.5 105H1657.5C1678.21 105 1695 121.789 1695 142.5V542.5C1695 563.211 1678.21 580 1657.5 580H57.5C36.7893 580 20 563.211 20 542.5V142.5Z" fill="white"/>
<path d="M38.75 142.5C38.75 132.145 47.1447 123.75 57.5 123.75H1657.5C1667.86 123.75 1676.25 132.145 1676.25 142.5V542.5C1676.25 552.855 1667.86 561.25 1657.5 561.25H57.5C47.1447 561.25 38.75 552.855 38.75 542.5V142.5Z" fill="#006928"/>
<path d="M1582.75 153H1629.63C1634.8 153.003 1639 157.196 1639 162.37V256.13C1639 261.304 1634.8 265.497 1629.63 265.5H1535.87C1530.7 265.497 1526.5 261.304 1526.5 256.13V162.37C1526.5 157.196 1530.7 153.003 1535.87 153H1582.75Z" fill="#FF0000"/>
<path d="M1582.75 156.125H1535.88C1532.42 156.125 1529.62 158.923 1529.62 162.375V256.125C1529.62 259.577 1532.42 262.375 1535.88 262.375H1629.62C1633.08 262.375 1635.88 259.577 1635.88 256.125V162.375C1635.88 158.923 1633.08 156.125 1629.62 156.125H1582.75Z" fill="white"/>
<path d="M1585.88 168.625H1592.12L1594.9 187.375H1585.88V168.625Z" fill="#FF0000"/>
<path d="M1579.62 168.625V187.375H1570.6L1573.38 168.625H1579.62Z" fill="#FF0000"/>
<path d="M1582.75 193.625H1626.5V199.875H1620.24C1618.52 199.878 1617.13 201.273 1617.12 202.995V212.375H1610.88L1608.34 202.245C1607.99 200.853 1606.74 199.876 1605.31 199.875H1560.19C1558.76 199.876 1557.51 200.853 1557.16 202.245L1554.62 212.375H1548.38V202.995C1548.37 201.273 1546.98 199.878 1545.26 199.875H1539V193.625H1582.75Z" fill="#FF0000"/>
<path d="M1585.88 206.125H1597.68L1601.5 253H1585.88V206.125Z" fill="#FF0000"/>
<path d="M1579.62 206.125V253H1564L1567.83 206.125H1579.62Z" fill="#FF0000"/>
<path d="M527.473 432H583.723V469.5C584.833 504.583 561.463 535.743 527.473 544.5C493.483 535.743 470.113 504.583 471.223 469.5V432H527.473Z" fill="#E9B500"/>
<path d="M523.563 448.404C538.22 448.129 547.277 454.371 550.735 467.131L551.286 467.498L551.469 468.416L551.653 469.15L551.836 469.885L552.02 470.252L552.387 471.904V472.822C552.51 473.006 552.571 473.189 552.571 473.373L552.938 475.393L553.305 478.514L553.672 481.451C554.713 504.339 547.247 517.313 531.274 520.373C515.607 522.576 505.999 517.68 502.45 505.686L506.305 504.4C506.428 504.247 506.55 504.186 506.672 504.217L508.325 503.482C509.09 503.268 509.702 503.023 510.161 502.748L510.711 502.564H511.262C511.385 502.411 511.507 502.35 511.629 502.381L512.18 502.197L515.118 500.912H515.852C517.841 506.42 521.819 508.684 527.786 507.705C534.12 506.267 537.853 502.289 538.985 495.771L539.169 492.834C530.968 498.097 522.706 499.26 514.383 496.322C506.091 492.712 501.685 486.714 501.165 478.33C499.42 459.818 506.887 449.842 523.563 448.404ZM525.032 461.623C520.228 462.816 517.107 465.57 515.669 469.885C514.414 478.728 517.78 483.868 525.766 485.307C534.15 484.45 538.189 479.982 537.883 471.904C536.262 464.866 531.978 461.439 525.032 461.623Z" fill="black"/>
<path d="M88.8008 230.528V160.398H100.921V191.608L101.651 190.688L102.751 189.588C102.878 189.374 103.001 189.251 103.121 189.218L103.301 188.848L103.671 188.488L106.061 185.728L106.981 184.818L107.161 184.258L108.261 183.348L108.451 182.978L110.461 180.588L111.201 179.668L113.221 177.468L113.951 176.738L114.501 175.818C114.841 175.391 115.171 175.031 115.491 174.738C115.811 174.444 116.094 174.191 116.341 173.978C116.894 172.998 117.508 172.264 118.181 171.778L120.011 169.388L120.561 168.838L121.111 168.108L122.581 166.638L124.231 164.618L124.601 164.248C124.728 164.034 124.851 163.914 124.971 163.888L125.151 163.518L125.521 163.148L127.911 160.398H142.041C141.281 161.711 140.424 162.751 139.471 163.518C139.231 163.944 138.924 164.311 138.551 164.618L137.821 165.718L136.351 167.188L135.251 168.658L134.881 169.028C134.668 169.301 134.454 169.544 134.241 169.758C134.028 169.971 133.814 170.154 133.601 170.308C132.868 171.534 132.071 172.454 131.211 173.068L130.661 173.798L128.641 176.368L128.091 176.918C127.724 177.318 127.404 177.678 127.131 177.998C126.851 178.318 126.621 178.631 126.441 178.938L125.891 179.308L125.341 179.858L124.971 180.588L124.051 181.508L123.681 182.058L123.321 182.428L122.951 182.978L122.401 183.348L122.211 183.708L121.851 184.078C120.564 185.731 119.461 186.954 118.541 187.748C119.214 189.221 119.828 190.324 120.381 191.058L120.931 192.338C121.204 192.618 121.388 192.924 121.481 193.258L122.211 194.178L122.951 195.458L123.321 196.198L123.681 196.748L124.051 197.478L124.231 198.028L124.601 198.218L124.791 198.948C124.911 199.041 124.971 199.134 124.971 199.228V199.318C125.798 200.171 126.348 201.088 126.621 202.068L127.361 203.358L127.721 203.728L129.561 206.848L130.291 208.128L130.841 209.418L131.581 210.338L131.761 210.888C132.068 211.281 132.328 211.661 132.541 212.028C132.754 212.394 132.924 212.748 133.051 213.088L133.601 213.818L133.961 214.738L134.521 215.478L135.801 217.678L136.541 218.778L136.721 219.508L137.271 220.248L137.451 220.798C137.664 220.951 137.788 221.134 137.821 221.348L138.191 222.088C138.804 222.754 139.231 223.488 139.471 224.288C140.238 225.081 140.728 225.874 140.941 226.668L141.311 227.038L143.141 230.528H129.561L129.011 229.248L128.461 228.688L128.091 227.958L127.361 226.668L127.171 226.118L126.801 225.758L126.621 225.388C126.374 224.961 126.154 224.578 125.961 224.238C125.761 223.904 125.554 223.614 125.341 223.368L125.151 222.818L124.791 222.088L124.051 220.978L123.501 219.878L122.951 218.958L122.211 217.858L121.661 216.938L121.481 216.578C120.714 215.351 120.164 214.311 119.831 213.458C119.558 213.118 119.374 212.811 119.281 212.538C119.221 212.478 119.174 212.424 119.141 212.378C119.108 212.331 119.091 212.278 119.091 212.218V212.168C118.144 210.948 117.471 209.848 117.071 208.868L116.891 208.318C116.098 207.364 115.548 206.568 115.241 205.928L115.051 205.188L114.691 204.638L114.141 203.908L113.951 203.358L113.221 202.258L113.041 201.708L112.671 201.338L112.481 200.968L112.301 200.418L111.931 200.238C111.444 199.164 110.954 198.244 110.461 197.478L110.101 197.848L109.911 198.218C109.391 198.644 109.024 199.071 108.811 199.498L108.261 199.868L106.611 202.068L105.881 202.618L105.141 203.728L104.591 204.088C103.978 205.068 103.364 205.804 102.751 206.298C102.171 207.124 101.561 207.798 100.921 208.318V230.528" fill="white"/>
<path d="M194.343 190.144C196.45 195.191 197.503 200.164 197.503 205.064C197.503 208.057 197.123 210.977 196.363 213.824C194.25 222.944 188.923 228.637 180.383 230.904C179.13 231.237 177.906 231.474 176.713 231.614C175.52 231.754 174.343 231.837 173.183 231.864C168.65 231.864 164.503 230.624 160.743 228.144C153.676 223.217 149.943 216.671 149.543 208.504C149.51 208.077 149.493 207.657 149.493 207.244C149.493 206.831 149.493 206.424 149.493 206.024C149.493 190.724 156.486 181.514 170.473 178.394C170.746 178.361 171.02 178.344 171.293 178.344C171.573 178.344 171.85 178.344 172.123 178.344C182.036 178.344 189.443 182.277 194.343 190.144ZM160.923 207.584C161.936 215.784 166.1 220.251 173.413 220.984C180.906 220.284 185.066 216.367 185.893 209.234C186.013 208.321 186.12 207.434 186.213 206.574C186.306 205.721 186.336 204.894 186.303 204.094C186.303 194.827 181.7 189.871 172.493 189.224C164.686 191.151 160.783 196.337 160.783 204.784C160.783 205.671 160.83 206.604 160.923 207.584Z" fill="white"/>
<path d="M206.703 180.409H218.273L218.453 181.509C218.666 182.089 218.836 182.616 218.963 183.089C219.083 183.569 219.16 184.023 219.193 184.449C219.56 185.456 219.743 186.313 219.743 187.019L219.923 187.749C220.05 187.903 220.113 188.086 220.113 188.299L221.213 192.709L221.573 194.549L221.943 195.459V196.009C222.156 196.596 222.326 197.149 222.453 197.669C222.573 198.189 222.65 198.679 222.683 199.139L222.863 200.049C223.35 201.156 223.593 202.196 223.593 203.169L223.783 203.909L224.143 204.639L224.333 205.929C224.58 206.569 224.703 207.119 224.703 207.579V207.759L225.063 209.229C225.19 209.323 225.253 209.416 225.253 209.509V209.599L226.163 213.819L226.353 213.459L226.713 212.349C226.866 211.436 227.053 210.703 227.273 210.149L227.453 208.869C227.606 208.009 227.79 207.336 228.003 206.849C228.036 206.509 228.073 206.179 228.113 205.859C228.16 205.539 228.246 205.256 228.373 205.009V204.459L228.553 204.089L229.103 201.339L229.473 200.239L229.653 199.139C229.96 198.126 230.143 197.269 230.203 196.569L230.573 195.829V194.909L230.753 194.179L231.493 191.789V191.059C231.826 190.139 232.01 189.343 232.043 188.669C232.35 187.663 232.533 186.806 232.593 186.099L232.773 185.549L232.963 184.629L233.143 184.079L233.883 180.589L234.983 180.409H246.363L246.733 181.689V182.249L247.643 185.549L248.013 187.749L248.563 189.589L248.933 191.789C249.18 192.369 249.346 192.906 249.433 193.399C249.526 193.886 249.603 194.329 249.663 194.729L249.853 195.829C249.973 195.983 250.033 196.166 250.033 196.379L251.323 201.709L251.503 202.439V203.169L251.873 204.279L252.053 205.559L252.973 208.679L253.703 212.539C253.89 212.999 254.073 213.366 254.253 213.639L254.623 212.169V211.619L254.803 211.069L255.543 207.579L255.913 206.299L256.093 205.189L256.273 204.639L256.463 204.279C256.616 203.359 256.8 202.623 257.013 202.069V201.519L257.383 200.239L258.113 196.929L258.483 196.199V195.279L258.843 194.549L259.033 193.439L259.213 192.529L259.393 191.979L260.133 188.489L260.313 188.119L260.863 185.919L261.053 185.369V184.629L261.783 182.429C261.816 182.063 261.856 181.709 261.903 181.369C261.943 181.036 262.026 180.716 262.153 180.409H273.713L273.353 181.509L273.163 182.799L272.983 183.159L271.703 188.119L271.513 188.489L270.593 192.159L270.233 193.259L269.133 197.479L268.763 198.769L268.213 200.049L268.023 201.339L267.663 202.809L267.473 203.169L267.113 204.279L266.003 208.679L265.823 209.229L265.643 209.599L264.543 213.819L264.353 214.369C264.046 215.809 263.68 216.973 263.253 217.859L263.073 218.599L262.883 219.879L262.523 220.979L261.603 224.289L261.233 225.759L261.053 226.119L259.953 230.349H247.463L247.093 229.059L246.913 227.589L246.733 227.039V226.489C246.426 225.789 246.243 225.056 246.183 224.289C245.876 223.309 245.693 222.389 245.633 221.529L245.263 220.429V219.879C244.836 218.813 244.59 217.773 244.523 216.759L244.343 215.839L243.973 214.739L243.793 213.459L243.423 212.349L243.243 211.619V210.889C242.816 209.816 242.57 208.773 242.503 207.759L241.953 205.929V205.189C241.68 204.516 241.496 203.906 241.403 203.359C241.223 202.039 240.98 200.999 240.673 200.239C240.52 199.139 240.273 198.219 239.933 197.479C239.813 198.339 239.7 199.099 239.593 199.759C239.486 200.413 239.356 200.999 239.203 201.519L238.653 204.089L238.283 205.559L237.553 209.419L237.183 210.339L237.003 211.619L236.453 214.189L236.263 215.289L235.893 216.029L235.713 216.939C235.653 217.399 235.593 217.813 235.533 218.179C235.473 218.546 235.41 218.869 235.343 219.149L234.983 220.979L234.793 221.719L234.613 222.639L234.433 223.189L234.243 224.469L234.063 225.019L233.693 226.309V226.859C233.48 227.626 233.356 228.236 233.323 228.689C233.203 228.996 233.12 229.289 233.073 229.569C233.026 229.843 232.99 230.103 232.963 230.349H220.473C219.986 228.849 219.68 227.623 219.553 226.669C219.22 226.063 219.036 225.576 219.003 225.209V224.659C218.943 224.593 218.9 224.536 218.873 224.489C218.84 224.449 218.823 224.396 218.823 224.329V224.289L217.903 221.349C217.75 220.676 217.596 220.063 217.443 219.509C217.29 218.963 217.136 218.476 216.983 218.049L216.803 216.759C216.496 216.086 216.313 215.413 216.253 214.739C216.193 214.679 216.146 214.626 216.113 214.579C216.086 214.533 216.073 214.479 216.073 214.419V214.369C215.86 213.789 215.69 213.269 215.563 212.809C215.443 212.356 215.366 211.959 215.333 211.619L214.603 209.049L214.413 208.129C214.293 207.976 214.233 207.793 214.233 207.579C213.9 206.966 213.716 206.476 213.683 206.109V205.559C213.623 205.499 213.576 205.446 213.543 205.399C213.516 205.353 213.503 205.299 213.503 205.239V205.189L212.583 202.259C212.456 201.553 212.32 200.916 212.173 200.349C212.02 199.783 211.85 199.256 211.663 198.769L211.483 197.669L211.113 196.749L210.933 195.829L210.743 195.459V194.909C210.376 194.209 210.193 193.599 210.193 193.079L209.823 192.339L209.643 191.419L209.093 189.409L208.913 188.669L208.723 188.119L208.543 187.019C208.423 186.866 208.363 186.683 208.363 186.469L208.173 185.919L207.623 184.449V183.899C207.103 182.459 206.796 181.296 206.703 180.409Z" fill="white"/>
<path d="M284.609 221.35V160.03H295.809V210.89C295.776 211.284 295.759 211.664 295.759 212.03V213.09C295.759 215.17 295.899 216.944 296.179 218.41C297.493 220.097 299.509 220.94 302.229 220.94C303.396 220.94 304.743 220.77 306.269 220.43V221.53L306.459 222.09L306.819 224.66V225.76L307.009 226.12V227.23L307.559 230.35C304.159 231.177 301.129 231.59 298.469 231.59C291.369 231.59 286.809 228.667 284.789 222.82C284.763 222.514 284.739 222.237 284.719 221.99C284.706 221.75 284.669 221.537 284.609 221.35Z" fill="white"/>
<path d="M357.843 190.144C359.95 195.191 361.003 200.164 361.003 205.064C361.003 208.057 360.623 210.977 359.863 213.824C357.75 222.944 352.423 228.637 343.883 230.904C342.63 231.237 341.406 231.474 340.213 231.614C339.02 231.754 337.843 231.837 336.683 231.864C332.15 231.864 328.003 230.624 324.243 228.144C317.176 223.217 313.443 216.671 313.043 208.504C313.01 208.077 312.993 207.657 312.993 207.244C312.993 206.831 312.993 206.424 312.993 206.024C312.993 190.724 319.986 181.514 333.973 178.394C334.246 178.361 334.52 178.344 334.793 178.344C335.073 178.344 335.35 178.344 335.623 178.344C345.536 178.344 352.943 182.277 357.843 190.144ZM324.423 207.584C325.436 215.784 329.6 220.251 336.913 220.984C344.406 220.284 348.566 216.367 349.393 209.234C349.513 208.321 349.62 207.434 349.713 206.574C349.806 205.721 349.836 204.894 349.803 204.094C349.803 194.827 345.2 189.871 335.993 189.224C328.186 191.151 324.283 196.337 324.283 204.784C324.283 205.671 324.33 206.604 324.423 207.584Z" fill="white"/>
<path d="M416.843 190.144C418.95 195.191 420.003 200.164 420.003 205.064C420.003 208.057 419.623 210.977 418.863 213.824C416.75 222.944 411.423 228.637 402.883 230.904C401.63 231.237 400.406 231.474 399.213 231.614C398.02 231.754 396.843 231.837 395.683 231.864C391.15 231.864 387.003 230.624 383.243 228.144C376.176 223.217 372.443 216.671 372.043 208.504C372.01 208.077 371.993 207.657 371.993 207.244C371.993 206.831 371.993 206.424 371.993 206.024C371.993 190.724 378.986 181.514 392.973 178.394C393.246 178.361 393.52 178.344 393.793 178.344C394.073 178.344 394.35 178.344 394.623 178.344C404.536 178.344 411.943 182.277 416.843 190.144ZM383.423 207.584C384.436 215.784 388.6 220.251 395.913 220.984C403.406 220.284 407.566 216.367 408.393 209.234C408.513 208.321 408.62 207.434 408.713 206.574C408.806 205.721 408.836 204.894 408.803 204.094C408.803 194.827 404.2 189.871 394.993 189.224C387.186 191.151 383.283 196.337 383.283 204.784C383.283 205.671 383.33 206.604 383.423 207.584Z" fill="white"/>
<path d="M474.55 189.037V189.587C474.95 190.32 475.197 191.054 475.29 191.787V230.157H464.09V197.667L463.9 196.567C462.374 191.94 459.804 189.627 456.19 189.627C455.09 189.627 453.867 189.857 452.52 190.317C449.46 191.637 447.257 193.72 445.91 196.567L445.18 199.687V230.157H434.16V180.037H445.18V184.257C448.607 181.197 452.34 179.364 456.38 178.757H457.2C465.4 178.757 471.184 182.184 474.55 189.037Z" fill="white"/>
<path d="M516.641 155.964L517.191 156.334L517.561 157.074L518.851 158.904L519.211 159.454L519.401 160.004L519.761 160.194L520.131 160.744C520.711 161.597 521.217 162.391 521.651 163.124C522.077 163.864 522.427 164.537 522.701 165.144C509.421 174.204 502.507 186.137 501.961 200.944V201.134C501.961 218.514 508.874 231.794 522.701 240.974L522.331 241.524L521.971 242.254L521.421 242.804C521.021 243.631 520.591 244.244 520.131 244.644C519.884 245.131 519.641 245.497 519.401 245.744C518.574 247.457 517.654 248.804 516.641 249.784C498.834 237.851 489.931 222.261 489.931 203.014C489.931 202.921 489.931 202.697 489.931 202.344C489.931 201.997 489.937 201.631 489.951 201.244C489.971 200.864 489.987 200.497 490.001 200.144C490.014 199.791 490.021 199.571 490.021 199.484C492.014 179.777 500.887 165.271 516.641 155.964Z" fill="white"/>
<path d="M541.191 160.584V160.214H553.861L554.041 161.504L554.231 162.054L554.591 163.344L554.961 165.544L555.511 167.374L555.881 169.584L556.431 171.414L556.611 172.884C556.825 173.404 556.948 173.834 556.981 174.174L557.161 174.904L557.531 176.004V176.744C557.651 176.837 557.711 176.927 557.711 177.014V177.664C558.051 178.337 558.238 179.071 558.271 179.864L558.631 180.964L559.001 182.254L559.371 184.454L559.921 186.284L560.101 187.394L561.201 191.984C561.295 192.411 561.381 192.801 561.461 193.154C561.535 193.501 561.571 193.844 561.571 194.184L561.941 194.914V195.654L562.301 196.574V197.304L562.671 198.034V198.774C563.011 199.694 563.195 200.491 563.221 201.164L563.411 201.894C563.625 202.507 563.791 203.074 563.911 203.594C564.031 204.114 564.108 204.587 564.141 205.014L564.511 206.484L564.881 207.764L565.241 206.664L565.981 202.994L566.341 202.074L566.531 200.974L567.081 198.404L567.451 197.124V196.574L568.181 193.634L568.361 192.534L568.731 191.794L568.911 191.064L569.101 190.144V189.414L569.281 188.854L570.021 185.924L570.381 183.714L570.571 182.984L570.931 182.254C570.998 181.274 571.181 180.414 571.481 179.674L571.671 178.764V178.214L572.041 176.744L572.221 176.194L572.771 173.804L572.951 172.704L573.321 171.604L573.501 170.684L574.051 168.294L574.241 167.374L574.421 167.014C574.455 166.674 574.495 166.344 574.541 166.024C574.588 165.704 574.671 165.421 574.791 165.174L574.971 164.624V164.074L575.161 163.344L575.341 162.784L575.891 160.214H589.481V160.764C589.908 161.837 590.151 162.881 590.211 163.894L590.581 165.354L590.761 165.914L591.501 169.214L591.861 170.684C592.108 171.571 592.231 172.304 592.231 172.884C592.445 173.404 592.568 173.834 592.601 174.174L592.961 175.454L593.151 176.744L593.331 177.474L593.521 178.024C593.608 178.424 593.685 178.784 593.751 179.104C593.811 179.424 593.855 179.737 593.881 180.044C594.128 180.624 594.298 181.161 594.391 181.654C594.485 182.141 594.561 182.584 594.621 182.984L594.801 184.084L595.171 185.004L595.351 186.104V186.654C595.658 187.387 595.841 188.061 595.901 188.674L596.091 189.774C596.391 190.507 596.575 191.181 596.641 191.794L596.821 192.714L597.371 194.734V195.464C597.491 195.744 597.551 196.051 597.551 196.384C597.891 197.091 598.078 197.704 598.111 198.224L598.291 199.144L598.471 200.244L598.661 200.974C598.968 201.921 599.151 202.777 599.211 203.544C599.331 203.637 599.391 203.731 599.391 203.824V204.464C599.818 205.537 600.065 206.577 600.131 207.584C600.311 207.524 600.431 207.401 600.491 207.214C600.645 206.454 600.798 205.791 600.951 205.224C601.105 204.657 601.258 204.161 601.411 203.734V202.994C601.811 201.894 602.055 200.914 602.141 200.054L602.511 198.774L603.251 195.834L603.431 194.364L603.801 193.084L603.981 192.534V191.984C604.195 191.397 604.365 190.867 604.491 190.394C604.611 189.921 604.685 189.471 604.711 189.044L605.081 187.754L606.551 181.694L607.101 178.764L607.471 177.294C607.805 176.407 607.988 175.674 608.021 175.094L608.201 174.174L608.571 172.704C608.845 171.817 609.028 171.084 609.121 170.504L609.301 169.764L609.861 167.194L610.221 166.094V165.544L610.771 164.074V163.344L610.961 162.784L611.511 160.214H623.991L623.261 163.894L622.711 166.094L622.521 166.644L621.971 169.214L621.611 170.684L621.241 171.964L620.501 175.644L620.141 176.924L619.401 180.414L619.041 181.694L618.851 182.254L618.481 184.264L618.301 184.634L618.121 185.924C617.815 186.931 617.631 187.787 617.571 188.494L616.831 190.694L616.651 191.984L616.461 192.714L616.281 193.264L616.101 194.554L615.911 195.104L614.811 199.694L614.631 200.974L614.261 202.264L613.341 205.934L613.161 207.214L612.061 211.804L611.511 214.374C611.171 215.294 610.988 216.091 610.961 216.764L610.221 219.154V219.884C609.888 220.804 609.705 221.601 609.671 222.274C609.365 223.281 609.181 224.137 609.121 224.844L608.751 226.124L608.571 226.494L608.391 227.784C608.085 228.791 607.901 229.647 607.841 230.354H594.251L594.071 228.884C593.858 228.364 593.735 227.934 593.701 227.594L593.331 226.124L593.151 224.844L592.781 223.554C592.688 223.187 592.611 222.837 592.551 222.504C592.491 222.164 592.445 221.841 592.411 221.534L592.231 220.804L592.051 219.884C591.925 219.731 591.861 219.547 591.861 219.334L591.681 218.414L591.501 217.864C591.408 217.471 591.331 217.111 591.271 216.784C591.205 216.464 591.158 216.151 591.131 215.844C590.918 215.264 590.758 214.731 590.651 214.244C590.545 213.751 590.458 213.307 590.391 212.914L590.211 212.174L590.031 211.254C589.905 210.887 589.818 210.537 589.771 210.204C589.731 209.864 589.695 209.541 589.661 209.234C589.448 208.627 589.281 208.047 589.161 207.494C589.035 206.941 588.958 206.421 588.931 205.934C588.805 205.781 588.741 205.597 588.741 205.384L588.561 204.644L588.381 204.094C588.288 203.454 588.165 202.844 588.011 202.264L587.641 200.604L587.461 199.504L587.091 198.594L586.721 196.384L586.541 195.834V195.284C586.235 194.551 586.051 193.877 585.991 193.264L585.621 191.064L585.251 190.144L584.891 188.674V187.944C584.525 186.931 584.341 186.074 584.341 185.374C584.215 185.221 584.151 185.037 584.151 184.824L583.971 184.264V183.714C583.665 183.014 583.481 182.281 583.421 181.514C583.115 180.534 582.931 179.617 582.871 178.764L582.501 179.494L582.321 180.594L581.771 182.984L581.401 185.004L581.211 185.554L580.481 188.674L580.301 189.414L579.931 191.244L579.751 191.984L579.381 194.004L579.201 194.554L578.461 198.034L578.091 199.324L577.911 200.604C577.578 201.524 577.395 202.321 577.361 202.994L577.181 203.364L576.991 204.464L576.811 205.014L575.891 209.604L575.711 210.154L574.971 213.644L574.791 214.374L574.611 215.294L574.421 215.844L573.691 219.334L573.321 220.804L572.951 222.644L572.771 223.004L572.401 224.664L572.221 225.394L572.041 226.674C571.821 227.441 571.698 228.054 571.671 228.514C571.545 228.821 571.461 229.111 571.421 229.384C571.375 229.664 571.335 229.924 571.301 230.164C570.875 230.231 570.485 230.284 570.131 230.324C569.778 230.371 569.435 230.394 569.101 230.394H568.641C568.488 230.394 568.335 230.381 568.181 230.354H557.531V229.614C557.105 228.514 556.861 227.474 556.801 226.494C556.675 226.341 556.611 226.157 556.611 225.944L556.431 225.024C555.758 222.851 555.328 221.014 555.141 219.514L554.961 218.964L554.041 215.484L553.861 214.014L552.391 208.324V207.584C552.085 206.884 551.901 206.151 551.841 205.384L551.471 204.284L551.111 202.994V202.444L550.191 198.774V198.224L550.001 197.484L549.641 196.754L549.451 195.284C549.211 194.551 549.015 193.877 548.861 193.264C548.708 192.651 548.601 192.101 548.541 191.614L548.351 191.064V190.514C548.231 190.361 548.171 190.177 548.171 189.964L547.801 188.494L547.621 187.944C547.495 187.297 547.378 186.714 547.271 186.194C547.165 185.674 547.035 185.217 546.881 184.824L546.701 183.534C546.488 182.921 546.318 182.354 546.191 181.834C546.071 181.314 545.995 180.841 545.961 180.414L545.781 179.494C545.661 179.341 545.601 179.157 545.601 178.944L544.681 175.274L544.311 173.984L544.131 173.074L543.951 172.334L543.761 171.054C543.515 170.407 543.391 169.854 543.391 169.394V169.214L543.031 168.294L542.841 167.564C542.721 166.677 542.538 165.941 542.291 165.354V164.624C542.171 164.471 542.111 164.287 542.111 164.074" fill="white"/>
<path d="M672.348 206.094C670.481 225.734 661.608 240.297 645.728 249.784C644.775 248.864 644.101 247.884 643.708 246.844C643.495 246.724 643.371 246.604 643.338 246.484L642.238 245.014L642.048 244.464L641.688 244.094L639.668 240.974C653.528 230.874 660.458 218.174 660.458 202.874C660.458 202.541 660.458 202.221 660.458 201.914C660.458 201.607 660.441 201.284 660.408 200.944C659.801 192.837 657.768 185.824 654.308 179.904C650.848 173.984 645.968 169.064 639.668 165.144L639.848 164.414L640.398 163.864C640.705 163.157 641.071 162.544 641.498 162.024L641.868 161.294L642.238 160.924L642.608 160.194L642.968 160.004L643.338 159.454C644.105 157.987 644.838 156.824 645.538 155.964C663.471 167.564 672.438 183.047 672.438 202.414C672.438 203.027 672.438 203.641 672.438 204.254C672.438 204.867 672.408 205.481 672.348 206.094Z" fill="white"/>
<path d="M696.395 227.232C696.335 235.432 692.448 239.532 684.735 239.532H684.095V238.982L683.915 235.672C686.361 235.672 688.378 234.939 689.965 233.472C689.965 232.799 689.845 232.185 689.605 231.632C685.685 231.172 683.418 229.215 682.805 225.762C683.178 222.422 684.895 220.462 687.955 219.882C693.001 219.942 695.815 222.392 696.395 227.232Z" fill="white"/>
<path d="M732.02 171.05V160.03H782.689V171.05H763.41V230.35H751.299V171.05" fill="white"/>
<path d="M825.409 186.277L824.859 187.017L824.309 187.567L823.759 187.937L823.019 189.037L822.659 189.407L822.289 189.587C821.889 190.14 821.522 190.567 821.189 190.867L818.799 193.627C813.719 190.354 809.512 188.717 806.179 188.717C802.752 188.717 800.229 190.414 798.609 193.807C798.669 195.8 799.462 197.27 800.989 198.217C801.662 198.397 802.152 198.58 802.459 198.767C803.652 198.947 804.632 199.19 805.399 199.497C816.992 200.357 823.479 205.01 824.859 213.457C824.919 213.824 824.949 214.18 824.949 214.527C824.949 214.88 824.949 215.227 824.949 215.567C824.949 221.714 822.349 226.334 817.149 229.427C813.415 231.107 809.665 231.947 805.899 231.947C798.739 231.947 791.595 228.904 784.469 222.817L784.839 222.087L785.749 221.167C786.362 220.434 786.915 219.88 787.409 219.507C787.529 219.294 787.649 219.174 787.769 219.147L788.139 218.597C788.259 218.384 788.382 218.26 788.509 218.227L788.689 217.857L789.059 217.677L791.449 214.917C795.975 219.204 800.715 221.347 805.669 221.347C807.749 221.347 809.862 220.98 812.009 220.247C812.555 219.514 813.105 218.964 813.659 218.597C813.845 217.864 813.939 217.174 813.939 216.527C813.939 214.934 813.419 213.604 812.379 212.537L808.149 211.067C795.542 210.3 788.689 204.914 787.589 194.907C788.415 184.84 794.105 179.457 804.659 178.757H805.309C813.415 178.757 820.115 181.264 825.409 186.277Z" fill="white"/>
<path d="M837.787 216.026V180.226H848.807V211.986C848.927 212.139 848.987 212.322 848.987 212.536C849.114 212.629 849.177 212.719 849.177 212.806V212.906C849.39 214.279 849.694 215.502 850.087 216.576C852.2 219.509 854.91 220.976 858.217 220.976H858.357C862.457 219.876 865.33 217.612 866.977 214.186V213.636L867.717 211.436V180.226H878.917V230.346H867.717V226.306C863.31 229.912 858.92 231.716 854.547 231.716C851.147 231.716 847.704 230.646 844.217 228.506C841.37 226.332 839.41 223.762 838.337 220.796L838.157 219.506C837.884 218.619 837.747 217.749 837.747 216.896V216.486C837.747 216.332 837.76 216.179 837.787 216.026Z" fill="white"/>
<path d="M937.336 200.794L937.516 203.544C937.636 203.698 937.696 203.881 937.696 204.094V209.604H904.106C904.806 215.844 907.986 219.518 913.646 220.624C914.566 220.711 915.469 220.754 916.356 220.754C920.976 220.754 924.909 219.241 928.156 216.214C928.549 216.888 929.039 217.438 929.626 217.864L929.806 218.414L930.356 218.964C930.783 219.364 931.149 219.741 931.456 220.094C931.763 220.448 932.009 220.808 932.196 221.174C932.409 221.294 932.529 221.414 932.556 221.534L935.126 224.474C929.313 229.341 923.116 231.774 916.536 231.774C915.409 231.774 914.263 231.698 913.096 231.544C911.936 231.391 910.773 231.178 909.606 230.904C899.019 227.384 893.206 219.794 892.166 208.134C892.166 207.981 892.159 207.674 892.146 207.214C892.133 206.761 892.126 206.471 892.126 206.344C892.126 190.404 899.299 181.331 913.646 179.124C927.906 179.618 935.803 186.841 937.336 200.794ZM903.916 200.974H926.136V200.424C926.009 200.058 925.946 199.691 925.946 199.324V198.954C925.639 198.281 925.456 197.671 925.396 197.124C923.136 191.891 919.403 189.258 914.196 189.224C907.649 190.784 904.223 194.701 903.916 200.974Z" fill="white"/>
<path d="M990.55 189.037V189.587C990.95 190.32 991.197 191.054 991.29 191.787V230.157H980.09V197.667L979.9 196.567C978.373 191.94 975.803 189.627 972.19 189.627C971.09 189.627 969.867 189.857 968.52 190.317C965.46 191.637 963.257 193.72 961.91 196.567L961.18 199.687V230.157H950.16V180.037H961.18V184.257C964.607 181.197 968.34 179.364 972.38 178.757H973.2C981.4 178.757 987.183 182.184 990.55 189.037Z" fill="white"/>
<path d="M1029.69 160.584V160.214H1042.36L1042.54 161.504L1042.73 162.054L1043.09 163.344L1043.46 165.544L1044.01 167.374L1044.38 169.584L1044.93 171.414L1045.11 172.884C1045.32 173.404 1045.45 173.834 1045.48 174.174L1045.66 174.904L1046.03 176.004V176.744C1046.15 176.837 1046.21 176.927 1046.21 177.014V177.664C1046.55 178.337 1046.74 179.071 1046.77 179.864L1047.13 180.964L1047.5 182.254L1047.87 184.454L1048.42 186.284L1048.6 187.394L1049.7 191.984C1049.79 192.411 1049.88 192.801 1049.96 193.154C1050.03 193.501 1050.07 193.844 1050.07 194.184L1050.44 194.914V195.654L1050.8 196.574V197.304L1051.17 198.034V198.774C1051.51 199.694 1051.69 200.491 1051.72 201.164L1051.91 201.894C1052.12 202.507 1052.29 203.074 1052.41 203.594C1052.53 204.114 1052.61 204.587 1052.64 205.014L1053.01 206.484L1053.38 207.764L1053.74 206.664L1054.48 202.994L1054.84 202.074L1055.03 200.974L1055.58 198.404L1055.95 197.124V196.574L1056.68 193.634L1056.86 192.534L1057.23 191.794L1057.41 191.064L1057.6 190.144V189.414L1057.78 188.854L1058.52 185.924L1058.88 183.714L1059.07 182.984L1059.43 182.254C1059.5 181.274 1059.68 180.414 1059.98 179.674L1060.17 178.764V178.214L1060.54 176.744L1060.72 176.194L1061.27 173.804L1061.45 172.704L1061.82 171.604L1062 170.684L1062.55 168.294L1062.74 167.374L1062.92 167.014C1062.95 166.674 1062.99 166.344 1063.04 166.024C1063.09 165.704 1063.17 165.421 1063.29 165.174L1063.47 164.624V164.074L1063.66 163.344L1063.84 162.784L1064.39 160.214H1077.98V160.764C1078.41 161.837 1078.65 162.881 1078.71 163.894L1079.08 165.354L1079.26 165.914L1080 169.214L1080.36 170.684C1080.61 171.571 1080.73 172.304 1080.73 172.884C1080.94 173.404 1081.07 173.834 1081.1 174.174L1081.46 175.454L1081.65 176.744L1081.83 177.474L1082.02 178.024C1082.11 178.424 1082.18 178.784 1082.25 179.104C1082.31 179.424 1082.35 179.737 1082.38 180.044C1082.63 180.624 1082.8 181.161 1082.89 181.654C1082.98 182.141 1083.06 182.584 1083.12 182.984L1083.3 184.084L1083.67 185.004L1083.85 186.104V186.654C1084.16 187.387 1084.34 188.061 1084.4 188.674L1084.59 189.774C1084.89 190.507 1085.07 191.181 1085.14 191.794L1085.32 192.714L1085.87 194.734V195.464C1085.99 195.744 1086.05 196.051 1086.05 196.384C1086.39 197.091 1086.58 197.704 1086.61 198.224L1086.79 199.144L1086.97 200.244L1087.16 200.974C1087.47 201.921 1087.65 202.777 1087.71 203.544C1087.83 203.637 1087.89 203.731 1087.89 203.824V204.464C1088.32 205.537 1088.56 206.577 1088.63 207.584C1088.81 207.524 1088.93 207.401 1088.99 207.214C1089.14 206.454 1089.3 205.791 1089.45 205.224C1089.6 204.657 1089.76 204.161 1089.91 203.734V202.994C1090.31 201.894 1090.55 200.914 1090.64 200.054L1091.01 198.774L1091.75 195.834L1091.93 194.364L1092.3 193.084L1092.48 192.534V191.984C1092.69 191.397 1092.86 190.867 1092.99 190.394C1093.11 189.921 1093.18 189.471 1093.21 189.044L1093.58 187.754L1095.05 181.694L1095.6 178.764L1095.97 177.294C1096.3 176.407 1096.49 175.674 1096.52 175.094L1096.7 174.174L1097.07 172.704C1097.34 171.817 1097.53 171.084 1097.62 170.504L1097.8 169.764L1098.36 167.194L1098.72 166.094V165.544L1099.27 164.074V163.344L1099.46 162.784L1100.01 160.214H1112.49L1111.76 163.894L1111.21 166.094L1111.02 166.644L1110.47 169.214L1110.11 170.684L1109.74 171.964L1109 175.644L1108.64 176.924L1107.9 180.414L1107.54 181.694L1107.35 182.254L1106.98 184.264L1106.8 184.634L1106.62 185.924C1106.31 186.931 1106.13 187.787 1106.07 188.494L1105.33 190.694L1105.15 191.984L1104.96 192.714L1104.78 193.264L1104.6 194.554L1104.41 195.104L1103.31 199.694L1103.13 200.974L1102.76 202.264L1101.84 205.934L1101.66 207.214L1100.56 211.804L1100.01 214.374C1099.67 215.294 1099.49 216.091 1099.46 216.764L1098.72 219.154V219.884C1098.39 220.804 1098.2 221.601 1098.17 222.274C1097.86 223.281 1097.68 224.137 1097.62 224.844L1097.25 226.124L1097.07 226.494L1096.89 227.784C1096.58 228.791 1096.4 229.647 1096.34 230.354H1082.75L1082.57 228.884C1082.36 228.364 1082.23 227.934 1082.2 227.594L1081.83 226.124L1081.65 224.844L1081.28 223.554C1081.19 223.187 1081.11 222.837 1081.05 222.504C1080.99 222.164 1080.94 221.841 1080.91 221.534L1080.73 220.804L1080.55 219.884C1080.42 219.731 1080.36 219.547 1080.36 219.334L1080.18 218.414L1080 217.864C1079.91 217.471 1079.83 217.111 1079.77 216.784C1079.7 216.464 1079.66 216.151 1079.63 215.844C1079.42 215.264 1079.26 214.731 1079.15 214.244C1079.04 213.751 1078.96 213.307 1078.89 212.914L1078.71 212.174L1078.53 211.254C1078.4 210.887 1078.32 210.537 1078.27 210.204C1078.23 209.864 1078.19 209.541 1078.16 209.234C1077.95 208.627 1077.78 208.047 1077.66 207.494C1077.53 206.941 1077.46 206.421 1077.43 205.934C1077.3 205.781 1077.24 205.597 1077.24 205.384L1077.06 204.644L1076.88 204.094C1076.79 203.454 1076.66 202.844 1076.51 202.264L1076.14 200.604L1075.96 199.504L1075.59 198.594L1075.22 196.384L1075.04 195.834V195.284C1074.73 194.551 1074.55 193.877 1074.49 193.264L1074.12 191.064L1073.75 190.144L1073.39 188.674V187.944C1073.02 186.931 1072.84 186.074 1072.84 185.374C1072.71 185.221 1072.65 185.037 1072.65 184.824L1072.47 184.264V183.714C1072.16 183.014 1071.98 182.281 1071.92 181.514C1071.61 180.534 1071.43 179.617 1071.37 178.764L1071 179.494L1070.82 180.594L1070.27 182.984L1069.9 185.004L1069.71 185.554L1068.98 188.674L1068.8 189.414L1068.43 191.244L1068.25 191.984L1067.88 194.004L1067.7 194.554L1066.96 198.034L1066.59 199.324L1066.41 200.604C1066.08 201.524 1065.89 202.321 1065.86 202.994L1065.68 203.364L1065.49 204.464L1065.31 205.014L1064.39 209.604L1064.21 210.154L1063.47 213.644L1063.29 214.374L1063.11 215.294L1062.92 215.844L1062.19 219.334L1061.82 220.804L1061.45 222.644L1061.27 223.004L1060.9 224.664L1060.72 225.394L1060.54 226.674C1060.32 227.441 1060.2 228.054 1060.17 228.514C1060.04 228.821 1059.96 229.111 1059.92 229.384C1059.87 229.664 1059.83 229.924 1059.8 230.164C1059.37 230.231 1058.98 230.284 1058.63 230.324C1058.28 230.371 1057.93 230.394 1057.6 230.394H1057.14C1056.99 230.394 1056.83 230.381 1056.68 230.354H1046.03V229.614C1045.6 228.514 1045.36 227.474 1045.3 226.494C1045.17 226.341 1045.11 226.157 1045.11 225.944L1044.93 225.024C1044.26 222.851 1043.83 221.014 1043.64 219.514L1043.46 218.964L1042.54 215.484L1042.36 214.014L1040.89 208.324V207.584C1040.58 206.884 1040.4 206.151 1040.34 205.384L1039.97 204.284L1039.61 202.994V202.444L1038.69 198.774V198.224L1038.5 197.484L1038.14 196.754L1037.95 195.284C1037.71 194.551 1037.51 193.877 1037.36 193.264C1037.21 192.651 1037.1 192.101 1037.04 191.614L1036.85 191.064V190.514C1036.73 190.361 1036.67 190.177 1036.67 189.964L1036.3 188.494L1036.12 187.944C1035.99 187.297 1035.88 186.714 1035.77 186.194C1035.66 185.674 1035.53 185.217 1035.38 184.824L1035.2 183.534C1034.99 182.921 1034.82 182.354 1034.69 181.834C1034.57 181.314 1034.49 180.841 1034.46 180.414L1034.28 179.494C1034.16 179.341 1034.1 179.157 1034.1 178.944L1033.18 175.274L1032.81 173.984L1032.63 173.074L1032.45 172.334L1032.26 171.054C1032.01 170.407 1031.89 169.854 1031.89 169.394V169.214L1031.53 168.294L1031.34 167.564C1031.22 166.677 1031.04 165.941 1030.79 165.354V164.624C1030.67 164.471 1030.61 164.287 1030.61 164.074" fill="white"/>
<path d="M1156.07 184.635L1156.63 185.735C1158.06 187.515 1158.98 189.351 1159.38 191.245C1159.5 192.038 1159.59 192.781 1159.65 193.475C1159.71 194.161 1159.75 194.765 1159.75 195.285V219.515C1160.87 221.755 1162.52 223.101 1164.7 223.555L1164.34 224.105C1164.21 224.325 1164.09 224.448 1163.97 224.475L1163.79 225.025L1163.42 225.395C1163.11 226.068 1162.74 226.618 1162.32 227.045C1161.88 228.178 1161.33 229.035 1160.66 229.615C1160.38 230.228 1160.12 230.758 1159.88 231.205C1159.64 231.645 1159.41 232.035 1159.2 232.375C1155.62 231.455 1152.8 229.801 1150.75 227.415H1150.2C1146.25 230.261 1142.18 231.685 1137.99 231.685C1135.72 231.685 1133.49 231.301 1131.29 230.535C1124.71 228.181 1120.73 223.898 1119.36 217.685V217.455C1119.36 205.615 1126.29 199.695 1140.15 199.695H1140.29C1140.56 199.568 1140.86 199.505 1141.2 199.505L1141.75 199.325H1143.04L1143.59 199.145H1144.14L1148.73 198.595C1148.79 198.255 1148.82 197.948 1148.82 197.675V196.755C1148.82 191.641 1146.11 189.085 1140.7 189.085C1136.93 189.085 1131.77 190.355 1125.23 192.895L1124.5 191.245L1124.13 190.145L1123.76 189.775L1123.58 189.415L1123.21 188.305C1122.87 187.758 1122.63 187.208 1122.48 186.655C1121.83 185.801 1121.4 184.945 1121.19 184.085L1121.74 183.905L1122.11 183.715L1122.66 183.535L1123.03 183.165H1123.58C1123.7 183.045 1123.8 182.985 1123.9 182.985H1123.95C1125.05 182.405 1126.02 181.975 1126.88 181.695L1127.8 181.515C1128.47 181.208 1129.08 181.025 1129.64 180.965L1131.11 180.595C1132.17 180.168 1133.21 179.925 1134.23 179.865L1138.27 179.125C1138.87 179.065 1139.46 179.011 1140.03 178.965C1140.59 178.918 1141.15 178.895 1141.71 178.895C1147.55 178.895 1152.33 180.808 1156.07 184.635ZM1144.32 207.955H1143.22C1142.94 208.015 1142.68 208.061 1142.42 208.095C1142.16 208.121 1141.9 208.135 1141.66 208.135H1141.39L1140.65 208.325H1140.1C1139.94 208.445 1139.76 208.505 1139.55 208.505H1139L1136.06 209.235H1135.51C1134.65 209.728 1133.92 210.035 1133.31 210.155C1131.32 212.055 1130.33 213.891 1130.33 215.665C1130.33 217.285 1131.14 218.875 1132.76 220.435C1135.11 221.875 1137.4 222.595 1139.64 222.595C1142.48 222.595 1145.21 221.448 1147.81 219.155C1148.05 218.448 1148.3 217.958 1148.55 217.685L1148.73 217.135L1148.55 216.395V207.765H1144.88C1144.72 207.891 1144.54 207.955 1144.32 207.955Z" fill="white"/>
<path d="M1218.55 189.037V189.587C1218.95 190.32 1219.2 191.054 1219.29 191.787V230.157H1208.09V197.667L1207.9 196.567C1206.37 191.94 1203.8 189.627 1200.19 189.627C1199.09 189.627 1197.87 189.857 1196.52 190.317C1193.46 191.637 1191.26 193.72 1189.91 196.567L1189.18 199.687V230.157H1178.16V180.037H1189.18V184.257C1192.61 181.197 1196.34 179.364 1200.38 178.757H1201.2C1209.4 178.757 1215.18 182.184 1218.55 189.037Z" fill="white"/>
<path d="M144 154H77V252H144V154Z" stroke="white" stroke-width="2" stroke-dasharray="5 5"/>
<path d="M203 154H146V252H203V154Z" stroke="white" stroke-width="2" stroke-dasharray="5 5"/>
<path d="M276.5 154H205V252H276.5V154Z" stroke="white" stroke-width="2" stroke-dasharray="5 5"/>
<path d="M307.5 154H278.5V252H307.5V154Z" stroke="white" stroke-width="2" stroke-dasharray="5 5"/>
<path d="M366.5 154H309.5V252H366.5V154Z" stroke="white" stroke-width="2" stroke-dasharray="5 5"/>
<path d="M425.5 154H368.5V252H425.5V154Z" stroke="white" stroke-width="2" stroke-dasharray="5 5"/>
<path d="M481.5 154H427.5V252H481.5V154Z" stroke="white" stroke-width="2" stroke-dasharray="5 5"/>
<path d="M534 154H483.5V252H534V154Z" stroke="white" stroke-width="2" stroke-dasharray="5 5"/>
<path d="M625.5 154H536V252H625.5V154Z" stroke="white" stroke-width="2" stroke-dasharray="5 5"/>
<path d="M678 154H627.5V252H678V154Z" stroke="white" stroke-width="2" stroke-dasharray="5 5"/>
<path d="M704.5 154H680V252H704.5V154Z" stroke="white" stroke-width="2" stroke-dasharray="5 5"/>
<path d="M729.5 154H706.5V252H729.5V154Z" stroke="white" stroke-width="2" stroke-dasharray="5 5"/>
<path d="M782 154H731.5V252H782V154Z" stroke="white" stroke-width="2" stroke-dasharray="5 5"/>
<path d="M829.5 154H784V252H829.5V154Z" stroke="white" stroke-width="2" stroke-dasharray="5 5"/>
<path d="M887 154H831.5V252H887V154Z" stroke="white" stroke-width="2" stroke-dasharray="5 5"/>
<path d="M941.5 154H889V252H941.5V154Z" stroke="white" stroke-width="2" stroke-dasharray="5 5"/>
<path d="M997.5 154H943.5V252H997.5V154Z" stroke="white" stroke-width="2" stroke-dasharray="5 5"/>
<path d="M1022.5 154H999.5V252H1022.5V154Z" stroke="white" stroke-width="2" stroke-dasharray="5 5"/>
<path d="M1114 154H1024.5V252H1114V154Z" stroke="white" stroke-width="2" stroke-dasharray="5 5"/>
<path d="M1169.5 154H1116V252H1169.5V154Z" stroke="white" stroke-width="2" stroke-dasharray="5 5"/>
<path d="M1225.5 154H1171.5V252H1225.5V154Z" stroke="white" stroke-width="2" stroke-dasharray="5 5"/>
<path d="M1364 153C1374.13 162.457 1379.88 175.693 1379.88 189.55V234.25L1473.39 288.69C1475.31 289.808 1476.5 291.865 1476.5 294.09V307.04C1476.5 309.023 1475.56 310.888 1473.96 312.066C1472.37 313.244 1470.31 313.594 1468.41 313.01L1395.25 290.5H1379.62V296.75L1373.38 346.75L1409.59 357.89C1412.21 358.698 1414 361.124 1414 363.87V371.75C1414 375.202 1411.2 378 1407.75 378H1320.25C1316.8 378 1314 375.202 1314 371.75V363.87C1314 361.124 1315.79 358.698 1318.41 357.89L1354.62 346.75L1348.38 296.75V290.5H1332.75L1259.59 313.01C1257.69 313.594 1255.63 313.244 1254.04 312.066C1252.44 310.888 1251.5 309.023 1251.5 307.04V294.09C1251.5 291.865 1252.69 289.808 1254.61 288.69L1348.12 234.25V189.55C1348.12 175.693 1353.87 162.457 1364 153Z" fill="white"/>
<path d="M1233.69 444.5H1271.19V494.5H1346.19L1233.69 544.5L1121.19 494.5H1196.19V444.5H1233.69Z" fill="white"/>
<path d="M321.685 444.5H359.185V494.5H434.185L321.685 544.5L209.185 494.5H284.185V444.5H321.685Z" fill="white"/>
<path d="M1439.47 432H1495.72V469.5C1496.83 504.583 1473.46 535.743 1439.47 544.5C1405.48 535.743 1382.11 504.583 1383.22 469.5V432H1439.47Z" fill="#E9B500"/>
<path d="M1435.56 448.404C1450.22 448.129 1459.28 454.371 1462.74 467.131L1463.29 467.498L1463.47 468.416L1463.65 469.15L1463.84 469.885L1464.02 470.252L1464.39 471.904V472.822C1464.51 473.006 1464.57 473.189 1464.57 473.373L1464.94 475.393L1465.31 478.514L1465.67 481.451C1466.71 504.339 1459.25 517.313 1443.27 520.373C1427.61 522.576 1418 517.68 1414.45 505.686L1418.31 504.4C1418.43 504.247 1418.55 504.186 1418.67 504.217L1420.32 503.482C1421.09 503.268 1421.7 503.023 1422.16 502.748L1422.71 502.564H1423.26C1423.38 502.411 1423.51 502.35 1423.63 502.381L1424.18 502.197L1427.12 500.912H1427.85C1429.84 506.42 1433.82 508.684 1439.79 507.705C1446.12 506.267 1449.85 502.289 1450.99 495.771L1451.17 492.834C1442.97 498.097 1434.71 499.26 1426.38 496.322C1418.09 492.712 1413.68 486.714 1413.16 478.33C1411.42 459.818 1418.89 449.842 1435.56 448.404ZM1437.03 461.623C1432.23 462.816 1429.11 465.57 1427.67 469.885C1426.41 478.728 1429.78 483.868 1437.77 485.307C1446.15 484.45 1450.19 479.982 1449.88 471.904C1448.26 464.866 1443.98 461.439 1437.03 461.623Z" fill="black"/>
<path d="M857.5 407.5H1657.5V420H57.5V407.5H857.5Z" fill="white"/>
<path d="M127.253 262.455H138.733C138.653 271.229 138.483 279.759 138.223 288.045C137.963 296.332 137.229 304.282 136.023 311.895C134.829 319.509 132.883 326.632 130.183 333.265C127.483 339.905 123.693 345.945 118.813 351.385C113.939 356.819 107.679 361.562 100.033 365.615C99.5792 364.715 98.9025 363.722 98.0025 362.635C97.1025 361.549 96.1458 360.499 95.1325 359.485C94.1192 358.472 93.1625 357.629 92.2625 356.955C99.4625 353.429 105.313 349.209 109.813 344.295C114.313 339.382 117.763 333.905 120.163 327.865C122.563 321.832 124.253 315.329 125.233 308.355C126.206 301.375 126.766 294.025 126.913 286.305C127.066 278.579 127.179 270.629 127.253 262.455ZM97.6625 300.135V289.335H167.083V300.135H97.6625ZM161.003 348.405V289.335H172.033V348.405C172.033 350.579 172.236 351.965 172.643 352.565C173.056 353.165 174.053 353.465 175.633 353.465C176.006 353.465 176.643 353.465 177.543 353.465C178.443 353.465 179.416 353.465 180.463 353.465C181.516 353.465 182.509 353.465 183.443 353.465C184.383 353.465 185.039 353.465 185.413 353.465C186.466 353.465 187.236 353.032 187.723 352.165C188.209 351.305 188.583 349.675 188.843 347.275C189.109 344.875 189.279 341.389 189.353 336.815C190.253 337.415 191.283 338.032 192.443 338.665C193.609 339.305 194.809 339.869 196.043 340.355C197.283 340.842 198.429 341.235 199.483 341.535C199.103 347.089 198.483 351.495 197.623 354.755C196.763 358.022 195.469 360.365 193.743 361.785C192.016 363.212 189.576 363.925 186.423 363.925C185.903 363.925 185.059 363.925 183.893 363.925C182.733 363.925 181.479 363.925 180.133 363.925C178.779 363.925 177.523 363.925 176.363 363.925C175.196 363.925 174.389 363.925 173.943 363.925C170.643 363.925 168.053 363.475 166.173 362.575C164.299 361.675 162.969 360.102 162.183 357.855C161.396 355.602 161.003 352.452 161.003 348.405Z" fill="white"/>
<path d="M251.698 275.275V261.105H262.048V275.275H251.698ZM232.688 279.215V270.325H281.178V279.215H232.688ZM230.888 302.385V293.275H282.978V302.385H230.888ZM240.678 330.175V323.085H273.078V330.175H240.678ZM240.678 344.125V337.035H273.078V344.125H240.678ZM239.208 280.565L247.648 278.655C248.621 280.755 249.484 283.079 250.238 285.625C250.984 288.179 251.548 290.355 251.928 292.155L243.038 294.405C242.811 292.605 242.341 290.392 241.628 287.765C240.914 285.139 240.108 282.739 239.208 280.565ZM266.098 278.315L275.658 280.565C274.611 283.112 273.581 285.569 272.568 287.935C271.554 290.295 270.674 292.412 269.928 294.285L261.828 292.155C262.574 290.202 263.378 287.912 264.238 285.285C265.104 282.665 265.724 280.342 266.098 278.315ZM236.738 365.275V308.575H273.518V316.335H246.638V365.275H236.738ZM267.788 354.365V308.575H278.248V354.585C278.248 356.985 277.968 358.899 277.408 360.325C276.841 361.752 275.734 362.879 274.088 363.705C272.434 364.525 270.448 365.012 268.128 365.165C265.801 365.312 263.061 365.385 259.908 365.385C259.608 363.965 259.121 362.355 258.448 360.555C257.774 358.755 257.101 357.215 256.428 355.935C258.601 356.015 260.588 356.072 262.388 356.105C264.188 356.145 265.424 356.129 266.098 356.055C266.698 356.055 267.128 355.942 267.388 355.715C267.654 355.489 267.788 355.039 267.788 354.365ZM292.198 278.085V269.425H333.488V278.085H292.198ZM292.198 323.085V316.565H329.098V323.085H292.198ZM292.758 335.575V329.055H328.418V335.575H292.758ZM291.748 348.175V341.655H329.548V348.175H291.748ZM288.148 291.255V261.105H298.498V291.255H288.148ZM288.148 294.175V285.965H329.098V310.715H288.148V302.615H318.748V294.175H288.148ZM288.148 351.435V306.885H298.498V351.435C298.498 353.389 298.834 354.645 299.508 355.205C300.188 355.772 301.801 356.055 304.348 356.055C304.948 356.055 306.018 356.055 307.558 356.055C309.091 356.055 310.794 356.055 312.668 356.055C314.548 356.055 316.311 356.055 317.958 356.055C319.611 356.055 320.774 356.055 321.448 356.055C322.721 356.055 323.698 355.829 324.378 355.375C325.051 354.929 325.554 354.049 325.888 352.735C326.228 351.422 326.434 349.529 326.508 347.055C327.634 347.875 329.098 348.625 330.898 349.305C332.698 349.979 334.311 350.465 335.738 350.765C335.358 354.365 334.721 357.179 333.828 359.205C332.928 361.225 331.578 362.669 329.778 363.535C327.978 364.395 325.501 364.825 322.348 364.825C321.821 364.825 320.901 364.825 319.588 364.825C318.281 364.825 316.821 364.825 315.208 364.825C313.594 364.825 311.944 364.825 310.258 364.825C308.571 364.825 307.088 364.825 305.808 364.825C304.534 364.825 303.634 364.825 303.108 364.825C299.208 364.825 296.171 364.452 293.998 363.705C291.824 362.952 290.304 361.619 289.438 359.705C288.578 357.792 288.148 355.035 288.148 351.435Z" fill="white"/>
<path d="M399.073 270.069C399.347 270.136 399.53 270.259 399.623 270.439L399.983 270.809L401.823 273.929L402.193 274.479L402.553 275.209L402.743 275.769L403.113 276.129L403.663 277.419C404.363 278.186 404.853 278.979 405.133 279.799C391.787 288.306 384.623 299.812 383.643 314.319C383.277 332.339 390.44 345.802 405.133 354.709L403.473 357.279L403.113 358.199L402.193 359.669L399.983 363.519C399.71 363.886 399.407 364.132 399.073 364.259L398.703 363.889L398.333 363.709C396.987 362.942 395.947 362.206 395.213 361.499C377.713 350.759 368.9 335.949 368.773 317.069C369.66 297.302 377.983 282.862 393.743 273.749C393.897 273.562 394.08 273.439 394.293 273.379C394.42 273.166 394.543 273.042 394.663 273.009C395.243 272.582 395.733 272.276 396.133 272.089L396.503 271.729C397.57 271.176 398.427 270.622 399.073 270.069Z" fill="white"/>
<path d="M464.278 358.305V348.515H542.457V358.305H464.278ZM457.407 365.055V292.715H548.537V364.825H537.847V302.505H467.757V365.055H457.407ZM508.708 319.265V296.985H518.947V319.265C518.947 320.539 519.117 321.345 519.457 321.685C519.791 322.019 520.597 322.185 521.877 322.185C522.251 322.185 522.944 322.185 523.957 322.185C524.971 322.185 526.038 322.185 527.158 322.185C528.284 322.185 529.034 322.185 529.408 322.185C530.234 322.185 530.834 322.019 531.207 321.685C531.587 321.345 531.871 320.652 532.057 319.605C532.244 318.552 532.374 316.939 532.447 314.765C533.121 315.292 533.984 315.799 535.037 316.285C536.084 316.772 537.171 317.202 538.298 317.575C539.424 317.949 540.474 318.285 541.447 318.585C541.074 321.965 540.474 324.609 539.647 326.515C538.821 328.429 537.697 329.762 536.277 330.515C534.851 331.262 533.011 331.635 530.757 331.635C530.237 331.635 529.487 331.635 528.507 331.635C527.534 331.635 526.504 331.635 525.417 331.635C524.331 331.635 523.317 331.635 522.377 331.635C521.444 331.635 520.751 331.635 520.298 331.635C517.151 331.635 514.751 331.262 513.097 330.515C511.451 329.762 510.307 328.485 509.667 326.685C509.027 324.885 508.708 322.412 508.708 319.265ZM452.688 278.205V267.855H552.587V278.205H452.688ZM483.957 298.335V275.385H494.428V298.335H483.957ZM508.828 298.335V275.385H519.507V298.335H508.828ZM484.517 305.875V295.075H494.428V306.105C494.428 309.705 493.921 313.435 492.908 317.295C491.894 321.155 489.981 324.869 487.167 328.435C484.354 331.995 480.247 335.162 474.847 337.935C474.401 337.262 473.707 336.475 472.767 335.575C471.827 334.675 470.871 333.795 469.897 332.935C468.924 332.069 468.061 331.412 467.307 330.965C472.261 328.565 475.954 325.959 478.387 323.145C480.827 320.332 482.461 317.445 483.288 314.485C484.108 311.519 484.517 308.649 484.517 305.875Z" fill="white"/>
<path d="M604.932 270.528C625.099 281.028 635.442 296.635 635.962 317.348C635.229 337.148 627.029 351.591 611.362 360.678L610.802 361.228L610.252 361.408C610.132 361.621 610.012 361.745 609.892 361.778L609.522 362.148L609.152 362.328L607.872 363.058L605.482 364.718L604.752 364.348L604.562 363.608L604.012 362.878L603.642 362.328L603.282 361.598L602.912 361.228L602.182 359.938C601.842 359.331 601.595 358.781 601.442 358.288L601.072 358.108C600.492 356.915 599.942 355.935 599.422 355.168C614.202 345.561 621.425 332.648 621.092 316.428C619.899 299.781 612.675 287.725 599.422 280.258L600.522 278.238L600.892 277.688L601.072 277.138L601.442 276.778L601.812 275.858L602.182 275.488L602.542 274.938L602.732 274.388L603.092 274.018L603.282 273.468C604.015 272.368 604.565 271.388 604.932 270.528Z" fill="white"/>
<path d="M666.731 311.802L668.431 312.032C671.518 312.459 674.838 313.759 678.391 315.932C682.338 318.319 684.311 321.149 684.311 324.422C684.311 325.889 683.868 327.052 682.981 327.912C682.121 328.672 681.218 329.052 680.271 329.052C678.738 329.052 677.605 328.442 676.871 327.222C676.411 326.455 675.878 325.169 675.271 323.362C674.505 321.069 673.248 319.082 671.501 317.402C669.908 315.869 668.408 314.782 667.001 314.142C665.688 313.529 665.031 313.009 665.031 312.582C665.031 312.029 665.445 311.752 666.271 311.752C666.365 311.752 666.518 311.769 666.731 311.802Z" fill="white"/>
<path d="M749.162 324.665V315.555H802.152V324.665H749.162ZM742.302 342.775V333.885H809.572V342.775H742.302ZM726.882 361.675V352.455H824.762V361.675H726.882ZM740.722 299.575V291.025H779.872V299.575H740.722ZM770.762 296.765V291.025H782.352C784.752 294.099 787.659 297.079 791.072 299.965C794.486 302.859 798.252 305.542 802.372 308.015C806.499 310.489 810.812 312.702 815.312 314.655C819.812 316.602 824.349 318.252 828.922 319.605C828.102 320.205 827.166 320.992 826.112 321.965C825.066 322.939 824.052 323.952 823.072 325.005C822.099 326.052 821.312 327.025 820.712 327.925C814.712 325.752 808.789 323.052 802.942 319.825C797.089 316.599 791.669 313.019 786.682 309.085C781.696 305.145 777.402 301.039 773.802 296.765H770.762ZM768.292 292.155L777.962 295.865C774.289 300.812 769.826 305.385 764.572 309.585C759.326 313.785 753.719 317.499 747.752 320.725C741.792 323.952 735.776 326.765 729.702 329.165C729.176 328.412 728.462 327.512 727.562 326.465C726.662 325.412 725.726 324.379 724.752 323.365C723.779 322.359 722.916 321.555 722.162 320.955C728.316 319.075 734.316 316.712 740.162 313.865C746.016 311.012 751.359 307.749 756.192 304.075C761.032 300.402 765.066 296.429 768.292 292.155ZM770.092 358.865V319.715H781.002V358.865H770.092ZM726.102 279.435V269.655H825.552V279.435H726.102ZM750.062 288.775V261.105H760.642V288.775H750.062ZM790.342 289.335V261.105H800.912V289.335" fill="white"/>
<path d="M912.427 268.868V263.358H932.107V268.868H912.427ZM911.747 287.208V281.808H932.897V287.208H911.747ZM911.747 295.638V290.358H932.897V295.638H911.747ZM895.327 348.968V342.108H952.357V348.968H895.327ZM908.487 278.318V272.358H935.487V278.318H908.487ZM926.147 304.528H918.157V310.938H926.147V304.528ZM911.517 316.118V299.358H933.007V316.118H911.517ZM897.237 337.378V330.968H943.917V326.128H890.257V319.718H953.827V337.378H897.237ZM893.407 317.688V292.158H900.497V317.688H893.407ZM883.177 296.088L882.387 289.228C885.687 289.081 889.381 288.931 893.467 288.778C897.554 288.631 901.884 288.444 906.457 288.218V294.408C902.257 294.781 898.191 295.081 894.257 295.308C890.317 295.528 886.624 295.788 883.177 296.088ZM894.197 330.968H904.097C903.197 334.568 902.224 338.318 901.177 342.218C900.124 346.118 899.147 349.491 898.247 352.338L888.687 350.988C889.734 348.214 890.747 345.008 891.727 341.368C892.701 337.734 893.524 334.268 894.197 330.968ZM948.987 343.228V342.108H958.997C958.997 342.108 958.961 342.611 958.887 343.618C958.814 344.631 958.664 345.478 958.437 346.158C957.384 350.804 956.294 354.458 955.167 357.118C954.047 359.784 952.737 361.718 951.237 362.918C949.964 363.818 948.594 364.434 947.127 364.768C945.667 365.108 943.924 365.314 941.897 365.388C940.171 365.468 937.714 365.488 934.527 365.448C931.341 365.408 927.947 365.314 924.347 365.168C924.274 363.968 923.974 362.618 923.447 361.118C922.921 359.618 922.284 358.268 921.537 357.068C925.064 357.441 928.477 357.664 931.777 357.738C935.077 357.818 937.401 357.858 938.747 357.858C939.947 357.858 940.921 357.818 941.667 357.738C942.421 357.664 943.061 357.441 943.587 357.068C944.634 356.241 945.591 354.758 946.457 352.618C947.317 350.484 948.161 347.354 948.987 343.228ZM901.847 300.138L907.247 298.908C907.847 300.781 908.427 302.841 908.987 305.088C909.554 307.341 909.987 309.291 910.287 310.938L904.437 312.518C904.284 310.791 903.964 308.784 903.477 306.498C902.991 304.211 902.447 302.091 901.847 300.138ZM901.507 284.838L906.347 283.038C907.321 284.918 908.221 287.018 909.047 289.338C909.874 291.664 910.437 293.691 910.737 295.418L905.447 297.438C905.221 295.718 904.734 293.694 903.987 291.368C903.234 289.041 902.407 286.864 901.507 284.838ZM883.507 275.958L887.107 270.558C889.287 271.978 891.424 273.608 893.517 275.448C895.624 277.288 897.201 278.881 898.247 280.228L894.197 286.418C893.071 284.844 891.497 283.081 889.477 281.128C887.451 279.181 885.461 277.458 883.507 275.958ZM894.197 260.768L900.607 263.918C899.107 266.391 897.607 268.904 896.107 271.458C894.607 274.004 893.184 276.141 891.837 277.868L886.887 275.278C888.087 273.331 889.401 270.951 890.827 268.138C892.247 265.324 893.371 262.868 894.197 260.768ZM901.397 270.108L907.697 273.708C905.224 277.081 902.581 280.641 899.767 284.388C896.954 288.141 894.311 291.291 891.837 293.838L887.107 290.918C888.687 289.044 890.377 286.908 892.177 284.508C893.977 282.108 895.681 279.631 897.287 277.078C898.901 274.531 900.271 272.208 901.397 270.108ZM885.987 298.458L892.627 299.918C891.947 302.844 891.121 305.768 890.147 308.688C889.174 311.614 888.124 314.128 886.997 316.228C886.324 315.781 885.347 315.274 884.067 314.708C882.794 314.148 881.747 313.681 880.927 313.308C882.201 311.208 883.247 308.861 884.067 306.268C884.894 303.681 885.534 301.078 885.987 298.458ZM945.387 317.688V292.158H952.587V317.688H945.387ZM935.037 296.088L934.357 289.228C937.811 289.081 941.694 288.931 946.007 288.778C950.321 288.631 954.914 288.481 959.787 288.328L959.667 294.518C955.247 294.818 950.954 295.098 946.787 295.358C942.627 295.624 938.711 295.868 935.037 296.088ZM954.157 300.138L959.897 298.458C960.871 300.704 961.827 303.178 962.767 305.878C963.701 308.578 964.357 310.904 964.737 312.858L958.777 314.768C958.477 312.814 957.877 310.451 956.977 307.678C956.077 304.904 955.137 302.391 954.157 300.138ZM953.257 284.618L958.547 282.258C959.821 284.204 961.001 286.358 962.087 288.718C963.181 291.084 963.951 293.168 964.397 294.968L958.657 297.558C958.284 295.758 957.591 293.638 956.577 291.198C955.564 288.758 954.457 286.564 953.257 284.618ZM934.587 275.728L938.407 270.668C940.361 272.014 942.311 273.571 944.257 275.338C946.211 277.098 947.711 278.691 948.757 280.118L944.377 285.968C943.397 284.468 941.991 282.741 940.157 280.788C938.317 278.841 936.461 277.154 934.587 275.728ZM945.607 260.878L952.027 264.138C950.447 266.618 948.871 269.111 947.297 271.618C945.724 274.131 944.224 276.288 942.797 278.088L937.847 275.508C939.121 273.554 940.507 271.171 942.007 268.358C943.507 265.544 944.707 263.051 945.607 260.878ZM953.597 269.658L959.897 273.258C957.351 276.631 954.577 280.191 951.577 283.938C948.577 287.691 945.727 290.841 943.027 293.388L938.407 290.468C940.134 288.594 941.934 286.458 943.807 284.058C945.687 281.658 947.487 279.181 949.207 276.628C950.934 274.081 952.397 271.758 953.597 269.658ZM937.847 298.458L944.377 300.028C943.851 302.801 943.101 305.631 942.127 308.518C941.147 311.411 940.097 313.868 938.977 315.888C938.377 315.514 937.477 315.008 936.277 314.368C935.077 313.734 934.027 313.231 933.127 312.858C934.321 310.758 935.294 308.468 936.047 305.988C936.794 303.514 937.394 301.004 937.847 298.458ZM861.347 269.538L867.537 262.568C869.411 263.541 871.377 264.721 873.437 266.108C875.504 267.494 877.437 268.881 879.237 270.268C881.037 271.661 882.501 272.994 883.627 274.268L877.207 282.138C876.161 280.864 874.754 279.478 872.987 277.978C871.227 276.478 869.334 274.998 867.307 273.538C865.287 272.071 863.301 270.738 861.347 269.538ZM858.987 299.578L864.837 292.268C866.784 293.168 868.827 294.274 870.967 295.588C873.107 296.901 875.094 298.211 876.927 299.518C878.767 300.831 880.287 302.088 881.487 303.288L875.297 311.388C874.171 310.188 872.691 308.878 870.857 307.458C869.017 306.031 867.047 304.624 864.947 303.238C862.847 301.851 860.861 300.631 858.987 299.578ZM870.797 364.158L861.237 358.758C862.664 355.758 864.181 352.268 865.787 348.288C867.401 344.314 869.051 340.114 870.737 335.688C872.431 331.268 873.987 326.918 875.407 322.638L883.847 328.038C882.647 332.018 881.297 336.108 879.797 340.308C878.297 344.508 876.797 348.631 875.297 352.678C873.797 356.731 872.297 360.558 870.797 364.158Z" fill="white"/>
<path d="M212.5 254H77V394.5H212.5V254Z" stroke="white" stroke-width="2" stroke-dasharray="5 5"/>
<path d="M350 254H214.5V394.5H350V254Z" stroke="white" stroke-width="2" stroke-dasharray="5 5"/>
<path d="M432.5 254H352V394.5H432.5V254Z" stroke="white" stroke-width="2" stroke-dasharray="5 5"/>
<path d="M570 254H434.5V394.5H570V254Z" stroke="white" stroke-width="2" stroke-dasharray="5 5"/>
<path d="M652.5 254H572V394.5H652.5V254Z" stroke="white" stroke-width="2" stroke-dasharray="5 5"/>
<path d="M704 254H654.5V394.5H704V254Z" stroke="white" stroke-width="2" stroke-dasharray="5 5"/>
<path d="M841.5 254H706V394.5H841.5V254Z" stroke="white" stroke-width="2" stroke-dasharray="5 5"/>
<path d="M979 254H843.5V394.5H979V254Z" stroke="white" stroke-width="2" stroke-dasharray="5 5"/>
<path d="M1251.5 152.697V37.4846" stroke="#46C147" stroke-width="3.03189"/>
<path d="M1226.5 152.697V37.4846" stroke="#46C147" stroke-width="3.03189"/>
<path d="M1251.5 61.7399H1226.5" stroke="#46C147" stroke-width="3.03189"/>
<path d="M1251.5 61.7399L1287.88 70.8356V52.6442L1251.5 61.7399Z" fill="#46C147"/>
<path d="M1226.5 61.7399L1190.12 70.8356V52.6442L1226.5 61.7399Z" fill="#46C147"/>
<path d="M1200.74 27V24.6744L1209.47 15.1136C1210.5 13.9939 1211.34 13.0206 1212.01 12.1937C1212.67 11.3582 1213.16 10.5744 1213.48 9.84223C1213.81 9.10148 1213.97 8.32628 1213.97 7.51663C1213.97 6.58639 1213.75 5.78104 1213.3 5.10059C1212.86 4.42014 1212.26 3.89472 1211.49 3.52435C1210.72 3.15398 1209.86 2.96879 1208.9 2.96879C1207.89 2.96879 1207 3.17982 1206.24 3.60187C1205.49 4.01531 1204.91 4.59671 1204.5 5.34607C1204.09 6.09543 1203.89 6.97399 1203.89 7.98175H1200.84C1200.84 6.43135 1201.2 5.07044 1201.91 3.89903C1202.63 2.72761 1203.6 1.8146 1204.83 1.15999C1206.08 0.505374 1207.47 0.178067 1209.01 0.178067C1210.56 0.178067 1211.93 0.505374 1213.13 1.15999C1214.33 1.8146 1215.27 2.69747 1215.95 3.80859C1216.63 4.91971 1216.97 6.15572 1216.97 7.51663C1216.97 8.48994 1216.79 9.44171 1216.44 10.372C1216.09 11.2936 1215.49 12.3229 1214.63 13.4598C1213.78 14.5882 1212.59 15.9663 1211.08 17.5942L1205.13 23.9509V24.1576H1217.43V27H1200.74ZM1236.88 11.5994L1234.14 12.3746C1233.96 11.918 1233.71 11.4745 1233.37 11.0438C1233.05 10.6045 1232.6 10.2428 1232.03 9.95851C1231.46 9.67427 1230.73 9.53215 1229.85 9.53215C1228.63 9.53215 1227.62 9.81209 1226.81 10.372C1226.01 10.9232 1225.61 11.6252 1225.61 12.4779C1225.61 13.2359 1225.89 13.8345 1226.44 14.2738C1226.99 14.7131 1227.85 15.0791 1229.02 15.372L1231.97 16.0955C1233.74 16.5262 1235.06 17.1851 1235.93 18.0723C1236.8 18.9508 1237.24 20.0835 1237.24 21.4702C1237.24 22.6072 1236.91 23.6236 1236.26 24.5194C1235.61 25.4151 1234.71 26.1214 1233.54 26.6382C1232.38 27.155 1231.03 27.4134 1229.49 27.4134C1227.46 27.4134 1225.79 26.9742 1224.46 26.0956C1223.13 25.217 1222.29 23.9337 1221.94 22.2454L1224.83 21.5219C1225.11 22.59 1225.63 23.391 1226.4 23.925C1227.17 24.4591 1228.19 24.7261 1229.43 24.7261C1230.86 24.7261 1231.98 24.4246 1232.82 23.8217C1233.66 23.2101 1234.09 22.478 1234.09 21.6253C1234.09 20.9362 1233.84 20.3591 1233.36 19.894C1232.88 19.4203 1232.14 19.0671 1231.14 18.8346L1227.83 18.0594C1226.01 17.6287 1224.68 16.9612 1223.83 16.0568C1222.98 15.1437 1222.56 14.0025 1222.56 12.633C1222.56 11.5132 1222.88 10.5227 1223.5 9.66135C1224.14 8.80002 1225.01 8.12387 1226.1 7.63291C1227.2 7.14195 1228.45 6.89647 1229.85 6.89647C1231.81 6.89647 1233.35 7.32714 1234.47 8.18847C1235.6 9.0498 1236.4 10.1868 1236.88 11.5994ZM1246.32 27L1240.28 7.15487H1243.48L1247.77 22.3488H1247.98L1252.22 7.15487H1255.47L1259.66 22.2971H1259.86L1264.15 7.15487H1267.36L1261.31 27H1258.31L1253.97 11.7544H1253.66L1249.32 27H1246.32Z" fill="#46C147"/>
<path d="M1526.38 152.697V37.4846" stroke="#46C147" stroke-width="3.03189"/>
<path d="M1477 152.697V37.4846" stroke="#46C147" stroke-width="3.03189"/>
<path d="M1526.38 61.7399H1476.38" stroke="#46C147" stroke-width="3.03189"/>
<path d="M1526.38 61.7399L1562.77 70.8356V52.6442L1526.38 61.7399Z" fill="#46C147"/>
<path d="M1477.38 61.7399L1441 70.8356V52.6442L1477.38 61.7399Z" fill="#46C147"/>
<path d="M1468.12 21.5736V18.9379L1479.75 0.539827H1481.66V4.62255H1480.37L1471.58 18.5245V18.7312H1487.24V21.5736H1468.12ZM1480.57 27V20.7726V19.5452V0.539827H1483.62V27H1480.57ZM1506.19 11.5994L1503.45 12.3746C1503.28 11.918 1503.03 11.4745 1502.69 11.0438C1502.36 10.6045 1501.91 10.2428 1501.35 9.95851C1500.78 9.67427 1500.05 9.53215 1499.16 9.53215C1497.95 9.53215 1496.94 9.81209 1496.13 10.372C1495.33 10.9232 1494.92 11.6252 1494.92 12.4779C1494.92 13.2359 1495.2 13.8345 1495.75 14.2738C1496.3 14.7131 1497.16 15.0791 1498.34 15.372L1501.28 16.0955C1503.06 16.5262 1504.38 17.1851 1505.25 18.0723C1506.12 18.9508 1506.55 20.0835 1506.55 21.4702C1506.55 22.6072 1506.23 23.6236 1505.57 24.5194C1504.92 25.4151 1504.02 26.1214 1502.86 26.6382C1501.69 27.155 1500.34 27.4134 1498.8 27.4134C1496.78 27.4134 1495.1 26.9742 1493.77 26.0956C1492.45 25.217 1491.61 23.9337 1491.26 22.2454L1494.15 21.5219C1494.43 22.59 1494.95 23.391 1495.71 23.925C1496.49 24.4591 1497.5 24.7261 1498.75 24.7261C1500.17 24.7261 1501.3 24.4246 1502.13 23.8217C1502.98 23.2101 1503.4 22.478 1503.4 21.6253C1503.4 20.9362 1503.16 20.3591 1502.68 19.894C1502.19 19.4203 1501.45 19.0671 1500.45 18.8346L1497.15 18.0594C1495.33 17.6287 1493.99 16.9612 1493.14 16.0568C1492.3 15.1437 1491.88 14.0025 1491.88 12.633C1491.88 11.5132 1492.19 10.5227 1492.82 9.66135C1493.46 8.80002 1494.32 8.12387 1495.42 7.63291C1496.52 7.14195 1497.77 6.89647 1499.16 6.89647C1501.13 6.89647 1502.67 7.32714 1503.79 8.18847C1504.92 9.0498 1505.72 10.1868 1506.19 11.5994ZM1515.64 27L1509.59 7.15487H1512.8L1517.09 22.3488H1517.29L1521.53 7.15487H1524.79L1528.97 22.2971H1529.18L1533.47 7.15487H1536.67L1530.63 27H1527.63L1523.29 11.7544H1522.98L1518.64 27H1515.64Z" fill="#46C147"/>
<path d="M1224 154.635H1689" stroke="#FF0000" stroke-width="2.74323"/>
<path d="M1672.3 155L1664.07 187.919H1680.53L1672.3 155Z" fill="#FF0000"/>
<path d="M1672.3 160.919L1664.07 128H1680.53L1672.3 160.919Z" fill="#FF0000"/>
<path d="M1701.95 169V166.896L1709.85 158.245C1710.78 157.232 1711.54 156.352 1712.14 155.603C1712.74 154.847 1713.19 154.138 1713.47 153.476C1713.77 152.806 1713.92 152.104 1713.92 151.372C1713.92 150.53 1713.72 149.801 1713.31 149.186C1712.91 148.57 1712.37 148.095 1711.67 147.759C1710.98 147.424 1710.2 147.257 1709.34 147.257C1708.42 147.257 1707.61 147.448 1706.93 147.83C1706.25 148.204 1705.72 148.73 1705.35 149.408C1704.98 150.086 1704.8 150.881 1704.8 151.792H1702.04C1702.04 150.39 1702.36 149.158 1703.01 148.098C1703.66 147.039 1704.54 146.212 1705.65 145.62C1706.78 145.028 1708.03 144.732 1709.43 144.732C1710.83 144.732 1712.07 145.028 1713.16 145.62C1714.24 146.212 1715.09 147.011 1715.71 148.017C1716.32 149.022 1716.63 150.14 1716.63 151.372C1716.63 152.252 1716.47 153.113 1716.15 153.955C1715.84 154.789 1715.29 155.72 1714.51 156.749C1713.74 157.77 1712.67 159.017 1711.3 160.49L1705.92 166.241V166.428H1717.05V169H1701.95ZM1734.64 155.066L1732.17 155.767C1732.01 155.354 1731.78 154.953 1731.48 154.563C1731.18 154.165 1730.77 153.838 1730.26 153.581C1729.75 153.324 1729.09 153.195 1728.28 153.195C1727.19 153.195 1726.27 153.449 1725.54 153.955C1724.81 154.454 1724.45 155.089 1724.45 155.861C1724.45 156.546 1724.7 157.088 1725.2 157.485C1725.7 157.883 1726.48 158.214 1727.54 158.479L1730.2 159.134C1731.81 159.523 1733 160.12 1733.79 160.922C1734.58 161.717 1734.97 162.742 1734.97 163.997C1734.97 165.025 1734.68 165.945 1734.08 166.756C1733.5 167.566 1732.68 168.205 1731.63 168.673C1730.58 169.14 1729.35 169.374 1727.96 169.374C1726.13 169.374 1724.61 168.977 1723.41 168.182C1722.21 167.387 1721.45 166.226 1721.13 164.698L1723.75 164.043C1724 165.01 1724.47 165.735 1725.16 166.218C1725.87 166.701 1726.78 166.943 1727.91 166.943C1729.2 166.943 1730.22 166.67 1730.97 166.124C1731.74 165.571 1732.12 164.909 1732.12 164.137C1732.12 163.514 1731.9 162.991 1731.46 162.571C1731.03 162.142 1730.36 161.822 1729.45 161.612L1726.46 160.911C1724.82 160.521 1723.61 159.917 1722.84 159.099C1722.07 158.273 1721.69 157.24 1721.69 156.001C1721.69 154.988 1721.98 154.091 1722.55 153.312C1723.12 152.533 1723.91 151.921 1724.89 151.477C1725.89 151.033 1727.02 150.81 1728.28 150.81C1730.06 150.81 1731.46 151.2 1732.47 151.979C1733.49 152.759 1734.22 153.788 1734.64 155.066ZM1743.19 169L1737.72 151.044H1740.62L1744.5 164.792H1744.69L1748.52 151.044H1751.47L1755.26 164.745H1755.44L1759.32 151.044H1762.22L1756.75 169H1754.04L1750.11 155.206H1749.83L1745.9 169H1743.19Z" fill="#FF0000"/>
</svg>
