<svg width="1075" height="400" viewBox="0 0 1075 400" fill="none" xmlns="http://www.w3.org/2000/svg">
<g clip-path="url(#clip0_0_1)">
<path d="M21.7173 131.5C21.7173 110.789 38.5066 94 59.2174 94H934.221C954.931 94 971.721 110.789 971.721 131.5V981.5C971.721 1002.21 954.931 1019 934.221 1019H59.2174C38.5066 1019 21.7173 1002.21 21.7173 981.5V131.5Z" fill="white"/>
<path d="M40.4673 131.5C40.4673 121.145 48.862 112.75 59.2174 112.75H934.22C944.576 112.75 952.971 121.145 952.971 131.5V981.5C952.971 991.855 944.576 1000.25 934.22 1000.25H59.2174C48.862 1000.25 40.4673 991.855 40.4673 981.5V131.5Z" fill="#0033A2"/>
<path d="M878.97 199.048L916.47 236.548V349.048V976.452H878.97H841.47V349.048V236.548L878.97 199.048Z" fill="white"/>
<path d="M121.13 320.713V311.603H174.12V320.713H121.13ZM114.27 338.823V329.933H181.54V338.823H114.27ZM98.85 357.723V348.503H196.73V357.723H98.85ZM112.69 295.623V287.073H151.84V295.623H112.69ZM142.73 292.813V287.073H154.32C156.72 290.147 159.627 293.127 163.04 296.013C166.454 298.907 170.22 301.59 174.34 304.063C178.467 306.537 182.78 308.75 187.28 310.703C191.78 312.65 196.317 314.3 200.89 315.653C200.07 316.253 199.134 317.04 198.08 318.013C197.034 318.987 196.02 320 195.04 321.053C194.067 322.1 193.28 323.073 192.68 323.973C186.68 321.8 180.757 319.1 174.91 315.873C169.057 312.647 163.637 309.067 158.65 305.133C153.664 301.193 149.37 297.087 145.77 292.813H142.73ZM140.26 288.203L149.93 291.913C146.257 296.86 141.793 301.433 136.54 305.633C131.293 309.833 125.687 313.547 119.72 316.773C113.76 320 107.743 322.813 101.67 325.213C101.143 324.46 100.43 323.56 99.53 322.513C98.63 321.46 97.6933 320.427 96.72 319.413C95.7466 318.407 94.8833 317.603 94.1299 317.003C100.283 315.123 106.283 312.76 112.13 309.913C117.983 307.06 123.327 303.797 128.16 300.123C133 296.45 137.033 292.477 140.26 288.203ZM142.06 354.913V315.763H152.97V354.913H142.06ZM98.07 275.483V265.703H197.52V275.483H98.07ZM122.03 284.823V257.153H132.61V284.823H122.03ZM162.31 285.383V257.153H172.88V285.383" fill="white"/>
<path d="M284.396 264.916V259.406H304.076V264.916H284.396ZM283.716 283.256V277.856H304.866V283.256H283.716ZM283.716 291.686V286.406H304.866V291.686H283.716ZM267.296 345.016V338.156H324.326V345.016H267.296ZM280.456 274.366V268.406H307.456V274.366H280.456ZM298.116 300.576H290.126V306.986H298.116V300.576ZM283.486 312.166V295.406H304.976V312.166H283.486ZM269.206 333.426V327.016H315.886V322.176H262.226V315.766H325.796V333.426H269.206ZM265.376 313.736V288.206H272.466V313.736H265.376ZM255.146 292.136L254.356 285.276C257.656 285.129 261.349 284.979 265.436 284.826C269.522 284.679 273.852 284.492 278.426 284.266V290.456C274.226 290.829 270.159 291.129 266.226 291.356C262.286 291.576 258.592 291.836 255.146 292.136ZM266.166 327.016H276.066C275.166 330.616 274.192 334.366 273.146 338.266C272.092 342.166 271.116 345.539 270.216 348.386L260.656 347.036C261.702 344.262 262.716 341.056 263.696 337.416C264.669 333.782 265.492 330.316 266.166 327.016ZM320.956 339.276V338.156H330.966C330.966 338.156 330.929 338.659 330.856 339.666C330.782 340.679 330.632 341.526 330.406 342.206C329.352 346.852 328.262 350.506 327.136 353.166C326.016 355.832 324.706 357.766 323.206 358.966C321.932 359.866 320.562 360.482 319.096 360.816C317.636 361.156 315.892 361.362 313.866 361.436C312.139 361.516 309.682 361.536 306.496 361.496C303.309 361.456 299.916 361.362 296.316 361.216C296.242 360.016 295.942 358.666 295.416 357.166C294.889 355.666 294.252 354.316 293.506 353.116C297.032 353.489 300.446 353.712 303.746 353.786C307.046 353.866 309.369 353.906 310.716 353.906C311.916 353.906 312.889 353.866 313.636 353.786C314.389 353.712 315.029 353.489 315.556 353.116C316.602 352.289 317.559 350.806 318.426 348.666C319.286 346.532 320.129 343.402 320.956 339.276ZM273.816 296.186L279.216 294.956C279.816 296.829 280.396 298.889 280.956 301.136C281.522 303.389 281.956 305.339 282.256 306.986L276.406 308.566C276.252 306.839 275.932 304.832 275.446 302.546C274.959 300.259 274.416 298.139 273.816 296.186ZM273.476 280.886L278.316 279.086C279.289 280.966 280.189 283.066 281.016 285.386C281.842 287.712 282.406 289.739 282.706 291.466L277.416 293.486C277.189 291.766 276.702 289.742 275.956 287.416C275.202 285.089 274.376 282.912 273.476 280.886ZM255.476 272.006L259.076 266.606C261.256 268.026 263.392 269.656 265.486 271.496C267.592 273.336 269.169 274.929 270.216 276.276L266.166 282.466C265.039 280.892 263.466 279.129 261.446 277.176C259.419 275.229 257.429 273.506 255.476 272.006ZM266.166 256.816L272.576 259.966C271.076 262.439 269.576 264.952 268.076 267.506C266.576 270.052 265.152 272.189 263.806 273.916L258.856 271.326C260.056 269.379 261.369 266.999 262.796 264.186C264.216 261.372 265.339 258.916 266.166 256.816ZM273.366 266.156L279.666 269.756C277.192 273.129 274.549 276.689 271.736 280.436C268.922 284.189 266.279 287.339 263.806 289.886L259.076 286.966C260.656 285.092 262.346 282.956 264.146 280.556C265.946 278.156 267.649 275.679 269.256 273.126C270.869 270.579 272.239 268.256 273.366 266.156ZM257.956 294.506L264.596 295.966C263.916 298.892 263.089 301.816 262.116 304.736C261.142 307.662 260.092 310.176 258.966 312.276C258.292 311.829 257.316 311.322 256.036 310.756C254.762 310.196 253.716 309.729 252.896 309.356C254.169 307.256 255.216 304.909 256.036 302.316C256.862 299.729 257.502 297.126 257.956 294.506ZM317.356 313.736V288.206H324.556V313.736H317.356ZM307.006 292.136L306.326 285.276C309.779 285.129 313.662 284.979 317.976 284.826C322.289 284.679 326.882 284.529 331.756 284.376L331.636 290.566C327.216 290.866 322.922 291.146 318.756 291.406C314.596 291.672 310.679 291.916 307.006 292.136ZM326.126 296.186L331.866 294.506C332.839 296.752 333.796 299.226 334.736 301.926C335.669 304.626 336.326 306.952 336.706 308.906L330.746 310.816C330.446 308.862 329.846 306.499 328.946 303.726C328.046 300.952 327.106 298.439 326.126 296.186ZM325.226 280.666L330.516 278.306C331.789 280.252 332.969 282.406 334.056 284.766C335.149 287.132 335.919 289.216 336.366 291.016L330.626 293.606C330.252 291.806 329.559 289.686 328.546 287.246C327.532 284.806 326.426 282.612 325.226 280.666ZM306.556 271.776L310.376 266.716C312.329 268.062 314.279 269.619 316.226 271.386C318.179 273.146 319.679 274.739 320.726 276.166L316.346 282.016C315.366 280.516 313.959 278.789 312.126 276.836C310.286 274.889 308.429 273.202 306.556 271.776ZM317.576 256.926L323.996 260.186C322.416 262.666 320.839 265.159 319.266 267.666C317.692 270.179 316.192 272.336 314.766 274.136L309.816 271.556C311.089 269.602 312.476 267.219 313.976 264.406C315.476 261.592 316.676 259.099 317.576 256.926ZM325.566 265.706L331.866 269.306C329.319 272.679 326.546 276.239 323.546 279.986C320.546 283.739 317.696 286.889 314.996 289.436L310.376 286.516C312.102 284.642 313.902 282.506 315.776 280.106C317.656 277.706 319.456 275.229 321.176 272.676C322.902 270.129 324.366 267.806 325.566 265.706ZM309.816 294.506L316.346 296.076C315.819 298.849 315.069 301.679 314.096 304.566C313.116 307.459 312.066 309.916 310.946 311.936C310.346 311.562 309.446 311.056 308.246 310.416C307.046 309.782 305.996 309.279 305.096 308.906C306.289 306.806 307.262 304.516 308.016 302.036C308.762 299.562 309.362 297.052 309.816 294.506ZM233.315 265.586L239.505 258.616C241.379 259.589 243.345 260.769 245.405 262.156C247.472 263.542 249.406 264.929 251.206 266.316C253.006 267.709 254.469 269.042 255.596 270.316L249.176 278.186C248.129 276.912 246.722 275.526 244.955 274.026C243.195 272.526 241.302 271.046 239.275 269.586C237.255 268.119 235.269 266.786 233.315 265.586ZM230.955 295.626L236.805 288.316C238.752 289.216 240.795 290.322 242.935 291.636C245.075 292.949 247.062 294.259 248.896 295.566C250.736 296.879 252.256 298.136 253.456 299.336L247.266 307.436C246.139 306.236 244.659 304.926 242.825 303.506C240.985 302.079 239.015 300.672 236.915 299.286C234.815 297.899 232.829 296.679 230.955 295.626ZM242.765 360.206L233.205 354.806C234.632 351.806 236.149 348.316 237.755 344.336C239.369 340.362 241.019 336.162 242.705 331.736C244.399 327.316 245.955 322.966 247.376 318.686L255.816 324.086C254.616 328.066 253.266 332.156 251.766 336.356C250.266 340.556 248.766 344.679 247.266 348.726C245.765 352.779 244.265 356.606 242.765 360.206Z" fill="white"/>
<path d="M213.468 250.048H77.9673V390.548H213.468V250.048Z" stroke="white" stroke-width="2" stroke-dasharray="5 5"/>
<path d="M350.968 250.048H215.468V390.548H350.968V250.048Z" stroke="white" stroke-width="2" stroke-dasharray="5 5"/>
<path d="M710.47 149.048H760.47L822.97 211.548V349.048H597.969V211.548L660.469 149.048H710.47ZM644.844 311.548H776.095C800.641 277.922 795.8 231.183 764.882 203.303C733.964 175.423 686.975 175.423 656.057 203.303C625.14 231.183 620.298 277.922 644.844 311.548Z" fill="white"/>
<path d="M78.4869 167.099V156.079H129.157V167.099H109.877V226.399H97.7669V167.099" fill="white"/>
<path d="M171.876 182.325L171.326 183.065L170.776 183.615L170.226 183.985L169.486 185.085L169.126 185.455L168.756 185.635C168.356 186.189 167.99 186.615 167.656 186.915L165.266 189.675C160.186 186.402 155.98 184.765 152.646 184.765C149.22 184.765 146.696 186.462 145.076 189.855C145.136 191.849 145.93 193.319 147.456 194.265C148.13 194.445 148.62 194.629 148.926 194.815C150.12 194.995 151.1 195.239 151.866 195.545C163.46 196.405 169.946 201.059 171.326 209.505C171.386 209.872 171.416 210.229 171.416 210.575C171.416 210.929 171.416 211.275 171.416 211.615C171.416 217.762 168.816 222.382 163.616 225.475C159.883 227.155 156.133 227.995 152.366 227.995C145.206 227.995 138.063 224.952 130.936 218.865L131.306 218.135L132.216 217.215C132.83 216.482 133.383 215.929 133.876 215.555C133.996 215.342 134.116 215.222 134.236 215.195L134.606 214.645C134.726 214.432 134.85 214.309 134.976 214.275L135.156 213.905L135.526 213.725L137.916 210.965C142.443 215.252 147.183 217.395 152.136 217.395C154.216 217.395 156.33 217.029 158.476 216.295C159.023 215.562 159.573 215.012 160.126 214.645C160.313 213.912 160.406 213.222 160.406 212.575C160.406 210.982 159.886 209.652 158.846 208.585L154.616 207.115C142.01 206.349 135.156 200.962 134.056 190.955C134.883 180.889 140.573 175.505 151.126 174.805H151.776C159.883 174.805 166.583 177.312 171.876 182.325Z" fill="white"/>
<path d="M184.255 212.074V176.274H195.275V208.034C195.395 208.187 195.455 208.37 195.455 208.584C195.582 208.677 195.645 208.767 195.645 208.854V208.954C195.858 210.327 196.162 211.55 196.555 212.624C198.668 215.557 201.378 217.024 204.685 217.024H204.825C208.925 215.924 211.798 213.66 213.445 210.234V209.684L214.185 207.484V176.274H225.385V226.394H214.185V222.354C209.778 225.96 205.388 227.764 201.015 227.764C197.615 227.764 194.172 226.694 190.685 224.554C187.838 222.38 185.878 219.81 184.805 216.844L184.625 215.554C184.352 214.667 184.215 213.797 184.215 212.944V212.534C184.215 212.38 184.228 212.227 184.255 212.074Z" fill="white"/>
<path d="M283.804 196.842L283.984 199.592C284.104 199.746 284.164 199.929 284.164 200.142V205.652H250.574C251.274 211.892 254.454 215.566 260.114 216.672C261.034 216.759 261.937 216.802 262.824 216.802C267.444 216.802 271.377 215.289 274.624 212.262C275.017 212.936 275.507 213.486 276.094 213.912L276.274 214.462L276.824 215.012C277.251 215.412 277.617 215.789 277.924 216.142C278.231 216.496 278.477 216.856 278.664 217.222C278.877 217.342 278.997 217.462 279.024 217.582L281.594 220.522C275.781 225.389 269.584 227.822 263.004 227.822C261.877 227.822 260.731 227.746 259.564 227.592C258.404 227.439 257.241 227.226 256.074 226.952C245.487 223.432 239.674 215.842 238.634 204.182C238.634 204.029 238.627 203.722 238.614 203.262C238.601 202.809 238.594 202.519 238.594 202.392C238.594 186.452 245.767 177.379 260.114 175.172C274.374 175.666 282.271 182.889 283.804 196.842ZM250.384 197.022H272.604V196.472C272.477 196.106 272.414 195.739 272.414 195.372V195.002C272.107 194.329 271.924 193.719 271.864 193.172C269.604 187.939 265.871 185.306 260.664 185.272C254.117 186.832 250.691 190.749 250.384 197.022Z" fill="white"/>
<path d="M337.019 185.085V185.635C337.419 186.369 337.665 187.102 337.759 187.835V226.205H326.558V193.715L326.368 192.615C324.842 187.989 322.272 185.675 318.658 185.675C317.558 185.675 316.335 185.905 314.988 186.365C311.928 187.685 309.725 189.769 308.378 192.615L307.648 195.735V226.205H296.628V176.085H307.648V180.305C311.075 177.245 314.808 175.412 318.848 174.805H319.668C327.868 174.805 333.652 178.232 337.019 185.085Z" fill="white"/>
<path d="M376.16 156.632V156.262H388.83L389.01 157.552L389.2 158.102L389.56 159.392L389.93 161.592L390.48 163.422L390.85 165.632L391.4 167.462L391.58 168.932C391.793 169.452 391.917 169.882 391.95 170.222L392.13 170.952L392.5 172.052V172.792C392.62 172.885 392.68 172.975 392.68 173.062V173.712C393.02 174.385 393.207 175.119 393.24 175.912L393.6 177.012L393.97 178.302L394.34 180.502L394.89 182.332L395.07 183.442L396.17 188.032C396.263 188.459 396.35 188.849 396.43 189.202C396.503 189.549 396.54 189.892 396.54 190.232L396.91 190.962V191.702L397.27 192.622V193.352L397.64 194.082V194.822C397.98 195.742 398.163 196.539 398.19 197.212L398.38 197.942C398.593 198.555 398.76 199.122 398.88 199.642C399 200.162 399.077 200.635 399.11 201.062L399.48 202.532L399.85 203.812L400.21 202.712L400.95 199.042L401.31 198.122L401.5 197.022L402.05 194.452L402.42 193.172V192.622L403.15 189.682L403.33 188.582L403.7 187.842L403.88 187.112L404.07 186.192V185.462L404.25 184.902L404.99 181.972L405.35 179.762L405.54 179.032L405.9 178.302C405.967 177.322 406.15 176.462 406.45 175.722L406.64 174.812V174.262L407.01 172.792L407.19 172.242L407.74 169.852L407.92 168.752L408.29 167.652L408.47 166.732L409.02 164.342L409.21 163.422L409.39 163.062C409.423 162.722 409.463 162.392 409.51 162.072C409.557 161.752 409.64 161.469 409.76 161.222L409.94 160.672V160.122L410.13 159.392L410.31 158.832L410.86 156.262H424.45V156.812C424.877 157.885 425.12 158.929 425.18 159.942L425.55 161.402L425.73 161.962L426.47 165.262L426.83 166.732C427.077 167.619 427.2 168.352 427.2 168.932C427.413 169.452 427.537 169.882 427.57 170.222L427.93 171.502L428.12 172.792L428.3 173.522L428.49 174.072C428.577 174.472 428.653 174.832 428.72 175.152C428.78 175.472 428.823 175.785 428.85 176.092C429.097 176.672 429.267 177.209 429.36 177.702C429.453 178.189 429.53 178.632 429.59 179.032L429.77 180.132L430.14 181.052L430.32 182.152V182.702C430.627 183.435 430.81 184.109 430.87 184.722L431.06 185.822C431.36 186.555 431.543 187.229 431.61 187.842L431.79 188.762L432.34 190.782V191.512C432.46 191.792 432.52 192.099 432.52 192.432C432.86 193.139 433.047 193.752 433.08 194.272L433.26 195.192L433.44 196.292L433.63 197.022C433.937 197.969 434.12 198.825 434.18 199.592C434.3 199.685 434.36 199.779 434.36 199.872V200.512C434.787 201.585 435.033 202.625 435.1 203.632C435.28 203.572 435.4 203.449 435.46 203.262C435.613 202.502 435.767 201.839 435.92 201.272C436.073 200.705 436.227 200.209 436.38 199.782V199.042C436.78 197.942 437.023 196.962 437.11 196.102L437.48 194.822L438.22 191.882L438.4 190.412L438.77 189.132L438.95 188.582V188.032C439.163 187.445 439.333 186.915 439.46 186.442C439.58 185.969 439.653 185.519 439.68 185.092L440.05 183.802L441.52 177.742L442.07 174.812L442.44 173.342C442.773 172.455 442.957 171.722 442.99 171.142L443.17 170.222L443.54 168.752C443.813 167.865 443.997 167.132 444.09 166.552L444.27 165.812L444.83 163.242L445.19 162.142V161.592L445.74 160.122V159.392L445.93 158.832L446.48 156.262H458.96L458.23 159.942L457.68 162.142L457.49 162.692L456.94 165.262L456.58 166.732L456.21 168.012L455.47 171.692L455.11 172.972L454.37 176.462L454.01 177.742L453.82 178.302L453.45 180.312L453.27 180.682L453.09 181.972C452.783 182.979 452.6 183.835 452.54 184.542L451.8 186.742L451.62 188.032L451.43 188.762L451.25 189.312L451.07 190.602L450.88 191.152L449.78 195.742L449.6 197.022L449.23 198.312L448.31 201.982L448.13 203.262L447.03 207.852L446.48 210.422C446.14 211.342 445.957 212.139 445.93 212.812L445.19 215.202V215.932C444.857 216.852 444.673 217.649 444.64 218.322C444.333 219.329 444.15 220.185 444.09 220.892L443.72 222.172L443.54 222.542L443.36 223.832C443.053 224.839 442.87 225.695 442.81 226.402H429.22L429.04 224.932C428.827 224.412 428.703 223.982 428.67 223.642L428.3 222.172L428.12 220.892L427.75 219.602C427.657 219.235 427.58 218.885 427.52 218.552C427.46 218.212 427.413 217.889 427.38 217.582L427.2 216.852L427.02 215.932C426.893 215.779 426.83 215.595 426.83 215.382L426.65 214.462L426.47 213.912C426.377 213.519 426.3 213.159 426.24 212.832C426.173 212.512 426.127 212.199 426.1 211.892C425.887 211.312 425.727 210.779 425.62 210.292C425.513 209.799 425.427 209.355 425.36 208.962L425.18 208.222L425 207.302C424.873 206.935 424.787 206.585 424.74 206.252C424.7 205.912 424.663 205.589 424.63 205.282C424.417 204.675 424.25 204.095 424.13 203.542C424.003 202.989 423.927 202.469 423.9 201.982C423.773 201.829 423.71 201.645 423.71 201.432L423.53 200.692L423.35 200.142C423.257 199.502 423.133 198.892 422.98 198.312L422.61 196.652L422.43 195.552L422.06 194.642L421.69 192.432L421.51 191.882V191.332C421.203 190.599 421.02 189.925 420.96 189.312L420.59 187.112L420.22 186.192L419.86 184.722V183.992C419.493 182.979 419.31 182.122 419.31 181.422C419.183 181.269 419.12 181.085 419.12 180.872L418.94 180.312V179.762C418.633 179.062 418.45 178.329 418.39 177.562C418.083 176.582 417.9 175.665 417.84 174.812L417.47 175.542L417.29 176.642L416.74 179.032L416.37 181.052L416.18 181.602L415.45 184.722L415.27 185.462L414.9 187.292L414.72 188.032L414.35 190.052L414.17 190.602L413.43 194.082L413.06 195.372L412.88 196.652C412.547 197.572 412.363 198.369 412.33 199.042L412.15 199.412L411.96 200.512L411.78 201.062L410.86 205.652L410.68 206.202L409.94 209.692L409.76 210.422L409.58 211.342L409.39 211.892L408.66 215.382L408.29 216.852L407.92 218.692L407.74 219.052L407.37 220.712L407.19 221.442L407.01 222.722C406.79 223.489 406.667 224.102 406.64 224.562C406.513 224.869 406.43 225.159 406.39 225.432C406.343 225.712 406.303 225.972 406.27 226.212C405.843 226.279 405.453 226.332 405.1 226.372C404.747 226.419 404.403 226.442 404.07 226.442H403.61C403.457 226.442 403.303 226.429 403.15 226.402H392.5V225.662C392.073 224.562 391.83 223.522 391.77 222.542C391.643 222.389 391.58 222.205 391.58 221.992L391.4 221.072C390.727 218.899 390.297 217.062 390.11 215.562L389.93 215.012L389.01 211.532L388.83 210.062L387.36 204.372V203.632C387.053 202.932 386.87 202.199 386.81 201.432L386.44 200.332L386.08 199.042V198.492L385.16 194.822V194.272L384.97 193.532L384.61 192.802L384.42 191.332C384.18 190.599 383.983 189.925 383.83 189.312C383.677 188.699 383.57 188.149 383.51 187.662L383.32 187.112V186.562C383.2 186.409 383.14 186.225 383.14 186.012L382.77 184.542L382.59 183.992C382.463 183.345 382.347 182.762 382.24 182.242C382.133 181.722 382.003 181.265 381.85 180.872L381.67 179.582C381.457 178.969 381.287 178.402 381.16 177.882C381.04 177.362 380.963 176.889 380.93 176.462L380.75 175.542C380.63 175.389 380.57 175.205 380.57 174.992L379.65 171.322L379.28 170.032L379.1 169.122L378.92 168.382L378.73 167.102C378.483 166.455 378.36 165.902 378.36 165.442V165.262L378 164.342L377.81 163.612C377.69 162.725 377.507 161.989 377.26 161.402V160.672C377.14 160.519 377.08 160.335 377.08 160.122" fill="white"/>
<path d="M502.534 180.683L503.094 181.783C504.528 183.563 505.444 185.399 505.844 187.293C505.964 188.086 506.054 188.829 506.114 189.523C506.181 190.209 506.214 190.813 506.214 191.333V215.563C507.341 217.803 508.991 219.149 511.164 219.603L510.804 220.153C510.678 220.373 510.554 220.496 510.434 220.523L510.254 221.073L509.884 221.443C509.578 222.116 509.211 222.666 508.784 223.093C508.351 224.226 507.798 225.083 507.124 225.663C506.851 226.276 506.591 226.806 506.344 227.253C506.104 227.693 505.878 228.083 505.664 228.423C502.084 227.503 499.268 225.849 497.214 223.463H496.664C492.718 226.309 488.648 227.733 484.454 227.733C482.188 227.733 479.954 227.349 477.754 226.583C471.174 224.229 467.198 219.946 465.824 213.733V213.503C465.824 201.663 472.754 195.743 486.614 195.743H486.754C487.028 195.616 487.331 195.553 487.664 195.553L488.214 195.373H489.504L490.054 195.193H490.604L495.194 194.643C495.254 194.303 495.284 193.996 495.284 193.723V192.803C495.284 187.689 492.578 185.133 487.164 185.133C483.398 185.133 478.241 186.403 471.694 188.943L470.964 187.293L470.594 186.193L470.224 185.823L470.044 185.463L469.674 184.353C469.341 183.806 469.098 183.256 468.944 182.703C468.298 181.849 467.868 180.993 467.654 180.133L468.204 179.953L468.574 179.763L469.124 179.583L469.494 179.213H470.044C470.164 179.093 470.271 179.033 470.364 179.033H470.414C471.514 178.453 472.491 178.023 473.344 177.743L474.264 177.563C474.938 177.256 475.551 177.073 476.104 177.013L477.574 176.643C478.641 176.216 479.681 175.973 480.694 175.913L484.734 175.173C485.341 175.113 485.928 175.059 486.494 175.013C487.061 174.966 487.621 174.943 488.174 174.943C494.014 174.943 498.801 176.856 502.534 180.683ZM490.784 204.003H489.684C489.411 204.063 489.144 204.109 488.884 204.143C488.624 204.169 488.371 204.183 488.124 204.183H487.854L487.114 204.373H486.564C486.411 204.493 486.228 204.553 486.014 204.553H485.464L482.524 205.283H481.974C481.121 205.776 480.388 206.083 479.774 206.203C477.788 208.103 476.794 209.939 476.794 211.713C476.794 213.333 477.604 214.923 479.224 216.483C481.578 217.923 483.871 218.643 486.104 218.643C488.951 218.643 491.674 217.496 494.274 215.203C494.521 214.496 494.768 214.006 495.014 213.733L495.194 213.183L495.014 212.443V203.813H491.344C491.191 203.939 491.004 204.003 490.784 204.003Z" fill="white"/>
<path d="M565.019 185.085V185.635C565.419 186.369 565.666 187.102 565.759 187.835V226.205H554.559V193.715L554.369 192.615C552.843 187.989 550.273 185.675 546.659 185.675C545.559 185.675 544.336 185.905 542.989 186.365C539.929 187.685 537.726 189.769 536.379 192.615L535.649 195.735V226.205H524.629V176.085H535.649V180.305C539.076 177.245 542.809 175.412 546.849 174.805H547.669C555.869 174.805 561.653 178.232 565.019 185.085Z" fill="white"/>
<path d="M128.468 150.048H77.9674V248.048H128.468V150.048Z" stroke="white" stroke-width="2" stroke-dasharray="5 5"/>
<path d="M175.968 150.048H130.468V248.048H175.968V150.048Z" stroke="white" stroke-width="2" stroke-dasharray="5 5"/>
<path d="M233.468 150.048H177.968V248.048H233.468V150.048Z" stroke="white" stroke-width="2" stroke-dasharray="5 5"/>
<path d="M287.968 150.048H235.468V248.048H287.968V150.048Z" stroke="white" stroke-width="2" stroke-dasharray="5 5"/>
<path d="M343.968 150.048H289.968V248.048H343.968V150.048Z" stroke="white" stroke-width="2" stroke-dasharray="5 5"/>
<path d="M368.968 150.048H345.968V248.048H368.968V150.048Z" stroke="white" stroke-width="2" stroke-dasharray="5 5"/>
<path d="M460.469 150.048H370.968V248.048H460.469V150.048Z" stroke="white" stroke-width="2" stroke-dasharray="5 5"/>
<path d="M515.969 150.048H462.469V248.048H515.969V150.048Z" stroke="white" stroke-width="2" stroke-dasharray="5 5"/>
<path d="M571.969 150.048H517.969V248.048H571.969V150.048Z" stroke="white" stroke-width="2" stroke-dasharray="5 5"/>
<path d="M822.971 145.586V41.3433" stroke="#46C147" stroke-width="2.74323"/>
<path d="M841.72 195.586V41.3433" stroke="#46C147" stroke-width="2.74323"/>
<path d="M842.971 63.2892H822.971" stroke="#46C147" stroke-width="2.74323"/>
<path d="M841.72 63.2893L874.639 71.519V55.0596L841.72 63.2893Z" fill="#46C147"/>
<path d="M822.973 63.2893L790.054 71.519V55.0596L822.973 63.2893Z" fill="#46C147"/>
<path d="M807.612 8.05904V32H804.713V11.0984H804.572L798.727 14.9795V12.0336L804.713 8.05904H807.612ZM815.14 32.187C814.563 32.187 814.069 31.9805 813.656 31.5675C813.242 31.1544 813.036 30.6596 813.036 30.0829C813.036 29.5062 813.242 29.0113 813.656 28.5982C814.069 28.1852 814.563 27.9787 815.14 27.9787C815.717 27.9787 816.212 28.1852 816.625 28.5982C817.038 29.0113 817.244 29.5062 817.244 30.0829C817.244 30.4647 817.147 30.8154 816.952 31.1349C816.765 31.4545 816.512 31.7116 816.192 31.9065C815.881 32.0935 815.53 32.187 815.14 32.187ZM829.148 32.3273C827.776 32.3273 826.541 32.0546 825.442 31.509C824.343 30.9635 823.462 30.2153 822.8 29.2646C822.138 28.3138 821.775 27.2305 821.713 26.0148H824.518C824.627 27.098 825.118 27.9943 825.991 28.7034C826.872 29.4048 827.924 29.7555 829.148 29.7555C830.13 29.7555 831.002 29.5256 831.766 29.0658C832.538 28.606 833.142 27.9748 833.578 27.1721C834.022 26.3616 834.244 25.4459 834.244 24.4249C834.244 23.3806 834.014 22.4493 833.555 21.631C833.103 20.805 832.479 20.1542 831.684 19.6788C830.889 19.2034 829.981 18.9618 828.961 18.954C828.228 18.9463 827.476 19.0593 826.704 19.2931C825.933 19.5191 825.298 19.8113 824.799 20.1698L822.087 19.8425L823.536 8.05904H835.975V10.6308H825.968L825.126 17.6915H825.267C825.758 17.3019 826.373 16.9785 827.114 16.7213C827.854 16.4641 828.625 16.3355 829.428 16.3355C830.893 16.3355 832.199 16.6862 833.344 17.3876C834.498 18.0812 835.402 19.032 836.056 20.2399C836.719 21.4479 837.05 22.8273 837.05 24.3782C837.05 25.9057 836.707 27.2695 836.021 28.4696C835.343 29.662 834.408 30.605 833.216 31.2986C832.023 31.9844 830.667 32.3273 829.148 32.3273ZM854.459 18.0656L851.981 18.767C851.825 18.354 851.595 17.9526 851.291 17.5629C850.995 17.1655 850.59 16.8382 850.075 16.581C849.561 16.3238 848.903 16.1952 848.1 16.1952C847.001 16.1952 846.085 16.4485 845.353 16.9551C844.628 17.4538 844.266 18.089 844.266 18.8605C844.266 19.5463 844.515 20.088 845.014 20.4854C845.513 20.8829 846.292 21.2141 847.352 21.4791L850.017 22.1337C851.622 22.5234 852.819 23.1196 853.606 23.9223C854.393 24.7172 854.787 25.742 854.787 26.9967C854.787 28.0254 854.49 28.945 853.898 29.7555C853.314 30.566 852.495 31.2051 851.443 31.6727C850.391 32.1403 849.168 32.3741 847.773 32.3741C845.941 32.3741 844.425 31.9766 843.225 31.1817C842.025 30.3868 841.265 29.2256 840.946 27.6981L843.564 27.0435C843.814 28.0098 844.285 28.7346 844.979 29.2178C845.68 29.701 846.596 29.9426 847.726 29.9426C849.012 29.9426 850.033 29.6698 850.789 29.1243C851.552 28.571 851.934 27.9085 851.934 27.137C851.934 26.5135 851.716 25.9914 851.28 25.5705C850.843 25.1419 850.173 24.8224 849.269 24.612L846.276 23.9106C844.632 23.5209 843.424 22.9169 842.652 22.0986C841.889 21.2725 841.507 20.2399 841.507 19.0008C841.507 17.9877 841.791 17.0915 842.36 16.3121C842.937 15.5328 843.72 14.921 844.71 14.4768C845.707 14.0326 846.837 13.8105 848.1 13.8105C849.877 13.8105 851.272 14.2001 852.285 14.9795C853.306 15.7588 854.031 16.7875 854.459 18.0656ZM863.007 32L857.537 14.0443H860.436L864.317 27.7916H864.504L868.338 14.0443H871.284L875.071 27.7449H875.258L879.14 14.0443H882.039L876.568 32H873.856L869.928 18.2059H869.647L865.72 32H863.007Z" fill="#46C147"/>
<path d="M573.639 145.586V41.3433" stroke="#46C147" stroke-width="2.74323"/>
<path d="M599.72 145.68V41.44" stroke="#46C147" stroke-width="2.74323"/>
<path d="M598.639 63.2892H573.639" stroke="#46C147" stroke-width="2.74323"/>
<path d="M599.72 63.2893L632.639 71.519V55.0596L599.72 63.2893Z" fill="#46C147"/>
<path d="M573.638 63.2893L540.719 71.519V55.0596L573.638 63.2893Z" fill="#46C147"/>
<path d="M559.198 32V29.8958L567.101 21.2453C568.028 20.2321 568.792 19.3515 569.392 18.6034C569.992 17.8474 570.436 17.1382 570.725 16.4758C571.021 15.8056 571.169 15.1042 571.169 14.3716C571.169 13.5299 570.966 12.8013 570.561 12.1856C570.164 11.5699 569.618 11.0945 568.924 10.7594C568.231 10.4243 567.451 10.2567 566.586 10.2567C565.667 10.2567 564.864 10.4477 564.178 10.8296C563.5 11.2036 562.974 11.7297 562.6 12.4077C562.234 13.0857 562.051 13.8806 562.051 14.7924H559.292C559.292 13.3896 559.615 12.1583 560.262 11.0984C560.909 10.0385 561.79 9.21245 562.904 8.62016C564.026 8.02787 565.285 7.73172 566.68 7.73172C568.083 7.73172 569.326 8.02787 570.409 8.62016C571.492 9.21245 572.342 10.0113 572.957 11.0166C573.573 12.0219 573.881 13.1403 573.881 14.3716C573.881 15.2522 573.721 16.1134 573.402 16.9551C573.09 17.789 572.544 18.7203 571.765 19.749C570.993 20.7699 569.922 22.0168 568.55 23.4897L563.173 29.2412V29.4282H574.302V32H559.198ZM591.895 18.0656L589.417 18.767C589.261 18.354 589.031 17.9526 588.727 17.5629C588.431 17.1655 588.026 16.8382 587.511 16.581C586.997 16.3238 586.338 16.1952 585.536 16.1952C584.437 16.1952 583.521 16.4485 582.789 16.9551C582.064 17.4538 581.701 18.089 581.701 18.8605C581.701 19.5463 581.951 20.088 582.45 20.4854C582.948 20.8829 583.728 21.2141 584.788 21.4791L587.453 22.1337C589.058 22.5234 590.255 23.1196 591.042 23.9223C591.829 24.7172 592.222 25.742 592.222 26.9967C592.222 28.0254 591.926 28.945 591.334 29.7555C590.749 30.566 589.931 31.2051 588.879 31.6727C587.827 32.1403 586.603 32.3741 585.208 32.3741C583.377 32.3741 581.861 31.9766 580.661 31.1817C579.461 30.3868 578.701 29.2256 578.382 27.6981L581 27.0435C581.249 28.0098 581.721 28.7346 582.415 29.2178C583.116 29.701 584.032 29.9426 585.162 29.9426C586.448 29.9426 587.468 29.6698 588.224 29.1243C588.988 28.571 589.37 27.9085 589.37 27.137C589.37 26.5135 589.152 25.9914 588.715 25.5705C588.279 25.1419 587.609 24.8224 586.705 24.612L583.712 23.9106C582.068 23.5209 580.86 22.9169 580.088 22.0986C579.325 21.2725 578.943 20.2399 578.943 19.0008C578.943 17.9877 579.227 17.0915 579.796 16.3121C580.373 15.5328 581.156 14.921 582.146 14.4768C583.143 14.0326 584.273 13.8105 585.536 13.8105C587.313 13.8105 588.708 14.2001 589.721 14.9795C590.742 15.7588 591.466 16.7875 591.895 18.0656ZM600.443 32L594.972 14.0443H597.872L601.753 27.7916H601.94L605.774 14.0443H608.72L612.507 27.7449H612.694L616.575 14.0443H619.475L614.004 32H611.292L607.364 18.2059H607.083L603.155 32H600.443Z" fill="#46C147"/>
<path d="M878.971 199.048H983.215" stroke="#FF0000" stroke-width="2.74323"/>
<path d="M572.97 199.048H983.214" stroke="#FF0000" stroke-width="2.74323"/>
<path d="M961.268 199.048L953.038 231.967H969.497L961.268 199.048Z" fill="#FF0000"/>
<path d="M961.268 199.048L953.038 166.129H969.497L961.268 199.048Z" fill="#FF0000"/>
<path d="M1010.85 208.03C1009.09 208.03 1007.59 207.55 1006.35 206.592C1005.11 205.625 1004.17 204.226 1003.51 202.395C1002.86 200.556 1002.53 198.335 1002.53 195.732C1002.53 193.144 1002.86 190.935 1003.51 189.104C1004.18 187.264 1005.13 185.862 1006.37 184.895C1007.61 183.921 1009.11 183.434 1010.85 183.434C1012.6 183.434 1014.09 183.921 1015.33 184.895C1016.58 185.862 1017.53 187.264 1018.18 189.104C1018.85 190.935 1019.18 193.144 1019.18 195.732C1019.18 198.335 1018.85 200.556 1018.2 202.395C1017.54 204.226 1016.59 205.625 1015.35 206.592C1014.12 207.55 1012.62 208.03 1010.85 208.03ZM1010.85 205.458C1012.6 205.458 1013.96 204.616 1014.92 202.933C1015.89 201.249 1016.37 198.849 1016.37 195.732C1016.37 193.659 1016.15 191.894 1015.71 190.436C1015.27 188.979 1014.64 187.868 1013.81 187.105C1012.99 186.341 1012.01 185.959 1010.85 185.959C1009.12 185.959 1007.77 186.812 1006.8 188.519C1005.82 190.218 1005.34 192.622 1005.34 195.732C1005.34 197.805 1005.55 199.566 1005.99 201.016C1006.43 202.465 1007.05 203.568 1007.87 204.324C1008.7 205.08 1009.69 205.458 1010.85 205.458ZM1036.38 193.768L1033.91 194.469C1033.75 194.056 1033.52 193.655 1033.22 193.265C1032.92 192.868 1032.52 192.54 1032 192.283C1031.49 192.026 1030.83 191.897 1030.03 191.897C1028.93 191.897 1028.01 192.151 1027.28 192.657C1026.55 193.156 1026.19 193.791 1026.19 194.563C1026.19 195.249 1026.44 195.79 1026.94 196.188C1027.44 196.585 1028.22 196.916 1029.28 197.181L1031.94 197.836C1033.55 198.226 1034.74 198.822 1035.53 199.624C1036.32 200.419 1036.71 201.444 1036.71 202.699C1036.71 203.728 1036.42 204.647 1035.82 205.458C1035.24 206.268 1034.42 206.907 1033.37 207.375C1032.32 207.842 1031.09 208.076 1029.7 208.076C1027.87 208.076 1026.35 207.679 1025.15 206.884C1023.95 206.089 1023.19 204.928 1022.87 203.4L1025.49 202.746C1025.74 203.712 1026.21 204.437 1026.9 204.92C1027.61 205.403 1028.52 205.645 1029.65 205.645C1030.94 205.645 1031.96 205.372 1032.71 204.826C1033.48 204.273 1033.86 203.611 1033.86 202.839C1033.86 202.216 1033.64 201.694 1033.21 201.273C1032.77 200.844 1032.1 200.525 1031.19 200.314L1028.2 199.613C1026.56 199.223 1025.35 198.619 1024.58 197.801C1023.81 196.975 1023.43 195.942 1023.43 194.703C1023.43 193.69 1023.72 192.794 1024.29 192.014C1024.86 191.235 1025.65 190.623 1026.64 190.179C1027.63 189.735 1028.76 189.513 1030.03 189.513C1031.8 189.513 1033.2 189.902 1034.21 190.682C1035.23 191.461 1035.96 192.49 1036.38 193.768ZM1044.93 207.702L1039.46 189.746H1042.36L1046.24 203.494H1046.43L1050.26 189.746H1053.21L1057 203.447H1057.18L1061.07 189.746H1063.96L1058.49 207.702H1055.78L1051.85 193.908H1051.57L1047.65 207.702H1044.93Z" fill="#FF0000"/>
<path d="M593.719 148.919H697.963" stroke="#FF0000" stroke-width="2.74323"/>
<path d="M572.97 148.919H703.97" stroke="#FF0000" stroke-width="2.74323"/>
<path d="M675.948 148.919L667.718 181.837H684.177L675.948 148.919Z" fill="#FF0000"/>
<path d="M675.948 148.919L667.718 116H684.177L675.948 148.919Z" fill="#FF0000"/>
<path d="M711.007 145.327C709.246 145.327 707.746 144.848 706.507 143.889C705.268 142.923 704.321 141.524 703.666 139.693C703.012 137.854 702.684 135.632 702.684 133.029C702.684 130.442 703.012 128.233 703.666 126.401C704.329 124.562 705.279 123.159 706.518 122.193C707.765 121.219 709.262 120.732 711.007 120.732C712.753 120.732 714.246 121.219 715.485 122.193C716.732 123.159 717.682 124.562 718.337 126.401C718.999 128.233 719.331 130.442 719.331 133.029C719.331 135.632 719.003 137.854 718.349 139.693C717.694 141.524 716.747 142.923 715.508 143.889C714.269 144.848 712.769 145.327 711.007 145.327ZM711.007 142.755C712.753 142.755 714.109 141.914 715.076 140.23C716.042 138.547 716.525 136.147 716.525 133.029C716.525 130.956 716.303 129.191 715.859 127.734C715.422 126.277 714.791 125.166 713.965 124.402C713.147 123.639 712.161 123.257 711.007 123.257C709.277 123.257 707.925 124.11 706.951 125.817C705.977 127.516 705.49 129.92 705.49 133.029C705.49 135.102 705.708 136.864 706.144 138.313C706.581 139.763 707.208 140.866 708.026 141.622C708.853 142.378 709.846 142.755 711.007 142.755ZM736.538 131.066L734.06 131.767C733.904 131.354 733.674 130.953 733.37 130.563C733.074 130.165 732.669 129.838 732.154 129.581C731.64 129.324 730.982 129.195 730.179 129.195C729.08 129.195 728.164 129.448 727.432 129.955C726.707 130.454 726.345 131.089 726.345 131.86C726.345 132.546 726.594 133.088 727.093 133.485C727.592 133.883 728.371 134.214 729.431 134.479L732.096 135.134C733.701 135.523 734.898 136.119 735.685 136.922C736.472 137.717 736.866 138.742 736.866 139.997C736.866 141.025 736.569 141.945 735.977 142.755C735.393 143.566 734.574 144.205 733.522 144.673C732.47 145.14 731.247 145.374 729.852 145.374C728.02 145.374 726.504 144.977 725.304 144.182C724.104 143.387 723.344 142.226 723.025 140.698L725.643 140.043C725.893 141.01 726.364 141.735 727.058 142.218C727.759 142.701 728.675 142.943 729.805 142.943C731.091 142.943 732.112 142.67 732.868 142.124C733.631 141.571 734.013 140.908 734.013 140.137C734.013 139.513 733.795 138.991 733.359 138.57C732.922 138.142 732.252 137.822 731.348 137.612L728.355 136.911C726.711 136.521 725.503 135.917 724.731 135.099C723.968 134.272 723.586 133.24 723.586 132.001C723.586 130.988 723.87 130.091 724.439 129.312C725.016 128.533 725.799 127.921 726.789 127.477C727.786 127.033 728.916 126.81 730.179 126.81C731.956 126.81 733.351 127.2 734.364 127.979C735.385 128.759 736.11 129.787 736.538 131.066ZM745.086 145L739.616 127.044H742.515L746.396 140.792H746.583L750.417 127.044H753.363L757.15 140.745H757.337L761.219 127.044H764.118L758.647 145H755.935L752.007 131.206H751.726L747.799 145H745.086Z" fill="#FF0000"/>
</g>
<defs>
<clipPath id="clip0_0_1">
<rect width="1075" height="400" fill="white"/>
</clipPath>
</defs>
</svg>
