<svg width="1222" height="469" viewBox="0 0 1222 469" fill="none" xmlns="http://www.w3.org/2000/svg">
<path d="M100.089 142.75C106.788 131.146 119.17 123.999 132.569 124H1026.37C1047.08 124 1063.87 140.789 1063.87 161.5V411.5C1063.87 432.211 1047.08 449 1026.37 449H132.569C119.17 449.001 106.788 441.854 100.089 430.25L22.5091 295.87C19.1636 290.071 19.1636 282.929 22.5091 277.13L100.089 142.75Z" fill="white"/>
<path d="M116.334 152.13C119.682 146.326 125.874 142.75 132.574 142.75H1029.27C1039.63 142.75 1048.02 151.145 1048.02 161.5V411.5C1048.02 421.855 1039.63 430.25 1029.27 430.25H132.574C125.876 430.252 119.685 426.68 116.334 420.88L38.7499 286.5L116.334 152.13Z" fill="#0033A2"/>
<path d="M165.42 161.5H252.023L175.871 286.5L252.023 414H165.42L89.2682 286.5L165.42 161.5Z" fill="white"/>
<path d="M314.935 343.165V334.055H367.925V343.165H314.935ZM308.075 361.275V352.385H375.345V361.275H308.075ZM292.655 380.175V370.955H390.535V380.175H292.655ZM306.495 318.075V309.525H345.645V318.075H306.495ZM336.535 315.265V309.525H348.125C350.525 312.598 353.432 315.578 356.845 318.465C360.259 321.358 364.025 324.042 368.145 326.515C372.272 328.988 376.585 331.202 381.085 333.155C385.585 335.102 390.122 336.752 394.695 338.105C393.875 338.705 392.939 339.492 391.885 340.465C390.839 341.438 389.825 342.452 388.845 343.505C387.872 344.552 387.085 345.525 386.485 346.425C380.485 344.252 374.562 341.552 368.715 338.325C362.862 335.098 357.442 331.518 352.455 327.585C347.469 323.645 343.175 319.538 339.575 315.265H336.535ZM334.065 310.655L343.735 314.365C340.062 319.312 335.599 323.885 330.345 328.085C325.099 332.285 319.492 335.998 313.525 339.225C307.565 342.452 301.549 345.265 295.475 347.665C294.949 346.912 294.235 346.012 293.335 344.965C292.435 343.912 291.499 342.878 290.525 341.865C289.552 340.858 288.689 340.055 287.935 339.455C294.089 337.575 300.089 335.212 305.935 332.365C311.789 329.512 317.132 326.248 321.965 322.575C326.805 318.902 330.839 314.928 334.065 310.655ZM335.865 377.365V338.215H346.775V377.365H335.865ZM291.875 297.935V288.155H391.325V297.935H291.875ZM315.835 307.275V279.605H326.415V307.275H315.835ZM356.115 307.835V279.605H366.685V307.835" fill="white"/>
<path d="M478.2 287.368V281.858H497.88V287.368H478.2ZM477.52 305.708V300.308H498.67V305.708H477.52ZM477.52 314.138V308.858H498.67V314.138H477.52ZM461.1 367.468V360.608H518.13V367.468H461.1ZM474.26 296.818V290.858H501.26V296.818H474.26ZM491.92 323.028H483.93V329.438H491.92V323.028ZM477.29 334.618V317.858H498.78V334.618H477.29ZM463.01 355.878V349.468H509.69V344.628H456.03V338.218H519.6V355.878H463.01ZM459.18 336.188V310.658H466.27V336.188H459.18ZM448.95 314.588L448.16 307.728C451.46 307.581 455.154 307.431 459.24 307.278C463.327 307.131 467.657 306.944 472.23 306.718V312.908C468.03 313.281 463.964 313.581 460.03 313.808C456.09 314.028 452.397 314.288 448.95 314.588ZM459.97 349.468H469.87C468.97 353.068 467.997 356.818 466.95 360.718C465.897 364.618 464.92 367.991 464.02 370.838L454.46 369.488C455.507 366.714 456.52 363.508 457.5 359.868C458.474 356.234 459.297 352.768 459.97 349.468ZM514.76 361.728V360.608H524.77C524.77 360.608 524.734 361.111 524.66 362.118C524.587 363.131 524.437 363.978 524.21 364.658C523.157 369.304 522.067 372.958 520.94 375.618C519.82 378.284 518.51 380.218 517.01 381.418C515.737 382.318 514.367 382.934 512.9 383.268C511.44 383.608 509.697 383.814 507.67 383.888C505.944 383.968 503.487 383.988 500.3 383.948C497.114 383.908 493.72 383.814 490.12 383.668C490.047 382.468 489.747 381.118 489.22 379.618C488.694 378.118 488.057 376.768 487.31 375.568C490.837 375.941 494.25 376.164 497.55 376.238C500.85 376.318 503.174 376.358 504.52 376.358C505.72 376.358 506.694 376.318 507.44 376.238C508.194 376.164 508.834 375.941 509.36 375.568C510.407 374.741 511.364 373.258 512.23 371.118C513.09 368.984 513.934 365.854 514.76 361.728ZM467.62 318.638L473.02 317.408C473.62 319.281 474.2 321.341 474.76 323.588C475.327 325.841 475.76 327.791 476.06 329.438L470.21 331.018C470.057 329.291 469.737 327.284 469.25 324.998C468.764 322.711 468.22 320.591 467.62 318.638ZM467.28 303.338L472.12 301.538C473.094 303.418 473.994 305.518 474.82 307.838C475.647 310.164 476.21 312.191 476.51 313.918L471.22 315.938C470.994 314.218 470.507 312.194 469.76 309.868C469.007 307.541 468.18 305.364 467.28 303.338ZM449.28 294.458L452.88 289.058C455.06 290.478 457.197 292.108 459.29 293.948C461.397 295.788 462.974 297.381 464.02 298.728L459.97 304.918C458.844 303.344 457.27 301.581 455.25 299.628C453.224 297.681 451.234 295.958 449.28 294.458ZM459.97 279.268L466.38 282.418C464.88 284.891 463.38 287.404 461.88 289.958C460.38 292.504 458.957 294.641 457.61 296.368L452.66 293.778C453.86 291.831 455.174 289.451 456.6 286.638C458.02 283.824 459.144 281.368 459.97 279.268ZM467.17 288.608L473.47 292.208C470.997 295.581 468.354 299.141 465.54 302.888C462.727 306.641 460.084 309.791 457.61 312.338L452.88 309.418C454.46 307.544 456.15 305.408 457.95 303.008C459.75 300.608 461.454 298.131 463.06 295.578C464.674 293.031 466.044 290.708 467.17 288.608ZM451.76 316.958L458.4 318.418C457.72 321.344 456.894 324.268 455.92 327.188C454.947 330.114 453.897 332.628 452.77 334.728C452.097 334.281 451.12 333.774 449.84 333.208C448.567 332.648 447.52 332.181 446.7 331.808C447.974 329.708 449.02 327.361 449.84 324.768C450.667 322.181 451.307 319.578 451.76 316.958ZM511.16 336.188V310.658H518.36V336.188H511.16ZM500.81 314.588L500.13 307.728C503.584 307.581 507.467 307.431 511.78 307.278C516.094 307.131 520.687 306.981 525.56 306.828L525.44 313.018C521.02 313.318 516.727 313.598 512.56 313.858C508.4 314.124 504.484 314.368 500.81 314.588ZM519.93 318.638L525.67 316.958C526.644 319.204 527.6 321.678 528.54 324.378C529.474 327.078 530.13 329.404 530.51 331.358L524.55 333.268C524.25 331.314 523.65 328.951 522.75 326.178C521.85 323.404 520.91 320.891 519.93 318.638ZM519.03 303.118L524.32 300.758C525.594 302.704 526.774 304.858 527.86 307.218C528.954 309.584 529.724 311.668 530.17 313.468L524.43 316.058C524.057 314.258 523.364 312.138 522.35 309.698C521.337 307.258 520.23 305.064 519.03 303.118ZM500.36 294.228L504.18 289.168C506.134 290.514 508.084 292.071 510.03 293.838C511.984 295.598 513.484 297.191 514.53 298.618L510.15 304.468C509.17 302.968 507.764 301.241 505.93 299.288C504.09 297.341 502.234 295.654 500.36 294.228ZM511.38 279.378L517.8 282.638C516.22 285.118 514.644 287.611 513.07 290.118C511.497 292.631 509.997 294.788 508.57 296.588L503.62 294.008C504.894 292.054 506.28 289.671 507.78 286.858C509.28 284.044 510.48 281.551 511.38 279.378ZM519.37 288.158L525.67 291.758C523.124 295.131 520.35 298.691 517.35 302.438C514.35 306.191 511.5 309.341 508.8 311.888L504.18 308.968C505.907 307.094 507.707 304.958 509.58 302.558C511.46 300.158 513.26 297.681 514.98 295.128C516.707 292.581 518.17 290.258 519.37 288.158ZM503.62 316.958L510.15 318.528C509.624 321.301 508.874 324.131 507.9 327.018C506.92 329.911 505.87 332.368 504.75 334.388C504.15 334.014 503.25 333.508 502.05 332.868C500.85 332.234 499.8 331.731 498.9 331.358C500.094 329.258 501.067 326.968 501.82 324.488C502.567 322.014 503.167 319.504 503.62 316.958ZM427.12 288.038L433.31 281.068C435.184 282.041 437.15 283.221 439.21 284.608C441.277 285.994 443.21 287.381 445.01 288.768C446.81 290.161 448.274 291.494 449.4 292.768L442.98 300.638C441.934 299.364 440.527 297.978 438.76 296.478C437 294.978 435.107 293.498 433.08 292.038C431.06 290.571 429.074 289.238 427.12 288.038ZM424.76 318.078L430.61 310.768C432.557 311.668 434.6 312.774 436.74 314.088C438.88 315.401 440.867 316.711 442.7 318.018C444.54 319.331 446.06 320.588 447.26 321.788L441.07 329.888C439.944 328.688 438.464 327.378 436.63 325.958C434.79 324.531 432.82 323.124 430.72 321.738C428.62 320.351 426.634 319.131 424.76 318.078ZM436.57 382.658L427.01 377.258C428.437 374.258 429.954 370.768 431.56 366.788C433.174 362.814 434.824 358.614 436.51 354.188C438.204 349.768 439.76 345.418 441.18 341.138L449.62 346.538C448.42 350.518 447.07 354.608 445.57 358.808C444.07 363.008 442.57 367.131 441.07 371.178C439.57 375.231 438.07 379.058 436.57 382.658Z" fill="white"/>
<path d="M407.273 272.5H271.773V413H407.273V272.5Z" stroke="white" stroke-width="2" stroke-dasharray="5 5"/>
<path d="M544.773 272.5H409.273V413H544.773V272.5Z" stroke="white" stroke-width="2" stroke-dasharray="5 5"/>
<path d="M904.273 186.5H954.273L1016.77 249V386.5H791.773V249L854.273 186.5H904.273ZM838.648 349H969.898C994.444 315.374 989.602 268.635 958.685 240.755C927.767 212.875 880.778 212.875 849.86 240.755C818.943 268.635 814.101 315.374 838.648 349Z" fill="white"/>
<path d="M272.292 189.55V178.53H322.962V189.55H303.682V248.85H291.572V189.55" fill="white"/>
<path d="M365.681 204.777L365.131 205.517L364.581 206.067L364.031 206.437L363.291 207.537L362.931 207.907L362.561 208.087C362.161 208.64 361.795 209.067 361.461 209.367L359.071 212.127C353.991 208.854 349.785 207.217 346.451 207.217C343.025 207.217 340.501 208.914 338.881 212.307C338.941 214.3 339.735 215.77 341.261 216.717C341.935 216.897 342.425 217.08 342.731 217.267C343.925 217.447 344.905 217.69 345.671 217.997C357.265 218.857 363.751 223.51 365.131 231.957C365.191 232.324 365.221 232.68 365.221 233.027C365.221 233.38 365.221 233.727 365.221 234.067C365.221 240.214 362.621 244.834 357.421 247.927C353.688 249.607 349.938 250.447 346.171 250.447C339.011 250.447 331.868 247.404 324.741 241.317L325.111 240.587L326.021 239.667C326.635 238.934 327.188 238.38 327.681 238.007C327.801 237.794 327.921 237.674 328.041 237.647L328.411 237.097C328.531 236.884 328.655 236.76 328.781 236.727L328.961 236.357L329.331 236.177L331.721 233.417C336.248 237.704 340.988 239.847 345.941 239.847C348.021 239.847 350.135 239.48 352.281 238.747C352.828 238.014 353.378 237.464 353.931 237.097C354.118 236.364 354.211 235.674 354.211 235.027C354.211 233.434 353.691 232.104 352.651 231.037L348.421 229.567C335.815 228.8 328.961 223.414 327.861 213.407C328.688 203.34 334.378 197.957 344.931 197.257H345.581C353.688 197.257 360.388 199.764 365.681 204.777Z" fill="white"/>
<path d="M378.06 234.526V198.726H389.08V230.486C389.2 230.639 389.26 230.822 389.26 231.036C389.386 231.129 389.45 231.219 389.45 231.306V231.406C389.663 232.779 389.966 234.002 390.36 235.076C392.473 238.009 395.183 239.476 398.49 239.476H398.63C402.73 238.376 405.603 236.112 407.25 232.686V232.136L407.99 229.936V198.726H419.19V248.846H407.99V244.806C403.583 248.412 399.193 250.216 394.82 250.216C391.42 250.216 387.976 249.146 384.49 247.006C381.643 244.832 379.683 242.262 378.61 239.296L378.43 238.006C378.156 237.119 378.02 236.249 378.02 235.396V234.986C378.02 234.832 378.033 234.679 378.06 234.526Z" fill="white"/>
<path d="M477.609 219.294L477.789 222.044C477.909 222.197 477.969 222.381 477.969 222.594V228.104H444.379C445.079 234.344 448.259 238.017 453.919 239.124C454.839 239.211 455.742 239.254 456.629 239.254C461.249 239.254 465.182 237.741 468.429 234.714C468.822 235.387 469.312 235.937 469.899 236.364L470.079 236.914L470.629 237.464C471.055 237.864 471.422 238.241 471.729 238.594C472.035 238.947 472.282 239.307 472.469 239.674C472.682 239.794 472.802 239.914 472.829 240.034L475.399 242.974C469.585 247.841 463.389 250.274 456.809 250.274C455.682 250.274 454.535 250.197 453.369 250.044C452.209 249.891 451.045 249.677 449.879 249.404C439.292 245.884 433.479 238.294 432.439 226.634C432.439 226.481 432.432 226.174 432.419 225.714C432.405 225.261 432.399 224.971 432.399 224.844C432.399 208.904 439.572 199.831 453.919 197.624C468.179 198.117 476.075 205.341 477.609 219.294ZM444.189 219.474H466.409V218.924C466.282 218.557 466.219 218.191 466.219 217.824V217.454C465.912 216.781 465.729 216.171 465.669 215.624C463.409 210.391 459.675 207.757 454.469 207.724C447.922 209.284 444.495 213.201 444.189 219.474Z" fill="white"/>
<path d="M530.823 207.537V208.087C531.223 208.82 531.47 209.554 531.563 210.287V248.657H520.363V216.167L520.173 215.067C518.646 210.44 516.076 208.127 512.463 208.127C511.363 208.127 510.14 208.357 508.793 208.817C505.733 210.137 503.53 212.22 502.183 215.067L501.453 218.187V248.657H490.433V198.537H501.453V202.757C504.88 199.697 508.613 197.864 512.653 197.257H513.473C521.673 197.257 527.456 200.684 530.823 207.537Z" fill="white"/>
<path d="M569.964 179.084V178.714H582.634L582.814 180.004L583.004 180.554L583.364 181.844L583.734 184.044L584.284 185.874L584.654 188.084L585.204 189.914L585.384 191.384C585.597 191.904 585.721 192.334 585.754 192.674L585.934 193.404L586.304 194.504V195.244C586.424 195.337 586.484 195.427 586.484 195.514V196.164C586.824 196.837 587.011 197.571 587.044 198.364L587.404 199.464L587.774 200.754L588.144 202.954L588.694 204.784L588.874 205.894L589.974 210.484C590.067 210.911 590.154 211.301 590.234 211.654C590.307 212.001 590.344 212.344 590.344 212.684L590.714 213.414V214.154L591.074 215.074V215.804L591.444 216.534V217.274C591.784 218.194 591.967 218.991 591.994 219.664L592.184 220.394C592.397 221.007 592.564 221.574 592.684 222.094C592.804 222.614 592.881 223.087 592.914 223.514L593.284 224.984L593.654 226.264L594.014 225.164L594.754 221.494L595.114 220.574L595.304 219.474L595.854 216.904L596.224 215.624V215.074L596.954 212.134L597.134 211.034L597.504 210.294L597.684 209.564L597.874 208.644V207.914L598.054 207.354L598.794 204.424L599.154 202.214L599.344 201.484L599.704 200.754C599.771 199.774 599.954 198.914 600.254 198.174L600.444 197.264V196.714L600.814 195.244L600.994 194.694L601.544 192.304L601.724 191.204L602.094 190.104L602.274 189.184L602.824 186.794L603.014 185.874L603.194 185.514C603.227 185.174 603.267 184.844 603.314 184.524C603.361 184.204 603.444 183.921 603.564 183.674L603.744 183.124V182.574L603.934 181.844L604.114 181.284L604.664 178.714H618.254V179.264C618.681 180.337 618.924 181.381 618.984 182.394L619.354 183.854L619.534 184.414L620.274 187.714L620.634 189.184C620.881 190.071 621.004 190.804 621.004 191.384C621.217 191.904 621.341 192.334 621.374 192.674L621.734 193.954L621.924 195.244L622.104 195.974L622.294 196.524C622.381 196.924 622.457 197.284 622.524 197.604C622.584 197.924 622.627 198.237 622.654 198.544C622.901 199.124 623.071 199.661 623.164 200.154C623.257 200.641 623.334 201.084 623.394 201.484L623.574 202.584L623.944 203.504L624.124 204.604V205.154C624.431 205.887 624.614 206.561 624.674 207.174L624.864 208.274C625.164 209.007 625.347 209.681 625.414 210.294L625.594 211.214L626.144 213.234V213.964C626.264 214.244 626.324 214.551 626.324 214.884C626.664 215.591 626.851 216.204 626.884 216.724L627.064 217.644L627.244 218.744L627.434 219.474C627.741 220.421 627.924 221.277 627.984 222.044C628.104 222.137 628.164 222.231 628.164 222.324V222.964C628.591 224.037 628.837 225.077 628.904 226.084C629.084 226.024 629.204 225.901 629.264 225.714C629.417 224.954 629.571 224.291 629.724 223.724C629.877 223.157 630.031 222.661 630.184 222.234V221.494C630.584 220.394 630.827 219.414 630.914 218.554L631.284 217.274L632.024 214.334L632.204 212.864L632.574 211.584L632.754 211.034V210.484C632.967 209.897 633.137 209.367 633.264 208.894C633.384 208.421 633.457 207.971 633.484 207.544L633.854 206.254L635.324 200.194L635.874 197.264L636.244 195.794C636.577 194.907 636.761 194.174 636.794 193.594L636.974 192.674L637.344 191.204C637.617 190.317 637.801 189.584 637.894 189.004L638.074 188.264L638.634 185.694L638.994 184.594V184.044L639.544 182.574V181.844L639.734 181.284L640.284 178.714H652.764L652.034 182.394L651.484 184.594L651.294 185.144L650.744 187.714L650.384 189.184L650.014 190.464L649.274 194.144L648.914 195.424L648.174 198.914L647.814 200.194L647.624 200.754L647.254 202.764L647.074 203.134L646.894 204.424C646.587 205.431 646.404 206.287 646.344 206.994L645.604 209.194L645.424 210.484L645.234 211.214L645.054 211.764L644.874 213.054L644.684 213.604L643.584 218.194L643.404 219.474L643.034 220.764L642.114 224.434L641.934 225.714L640.834 230.304L640.284 232.874C639.944 233.794 639.761 234.591 639.734 235.264L638.994 237.654V238.384C638.661 239.304 638.477 240.101 638.444 240.774C638.137 241.781 637.954 242.637 637.894 243.344L637.524 244.624L637.344 244.994L637.164 246.284C636.857 247.291 636.674 248.147 636.614 248.854H623.024L622.844 247.384C622.631 246.864 622.507 246.434 622.474 246.094L622.104 244.624L621.924 243.344L621.554 242.054C621.461 241.687 621.384 241.337 621.324 241.004C621.264 240.664 621.217 240.341 621.184 240.034L621.004 239.304L620.824 238.384C620.697 238.231 620.634 238.047 620.634 237.834L620.454 236.914L620.274 236.364C620.181 235.971 620.104 235.611 620.044 235.284C619.977 234.964 619.931 234.651 619.904 234.344C619.691 233.764 619.531 233.231 619.424 232.744C619.317 232.251 619.231 231.807 619.164 231.414L618.984 230.674L618.804 229.754C618.677 229.387 618.591 229.037 618.544 228.704C618.504 228.364 618.467 228.041 618.434 227.734C618.221 227.127 618.054 226.547 617.934 225.994C617.807 225.441 617.731 224.921 617.704 224.434C617.577 224.281 617.514 224.097 617.514 223.884L617.334 223.144L617.154 222.594C617.061 221.954 616.937 221.344 616.784 220.764L616.414 219.104L616.234 218.004L615.864 217.094L615.494 214.884L615.314 214.334V213.784C615.007 213.051 614.824 212.377 614.764 211.764L614.394 209.564L614.024 208.644L613.664 207.174V206.444C613.297 205.431 613.114 204.574 613.114 203.874C612.987 203.721 612.924 203.537 612.924 203.324L612.744 202.764V202.214C612.437 201.514 612.254 200.781 612.194 200.014C611.887 199.034 611.704 198.117 611.644 197.264L611.274 197.994L611.094 199.094L610.544 201.484L610.174 203.504L609.984 204.054L609.254 207.174L609.074 207.914L608.704 209.744L608.524 210.484L608.154 212.504L607.974 213.054L607.234 216.534L606.864 217.824L606.684 219.104C606.351 220.024 606.167 220.821 606.134 221.494L605.954 221.864L605.764 222.964L605.584 223.514L604.664 228.104L604.484 228.654L603.744 232.144L603.564 232.874L603.384 233.794L603.194 234.344L602.464 237.834L602.094 239.304L601.724 241.144L601.544 241.504L601.174 243.164L600.994 243.894L600.814 245.174C600.594 245.941 600.471 246.554 600.444 247.014C600.317 247.321 600.234 247.611 600.194 247.884C600.147 248.164 600.107 248.424 600.074 248.664C599.647 248.731 599.257 248.784 598.904 248.824C598.551 248.871 598.207 248.894 597.874 248.894H597.414C597.261 248.894 597.107 248.881 596.954 248.854H586.304V248.114C585.877 247.014 585.634 245.974 585.574 244.994C585.447 244.841 585.384 244.657 585.384 244.444L585.204 243.524C584.531 241.351 584.101 239.514 583.914 238.014L583.734 237.464L582.814 233.984L582.634 232.514L581.164 226.824V226.084C580.857 225.384 580.674 224.651 580.614 223.884L580.244 222.784L579.884 221.494V220.944L578.964 217.274V216.724L578.774 215.984L578.414 215.254L578.224 213.784C577.984 213.051 577.787 212.377 577.634 211.764C577.481 211.151 577.374 210.601 577.314 210.114L577.124 209.564V209.014C577.004 208.861 576.944 208.677 576.944 208.464L576.574 206.994L576.394 206.444C576.267 205.797 576.151 205.214 576.044 204.694C575.937 204.174 575.807 203.717 575.654 203.324L575.474 202.034C575.261 201.421 575.091 200.854 574.964 200.334C574.844 199.814 574.767 199.341 574.734 198.914L574.554 197.994C574.434 197.841 574.374 197.657 574.374 197.444L573.454 193.774L573.084 192.484L572.904 191.574L572.724 190.834L572.534 189.554C572.287 188.907 572.164 188.354 572.164 187.894V187.714L571.804 186.794L571.614 186.064C571.494 185.177 571.311 184.441 571.064 183.854V183.124C570.944 182.971 570.884 182.787 570.884 182.574" fill="white"/>
<path d="M696.338 203.135L696.898 204.235C698.331 206.015 699.248 207.851 699.648 209.745C699.768 210.538 699.858 211.281 699.918 211.975C699.985 212.661 700.018 213.265 700.018 213.785V238.015C701.145 240.255 702.795 241.601 704.968 242.055L704.608 242.605C704.481 242.825 704.358 242.948 704.238 242.975L704.058 243.525L703.688 243.895C703.381 244.568 703.015 245.118 702.588 245.545C702.155 246.678 701.601 247.535 700.928 248.115C700.655 248.728 700.395 249.258 700.148 249.705C699.908 250.145 699.681 250.535 699.468 250.875C695.888 249.955 693.071 248.301 691.018 245.915H690.468C686.521 248.761 682.451 250.185 678.258 250.185C675.991 250.185 673.758 249.801 671.558 249.035C664.978 246.681 661.001 242.398 659.628 236.185V235.955C659.628 224.115 666.558 218.195 680.418 218.195H680.558C680.831 218.068 681.135 218.005 681.468 218.005L682.018 217.825H683.308L683.858 217.645H684.408L688.998 217.095C689.058 216.755 689.088 216.448 689.088 216.175V215.255C689.088 210.141 686.381 207.585 680.968 207.585C677.201 207.585 672.045 208.855 665.498 211.395L664.768 209.745L664.398 208.645L664.028 208.275L663.848 207.915L663.478 206.805C663.145 206.258 662.901 205.708 662.748 205.155C662.101 204.301 661.671 203.445 661.458 202.585L662.008 202.405L662.378 202.215L662.928 202.035L663.298 201.665H663.848C663.968 201.545 664.075 201.485 664.168 201.485H664.218C665.318 200.905 666.295 200.475 667.148 200.195L668.068 200.015C668.741 199.708 669.355 199.525 669.908 199.465L671.378 199.095C672.445 198.668 673.485 198.425 674.498 198.365L678.538 197.625C679.145 197.565 679.731 197.511 680.298 197.465C680.865 197.418 681.425 197.395 681.978 197.395C687.818 197.395 692.605 199.308 696.338 203.135ZM684.588 226.455H683.488C683.215 226.515 682.948 226.561 682.688 226.595C682.428 226.621 682.175 226.635 681.928 226.635H681.658L680.918 226.825H680.368C680.215 226.945 680.031 227.005 679.818 227.005H679.268L676.328 227.735H675.778C674.925 228.228 674.191 228.535 673.578 228.655C671.591 230.555 670.598 232.391 670.598 234.165C670.598 235.785 671.408 237.375 673.028 238.935C675.381 240.375 677.675 241.095 679.908 241.095C682.755 241.095 685.478 239.948 688.078 237.655C688.325 236.948 688.571 236.458 688.818 236.185L688.998 235.635L688.818 234.895V226.265H685.148C684.995 226.391 684.808 226.455 684.588 226.455Z" fill="white"/>
<path d="M758.823 207.537V208.087C759.223 208.82 759.47 209.554 759.563 210.287V248.657H748.363V216.167L748.173 215.067C746.646 210.44 744.076 208.127 740.463 208.127C739.363 208.127 738.14 208.357 736.793 208.817C733.733 210.137 731.53 212.22 730.183 215.067L729.453 218.187V248.657H718.433V198.537H729.453V202.757C732.88 199.697 736.613 197.864 740.653 197.257H741.473C749.673 197.257 755.456 200.684 758.823 207.537Z" fill="white"/>
<path d="M322.273 172.5H271.773V270.5H322.273V172.5Z" stroke="white" stroke-width="2" stroke-dasharray="5 5"/>
<path d="M369.773 172.5H324.273V270.5H369.773V172.5Z" stroke="white" stroke-width="2" stroke-dasharray="5 5"/>
<path d="M427.273 172.5H371.773V270.5H427.273V172.5Z" stroke="white" stroke-width="2" stroke-dasharray="5 5"/>
<path d="M481.773 172.5H429.273V270.5H481.773V172.5Z" stroke="white" stroke-width="2" stroke-dasharray="5 5"/>
<path d="M537.773 172.5H483.773V270.5H537.773V172.5Z" stroke="white" stroke-width="2" stroke-dasharray="5 5"/>
<path d="M562.773 172.5H539.773V270.5H562.773V172.5Z" stroke="white" stroke-width="2" stroke-dasharray="5 5"/>
<path d="M654.273 172.5H564.773V270.5H654.273V172.5Z" stroke="white" stroke-width="2" stroke-dasharray="5 5"/>
<path d="M709.773 172.5H656.273V270.5H709.773V172.5Z" stroke="white" stroke-width="2" stroke-dasharray="5 5"/>
<path d="M765.773 172.5H711.773V270.5H765.773V172.5Z" stroke="white" stroke-width="2" stroke-dasharray="5 5"/>
<path d="M791.773 167.69V37.48" stroke="#46C147" stroke-width="3.03189"/>
<path d="M766.773 167.697V37.4848" stroke="#46C147" stroke-width="3.03189"/>
<path d="M791.773 61.7399H766.773" stroke="#46C147" stroke-width="3.03189"/>
<path d="M791.773 61.7399L828.155 70.8356V52.6442L791.773 61.7399Z" fill="#46C147"/>
<path d="M766.773 61.7399L730.39 70.8356V52.6442L766.773 61.7399Z" fill="#46C147"/>
<path d="M743.739 27V24.6744L752.473 15.1136C753.498 13.9939 754.342 13.0206 755.005 12.1937C755.668 11.3582 756.159 10.5744 756.478 9.84223C756.805 9.10148 756.969 8.32628 756.969 7.51663C756.969 6.58639 756.745 5.78104 756.297 5.10059C755.858 4.42014 755.255 3.89472 754.488 3.52435C753.722 3.15398 752.861 2.96879 751.904 2.96879C750.888 2.96879 750.001 3.17982 749.243 3.60187C748.494 4.01531 747.912 4.59671 747.499 5.34607C747.094 6.09543 746.892 6.97399 746.892 7.98175H743.842C743.842 6.43135 744.2 5.07044 744.915 3.89903C745.63 2.72761 746.603 1.8146 747.835 1.15999C749.075 0.505374 750.466 0.178067 752.008 0.178067C753.558 0.178067 754.932 0.505374 756.129 1.15999C757.327 1.8146 758.265 2.69747 758.946 3.80859C759.626 4.91971 759.967 6.15572 759.967 7.51663C759.967 8.48994 759.79 9.44171 759.437 10.372C759.092 11.2936 758.489 12.3229 757.628 13.4598C756.775 14.5882 755.591 15.9663 754.075 17.5942L748.132 23.9509V24.1576H760.432V27H743.739ZM779.876 11.5994L777.137 12.3746C776.965 11.918 776.711 11.4745 776.375 11.0438C776.048 10.6045 775.6 10.2428 775.031 9.95851C774.463 9.67427 773.735 9.53215 772.848 9.53215C771.633 9.53215 770.621 9.81209 769.812 10.372C769.011 10.9232 768.61 11.6252 768.61 12.4779C768.61 13.2359 768.886 13.8345 769.437 14.2738C769.988 14.7131 770.85 15.0791 772.021 15.372L774.967 16.0955C776.741 16.5262 778.063 17.1851 778.933 18.0723C779.803 18.9508 780.238 20.0835 780.238 21.4702C780.238 22.6072 779.911 23.6236 779.256 24.5194C778.61 25.4151 777.706 26.1214 776.543 26.6382C775.38 27.155 774.028 27.4134 772.486 27.4134C770.462 27.4134 768.787 26.9742 767.46 26.0956C766.134 25.217 765.294 23.9337 764.941 22.2454L767.835 21.5219C768.11 22.59 768.632 23.391 769.398 23.925C770.173 24.4591 771.185 24.7261 772.434 24.7261C773.856 24.7261 774.984 24.4246 775.819 23.8217C776.664 23.2101 777.086 22.478 777.086 21.6253C777.086 20.9362 776.844 20.3591 776.362 19.894C775.88 19.4203 775.139 19.0671 774.14 18.8346L770.832 18.0594C769.015 17.6287 767.68 16.9612 766.827 16.0568C765.983 15.1437 765.561 14.0025 765.561 12.633C765.561 11.5132 765.875 10.5227 766.504 9.66135C767.141 8.80002 768.007 8.12387 769.101 7.63291C770.204 7.14195 771.452 6.89647 772.848 6.89647C774.812 6.89647 776.353 7.32714 777.473 8.18847C778.602 9.0498 779.403 10.1868 779.876 11.5994ZM789.324 27L783.277 7.15487H786.482L790.771 22.3488H790.978L795.216 7.15487H798.471L802.657 22.2971H802.864L807.154 7.15487H810.358L804.311 27H801.314L796.973 11.7544H796.663L792.321 27H789.324Z" fill="#46C147"/>
<path d="M1016.77 286.5H1131.98" stroke="#FF0000" stroke-width="3.03189"/>
<path d="M1045.12 286.5H1131.98" stroke="#FF0000" stroke-width="3.03189"/>
<path d="M1107.73 286.5L1098.63 322.883H1116.83L1107.73 286.5Z" fill="#FF0000"/>
<path d="M1107.73 286.5L1098.63 250.117H1116.83L1107.73 286.5Z" fill="#FF0000"/>
<path d="M1162.53 296.059C1160.59 296.059 1158.93 295.53 1157.56 294.47C1156.19 293.402 1155.14 291.856 1154.42 289.832C1153.7 287.799 1153.34 285.344 1153.34 282.468C1153.34 279.608 1153.7 277.166 1154.42 275.142C1155.15 273.109 1156.2 271.559 1157.57 270.491C1158.95 269.414 1160.61 268.876 1162.53 268.876C1164.46 268.876 1166.11 269.414 1167.48 270.491C1168.86 271.559 1169.91 273.109 1170.64 275.142C1171.37 277.166 1171.73 279.608 1171.73 282.468C1171.73 285.344 1171.37 287.799 1170.65 289.832C1169.92 291.856 1168.88 293.402 1167.51 294.47C1166.14 295.53 1164.48 296.059 1162.53 296.059ZM1162.53 293.217C1164.46 293.217 1165.96 292.287 1167.03 290.426C1168.1 288.566 1168.63 285.913 1168.63 282.468C1168.63 280.176 1168.39 278.225 1167.9 276.615C1167.41 275.004 1166.72 273.777 1165.8 272.933C1164.9 272.088 1163.81 271.666 1162.53 271.666C1160.62 271.666 1159.13 272.61 1158.05 274.496C1156.97 276.374 1156.44 279.031 1156.44 282.468C1156.44 284.759 1156.68 286.705 1157.16 288.307C1157.64 289.909 1158.34 291.128 1159.24 291.964C1160.15 292.799 1161.25 293.217 1162.53 293.217ZM1190.75 280.297L1188.01 281.072C1187.84 280.616 1187.59 280.172 1187.25 279.741C1186.92 279.302 1186.48 278.94 1185.91 278.656C1185.34 278.372 1184.61 278.23 1183.72 278.23C1182.51 278.23 1181.5 278.51 1180.69 279.07C1179.89 279.621 1179.49 280.323 1179.49 281.176C1179.49 281.934 1179.76 282.532 1180.31 282.971C1180.86 283.411 1181.73 283.777 1182.9 284.07L1185.84 284.793C1187.62 285.224 1188.94 285.883 1189.81 286.77C1190.68 287.648 1191.11 288.781 1191.11 290.168C1191.11 291.305 1190.79 292.321 1190.13 293.217C1189.49 294.113 1188.58 294.819 1187.42 295.336C1186.26 295.853 1184.9 296.111 1183.36 296.111C1181.34 296.111 1179.66 295.672 1178.34 294.793C1177.01 293.915 1176.17 292.631 1175.82 290.943L1178.71 290.22C1178.99 291.288 1179.51 292.089 1180.27 292.623C1181.05 293.157 1182.06 293.424 1183.31 293.424C1184.73 293.424 1185.86 293.122 1186.7 292.519C1187.54 291.908 1187.96 291.176 1187.96 290.323C1187.96 289.634 1187.72 289.057 1187.24 288.592C1186.76 288.118 1186.01 287.765 1185.02 287.532L1181.71 286.757C1179.89 286.326 1178.56 285.659 1177.7 284.754C1176.86 283.841 1176.44 282.7 1176.44 281.331C1176.44 280.211 1176.75 279.22 1177.38 278.359C1178.02 277.498 1178.88 276.822 1179.98 276.331C1181.08 275.84 1182.33 275.594 1183.72 275.594C1185.69 275.594 1187.23 276.025 1188.35 276.886C1189.48 277.747 1190.28 278.884 1190.75 280.297ZM1200.2 295.698L1194.15 275.853H1197.36L1201.65 291.046H1201.85L1206.09 275.853H1209.35L1213.53 290.995H1213.74L1218.03 275.853H1221.23L1215.19 295.698H1212.19L1207.85 280.452H1207.54L1203.2 295.698H1200.2Z" fill="#FF0000"/>
</svg>
