<svg width="2398" height="1596" viewBox="0 0 2398 1596" fill="none" xmlns="http://www.w3.org/2000/svg">
<g clip-path="url(#clip0_0_1)">
<path d="M-3740 563.391C-3740 459.838 -3656.05 375.891 -3552.5 375.891H3372.5C3476.05 375.891 3560 459.838 3560 563.391V2388.39C3560 2491.94 3476.05 2575.89 3372.5 2575.89H-3552.5C-3656.05 2575.89 -3740 2491.94 -3740 2388.39V563.391Z" fill="white"/>
<path d="M-3646.25 563.391C-3646.25 511.615 -3604.28 469.641 -3552.5 469.641H3372.5C3424.28 469.641 3466.25 511.615 3466.25 563.391V2388.39C3466.25 2440.17 3424.28 2482.14 3372.5 2482.14H-3552.5C-3604.28 2482.14 -3646.25 2440.17 -3646.25 2388.39V563.391Z" fill="#0033A2"/>
<path d="M-261.124 1203.64V1176.08H-162.686V1203.64H-261.124ZM-264.499 1295.33V1268.33H-158.749V1295.33H-264.499ZM-264.499 1337.51V1311.08H-158.749V1337.51H-264.499ZM-346.624 1604.14V1569.83H-61.4355V1604.14H-346.624ZM-280.811 1250.89V1221.08H-145.811V1250.89H-280.811ZM-192.499 1381.95H-232.436V1414.01H-192.499V1381.95ZM-265.624 1439.89V1356.08H-158.186V1439.89H-265.624ZM-337.061 1546.2V1514.14H-103.624V1489.95H-371.936V1457.89H-54.1235V1546.2H-337.061ZM-356.186 1447.76V1320.08H-320.749V1447.76H-356.186ZM-407.374 1339.76L-411.311 1305.45C-394.811 1304.7 -376.342 1303.95 -355.905 1303.2C-335.467 1302.45 -313.811 1301.51 -290.936 1300.39V1331.33C-311.936 1333.2 -332.28 1334.7 -351.968 1335.83C-371.655 1336.95 -390.124 1338.26 -407.374 1339.76ZM-352.249 1514.14H-302.749C-307.249 1532.14 -312.124 1550.89 -317.374 1570.39C-322.624 1589.89 -327.499 1606.76 -331.999 1621.01L-379.811 1614.26C-374.561 1600.39 -369.498 1584.36 -364.624 1566.17C-359.748 1547.98 -355.623 1530.64 -352.249 1514.14ZM-78.3105 1575.45V1569.83H-28.2485C-28.2485 1569.83 -28.4359 1572.36 -28.8105 1577.42C-29.1859 1582.48 -29.9359 1586.7 -31.0605 1590.08C-36.3105 1613.33 -41.7482 1631.61 -47.3735 1644.92C-52.9982 1658.23 -59.5605 1667.89 -67.0605 1673.89C-73.4359 1678.39 -80.2799 1681.48 -87.5925 1683.17C-94.9045 1684.86 -103.623 1685.89 -113.749 1686.26C-122.373 1686.64 -134.655 1686.73 -150.593 1686.55C-166.53 1686.36 -183.499 1685.89 -201.499 1685.14C-201.873 1679.14 -203.373 1672.39 -205.999 1664.89C-208.623 1657.39 -211.811 1650.64 -215.561 1644.64C-197.936 1646.51 -180.874 1647.64 -164.374 1648.01C-147.874 1648.39 -136.249 1648.58 -129.499 1648.58C-123.499 1648.58 -118.624 1648.39 -114.874 1648.01C-111.124 1647.64 -107.936 1646.51 -105.311 1644.64C-100.061 1640.51 -95.2795 1633.11 -90.9675 1622.42C-86.6549 1611.73 -82.4359 1596.08 -78.3105 1575.45ZM-313.999 1360.01L-286.999 1353.83C-283.999 1363.2 -281.092 1373.51 -278.28 1384.76C-275.467 1396.01 -273.311 1405.76 -271.811 1414.01L-301.061 1421.89C-301.811 1413.26 -303.405 1403.23 -305.843 1391.8C-308.28 1380.36 -310.999 1369.76 -313.999 1360.01ZM-315.686 1283.51L-291.499 1274.51C-286.623 1283.89 -282.123 1294.39 -277.999 1306.01C-273.873 1317.64 -271.061 1327.76 -269.561 1336.39L-295.999 1346.51C-297.123 1337.89 -299.561 1327.76 -303.311 1316.14C-307.061 1304.51 -311.186 1293.64 -315.686 1283.51ZM-405.686 1239.08L-387.686 1212.08C-376.811 1219.2 -366.124 1227.36 -355.624 1236.55C-345.124 1245.73 -337.249 1253.7 -331.999 1260.45L-352.249 1291.39C-357.873 1283.51 -365.748 1274.7 -375.874 1264.95C-385.998 1255.2 -395.936 1246.58 -405.686 1239.08ZM-352.249 1163.14L-320.186 1178.89C-327.686 1191.26 -335.186 1203.83 -342.686 1216.58C-350.186 1229.33 -357.311 1240.01 -364.061 1248.64L-388.811 1235.7C-382.811 1225.95 -376.248 1214.04 -369.124 1199.98C-361.998 1185.92 -356.373 1173.64 -352.249 1163.14ZM-316.249 1209.83L-284.749 1227.83C-297.123 1244.7 -310.342 1262.51 -324.405 1281.26C-338.467 1300.01 -351.686 1315.76 -364.061 1328.51L-387.686 1313.89C-379.811 1304.51 -371.374 1293.83 -362.374 1281.83C-353.374 1269.83 -344.842 1257.45 -336.78 1244.7C-328.717 1231.95 -321.873 1220.33 -316.249 1209.83ZM-393.311 1351.58L-360.124 1358.89C-363.498 1373.51 -367.623 1388.14 -372.499 1402.76C-377.373 1417.39 -382.623 1429.95 -388.249 1440.45C-391.623 1438.2 -396.498 1435.67 -402.874 1432.86C-409.248 1430.05 -414.498 1427.7 -418.624 1425.83C-412.248 1415.33 -406.998 1403.61 -402.874 1390.67C-398.748 1377.73 -395.561 1364.7 -393.311 1351.58ZM-96.3105 1447.76V1320.08H-60.3105V1447.76H-96.3105ZM-148.061 1339.76L-151.436 1305.45C-134.186 1304.7 -114.78 1303.95 -93.2175 1303.2C-71.6549 1302.45 -48.6859 1301.7 -24.3105 1300.95L-24.8735 1331.89C-46.9982 1333.39 -68.4669 1334.8 -89.2795 1336.11C-110.092 1337.42 -129.686 1338.64 -148.061 1339.76ZM-52.4355 1360.01L-23.7485 1351.58C-18.8732 1362.83 -14.0919 1375.2 -9.40454 1388.7C-4.71721 1402.2 -1.43588 1413.83 0.439453 1423.58L-29.3735 1433.14C-30.8735 1423.39 -33.8735 1411.58 -38.3735 1397.7C-42.8735 1383.83 -47.5609 1371.26 -52.4355 1360.01ZM-56.9355 1282.39L-30.4985 1270.58C-24.1232 1280.33 -18.2169 1291.11 -12.7795 1302.92C-7.34221 1314.73 -3.49854 1325.14 -1.24854 1334.14L-29.9355 1347.08C-31.8109 1338.08 -35.2799 1327.48 -40.3425 1315.3C-45.4045 1303.11 -50.9355 1292.14 -56.9355 1282.39ZM-150.311 1237.95L-131.186 1212.64C-121.436 1219.39 -111.686 1227.17 -101.936 1235.98C-92.1855 1244.79 -84.6855 1252.76 -79.4355 1259.89L-101.374 1289.14C-106.248 1281.64 -113.28 1273.01 -122.468 1263.26C-131.655 1253.51 -140.936 1245.08 -150.311 1237.95ZM-95.1855 1163.7L-63.1235 1180.01C-70.9982 1192.39 -78.8732 1204.86 -86.7485 1217.42C-94.6232 1229.98 -102.123 1240.76 -109.249 1249.76L-133.999 1236.83C-127.623 1227.08 -120.686 1215.17 -113.186 1201.11C-105.686 1187.05 -99.6855 1174.58 -95.1855 1163.7ZM-55.2485 1207.58L-23.7485 1225.58C-36.4985 1242.45 -50.3735 1260.26 -65.3735 1279.01C-80.3735 1297.76 -94.6235 1313.51 -108.124 1326.26L-131.186 1311.64C-122.561 1302.26 -113.561 1291.58 -104.186 1279.58C-94.8109 1267.58 -85.8109 1255.2 -77.1855 1242.45C-68.5609 1229.7 -61.2485 1218.08 -55.2485 1207.58ZM-133.999 1351.58L-101.374 1359.45C-103.998 1373.33 -107.748 1387.48 -112.624 1401.92C-117.498 1416.36 -122.748 1428.64 -128.374 1438.76C-131.374 1436.89 -135.874 1434.36 -141.874 1431.17C-147.874 1427.98 -153.124 1425.45 -157.624 1423.58C-151.624 1413.08 -146.749 1401.64 -142.999 1389.26C-139.249 1376.89 -136.249 1364.33 -133.999 1351.58ZM-516.499 1207.01L-485.561 1172.14C-476.186 1177.01 -466.342 1182.92 -456.03 1189.86C-445.717 1196.8 -436.061 1203.73 -427.061 1210.67C-418.061 1217.61 -410.748 1224.26 -405.124 1230.64L-437.186 1270.01C-442.436 1263.64 -449.467 1256.7 -458.28 1249.2C-467.092 1241.7 -476.561 1234.29 -486.686 1226.98C-496.811 1219.67 -506.749 1213.01 -516.499 1207.01ZM-528.311 1357.2L-499.061 1320.64C-489.311 1325.14 -479.092 1330.67 -468.405 1337.23C-457.717 1343.8 -447.78 1350.36 -438.593 1356.92C-429.405 1363.48 -421.811 1369.76 -415.811 1375.76L-446.749 1416.26C-452.373 1410.26 -459.78 1403.7 -468.968 1396.58C-478.155 1389.45 -487.999 1382.42 -498.499 1375.48C-508.999 1368.55 -518.936 1362.45 -528.311 1357.2ZM-469.249 1680.08L-517.061 1653.08C-509.936 1638.08 -502.342 1620.64 -494.28 1600.76C-486.217 1580.89 -477.967 1559.89 -469.53 1537.76C-461.092 1515.64 -453.311 1493.89 -446.186 1472.51L-403.999 1499.51C-409.999 1519.39 -416.749 1539.83 -424.249 1560.83C-431.749 1581.83 -439.249 1602.45 -446.749 1622.7C-454.249 1642.95 -461.749 1662.08 -469.249 1680.08Z" fill="white"/>
<path d="M77.752 1120.89H-607.748V1831.39H77.752V1120.89Z" stroke="white" stroke-width="2" stroke-dasharray="25 25"/>
<path d="M2.00573 804.764V807.518C3.99439 811.19 5.21839 814.862 5.67772 818.534V1010.39H-50.3183V847.909L-51.2363 842.401C-58.8863 819.298 -71.7379 807.747 -89.7913 807.747C-95.2993 807.747 -101.419 808.894 -108.15 811.19C-123.45 817.768 -134.466 828.172 -141.197 842.401L-144.869 858.006V1010.39H-199.947V759.784H-144.869V780.897C-127.734 765.597 -109.069 756.418 -88.8733 753.358H-84.7423C-43.7396 753.358 -14.8236 770.493 2.00573 804.764Z" fill="white"/>
<path d="M197.709 662.479V660.643H261.049L261.967 667.069L262.885 669.823L264.721 676.248L266.557 687.264L269.311 696.444L271.147 707.459L273.9 716.639L274.818 723.983C275.889 726.584 276.501 728.726 276.654 730.409L277.572 734.08L279.408 739.588V743.26C280.02 743.72 280.326 744.179 280.326 744.637V747.85C282.009 751.216 282.927 754.888 283.08 758.866L284.916 764.373L286.752 770.799L288.588 781.815L291.342 790.995L292.26 796.502L297.768 819.452C298.226 821.594 298.647 823.544 299.03 825.304C299.412 827.064 299.604 828.785 299.604 830.467L301.44 834.139V837.811L303.275 842.401V846.073L305.111 849.745V853.416C306.794 858.006 307.712 861.984 307.865 865.35L308.783 869.022C309.854 872.082 310.696 874.913 311.308 877.513C311.92 880.114 312.302 882.485 312.455 884.627L314.291 891.971L316.127 898.397L317.963 892.889L321.635 874.53L323.471 869.94L324.389 864.432L327.143 851.58L328.979 845.155V842.401L332.65 827.713L333.568 822.205L335.404 818.534L336.322 814.862L337.24 810.272V806.6L338.158 803.846L341.83 789.159L343.666 778.143L344.584 774.471L346.42 770.799C346.726 765.903 347.644 761.62 349.174 757.948L350.092 753.358V750.604L351.928 743.26L352.846 740.506L355.6 728.573L356.518 723.065L358.354 717.557L359.272 712.967L362.025 701.034L362.943 696.444L363.861 694.608C364.014 692.925 364.205 691.28 364.435 689.674C364.664 688.068 365.085 686.652 365.697 685.428L366.615 682.674V679.92L367.533 676.248L368.451 673.495L371.205 660.643H439.135V663.397C441.277 668.752 442.501 673.954 442.807 679.002L444.643 686.346L445.561 689.1L449.232 705.623L451.068 712.967C452.292 717.404 452.904 721.076 452.904 723.983C453.975 726.584 454.587 728.726 454.74 730.409L456.576 736.834L457.494 743.26L458.412 746.932L459.33 749.686C459.789 751.675 460.172 753.473 460.478 755.079C460.784 756.686 461.013 758.254 461.166 759.784C462.39 762.691 463.231 765.368 463.69 767.816C464.149 770.264 464.532 772.483 464.838 774.471L465.756 779.979L467.592 784.569L468.51 790.077V792.83C470.04 796.502 470.958 799.868 471.264 802.928L472.182 808.436C473.712 812.108 474.63 815.474 474.936 818.534L475.854 823.123L478.607 833.221V836.893C479.219 838.27 479.525 839.8 479.525 841.483C481.208 845.002 482.126 848.062 482.279 850.663L483.197 855.252L484.115 860.76L485.033 864.432C486.563 869.175 487.481 873.459 487.787 877.284C488.399 877.743 488.705 878.202 488.705 878.661V881.873C490.847 887.229 492.071 892.431 492.377 897.479C493.295 897.173 493.907 896.561 494.213 895.643C494.977 891.819 495.742 888.491 496.508 885.66C497.272 882.83 498.037 880.344 498.803 878.202V874.53C500.791 869.022 502.015 864.126 502.475 859.842L504.311 853.416L507.982 838.729L508.9 831.385L510.736 824.959L511.654 822.205V819.452C512.725 816.545 513.567 813.906 514.179 811.534C514.791 809.163 515.173 806.906 515.326 804.764L517.162 798.338L524.506 768.045L527.26 753.358L529.096 746.014C530.778 741.578 531.696 737.906 531.85 734.998L532.768 730.409L534.604 723.065C535.98 718.629 536.898 714.957 537.357 712.049L538.275 708.377L541.029 695.526L542.865 690.018V687.264L545.619 679.92V676.248L546.537 673.495L549.291 660.643H611.713L608.041 679.002L605.287 690.018L604.369 692.772L601.615 705.623L599.779 712.967L597.943 719.393L594.272 737.752L592.436 744.178L588.764 761.62L586.928 768.045L586.01 770.799L584.174 780.897L583.256 782.733L582.338 789.159C580.808 794.208 579.89 798.492 579.584 802.01L575.912 813.026L574.994 819.452L574.076 823.123L573.158 825.877L572.24 832.303L571.322 835.057L565.815 858.006L564.897 864.432L563.061 870.858L558.471 889.217L557.553 895.643L552.045 918.592L549.291 931.444C547.608 936.034 546.69 940.012 546.537 943.377L542.865 955.311V958.983C541.182 963.573 540.264 967.551 540.111 970.916C538.581 975.966 537.663 980.25 537.357 983.769L535.522 990.195L534.604 992.031L533.686 998.455C532.156 1003.5 531.238 1007.79 530.932 1011.31H463.002L462.084 1003.96C461.013 1001.36 460.401 999.221 460.248 997.539L458.412 990.195L457.494 983.769L455.658 977.342C455.199 975.506 454.817 973.747 454.511 972.064C454.205 970.381 453.975 968.775 453.822 967.245L452.904 963.573L451.986 958.983C451.374 958.218 451.068 957.3 451.068 956.229L450.15 951.639L449.232 948.885C448.773 946.897 448.391 945.099 448.085 943.492C447.779 941.886 447.549 940.318 447.397 938.788C446.325 935.881 445.522 933.203 444.987 930.755C444.451 928.307 444.031 926.089 443.725 924.1L442.807 920.428L441.889 915.838C441.277 914.002 440.856 912.243 440.627 910.56C440.397 908.878 440.205 907.271 440.053 905.741C438.981 902.681 438.14 899.774 437.528 897.02C436.916 894.266 436.533 891.665 436.381 889.217C435.769 888.453 435.463 887.535 435.463 886.463L434.545 882.791L433.627 880.038C433.168 876.825 432.556 873.765 431.791 870.858L429.955 862.596L429.037 857.088L427.201 852.498L425.365 841.483L424.447 838.729V835.975C422.917 832.303 421.999 828.937 421.693 825.877L419.857 814.862L418.022 810.272L416.186 802.928V799.256C414.35 794.208 413.432 789.924 413.432 786.405C412.82 785.64 412.514 784.722 412.514 783.651L411.596 780.897V778.143C410.066 774.625 409.148 770.953 408.842 767.127C407.312 762.232 406.394 757.642 406.088 753.358L404.252 757.03L403.334 762.538L400.58 774.471L398.744 784.569L397.826 787.323L394.154 802.928L393.236 806.6L391.4 815.78L390.482 819.452L388.647 829.549L387.729 832.303L384.057 849.745L382.221 856.17L381.303 862.596C379.619 867.186 378.701 871.164 378.549 874.53L377.631 876.366L376.713 881.873L375.795 884.627L371.205 907.577L370.287 910.33L366.615 927.772L365.697 931.444L364.779 936.034L363.861 938.788L360.19 956.229L358.354 963.573L356.518 972.752L355.6 974.588L353.764 982.851L352.846 986.523L351.928 992.949C350.856 996.773 350.244 999.833 350.092 1002.13C349.48 1003.66 349.059 1005.11 348.83 1006.49C348.6 1007.87 348.408 1009.17 348.256 1010.39C346.114 1010.7 344.163 1010.96 342.404 1011.19C340.644 1011.42 338.923 1011.54 337.24 1011.54H334.945C334.18 1011.54 333.415 1011.46 332.65 1011.31H279.408V1007.64C277.266 1002.13 276.042 996.926 275.736 992.031C275.124 991.265 274.818 990.347 274.818 989.277L273.9 984.687C270.534 973.824 268.393 964.644 267.475 957.147L266.557 954.393L261.967 936.952L261.049 929.608L253.705 901.151V897.479C252.175 893.961 251.257 890.289 250.951 886.463L249.115 880.955L247.279 874.53V871.776L242.69 853.416V850.663L241.772 846.991L239.936 843.319L239.018 835.975C237.794 832.303 236.799 828.937 236.034 825.877C235.269 822.818 234.734 820.064 234.428 817.616L233.51 814.862V812.108C232.898 811.343 232.592 810.425 232.592 809.354L230.756 802.01L229.838 799.256C229.226 796.044 228.652 793.137 228.117 790.536C227.581 787.935 226.931 785.64 226.166 783.651L225.248 777.225C224.177 774.165 223.336 771.335 222.724 768.734C222.112 766.133 221.729 763.762 221.576 761.62L220.658 757.03C220.046 756.265 219.74 755.347 219.74 754.276L215.15 735.916L213.315 729.491L212.397 724.901L211.479 721.229L210.561 714.803C209.337 711.591 208.725 708.837 208.725 706.541V705.623L206.889 701.034L205.971 697.362C205.359 692.925 204.441 689.253 203.217 686.346V682.674C202.605 681.91 202.299 680.992 202.299 679.92L197.709 662.479Z" fill="white"/>
<path d="M829.623 782.734L832.377 788.242C839.568 797.115 844.158 806.295 846.147 815.781C846.759 819.758 847.218 823.468 847.523 826.911C847.829 830.353 847.982 833.375 847.982 835.976V957.148C853.643 968.317 861.905 975.048 872.768 977.343L870.932 980.097C870.32 981.168 869.708 981.78 869.096 981.933L868.178 984.687L866.342 986.523C864.812 989.889 862.976 992.643 860.834 994.785C858.692 1000.45 855.938 1004.73 852.572 1007.64C851.195 1010.7 849.895 1013.34 848.671 1015.55C847.447 1017.77 846.3 1019.72 845.229 1021.41C827.328 1016.82 813.253 1008.55 803.002 996.621H800.248C780.512 1010.85 760.164 1017.96 739.203 1017.96C727.882 1017.96 716.713 1016.05 705.697 1012.23C672.803 1000.45 652.914 979.026 646.029 947.968V946.821C646.029 887.611 680.682 858.007 749.989 858.007H750.678C752.055 857.395 753.585 857.089 755.268 857.089L758.022 856.171H764.447L767.201 855.253H769.955L792.904 852.499C793.21 850.816 793.363 849.286 793.363 847.91V843.32C793.363 817.77 779.823 804.995 752.743 804.995C733.925 804.995 708.145 811.344 675.404 824.042L671.732 815.781L669.897 810.273L668.061 808.437L667.143 806.601L665.307 801.093C663.624 798.339 662.4 795.585 661.635 792.831C658.422 788.547 656.28 784.264 655.209 779.98L657.963 779.062L659.799 778.144L662.553 777.226L664.389 775.39H667.143C667.755 774.778 668.29 774.472 668.749 774.472H668.979C674.486 771.565 679.382 769.423 683.666 768.046L688.256 767.128C691.622 765.598 694.682 764.68 697.436 764.374L704.779 762.539C710.134 760.397 715.336 759.173 720.385 758.867L740.58 755.195C743.64 754.889 746.585 754.621 749.416 754.392C752.246 754.162 755.038 754.047 757.792 754.047C787.014 754.047 810.958 763.609 829.623 782.734ZM770.873 899.316H765.365C763.988 899.622 762.65 899.851 761.349 900.004C760.048 900.157 758.786 900.234 757.563 900.234H756.186L752.514 901.152H749.76C748.995 901.764 748.077 902.07 747.006 902.07H744.252L729.565 905.742H726.811C722.527 908.19 718.855 909.719 715.795 910.331C705.85 919.817 700.878 928.997 700.878 937.871C700.878 945.98 704.932 953.935 713.041 961.738C724.822 968.929 736.296 972.524 747.465 972.524C761.694 972.524 775.31 966.787 788.315 955.312C789.538 951.793 790.762 949.345 791.986 947.968L792.904 945.214L791.986 941.542V898.398H773.627C772.862 899.01 771.944 899.316 770.873 899.316Z" fill="white"/>
<path d="M1142 804.764V807.518C1143.99 811.19 1145.22 814.862 1145.68 818.534V1010.39H1089.68V847.909L1088.76 842.401C1081.11 819.298 1068.26 807.747 1050.21 807.747C1044.7 807.747 1038.58 808.894 1031.85 811.19C1016.55 817.768 1005.53 828.172 998.802 842.401L995.13 858.006V1010.39H940.052V759.784H995.13V780.897C1012.27 765.597 1030.93 756.418 1051.13 753.358H1055.26C1096.26 753.358 1125.18 770.493 1142 804.764Z" fill="white"/>
<path d="M42.7517 620.891H-235.248V1118.89H42.7517V620.891Z" stroke="white" stroke-width="2" stroke-dasharray="25 25"/>
<path d="M167.752 620.891H44.7518V1118.89H167.752V620.891Z" stroke="white" stroke-width="2" stroke-dasharray="25 25"/>
<path d="M625.251 620.891H169.751V1118.89H625.251V620.891Z" stroke="white" stroke-width="2" stroke-dasharray="25 25"/>
<path d="M902.751 620.891H627.251V1118.89H902.751V620.891Z" stroke="white" stroke-width="2" stroke-dasharray="25 25"/>
<path d="M1182.75 620.891H904.752V1118.89H1182.75V620.891Z" stroke="white" stroke-width="2" stroke-dasharray="25 25"/>
<path d="M1733.75 55.8911H2133.75C2177.93 55.8911 2213.75 91.7083 2213.75 135.891V375.891H1253.75V135.891C1253.75 91.7083 1289.57 55.8911 1333.75 55.8911H1733.75Z" fill="#333333"/>
<path d="M1973.75 135.891C2017.93 135.891 2053.75 171.708 2053.75 215.891C2053.75 260.074 2017.93 295.891 1973.75 295.891C1929.57 295.891 1893.75 260.074 1893.75 215.891C1893.75 171.708 1929.57 135.891 1973.75 135.891Z" fill="#0A0A0A"/>
<path d="M1493.75 135.891C1537.93 135.891 1573.75 171.708 1573.75 215.891C1573.75 260.074 1537.93 295.891 1493.75 295.891C1449.57 295.891 1413.75 260.074 1413.75 215.891C1413.75 171.708 1449.57 135.891 1493.75 135.891Z" fill="#0A0A0A"/>
<path d="M1973.75 145.891C2012.41 145.891 2043.75 177.231 2043.75 215.891C2043.75 254.551 2012.41 285.891 1973.75 285.891C1935.09 285.891 1903.75 254.551 1903.75 215.891C1903.75 177.231 1935.09 145.891 1973.75 145.891Z" fill="#FFBF00"/>
<path d="M1493.75 145.891C1532.41 145.891 1563.75 177.231 1563.75 215.891C1563.75 254.551 1532.41 285.891 1493.75 285.891C1455.09 285.891 1423.75 254.551 1423.75 215.891C1423.75 177.231 1455.09 145.891 1493.75 145.891Z" fill="#FFBF00"/>
<path d="M1733.75 819.892H1896.25L2096.25 1019.89V1469.89H1371.25V1019.89L1571.25 819.892H1733.75ZM1521.25 1344.89H1946.25C2025.09 1236.18 2009.17 1085.49 1909.34 995.655C1809.52 905.823 1657.99 905.823 1558.16 995.655C1458.33 1085.49 1442.41 1236.18 1521.25 1344.89Z" fill="white"/>
<path d="M2139.55 719.892H2183.75V764.092L1327.95 1519.89H1283.75V1475.69L2139.55 719.892Z" fill="#FF0000"/>
<path d="M1733.75 719.892H2183.75V1519.89H1283.75V719.892H1733.75ZM1733.75 729.892H1293.75V814.892H2173.75V729.892H1733.75ZM1733.75 824.892H1293.75V914.892H2173.75V824.892H1733.75ZM1733.75 924.892H1293.75V1014.89H2173.75V924.892H1733.75ZM1733.75 1024.89H1293.75V1114.89H2173.75V1024.89H1733.75ZM1733.75 1124.89H1293.75V1214.89H2173.75V1124.89H1733.75ZM1733.75 1224.89H1293.75V1314.89H2173.75V1224.89H1733.75ZM1733.75 1324.89H1293.75V1414.89H2173.75V1324.89H1733.75ZM1733.75 1424.89H1293.75V1509.89H2173.75V1424.89H1733.75Z" fill="black"/>
<path d="M1283.75 719.892V951.981" stroke="#46C147" stroke-width="6.10763"/>
<path d="M1183.75 619.892V951.982" stroke="#46C147" stroke-width="6.10763"/>
<path d="M1283.75 903.121H1183.75" stroke="#46C147" stroke-width="6.10763"/>
<path d="M1283.75 903.121L1357.04 884.798V921.444L1283.75 903.121Z" fill="#46C147"/>
<path d="M1183.75 903.121L1110.46 884.798V921.444L1183.75 903.121Z" fill="#46C147"/>
<path d="M1172.52 1025.97V1021.29L1190.11 1002.03C1192.18 999.772 1193.88 997.811 1195.21 996.145C1196.55 994.462 1197.54 992.883 1198.18 991.408C1198.84 989.916 1199.17 988.355 1199.17 986.724C1199.17 984.85 1198.72 983.227 1197.82 981.857C1196.93 980.486 1195.72 979.427 1194.17 978.681C1192.63 977.935 1190.89 977.562 1188.97 977.562C1186.92 977.562 1185.13 977.987 1183.61 978.837C1182.1 979.67 1180.92 980.842 1180.09 982.351C1179.28 983.861 1178.87 985.63 1178.87 987.661H1172.73C1172.73 984.537 1173.45 981.796 1174.89 979.436C1176.33 977.076 1178.29 975.237 1180.77 973.918C1183.27 972.6 1186.07 971.94 1189.17 971.94C1192.3 971.94 1195.07 972.6 1197.48 973.918C1199.89 975.237 1201.78 977.016 1203.15 979.254C1204.52 981.492 1205.21 983.982 1205.21 986.724C1205.21 988.684 1204.85 990.602 1204.14 992.476C1203.45 994.332 1202.23 996.406 1200.5 998.696C1198.78 1000.97 1196.39 1003.75 1193.34 1007.02L1181.37 1019.83V1020.25H1206.14V1025.97H1172.52ZM1245.31 994.948L1239.8 996.51C1239.45 995.59 1238.94 994.696 1238.26 993.829C1237.6 992.944 1236.7 992.215 1235.55 991.643C1234.41 991.07 1232.94 990.784 1231.16 990.784C1228.71 990.784 1226.67 991.348 1225.04 992.476C1223.43 993.586 1222.62 995 1222.62 996.718C1222.62 998.245 1223.17 999.451 1224.29 1000.34C1225.4 1001.22 1227.13 1001.96 1229.49 1002.55L1235.42 1004.01C1239 1004.87 1241.66 1006.2 1243.41 1007.99C1245.17 1009.76 1246.04 1012.04 1246.04 1014.83C1246.04 1017.12 1245.38 1019.17 1244.07 1020.97C1242.76 1022.78 1240.94 1024.2 1238.6 1025.24C1236.26 1026.28 1233.53 1026.8 1230.43 1026.8C1226.35 1026.8 1222.97 1025.92 1220.3 1024.15C1217.63 1022.38 1215.94 1019.8 1215.23 1016.39L1221.06 1014.94C1221.61 1017.09 1222.66 1018.7 1224.21 1019.78C1225.77 1020.85 1227.81 1021.39 1230.32 1021.39C1233.19 1021.39 1235.46 1020.78 1237.14 1019.57C1238.84 1018.34 1239.69 1016.86 1239.69 1015.14C1239.69 1013.76 1239.21 1012.59 1238.24 1011.66C1237.26 1010.7 1235.77 1009.99 1233.76 1009.52L1227.1 1007.96C1223.43 1007.09 1220.75 1005.75 1219.03 1003.93C1217.33 1002.09 1216.48 999.789 1216.48 997.03C1216.48 994.775 1217.11 992.779 1218.38 991.044C1219.66 989.309 1221.4 987.947 1223.61 986.958C1225.83 985.969 1228.35 985.474 1231.16 985.474C1235.11 985.474 1238.22 986.342 1240.47 988.077C1242.75 989.812 1244.36 992.102 1245.31 994.948ZM1264.35 1025.97L1252.17 985.995H1258.62L1267.26 1016.6H1267.68L1276.21 985.995H1282.77L1291.21 1016.5H1291.62L1300.26 985.995H1306.72L1294.54 1025.97H1288.5L1279.75 995.26H1279.13L1270.38 1025.97H1264.35Z" fill="#46C147"/>
<path d="M1283.75 719.892H1515.84" stroke="#FF0000" stroke-width="6.10763"/>
<path d="M1183.75 619.892H1515.84" stroke="#FF0000" stroke-width="6.10763"/>
<path d="M1466.98 719.892V619.892" stroke="#FF0000" stroke-width="6.10763"/>
<path d="M1466.98 719.892L1448.66 793.183H1485.3L1466.98 719.892Z" fill="#FF0000"/>
<path d="M1466.98 619.891L1448.66 546.6H1485.3L1466.98 619.891Z" fill="#FF0000"/>
<path d="M1521.33 688.913V684.228L1538.92 664.969C1540.99 662.713 1542.69 660.752 1544.02 659.086C1545.36 657.403 1546.35 655.824 1546.99 654.35C1547.65 652.857 1547.98 651.296 1547.98 649.665C1547.98 647.791 1547.53 646.169 1546.63 644.798C1545.74 643.427 1544.53 642.369 1542.98 641.622C1541.44 640.876 1539.7 640.503 1537.78 640.503C1535.73 640.503 1533.94 640.928 1532.42 641.779C1530.91 642.612 1529.73 643.783 1528.9 645.292C1528.09 646.802 1527.68 648.572 1527.68 650.602H1521.54C1521.54 647.479 1522.26 644.737 1523.7 642.377C1525.14 640.018 1527.1 638.178 1529.58 636.86C1532.08 635.541 1534.88 634.882 1537.99 634.882C1541.11 634.882 1543.88 635.541 1546.29 636.86C1548.7 638.178 1550.59 639.957 1551.96 642.195C1553.33 644.433 1554.02 646.923 1554.02 649.665C1554.02 651.625 1553.66 653.543 1552.95 655.417C1552.26 657.273 1551.04 659.347 1549.31 661.637C1547.59 663.91 1545.2 666.686 1542.15 669.966L1530.18 682.771V683.187H1554.95V688.913H1521.33ZM1594.13 657.889L1588.61 659.451C1588.26 658.531 1587.75 657.638 1587.07 656.77C1586.41 655.885 1585.51 655.156 1584.37 654.584C1583.22 654.011 1581.75 653.725 1579.97 653.725C1577.52 653.725 1575.48 654.289 1573.85 655.417C1572.24 656.527 1571.43 657.941 1571.43 659.659C1571.43 661.186 1571.99 662.392 1573.1 663.277C1574.21 664.162 1575.94 664.899 1578.3 665.489L1584.24 666.947C1587.81 667.814 1590.47 669.142 1592.23 670.929C1593.98 672.699 1594.85 674.98 1594.85 677.774C1594.85 680.064 1594.19 682.112 1592.88 683.916C1591.57 685.721 1589.75 687.143 1587.41 688.184C1585.07 689.226 1582.34 689.746 1579.24 689.746C1575.16 689.746 1571.79 688.861 1569.11 687.091C1566.44 685.322 1564.75 682.736 1564.04 679.335L1569.87 677.878C1570.42 680.029 1571.47 681.643 1573.02 682.719C1574.58 683.795 1576.62 684.332 1579.13 684.332C1582 684.332 1584.27 683.725 1585.95 682.511C1587.65 681.279 1588.5 679.804 1588.5 678.086C1588.5 676.698 1588.02 675.535 1587.05 674.598C1586.07 673.644 1584.58 672.933 1582.57 672.464L1575.91 670.903C1572.25 670.035 1569.56 668.69 1567.84 666.869C1566.14 665.029 1565.29 662.73 1565.29 659.971C1565.29 657.716 1565.92 655.72 1567.19 653.985C1568.47 652.25 1570.22 650.888 1572.42 649.899C1574.64 648.91 1577.16 648.415 1579.97 648.415C1583.92 648.415 1587.03 649.283 1589.28 651.018C1591.56 652.753 1593.17 655.044 1594.13 657.889ZM1613.16 688.913L1600.98 648.936H1607.43L1616.07 679.544H1616.49L1625.03 648.936H1631.58L1640.02 679.439H1640.43L1649.07 648.936H1655.53L1643.35 688.913H1637.31L1628.57 658.202H1627.94L1619.2 688.913H1613.16Z" fill="#FF0000"/>
</g>
<defs>
<clipPath id="clip0_0_1">
<rect width="2398" height="1596" fill="white"/>
</clipPath>
</defs>
</svg>
