<svg width="1218" height="590" viewBox="0 0 1218 590" fill="none" xmlns="http://www.w3.org/2000/svg">
<path d="M165.041 38.75C171.74 27.1462 184.122 19.9986 197.521 20H1087.53C1108.25 20 1125.03 36.7893 1125.03 57.5V532.5C1125.03 553.211 1108.25 570 1087.53 570H197.521C184.122 570.001 171.74 562.854 165.041 551.25L22.5093 304.37C19.1637 298.571 19.1637 291.429 22.5093 285.63L165.041 38.75Z" fill="white"/>
<path d="M181.286 48.13C184.634 42.3262 190.826 38.7503 197.526 38.75H1090.44C1100.79 38.75 1109.19 47.1447 1109.19 57.5V532.5C1109.19 542.855 1100.79 551.25 1090.44 551.25H197.526C190.828 551.252 184.637 547.68 181.286 541.88L38.7501 295L181.286 48.13Z" fill="#0033A2"/>
<path d="M226.583 57.5H313.186L175.871 295L313.186 526.25H226.583L89.2682 295L226.583 57.5Z" fill="white"/>
<path d="M852.936 413.75C862.393 403.622 875.629 397.873 889.486 397.875H934.186L988.626 304.36C989.744 302.436 991.8 301.251 994.026 301.25H1006.98C1008.96 301.251 1010.82 302.193 1012 303.789C1013.18 305.385 1013.53 307.445 1012.95 309.34L990.436 382.5V398.125H996.686L1046.69 404.375L1057.83 368.16C1058.63 365.536 1061.06 363.747 1063.81 363.75H1071.69C1075.14 363.75 1077.94 366.548 1077.94 370V457.5C1077.94 460.952 1075.14 463.75 1071.69 463.75H1063.81C1061.06 463.753 1058.63 461.964 1057.83 459.34L1046.69 423.125L996.686 429.375H990.436V445L1012.95 518.16C1013.53 520.055 1013.18 522.115 1012 523.711C1010.82 525.307 1008.96 526.249 1006.98 526.25H994.026C991.8 526.249 989.744 525.064 988.626 523.14L934.186 429.625H889.486C875.629 429.627 862.393 423.878 852.936 413.75Z" fill="white"/>
<path d="M376.098 247.915V238.805H429.088V247.915H376.098ZM369.238 266.025V257.135H436.508V266.025H369.238ZM353.818 284.925V275.705H451.698V284.925H353.818ZM367.658 222.825V214.275H406.808V222.825H367.658ZM397.698 220.015V214.275H409.288C411.688 217.349 414.595 220.329 418.008 223.215C421.421 226.109 425.188 228.792 429.308 231.265C433.435 233.739 437.748 235.952 442.248 237.905C446.748 239.852 451.285 241.502 455.858 242.855C455.038 243.455 454.101 244.242 453.048 245.215C452.001 246.189 450.988 247.202 450.008 248.255C449.035 249.302 448.248 250.275 447.648 251.175C441.648 249.002 435.725 246.302 429.878 243.075C424.025 239.849 418.605 236.269 413.618 232.335C408.631 228.395 404.338 224.289 400.738 220.015H397.698ZM395.228 215.405L404.898 219.115C401.225 224.062 396.761 228.635 391.508 232.835C386.261 237.035 380.655 240.749 374.688 243.975C368.728 247.202 362.711 250.015 356.638 252.415C356.111 251.662 355.398 250.762 354.498 249.715C353.598 248.662 352.661 247.629 351.688 246.615C350.715 245.609 349.851 244.805 349.098 244.205C355.251 242.325 361.251 239.962 367.098 237.115C372.951 234.262 378.295 230.999 383.128 227.325C387.968 223.652 392.001 219.679 395.228 215.405ZM397.028 282.115V242.965H407.938V282.115H397.028ZM353.038 202.685V192.905H452.488V202.685H353.038ZM376.998 212.025V184.355H387.578V212.025H376.998ZM417.278 212.585V184.355H427.848V212.585" fill="white"/>
<path d="M539.363 192.118V186.608H559.043V192.118H539.363ZM538.683 210.458V205.058H559.833V210.458H538.683ZM538.683 218.888V213.608H559.833V218.888H538.683ZM522.263 272.218V265.358H579.293V272.218H522.263ZM535.423 201.568V195.608H562.423V201.568H535.423ZM553.083 227.778H545.093V234.188H553.083V227.778ZM538.453 239.368V222.608H559.943V239.368H538.453ZM524.173 260.628V254.218H570.853V249.378H517.193V242.968H580.763V260.628H524.173ZM520.343 240.938V215.408H527.433V240.938H520.343ZM510.113 219.338L509.323 212.478C512.623 212.331 516.316 212.181 520.403 212.028C524.49 211.881 528.82 211.694 533.393 211.468V217.658C529.193 218.031 525.126 218.331 521.193 218.558C517.253 218.778 513.56 219.038 510.113 219.338ZM521.133 254.218H531.033C530.133 257.818 529.16 261.568 528.113 265.468C527.06 269.368 526.083 272.741 525.183 275.588L515.623 274.238C516.67 271.464 517.683 268.258 518.663 264.618C519.636 260.984 520.46 257.518 521.133 254.218ZM575.923 266.478V265.358H585.933C585.933 265.358 585.896 265.861 585.823 266.868C585.75 267.881 585.6 268.728 585.373 269.408C584.32 274.054 583.23 277.708 582.103 280.368C580.983 283.034 579.673 284.968 578.173 286.168C576.9 287.068 575.53 287.684 574.063 288.018C572.603 288.358 570.86 288.564 568.833 288.638C567.106 288.718 564.65 288.738 561.463 288.698C558.276 288.658 554.883 288.564 551.283 288.418C551.21 287.218 550.91 285.868 550.383 284.368C549.856 282.868 549.22 281.518 548.473 280.318C552 280.691 555.413 280.914 558.713 280.988C562.013 281.068 564.336 281.108 565.683 281.108C566.883 281.108 567.856 281.068 568.603 280.988C569.356 280.914 569.996 280.691 570.523 280.318C571.57 279.491 572.526 278.008 573.393 275.868C574.253 273.734 575.096 270.604 575.923 266.478ZM528.783 223.388L534.183 222.158C534.783 224.031 535.363 226.091 535.923 228.338C536.49 230.591 536.923 232.541 537.223 234.188L531.373 235.768C531.22 234.041 530.9 232.034 530.413 229.748C529.926 227.461 529.383 225.341 528.783 223.388ZM528.443 208.088L533.283 206.288C534.256 208.168 535.156 210.268 535.983 212.588C536.81 214.914 537.373 216.941 537.673 218.668L532.383 220.688C532.156 218.968 531.67 216.944 530.923 214.618C530.17 212.291 529.343 210.114 528.443 208.088ZM510.443 199.208L514.043 193.808C516.223 195.228 518.36 196.858 520.453 198.698C522.56 200.538 524.136 202.131 525.183 203.478L521.133 209.668C520.006 208.094 518.433 206.331 516.413 204.378C514.386 202.431 512.396 200.708 510.443 199.208ZM521.133 184.018L527.543 187.168C526.043 189.641 524.543 192.154 523.043 194.708C521.543 197.254 520.12 199.391 518.773 201.118L513.823 198.528C515.023 196.581 516.336 194.201 517.763 191.388C519.183 188.574 520.306 186.118 521.133 184.018ZM528.333 193.358L534.633 196.958C532.16 200.331 529.516 203.891 526.703 207.638C523.89 211.391 521.246 214.541 518.773 217.088L514.043 214.168C515.623 212.294 517.313 210.158 519.113 207.758C520.913 205.358 522.616 202.881 524.223 200.328C525.836 197.781 527.206 195.458 528.333 193.358ZM512.923 221.708L519.563 223.168C518.883 226.094 518.056 229.018 517.083 231.938C516.11 234.864 515.06 237.378 513.933 239.478C513.26 239.031 512.283 238.524 511.003 237.958C509.73 237.398 508.683 236.931 507.863 236.558C509.136 234.458 510.183 232.111 511.003 229.518C511.83 226.931 512.47 224.328 512.923 221.708ZM572.323 240.938V215.408H579.523V240.938H572.323ZM561.973 219.338L561.293 212.478C564.746 212.331 568.63 212.181 572.943 212.028C577.256 211.881 581.85 211.731 586.723 211.578L586.603 217.768C582.183 218.068 577.89 218.348 573.723 218.608C569.563 218.874 565.646 219.118 561.973 219.338ZM581.093 223.388L586.833 221.708C587.806 223.954 588.763 226.428 589.703 229.128C590.636 231.828 591.293 234.154 591.673 236.108L585.713 238.018C585.413 236.064 584.813 233.701 583.913 230.928C583.013 228.154 582.073 225.641 581.093 223.388ZM580.193 207.868L585.483 205.508C586.756 207.454 587.936 209.608 589.023 211.968C590.116 214.334 590.886 216.418 591.333 218.218L585.593 220.808C585.22 219.008 584.526 216.888 583.513 214.448C582.5 212.008 581.393 209.814 580.193 207.868ZM561.523 198.978L565.343 193.918C567.296 195.264 569.246 196.821 571.193 198.588C573.146 200.348 574.646 201.941 575.693 203.368L571.313 209.218C570.333 207.718 568.926 205.991 567.093 204.038C565.253 202.091 563.396 200.404 561.523 198.978ZM572.543 184.128L578.963 187.388C577.383 189.868 575.806 192.361 574.233 194.868C572.66 197.381 571.16 199.538 569.733 201.338L564.783 198.758C566.056 196.804 567.443 194.421 568.943 191.608C570.443 188.794 571.643 186.301 572.543 184.128ZM580.533 192.908L586.833 196.508C584.286 199.881 581.513 203.441 578.513 207.188C575.513 210.941 572.663 214.091 569.963 216.638L565.343 213.718C567.07 211.844 568.87 209.708 570.743 207.308C572.623 204.908 574.423 202.431 576.143 199.878C577.87 197.331 579.333 195.008 580.533 192.908ZM564.783 221.708L571.313 223.278C570.786 226.051 570.036 228.881 569.063 231.768C568.083 234.661 567.033 237.118 565.913 239.138C565.313 238.764 564.413 238.258 563.213 237.618C562.013 236.984 560.963 236.481 560.063 236.108C561.256 234.008 562.23 231.718 562.983 229.238C563.73 226.764 564.33 224.254 564.783 221.708ZM488.283 192.788L494.473 185.818C496.346 186.791 498.313 187.971 500.373 189.358C502.44 190.744 504.373 192.131 506.173 193.518C507.973 194.911 509.436 196.244 510.563 197.518L504.143 205.388C503.096 204.114 501.69 202.728 499.923 201.228C498.163 199.728 496.27 198.248 494.243 196.788C492.223 195.321 490.236 193.988 488.283 192.788ZM485.923 222.828L491.773 215.518C493.72 216.418 495.763 217.524 497.903 218.838C500.043 220.151 502.03 221.461 503.863 222.768C505.703 224.081 507.223 225.338 508.423 226.538L502.233 234.638C501.106 233.438 499.626 232.128 497.793 230.708C495.953 229.281 493.983 227.874 491.883 226.488C489.783 225.101 487.796 223.881 485.923 222.828ZM497.733 287.408L488.173 282.008C489.6 279.008 491.116 275.518 492.723 271.538C494.336 267.564 495.986 263.364 497.673 258.938C499.366 254.518 500.923 250.168 502.343 245.888L510.783 251.288C509.583 255.268 508.233 259.358 506.733 263.558C505.233 267.758 503.733 271.881 502.233 275.928C500.733 279.981 499.233 283.808 497.733 287.408Z" fill="white"/>
<path d="M468.436 177.25H332.936V317.75H468.436V177.25Z" stroke="white" stroke-width="2" stroke-dasharray="5 5"/>
<path d="M605.936 177.25H470.436V317.75H605.936V177.25Z" stroke="white" stroke-width="2" stroke-dasharray="5 5"/>
<path d="M965.436 76.25H1015.44L1077.94 138.75V276.25H852.936V138.75L915.436 76.25H965.436ZM899.811 238.75H1031.06C1055.61 205.124 1050.77 158.385 1019.85 130.505C988.93 102.625 941.941 102.625 911.024 130.505C880.106 158.385 875.264 205.124 899.811 238.75Z" fill="white"/>
<path d="M333.455 94.3004V83.2804H384.125V94.3004H364.845V153.6H352.735V94.3004" fill="white"/>
<path d="M426.844 109.527L426.294 110.267L425.744 110.817L425.194 111.187L424.454 112.287L424.094 112.657L423.724 112.837C423.324 113.39 422.958 113.817 422.624 114.117L420.234 116.877C415.154 113.604 410.948 111.967 407.614 111.967C404.188 111.967 401.664 113.664 400.044 117.057C400.104 119.05 400.898 120.52 402.424 121.467C403.098 121.647 403.588 121.83 403.894 122.017C405.088 122.197 406.068 122.44 406.834 122.747C418.428 123.607 424.914 128.26 426.294 136.707C426.354 137.074 426.384 137.43 426.384 137.777C426.384 138.13 426.384 138.477 426.384 138.817C426.384 144.964 423.784 149.584 418.584 152.677C414.851 154.357 411.101 155.197 407.334 155.197C400.174 155.197 393.031 152.154 385.904 146.067L386.274 145.337L387.184 144.417C387.798 143.684 388.351 143.13 388.844 142.757C388.964 142.544 389.084 142.424 389.204 142.397L389.574 141.847C389.694 141.634 389.818 141.51 389.944 141.477L390.124 141.107L390.494 140.927L392.884 138.167C397.411 142.454 402.151 144.597 407.104 144.597C409.184 144.597 411.298 144.23 413.444 143.497C413.991 142.764 414.541 142.214 415.094 141.847C415.281 141.114 415.374 140.424 415.374 139.777C415.374 138.184 414.854 136.854 413.814 135.787L409.584 134.317C396.978 133.55 390.124 128.164 389.024 118.157C389.851 108.09 395.541 102.707 406.094 102.007H406.744C414.851 102.007 421.551 104.514 426.844 109.527Z" fill="white"/>
<path d="M439.223 139.276V103.476H450.243V135.236C450.363 135.389 450.423 135.572 450.423 135.786C450.549 135.879 450.613 135.969 450.613 136.056V136.156C450.826 137.529 451.129 138.752 451.523 139.826C453.636 142.759 456.346 144.226 459.653 144.226H459.793C463.893 143.126 466.766 140.862 468.413 137.436V136.886L469.153 134.686V103.476H480.353V153.596H469.153V149.556C464.746 153.162 460.356 154.966 455.983 154.966C452.583 154.966 449.139 153.896 445.653 151.756C442.806 149.582 440.846 147.012 439.773 144.046L439.593 142.756C439.319 141.869 439.183 140.999 439.183 140.146V139.736C439.183 139.582 439.196 139.429 439.223 139.276Z" fill="white"/>
<path d="M538.772 124.044L538.952 126.794C539.072 126.948 539.132 127.131 539.132 127.344V132.854H505.542C506.242 139.094 509.422 142.768 515.082 143.874C516.002 143.961 516.905 144.004 517.792 144.004C522.412 144.004 526.345 142.491 529.592 139.464C529.985 140.138 530.475 140.688 531.062 141.114L531.242 141.664L531.792 142.214C532.218 142.614 532.585 142.991 532.892 143.344C533.198 143.698 533.445 144.058 533.632 144.424C533.845 144.544 533.965 144.664 533.992 144.784L536.562 147.724C530.748 152.591 524.552 155.024 517.972 155.024C516.845 155.024 515.698 154.948 514.532 154.794C513.372 154.641 512.208 154.428 511.042 154.154C500.455 150.634 494.642 143.044 493.602 131.384C493.602 131.231 493.595 130.924 493.582 130.464C493.568 130.011 493.562 129.721 493.562 129.594C493.562 113.654 500.735 104.581 515.082 102.374C529.342 102.868 537.238 110.091 538.772 124.044ZM505.352 124.224H527.572V123.674C527.445 123.308 527.382 122.941 527.382 122.574V122.204C527.075 121.531 526.892 120.921 526.832 120.374C524.572 115.141 520.838 112.508 515.632 112.474C509.085 114.034 505.658 117.951 505.352 124.224Z" fill="white"/>
<path d="M591.986 112.287V112.837C592.386 113.57 592.633 114.304 592.726 115.037V153.407H581.526V120.917L581.336 119.817C579.809 115.19 577.239 112.877 573.626 112.877C572.526 112.877 571.303 113.107 569.956 113.567C566.896 114.887 564.693 116.97 563.346 119.817L562.616 122.937V153.407H551.596V103.287H562.616V107.507C566.043 104.447 569.776 102.614 573.816 102.007H574.636C582.836 102.007 588.619 105.434 591.986 112.287Z" fill="white"/>
<path d="M631.127 83.834V83.464H643.797L643.977 84.754L644.167 85.304L644.527 86.594L644.897 88.794L645.447 90.624L645.817 92.834L646.367 94.664L646.547 96.134C646.76 96.654 646.884 97.084 646.917 97.424L647.097 98.154L647.467 99.254V99.994C647.587 100.087 647.647 100.177 647.647 100.264V100.914C647.987 101.587 648.174 102.321 648.207 103.114L648.567 104.214L648.937 105.504L649.307 107.704L649.857 109.534L650.037 110.644L651.137 115.234C651.23 115.661 651.317 116.051 651.397 116.404C651.47 116.751 651.507 117.094 651.507 117.434L651.877 118.164V118.904L652.237 119.824V120.554L652.607 121.284V122.024C652.947 122.944 653.13 123.741 653.157 124.414L653.347 125.144C653.56 125.757 653.727 126.324 653.847 126.844C653.967 127.364 654.044 127.837 654.077 128.264L654.447 129.734L654.817 131.014L655.177 129.914L655.917 126.244L656.277 125.324L656.467 124.224L657.017 121.654L657.387 120.374V119.824L658.117 116.884L658.297 115.784L658.667 115.044L658.847 114.314L659.037 113.394V112.664L659.217 112.104L659.957 109.174L660.317 106.964L660.507 106.234L660.867 105.504C660.934 104.524 661.117 103.664 661.417 102.924L661.607 102.014V101.464L661.977 99.994L662.157 99.444L662.707 97.054L662.887 95.954L663.257 94.854L663.437 93.934L663.987 91.544L664.177 90.624L664.357 90.264C664.39 89.924 664.43 89.594 664.477 89.274C664.524 88.954 664.607 88.6707 664.727 88.424L664.907 87.874V87.324L665.097 86.594L665.277 86.034L665.827 83.464H679.417V84.014C679.844 85.0873 680.087 86.1307 680.147 87.144L680.517 88.604L680.697 89.164L681.437 92.464L681.797 93.934C682.044 94.8207 682.167 95.554 682.167 96.134C682.38 96.654 682.504 97.084 682.537 97.424L682.897 98.704L683.087 99.994L683.267 100.724L683.457 101.274C683.544 101.674 683.62 102.034 683.687 102.354C683.747 102.674 683.79 102.987 683.817 103.294C684.064 103.874 684.234 104.411 684.327 104.904C684.42 105.391 684.497 105.834 684.557 106.234L684.737 107.334L685.107 108.254L685.287 109.354V109.904C685.594 110.637 685.777 111.311 685.837 111.924L686.027 113.024C686.327 113.757 686.51 114.431 686.577 115.044L686.757 115.964L687.307 117.984V118.714C687.427 118.994 687.487 119.301 687.487 119.634C687.827 120.341 688.014 120.954 688.047 121.474L688.227 122.394L688.407 123.494L688.597 124.224C688.904 125.171 689.087 126.027 689.147 126.794C689.267 126.887 689.327 126.981 689.327 127.074V127.714C689.754 128.787 690 129.827 690.067 130.834C690.247 130.774 690.367 130.651 690.427 130.464C690.58 129.704 690.734 129.041 690.887 128.474C691.04 127.907 691.194 127.411 691.347 126.984V126.244C691.747 125.144 691.99 124.164 692.077 123.304L692.447 122.024L693.187 119.084L693.367 117.614L693.737 116.334L693.917 115.784V115.234C694.13 114.647 694.3 114.117 694.427 113.644C694.547 113.171 694.62 112.721 694.647 112.294L695.017 111.004L696.487 104.944L697.037 102.014L697.407 100.544C697.74 99.6573 697.924 98.924 697.957 98.344L698.137 97.424L698.507 95.954C698.78 95.0673 698.964 94.334 699.057 93.754L699.237 93.014L699.797 90.444L700.157 89.344V88.794L700.707 87.324V86.594L700.897 86.034L701.447 83.464H713.927L713.197 87.144L712.647 89.344L712.457 89.894L711.907 92.464L711.547 93.934L711.177 95.214L710.437 98.894L710.077 100.174L709.337 103.664L708.977 104.944L708.787 105.504L708.417 107.514L708.237 107.884L708.057 109.174C707.75 110.181 707.567 111.037 707.507 111.744L706.767 113.944L706.587 115.234L706.397 115.964L706.217 116.514L706.037 117.804L705.847 118.354L704.747 122.944L704.567 124.224L704.197 125.514L703.277 129.184L703.097 130.464L701.997 135.054L701.447 137.624C701.107 138.544 700.924 139.341 700.897 140.014L700.157 142.404V143.134C699.824 144.054 699.64 144.851 699.607 145.524C699.3 146.531 699.117 147.387 699.057 148.094L698.687 149.374L698.507 149.744L698.327 151.034C698.02 152.041 697.837 152.897 697.777 153.604H684.187L684.007 152.134C683.794 151.614 683.67 151.184 683.637 150.844L683.267 149.374L683.087 148.094L682.717 146.804C682.624 146.437 682.547 146.087 682.487 145.754C682.427 145.414 682.38 145.091 682.347 144.784L682.167 144.054L681.987 143.134C681.86 142.981 681.797 142.797 681.797 142.584L681.617 141.664L681.437 141.114C681.344 140.721 681.267 140.361 681.207 140.034C681.14 139.714 681.094 139.401 681.067 139.094C680.854 138.514 680.694 137.981 680.587 137.494C680.48 137.001 680.394 136.557 680.327 136.164L680.147 135.424L679.967 134.504C679.84 134.137 679.754 133.787 679.707 133.454C679.667 133.114 679.63 132.791 679.597 132.484C679.384 131.877 679.217 131.297 679.097 130.744C678.97 130.191 678.894 129.671 678.867 129.184C678.74 129.031 678.677 128.847 678.677 128.634L678.497 127.894L678.317 127.344C678.224 126.704 678.1 126.094 677.947 125.514L677.577 123.854L677.397 122.754L677.027 121.844L676.657 119.634L676.477 119.084V118.534C676.17 117.801 675.987 117.127 675.927 116.514L675.557 114.314L675.187 113.394L674.827 111.924V111.194C674.46 110.181 674.277 109.324 674.277 108.624C674.15 108.471 674.087 108.287 674.087 108.074L673.907 107.514V106.964C673.6 106.264 673.417 105.531 673.357 104.764C673.05 103.784 672.867 102.867 672.807 102.014L672.437 102.744L672.257 103.844L671.707 106.234L671.337 108.254L671.147 108.804L670.417 111.924L670.237 112.664L669.867 114.494L669.687 115.234L669.317 117.254L669.137 117.804L668.397 121.284L668.027 122.574L667.847 123.854C667.514 124.774 667.33 125.571 667.297 126.244L667.117 126.614L666.927 127.714L666.747 128.264L665.827 132.854L665.647 133.404L664.907 136.894L664.727 137.624L664.547 138.544L664.357 139.094L663.627 142.584L663.257 144.054L662.887 145.894L662.707 146.254L662.337 147.914L662.157 148.644L661.977 149.924C661.757 150.691 661.634 151.304 661.607 151.764C661.48 152.071 661.397 152.361 661.357 152.634C661.31 152.914 661.27 153.174 661.237 153.414C660.81 153.481 660.42 153.534 660.067 153.574C659.714 153.621 659.37 153.644 659.037 153.644H658.577C658.424 153.644 658.27 153.631 658.117 153.604H647.467V152.864C647.04 151.764 646.797 150.724 646.737 149.744C646.61 149.591 646.547 149.407 646.547 149.194L646.367 148.274C645.694 146.101 645.264 144.264 645.077 142.764L644.897 142.214L643.977 138.734L643.797 137.264L642.327 131.574V130.834C642.02 130.134 641.837 129.401 641.777 128.634L641.407 127.534L641.047 126.244V125.694L640.127 122.024V121.474L639.937 120.734L639.577 120.004L639.387 118.534C639.147 117.801 638.95 117.127 638.797 116.514C638.644 115.901 638.537 115.351 638.477 114.864L638.287 114.314V113.764C638.167 113.611 638.107 113.427 638.107 113.214L637.737 111.744L637.557 111.194C637.43 110.547 637.314 109.964 637.207 109.444C637.1 108.924 636.97 108.467 636.817 108.074L636.637 106.784C636.424 106.171 636.254 105.604 636.127 105.084C636.007 104.564 635.93 104.091 635.897 103.664L635.717 102.744C635.597 102.591 635.537 102.407 635.537 102.194L634.617 98.524L634.247 97.234L634.067 96.324L633.887 95.584L633.697 94.304C633.45 93.6573 633.327 93.104 633.327 92.644V92.464L632.967 91.544L632.777 90.814C632.657 89.9273 632.474 89.1907 632.227 88.604V87.874C632.107 87.7207 632.047 87.5373 632.047 87.324" fill="white"/>
<path d="M757.501 107.885L758.061 108.985C759.495 110.765 760.411 112.601 760.811 114.495C760.931 115.288 761.021 116.031 761.081 116.725C761.148 117.411 761.181 118.015 761.181 118.535V142.765C762.308 145.005 763.958 146.351 766.131 146.805L765.771 147.355C765.645 147.575 765.521 147.698 765.401 147.725L765.221 148.275L764.851 148.645C764.545 149.318 764.178 149.868 763.751 150.295C763.318 151.428 762.765 152.285 762.091 152.865C761.818 153.478 761.558 154.008 761.311 154.455C761.071 154.895 760.845 155.285 760.631 155.625C757.051 154.705 754.235 153.051 752.181 150.665H751.631C747.685 153.511 743.615 154.935 739.421 154.935C737.155 154.935 734.921 154.551 732.721 153.785C726.141 151.431 722.165 147.148 720.791 140.935V140.705C720.791 128.865 727.721 122.945 741.581 122.945H741.721C741.995 122.818 742.298 122.755 742.631 122.755L743.181 122.575H744.471L745.021 122.395H745.571L750.161 121.845C750.221 121.505 750.251 121.198 750.251 120.925V120.005C750.251 114.891 747.545 112.335 742.131 112.335C738.365 112.335 733.208 113.605 726.661 116.145L725.931 114.495L725.561 113.395L725.191 113.025L725.011 112.665L724.641 111.555C724.308 111.008 724.065 110.458 723.911 109.905C723.265 109.051 722.835 108.195 722.621 107.335L723.171 107.155L723.541 106.965L724.091 106.785L724.461 106.415H725.011C725.131 106.295 725.238 106.235 725.331 106.235H725.381C726.481 105.655 727.458 105.225 728.311 104.945L729.231 104.765C729.905 104.458 730.518 104.275 731.071 104.215L732.541 103.845C733.608 103.418 734.648 103.175 735.661 103.115L739.701 102.375C740.308 102.315 740.895 102.261 741.461 102.215C742.028 102.168 742.588 102.145 743.141 102.145C748.981 102.145 753.768 104.058 757.501 107.885ZM745.751 131.205H744.651C744.378 131.265 744.111 131.311 743.851 131.345C743.591 131.371 743.338 131.385 743.091 131.385H742.821L742.081 131.575H741.531C741.378 131.695 741.195 131.755 740.981 131.755H740.431L737.491 132.485H736.941C736.088 132.978 735.355 133.285 734.741 133.405C732.755 135.305 731.761 137.141 731.761 138.915C731.761 140.535 732.571 142.125 734.191 143.685C736.545 145.125 738.838 145.845 741.071 145.845C743.918 145.845 746.641 144.698 749.241 142.405C749.488 141.698 749.735 141.208 749.981 140.935L750.161 140.385L749.981 139.645V131.015H746.311C746.158 131.141 745.971 131.205 745.751 131.205Z" fill="white"/>
<path d="M819.986 112.287V112.837C820.386 113.57 820.633 114.304 820.726 115.037V153.407H809.526V120.917L809.336 119.817C807.809 115.19 805.239 112.877 801.626 112.877C800.526 112.877 799.303 113.107 797.956 113.567C794.896 114.887 792.693 116.97 791.346 119.817L790.616 122.937V153.407H779.596V103.287H790.616V107.507C794.043 104.447 797.776 102.614 801.816 102.007H802.636C810.836 102.007 816.619 105.434 819.986 112.287Z" fill="white"/>
<path d="M383.436 77.25H332.936V175.25H383.436V77.25Z" stroke="white" stroke-width="2" stroke-dasharray="5 5"/>
<path d="M430.936 77.25H385.436V175.25H430.936V77.25Z" stroke="white" stroke-width="2" stroke-dasharray="5 5"/>
<path d="M488.436 77.25H432.936V175.25H488.436V77.25Z" stroke="white" stroke-width="2" stroke-dasharray="5 5"/>
<path d="M542.936 77.25H490.436V175.25H542.936V77.25Z" stroke="white" stroke-width="2" stroke-dasharray="5 5"/>
<path d="M598.936 77.25H544.936V175.25H598.936V77.25Z" stroke="white" stroke-width="2" stroke-dasharray="5 5"/>
<path d="M623.936 77.25H600.936V175.25H623.936V77.25Z" stroke="white" stroke-width="2" stroke-dasharray="5 5"/>
<path d="M715.436 77.25H625.936V175.25H715.436V77.25Z" stroke="white" stroke-width="2" stroke-dasharray="5 5"/>
<path d="M770.936 77.25H717.436V175.25H770.936V77.25Z" stroke="white" stroke-width="2" stroke-dasharray="5 5"/>
<path d="M826.936 77.25H772.936V175.25H826.936V77.25Z" stroke="white" stroke-width="2" stroke-dasharray="5 5"/>
<path d="M852.936 76.25V191.462" stroke="#46C147" stroke-width="3.03189"/>
<path d="M827.936 76.25V191.462" stroke="#46C147" stroke-width="3.03189"/>
<path d="M852.936 167.207H827.936" stroke="#46C147" stroke-width="3.03189"/>
<path d="M852.936 167.207L889.318 158.111V176.302L852.936 167.207Z" fill="#46C147"/>
<path d="M827.936 167.207L791.553 158.111V176.302L827.936 167.207Z" fill="#46C147"/>
<path d="M811.739 227.947V225.621L820.473 216.06C821.498 214.941 822.342 213.967 823.005 213.14C823.669 212.305 824.159 211.521 824.478 210.789C824.805 210.048 824.969 209.273 824.969 208.463C824.969 207.533 824.745 206.728 824.297 206.047C823.858 205.367 823.255 204.841 822.488 204.471C821.722 204.101 820.861 203.915 819.904 203.915C818.888 203.915 818.001 204.126 817.243 204.549C816.494 204.962 815.912 205.543 815.499 206.293C815.094 207.042 814.892 207.921 814.892 208.928H811.842C811.842 207.378 812.2 206.017 812.915 204.846C813.63 203.674 814.603 202.761 815.835 202.107C817.075 201.452 818.466 201.125 820.008 201.125C821.558 201.125 822.932 201.452 824.129 202.107C825.327 202.761 826.265 203.644 826.946 204.755C827.626 205.866 827.967 207.102 827.967 208.463C827.967 209.437 827.79 210.388 827.437 211.319C827.092 212.24 826.489 213.27 825.628 214.406C824.775 215.535 823.591 216.913 822.075 218.541L816.132 224.898V225.104H828.432V227.947H811.739ZM847.876 212.546L845.137 213.321C844.965 212.865 844.711 212.421 844.375 211.99C844.048 211.551 843.6 211.189 843.031 210.905C842.463 210.621 841.735 210.479 840.848 210.479C839.633 210.479 838.621 210.759 837.812 211.319C837.011 211.87 836.61 212.572 836.61 213.425C836.61 214.183 836.886 214.781 837.437 215.22C837.988 215.66 838.85 216.026 840.021 216.319L842.967 217.042C844.741 217.473 846.063 218.132 846.933 219.019C847.803 219.897 848.238 221.03 848.238 222.417C848.238 223.554 847.911 224.57 847.256 225.466C846.61 226.362 845.706 227.068 844.543 227.585C843.38 228.102 842.028 228.36 840.486 228.36C838.462 228.36 836.787 227.921 835.46 227.042C834.134 226.164 833.294 224.88 832.941 223.192L835.835 222.469C836.11 223.537 836.632 224.338 837.398 224.872C838.173 225.406 839.185 225.673 840.434 225.673C841.856 225.673 842.984 225.371 843.819 224.768C844.664 224.157 845.086 223.425 845.086 222.572C845.086 221.883 844.844 221.306 844.362 220.841C843.88 220.367 843.139 220.014 842.14 219.781L838.832 219.006C837.015 218.575 835.68 217.908 834.827 217.003C833.983 216.09 833.561 214.949 833.561 213.58C833.561 212.46 833.875 211.469 834.504 210.608C835.141 209.747 836.007 209.071 837.101 208.58C838.204 208.089 839.452 207.843 840.848 207.843C842.812 207.843 844.353 208.274 845.473 209.135C846.602 209.996 847.403 211.133 847.876 212.546ZM857.324 227.947L851.277 208.102H854.482L858.771 223.295H858.978L863.216 208.102H866.471L870.657 223.244H870.864L875.154 208.102H878.358L872.311 227.947H869.314L864.973 212.701H864.663L860.321 227.947H857.324Z" fill="#46C147"/>
<path d="M852.936 76.25H968.148" stroke="#FF0000" stroke-width="3.03189"/>
<path d="M827.936 76.25H968.148" stroke="#FF0000" stroke-width="3.03189"/>
<path d="M943.893 76.25L934.797 112.633H952.988L943.893 76.25Z" fill="#FF0000"/>
<path d="M943.893 76.25L934.797 39.8672H952.988L943.893 76.25Z" fill="#FF0000"/>
<path d="M998.698 85.8094C996.751 85.8094 995.093 85.2797 993.723 84.2203C992.354 83.1522 991.307 81.6061 990.584 79.582C989.86 77.5492 989.499 75.0944 989.499 72.2176C989.499 69.3579 989.86 66.9161 990.584 64.8919C991.316 62.8592 992.367 61.3088 993.736 60.2407C995.114 59.1641 996.768 58.6257 998.698 58.6257C1000.63 58.6257 1002.28 59.1641 1003.65 60.2407C1005.02 61.3088 1006.07 62.8592 1006.8 64.8919C1007.53 66.9161 1007.9 69.3579 1007.9 72.2176C1007.9 75.0944 1007.53 77.5492 1006.81 79.582C1006.09 81.6061 1005.04 83.1522 1003.67 84.2203C1002.3 85.2797 1000.64 85.8094 998.698 85.8094ZM998.698 82.967C1000.63 82.967 1002.13 82.0368 1003.19 80.1763C1004.26 78.3158 1004.8 75.6629 1004.8 72.2176C1004.8 69.9264 1004.55 67.9755 1004.06 66.3648C1003.58 64.7541 1002.88 63.5267 1001.97 62.6826C1001.06 61.8385 999.972 61.4165 998.698 61.4165C996.785 61.4165 995.291 62.3596 994.214 64.2459C993.138 66.1236 992.599 68.7809 992.599 72.2176C992.599 74.5087 992.841 76.4553 993.323 78.0574C993.805 79.6595 994.499 80.8783 995.403 81.7138C996.316 82.5493 997.414 82.967 998.698 82.967ZM1026.91 70.047L1024.18 70.8222C1024 70.3657 1023.75 69.9221 1023.41 69.4915C1023.09 69.0522 1022.64 68.6904 1022.07 68.4062C1021.5 68.1219 1020.77 67.9798 1019.89 67.9798C1018.67 67.9798 1017.66 68.2597 1016.85 68.8196C1016.05 69.3709 1015.65 70.0729 1015.65 70.9256C1015.65 71.6835 1015.92 72.2822 1016.48 72.7215C1017.03 73.1607 1017.89 73.5268 1019.06 73.8197L1022.01 74.5432C1023.78 74.9738 1025.1 75.6328 1025.97 76.5199C1026.84 77.3985 1027.28 78.5312 1027.28 79.9179C1027.28 81.0549 1026.95 82.0712 1026.29 82.967C1025.65 83.8628 1024.74 84.5691 1023.58 85.0859C1022.42 85.6027 1021.07 85.8611 1019.52 85.8611C1017.5 85.8611 1015.83 85.4218 1014.5 84.5433C1013.17 83.6647 1012.33 82.3813 1011.98 80.6931L1014.87 79.9696C1015.15 81.0376 1015.67 81.8387 1016.44 82.3727C1017.21 82.9067 1018.22 83.1737 1019.47 83.1737C1020.89 83.1737 1022.02 82.8723 1022.86 82.2693C1023.7 81.6578 1024.12 80.9257 1024.12 80.0729C1024.12 79.3839 1023.88 78.8068 1023.4 78.3417C1022.92 77.8679 1022.18 77.5148 1021.18 77.2822L1017.87 76.507C1016.05 76.0764 1014.72 75.4088 1013.87 74.5044C1013.02 73.5914 1012.6 72.4501 1012.6 71.0806C1012.6 69.9609 1012.91 68.9703 1013.54 68.109C1014.18 67.2477 1015.05 66.5715 1016.14 66.0806C1017.24 65.5896 1018.49 65.3441 1019.89 65.3441C1021.85 65.3441 1023.39 65.7748 1024.51 66.6361C1025.64 67.4975 1026.44 68.6344 1026.91 70.047ZM1036.36 85.4477L1030.32 65.6025H1033.52L1037.81 80.7965H1038.02L1042.25 65.6025H1045.51L1049.7 80.7448H1049.9L1054.19 65.6025H1057.4L1051.35 85.4477H1048.35L1044.01 70.2021H1043.7L1039.36 85.4477H1036.36Z" fill="#FF0000"/>
<path d="M969.521 305V420.212" stroke="#46C147" stroke-width="3.03189"/>
<path d="M969.521 280V420.212" stroke="#46C147" stroke-width="3.03189"/>
<path d="M969.521 395.957L1005.9 386.861V405.052L969.521 395.957Z" fill="#46C147"/>
<path d="M969.521 395.957L933.139 386.861V405.052L969.521 395.957Z" fill="#46C147"/>
<path d="M941.37 457.058C939.423 457.058 937.765 456.529 936.395 455.469C935.026 454.401 933.979 452.855 933.256 450.831C932.532 448.798 932.171 446.343 932.171 443.467C932.171 440.607 932.532 438.165 933.256 436.141C933.988 434.108 935.039 432.558 936.408 431.49C937.786 430.413 939.44 429.875 941.37 429.875C943.299 429.875 944.948 430.413 946.318 431.49C947.696 432.558 948.747 434.108 949.47 436.141C950.203 438.165 950.569 440.607 950.569 443.467C950.569 446.343 950.207 448.798 949.483 450.831C948.76 452.855 947.713 454.401 946.344 455.469C944.974 456.529 943.316 457.058 941.37 457.058ZM941.37 454.216C943.299 454.216 944.798 453.286 945.866 451.425C946.934 449.565 947.468 446.912 947.468 443.467C947.468 441.175 947.222 439.225 946.731 437.614C946.249 436.003 945.551 434.776 944.638 433.932C943.734 433.087 942.644 432.665 941.37 432.665C939.457 432.665 937.963 433.609 936.886 435.495C935.81 437.373 935.271 440.03 935.271 443.467C935.271 445.758 935.513 447.704 935.995 449.306C936.477 450.908 937.171 452.127 938.075 452.963C938.988 453.798 940.086 454.216 941.37 454.216ZM969.587 441.296L966.848 442.071C966.676 441.615 966.421 441.171 966.086 440.74C965.758 440.301 965.31 439.939 964.742 439.655C964.173 439.371 963.446 439.229 962.558 439.229C961.344 439.229 960.332 439.509 959.522 440.069C958.721 440.62 958.321 441.322 958.321 442.175C958.321 442.933 958.596 443.531 959.148 443.97C959.699 444.41 960.56 444.776 961.732 445.069L964.677 445.792C966.452 446.223 967.774 446.882 968.644 447.769C969.514 448.647 969.949 449.78 969.949 451.167C969.949 452.304 969.621 453.32 968.967 454.216C968.321 455.112 967.416 455.818 966.254 456.335C965.091 456.852 963.738 457.11 962.197 457.11C960.173 457.11 958.497 456.671 957.171 455.792C955.844 454.914 955.005 453.63 954.651 451.942L957.545 451.219C957.821 452.287 958.342 453.088 959.109 453.622C959.884 454.156 960.896 454.423 962.145 454.423C963.566 454.423 964.695 454.121 965.53 453.518C966.374 452.907 966.796 452.175 966.796 451.322C966.796 450.633 966.555 450.056 966.073 449.591C965.59 449.117 964.85 448.764 963.85 448.531L960.543 447.756C958.725 447.325 957.39 446.658 956.538 445.753C955.694 444.84 955.272 443.699 955.272 442.33C955.272 441.21 955.586 440.219 956.215 439.358C956.852 438.497 957.718 437.821 958.812 437.33C959.914 436.839 961.163 436.593 962.558 436.593C964.522 436.593 966.064 437.024 967.184 437.885C968.312 438.746 969.113 439.883 969.587 441.296ZM979.035 456.697L972.988 436.852H976.192L980.482 452.045H980.688L984.926 436.852H988.182L992.368 451.994H992.575L996.864 436.852H1000.07L994.022 456.697H991.024L986.683 441.451H986.373L982.032 456.697H979.035Z" fill="#46C147"/>
<path d="M1020 304.383H1135.21" stroke="#FF0000" stroke-width="3.03189"/>
<path d="M1020 279.383H1135.21" stroke="#FF0000" stroke-width="3.03189"/>
<path d="M1110.96 304.383V279.383" stroke="#FF0000" stroke-width="3.03189"/>
<path d="M1110.96 304.383L1101.86 340.766H1120.05L1110.96 304.383Z" fill="#FF0000"/>
<path d="M1110.96 279.383L1101.86 243H1120.05L1110.96 279.383Z" fill="#FF0000"/>
<path d="M1151.07 301.08V298.755L1159.81 289.194C1160.83 288.074 1161.68 287.101 1162.34 286.274C1163 285.439 1163.49 284.655 1163.81 283.923C1164.14 283.182 1164.3 282.407 1164.3 281.597C1164.3 280.667 1164.08 279.861 1163.63 279.181C1163.19 278.501 1162.59 277.975 1161.82 277.605C1161.06 277.234 1160.2 277.049 1159.24 277.049C1158.22 277.049 1157.34 277.26 1156.58 277.682C1155.83 278.096 1155.25 278.677 1154.83 279.427C1154.43 280.176 1154.23 281.054 1154.23 282.062H1151.18C1151.18 280.512 1151.53 279.151 1152.25 277.979C1152.96 276.808 1153.94 275.895 1155.17 275.24C1156.41 274.586 1157.8 274.259 1159.34 274.259C1160.89 274.259 1162.27 274.586 1163.46 275.24C1164.66 275.895 1165.6 276.778 1166.28 277.889C1166.96 279 1167.3 280.236 1167.3 281.597C1167.3 282.57 1167.12 283.522 1166.77 284.452C1166.43 285.374 1165.82 286.403 1164.96 287.54C1164.11 288.669 1162.93 290.047 1161.41 291.675L1155.47 298.031V298.238H1167.77V301.08H1151.07ZM1187.21 285.68L1184.47 286.455C1184.3 285.998 1184.05 285.555 1183.71 285.124C1183.38 284.685 1182.93 284.323 1182.37 284.039C1181.8 283.755 1181.07 283.613 1180.18 283.613C1178.97 283.613 1177.96 283.893 1177.15 284.452C1176.35 285.004 1175.94 285.706 1175.94 286.558C1175.94 287.316 1176.22 287.915 1176.77 288.354C1177.32 288.794 1178.18 289.16 1179.36 289.452L1182.3 290.176C1184.08 290.607 1185.4 291.266 1186.27 292.153C1187.14 293.031 1187.57 294.164 1187.57 295.551C1187.57 296.688 1187.25 297.704 1186.59 298.6C1185.94 299.496 1185.04 300.202 1183.88 300.719C1182.71 301.235 1181.36 301.494 1179.82 301.494C1177.8 301.494 1176.12 301.055 1174.79 300.176C1173.47 299.297 1172.63 298.014 1172.28 296.326L1175.17 295.602C1175.44 296.67 1175.97 297.471 1176.73 298.005C1177.51 298.54 1178.52 298.807 1179.77 298.807C1181.19 298.807 1182.32 298.505 1183.15 297.902C1184 297.291 1184.42 296.558 1184.42 295.706C1184.42 295.017 1184.18 294.44 1183.7 293.974C1183.21 293.501 1182.47 293.148 1181.47 292.915L1178.17 292.14C1176.35 291.709 1175.01 291.042 1174.16 290.137C1173.32 289.224 1172.9 288.083 1172.9 286.713C1172.9 285.594 1173.21 284.603 1173.84 283.742C1174.48 282.88 1175.34 282.204 1176.44 281.713C1177.54 281.222 1178.79 280.977 1180.18 280.977C1182.15 280.977 1183.69 281.408 1184.81 282.269C1185.94 283.13 1186.74 284.267 1187.21 285.68ZM1196.66 301.08L1190.61 281.235H1193.82L1198.11 296.429H1198.31L1202.55 281.235H1205.81L1209.99 296.378H1210.2L1214.49 281.235H1217.69L1211.65 301.08H1208.65L1204.31 285.835H1204L1199.66 301.08H1196.66Z" fill="#FF0000"/>
</svg>
