<svg width="1150" height="475" viewBox="0 0 1150 475" fill="none" xmlns="http://www.w3.org/2000/svg">
<g clip-path="url(#clip0_0_1)">
<path d="M22.6602 158.5C22.6602 137.789 39.4494 121 60.1601 121H960.158C980.869 121 997.658 137.789 997.658 158.5V733.5C997.658 754.211 980.869 771 960.158 771H60.1601C39.4494 771 22.6602 754.211 22.6602 733.5V158.5Z" fill="white"/>
<path d="M41.4102 158.5C41.4102 148.145 49.8048 139.75 60.1601 139.75H960.158C970.514 139.75 978.908 148.145 978.908 158.5V733.5C978.908 743.855 970.514 752.25 960.158 752.25H60.1601C49.8048 752.25 41.4102 743.855 41.4102 733.5V158.5Z" fill="#0033A2"/>
<path d="M833.158 189.875H883.158L945.658 252.375V389.875H720.659V252.375L783.159 189.875H833.158ZM767.534 352.375H898.783C923.33 318.749 918.488 272.01 887.57 244.13C856.653 216.25 809.664 216.25 778.746 244.13C747.829 272.01 742.987 318.749 767.534 352.375Z" fill="white"/>
<path d="M201.179 196.801V185.781H251.849V196.801H232.569V256.101H220.459V196.801" fill="white"/>
<path d="M294.568 212.027L294.018 212.767L293.468 213.317L292.918 213.687L292.178 214.787L291.818 215.157L291.448 215.337C291.048 215.891 290.682 216.317 290.348 216.617L287.958 219.377C282.878 216.104 278.672 214.467 275.338 214.467C271.912 214.467 269.388 216.164 267.768 219.557C267.828 221.551 268.622 223.021 270.148 223.967C270.822 224.147 271.312 224.331 271.618 224.517C272.812 224.697 273.792 224.941 274.558 225.247C286.152 226.107 292.638 230.761 294.018 239.207C294.078 239.574 294.108 239.931 294.108 240.277C294.108 240.631 294.108 240.977 294.108 241.317C294.108 247.464 291.508 252.084 286.308 255.177C282.575 256.857 278.825 257.697 275.058 257.697C267.898 257.697 260.755 254.654 253.628 248.567L253.998 247.837L254.908 246.917C255.522 246.184 256.075 245.631 256.568 245.257C256.688 245.044 256.808 244.924 256.928 244.897L257.298 244.347C257.418 244.134 257.542 244.011 257.668 243.977L257.848 243.607L258.218 243.427L260.608 240.667C265.135 244.954 269.875 247.097 274.828 247.097C276.908 247.097 279.022 246.731 281.168 245.997C281.715 245.264 282.265 244.714 282.818 244.347C283.005 243.614 283.098 242.924 283.098 242.277C283.098 240.684 282.578 239.354 281.538 238.287L277.308 236.817C264.702 236.051 257.848 230.664 256.748 220.657C257.575 210.591 263.265 205.207 273.818 204.507H274.468C282.575 204.507 289.275 207.014 294.568 212.027Z" fill="white"/>
<path d="M306.947 241.776V205.976H317.967V237.736C318.087 237.889 318.147 238.073 318.147 238.286C318.273 238.379 318.337 238.469 318.337 238.556V238.656C318.55 240.029 318.853 241.253 319.247 242.326C321.36 245.259 324.07 246.726 327.377 246.726H327.517C331.617 245.626 334.49 243.363 336.137 239.936V239.386L336.877 237.186V205.976H348.077V256.096H336.877V252.056C332.47 255.663 328.08 257.466 323.707 257.466C320.307 257.466 316.863 256.396 313.377 254.256C310.53 252.083 308.57 249.513 307.497 246.546L307.317 245.256C307.043 244.369 306.907 243.499 306.907 242.646V242.236C306.907 242.083 306.92 241.929 306.947 241.776Z" fill="white"/>
<path d="M406.495 226.544L406.675 229.294C406.795 229.448 406.855 229.631 406.855 229.844V235.354H373.265C373.965 241.594 377.145 245.268 382.805 246.374C383.725 246.461 384.629 246.504 385.515 246.504C390.135 246.504 394.069 244.991 397.315 241.964C397.709 242.638 398.199 243.188 398.785 243.614L398.965 244.164L399.515 244.714C399.942 245.114 400.309 245.491 400.615 245.844C400.922 246.198 401.169 246.558 401.355 246.924C401.569 247.044 401.689 247.164 401.715 247.284L404.285 250.224C398.472 255.091 392.275 257.524 385.695 257.524C384.569 257.524 383.422 257.448 382.255 257.294C381.095 257.141 379.932 256.928 378.765 256.654C368.179 253.134 362.365 245.544 361.325 233.884C361.325 233.731 361.319 233.424 361.305 232.964C361.292 232.511 361.285 232.221 361.285 232.094C361.285 216.154 368.459 207.081 382.805 204.874C397.065 205.368 404.962 212.591 406.495 226.544ZM373.075 226.724H395.295V226.174C395.169 225.808 395.105 225.441 395.105 225.074V224.704C394.799 224.031 394.615 223.421 394.555 222.874C392.295 217.641 388.562 215.008 383.355 214.974C376.809 216.534 373.382 220.451 373.075 226.724Z" fill="white"/>
<path d="M459.709 214.787V215.337C460.109 216.071 460.356 216.804 460.449 217.537V255.907H449.249V223.417L449.059 222.317C447.533 217.691 444.963 215.377 441.349 215.377C440.249 215.377 439.026 215.607 437.679 216.067C434.619 217.387 432.416 219.471 431.069 222.317L430.339 225.437V255.907H419.319V205.787H430.339V210.007C433.766 206.947 437.499 205.114 441.539 204.507H442.359C450.559 204.507 456.343 207.934 459.709 214.787Z" fill="white"/>
<path d="M498.85 186.334V185.964H511.52L511.7 187.254L511.89 187.804L512.25 189.094L512.62 191.294L513.17 193.124L513.54 195.334L514.09 197.164L514.27 198.634C514.484 199.154 514.607 199.584 514.64 199.924L514.82 200.654L515.19 201.754V202.494C515.31 202.588 515.37 202.678 515.37 202.764V203.414C515.71 204.088 515.897 204.821 515.93 205.614L516.29 206.714L516.66 208.004L517.03 210.204L517.58 212.034L517.76 213.144L518.86 217.734C518.954 218.161 519.04 218.551 519.12 218.904C519.194 219.251 519.23 219.594 519.23 219.934L519.6 220.664V221.404L519.96 222.324V223.054L520.33 223.784V224.524C520.67 225.444 520.854 226.241 520.88 226.914L521.07 227.644C521.284 228.257 521.45 228.824 521.57 229.344C521.69 229.864 521.767 230.337 521.8 230.764L522.17 232.234L522.54 233.514L522.9 232.414L523.64 228.744L524 227.824L524.19 226.724L524.74 224.154L525.11 222.874V222.324L525.84 219.384L526.02 218.284L526.39 217.544L526.57 216.814L526.76 215.894V215.164L526.94 214.604L527.68 211.674L528.04 209.464L528.23 208.734L528.59 208.004C528.657 207.024 528.84 206.164 529.14 205.424L529.33 204.514V203.964L529.7 202.494L529.88 201.944L530.43 199.554L530.61 198.454L530.98 197.354L531.16 196.434L531.71 194.044L531.9 193.124L532.08 192.764C532.114 192.424 532.154 192.094 532.2 191.774C532.247 191.454 532.33 191.171 532.45 190.924L532.63 190.374V189.824L532.82 189.094L533 188.534L533.55 185.964H547.14V186.514C547.567 187.588 547.81 188.631 547.87 189.644L548.24 191.104L548.42 191.664L549.16 194.964L549.52 196.434C549.767 197.321 549.89 198.054 549.89 198.634C550.104 199.154 550.227 199.584 550.26 199.924L550.62 201.204L550.81 202.494L550.99 203.224L551.18 203.774C551.267 204.174 551.344 204.534 551.41 204.854C551.47 205.174 551.514 205.488 551.54 205.794C551.787 206.374 551.957 206.911 552.05 207.404C552.144 207.891 552.22 208.334 552.28 208.734L552.46 209.834L552.83 210.754L553.01 211.854V212.404C553.317 213.137 553.5 213.811 553.56 214.424L553.75 215.524C554.05 216.257 554.234 216.931 554.3 217.544L554.48 218.464L555.03 220.484V221.214C555.15 221.494 555.21 221.801 555.21 222.134C555.55 222.841 555.737 223.454 555.77 223.974L555.95 224.894L556.13 225.994L556.32 226.724C556.627 227.671 556.81 228.527 556.87 229.294C556.99 229.387 557.05 229.481 557.05 229.574V230.214C557.477 231.287 557.724 232.327 557.79 233.334C557.97 233.274 558.09 233.151 558.15 232.964C558.304 232.204 558.457 231.541 558.61 230.974C558.764 230.407 558.917 229.911 559.07 229.484V228.744C559.47 227.644 559.714 226.664 559.8 225.804L560.17 224.524L560.91 221.584L561.09 220.114L561.46 218.834L561.64 218.284V217.734C561.854 217.147 562.024 216.617 562.15 216.144C562.27 215.671 562.344 215.221 562.37 214.794L562.74 213.504L564.21 207.444L564.76 204.514L565.13 203.044C565.464 202.158 565.647 201.424 565.68 200.844L565.86 199.924L566.23 198.454C566.504 197.568 566.687 196.834 566.78 196.254L566.96 195.514L567.52 192.944L567.88 191.844V191.294L568.43 189.824V189.094L568.62 188.534L569.17 185.964H581.65L580.92 189.644L580.37 191.844L580.18 192.394L579.63 194.964L579.27 196.434L578.9 197.714L578.16 201.394L577.8 202.674L577.06 206.164L576.7 207.444L576.51 208.004L576.14 210.014L575.96 210.384L575.78 211.674C575.474 212.681 575.29 213.537 575.23 214.244L574.49 216.444L574.31 217.734L574.12 218.464L573.94 219.014L573.76 220.304L573.57 220.854L572.47 225.444L572.29 226.724L571.92 228.014L571 231.684L570.82 232.964L569.72 237.554L569.17 240.124C568.83 241.044 568.647 241.841 568.62 242.514L567.88 244.904V245.634C567.547 246.554 567.364 247.351 567.33 248.024C567.024 249.031 566.84 249.887 566.78 250.594L566.41 251.874L566.23 252.244L566.05 253.534C565.744 254.541 565.56 255.397 565.5 256.104H551.91L551.73 254.634C551.517 254.114 551.394 253.684 551.36 253.344L550.99 251.874L550.81 250.594L550.44 249.304C550.347 248.937 550.27 248.587 550.21 248.254C550.15 247.914 550.104 247.591 550.07 247.284L549.89 246.554L549.71 245.634C549.584 245.481 549.52 245.297 549.52 245.084L549.34 244.164L549.16 243.614C549.067 243.221 548.99 242.861 548.93 242.534C548.864 242.214 548.817 241.901 548.79 241.594C548.577 241.014 548.417 240.481 548.31 239.994C548.204 239.501 548.117 239.057 548.05 238.664L547.87 237.924L547.69 237.004C547.564 236.637 547.477 236.287 547.43 235.954C547.39 235.614 547.354 235.291 547.32 234.984C547.107 234.377 546.94 233.797 546.82 233.244C546.694 232.691 546.617 232.171 546.59 231.684C546.464 231.531 546.4 231.347 546.4 231.134L546.22 230.394L546.04 229.844C545.947 229.204 545.824 228.594 545.67 228.014L545.3 226.354L545.12 225.254L544.75 224.344L544.38 222.134L544.2 221.584V221.034C543.894 220.301 543.71 219.627 543.65 219.014L543.28 216.814L542.91 215.894L542.55 214.424V213.694C542.184 212.681 542 211.824 542 211.124C541.874 210.971 541.81 210.788 541.81 210.574L541.63 210.014V209.464C541.324 208.764 541.14 208.031 541.08 207.264C540.774 206.284 540.59 205.368 540.53 204.514L540.16 205.244L539.98 206.344L539.43 208.734L539.06 210.754L538.87 211.304L538.14 214.424L537.96 215.164L537.59 216.994L537.41 217.734L537.04 219.754L536.86 220.304L536.12 223.784L535.75 225.074L535.57 226.354C535.237 227.274 535.054 228.071 535.02 228.744L534.84 229.114L534.65 230.214L534.47 230.764L533.55 235.354L533.37 235.904L532.63 239.394L532.45 240.124L532.27 241.044L532.08 241.594L531.35 245.084L530.98 246.554L530.61 248.394L530.43 248.754L530.06 250.414L529.88 251.144L529.7 252.424C529.48 253.191 529.357 253.804 529.33 254.264C529.204 254.571 529.12 254.861 529.08 255.134C529.034 255.414 528.994 255.674 528.96 255.914C528.534 255.981 528.144 256.034 527.79 256.074C527.437 256.121 527.094 256.144 526.76 256.144H526.3C526.147 256.144 525.994 256.131 525.84 256.104H515.19V255.364C514.764 254.264 514.52 253.224 514.46 252.244C514.334 252.091 514.27 251.907 514.27 251.694L514.09 250.774C513.417 248.601 512.987 246.764 512.8 245.264L512.62 244.714L511.7 241.234L511.52 239.764L510.05 234.074V233.334C509.744 232.634 509.56 231.901 509.5 231.134L509.13 230.034L508.77 228.744V228.194L507.85 224.524V223.974L507.66 223.234L507.3 222.504L507.11 221.034C506.87 220.301 506.674 219.627 506.52 219.014C506.367 218.401 506.26 217.851 506.2 217.364L506.01 216.814V216.264C505.89 216.111 505.83 215.927 505.83 215.714L505.46 214.244L505.28 213.694C505.154 213.047 505.037 212.464 504.93 211.944C504.824 211.424 504.694 210.968 504.54 210.574L504.36 209.284C504.147 208.671 503.977 208.104 503.85 207.584C503.73 207.064 503.654 206.591 503.62 206.164L503.44 205.244C503.32 205.091 503.26 204.908 503.26 204.694L502.34 201.024L501.97 199.734L501.79 198.824L501.61 198.084L501.42 196.804C501.174 196.158 501.05 195.604 501.05 195.144V194.964L500.69 194.044L500.5 193.314C500.38 192.428 500.197 191.691 499.95 191.104V190.374C499.83 190.221 499.77 190.038 499.77 189.824" fill="white"/>
<path d="M625.224 210.385L625.784 211.485C627.218 213.265 628.134 215.102 628.534 216.995C628.654 217.788 628.744 218.532 628.804 219.225C628.871 219.912 628.904 220.515 628.904 221.035V245.265C630.031 247.505 631.681 248.852 633.854 249.305L633.494 249.855C633.368 250.075 633.244 250.198 633.124 250.225L632.944 250.775L632.574 251.145C632.268 251.818 631.901 252.368 631.474 252.795C631.041 253.928 630.488 254.785 629.814 255.365C629.541 255.978 629.281 256.508 629.034 256.955C628.794 257.395 628.568 257.785 628.354 258.125C624.774 257.205 621.958 255.552 619.904 253.165H619.354C615.408 256.012 611.338 257.435 607.144 257.435C604.878 257.435 602.644 257.052 600.445 256.285C593.865 253.932 589.888 249.648 588.515 243.435V243.205C588.515 231.365 595.445 225.445 609.304 225.445H609.444C609.718 225.318 610.021 225.255 610.354 225.255L610.904 225.075H612.194L612.744 224.895H613.294L617.884 224.345C617.944 224.005 617.974 223.698 617.974 223.425V222.505C617.974 217.392 615.268 214.835 609.854 214.835C606.088 214.835 600.931 216.105 594.385 218.645L593.655 216.995L593.285 215.895L592.915 215.525L592.735 215.165L592.365 214.055C592.031 213.508 591.788 212.958 591.635 212.405C590.988 211.552 590.558 210.695 590.345 209.835L590.895 209.655L591.265 209.465L591.815 209.285L592.185 208.915H592.735C592.855 208.795 592.961 208.735 593.055 208.735H593.105C594.205 208.155 595.181 207.725 596.035 207.445L596.955 207.265C597.628 206.958 598.241 206.775 598.795 206.715L600.265 206.345C601.331 205.918 602.371 205.675 603.384 205.615L607.424 204.875C608.031 204.815 608.618 204.762 609.184 204.715C609.751 204.668 610.311 204.645 610.864 204.645C616.704 204.645 621.491 206.558 625.224 210.385ZM613.474 233.705H612.374C612.101 233.765 611.834 233.812 611.574 233.845C611.314 233.872 611.061 233.885 610.814 233.885H610.544L609.804 234.075H609.254C609.101 234.195 608.918 234.255 608.704 234.255H608.154L605.214 234.985H604.664C603.811 235.478 603.078 235.785 602.464 235.905C600.478 237.805 599.485 239.642 599.485 241.415C599.485 243.035 600.295 244.625 601.914 246.185C604.268 247.625 606.561 248.345 608.794 248.345C611.641 248.345 614.364 247.198 616.964 244.905C617.211 244.198 617.458 243.708 617.704 243.435L617.884 242.885L617.704 242.145V233.515H614.034C613.881 233.642 613.694 233.705 613.474 233.705Z" fill="white"/>
<path d="M687.709 214.787V215.337C688.109 216.071 688.356 216.804 688.449 217.537V255.907H677.249V223.417L677.059 222.317C675.532 217.691 672.962 215.377 669.349 215.377C668.249 215.377 667.026 215.607 665.679 216.067C662.619 217.387 660.416 219.471 659.069 222.317L658.339 225.437V255.907H647.319V205.787H658.339V210.007C661.766 206.947 665.499 205.114 669.539 204.507H670.359C678.559 204.507 684.342 207.934 687.709 214.787Z" fill="white"/>
<path d="M251.16 179.75H200.66V277.75H251.16V179.75Z" stroke="white" stroke-width="2" stroke-dasharray="5 5"/>
<path d="M298.66 179.75H253.16V277.75H298.66V179.75Z" stroke="white" stroke-width="2" stroke-dasharray="5 5"/>
<path d="M356.159 179.75H300.66V277.75H356.159V179.75Z" stroke="white" stroke-width="2" stroke-dasharray="5 5"/>
<path d="M410.659 179.75H358.159V277.75H410.659V179.75Z" stroke="white" stroke-width="2" stroke-dasharray="5 5"/>
<path d="M466.659 179.75H412.659V277.75H466.659V179.75Z" stroke="white" stroke-width="2" stroke-dasharray="5 5"/>
<path d="M491.659 179.75H468.659V277.75H491.659V179.75Z" stroke="white" stroke-width="2" stroke-dasharray="5 5"/>
<path d="M583.159 179.75H493.659V277.75H583.159V179.75Z" stroke="white" stroke-width="2" stroke-dasharray="5 5"/>
<path d="M638.659 179.75H585.159V277.75H638.659V179.75Z" stroke="white" stroke-width="2" stroke-dasharray="5 5"/>
<path d="M694.659 179.75H640.659V277.75H694.659V179.75Z" stroke="white" stroke-width="2" stroke-dasharray="5 5"/>
<path d="M510.159 440H960.158C970.513 440 978.908 431.605 978.908 421.25V471.25C978.908 460.895 970.513 452.5 960.158 452.5H60.16C49.8047 452.5 41.41 460.895 41.41 471.25V421.25C41.41 431.605 49.8047 440 60.16 440H510.159Z" fill="white"/>
<path d="M243.822 350.415V341.305H296.812V350.415H243.822ZM236.962 368.525V359.635H304.232V368.525H236.962ZM221.542 387.425V378.205H319.422V387.425H221.542ZM235.382 325.325V316.775H274.532V325.325H235.382ZM265.422 322.515V316.775H277.012C279.412 319.849 282.319 322.829 285.732 325.715C289.145 328.609 292.912 331.292 297.032 333.765C301.159 336.239 305.472 338.452 309.972 340.405C314.472 342.352 319.009 344.002 323.582 345.355C322.762 345.955 321.825 346.742 320.772 347.715C319.725 348.689 318.712 349.702 317.732 350.755C316.759 351.802 315.972 352.775 315.372 353.675C309.372 351.502 303.449 348.802 297.602 345.575C291.749 342.349 286.329 338.769 281.342 334.835C276.355 330.895 272.062 326.789 268.462 322.515H265.422ZM262.952 317.905L272.622 321.615C268.949 326.562 264.485 331.135 259.232 335.335C253.985 339.535 248.379 343.249 242.412 346.475C236.452 349.702 230.436 352.515 224.362 354.915C223.836 354.162 223.122 353.262 222.222 352.215C221.322 351.162 220.386 350.129 219.412 349.115C218.439 348.109 217.576 347.305 216.822 346.705C222.976 344.825 228.976 342.462 234.822 339.615C240.675 336.762 246.019 333.499 250.852 329.825C255.692 326.152 259.725 322.179 262.952 317.905ZM264.752 384.615V345.465H275.662V384.615H264.752ZM220.762 305.185V295.405H320.212V305.185H220.762ZM244.722 314.525V286.855H255.302V314.525H244.722ZM285.002 315.085V286.855H295.572V315.085" fill="white"/>
<path d="M407.087 294.618V289.108H426.767V294.618H407.087ZM406.407 312.958V307.558H427.557V312.958H406.407ZM406.407 321.388V316.108H427.557V321.388H406.407ZM389.987 374.718V367.858H447.017V374.718H389.987ZM403.147 304.068V298.108H430.147V304.068H403.147ZM420.807 330.278H412.817V336.688H420.807V330.278ZM406.177 341.868V325.108H427.667V341.868H406.177ZM391.897 363.128V356.718H438.577V351.878H384.917V345.468H448.487V363.128H391.897ZM388.067 343.438V317.908H395.157V343.438H388.067ZM377.837 321.838L377.047 314.978C380.347 314.831 384.04 314.681 388.127 314.528C392.213 314.381 396.543 314.195 401.117 313.968V320.158C396.917 320.531 392.85 320.831 388.917 321.058C384.977 321.278 381.284 321.538 377.837 321.838ZM388.857 356.718H398.757C397.857 360.318 396.883 364.068 395.837 367.968C394.783 371.868 393.807 375.241 392.907 378.088L383.347 376.738C384.394 373.965 385.407 370.758 386.387 367.118C387.36 363.485 388.184 360.018 388.857 356.718ZM443.647 368.978V367.858H453.657C453.657 367.858 453.62 368.361 453.547 369.368C453.473 370.381 453.323 371.228 453.097 371.908C452.043 376.555 450.953 380.208 449.827 382.868C448.707 385.535 447.397 387.468 445.897 388.668C444.623 389.568 443.253 390.185 441.787 390.518C440.327 390.858 438.583 391.065 436.557 391.138C434.83 391.218 432.373 391.238 429.187 391.198C426 391.158 422.607 391.065 419.007 390.918C418.933 389.718 418.633 388.368 418.107 386.868C417.58 385.368 416.943 384.018 416.197 382.818C419.723 383.191 423.137 383.415 426.437 383.488C429.737 383.568 432.06 383.608 433.407 383.608C434.607 383.608 435.58 383.568 436.327 383.488C437.08 383.415 437.72 383.191 438.247 382.818C439.293 381.991 440.25 380.508 441.117 378.368C441.977 376.235 442.82 373.105 443.647 368.978ZM396.507 325.888L401.907 324.658C402.507 326.531 403.087 328.591 403.647 330.838C404.213 333.091 404.647 335.041 404.947 336.688L399.097 338.268C398.943 336.541 398.623 334.535 398.137 332.248C397.65 329.961 397.107 327.841 396.507 325.888ZM396.167 310.588L401.007 308.788C401.98 310.668 402.88 312.768 403.707 315.088C404.533 317.415 405.097 319.441 405.397 321.168L400.107 323.188C399.88 321.468 399.393 319.445 398.647 317.118C397.893 314.791 397.067 312.615 396.167 310.588ZM378.167 301.708L381.767 296.308C383.947 297.728 386.084 299.358 388.177 301.198C390.284 303.038 391.86 304.631 392.907 305.978L388.857 312.168C387.73 310.595 386.157 308.831 384.137 306.878C382.11 304.931 380.12 303.208 378.167 301.708ZM388.857 286.518L395.267 289.668C393.767 292.141 392.267 294.655 390.767 297.208C389.267 299.755 387.844 301.891 386.497 303.618L381.547 301.028C382.747 299.081 384.06 296.701 385.487 293.888C386.907 291.075 388.03 288.618 388.857 286.518ZM396.057 295.858L402.357 299.458C399.883 302.831 397.24 306.391 394.427 310.138C391.614 313.891 388.97 317.041 386.497 319.588L381.767 316.668C383.347 314.795 385.037 312.658 386.837 310.258C388.637 307.858 390.34 305.381 391.947 302.828C393.56 300.281 394.93 297.958 396.057 295.858ZM380.647 324.208L387.287 325.668C386.607 328.595 385.78 331.518 384.807 334.438C383.834 337.365 382.784 339.878 381.657 341.978C380.984 341.531 380.007 341.025 378.727 340.458C377.454 339.898 376.407 339.431 375.587 339.058C376.86 336.958 377.907 334.611 378.727 332.018C379.554 329.431 380.194 326.828 380.647 324.208ZM440.047 343.438V317.908H447.247V343.438H440.047ZM429.697 321.838L429.017 314.978C432.47 314.831 436.353 314.681 440.667 314.528C444.98 314.381 449.573 314.231 454.447 314.078L454.327 320.268C449.907 320.568 445.613 320.848 441.447 321.108C437.287 321.375 433.37 321.618 429.697 321.838ZM448.817 325.888L454.557 324.208C455.53 326.455 456.487 328.928 457.427 331.628C458.36 334.328 459.017 336.655 459.397 338.608L453.437 340.518C453.137 338.565 452.537 336.201 451.637 333.428C450.737 330.655 449.797 328.141 448.817 325.888ZM447.917 310.368L453.207 308.008C454.48 309.955 455.66 312.108 456.747 314.468C457.84 316.835 458.61 318.918 459.057 320.718L453.317 323.308C452.943 321.508 452.25 319.388 451.237 316.948C450.223 314.508 449.117 312.315 447.917 310.368ZM429.247 301.478L433.067 296.418C435.02 297.765 436.97 299.321 438.917 301.088C440.87 302.848 442.37 304.441 443.417 305.868L439.037 311.718C438.057 310.218 436.65 308.491 434.817 306.538C432.977 304.591 431.12 302.905 429.247 301.478ZM440.267 286.628L446.687 289.888C445.107 292.368 443.53 294.861 441.957 297.368C440.383 299.881 438.883 302.038 437.457 303.838L432.507 301.258C433.78 299.305 435.167 296.921 436.667 294.108C438.167 291.295 439.367 288.801 440.267 286.628ZM448.257 295.408L454.557 299.008C452.01 302.381 449.237 305.941 446.237 309.688C443.237 313.441 440.387 316.591 437.687 319.138L433.067 316.218C434.793 314.345 436.593 312.208 438.467 309.808C440.347 307.408 442.147 304.931 443.867 302.378C445.593 299.831 447.057 297.508 448.257 295.408ZM432.507 324.208L439.037 325.778C438.51 328.551 437.76 331.381 436.787 334.268C435.807 337.161 434.757 339.618 433.637 341.638C433.037 341.265 432.137 340.758 430.937 340.118C429.737 339.485 428.687 338.981 427.787 338.608C428.98 336.508 429.953 334.218 430.707 331.738C431.453 329.265 432.053 326.755 432.507 324.208ZM356.007 295.288L362.197 288.318C364.07 289.291 366.037 290.471 368.097 291.858C370.164 293.245 372.097 294.631 373.897 296.018C375.697 297.411 377.16 298.745 378.287 300.018L371.867 307.888C370.82 306.615 369.414 305.228 367.647 303.728C365.887 302.228 363.994 300.748 361.967 299.288C359.947 297.821 357.96 296.488 356.007 295.288ZM353.647 325.328L359.497 318.018C361.444 318.918 363.487 320.025 365.627 321.338C367.767 322.651 369.754 323.961 371.587 325.268C373.427 326.581 374.947 327.838 376.147 329.038L369.957 337.138C368.83 335.938 367.35 334.628 365.517 333.208C363.677 331.781 361.707 330.375 359.607 328.988C357.507 327.601 355.52 326.381 353.647 325.328ZM365.457 389.908L355.897 384.508C357.324 381.508 358.84 378.018 360.447 374.038C362.06 370.065 363.71 365.865 365.397 361.438C367.09 357.018 368.647 352.668 370.067 348.388L378.507 353.788C377.307 357.768 375.957 361.858 374.457 366.058C372.957 370.258 371.457 374.381 369.957 378.428C368.457 382.481 366.957 386.308 365.457 389.908Z" fill="white"/>
<path d="M336.159 279.75H200.66V420.25H336.159V279.75Z" stroke="white" stroke-width="2" stroke-dasharray="5 5"/>
<path d="M473.659 279.75H338.159V420.25H473.659V279.75Z" stroke="white" stroke-width="2" stroke-dasharray="5 5"/>
<path d="M124.66 189.875L174.66 239.875V289.875L141.327 256.542V389.875H107.993V256.542L74.66 289.875V239.875L124.66 189.875Z" fill="white"/>
<path d="M720.659 171.82V45.4799" stroke="#46C147" stroke-width="3.03189"/>
<path d="M695.659 171.822V45.4848" stroke="#46C147" stroke-width="3.03189"/>
<path d="M720.659 69.7401H695.659" stroke="#46C147" stroke-width="3.03189"/>
<path d="M720.659 69.7401L757.041 78.8358V60.6444L720.659 69.7401Z" fill="#46C147"/>
<path d="M695.659 69.7401L659.276 78.8358V60.6444L695.659 69.7401Z" fill="#46C147"/>
<path d="M674.398 35.0001V32.6745L683.132 23.1137C684.157 21.9939 685.001 21.0206 685.664 20.1937C686.327 19.3582 686.818 18.5744 687.137 17.8423C687.464 17.1015 687.628 16.3263 687.628 15.5167C687.628 14.5865 687.404 13.7811 686.956 13.1007C686.517 12.4202 685.914 11.8948 685.147 11.5244C684.381 11.154 683.519 10.9688 682.563 10.9688C681.547 10.9688 680.66 11.1799 679.902 11.6019C679.152 12.0154 678.571 12.5968 678.158 13.3461C677.753 14.0955 677.55 14.9741 677.55 15.9818H674.501C674.501 14.4314 674.859 13.0705 675.574 11.8991C676.288 10.7277 677.262 9.81466 678.493 9.16005C679.734 8.50543 681.125 8.17813 682.667 8.17813C684.217 8.17813 685.591 8.50543 686.788 9.16005C687.985 9.81466 688.924 10.6975 689.605 11.8086C690.285 12.9198 690.625 14.1558 690.625 15.5167C690.625 16.49 690.449 17.4418 690.096 18.372C689.751 19.2936 689.148 20.3229 688.287 21.4599C687.434 22.5882 686.25 23.9664 684.734 25.5943L678.791 31.9509V32.1577H691.09V35.0001H674.398ZM710.535 19.5994L707.796 20.3746C707.624 19.9181 707.37 19.4745 707.034 19.0439C706.706 18.6046 706.259 18.2428 705.69 17.9586C705.122 17.6743 704.394 17.5322 703.507 17.5322C702.292 17.5322 701.28 17.8121 700.47 18.372C699.669 18.9233 699.269 19.6253 699.269 20.478C699.269 21.2359 699.544 21.8346 700.096 22.2739C700.647 22.7131 701.508 23.0792 702.68 23.3721L705.625 24.0956C707.4 24.5262 708.722 25.1852 709.592 26.0723C710.462 26.9509 710.897 28.0836 710.897 29.4703C710.897 30.6073 710.57 31.6236 709.915 32.5194C709.269 33.4152 708.364 34.1215 707.202 34.6383C706.039 35.1551 704.687 35.4135 703.145 35.4135C701.121 35.4135 699.445 34.9742 698.119 34.0957C696.792 33.2171 695.953 31.9337 695.6 30.2455L698.494 29.522C698.769 30.59 699.29 31.3911 700.057 31.9251C700.832 32.4591 701.844 32.7261 703.093 32.7261C704.514 32.7261 705.643 32.4247 706.478 31.8217C707.322 31.2102 707.744 30.4781 707.744 29.6253C707.744 28.9363 707.503 28.3592 707.021 27.8941C706.538 27.4203 705.798 27.0672 704.799 26.8346L701.491 26.0594C699.674 25.6288 698.339 24.9612 697.486 24.0568C696.642 23.1438 696.22 22.0025 696.22 20.633C696.22 19.5133 696.534 18.5227 697.163 17.6614C697.8 16.8001 698.666 16.1239 699.76 15.633C700.862 15.142 702.111 14.8965 703.507 14.8965C705.47 14.8965 707.012 15.3272 708.132 16.1885C709.26 17.0499 710.061 18.1868 710.535 19.5994ZM719.983 35.0001L713.936 15.1549H717.14L721.43 30.3489H721.637L725.874 15.1549H729.13L733.316 30.2972H733.523L737.812 15.1549H741.017L734.97 35.0001H731.973L727.631 19.7545H727.321L722.98 35.0001H719.983Z" fill="#46C147"/>
<path d="M945.658 289.875H1060.87" stroke="#FF0000" stroke-width="3.03189"/>
<path d="M978.908 289.875H1060.87" stroke="#FF0000" stroke-width="3.03189"/>
<path d="M1036.61 289.875L1027.52 326.258H1045.71L1036.61 289.875Z" fill="#FF0000"/>
<path d="M1036.61 289.875L1027.52 253.492H1045.71L1036.61 289.875Z" fill="#FF0000"/>
<path d="M1091.42 299.435C1089.47 299.435 1087.82 298.905 1086.45 297.845C1085.08 296.777 1084.03 295.231 1083.31 293.207C1082.58 291.174 1082.22 288.72 1082.22 285.843C1082.22 282.983 1082.58 280.541 1083.31 278.517C1084.04 276.484 1085.09 274.934 1086.46 273.866C1087.84 272.789 1089.49 272.251 1091.42 272.251C1093.35 272.251 1095 272.789 1096.37 273.866C1097.75 274.934 1098.8 276.484 1099.52 278.517C1100.25 280.541 1100.62 282.983 1100.62 285.843C1100.62 288.72 1100.26 291.174 1099.53 293.207C1098.81 295.231 1097.76 296.777 1096.39 297.845C1095.02 298.905 1093.37 299.435 1091.42 299.435ZM1091.42 296.592C1093.35 296.592 1094.85 295.662 1095.92 293.801C1096.98 291.941 1097.52 289.288 1097.52 285.843C1097.52 283.552 1097.27 281.601 1096.78 279.99C1096.3 278.379 1095.6 277.152 1094.69 276.308C1093.78 275.464 1092.69 275.042 1091.42 275.042C1089.51 275.042 1088.01 275.985 1086.94 277.871C1085.86 279.749 1085.32 282.406 1085.32 285.843C1085.32 288.134 1085.56 290.08 1086.05 291.683C1086.53 293.285 1087.22 294.503 1088.13 295.339C1089.04 296.174 1090.14 296.592 1091.42 296.592ZM1119.64 283.672L1116.9 284.447C1116.73 283.991 1116.47 283.547 1116.14 283.117C1115.81 282.677 1115.36 282.316 1114.79 282.031C1114.22 281.747 1113.5 281.605 1112.61 281.605C1111.39 281.605 1110.38 281.885 1109.57 282.445C1108.77 282.996 1108.37 283.698 1108.37 284.551C1108.37 285.309 1108.65 285.907 1109.2 286.347C1109.75 286.786 1110.61 287.152 1111.78 287.445L1114.73 288.168C1116.5 288.599 1117.82 289.258 1118.69 290.145C1119.56 291.024 1120 292.156 1120 293.543C1120 294.68 1119.67 295.696 1119.02 296.592C1118.37 297.488 1117.47 298.194 1116.3 298.711C1115.14 299.228 1113.79 299.486 1112.25 299.486C1110.22 299.486 1108.55 299.047 1107.22 298.168C1105.89 297.29 1105.05 296.006 1104.7 294.318L1107.6 293.595C1107.87 294.663 1108.39 295.464 1109.16 295.998C1109.93 296.532 1110.95 296.799 1112.2 296.799C1113.62 296.799 1114.74 296.497 1115.58 295.894C1116.42 295.283 1116.85 294.551 1116.85 293.698C1116.85 293.009 1116.61 292.432 1116.12 291.967C1115.64 291.493 1114.9 291.14 1113.9 290.907L1110.59 290.132C1108.78 289.701 1107.44 289.034 1106.59 288.13C1105.74 287.216 1105.32 286.075 1105.32 284.706C1105.32 283.586 1105.64 282.595 1106.26 281.734C1106.9 280.873 1107.77 280.197 1108.86 279.706C1109.96 279.215 1111.21 278.969 1112.61 278.969C1114.57 278.969 1116.11 279.4 1117.23 280.261C1118.36 281.123 1119.16 282.26 1119.64 283.672ZM1129.08 299.073L1123.04 279.228H1126.24L1130.53 294.422H1130.74L1134.98 279.228H1138.23L1142.42 294.37H1142.63L1146.91 279.228H1150.12L1144.07 299.073H1141.07L1136.73 283.827H1136.42L1132.08 299.073H1129.08Z" fill="#FF0000"/>
</g>
<defs>
<clipPath id="clip0_0_1">
<rect width="1150" height="475" fill="white"/>
</clipPath>
</defs>
</svg>
