<svg width="990" height="382" viewBox="0 0 990 382" fill="none" xmlns="http://www.w3.org/2000/svg">
<g clip-path="url(#clip0_0_1)">
<path d="M20 44.0579C20 23.3472 36.7893 6.55792 57.5 6.55792H932.5C953.211 6.55792 970 23.3472 970 44.0579V1094.06C970 1114.77 953.211 1131.56 932.5 1131.56H57.5C36.7893 1131.56 20 1114.77 20 1094.06V44.0579Z" fill="white"/>
<path d="M38.75 44.0579C38.75 33.7026 47.1446 25.3079 57.5 25.3079H932.5C942.855 25.3079 951.25 33.7026 951.25 44.0579V1094.06C951.25 1104.41 942.855 1112.81 932.5 1112.81H57.5C47.1446 1112.81 38.75 1104.41 38.75 1094.06V44.0579Z" fill="#0033A2"/>
<path d="M114.7 276.262V267.149H167.688V276.262H114.7ZM107.838 294.374V285.487H175.113V294.374H107.838ZM92.425 313.274V304.049H190.3V313.274H92.425ZM106.263 251.174V242.624H145.413V251.174H106.263ZM136.3 248.362V242.624H147.888C150.288 245.699 153.194 248.681 156.606 251.568C160.019 254.455 163.788 257.137 167.913 259.612C172.038 262.087 176.35 264.299 180.85 266.249C185.35 268.199 189.888 269.849 194.463 271.199C193.638 271.799 192.7 272.587 191.65 273.562C190.6 274.537 189.588 275.549 188.613 276.599C187.638 277.649 186.85 278.624 186.25 279.524C180.25 277.349 174.325 274.649 168.475 271.424C162.625 268.199 157.206 264.618 152.219 260.68C147.232 256.743 142.938 252.637 139.338 248.362H136.3ZM133.825 243.749L143.5 247.462C139.825 252.412 135.363 256.987 130.113 261.187C124.863 265.387 119.257 269.099 113.294 272.324C107.331 275.549 101.313 278.362 95.238 280.762C94.7127 280.012 94 279.112 93.1 278.062C92.2 277.012 91.2627 275.981 90.288 274.968C89.3127 273.955 88.45 273.149 87.7 272.549C93.85 270.674 99.85 268.312 105.7 265.462C111.55 262.612 116.894 259.349 121.731 255.674C126.569 251.999 130.6 248.024 133.825 243.749ZM135.625 310.462V271.312H146.538V310.462H135.625ZM91.638 231.037V221.249H191.088V231.037H91.638ZM115.6 240.374V212.699H126.175V240.374H115.6ZM155.875 240.937V212.699H166.45V240.937H155.875Z" fill="white"/>
<path d="M279.424 220.461V214.948H299.112V220.461H279.424ZM278.749 238.798V233.398H299.899V238.798H278.749ZM278.749 247.236V241.948H299.899V247.236H278.749ZM262.324 300.561V293.698H319.362V300.561H262.324ZM275.487 229.911V223.948H302.487V229.911H275.487ZM293.149 256.123H285.162V262.536H293.149V256.123ZM278.524 267.711V250.948H300.012V267.711H278.524ZM264.237 288.973V282.561H310.924V277.723H257.262V271.311H320.824V288.973H264.237ZM260.412 269.286V243.748H267.499V269.286H260.412ZM250.174 247.686L249.387 240.823C252.687 240.673 256.381 240.523 260.468 240.373C264.556 240.223 268.887 240.036 273.462 239.811V245.998C269.262 246.374 265.193 246.674 261.255 246.898C257.318 247.124 253.624 247.386 250.174 247.686ZM261.199 282.561H271.099C270.199 286.161 269.224 289.911 268.174 293.811C267.124 297.711 266.149 301.086 265.249 303.936L255.687 302.586C256.737 299.811 257.75 296.605 258.724 292.967C259.7 289.33 260.525 285.861 261.199 282.561ZM315.987 294.823V293.698H325.999C325.999 293.698 325.962 294.205 325.887 295.217C325.812 296.23 325.662 297.074 325.437 297.748C324.387 302.398 323.3 306.055 322.174 308.717C321.05 311.38 319.737 313.311 318.237 314.511C316.962 315.411 315.593 316.03 314.13 316.367C312.668 316.705 310.925 316.911 308.899 316.986C307.175 317.061 304.718 317.08 301.53 317.042C298.343 317.005 294.949 316.911 291.349 316.761C291.275 315.561 290.975 314.211 290.449 312.711C289.925 311.211 289.287 309.861 288.537 308.661C292.062 309.036 295.474 309.261 298.774 309.336C302.074 309.411 304.399 309.448 305.749 309.448C306.949 309.448 307.924 309.411 308.674 309.336C309.424 309.261 310.062 309.036 310.587 308.661C311.637 307.836 312.593 306.355 313.455 304.217C314.318 302.08 315.162 298.949 315.987 294.823ZM268.849 251.736L274.249 250.498C274.849 252.374 275.431 254.436 275.993 256.686C276.556 258.936 276.987 260.886 277.287 262.536L271.437 264.111C271.287 262.386 270.968 260.38 270.48 258.092C269.993 255.805 269.449 253.686 268.849 251.736ZM268.512 236.436L273.349 234.636C274.325 236.511 275.225 238.611 276.049 240.936C276.875 243.261 277.437 245.286 277.737 247.011L272.449 249.036C272.225 247.311 271.737 245.286 270.987 242.961C270.237 240.636 269.412 238.461 268.512 236.436ZM250.512 227.548L254.112 222.148C256.287 223.574 258.424 225.205 260.524 227.042C262.624 228.88 264.199 230.473 265.249 231.823L261.199 238.011C260.075 236.436 258.5 234.673 256.474 232.723C254.45 230.773 252.462 229.048 250.512 227.548ZM261.199 212.361L267.612 215.511C266.112 217.986 264.612 220.498 263.112 223.048C261.612 225.598 260.187 227.736 258.837 229.461L253.887 226.873C255.087 224.923 256.4 222.542 257.824 219.729C259.25 216.917 260.375 214.461 261.199 212.361ZM268.399 221.698L274.699 225.298C272.225 228.674 269.581 232.236 266.768 235.986C263.956 239.736 261.312 242.886 258.837 245.436L254.112 242.511C255.687 240.636 257.374 238.498 259.174 236.098C260.974 233.698 262.681 231.223 264.293 228.673C265.906 226.123 267.275 223.798 268.399 221.698ZM252.987 250.048L259.624 251.511C258.95 254.436 258.125 257.361 257.149 260.286C256.175 263.211 255.125 265.723 253.999 267.823C253.325 267.373 252.35 266.867 251.074 266.304C249.8 265.742 248.75 265.274 247.924 264.898C249.2 262.798 250.25 260.455 251.074 257.867C251.9 255.28 252.537 252.674 252.987 250.048ZM312.387 269.286V243.748H319.587V269.286H312.387ZM302.037 247.686L301.362 240.823C304.812 240.673 308.693 240.523 313.005 240.373C317.318 240.223 321.912 240.073 326.787 239.923L326.674 246.111C322.25 246.411 317.956 246.692 313.793 246.954C309.631 247.217 305.712 247.461 302.037 247.686ZM321.162 251.736L326.899 250.048C327.875 252.298 328.831 254.773 329.768 257.473C330.706 260.173 331.362 262.498 331.737 264.448L325.774 266.361C325.474 264.411 324.874 262.049 323.974 259.273C323.074 256.499 322.137 253.986 321.162 251.736ZM320.262 236.211L325.549 233.848C326.825 235.798 328.006 237.955 329.093 240.317C330.181 242.68 330.949 244.761 331.399 246.561L325.662 249.148C325.287 247.348 324.593 245.23 323.58 242.792C322.568 240.355 321.462 238.161 320.262 236.211ZM301.587 227.323L305.412 222.261C307.362 223.611 309.312 225.167 311.262 226.929C313.212 228.692 314.712 230.286 315.762 231.711L311.374 237.561C310.4 236.061 308.993 234.336 307.155 232.386C305.318 230.436 303.462 228.749 301.587 227.323ZM312.612 212.473L319.024 215.736C317.45 218.211 315.875 220.705 314.299 223.217C312.725 225.73 311.225 227.886 309.799 229.686L304.849 227.098C306.125 225.148 307.512 222.767 309.012 219.954C310.512 217.142 311.712 214.649 312.612 212.473ZM320.599 221.248L326.899 224.848C324.349 228.224 321.574 231.786 318.574 235.536C315.574 239.286 312.724 242.436 310.024 244.986L305.412 242.061C307.137 240.186 308.937 238.048 310.812 235.648C312.687 233.248 314.487 230.773 316.212 228.223C317.937 225.673 319.399 223.348 320.599 221.248ZM304.849 250.048L311.374 251.623C310.85 254.399 310.1 257.23 309.124 260.117C308.15 263.005 307.1 265.461 305.974 267.486C305.374 267.111 304.474 266.605 303.274 265.967C302.074 265.33 301.024 264.824 300.124 264.448C301.324 262.348 302.299 260.061 303.049 257.586C303.799 255.111 304.399 252.598 304.849 250.048ZM228.349 221.136L234.537 214.161C236.412 215.136 238.381 216.317 240.443 217.704C242.506 219.092 244.437 220.48 246.237 221.867C248.037 223.255 249.5 224.586 250.624 225.861L244.212 233.736C243.162 232.461 241.756 231.073 239.993 229.573C238.231 228.073 236.337 226.592 234.312 225.129C232.287 223.667 230.299 222.336 228.349 221.136ZM225.987 251.173L231.837 243.861C233.787 244.761 235.831 245.867 237.968 247.179C240.106 248.492 242.093 249.805 243.93 251.117C245.768 252.43 247.287 253.686 248.487 254.886L242.299 262.986C241.175 261.786 239.693 260.474 237.855 259.048C236.018 257.624 234.049 256.217 231.949 254.829C229.849 253.442 227.862 252.223 225.987 251.173ZM237.799 315.748L228.237 310.348C229.662 307.348 231.181 303.861 232.793 299.886C234.406 295.911 236.056 291.711 237.743 287.286C239.431 282.861 240.987 278.511 242.412 274.236L250.849 279.636C249.649 283.611 248.299 287.698 246.799 291.898C245.299 296.098 243.799 300.223 242.299 304.273C240.799 308.323 239.299 312.148 237.799 315.748Z" fill="white"/>
<path d="M208.5 205.594H73V346.094H208.5V205.594Z" stroke="white" stroke-width="2" stroke-dasharray="5 5"/>
<path d="M346 205.594H210.5V346.094H346V205.594Z" stroke="white" stroke-width="2" stroke-dasharray="5 5"/>
<path d="M765.5 64.5936C776.546 64.5936 785.5 73.5479 785.5 84.5936C785.5 95.6393 776.546 104.594 765.5 104.594C754.454 104.594 745.5 95.6393 745.5 84.5936C745.5 73.5479 754.454 64.5936 765.5 64.5936Z" fill="#0A0A0A"/>
<path d="M645.5 64.5936C656.546 64.5936 665.5 73.5479 665.5 84.5936C665.5 95.6393 656.546 104.594 645.5 104.594C634.454 104.594 625.5 95.6393 625.5 84.5936C625.5 73.5479 634.454 64.5936 645.5 64.5936Z" fill="#0A0A0A"/>
<path d="M765.5 67.0937C775.165 67.0937 783 74.9287 783 84.5937C783 94.2587 775.165 102.094 765.5 102.094C755.835 102.094 748 94.2587 748 84.5937C748 74.9287 755.835 67.0937 765.5 67.0937Z" fill="#FFBF00"/>
<path d="M645.5 67.0937C655.165 67.0937 663 74.9287 663 84.5937C663 94.2587 655.165 102.094 645.5 102.094C635.835 102.094 628 94.2587 628 84.5937C628 74.9287 635.835 67.0937 645.5 67.0937Z" fill="#FFBF00"/>
<path d="M880.5 154.594L918 192.094V304.594V1086.02H880.5H843V304.594V192.094L880.5 154.594Z" fill="white"/>
<path d="M73.5195 122.64V111.624H124.191V122.64H104.914V181.941H92.7965V122.64H73.5195Z" fill="white"/>
<path d="M166.91 137.877L166.359 138.612L165.809 139.162L165.258 139.53L164.523 140.631L164.156 140.998L163.789 141.182C163.391 141.733 163.024 142.161 162.688 142.467L160.301 145.221C155.221 141.947 151.014 140.31 147.679 140.31C144.251 140.31 141.727 142.009 140.105 145.405C140.166 147.394 140.962 148.863 142.492 149.811C143.165 149.995 143.655 150.178 143.961 150.362C145.154 150.546 146.133 150.79 146.898 151.096C158.495 151.953 164.982 156.604 166.359 165.049C166.42 165.417 166.451 165.776 166.451 166.128C166.451 166.48 166.451 166.825 166.451 167.161C166.451 173.311 163.85 177.932 158.648 181.022C154.915 182.705 151.167 183.546 147.403 183.546C140.243 183.546 133.098 180.502 125.969 174.412L126.336 173.678L127.254 172.76C127.866 172.026 128.416 171.476 128.906 171.108C129.028 170.894 129.151 170.772 129.273 170.741L129.641 170.19C129.763 169.976 129.885 169.854 130.008 169.823L130.191 169.455L130.559 169.272L132.945 166.518C137.473 170.802 142.216 172.944 147.174 172.944C149.254 172.944 151.366 172.577 153.508 171.842C154.058 171.108 154.609 170.558 155.16 170.19C155.344 169.456 155.436 168.767 155.436 168.124C155.436 166.534 154.915 165.203 153.875 164.131L149.652 162.662C137.045 161.898 130.191 156.512 129.09 146.506C129.916 136.44 135.607 131.054 146.164 130.35H146.807C154.915 130.35 161.616 132.859 166.91 137.877Z" fill="white"/>
<path d="M179.293 167.62V131.819H190.309V163.58C190.431 163.734 190.492 163.917 190.492 164.131C190.615 164.223 190.676 164.315 190.676 164.407V164.498C190.89 165.876 191.196 167.1 191.594 168.17C193.705 171.108 196.413 172.577 199.718 172.577H199.855C203.956 171.475 206.832 169.211 208.484 165.784V165.233L209.219 163.03V131.819H220.418V181.94H209.219V177.901C204.812 181.512 200.421 183.317 196.046 183.317C192.649 183.317 189.207 182.246 185.719 180.104C182.873 177.932 180.915 175.361 179.844 172.393L179.66 171.108C179.385 170.221 179.247 169.349 179.247 168.492V168.079C179.247 167.926 179.262 167.773 179.293 167.62Z" fill="white"/>
<path d="M278.836 152.382L279.02 155.136C279.142 155.289 279.203 155.473 279.203 155.687V161.195H245.605C246.309 167.437 249.491 171.108 255.152 172.21C256.07 172.302 256.973 172.348 257.86 172.348C262.481 172.348 266.413 170.833 269.656 167.804C270.054 168.477 270.544 169.028 271.125 169.456L271.309 170.007L271.859 170.558C272.288 170.956 272.655 171.331 272.961 171.683C273.267 172.034 273.512 172.393 273.695 172.761C273.91 172.883 274.032 173.006 274.063 173.128L276.633 176.066C270.819 180.931 264.623 183.364 258.044 183.364C256.912 183.364 255.765 183.287 254.602 183.134C253.439 182.981 252.276 182.767 251.113 182.492C240.526 178.972 234.712 171.384 233.672 159.726C233.672 159.573 233.664 159.267 233.649 158.808C233.634 158.349 233.626 158.058 233.626 157.936C233.626 141.994 240.801 132.921 255.152 130.718C269.411 131.208 277.306 138.429 278.836 152.382ZM245.422 152.566H267.637V152.015C267.514 151.647 267.453 151.28 267.453 150.913V150.546C267.147 149.873 266.963 149.261 266.902 148.71C264.638 143.478 260.905 140.846 255.703 140.816C249.155 142.376 245.728 146.293 245.422 152.566Z" fill="white"/>
<path d="M332.051 140.631V141.182C332.449 141.917 332.693 142.651 332.785 143.385V181.756H321.586V149.26L321.402 148.159C319.872 143.539 317.302 141.228 313.691 141.228C312.59 141.228 311.366 141.458 310.02 141.916C306.96 143.232 304.757 145.313 303.41 148.159L302.676 151.28V181.756H291.66V131.635H302.676V135.858C306.103 132.798 309.836 130.962 313.875 130.35H314.701C322.902 130.35 328.685 133.777 332.051 140.631Z" fill="white"/>
<path d="M371.191 112.174V111.807H383.859L384.043 113.092L384.227 113.643L384.594 114.928L384.961 117.131L385.512 118.967L385.879 121.17L386.43 123.006L386.613 124.475C386.828 124.995 386.95 125.424 386.98 125.76L387.164 126.495L387.531 127.596V128.33C387.654 128.422 387.715 128.514 387.715 128.606V129.248C388.052 129.922 388.236 130.656 388.266 131.452L388.633 132.553L389 133.838L389.367 136.041L389.918 137.877L390.102 138.979L391.203 143.569C391.295 143.997 391.38 144.387 391.456 144.739C391.532 145.091 391.57 145.436 391.57 145.772L391.938 146.506V147.241L392.305 148.159V148.893L392.672 149.627V150.362C393.009 151.28 393.193 152.076 393.223 152.748L393.406 153.483C393.621 154.095 393.789 154.661 393.911 155.181C394.034 155.701 394.111 156.176 394.141 156.604L394.508 158.073L394.875 159.358L395.242 158.256L395.977 154.584L396.344 153.666L396.527 152.565L397.078 149.995L397.445 148.709V148.159L398.18 145.221L398.363 144.12L398.73 143.385L398.914 142.651L399.098 141.733V140.998L399.281 140.448L400.016 137.51L400.383 135.307L400.566 134.573L400.934 133.838C400.995 132.86 401.178 132.003 401.484 131.268L401.668 130.35V129.799L402.035 128.33L402.219 127.78L402.77 125.393L402.953 124.291L403.32 123.19L403.504 122.272L404.055 119.885L404.238 118.967L404.422 118.6C404.453 118.264 404.491 117.935 404.537 117.613C404.583 117.292 404.667 117.009 404.789 116.764L404.973 116.213V115.662L405.156 114.928L405.34 114.377L405.891 111.807H419.477V112.358C419.905 113.429 420.15 114.469 420.211 115.479L420.578 116.948L420.762 117.498L421.496 120.803L421.863 122.272C422.108 123.16 422.23 123.894 422.23 124.475C422.445 124.995 422.568 125.424 422.598 125.76L422.965 127.045L423.148 128.33L423.332 129.065L423.516 129.616C423.608 130.014 423.684 130.373 423.745 130.694C423.807 131.016 423.853 131.329 423.883 131.635C424.128 132.217 424.296 132.752 424.388 133.242C424.48 133.732 424.556 134.175 424.617 134.573L424.801 135.674L425.168 136.592L425.352 137.694V138.245C425.658 138.979 425.842 139.652 425.902 140.264L426.086 141.366C426.392 142.1 426.576 142.773 426.637 143.385L426.82 144.303L427.371 146.323V147.057C427.494 147.333 427.555 147.639 427.555 147.975C427.892 148.679 428.075 149.291 428.105 149.811L428.289 150.729L428.473 151.83L428.656 152.565C428.962 153.514 429.146 154.371 429.207 155.135C429.33 155.227 429.391 155.319 429.391 155.411V156.053C429.819 157.125 430.064 158.165 430.125 159.174C430.309 159.113 430.431 158.991 430.492 158.807C430.646 158.043 430.799 157.377 430.951 156.81C431.105 156.244 431.258 155.747 431.41 155.319V154.584C431.808 153.483 432.053 152.504 432.145 151.647L432.512 150.362L433.246 147.424L433.43 145.955L433.797 144.67L433.98 144.12V143.569C434.195 142.988 434.363 142.46 434.485 141.985C434.608 141.511 434.685 141.06 434.715 140.631L435.082 139.346L436.551 133.287L437.102 130.35L437.469 128.881C437.806 127.994 437.99 127.26 438.02 126.678L438.203 125.76L438.57 124.291C438.846 123.404 439.029 122.67 439.121 122.088L439.305 121.354L439.855 118.784L440.223 117.682V117.131L440.773 115.662V114.928L440.957 114.377L441.508 111.807H453.992L453.258 115.479L452.707 117.682L452.523 118.233L451.973 120.803L451.605 122.272L451.238 123.557L450.504 127.229L450.137 128.514L449.402 132.002L449.035 133.287L448.852 133.838L448.484 135.858L448.301 136.225L448.117 137.51C447.811 138.52 447.628 139.377 447.566 140.08L446.832 142.284L446.648 143.569L446.465 144.303L446.281 144.854L446.098 146.139L445.914 146.69L444.813 151.28L444.629 152.565L444.262 153.85L443.344 157.522L443.16 158.807L442.059 163.397L441.508 165.967C441.172 166.885 440.988 167.681 440.957 168.354L440.223 170.741V171.475C439.887 172.393 439.703 173.189 439.672 173.862C439.366 174.872 439.183 175.728 439.121 176.432L438.754 177.717L438.57 178.084L438.387 179.37C438.081 180.38 437.898 181.236 437.836 181.94H424.25L424.066 180.471C423.852 179.951 423.73 179.523 423.699 179.186L423.332 177.717L423.148 176.432L422.781 175.147C422.69 174.78 422.614 174.428 422.552 174.091C422.491 173.755 422.445 173.433 422.414 173.127L422.23 172.393L422.047 171.475C421.925 171.323 421.863 171.139 421.863 170.924L421.68 170.006L421.496 169.455C421.404 169.058 421.328 168.699 421.267 168.377C421.206 168.056 421.16 167.742 421.129 167.436C420.915 166.855 420.755 166.319 420.647 165.829C420.54 165.34 420.456 164.896 420.395 164.498L420.211 163.764L420.027 162.846C419.905 162.479 419.821 162.127 419.775 161.79C419.729 161.454 419.691 161.133 419.66 160.827C419.446 160.215 419.278 159.634 419.155 159.082C419.033 158.532 418.957 158.012 418.926 157.522C418.804 157.369 418.742 157.185 418.742 156.971L418.559 156.237L418.375 155.686C418.283 155.044 418.161 154.432 418.008 153.85L417.641 152.198L417.457 151.096L417.09 150.178L416.723 147.975L416.539 147.424V146.873C416.233 146.139 416.05 145.466 415.988 144.854L415.621 142.651L415.254 141.733L414.887 140.264V139.53C414.52 138.52 414.336 137.663 414.336 136.959C414.214 136.807 414.152 136.623 414.152 136.409L413.969 135.858V135.307C413.663 134.603 413.48 133.869 413.418 133.104C413.112 132.125 412.929 131.207 412.867 130.35L412.5 131.084L412.316 132.186L411.766 134.573L411.398 136.592L411.215 137.143L410.48 140.264L410.297 140.998L409.93 142.834L409.746 143.569L409.379 145.588L409.195 146.139L408.461 149.627L408.094 150.912L407.91 152.198C407.574 153.116 407.39 153.912 407.359 154.584L407.176 154.952L406.992 156.053L406.809 156.604L405.891 161.194L405.707 161.745L404.973 165.233L404.789 165.967L404.605 166.885L404.422 167.436L403.688 170.924L403.32 172.393L402.953 174.229L402.77 174.596L402.402 176.248L402.219 176.983L402.035 178.268C401.821 179.033 401.699 179.645 401.668 180.104C401.546 180.41 401.462 180.701 401.416 180.976C401.37 181.252 401.332 181.512 401.301 181.756C400.873 181.818 400.482 181.871 400.13 181.917C399.779 181.963 399.435 181.986 399.098 181.986H398.639C398.486 181.986 398.333 181.971 398.18 181.94H387.531V181.205C387.103 180.104 386.859 179.064 386.797 178.084C386.675 177.932 386.613 177.748 386.613 177.534L386.43 176.616C385.757 174.444 385.329 172.608 385.145 171.108L384.961 170.557L384.043 167.069L383.859 165.6L382.391 159.909V159.174C382.085 158.471 381.902 157.737 381.84 156.971L381.473 155.87L381.105 154.584V154.034L380.188 150.362V149.811L380.004 149.077L379.637 148.342L379.453 146.873C379.209 146.139 379.01 145.466 378.856 144.854C378.704 144.242 378.597 143.692 378.535 143.202L378.352 142.651V142.1C378.23 141.948 378.168 141.764 378.168 141.549L377.801 140.08L377.617 139.53C377.495 138.888 377.381 138.306 377.273 137.786C377.166 137.266 377.036 136.807 376.883 136.409L376.699 135.123C376.485 134.511 376.317 133.945 376.194 133.425C376.072 132.905 375.996 132.431 375.965 132.002L375.781 131.084C375.659 130.932 375.598 130.748 375.598 130.534L374.68 126.862L374.313 125.577L374.129 124.659L373.945 123.924L373.762 122.639C373.518 121.997 373.395 121.446 373.395 120.987V120.803L373.027 119.885L372.844 119.151C372.722 118.264 372.538 117.53 372.293 116.948V116.213C372.171 116.061 372.109 115.877 372.109 115.662L371.191 112.174Z" fill="white"/>
<path d="M497.574 136.225L498.125 137.327C499.563 139.102 500.481 140.937 500.879 142.834C501.002 143.63 501.094 144.372 501.154 145.06C501.216 145.749 501.246 146.353 501.246 146.873V171.108C502.378 173.341 504.031 174.688 506.203 175.147L505.836 175.698C505.714 175.912 505.591 176.034 505.469 176.065L505.285 176.616L504.918 176.983C504.612 177.656 504.245 178.207 503.816 178.635C503.388 179.767 502.838 180.624 502.164 181.205C501.889 181.817 501.629 182.345 501.384 182.789C501.14 183.232 500.91 183.622 500.695 183.959C497.115 183.041 494.3 181.389 492.25 179.002H491.699C487.752 181.848 483.682 183.271 479.49 183.271C477.226 183.271 474.993 182.888 472.789 182.123C466.211 179.767 462.233 175.483 460.855 169.272V169.042C460.855 157.201 467.786 151.28 481.647 151.28H481.785C482.061 151.157 482.367 151.096 482.703 151.096L483.254 150.912H484.539L485.09 150.729H485.641L490.23 150.178C490.292 149.841 490.322 149.535 490.322 149.26V148.342C490.322 143.232 487.614 140.677 482.198 140.677C478.435 140.677 473.279 141.947 466.73 144.487L465.996 142.834L465.629 141.733L465.262 141.366L465.078 140.998L464.711 139.897C464.375 139.346 464.13 138.796 463.977 138.245C463.335 137.388 462.906 136.531 462.691 135.674L463.242 135.491L463.609 135.307L464.16 135.123L464.527 134.756H465.078C465.201 134.634 465.308 134.573 465.399 134.573H465.445C466.547 133.992 467.527 133.563 468.383 133.287L469.301 133.104C469.975 132.798 470.587 132.614 471.137 132.553L472.605 132.186C473.677 131.757 474.717 131.513 475.727 131.452L479.766 130.717C480.378 130.656 480.967 130.602 481.533 130.557C482.099 130.511 482.658 130.488 483.208 130.488C489.053 130.488 493.842 132.4 497.574 136.225ZM485.824 159.541H484.723C484.448 159.602 484.18 159.648 483.919 159.679C483.659 159.71 483.407 159.725 483.162 159.725H482.887L482.152 159.909H481.602C481.449 160.031 481.265 160.092 481.051 160.092H480.5L477.563 160.827H477.012C476.156 161.316 475.421 161.622 474.809 161.745C472.82 163.642 471.825 165.477 471.825 167.252C471.825 168.874 472.636 170.465 474.258 172.026C476.614 173.464 478.909 174.183 481.143 174.183C483.989 174.183 486.712 173.036 489.313 170.741C489.558 170.037 489.803 169.547 490.047 169.272L490.23 168.721L490.047 167.987V159.358H486.375C486.223 159.48 486.039 159.541 485.824 159.541Z" fill="white"/>
<path d="M560.051 140.631V141.182C560.449 141.917 560.693 142.651 560.785 143.385V181.756H549.586V149.26L549.402 148.159C547.872 143.539 545.302 141.228 541.691 141.228C540.59 141.228 539.366 141.458 538.02 141.916C534.96 143.232 532.757 145.313 531.41 148.159L530.676 151.28V181.756H519.66V131.635H530.676V135.858C534.103 132.798 537.836 130.962 541.875 130.35H542.701C550.902 130.35 556.685 133.777 560.051 140.631Z" fill="white"/>
<path d="M123.5 105.593H73V203.593H123.5V105.593Z" stroke="white" stroke-width="2" stroke-dasharray="5 5"/>
<path d="M171 105.593H125.5V203.593H171V105.593Z" stroke="white" stroke-width="2" stroke-dasharray="5 5"/>
<path d="M228.5 105.593H173V203.593H228.5V105.593Z" stroke="white" stroke-width="2" stroke-dasharray="5 5"/>
<path d="M283 105.593H230.5V203.593H283V105.593Z" stroke="white" stroke-width="2" stroke-dasharray="5 5"/>
<path d="M339 105.593H285V203.593H339V105.593Z" stroke="white" stroke-width="2" stroke-dasharray="5 5"/>
<path d="M364 105.593H341V203.593H364V105.593Z" stroke="white" stroke-width="2" stroke-dasharray="5 5"/>
<path d="M455.5 105.593H366V203.593H455.5V105.593Z" stroke="white" stroke-width="2" stroke-dasharray="5 5"/>
<path d="M511 105.593H457.5V203.593H511V105.593Z" stroke="white" stroke-width="2" stroke-dasharray="5 5"/>
<path d="M567 105.593H513V203.593H567V105.593Z" stroke="white" stroke-width="2" stroke-dasharray="5 5"/>
<path d="M705.5 154.594H746.125L796.125 204.594V317.094H614.875V204.594L664.875 154.594H705.5ZM652.375 285.844H758.625C778.336 258.665 774.354 220.993 749.398 198.535C724.441 176.077 686.559 176.077 661.602 198.535C636.646 220.993 632.664 258.665 652.375 285.844Z" fill="white"/>
<path d="M806.95 129.594H818V140.644L604.05 329.594H593V318.544L806.95 129.594Z" fill="#FF0000"/>
<path d="M705.5 129.594H818V329.594H593V129.594H705.5ZM705.5 132.094H595.5V153.344H815.5V132.094H705.5ZM705.5 155.844H595.5V178.344H815.5V155.844H705.5ZM705.5 180.844H595.5V203.344H815.5V180.844H705.5ZM705.5 205.844H595.5V228.344H815.5V205.844H705.5ZM705.5 230.844H595.5V253.344H815.5V230.844H705.5ZM705.5 255.844H595.5V278.344H815.5V255.844H705.5ZM705.5 280.844H595.5V303.344H815.5V280.844H705.5ZM705.5 305.844H595.5V327.094H815.5V305.844H705.5Z" fill="black"/>
<path d="M593 129.594V214.932" stroke="#46C147" stroke-width="2.24575"/>
<path d="M568 104.594V214.932" stroke="#46C147" stroke-width="2.24575"/>
<path d="M593 196.966H568" stroke="#46C147" stroke-width="2.24575"/>
<path d="M593 196.966L619.949 190.229V203.703L593 196.966Z" fill="#46C147"/>
<path d="M568 196.966L541.051 190.229V203.703L568 196.966Z" fill="#46C147"/>
<path d="M555.029 242.031V240.309L561.498 233.227C562.257 232.398 562.883 231.677 563.374 231.064C563.865 230.445 564.229 229.865 564.465 229.323C564.707 228.774 564.828 228.2 564.828 227.6C564.828 226.911 564.663 226.314 564.331 225.81C564.005 225.306 563.559 224.917 562.991 224.643C562.423 224.369 561.785 224.231 561.077 224.231C560.324 224.231 559.667 224.388 559.106 224.7C558.551 225.007 558.12 225.437 557.814 225.992C557.514 226.547 557.364 227.198 557.364 227.945H555.105C555.105 226.796 555.37 225.788 555.9 224.92C556.429 224.053 557.15 223.376 558.062 222.892C558.981 222.407 560.012 222.164 561.154 222.164C562.302 222.164 563.32 222.407 564.206 222.892C565.093 223.376 565.789 224.03 566.293 224.853C566.797 225.676 567.049 226.592 567.049 227.6C567.049 228.321 566.918 229.026 566.656 229.715C566.401 230.398 565.955 231.16 565.317 232.002C564.685 232.838 563.808 233.859 562.685 235.065L558.283 239.773V239.926H567.393V242.031H555.029ZM581.796 230.624L579.767 231.198C579.64 230.86 579.451 230.532 579.202 230.213C578.96 229.887 578.628 229.619 578.207 229.409C577.786 229.198 577.247 229.093 576.59 229.093C575.69 229.093 574.941 229.3 574.341 229.715C573.748 230.123 573.451 230.643 573.451 231.275C573.451 231.836 573.655 232.28 574.063 232.605C574.472 232.93 575.11 233.202 575.977 233.419L578.159 233.954C579.474 234.273 580.453 234.762 581.097 235.419C581.742 236.069 582.064 236.908 582.064 237.936C582.064 238.778 581.821 239.531 581.337 240.194C580.858 240.858 580.188 241.381 579.327 241.764C578.466 242.146 577.464 242.338 576.322 242.338C574.823 242.338 573.582 242.012 572.599 241.362C571.617 240.711 570.995 239.76 570.733 238.51L572.877 237.974C573.081 238.765 573.467 239.358 574.035 239.754C574.609 240.149 575.359 240.347 576.284 240.347C577.336 240.347 578.172 240.124 578.791 239.677C579.416 239.224 579.729 238.682 579.729 238.05C579.729 237.54 579.55 237.113 579.193 236.768C578.836 236.417 578.287 236.156 577.547 235.983L575.097 235.409C573.751 235.09 572.762 234.596 572.13 233.926C571.505 233.249 571.192 232.404 571.192 231.39C571.192 230.56 571.425 229.827 571.891 229.189C572.363 228.551 573.004 228.05 573.815 227.686C574.631 227.322 575.556 227.141 576.59 227.141C578.045 227.141 579.187 227.46 580.016 228.098C580.852 228.736 581.445 229.578 581.796 230.624ZM588.794 242.031L584.315 227.332H586.689L589.866 238.586H590.019L593.158 227.332H595.569L598.67 238.548H598.823L602 227.332H604.374L599.895 242.031H597.675L594.459 230.739H594.23L591.014 242.031H588.794Z" fill="#46C147"/>
<path d="M593 129.594H678.338" stroke="#FF0000" stroke-width="2.24575"/>
<path d="M568 104.594H678.338" stroke="#FF0000" stroke-width="2.24575"/>
<path d="M660.372 129.593V104.594" stroke="#FF0000" stroke-width="2.24575"/>
<path d="M660.372 129.594L653.635 156.543H667.11L660.372 129.594Z" fill="#FF0000"/>
<path d="M660.372 104.594L653.635 77.6445H667.11L660.372 104.594Z" fill="#FF0000"/>
<path d="M687.85 123.982V122.259L694.319 115.177C695.079 114.348 695.704 113.627 696.195 113.014C696.686 112.396 697.05 111.815 697.286 111.273C697.528 110.724 697.65 110.15 697.65 109.55C697.65 108.861 697.484 108.265 697.152 107.761C696.827 107.257 696.38 106.867 695.812 106.593C695.244 106.319 694.606 106.181 693.898 106.181C693.145 106.181 692.488 106.338 691.927 106.65C691.372 106.957 690.941 107.387 690.635 107.942C690.335 108.497 690.185 109.148 690.185 109.895H687.927C687.927 108.746 688.191 107.738 688.721 106.871C689.25 106.003 689.971 105.327 690.884 104.842C691.802 104.357 692.833 104.114 693.975 104.114C695.123 104.114 696.141 104.357 697.028 104.842C697.914 105.327 698.61 105.981 699.114 106.804C699.618 107.627 699.87 108.542 699.87 109.55C699.87 110.271 699.739 110.976 699.478 111.665C699.222 112.348 698.776 113.11 698.138 113.952C697.506 114.788 696.629 115.809 695.506 117.015L691.104 121.723V121.876H700.214V123.982H687.85ZM714.617 112.574L712.588 113.148C712.461 112.81 712.273 112.482 712.024 112.163C711.781 111.837 711.45 111.569 711.028 111.359C710.607 111.148 710.068 111.043 709.411 111.043C708.512 111.043 707.762 111.25 707.162 111.665C706.569 112.073 706.272 112.593 706.272 113.225C706.272 113.786 706.476 114.23 706.885 114.555C707.293 114.881 707.931 115.152 708.799 115.369L710.981 115.905C712.295 116.224 713.274 116.712 713.919 117.369C714.563 118.019 714.885 118.858 714.885 119.886C714.885 120.728 714.643 121.481 714.158 122.144C713.679 122.808 713.009 123.331 712.148 123.714C711.287 124.096 710.285 124.288 709.143 124.288C707.644 124.288 706.403 123.962 705.42 123.312C704.438 122.661 703.816 121.71 703.554 120.46L705.698 119.924C705.902 120.715 706.288 121.308 706.856 121.704C707.43 122.099 708.18 122.297 709.105 122.297C710.158 122.297 710.993 122.074 711.612 121.627C712.237 121.174 712.55 120.632 712.55 120C712.55 119.49 712.371 119.063 712.014 118.718C711.657 118.367 711.108 118.106 710.368 117.933L707.918 117.359C706.572 117.04 705.583 116.546 704.952 115.876C704.326 115.2 704.014 114.354 704.014 113.34C704.014 112.51 704.247 111.777 704.712 111.139C705.184 110.501 705.826 110 706.636 109.636C707.453 109.273 708.378 109.091 709.411 109.091C710.866 109.091 712.008 109.41 712.837 110.048C713.673 110.686 714.266 111.528 714.617 112.574ZM721.615 123.982L717.136 109.282H719.51L722.687 120.536H722.84L725.979 109.282H728.391L731.491 120.498H731.645L734.822 109.282H737.195L732.716 123.982H730.496L727.281 112.689H727.051L723.835 123.982H721.615Z" fill="#FF0000"/>
</g>
<defs>
<clipPath id="clip0_0_1">
<rect width="990" height="382" fill="white"/>
</clipPath>
</defs>
</svg>
