<svg width="1065" height="437" viewBox="0 0 1065 437" fill="none" xmlns="http://www.w3.org/2000/svg">
<path d="M20.0001 129.5C20.0001 108.789 36.7894 92 57.5001 92H1007.5C1028.21 92 1045 108.789 1045 129.5V379.5C1045 400.211 1028.21 417 1007.5 417H57.5001C36.7894 417 20.0001 400.211 20.0001 379.5V129.5Z" fill="white"/>
<path d="M38.7501 129.5C38.7501 119.145 47.1447 110.75 57.5001 110.75H1007.5C1017.86 110.75 1026.25 119.145 1026.25 129.5V379.5C1026.25 389.855 1017.86 398.25 1007.5 398.25H57.5001C47.1447 398.25 38.7501 389.855 38.7501 379.5V129.5Z" fill="#0033A2"/>
<path d="M292.766 311.165V302.055H345.756V311.165H292.766ZM285.906 329.275V320.385H353.176V329.275H285.906ZM270.486 348.175V338.955H368.366V348.175H270.486ZM284.326 286.075V277.525H323.476V286.075H284.326ZM314.366 283.265V277.525H325.956C328.356 280.599 331.262 283.579 334.676 286.465C338.089 289.359 341.856 292.042 345.976 294.515C350.102 296.989 354.416 299.202 358.916 301.155C363.416 303.102 367.952 304.752 372.526 306.105C371.706 306.705 370.769 307.492 369.716 308.465C368.669 309.439 367.656 310.452 366.676 311.505C365.702 312.552 364.916 313.525 364.316 314.425C358.316 312.252 352.392 309.552 346.546 306.325C340.692 303.099 335.272 299.519 330.286 295.585C325.299 291.645 321.006 287.539 317.406 283.265H314.366ZM311.896 278.655L321.566 282.365C317.892 287.312 313.429 291.885 308.176 296.085C302.929 300.285 297.322 303.999 291.356 307.225C285.396 310.452 279.379 313.265 273.306 315.665C272.779 314.912 272.066 314.012 271.166 312.965C270.266 311.912 269.329 310.879 268.356 309.865C267.382 308.859 266.519 308.055 265.766 307.455C271.919 305.575 277.919 303.212 283.766 300.365C289.619 297.512 294.962 294.249 299.796 290.575C304.636 286.902 308.669 282.929 311.896 278.655ZM313.696 345.365V306.215H324.606V345.365H313.696ZM269.706 265.935V256.155H369.156V265.935H269.706ZM293.666 275.275V247.605H304.246V275.275H293.666ZM333.946 275.835V247.605H344.516V275.835" fill="white"/>
<path d="M456.031 255.368V249.858H475.711V255.368H456.031ZM455.351 273.708V268.308H476.501V273.708H455.351ZM455.351 282.138V276.858H476.501V282.138H455.351ZM438.931 335.468V328.608H495.961V335.468H438.931ZM452.091 264.818V258.858H479.091V264.818H452.091ZM469.751 291.028H461.761V297.438H469.751V291.028ZM455.121 302.618V285.858H476.611V302.618H455.121ZM440.841 323.878V317.468H487.521V312.628H433.861V306.218H497.431V323.878H440.841ZM437.011 304.188V278.658H444.101V304.188H437.011ZM426.781 282.588L425.991 275.728C429.291 275.581 432.984 275.431 437.071 275.278C441.157 275.131 445.487 274.944 450.061 274.718V280.908C445.861 281.281 441.794 281.581 437.861 281.808C433.921 282.028 430.227 282.288 426.781 282.588ZM437.801 317.468H447.701C446.801 321.068 445.827 324.818 444.781 328.718C443.727 332.618 442.751 335.991 441.851 338.838L432.291 337.488C433.337 334.714 434.351 331.508 435.331 327.868C436.304 324.234 437.127 320.768 437.801 317.468ZM492.591 329.728V328.608H502.601C502.601 328.608 502.564 329.111 502.491 330.118C502.417 331.131 502.267 331.978 502.041 332.658C500.987 337.304 499.897 340.958 498.771 343.618C497.651 346.284 496.341 348.218 494.841 349.418C493.567 350.318 492.197 350.934 490.731 351.268C489.271 351.608 487.527 351.814 485.501 351.888C483.774 351.968 481.317 351.988 478.131 351.948C474.944 351.908 471.551 351.814 467.951 351.668C467.877 350.468 467.577 349.118 467.051 347.618C466.524 346.118 465.887 344.768 465.141 343.568C468.667 343.941 472.081 344.164 475.381 344.238C478.681 344.318 481.004 344.358 482.351 344.358C483.551 344.358 484.524 344.318 485.271 344.238C486.024 344.164 486.664 343.941 487.191 343.568C488.237 342.741 489.194 341.258 490.061 339.118C490.921 336.984 491.764 333.854 492.591 329.728ZM445.451 286.638L450.851 285.408C451.451 287.281 452.031 289.341 452.591 291.588C453.157 293.841 453.591 295.791 453.891 297.438L448.041 299.018C447.887 297.291 447.567 295.284 447.081 292.998C446.594 290.711 446.051 288.591 445.451 286.638ZM445.111 271.338L449.951 269.538C450.924 271.418 451.824 273.518 452.651 275.838C453.477 278.164 454.041 280.191 454.341 281.918L449.051 283.938C448.824 282.218 448.337 280.194 447.591 277.868C446.837 275.541 446.011 273.364 445.111 271.338ZM427.111 262.458L430.711 257.058C432.891 258.478 435.027 260.108 437.121 261.948C439.227 263.788 440.804 265.381 441.851 266.728L437.801 272.918C436.674 271.344 435.101 269.581 433.081 267.628C431.054 265.681 429.064 263.958 427.111 262.458ZM437.801 247.268L444.211 250.418C442.711 252.891 441.211 255.404 439.711 257.958C438.211 260.504 436.787 262.641 435.441 264.368L430.491 261.778C431.691 259.831 433.004 257.451 434.431 254.638C435.851 251.824 436.974 249.368 437.801 247.268ZM445.001 256.608L451.301 260.208C448.827 263.581 446.184 267.141 443.371 270.888C440.557 274.641 437.914 277.791 435.441 280.338L430.711 277.418C432.291 275.544 433.981 273.408 435.781 271.008C437.581 268.608 439.284 266.131 440.891 263.578C442.504 261.031 443.874 258.708 445.001 256.608ZM429.591 284.958L436.231 286.418C435.551 289.344 434.724 292.268 433.751 295.188C432.777 298.114 431.727 300.628 430.601 302.728C429.927 302.281 428.951 301.774 427.671 301.208C426.397 300.648 425.351 300.181 424.531 299.808C425.804 297.708 426.851 295.361 427.671 292.768C428.497 290.181 429.137 287.578 429.591 284.958ZM488.991 304.188V278.658H496.191V304.188H488.991ZM478.641 282.588L477.961 275.728C481.414 275.581 485.297 275.431 489.611 275.278C493.924 275.131 498.517 274.981 503.391 274.828L503.271 281.018C498.851 281.318 494.557 281.598 490.391 281.858C486.231 282.124 482.314 282.368 478.641 282.588ZM497.761 286.638L503.501 284.958C504.474 287.204 505.431 289.678 506.371 292.378C507.304 295.078 507.961 297.404 508.341 299.358L502.381 301.268C502.081 299.314 501.481 296.951 500.581 294.178C499.681 291.404 498.741 288.891 497.761 286.638ZM496.861 271.118L502.151 268.758C503.424 270.704 504.604 272.858 505.691 275.218C506.784 277.584 507.554 279.668 508.001 281.468L502.261 284.058C501.887 282.258 501.194 280.138 500.181 277.698C499.167 275.258 498.061 273.064 496.861 271.118ZM478.191 262.228L482.011 257.168C483.964 258.514 485.914 260.071 487.861 261.838C489.814 263.598 491.314 265.191 492.361 266.618L487.981 272.468C487.001 270.968 485.594 269.241 483.761 267.288C481.921 265.341 480.064 263.654 478.191 262.228ZM489.211 247.378L495.631 250.638C494.051 253.118 492.474 255.611 490.901 258.118C489.327 260.631 487.827 262.788 486.401 264.588L481.451 262.008C482.724 260.054 484.111 257.671 485.611 254.858C487.111 252.044 488.311 249.551 489.211 247.378ZM497.201 256.158L503.501 259.758C500.954 263.131 498.181 266.691 495.181 270.438C492.181 274.191 489.331 277.341 486.631 279.888L482.011 276.968C483.737 275.094 485.537 272.958 487.411 270.558C489.291 268.158 491.091 265.681 492.811 263.128C494.537 260.581 496.001 258.258 497.201 256.158ZM481.451 284.958L487.981 286.528C487.454 289.301 486.704 292.131 485.731 295.018C484.751 297.911 483.701 300.368 482.581 302.388C481.981 302.014 481.081 301.508 479.881 300.868C478.681 300.234 477.631 299.731 476.731 299.358C477.924 297.258 478.897 294.968 479.651 292.488C480.397 290.014 480.997 287.504 481.451 284.958ZM404.951 256.038L411.141 249.068C413.014 250.041 414.981 251.221 417.041 252.608C419.107 253.994 421.041 255.381 422.841 256.768C424.641 258.161 426.104 259.494 427.231 260.768L420.811 268.638C419.764 267.364 418.357 265.978 416.591 264.478C414.831 262.978 412.937 261.498 410.911 260.038C408.891 258.571 406.904 257.238 404.951 256.038ZM402.591 286.078L408.441 278.768C410.387 279.668 412.431 280.774 414.571 282.088C416.711 283.401 418.697 284.711 420.531 286.018C422.371 287.331 423.891 288.588 425.091 289.788L418.901 297.888C417.774 296.688 416.294 295.378 414.461 293.958C412.621 292.531 410.651 291.124 408.551 289.738C406.451 288.351 404.464 287.131 402.591 286.078ZM414.401 350.658L404.841 345.258C406.267 342.258 407.784 338.768 409.391 334.788C411.004 330.814 412.654 326.614 414.341 322.188C416.034 317.768 417.591 313.418 419.011 309.138L427.451 314.538C426.251 318.518 424.901 322.608 423.401 326.808C421.901 331.008 420.401 335.131 418.901 339.178C417.401 343.231 415.901 347.058 414.401 350.658Z" fill="white"/>
<path d="M385.103 240.5H249.603V381H385.103V240.5Z" stroke="white" stroke-width="2" stroke-dasharray="5 5"/>
<path d="M522.603 240.5H387.103V381H522.603V240.5Z" stroke="white" stroke-width="2" stroke-dasharray="5 5"/>
<path d="M882.103 139.5H932.103L994.603 202V339.5H769.603V202L832.103 139.5H882.103ZM816.478 302H947.728C972.275 268.374 967.433 221.635 936.515 193.755C905.598 165.875 858.609 165.875 827.691 193.755C796.774 221.635 791.932 268.374 816.478 302Z" fill="white"/>
<path d="M70.3967 177.897H141.107L176.463 213.252H129.322L223.603 307.533L200.033 331.103L105.752 236.822V283.963L70.3967 248.607V177.897Z" fill="white"/>
<path d="M250.123 157.55V146.53H300.793V157.55H281.513V216.85H269.403V157.55" fill="white"/>
<path d="M343.512 172.777L342.962 173.517L342.412 174.067L341.862 174.437L341.122 175.537L340.762 175.907L340.392 176.087C339.992 176.64 339.625 177.067 339.292 177.367L336.902 180.127C331.822 176.854 327.615 175.217 324.282 175.217C320.855 175.217 318.332 176.914 316.712 180.307C316.772 182.3 317.565 183.77 319.092 184.717C319.765 184.897 320.255 185.08 320.562 185.267C321.755 185.447 322.735 185.69 323.502 185.997C335.095 186.857 341.582 191.51 342.962 199.957C343.022 200.324 343.052 200.68 343.052 201.027C343.052 201.38 343.052 201.727 343.052 202.067C343.052 208.214 340.452 212.834 335.252 215.927C331.519 217.607 327.769 218.447 324.002 218.447C316.842 218.447 309.699 215.404 302.572 209.317L302.942 208.587L303.852 207.667C304.465 206.934 305.019 206.38 305.512 206.007C305.632 205.794 305.752 205.674 305.872 205.647L306.242 205.097C306.362 204.884 306.485 204.76 306.612 204.727L306.792 204.357L307.162 204.177L309.552 201.417C314.079 205.704 318.819 207.847 323.772 207.847C325.852 207.847 327.965 207.48 330.112 206.747C330.659 206.014 331.209 205.464 331.762 205.097C331.949 204.364 332.042 203.674 332.042 203.027C332.042 201.434 331.522 200.104 330.482 199.037L326.252 197.567C313.645 196.8 306.792 191.414 305.692 181.407C306.519 171.34 312.209 165.957 322.762 165.257H323.412C331.519 165.257 338.219 167.764 343.512 172.777Z" fill="white"/>
<path d="M355.89 202.526V166.726H366.91V198.486C367.03 198.639 367.09 198.822 367.09 199.036C367.217 199.129 367.28 199.219 367.28 199.306V199.406C367.494 200.779 367.797 202.002 368.19 203.076C370.304 206.009 373.014 207.476 376.32 207.476H376.46C380.56 206.376 383.434 204.112 385.08 200.686V200.136L385.82 197.936V166.726H397.02V216.846H385.82V212.806C381.414 216.412 377.024 218.216 372.65 218.216C369.25 218.216 365.807 217.146 362.32 215.006C359.474 212.832 357.514 210.262 356.44 207.296L356.26 206.006C355.987 205.119 355.85 204.249 355.85 203.396V202.986C355.85 202.832 355.864 202.679 355.89 202.526Z" fill="white"/>
<path d="M455.439 187.294L455.619 190.044C455.739 190.198 455.799 190.381 455.799 190.594V196.104H422.209C422.909 202.344 426.089 206.018 431.749 207.124C432.669 207.211 433.573 207.254 434.459 207.254C439.079 207.254 443.013 205.741 446.259 202.714C446.653 203.388 447.143 203.938 447.729 204.364L447.909 204.914L448.459 205.464C448.886 205.864 449.253 206.241 449.559 206.594C449.866 206.948 450.113 207.308 450.299 207.674C450.513 207.794 450.633 207.914 450.659 208.034L453.229 210.974C447.416 215.841 441.219 218.274 434.639 218.274C433.513 218.274 432.366 218.198 431.199 218.044C430.039 217.891 428.876 217.678 427.709 217.404C417.123 213.884 411.309 206.294 410.269 194.634C410.269 194.481 410.263 194.174 410.249 193.714C410.236 193.261 410.229 192.971 410.229 192.844C410.229 176.904 417.403 167.831 431.749 165.624C446.009 166.118 453.906 173.341 455.439 187.294ZM422.019 187.474H444.239V186.924C444.113 186.558 444.049 186.191 444.049 185.824V185.454C443.743 184.781 443.559 184.171 443.499 183.624C441.239 178.391 437.506 175.758 432.299 175.724C425.753 177.284 422.326 181.201 422.019 187.474Z" fill="white"/>
<path d="M508.653 175.537V176.087C509.053 176.82 509.3 177.554 509.393 178.287V216.657H498.193V184.167L498.003 183.067C496.477 178.44 493.907 176.127 490.293 176.127C489.193 176.127 487.97 176.357 486.623 176.817C483.563 178.137 481.36 180.22 480.013 183.067L479.283 186.187V216.657H468.263V166.537H479.283V170.757C482.71 167.697 486.443 165.864 490.483 165.257H491.303C499.503 165.257 505.287 168.684 508.653 175.537Z" fill="white"/>
<path d="M547.795 147.084V146.714H560.465L560.645 148.004L560.835 148.554L561.195 149.844L561.565 152.044L562.115 153.874L562.485 156.084L563.035 157.914L563.215 159.384C563.428 159.904 563.551 160.334 563.585 160.674L563.765 161.404L564.135 162.504V163.244C564.255 163.337 564.315 163.427 564.315 163.514V164.164C564.655 164.837 564.841 165.571 564.875 166.364L565.235 167.464L565.605 168.754L565.975 170.954L566.525 172.784L566.705 173.894L567.805 178.484C567.898 178.911 567.985 179.301 568.065 179.654C568.138 180.001 568.175 180.344 568.175 180.684L568.545 181.414V182.154L568.905 183.074V183.804L569.275 184.534V185.274C569.615 186.194 569.798 186.991 569.825 187.664L570.015 188.394C570.228 189.007 570.395 189.574 570.515 190.094C570.635 190.614 570.711 191.087 570.745 191.514L571.115 192.984L571.485 194.264L571.845 193.164L572.585 189.494L572.945 188.574L573.135 187.474L573.685 184.904L574.055 183.624V183.074L574.785 180.134L574.965 179.034L575.335 178.294L575.515 177.564L575.705 176.644V175.914L575.885 175.354L576.625 172.424L576.985 170.214L577.175 169.484L577.535 168.754C577.601 167.774 577.785 166.914 578.085 166.174L578.275 165.264V164.714L578.645 163.244L578.825 162.694L579.375 160.304L579.555 159.204L579.925 158.104L580.105 157.184L580.655 154.794L580.845 153.874L581.025 153.514C581.058 153.174 581.098 152.844 581.145 152.524C581.191 152.204 581.275 151.921 581.395 151.674L581.575 151.124V150.574L581.765 149.844L581.945 149.284L582.495 146.714H596.085V147.264C596.511 148.337 596.755 149.381 596.815 150.394L597.185 151.854L597.365 152.414L598.105 155.714L598.465 157.184C598.711 158.071 598.835 158.804 598.835 159.384C599.048 159.904 599.171 160.334 599.205 160.674L599.565 161.954L599.755 163.244L599.935 163.974L600.125 164.524C600.211 164.924 600.288 165.284 600.355 165.604C600.415 165.924 600.458 166.237 600.485 166.544C600.731 167.124 600.901 167.661 600.995 168.154C601.088 168.641 601.165 169.084 601.225 169.484L601.405 170.584L601.775 171.504L601.955 172.604V173.154C602.261 173.887 602.445 174.561 602.505 175.174L602.695 176.274C602.995 177.007 603.178 177.681 603.245 178.294L603.425 179.214L603.975 181.234V181.964C604.095 182.244 604.155 182.551 604.155 182.884C604.495 183.591 604.681 184.204 604.715 184.724L604.895 185.644L605.075 186.744L605.265 187.474C605.571 188.421 605.755 189.277 605.815 190.044C605.935 190.137 605.995 190.231 605.995 190.324V190.964C606.421 192.037 606.668 193.077 606.735 194.084C606.915 194.024 607.035 193.901 607.095 193.714C607.248 192.954 607.401 192.291 607.555 191.724C607.708 191.157 607.861 190.661 608.015 190.234V189.494C608.415 188.394 608.658 187.414 608.745 186.554L609.115 185.274L609.855 182.334L610.035 180.864L610.405 179.584L610.585 179.034V178.484C610.798 177.897 610.968 177.367 611.095 176.894C611.215 176.421 611.288 175.971 611.315 175.544L611.685 174.254L613.155 168.194L613.705 165.264L614.075 163.794C614.408 162.907 614.591 162.174 614.625 161.594L614.805 160.674L615.175 159.204C615.448 158.317 615.631 157.584 615.725 157.004L615.905 156.264L616.465 153.694L616.825 152.594V152.044L617.375 150.574V149.844L617.565 149.284L618.115 146.714H630.595L629.865 150.394L629.315 152.594L629.125 153.144L628.575 155.714L628.215 157.184L627.845 158.464L627.105 162.144L626.745 163.424L626.005 166.914L625.645 168.194L625.455 168.754L625.085 170.764L624.905 171.134L624.725 172.424C624.418 173.431 624.235 174.287 624.175 174.994L623.435 177.194L623.255 178.484L623.065 179.214L622.885 179.764L622.705 181.054L622.515 181.604L621.415 186.194L621.235 187.474L620.865 188.764L619.945 192.434L619.765 193.714L618.665 198.304L618.115 200.874C617.775 201.794 617.591 202.591 617.565 203.264L616.825 205.654V206.384C616.491 207.304 616.308 208.101 616.275 208.774C615.968 209.781 615.785 210.637 615.725 211.344L615.355 212.624L615.175 212.994L614.995 214.284C614.688 215.291 614.505 216.147 614.445 216.854H600.855L600.675 215.384C600.461 214.864 600.338 214.434 600.305 214.094L599.935 212.624L599.755 211.344L599.385 210.054C599.291 209.687 599.215 209.337 599.155 209.004C599.095 208.664 599.048 208.341 599.015 208.034L598.835 207.304L598.655 206.384C598.528 206.231 598.465 206.047 598.465 205.834L598.285 204.914L598.105 204.364C598.011 203.971 597.935 203.611 597.875 203.284C597.808 202.964 597.761 202.651 597.735 202.344C597.521 201.764 597.361 201.231 597.255 200.744C597.148 200.251 597.061 199.807 596.995 199.414L596.815 198.674L596.635 197.754C596.508 197.387 596.421 197.037 596.375 196.704C596.335 196.364 596.298 196.041 596.265 195.734C596.051 195.127 595.885 194.547 595.765 193.994C595.638 193.441 595.561 192.921 595.535 192.434C595.408 192.281 595.345 192.097 595.345 191.884L595.165 191.144L594.985 190.594C594.891 189.954 594.768 189.344 594.615 188.764L594.245 187.104L594.065 186.004L593.695 185.094L593.325 182.884L593.145 182.334V181.784C592.838 181.051 592.655 180.377 592.595 179.764L592.225 177.564L591.855 176.644L591.495 175.174V174.444C591.128 173.431 590.945 172.574 590.945 171.874C590.818 171.721 590.755 171.537 590.755 171.324L590.575 170.764V170.214C590.268 169.514 590.085 168.781 590.025 168.014C589.718 167.034 589.535 166.117 589.475 165.264L589.105 165.994L588.925 167.094L588.375 169.484L588.005 171.504L587.815 172.054L587.085 175.174L586.905 175.914L586.535 177.744L586.355 178.484L585.985 180.504L585.805 181.054L585.065 184.534L584.695 185.824L584.515 187.104C584.181 188.024 583.998 188.821 583.965 189.494L583.785 189.864L583.595 190.964L583.415 191.514L582.495 196.104L582.315 196.654L581.575 200.144L581.395 200.874L581.215 201.794L581.025 202.344L580.295 205.834L579.925 207.304L579.555 209.144L579.375 209.504L579.005 211.164L578.825 211.894L578.645 213.174C578.425 213.941 578.301 214.554 578.275 215.014C578.148 215.321 578.065 215.611 578.025 215.884C577.978 216.164 577.938 216.424 577.905 216.664C577.478 216.731 577.088 216.784 576.735 216.824C576.381 216.871 576.038 216.894 575.705 216.894H575.245C575.091 216.894 574.938 216.881 574.785 216.854H564.135V216.114C563.708 215.014 563.465 213.974 563.405 212.994C563.278 212.841 563.215 212.657 563.215 212.444L563.035 211.524C562.361 209.351 561.931 207.514 561.745 206.014L561.565 205.464L560.645 201.984L560.465 200.514L558.995 194.824V194.084C558.688 193.384 558.505 192.651 558.445 191.884L558.075 190.784L557.715 189.494V188.944L556.795 185.274V184.724L556.605 183.984L556.245 183.254L556.055 181.784C555.815 181.051 555.618 180.377 555.465 179.764C555.311 179.151 555.205 178.601 555.145 178.114L554.955 177.564V177.014C554.835 176.861 554.775 176.677 554.775 176.464L554.405 174.994L554.225 174.444C554.098 173.797 553.981 173.214 553.875 172.694C553.768 172.174 553.638 171.717 553.485 171.324L553.305 170.034C553.091 169.421 552.921 168.854 552.795 168.334C552.675 167.814 552.598 167.341 552.565 166.914L552.385 165.994C552.265 165.841 552.205 165.657 552.205 165.444L551.285 161.774L550.915 160.484L550.735 159.574L550.555 158.834L550.365 157.554C550.118 156.907 549.995 156.354 549.995 155.894V155.714L549.635 154.794L549.445 154.064C549.325 153.177 549.141 152.441 548.895 151.854V151.124C548.775 150.971 548.715 150.787 548.715 150.574" fill="white"/>
<path d="M674.169 171.135L674.729 172.235C676.162 174.015 677.079 175.851 677.479 177.745C677.599 178.538 677.689 179.281 677.749 179.975C677.815 180.661 677.849 181.265 677.849 181.785V206.015C678.975 208.255 680.625 209.601 682.799 210.055L682.439 210.605C682.312 210.825 682.189 210.948 682.069 210.975L681.889 211.525L681.519 211.895C681.212 212.568 680.845 213.118 680.419 213.545C679.985 214.678 679.432 215.535 678.759 216.115C678.485 216.728 678.225 217.258 677.979 217.705C677.739 218.145 677.512 218.535 677.299 218.875C673.719 217.955 670.902 216.301 668.849 213.915H668.299C664.352 216.761 660.282 218.185 656.089 218.185C653.822 218.185 651.589 217.801 649.389 217.035C642.809 214.681 638.832 210.398 637.459 204.185V203.955C637.459 192.115 644.389 186.195 658.249 186.195H658.389C658.662 186.068 658.965 186.005 659.299 186.005L659.849 185.825H661.139L661.689 185.645H662.239L666.829 185.095C666.889 184.755 666.919 184.448 666.919 184.175V183.255C666.919 178.141 664.212 175.585 658.799 175.585C655.032 175.585 649.875 176.855 643.329 179.395L642.599 177.745L642.229 176.645L641.859 176.275L641.679 175.915L641.309 174.805C640.975 174.258 640.732 173.708 640.579 173.155C639.932 172.301 639.502 171.445 639.289 170.585L639.839 170.405L640.209 170.215L640.759 170.035L641.129 169.665H641.679C641.799 169.545 641.905 169.485 641.999 169.485H642.049C643.149 168.905 644.125 168.475 644.979 168.195L645.899 168.015C646.572 167.708 647.185 167.525 647.739 167.465L649.209 167.095C650.275 166.668 651.315 166.425 652.329 166.365L656.369 165.625C656.975 165.565 657.562 165.511 658.129 165.465C658.695 165.418 659.255 165.395 659.809 165.395C665.649 165.395 670.435 167.308 674.169 171.135ZM662.419 194.455H661.319C661.045 194.515 660.779 194.561 660.519 194.595C660.259 194.621 660.005 194.635 659.759 194.635H659.489L658.749 194.825H658.199C658.045 194.945 657.862 195.005 657.649 195.005H657.099L654.159 195.735H653.609C652.755 196.228 652.022 196.535 651.409 196.655C649.422 198.555 648.429 200.391 648.429 202.165C648.429 203.785 649.239 205.375 650.859 206.935C653.212 208.375 655.505 209.095 657.739 209.095C660.585 209.095 663.309 207.948 665.909 205.655C666.155 204.948 666.402 204.458 666.649 204.185L666.829 203.635L666.649 202.895V194.265H662.979C662.825 194.391 662.639 194.455 662.419 194.455Z" fill="white"/>
<path d="M736.653 175.537V176.087C737.053 176.82 737.3 177.554 737.393 178.287V216.657H726.193V184.167L726.003 183.067C724.477 178.44 721.907 176.127 718.293 176.127C717.193 176.127 715.97 176.357 714.623 176.817C711.563 178.137 709.36 180.22 708.013 183.067L707.283 186.187V216.657H696.263V166.537H707.283V170.757C710.71 167.697 714.443 165.864 718.483 165.257H719.303C727.503 165.257 733.287 168.684 736.653 175.537Z" fill="white"/>
<path d="M300.103 140.5H249.603V238.5H300.103V140.5Z" stroke="white" stroke-width="2" stroke-dasharray="5 5"/>
<path d="M347.603 140.5H302.103V238.5H347.603V140.5Z" stroke="white" stroke-width="2" stroke-dasharray="5 5"/>
<path d="M405.103 140.5H349.603V238.5H405.103V140.5Z" stroke="white" stroke-width="2" stroke-dasharray="5 5"/>
<path d="M459.603 140.5H407.103V238.5H459.603V140.5Z" stroke="white" stroke-width="2" stroke-dasharray="5 5"/>
<path d="M515.603 140.5H461.603V238.5H515.603V140.5Z" stroke="white" stroke-width="2" stroke-dasharray="5 5"/>
<path d="M540.603 140.5H517.603V238.5H540.603V140.5Z" stroke="white" stroke-width="2" stroke-dasharray="5 5"/>
<path d="M632.103 140.5H542.603V238.5H632.103V140.5Z" stroke="white" stroke-width="2" stroke-dasharray="5 5"/>
<path d="M687.603 140.5H634.103V238.5H687.603V140.5Z" stroke="white" stroke-width="2" stroke-dasharray="5 5"/>
<path d="M743.603 140.5H689.603V238.5H743.603V140.5Z" stroke="white" stroke-width="2" stroke-dasharray="5 5"/>
<path d="M769.603 138.586V34.3434" stroke="#46C147" stroke-width="2.74323"/>
<path d="M744.603 138.586V34.3434" stroke="#46C147" stroke-width="2.74323"/>
<path d="M769.603 56.2892H744.603" stroke="#46C147" stroke-width="2.74323"/>
<path d="M769.603 56.2893L802.522 64.519V48.0596L769.603 56.2893Z" fill="#46C147"/>
<path d="M744.603 56.2893L711.684 64.519V48.0596L744.603 56.2893Z" fill="#46C147"/>
<path d="M726.478 25V22.8958L734.381 14.2453C735.308 13.2321 736.072 12.3515 736.672 11.6034C737.272 10.8474 737.716 10.1382 738.005 9.47578C738.301 8.80556 738.449 8.10417 738.449 7.3716C738.449 6.52993 738.246 5.80125 737.841 5.18558C737.443 4.56992 736.898 4.09452 736.204 3.75941C735.511 3.4243 734.731 3.25675 733.866 3.25675C732.947 3.25675 732.144 3.44768 731.458 3.82955C730.78 4.20363 730.254 4.72968 729.88 5.40769C729.514 6.08571 729.331 6.88062 729.331 7.79244H726.572C726.572 6.38965 726.895 5.15831 727.542 4.09842C728.189 3.03854 729.07 2.21245 730.184 1.62016C731.306 1.02787 732.565 0.731725 733.96 0.731725C735.363 0.731725 736.606 1.02787 737.689 1.62016C738.772 2.21245 739.622 3.01126 740.237 4.01659C740.853 5.02193 741.161 6.14026 741.161 7.3716C741.161 8.25224 741.001 9.1134 740.682 9.95507C740.37 10.789 739.824 11.7203 739.045 12.749C738.273 13.7699 737.202 15.0168 735.83 16.4897L730.453 22.2412V22.4282H741.582V25H726.478ZM759.175 11.0656L756.697 11.767C756.541 11.354 756.311 10.9526 756.007 10.5629C755.711 10.1655 755.306 9.83817 754.791 9.58099C754.277 9.32382 753.618 9.19523 752.816 9.19523C751.717 9.19523 750.801 9.44851 750.069 9.95507C749.344 10.4538 748.981 11.089 748.981 11.8605C748.981 12.5463 749.231 13.088 749.73 13.4854C750.228 13.8829 751.008 14.2141 752.067 14.4791L754.733 15.1337C756.338 15.5234 757.534 16.1196 758.322 16.9223C759.109 17.7172 759.502 18.742 759.502 19.9967C759.502 21.0254 759.206 21.945 758.614 22.7555C758.029 23.566 757.211 24.2051 756.159 24.6727C755.107 25.1403 753.883 25.3741 752.488 25.3741C750.657 25.3741 749.141 24.9766 747.941 24.1817C746.741 23.3868 745.981 22.2256 745.661 20.6981L748.28 20.0435C748.529 21.0098 749.001 21.7346 749.694 22.2178C750.396 22.701 751.312 22.9426 752.442 22.9426C753.727 22.9426 754.748 22.6698 755.504 22.1243C756.268 21.571 756.65 20.9085 756.65 20.137C756.65 19.5135 756.432 18.9914 755.995 18.5705C755.559 18.1419 754.889 17.8224 753.985 17.612L750.992 16.9106C749.348 16.5209 748.14 15.9169 747.368 15.0986C746.604 14.2725 746.223 13.2399 746.223 12.0008C746.223 10.9877 746.507 10.0915 747.076 9.31213C747.653 8.5328 748.436 7.92103 749.426 7.47681C750.423 7.03259 751.553 6.81048 752.816 6.81048C754.593 6.81048 755.988 7.20015 757.001 7.97947C758.022 8.7588 758.746 9.78752 759.175 11.0656ZM767.723 25L762.252 7.04428H765.151L769.032 20.7916H769.22L773.054 7.04428H776L779.787 20.7449H779.974L783.855 7.04428H786.754L781.284 25H778.571L774.644 11.2059H774.363L770.435 25H767.723Z" fill="#46C147"/>
<path d="M769.603 139.5H873.846" stroke="#FF0000" stroke-width="2.74323"/>
<path d="M744.603 139.5H873.846" stroke="#FF0000" stroke-width="2.74323"/>
<path d="M851.9 139.5L843.671 172.419H860.13L851.9 139.5Z" fill="#FF0000"/>
<path d="M851.9 139.5L843.671 106.581H860.13L851.9 139.5Z" fill="#FF0000"/>
<path d="M899.287 136.327C897.526 136.327 896.026 135.848 894.787 134.889C893.547 133.923 892.6 132.524 891.946 130.693C891.291 128.854 890.964 126.632 890.964 124.03C890.964 121.442 891.291 119.233 891.946 117.401C892.608 115.562 893.559 114.159 894.798 113.193C896.045 112.219 897.541 111.732 899.287 111.732C901.033 111.732 902.525 112.219 903.764 113.193C905.011 114.159 905.962 115.562 906.617 117.401C907.279 119.233 907.61 121.442 907.61 124.03C907.61 126.632 907.283 128.854 906.628 130.693C905.974 132.524 905.027 133.923 903.788 134.889C902.549 135.848 901.048 136.327 899.287 136.327ZM899.287 133.756C901.033 133.756 902.389 132.914 903.355 131.231C904.322 129.547 904.805 127.147 904.805 124.03C904.805 121.957 904.583 120.191 904.138 118.734C903.702 117.277 903.071 116.166 902.245 115.402C901.426 114.639 900.441 114.257 899.287 114.257C897.557 114.257 896.205 115.11 895.231 116.817C894.257 118.516 893.769 120.92 893.769 124.03C893.769 126.103 893.988 127.864 894.424 129.313C894.861 130.763 895.488 131.866 896.306 132.622C897.132 133.378 898.126 133.756 899.287 133.756ZM924.818 122.066L922.34 122.767C922.184 122.354 921.954 121.953 921.65 121.563C921.354 121.165 920.949 120.838 920.434 120.581C919.92 120.324 919.261 120.195 918.459 120.195C917.36 120.195 916.444 120.449 915.711 120.955C914.987 121.454 914.624 122.089 914.624 122.861C914.624 123.546 914.874 124.088 915.372 124.485C915.871 124.883 916.651 125.214 917.71 125.479L920.376 126.134C921.981 126.523 923.177 127.12 923.965 127.922C924.752 128.717 925.145 129.742 925.145 130.997C925.145 132.025 924.849 132.945 924.257 133.756C923.672 134.566 922.854 135.205 921.802 135.673C920.75 136.14 919.526 136.374 918.131 136.374C916.3 136.374 914.784 135.977 913.584 135.182C912.384 134.387 911.624 133.226 911.304 131.698L913.923 131.043C914.172 132.01 914.644 132.735 915.337 133.218C916.039 133.701 916.954 133.943 918.085 133.943C919.37 133.943 920.391 133.67 921.147 133.124C921.911 132.571 922.293 131.909 922.293 131.137C922.293 130.514 922.075 129.991 921.638 129.571C921.202 129.142 920.532 128.822 919.628 128.612L916.635 127.911C914.991 127.521 913.783 126.917 913.011 126.099C912.247 125.273 911.865 124.24 911.865 123.001C911.865 121.988 912.15 121.091 912.719 120.312C913.296 119.533 914.079 118.921 915.069 118.477C916.066 118.033 917.196 117.81 918.459 117.81C920.235 117.81 921.63 118.2 922.644 118.979C923.665 119.759 924.389 120.788 924.818 122.066ZM933.366 136L927.895 118.044H930.794L934.675 131.792H934.862L938.697 118.044H941.643L945.43 131.745H945.617L949.498 118.044H952.397L946.926 136H944.214L940.287 122.206H940.006L936.078 136H933.366Z" fill="#FF0000"/>
</svg>
