<svg width="1155" height="615" viewBox="0 0 1155 615" fill="none" xmlns="http://www.w3.org/2000/svg">
<path d="M172.26 38.7501C178.96 27.1463 191.341 19.9985 204.74 20H1096.92C1117.63 20 1134.42 36.7894 1134.42 57.5001V557.5C1134.42 578.211 1117.63 595 1096.92 595H204.74C191.341 595.001 178.96 587.854 172.26 576.25L22.512 316.88C19.1626 311.079 19.1626 303.931 22.512 298.13L172.26 38.7501Z" fill="white"/>
<path d="M188.503 48.1301C191.851 42.3262 198.042 38.7504 204.743 38.7501H1099.82C1110.17 38.7501 1118.57 47.1447 1118.57 57.5001V557.5C1118.57 567.855 1110.17 576.25 1099.82 576.25H204.743C198.044 576.252 191.854 572.68 188.503 566.88L38.7499 307.5L188.503 48.1301Z" fill="#0033A2"/>
<path d="M235.965 57.5001H322.568L175.871 307.5L322.568 556.25H235.965L89.2682 307.5L235.965 57.5001Z" fill="white"/>
<path d="M385.48 485.415V476.305H438.47V485.415H385.48ZM378.62 503.525V494.635H445.89V503.525H378.62ZM363.2 522.425V513.205H461.08V522.425H363.2ZM377.04 460.325V451.775H416.19V460.325H377.04ZM407.08 457.515V451.775H418.67C421.07 454.849 423.977 457.829 427.39 460.715C430.803 463.609 434.57 466.292 438.69 468.765C442.817 471.239 447.13 473.452 451.63 475.405C456.13 477.352 460.667 479.002 465.24 480.355C464.42 480.955 463.483 481.742 462.43 482.715C461.383 483.689 460.37 484.702 459.39 485.755C458.417 486.802 457.63 487.775 457.03 488.675C451.03 486.502 445.107 483.802 439.26 480.575C433.407 477.349 427.987 473.769 423 469.835C418.013 465.895 413.72 461.789 410.12 457.515H407.08ZM404.61 452.905L414.28 456.615C410.607 461.562 406.143 466.135 400.89 470.335C395.643 474.535 390.037 478.249 384.07 481.475C378.11 484.702 372.093 487.515 366.02 489.915C365.493 489.162 364.78 488.262 363.88 487.215C362.98 486.162 362.043 485.129 361.07 484.115C360.097 483.109 359.233 482.305 358.48 481.705C364.633 479.825 370.633 477.462 376.48 474.615C382.333 471.762 387.677 468.499 392.51 464.825C397.35 461.152 401.383 457.179 404.61 452.905ZM406.41 519.615V480.465H417.32V519.615H406.41ZM362.42 440.185V430.405H461.87V440.185H362.42ZM386.38 449.525V421.855H396.96V449.525H386.38ZM426.66 450.085V421.855H437.23V450.085" fill="white"/>
<path d="M548.745 429.618V424.108H568.425V429.618H548.745ZM548.065 447.958V442.558H569.215V447.958H548.065ZM548.065 456.388V451.108H569.215V456.388H548.065ZM531.645 509.718V502.858H588.675V509.718H531.645ZM544.805 439.068V433.108H571.805V439.068H544.805ZM562.465 465.278H554.475V471.688H562.465V465.278ZM547.835 476.868V460.108H569.325V476.868H547.835ZM533.555 498.128V491.718H580.235V486.878H526.575V480.468H590.145V498.128H533.555ZM529.725 478.438V452.908H536.815V478.438H529.725ZM519.495 456.838L518.705 449.978C522.005 449.831 525.698 449.681 529.785 449.528C533.872 449.381 538.202 449.195 542.775 448.968V455.158C538.575 455.531 534.508 455.831 530.575 456.058C526.635 456.278 522.942 456.538 519.495 456.838ZM530.515 491.718H540.415C539.515 495.318 538.542 499.068 537.495 502.968C536.442 506.868 535.465 510.241 534.565 513.088L525.005 511.738C526.052 508.965 527.065 505.758 528.045 502.118C529.018 498.485 529.842 495.018 530.515 491.718ZM585.305 503.978V502.858H595.315C595.315 502.858 595.278 503.361 595.205 504.368C595.132 505.381 594.982 506.228 594.755 506.908C593.702 511.555 592.612 515.208 591.485 517.868C590.365 520.535 589.055 522.468 587.555 523.668C586.282 524.568 584.912 525.185 583.445 525.518C581.985 525.858 580.242 526.064 578.215 526.138C576.488 526.218 574.032 526.238 570.845 526.198C567.658 526.158 564.265 526.064 560.665 525.918C560.592 524.718 560.292 523.368 559.765 521.868C559.238 520.368 558.602 519.018 557.855 517.818C561.382 518.191 564.795 518.415 568.095 518.488C571.395 518.568 573.718 518.608 575.065 518.608C576.265 518.608 577.238 518.568 577.985 518.488C578.738 518.415 579.378 518.191 579.905 517.818C580.952 516.991 581.908 515.508 582.775 513.368C583.635 511.235 584.478 508.105 585.305 503.978ZM538.165 460.888L543.565 459.658C544.165 461.531 544.745 463.591 545.305 465.838C545.872 468.091 546.305 470.041 546.605 471.688L540.755 473.268C540.602 471.541 540.282 469.535 539.795 467.248C539.308 464.961 538.765 462.841 538.165 460.888ZM537.825 445.588L542.665 443.788C543.638 445.668 544.538 447.768 545.365 450.088C546.192 452.415 546.755 454.441 547.055 456.168L541.765 458.188C541.538 456.468 541.052 454.445 540.305 452.118C539.552 449.791 538.725 447.615 537.825 445.588ZM519.825 436.708L523.425 431.308C525.605 432.728 527.742 434.358 529.835 436.198C531.942 438.038 533.518 439.631 534.565 440.978L530.515 447.168C529.388 445.595 527.815 443.831 525.795 441.878C523.768 439.931 521.778 438.208 519.825 436.708ZM530.515 421.518L536.925 424.668C535.425 427.141 533.925 429.655 532.425 432.208C530.925 434.755 529.502 436.891 528.155 438.618L523.205 436.028C524.405 434.081 525.718 431.701 527.145 428.888C528.565 426.075 529.688 423.618 530.515 421.518ZM537.715 430.858L544.015 434.458C541.542 437.831 538.898 441.391 536.085 445.138C533.272 448.891 530.628 452.041 528.155 454.588L523.425 451.668C525.005 449.795 526.695 447.658 528.495 445.258C530.295 442.858 531.998 440.381 533.605 437.828C535.218 435.281 536.588 432.958 537.715 430.858ZM522.305 459.208L528.945 460.668C528.265 463.595 527.438 466.518 526.465 469.438C525.492 472.365 524.442 474.878 523.315 476.978C522.642 476.531 521.665 476.025 520.385 475.458C519.112 474.898 518.065 474.431 517.245 474.058C518.518 471.958 519.565 469.611 520.385 467.018C521.212 464.431 521.852 461.828 522.305 459.208ZM581.705 478.438V452.908H588.905V478.438H581.705ZM571.355 456.838L570.675 449.978C574.128 449.831 578.012 449.681 582.325 449.528C586.638 449.381 591.232 449.231 596.105 449.078L595.985 455.268C591.565 455.568 587.272 455.848 583.105 456.108C578.945 456.375 575.028 456.618 571.355 456.838ZM590.475 460.888L596.215 459.208C597.188 461.455 598.145 463.928 599.085 466.628C600.018 469.328 600.675 471.655 601.055 473.608L595.095 475.518C594.795 473.565 594.195 471.201 593.295 468.428C592.395 465.655 591.455 463.141 590.475 460.888ZM589.575 445.368L594.865 443.008C596.138 444.955 597.318 447.108 598.405 449.468C599.498 451.835 600.268 453.918 600.715 455.718L594.975 458.308C594.602 456.508 593.908 454.388 592.895 451.948C591.882 449.508 590.775 447.315 589.575 445.368ZM570.905 436.478L574.725 431.418C576.678 432.765 578.628 434.321 580.575 436.088C582.528 437.848 584.028 439.441 585.075 440.868L580.695 446.718C579.715 445.218 578.308 443.491 576.475 441.538C574.635 439.591 572.778 437.905 570.905 436.478ZM581.925 421.628L588.345 424.888C586.765 427.368 585.188 429.861 583.615 432.368C582.042 434.881 580.542 437.038 579.115 438.838L574.165 436.258C575.438 434.305 576.825 431.921 578.325 429.108C579.825 426.295 581.025 423.801 581.925 421.628ZM589.915 430.408L596.215 434.008C593.668 437.381 590.895 440.941 587.895 444.688C584.895 448.441 582.045 451.591 579.345 454.138L574.725 451.218C576.452 449.345 578.252 447.208 580.125 444.808C582.005 442.408 583.805 439.931 585.525 437.378C587.252 434.831 588.715 432.508 589.915 430.408ZM574.165 459.208L580.695 460.778C580.168 463.551 579.418 466.381 578.445 469.268C577.465 472.161 576.415 474.618 575.295 476.638C574.695 476.265 573.795 475.758 572.595 475.118C571.395 474.485 570.345 473.981 569.445 473.608C570.638 471.508 571.612 469.218 572.365 466.738C573.112 464.265 573.712 461.755 574.165 459.208ZM497.665 430.288L503.855 423.318C505.728 424.291 507.695 425.471 509.755 426.858C511.822 428.245 513.755 429.631 515.555 431.018C517.355 432.411 518.818 433.745 519.945 435.018L513.525 442.888C512.478 441.615 511.072 440.228 509.305 438.728C507.545 437.228 505.652 435.748 503.625 434.288C501.605 432.821 499.618 431.488 497.665 430.288ZM495.305 460.328L501.155 453.018C503.102 453.918 505.145 455.025 507.285 456.338C509.425 457.651 511.412 458.961 513.245 460.268C515.085 461.581 516.605 462.838 517.805 464.038L511.615 472.138C510.488 470.938 509.008 469.628 507.175 468.208C505.335 466.781 503.365 465.375 501.265 463.988C499.165 462.601 497.178 461.381 495.305 460.328ZM507.115 524.908L497.555 519.508C498.982 516.508 500.498 513.018 502.105 509.038C503.718 505.065 505.368 500.865 507.055 496.438C508.748 492.018 510.305 487.668 511.725 483.388L520.165 488.788C518.965 492.768 517.615 496.858 516.115 501.058C514.615 505.258 513.115 509.381 511.615 513.428C510.115 517.481 508.615 521.308 507.115 524.908Z" fill="white"/>
<path d="M477.818 414.75H342.318V555.25H477.818V414.75Z" stroke="white" stroke-width="2" stroke-dasharray="5 5"/>
<path d="M615.318 414.75H479.818V555.25H615.318V414.75Z" stroke="white" stroke-width="2" stroke-dasharray="5 5"/>
<path d="M974.818 313.75H1024.82L1087.32 376.25V513.75H862.318V376.25L924.818 313.75H974.818ZM909.193 476.25H1040.44C1064.99 442.624 1060.15 395.885 1029.23 368.005C998.312 340.125 951.323 340.125 920.405 368.005C889.488 395.885 884.646 442.624 909.193 476.25Z" fill="white"/>
<path d="M361.068 221.765V210.735H460.518V221.765H361.068ZM406.408 217.715L417.088 215.125C419.494 223.979 422.741 232.229 426.828 239.875C430.914 247.529 435.938 254.222 441.898 259.955C447.864 265.695 454.784 270.215 462.658 273.515C461.758 274.262 460.801 275.235 459.788 276.435C458.774 277.635 457.818 278.855 456.918 280.095C456.018 281.335 455.268 282.442 454.668 283.415C446.341 279.515 439.084 274.359 432.898 267.945C426.711 261.532 421.481 254.089 417.208 245.615C412.934 237.142 409.334 227.842 406.408 217.715ZM404.718 179.355H416.308C416.308 184.675 416.174 190.392 415.908 196.505C415.648 202.619 415.068 208.902 414.168 215.355C413.268 221.802 411.804 228.252 409.778 234.705C407.758 241.152 404.944 247.375 401.338 253.375C397.744 259.375 393.134 264.945 387.508 270.085C381.881 275.219 375.018 279.699 366.918 283.525C366.018 282.099 364.818 280.542 363.318 278.855C361.818 277.169 360.318 275.762 358.818 274.635C366.618 271.115 373.198 267.009 378.558 262.315C383.924 257.629 388.274 252.529 391.608 247.015C394.948 241.509 397.518 235.792 399.318 229.865C401.118 223.939 402.394 218.012 403.148 212.085C403.894 206.165 404.344 200.429 404.498 194.875C404.644 189.329 404.718 184.155 404.718 179.355Z" fill="white"/>
<path d="M516.46 217.378V211.308H579.8V217.378H516.46ZM517.02 259.908V253.718H579.91V259.908H517.02ZM547.73 267.328V236.168H557.3V267.328H547.73ZM563.26 226.378H532.55V232.568H563.26V226.378ZM523.55 237.628V221.088H572.71V237.628H523.55ZM539.52 193.978L548.41 195.108C547.583 198.181 546.643 201.441 545.59 204.888C544.543 208.341 543.57 211.304 542.67 213.778H533.33C534.383 211.078 535.47 207.891 536.59 204.218C537.717 200.544 538.693 197.131 539.52 193.978ZM522.98 205.788V200.058H570.12V214.568H561.23V205.788H522.98ZM500.48 283.868V183.968H595.66V283.868H585.2V193.638H510.61V283.868H500.48ZM506.9 279.368V269.688H590.82V279.368H506.9ZM524.9 258.108V241.788H575.07V247.868H533.22V258.108" fill="white"/>
<path d="M477.818 172.25H342.318V312.75H477.818V172.25Z" stroke="white" stroke-width="2" stroke-dasharray="5 5"/>
<path d="M615.318 172.25H479.818V312.75H615.318V172.25Z" stroke="white" stroke-width="2" stroke-dasharray="5 5"/>
<path d="M342.837 331.8V320.78H393.507V331.8H374.227V391.1H362.117V331.8" fill="white"/>
<path d="M436.226 347.027L435.676 347.767L435.126 348.317L434.576 348.687L433.836 349.787L433.476 350.157L433.106 350.337C432.706 350.89 432.34 351.317 432.006 351.617L429.616 354.377C424.536 351.104 420.33 349.467 416.996 349.467C413.57 349.467 411.046 351.164 409.426 354.557C409.486 356.55 410.28 358.02 411.806 358.967C412.48 359.147 412.97 359.33 413.276 359.517C414.47 359.697 415.45 359.94 416.216 360.247C427.81 361.107 434.296 365.76 435.676 374.207C435.736 374.574 435.766 374.93 435.766 375.277C435.766 375.63 435.766 375.977 435.766 376.317C435.766 382.464 433.166 387.084 427.966 390.177C424.233 391.857 420.483 392.697 416.716 392.697C409.556 392.697 402.413 389.654 395.286 383.567L395.656 382.837L396.566 381.917C397.18 381.184 397.733 380.63 398.226 380.257C398.346 380.044 398.466 379.924 398.586 379.897L398.956 379.347C399.076 379.134 399.2 379.01 399.326 378.977L399.506 378.607L399.876 378.427L402.266 375.667C406.793 379.954 411.533 382.097 416.486 382.097C418.566 382.097 420.68 381.73 422.826 380.997C423.373 380.264 423.923 379.714 424.476 379.347C424.663 378.614 424.756 377.924 424.756 377.277C424.756 375.684 424.236 374.354 423.196 373.287L418.966 371.817C406.36 371.05 399.506 365.664 398.406 355.657C399.233 345.59 404.923 340.207 415.476 339.507H416.126C424.233 339.507 430.933 342.014 436.226 347.027Z" fill="white"/>
<path d="M448.605 376.776V340.976H459.625V372.736C459.745 372.889 459.805 373.072 459.805 373.286C459.931 373.379 459.995 373.469 459.995 373.556V373.656C460.208 375.029 460.511 376.252 460.905 377.326C463.018 380.259 465.728 381.726 469.035 381.726H469.175C473.275 380.626 476.148 378.362 477.795 374.936V374.386L478.535 372.186V340.976H489.735V391.096H478.535V387.056C474.128 390.662 469.738 392.466 465.365 392.466C461.965 392.466 458.521 391.396 455.035 389.256C452.188 387.082 450.228 384.512 449.155 381.546L448.975 380.256C448.701 379.369 448.565 378.499 448.565 377.646V377.236C448.565 377.082 448.578 376.929 448.605 376.776Z" fill="white"/>
<path d="M548.154 361.544L548.334 364.294C548.454 364.448 548.514 364.631 548.514 364.844V370.354H514.924C515.624 376.594 518.804 380.268 524.464 381.374C525.384 381.461 526.287 381.504 527.174 381.504C531.794 381.504 535.727 379.991 538.974 376.964C539.367 377.638 539.857 378.188 540.444 378.614L540.624 379.164L541.174 379.714C541.6 380.114 541.967 380.491 542.274 380.844C542.58 381.198 542.827 381.558 543.014 381.924C543.227 382.044 543.347 382.164 543.374 382.284L545.944 385.224C540.13 390.091 533.934 392.524 527.354 392.524C526.227 392.524 525.08 392.448 523.914 392.294C522.754 392.141 521.59 391.928 520.424 391.654C509.837 388.134 504.024 380.544 502.984 368.884C502.984 368.731 502.977 368.424 502.964 367.964C502.95 367.511 502.944 367.221 502.944 367.094C502.944 351.154 510.117 342.081 524.464 339.874C538.724 340.368 546.62 347.591 548.154 361.544ZM514.734 361.724H536.954V361.174C536.827 360.808 536.764 360.441 536.764 360.074V359.704C536.457 359.031 536.274 358.421 536.214 357.874C533.954 352.641 530.22 350.008 525.014 349.974C518.467 351.534 515.04 355.451 514.734 361.724Z" fill="white"/>
<path d="M601.368 349.787V350.337C601.768 351.07 602.014 351.804 602.108 352.537V390.907H590.908V358.417L590.718 357.317C589.191 352.69 586.621 350.377 583.008 350.377C581.908 350.377 580.684 350.607 579.338 351.067C576.278 352.387 574.074 354.47 572.728 357.317L571.998 360.437V390.907H560.978V340.787H571.998V345.007C575.424 341.947 579.158 340.114 583.198 339.507H584.018C592.218 339.507 598.001 342.934 601.368 349.787Z" fill="white"/>
<path d="M640.509 321.334V320.964H653.179L653.359 322.254L653.549 322.804L653.909 324.094L654.279 326.294L654.829 328.124L655.199 330.334L655.749 332.164L655.929 333.634C656.142 334.154 656.266 334.584 656.299 334.924L656.479 335.654L656.849 336.754V337.494C656.969 337.587 657.029 337.677 657.029 337.764V338.414C657.369 339.087 657.556 339.821 657.589 340.614L657.949 341.714L658.319 343.004L658.689 345.204L659.239 347.034L659.419 348.144L660.519 352.734C660.612 353.161 660.699 353.551 660.779 353.904C660.852 354.251 660.889 354.594 660.889 354.934L661.259 355.664V356.404L661.619 357.324V358.054L661.989 358.784V359.524C662.329 360.444 662.512 361.241 662.539 361.914L662.729 362.644C662.942 363.257 663.109 363.824 663.229 364.344C663.349 364.864 663.426 365.337 663.459 365.764L663.829 367.234L664.199 368.514L664.559 367.414L665.299 363.744L665.659 362.824L665.849 361.724L666.399 359.154L666.769 357.874V357.324L667.499 354.384L667.679 353.284L668.049 352.544L668.229 351.814L668.419 350.894V350.164L668.599 349.604L669.339 346.674L669.699 344.464L669.889 343.734L670.249 343.004C670.316 342.024 670.499 341.164 670.799 340.424L670.989 339.514V338.964L671.359 337.494L671.539 336.944L672.089 334.554L672.269 333.454L672.639 332.354L672.819 331.434L673.369 329.044L673.559 328.124L673.739 327.764C673.772 327.424 673.812 327.094 673.859 326.774C673.906 326.454 673.989 326.171 674.109 325.924L674.289 325.374V324.824L674.479 324.094L674.659 323.534L675.209 320.964H688.799V321.514C689.226 322.587 689.469 323.631 689.529 324.644L689.899 326.104L690.079 326.664L690.819 329.964L691.179 331.434C691.426 332.321 691.549 333.054 691.549 333.634C691.762 334.154 691.886 334.584 691.919 334.924L692.279 336.204L692.469 337.494L692.649 338.224L692.839 338.774C692.926 339.174 693.002 339.534 693.069 339.854C693.129 340.174 693.172 340.487 693.199 340.794C693.446 341.374 693.616 341.911 693.709 342.404C693.802 342.891 693.879 343.334 693.939 343.734L694.119 344.834L694.489 345.754L694.669 346.854V347.404C694.976 348.137 695.159 348.811 695.219 349.424L695.409 350.524C695.709 351.257 695.892 351.931 695.959 352.544L696.139 353.464L696.689 355.484V356.214C696.809 356.494 696.869 356.801 696.869 357.134C697.209 357.841 697.396 358.454 697.429 358.974L697.609 359.894L697.789 360.994L697.979 361.724C698.286 362.671 698.469 363.527 698.529 364.294C698.649 364.387 698.709 364.481 698.709 364.574V365.214C699.136 366.287 699.382 367.327 699.449 368.334C699.629 368.274 699.749 368.151 699.809 367.964C699.962 367.204 700.116 366.541 700.269 365.974C700.422 365.407 700.576 364.911 700.729 364.484V363.744C701.129 362.644 701.372 361.664 701.459 360.804L701.829 359.524L702.569 356.584L702.749 355.114L703.119 353.834L703.299 353.284V352.734C703.512 352.147 703.682 351.617 703.809 351.144C703.929 350.671 704.002 350.221 704.029 349.794L704.399 348.504L705.869 342.444L706.419 339.514L706.789 338.044C707.122 337.157 707.306 336.424 707.339 335.844L707.519 334.924L707.889 333.454C708.162 332.567 708.346 331.834 708.439 331.254L708.619 330.514L709.179 327.944L709.539 326.844V326.294L710.089 324.824V324.094L710.279 323.534L710.829 320.964H723.309L722.579 324.644L722.029 326.844L721.839 327.394L721.289 329.964L720.929 331.434L720.559 332.714L719.819 336.394L719.459 337.674L718.719 341.164L718.359 342.444L718.169 343.004L717.799 345.014L717.619 345.384L717.439 346.674C717.132 347.681 716.949 348.537 716.889 349.244L716.149 351.444L715.969 352.734L715.779 353.464L715.599 354.014L715.419 355.304L715.229 355.854L714.129 360.444L713.949 361.724L713.579 363.014L712.659 366.684L712.479 367.964L711.379 372.554L710.829 375.124C710.489 376.044 710.306 376.841 710.279 377.514L709.539 379.904V380.634C709.206 381.554 709.022 382.351 708.989 383.024C708.682 384.031 708.499 384.887 708.439 385.594L708.069 386.874L707.889 387.244L707.709 388.534C707.402 389.541 707.219 390.397 707.159 391.104H693.569L693.389 389.634C693.176 389.114 693.052 388.684 693.019 388.344L692.649 386.874L692.469 385.594L692.099 384.304C692.006 383.937 691.929 383.587 691.869 383.254C691.809 382.914 691.762 382.591 691.729 382.284L691.549 381.554L691.369 380.634C691.242 380.481 691.179 380.297 691.179 380.084L690.999 379.164L690.819 378.614C690.726 378.221 690.649 377.861 690.589 377.534C690.522 377.214 690.476 376.901 690.449 376.594C690.236 376.014 690.076 375.481 689.969 374.994C689.862 374.501 689.776 374.057 689.709 373.664L689.529 372.924L689.349 372.004C689.222 371.637 689.136 371.287 689.089 370.954C689.049 370.614 689.012 370.291 688.979 369.984C688.766 369.377 688.599 368.797 688.479 368.244C688.352 367.691 688.276 367.171 688.249 366.684C688.122 366.531 688.059 366.347 688.059 366.134L687.879 365.394L687.699 364.844C687.606 364.204 687.482 363.594 687.329 363.014L686.959 361.354L686.779 360.254L686.409 359.344L686.039 357.134L685.859 356.584V356.034C685.552 355.301 685.369 354.627 685.309 354.014L684.939 351.814L684.569 350.894L684.209 349.424V348.694C683.842 347.681 683.659 346.824 683.659 346.124C683.532 345.971 683.469 345.787 683.469 345.574L683.289 345.014V344.464C682.982 343.764 682.799 343.031 682.739 342.264C682.432 341.284 682.249 340.367 682.189 339.514L681.819 340.244L681.639 341.344L681.089 343.734L680.719 345.754L680.529 346.304L679.799 349.424L679.619 350.164L679.249 351.994L679.069 352.734L678.699 354.754L678.519 355.304L677.779 358.784L677.409 360.074L677.229 361.354C676.896 362.274 676.712 363.071 676.679 363.744L676.499 364.114L676.309 365.214L676.129 365.764L675.209 370.354L675.029 370.904L674.289 374.394L674.109 375.124L673.929 376.044L673.739 376.594L673.009 380.084L672.639 381.554L672.269 383.394L672.089 383.754L671.719 385.414L671.539 386.144L671.359 387.424C671.139 388.191 671.016 388.804 670.989 389.264C670.862 389.571 670.779 389.861 670.739 390.134C670.692 390.414 670.652 390.674 670.619 390.914C670.192 390.981 669.802 391.034 669.449 391.074C669.096 391.121 668.752 391.144 668.419 391.144H667.959C667.806 391.144 667.652 391.131 667.499 391.104H656.849V390.364C656.422 389.264 656.179 388.224 656.119 387.244C655.992 387.091 655.929 386.907 655.929 386.694L655.749 385.774C655.076 383.601 654.646 381.764 654.459 380.264L654.279 379.714L653.359 376.234L653.179 374.764L651.709 369.074V368.334C651.402 367.634 651.219 366.901 651.159 366.134L650.789 365.034L650.429 363.744V363.194L649.509 359.524V358.974L649.319 358.234L648.959 357.504L648.769 356.034C648.529 355.301 648.332 354.627 648.179 354.014C648.026 353.401 647.919 352.851 647.859 352.364L647.669 351.814V351.264C647.549 351.111 647.489 350.927 647.489 350.714L647.119 349.244L646.939 348.694C646.812 348.047 646.696 347.464 646.589 346.944C646.482 346.424 646.352 345.967 646.199 345.574L646.019 344.284C645.806 343.671 645.636 343.104 645.509 342.584C645.389 342.064 645.312 341.591 645.279 341.164L645.099 340.244C644.979 340.091 644.919 339.907 644.919 339.694L643.999 336.024L643.629 334.734L643.449 333.824L643.269 333.084L643.079 331.804C642.832 331.157 642.709 330.604 642.709 330.144V329.964L642.349 329.044L642.159 328.314C642.039 327.427 641.856 326.691 641.609 326.104V325.374C641.489 325.221 641.429 325.037 641.429 324.824" fill="white"/>
<path d="M766.883 345.385L767.443 346.485C768.876 348.265 769.793 350.101 770.193 351.995C770.313 352.788 770.403 353.531 770.463 354.225C770.53 354.911 770.563 355.515 770.563 356.035V380.265C771.69 382.505 773.34 383.851 775.513 384.305L775.153 384.855C775.026 385.075 774.903 385.198 774.783 385.225L774.603 385.775L774.233 386.145C773.926 386.818 773.56 387.368 773.133 387.795C772.7 388.928 772.146 389.785 771.473 390.365C771.2 390.978 770.94 391.508 770.693 391.955C770.453 392.395 770.226 392.785 770.013 393.125C766.433 392.205 763.616 390.551 761.563 388.165H761.013C757.066 391.011 752.996 392.435 748.803 392.435C746.536 392.435 744.303 392.051 742.103 391.285C735.523 388.931 731.546 384.648 730.173 378.435V378.205C730.173 366.365 737.103 360.445 750.963 360.445H751.103C751.376 360.318 751.68 360.255 752.013 360.255L752.563 360.075H753.853L754.403 359.895H754.953L759.543 359.345C759.603 359.005 759.633 358.698 759.633 358.425V357.505C759.633 352.391 756.926 349.835 751.513 349.835C747.746 349.835 742.59 351.105 736.043 353.645L735.313 351.995L734.943 350.895L734.573 350.525L734.393 350.165L734.023 349.055C733.69 348.508 733.446 347.958 733.293 347.405C732.646 346.551 732.216 345.695 732.003 344.835L732.553 344.655L732.923 344.465L733.473 344.285L733.843 343.915H734.393C734.513 343.795 734.62 343.735 734.713 343.735H734.763C735.863 343.155 736.84 342.725 737.693 342.445L738.613 342.265C739.286 341.958 739.9 341.775 740.453 341.715L741.923 341.345C742.99 340.918 744.03 340.675 745.043 340.615L749.083 339.875C749.69 339.815 750.276 339.761 750.843 339.715C751.41 339.668 751.97 339.645 752.523 339.645C758.363 339.645 763.15 341.558 766.883 345.385ZM755.133 368.705H754.033C753.76 368.765 753.493 368.811 753.233 368.845C752.973 368.871 752.72 368.885 752.473 368.885H752.203L751.463 369.075H750.913C750.76 369.195 750.576 369.255 750.363 369.255H749.813L746.873 369.985H746.323C745.47 370.478 744.736 370.785 744.123 370.905C742.136 372.805 741.143 374.641 741.143 376.415C741.143 378.035 741.953 379.625 743.573 381.185C745.926 382.625 748.22 383.345 750.453 383.345C753.3 383.345 756.023 382.198 758.623 379.905C758.87 379.198 759.116 378.708 759.363 378.435L759.543 377.885L759.363 377.145V368.515H755.693C755.54 368.641 755.353 368.705 755.133 368.705Z" fill="white"/>
<path d="M829.368 349.787V350.337C829.768 351.07 830.014 351.804 830.108 352.537V390.907H818.908V358.417L818.718 357.317C817.191 352.69 814.621 350.377 811.008 350.377C809.908 350.377 808.684 350.607 807.338 351.067C804.278 352.387 802.074 354.47 800.728 357.317L799.998 360.437V390.907H788.978V340.787H799.998V345.007C803.424 341.947 807.158 340.114 811.198 339.507H812.018C820.218 339.507 826.001 342.934 829.368 349.787Z" fill="white"/>
<path d="M392.818 314.75H342.318V412.75H392.818V314.75Z" stroke="white" stroke-width="2" stroke-dasharray="5 5"/>
<path d="M440.318 314.75H394.818V412.75H440.318V314.75Z" stroke="white" stroke-width="2" stroke-dasharray="5 5"/>
<path d="M497.818 314.75H442.318V412.75H497.818V314.75Z" stroke="white" stroke-width="2" stroke-dasharray="5 5"/>
<path d="M552.318 314.75H499.818V412.75H552.318V314.75Z" stroke="white" stroke-width="2" stroke-dasharray="5 5"/>
<path d="M608.318 314.75H554.318V412.75H608.318V314.75Z" stroke="white" stroke-width="2" stroke-dasharray="5 5"/>
<path d="M633.318 314.75H610.318V412.75H633.318V314.75Z" stroke="white" stroke-width="2" stroke-dasharray="5 5"/>
<path d="M724.818 314.75H635.318V412.75H724.818V314.75Z" stroke="white" stroke-width="2" stroke-dasharray="5 5"/>
<path d="M780.318 314.75H726.818V412.75H780.318V314.75Z" stroke="white" stroke-width="2" stroke-dasharray="5 5"/>
<path d="M836.318 314.75H782.318V412.75H836.318V314.75Z" stroke="white" stroke-width="2" stroke-dasharray="5 5"/>
<path d="M342.837 89.3005V78.2805H393.507V89.3005H374.227V148.6H362.117V89.3005" fill="white"/>
<path d="M433.133 102.885L433.693 103.985C435.126 105.765 436.043 107.601 436.443 109.495C436.563 110.288 436.653 111.031 436.713 111.725C436.78 112.411 436.813 113.015 436.813 113.535V137.765C437.94 140.005 439.59 141.351 441.763 141.805L441.403 142.355C441.276 142.575 441.153 142.698 441.033 142.725L440.853 143.275L440.483 143.645C440.176 144.318 439.81 144.868 439.383 145.295C438.95 146.428 438.396 147.285 437.723 147.865C437.45 148.478 437.19 149.008 436.943 149.455C436.703 149.895 436.476 150.285 436.263 150.625C432.683 149.705 429.866 148.051 427.813 145.665H427.263C423.316 148.511 419.246 149.935 415.053 149.935C412.786 149.935 410.553 149.551 408.353 148.785C401.773 146.431 397.796 142.148 396.423 135.935V135.705C396.423 123.865 403.353 117.945 417.213 117.945H417.353C417.626 117.818 417.93 117.755 418.263 117.755L418.813 117.575H420.103L420.653 117.395H421.203L425.793 116.845C425.853 116.505 425.883 116.198 425.883 115.925V115.005C425.883 109.891 423.176 107.335 417.763 107.335C413.996 107.335 408.84 108.605 402.293 111.145L401.563 109.495L401.193 108.395L400.823 108.025L400.643 107.665L400.273 106.555C399.94 106.008 399.696 105.458 399.543 104.905C398.896 104.051 398.466 103.195 398.253 102.335L398.803 102.155L399.173 101.965L399.723 101.785L400.093 101.415H400.643C400.763 101.295 400.87 101.235 400.963 101.235H401.013C402.113 100.655 403.09 100.225 403.943 99.9448L404.863 99.7648C405.536 99.4581 406.15 99.2748 406.703 99.2148L408.173 98.8448C409.24 98.4181 410.28 98.1748 411.293 98.1148L415.333 97.3748C415.94 97.3148 416.526 97.2614 417.093 97.2148C417.66 97.1681 418.22 97.1448 418.773 97.1448C424.613 97.1448 429.4 99.0581 433.133 102.885ZM421.383 126.205H420.283C420.01 126.265 419.743 126.311 419.483 126.345C419.223 126.371 418.97 126.385 418.723 126.385H418.453L417.713 126.575H417.163C417.01 126.695 416.826 126.755 416.613 126.755H416.063L413.123 127.485H412.573C411.72 127.978 410.986 128.285 410.373 128.405C408.386 130.305 407.393 132.141 407.393 133.915C407.393 135.535 408.203 137.125 409.823 138.685C412.176 140.125 414.47 140.845 416.703 140.845C419.55 140.845 422.273 139.698 424.873 137.405C425.12 136.698 425.366 136.208 425.613 135.935L425.793 135.385L425.613 134.645V126.015H421.943C421.79 126.141 421.603 126.205 421.383 126.205Z" fill="white"/>
<path d="M452.749 148.781V98.6612H463.949V148.781H452.749ZM465.049 83.9712V84.5712C465.049 87.1112 464.253 89.1746 462.659 90.7612C460.979 91.5879 459.433 92.0012 458.019 92.0012C455.573 92.0012 453.633 90.6712 452.199 88.0112C451.919 86.9379 451.779 85.9912 451.779 85.1712C451.779 82.0446 453.509 79.9312 456.969 78.8312H457.429C461.316 78.8312 463.856 80.5446 465.049 83.9712Z" fill="white"/>
<path d="M504.009 78.8341V78.4641H516.679L516.859 79.7541L517.049 80.3041L517.409 81.5941L517.779 83.7941L518.329 85.6241L518.699 87.8341L519.249 89.6641L519.429 91.1341C519.642 91.6541 519.766 92.0841 519.799 92.4241L519.979 93.154L520.349 94.2541V94.994C520.469 95.0874 520.529 95.1774 520.529 95.264V95.9141C520.869 96.5874 521.056 97.3207 521.089 98.1141L521.449 99.2141L521.819 100.504L522.189 102.704L522.739 104.534L522.919 105.644L524.019 110.234C524.112 110.661 524.199 111.051 524.279 111.404C524.352 111.751 524.389 112.094 524.389 112.434L524.759 113.164V113.904L525.119 114.824V115.554L525.489 116.284V117.024C525.829 117.944 526.012 118.741 526.039 119.414L526.229 120.144C526.442 120.757 526.609 121.324 526.729 121.844C526.849 122.364 526.926 122.837 526.959 123.264L527.329 124.734L527.699 126.014L528.059 124.914L528.799 121.244L529.159 120.324L529.349 119.224L529.899 116.654L530.269 115.374V114.824L530.999 111.884L531.179 110.784L531.549 110.044L531.729 109.314L531.919 108.394V107.664L532.099 107.104L532.839 104.174L533.199 101.964L533.389 101.234L533.749 100.504C533.816 99.5241 533.999 98.664 534.299 97.924L534.489 97.014V96.4641L534.859 94.994L535.039 94.4441L535.589 92.0541L535.769 90.9541L536.139 89.8541L536.319 88.9341L536.869 86.5441L537.059 85.6241L537.239 85.2641C537.272 84.9241 537.312 84.5941 537.359 84.2741C537.406 83.9541 537.489 83.6707 537.609 83.4241L537.789 82.8741V82.3241L537.979 81.5941L538.159 81.0341L538.709 78.4641H552.299V79.0141C552.726 80.0874 552.969 81.1307 553.029 82.1441L553.399 83.6041L553.579 84.1641L554.319 87.4641L554.679 88.9341C554.926 89.8207 555.049 90.5541 555.049 91.1341C555.262 91.6541 555.386 92.0841 555.419 92.4241L555.779 93.7041L555.969 94.994L556.149 95.724L556.339 96.2741C556.426 96.6741 556.502 97.034 556.569 97.354C556.629 97.674 556.672 97.9874 556.699 98.2941C556.946 98.8741 557.116 99.4107 557.209 99.904C557.302 100.391 557.379 100.834 557.439 101.234L557.619 102.334L557.989 103.254L558.169 104.354V104.904C558.476 105.637 558.659 106.311 558.719 106.924L558.909 108.024C559.209 108.757 559.392 109.431 559.459 110.044L559.639 110.964L560.189 112.984V113.714C560.309 113.994 560.369 114.301 560.369 114.634C560.709 115.341 560.896 115.954 560.929 116.474L561.109 117.394L561.289 118.494L561.479 119.224C561.786 120.171 561.969 121.027 562.029 121.794C562.149 121.887 562.209 121.981 562.209 122.074V122.714C562.636 123.787 562.882 124.827 562.949 125.834C563.129 125.774 563.249 125.651 563.309 125.464C563.462 124.704 563.616 124.041 563.769 123.474C563.922 122.907 564.076 122.411 564.229 121.984V121.244C564.629 120.144 564.872 119.164 564.959 118.304L565.329 117.024L566.069 114.084L566.249 112.614L566.619 111.334L566.799 110.784V110.234C567.012 109.647 567.182 109.117 567.309 108.644C567.429 108.171 567.502 107.721 567.529 107.294L567.899 106.004L569.369 99.944L569.919 97.014L570.289 95.5441C570.622 94.6574 570.806 93.9241 570.839 93.3441L571.019 92.4241L571.389 90.9541C571.662 90.0674 571.846 89.3341 571.939 88.7541L572.119 88.0141L572.679 85.444L573.039 84.3441V83.7941L573.589 82.3241V81.5941L573.779 81.0341L574.329 78.4641H586.809L586.079 82.1441L585.529 84.3441L585.339 84.8941L584.789 87.4641L584.429 88.9341L584.059 90.2141L583.319 93.894L582.959 95.174L582.219 98.6641L581.859 99.944L581.669 100.504L581.299 102.514L581.119 102.884L580.939 104.174C580.632 105.181 580.449 106.037 580.389 106.744L579.649 108.944L579.469 110.234L579.279 110.964L579.099 111.514L578.919 112.804L578.729 113.354L577.629 117.944L577.449 119.224L577.079 120.514L576.159 124.184L575.979 125.464L574.879 130.054L574.329 132.624C573.989 133.544 573.806 134.341 573.779 135.014L573.039 137.404V138.134C572.706 139.054 572.522 139.851 572.489 140.524C572.182 141.531 571.999 142.387 571.939 143.094L571.569 144.374L571.389 144.744L571.209 146.034C570.902 147.041 570.719 147.897 570.659 148.604H557.069L556.889 147.134C556.676 146.614 556.552 146.184 556.519 145.844L556.149 144.374L555.969 143.094L555.599 141.804C555.506 141.437 555.429 141.087 555.369 140.754C555.309 140.414 555.262 140.091 555.229 139.784L555.049 139.054L554.869 138.134C554.742 137.981 554.679 137.797 554.679 137.584L554.499 136.664L554.319 136.114C554.226 135.721 554.149 135.361 554.089 135.034C554.022 134.714 553.976 134.401 553.949 134.094C553.736 133.514 553.576 132.981 553.469 132.494C553.362 132.001 553.276 131.557 553.209 131.164L553.029 130.424L552.849 129.504C552.722 129.137 552.636 128.787 552.589 128.454C552.549 128.114 552.512 127.791 552.479 127.484C552.266 126.877 552.099 126.297 551.979 125.744C551.852 125.191 551.776 124.671 551.749 124.184C551.622 124.031 551.559 123.847 551.559 123.634L551.379 122.894L551.199 122.344C551.106 121.704 550.982 121.094 550.829 120.514L550.459 118.854L550.279 117.754L549.909 116.844L549.539 114.634L549.359 114.084V113.534C549.052 112.801 548.869 112.127 548.809 111.514L548.439 109.314L548.069 108.394L547.709 106.924V106.194C547.342 105.181 547.159 104.324 547.159 103.624C547.032 103.471 546.969 103.287 546.969 103.074L546.789 102.514V101.964C546.482 101.264 546.299 100.531 546.239 99.764C545.932 98.784 545.749 97.8674 545.689 97.014L545.319 97.744L545.139 98.8441L544.589 101.234L544.219 103.254L544.029 103.804L543.299 106.924L543.119 107.664L542.749 109.494L542.569 110.234L542.199 112.254L542.019 112.804L541.279 116.284L540.909 117.574L540.729 118.854C540.396 119.774 540.212 120.571 540.179 121.244L539.999 121.614L539.809 122.714L539.629 123.264L538.709 127.854L538.529 128.404L537.789 131.894L537.609 132.624L537.429 133.544L537.239 134.094L536.509 137.584L536.139 139.054L535.769 140.894L535.589 141.254L535.219 142.914L535.039 143.644L534.859 144.924C534.639 145.691 534.516 146.304 534.489 146.764C534.362 147.071 534.279 147.361 534.239 147.634C534.192 147.914 534.152 148.174 534.119 148.414C533.692 148.481 533.302 148.534 532.949 148.574C532.596 148.621 532.252 148.644 531.919 148.644H531.459C531.306 148.644 531.152 148.631 530.999 148.604H520.349V147.864C519.922 146.764 519.679 145.724 519.619 144.744C519.492 144.591 519.429 144.407 519.429 144.194L519.249 143.274C518.576 141.101 518.146 139.264 517.959 137.764L517.779 137.214L516.859 133.734L516.679 132.264L515.209 126.574V125.834C514.902 125.134 514.719 124.401 514.659 123.634L514.289 122.534L513.929 121.244V120.694L513.009 117.024V116.474L512.819 115.734L512.459 115.004L512.269 113.534C512.029 112.801 511.832 112.127 511.679 111.514C511.526 110.901 511.419 110.351 511.359 109.864L511.169 109.314V108.764C511.049 108.611 510.989 108.427 510.989 108.214L510.619 106.744L510.439 106.194C510.312 105.547 510.196 104.964 510.089 104.444C509.982 103.924 509.852 103.467 509.699 103.074L509.519 101.784C509.306 101.171 509.136 100.604 509.009 100.084C508.889 99.564 508.812 99.0907 508.779 98.6641L508.599 97.744C508.479 97.5907 508.419 97.4074 508.419 97.194L507.499 93.5241L507.129 92.234L506.949 91.324L506.769 90.5841L506.579 89.3041C506.332 88.6574 506.209 88.1041 506.209 87.6441V87.4641L505.849 86.5441L505.659 85.8141C505.539 84.9274 505.356 84.1907 505.109 83.6041V82.8741C504.989 82.7207 504.929 82.5374 504.929 82.3241" fill="white"/>
<path d="M630.383 102.885L630.943 103.985C632.376 105.765 633.293 107.601 633.693 109.495C633.813 110.288 633.903 111.031 633.963 111.725C634.03 112.411 634.063 113.015 634.063 113.535V137.765C635.19 140.005 636.84 141.351 639.013 141.805L638.653 142.355C638.526 142.575 638.403 142.698 638.283 142.725L638.103 143.275L637.733 143.645C637.426 144.318 637.06 144.868 636.633 145.295C636.2 146.428 635.646 147.285 634.973 147.865C634.7 148.478 634.44 149.008 634.193 149.455C633.953 149.895 633.726 150.285 633.513 150.625C629.933 149.705 627.116 148.051 625.063 145.665H624.513C620.566 148.511 616.496 149.935 612.303 149.935C610.036 149.935 607.803 149.551 605.603 148.785C599.023 146.431 595.046 142.148 593.673 135.935V135.705C593.673 123.865 600.603 117.945 614.463 117.945H614.603C614.876 117.818 615.18 117.755 615.513 117.755L616.063 117.575H617.353L617.903 117.395H618.453L623.043 116.845C623.103 116.505 623.133 116.198 623.133 115.925V115.005C623.133 109.891 620.426 107.335 615.013 107.335C611.246 107.335 606.09 108.605 599.543 111.145L598.813 109.495L598.443 108.395L598.073 108.025L597.893 107.665L597.523 106.555C597.19 106.008 596.946 105.458 596.793 104.905C596.146 104.051 595.716 103.195 595.503 102.335L596.053 102.155L596.423 101.965L596.973 101.785L597.343 101.415H597.893C598.013 101.295 598.12 101.235 598.213 101.235H598.263C599.363 100.655 600.34 100.225 601.193 99.9448L602.113 99.7648C602.786 99.4581 603.4 99.2748 603.953 99.2148L605.423 98.8448C606.49 98.4181 607.53 98.1748 608.543 98.1148L612.583 97.3748C613.19 97.3148 613.776 97.2614 614.343 97.2148C614.91 97.1681 615.47 97.1448 616.023 97.1448C621.863 97.1448 626.65 99.0581 630.383 102.885ZM618.633 126.205H617.533C617.26 126.265 616.993 126.311 616.733 126.345C616.473 126.371 616.22 126.385 615.973 126.385H615.703L614.963 126.575H614.413C614.26 126.695 614.076 126.755 613.863 126.755H613.313L610.373 127.485H609.823C608.97 127.978 608.236 128.285 607.623 128.405C605.636 130.305 604.643 132.141 604.643 133.915C604.643 135.535 605.453 137.125 607.073 138.685C609.426 140.125 611.72 140.845 613.953 140.845C616.8 140.845 619.523 139.698 622.123 137.405C622.37 136.698 622.616 136.208 622.863 135.935L623.043 135.385L622.863 134.645V126.015H619.193C619.04 126.141 618.853 126.205 618.633 126.205Z" fill="white"/>
<path d="M651.749 148.781V98.6612H662.949V148.781H651.749ZM664.049 83.9712V84.5712C664.049 87.1112 663.253 89.1746 661.659 90.7612C659.979 91.5879 658.433 92.0012 657.019 92.0012C654.573 92.0012 652.633 90.6712 651.199 88.0112C650.919 86.9379 650.779 85.9912 650.779 85.1712C650.779 82.0446 652.509 79.9312 655.969 78.8312H656.429C660.316 78.8312 662.856 80.5446 664.049 83.9712Z" fill="white"/>
<path d="M392.818 72.2501H342.318V170.25H392.818V72.2501Z" stroke="white" stroke-width="2" stroke-dasharray="5 5"/>
<path d="M444.818 72.2501H394.818V170.25H444.818V72.2501Z" stroke="white" stroke-width="2" stroke-dasharray="5 5"/>
<path d="M471.818 72.2501H446.818V170.25H471.818V72.2501Z" stroke="white" stroke-width="2" stroke-dasharray="5 5"/>
<path d="M496.818 72.2501H473.818V170.25H496.818V72.2501Z" stroke="white" stroke-width="2" stroke-dasharray="5 5"/>
<path d="M588.318 72.2501H498.818V170.25H588.318V72.2501Z" stroke="white" stroke-width="2" stroke-dasharray="5 5"/>
<path d="M643.818 72.2501H590.318V170.25H643.818V72.2501Z" stroke="white" stroke-width="2" stroke-dasharray="5 5"/>
<path d="M670.818 72.2501H645.818V170.25H670.818V72.2501Z" stroke="white" stroke-width="2" stroke-dasharray="5 5"/>
<path d="M837.318 313.962V198.75" stroke="#46C147" stroke-width="3.03189"/>
<path d="M862.318 223.005H837.318" stroke="#46C147" stroke-width="3.03189"/>
<path d="M862.318 223.005L898.7 232.101V213.91L862.318 223.005Z" fill="#46C147"/>
<path d="M837.318 223.005L800.935 232.101V213.91L837.318 223.005Z" fill="#46C147"/>
<path d="M814.739 188V185.674L823.473 176.114C824.498 174.994 825.342 174.021 826.005 173.194C826.669 172.358 827.159 171.574 827.478 170.842C827.805 170.101 827.969 169.326 827.969 168.517C827.969 167.586 827.745 166.781 827.297 166.101C826.858 165.42 826.255 164.895 825.488 164.524C824.722 164.154 823.861 163.969 822.904 163.969C821.888 163.969 821.001 164.18 820.243 164.602C819.494 165.015 818.912 165.597 818.499 166.346C818.094 167.095 817.892 167.974 817.892 168.982H814.842C814.842 167.431 815.2 166.07 815.915 164.899C816.63 163.728 817.603 162.815 818.835 162.16C820.075 161.505 821.466 161.178 823.008 161.178C824.558 161.178 825.932 161.505 827.129 162.16C828.327 162.815 829.265 163.697 829.946 164.809C830.626 165.92 830.967 167.156 830.967 168.517C830.967 169.49 830.79 170.442 830.437 171.372C830.092 172.294 829.489 173.323 828.628 174.46C827.775 175.588 826.591 176.966 825.075 178.594L819.132 184.951V185.158H831.432V188H814.739ZM850.876 172.599L848.137 173.375C847.965 172.918 847.711 172.474 847.375 172.044C847.048 171.605 846.6 171.243 846.031 170.959C845.463 170.674 844.735 170.532 843.848 170.532C842.633 170.532 841.621 170.812 840.812 171.372C840.011 171.923 839.61 172.625 839.61 173.478C839.61 174.236 839.886 174.835 840.437 175.274C840.988 175.713 841.85 176.079 843.021 176.372L845.967 177.096C847.741 177.526 849.063 178.185 849.933 179.072C850.803 179.951 851.238 181.083 851.238 182.47C851.238 183.607 850.911 184.624 850.256 185.519C849.61 186.415 848.706 187.121 847.543 187.638C846.38 188.155 845.028 188.413 843.486 188.413C841.462 188.413 839.787 187.974 838.46 187.096C837.134 186.217 836.294 184.934 835.941 183.245L838.835 182.522C839.11 183.59 839.632 184.391 840.398 184.925C841.173 185.459 842.185 185.726 843.434 185.726C844.856 185.726 845.984 185.425 846.819 184.822C847.664 184.21 848.086 183.478 848.086 182.625C848.086 181.936 847.844 181.359 847.362 180.894C846.88 180.42 846.139 180.067 845.14 179.835L841.832 179.059C840.015 178.629 838.68 177.961 837.827 177.057C836.983 176.144 836.561 175.002 836.561 173.633C836.561 172.513 836.875 171.523 837.504 170.661C838.141 169.8 839.007 169.124 840.101 168.633C841.204 168.142 842.452 167.896 843.848 167.896C845.812 167.896 847.353 168.327 848.473 169.188C849.602 170.05 850.403 171.187 850.876 172.599ZM860.324 188L854.277 168.155H857.482L861.771 183.349H861.978L866.216 168.155H869.471L873.657 183.297H873.864L878.154 168.155H881.358L875.311 188H872.314L867.973 172.754H867.663L863.321 188H860.324Z" fill="#46C147"/>
<path d="M862.318 198.75V313.962" stroke="#46C147" stroke-width="3.03189"/>
<path d="M862.318 313.75H977.53" stroke="#FF0000" stroke-width="3.03189"/>
<path d="M837.318 313.75H977.53" stroke="#FF0000" stroke-width="3.03189"/>
<path d="M953.274 313.75L944.179 350.133H962.37L953.274 313.75Z" fill="#FF0000"/>
<path d="M953.274 313.75L944.179 277.367H962.37L953.274 313.75Z" fill="#FF0000"/>
<path d="M1008.08 323.309C1006.13 323.309 1004.47 322.78 1003.11 321.72C1001.74 320.652 1000.69 319.106 999.966 317.082C999.242 315.049 998.88 312.594 998.88 309.718C998.88 306.858 999.242 304.416 999.966 302.392C1000.7 300.359 1001.75 298.809 1003.12 297.741C1004.5 296.664 1006.15 296.126 1008.08 296.126C1010.01 296.126 1011.66 296.664 1013.03 297.741C1014.41 298.809 1015.46 300.359 1016.18 302.392C1016.91 304.416 1017.28 306.858 1017.28 309.718C1017.28 312.594 1016.92 315.049 1016.19 317.082C1015.47 319.106 1014.42 320.652 1013.05 321.72C1011.68 322.78 1010.03 323.309 1008.08 323.309ZM1008.08 320.467C1010.01 320.467 1011.51 319.537 1012.58 317.676C1013.64 315.816 1014.18 313.163 1014.18 309.718C1014.18 307.426 1013.93 305.475 1013.44 303.865C1012.96 302.254 1012.26 301.027 1011.35 300.183C1010.44 299.338 1009.35 298.916 1008.08 298.916C1006.17 298.916 1004.67 299.86 1003.6 301.746C1002.52 303.624 1001.98 306.281 1001.98 309.718C1001.98 312.009 1002.22 313.955 1002.7 315.557C1003.19 317.159 1003.88 318.378 1004.78 319.214C1005.7 320.049 1006.8 320.467 1008.08 320.467ZM1036.3 307.547L1033.56 308.322C1033.39 307.866 1033.13 307.422 1032.8 306.991C1032.47 306.552 1032.02 306.19 1031.45 305.906C1030.88 305.622 1030.16 305.48 1029.27 305.48C1028.05 305.48 1027.04 305.76 1026.23 306.32C1025.43 306.871 1025.03 307.573 1025.03 308.426C1025.03 309.183 1025.31 309.782 1025.86 310.221C1026.41 310.661 1027.27 311.027 1028.44 311.32L1031.39 312.043C1033.16 312.474 1034.48 313.133 1035.35 314.02C1036.22 314.898 1036.66 316.031 1036.66 317.418C1036.66 318.555 1036.33 319.571 1035.68 320.467C1035.03 321.363 1034.13 322.069 1032.96 322.586C1031.8 323.103 1030.45 323.361 1028.91 323.361C1026.88 323.361 1025.21 322.922 1023.88 322.043C1022.55 321.165 1021.71 319.881 1021.36 318.193L1024.26 317.47C1024.53 318.538 1025.05 319.339 1025.82 319.873C1026.59 320.407 1027.61 320.674 1028.85 320.674C1030.28 320.674 1031.4 320.372 1032.24 319.769C1033.08 319.158 1033.51 318.426 1033.51 317.573C1033.51 316.884 1033.26 316.307 1032.78 315.842C1032.3 315.368 1031.56 315.015 1030.56 314.782L1027.25 314.007C1025.44 313.576 1024.1 312.909 1023.25 312.004C1022.4 311.091 1021.98 309.95 1021.98 308.581C1021.98 307.461 1022.3 306.47 1022.92 305.609C1023.56 304.748 1024.43 304.071 1025.52 303.581C1026.62 303.09 1027.87 302.844 1029.27 302.844C1031.23 302.844 1032.77 303.275 1033.89 304.136C1035.02 304.997 1035.82 306.134 1036.3 307.547ZM1045.74 322.948L1039.7 303.102H1042.9L1047.19 318.296H1047.4L1051.64 303.102H1054.89L1059.08 318.245H1059.28L1063.57 303.102H1066.78L1060.73 322.948H1057.73L1053.39 307.702H1053.08L1048.74 322.948H1045.74Z" fill="#FF0000"/>
</svg>
