<svg width="815" height="990" viewBox="0 0 815 990" fill="none" xmlns="http://www.w3.org/2000/svg">
<path d="M20 57.5C20 36.7894 36.7893 20 57.5 20H757.5C778.211 20 795 36.7894 795 57.5V932.5C795 953.211 778.211 970 757.5 970H57.5C36.7893 970 20 953.211 20 932.5V57.5Z" fill="white"/>
<path d="M38.75 57.5C38.75 47.1447 47.1447 38.75 57.5 38.75H757.5C767.855 38.75 776.25 47.1447 776.25 57.5V932.5C776.25 942.855 767.855 951.25 757.5 951.25H57.5C47.1447 951.25 38.75 942.855 38.75 932.5V57.5Z" fill="#0033A2"/>
<path d="M506.75 705.873L540.901 696.723L650.5 759.995C654.367 762.228 659.131 762.228 662.998 759.997C666.865 757.765 669.248 753.64 669.25 749.175V763.608V835.777V835.78C669.252 831.313 666.869 827.184 663 824.95L515.901 740.024L506.75 705.873Z" fill="white"/>
<path d="M198.912 250.888V241.778H251.902V250.888H198.912ZM192.052 268.998V260.108H259.322V268.998H192.052ZM176.632 287.898V278.678H274.512V287.898H176.632ZM190.472 225.798V217.248H229.622V225.798H190.472ZM220.512 222.988V217.248H232.102C234.502 220.321 237.409 223.301 240.822 226.188C244.236 229.081 248.002 231.765 252.122 234.238C256.249 236.711 260.562 238.925 265.062 240.878C269.562 242.825 274.099 244.475 278.672 245.828C277.852 246.428 276.916 247.215 275.862 248.188C274.816 249.161 273.802 250.175 272.822 251.228C271.849 252.275 271.062 253.248 270.462 254.148C264.462 251.975 258.539 249.275 252.692 246.048C246.839 242.821 241.419 239.241 236.432 235.308C231.446 231.368 227.152 227.261 223.552 222.988H220.512ZM218.042 218.378L227.712 222.088C224.039 227.035 219.576 231.608 214.322 235.808C209.076 240.008 203.469 243.721 197.502 246.948C191.542 250.175 185.526 252.988 179.452 255.388C178.926 254.635 178.212 253.735 177.312 252.688C176.412 251.635 175.476 250.601 174.502 249.588C173.529 248.581 172.666 247.778 171.912 247.178C178.066 245.298 184.066 242.935 189.912 240.088C195.766 237.235 201.109 233.971 205.942 230.298C210.782 226.625 214.816 222.651 218.042 218.378ZM219.842 285.088V245.938H230.752V285.088H219.842ZM175.852 205.658V195.878H275.302V205.658H175.852ZM199.812 214.998V187.328H210.392V214.998H199.812ZM240.092 215.558V187.328H250.662V215.558" fill="white"/>
<path d="M362.178 195.091V189.581H381.858V195.091H362.178ZM361.498 213.431V208.031H382.648V213.431H361.498ZM361.498 221.861V216.581H382.648V221.861H361.498ZM345.078 275.191V268.331H402.108V275.191H345.078ZM358.238 204.541V198.581H385.238V204.541H358.238ZM375.898 230.751H367.908V237.161H375.898V230.751ZM361.268 242.341V225.581H382.758V242.341H361.268ZM346.988 263.601V257.191H393.668V252.351H340.008V245.941H403.578V263.601H346.988ZM343.158 243.911V218.381H350.248V243.911H343.158ZM332.928 222.311L332.138 215.451C335.438 215.304 339.131 215.154 343.218 215.001C347.304 214.854 351.634 214.667 356.208 214.441V220.631C352.008 221.004 347.941 221.304 344.008 221.531C340.068 221.751 336.374 222.011 332.928 222.311ZM343.948 257.191H353.848C352.948 260.791 351.974 264.541 350.928 268.441C349.874 272.341 348.898 275.714 347.998 278.561L338.438 277.211C339.484 274.437 340.498 271.231 341.478 267.591C342.451 263.957 343.274 260.491 343.948 257.191ZM398.738 269.451V268.331H408.748C408.748 268.331 408.711 268.834 408.638 269.841C408.564 270.854 408.414 271.701 408.188 272.381C407.134 277.027 406.044 280.681 404.918 283.341C403.798 286.007 402.488 287.941 400.988 289.141C399.714 290.041 398.344 290.657 396.878 290.991C395.418 291.331 393.674 291.537 391.648 291.611C389.921 291.691 387.464 291.711 384.278 291.671C381.091 291.631 377.698 291.537 374.098 291.391C374.024 290.191 373.724 288.841 373.198 287.341C372.671 285.841 372.034 284.491 371.288 283.291C374.814 283.664 378.228 283.887 381.528 283.961C384.828 284.041 387.151 284.081 388.498 284.081C389.698 284.081 390.671 284.041 391.418 283.961C392.171 283.887 392.811 283.664 393.338 283.291C394.384 282.464 395.341 280.981 396.208 278.841C397.068 276.707 397.911 273.577 398.738 269.451ZM351.598 226.361L356.998 225.131C357.598 227.004 358.178 229.064 358.738 231.311C359.304 233.564 359.738 235.514 360.038 237.161L354.188 238.741C354.034 237.014 353.714 235.007 353.228 232.721C352.741 230.434 352.198 228.314 351.598 226.361ZM351.258 211.061L356.098 209.261C357.071 211.141 357.971 213.241 358.798 215.561C359.624 217.887 360.188 219.914 360.488 221.641L355.198 223.661C354.971 221.941 354.484 219.917 353.738 217.591C352.984 215.264 352.158 213.087 351.258 211.061ZM333.258 202.181L336.858 196.781C339.038 198.201 341.174 199.831 343.268 201.671C345.374 203.511 346.951 205.104 347.998 206.451L343.948 212.641C342.821 211.067 341.248 209.304 339.228 207.351C337.201 205.404 335.211 203.681 333.258 202.181ZM343.948 186.991L350.358 190.141C348.858 192.614 347.358 195.127 345.858 197.681C344.358 200.227 342.934 202.364 341.588 204.091L336.638 201.501C337.838 199.554 339.151 197.174 340.578 194.361C341.998 191.547 343.121 189.091 343.948 186.991ZM351.148 196.331L357.448 199.931C354.974 203.304 352.331 206.864 349.518 210.611C346.704 214.364 344.061 217.514 341.588 220.061L336.858 217.141C338.438 215.267 340.128 213.131 341.928 210.731C343.728 208.331 345.431 205.854 347.038 203.301C348.651 200.754 350.021 198.431 351.148 196.331ZM335.738 224.681L342.378 226.141C341.698 229.067 340.871 231.991 339.898 234.911C338.924 237.837 337.874 240.351 336.748 242.451C336.074 242.004 335.098 241.497 333.818 240.931C332.544 240.371 331.498 239.904 330.678 239.531C331.951 237.431 332.998 235.084 333.818 232.491C334.644 229.904 335.284 227.301 335.738 224.681ZM395.138 243.911V218.381H402.338V243.911H395.138ZM384.788 222.311L384.108 215.451C387.561 215.304 391.444 215.154 395.758 215.001C400.071 214.854 404.664 214.704 409.538 214.551L409.418 220.741C404.998 221.041 400.704 221.321 396.538 221.581C392.378 221.847 388.461 222.091 384.788 222.311ZM403.908 226.361L409.648 224.681C410.621 226.927 411.578 229.401 412.518 232.101C413.451 234.801 414.108 237.127 414.488 239.081L408.528 240.991C408.228 239.037 407.628 236.674 406.728 233.901C405.828 231.127 404.888 228.614 403.908 226.361ZM403.008 210.841L408.298 208.481C409.571 210.427 410.751 212.581 411.838 214.941C412.931 217.307 413.701 219.391 414.148 221.191L408.408 223.781C408.034 221.981 407.341 219.861 406.328 217.421C405.314 214.981 404.208 212.787 403.008 210.841ZM384.338 201.951L388.158 196.891C390.111 198.237 392.061 199.794 394.008 201.561C395.961 203.321 397.461 204.914 398.508 206.341L394.128 212.191C393.148 210.691 391.741 208.964 389.908 207.011C388.068 205.064 386.211 203.377 384.338 201.951ZM395.358 187.101L401.778 190.361C400.198 192.841 398.621 195.334 397.048 197.841C395.474 200.354 393.974 202.511 392.548 204.311L387.598 201.731C388.871 199.777 390.258 197.394 391.758 194.581C393.258 191.767 394.458 189.274 395.358 187.101ZM403.348 195.881L409.648 199.481C407.101 202.854 404.328 206.414 401.328 210.161C398.328 213.914 395.478 217.064 392.778 219.611L388.158 216.691C389.884 214.817 391.684 212.681 393.558 210.281C395.438 207.881 397.238 205.404 398.958 202.851C400.684 200.304 402.148 197.981 403.348 195.881ZM387.598 224.681L394.128 226.251C393.601 229.024 392.851 231.854 391.878 234.741C390.898 237.634 389.848 240.091 388.728 242.111C388.128 241.737 387.228 241.231 386.028 240.591C384.828 239.957 383.778 239.454 382.878 239.081C384.071 236.981 385.044 234.691 385.798 232.211C386.544 229.737 387.144 227.227 387.598 224.681ZM311.098 195.761L317.288 188.791C319.161 189.764 321.128 190.944 323.188 192.331C325.254 193.717 327.188 195.104 328.988 196.491C330.788 197.884 332.251 199.217 333.378 200.491L326.958 208.361C325.911 207.087 324.504 205.701 322.738 204.201C320.978 202.701 319.084 201.221 317.058 199.761C315.038 198.294 313.051 196.961 311.098 195.761ZM308.738 225.801L314.588 218.491C316.534 219.391 318.578 220.497 320.718 221.811C322.858 223.124 324.844 224.434 326.678 225.741C328.518 227.054 330.038 228.311 331.238 229.511L325.048 237.611C323.921 236.411 322.441 235.101 320.608 233.681C318.768 232.254 316.798 230.847 314.698 229.461C312.598 228.074 310.611 226.854 308.738 225.801ZM320.548 290.381L310.988 284.981C312.414 281.981 313.931 278.491 315.538 274.511C317.151 270.537 318.801 266.337 320.488 261.911C322.181 257.491 323.738 253.141 325.158 248.861L333.598 254.261C332.398 258.241 331.048 262.331 329.548 266.531C328.048 270.731 326.548 274.854 325.048 278.901C323.548 282.954 322.048 286.781 320.548 290.381Z" fill="white"/>
<path d="M291.25 180.223H155.75V320.723H291.25V180.223Z" stroke="white" stroke-width="2" stroke-dasharray="5 5"/>
<path d="M428.75 180.223H293.25V320.723H428.75V180.223Z" stroke="white" stroke-width="2" stroke-dasharray="5 5"/>
<path d="M90.5 622.238V611.208H189.95V622.238H90.5ZM135.84 618.188L146.52 615.598C148.927 624.451 152.173 632.701 156.26 640.348C160.347 648.001 165.37 654.695 171.33 660.428C177.297 666.168 184.217 670.688 192.09 673.988C191.19 674.735 190.233 675.708 189.22 676.908C188.207 678.108 187.25 679.328 186.35 680.568C185.45 681.808 184.7 682.915 184.1 683.888C175.773 679.988 168.517 674.831 162.33 668.418C156.143 662.005 150.913 654.561 146.64 646.088C142.367 637.615 138.767 628.315 135.84 618.188ZM134.15 579.828H145.74C145.74 585.148 145.607 590.865 145.34 596.978C145.08 603.091 144.5 609.375 143.6 615.828C142.7 622.275 141.237 628.725 139.21 635.178C137.19 641.625 134.377 647.848 130.77 653.848C127.177 659.848 122.567 665.418 116.94 670.558C111.313 675.691 104.45 680.171 96.35 683.998C95.45 682.571 94.25 681.015 92.75 679.328C91.25 677.641 89.75 676.235 88.25 675.108C96.05 671.588 102.63 667.481 107.99 662.788C113.357 658.101 117.707 653.001 121.04 647.488C124.38 641.981 126.95 636.265 128.75 630.338C130.55 624.411 131.827 618.485 132.58 612.558C133.327 606.638 133.777 600.901 133.93 595.348C134.077 589.801 134.15 584.628 134.15 579.828Z" fill="white"/>
<path d="M245.892 617.85V611.78H309.232V617.85H245.892ZM246.452 660.38V654.19H309.342V660.38H246.452ZM277.162 667.8V636.64H286.732V667.8H277.162ZM292.692 626.85H261.982V633.04H292.692V626.85ZM252.982 638.1V621.56H302.142V638.1H252.982ZM268.952 594.45L277.842 595.58C277.016 598.654 276.076 601.914 275.022 605.36C273.976 608.814 273.002 611.777 272.102 614.25H262.762C263.816 611.55 264.902 608.364 266.022 604.69C267.149 601.017 268.126 597.604 268.952 594.45ZM252.412 606.26V600.53H299.552V615.04H290.662V606.26H252.412ZM229.912 684.34V584.44H325.092V684.34H314.632V594.11H240.042V684.34H229.912ZM236.332 679.84V670.16H320.252V679.84H236.332ZM254.332 658.58V642.26H304.502V648.34H262.652V658.58" fill="white"/>
<path d="M207.25 572.723H71.75V713.223H207.25V572.723Z" stroke="white" stroke-width="2" stroke-dasharray="5 5"/>
<path d="M344.75 572.723H209.25V713.223H344.75V572.723Z" stroke="white" stroke-width="2" stroke-dasharray="5 5"/>
<path d="M156.27 97.2732V86.2532H206.94V97.2732H187.66V156.573H175.55V97.2732" fill="white"/>
<path d="M249.659 112.5L249.109 113.24L248.559 113.79L248.009 114.16L247.269 115.26L246.909 115.63L246.539 115.81C246.139 116.363 245.772 116.79 245.439 117.09L243.049 119.85C237.969 116.576 233.762 114.94 230.429 114.94C227.002 114.94 224.479 116.636 222.859 120.03C222.919 122.023 223.712 123.493 225.239 124.44C225.912 124.62 226.402 124.803 226.709 124.99C227.902 125.17 228.882 125.413 229.649 125.72C241.242 126.58 247.729 131.233 249.109 139.68C249.169 140.046 249.199 140.403 249.199 140.75C249.199 141.103 249.199 141.45 249.199 141.79C249.199 147.936 246.599 152.556 241.399 155.65C237.665 157.33 233.915 158.17 230.149 158.17C222.989 158.17 215.845 155.126 208.719 149.04L209.089 148.31L209.999 147.39C210.612 146.656 211.165 146.103 211.659 145.73C211.779 145.516 211.899 145.396 212.019 145.37L212.389 144.82C212.509 144.606 212.632 144.483 212.759 144.45L212.939 144.08L213.309 143.9L215.699 141.14C220.225 145.426 224.965 147.57 229.919 147.57C231.999 147.57 234.112 147.203 236.259 146.47C236.805 145.736 237.355 145.186 237.909 144.82C238.095 144.086 238.189 143.396 238.189 142.75C238.189 141.156 237.669 139.826 236.629 138.76L232.399 137.29C219.792 136.523 212.939 131.136 211.839 121.13C212.665 111.063 218.355 105.68 228.909 104.98H229.559C237.665 104.98 244.365 107.486 249.659 112.5Z" fill="white"/>
<path d="M262.037 142.248V106.448H273.057V138.208C273.177 138.362 273.237 138.545 273.237 138.758C273.364 138.852 273.427 138.942 273.427 139.028V139.128C273.64 140.502 273.944 141.725 274.337 142.798C276.45 145.732 279.16 147.198 282.467 147.198H282.607C286.707 146.098 289.58 143.835 291.227 140.408V139.858L291.967 137.658V106.448H303.167V156.568H291.967V152.528C287.56 156.135 283.17 157.938 278.797 157.938C275.397 157.938 271.954 156.868 268.467 154.728C265.62 152.555 263.66 149.985 262.587 147.018L262.407 145.728C262.134 144.842 261.997 143.972 261.997 143.118V142.708C261.997 142.555 262.01 142.402 262.037 142.248Z" fill="white"/>
<path d="M361.586 127.017L361.766 129.767C361.886 129.92 361.946 130.104 361.946 130.317V135.827H328.356C329.056 142.067 332.236 145.74 337.896 146.847C338.816 146.934 339.719 146.977 340.606 146.977C345.226 146.977 349.159 145.464 352.406 142.437C352.799 143.11 353.289 143.66 353.876 144.087L354.056 144.637L354.606 145.187C355.033 145.587 355.399 145.964 355.706 146.317C356.013 146.67 356.259 147.03 356.446 147.397C356.659 147.517 356.779 147.637 356.806 147.757L359.376 150.697C353.563 155.564 347.366 157.997 340.786 157.997C339.659 157.997 338.513 157.92 337.346 157.767C336.186 157.614 335.023 157.4 333.856 157.127C323.269 153.607 317.456 146.017 316.416 134.357C316.416 134.204 316.409 133.897 316.396 133.437C316.383 132.984 316.376 132.694 316.376 132.567C316.376 116.627 323.549 107.554 337.896 105.347C352.156 105.84 360.053 113.064 361.586 127.017ZM328.166 127.197H350.386V126.647C350.259 126.28 350.196 125.914 350.196 125.547V125.177C349.889 124.504 349.706 123.894 349.646 123.347C347.386 118.114 343.653 115.48 338.446 115.447C331.899 117.007 328.473 120.924 328.166 127.197Z" fill="white"/>
<path d="M414.8 115.26V115.81C415.2 116.543 415.447 117.276 415.54 118.01V156.38H404.34V123.89L404.15 122.79C402.623 118.163 400.053 115.85 396.44 115.85C395.34 115.85 394.117 116.08 392.77 116.54C389.71 117.86 387.507 119.943 386.16 122.79L385.43 125.91V156.38H374.41V106.26H385.43V110.48C388.857 107.42 392.59 105.586 396.63 104.98H397.45C405.65 104.98 411.433 108.406 414.8 115.26Z" fill="white"/>
<path d="M453.941 86.8068V86.4368H466.611L466.791 87.7268L466.981 88.2768L467.341 89.5668L467.711 91.7668L468.261 93.5968L468.631 95.8068L469.181 97.6368L469.361 99.1068C469.575 99.6268 469.698 100.057 469.731 100.397L469.911 101.127L470.281 102.227V102.967C470.401 103.06 470.461 103.15 470.461 103.237V103.887C470.801 104.56 470.988 105.293 471.021 106.087L471.381 107.187L471.751 108.477L472.121 110.677L472.671 112.507L472.851 113.617L473.951 118.207C474.045 118.633 474.131 119.023 474.211 119.377C474.285 119.723 474.321 120.067 474.321 120.407L474.691 121.137V121.877L475.051 122.797V123.527L475.421 124.257V124.997C475.761 125.917 475.945 126.713 475.971 127.387L476.161 128.117C476.375 128.73 476.541 129.297 476.661 129.817C476.781 130.337 476.858 130.81 476.891 131.237L477.261 132.707L477.631 133.987L477.991 132.887L478.731 129.217L479.091 128.297L479.281 127.197L479.831 124.627L480.201 123.347V122.797L480.931 119.857L481.111 118.757L481.481 118.017L481.661 117.287L481.851 116.367V115.637L482.031 115.077L482.771 112.147L483.131 109.937L483.321 109.207L483.681 108.477C483.748 107.497 483.931 106.637 484.231 105.897L484.421 104.987V104.437L484.791 102.967L484.971 102.417L485.521 100.027L485.701 98.9268L486.071 97.8268L486.251 96.9068L486.801 94.5168L486.991 93.5968L487.171 93.2368C487.205 92.8968 487.245 92.5668 487.291 92.2468C487.338 91.9268 487.421 91.6434 487.541 91.3968L487.721 90.8468V90.2968L487.911 89.5668L488.091 89.0068L488.641 86.4368H502.231V86.9868C502.658 88.0601 502.901 89.1034 502.961 90.1168L503.331 91.5768L503.511 92.1368L504.251 95.4368L504.611 96.9068C504.858 97.7934 504.981 98.5268 504.981 99.1068C505.195 99.6268 505.318 100.057 505.351 100.397L505.711 101.677L505.901 102.967L506.081 103.697L506.271 104.247C506.358 104.647 506.435 105.007 506.501 105.327C506.561 105.647 506.605 105.96 506.631 106.267C506.878 106.847 507.048 107.383 507.141 107.877C507.235 108.363 507.311 108.807 507.371 109.207L507.551 110.307L507.921 111.227L508.101 112.327V112.877C508.408 113.61 508.591 114.283 508.651 114.897L508.841 115.997C509.141 116.73 509.325 117.403 509.391 118.017L509.571 118.937L510.121 120.957V121.687C510.241 121.967 510.301 122.273 510.301 122.607C510.641 123.313 510.828 123.927 510.861 124.447L511.041 125.367L511.221 126.467L511.411 127.197C511.718 128.143 511.901 129 511.961 129.767C512.081 129.86 512.141 129.953 512.141 130.047V130.687C512.568 131.76 512.815 132.8 512.881 133.807C513.061 133.747 513.181 133.623 513.241 133.437C513.395 132.677 513.548 132.013 513.701 131.447C513.855 130.88 514.008 130.383 514.161 129.957V129.217C514.561 128.117 514.805 127.137 514.891 126.277L515.261 124.997L516.001 122.057L516.181 120.587L516.551 119.307L516.731 118.757V118.207C516.945 117.62 517.115 117.09 517.241 116.617C517.361 116.143 517.435 115.693 517.461 115.267L517.831 113.977L519.301 107.917L519.851 104.987L520.221 103.517C520.555 102.63 520.738 101.897 520.771 101.317L520.951 100.397L521.321 98.9268C521.595 98.0401 521.778 97.3068 521.871 96.7268L522.051 95.9868L522.611 93.4168L522.971 92.3168V91.7668L523.521 90.2968V89.5668L523.711 89.0068L524.261 86.4368H536.741L536.011 90.1168L535.461 92.3168L535.271 92.8668L534.721 95.4368L534.361 96.9068L533.991 98.1868L533.251 101.867L532.891 103.147L532.151 106.637L531.791 107.917L531.601 108.477L531.231 110.487L531.051 110.857L530.871 112.147C530.565 113.153 530.381 114.01 530.321 114.717L529.581 116.917L529.401 118.207L529.211 118.937L529.031 119.487L528.851 120.777L528.661 121.327L527.561 125.917L527.381 127.197L527.011 128.487L526.091 132.157L525.911 133.437L524.811 138.027L524.261 140.597C523.921 141.517 523.738 142.313 523.711 142.987L522.971 145.377V146.107C522.638 147.027 522.455 147.823 522.421 148.497C522.115 149.503 521.931 150.36 521.871 151.067L521.501 152.347L521.321 152.717L521.141 154.007C520.835 155.013 520.651 155.87 520.591 156.577H507.001L506.821 155.107C506.608 154.587 506.485 154.157 506.451 153.817L506.081 152.347L505.901 151.067L505.531 149.777C505.438 149.41 505.361 149.06 505.301 148.727C505.241 148.387 505.195 148.063 505.161 147.757L504.981 147.027L504.801 146.107C504.675 145.953 504.611 145.77 504.611 145.557L504.431 144.637L504.251 144.087C504.158 143.693 504.081 143.333 504.021 143.007C503.955 142.687 503.908 142.373 503.881 142.067C503.668 141.487 503.508 140.953 503.401 140.467C503.295 139.973 503.208 139.53 503.141 139.137L502.961 138.397L502.781 137.477C502.655 137.11 502.568 136.76 502.521 136.427C502.481 136.087 502.445 135.763 502.411 135.457C502.198 134.85 502.031 134.27 501.911 133.717C501.785 133.163 501.708 132.643 501.681 132.157C501.555 132.003 501.491 131.82 501.491 131.607L501.311 130.867L501.131 130.317C501.038 129.677 500.915 129.067 500.761 128.487L500.391 126.827L500.211 125.727L499.841 124.817L499.471 122.607L499.291 122.057V121.507C498.985 120.773 498.801 120.1 498.741 119.487L498.371 117.287L498.001 116.367L497.641 114.897V114.167C497.275 113.153 497.091 112.297 497.091 111.597C496.965 111.443 496.901 111.26 496.901 111.047L496.721 110.487V109.937C496.415 109.237 496.231 108.503 496.171 107.737C495.865 106.757 495.681 105.84 495.621 104.987L495.251 105.717L495.071 106.817L494.521 109.207L494.151 111.227L493.961 111.777L493.231 114.897L493.051 115.637L492.681 117.467L492.501 118.207L492.131 120.227L491.951 120.777L491.211 124.257L490.841 125.547L490.661 126.827C490.328 127.747 490.145 128.543 490.111 129.217L489.931 129.587L489.741 130.687L489.561 131.237L488.641 135.827L488.461 136.377L487.721 139.867L487.541 140.597L487.361 141.517L487.171 142.067L486.441 145.557L486.071 147.027L485.701 148.867L485.521 149.227L485.151 150.887L484.971 151.617L484.791 152.897C484.571 153.663 484.448 154.277 484.421 154.737C484.295 155.043 484.211 155.333 484.171 155.607C484.125 155.887 484.085 156.147 484.051 156.387C483.625 156.453 483.235 156.507 482.881 156.547C482.528 156.593 482.185 156.617 481.851 156.617H481.391C481.238 156.617 481.085 156.603 480.931 156.577H470.281V155.837C469.855 154.737 469.611 153.697 469.551 152.717C469.425 152.563 469.361 152.38 469.361 152.167L469.181 151.247C468.508 149.073 468.078 147.237 467.891 145.737L467.711 145.187L466.791 141.707L466.611 140.237L465.141 134.547V133.807C464.835 133.107 464.651 132.373 464.591 131.607L464.221 130.507L463.861 129.217V128.667L462.941 124.997V124.447L462.751 123.707L462.391 122.977L462.201 121.507C461.961 120.773 461.765 120.1 461.611 119.487C461.458 118.873 461.351 118.323 461.291 117.837L461.101 117.287V116.737C460.981 116.583 460.921 116.4 460.921 116.187L460.551 114.717L460.371 114.167C460.245 113.52 460.128 112.937 460.021 112.417C459.915 111.897 459.785 111.44 459.631 111.047L459.451 109.757C459.238 109.143 459.068 108.577 458.941 108.057C458.821 107.537 458.745 107.063 458.711 106.637L458.531 105.717C458.411 105.563 458.351 105.38 458.351 105.167L457.431 101.497L457.061 100.207L456.881 99.2968L456.701 98.5568L456.511 97.2768C456.265 96.6301 456.141 96.0768 456.141 95.6168V95.4368L455.781 94.5168L455.591 93.7868C455.471 92.9001 455.288 92.1634 455.041 91.5768V90.8468C454.921 90.6934 454.861 90.5101 454.861 90.2968" fill="white"/>
<path d="M580.316 110.857L580.876 111.957C582.309 113.737 583.226 115.574 583.626 117.467C583.746 118.261 583.836 119.004 583.896 119.697C583.962 120.384 583.996 120.987 583.996 121.507V145.737C585.122 147.977 586.772 149.324 588.946 149.777L588.586 150.327C588.459 150.547 588.336 150.671 588.216 150.697L588.036 151.247L587.666 151.617C587.359 152.291 586.992 152.841 586.566 153.267C586.132 154.401 585.579 155.257 584.906 155.837C584.632 156.451 584.372 156.981 584.126 157.427C583.886 157.867 583.659 158.257 583.446 158.597C579.866 157.677 577.049 156.024 574.996 153.637H574.446C570.499 156.484 566.429 157.907 562.236 157.907C559.969 157.907 557.736 157.524 555.536 156.757C548.956 154.404 544.979 150.121 543.606 143.907V143.677C543.606 131.837 550.536 125.917 564.396 125.917H564.536C564.809 125.791 565.112 125.727 565.446 125.727L565.996 125.547H567.286L567.836 125.367H568.386L572.976 124.817C573.036 124.477 573.066 124.171 573.066 123.897V122.977C573.066 117.864 570.359 115.307 564.946 115.307C561.179 115.307 556.022 116.577 549.476 119.117L548.746 117.467L548.376 116.367L548.006 115.997L547.826 115.637L547.456 114.527C547.122 113.981 546.879 113.431 546.726 112.877C546.079 112.024 545.649 111.167 545.436 110.307L545.986 110.127L546.356 109.937L546.906 109.757L547.276 109.387H547.826C547.946 109.267 548.052 109.207 548.146 109.207H548.196C549.296 108.627 550.272 108.197 551.126 107.917L552.046 107.737C552.719 107.431 553.332 107.247 553.886 107.187L555.356 106.817C556.422 106.391 557.462 106.147 558.476 106.087L562.516 105.347C563.122 105.287 563.709 105.234 564.276 105.187C564.842 105.141 565.402 105.117 565.956 105.117C571.796 105.117 576.582 107.031 580.316 110.857ZM568.566 134.177H567.466C567.192 134.237 566.926 134.284 566.666 134.317C566.406 134.344 566.152 134.357 565.906 134.357H565.636L564.896 134.547H564.346C564.192 134.667 564.009 134.727 563.796 134.727H563.246L560.306 135.457H559.756C558.902 135.951 558.169 136.257 557.556 136.377C555.569 138.277 554.576 140.114 554.576 141.887C554.576 143.507 555.386 145.097 557.006 146.657C559.359 148.097 561.652 148.817 563.886 148.817C566.732 148.817 569.456 147.671 572.056 145.377C572.302 144.671 572.549 144.181 572.796 143.907L572.976 143.357L572.796 142.617V133.987H569.126C568.972 134.114 568.786 134.177 568.566 134.177Z" fill="white"/>
<path d="M642.8 115.26V115.81C643.2 116.543 643.447 117.276 643.54 118.01V156.38H632.34V123.89L632.15 122.79C630.624 118.163 628.054 115.85 624.44 115.85C623.34 115.85 622.117 116.08 620.77 116.54C617.71 117.86 615.507 119.943 614.16 122.79L613.43 125.91V156.38H602.41V106.26H613.43V110.48C616.857 107.42 620.59 105.586 624.63 104.98H625.45C633.65 104.98 639.434 108.406 642.8 115.26Z" fill="white"/>
<path d="M206.25 80.2228H155.75V178.223H206.25V80.2228Z" stroke="white" stroke-width="2" stroke-dasharray="5 5"/>
<path d="M253.75 80.2228H208.25V178.223H253.75V80.2228Z" stroke="white" stroke-width="2" stroke-dasharray="5 5"/>
<path d="M311.25 80.2228H255.75V178.223H311.25V80.2228Z" stroke="white" stroke-width="2" stroke-dasharray="5 5"/>
<path d="M365.75 80.2228H313.25V178.223H365.75V80.2228Z" stroke="white" stroke-width="2" stroke-dasharray="5 5"/>
<path d="M421.75 80.2228H367.75V178.223H421.75V80.2228Z" stroke="white" stroke-width="2" stroke-dasharray="5 5"/>
<path d="M446.75 80.2228H423.75V178.223H446.75V80.2228Z" stroke="white" stroke-width="2" stroke-dasharray="5 5"/>
<path d="M538.25 80.2228H448.75V178.223H538.25V80.2228Z" stroke="white" stroke-width="2" stroke-dasharray="5 5"/>
<path d="M593.75 80.2228H540.25V178.223H593.75V80.2228Z" stroke="white" stroke-width="2" stroke-dasharray="5 5"/>
<path d="M649.75 80.2228H595.75V178.223H649.75V80.2228Z" stroke="white" stroke-width="2" stroke-dasharray="5 5"/>
<path d="M538.75 471.723H588.75L651.25 534.223V671.723H426.25V534.223L488.75 471.723H538.75ZM473.125 634.223H604.375C628.921 600.597 624.08 553.858 593.162 525.978C562.244 498.097 515.255 498.097 484.338 525.978C453.42 553.858 448.579 600.597 473.125 634.223Z" fill="white"/>
<path d="M706.75 129.223L744.25 166.723V279.223V923.277H706.75H669.25V279.223V166.723L706.75 129.223Z" fill="white"/>
<path d="M72.2695 489.773V478.753H122.94V489.773H103.66V549.073H91.5495V489.773" fill="white"/>
<path d="M162.565 503.357L163.125 504.457C164.559 506.237 165.475 508.074 165.875 509.967C165.995 510.761 166.085 511.504 166.145 512.197C166.212 512.884 166.245 513.487 166.245 514.007V538.237C167.372 540.477 169.022 541.824 171.195 542.277L170.835 542.827C170.709 543.047 170.585 543.171 170.465 543.197L170.285 543.747L169.915 544.117C169.609 544.791 169.242 545.341 168.815 545.767C168.382 546.901 167.829 547.757 167.155 548.337C166.882 548.951 166.622 549.481 166.375 549.927C166.135 550.367 165.909 550.757 165.695 551.097C162.115 550.177 159.299 548.524 157.245 546.137H156.695C152.749 548.984 148.679 550.407 144.485 550.407C142.219 550.407 139.985 550.024 137.785 549.257C131.205 546.904 127.229 542.621 125.855 536.407V536.177C125.855 524.337 132.785 518.417 146.645 518.417H146.785C147.059 518.291 147.362 518.227 147.695 518.227L148.245 518.047H149.535L150.085 517.867H150.635L155.225 517.317C155.285 516.977 155.315 516.671 155.315 516.397V515.477C155.315 510.364 152.609 507.807 147.195 507.807C143.429 507.807 138.272 509.077 131.725 511.617L130.995 509.967L130.625 508.867L130.255 508.497L130.075 508.137L129.705 507.027C129.372 506.481 129.129 505.931 128.975 505.377C128.329 504.524 127.899 503.667 127.685 502.807L128.235 502.627L128.605 502.437L129.155 502.257L129.525 501.887H130.075C130.195 501.767 130.302 501.707 130.395 501.707H130.445C131.545 501.127 132.522 500.697 133.375 500.417L134.295 500.237C134.969 499.931 135.582 499.747 136.135 499.687L137.605 499.317C138.672 498.891 139.712 498.647 140.725 498.587L144.765 497.847C145.372 497.787 145.959 497.734 146.525 497.687C147.092 497.641 147.652 497.617 148.205 497.617C154.045 497.617 158.832 499.531 162.565 503.357ZM150.815 526.677H149.715C149.442 526.737 149.175 526.784 148.915 526.817C148.655 526.844 148.402 526.857 148.155 526.857H147.885L147.145 527.047H146.595C146.442 527.167 146.259 527.227 146.045 527.227H145.495L142.555 527.957H142.005C141.152 528.451 140.419 528.757 139.805 528.877C137.819 530.777 136.825 532.614 136.825 534.387C136.825 536.007 137.635 537.597 139.255 539.157C141.609 540.597 143.902 541.317 146.135 541.317C148.982 541.317 151.705 540.171 154.305 537.877C154.552 537.171 154.799 536.681 155.045 536.407L155.225 535.857L155.045 535.117V526.487H151.375C151.222 526.614 151.035 526.677 150.815 526.677Z" fill="white"/>
<path d="M182.182 549.254V499.134H193.382V549.254H182.182ZM194.482 484.444V485.044C194.482 487.584 193.685 489.647 192.092 491.234C190.412 492.061 188.865 492.474 187.452 492.474C185.005 492.474 183.065 491.144 181.632 488.484C181.352 487.411 181.212 486.464 181.212 485.644C181.212 482.517 182.942 480.404 186.402 479.304H186.862C190.749 479.304 193.289 481.017 194.482 484.444Z" fill="white"/>
<path d="M233.441 479.307V478.937H246.111L246.291 480.227L246.481 480.777L246.841 482.067L247.211 484.267L247.761 486.097L248.131 488.307L248.681 490.137L248.861 491.607C249.075 492.127 249.198 492.557 249.231 492.897L249.411 493.627L249.781 494.727V495.467C249.901 495.56 249.961 495.65 249.961 495.737V496.387C250.301 497.06 250.488 497.793 250.521 498.587L250.881 499.687L251.251 500.977L251.621 503.177L252.171 505.007L252.351 506.117L253.451 510.707C253.545 511.133 253.631 511.523 253.711 511.877C253.785 512.223 253.821 512.567 253.821 512.907L254.191 513.637V514.377L254.551 515.297V516.027L254.921 516.757V517.497C255.261 518.417 255.445 519.213 255.471 519.887L255.661 520.617C255.875 521.23 256.041 521.797 256.161 522.317C256.281 522.837 256.358 523.31 256.391 523.737L256.761 525.207L257.131 526.487L257.491 525.387L258.231 521.717L258.591 520.797L258.781 519.697L259.331 517.127L259.701 515.847V515.297L260.431 512.357L260.611 511.257L260.981 510.517L261.161 509.787L261.351 508.867V508.137L261.531 507.577L262.271 504.647L262.631 502.437L262.821 501.707L263.181 500.977C263.248 499.997 263.431 499.137 263.731 498.397L263.921 497.487V496.937L264.291 495.467L264.471 494.917L265.021 492.527L265.201 491.427L265.571 490.327L265.751 489.407L266.301 487.017L266.491 486.097L266.671 485.737C266.705 485.397 266.745 485.067 266.791 484.747C266.838 484.427 266.921 484.143 267.041 483.897L267.221 483.347V482.797L267.411 482.067L267.591 481.507L268.141 478.937H281.731V479.487C282.158 480.56 282.401 481.603 282.461 482.617L282.831 484.077L283.011 484.637L283.751 487.937L284.111 489.407C284.358 490.293 284.481 491.027 284.481 491.607C284.695 492.127 284.818 492.557 284.851 492.897L285.211 494.177L285.401 495.467L285.581 496.197L285.771 496.747C285.858 497.147 285.935 497.507 286.001 497.827C286.061 498.147 286.105 498.46 286.131 498.767C286.378 499.347 286.548 499.883 286.641 500.377C286.735 500.863 286.811 501.307 286.871 501.707L287.051 502.807L287.421 503.727L287.601 504.827V505.377C287.908 506.11 288.091 506.783 288.151 507.397L288.341 508.497C288.641 509.23 288.825 509.903 288.891 510.517L289.071 511.437L289.621 513.457V514.187C289.741 514.467 289.801 514.773 289.801 515.107C290.141 515.813 290.328 516.427 290.361 516.947L290.541 517.867L290.721 518.967L290.911 519.697C291.218 520.643 291.401 521.5 291.461 522.267C291.581 522.36 291.641 522.453 291.641 522.547V523.187C292.068 524.26 292.315 525.3 292.381 526.307C292.561 526.247 292.681 526.123 292.741 525.937C292.895 525.177 293.048 524.513 293.201 523.947C293.355 523.38 293.508 522.883 293.661 522.457V521.717C294.061 520.617 294.305 519.637 294.391 518.777L294.761 517.497L295.501 514.557L295.681 513.087L296.051 511.807L296.231 511.257V510.707C296.445 510.12 296.615 509.59 296.741 509.117C296.861 508.643 296.935 508.193 296.961 507.767L297.331 506.477L298.801 500.417L299.351 497.487L299.721 496.017C300.055 495.13 300.238 494.397 300.271 493.817L300.451 492.897L300.821 491.427C301.095 490.54 301.278 489.807 301.371 489.227L301.551 488.487L302.111 485.917L302.471 484.817V484.267L303.021 482.797V482.067L303.211 481.507L303.761 478.937H316.241L315.511 482.617L314.961 484.817L314.771 485.367L314.221 487.937L313.861 489.407L313.491 490.687L312.751 494.367L312.391 495.647L311.651 499.137L311.291 500.417L311.101 500.977L310.731 502.987L310.551 503.357L310.371 504.647C310.065 505.653 309.881 506.51 309.821 507.217L309.081 509.417L308.901 510.707L308.711 511.437L308.531 511.987L308.351 513.277L308.161 513.827L307.061 518.417L306.881 519.697L306.511 520.987L305.591 524.657L305.411 525.937L304.311 530.527L303.761 533.097C303.421 534.017 303.238 534.813 303.211 535.487L302.471 537.877V538.607C302.138 539.527 301.955 540.323 301.921 540.997C301.615 542.003 301.431 542.86 301.371 543.567L301.001 544.847L300.821 545.217L300.641 546.507C300.335 547.513 300.151 548.37 300.091 549.077H286.501L286.321 547.607C286.108 547.087 285.985 546.657 285.951 546.317L285.581 544.847L285.401 543.567L285.031 542.277C284.938 541.91 284.861 541.56 284.801 541.227C284.741 540.887 284.695 540.563 284.661 540.257L284.481 539.527L284.301 538.607C284.175 538.453 284.111 538.27 284.111 538.057L283.931 537.137L283.751 536.587C283.658 536.193 283.581 535.833 283.521 535.507C283.455 535.187 283.408 534.873 283.381 534.567C283.168 533.987 283.008 533.453 282.901 532.967C282.795 532.473 282.708 532.03 282.641 531.637L282.461 530.897L282.281 529.977C282.155 529.61 282.068 529.26 282.021 528.927C281.981 528.587 281.945 528.263 281.911 527.957C281.698 527.35 281.531 526.77 281.411 526.217C281.285 525.663 281.208 525.143 281.181 524.657C281.055 524.503 280.991 524.32 280.991 524.107L280.811 523.367L280.631 522.817C280.538 522.177 280.415 521.567 280.261 520.987L279.891 519.327L279.711 518.227L279.341 517.317L278.971 515.107L278.791 514.557V514.007C278.485 513.273 278.301 512.6 278.241 511.987L277.871 509.787L277.501 508.867L277.141 507.397V506.667C276.775 505.653 276.591 504.797 276.591 504.097C276.465 503.943 276.401 503.76 276.401 503.547L276.221 502.987V502.437C275.915 501.737 275.731 501.003 275.671 500.237C275.365 499.257 275.181 498.34 275.121 497.487L274.751 498.217L274.571 499.317L274.021 501.707L273.651 503.727L273.461 504.277L272.731 507.397L272.551 508.137L272.181 509.967L272.001 510.707L271.631 512.727L271.451 513.277L270.711 516.757L270.341 518.047L270.161 519.327C269.828 520.247 269.645 521.043 269.611 521.717L269.431 522.087L269.241 523.187L269.061 523.737L268.141 528.327L267.961 528.877L267.221 532.367L267.041 533.097L266.861 534.017L266.671 534.567L265.941 538.057L265.571 539.527L265.201 541.367L265.021 541.727L264.651 543.387L264.471 544.117L264.291 545.397C264.071 546.163 263.948 546.777 263.921 547.237C263.795 547.543 263.711 547.833 263.671 548.107C263.625 548.387 263.585 548.647 263.551 548.887C263.125 548.953 262.735 549.007 262.381 549.047C262.028 549.093 261.685 549.117 261.351 549.117H260.891C260.738 549.117 260.585 549.103 260.431 549.077H249.781V548.337C249.355 547.237 249.111 546.197 249.051 545.217C248.925 545.063 248.861 544.88 248.861 544.667L248.681 543.747C248.008 541.573 247.578 539.737 247.391 538.237L247.211 537.687L246.291 534.207L246.111 532.737L244.641 527.047V526.307C244.335 525.607 244.151 524.873 244.091 524.107L243.721 523.007L243.361 521.717V521.167L242.441 517.497V516.947L242.251 516.207L241.891 515.477L241.701 514.007C241.461 513.273 241.265 512.6 241.111 511.987C240.958 511.373 240.851 510.823 240.791 510.337L240.601 509.787V509.237C240.481 509.083 240.421 508.9 240.421 508.687L240.051 507.217L239.871 506.667C239.745 506.02 239.628 505.437 239.521 504.917C239.415 504.397 239.285 503.94 239.131 503.547L238.951 502.257C238.738 501.643 238.568 501.077 238.441 500.557C238.321 500.037 238.245 499.563 238.211 499.137L238.031 498.217C237.911 498.063 237.851 497.88 237.851 497.667L236.931 493.997L236.561 492.707L236.381 491.797L236.201 491.057L236.011 489.777C235.765 489.13 235.641 488.577 235.641 488.117V487.937L235.281 487.017L235.091 486.287C234.971 485.4 234.788 484.663 234.541 484.077V483.347C234.421 483.193 234.361 483.01 234.361 482.797" fill="white"/>
<path d="M359.815 503.357L360.375 504.457C361.809 506.237 362.725 508.074 363.125 509.967C363.245 510.761 363.335 511.504 363.395 512.197C363.462 512.884 363.495 513.487 363.495 514.007V538.237C364.622 540.477 366.272 541.824 368.445 542.277L368.085 542.827C367.959 543.047 367.835 543.171 367.715 543.197L367.535 543.747L367.165 544.117C366.859 544.791 366.492 545.341 366.065 545.767C365.632 546.901 365.079 547.757 364.405 548.337C364.132 548.951 363.872 549.481 363.625 549.927C363.385 550.367 363.159 550.757 362.945 551.097C359.365 550.177 356.549 548.524 354.495 546.137H353.945C349.999 548.984 345.929 550.407 341.735 550.407C339.469 550.407 337.235 550.024 335.035 549.257C328.455 546.904 324.479 542.621 323.105 536.407V536.177C323.105 524.337 330.035 518.417 343.895 518.417H344.035C344.309 518.291 344.612 518.227 344.945 518.227L345.495 518.047H346.785L347.335 517.867H347.885L352.475 517.317C352.535 516.977 352.565 516.671 352.565 516.397V515.477C352.565 510.364 349.859 507.807 344.445 507.807C340.679 507.807 335.522 509.077 328.975 511.617L328.245 509.967L327.875 508.867L327.505 508.497L327.325 508.137L326.955 507.027C326.622 506.481 326.379 505.931 326.225 505.377C325.579 504.524 325.149 503.667 324.935 502.807L325.485 502.627L325.855 502.437L326.405 502.257L326.775 501.887H327.325C327.445 501.767 327.552 501.707 327.645 501.707H327.695C328.795 501.127 329.772 500.697 330.625 500.417L331.545 500.237C332.219 499.931 332.832 499.747 333.385 499.687L334.855 499.317C335.922 498.891 336.962 498.647 337.975 498.587L342.015 497.847C342.622 497.787 343.209 497.734 343.775 497.687C344.342 497.641 344.902 497.617 345.455 497.617C351.295 497.617 356.082 499.531 359.815 503.357ZM348.065 526.677H346.965C346.692 526.737 346.425 526.784 346.165 526.817C345.905 526.844 345.652 526.857 345.405 526.857H345.135L344.395 527.047H343.845C343.692 527.167 343.509 527.227 343.295 527.227H342.745L339.805 527.957H339.255C338.402 528.451 337.669 528.757 337.055 528.877C335.069 530.777 334.075 532.614 334.075 534.387C334.075 536.007 334.885 537.597 336.505 539.157C338.859 540.597 341.152 541.317 343.385 541.317C346.232 541.317 348.955 540.171 351.555 537.877C351.802 537.171 352.049 536.681 352.295 536.407L352.475 535.857L352.295 535.117V526.487H348.625C348.472 526.614 348.285 526.677 348.065 526.677Z" fill="white"/>
<path d="M381.182 549.254V499.134H392.382V549.254H381.182ZM393.482 484.444V485.044C393.482 487.584 392.685 489.647 391.092 491.234C389.412 492.061 387.865 492.474 386.452 492.474C384.005 492.474 382.065 491.144 380.632 488.484C380.352 487.411 380.212 486.464 380.212 485.644C380.212 482.517 381.942 480.404 385.402 479.304H385.862C389.749 479.304 392.289 481.017 393.482 484.444Z" fill="white"/>
<path d="M122.25 472.723H71.75V570.723H122.25V472.723Z" stroke="white" stroke-width="2" stroke-dasharray="5 5"/>
<path d="M174.25 472.723H124.25V570.723H174.25V472.723Z" stroke="white" stroke-width="2" stroke-dasharray="5 5"/>
<path d="M201.25 472.723H176.25V570.723H201.25V472.723Z" stroke="white" stroke-width="2" stroke-dasharray="5 5"/>
<path d="M226.25 472.723H203.25V570.723H226.25V472.723Z" stroke="white" stroke-width="2" stroke-dasharray="5 5"/>
<path d="M317.75 472.723H228.25V570.723H317.75V472.723Z" stroke="white" stroke-width="2" stroke-dasharray="5 5"/>
<path d="M373.25 472.723H319.75V570.723H373.25V472.723Z" stroke="white" stroke-width="2" stroke-dasharray="5 5"/>
<path d="M400.25 472.723H375.25V570.723H400.25V472.723Z" stroke="white" stroke-width="2" stroke-dasharray="5 5"/>
<path d="M651.25 534V586" stroke="#46C147" stroke-width="3.03189"/>
<path d="M669.25 534V586" stroke="#46C147" stroke-width="3.03189"/>
<path d="M651.25 562.68H669.25" stroke="#46C147" stroke-width="3.03189"/>
<path d="M651.25 562.68L687.633 553.584V571.775L651.25 562.68Z" fill="#46C147"/>
<path d="M669.25 562.68L632.867 553.584V571.775L669.25 562.68Z" fill="#46C147"/>
<path d="M680.613 615.419V600.147H682.88V602.533H683.078C683.397 601.718 683.91 601.085 684.62 600.634C685.329 600.177 686.181 599.948 687.175 599.948C688.183 599.948 689.021 600.177 689.691 600.634C690.367 601.085 690.894 601.718 691.272 602.533H691.431C691.822 601.744 692.408 601.118 693.191 600.654C693.973 600.183 694.911 599.948 696.005 599.948C697.37 599.948 698.487 600.375 699.355 601.231C700.224 602.079 700.658 603.401 700.658 605.198V615.419H698.311V605.198C698.311 604.071 698.003 603.266 697.387 602.782C696.77 602.298 696.044 602.056 695.209 602.056C694.135 602.056 693.303 602.381 692.713 603.03C692.123 603.673 691.828 604.489 691.828 605.476V615.419H689.442V604.959C689.442 604.091 689.16 603.391 688.597 602.861C688.033 602.324 687.308 602.056 686.419 602.056C685.81 602.056 685.239 602.218 684.709 602.543C684.185 602.868 683.761 603.319 683.436 603.895C683.118 604.465 682.959 605.125 682.959 605.874V615.419H680.613ZM704.949 615.419V600.147H707.295V615.419H704.949ZM706.142 597.601C705.684 597.601 705.29 597.445 704.958 597.134C704.634 596.822 704.471 596.448 704.471 596.01C704.471 595.573 704.634 595.198 704.958 594.887C705.29 594.575 705.684 594.419 706.142 594.419C706.599 594.419 706.99 594.575 707.315 594.887C707.646 595.198 707.812 595.573 707.812 596.01C707.812 596.448 707.646 596.822 707.315 597.134C706.99 597.445 706.599 597.601 706.142 597.601ZM713.94 606.232V615.419H711.593V600.147H713.86V602.533H714.059C714.417 601.758 714.96 601.134 715.69 600.664C716.419 600.186 717.36 599.948 718.513 599.948C719.548 599.948 720.452 600.16 721.228 600.584C722.004 601.002 722.607 601.638 723.038 602.493C723.469 603.342 723.684 604.416 723.684 605.715V615.419H721.337V605.874C721.337 604.674 721.026 603.74 720.403 603.07C719.78 602.394 718.924 602.056 717.837 602.056C717.088 602.056 716.419 602.218 715.829 602.543C715.246 602.868 714.785 603.342 714.447 603.965C714.109 604.588 713.94 605.344 713.94 606.232ZM729.682 615.579C729.192 615.579 728.771 615.403 728.419 615.052C728.068 614.7 727.892 614.279 727.892 613.789C727.892 613.298 728.068 612.877 728.419 612.526C728.771 612.175 729.192 611.999 729.682 611.999C730.173 611.999 730.594 612.175 730.945 612.526C731.296 612.877 731.472 613.298 731.472 613.789C731.472 614.114 731.389 614.412 731.223 614.684C731.064 614.955 730.849 615.174 730.577 615.34C730.312 615.499 730.014 615.579 729.682 615.579ZM678.503 629.056V649.419H676.037V631.641H675.918L670.947 634.942V632.436L676.037 629.056H678.503ZM684.907 649.579C684.416 649.579 683.995 649.403 683.644 649.052C683.293 648.7 683.117 648.279 683.117 647.789C683.117 647.298 683.293 646.877 683.644 646.526C683.995 646.175 684.416 645.999 684.907 645.999C685.397 645.999 685.818 646.175 686.17 646.526C686.521 646.877 686.697 647.298 686.697 647.789C686.697 648.114 686.614 648.412 686.448 648.684C686.289 648.955 686.073 649.174 685.802 649.34C685.537 649.499 685.238 649.579 684.907 649.579ZM696.821 649.698C695.655 649.698 694.604 649.466 693.669 649.002C692.735 648.538 691.985 647.901 691.422 647.093C690.859 646.284 690.55 645.363 690.497 644.329H692.884C692.977 645.25 693.394 646.012 694.137 646.615C694.886 647.212 695.78 647.51 696.821 647.51C697.656 647.51 698.399 647.315 699.048 646.924C699.705 646.533 700.218 645.996 700.59 645.313C700.968 644.624 701.156 643.845 701.156 642.976C701.156 642.088 700.961 641.296 700.57 640.6C700.185 639.897 699.655 639.344 698.979 638.939C698.303 638.535 697.53 638.329 696.662 638.323C696.039 638.316 695.399 638.412 694.743 638.611C694.087 638.803 693.547 639.052 693.122 639.357L690.816 639.079L692.048 629.056H702.628V631.243H694.117L693.401 637.249H693.52C693.938 636.918 694.461 636.642 695.091 636.424C695.721 636.205 696.377 636.096 697.06 636.096C698.306 636.096 699.416 636.394 700.391 636.99C701.372 637.58 702.141 638.389 702.698 639.417C703.261 640.444 703.543 641.617 703.543 642.936C703.543 644.236 703.251 645.396 702.668 646.417C702.091 647.431 701.296 648.233 700.281 648.823C699.267 649.406 698.114 649.698 696.821 649.698ZM718.351 637.567L716.243 638.164C716.11 637.812 715.915 637.471 715.656 637.14C715.404 636.802 715.059 636.523 714.622 636.304C714.184 636.086 713.624 635.976 712.942 635.976C712.007 635.976 711.228 636.192 710.605 636.623C709.988 637.047 709.68 637.587 709.68 638.243C709.68 638.827 709.892 639.287 710.317 639.625C710.741 639.963 711.404 640.245 712.305 640.471L714.572 641.027C715.938 641.359 716.955 641.866 717.625 642.549C718.294 643.225 718.629 644.097 718.629 645.164C718.629 646.039 718.377 646.821 717.873 647.51C717.376 648.2 716.68 648.743 715.785 649.141C714.89 649.539 713.85 649.738 712.663 649.738C711.105 649.738 709.816 649.4 708.795 648.723C707.774 648.047 707.128 647.06 706.856 645.76L709.084 645.204C709.296 646.025 709.697 646.642 710.287 647.053C710.883 647.464 711.662 647.669 712.623 647.669C713.717 647.669 714.586 647.437 715.229 646.973C715.878 646.503 716.203 645.939 716.203 645.283C716.203 644.753 716.017 644.309 715.646 643.951C715.275 643.586 714.705 643.314 713.936 643.135L711.39 642.539C709.992 642.207 708.964 641.694 708.308 640.998C707.658 640.295 707.334 639.417 707.334 638.363C707.334 637.501 707.576 636.739 708.059 636.076C708.55 635.413 709.216 634.892 710.058 634.515C710.907 634.137 711.868 633.948 712.942 633.948C714.453 633.948 715.64 634.279 716.501 634.942C717.37 635.605 717.986 636.48 718.351 637.567ZM725.622 649.419L720.968 634.147H723.434L726.735 645.84H726.894L730.156 634.147H732.661L735.883 645.8H736.042L739.343 634.147H741.809L737.156 649.419H734.849L731.508 637.686H731.269L727.928 649.419H725.622Z" fill="#46C147"/>
<path d="M401 471.723H500" stroke="#FF0000" stroke-width="3.03189"/>
<path d="M464.957 471.723L455.861 508.106H474.052L464.957 471.723Z" fill="#FF0000"/>
<path d="M464.957 471.723L455.861 435.34H474.052L464.957 471.723Z" fill="#FF0000"/>
<path d="M492.37 464.362C490.423 464.362 488.765 463.832 487.395 462.773C486.026 461.705 484.979 460.158 484.256 458.134C483.532 456.102 483.171 453.647 483.171 450.77C483.171 447.91 483.532 445.468 484.256 443.444C484.988 441.412 486.039 439.861 487.408 438.793C488.786 437.716 490.44 437.178 492.37 437.178C494.299 437.178 495.948 437.716 497.318 438.793C498.696 439.861 499.747 441.412 500.47 443.444C501.203 445.468 501.569 447.91 501.569 450.77C501.569 453.647 501.207 456.102 500.483 458.134C499.76 460.158 498.713 461.705 497.344 462.773C495.974 463.832 494.316 464.362 492.37 464.362ZM492.37 461.519C494.299 461.519 495.798 460.589 496.866 458.729C497.934 456.868 498.468 454.215 498.468 450.77C498.468 448.479 498.222 446.528 497.731 444.917C497.249 443.306 496.551 442.079 495.638 441.235C494.734 440.391 493.644 439.969 492.37 439.969C490.457 439.969 488.963 440.912 487.886 442.798C486.81 444.676 486.271 447.333 486.271 450.77C486.271 453.061 486.513 455.008 486.995 456.61C487.477 458.212 488.171 459.431 489.075 460.266C489.988 461.102 491.086 461.519 492.37 461.519ZM520.587 448.599L517.848 449.375C517.676 448.918 517.421 448.474 517.086 448.044C516.758 447.605 516.31 447.243 515.742 446.959C515.173 446.674 514.446 446.532 513.558 446.532C512.344 446.532 511.332 446.812 510.522 447.372C509.721 447.923 509.321 448.625 509.321 449.478C509.321 450.236 509.596 450.835 510.148 451.274C510.699 451.713 511.56 452.079 512.732 452.372L515.677 453.096C517.452 453.526 518.774 454.185 519.644 455.072C520.514 455.951 520.949 457.083 520.949 458.47C520.949 459.607 520.621 460.624 519.967 461.519C519.321 462.415 518.416 463.121 517.254 463.638C516.091 464.155 514.738 464.413 513.197 464.413C511.173 464.413 509.497 463.974 508.171 463.096C506.844 462.217 506.005 460.934 505.651 459.245L508.545 458.522C508.821 459.59 509.342 460.391 510.109 460.925C510.884 461.459 511.896 461.726 513.145 461.726C514.566 461.726 515.695 461.425 516.53 460.822C517.374 460.21 517.796 459.478 517.796 458.625C517.796 457.936 517.555 457.359 517.073 456.894C516.59 456.42 515.85 456.067 514.85 455.835L511.543 455.059C509.725 454.629 508.39 453.961 507.538 453.057C506.694 452.144 506.272 451.002 506.272 449.633C506.272 448.513 506.586 447.523 507.215 446.661C507.852 445.8 508.718 445.124 509.812 444.633C510.914 444.142 512.163 443.896 513.558 443.896C515.522 443.896 517.064 444.327 518.184 445.188C519.312 446.05 520.113 447.187 520.587 448.599ZM530.035 464L523.988 444.155H527.192L531.482 459.349H531.688L535.926 444.155H539.182L543.368 459.297H543.575L547.864 444.155H551.068L545.022 464H542.024L537.683 448.754H537.373L533.032 464H530.035Z" fill="#FF0000"/>
<path d="M402 470.586V366.343" stroke="#46C147" stroke-width="2.74323"/>
<path d="M427.25 529V367" stroke="#46C147" stroke-width="2.74323"/>
<path d="M405 388.289H427" stroke="#46C147" stroke-width="2.74323"/>
<path d="M414.747 388.289L447.666 396.519V380.059L414.747 388.289Z" fill="#46C147"/>
<path d="M413.919 388.289L381 396.519V380.059L413.919 388.289Z" fill="#46C147"/>
<path d="M380.478 357V354.896L388.381 346.245C389.308 345.232 390.072 344.352 390.672 343.603C391.272 342.847 391.716 342.138 392.005 341.476C392.301 340.806 392.449 340.104 392.449 339.372C392.449 338.53 392.246 337.801 391.841 337.186C391.443 336.57 390.898 336.095 390.204 335.759C389.511 335.424 388.731 335.257 387.866 335.257C386.947 335.257 386.144 335.448 385.458 335.83C384.78 336.204 384.254 336.73 383.88 337.408C383.514 338.086 383.331 338.881 383.331 339.792H380.572C380.572 338.39 380.895 337.158 381.542 336.098C382.189 335.039 383.07 334.212 384.184 333.62C385.306 333.028 386.565 332.732 387.96 332.732C389.363 332.732 390.606 333.028 391.689 333.62C392.772 334.212 393.622 335.011 394.237 336.017C394.853 337.022 395.161 338.14 395.161 339.372C395.161 340.252 395.001 341.113 394.682 341.955C394.37 342.789 393.824 343.72 393.045 344.749C392.273 345.77 391.202 347.017 389.83 348.49L384.453 354.241V354.428H395.582V357H380.478ZM413.175 343.066L410.697 343.767C410.541 343.354 410.311 342.953 410.007 342.563C409.711 342.165 409.306 341.838 408.791 341.581C408.277 341.324 407.618 341.195 406.816 341.195C405.717 341.195 404.801 341.449 404.069 341.955C403.344 342.454 402.981 343.089 402.981 343.861C402.981 344.546 403.231 345.088 403.73 345.485C404.228 345.883 405.008 346.214 406.067 346.479L408.733 347.134C410.338 347.523 411.534 348.12 412.322 348.922C413.109 349.717 413.502 350.742 413.502 351.997C413.502 353.025 413.206 353.945 412.614 354.756C412.029 355.566 411.211 356.205 410.159 356.673C409.107 357.14 407.883 357.374 406.488 357.374C404.657 357.374 403.141 356.977 401.941 356.182C400.741 355.387 399.981 354.226 399.661 352.698L402.28 352.043C402.529 353.01 403.001 353.735 403.694 354.218C404.396 354.701 405.312 354.943 406.442 354.943C407.727 354.943 408.748 354.67 409.504 354.124C410.268 353.571 410.65 352.909 410.65 352.137C410.65 351.514 410.432 350.991 409.995 350.571C409.559 350.142 408.889 349.822 407.985 349.612L404.992 348.911C403.348 348.521 402.14 347.917 401.368 347.099C400.604 346.273 400.223 345.24 400.223 344.001C400.223 342.988 400.507 342.091 401.076 341.312C401.653 340.533 402.436 339.921 403.426 339.477C404.423 339.033 405.553 338.81 406.816 338.81C408.593 338.81 409.988 339.2 411.001 339.979C412.022 340.759 412.746 341.788 413.175 343.066ZM421.723 357L416.252 339.044H419.151L423.032 352.792H423.22L427.054 339.044H430L433.787 352.745H433.974L437.855 339.044H440.754L435.284 357H432.571L428.644 343.206H428.363L424.435 357H421.723Z" fill="#46C147"/>
<path d="M541 673.846H608" stroke="#FF0000" stroke-width="2.74323"/>
<path d="M542 698.846H608" stroke="#FF0000" stroke-width="2.74323"/>
<path d="M587.297 673.846V698.846" stroke="#FF0000" stroke-width="2.74323"/>
<path d="M587.297 698L579.067 730.919H595.527L587.297 698Z" fill="#FF0000"/>
<path d="M587.297 678.919L579.067 646H595.527L587.297 678.919Z" fill="#FF0000"/>
<path d="M629.075 695V692.896L636.978 684.245C637.905 683.232 638.669 682.352 639.269 681.603C639.869 680.847 640.313 680.138 640.602 679.476C640.898 678.806 641.046 678.104 641.046 677.372C641.046 676.53 640.843 675.801 640.438 675.186C640.04 674.57 639.495 674.095 638.801 673.759C638.108 673.424 637.328 673.257 636.463 673.257C635.544 673.257 634.741 673.448 634.055 673.83C633.377 674.204 632.851 674.73 632.477 675.408C632.111 676.086 631.928 676.881 631.928 677.792H629.169C629.169 676.39 629.492 675.158 630.139 674.098C630.786 673.039 631.667 672.212 632.781 671.62C633.903 671.028 635.162 670.732 636.557 670.732C637.96 670.732 639.203 671.028 640.286 671.62C641.369 672.212 642.219 673.011 642.834 674.017C643.45 675.022 643.758 676.14 643.758 677.372C643.758 678.252 643.598 679.113 643.279 679.955C642.967 680.789 642.421 681.72 641.642 682.749C640.87 683.77 639.799 685.017 638.427 686.49L633.05 692.241V692.428H644.179V695H629.075ZM661.772 681.066L659.294 681.767C659.138 681.354 658.908 680.953 658.604 680.563C658.308 680.165 657.903 679.838 657.388 679.581C656.874 679.324 656.215 679.195 655.413 679.195C654.314 679.195 653.398 679.449 652.666 679.955C651.941 680.454 651.578 681.089 651.578 681.861C651.578 682.546 651.828 683.088 652.327 683.485C652.825 683.883 653.605 684.214 654.665 684.479L657.33 685.134C658.935 685.523 660.132 686.12 660.919 686.922C661.706 687.717 662.099 688.742 662.099 689.997C662.099 691.025 661.803 691.945 661.211 692.756C660.626 693.566 659.808 694.205 658.756 694.673C657.704 695.14 656.48 695.374 655.085 695.374C653.254 695.374 651.738 694.977 650.538 694.182C649.338 693.387 648.578 692.226 648.258 690.698L650.877 690.043C651.126 691.01 651.598 691.735 652.291 692.218C652.993 692.701 653.909 692.943 655.039 692.943C656.325 692.943 657.345 692.67 658.101 692.124C658.865 691.571 659.247 690.909 659.247 690.137C659.247 689.514 659.029 688.991 658.592 688.571C658.156 688.142 657.486 687.822 656.582 687.612L653.589 686.911C651.945 686.521 650.737 685.917 649.965 685.099C649.201 684.273 648.82 683.24 648.82 682.001C648.82 680.988 649.104 680.091 649.673 679.312C650.25 678.533 651.033 677.921 652.023 677.477C653.02 677.033 654.15 676.81 655.413 676.81C657.19 676.81 658.585 677.2 659.598 677.979C660.619 678.759 661.343 679.788 661.772 681.066ZM670.32 695L664.849 677.044H667.748L671.63 690.792H671.817L675.651 677.044H678.597L682.384 690.745H682.571L686.452 677.044H689.351L683.881 695H681.169L677.241 681.206H676.96L673.032 695H670.32Z" fill="#FF0000"/>
<path d="M573 472.919H629" stroke="#FF0000" stroke-width="2.74323"/>
<path d="M436 322.919H631" stroke="#FF0000" stroke-width="2.74323"/>
<path d="M602.796 472.919V322.919" stroke="#FF0000" stroke-width="2.74323"/>
<path d="M602.796 472.919L594.566 505.838H611.026L602.796 472.919Z" fill="#FF0000"/>
<path d="M602.796 322.919L594.566 290H611.026L602.796 322.919Z" fill="#FF0000"/>
<path d="M618.524 384V366.044H621.189V368.85H621.423C621.797 367.891 622.401 367.147 623.235 366.617C624.069 366.079 625.07 365.81 626.239 365.81C627.424 365.81 628.41 366.079 629.197 366.617C629.992 367.147 630.611 367.891 631.056 368.85H631.243C631.702 367.922 632.392 367.186 633.312 366.64C634.231 366.087 635.334 365.81 636.62 365.81C638.225 365.81 639.539 366.313 640.559 367.318C641.58 368.316 642.091 369.871 642.091 371.983V384H639.332V371.983C639.332 370.658 638.97 369.711 638.245 369.142C637.52 368.573 636.667 368.289 635.685 368.289C634.422 368.289 633.444 368.671 632.751 369.434C632.057 370.19 631.71 371.149 631.71 372.31V384H628.905V371.702C628.905 370.681 628.573 369.859 627.911 369.236C627.249 368.604 626.395 368.289 625.351 368.289C624.634 368.289 623.964 368.48 623.34 368.862C622.725 369.243 622.226 369.773 621.844 370.451C621.47 371.122 621.283 371.897 621.283 372.778V384H618.524ZM647.135 384V366.044H649.894V384H647.135ZM648.538 363.052C648 363.052 647.536 362.869 647.147 362.502C646.765 362.136 646.574 361.696 646.574 361.181C646.574 360.667 646.765 360.227 647.147 359.86C647.536 359.494 648 359.311 648.538 359.311C649.076 359.311 649.535 359.494 649.917 359.86C650.307 360.227 650.502 360.667 650.502 361.181C650.502 361.696 650.307 362.136 649.917 362.502C649.535 362.869 649.076 363.052 648.538 363.052ZM657.706 373.199V384H654.947V366.044H657.612V368.85H657.846C658.267 367.938 658.906 367.205 659.763 366.652C660.62 366.091 661.727 365.81 663.083 365.81C664.299 365.81 665.363 366.06 666.274 366.559C667.186 367.05 667.895 367.798 668.402 368.803C668.909 369.801 669.162 371.063 669.162 372.591V384H666.403V372.778C666.403 371.367 666.037 370.268 665.304 369.481C664.572 368.686 663.566 368.289 662.288 368.289C661.407 368.289 660.62 368.48 659.927 368.862C659.241 369.243 658.699 369.801 658.302 370.533C657.904 371.266 657.706 372.154 657.706 373.199ZM676.214 384.187C675.637 384.187 675.142 383.981 674.729 383.567C674.316 383.154 674.11 382.66 674.11 382.083C674.11 381.506 674.316 381.011 674.729 380.598C675.142 380.185 675.637 379.979 676.214 379.979C676.79 379.979 677.285 380.185 677.698 380.598C678.111 381.011 678.318 381.506 678.318 382.083C678.318 382.465 678.221 382.815 678.026 383.135C677.839 383.454 677.585 383.712 677.266 383.906C676.954 384.094 676.603 384.187 676.214 384.187ZM626.894 400.059V424H623.995V403.098H623.855L618.01 406.979V404.034L623.995 400.059H626.894ZM633.779 424V421.896L641.682 413.245C642.609 412.232 643.373 411.352 643.973 410.603C644.573 409.847 645.017 409.138 645.306 408.476C645.602 407.806 645.75 407.104 645.75 406.372C645.75 405.53 645.547 404.801 645.142 404.186C644.744 403.57 644.199 403.095 643.505 402.759C642.812 402.424 642.032 402.257 641.167 402.257C640.248 402.257 639.445 402.448 638.759 402.83C638.081 403.204 637.555 403.73 637.181 404.408C636.815 405.086 636.632 405.881 636.632 406.792H633.873C633.873 405.39 634.196 404.158 634.843 403.098C635.49 402.039 636.371 401.212 637.485 400.62C638.607 400.028 639.866 399.732 641.261 399.732C642.664 399.732 643.907 400.028 644.99 400.62C646.073 401.212 646.923 402.011 647.538 403.017C648.154 404.022 648.462 405.14 648.462 406.372C648.462 407.252 648.302 408.113 647.983 408.955C647.671 409.789 647.125 410.72 646.346 411.749C645.574 412.77 644.503 414.017 643.131 415.49L637.754 421.241V421.428H648.883V424H633.779ZM666.476 410.066L663.998 410.767C663.842 410.354 663.612 409.953 663.308 409.563C663.012 409.165 662.607 408.838 662.092 408.581C661.578 408.324 660.919 408.195 660.117 408.195C659.018 408.195 658.102 408.449 657.37 408.955C656.645 409.454 656.282 410.089 656.282 410.861C656.282 411.546 656.532 412.088 657.031 412.485C657.529 412.883 658.309 413.214 659.369 413.479L662.034 414.134C663.639 414.523 664.836 415.12 665.623 415.922C666.41 416.717 666.803 417.742 666.803 418.997C666.803 420.025 666.507 420.945 665.915 421.756C665.33 422.566 664.512 423.205 663.46 423.673C662.408 424.14 661.184 424.374 659.789 424.374C657.958 424.374 656.442 423.977 655.242 423.182C654.042 422.387 653.282 421.226 652.962 419.698L655.581 419.043C655.83 420.01 656.302 420.735 656.996 421.218C657.697 421.701 658.613 421.943 659.743 421.943C661.029 421.943 662.049 421.67 662.805 421.124C663.569 420.571 663.951 419.909 663.951 419.137C663.951 418.514 663.733 417.991 663.296 417.571C662.86 417.142 662.19 416.822 661.286 416.612L658.293 415.911C656.649 415.521 655.441 414.917 654.669 414.099C653.905 413.273 653.524 412.24 653.524 411.001C653.524 409.988 653.808 409.091 654.377 408.312C654.954 407.533 655.737 406.921 656.727 406.477C657.724 406.033 658.854 405.81 660.117 405.81C661.894 405.81 663.289 406.2 664.302 406.979C665.323 407.759 666.047 408.788 666.476 410.066ZM675.024 424L669.553 406.044H672.453L676.334 419.792H676.521L680.355 406.044H683.301L687.088 419.745H687.275L691.156 406.044H694.055L688.585 424H685.873L681.945 410.206H681.664L677.736 424H675.024Z" fill="#FF0000"/>
<path d="M506 707V811.243" stroke="#46C147" stroke-width="2.74323"/>
<path d="M669 710V811" stroke="#46C147" stroke-width="2.74323"/>
<path d="M505 789.297H655" stroke="#46C147" stroke-width="2.74323"/>
<path d="M506 789.297L538.919 781.067V797.527L506 789.297Z" fill="#46C147"/>
<path d="M669 789.297L636.081 781.067V797.527L669 789.297Z" fill="#46C147"/>
<path d="M561.653 831V813.044H564.318V815.85H564.552C564.926 814.891 565.53 814.147 566.364 813.617C567.198 813.079 568.199 812.81 569.368 812.81C570.553 812.81 571.538 813.079 572.326 813.617C573.121 814.147 573.74 814.891 574.184 815.85H574.371C574.831 814.922 575.521 814.186 576.44 813.64C577.36 813.087 578.463 812.81 579.749 812.81C581.354 812.81 582.667 813.313 583.688 814.318C584.709 815.316 585.22 816.871 585.22 818.983V831H582.461V818.983C582.461 817.658 582.098 816.711 581.374 816.142C580.649 815.573 579.795 815.289 578.814 815.289C577.551 815.289 576.573 815.671 575.879 816.434C575.186 817.19 574.839 818.149 574.839 819.31V831H572.033V818.702C572.033 817.681 571.702 816.859 571.04 816.236C570.377 815.604 569.524 815.289 568.48 815.289C567.763 815.289 567.092 815.48 566.469 815.862C565.853 816.243 565.355 816.773 564.973 817.451C564.599 818.122 564.412 818.897 564.412 819.778V831H561.653ZM590.264 831V813.044H593.023V831H590.264ZM591.667 810.052C591.129 810.052 590.665 809.869 590.275 809.502C589.894 809.136 589.703 808.696 589.703 808.181C589.703 807.667 589.894 807.227 590.275 806.86C590.665 806.494 591.129 806.311 591.667 806.311C592.204 806.311 592.664 806.494 593.046 806.86C593.436 807.227 593.63 807.667 593.63 808.181C593.63 808.696 593.436 809.136 593.046 809.502C592.664 809.869 592.204 810.052 591.667 810.052ZM600.834 820.199V831H598.076V813.044H600.741V815.85H600.975C601.396 814.938 602.035 814.205 602.892 813.652C603.749 813.091 604.856 812.81 606.212 812.81C607.428 812.81 608.491 813.06 609.403 813.559C610.315 814.05 611.024 814.798 611.531 815.803C612.037 816.801 612.291 818.063 612.291 819.591V831H609.532V819.778C609.532 818.367 609.165 817.268 608.433 816.481C607.7 815.686 606.695 815.289 605.417 815.289C604.536 815.289 603.749 815.48 603.055 815.862C602.37 816.243 601.828 816.801 601.431 817.533C601.033 818.266 600.834 819.154 600.834 820.199ZM619.342 831.187C618.766 831.187 618.271 830.981 617.858 830.567C617.445 830.154 617.238 829.66 617.238 829.083C617.238 828.506 617.445 828.011 617.858 827.598C618.271 827.185 618.766 826.979 619.342 826.979C619.919 826.979 620.414 827.185 620.827 827.598C621.24 828.011 621.447 828.506 621.447 829.083C621.447 829.465 621.349 829.815 621.154 830.135C620.967 830.454 620.714 830.712 620.395 830.906C620.083 831.094 619.732 831.187 619.342 831.187ZM562.291 847.059V871H559.392V850.098H559.252L553.407 853.979V851.034L559.392 847.059H562.291ZM577.266 871.327C575.723 871.327 574.347 871.062 573.14 870.532C571.939 870.002 570.985 869.266 570.275 868.323C569.574 867.372 569.192 866.269 569.13 865.015H572.076C572.138 865.786 572.403 866.453 572.871 867.014C573.338 867.567 573.95 867.996 574.706 868.3C575.462 868.604 576.3 868.756 577.219 868.756C578.248 868.756 579.16 868.576 579.955 868.218C580.75 867.859 581.373 867.361 581.825 866.721C582.277 866.082 582.503 865.342 582.503 864.5C582.503 863.62 582.285 862.844 581.849 862.174C581.412 861.496 580.773 860.966 579.931 860.584C579.09 860.202 578.061 860.011 576.845 860.011H574.928V857.44H576.845C577.796 857.44 578.63 857.268 579.347 856.925C580.072 856.582 580.637 856.099 581.042 855.476C581.455 854.852 581.661 854.12 581.661 853.278C581.661 852.468 581.482 851.762 581.124 851.162C580.765 850.562 580.259 850.095 579.604 849.759C578.957 849.424 578.193 849.257 577.313 849.257C576.487 849.257 575.707 849.409 574.975 849.713C574.25 850.009 573.658 850.441 573.198 851.01C572.738 851.571 572.489 852.249 572.45 853.044H569.644C569.691 851.79 570.069 850.691 570.778 849.748C571.487 848.797 572.415 848.057 573.56 847.527C574.714 846.997 575.98 846.732 577.36 846.732C578.84 846.732 580.111 847.032 581.17 847.632C582.23 848.224 583.045 849.007 583.614 849.982C584.183 850.956 584.467 852.008 584.467 853.138C584.467 854.486 584.112 855.636 583.403 856.586C582.702 857.537 581.747 858.196 580.539 858.562V858.749C582.051 858.998 583.232 859.641 584.081 860.678C584.931 861.707 585.355 862.981 585.355 864.5C585.355 865.802 585.001 866.971 584.292 868.007C583.59 869.036 582.632 869.847 581.416 870.439C580.2 871.031 578.817 871.327 577.266 871.327ZM602.902 857.066L600.424 857.767C600.268 857.354 600.038 856.953 599.734 856.563C599.438 856.165 599.033 855.838 598.518 855.581C598.004 855.324 597.345 855.195 596.543 855.195C595.444 855.195 594.528 855.449 593.796 855.955C593.071 856.454 592.708 857.089 592.708 857.861C592.708 858.546 592.958 859.088 593.457 859.485C593.955 859.883 594.735 860.214 595.795 860.479L598.46 861.134C600.065 861.523 601.262 862.12 602.049 862.922C602.836 863.717 603.229 864.742 603.229 865.997C603.229 867.025 602.933 867.945 602.341 868.756C601.756 869.566 600.938 870.205 599.886 870.673C598.834 871.14 597.61 871.374 596.215 871.374C594.384 871.374 592.868 870.977 591.668 870.182C590.468 869.387 589.708 868.226 589.389 866.698L592.007 866.043C592.256 867.01 592.728 867.735 593.422 868.218C594.123 868.701 595.039 868.943 596.169 868.943C597.455 868.943 598.475 868.67 599.231 868.124C599.995 867.571 600.377 866.909 600.377 866.137C600.377 865.514 600.159 864.991 599.722 864.571C599.286 864.142 598.616 863.822 597.712 863.612L594.719 862.911C593.075 862.521 591.867 861.917 591.095 861.099C590.331 860.273 589.95 859.24 589.95 858.001C589.95 856.988 590.234 856.091 590.803 855.312C591.38 854.533 592.163 853.921 593.153 853.477C594.15 853.033 595.28 852.81 596.543 852.81C598.32 852.81 599.715 853.2 600.728 853.979C601.749 854.759 602.473 855.788 602.902 857.066ZM611.45 871L605.979 853.044H608.879L612.76 866.792H612.947L616.781 853.044H619.727L623.514 866.745H623.701L627.582 853.044H630.482L625.011 871H622.299L618.371 857.206H618.09L614.162 871H611.45Z" fill="#46C147"/>
</svg>
