<svg width="963" height="815" viewBox="0 0 963 815" fill="none" xmlns="http://www.w3.org/2000/svg">
<path d="M229.995 38.7501C236.695 27.1463 249.076 19.9985 262.475 20H904.655C925.365 20 942.155 36.7894 942.155 57.5001V757.5C942.155 778.211 925.365 795 904.655 795H262.475C249.076 795.001 236.695 787.854 229.995 776.25L22.512 416.88C19.1626 411.079 19.1626 403.931 22.512 398.13L229.995 38.7501Z" fill="white"/>
<path d="M246.238 48.1301C249.586 42.3262 255.777 38.7504 262.478 38.7501H907.553C917.908 38.7501 926.303 47.1447 926.303 57.5001V757.5C926.303 767.855 917.908 776.25 907.553 776.25H262.478C255.779 776.252 249.589 772.68 246.238 766.88L38.75 407.5L246.238 48.1301Z" fill="#0033A2"/>
<path d="M293.7 57.5001H380.303L175.871 407.5L380.303 756.25H293.7L89.2681 407.5L293.7 57.5001Z" fill="white"/>
<path d="M511.553 556.25H561.553L624.053 618.75V756.25H399.053V618.75L461.553 556.25H511.553ZM445.928 718.75H577.178C601.724 685.124 596.882 638.385 565.965 610.505C535.047 582.625 488.058 582.625 457.141 610.505C426.223 638.385 421.381 685.124 445.928 718.75Z" fill="white"/>
<path d="M418.803 221.765V210.735H518.253V221.765H418.803ZM464.143 217.715L474.823 215.125C477.229 223.979 480.476 232.229 484.563 239.875C488.649 247.529 493.673 254.222 499.633 259.955C505.599 265.695 512.519 270.215 520.393 273.515C519.493 274.262 518.536 275.235 517.523 276.435C516.509 277.635 515.553 278.855 514.653 280.095C513.753 281.335 513.003 282.442 512.403 283.415C504.076 279.515 496.819 274.359 490.633 267.945C484.446 261.532 479.216 254.089 474.943 245.615C470.669 237.142 467.069 227.842 464.143 217.715ZM462.453 179.355H474.043C474.043 184.675 473.909 190.392 473.643 196.505C473.383 202.619 472.803 208.902 471.903 215.355C471.003 221.802 469.539 228.252 467.513 234.705C465.493 241.152 462.679 247.375 459.073 253.375C455.479 259.375 450.869 264.945 445.243 270.085C439.616 275.219 432.753 279.699 424.653 283.525C423.753 282.099 422.553 280.542 421.053 278.855C419.553 277.169 418.053 275.762 416.553 274.635C424.353 271.115 430.933 267.009 436.293 262.315C441.659 257.629 446.009 252.529 449.343 247.015C452.683 241.509 455.253 235.792 457.053 229.865C458.853 223.939 460.129 218.012 460.883 212.085C461.629 206.165 462.079 200.429 462.233 194.875C462.379 189.329 462.453 184.155 462.453 179.355Z" fill="white"/>
<path d="M574.195 217.378V211.308H637.535V217.378H574.195ZM574.755 259.908V253.718H637.645V259.908H574.755ZM605.465 267.328V236.168H615.035V267.328H605.465ZM620.995 226.378H590.285V232.568H620.995V226.378ZM581.285 237.628V221.088H630.445V237.628H581.285ZM597.255 193.978L606.145 195.108C605.318 198.181 604.378 201.441 603.325 204.888C602.278 208.341 601.305 211.304 600.405 213.778H591.065C592.118 211.078 593.205 207.891 594.325 204.218C595.452 200.544 596.428 197.131 597.255 193.978ZM580.715 205.788V200.058H627.855V214.568H618.965V205.788H580.715ZM558.215 283.868V183.968H653.395V283.868H642.935V193.638H568.345V283.868H558.215ZM564.635 279.368V269.688H648.555V279.368H564.635ZM582.635 258.108V241.788H632.805V247.868H590.955V258.108" fill="white"/>
<path d="M535.553 172.25H400.053V312.75H535.553V172.25Z" stroke="white" stroke-width="2" stroke-dasharray="5 5"/>
<path d="M673.053 172.25H537.553V312.75H673.053V172.25Z" stroke="white" stroke-width="2" stroke-dasharray="5 5"/>
<path d="M400.572 331.8V320.78H451.242V331.8H431.962V391.1H419.852V331.8" fill="white"/>
<path d="M493.961 347.027L493.411 347.767L492.861 348.317L492.311 348.687L491.571 349.787L491.211 350.157L490.841 350.337C490.441 350.89 490.075 351.317 489.741 351.617L487.351 354.377C482.271 351.104 478.065 349.467 474.731 349.467C471.305 349.467 468.781 351.164 467.161 354.557C467.221 356.55 468.015 358.02 469.541 358.967C470.215 359.147 470.705 359.33 471.011 359.517C472.205 359.697 473.185 359.94 473.951 360.247C485.545 361.107 492.031 365.76 493.411 374.207C493.471 374.574 493.501 374.93 493.501 375.277C493.501 375.63 493.501 375.977 493.501 376.317C493.501 382.464 490.901 387.084 485.701 390.177C481.968 391.857 478.218 392.697 474.451 392.697C467.291 392.697 460.148 389.654 453.021 383.567L453.391 382.837L454.301 381.917C454.915 381.184 455.468 380.63 455.961 380.257C456.081 380.044 456.201 379.924 456.321 379.897L456.691 379.347C456.811 379.134 456.935 379.01 457.061 378.977L457.241 378.607L457.611 378.427L460.001 375.667C464.528 379.954 469.268 382.097 474.221 382.097C476.301 382.097 478.415 381.73 480.561 380.997C481.108 380.264 481.658 379.714 482.211 379.347C482.398 378.614 482.491 377.924 482.491 377.277C482.491 375.684 481.971 374.354 480.931 373.287L476.701 371.817C464.095 371.05 457.241 365.664 456.141 355.657C456.968 345.59 462.658 340.207 473.211 339.507H473.861C481.968 339.507 488.668 342.014 493.961 347.027Z" fill="white"/>
<path d="M506.34 376.776V340.976H517.36V372.736C517.48 372.889 517.54 373.072 517.54 373.286C517.666 373.379 517.73 373.469 517.73 373.556V373.656C517.943 375.029 518.246 376.252 518.64 377.326C520.753 380.259 523.463 381.726 526.77 381.726H526.91C531.01 380.626 533.883 378.362 535.53 374.936V374.386L536.27 372.186V340.976H547.47V391.096H536.27V387.056C531.863 390.662 527.473 392.466 523.1 392.466C519.7 392.466 516.256 391.396 512.77 389.256C509.923 387.082 507.963 384.512 506.89 381.546L506.71 380.256C506.436 379.369 506.3 378.499 506.3 377.646V377.236C506.3 377.082 506.313 376.929 506.34 376.776Z" fill="white"/>
<path d="M605.889 361.544L606.069 364.294C606.189 364.448 606.249 364.631 606.249 364.844V370.354H572.659C573.359 376.594 576.539 380.268 582.199 381.374C583.119 381.461 584.022 381.504 584.909 381.504C589.529 381.504 593.462 379.991 596.709 376.964C597.102 377.638 597.592 378.188 598.179 378.614L598.359 379.164L598.909 379.714C599.335 380.114 599.702 380.491 600.009 380.844C600.315 381.198 600.562 381.558 600.749 381.924C600.962 382.044 601.082 382.164 601.109 382.284L603.679 385.224C597.865 390.091 591.669 392.524 585.089 392.524C583.962 392.524 582.815 392.448 581.649 392.294C580.489 392.141 579.325 391.928 578.159 391.654C567.572 388.134 561.759 380.544 560.719 368.884C560.719 368.731 560.712 368.424 560.699 367.964C560.685 367.511 560.679 367.221 560.679 367.094C560.679 351.154 567.852 342.081 582.199 339.874C596.459 340.368 604.355 347.591 605.889 361.544ZM572.469 361.724H594.689V361.174C594.562 360.808 594.499 360.441 594.499 360.074V359.704C594.192 359.031 594.009 358.421 593.949 357.874C591.689 352.641 587.955 350.008 582.749 349.974C576.202 351.534 572.775 355.451 572.469 361.724Z" fill="white"/>
<path d="M659.103 349.787V350.337C659.503 351.07 659.749 351.804 659.843 352.537V390.907H648.643V358.417L648.453 357.317C646.926 352.69 644.356 350.377 640.743 350.377C639.643 350.377 638.419 350.607 637.073 351.067C634.013 352.387 631.809 354.47 630.463 357.317L629.733 360.437V390.907H618.713V340.787H629.733V345.007C633.159 341.947 636.893 340.114 640.933 339.507H641.753C649.953 339.507 655.736 342.934 659.103 349.787Z" fill="white"/>
<path d="M698.244 321.334V320.964H710.914L711.094 322.254L711.284 322.804L711.644 324.094L712.014 326.294L712.564 328.124L712.934 330.334L713.484 332.164L713.664 333.634C713.877 334.154 714.001 334.584 714.034 334.924L714.214 335.654L714.584 336.754V337.494C714.704 337.587 714.764 337.677 714.764 337.764V338.414C715.104 339.087 715.291 339.821 715.324 340.614L715.684 341.714L716.054 343.004L716.424 345.204L716.974 347.034L717.154 348.144L718.254 352.734C718.347 353.161 718.434 353.551 718.514 353.904C718.587 354.251 718.624 354.594 718.624 354.934L718.994 355.664V356.404L719.354 357.324V358.054L719.724 358.784V359.524C720.064 360.444 720.247 361.241 720.274 361.914L720.464 362.644C720.677 363.257 720.844 363.824 720.964 364.344C721.084 364.864 721.161 365.337 721.194 365.764L721.564 367.234L721.934 368.514L722.294 367.414L723.034 363.744L723.394 362.824L723.584 361.724L724.134 359.154L724.504 357.874V357.324L725.234 354.384L725.414 353.284L725.784 352.544L725.964 351.814L726.154 350.894V350.164L726.334 349.604L727.074 346.674L727.434 344.464L727.624 343.734L727.984 343.004C728.051 342.024 728.234 341.164 728.534 340.424L728.724 339.514V338.964L729.094 337.494L729.274 336.944L729.824 334.554L730.004 333.454L730.374 332.354L730.554 331.434L731.104 329.044L731.294 328.124L731.474 327.764C731.507 327.424 731.547 327.094 731.594 326.774C731.641 326.454 731.724 326.171 731.844 325.924L732.024 325.374V324.824L732.214 324.094L732.394 323.534L732.944 320.964H746.534V321.514C746.961 322.587 747.204 323.631 747.264 324.644L747.634 326.104L747.814 326.664L748.554 329.964L748.914 331.434C749.161 332.321 749.284 333.054 749.284 333.634C749.497 334.154 749.621 334.584 749.654 334.924L750.014 336.204L750.204 337.494L750.384 338.224L750.574 338.774C750.661 339.174 750.737 339.534 750.804 339.854C750.864 340.174 750.907 340.487 750.934 340.794C751.181 341.374 751.351 341.911 751.444 342.404C751.537 342.891 751.614 343.334 751.674 343.734L751.854 344.834L752.224 345.754L752.404 346.854V347.404C752.711 348.137 752.894 348.811 752.954 349.424L753.144 350.524C753.444 351.257 753.627 351.931 753.694 352.544L753.874 353.464L754.424 355.484V356.214C754.544 356.494 754.604 356.801 754.604 357.134C754.944 357.841 755.131 358.454 755.164 358.974L755.344 359.894L755.524 360.994L755.714 361.724C756.021 362.671 756.204 363.527 756.264 364.294C756.384 364.387 756.444 364.481 756.444 364.574V365.214C756.871 366.287 757.117 367.327 757.184 368.334C757.364 368.274 757.484 368.151 757.544 367.964C757.697 367.204 757.851 366.541 758.004 365.974C758.157 365.407 758.311 364.911 758.464 364.484V363.744C758.864 362.644 759.107 361.664 759.194 360.804L759.564 359.524L760.304 356.584L760.484 355.114L760.854 353.834L761.034 353.284V352.734C761.247 352.147 761.417 351.617 761.544 351.144C761.664 350.671 761.737 350.221 761.764 349.794L762.134 348.504L763.604 342.444L764.154 339.514L764.524 338.044C764.857 337.157 765.041 336.424 765.074 335.844L765.254 334.924L765.624 333.454C765.897 332.567 766.081 331.834 766.174 331.254L766.354 330.514L766.914 327.944L767.274 326.844V326.294L767.824 324.824V324.094L768.014 323.534L768.564 320.964H781.044L780.314 324.644L779.764 326.844L779.574 327.394L779.024 329.964L778.664 331.434L778.294 332.714L777.554 336.394L777.194 337.674L776.454 341.164L776.094 342.444L775.904 343.004L775.534 345.014L775.354 345.384L775.174 346.674C774.867 347.681 774.684 348.537 774.624 349.244L773.884 351.444L773.704 352.734L773.514 353.464L773.334 354.014L773.154 355.304L772.964 355.854L771.864 360.444L771.684 361.724L771.314 363.014L770.394 366.684L770.214 367.964L769.114 372.554L768.564 375.124C768.224 376.044 768.041 376.841 768.014 377.514L767.274 379.904V380.634C766.941 381.554 766.757 382.351 766.724 383.024C766.417 384.031 766.234 384.887 766.174 385.594L765.804 386.874L765.624 387.244L765.444 388.534C765.137 389.541 764.954 390.397 764.894 391.104H751.304L751.124 389.634C750.911 389.114 750.787 388.684 750.754 388.344L750.384 386.874L750.204 385.594L749.834 384.304C749.741 383.937 749.664 383.587 749.604 383.254C749.544 382.914 749.497 382.591 749.464 382.284L749.284 381.554L749.104 380.634C748.977 380.481 748.914 380.297 748.914 380.084L748.734 379.164L748.554 378.614C748.461 378.221 748.384 377.861 748.324 377.534C748.257 377.214 748.211 376.901 748.184 376.594C747.971 376.014 747.811 375.481 747.704 374.994C747.597 374.501 747.511 374.057 747.444 373.664L747.264 372.924L747.084 372.004C746.957 371.637 746.871 371.287 746.824 370.954C746.784 370.614 746.747 370.291 746.714 369.984C746.501 369.377 746.334 368.797 746.214 368.244C746.087 367.691 746.011 367.171 745.984 366.684C745.857 366.531 745.794 366.347 745.794 366.134L745.614 365.394L745.434 364.844C745.341 364.204 745.217 363.594 745.064 363.014L744.694 361.354L744.514 360.254L744.144 359.344L743.774 357.134L743.594 356.584V356.034C743.287 355.301 743.104 354.627 743.044 354.014L742.674 351.814L742.304 350.894L741.944 349.424V348.694C741.577 347.681 741.394 346.824 741.394 346.124C741.267 345.971 741.204 345.787 741.204 345.574L741.024 345.014V344.464C740.717 343.764 740.534 343.031 740.474 342.264C740.167 341.284 739.984 340.367 739.924 339.514L739.554 340.244L739.374 341.344L738.824 343.734L738.454 345.754L738.264 346.304L737.534 349.424L737.354 350.164L736.984 351.994L736.804 352.734L736.434 354.754L736.254 355.304L735.514 358.784L735.144 360.074L734.964 361.354C734.631 362.274 734.447 363.071 734.414 363.744L734.234 364.114L734.044 365.214L733.864 365.764L732.944 370.354L732.764 370.904L732.024 374.394L731.844 375.124L731.664 376.044L731.474 376.594L730.744 380.084L730.374 381.554L730.004 383.394L729.824 383.754L729.454 385.414L729.274 386.144L729.094 387.424C728.874 388.191 728.751 388.804 728.724 389.264C728.597 389.571 728.514 389.861 728.474 390.134C728.427 390.414 728.387 390.674 728.354 390.914C727.927 390.981 727.537 391.034 727.184 391.074C726.831 391.121 726.487 391.144 726.154 391.144H725.694C725.541 391.144 725.387 391.131 725.234 391.104H714.584V390.364C714.157 389.264 713.914 388.224 713.854 387.244C713.727 387.091 713.664 386.907 713.664 386.694L713.484 385.774C712.811 383.601 712.381 381.764 712.194 380.264L712.014 379.714L711.094 376.234L710.914 374.764L709.444 369.074V368.334C709.137 367.634 708.954 366.901 708.894 366.134L708.524 365.034L708.164 363.744V363.194L707.244 359.524V358.974L707.054 358.234L706.694 357.504L706.504 356.034C706.264 355.301 706.067 354.627 705.914 354.014C705.761 353.401 705.654 352.851 705.594 352.364L705.404 351.814V351.264C705.284 351.111 705.224 350.927 705.224 350.714L704.854 349.244L704.674 348.694C704.547 348.047 704.431 347.464 704.324 346.944C704.217 346.424 704.087 345.967 703.934 345.574L703.754 344.284C703.541 343.671 703.371 343.104 703.244 342.584C703.124 342.064 703.047 341.591 703.014 341.164L702.834 340.244C702.714 340.091 702.654 339.907 702.654 339.694L701.734 336.024L701.364 334.734L701.184 333.824L701.004 333.084L700.814 331.804C700.567 331.157 700.444 330.604 700.444 330.144V329.964L700.084 329.044L699.894 328.314C699.774 327.427 699.591 326.691 699.344 326.104V325.374C699.224 325.221 699.164 325.037 699.164 324.824" fill="white"/>
<path d="M824.618 345.385L825.178 346.485C826.611 348.265 827.528 350.101 827.928 351.995C828.048 352.788 828.138 353.531 828.198 354.225C828.265 354.911 828.298 355.515 828.298 356.035V380.265C829.425 382.505 831.075 383.851 833.248 384.305L832.888 384.855C832.761 385.075 832.638 385.198 832.518 385.225L832.338 385.775L831.968 386.145C831.661 386.818 831.295 387.368 830.868 387.795C830.435 388.928 829.881 389.785 829.208 390.365C828.935 390.978 828.675 391.508 828.428 391.955C828.188 392.395 827.961 392.785 827.748 393.125C824.168 392.205 821.351 390.551 819.298 388.165H818.748C814.801 391.011 810.731 392.435 806.538 392.435C804.271 392.435 802.038 392.051 799.838 391.285C793.258 388.931 789.281 384.648 787.908 378.435V378.205C787.908 366.365 794.838 360.445 808.698 360.445H808.838C809.111 360.318 809.415 360.255 809.748 360.255L810.298 360.075H811.588L812.138 359.895H812.688L817.278 359.345C817.338 359.005 817.368 358.698 817.368 358.425V357.505C817.368 352.391 814.661 349.835 809.248 349.835C805.481 349.835 800.325 351.105 793.778 353.645L793.048 351.995L792.678 350.895L792.308 350.525L792.128 350.165L791.758 349.055C791.425 348.508 791.181 347.958 791.028 347.405C790.381 346.551 789.951 345.695 789.738 344.835L790.288 344.655L790.658 344.465L791.208 344.285L791.578 343.915H792.128C792.248 343.795 792.355 343.735 792.448 343.735H792.498C793.598 343.155 794.575 342.725 795.428 342.445L796.348 342.265C797.021 341.958 797.635 341.775 798.188 341.715L799.658 341.345C800.725 340.918 801.765 340.675 802.778 340.615L806.818 339.875C807.425 339.815 808.011 339.761 808.578 339.715C809.145 339.668 809.705 339.645 810.258 339.645C816.098 339.645 820.885 341.558 824.618 345.385ZM812.868 368.705H811.768C811.495 368.765 811.228 368.811 810.968 368.845C810.708 368.871 810.455 368.885 810.208 368.885H809.938L809.198 369.075H808.648C808.495 369.195 808.311 369.255 808.098 369.255H807.548L804.608 369.985H804.058C803.205 370.478 802.471 370.785 801.858 370.905C799.871 372.805 798.878 374.641 798.878 376.415C798.878 378.035 799.688 379.625 801.308 381.185C803.661 382.625 805.955 383.345 808.188 383.345C811.035 383.345 813.758 382.198 816.358 379.905C816.605 379.198 816.851 378.708 817.098 378.435L817.278 377.885L817.098 377.145V368.515H813.428C813.275 368.641 813.088 368.705 812.868 368.705Z" fill="white"/>
<path d="M887.103 349.787V350.337C887.503 351.07 887.749 351.804 887.843 352.537V390.907H876.643V358.417L876.453 357.317C874.926 352.69 872.356 350.377 868.743 350.377C867.643 350.377 866.419 350.607 865.073 351.067C862.013 352.387 859.809 354.47 858.463 357.317L857.733 360.437V390.907H846.713V340.787H857.733V345.007C861.159 341.947 864.893 340.114 868.933 339.507H869.753C877.953 339.507 883.736 342.934 887.103 349.787Z" fill="white"/>
<path d="M450.553 314.75H400.053V412.75H450.553V314.75Z" stroke="white" stroke-width="2" stroke-dasharray="5 5"/>
<path d="M498.053 314.75H452.553V412.75H498.053V314.75Z" stroke="white" stroke-width="2" stroke-dasharray="5 5"/>
<path d="M555.553 314.75H500.053V412.75H555.553V314.75Z" stroke="white" stroke-width="2" stroke-dasharray="5 5"/>
<path d="M610.053 314.75H557.553V412.75H610.053V314.75Z" stroke="white" stroke-width="2" stroke-dasharray="5 5"/>
<path d="M666.053 314.75H612.053V412.75H666.053V314.75Z" stroke="white" stroke-width="2" stroke-dasharray="5 5"/>
<path d="M691.053 314.75H668.053V412.75H691.053V314.75Z" stroke="white" stroke-width="2" stroke-dasharray="5 5"/>
<path d="M782.553 314.75H693.053V412.75H782.553V314.75Z" stroke="white" stroke-width="2" stroke-dasharray="5 5"/>
<path d="M838.053 314.75H784.553V412.75H838.053V314.75Z" stroke="white" stroke-width="2" stroke-dasharray="5 5"/>
<path d="M894.053 314.75H840.053V412.75H894.053V314.75Z" stroke="white" stroke-width="2" stroke-dasharray="5 5"/>
<path d="M443.215 485.415V476.305H496.205V485.415H443.215ZM436.355 503.525V494.635H503.625V503.525H436.355ZM420.935 522.425V513.205H518.815V522.425H420.935ZM434.775 460.325V451.775H473.925V460.325H434.775ZM464.815 457.515V451.775H476.405C478.805 454.849 481.712 457.829 485.125 460.715C488.538 463.609 492.305 466.292 496.425 468.765C500.552 471.239 504.865 473.452 509.365 475.405C513.865 477.352 518.402 479.002 522.975 480.355C522.155 480.955 521.218 481.742 520.165 482.715C519.118 483.689 518.105 484.702 517.125 485.755C516.152 486.802 515.365 487.775 514.765 488.675C508.765 486.502 502.842 483.802 496.995 480.575C491.142 477.349 485.722 473.769 480.735 469.835C475.748 465.895 471.455 461.789 467.855 457.515H464.815ZM462.345 452.905L472.015 456.615C468.342 461.562 463.878 466.135 458.625 470.335C453.378 474.535 447.772 478.249 441.805 481.475C435.845 484.702 429.828 487.515 423.755 489.915C423.228 489.162 422.515 488.262 421.615 487.215C420.715 486.162 419.778 485.129 418.805 484.115C417.832 483.109 416.968 482.305 416.215 481.705C422.368 479.825 428.368 477.462 434.215 474.615C440.068 471.762 445.412 468.499 450.245 464.825C455.085 461.152 459.118 457.179 462.345 452.905ZM464.145 519.615V480.465H475.055V519.615H464.145ZM420.155 440.185V430.405H519.605V440.185H420.155ZM444.115 449.525V421.855H454.695V449.525H444.115ZM484.395 450.085V421.855H494.965V450.085" fill="white"/>
<path d="M606.48 429.618V424.108H626.16V429.618H606.48ZM605.8 447.958V442.558H626.95V447.958H605.8ZM605.8 456.388V451.108H626.95V456.388H605.8ZM589.38 509.718V502.858H646.41V509.718H589.38ZM602.54 439.068V433.108H629.54V439.068H602.54ZM620.2 465.278H612.21V471.688H620.2V465.278ZM605.57 476.868V460.108H627.06V476.868H605.57ZM591.29 498.128V491.718H637.97V486.878H584.31V480.468H647.88V498.128H591.29ZM587.46 478.438V452.908H594.55V478.438H587.46ZM577.23 456.838L576.44 449.978C579.74 449.831 583.433 449.681 587.52 449.528C591.607 449.381 595.937 449.194 600.51 448.968V455.158C596.31 455.531 592.243 455.831 588.31 456.058C584.37 456.278 580.677 456.538 577.23 456.838ZM588.25 491.718H598.15C597.25 495.318 596.277 499.068 595.23 502.968C594.177 506.868 593.2 510.241 592.3 513.088L582.74 511.738C583.787 508.964 584.8 505.758 585.78 502.118C586.753 498.484 587.577 495.018 588.25 491.718ZM643.04 503.978V502.858H653.05C653.05 502.858 653.013 503.361 652.94 504.368C652.867 505.381 652.717 506.228 652.49 506.908C651.437 511.554 650.347 515.208 649.22 517.868C648.1 520.534 646.79 522.468 645.29 523.668C644.017 524.568 642.647 525.184 641.18 525.518C639.72 525.858 637.977 526.064 635.95 526.138C634.223 526.218 631.767 526.238 628.58 526.198C625.393 526.158 622 526.064 618.4 525.918C618.327 524.718 618.027 523.368 617.5 521.868C616.973 520.368 616.337 519.018 615.59 517.818C619.117 518.191 622.53 518.414 625.83 518.488C629.13 518.568 631.453 518.608 632.8 518.608C634 518.608 634.973 518.568 635.72 518.488C636.473 518.414 637.113 518.191 637.64 517.818C638.687 516.991 639.643 515.508 640.51 513.368C641.37 511.234 642.213 508.104 643.04 503.978ZM595.9 460.888L601.3 459.658C601.9 461.531 602.48 463.591 603.04 465.838C603.607 468.091 604.04 470.041 604.34 471.688L598.49 473.268C598.337 471.541 598.017 469.534 597.53 467.248C597.043 464.961 596.5 462.841 595.9 460.888ZM595.56 445.588L600.4 443.788C601.373 445.668 602.273 447.768 603.1 450.088C603.927 452.414 604.49 454.441 604.79 456.168L599.5 458.188C599.273 456.468 598.787 454.444 598.04 452.118C597.287 449.791 596.46 447.614 595.56 445.588ZM577.56 436.708L581.16 431.308C583.34 432.728 585.477 434.358 587.57 436.198C589.677 438.038 591.253 439.631 592.3 440.978L588.25 447.168C587.123 445.594 585.55 443.831 583.53 441.878C581.503 439.931 579.513 438.208 577.56 436.708ZM588.25 421.518L594.66 424.668C593.16 427.141 591.66 429.654 590.16 432.208C588.66 434.754 587.237 436.891 585.89 438.618L580.94 436.028C582.14 434.081 583.453 431.701 584.88 428.888C586.3 426.074 587.423 423.618 588.25 421.518ZM595.45 430.858L601.75 434.458C599.277 437.831 596.633 441.391 593.82 445.138C591.007 448.891 588.363 452.041 585.89 454.588L581.16 451.668C582.74 449.794 584.43 447.658 586.23 445.258C588.03 442.858 589.733 440.381 591.34 437.828C592.953 435.281 594.323 432.958 595.45 430.858ZM580.04 459.208L586.68 460.668C586 463.594 585.173 466.518 584.2 469.438C583.227 472.364 582.177 474.878 581.05 476.978C580.377 476.531 579.4 476.024 578.12 475.458C576.847 474.898 575.8 474.431 574.98 474.058C576.253 471.958 577.3 469.611 578.12 467.018C578.947 464.431 579.587 461.828 580.04 459.208ZM639.44 478.438V452.908H646.64V478.438H639.44ZM629.09 456.838L628.41 449.978C631.863 449.831 635.747 449.681 640.06 449.528C644.373 449.381 648.967 449.231 653.84 449.078L653.72 455.268C649.3 455.568 645.007 455.848 640.84 456.108C636.68 456.374 632.763 456.618 629.09 456.838ZM648.21 460.888L653.95 459.208C654.923 461.454 655.88 463.928 656.82 466.628C657.753 469.328 658.41 471.654 658.79 473.608L652.83 475.518C652.53 473.564 651.93 471.201 651.03 468.428C650.13 465.654 649.19 463.141 648.21 460.888ZM647.31 445.368L652.6 443.008C653.873 444.954 655.053 447.108 656.14 449.468C657.233 451.834 658.003 453.918 658.45 455.718L652.71 458.308C652.337 456.508 651.643 454.388 650.63 451.948C649.617 449.508 648.51 447.314 647.31 445.368ZM628.64 436.478L632.46 431.418C634.413 432.764 636.363 434.321 638.31 436.088C640.263 437.848 641.763 439.441 642.81 440.868L638.43 446.718C637.45 445.218 636.043 443.491 634.21 441.538C632.37 439.591 630.513 437.904 628.64 436.478ZM639.66 421.628L646.08 424.888C644.5 427.368 642.923 429.861 641.35 432.368C639.777 434.881 638.277 437.038 636.85 438.838L631.9 436.258C633.173 434.304 634.56 431.921 636.06 429.108C637.56 426.294 638.76 423.801 639.66 421.628ZM647.65 430.408L653.95 434.008C651.403 437.381 648.63 440.941 645.63 444.688C642.63 448.441 639.78 451.591 637.08 454.138L632.46 451.218C634.187 449.344 635.987 447.208 637.86 444.808C639.74 442.408 641.54 439.931 643.26 437.378C644.987 434.831 646.45 432.508 647.65 430.408ZM631.9 459.208L638.43 460.778C637.903 463.551 637.153 466.381 636.18 469.268C635.2 472.161 634.15 474.618 633.03 476.638C632.43 476.264 631.53 475.758 630.33 475.118C629.13 474.484 628.08 473.981 627.18 473.608C628.373 471.508 629.347 469.218 630.1 466.738C630.847 464.264 631.447 461.754 631.9 459.208ZM555.4 430.288L561.59 423.318C563.463 424.291 565.43 425.471 567.49 426.858C569.557 428.244 571.49 429.631 573.29 431.018C575.09 432.411 576.553 433.744 577.68 435.018L571.26 442.888C570.213 441.614 568.807 440.228 567.04 438.728C565.28 437.228 563.387 435.748 561.36 434.288C559.34 432.821 557.353 431.488 555.4 430.288ZM553.04 460.328L558.89 453.018C560.837 453.918 562.88 455.024 565.02 456.338C567.16 457.651 569.147 458.961 570.98 460.268C572.82 461.581 574.34 462.838 575.54 464.038L569.35 472.138C568.223 470.938 566.743 469.628 564.91 468.208C563.07 466.781 561.1 465.374 559 463.988C556.9 462.601 554.913 461.381 553.04 460.328ZM564.85 524.908L555.29 519.508C556.717 516.508 558.233 513.018 559.84 509.038C561.453 505.064 563.103 500.864 564.79 496.438C566.483 492.018 568.04 487.668 569.46 483.388L577.9 488.788C576.7 492.768 575.35 496.858 573.85 501.058C572.35 505.258 570.85 509.381 569.35 513.428C567.85 517.481 566.35 521.308 564.85 524.908Z" fill="white"/>
<path d="M535.553 414.75H400.053V555.25H535.553V414.75Z" stroke="white" stroke-width="2" stroke-dasharray="5 5"/>
<path d="M673.053 414.75H537.553V555.25H673.053V414.75Z" stroke="white" stroke-width="2" stroke-dasharray="5 5"/>
<path d="M400.572 89.3005V78.2805H451.242V89.3005H431.962V148.6H419.852V89.3005" fill="white"/>
<path d="M490.868 102.885L491.428 103.985C492.861 105.765 493.778 107.601 494.178 109.495C494.298 110.288 494.388 111.031 494.448 111.725C494.515 112.411 494.548 113.015 494.548 113.535V137.765C495.675 140.005 497.325 141.351 499.498 141.805L499.138 142.355C499.011 142.575 498.888 142.698 498.768 142.725L498.588 143.275L498.218 143.645C497.911 144.318 497.545 144.868 497.118 145.295C496.685 146.428 496.131 147.285 495.458 147.865C495.185 148.478 494.925 149.008 494.678 149.455C494.438 149.895 494.211 150.285 493.998 150.625C490.418 149.705 487.601 148.051 485.548 145.665H484.998C481.051 148.511 476.981 149.935 472.788 149.935C470.521 149.935 468.288 149.551 466.088 148.785C459.508 146.431 455.531 142.148 454.158 135.935V135.705C454.158 123.865 461.088 117.945 474.948 117.945H475.088C475.361 117.818 475.665 117.755 475.998 117.755L476.548 117.575H477.838L478.388 117.395H478.938L483.528 116.845C483.588 116.505 483.618 116.198 483.618 115.925V115.005C483.618 109.891 480.911 107.335 475.498 107.335C471.731 107.335 466.575 108.605 460.028 111.145L459.298 109.495L458.928 108.395L458.558 108.025L458.378 107.665L458.008 106.555C457.675 106.008 457.431 105.458 457.278 104.905C456.631 104.051 456.201 103.195 455.988 102.335L456.538 102.155L456.908 101.965L457.458 101.785L457.828 101.415H458.378C458.498 101.295 458.605 101.235 458.698 101.235H458.748C459.848 100.655 460.825 100.225 461.678 99.9448L462.598 99.7648C463.271 99.4581 463.885 99.2748 464.438 99.2148L465.908 98.8448C466.975 98.4181 468.015 98.1748 469.028 98.1148L473.068 97.3748C473.675 97.3148 474.261 97.2614 474.828 97.2148C475.395 97.1681 475.955 97.1448 476.508 97.1448C482.348 97.1448 487.135 99.0581 490.868 102.885ZM479.118 126.205H478.018C477.745 126.265 477.478 126.311 477.218 126.345C476.958 126.371 476.705 126.385 476.458 126.385H476.188L475.448 126.575H474.898C474.745 126.695 474.561 126.755 474.348 126.755H473.798L470.858 127.485H470.308C469.455 127.978 468.721 128.285 468.108 128.405C466.121 130.305 465.128 132.141 465.128 133.915C465.128 135.535 465.938 137.125 467.558 138.685C469.911 140.125 472.205 140.845 474.438 140.845C477.285 140.845 480.008 139.698 482.608 137.405C482.855 136.698 483.101 136.208 483.348 135.935L483.528 135.385L483.348 134.645V126.015H479.678C479.525 126.141 479.338 126.205 479.118 126.205Z" fill="white"/>
<path d="M510.485 148.781V98.6612H521.685V148.781H510.485ZM522.785 83.9712V84.5712C522.785 87.1112 521.988 89.1746 520.395 90.7612C518.715 91.5879 517.168 92.0012 515.755 92.0012C513.308 92.0012 511.368 90.6712 509.935 88.0112C509.655 86.9379 509.515 85.9912 509.515 85.1712C509.515 82.0446 511.245 79.9312 514.705 78.8312H515.165C519.051 78.8312 521.591 80.5446 522.785 83.9712Z" fill="white"/>
<path d="M561.744 78.8341V78.4641H574.414L574.594 79.7541L574.784 80.3041L575.144 81.5941L575.514 83.7941L576.064 85.6241L576.434 87.8341L576.984 89.6641L577.164 91.1341C577.377 91.6541 577.501 92.0841 577.534 92.4241L577.714 93.154L578.084 94.2541V94.994C578.204 95.0874 578.264 95.1774 578.264 95.264V95.9141C578.604 96.5874 578.791 97.3207 578.824 98.1141L579.184 99.2141L579.554 100.504L579.924 102.704L580.474 104.534L580.654 105.644L581.754 110.234C581.847 110.661 581.934 111.051 582.014 111.404C582.087 111.751 582.124 112.094 582.124 112.434L582.494 113.164V113.904L582.854 114.824V115.554L583.224 116.284V117.024C583.564 117.944 583.747 118.741 583.774 119.414L583.964 120.144C584.177 120.757 584.344 121.324 584.464 121.844C584.584 122.364 584.661 122.837 584.694 123.264L585.064 124.734L585.434 126.014L585.794 124.914L586.534 121.244L586.894 120.324L587.084 119.224L587.634 116.654L588.004 115.374V114.824L588.734 111.884L588.914 110.784L589.284 110.044L589.464 109.314L589.654 108.394V107.664L589.834 107.104L590.574 104.174L590.934 101.964L591.124 101.234L591.484 100.504C591.551 99.5241 591.734 98.664 592.034 97.924L592.224 97.014V96.4641L592.594 94.994L592.774 94.4441L593.324 92.0541L593.504 90.9541L593.874 89.8541L594.054 88.9341L594.604 86.5441L594.794 85.6241L594.974 85.2641C595.007 84.9241 595.047 84.5941 595.094 84.2741C595.141 83.9541 595.224 83.6707 595.344 83.4241L595.524 82.8741V82.3241L595.714 81.5941L595.894 81.0341L596.444 78.4641H610.034V79.0141C610.461 80.0874 610.704 81.1307 610.764 82.1441L611.134 83.6041L611.314 84.1641L612.054 87.4641L612.414 88.9341C612.661 89.8207 612.784 90.5541 612.784 91.1341C612.997 91.6541 613.121 92.0841 613.154 92.4241L613.514 93.7041L613.704 94.994L613.884 95.724L614.074 96.2741C614.161 96.6741 614.237 97.034 614.304 97.354C614.364 97.674 614.407 97.9874 614.434 98.2941C614.681 98.8741 614.851 99.4107 614.944 99.904C615.037 100.391 615.114 100.834 615.174 101.234L615.354 102.334L615.724 103.254L615.904 104.354V104.904C616.211 105.637 616.394 106.311 616.454 106.924L616.644 108.024C616.944 108.757 617.127 109.431 617.194 110.044L617.374 110.964L617.924 112.984V113.714C618.044 113.994 618.104 114.301 618.104 114.634C618.444 115.341 618.631 115.954 618.664 116.474L618.844 117.394L619.024 118.494L619.214 119.224C619.521 120.171 619.704 121.027 619.764 121.794C619.884 121.887 619.944 121.981 619.944 122.074V122.714C620.371 123.787 620.617 124.827 620.684 125.834C620.864 125.774 620.984 125.651 621.044 125.464C621.197 124.704 621.351 124.041 621.504 123.474C621.657 122.907 621.811 122.411 621.964 121.984V121.244C622.364 120.144 622.607 119.164 622.694 118.304L623.064 117.024L623.804 114.084L623.984 112.614L624.354 111.334L624.534 110.784V110.234C624.747 109.647 624.917 109.117 625.044 108.644C625.164 108.171 625.237 107.721 625.264 107.294L625.634 106.004L627.104 99.944L627.654 97.014L628.024 95.5441C628.357 94.6574 628.541 93.9241 628.574 93.3441L628.754 92.4241L629.124 90.9541C629.397 90.0674 629.581 89.3341 629.674 88.7541L629.854 88.0141L630.414 85.444L630.774 84.3441V83.7941L631.324 82.3241V81.5941L631.514 81.0341L632.064 78.4641H644.544L643.814 82.1441L643.264 84.3441L643.074 84.8941L642.524 87.4641L642.164 88.9341L641.794 90.2141L641.054 93.894L640.694 95.174L639.954 98.6641L639.594 99.944L639.404 100.504L639.034 102.514L638.854 102.884L638.674 104.174C638.367 105.181 638.184 106.037 638.124 106.744L637.384 108.944L637.204 110.234L637.014 110.964L636.834 111.514L636.654 112.804L636.464 113.354L635.364 117.944L635.184 119.224L634.814 120.514L633.894 124.184L633.714 125.464L632.614 130.054L632.064 132.624C631.724 133.544 631.541 134.341 631.514 135.014L630.774 137.404V138.134C630.441 139.054 630.257 139.851 630.224 140.524C629.917 141.531 629.734 142.387 629.674 143.094L629.304 144.374L629.124 144.744L628.944 146.034C628.637 147.041 628.454 147.897 628.394 148.604H614.804L614.624 147.134C614.411 146.614 614.287 146.184 614.254 145.844L613.884 144.374L613.704 143.094L613.334 141.804C613.241 141.437 613.164 141.087 613.104 140.754C613.044 140.414 612.997 140.091 612.964 139.784L612.784 139.054L612.604 138.134C612.477 137.981 612.414 137.797 612.414 137.584L612.234 136.664L612.054 136.114C611.961 135.721 611.884 135.361 611.824 135.034C611.757 134.714 611.711 134.401 611.684 134.094C611.471 133.514 611.311 132.981 611.204 132.494C611.097 132.001 611.011 131.557 610.944 131.164L610.764 130.424L610.584 129.504C610.457 129.137 610.371 128.787 610.324 128.454C610.284 128.114 610.247 127.791 610.214 127.484C610.001 126.877 609.834 126.297 609.714 125.744C609.587 125.191 609.511 124.671 609.484 124.184C609.357 124.031 609.294 123.847 609.294 123.634L609.114 122.894L608.934 122.344C608.841 121.704 608.717 121.094 608.564 120.514L608.194 118.854L608.014 117.754L607.644 116.844L607.274 114.634L607.094 114.084V113.534C606.787 112.801 606.604 112.127 606.544 111.514L606.174 109.314L605.804 108.394L605.444 106.924V106.194C605.077 105.181 604.894 104.324 604.894 103.624C604.767 103.471 604.704 103.287 604.704 103.074L604.524 102.514V101.964C604.217 101.264 604.034 100.531 603.974 99.764C603.667 98.784 603.484 97.8674 603.424 97.014L603.054 97.744L602.874 98.8441L602.324 101.234L601.954 103.254L601.764 103.804L601.034 106.924L600.854 107.664L600.484 109.494L600.304 110.234L599.934 112.254L599.754 112.804L599.014 116.284L598.644 117.574L598.464 118.854C598.131 119.774 597.947 120.571 597.914 121.244L597.734 121.614L597.544 122.714L597.364 123.264L596.444 127.854L596.264 128.404L595.524 131.894L595.344 132.624L595.164 133.544L594.974 134.094L594.244 137.584L593.874 139.054L593.504 140.894L593.324 141.254L592.954 142.914L592.774 143.644L592.594 144.924C592.374 145.691 592.251 146.304 592.224 146.764C592.097 147.071 592.014 147.361 591.974 147.634C591.927 147.914 591.887 148.174 591.854 148.414C591.427 148.481 591.037 148.534 590.684 148.574C590.331 148.621 589.987 148.644 589.654 148.644H589.194C589.041 148.644 588.887 148.631 588.734 148.604H578.084V147.864C577.657 146.764 577.414 145.724 577.354 144.744C577.227 144.591 577.164 144.407 577.164 144.194L576.984 143.274C576.311 141.101 575.881 139.264 575.694 137.764L575.514 137.214L574.594 133.734L574.414 132.264L572.944 126.574V125.834C572.637 125.134 572.454 124.401 572.394 123.634L572.024 122.534L571.664 121.244V120.694L570.744 117.024V116.474L570.554 115.734L570.194 115.004L570.004 113.534C569.764 112.801 569.567 112.127 569.414 111.514C569.261 110.901 569.154 110.351 569.094 109.864L568.904 109.314V108.764C568.784 108.611 568.724 108.427 568.724 108.214L568.354 106.744L568.174 106.194C568.047 105.547 567.931 104.964 567.824 104.444C567.717 103.924 567.587 103.467 567.434 103.074L567.254 101.784C567.041 101.171 566.871 100.604 566.744 100.084C566.624 99.564 566.547 99.0907 566.514 98.6641L566.334 97.744C566.214 97.5907 566.154 97.4074 566.154 97.194L565.234 93.5241L564.864 92.234L564.684 91.324L564.504 90.5841L564.314 89.3041C564.067 88.6574 563.944 88.1041 563.944 87.6441V87.4641L563.584 86.5441L563.394 85.8141C563.274 84.9274 563.091 84.1907 562.844 83.6041V82.8741C562.724 82.7207 562.664 82.5374 562.664 82.3241" fill="white"/>
<path d="M688.118 102.885L688.678 103.985C690.111 105.765 691.028 107.601 691.428 109.495C691.548 110.288 691.638 111.031 691.698 111.725C691.765 112.411 691.798 113.015 691.798 113.535V137.765C692.925 140.005 694.575 141.351 696.748 141.805L696.388 142.355C696.261 142.575 696.138 142.698 696.018 142.725L695.838 143.275L695.468 143.645C695.161 144.318 694.795 144.868 694.368 145.295C693.935 146.428 693.381 147.285 692.708 147.865C692.435 148.478 692.175 149.008 691.928 149.455C691.688 149.895 691.461 150.285 691.248 150.625C687.668 149.705 684.851 148.051 682.798 145.665H682.248C678.301 148.511 674.231 149.935 670.038 149.935C667.771 149.935 665.538 149.551 663.338 148.785C656.758 146.431 652.781 142.148 651.408 135.935V135.705C651.408 123.865 658.338 117.945 672.198 117.945H672.338C672.611 117.818 672.915 117.755 673.248 117.755L673.798 117.575H675.088L675.638 117.395H676.188L680.778 116.845C680.838 116.505 680.868 116.198 680.868 115.925V115.005C680.868 109.891 678.161 107.335 672.748 107.335C668.981 107.335 663.825 108.605 657.278 111.145L656.548 109.495L656.178 108.395L655.808 108.025L655.628 107.665L655.258 106.555C654.925 106.008 654.681 105.458 654.528 104.905C653.881 104.051 653.451 103.195 653.238 102.335L653.788 102.155L654.158 101.965L654.708 101.785L655.078 101.415H655.628C655.748 101.295 655.855 101.235 655.948 101.235H655.998C657.098 100.655 658.075 100.225 658.928 99.9448L659.848 99.7648C660.521 99.4581 661.135 99.2748 661.688 99.2148L663.158 98.8448C664.225 98.4181 665.265 98.1748 666.278 98.1148L670.318 97.3748C670.925 97.3148 671.511 97.2614 672.078 97.2148C672.645 97.1681 673.205 97.1448 673.758 97.1448C679.598 97.1448 684.385 99.0581 688.118 102.885ZM676.368 126.205H675.268C674.995 126.265 674.728 126.311 674.468 126.345C674.208 126.371 673.955 126.385 673.708 126.385H673.438L672.698 126.575H672.148C671.995 126.695 671.811 126.755 671.598 126.755H671.048L668.108 127.485H667.558C666.705 127.978 665.971 128.285 665.358 128.405C663.371 130.305 662.378 132.141 662.378 133.915C662.378 135.535 663.188 137.125 664.808 138.685C667.161 140.125 669.455 140.845 671.688 140.845C674.535 140.845 677.258 139.698 679.858 137.405C680.105 136.698 680.351 136.208 680.598 135.935L680.778 135.385L680.598 134.645V126.015H676.928C676.775 126.141 676.588 126.205 676.368 126.205Z" fill="white"/>
<path d="M709.485 148.781V98.6612H720.685V148.781H709.485ZM721.785 83.9712V84.5712C721.785 87.1112 720.988 89.1746 719.395 90.7612C717.715 91.5879 716.168 92.0012 714.755 92.0012C712.308 92.0012 710.368 90.6712 708.935 88.0112C708.655 86.9379 708.515 85.9912 708.515 85.1712C708.515 82.0446 710.245 79.9312 713.705 78.8312H714.165C718.051 78.8312 720.591 80.5446 721.785 83.9712Z" fill="white"/>
<path d="M450.553 72.2501H400.053V170.25H450.553V72.2501Z" stroke="white" stroke-width="2" stroke-dasharray="5 5"/>
<path d="M502.553 72.2501H452.553V170.25H502.553V72.2501Z" stroke="white" stroke-width="2" stroke-dasharray="5 5"/>
<path d="M529.553 72.2501H504.553V170.25H529.553V72.2501Z" stroke="white" stroke-width="2" stroke-dasharray="5 5"/>
<path d="M554.553 72.2501H531.553V170.25H554.553V72.2501Z" stroke="white" stroke-width="2" stroke-dasharray="5 5"/>
<path d="M646.053 72.2501H556.553V170.25H646.053V72.2501Z" stroke="white" stroke-width="2" stroke-dasharray="5 5"/>
<path d="M701.553 72.2501H648.053V170.25H701.553V72.2501Z" stroke="white" stroke-width="2" stroke-dasharray="5 5"/>
<path d="M728.553 72.2501H703.553V170.25H728.553V72.2501Z" stroke="white" stroke-width="2" stroke-dasharray="5 5"/>
<path d="M399.053 556.25V671.462" stroke="#46C147" stroke-width="3.03189"/>
<path d="M399.053 556.25V671.462" stroke="#46C147" stroke-width="3.03189"/>
<path d="M399.053 647.207L435.435 638.111V656.303L399.053 647.207Z" fill="#46C147"/>
<path d="M399.053 647.207L362.67 638.111V656.303L399.053 647.207Z" fill="#46C147"/>
<path d="M381.37 708.308C379.423 708.308 377.765 707.779 376.395 706.719C375.026 705.651 373.979 704.105 373.256 702.081C372.532 700.048 372.171 697.593 372.171 694.717C372.171 691.857 372.532 689.415 373.256 687.391C373.988 685.358 375.039 683.808 376.408 682.74C377.786 681.663 379.44 681.125 381.37 681.125C383.299 681.125 384.948 681.663 386.318 682.74C387.696 683.808 388.747 685.358 389.47 687.391C390.203 689.415 390.569 691.857 390.569 694.717C390.569 697.593 390.207 700.048 389.483 702.081C388.76 704.105 387.713 705.651 386.344 706.719C384.974 707.779 383.316 708.308 381.37 708.308ZM381.37 705.466C383.299 705.466 384.798 704.536 385.866 702.675C386.934 700.815 387.468 698.162 387.468 694.717C387.468 692.425 387.222 690.475 386.731 688.864C386.249 687.253 385.551 686.026 384.638 685.182C383.734 684.338 382.644 683.916 381.37 683.916C379.457 683.916 377.963 684.859 376.886 686.745C375.81 688.623 375.271 691.28 375.271 694.717C375.271 697.008 375.513 698.954 375.995 700.556C376.477 702.159 377.171 703.377 378.075 704.213C378.988 705.048 380.086 705.466 381.37 705.466ZM409.587 692.546L406.848 693.321C406.676 692.865 406.421 692.421 406.086 691.991C405.758 691.551 405.31 691.189 404.742 690.905C404.173 690.621 403.446 690.479 402.558 690.479C401.344 690.479 400.332 690.759 399.522 691.319C398.721 691.87 398.321 692.572 398.321 693.425C398.321 694.183 398.596 694.781 399.148 695.221C399.699 695.66 400.56 696.026 401.732 696.319L404.677 697.042C406.452 697.473 407.774 698.132 408.644 699.019C409.514 699.898 409.949 701.03 409.949 702.417C409.949 703.554 409.621 704.57 408.967 705.466C408.321 706.362 407.416 707.068 406.254 707.585C405.091 708.102 403.738 708.36 402.197 708.36C400.173 708.36 398.497 707.921 397.171 707.042C395.844 706.164 395.005 704.88 394.651 703.192L397.545 702.469C397.821 703.537 398.342 704.338 399.109 704.872C399.884 705.406 400.896 705.673 402.145 705.673C403.566 705.673 404.695 705.371 405.53 704.768C406.374 704.157 406.796 703.425 406.796 702.572C406.796 701.883 406.555 701.306 406.073 700.841C405.59 700.367 404.85 700.014 403.85 699.781L400.543 699.006C398.725 698.575 397.39 697.908 396.538 697.003C395.694 696.09 395.272 694.949 395.272 693.58C395.272 692.46 395.586 691.469 396.215 690.608C396.852 689.747 397.718 689.071 398.812 688.58C399.914 688.089 401.163 687.843 402.558 687.843C404.522 687.843 406.064 688.274 407.184 689.135C408.312 689.997 409.113 691.133 409.587 692.546ZM419.035 707.947L412.988 688.102H416.192L420.482 703.296H420.688L424.926 688.102H428.182L432.368 703.244H432.575L436.864 688.102H440.068L434.022 707.947H431.024L426.683 692.701H426.373L422.032 707.947H419.035Z" fill="#46C147"/>
<path d="M399.053 556.25H514.265" stroke="#FF0000" stroke-width="3.03189"/>
<path d="M399.053 556.25H514.265" stroke="#FF0000" stroke-width="3.03189"/>
<path d="M490.01 556.25L480.914 592.633H499.105L490.01 556.25Z" fill="#FF0000"/>
<path d="M490.01 556.25L480.914 519.867H499.105L490.01 556.25Z" fill="#FF0000"/>
<path d="M544.815 565.809C542.868 565.809 541.21 565.28 539.84 564.22C538.471 563.152 537.424 561.606 536.701 559.582C535.977 557.549 535.615 555.094 535.615 552.218C535.615 549.358 535.977 546.916 536.701 544.892C537.433 542.859 538.484 541.309 539.853 540.241C541.231 539.164 542.885 538.626 544.815 538.626C546.744 538.626 548.393 539.164 549.763 540.241C551.141 541.309 552.192 542.859 552.915 544.892C553.647 546.916 554.014 549.358 554.014 552.218C554.014 555.094 553.652 557.549 552.928 559.582C552.205 561.606 551.158 563.152 549.789 564.22C548.419 565.28 546.761 565.809 544.815 565.809ZM544.815 562.967C546.744 562.967 548.243 562.037 549.311 560.176C550.379 558.316 550.913 555.663 550.913 552.218C550.913 549.926 550.667 547.975 550.176 546.365C549.694 544.754 548.996 543.527 548.083 542.683C547.179 541.838 546.089 541.416 544.815 541.416C542.902 541.416 541.408 542.36 540.331 544.246C539.255 546.124 538.716 548.781 538.716 552.218C538.716 554.509 538.957 556.455 539.44 558.057C539.922 559.659 540.616 560.878 541.52 561.714C542.433 562.549 543.531 562.967 544.815 562.967ZM573.032 550.047L570.293 550.822C570.12 550.366 569.866 549.922 569.53 549.491C569.203 549.052 568.755 548.69 568.187 548.406C567.618 548.122 566.89 547.98 566.003 547.98C564.789 547.98 563.777 548.26 562.967 548.82C562.166 549.371 561.766 550.073 561.766 550.926C561.766 551.684 562.041 552.282 562.592 552.721C563.144 553.161 564.005 553.527 565.176 553.82L568.122 554.543C569.897 554.974 571.219 555.633 572.089 556.52C572.959 557.398 573.394 558.531 573.394 559.918C573.394 561.055 573.066 562.071 572.412 562.967C571.766 563.863 570.861 564.569 569.698 565.086C568.536 565.603 567.183 565.861 565.642 565.861C563.617 565.861 561.942 565.422 560.616 564.543C559.289 563.665 558.449 562.381 558.096 560.693L560.99 559.97C561.266 561.038 561.787 561.839 562.554 562.373C563.329 562.907 564.341 563.174 565.59 563.174C567.011 563.174 568.139 562.872 568.975 562.269C569.819 561.658 570.241 560.926 570.241 560.073C570.241 559.384 570 558.807 569.518 558.342C569.035 557.868 568.294 557.515 567.295 557.282L563.988 556.507C562.17 556.076 560.835 555.409 559.983 554.504C559.138 553.591 558.716 552.45 558.716 551.081C558.716 549.961 559.031 548.97 559.66 548.109C560.297 547.248 561.163 546.572 562.257 546.081C563.359 545.59 564.608 545.344 566.003 545.344C567.967 545.344 569.509 545.775 570.629 546.636C571.757 547.497 572.558 548.634 573.032 550.047ZM582.48 565.448L576.433 545.603H579.637L583.927 560.796H584.133L588.371 545.603H591.627L595.813 560.745H596.02L600.309 545.603H603.513L597.467 565.448H594.469L590.128 550.202H589.818L585.477 565.448H582.48Z" fill="#FF0000"/>
</svg>
